<?xml version="1.0" encoding="utf-8" standalone="no"?>
<!DOCTYPE svg PUBLIC "-//W3C//DTD SVG 1.1//EN"
  "http://www.w3.org/Graphics/SVG/1.1/DTD/svg11.dtd">
<svg height="864pt" version="1.1" viewBox="0 0 576 864" width="576pt" xmlns="http://www.w3.org/2000/svg" xmlns:xlink="http://www.w3.org/1999/xlink">
 <metadata>
  <rdf:RDF xmlns:cc="http://creativecommons.org/ns#" xmlns:dc="http://purl.org/dc/elements/1.1/" xmlns:rdf="http://www.w3.org/1999/02/22-rdf-syntax-ns#">
   <cc:Work>
    <dc:type rdf:resource="http://purl.org/dc/dcmitype/StillImage"/>
    <dc:date>2021-06-21T10:27:13.533331</dc:date>
    <dc:format>image/svg+xml</dc:format>
    <dc:creator>
     <cc:Agent>
      <dc:title>Matplotlib v3.4.1, https://matplotlib.org/</dc:title>
     </cc:Agent>
    </dc:creator>
   </cc:Work>
  </rdf:RDF>
 </metadata>
 <defs>
  <style type="text/css">*{stroke-linecap:butt;stroke-linejoin:round;}</style>
 </defs>
 <g id="figure_1">
  <g id="patch_1">
   <path d="M 0 864 
L 576 864 
L 576 0 
L 0 0 
z
" style="fill:#ffffff;"/>
  </g>
  <g id="axes_1">
   <g id="patch_2">
    <path d="M 72 768.96 
L 518.4 768.96 
L 518.4 103.68 
L 72 103.68 
z
" style="fill:#ffffff;"/>
   </g>
   <g id="PolyCollection_1">
    <path clip-path="url(#pf6284b7930)" d="M 92.290909 329.879547 
L 92.290909 768.96 
L 96.390083 768.96 
L 100.489256 768.96 
L 104.58843 768.96 
L 108.687603 768.96 
L 112.786777 768.96 
L 116.88595 768.96 
L 120.985124 768.96 
L 125.084298 768.96 
L 129.183471 768.96 
L 133.282645 768.96 
L 137.381818 768.96 
L 141.480992 768.96 
L 145.580165 768.96 
L 149.679339 768.96 
L 153.778512 768.96 
L 157.877686 768.96 
L 161.97686 768.96 
L 166.076033 768.96 
L 170.175207 768.96 
L 174.27438 768.96 
L 178.373554 768.96 
L 182.472727 768.96 
L 186.571901 768.96 
L 190.671074 768.96 
L 194.770248 768.96 
L 198.869421 768.96 
L 202.968595 768.96 
L 207.067769 768.96 
L 211.166942 768.96 
L 215.266116 768.96 
L 219.365289 768.96 
L 223.464463 768.96 
L 227.563636 768.96 
L 231.66281 768.96 
L 235.761983 768.96 
L 239.861157 768.96 
L 243.960331 768.96 
L 248.059504 768.96 
L 252.158678 768.96 
L 256.257851 768.96 
L 260.357025 768.96 
L 264.456198 768.96 
L 268.555372 768.96 
L 272.654545 768.96 
L 276.753719 768.96 
L 280.852893 768.96 
L 284.952066 768.96 
L 289.05124 768.96 
L 293.150413 768.96 
L 297.249587 768.96 
L 301.34876 768.96 
L 305.447934 768.96 
L 309.547107 768.96 
L 313.646281 768.96 
L 317.745455 768.96 
L 321.844628 768.96 
L 325.943802 768.96 
L 330.042975 768.96 
L 334.142149 768.96 
L 338.241322 768.96 
L 342.340496 768.96 
L 346.439669 768.96 
L 350.538843 768.96 
L 354.638017 768.96 
L 358.73719 768.96 
L 362.836364 768.96 
L 366.935537 768.96 
L 371.034711 768.96 
L 375.133884 768.96 
L 379.233058 768.96 
L 383.332231 768.96 
L 387.431405 768.96 
L 391.530579 768.96 
L 395.629752 768.96 
L 399.728926 768.96 
L 403.828099 768.96 
L 407.927273 768.96 
L 412.026446 768.96 
L 416.12562 768.96 
L 420.224793 768.96 
L 424.323967 768.96 
L 428.42314 768.96 
L 432.522314 768.96 
L 436.621488 768.96 
L 440.720661 768.96 
L 444.819835 768.96 
L 448.919008 768.96 
L 453.018182 768.96 
L 457.117355 768.96 
L 461.216529 768.96 
L 465.315702 768.96 
L 469.414876 768.96 
L 473.51405 768.96 
L 477.613223 768.96 
L 481.712397 768.96 
L 485.81157 768.96 
L 489.910744 768.96 
L 494.009917 768.96 
L 498.109091 768.96 
L 498.109091 435.806567 
L 498.109091 435.806567 
L 494.009917 434.877643 
L 489.910744 433.942878 
L 485.81157 433.002868 
L 481.712397 432.054813 
L 477.613223 431.098932 
L 473.51405 430.139011 
L 469.414876 429.172139 
L 465.315702 428.199092 
L 461.216529 427.223377 
L 457.117355 426.243037 
L 453.018182 425.259244 
L 448.919008 424.271591 
L 444.819835 423.277713 
L 440.720661 422.273831 
L 436.621488 421.262702 
L 432.522314 420.246686 
L 428.42314 419.224045 
L 424.323967 418.189072 
L 420.224793 417.151117 
L 416.12562 416.107263 
L 412.026446 415.055514 
L 407.927273 413.99624 
L 403.828099 412.93182 
L 399.728926 411.866613 
L 395.629752 410.803089 
L 391.530579 409.739697 
L 387.431405 408.674855 
L 383.332231 407.612209 
L 379.233058 406.556101 
L 375.133884 405.502812 
L 371.034711 404.449908 
L 366.935537 403.394622 
L 362.836364 402.332987 
L 358.73719 401.266739 
L 354.638017 400.196701 
L 350.538843 399.126304 
L 346.439669 398.060161 
L 342.340496 396.99466 
L 338.241322 395.933481 
L 334.142149 394.865826 
L 330.042975 393.804502 
L 325.943802 392.739812 
L 321.844628 391.673485 
L 317.745455 390.608966 
L 313.646281 389.5515 
L 309.547107 388.502241 
L 305.447934 387.456509 
L 301.34876 386.405924 
L 297.249587 385.351045 
L 293.150413 384.299366 
L 289.05124 383.252686 
L 284.952066 382.215774 
L 280.852893 381.184911 
L 276.753719 380.155752 
L 272.654545 379.132811 
L 268.555372 378.121072 
L 264.456198 377.122946 
L 260.357025 376.133003 
L 256.257851 375.148175 
L 252.158678 374.165572 
L 248.059504 373.18228 
L 243.960331 372.203383 
L 239.861157 371.233619 
L 235.761983 370.27212 
L 231.66281 369.312045 
L 227.563636 368.352004 
L 223.464463 367.391157 
L 219.365289 366.450626 
L 215.266116 365.536591 
L 211.166942 364.641859 
L 207.067769 363.759164 
L 202.968595 362.889407 
L 198.869421 362.027875 
L 194.770248 361.166857 
L 190.671074 360.29685 
L 186.571901 359.410067 
L 182.472727 358.492316 
L 178.373554 357.527998 
L 174.27438 356.509041 
L 170.175207 355.424732 
L 166.076033 354.317924 
L 161.97686 353.190939 
L 157.877686 352.030636 
L 153.778512 350.857566 
L 149.679339 349.679324 
L 145.580165 348.460522 
L 141.480992 347.191498 
L 137.381818 345.822112 
L 133.282645 344.40973 
L 129.183471 342.973729 
L 125.084298 341.523983 
L 120.985124 340.068428 
L 116.88595 338.612874 
L 112.786777 337.157319 
L 108.687603 335.701765 
L 104.58843 334.24621 
L 100.489256 332.790656 
L 96.390083 331.335101 
L 92.290909 329.879547 
z
" style="fill:#3182bd;"/>
   </g>
   <g id="PolyCollection_2">
    <path clip-path="url(#pf6284b7930)" d="M 92.290909 149.16645 
L 92.290909 329.879547 
L 96.390083 331.335101 
L 100.489256 332.790656 
L 104.58843 334.24621 
L 108.687603 335.701765 
L 112.786777 337.157319 
L 116.88595 338.612874 
L 120.985124 340.068428 
L 125.084298 341.523983 
L 129.183471 342.973729 
L 133.282645 344.40973 
L 137.381818 345.822112 
L 141.480992 347.191498 
L 145.580165 348.460522 
L 149.679339 349.679324 
L 153.778512 350.857566 
L 157.877686 352.030636 
L 161.97686 353.190939 
L 166.076033 354.317924 
L 170.175207 355.424732 
L 174.27438 356.509041 
L 178.373554 357.527998 
L 182.472727 358.492316 
L 186.571901 359.410067 
L 190.671074 360.29685 
L 194.770248 361.166857 
L 198.869421 362.027875 
L 202.968595 362.889407 
L 207.067769 363.759164 
L 211.166942 364.641859 
L 215.266116 365.536591 
L 219.365289 366.450626 
L 223.464463 367.391157 
L 227.563636 368.352004 
L 231.66281 369.312045 
L 235.761983 370.27212 
L 239.861157 371.233619 
L 243.960331 372.203383 
L 248.059504 373.18228 
L 252.158678 374.165572 
L 256.257851 375.148175 
L 260.357025 376.133003 
L 264.456198 377.122946 
L 268.555372 378.121072 
L 272.654545 379.132811 
L 276.753719 380.155752 
L 280.852893 381.184911 
L 284.952066 382.215774 
L 289.05124 383.252686 
L 293.150413 384.299366 
L 297.249587 385.351045 
L 301.34876 386.405924 
L 305.447934 387.456509 
L 309.547107 388.502241 
L 313.646281 389.5515 
L 317.745455 390.608966 
L 321.844628 391.673485 
L 325.943802 392.739812 
L 330.042975 393.804502 
L 334.142149 394.865826 
L 338.241322 395.933481 
L 342.340496 396.99466 
L 346.439669 398.060161 
L 350.538843 399.126304 
L 354.638017 400.196701 
L 358.73719 401.266739 
L 362.836364 402.332987 
L 366.935537 403.394622 
L 371.034711 404.449908 
L 375.133884 405.502812 
L 379.233058 406.556101 
L 383.332231 407.612209 
L 387.431405 408.674855 
L 391.530579 409.739697 
L 395.629752 410.803089 
L 399.728926 411.866613 
L 403.828099 412.93182 
L 407.927273 413.99624 
L 412.026446 415.055514 
L 416.12562 416.107263 
L 420.224793 417.151117 
L 424.323967 418.189072 
L 428.42314 419.224045 
L 432.522314 420.246686 
L 436.621488 421.262702 
L 440.720661 422.273831 
L 444.819835 423.277713 
L 448.919008 424.271591 
L 453.018182 425.259244 
L 457.117355 426.243037 
L 461.216529 427.223377 
L 465.315702 428.199092 
L 469.414876 429.172139 
L 473.51405 430.139011 
L 477.613223 431.098932 
L 481.712397 432.054813 
L 485.81157 433.002868 
L 489.910744 433.942878 
L 494.009917 434.877643 
L 498.109091 435.806567 
L 498.109091 316.280432 
L 498.109091 316.280432 
L 494.009917 315.030906 
L 489.910744 313.768471 
L 485.81157 312.496371 
L 481.712397 311.215737 
L 477.613223 309.924367 
L 473.51405 308.625131 
L 469.414876 307.317198 
L 465.315702 305.996393 
L 461.216529 304.661353 
L 457.117355 303.312307 
L 453.018182 301.95397 
L 448.919008 300.581432 
L 444.819835 299.197065 
L 440.720661 297.805682 
L 436.621488 296.400781 
L 432.522314 294.982151 
L 428.42314 293.551623 
L 424.323967 292.115155 
L 420.224793 290.66712 
L 416.12562 289.204135 
L 412.026446 287.731551 
L 407.927273 286.248086 
L 403.828099 284.75299 
L 399.728926 283.248802 
L 395.629752 281.730901 
L 391.530579 280.199572 
L 387.431405 278.65393 
L 383.332231 277.096035 
L 379.233058 275.523561 
L 375.133884 273.936905 
L 371.034711 272.336735 
L 366.935537 270.722002 
L 362.836364 269.095403 
L 358.73719 267.458282 
L 354.638017 265.808815 
L 350.538843 264.147027 
L 346.439669 262.47103 
L 342.340496 260.780576 
L 338.241322 259.07103 
L 334.142149 257.360897 
L 330.042975 255.632009 
L 325.943802 253.894352 
L 321.844628 252.141666 
L 317.745455 250.371092 
L 313.646281 248.584593 
L 309.547107 246.778687 
L 305.447934 244.958145 
L 301.34876 243.13628 
L 297.249587 241.307115 
L 293.150413 239.466507 
L 289.05124 237.612946 
L 284.952066 235.741716 
L 280.852893 233.857746 
L 276.753719 231.963409 
L 272.654545 230.057225 
L 268.555372 228.129706 
L 264.456198 226.183938 
L 260.357025 224.224283 
L 256.257851 222.256217 
L 252.158678 220.281538 
L 248.059504 218.301927 
L 243.960331 216.315594 
L 239.861157 214.318436 
L 235.761983 212.310637 
L 231.66281 210.298306 
L 227.563636 208.280373 
L 223.464463 206.260924 
L 219.365289 204.216024 
L 215.266116 202.140202 
L 211.166942 200.039952 
L 207.067769 197.922628 
L 202.968595 195.788963 
L 198.869421 193.643846 
L 194.770248 191.497818 
L 190.671074 189.36228 
L 186.571901 187.245384 
L 182.472727 185.163941 
L 178.373554 183.136494 
L 174.27438 181.172813 
L 170.175207 179.284856 
L 166.076033 177.422299 
L 161.97686 175.583289 
L 157.877686 173.783164 
L 153.778512 171.997938 
L 149.679339 170.218748 
L 145.580165 168.486893 
L 141.480992 166.813649 
L 137.381818 165.257532 
L 133.282645 163.751594 
L 129.183471 162.273219 
L 125.084298 160.810886 
L 120.985124 159.355332 
L 116.88595 157.899777 
L 112.786777 156.444222 
L 108.687603 154.988668 
L 104.58843 153.533113 
L 100.489256 152.077559 
L 96.390083 150.622004 
L 92.290909 149.16645 
z
" style="fill:#6baed6;"/>
   </g>
   <g id="PolyCollection_3">
    <path clip-path="url(#pf6284b7930)" d="M 92.290909 148.922184 
L 92.290909 149.16645 
L 96.390083 150.622004 
L 100.489256 152.077559 
L 104.58843 153.533113 
L 108.687603 154.988668 
L 112.786777 156.444222 
L 116.88595 157.899777 
L 120.985124 159.355332 
L 125.084298 160.810886 
L 129.183471 162.273219 
L 133.282645 163.751594 
L 137.381818 165.257532 
L 141.480992 166.813649 
L 145.580165 168.486893 
L 149.679339 170.218748 
L 153.778512 171.997938 
L 157.877686 173.783164 
L 161.97686 175.583289 
L 166.076033 177.422299 
L 170.175207 179.284856 
L 174.27438 181.172813 
L 178.373554 183.136494 
L 182.472727 185.163941 
L 186.571901 187.245384 
L 190.671074 189.36228 
L 194.770248 191.497818 
L 198.869421 193.643846 
L 202.968595 195.788963 
L 207.067769 197.922628 
L 211.166942 200.039952 
L 215.266116 202.140202 
L 219.365289 204.216024 
L 223.464463 206.260924 
L 227.563636 208.280373 
L 231.66281 210.298306 
L 235.761983 212.310637 
L 239.861157 214.318436 
L 243.960331 216.315594 
L 248.059504 218.301927 
L 252.158678 220.281538 
L 256.257851 222.256217 
L 260.357025 224.224283 
L 264.456198 226.183938 
L 268.555372 228.129706 
L 272.654545 230.057225 
L 276.753719 231.963409 
L 280.852893 233.857746 
L 284.952066 235.741716 
L 289.05124 237.612946 
L 293.150413 239.466507 
L 297.249587 241.307115 
L 301.34876 243.13628 
L 305.447934 244.958145 
L 309.547107 246.778687 
L 313.646281 248.584593 
L 317.745455 250.371092 
L 321.844628 252.141666 
L 325.943802 253.894352 
L 330.042975 255.632009 
L 334.142149 257.360897 
L 338.241322 259.07103 
L 342.340496 260.780576 
L 346.439669 262.47103 
L 350.538843 264.147027 
L 354.638017 265.808815 
L 358.73719 267.458282 
L 362.836364 269.095403 
L 366.935537 270.722002 
L 371.034711 272.336735 
L 375.133884 273.936905 
L 379.233058 275.523561 
L 383.332231 277.096035 
L 387.431405 278.65393 
L 391.530579 280.199572 
L 395.629752 281.730901 
L 399.728926 283.248802 
L 403.828099 284.75299 
L 407.927273 286.248086 
L 412.026446 287.731551 
L 416.12562 289.204135 
L 420.224793 290.66712 
L 424.323967 292.115155 
L 428.42314 293.551623 
L 432.522314 294.982151 
L 436.621488 296.400781 
L 440.720661 297.805682 
L 444.819835 299.197065 
L 448.919008 300.581432 
L 453.018182 301.95397 
L 457.117355 303.312307 
L 461.216529 304.661353 
L 465.315702 305.996393 
L 469.414876 307.317198 
L 473.51405 308.625131 
L 477.613223 309.924367 
L 481.712397 311.215737 
L 485.81157 312.496371 
L 489.910744 313.768471 
L 494.009917 315.030906 
L 498.109091 316.280432 
L 498.109091 316.050093 
L 498.109091 316.050093 
L 494.009917 314.800143 
L 489.910744 313.537309 
L 485.81157 312.264776 
L 481.712397 310.983762 
L 477.613223 309.692089 
L 473.51405 308.39247 
L 469.414876 307.084146 
L 465.315702 305.762997 
L 461.216529 304.427584 
L 457.117355 303.078182 
L 453.018182 301.719438 
L 448.919008 300.346508 
L 444.819835 298.961752 
L 440.720661 297.569972 
L 436.621488 296.164709 
L 432.522314 294.74572 
L 428.42314 293.314848 
L 424.323967 291.878072 
L 420.224793 290.429641 
L 416.12562 288.966318 
L 412.026446 287.493402 
L 407.927273 286.009661 
L 403.828099 284.514386 
L 399.728926 283.009987 
L 395.629752 281.491844 
L 391.530579 279.960276 
L 387.431405 278.414489 
L 383.332231 276.856457 
L 379.233058 275.283792 
L 375.133884 273.696866 
L 371.034711 272.096421 
L 366.935537 270.481407 
L 362.836364 268.854541 
L 358.73719 267.217177 
L 354.638017 265.56752 
L 350.538843 263.905584 
L 346.439669 262.229411 
L 342.340496 260.538756 
L 338.241322 258.829084 
L 334.142149 257.118766 
L 330.042975 255.389658 
L 325.943802 253.65177 
L 321.844628 251.898898 
L 317.745455 250.128223 
L 313.646281 248.34159 
L 309.547107 246.535588 
L 305.447934 244.714953 
L 301.34876 242.89293 
L 297.249587 241.06367 
L 293.150413 239.222993 
L 289.05124 237.369358 
L 284.952066 235.498067 
L 280.852893 233.614011 
L 276.753719 231.719616 
L 272.654545 229.813346 
L 268.555372 227.885791 
L 264.456198 225.939975 
L 260.357025 223.980297 
L 256.257851 222.012198 
L 252.158678 220.037468 
L 248.059504 218.057841 
L 243.960331 216.071505 
L 239.861157 214.074335 
L 235.761983 212.066522 
L 231.66281 210.054152 
L 227.563636 208.036197 
L 223.464463 206.016727 
L 219.365289 203.971826 
L 215.266116 201.895992 
L 211.166942 199.795714 
L 207.067769 197.678378 
L 202.968595 195.544697 
L 198.869421 193.39958 
L 194.770248 191.253552 
L 190.671074 189.118015 
L 186.571901 187.001119 
L 182.472727 184.919675 
L 178.373554 182.892229 
L 174.27438 180.928548 
L 170.175207 179.040591 
L 166.076033 177.178034 
L 161.97686 175.339024 
L 157.877686 173.538899 
L 153.778512 171.753672 
L 149.679339 169.974483 
L 145.580165 168.242627 
L 141.480992 166.569384 
L 137.381818 165.013267 
L 133.282645 163.507329 
L 129.183471 162.028954 
L 125.084298 160.566621 
L 120.985124 159.111066 
L 116.88595 157.655512 
L 112.786777 156.199957 
L 108.687603 154.744403 
L 104.58843 153.288848 
L 100.489256 151.833293 
L 96.390083 150.377739 
L 92.290909 148.922184 
z
" style="fill:#9ecae1;"/>
   </g>
   <g id="PolyCollection_4">
    <path clip-path="url(#pf6284b7930)" d="M 92.290909 148.69553 
L 92.290909 148.922184 
L 96.390083 150.377739 
L 100.489256 151.833293 
L 104.58843 153.288848 
L 108.687603 154.744403 
L 112.786777 156.199957 
L 116.88595 157.655512 
L 120.985124 159.111066 
L 125.084298 160.566621 
L 129.183471 162.028954 
L 133.282645 163.507329 
L 137.381818 165.013267 
L 141.480992 166.569384 
L 145.580165 168.242627 
L 149.679339 169.974483 
L 153.778512 171.753672 
L 157.877686 173.538899 
L 161.97686 175.339024 
L 166.076033 177.178034 
L 170.175207 179.040591 
L 174.27438 180.928548 
L 178.373554 182.892229 
L 182.472727 184.919675 
L 186.571901 187.001119 
L 190.671074 189.118015 
L 194.770248 191.253552 
L 198.869421 193.39958 
L 202.968595 195.544697 
L 207.067769 197.678378 
L 211.166942 199.795714 
L 215.266116 201.895992 
L 219.365289 203.971826 
L 223.464463 206.016727 
L 227.563636 208.036197 
L 231.66281 210.054152 
L 235.761983 212.066522 
L 239.861157 214.074335 
L 243.960331 216.071505 
L 248.059504 218.057841 
L 252.158678 220.037468 
L 256.257851 222.012198 
L 260.357025 223.980297 
L 264.456198 225.939975 
L 268.555372 227.885791 
L 272.654545 229.813346 
L 276.753719 231.719616 
L 280.852893 233.614011 
L 284.952066 235.498067 
L 289.05124 237.369358 
L 293.150413 239.222993 
L 297.249587 241.06367 
L 301.34876 242.89293 
L 305.447934 244.714953 
L 309.547107 246.535588 
L 313.646281 248.34159 
L 317.745455 250.128223 
L 321.844628 251.898898 
L 325.943802 253.65177 
L 330.042975 255.389658 
L 334.142149 257.118766 
L 338.241322 258.829084 
L 342.340496 260.538756 
L 346.439669 262.229411 
L 350.538843 263.905584 
L 354.638017 265.56752 
L 358.73719 267.217177 
L 362.836364 268.854541 
L 366.935537 270.481407 
L 371.034711 272.096421 
L 375.133884 273.696866 
L 379.233058 275.283792 
L 383.332231 276.856457 
L 387.431405 278.414489 
L 391.530579 279.960276 
L 395.629752 281.491844 
L 399.728926 283.009987 
L 403.828099 284.514386 
L 407.927273 286.009661 
L 412.026446 287.493402 
L 416.12562 288.966318 
L 420.224793 290.429641 
L 424.323967 291.878072 
L 428.42314 293.314848 
L 432.522314 294.74572 
L 436.621488 296.164709 
L 440.720661 297.569972 
L 444.819835 298.961752 
L 448.919008 300.346508 
L 453.018182 301.719438 
L 457.117355 303.078182 
L 461.216529 304.427584 
L 465.315702 305.762997 
L 469.414876 307.084146 
L 473.51405 308.39247 
L 477.613223 309.692089 
L 481.712397 310.983762 
L 485.81157 312.264776 
L 489.910744 313.537309 
L 494.009917 314.800143 
L 498.109091 316.050093 
L 498.109091 315.823554 
L 498.109091 315.823554 
L 494.009917 314.573592 
L 489.910744 313.310746 
L 485.81157 312.038197 
L 481.712397 310.757177 
L 477.613223 309.465504 
L 473.51405 308.165884 
L 469.414876 306.857549 
L 465.315702 305.53639 
L 461.216529 304.200967 
L 457.117355 302.851563 
L 453.018182 301.492818 
L 448.919008 300.119888 
L 444.819835 298.735132 
L 440.720661 297.343331 
L 436.621488 295.938057 
L 432.522314 294.519066 
L 428.42314 293.088194 
L 424.323967 291.651418 
L 420.224793 290.202987 
L 416.12562 288.739664 
L 412.026446 287.266748 
L 407.927273 285.783006 
L 403.828099 284.287731 
L 399.728926 282.783333 
L 395.629752 281.26519 
L 391.530579 279.733621 
L 387.431405 278.187834 
L 383.332231 276.629802 
L 379.233058 275.057138 
L 375.133884 273.470212 
L 371.034711 271.869766 
L 366.935537 270.254753 
L 362.836364 268.627887 
L 358.73719 266.990523 
L 354.638017 265.340865 
L 350.538843 263.67893 
L 346.439669 262.002756 
L 342.340496 260.312102 
L 338.241322 258.602429 
L 334.142149 256.892111 
L 330.042975 255.163003 
L 325.943802 253.425115 
L 321.844628 251.672244 
L 317.745455 249.901568 
L 313.646281 248.114936 
L 309.547107 246.308933 
L 305.447934 244.488299 
L 301.34876 242.666275 
L 297.249587 240.837016 
L 293.150413 238.996338 
L 289.05124 237.142703 
L 284.952066 235.271413 
L 280.852893 233.387357 
L 276.753719 231.492962 
L 272.654545 229.586692 
L 268.555372 227.659137 
L 264.456198 225.71332 
L 260.357025 223.753642 
L 256.257851 221.785543 
L 252.158678 219.810813 
L 248.059504 217.831187 
L 243.960331 215.84485 
L 239.861157 213.84768 
L 235.761983 211.839868 
L 231.66281 209.827497 
L 227.563636 207.809543 
L 223.464463 205.790072 
L 219.365289 203.745171 
L 215.266116 201.669337 
L 211.166942 199.569059 
L 207.067769 197.451724 
L 202.968595 195.318043 
L 198.869421 193.172926 
L 194.770248 191.026898 
L 190.671074 188.89136 
L 186.571901 186.774464 
L 182.472727 184.693021 
L 178.373554 182.665575 
L 174.27438 180.701893 
L 170.175207 178.813936 
L 166.076033 176.951379 
L 161.97686 175.11237 
L 157.877686 173.312245 
L 153.778512 171.527018 
L 149.679339 169.747829 
L 145.580165 168.015973 
L 141.480992 166.342729 
L 137.381818 164.786612 
L 133.282645 163.280674 
L 129.183471 161.8023 
L 125.084298 160.339966 
L 120.985124 158.884412 
L 116.88595 157.428857 
L 112.786777 155.973303 
L 108.687603 154.517748 
L 104.58843 153.062194 
L 100.489256 151.606639 
L 96.390083 150.151085 
L 92.290909 148.69553 
z
" style="fill:#c6dbef;"/>
   </g>
   <g id="PolyCollection_5">
    <path clip-path="url(#pf6284b7930)" d="M 92.290909 147.941656 
L 92.290909 148.69553 
L 96.390083 150.151085 
L 100.489256 151.606639 
L 104.58843 153.062194 
L 108.687603 154.517748 
L 112.786777 155.973303 
L 116.88595 157.428857 
L 120.985124 158.884412 
L 125.084298 160.339966 
L 129.183471 161.8023 
L 133.282645 163.280674 
L 137.381818 164.786612 
L 141.480992 166.342729 
L 145.580165 168.015973 
L 149.679339 169.747829 
L 153.778512 171.527018 
L 157.877686 173.312245 
L 161.97686 175.11237 
L 166.076033 176.951379 
L 170.175207 178.813936 
L 174.27438 180.701893 
L 178.373554 182.665575 
L 182.472727 184.693021 
L 186.571901 186.774464 
L 190.671074 188.89136 
L 194.770248 191.026898 
L 198.869421 193.172926 
L 202.968595 195.318043 
L 207.067769 197.451724 
L 211.166942 199.569059 
L 215.266116 201.669337 
L 219.365289 203.745171 
L 223.464463 205.790072 
L 227.563636 207.809543 
L 231.66281 209.827497 
L 235.761983 211.839868 
L 239.861157 213.84768 
L 243.960331 215.84485 
L 248.059504 217.831187 
L 252.158678 219.810813 
L 256.257851 221.785543 
L 260.357025 223.753642 
L 264.456198 225.71332 
L 268.555372 227.659137 
L 272.654545 229.586692 
L 276.753719 231.492962 
L 280.852893 233.387357 
L 284.952066 235.271413 
L 289.05124 237.142703 
L 293.150413 238.996338 
L 297.249587 240.837016 
L 301.34876 242.666275 
L 305.447934 244.488299 
L 309.547107 246.308933 
L 313.646281 248.114936 
L 317.745455 249.901568 
L 321.844628 251.672244 
L 325.943802 253.425115 
L 330.042975 255.163003 
L 334.142149 256.892111 
L 338.241322 258.602429 
L 342.340496 260.312102 
L 346.439669 262.002756 
L 350.538843 263.67893 
L 354.638017 265.340865 
L 358.73719 266.990523 
L 362.836364 268.627887 
L 366.935537 270.254753 
L 371.034711 271.869766 
L 375.133884 273.470212 
L 379.233058 275.057138 
L 383.332231 276.629802 
L 387.431405 278.187834 
L 391.530579 279.733621 
L 395.629752 281.26519 
L 399.728926 282.783333 
L 403.828099 284.287731 
L 407.927273 285.783006 
L 412.026446 287.266748 
L 416.12562 288.739664 
L 420.224793 290.202987 
L 424.323967 291.651418 
L 428.42314 293.088194 
L 432.522314 294.519066 
L 436.621488 295.938057 
L 440.720661 297.343331 
L 444.819835 298.735132 
L 448.919008 300.119888 
L 453.018182 301.492818 
L 457.117355 302.851563 
L 461.216529 304.200967 
L 465.315702 305.53639 
L 469.414876 306.857549 
L 473.51405 308.165884 
L 477.613223 309.465504 
L 481.712397 310.757177 
L 485.81157 312.038197 
L 489.910744 313.310746 
L 494.009917 314.573592 
L 498.109091 315.823554 
L 498.109091 315.070604 
L 498.109091 315.070604 
L 494.009917 313.820581 
L 489.910744 312.557688 
L 485.81157 311.285093 
L 481.712397 310.004025 
L 477.613223 308.712297 
L 473.51405 307.412623 
L 469.414876 306.104233 
L 465.315702 304.783014 
L 461.216529 303.447549 
L 457.117355 302.098117 
L 453.018182 300.739349 
L 448.919008 299.366396 
L 444.819835 297.981616 
L 440.720661 296.58979 
L 436.621488 295.184488 
L 432.522314 293.765465 
L 428.42314 292.334556 
L 424.323967 290.897741 
L 420.224793 289.449271 
L 416.12562 287.985913 
L 412.026446 286.512975 
L 407.927273 285.029216 
L 403.828099 283.533924 
L 399.728926 282.029509 
L 395.629752 280.511349 
L 391.530579 278.979774 
L 387.431405 277.43398 
L 383.332231 275.875941 
L 379.233058 274.30327 
L 375.133884 272.716338 
L 371.034711 271.115893 
L 366.935537 269.500879 
L 362.836364 267.874013 
L 358.73719 266.236649 
L 354.638017 264.586991 
L 350.538843 262.925056 
L 346.439669 261.248883 
L 342.340496 259.558228 
L 338.241322 257.848555 
L 334.142149 256.138238 
L 330.042975 254.40913 
L 325.943802 252.671242 
L 321.844628 250.91837 
L 317.745455 249.147695 
L 313.646281 247.361062 
L 309.547107 245.55506 
L 305.447934 243.734425 
L 301.34876 241.912402 
L 297.249587 240.083142 
L 293.150413 238.242465 
L 289.05124 236.38883 
L 284.952066 234.517539 
L 280.852893 232.633483 
L 276.753719 230.739088 
L 272.654545 228.832818 
L 268.555372 226.905263 
L 264.456198 224.959447 
L 260.357025 222.999769 
L 256.257851 221.03167 
L 252.158678 219.05694 
L 248.059504 217.077313 
L 243.960331 215.090976 
L 239.861157 213.093806 
L 235.761983 211.085994 
L 231.66281 209.073624 
L 227.563636 207.055669 
L 223.464463 205.036199 
L 219.365289 202.991298 
L 215.266116 200.915464 
L 211.166942 198.815186 
L 207.067769 196.69785 
L 202.968595 194.564169 
L 198.869421 192.419052 
L 194.770248 190.273024 
L 190.671074 188.137487 
L 186.571901 186.020591 
L 182.472727 183.939147 
L 178.373554 181.911701 
L 174.27438 179.948019 
L 170.175207 178.060063 
L 166.076033 176.197506 
L 161.97686 174.358496 
L 157.877686 172.558371 
L 153.778512 170.773144 
L 149.679339 168.993955 
L 145.580165 167.262099 
L 141.480992 165.588856 
L 137.381818 164.032739 
L 133.282645 162.526801 
L 129.183471 161.048426 
L 125.084298 159.586093 
L 120.985124 158.130538 
L 116.88595 156.674984 
L 112.786777 155.219429 
L 108.687603 153.763874 
L 104.58843 152.30832 
L 100.489256 150.852765 
L 96.390083 149.397211 
L 92.290909 147.941656 
z
" style="fill:#e6550d;"/>
   </g>
   <g id="PolyCollection_6">
    <path clip-path="url(#pf6284b7930)" d="M 92.290909 146.827355 
L 92.290909 147.941656 
L 96.390083 149.397211 
L 100.489256 150.852765 
L 104.58843 152.30832 
L 108.687603 153.763874 
L 112.786777 155.219429 
L 116.88595 156.674984 
L 120.985124 158.130538 
L 125.084298 159.586093 
L 129.183471 161.048426 
L 133.282645 162.526801 
L 137.381818 164.032739 
L 141.480992 165.588856 
L 145.580165 167.262099 
L 149.679339 168.993955 
L 153.778512 170.773144 
L 157.877686 172.558371 
L 161.97686 174.358496 
L 166.076033 176.197506 
L 170.175207 178.060063 
L 174.27438 179.948019 
L 178.373554 181.911701 
L 182.472727 183.939147 
L 186.571901 186.020591 
L 190.671074 188.137487 
L 194.770248 190.273024 
L 198.869421 192.419052 
L 202.968595 194.564169 
L 207.067769 196.69785 
L 211.166942 198.815186 
L 215.266116 200.915464 
L 219.365289 202.991298 
L 223.464463 205.036199 
L 227.563636 207.055669 
L 231.66281 209.073624 
L 235.761983 211.085994 
L 239.861157 213.093806 
L 243.960331 215.090976 
L 248.059504 217.077313 
L 252.158678 219.05694 
L 256.257851 221.03167 
L 260.357025 222.999769 
L 264.456198 224.959447 
L 268.555372 226.905263 
L 272.654545 228.832818 
L 276.753719 230.739088 
L 280.852893 232.633483 
L 284.952066 234.517539 
L 289.05124 236.38883 
L 293.150413 238.242465 
L 297.249587 240.083142 
L 301.34876 241.912402 
L 305.447934 243.734425 
L 309.547107 245.55506 
L 313.646281 247.361062 
L 317.745455 249.147695 
L 321.844628 250.91837 
L 325.943802 252.671242 
L 330.042975 254.40913 
L 334.142149 256.138238 
L 338.241322 257.848555 
L 342.340496 259.558228 
L 346.439669 261.248883 
L 350.538843 262.925056 
L 354.638017 264.586991 
L 358.73719 266.236649 
L 362.836364 267.874013 
L 366.935537 269.500879 
L 371.034711 271.115893 
L 375.133884 272.716338 
L 379.233058 274.30327 
L 383.332231 275.875941 
L 387.431405 277.43398 
L 391.530579 278.979774 
L 395.629752 280.511349 
L 399.728926 282.029509 
L 403.828099 283.533924 
L 407.927273 285.029216 
L 412.026446 286.512975 
L 416.12562 287.985913 
L 420.224793 289.449271 
L 424.323967 290.897741 
L 428.42314 292.334556 
L 432.522314 293.765465 
L 436.621488 295.184488 
L 440.720661 296.58979 
L 444.819835 297.981616 
L 448.919008 299.366396 
L 453.018182 300.739349 
L 457.117355 302.098117 
L 461.216529 303.447549 
L 465.315702 304.783014 
L 469.414876 306.104233 
L 473.51405 307.412623 
L 477.613223 308.712297 
L 481.712397 310.004025 
L 485.81157 311.285093 
L 489.910744 312.557688 
L 494.009917 313.820581 
L 498.109091 315.070604 
L 498.109091 313.95859 
L 498.109091 313.95859 
L 494.009917 312.708487 
L 489.910744 311.445494 
L 485.81157 310.172798 
L 481.712397 308.891629 
L 477.613223 307.599812 
L 473.51405 306.300055 
L 469.414876 304.991581 
L 465.315702 303.670277 
L 461.216529 302.334728 
L 457.117355 300.985195 
L 453.018182 299.626326 
L 448.919008 298.253281 
L 444.819835 296.868429 
L 440.720661 295.476535 
L 436.621488 294.071172 
L 432.522314 292.652087 
L 428.42314 291.221116 
L 424.323967 289.784238 
L 420.224793 288.335705 
L 416.12562 286.872284 
L 412.026446 285.399283 
L 407.927273 283.915476 
L 403.828099 282.420148 
L 399.728926 280.915696 
L 395.629752 279.3975 
L 391.530579 277.865878 
L 387.431405 276.320039 
L 383.332231 274.76196 
L 379.233058 273.189251 
L 375.133884 271.602281 
L 371.034711 270.001797 
L 366.935537 268.386752 
L 362.836364 266.759858 
L 358.73719 265.122468 
L 354.638017 263.47279 
L 350.538843 261.810838 
L 346.439669 260.134647 
L 342.340496 258.443976 
L 338.241322 256.734286 
L 334.142149 255.023956 
L 330.042975 253.294841 
L 325.943802 251.556946 
L 321.844628 249.804068 
L 317.745455 248.033393 
L 313.646281 246.246761 
L 309.547107 244.440758 
L 305.447934 242.620123 
L 301.34876 240.7981 
L 297.249587 238.968841 
L 293.150413 237.128163 
L 289.05124 235.274528 
L 284.952066 233.403238 
L 280.852893 231.519181 
L 276.753719 229.624786 
L 272.654545 227.718517 
L 268.555372 225.790961 
L 264.456198 223.845145 
L 260.357025 221.885467 
L 256.257851 219.917368 
L 252.158678 217.942638 
L 248.059504 215.963011 
L 243.960331 213.976675 
L 239.861157 211.979505 
L 235.761983 209.971692 
L 231.66281 207.959322 
L 227.563636 205.941368 
L 223.464463 203.921897 
L 219.365289 201.876996 
L 215.266116 199.801162 
L 211.166942 197.700884 
L 207.067769 195.583549 
L 202.968595 193.449868 
L 198.869421 191.304751 
L 194.770248 189.158723 
L 190.671074 187.023185 
L 186.571901 184.906289 
L 182.472727 182.824846 
L 178.373554 180.797399 
L 174.27438 178.833718 
L 170.175207 176.945761 
L 166.076033 175.083204 
L 161.97686 173.244194 
L 157.877686 171.444069 
L 153.778512 169.658843 
L 149.679339 167.879653 
L 145.580165 166.147798 
L 141.480992 164.474554 
L 137.381818 162.918437 
L 133.282645 161.412499 
L 129.183471 159.934124 
L 125.084298 158.471791 
L 120.985124 157.016237 
L 116.88595 155.560682 
L 112.786777 154.105127 
L 108.687603 152.649573 
L 104.58843 151.194018 
L 100.489256 149.738464 
L 96.390083 148.282909 
L 92.290909 146.827355 
z
" style="fill:#fd8d3c;"/>
   </g>
   <g id="PolyCollection_7">
    <path clip-path="url(#pf6284b7930)" d="M 92.290909 144.14221 
L 92.290909 146.827355 
L 96.390083 148.282909 
L 100.489256 149.738464 
L 104.58843 151.194018 
L 108.687603 152.649573 
L 112.786777 154.105127 
L 116.88595 155.560682 
L 120.985124 157.016237 
L 125.084298 158.471791 
L 129.183471 159.934124 
L 133.282645 161.412499 
L 137.381818 162.918437 
L 141.480992 164.474554 
L 145.580165 166.147798 
L 149.679339 167.879653 
L 153.778512 169.658843 
L 157.877686 171.444069 
L 161.97686 173.244194 
L 166.076033 175.083204 
L 170.175207 176.945761 
L 174.27438 178.833718 
L 178.373554 180.797399 
L 182.472727 182.824846 
L 186.571901 184.906289 
L 190.671074 187.023185 
L 194.770248 189.158723 
L 198.869421 191.304751 
L 202.968595 193.449868 
L 207.067769 195.583549 
L 211.166942 197.700884 
L 215.266116 199.801162 
L 219.365289 201.876996 
L 223.464463 203.921897 
L 227.563636 205.941368 
L 231.66281 207.959322 
L 235.761983 209.971692 
L 239.861157 211.979505 
L 243.960331 213.976675 
L 248.059504 215.963011 
L 252.158678 217.942638 
L 256.257851 219.917368 
L 260.357025 221.885467 
L 264.456198 223.845145 
L 268.555372 225.790961 
L 272.654545 227.718517 
L 276.753719 229.624786 
L 280.852893 231.519181 
L 284.952066 233.403238 
L 289.05124 235.274528 
L 293.150413 237.128163 
L 297.249587 238.968841 
L 301.34876 240.7981 
L 305.447934 242.620123 
L 309.547107 244.440758 
L 313.646281 246.246761 
L 317.745455 248.033393 
L 321.844628 249.804068 
L 325.943802 251.556946 
L 330.042975 253.294841 
L 334.142149 255.023956 
L 338.241322 256.734286 
L 342.340496 258.443976 
L 346.439669 260.134647 
L 350.538843 261.810838 
L 354.638017 263.47279 
L 358.73719 265.122468 
L 362.836364 266.759858 
L 366.935537 268.386752 
L 371.034711 270.001797 
L 375.133884 271.602281 
L 379.233058 273.189251 
L 383.332231 274.76196 
L 387.431405 276.320039 
L 391.530579 277.865878 
L 395.629752 279.3975 
L 399.728926 280.915696 
L 403.828099 282.420148 
L 407.927273 283.915476 
L 412.026446 285.399283 
L 416.12562 286.872284 
L 420.224793 288.335705 
L 424.323967 289.784238 
L 428.42314 291.221116 
L 432.522314 292.652087 
L 436.621488 294.071172 
L 440.720661 295.476535 
L 444.819835 296.868429 
L 448.919008 298.253281 
L 453.018182 299.626326 
L 457.117355 300.985195 
L 461.216529 302.334728 
L 465.315702 303.670277 
L 469.414876 304.991581 
L 473.51405 306.300055 
L 477.613223 307.599812 
L 481.712397 308.891629 
L 485.81157 310.172798 
L 489.910744 311.445494 
L 494.009917 312.708487 
L 498.109091 313.95859 
L 498.109091 313.95859 
L 498.109091 313.95859 
L 494.009917 312.681499 
L 489.910744 311.391518 
L 485.81157 310.091808 
L 481.712397 308.783624 
L 477.613223 307.464778 
L 473.51405 306.137997 
L 469.414876 304.802513 
L 465.315702 303.454182 
L 461.216529 302.091536 
L 457.117355 300.714963 
L 453.018182 299.329026 
L 448.919008 297.928893 
L 444.819835 296.516875 
L 440.720661 295.097859 
L 436.621488 293.665376 
L 432.522314 292.219151 
L 428.42314 290.761092 
L 424.323967 289.29714 
L 420.224793 287.821533 
L 416.12562 286.331018 
L 412.026446 284.830866 
L 407.927273 283.319826 
L 403.828099 281.797238 
L 399.728926 280.265585 
L 395.629752 278.720235 
L 391.530579 277.161512 
L 387.431405 275.588581 
L 383.332231 274.003381 
L 379.233058 272.40354 
L 375.133884 270.789439 
L 371.034711 269.1618 
L 366.935537 267.5196 
L 362.836364 265.865534 
L 358.73719 264.200974 
L 354.638017 262.524141 
L 350.538843 260.835019 
L 346.439669 259.131658 
L 342.340496 257.413816 
L 338.241322 255.676966 
L 334.142149 253.939484 
L 330.042975 252.183191 
L 325.943802 250.418133 
L 321.844628 248.638093 
L 317.745455 246.840227 
L 313.646281 245.026438 
L 309.547107 243.193287 
L 305.447934 241.345504 
L 301.34876 239.496332 
L 297.249587 237.639924 
L 293.150413 235.772098 
L 289.05124 233.891315 
L 284.952066 231.992876 
L 280.852893 230.08168 
L 276.753719 228.160162 
L 272.654545 226.22677 
L 268.555372 224.272092 
L 264.456198 222.299153 
L 260.357025 220.312352 
L 256.257851 218.317131 
L 252.158678 216.315278 
L 248.059504 214.308528 
L 243.960331 212.295069 
L 239.861157 210.270777 
L 235.761983 208.235841 
L 231.66281 206.196349 
L 227.563636 204.151271 
L 223.464463 202.104678 
L 219.365289 200.032655 
L 215.266116 197.929698 
L 211.166942 195.802297 
L 207.067769 193.657839 
L 202.968595 191.497035 
L 198.869421 189.324796 
L 194.770248 187.151645 
L 190.671074 184.988985 
L 186.571901 182.844966 
L 182.472727 180.7364 
L 178.373554 178.681831 
L 174.27438 176.691027 
L 170.175207 174.775947 
L 166.076033 172.886268 
L 161.97686 171.020136 
L 157.877686 169.192888 
L 153.778512 167.380538 
L 149.679339 165.574227 
L 145.580165 163.815248 
L 141.480992 162.114882 
L 137.381818 160.531642 
L 133.282645 158.998581 
L 129.183471 157.493084 
L 125.084298 156.003628 
L 120.985124 154.520951 
L 116.88595 153.038274 
L 112.786777 151.555596 
L 108.687603 150.072919 
L 104.58843 148.590242 
L 100.489256 147.107565 
L 96.390083 145.624888 
L 92.290909 144.14221 
z
" style="fill:#fdae6b;"/>
   </g>
   <g id="PolyCollection_8">
    <path clip-path="url(#pf6284b7930)" d="M 92.290909 138.303151 
L 92.290909 144.14221 
L 96.390083 145.624888 
L 100.489256 147.107565 
L 104.58843 148.590242 
L 108.687603 150.072919 
L 112.786777 151.555596 
L 116.88595 153.038274 
L 120.985124 154.520951 
L 125.084298 156.003628 
L 129.183471 157.493084 
L 133.282645 158.998581 
L 137.381818 160.531642 
L 141.480992 162.114882 
L 145.580165 163.815248 
L 149.679339 165.574227 
L 153.778512 167.380538 
L 157.877686 169.192888 
L 161.97686 171.020136 
L 166.076033 172.886268 
L 170.175207 174.775947 
L 174.27438 176.691027 
L 178.373554 178.681831 
L 182.472727 180.7364 
L 186.571901 182.844966 
L 190.671074 184.988985 
L 194.770248 187.151645 
L 198.869421 189.324796 
L 202.968595 191.497035 
L 207.067769 193.657839 
L 211.166942 195.802297 
L 215.266116 197.929698 
L 219.365289 200.032655 
L 223.464463 202.104678 
L 227.563636 204.151271 
L 231.66281 206.196349 
L 235.761983 208.235841 
L 239.861157 210.270777 
L 243.960331 212.295069 
L 248.059504 214.308528 
L 252.158678 216.315278 
L 256.257851 218.317131 
L 260.357025 220.312352 
L 264.456198 222.299153 
L 268.555372 224.272092 
L 272.654545 226.22677 
L 276.753719 228.160162 
L 280.852893 230.08168 
L 284.952066 231.992876 
L 289.05124 233.891315 
L 293.150413 235.772098 
L 297.249587 237.639924 
L 301.34876 239.496332 
L 305.447934 241.345504 
L 309.547107 243.193287 
L 313.646281 245.026438 
L 317.745455 246.840227 
L 321.844628 248.638093 
L 325.943802 250.418133 
L 330.042975 252.183191 
L 334.142149 253.939484 
L 338.241322 255.676966 
L 342.340496 257.413816 
L 346.439669 259.131658 
L 350.538843 260.835019 
L 354.638017 262.524141 
L 358.73719 264.200974 
L 362.836364 265.865534 
L 366.935537 267.5196 
L 371.034711 269.1618 
L 375.133884 270.789439 
L 379.233058 272.40354 
L 383.332231 274.003381 
L 387.431405 275.588581 
L 391.530579 277.161512 
L 395.629752 278.720235 
L 399.728926 280.265585 
L 403.828099 281.797238 
L 407.927273 283.319826 
L 412.026446 284.830866 
L 416.12562 286.331018 
L 420.224793 287.821533 
L 424.323967 289.29714 
L 428.42314 290.761092 
L 432.522314 292.219151 
L 436.621488 293.665376 
L 440.720661 295.097859 
L 444.819835 296.516875 
L 448.919008 297.928893 
L 453.018182 299.329026 
L 457.117355 300.714963 
L 461.216529 302.091536 
L 465.315702 303.454182 
L 469.414876 304.802513 
L 473.51405 306.137997 
L 477.613223 307.464778 
L 481.712397 308.783624 
L 485.81157 310.091808 
L 489.910744 311.391518 
L 494.009917 312.681499 
L 498.109091 313.95859 
L 498.109091 308.119531 
L 498.109091 308.119531 
L 494.009917 306.84244 
L 489.910744 305.552459 
L 485.81157 304.252749 
L 481.712397 302.944565 
L 477.613223 301.625719 
L 473.51405 300.298938 
L 469.414876 298.963454 
L 465.315702 297.615123 
L 461.216529 296.252476 
L 457.117355 294.875904 
L 453.018182 293.489967 
L 448.919008 292.089834 
L 444.819835 290.677816 
L 440.720661 289.2588 
L 436.621488 287.826317 
L 432.522314 286.380092 
L 428.42314 284.922033 
L 424.323967 283.458081 
L 420.224793 281.982474 
L 416.12562 280.491959 
L 412.026446 278.991807 
L 407.927273 277.480767 
L 403.828099 275.958179 
L 399.728926 274.426526 
L 395.629752 272.881176 
L 391.530579 271.322453 
L 387.431405 269.749522 
L 383.332231 268.164322 
L 379.233058 266.564481 
L 375.133884 264.950379 
L 371.034711 263.322741 
L 366.935537 261.680541 
L 362.836364 260.026475 
L 358.73719 258.361915 
L 354.638017 256.685082 
L 350.538843 254.99596 
L 346.439669 253.292599 
L 342.340496 251.574757 
L 338.241322 249.837907 
L 334.142149 248.100425 
L 330.042975 246.344132 
L 325.943802 244.579073 
L 321.844628 242.799034 
L 317.745455 241.001168 
L 313.646281 239.187379 
L 309.547107 237.354228 
L 305.447934 235.506444 
L 301.34876 233.657273 
L 297.249587 231.800865 
L 293.150413 229.933039 
L 289.05124 228.052256 
L 284.952066 226.153817 
L 280.852893 224.242621 
L 276.753719 222.321103 
L 272.654545 220.387711 
L 268.555372 218.433033 
L 264.456198 216.460094 
L 260.357025 214.473293 
L 256.257851 212.478072 
L 252.158678 210.476219 
L 248.059504 208.469469 
L 243.960331 206.45601 
L 239.861157 204.431718 
L 235.761983 202.396782 
L 231.66281 200.35729 
L 227.563636 198.312212 
L 223.464463 196.265619 
L 219.365289 194.193596 
L 215.266116 192.090639 
L 211.166942 189.963238 
L 207.067769 187.81878 
L 202.968595 185.657976 
L 198.869421 183.485737 
L 194.770248 181.312586 
L 190.671074 179.149926 
L 186.571901 177.005907 
L 182.472727 174.897341 
L 178.373554 172.842772 
L 174.27438 170.851968 
L 170.175207 168.936888 
L 166.076033 167.047209 
L 161.97686 165.181076 
L 157.877686 163.353829 
L 153.778512 161.541479 
L 149.679339 159.735167 
L 145.580165 157.976189 
L 141.480992 156.275823 
L 137.381818 154.692583 
L 133.282645 153.159522 
L 129.183471 151.654025 
L 125.084298 150.164569 
L 120.985124 148.681892 
L 116.88595 147.199215 
L 112.786777 145.716537 
L 108.687603 144.23386 
L 104.58843 142.751183 
L 100.489256 141.268506 
L 96.390083 139.785829 
L 92.290909 138.303151 
z
" style="fill:#fdd0a2;"/>
   </g>
   <g id="PolyCollection_9">
    <path clip-path="url(#pf6284b7930)" d="M 92.290909 135.36 
L 92.290909 138.303151 
L 96.390083 139.785829 
L 100.489256 141.268506 
L 104.58843 142.751183 
L 108.687603 144.23386 
L 112.786777 145.716537 
L 116.88595 147.199215 
L 120.985124 148.681892 
L 125.084298 150.164569 
L 129.183471 151.654025 
L 133.282645 153.159522 
L 137.381818 154.692583 
L 141.480992 156.275823 
L 145.580165 157.976189 
L 149.679339 159.735167 
L 153.778512 161.541479 
L 157.877686 163.353829 
L 161.97686 165.181076 
L 166.076033 167.047209 
L 170.175207 168.936888 
L 174.27438 170.851968 
L 178.373554 172.842772 
L 182.472727 174.897341 
L 186.571901 177.005907 
L 190.671074 179.149926 
L 194.770248 181.312586 
L 198.869421 183.485737 
L 202.968595 185.657976 
L 207.067769 187.81878 
L 211.166942 189.963238 
L 215.266116 192.090639 
L 219.365289 194.193596 
L 223.464463 196.265619 
L 227.563636 198.312212 
L 231.66281 200.35729 
L 235.761983 202.396782 
L 239.861157 204.431718 
L 243.960331 206.45601 
L 248.059504 208.469469 
L 252.158678 210.476219 
L 256.257851 212.478072 
L 260.357025 214.473293 
L 264.456198 216.460094 
L 268.555372 218.433033 
L 272.654545 220.387711 
L 276.753719 222.321103 
L 280.852893 224.242621 
L 284.952066 226.153817 
L 289.05124 228.052256 
L 293.150413 229.933039 
L 297.249587 231.800865 
L 301.34876 233.657273 
L 305.447934 235.506444 
L 309.547107 237.354228 
L 313.646281 239.187379 
L 317.745455 241.001168 
L 321.844628 242.799034 
L 325.943802 244.579073 
L 330.042975 246.344132 
L 334.142149 248.100425 
L 338.241322 249.837907 
L 342.340496 251.574757 
L 346.439669 253.292599 
L 350.538843 254.99596 
L 354.638017 256.685082 
L 358.73719 258.361915 
L 362.836364 260.026475 
L 366.935537 261.680541 
L 371.034711 263.322741 
L 375.133884 264.950379 
L 379.233058 266.564481 
L 383.332231 268.164322 
L 387.431405 269.749522 
L 391.530579 271.322453 
L 395.629752 272.881176 
L 399.728926 274.426526 
L 403.828099 275.958179 
L 407.927273 277.480767 
L 412.026446 278.991807 
L 416.12562 280.491959 
L 420.224793 281.982474 
L 424.323967 283.458081 
L 428.42314 284.922033 
L 432.522314 286.380092 
L 436.621488 287.826317 
L 440.720661 289.2588 
L 444.819835 290.677816 
L 448.919008 292.089834 
L 453.018182 293.489967 
L 457.117355 294.875904 
L 461.216529 296.252476 
L 465.315702 297.615123 
L 469.414876 298.963454 
L 473.51405 300.298938 
L 477.613223 301.625719 
L 481.712397 302.944565 
L 485.81157 304.252749 
L 489.910744 305.552459 
L 494.009917 306.84244 
L 498.109091 308.119531 
L 498.109091 308.119531 
L 498.109091 308.119531 
L 494.009917 306.812712 
L 489.910744 305.493002 
L 485.81157 304.163563 
L 481.712397 302.82565 
L 477.613223 301.477075 
L 473.51405 300.120565 
L 469.414876 298.755352 
L 465.315702 297.377292 
L 461.216529 295.984917 
L 457.117355 294.578616 
L 453.018182 293.162951 
L 448.919008 291.733089 
L 444.819835 290.291342 
L 440.720661 288.842597 
L 436.621488 287.380385 
L 432.522314 285.904431 
L 428.42314 284.416643 
L 424.323967 282.922963 
L 420.224793 281.417627 
L 416.12562 279.897383 
L 412.026446 278.367502 
L 407.927273 276.826733 
L 403.828099 275.274417 
L 399.728926 273.713035 
L 395.629752 272.137956 
L 391.530579 270.549504 
L 387.431405 268.946844 
L 383.332231 267.331916 
L 379.233058 265.702346 
L 375.133884 264.058515 
L 371.034711 262.401148 
L 366.935537 260.729219 
L 362.836364 259.045425 
L 358.73719 257.351135 
L 354.638017 255.644574 
L 350.538843 253.925723 
L 346.439669 252.192633 
L 342.340496 250.445063 
L 338.241322 248.678484 
L 334.142149 246.911273 
L 330.042975 245.125251 
L 325.943802 243.330464 
L 321.844628 241.520695 
L 317.745455 239.6931 
L 313.646281 237.849582 
L 309.547107 235.986703 
L 305.447934 234.109191 
L 301.34876 232.23029 
L 297.249587 230.344154 
L 293.150413 228.446599 
L 289.05124 226.536087 
L 284.952066 224.60792 
L 280.852893 222.666994 
L 276.753719 220.715748 
L 272.654545 218.752627 
L 268.555372 216.76822 
L 264.456198 214.765552 
L 260.357025 212.749023 
L 256.257851 210.724072 
L 252.158678 208.692491 
L 248.059504 206.656012 
L 243.960331 204.612825 
L 239.861157 202.558803 
L 235.761983 200.494139 
L 231.66281 198.424917 
L 227.563636 196.350111 
L 223.464463 194.273789 
L 219.365289 192.172037 
L 215.266116 190.039352 
L 211.166942 187.882222 
L 207.067769 185.708035 
L 202.968595 183.517503 
L 198.869421 181.315534 
L 194.770248 179.112655 
L 190.671074 176.920266 
L 186.571901 174.746518 
L 182.472727 172.608223 
L 178.373554 170.523926 
L 174.27438 168.503393 
L 170.175207 166.558584 
L 166.076033 164.639176 
L 161.97686 162.743315 
L 157.877686 160.886338 
L 153.778512 159.04426 
L 149.679339 157.208219 
L 145.580165 155.419512 
L 141.480992 153.689417 
L 137.381818 152.076449 
L 133.282645 150.513659 
L 129.183471 148.978433 
L 125.084298 147.459248 
L 120.985124 145.946842 
L 116.88595 144.434436 
L 112.786777 142.92203 
L 108.687603 141.409624 
L 104.58843 139.897218 
L 100.489256 138.384812 
L 96.390083 136.872406 
L 92.290909 135.36 
z
" style="fill:#31a354;"/>
   </g>
   <g id="PolyCollection_10">
    <path clip-path="url(#pf6284b7930)" d="M 92.290909 135.36 
L 92.290909 135.36 
L 96.390083 136.872406 
L 100.489256 138.384812 
L 104.58843 139.897218 
L 108.687603 141.409624 
L 112.786777 142.92203 
L 116.88595 144.434436 
L 120.985124 145.946842 
L 125.084298 147.459248 
L 129.183471 148.978433 
L 133.282645 150.513659 
L 137.381818 152.076449 
L 141.480992 153.689417 
L 145.580165 155.419512 
L 149.679339 157.208219 
L 153.778512 159.04426 
L 157.877686 160.886338 
L 161.97686 162.743315 
L 166.076033 164.639176 
L 170.175207 166.558584 
L 174.27438 168.503393 
L 178.373554 170.523926 
L 182.472727 172.608223 
L 186.571901 174.746518 
L 190.671074 176.920266 
L 194.770248 179.112655 
L 198.869421 181.315534 
L 202.968595 183.517503 
L 207.067769 185.708035 
L 211.166942 187.882222 
L 215.266116 190.039352 
L 219.365289 192.172037 
L 223.464463 194.273789 
L 227.563636 196.350111 
L 231.66281 198.424917 
L 235.761983 200.494139 
L 239.861157 202.558803 
L 243.960331 204.612825 
L 248.059504 206.656012 
L 252.158678 208.692491 
L 256.257851 210.724072 
L 260.357025 212.749023 
L 264.456198 214.765552 
L 268.555372 216.76822 
L 272.654545 218.752627 
L 276.753719 220.715748 
L 280.852893 222.666994 
L 284.952066 224.60792 
L 289.05124 226.536087 
L 293.150413 228.446599 
L 297.249587 230.344154 
L 301.34876 232.23029 
L 305.447934 234.109191 
L 309.547107 235.986703 
L 313.646281 237.849582 
L 317.745455 239.6931 
L 321.844628 241.520695 
L 325.943802 243.330464 
L 330.042975 245.125251 
L 334.142149 246.911273 
L 338.241322 248.678484 
L 342.340496 250.445063 
L 346.439669 252.192633 
L 350.538843 253.925723 
L 354.638017 255.644574 
L 358.73719 257.351135 
L 362.836364 259.045425 
L 366.935537 260.729219 
L 371.034711 262.401148 
L 375.133884 264.058515 
L 379.233058 265.702346 
L 383.332231 267.331916 
L 387.431405 268.946844 
L 391.530579 270.549504 
L 395.629752 272.137956 
L 399.728926 273.713035 
L 403.828099 275.274417 
L 407.927273 276.826733 
L 412.026446 278.367502 
L 416.12562 279.897383 
L 420.224793 281.417627 
L 424.323967 282.922963 
L 428.42314 284.416643 
L 432.522314 285.904431 
L 436.621488 287.380385 
L 440.720661 288.842597 
L 444.819835 290.291342 
L 448.919008 291.733089 
L 453.018182 293.162951 
L 457.117355 294.578616 
L 461.216529 295.984917 
L 465.315702 297.377292 
L 469.414876 298.755352 
L 473.51405 300.120565 
L 477.613223 301.477075 
L 481.712397 302.82565 
L 485.81157 304.163563 
L 489.910744 305.493002 
L 494.009917 306.812712 
L 498.109091 308.119531 
L 498.109091 299.460071 
L 498.109091 299.460071 
L 494.009917 298.216064 
L 489.910744 296.959914 
L 485.81157 295.694832 
L 481.712397 294.421839 
L 477.613223 293.138755 
L 473.51405 291.848532 
L 469.414876 290.550355 
L 465.315702 289.24004 
L 461.216529 287.916246 
L 457.117355 286.579244 
L 453.018182 285.233638 
L 448.919008 283.874579 
L 444.819835 282.504445 
L 440.720661 281.128091 
L 436.621488 279.739043 
L 432.522314 278.337094 
L 428.42314 276.924059 
L 424.323967 275.505885 
L 420.224793 274.077023 
L 416.12562 272.634002 
L 412.026446 271.182148 
L 407.927273 269.72006 
L 403.828099 268.246827 
L 399.728926 266.765014 
L 395.629752 265.270083 
L 391.530579 263.762298 
L 387.431405 262.240665 
L 383.332231 260.707157 
L 379.233058 259.159502 
L 375.133884 257.598336 
L 371.034711 256.024224 
L 366.935537 254.436295 
L 362.836364 252.837295 
L 358.73719 251.228404 
L 354.638017 249.607745 
L 350.538843 247.975202 
L 346.439669 246.328931 
L 342.340496 244.668859 
L 338.241322 242.990127 
L 334.142149 241.311292 
L 330.042975 239.614268 
L 325.943802 237.909057 
L 321.844628 236.189443 
L 317.745455 234.452399 
L 313.646281 232.699846 
L 309.547107 230.928222 
L 305.447934 229.142416 
L 301.34876 227.355753 
L 297.249587 225.56217 
L 293.150413 223.757419 
L 289.05124 221.94004 
L 284.952066 220.105228 
L 280.852893 218.257993 
L 276.753719 216.400687 
L 272.654545 214.531802 
L 268.555372 212.641819 
L 264.456198 210.733722 
L 260.357025 208.811865 
L 256.257851 206.881729 
L 252.158678 204.945198 
L 248.059504 203.003902 
L 243.960331 201.055919 
L 239.861157 199.097143 
L 235.761983 197.127772 
L 231.66281 195.154058 
L 227.563636 193.174942 
L 223.464463 191.194418 
L 219.365289 189.188464 
L 215.266116 187.15162 
L 211.166942 185.090469 
L 207.067769 183.012337 
L 202.968595 180.917926 
L 198.869421 178.812107 
L 194.770248 176.70539 
L 190.671074 174.609163 
L 186.571901 172.531619 
L 182.472727 170.489558 
L 178.373554 168.501509 
L 174.27438 166.577225 
L 170.175207 164.72869 
L 166.076033 162.905591 
L 161.97686 161.106041 
L 157.877686 159.345374 
L 153.778512 157.599606 
L 149.679339 155.859876 
L 145.580165 154.167479 
L 141.480992 152.533694 
L 137.381818 151.017036 
L 133.282645 149.550557 
L 129.183471 148.111641 
L 125.084298 146.688766 
L 120.985124 145.27267 
L 116.88595 143.856575 
L 112.786777 142.440479 
L 108.687603 141.024383 
L 104.58843 139.608287 
L 100.489256 138.192192 
L 96.390083 136.776096 
L 92.290909 135.36 
z
" style="fill:#74c476;"/>
   </g>
   <g id="PolyCollection_11">
    <path clip-path="url(#pf6284b7930)" d="M 92.290909 135.36 
L 92.290909 135.36 
L 96.390083 136.776096 
L 100.489256 138.192192 
L 104.58843 139.608287 
L 108.687603 141.024383 
L 112.786777 142.440479 
L 116.88595 143.856575 
L 120.985124 145.27267 
L 125.084298 146.688766 
L 129.183471 148.111641 
L 133.282645 149.550557 
L 137.381818 151.017036 
L 141.480992 152.533694 
L 145.580165 154.167479 
L 149.679339 155.859876 
L 153.778512 157.599606 
L 157.877686 159.345374 
L 161.97686 161.106041 
L 166.076033 162.905591 
L 170.175207 164.72869 
L 174.27438 166.577225 
L 178.373554 168.501509 
L 182.472727 170.489558 
L 186.571901 172.531619 
L 190.671074 174.609163 
L 194.770248 176.70539 
L 198.869421 178.812107 
L 202.968595 180.917926 
L 207.067769 183.012337 
L 211.166942 185.090469 
L 215.266116 187.15162 
L 219.365289 189.188464 
L 223.464463 191.194418 
L 227.563636 193.174942 
L 231.66281 195.154058 
L 235.761983 197.127772 
L 239.861157 199.097143 
L 243.960331 201.055919 
L 248.059504 203.003902 
L 252.158678 204.945198 
L 256.257851 206.881729 
L 260.357025 208.811865 
L 264.456198 210.733722 
L 268.555372 212.641819 
L 272.654545 214.531802 
L 276.753719 216.400687 
L 280.852893 218.257993 
L 284.952066 220.105228 
L 289.05124 221.94004 
L 293.150413 223.757419 
L 297.249587 225.56217 
L 301.34876 227.355753 
L 305.447934 229.142416 
L 309.547107 230.928222 
L 313.646281 232.699846 
L 317.745455 234.452399 
L 321.844628 236.189443 
L 325.943802 237.909057 
L 330.042975 239.614268 
L 334.142149 241.311292 
L 338.241322 242.990127 
L 342.340496 244.668859 
L 346.439669 246.328931 
L 350.538843 247.975202 
L 354.638017 249.607745 
L 358.73719 251.228404 
L 362.836364 252.837295 
L 366.935537 254.436295 
L 371.034711 256.024224 
L 375.133884 257.598336 
L 379.233058 259.159502 
L 383.332231 260.707157 
L 387.431405 262.240665 
L 391.530579 263.762298 
L 395.629752 265.270083 
L 399.728926 266.765014 
L 403.828099 268.246827 
L 407.927273 269.72006 
L 412.026446 271.182148 
L 416.12562 272.634002 
L 420.224793 274.077023 
L 424.323967 275.505885 
L 428.42314 276.924059 
L 432.522314 278.337094 
L 436.621488 279.739043 
L 440.720661 281.128091 
L 444.819835 282.504445 
L 448.919008 283.874579 
L 453.018182 285.233638 
L 457.117355 286.579244 
L 461.216529 287.916246 
L 465.315702 289.24004 
L 469.414876 290.550355 
L 473.51405 291.848532 
L 477.613223 293.138755 
L 481.712397 294.421839 
L 485.81157 295.694832 
L 489.910744 296.959914 
L 494.009917 298.216064 
L 498.109091 299.460071 
L 498.109091 289.707349 
L 498.109091 289.707349 
L 494.009917 288.561535 
L 489.910744 287.403636 
L 485.81157 286.236858 
L 481.712397 285.06217 
L 477.613223 283.87739 
L 473.51405 282.685472 
L 469.414876 281.485651 
L 465.315702 280.273737 
L 461.216529 279.048345 
L 457.117355 277.809745 
L 453.018182 276.562541 
L 448.919008 275.301882 
L 444.819835 274.030151 
L 440.720661 272.752295 
L 436.621488 271.461756 
L 432.522314 270.158314 
L 428.42314 268.84381 
L 424.323967 267.524175 
L 420.224793 266.193852 
L 416.12562 264.849371 
L 412.026446 263.496056 
L 407.927273 262.132509 
L 403.828099 260.757815 
L 399.728926 259.374542 
L 395.629752 257.978151 
L 391.530579 256.568905 
L 387.431405 255.145812 
L 383.332231 253.710843 
L 379.233058 252.261728 
L 375.133884 250.799102 
L 371.034711 249.32353 
L 366.935537 247.834139 
L 362.836364 246.333679 
L 358.73719 244.823328 
L 354.638017 243.301209 
L 350.538843 241.767206 
L 346.439669 240.219474 
L 342.340496 238.657942 
L 338.241322 237.077749 
L 334.142149 235.497454 
L 330.042975 233.898969 
L 325.943802 232.292298 
L 321.844628 230.671224 
L 317.745455 229.03272 
L 313.646281 227.378706 
L 309.547107 225.705622 
L 305.447934 224.018355 
L 301.34876 222.330231 
L 297.249587 220.635188 
L 293.150413 218.928977 
L 289.05124 217.210138 
L 284.952066 215.473865 
L 280.852893 213.72517 
L 276.753719 211.966404 
L 272.654545 210.196058 
L 268.555372 208.404615 
L 264.456198 206.595058 
L 260.357025 204.77174 
L 256.257851 202.940144 
L 252.158678 201.102153 
L 248.059504 199.259397 
L 243.960331 197.409953 
L 239.861157 195.549716 
L 235.761983 193.678885 
L 231.66281 191.803711 
L 227.563636 189.923134 
L 223.464463 188.04115 
L 219.365289 186.133735 
L 215.266116 184.195431 
L 211.166942 182.23282 
L 207.067769 180.253228 
L 202.968595 178.257356 
L 198.869421 176.250076 
L 194.770248 174.241899 
L 190.671074 172.244212 
L 186.571901 170.265208 
L 182.472727 168.321686 
L 178.373554 166.432177 
L 174.27438 164.606433 
L 170.175207 162.856437 
L 166.076033 161.131878 
L 161.97686 159.430867 
L 157.877686 157.76874 
L 153.778512 156.121512 
L 149.679339 154.480321 
L 145.580165 152.886464 
L 141.480992 151.351219 
L 137.381818 149.9331 
L 133.282645 148.56516 
L 129.183471 147.224784 
L 125.084298 145.900449 
L 120.985124 144.582893 
L 116.88595 143.265337 
L 112.786777 141.947781 
L 108.687603 140.630225 
L 104.58843 139.312668 
L 100.489256 137.995112 
L 96.390083 136.677556 
L 92.290909 135.36 
z
" style="fill:#a1d99b;"/>
   </g>
   <g id="matplotlib.axis_1">
    <g id="xtick_1">
     <g id="line2d_1">
      <defs>
       <path d="M 0 0 
L 0 3.5 
" id="m4106792261" style="stroke:#000000;stroke-width:0.8;"/>
      </defs>
      <g>
       <use style="stroke:#000000;stroke-width:0.8;" x="92.290909" xlink:href="#m4106792261" y="768.96"/>
      </g>
     </g>
     <g id="text_1">
      <!-- 0 -->
      <g transform="translate(85.292159 792.676563)scale(0.22 -0.22)">
       <defs>
        <path d="M 2034 4250 
Q 1547 4250 1301 3770 
Q 1056 3291 1056 2328 
Q 1056 1369 1301 889 
Q 1547 409 2034 409 
Q 2525 409 2770 889 
Q 3016 1369 3016 2328 
Q 3016 3291 2770 3770 
Q 2525 4250 2034 4250 
z
M 2034 4750 
Q 2819 4750 3233 4129 
Q 3647 3509 3647 2328 
Q 3647 1150 3233 529 
Q 2819 -91 2034 -91 
Q 1250 -91 836 529 
Q 422 1150 422 2328 
Q 422 3509 836 4129 
Q 1250 4750 2034 4750 
z
" id="DejaVuSans-30" transform="scale(0.015625)"/>
       </defs>
       <use xlink:href="#DejaVuSans-30"/>
      </g>
     </g>
    </g>
    <g id="xtick_2">
     <g id="line2d_2">
      <g>
       <use style="stroke:#000000;stroke-width:0.8;" x="173.454545" xlink:href="#m4106792261" y="768.96"/>
      </g>
     </g>
     <g id="text_2">
      <!-- 20 -->
      <g transform="translate(159.457045 792.676563)scale(0.22 -0.22)">
       <defs>
        <path d="M 1228 531 
L 3431 531 
L 3431 0 
L 469 0 
L 469 531 
Q 828 903 1448 1529 
Q 2069 2156 2228 2338 
Q 2531 2678 2651 2914 
Q 2772 3150 2772 3378 
Q 2772 3750 2511 3984 
Q 2250 4219 1831 4219 
Q 1534 4219 1204 4116 
Q 875 4013 500 3803 
L 500 4441 
Q 881 4594 1212 4672 
Q 1544 4750 1819 4750 
Q 2544 4750 2975 4387 
Q 3406 4025 3406 3419 
Q 3406 3131 3298 2873 
Q 3191 2616 2906 2266 
Q 2828 2175 2409 1742 
Q 1991 1309 1228 531 
z
" id="DejaVuSans-32" transform="scale(0.015625)"/>
       </defs>
       <use xlink:href="#DejaVuSans-32"/>
       <use x="63.623047" xlink:href="#DejaVuSans-30"/>
      </g>
     </g>
    </g>
    <g id="xtick_3">
     <g id="line2d_3">
      <g>
       <use style="stroke:#000000;stroke-width:0.8;" x="254.618182" xlink:href="#m4106792261" y="768.96"/>
      </g>
     </g>
     <g id="text_3">
      <!-- 40 -->
      <g transform="translate(240.620682 792.676563)scale(0.22 -0.22)">
       <defs>
        <path d="M 2419 4116 
L 825 1625 
L 2419 1625 
L 2419 4116 
z
M 2253 4666 
L 3047 4666 
L 3047 1625 
L 3713 1625 
L 3713 1100 
L 3047 1100 
L 3047 0 
L 2419 0 
L 2419 1100 
L 313 1100 
L 313 1709 
L 2253 4666 
z
" id="DejaVuSans-34" transform="scale(0.015625)"/>
       </defs>
       <use xlink:href="#DejaVuSans-34"/>
       <use x="63.623047" xlink:href="#DejaVuSans-30"/>
      </g>
     </g>
    </g>
    <g id="xtick_4">
     <g id="line2d_4">
      <g>
       <use style="stroke:#000000;stroke-width:0.8;" x="335.781818" xlink:href="#m4106792261" y="768.96"/>
      </g>
     </g>
     <g id="text_4">
      <!-- 60 -->
      <g transform="translate(321.784318 792.676563)scale(0.22 -0.22)">
       <defs>
        <path d="M 2113 2584 
Q 1688 2584 1439 2293 
Q 1191 2003 1191 1497 
Q 1191 994 1439 701 
Q 1688 409 2113 409 
Q 2538 409 2786 701 
Q 3034 994 3034 1497 
Q 3034 2003 2786 2293 
Q 2538 2584 2113 2584 
z
M 3366 4563 
L 3366 3988 
Q 3128 4100 2886 4159 
Q 2644 4219 2406 4219 
Q 1781 4219 1451 3797 
Q 1122 3375 1075 2522 
Q 1259 2794 1537 2939 
Q 1816 3084 2150 3084 
Q 2853 3084 3261 2657 
Q 3669 2231 3669 1497 
Q 3669 778 3244 343 
Q 2819 -91 2113 -91 
Q 1303 -91 875 529 
Q 447 1150 447 2328 
Q 447 3434 972 4092 
Q 1497 4750 2381 4750 
Q 2619 4750 2861 4703 
Q 3103 4656 3366 4563 
z
" id="DejaVuSans-36" transform="scale(0.015625)"/>
       </defs>
       <use xlink:href="#DejaVuSans-36"/>
       <use x="63.623047" xlink:href="#DejaVuSans-30"/>
      </g>
     </g>
    </g>
    <g id="xtick_5">
     <g id="line2d_5">
      <g>
       <use style="stroke:#000000;stroke-width:0.8;" x="416.945455" xlink:href="#m4106792261" y="768.96"/>
      </g>
     </g>
     <g id="text_5">
      <!-- 80 -->
      <g transform="translate(402.947955 792.676563)scale(0.22 -0.22)">
       <defs>
        <path d="M 2034 2216 
Q 1584 2216 1326 1975 
Q 1069 1734 1069 1313 
Q 1069 891 1326 650 
Q 1584 409 2034 409 
Q 2484 409 2743 651 
Q 3003 894 3003 1313 
Q 3003 1734 2745 1975 
Q 2488 2216 2034 2216 
z
M 1403 2484 
Q 997 2584 770 2862 
Q 544 3141 544 3541 
Q 544 4100 942 4425 
Q 1341 4750 2034 4750 
Q 2731 4750 3128 4425 
Q 3525 4100 3525 3541 
Q 3525 3141 3298 2862 
Q 3072 2584 2669 2484 
Q 3125 2378 3379 2068 
Q 3634 1759 3634 1313 
Q 3634 634 3220 271 
Q 2806 -91 2034 -91 
Q 1263 -91 848 271 
Q 434 634 434 1313 
Q 434 1759 690 2068 
Q 947 2378 1403 2484 
z
M 1172 3481 
Q 1172 3119 1398 2916 
Q 1625 2713 2034 2713 
Q 2441 2713 2670 2916 
Q 2900 3119 2900 3481 
Q 2900 3844 2670 4047 
Q 2441 4250 2034 4250 
Q 1625 4250 1398 4047 
Q 1172 3844 1172 3481 
z
" id="DejaVuSans-38" transform="scale(0.015625)"/>
       </defs>
       <use xlink:href="#DejaVuSans-38"/>
       <use x="63.623047" xlink:href="#DejaVuSans-30"/>
      </g>
     </g>
    </g>
    <g id="xtick_6">
     <g id="line2d_6">
      <g>
       <use style="stroke:#000000;stroke-width:0.8;" x="498.109091" xlink:href="#m4106792261" y="768.96"/>
      </g>
     </g>
     <g id="text_6">
      <!-- 100 -->
      <g transform="translate(477.112841 792.676563)scale(0.22 -0.22)">
       <defs>
        <path d="M 794 531 
L 1825 531 
L 1825 4091 
L 703 3866 
L 703 4441 
L 1819 4666 
L 2450 4666 
L 2450 531 
L 3481 531 
L 3481 0 
L 794 0 
L 794 531 
z
" id="DejaVuSans-31" transform="scale(0.015625)"/>
       </defs>
       <use xlink:href="#DejaVuSans-31"/>
       <use x="63.623047" xlink:href="#DejaVuSans-30"/>
       <use x="127.246094" xlink:href="#DejaVuSans-30"/>
      </g>
     </g>
    </g>
    <g id="text_7">
     <!-- Proportion of DAPV in Grid (%) -->
     <g transform="translate(128.259531 817.968438)scale(0.22 -0.22)">
      <defs>
       <path d="M 1259 4147 
L 1259 2394 
L 2053 2394 
Q 2494 2394 2734 2622 
Q 2975 2850 2975 3272 
Q 2975 3691 2734 3919 
Q 2494 4147 2053 4147 
L 1259 4147 
z
M 628 4666 
L 2053 4666 
Q 2838 4666 3239 4311 
Q 3641 3956 3641 3272 
Q 3641 2581 3239 2228 
Q 2838 1875 2053 1875 
L 1259 1875 
L 1259 0 
L 628 0 
L 628 4666 
z
" id="DejaVuSans-50" transform="scale(0.015625)"/>
       <path d="M 2631 2963 
Q 2534 3019 2420 3045 
Q 2306 3072 2169 3072 
Q 1681 3072 1420 2755 
Q 1159 2438 1159 1844 
L 1159 0 
L 581 0 
L 581 3500 
L 1159 3500 
L 1159 2956 
Q 1341 3275 1631 3429 
Q 1922 3584 2338 3584 
Q 2397 3584 2469 3576 
Q 2541 3569 2628 3553 
L 2631 2963 
z
" id="DejaVuSans-72" transform="scale(0.015625)"/>
       <path d="M 1959 3097 
Q 1497 3097 1228 2736 
Q 959 2375 959 1747 
Q 959 1119 1226 758 
Q 1494 397 1959 397 
Q 2419 397 2687 759 
Q 2956 1122 2956 1747 
Q 2956 2369 2687 2733 
Q 2419 3097 1959 3097 
z
M 1959 3584 
Q 2709 3584 3137 3096 
Q 3566 2609 3566 1747 
Q 3566 888 3137 398 
Q 2709 -91 1959 -91 
Q 1206 -91 779 398 
Q 353 888 353 1747 
Q 353 2609 779 3096 
Q 1206 3584 1959 3584 
z
" id="DejaVuSans-6f" transform="scale(0.015625)"/>
       <path d="M 1159 525 
L 1159 -1331 
L 581 -1331 
L 581 3500 
L 1159 3500 
L 1159 2969 
Q 1341 3281 1617 3432 
Q 1894 3584 2278 3584 
Q 2916 3584 3314 3078 
Q 3713 2572 3713 1747 
Q 3713 922 3314 415 
Q 2916 -91 2278 -91 
Q 1894 -91 1617 61 
Q 1341 213 1159 525 
z
M 3116 1747 
Q 3116 2381 2855 2742 
Q 2594 3103 2138 3103 
Q 1681 3103 1420 2742 
Q 1159 2381 1159 1747 
Q 1159 1113 1420 752 
Q 1681 391 2138 391 
Q 2594 391 2855 752 
Q 3116 1113 3116 1747 
z
" id="DejaVuSans-70" transform="scale(0.015625)"/>
       <path d="M 1172 4494 
L 1172 3500 
L 2356 3500 
L 2356 3053 
L 1172 3053 
L 1172 1153 
Q 1172 725 1289 603 
Q 1406 481 1766 481 
L 2356 481 
L 2356 0 
L 1766 0 
Q 1100 0 847 248 
Q 594 497 594 1153 
L 594 3053 
L 172 3053 
L 172 3500 
L 594 3500 
L 594 4494 
L 1172 4494 
z
" id="DejaVuSans-74" transform="scale(0.015625)"/>
       <path d="M 603 3500 
L 1178 3500 
L 1178 0 
L 603 0 
L 603 3500 
z
M 603 4863 
L 1178 4863 
L 1178 4134 
L 603 4134 
L 603 4863 
z
" id="DejaVuSans-69" transform="scale(0.015625)"/>
       <path d="M 3513 2113 
L 3513 0 
L 2938 0 
L 2938 2094 
Q 2938 2591 2744 2837 
Q 2550 3084 2163 3084 
Q 1697 3084 1428 2787 
Q 1159 2491 1159 1978 
L 1159 0 
L 581 0 
L 581 3500 
L 1159 3500 
L 1159 2956 
Q 1366 3272 1645 3428 
Q 1925 3584 2291 3584 
Q 2894 3584 3203 3211 
Q 3513 2838 3513 2113 
z
" id="DejaVuSans-6e" transform="scale(0.015625)"/>
       <path id="DejaVuSans-20" transform="scale(0.015625)"/>
       <path d="M 2375 4863 
L 2375 4384 
L 1825 4384 
Q 1516 4384 1395 4259 
Q 1275 4134 1275 3809 
L 1275 3500 
L 2222 3500 
L 2222 3053 
L 1275 3053 
L 1275 0 
L 697 0 
L 697 3053 
L 147 3053 
L 147 3500 
L 697 3500 
L 697 3744 
Q 697 4328 969 4595 
Q 1241 4863 1831 4863 
L 2375 4863 
z
" id="DejaVuSans-66" transform="scale(0.015625)"/>
       <path d="M 1259 4147 
L 1259 519 
L 2022 519 
Q 2988 519 3436 956 
Q 3884 1394 3884 2338 
Q 3884 3275 3436 3711 
Q 2988 4147 2022 4147 
L 1259 4147 
z
M 628 4666 
L 1925 4666 
Q 3281 4666 3915 4102 
Q 4550 3538 4550 2338 
Q 4550 1131 3912 565 
Q 3275 0 1925 0 
L 628 0 
L 628 4666 
z
" id="DejaVuSans-44" transform="scale(0.015625)"/>
       <path d="M 2188 4044 
L 1331 1722 
L 3047 1722 
L 2188 4044 
z
M 1831 4666 
L 2547 4666 
L 4325 0 
L 3669 0 
L 3244 1197 
L 1141 1197 
L 716 0 
L 50 0 
L 1831 4666 
z
" id="DejaVuSans-41" transform="scale(0.015625)"/>
       <path d="M 1831 0 
L 50 4666 
L 709 4666 
L 2188 738 
L 3669 4666 
L 4325 4666 
L 2547 0 
L 1831 0 
z
" id="DejaVuSans-56" transform="scale(0.015625)"/>
       <path d="M 3809 666 
L 3809 1919 
L 2778 1919 
L 2778 2438 
L 4434 2438 
L 4434 434 
Q 4069 175 3628 42 
Q 3188 -91 2688 -91 
Q 1594 -91 976 548 
Q 359 1188 359 2328 
Q 359 3472 976 4111 
Q 1594 4750 2688 4750 
Q 3144 4750 3555 4637 
Q 3966 4525 4313 4306 
L 4313 3634 
Q 3963 3931 3569 4081 
Q 3175 4231 2741 4231 
Q 1884 4231 1454 3753 
Q 1025 3275 1025 2328 
Q 1025 1384 1454 906 
Q 1884 428 2741 428 
Q 3075 428 3337 486 
Q 3600 544 3809 666 
z
" id="DejaVuSans-47" transform="scale(0.015625)"/>
       <path d="M 2906 2969 
L 2906 4863 
L 3481 4863 
L 3481 0 
L 2906 0 
L 2906 525 
Q 2725 213 2448 61 
Q 2172 -91 1784 -91 
Q 1150 -91 751 415 
Q 353 922 353 1747 
Q 353 2572 751 3078 
Q 1150 3584 1784 3584 
Q 2172 3584 2448 3432 
Q 2725 3281 2906 2969 
z
M 947 1747 
Q 947 1113 1208 752 
Q 1469 391 1925 391 
Q 2381 391 2643 752 
Q 2906 1113 2906 1747 
Q 2906 2381 2643 2742 
Q 2381 3103 1925 3103 
Q 1469 3103 1208 2742 
Q 947 2381 947 1747 
z
" id="DejaVuSans-64" transform="scale(0.015625)"/>
       <path d="M 1984 4856 
Q 1566 4138 1362 3434 
Q 1159 2731 1159 2009 
Q 1159 1288 1364 580 
Q 1569 -128 1984 -844 
L 1484 -844 
Q 1016 -109 783 600 
Q 550 1309 550 2009 
Q 550 2706 781 3412 
Q 1013 4119 1484 4856 
L 1984 4856 
z
" id="DejaVuSans-28" transform="scale(0.015625)"/>
       <path d="M 4653 2053 
Q 4381 2053 4226 1822 
Q 4072 1591 4072 1178 
Q 4072 772 4226 539 
Q 4381 306 4653 306 
Q 4919 306 5073 539 
Q 5228 772 5228 1178 
Q 5228 1588 5073 1820 
Q 4919 2053 4653 2053 
z
M 4653 2450 
Q 5147 2450 5437 2106 
Q 5728 1763 5728 1178 
Q 5728 594 5436 251 
Q 5144 -91 4653 -91 
Q 4153 -91 3862 251 
Q 3572 594 3572 1178 
Q 3572 1766 3864 2108 
Q 4156 2450 4653 2450 
z
M 1428 4353 
Q 1159 4353 1004 4120 
Q 850 3888 850 3481 
Q 850 3069 1003 2837 
Q 1156 2606 1428 2606 
Q 1700 2606 1854 2837 
Q 2009 3069 2009 3481 
Q 2009 3884 1853 4118 
Q 1697 4353 1428 4353 
z
M 4250 4750 
L 4750 4750 
L 1831 -91 
L 1331 -91 
L 4250 4750 
z
M 1428 4750 
Q 1922 4750 2215 4408 
Q 2509 4066 2509 3481 
Q 2509 2891 2217 2550 
Q 1925 2209 1428 2209 
Q 931 2209 642 2551 
Q 353 2894 353 3481 
Q 353 4063 643 4406 
Q 934 4750 1428 4750 
z
" id="DejaVuSans-25" transform="scale(0.015625)"/>
       <path d="M 513 4856 
L 1013 4856 
Q 1481 4119 1714 3412 
Q 1947 2706 1947 2009 
Q 1947 1309 1714 600 
Q 1481 -109 1013 -844 
L 513 -844 
Q 928 -128 1133 580 
Q 1338 1288 1338 2009 
Q 1338 2731 1133 3434 
Q 928 4138 513 4856 
z
" id="DejaVuSans-29" transform="scale(0.015625)"/>
      </defs>
      <use xlink:href="#DejaVuSans-50"/>
      <use x="58.552734" xlink:href="#DejaVuSans-72"/>
      <use x="97.416016" xlink:href="#DejaVuSans-6f"/>
      <use x="158.597656" xlink:href="#DejaVuSans-70"/>
      <use x="222.074219" xlink:href="#DejaVuSans-6f"/>
      <use x="283.255859" xlink:href="#DejaVuSans-72"/>
      <use x="324.369141" xlink:href="#DejaVuSans-74"/>
      <use x="363.578125" xlink:href="#DejaVuSans-69"/>
      <use x="391.361328" xlink:href="#DejaVuSans-6f"/>
      <use x="452.542969" xlink:href="#DejaVuSans-6e"/>
      <use x="515.921875" xlink:href="#DejaVuSans-20"/>
      <use x="547.708984" xlink:href="#DejaVuSans-6f"/>
      <use x="608.890625" xlink:href="#DejaVuSans-66"/>
      <use x="644.095703" xlink:href="#DejaVuSans-20"/>
      <use x="675.882812" xlink:href="#DejaVuSans-44"/>
      <use x="751.134766" xlink:href="#DejaVuSans-41"/>
      <use x="819.542969" xlink:href="#DejaVuSans-50"/>
      <use x="879.845703" xlink:href="#DejaVuSans-56"/>
      <use x="948.253906" xlink:href="#DejaVuSans-20"/>
      <use x="980.041016" xlink:href="#DejaVuSans-69"/>
      <use x="1007.824219" xlink:href="#DejaVuSans-6e"/>
      <use x="1071.203125" xlink:href="#DejaVuSans-20"/>
      <use x="1102.990234" xlink:href="#DejaVuSans-47"/>
      <use x="1180.480469" xlink:href="#DejaVuSans-72"/>
      <use x="1221.59375" xlink:href="#DejaVuSans-69"/>
      <use x="1249.376953" xlink:href="#DejaVuSans-64"/>
      <use x="1312.853516" xlink:href="#DejaVuSans-20"/>
      <use x="1344.640625" xlink:href="#DejaVuSans-28"/>
      <use x="1383.654297" xlink:href="#DejaVuSans-25"/>
      <use x="1478.673828" xlink:href="#DejaVuSans-29"/>
     </g>
    </g>
   </g>
   <g id="matplotlib.axis_2">
    <g id="ytick_1">
     <g id="line2d_7">
      <defs>
       <path d="M 0 0 
L -3.5 0 
" id="m2000dca002" style="stroke:#000000;stroke-width:0.8;"/>
      </defs>
      <g>
       <use style="stroke:#000000;stroke-width:0.8;" x="72" xlink:href="#m2000dca002" y="768.96"/>
      </g>
     </g>
     <g id="text_8">
      <!-- 0 -->
      <g transform="translate(51.0025 777.318281)scale(0.22 -0.22)">
       <use xlink:href="#DejaVuSans-30"/>
      </g>
     </g>
    </g>
    <g id="ytick_2">
     <g id="line2d_8">
      <g>
       <use style="stroke:#000000;stroke-width:0.8;" x="72" xlink:href="#m2000dca002" y="633.373974"/>
      </g>
     </g>
     <g id="text_9">
      <!-- 20 -->
      <g transform="translate(37.005 641.732256)scale(0.22 -0.22)">
       <use xlink:href="#DejaVuSans-32"/>
       <use x="63.623047" xlink:href="#DejaVuSans-30"/>
      </g>
     </g>
    </g>
    <g id="ytick_3">
     <g id="line2d_9">
      <g>
       <use style="stroke:#000000;stroke-width:0.8;" x="72" xlink:href="#m2000dca002" y="497.787949"/>
      </g>
     </g>
     <g id="text_10">
      <!-- 40 -->
      <g transform="translate(37.005 506.14623)scale(0.22 -0.22)">
       <use xlink:href="#DejaVuSans-34"/>
       <use x="63.623047" xlink:href="#DejaVuSans-30"/>
      </g>
     </g>
    </g>
    <g id="ytick_4">
     <g id="line2d_10">
      <g>
       <use style="stroke:#000000;stroke-width:0.8;" x="72" xlink:href="#m2000dca002" y="362.201923"/>
      </g>
     </g>
     <g id="text_11">
      <!-- 60 -->
      <g transform="translate(37.005 370.560205)scale(0.22 -0.22)">
       <use xlink:href="#DejaVuSans-36"/>
       <use x="63.623047" xlink:href="#DejaVuSans-30"/>
      </g>
     </g>
    </g>
    <g id="ytick_5">
     <g id="line2d_11">
      <g>
       <use style="stroke:#000000;stroke-width:0.8;" x="72" xlink:href="#m2000dca002" y="226.615898"/>
      </g>
     </g>
     <g id="text_12">
      <!-- 80 -->
      <g transform="translate(37.005 234.974179)scale(0.22 -0.22)">
       <use xlink:href="#DejaVuSans-38"/>
       <use x="63.623047" xlink:href="#DejaVuSans-30"/>
      </g>
     </g>
    </g>
    <g id="text_13">
     <!-- Carbon Equivalent Emissions (Mt) -->
     <g transform="translate(28.429687 621.814375)rotate(-90)scale(0.22 -0.22)">
      <defs>
       <path d="M 4122 4306 
L 4122 3641 
Q 3803 3938 3442 4084 
Q 3081 4231 2675 4231 
Q 1875 4231 1450 3742 
Q 1025 3253 1025 2328 
Q 1025 1406 1450 917 
Q 1875 428 2675 428 
Q 3081 428 3442 575 
Q 3803 722 4122 1019 
L 4122 359 
Q 3791 134 3420 21 
Q 3050 -91 2638 -91 
Q 1578 -91 968 557 
Q 359 1206 359 2328 
Q 359 3453 968 4101 
Q 1578 4750 2638 4750 
Q 3056 4750 3426 4639 
Q 3797 4528 4122 4306 
z
" id="DejaVuSans-43" transform="scale(0.015625)"/>
       <path d="M 2194 1759 
Q 1497 1759 1228 1600 
Q 959 1441 959 1056 
Q 959 750 1161 570 
Q 1363 391 1709 391 
Q 2188 391 2477 730 
Q 2766 1069 2766 1631 
L 2766 1759 
L 2194 1759 
z
M 3341 1997 
L 3341 0 
L 2766 0 
L 2766 531 
Q 2569 213 2275 61 
Q 1981 -91 1556 -91 
Q 1019 -91 701 211 
Q 384 513 384 1019 
Q 384 1609 779 1909 
Q 1175 2209 1959 2209 
L 2766 2209 
L 2766 2266 
Q 2766 2663 2505 2880 
Q 2244 3097 1772 3097 
Q 1472 3097 1187 3025 
Q 903 2953 641 2809 
L 641 3341 
Q 956 3463 1253 3523 
Q 1550 3584 1831 3584 
Q 2591 3584 2966 3190 
Q 3341 2797 3341 1997 
z
" id="DejaVuSans-61" transform="scale(0.015625)"/>
       <path d="M 3116 1747 
Q 3116 2381 2855 2742 
Q 2594 3103 2138 3103 
Q 1681 3103 1420 2742 
Q 1159 2381 1159 1747 
Q 1159 1113 1420 752 
Q 1681 391 2138 391 
Q 2594 391 2855 752 
Q 3116 1113 3116 1747 
z
M 1159 2969 
Q 1341 3281 1617 3432 
Q 1894 3584 2278 3584 
Q 2916 3584 3314 3078 
Q 3713 2572 3713 1747 
Q 3713 922 3314 415 
Q 2916 -91 2278 -91 
Q 1894 -91 1617 61 
Q 1341 213 1159 525 
L 1159 0 
L 581 0 
L 581 4863 
L 1159 4863 
L 1159 2969 
z
" id="DejaVuSans-62" transform="scale(0.015625)"/>
       <path d="M 628 4666 
L 3578 4666 
L 3578 4134 
L 1259 4134 
L 1259 2753 
L 3481 2753 
L 3481 2222 
L 1259 2222 
L 1259 531 
L 3634 531 
L 3634 0 
L 628 0 
L 628 4666 
z
" id="DejaVuSans-45" transform="scale(0.015625)"/>
       <path d="M 947 1747 
Q 947 1113 1208 752 
Q 1469 391 1925 391 
Q 2381 391 2643 752 
Q 2906 1113 2906 1747 
Q 2906 2381 2643 2742 
Q 2381 3103 1925 3103 
Q 1469 3103 1208 2742 
Q 947 2381 947 1747 
z
M 2906 525 
Q 2725 213 2448 61 
Q 2172 -91 1784 -91 
Q 1150 -91 751 415 
Q 353 922 353 1747 
Q 353 2572 751 3078 
Q 1150 3584 1784 3584 
Q 2172 3584 2448 3432 
Q 2725 3281 2906 2969 
L 2906 3500 
L 3481 3500 
L 3481 -1331 
L 2906 -1331 
L 2906 525 
z
" id="DejaVuSans-71" transform="scale(0.015625)"/>
       <path d="M 544 1381 
L 544 3500 
L 1119 3500 
L 1119 1403 
Q 1119 906 1312 657 
Q 1506 409 1894 409 
Q 2359 409 2629 706 
Q 2900 1003 2900 1516 
L 2900 3500 
L 3475 3500 
L 3475 0 
L 2900 0 
L 2900 538 
Q 2691 219 2414 64 
Q 2138 -91 1772 -91 
Q 1169 -91 856 284 
Q 544 659 544 1381 
z
M 1991 3584 
L 1991 3584 
z
" id="DejaVuSans-75" transform="scale(0.015625)"/>
       <path d="M 191 3500 
L 800 3500 
L 1894 563 
L 2988 3500 
L 3597 3500 
L 2284 0 
L 1503 0 
L 191 3500 
z
" id="DejaVuSans-76" transform="scale(0.015625)"/>
       <path d="M 603 4863 
L 1178 4863 
L 1178 0 
L 603 0 
L 603 4863 
z
" id="DejaVuSans-6c" transform="scale(0.015625)"/>
       <path d="M 3597 1894 
L 3597 1613 
L 953 1613 
Q 991 1019 1311 708 
Q 1631 397 2203 397 
Q 2534 397 2845 478 
Q 3156 559 3463 722 
L 3463 178 
Q 3153 47 2828 -22 
Q 2503 -91 2169 -91 
Q 1331 -91 842 396 
Q 353 884 353 1716 
Q 353 2575 817 3079 
Q 1281 3584 2069 3584 
Q 2775 3584 3186 3129 
Q 3597 2675 3597 1894 
z
M 3022 2063 
Q 3016 2534 2758 2815 
Q 2500 3097 2075 3097 
Q 1594 3097 1305 2825 
Q 1016 2553 972 2059 
L 3022 2063 
z
" id="DejaVuSans-65" transform="scale(0.015625)"/>
       <path d="M 3328 2828 
Q 3544 3216 3844 3400 
Q 4144 3584 4550 3584 
Q 5097 3584 5394 3201 
Q 5691 2819 5691 2113 
L 5691 0 
L 5113 0 
L 5113 2094 
Q 5113 2597 4934 2840 
Q 4756 3084 4391 3084 
Q 3944 3084 3684 2787 
Q 3425 2491 3425 1978 
L 3425 0 
L 2847 0 
L 2847 2094 
Q 2847 2600 2669 2842 
Q 2491 3084 2119 3084 
Q 1678 3084 1418 2786 
Q 1159 2488 1159 1978 
L 1159 0 
L 581 0 
L 581 3500 
L 1159 3500 
L 1159 2956 
Q 1356 3278 1631 3431 
Q 1906 3584 2284 3584 
Q 2666 3584 2933 3390 
Q 3200 3197 3328 2828 
z
" id="DejaVuSans-6d" transform="scale(0.015625)"/>
       <path d="M 2834 3397 
L 2834 2853 
Q 2591 2978 2328 3040 
Q 2066 3103 1784 3103 
Q 1356 3103 1142 2972 
Q 928 2841 928 2578 
Q 928 2378 1081 2264 
Q 1234 2150 1697 2047 
L 1894 2003 
Q 2506 1872 2764 1633 
Q 3022 1394 3022 966 
Q 3022 478 2636 193 
Q 2250 -91 1575 -91 
Q 1294 -91 989 -36 
Q 684 19 347 128 
L 347 722 
Q 666 556 975 473 
Q 1284 391 1588 391 
Q 1994 391 2212 530 
Q 2431 669 2431 922 
Q 2431 1156 2273 1281 
Q 2116 1406 1581 1522 
L 1381 1569 
Q 847 1681 609 1914 
Q 372 2147 372 2553 
Q 372 3047 722 3315 
Q 1072 3584 1716 3584 
Q 2034 3584 2315 3537 
Q 2597 3491 2834 3397 
z
" id="DejaVuSans-73" transform="scale(0.015625)"/>
       <path d="M 628 4666 
L 1569 4666 
L 2759 1491 
L 3956 4666 
L 4897 4666 
L 4897 0 
L 4281 0 
L 4281 4097 
L 3078 897 
L 2444 897 
L 1241 4097 
L 1241 0 
L 628 0 
L 628 4666 
z
" id="DejaVuSans-4d" transform="scale(0.015625)"/>
      </defs>
      <use xlink:href="#DejaVuSans-43"/>
      <use x="69.824219" xlink:href="#DejaVuSans-61"/>
      <use x="131.103516" xlink:href="#DejaVuSans-72"/>
      <use x="172.216797" xlink:href="#DejaVuSans-62"/>
      <use x="235.693359" xlink:href="#DejaVuSans-6f"/>
      <use x="296.875" xlink:href="#DejaVuSans-6e"/>
      <use x="360.253906" xlink:href="#DejaVuSans-20"/>
      <use x="392.041016" xlink:href="#DejaVuSans-45"/>
      <use x="455.224609" xlink:href="#DejaVuSans-71"/>
      <use x="518.701172" xlink:href="#DejaVuSans-75"/>
      <use x="582.080078" xlink:href="#DejaVuSans-69"/>
      <use x="609.863281" xlink:href="#DejaVuSans-76"/>
      <use x="669.042969" xlink:href="#DejaVuSans-61"/>
      <use x="730.322266" xlink:href="#DejaVuSans-6c"/>
      <use x="758.105469" xlink:href="#DejaVuSans-65"/>
      <use x="819.628906" xlink:href="#DejaVuSans-6e"/>
      <use x="883.007812" xlink:href="#DejaVuSans-74"/>
      <use x="922.216797" xlink:href="#DejaVuSans-20"/>
      <use x="954.003906" xlink:href="#DejaVuSans-45"/>
      <use x="1017.1875" xlink:href="#DejaVuSans-6d"/>
      <use x="1114.599609" xlink:href="#DejaVuSans-69"/>
      <use x="1142.382812" xlink:href="#DejaVuSans-73"/>
      <use x="1194.482422" xlink:href="#DejaVuSans-73"/>
      <use x="1246.582031" xlink:href="#DejaVuSans-69"/>
      <use x="1274.365234" xlink:href="#DejaVuSans-6f"/>
      <use x="1335.546875" xlink:href="#DejaVuSans-6e"/>
      <use x="1398.925781" xlink:href="#DejaVuSans-73"/>
      <use x="1451.025391" xlink:href="#DejaVuSans-20"/>
      <use x="1482.8125" xlink:href="#DejaVuSans-28"/>
      <use x="1521.826172" xlink:href="#DejaVuSans-4d"/>
      <use x="1608.105469" xlink:href="#DejaVuSans-74"/>
      <use x="1647.314453" xlink:href="#DejaVuSans-29"/>
     </g>
    </g>
   </g>
   <g id="patch_3">
    <path d="M 72 768.96 
L 72 103.68 
" style="fill:none;stroke:#000000;stroke-linecap:square;stroke-linejoin:miter;stroke-width:0.8;"/>
   </g>
   <g id="patch_4">
    <path d="M 518.4 768.96 
L 518.4 103.68 
" style="fill:none;stroke:#000000;stroke-linecap:square;stroke-linejoin:miter;stroke-width:0.8;"/>
   </g>
   <g id="patch_5">
    <path d="M 72 768.96 
L 518.4 768.96 
" style="fill:none;stroke:#000000;stroke-linecap:square;stroke-linejoin:miter;stroke-width:0.8;"/>
   </g>
   <g id="patch_6">
    <path d="M 72 103.68 
L 518.4 103.68 
" style="fill:none;stroke:#000000;stroke-linecap:square;stroke-linejoin:miter;stroke-width:0.8;"/>
   </g>
  </g>
 </g>
 <defs>
  <clipPath id="pf6284b7930">
   <rect height="665.28" width="446.4" x="72" y="103.68"/>
  </clipPath>
 </defs>
</svg>
