<?xml version="1.0" encoding="utf-8" standalone="no"?>
<!DOCTYPE svg PUBLIC "-//W3C//DTD SVG 1.1//EN"
  "http://www.w3.org/Graphics/SVG/1.1/DTD/svg11.dtd">
<svg height="576pt" version="1.1" viewBox="0 0 432 576" width="432pt" xmlns="http://www.w3.org/2000/svg" xmlns:xlink="http://www.w3.org/1999/xlink">
 <metadata>
  <rdf:RDF xmlns:cc="http://creativecommons.org/ns#" xmlns:dc="http://purl.org/dc/elements/1.1/" xmlns:rdf="http://www.w3.org/1999/02/22-rdf-syntax-ns#">
   <cc:Work>
    <dc:type rdf:resource="http://purl.org/dc/dcmitype/StillImage"/>
    <dc:date>2021-06-15T11:11:50.125987</dc:date>
    <dc:format>image/svg+xml</dc:format>
    <dc:creator>
     <cc:Agent>
      <dc:title>Matplotlib v3.4.1, https://matplotlib.org/</dc:title>
     </cc:Agent>
    </dc:creator>
   </cc:Work>
  </rdf:RDF>
 </metadata>
 <defs>
  <style type="text/css">*{stroke-linecap:butt;stroke-linejoin:round;}</style>
 </defs>
 <g id="figure_1">
  <g id="patch_1">
   <path d="M 0 576 
L 432 576 
L 432 0 
L 0 0 
z
" style="fill:#ffffff;"/>
  </g>
  <g id="axes_1">
   <g id="patch_2">
    <path d="M 54 512.64 
L 388.8 512.64 
L 388.8 69.12 
L 54 69.12 
z
" style="fill:#ffffff;"/>
   </g>
   <g id="PolyCollection_1">
    <path clip-path="url(#p05bd508f7d)" d="M 69.218182 219.919698 
L 69.218182 512.64 
L 72.292562 512.64 
L 75.366942 512.64 
L 78.441322 512.64 
L 81.515702 512.64 
L 84.590083 512.64 
L 87.664463 512.64 
L 90.738843 512.64 
L 93.813223 512.64 
L 96.887603 512.64 
L 99.961983 512.64 
L 103.036364 512.64 
L 106.110744 512.64 
L 109.185124 512.64 
L 112.259504 512.64 
L 115.333884 512.64 
L 118.408264 512.64 
L 121.482645 512.64 
L 124.557025 512.64 
L 127.631405 512.64 
L 130.705785 512.64 
L 133.780165 512.64 
L 136.854545 512.64 
L 139.928926 512.64 
L 143.003306 512.64 
L 146.077686 512.64 
L 149.152066 512.64 
L 152.226446 512.64 
L 155.300826 512.64 
L 158.375207 512.64 
L 161.449587 512.64 
L 164.523967 512.64 
L 167.598347 512.64 
L 170.672727 512.64 
L 173.747107 512.64 
L 176.821488 512.64 
L 179.895868 512.64 
L 182.970248 512.64 
L 186.044628 512.64 
L 189.119008 512.64 
L 192.193388 512.64 
L 195.267769 512.64 
L 198.342149 512.64 
L 201.416529 512.64 
L 204.490909 512.64 
L 207.565289 512.64 
L 210.639669 512.64 
L 213.71405 512.64 
L 216.78843 512.64 
L 219.86281 512.64 
L 222.93719 512.64 
L 226.01157 512.64 
L 229.08595 512.64 
L 232.160331 512.64 
L 235.234711 512.64 
L 238.309091 512.64 
L 241.383471 512.64 
L 244.457851 512.64 
L 247.532231 512.64 
L 250.606612 512.64 
L 253.680992 512.64 
L 256.755372 512.64 
L 259.829752 512.64 
L 262.904132 512.64 
L 265.978512 512.64 
L 269.052893 512.64 
L 272.127273 512.64 
L 275.201653 512.64 
L 278.276033 512.64 
L 281.350413 512.64 
L 284.424793 512.64 
L 287.499174 512.64 
L 290.573554 512.64 
L 293.647934 512.64 
L 296.722314 512.64 
L 299.796694 512.64 
L 302.871074 512.64 
L 305.945455 512.64 
L 309.019835 512.64 
L 312.094215 512.64 
L 315.168595 512.64 
L 318.242975 512.64 
L 321.317355 512.64 
L 324.391736 512.64 
L 327.466116 512.64 
L 330.540496 512.64 
L 333.614876 512.64 
L 336.689256 512.64 
L 339.763636 512.64 
L 342.838017 512.64 
L 345.912397 512.64 
L 348.986777 512.64 
L 352.061157 512.64 
L 355.135537 512.64 
L 358.209917 512.64 
L 361.284298 512.64 
L 364.358678 512.64 
L 367.433058 512.64 
L 370.507438 512.64 
L 373.581818 512.64 
L 373.581818 290.537712 
L 373.581818 290.537712 
L 370.507438 289.918429 
L 367.433058 289.295252 
L 364.358678 288.668578 
L 361.284298 288.036542 
L 358.209917 287.399288 
L 355.135537 286.759341 
L 352.061157 286.114759 
L 348.986777 285.466062 
L 345.912397 284.815584 
L 342.838017 284.162024 
L 339.763636 283.506163 
L 336.689256 282.847727 
L 333.614876 282.185142 
L 330.540496 281.515887 
L 327.466116 280.841801 
L 324.391736 280.164458 
L 321.317355 279.482697 
L 318.242975 278.792715 
L 315.168595 278.100745 
L 312.094215 277.404842 
L 309.019835 276.703676 
L 305.945455 275.997493 
L 302.871074 275.28788 
L 299.796694 274.577742 
L 296.722314 273.868726 
L 293.647934 273.159798 
L 290.573554 272.449903 
L 287.499174 271.741473 
L 284.424793 271.037401 
L 281.350413 270.335208 
L 278.276033 269.633272 
L 275.201653 268.929748 
L 272.127273 268.221992 
L 269.052893 267.511159 
L 265.978512 266.797801 
L 262.904132 266.084203 
L 259.829752 265.373441 
L 256.755372 264.663107 
L 253.680992 263.955654 
L 250.606612 263.243884 
L 247.532231 262.536335 
L 244.457851 261.826541 
L 241.383471 261.115657 
L 238.309091 260.405978 
L 235.234711 259.701 
L 232.160331 259.001494 
L 229.08595 258.304339 
L 226.01157 257.603949 
L 222.93719 256.900696 
L 219.86281 256.199577 
L 216.78843 255.501791 
L 213.71405 254.810516 
L 210.639669 254.123274 
L 207.565289 253.437168 
L 204.490909 252.755207 
L 201.416529 252.080715 
L 198.342149 251.415298 
L 195.267769 250.755335 
L 192.193388 250.098784 
L 189.119008 249.443715 
L 186.044628 248.788187 
L 182.970248 248.135588 
L 179.895868 247.489079 
L 176.821488 246.84808 
L 173.747107 246.20803 
L 170.672727 245.568003 
L 167.598347 244.927438 
L 164.523967 244.300418 
L 161.449587 243.691061 
L 158.375207 243.094573 
L 155.300826 242.506109 
L 152.226446 241.926271 
L 149.152066 241.351916 
L 146.077686 240.777905 
L 143.003306 240.1979 
L 139.928926 239.606711 
L 136.854545 238.994878 
L 133.780165 238.351998 
L 130.705785 237.672694 
L 127.631405 236.949821 
L 124.557025 236.211949 
L 121.482645 235.460626 
L 118.408264 234.687091 
L 115.333884 233.905044 
L 112.259504 233.119549 
L 109.185124 232.307015 
L 106.110744 231.460999 
L 103.036364 230.548075 
L 99.961983 229.606486 
L 96.887603 228.649153 
L 93.813223 227.682655 
L 90.738843 226.712286 
L 87.664463 225.741916 
L 84.590083 224.771546 
L 81.515702 223.801176 
L 78.441322 222.830807 
L 75.366942 221.860437 
L 72.292562 220.890067 
L 69.218182 219.919698 
z
" style="fill:#3182bd;"/>
   </g>
   <g id="PolyCollection_2">
    <path clip-path="url(#p05bd508f7d)" d="M 69.218182 99.4443 
L 69.218182 219.919698 
L 72.292562 220.890067 
L 75.366942 221.860437 
L 78.441322 222.830807 
L 81.515702 223.801176 
L 84.590083 224.771546 
L 87.664463 225.741916 
L 90.738843 226.712286 
L 93.813223 227.682655 
L 96.887603 228.649153 
L 99.961983 229.606486 
L 103.036364 230.548075 
L 106.110744 231.460999 
L 109.185124 232.307015 
L 112.259504 233.119549 
L 115.333884 233.905044 
L 118.408264 234.687091 
L 121.482645 235.460626 
L 124.557025 236.211949 
L 127.631405 236.949821 
L 130.705785 237.672694 
L 133.780165 238.351998 
L 136.854545 238.994878 
L 139.928926 239.606711 
L 143.003306 240.1979 
L 146.077686 240.777905 
L 149.152066 241.351916 
L 152.226446 241.926271 
L 155.300826 242.506109 
L 158.375207 243.094573 
L 161.449587 243.691061 
L 164.523967 244.300418 
L 167.598347 244.927438 
L 170.672727 245.568003 
L 173.747107 246.20803 
L 176.821488 246.84808 
L 179.895868 247.489079 
L 182.970248 248.135588 
L 186.044628 248.788187 
L 189.119008 249.443715 
L 192.193388 250.098784 
L 195.267769 250.755335 
L 198.342149 251.415298 
L 201.416529 252.080715 
L 204.490909 252.755207 
L 207.565289 253.437168 
L 210.639669 254.123274 
L 213.71405 254.810516 
L 216.78843 255.501791 
L 219.86281 256.199577 
L 222.93719 256.900696 
L 226.01157 257.603949 
L 229.08595 258.304339 
L 232.160331 259.001494 
L 235.234711 259.701 
L 238.309091 260.405978 
L 241.383471 261.115657 
L 244.457851 261.826541 
L 247.532231 262.536335 
L 250.606612 263.243884 
L 253.680992 263.955654 
L 256.755372 264.663107 
L 259.829752 265.373441 
L 262.904132 266.084203 
L 265.978512 266.797801 
L 269.052893 267.511159 
L 272.127273 268.221992 
L 275.201653 268.929748 
L 278.276033 269.633272 
L 281.350413 270.335208 
L 284.424793 271.037401 
L 287.499174 271.741473 
L 290.573554 272.449903 
L 293.647934 273.159798 
L 296.722314 273.868726 
L 299.796694 274.577742 
L 302.871074 275.28788 
L 305.945455 275.997493 
L 309.019835 276.703676 
L 312.094215 277.404842 
L 315.168595 278.100745 
L 318.242975 278.792715 
L 321.317355 279.482697 
L 324.391736 280.164458 
L 327.466116 280.841801 
L 330.540496 281.515887 
L 333.614876 282.185142 
L 336.689256 282.847727 
L 339.763636 283.506163 
L 342.838017 284.162024 
L 345.912397 284.815584 
L 348.986777 285.466062 
L 352.061157 286.114759 
L 355.135537 286.759341 
L 358.209917 287.399288 
L 361.284298 288.036542 
L 364.358678 288.668578 
L 367.433058 289.295252 
L 370.507438 289.918429 
L 373.581818 290.537712 
L 373.581818 210.853621 
L 373.581818 210.853621 
L 370.507438 210.020604 
L 367.433058 209.178981 
L 364.358678 208.330914 
L 361.284298 207.477158 
L 358.209917 206.616244 
L 355.135537 205.750087 
L 352.061157 204.878132 
L 348.986777 203.997595 
L 345.912397 203.107568 
L 342.838017 202.208204 
L 339.763636 201.302646 
L 336.689256 200.387621 
L 333.614876 199.46471 
L 330.540496 198.537121 
L 327.466116 197.600521 
L 324.391736 196.654768 
L 321.317355 195.701082 
L 318.242975 194.743437 
L 315.168595 193.77808 
L 312.094215 192.802756 
L 309.019835 191.821034 
L 305.945455 190.832057 
L 302.871074 189.835327 
L 299.796694 188.832534 
L 296.722314 187.820601 
L 293.647934 186.799715 
L 290.573554 185.769287 
L 287.499174 184.73069 
L 284.424793 183.682374 
L 281.350413 182.624603 
L 278.276033 181.557823 
L 275.201653 180.481335 
L 272.127273 179.396935 
L 269.052893 178.305522 
L 265.978512 177.205877 
L 262.904132 176.098018 
L 259.829752 174.980687 
L 256.755372 173.853717 
L 253.680992 172.71402 
L 250.606612 171.573931 
L 247.532231 170.421339 
L 244.457851 169.262901 
L 241.383471 168.094444 
L 238.309091 166.914061 
L 235.234711 165.723062 
L 232.160331 164.519125 
L 229.08595 163.30543 
L 226.01157 162.090853 
L 222.93719 160.87141 
L 219.86281 159.644338 
L 216.78843 158.408631 
L 213.71405 157.161144 
L 210.639669 155.905164 
L 207.565289 154.642273 
L 204.490909 153.371483 
L 201.416529 152.086471 
L 198.342149 150.789292 
L 195.267769 149.482855 
L 192.193388 148.170811 
L 189.119008 146.854358 
L 186.044628 145.534618 
L 182.970248 144.210396 
L 179.895868 142.878957 
L 176.821488 141.540425 
L 173.747107 140.198871 
L 170.672727 138.853582 
L 167.598347 137.507283 
L 164.523967 136.144016 
L 161.449587 134.760135 
L 158.375207 133.359968 
L 155.300826 131.948419 
L 152.226446 130.525975 
L 149.152066 129.095897 
L 146.077686 127.665212 
L 143.003306 126.24152 
L 139.928926 124.830256 
L 136.854545 123.442627 
L 133.780165 122.090996 
L 130.705785 120.781875 
L 127.631405 119.523237 
L 124.557025 118.281533 
L 121.482645 117.055526 
L 118.408264 115.855443 
L 115.333884 114.665292 
L 112.259504 113.479166 
L 109.185124 112.324595 
L 106.110744 111.209099 
L 103.036364 110.171688 
L 99.961983 109.167729 
L 96.887603 108.182146 
L 93.813223 107.207257 
L 90.738843 106.236888 
L 87.664463 105.266518 
L 84.590083 104.296148 
L 81.515702 103.325779 
L 78.441322 102.355409 
L 75.366942 101.385039 
L 72.292562 100.41467 
L 69.218182 99.4443 
z
" style="fill:#6baed6;"/>
   </g>
   <g id="PolyCollection_3">
    <path clip-path="url(#p05bd508f7d)" d="M 69.218182 99.281456 
L 69.218182 99.4443 
L 72.292562 100.41467 
L 75.366942 101.385039 
L 78.441322 102.355409 
L 81.515702 103.325779 
L 84.590083 104.296148 
L 87.664463 105.266518 
L 90.738843 106.236888 
L 93.813223 107.207257 
L 96.887603 108.182146 
L 99.961983 109.167729 
L 103.036364 110.171688 
L 106.110744 111.209099 
L 109.185124 112.324595 
L 112.259504 113.479166 
L 115.333884 114.665292 
L 118.408264 115.855443 
L 121.482645 117.055526 
L 124.557025 118.281533 
L 127.631405 119.523237 
L 130.705785 120.781875 
L 133.780165 122.090996 
L 136.854545 123.442627 
L 139.928926 124.830256 
L 143.003306 126.24152 
L 146.077686 127.665212 
L 149.152066 129.095897 
L 152.226446 130.525975 
L 155.300826 131.948419 
L 158.375207 133.359968 
L 161.449587 134.760135 
L 164.523967 136.144016 
L 167.598347 137.507283 
L 170.672727 138.853582 
L 173.747107 140.198871 
L 176.821488 141.540425 
L 179.895868 142.878957 
L 182.970248 144.210396 
L 186.044628 145.534618 
L 189.119008 146.854358 
L 192.193388 148.170811 
L 195.267769 149.482855 
L 198.342149 150.789292 
L 201.416529 152.086471 
L 204.490909 153.371483 
L 207.565289 154.642273 
L 210.639669 155.905164 
L 213.71405 157.161144 
L 216.78843 158.408631 
L 219.86281 159.644338 
L 222.93719 160.87141 
L 226.01157 162.090853 
L 229.08595 163.30543 
L 232.160331 164.519125 
L 235.234711 165.723062 
L 238.309091 166.914061 
L 241.383471 168.094444 
L 244.457851 169.262901 
L 247.532231 170.421339 
L 250.606612 171.573931 
L 253.680992 172.71402 
L 256.755372 173.853717 
L 259.829752 174.980687 
L 262.904132 176.098018 
L 265.978512 177.205877 
L 269.052893 178.305522 
L 272.127273 179.396935 
L 275.201653 180.481335 
L 278.276033 181.557823 
L 281.350413 182.624603 
L 284.424793 183.682374 
L 287.499174 184.73069 
L 290.573554 185.769287 
L 293.647934 186.799715 
L 296.722314 187.820601 
L 299.796694 188.832534 
L 302.871074 189.835327 
L 305.945455 190.832057 
L 309.019835 191.821034 
L 312.094215 192.802756 
L 315.168595 193.77808 
L 318.242975 194.743437 
L 321.317355 195.701082 
L 324.391736 196.654768 
L 327.466116 197.600521 
L 330.540496 198.537121 
L 333.614876 199.46471 
L 336.689256 200.387621 
L 339.763636 201.302646 
L 342.838017 202.208204 
L 345.912397 203.107568 
L 348.986777 203.997595 
L 352.061157 204.878132 
L 355.135537 205.750087 
L 358.209917 206.616244 
L 361.284298 207.477158 
L 364.358678 208.330914 
L 367.433058 209.178981 
L 370.507438 210.020604 
L 373.581818 210.853621 
L 373.581818 210.700062 
L 373.581818 210.700062 
L 370.507438 209.866762 
L 367.433058 209.024873 
L 364.358678 208.176517 
L 361.284298 207.322508 
L 358.209917 206.461393 
L 355.135537 205.59498 
L 352.061157 204.722764 
L 348.986777 203.841998 
L 345.912397 202.951723 
L 342.838017 202.052121 
L 339.763636 201.146292 
L 336.689256 200.231005 
L 333.614876 199.307834 
L 330.540496 198.379981 
L 327.466116 197.44314 
L 324.391736 196.497147 
L 321.317355 195.543232 
L 318.242975 194.585382 
L 315.168595 193.619761 
L 312.094215 192.644212 
L 309.019835 191.662268 
L 305.945455 190.673107 
L 302.871074 189.676257 
L 299.796694 188.673325 
L 296.722314 187.66123 
L 293.647934 186.640184 
L 290.573554 185.609659 
L 287.499174 184.570971 
L 284.424793 183.522528 
L 281.350413 182.464578 
L 278.276033 181.397614 
L 275.201653 180.320938 
L 272.127273 179.236361 
L 269.052893 178.144785 
L 265.978512 177.045013 
L 262.904132 175.937056 
L 259.829752 174.819607 
L 256.755372 173.692504 
L 253.680992 172.552722 
L 250.606612 171.41251 
L 247.532231 170.259772 
L 244.457851 169.10118 
L 241.383471 167.932599 
L 238.309091 166.752148 
L 235.234711 165.56106 
L 232.160331 164.357059 
L 229.08595 163.143302 
L 226.01157 161.92862 
L 222.93719 160.709114 
L 219.86281 159.481995 
L 216.78843 158.246239 
L 213.71405 156.998712 
L 210.639669 155.742674 
L 207.565289 154.479744 
L 204.490909 153.208898 
L 201.416529 151.923861 
L 198.342149 150.62665 
L 195.267769 149.320198 
L 192.193388 148.008132 
L 189.119008 146.691645 
L 186.044628 145.371894 
L 182.970248 144.04767 
L 179.895868 142.716223 
L 176.821488 141.377681 
L 173.747107 140.036101 
L 170.672727 138.690798 
L 167.598347 137.344484 
L 164.523967 135.981217 
L 161.449587 134.597328 
L 158.375207 133.197143 
L 155.300826 131.785585 
L 152.226446 130.363131 
L 149.152066 128.933053 
L 146.077686 127.502368 
L 143.003306 126.078677 
L 139.928926 124.667413 
L 136.854545 123.279784 
L 133.780165 121.928153 
L 130.705785 120.619032 
L 127.631405 119.360394 
L 124.557025 118.118689 
L 121.482645 116.892683 
L 118.408264 115.692599 
L 115.333884 114.502448 
L 112.259504 113.316322 
L 109.185124 112.161752 
L 106.110744 111.046256 
L 103.036364 110.008845 
L 99.961983 109.004886 
L 96.887603 108.019303 
L 93.813223 107.044414 
L 90.738843 106.074044 
L 87.664463 105.103674 
L 84.590083 104.133305 
L 81.515702 103.162935 
L 78.441322 102.192565 
L 75.366942 101.222196 
L 72.292562 100.251826 
L 69.218182 99.281456 
z
" style="fill:#9ecae1;"/>
   </g>
   <g id="PolyCollection_4">
    <path clip-path="url(#p05bd508f7d)" d="M 69.218182 99.130353 
L 69.218182 99.281456 
L 72.292562 100.251826 
L 75.366942 101.222196 
L 78.441322 102.192565 
L 81.515702 103.162935 
L 84.590083 104.133305 
L 87.664463 105.103674 
L 90.738843 106.074044 
L 93.813223 107.044414 
L 96.887603 108.019303 
L 99.961983 109.004886 
L 103.036364 110.008845 
L 106.110744 111.046256 
L 109.185124 112.161752 
L 112.259504 113.316322 
L 115.333884 114.502448 
L 118.408264 115.692599 
L 121.482645 116.892683 
L 124.557025 118.118689 
L 127.631405 119.360394 
L 130.705785 120.619032 
L 133.780165 121.928153 
L 136.854545 123.279784 
L 139.928926 124.667413 
L 143.003306 126.078677 
L 146.077686 127.502368 
L 149.152066 128.933053 
L 152.226446 130.363131 
L 155.300826 131.785585 
L 158.375207 133.197143 
L 161.449587 134.597328 
L 164.523967 135.981217 
L 167.598347 137.344484 
L 170.672727 138.690798 
L 173.747107 140.036101 
L 176.821488 141.377681 
L 179.895868 142.716223 
L 182.970248 144.04767 
L 186.044628 145.371894 
L 189.119008 146.691645 
L 192.193388 148.008132 
L 195.267769 149.320198 
L 198.342149 150.62665 
L 201.416529 151.923861 
L 204.490909 153.208898 
L 207.565289 154.479744 
L 210.639669 155.742674 
L 213.71405 156.998712 
L 216.78843 158.246239 
L 219.86281 159.481995 
L 222.93719 160.709114 
L 226.01157 161.92862 
L 229.08595 163.143302 
L 232.160331 164.357059 
L 235.234711 165.56106 
L 238.309091 166.752148 
L 241.383471 167.932599 
L 244.457851 169.10118 
L 247.532231 170.259772 
L 250.606612 171.41251 
L 253.680992 172.552722 
L 256.755372 173.692504 
L 259.829752 174.819607 
L 262.904132 175.937056 
L 265.978512 177.045013 
L 269.052893 178.144785 
L 272.127273 179.236361 
L 275.201653 180.320938 
L 278.276033 181.397614 
L 281.350413 182.464578 
L 284.424793 183.522528 
L 287.499174 184.570971 
L 290.573554 185.609659 
L 293.647934 186.640184 
L 296.722314 187.66123 
L 299.796694 188.673325 
L 302.871074 189.676257 
L 305.945455 190.673107 
L 309.019835 191.662268 
L 312.094215 192.644212 
L 315.168595 193.619761 
L 318.242975 194.585382 
L 321.317355 195.543232 
L 324.391736 196.497147 
L 327.466116 197.44314 
L 330.540496 198.379981 
L 333.614876 199.307834 
L 336.689256 200.231005 
L 339.763636 201.146292 
L 342.838017 202.052121 
L 345.912397 202.951723 
L 348.986777 203.841998 
L 352.061157 204.722764 
L 355.135537 205.59498 
L 358.209917 206.461393 
L 361.284298 207.322508 
L 364.358678 208.176517 
L 367.433058 209.024873 
L 370.507438 209.866762 
L 373.581818 210.700062 
L 373.581818 210.549036 
L 373.581818 210.549036 
L 370.507438 209.715728 
L 367.433058 208.87383 
L 364.358678 208.025465 
L 361.284298 207.171451 
L 358.209917 206.310336 
L 355.135537 205.443923 
L 352.061157 204.571699 
L 348.986777 203.690927 
L 345.912397 202.800645 
L 342.838017 201.901042 
L 339.763636 200.995212 
L 336.689256 200.079926 
L 333.614876 199.156755 
L 330.540496 198.228888 
L 327.466116 197.292038 
L 324.391736 196.346044 
L 321.317355 195.392129 
L 318.242975 194.434279 
L 315.168595 193.468658 
L 312.094215 192.493109 
L 309.019835 191.511165 
L 305.945455 190.522004 
L 302.871074 189.525154 
L 299.796694 188.522222 
L 296.722314 187.510127 
L 293.647934 186.489081 
L 290.573554 185.458556 
L 287.499174 184.419868 
L 284.424793 183.371425 
L 281.350413 182.313475 
L 278.276033 181.246511 
L 275.201653 180.169835 
L 272.127273 179.085258 
L 269.052893 177.993682 
L 265.978512 176.89391 
L 262.904132 175.785953 
L 259.829752 174.668504 
L 256.755372 173.541401 
L 253.680992 172.401619 
L 250.606612 171.261408 
L 247.532231 170.108669 
L 244.457851 168.950077 
L 241.383471 167.781496 
L 238.309091 166.601045 
L 235.234711 165.409957 
L 232.160331 164.205956 
L 229.08595 162.992199 
L 226.01157 161.777517 
L 222.93719 160.558011 
L 219.86281 159.330892 
L 216.78843 158.095136 
L 213.71405 156.847609 
L 210.639669 155.591571 
L 207.565289 154.328641 
L 204.490909 153.057795 
L 201.416529 151.772758 
L 198.342149 150.475547 
L 195.267769 149.169095 
L 192.193388 147.857029 
L 189.119008 146.540542 
L 186.044628 145.220791 
L 182.970248 143.896567 
L 179.895868 142.56512 
L 176.821488 141.226578 
L 173.747107 139.884998 
L 170.672727 138.539695 
L 167.598347 137.193381 
L 164.523967 135.830114 
L 161.449587 134.446225 
L 158.375207 133.04604 
L 155.300826 131.634483 
L 152.226446 130.212028 
L 149.152066 128.781951 
L 146.077686 127.351265 
L 143.003306 125.927574 
L 139.928926 124.51631 
L 136.854545 123.128681 
L 133.780165 121.77705 
L 130.705785 120.467929 
L 127.631405 119.209291 
L 124.557025 117.967586 
L 121.482645 116.74158 
L 118.408264 115.541496 
L 115.333884 114.351345 
L 112.259504 113.165219 
L 109.185124 112.010649 
L 106.110744 110.895153 
L 103.036364 109.857742 
L 99.961983 108.853783 
L 96.887603 107.8682 
L 93.813223 106.893311 
L 90.738843 105.922941 
L 87.664463 104.952571 
L 84.590083 103.982202 
L 81.515702 103.011832 
L 78.441322 102.041462 
L 75.366942 101.071093 
L 72.292562 100.100723 
L 69.218182 99.130353 
z
" style="fill:#c6dbef;"/>
   </g>
   <g id="PolyCollection_5">
    <path clip-path="url(#p05bd508f7d)" d="M 69.218182 98.627771 
L 69.218182 99.130353 
L 72.292562 100.100723 
L 75.366942 101.071093 
L 78.441322 102.041462 
L 81.515702 103.011832 
L 84.590083 103.982202 
L 87.664463 104.952571 
L 90.738843 105.922941 
L 93.813223 106.893311 
L 96.887603 107.8682 
L 99.961983 108.853783 
L 103.036364 109.857742 
L 106.110744 110.895153 
L 109.185124 112.010649 
L 112.259504 113.165219 
L 115.333884 114.351345 
L 118.408264 115.541496 
L 121.482645 116.74158 
L 124.557025 117.967586 
L 127.631405 119.209291 
L 130.705785 120.467929 
L 133.780165 121.77705 
L 136.854545 123.128681 
L 139.928926 124.51631 
L 143.003306 125.927574 
L 146.077686 127.351265 
L 149.152066 128.781951 
L 152.226446 130.212028 
L 155.300826 131.634483 
L 158.375207 133.04604 
L 161.449587 134.446225 
L 164.523967 135.830114 
L 167.598347 137.193381 
L 170.672727 138.539695 
L 173.747107 139.884998 
L 176.821488 141.226578 
L 179.895868 142.56512 
L 182.970248 143.896567 
L 186.044628 145.220791 
L 189.119008 146.540542 
L 192.193388 147.857029 
L 195.267769 149.169095 
L 198.342149 150.475547 
L 201.416529 151.772758 
L 204.490909 153.057795 
L 207.565289 154.328641 
L 210.639669 155.591571 
L 213.71405 156.847609 
L 216.78843 158.095136 
L 219.86281 159.330892 
L 222.93719 160.558011 
L 226.01157 161.777517 
L 229.08595 162.992199 
L 232.160331 164.205956 
L 235.234711 165.409957 
L 238.309091 166.601045 
L 241.383471 167.781496 
L 244.457851 168.950077 
L 247.532231 170.108669 
L 250.606612 171.261408 
L 253.680992 172.401619 
L 256.755372 173.541401 
L 259.829752 174.668504 
L 262.904132 175.785953 
L 265.978512 176.89391 
L 269.052893 177.993682 
L 272.127273 179.085258 
L 275.201653 180.169835 
L 278.276033 181.246511 
L 281.350413 182.313475 
L 284.424793 183.371425 
L 287.499174 184.419868 
L 290.573554 185.458556 
L 293.647934 186.489081 
L 296.722314 187.510127 
L 299.796694 188.522222 
L 302.871074 189.525154 
L 305.945455 190.522004 
L 309.019835 191.511165 
L 312.094215 192.493109 
L 315.168595 193.468658 
L 318.242975 194.434279 
L 321.317355 195.392129 
L 324.391736 196.346044 
L 327.466116 197.292038 
L 330.540496 198.228888 
L 333.614876 199.156755 
L 336.689256 200.079926 
L 339.763636 200.995212 
L 342.838017 201.901042 
L 345.912397 202.800645 
L 348.986777 203.690927 
L 352.061157 204.571699 
L 355.135537 205.443923 
L 358.209917 206.310336 
L 361.284298 207.171451 
L 364.358678 208.025465 
L 367.433058 208.87383 
L 370.507438 209.715728 
L 373.581818 210.549036 
L 373.581818 210.047069 
L 373.581818 210.047069 
L 370.507438 209.213721 
L 367.433058 208.371792 
L 364.358678 207.523395 
L 361.284298 206.66935 
L 358.209917 205.808198 
L 355.135537 204.941749 
L 352.061157 204.069489 
L 348.986777 203.188676 
L 345.912397 202.298366 
L 342.838017 201.398745 
L 339.763636 200.4929 
L 336.689256 199.577597 
L 333.614876 198.654411 
L 330.540496 197.726527 
L 327.466116 196.789659 
L 324.391736 195.843643 
L 321.317355 194.889704 
L 318.242975 193.931827 
L 315.168595 192.966181 
L 312.094215 191.990609 
L 309.019835 191.00865 
L 305.945455 190.019477 
L 302.871074 189.022616 
L 299.796694 188.019672 
L 296.722314 187.007566 
L 293.647934 185.986516 
L 290.573554 184.955987 
L 287.499174 183.917294 
L 284.424793 182.868847 
L 281.350413 181.810892 
L 278.276033 180.743928 
L 275.201653 179.667253 
L 272.127273 178.582675 
L 269.052893 177.4911 
L 265.978512 176.391328 
L 262.904132 175.283371 
L 259.829752 174.165922 
L 256.755372 173.038819 
L 253.680992 171.899037 
L 250.606612 170.758825 
L 247.532231 169.606087 
L 244.457851 168.447495 
L 241.383471 167.278913 
L 238.309091 166.098463 
L 235.234711 164.907375 
L 232.160331 163.703373 
L 229.08595 162.489617 
L 226.01157 161.274934 
L 222.93719 160.055428 
L 219.86281 158.82831 
L 216.78843 157.592553 
L 213.71405 156.345026 
L 210.639669 155.088989 
L 207.565289 153.826059 
L 204.490909 152.555212 
L 201.416529 151.270175 
L 198.342149 149.972965 
L 195.267769 148.666513 
L 192.193388 147.354446 
L 189.119008 146.03796 
L 186.044628 144.718209 
L 182.970248 143.393984 
L 179.895868 142.062538 
L 176.821488 140.723996 
L 173.747107 139.382416 
L 170.672727 138.037113 
L 167.598347 136.690799 
L 164.523967 135.327532 
L 161.449587 133.943642 
L 158.375207 132.543457 
L 155.300826 131.1319 
L 152.226446 129.709446 
L 149.152066 128.279368 
L 146.077686 126.848683 
L 143.003306 125.424991 
L 139.928926 124.013727 
L 136.854545 122.626098 
L 133.780165 121.274467 
L 130.705785 119.965346 
L 127.631405 118.706708 
L 124.557025 117.465004 
L 121.482645 116.238997 
L 118.408264 115.038914 
L 115.333884 113.848763 
L 112.259504 112.662637 
L 109.185124 111.508066 
L 106.110744 110.392571 
L 103.036364 109.355159 
L 99.961983 108.3512 
L 96.887603 107.365617 
L 93.813223 106.390728 
L 90.738843 105.420359 
L 87.664463 104.449989 
L 84.590083 103.479619 
L 81.515702 102.50925 
L 78.441322 101.53888 
L 75.366942 100.56851 
L 72.292562 99.598141 
L 69.218182 98.627771 
z
" style="fill:#e6550d;"/>
   </g>
   <g id="PolyCollection_6">
    <path clip-path="url(#p05bd508f7d)" d="M 69.218182 97.884903 
L 69.218182 98.627771 
L 72.292562 99.598141 
L 75.366942 100.56851 
L 78.441322 101.53888 
L 81.515702 102.50925 
L 84.590083 103.479619 
L 87.664463 104.449989 
L 90.738843 105.420359 
L 93.813223 106.390728 
L 96.887603 107.365617 
L 99.961983 108.3512 
L 103.036364 109.355159 
L 106.110744 110.392571 
L 109.185124 111.508066 
L 112.259504 112.662637 
L 115.333884 113.848763 
L 118.408264 115.038914 
L 121.482645 116.238997 
L 124.557025 117.465004 
L 127.631405 118.706708 
L 130.705785 119.965346 
L 133.780165 121.274467 
L 136.854545 122.626098 
L 139.928926 124.013727 
L 143.003306 125.424991 
L 146.077686 126.848683 
L 149.152066 128.279368 
L 152.226446 129.709446 
L 155.300826 131.1319 
L 158.375207 132.543457 
L 161.449587 133.943642 
L 164.523967 135.327532 
L 167.598347 136.690799 
L 170.672727 138.037113 
L 173.747107 139.382416 
L 176.821488 140.723996 
L 179.895868 142.062538 
L 182.970248 143.393984 
L 186.044628 144.718209 
L 189.119008 146.03796 
L 192.193388 147.354446 
L 195.267769 148.666513 
L 198.342149 149.972965 
L 201.416529 151.270175 
L 204.490909 152.555212 
L 207.565289 153.826059 
L 210.639669 155.088989 
L 213.71405 156.345026 
L 216.78843 157.592553 
L 219.86281 158.82831 
L 222.93719 160.055428 
L 226.01157 161.274934 
L 229.08595 162.489617 
L 232.160331 163.703373 
L 235.234711 164.907375 
L 238.309091 166.098463 
L 241.383471 167.278913 
L 244.457851 168.447495 
L 247.532231 169.606087 
L 250.606612 170.758825 
L 253.680992 171.899037 
L 256.755372 173.038819 
L 259.829752 174.165922 
L 262.904132 175.283371 
L 265.978512 176.391328 
L 269.052893 177.4911 
L 272.127273 178.582675 
L 275.201653 179.667253 
L 278.276033 180.743928 
L 281.350413 181.810892 
L 284.424793 182.868847 
L 287.499174 183.917294 
L 290.573554 184.955987 
L 293.647934 185.986516 
L 296.722314 187.007566 
L 299.796694 188.019672 
L 302.871074 189.022616 
L 305.945455 190.019477 
L 309.019835 191.00865 
L 312.094215 191.990609 
L 315.168595 192.966181 
L 318.242975 193.931827 
L 321.317355 194.889704 
L 324.391736 195.843643 
L 327.466116 196.789659 
L 330.540496 197.726527 
L 333.614876 198.654411 
L 336.689256 199.577597 
L 339.763636 200.4929 
L 342.838017 201.398745 
L 345.912397 202.298366 
L 348.986777 203.188676 
L 352.061157 204.069489 
L 355.135537 204.941749 
L 358.209917 205.808198 
L 361.284298 206.66935 
L 364.358678 207.523395 
L 367.433058 208.371792 
L 370.507438 209.213721 
L 373.581818 210.047069 
L 373.581818 209.305727 
L 373.581818 209.305727 
L 370.507438 208.472325 
L 367.433058 207.630329 
L 364.358678 206.781865 
L 361.284298 205.927753 
L 358.209917 205.066541 
L 355.135537 204.200036 
L 352.061157 203.327721 
L 348.986777 202.446851 
L 345.912397 201.556486 
L 342.838017 200.656797 
L 339.763636 199.750884 
L 336.689256 198.83552 
L 333.614876 197.912286 
L 330.540496 196.984357 
L 327.466116 196.047448 
L 324.391736 195.101392 
L 321.317355 194.14741 
L 318.242975 193.189492 
L 315.168595 192.223803 
L 312.094215 191.248189 
L 309.019835 190.266189 
L 305.945455 189.276984 
L 302.871074 188.280098 
L 299.796694 187.277131 
L 296.722314 186.265 
L 293.647934 185.243919 
L 290.573554 184.213359 
L 287.499174 183.17464 
L 284.424793 182.126167 
L 281.350413 181.068187 
L 278.276033 180.001198 
L 275.201653 178.924501 
L 272.127273 177.839905 
L 269.052893 176.748312 
L 265.978512 175.648526 
L 262.904132 174.540558 
L 259.829752 173.423098 
L 256.755372 172.295984 
L 253.680992 171.156191 
L 250.606612 170.01597 
L 247.532231 168.863227 
L 244.457851 167.704631 
L 241.383471 166.536046 
L 238.309091 165.355595 
L 235.234711 164.164507 
L 232.160331 162.960505 
L 229.08595 161.746749 
L 226.01157 160.532067 
L 222.93719 159.312561 
L 219.86281 158.085442 
L 216.78843 156.849685 
L 213.71405 155.602159 
L 210.639669 154.346121 
L 207.565289 153.083191 
L 204.490909 151.812344 
L 201.416529 150.527308 
L 198.342149 149.230097 
L 195.267769 147.923645 
L 192.193388 146.611579 
L 189.119008 145.295092 
L 186.044628 143.975341 
L 182.970248 142.651117 
L 179.895868 141.31967 
L 176.821488 139.981128 
L 173.747107 138.639548 
L 170.672727 137.294245 
L 167.598347 135.947931 
L 164.523967 134.584664 
L 161.449587 133.200775 
L 158.375207 131.800589 
L 155.300826 130.389032 
L 152.226446 128.966578 
L 149.152066 127.5365 
L 146.077686 126.105815 
L 143.003306 124.682123 
L 139.928926 123.270859 
L 136.854545 121.88323 
L 133.780165 120.5316 
L 130.705785 119.222479 
L 127.631405 117.963841 
L 124.557025 116.722136 
L 121.482645 115.49613 
L 118.408264 114.296046 
L 115.333884 113.105895 
L 112.259504 111.919769 
L 109.185124 110.765198 
L 106.110744 109.649703 
L 103.036364 108.612291 
L 99.961983 107.608333 
L 96.887603 106.62275 
L 93.813223 105.647861 
L 90.738843 104.677491 
L 87.664463 103.707121 
L 84.590083 102.736752 
L 81.515702 101.766382 
L 78.441322 100.796012 
L 75.366942 99.825643 
L 72.292562 98.855273 
L 69.218182 97.884903 
z
" style="fill:#fd8d3c;"/>
   </g>
   <g id="PolyCollection_7">
    <path clip-path="url(#p05bd508f7d)" d="M 69.218182 96.094807 
L 69.218182 97.884903 
L 72.292562 98.855273 
L 75.366942 99.825643 
L 78.441322 100.796012 
L 81.515702 101.766382 
L 84.590083 102.736752 
L 87.664463 103.707121 
L 90.738843 104.677491 
L 93.813223 105.647861 
L 96.887603 106.62275 
L 99.961983 107.608333 
L 103.036364 108.612291 
L 106.110744 109.649703 
L 109.185124 110.765198 
L 112.259504 111.919769 
L 115.333884 113.105895 
L 118.408264 114.296046 
L 121.482645 115.49613 
L 124.557025 116.722136 
L 127.631405 117.963841 
L 130.705785 119.222479 
L 133.780165 120.5316 
L 136.854545 121.88323 
L 139.928926 123.270859 
L 143.003306 124.682123 
L 146.077686 126.105815 
L 149.152066 127.5365 
L 152.226446 128.966578 
L 155.300826 130.389032 
L 158.375207 131.800589 
L 161.449587 133.200775 
L 164.523967 134.584664 
L 167.598347 135.947931 
L 170.672727 137.294245 
L 173.747107 138.639548 
L 176.821488 139.981128 
L 179.895868 141.31967 
L 182.970248 142.651117 
L 186.044628 143.975341 
L 189.119008 145.295092 
L 192.193388 146.611579 
L 195.267769 147.923645 
L 198.342149 149.230097 
L 201.416529 150.527308 
L 204.490909 151.812344 
L 207.565289 153.083191 
L 210.639669 154.346121 
L 213.71405 155.602159 
L 216.78843 156.849685 
L 219.86281 158.085442 
L 222.93719 159.312561 
L 226.01157 160.532067 
L 229.08595 161.746749 
L 232.160331 162.960505 
L 235.234711 164.164507 
L 238.309091 165.355595 
L 241.383471 166.536046 
L 244.457851 167.704631 
L 247.532231 168.863227 
L 250.606612 170.01597 
L 253.680992 171.156191 
L 256.755372 172.295984 
L 259.829752 173.423098 
L 262.904132 174.540558 
L 265.978512 175.648526 
L 269.052893 176.748312 
L 272.127273 177.839905 
L 275.201653 178.924501 
L 278.276033 180.001198 
L 281.350413 181.068187 
L 284.424793 182.126167 
L 287.499174 183.17464 
L 290.573554 184.213359 
L 293.647934 185.243919 
L 296.722314 186.265 
L 299.796694 187.277131 
L 302.871074 188.280098 
L 305.945455 189.276984 
L 309.019835 190.266189 
L 312.094215 191.248189 
L 315.168595 192.223803 
L 318.242975 193.189492 
L 321.317355 194.14741 
L 324.391736 195.101392 
L 327.466116 196.047448 
L 330.540496 196.984357 
L 333.614876 197.912286 
L 336.689256 198.83552 
L 339.763636 199.750884 
L 342.838017 200.656797 
L 345.912397 201.556486 
L 348.986777 202.446851 
L 352.061157 203.327721 
L 355.135537 204.200036 
L 358.209917 205.066541 
L 361.284298 205.927753 
L 364.358678 206.781865 
L 367.433058 207.630329 
L 370.507438 208.472325 
L 373.581818 209.305727 
L 373.581818 209.305727 
L 373.581818 209.305727 
L 370.507438 208.454333 
L 367.433058 207.594346 
L 364.358678 206.727872 
L 361.284298 205.855749 
L 358.209917 204.976519 
L 355.135537 204.091998 
L 352.061157 203.201675 
L 348.986777 202.302788 
L 345.912397 201.394357 
L 342.838017 200.476642 
L 339.763636 199.552684 
L 336.689256 198.619262 
L 333.614876 197.677917 
L 330.540496 196.731906 
L 327.466116 195.776918 
L 324.391736 194.812767 
L 321.317355 193.840728 
L 318.242975 192.86476 
L 315.168595 191.881022 
L 312.094215 190.887345 
L 309.019835 189.887244 
L 305.945455 188.879884 
L 302.871074 187.864825 
L 299.796694 186.843724 
L 296.722314 185.81349 
L 293.647934 184.774341 
L 290.573554 183.725721 
L 287.499174 182.668921 
L 284.424793 181.60236 
L 281.350413 180.526292 
L 278.276033 179.4412 
L 275.201653 178.3464 
L 272.127273 177.24369 
L 269.052893 176.133982 
L 265.978512 175.016094 
L 262.904132 173.890012 
L 259.829752 172.754439 
L 256.755372 171.609211 
L 253.680992 170.451311 
L 250.606612 169.29299 
L 247.532231 168.122127 
L 244.457851 166.945422 
L 241.383471 165.758728 
L 238.309091 164.560151 
L 235.234711 163.350958 
L 232.160331 162.128858 
L 229.08595 160.897002 
L 226.01157 159.664221 
L 222.93719 158.426616 
L 219.86281 157.181399 
L 216.78843 155.927543 
L 213.71405 154.661918 
L 210.639669 153.387787 
L 207.565289 152.106775 
L 204.490909 150.817847 
L 201.416529 149.514728 
L 198.342149 148.199435 
L 195.267769 146.874902 
L 192.193388 145.544754 
L 189.119008 144.210185 
L 186.044628 142.872352 
L 182.970248 141.530046 
L 179.895868 140.180518 
L 176.821488 138.823894 
L 173.747107 137.464232 
L 170.672727 136.100848 
L 167.598347 134.736452 
L 164.523967 133.355103 
L 161.449587 131.953132 
L 158.375207 130.534865 
L 155.300826 129.105226 
L 152.226446 127.66469 
L 149.152066 126.21653 
L 146.077686 124.767763 
L 143.003306 123.32599 
L 139.928926 121.896644 
L 136.854545 120.490933 
L 133.780165 119.121221 
L 130.705785 117.794018 
L 127.631405 116.517298 
L 124.557025 115.257512 
L 121.482645 114.013424 
L 118.408264 112.795259 
L 115.333884 111.587026 
L 112.259504 110.382818 
L 109.185124 109.210165 
L 106.110744 108.076588 
L 103.036364 107.021095 
L 99.961983 105.999054 
L 96.887603 104.995389 
L 93.813223 104.002419 
L 90.738843 103.013967 
L 87.664463 102.025516 
L 84.590083 101.037064 
L 81.515702 100.048613 
L 78.441322 99.060161 
L 75.366942 98.07171 
L 72.292562 97.083258 
L 69.218182 96.094807 
z
" style="fill:#fdae6b;"/>
   </g>
   <g id="PolyCollection_8">
    <path clip-path="url(#p05bd508f7d)" d="M 69.218182 92.202101 
L 69.218182 96.094807 
L 72.292562 97.083258 
L 75.366942 98.07171 
L 78.441322 99.060161 
L 81.515702 100.048613 
L 84.590083 101.037064 
L 87.664463 102.025516 
L 90.738843 103.013967 
L 93.813223 104.002419 
L 96.887603 104.995389 
L 99.961983 105.999054 
L 103.036364 107.021095 
L 106.110744 108.076588 
L 109.185124 109.210165 
L 112.259504 110.382818 
L 115.333884 111.587026 
L 118.408264 112.795259 
L 121.482645 114.013424 
L 124.557025 115.257512 
L 127.631405 116.517298 
L 130.705785 117.794018 
L 133.780165 119.121221 
L 136.854545 120.490933 
L 139.928926 121.896644 
L 143.003306 123.32599 
L 146.077686 124.767763 
L 149.152066 126.21653 
L 152.226446 127.66469 
L 155.300826 129.105226 
L 158.375207 130.534865 
L 161.449587 131.953132 
L 164.523967 133.355103 
L 167.598347 134.736452 
L 170.672727 136.100848 
L 173.747107 137.464232 
L 176.821488 138.823894 
L 179.895868 140.180518 
L 182.970248 141.530046 
L 186.044628 142.872352 
L 189.119008 144.210185 
L 192.193388 145.544754 
L 195.267769 146.874902 
L 198.342149 148.199435 
L 201.416529 149.514728 
L 204.490909 150.817847 
L 207.565289 152.106775 
L 210.639669 153.387787 
L 213.71405 154.661918 
L 216.78843 155.927543 
L 219.86281 157.181399 
L 222.93719 158.426616 
L 226.01157 159.664221 
L 229.08595 160.897002 
L 232.160331 162.128858 
L 235.234711 163.350958 
L 238.309091 164.560151 
L 241.383471 165.758728 
L 244.457851 166.945422 
L 247.532231 168.122127 
L 250.606612 169.29299 
L 253.680992 170.451311 
L 256.755372 171.609211 
L 259.829752 172.754439 
L 262.904132 173.890012 
L 265.978512 175.016094 
L 269.052893 176.133982 
L 272.127273 177.24369 
L 275.201653 178.3464 
L 278.276033 179.4412 
L 281.350413 180.526292 
L 284.424793 181.60236 
L 287.499174 182.668921 
L 290.573554 183.725721 
L 293.647934 184.774341 
L 296.722314 185.81349 
L 299.796694 186.843724 
L 302.871074 187.864825 
L 305.945455 188.879884 
L 309.019835 189.887244 
L 312.094215 190.887345 
L 315.168595 191.881022 
L 318.242975 192.86476 
L 321.317355 193.840728 
L 324.391736 194.812767 
L 327.466116 195.776918 
L 330.540496 196.731906 
L 333.614876 197.677917 
L 336.689256 198.619262 
L 339.763636 199.552684 
L 342.838017 200.476642 
L 345.912397 201.394357 
L 348.986777 202.302788 
L 352.061157 203.201675 
L 355.135537 204.091998 
L 358.209917 204.976519 
L 361.284298 205.855749 
L 364.358678 206.727872 
L 367.433058 207.594346 
L 370.507438 208.454333 
L 373.581818 209.305727 
L 373.581818 205.413021 
L 373.581818 205.413021 
L 370.507438 204.561627 
L 367.433058 203.701639 
L 364.358678 202.835166 
L 361.284298 201.963043 
L 358.209917 201.083813 
L 355.135537 200.199292 
L 352.061157 199.308969 
L 348.986777 198.410082 
L 345.912397 197.501651 
L 342.838017 196.583936 
L 339.763636 195.659978 
L 336.689256 194.726556 
L 333.614876 193.785211 
L 330.540496 192.8392 
L 327.466116 191.884212 
L 324.391736 190.920061 
L 321.317355 189.948022 
L 318.242975 188.972054 
L 315.168595 187.988316 
L 312.094215 186.994639 
L 309.019835 185.994538 
L 305.945455 184.987178 
L 302.871074 183.972119 
L 299.796694 182.951017 
L 296.722314 181.920784 
L 293.647934 180.881635 
L 290.573554 179.833015 
L 287.499174 178.776215 
L 284.424793 177.709654 
L 281.350413 176.633586 
L 278.276033 175.548494 
L 275.201653 174.453694 
L 272.127273 173.350984 
L 269.052893 172.241276 
L 265.978512 171.123388 
L 262.904132 169.997306 
L 259.829752 168.861733 
L 256.755372 167.716505 
L 253.680992 166.558605 
L 250.606612 165.400283 
L 247.532231 164.229421 
L 244.457851 163.052716 
L 241.383471 161.866022 
L 238.309091 160.667445 
L 235.234711 159.458252 
L 232.160331 158.236152 
L 229.08595 157.004296 
L 226.01157 155.771515 
L 222.93719 154.53391 
L 219.86281 153.288693 
L 216.78843 152.034837 
L 213.71405 150.769212 
L 210.639669 149.495081 
L 207.565289 148.214069 
L 204.490909 146.92514 
L 201.416529 145.622022 
L 198.342149 144.306729 
L 195.267769 142.982196 
L 192.193388 141.652048 
L 189.119008 140.317479 
L 186.044628 138.979646 
L 182.970248 137.63734 
L 179.895868 136.287812 
L 176.821488 134.931188 
L 173.747107 133.571526 
L 170.672727 132.208141 
L 167.598347 130.843746 
L 164.523967 129.462397 
L 161.449587 128.060426 
L 158.375207 126.642159 
L 155.300826 125.21252 
L 152.226446 123.771984 
L 149.152066 122.323824 
L 146.077686 120.875057 
L 143.003306 119.433284 
L 139.928926 118.003938 
L 136.854545 116.598227 
L 133.780165 115.228515 
L 130.705785 113.901312 
L 127.631405 112.624592 
L 124.557025 111.364806 
L 121.482645 110.120718 
L 118.408264 108.902552 
L 115.333884 107.69432 
L 112.259504 106.490112 
L 109.185124 105.317459 
L 106.110744 104.183882 
L 103.036364 103.128389 
L 99.961983 102.106348 
L 96.887603 101.102683 
L 93.813223 100.109713 
L 90.738843 99.121261 
L 87.664463 98.13281 
L 84.590083 97.144358 
L 81.515702 96.155907 
L 78.441322 95.167455 
L 75.366942 94.179004 
L 72.292562 93.190552 
L 69.218182 92.202101 
z
" style="fill:#fdd0a2;"/>
   </g>
   <g id="PolyCollection_9">
    <path clip-path="url(#p05bd508f7d)" d="M 69.218182 90.24 
L 69.218182 92.202101 
L 72.292562 93.190552 
L 75.366942 94.179004 
L 78.441322 95.167455 
L 81.515702 96.155907 
L 84.590083 97.144358 
L 87.664463 98.13281 
L 90.738843 99.121261 
L 93.813223 100.109713 
L 96.887603 101.102683 
L 99.961983 102.106348 
L 103.036364 103.128389 
L 106.110744 104.183882 
L 109.185124 105.317459 
L 112.259504 106.490112 
L 115.333884 107.69432 
L 118.408264 108.902552 
L 121.482645 110.120718 
L 124.557025 111.364806 
L 127.631405 112.624592 
L 130.705785 113.901312 
L 133.780165 115.228515 
L 136.854545 116.598227 
L 139.928926 118.003938 
L 143.003306 119.433284 
L 146.077686 120.875057 
L 149.152066 122.323824 
L 152.226446 123.771984 
L 155.300826 125.21252 
L 158.375207 126.642159 
L 161.449587 128.060426 
L 164.523967 129.462397 
L 167.598347 130.843746 
L 170.672727 132.208141 
L 173.747107 133.571526 
L 176.821488 134.931188 
L 179.895868 136.287812 
L 182.970248 137.63734 
L 186.044628 138.979646 
L 189.119008 140.317479 
L 192.193388 141.652048 
L 195.267769 142.982196 
L 198.342149 144.306729 
L 201.416529 145.622022 
L 204.490909 146.92514 
L 207.565289 148.214069 
L 210.639669 149.495081 
L 213.71405 150.769212 
L 216.78843 152.034837 
L 219.86281 153.288693 
L 222.93719 154.53391 
L 226.01157 155.771515 
L 229.08595 157.004296 
L 232.160331 158.236152 
L 235.234711 159.458252 
L 238.309091 160.667445 
L 241.383471 161.866022 
L 244.457851 163.052716 
L 247.532231 164.229421 
L 250.606612 165.400283 
L 253.680992 166.558605 
L 256.755372 167.716505 
L 259.829752 168.861733 
L 262.904132 169.997306 
L 265.978512 171.123388 
L 269.052893 172.241276 
L 272.127273 173.350984 
L 275.201653 174.453694 
L 278.276033 175.548494 
L 281.350413 176.633586 
L 284.424793 177.709654 
L 287.499174 178.776215 
L 290.573554 179.833015 
L 293.647934 180.881635 
L 296.722314 181.920784 
L 299.796694 182.951017 
L 302.871074 183.972119 
L 305.945455 184.987178 
L 309.019835 185.994538 
L 312.094215 186.994639 
L 315.168595 187.988316 
L 318.242975 188.972054 
L 321.317355 189.948022 
L 324.391736 190.920061 
L 327.466116 191.884212 
L 330.540496 192.8392 
L 333.614876 193.785211 
L 336.689256 194.726556 
L 339.763636 195.659978 
L 342.838017 196.583936 
L 345.912397 197.501651 
L 348.986777 198.410082 
L 352.061157 199.308969 
L 355.135537 200.199292 
L 358.209917 201.083813 
L 361.284298 201.963043 
L 364.358678 202.835166 
L 367.433058 203.701639 
L 370.507438 204.561627 
L 373.581818 205.413021 
L 373.581818 205.413021 
L 373.581818 205.413021 
L 370.507438 204.541808 
L 367.433058 203.662001 
L 364.358678 202.775709 
L 361.284298 201.883767 
L 358.209917 200.984717 
L 355.135537 200.080377 
L 352.061157 199.170235 
L 348.986777 198.251528 
L 345.912397 197.323278 
L 342.838017 196.385744 
L 339.763636 195.441967 
L 336.689256 194.488726 
L 333.614876 193.527561 
L 330.540496 192.561731 
L 327.466116 191.586924 
L 324.391736 190.602954 
L 321.317355 189.611096 
L 318.242975 188.615309 
L 315.168595 187.611751 
L 312.094215 186.598255 
L 309.019835 185.578335 
L 305.945455 184.551155 
L 302.871074 183.516278 
L 299.796694 182.475357 
L 296.722314 181.425304 
L 293.647934 180.366336 
L 290.573554 179.297896 
L 287.499174 178.221277 
L 284.424793 177.134897 
L 281.350413 176.03901 
L 278.276033 174.934099 
L 275.201653 173.819479 
L 272.127273 172.69695 
L 269.052893 171.567424 
L 265.978512 170.429716 
L 262.904132 169.283815 
L 259.829752 168.128422 
L 256.755372 166.963375 
L 253.680992 165.785656 
L 250.606612 164.607515 
L 247.532231 163.416834 
L 244.457851 162.220309 
L 241.383471 161.013797 
L 238.309091 159.7954 
L 235.234711 158.566388 
L 232.160331 157.324469 
L 229.08595 156.072794 
L 226.01157 154.820194 
L 222.93719 153.562769 
L 219.86281 152.297733 
L 216.78843 151.024058 
L 213.71405 149.738613 
L 210.639669 148.444663 
L 207.565289 147.143832 
L 204.490909 145.835084 
L 201.416529 144.512147 
L 198.342149 143.177035 
L 195.267769 141.832682 
L 192.193388 140.482715 
L 189.119008 139.128327 
L 186.044628 137.770675 
L 182.970248 136.40855 
L 179.895868 135.039202 
L 176.821488 133.662759 
L 173.747107 132.283278 
L 170.672727 130.900074 
L 167.598347 129.51586 
L 164.523967 128.114691 
L 161.449587 126.692901 
L 158.375207 125.254815 
L 155.300826 123.805357 
L 152.226446 122.345002 
L 149.152066 120.877023 
L 146.077686 119.408436 
L 143.003306 117.946844 
L 139.928926 116.497679 
L 136.854545 115.072149 
L 133.780165 113.682617 
L 130.705785 112.335595 
L 127.631405 111.039056 
L 124.557025 109.759451 
L 121.482645 108.495543 
L 118.408264 107.257559 
L 115.333884 106.029507 
L 112.259504 104.80548 
L 109.185124 103.613008 
L 106.110744 102.459611 
L 103.036364 101.384299 
L 99.961983 100.342439 
L 96.887603 99.318955 
L 93.813223 98.306165 
L 90.738843 97.297895 
L 87.664463 96.289624 
L 84.590083 95.281353 
L 81.515702 94.273083 
L 78.441322 93.264812 
L 75.366942 92.256541 
L 72.292562 91.248271 
L 69.218182 90.24 
z
" style="fill:#31a354;"/>
   </g>
   <g id="PolyCollection_10">
    <path clip-path="url(#p05bd508f7d)" d="M 69.218182 90.24 
L 69.218182 90.24 
L 72.292562 91.248271 
L 75.366942 92.256541 
L 78.441322 93.264812 
L 81.515702 94.273083 
L 84.590083 95.281353 
L 87.664463 96.289624 
L 90.738843 97.297895 
L 93.813223 98.306165 
L 96.887603 99.318955 
L 99.961983 100.342439 
L 103.036364 101.384299 
L 106.110744 102.459611 
L 109.185124 103.613008 
L 112.259504 104.80548 
L 115.333884 106.029507 
L 118.408264 107.257559 
L 121.482645 108.495543 
L 124.557025 109.759451 
L 127.631405 111.039056 
L 130.705785 112.335595 
L 133.780165 113.682617 
L 136.854545 115.072149 
L 139.928926 116.497679 
L 143.003306 117.946844 
L 146.077686 119.408436 
L 149.152066 120.877023 
L 152.226446 122.345002 
L 155.300826 123.805357 
L 158.375207 125.254815 
L 161.449587 126.692901 
L 164.523967 128.114691 
L 167.598347 129.51586 
L 170.672727 130.900074 
L 173.747107 132.283278 
L 176.821488 133.662759 
L 179.895868 135.039202 
L 182.970248 136.40855 
L 186.044628 137.770675 
L 189.119008 139.128327 
L 192.193388 140.482715 
L 195.267769 141.832682 
L 198.342149 143.177035 
L 201.416529 144.512147 
L 204.490909 145.835084 
L 207.565289 147.143832 
L 210.639669 148.444663 
L 213.71405 149.738613 
L 216.78843 151.024058 
L 219.86281 152.297733 
L 222.93719 153.562769 
L 226.01157 154.820194 
L 229.08595 156.072794 
L 232.160331 157.324469 
L 235.234711 158.566388 
L 238.309091 159.7954 
L 241.383471 161.013797 
L 244.457851 162.220309 
L 247.532231 163.416834 
L 250.606612 164.607515 
L 253.680992 165.785656 
L 256.755372 166.963375 
L 259.829752 168.128422 
L 262.904132 169.283815 
L 265.978512 170.429716 
L 269.052893 171.567424 
L 272.127273 172.69695 
L 275.201653 173.819479 
L 278.276033 174.934099 
L 281.350413 176.03901 
L 284.424793 177.134897 
L 287.499174 178.221277 
L 290.573554 179.297896 
L 293.647934 180.366336 
L 296.722314 181.425304 
L 299.796694 182.475357 
L 302.871074 183.516278 
L 305.945455 184.551155 
L 309.019835 185.578335 
L 312.094215 186.598255 
L 315.168595 187.611751 
L 318.242975 188.615309 
L 321.317355 189.611096 
L 324.391736 190.602954 
L 327.466116 191.586924 
L 330.540496 192.561731 
L 333.614876 193.527561 
L 336.689256 194.488726 
L 339.763636 195.441967 
L 342.838017 196.385744 
L 345.912397 197.323278 
L 348.986777 198.251528 
L 352.061157 199.170235 
L 355.135537 200.080377 
L 358.209917 200.984717 
L 361.284298 201.883767 
L 364.358678 202.775709 
L 367.433058 203.662001 
L 370.507438 204.541808 
L 373.581818 205.413021 
L 373.581818 199.640047 
L 373.581818 199.640047 
L 370.507438 198.810709 
L 367.433058 197.973276 
L 364.358678 197.129888 
L 361.284298 196.281226 
L 358.209917 195.425837 
L 355.135537 194.565688 
L 352.061157 193.700237 
L 348.986777 192.826693 
L 345.912397 191.944164 
L 342.838017 191.052829 
L 339.763636 190.155759 
L 336.689256 189.249719 
L 333.614876 188.336297 
L 330.540496 187.418727 
L 327.466116 186.492696 
L 324.391736 185.558062 
L 321.317355 184.616039 
L 318.242975 183.67059 
L 315.168595 182.718015 
L 312.094215 181.756001 
L 309.019835 180.788098 
L 305.945455 179.813373 
L 302.871074 178.831218 
L 299.796694 177.843343 
L 296.722314 176.846722 
L 293.647934 175.841532 
L 290.573554 174.82711 
L 287.499174 173.804771 
L 284.424793 172.773001 
L 281.350413 171.732224 
L 278.276033 170.682816 
L 275.201653 169.624196 
L 272.127273 168.558196 
L 269.052893 167.485603 
L 265.978512 166.405163 
L 262.904132 165.316802 
L 259.829752 164.219287 
L 256.755372 163.112573 
L 253.680992 161.993418 
L 250.606612 160.874195 
L 247.532231 159.742845 
L 244.457851 158.606038 
L 241.383471 157.459629 
L 238.309091 156.301599 
L 235.234711 155.133231 
L 232.160331 153.952148 
L 229.08595 152.761611 
L 226.01157 151.570502 
L 222.93719 150.37478 
L 219.86281 149.171613 
L 216.78843 147.960027 
L 213.71405 146.736818 
L 210.639669 145.505329 
L 207.565289 144.267125 
L 204.490909 143.021201 
L 201.416529 141.761213 
L 198.342149 140.489148 
L 195.267769 139.20791 
L 192.193388 137.921153 
L 189.119008 136.630132 
L 186.044628 135.335935 
L 182.970248 134.037279 
L 179.895868 132.731429 
L 176.821488 131.418514 
L 173.747107 130.102705 
L 170.672727 128.783295 
L 167.598347 127.462946 
L 164.523967 126.125643 
L 161.449587 124.767746 
L 158.375207 123.393646 
L 155.300826 122.008225 
L 152.226446 120.611951 
L 149.152066 119.208071 
L 146.077686 117.803593 
L 143.003306 116.406109 
L 139.928926 115.02108 
L 136.854545 113.659705 
L 133.780165 112.33434 
L 130.705785 111.051484 
L 127.631405 109.819126 
L 124.557025 108.603728 
L 121.482645 107.404027 
L 118.408264 106.23025 
L 115.333884 105.066404 
L 112.259504 103.906584 
L 109.185124 102.778319 
L 106.110744 101.689129 
L 103.036364 100.678024 
L 99.961983 99.700371 
L 96.887603 98.741094 
L 93.813223 97.792511 
L 90.738843 96.848447 
L 87.664463 95.904383 
L 84.590083 94.960319 
L 81.515702 94.016255 
L 78.441322 93.072192 
L 75.366942 92.128128 
L 72.292562 91.184064 
L 69.218182 90.24 
z
" style="fill:#74c476;"/>
   </g>
   <g id="PolyCollection_11">
    <path clip-path="url(#p05bd508f7d)" d="M 69.218182 90.24 
L 69.218182 90.24 
L 72.292562 91.184064 
L 75.366942 92.128128 
L 78.441322 93.072192 
L 81.515702 94.016255 
L 84.590083 94.960319 
L 87.664463 95.904383 
L 90.738843 96.848447 
L 93.813223 97.792511 
L 96.887603 98.741094 
L 99.961983 99.700371 
L 103.036364 100.678024 
L 106.110744 101.689129 
L 109.185124 102.778319 
L 112.259504 103.906584 
L 115.333884 105.066404 
L 118.408264 106.23025 
L 121.482645 107.404027 
L 124.557025 108.603728 
L 127.631405 109.819126 
L 130.705785 111.051484 
L 133.780165 112.33434 
L 136.854545 113.659705 
L 139.928926 115.02108 
L 143.003306 116.406109 
L 146.077686 117.803593 
L 149.152066 119.208071 
L 152.226446 120.611951 
L 155.300826 122.008225 
L 158.375207 123.393646 
L 161.449587 124.767746 
L 164.523967 126.125643 
L 167.598347 127.462946 
L 170.672727 128.783295 
L 173.747107 130.102705 
L 176.821488 131.418514 
L 179.895868 132.731429 
L 182.970248 134.037279 
L 186.044628 135.335935 
L 189.119008 136.630132 
L 192.193388 137.921153 
L 195.267769 139.20791 
L 198.342149 140.489148 
L 201.416529 141.761213 
L 204.490909 143.021201 
L 207.565289 144.267125 
L 210.639669 145.505329 
L 213.71405 146.736818 
L 216.78843 147.960027 
L 219.86281 149.171613 
L 222.93719 150.37478 
L 226.01157 151.570502 
L 229.08595 152.761611 
L 232.160331 153.952148 
L 235.234711 155.133231 
L 238.309091 156.301599 
L 241.383471 157.459629 
L 244.457851 158.606038 
L 247.532231 159.742845 
L 250.606612 160.874195 
L 253.680992 161.993418 
L 256.755372 163.112573 
L 259.829752 164.219287 
L 262.904132 165.316802 
L 265.978512 166.405163 
L 269.052893 167.485603 
L 272.127273 168.558196 
L 275.201653 169.624196 
L 278.276033 170.682816 
L 281.350413 171.732224 
L 284.424793 172.773001 
L 287.499174 173.804771 
L 290.573554 174.82711 
L 293.647934 175.841532 
L 296.722314 176.846722 
L 299.796694 177.843343 
L 302.871074 178.831218 
L 305.945455 179.813373 
L 309.019835 180.788098 
L 312.094215 181.756001 
L 315.168595 182.718015 
L 318.242975 183.67059 
L 321.317355 184.616039 
L 324.391736 185.558062 
L 327.466116 186.492696 
L 330.540496 187.418727 
L 333.614876 188.336297 
L 336.689256 189.249719 
L 339.763636 190.155759 
L 342.838017 191.052829 
L 345.912397 191.944164 
L 348.986777 192.826693 
L 352.061157 193.700237 
L 355.135537 194.565688 
L 358.209917 195.425837 
L 361.284298 196.281226 
L 364.358678 197.129888 
L 367.433058 197.973276 
L 370.507438 198.810709 
L 373.581818 199.640047 
L 373.581818 193.138233 
L 373.581818 193.138233 
L 370.507438 192.374357 
L 367.433058 191.602424 
L 364.358678 190.824572 
L 361.284298 190.041447 
L 358.209917 189.251593 
L 355.135537 188.456981 
L 352.061157 187.657101 
L 348.986777 186.849158 
L 345.912397 186.03223 
L 342.838017 185.206496 
L 339.763636 184.375027 
L 336.689256 183.534588 
L 333.614876 182.686767 
L 330.540496 181.834864 
L 327.466116 180.974504 
L 324.391736 180.105543 
L 321.317355 179.229206 
L 318.242975 178.34945 
L 315.168595 177.462568 
L 312.094215 176.566247 
L 309.019835 175.664038 
L 305.945455 174.755006 
L 302.871074 173.838543 
L 299.796694 172.916361 
L 296.722314 171.985434 
L 293.647934 171.045937 
L 290.573554 170.097208 
L 287.499174 169.140562 
L 284.424793 168.174485 
L 281.350413 167.199401 
L 278.276033 166.215686 
L 275.201653 165.22276 
L 272.127273 164.222453 
L 269.052893 163.215552 
L 265.978512 162.200806 
L 262.904132 161.178137 
L 259.829752 160.146316 
L 256.755372 159.105295 
L 253.680992 158.051833 
L 250.606612 156.998303 
L 247.532231 155.932646 
L 244.457851 154.861532 
L 241.383471 153.780816 
L 238.309091 152.68848 
L 235.234711 151.585804 
L 232.160331 150.470415 
L 229.08595 149.34557 
L 226.01157 148.220154 
L 222.93719 147.090125 
L 219.86281 145.952652 
L 216.78843 144.806759 
L 213.71405 143.649243 
L 210.639669 142.483447 
L 207.565289 141.310936 
L 204.490909 140.130706 
L 201.416529 138.93641 
L 198.342149 137.730038 
L 195.267769 136.514493 
L 192.193388 135.293429 
L 189.119008 134.068102 
L 186.044628 132.839598 
L 182.970248 131.606635 
L 179.895868 130.366478 
L 176.821488 129.119256 
L 173.747107 127.86914 
L 170.672727 126.615423 
L 167.598347 125.360767 
L 164.523967 124.089157 
L 161.449587 122.796954 
L 158.375207 121.488547 
L 155.300826 120.168818 
L 152.226446 118.838237 
L 149.152066 117.500051 
L 146.077686 116.161266 
L 143.003306 114.829475 
L 139.928926 113.510139 
L 136.854545 112.214458 
L 133.780165 110.954785 
L 130.705785 109.737622 
L 127.631405 108.570958 
L 124.557025 107.421252 
L 121.482645 106.287245 
L 118.408264 105.17916 
L 115.333884 104.081008 
L 112.259504 102.986881 
L 109.185124 101.924309 
L 106.110744 100.900812 
L 103.036364 99.9554 
L 99.961983 99.04344 
L 96.887603 98.149856 
L 93.813223 97.266966 
L 90.738843 96.388595 
L 87.664463 95.510225 
L 84.590083 94.631854 
L 81.515702 93.753483 
L 78.441322 92.875112 
L 75.366942 91.996742 
L 72.292562 91.118371 
L 69.218182 90.24 
z
" style="fill:#a1d99b;"/>
   </g>
   <g id="matplotlib.axis_1">
    <g id="xtick_1">
     <g id="line2d_1">
      <defs>
       <path d="M 0 0 
L 0 3.5 
" id="mfff94f56d3" style="stroke:#000000;stroke-width:0.8;"/>
      </defs>
      <g>
       <use style="stroke:#000000;stroke-width:0.8;" x="69.218182" xlink:href="#mfff94f56d3" y="512.64"/>
      </g>
     </g>
     <g id="text_1">
      <!-- 0 -->
      <g transform="translate(66.036932 527.238438)scale(0.1 -0.1)">
       <defs>
        <path d="M 2034 4250 
Q 1547 4250 1301 3770 
Q 1056 3291 1056 2328 
Q 1056 1369 1301 889 
Q 1547 409 2034 409 
Q 2525 409 2770 889 
Q 3016 1369 3016 2328 
Q 3016 3291 2770 3770 
Q 2525 4250 2034 4250 
z
M 2034 4750 
Q 2819 4750 3233 4129 
Q 3647 3509 3647 2328 
Q 3647 1150 3233 529 
Q 2819 -91 2034 -91 
Q 1250 -91 836 529 
Q 422 1150 422 2328 
Q 422 3509 836 4129 
Q 1250 4750 2034 4750 
z
" id="DejaVuSans-30" transform="scale(0.015625)"/>
       </defs>
       <use xlink:href="#DejaVuSans-30"/>
      </g>
     </g>
    </g>
    <g id="xtick_2">
     <g id="line2d_2">
      <g>
       <use style="stroke:#000000;stroke-width:0.8;" x="130.090909" xlink:href="#mfff94f56d3" y="512.64"/>
      </g>
     </g>
     <g id="text_2">
      <!-- 20 -->
      <g transform="translate(123.728409 527.238438)scale(0.1 -0.1)">
       <defs>
        <path d="M 1228 531 
L 3431 531 
L 3431 0 
L 469 0 
L 469 531 
Q 828 903 1448 1529 
Q 2069 2156 2228 2338 
Q 2531 2678 2651 2914 
Q 2772 3150 2772 3378 
Q 2772 3750 2511 3984 
Q 2250 4219 1831 4219 
Q 1534 4219 1204 4116 
Q 875 4013 500 3803 
L 500 4441 
Q 881 4594 1212 4672 
Q 1544 4750 1819 4750 
Q 2544 4750 2975 4387 
Q 3406 4025 3406 3419 
Q 3406 3131 3298 2873 
Q 3191 2616 2906 2266 
Q 2828 2175 2409 1742 
Q 1991 1309 1228 531 
z
" id="DejaVuSans-32" transform="scale(0.015625)"/>
       </defs>
       <use xlink:href="#DejaVuSans-32"/>
       <use x="63.623047" xlink:href="#DejaVuSans-30"/>
      </g>
     </g>
    </g>
    <g id="xtick_3">
     <g id="line2d_3">
      <g>
       <use style="stroke:#000000;stroke-width:0.8;" x="190.963636" xlink:href="#mfff94f56d3" y="512.64"/>
      </g>
     </g>
     <g id="text_3">
      <!-- 40 -->
      <g transform="translate(184.601136 527.238438)scale(0.1 -0.1)">
       <defs>
        <path d="M 2419 4116 
L 825 1625 
L 2419 1625 
L 2419 4116 
z
M 2253 4666 
L 3047 4666 
L 3047 1625 
L 3713 1625 
L 3713 1100 
L 3047 1100 
L 3047 0 
L 2419 0 
L 2419 1100 
L 313 1100 
L 313 1709 
L 2253 4666 
z
" id="DejaVuSans-34" transform="scale(0.015625)"/>
       </defs>
       <use xlink:href="#DejaVuSans-34"/>
       <use x="63.623047" xlink:href="#DejaVuSans-30"/>
      </g>
     </g>
    </g>
    <g id="xtick_4">
     <g id="line2d_4">
      <g>
       <use style="stroke:#000000;stroke-width:0.8;" x="251.836364" xlink:href="#mfff94f56d3" y="512.64"/>
      </g>
     </g>
     <g id="text_4">
      <!-- 60 -->
      <g transform="translate(245.473864 527.238438)scale(0.1 -0.1)">
       <defs>
        <path d="M 2113 2584 
Q 1688 2584 1439 2293 
Q 1191 2003 1191 1497 
Q 1191 994 1439 701 
Q 1688 409 2113 409 
Q 2538 409 2786 701 
Q 3034 994 3034 1497 
Q 3034 2003 2786 2293 
Q 2538 2584 2113 2584 
z
M 3366 4563 
L 3366 3988 
Q 3128 4100 2886 4159 
Q 2644 4219 2406 4219 
Q 1781 4219 1451 3797 
Q 1122 3375 1075 2522 
Q 1259 2794 1537 2939 
Q 1816 3084 2150 3084 
Q 2853 3084 3261 2657 
Q 3669 2231 3669 1497 
Q 3669 778 3244 343 
Q 2819 -91 2113 -91 
Q 1303 -91 875 529 
Q 447 1150 447 2328 
Q 447 3434 972 4092 
Q 1497 4750 2381 4750 
Q 2619 4750 2861 4703 
Q 3103 4656 3366 4563 
z
" id="DejaVuSans-36" transform="scale(0.015625)"/>
       </defs>
       <use xlink:href="#DejaVuSans-36"/>
       <use x="63.623047" xlink:href="#DejaVuSans-30"/>
      </g>
     </g>
    </g>
    <g id="xtick_5">
     <g id="line2d_5">
      <g>
       <use style="stroke:#000000;stroke-width:0.8;" x="312.709091" xlink:href="#mfff94f56d3" y="512.64"/>
      </g>
     </g>
     <g id="text_5">
      <!-- 80 -->
      <g transform="translate(306.346591 527.238438)scale(0.1 -0.1)">
       <defs>
        <path d="M 2034 2216 
Q 1584 2216 1326 1975 
Q 1069 1734 1069 1313 
Q 1069 891 1326 650 
Q 1584 409 2034 409 
Q 2484 409 2743 651 
Q 3003 894 3003 1313 
Q 3003 1734 2745 1975 
Q 2488 2216 2034 2216 
z
M 1403 2484 
Q 997 2584 770 2862 
Q 544 3141 544 3541 
Q 544 4100 942 4425 
Q 1341 4750 2034 4750 
Q 2731 4750 3128 4425 
Q 3525 4100 3525 3541 
Q 3525 3141 3298 2862 
Q 3072 2584 2669 2484 
Q 3125 2378 3379 2068 
Q 3634 1759 3634 1313 
Q 3634 634 3220 271 
Q 2806 -91 2034 -91 
Q 1263 -91 848 271 
Q 434 634 434 1313 
Q 434 1759 690 2068 
Q 947 2378 1403 2484 
z
M 1172 3481 
Q 1172 3119 1398 2916 
Q 1625 2713 2034 2713 
Q 2441 2713 2670 2916 
Q 2900 3119 2900 3481 
Q 2900 3844 2670 4047 
Q 2441 4250 2034 4250 
Q 1625 4250 1398 4047 
Q 1172 3844 1172 3481 
z
" id="DejaVuSans-38" transform="scale(0.015625)"/>
       </defs>
       <use xlink:href="#DejaVuSans-38"/>
       <use x="63.623047" xlink:href="#DejaVuSans-30"/>
      </g>
     </g>
    </g>
    <g id="xtick_6">
     <g id="line2d_6">
      <g>
       <use style="stroke:#000000;stroke-width:0.8;" x="373.581818" xlink:href="#mfff94f56d3" y="512.64"/>
      </g>
     </g>
     <g id="text_6">
      <!-- 100 -->
      <g transform="translate(364.038068 527.238438)scale(0.1 -0.1)">
       <defs>
        <path d="M 794 531 
L 1825 531 
L 1825 4091 
L 703 3866 
L 703 4441 
L 1819 4666 
L 2450 4666 
L 2450 531 
L 3481 531 
L 3481 0 
L 794 0 
L 794 531 
z
" id="DejaVuSans-31" transform="scale(0.015625)"/>
       </defs>
       <use xlink:href="#DejaVuSans-31"/>
       <use x="63.623047" xlink:href="#DejaVuSans-30"/>
       <use x="127.246094" xlink:href="#DejaVuSans-30"/>
      </g>
     </g>
    </g>
    <g id="text_7">
     <!-- Proportion of New Technology in Grid (%) -->
     <g transform="translate(118.632031 540.916563)scale(0.1 -0.1)">
      <defs>
       <path d="M 1259 4147 
L 1259 2394 
L 2053 2394 
Q 2494 2394 2734 2622 
Q 2975 2850 2975 3272 
Q 2975 3691 2734 3919 
Q 2494 4147 2053 4147 
L 1259 4147 
z
M 628 4666 
L 2053 4666 
Q 2838 4666 3239 4311 
Q 3641 3956 3641 3272 
Q 3641 2581 3239 2228 
Q 2838 1875 2053 1875 
L 1259 1875 
L 1259 0 
L 628 0 
L 628 4666 
z
" id="DejaVuSans-50" transform="scale(0.015625)"/>
       <path d="M 2631 2963 
Q 2534 3019 2420 3045 
Q 2306 3072 2169 3072 
Q 1681 3072 1420 2755 
Q 1159 2438 1159 1844 
L 1159 0 
L 581 0 
L 581 3500 
L 1159 3500 
L 1159 2956 
Q 1341 3275 1631 3429 
Q 1922 3584 2338 3584 
Q 2397 3584 2469 3576 
Q 2541 3569 2628 3553 
L 2631 2963 
z
" id="DejaVuSans-72" transform="scale(0.015625)"/>
       <path d="M 1959 3097 
Q 1497 3097 1228 2736 
Q 959 2375 959 1747 
Q 959 1119 1226 758 
Q 1494 397 1959 397 
Q 2419 397 2687 759 
Q 2956 1122 2956 1747 
Q 2956 2369 2687 2733 
Q 2419 3097 1959 3097 
z
M 1959 3584 
Q 2709 3584 3137 3096 
Q 3566 2609 3566 1747 
Q 3566 888 3137 398 
Q 2709 -91 1959 -91 
Q 1206 -91 779 398 
Q 353 888 353 1747 
Q 353 2609 779 3096 
Q 1206 3584 1959 3584 
z
" id="DejaVuSans-6f" transform="scale(0.015625)"/>
       <path d="M 1159 525 
L 1159 -1331 
L 581 -1331 
L 581 3500 
L 1159 3500 
L 1159 2969 
Q 1341 3281 1617 3432 
Q 1894 3584 2278 3584 
Q 2916 3584 3314 3078 
Q 3713 2572 3713 1747 
Q 3713 922 3314 415 
Q 2916 -91 2278 -91 
Q 1894 -91 1617 61 
Q 1341 213 1159 525 
z
M 3116 1747 
Q 3116 2381 2855 2742 
Q 2594 3103 2138 3103 
Q 1681 3103 1420 2742 
Q 1159 2381 1159 1747 
Q 1159 1113 1420 752 
Q 1681 391 2138 391 
Q 2594 391 2855 752 
Q 3116 1113 3116 1747 
z
" id="DejaVuSans-70" transform="scale(0.015625)"/>
       <path d="M 1172 4494 
L 1172 3500 
L 2356 3500 
L 2356 3053 
L 1172 3053 
L 1172 1153 
Q 1172 725 1289 603 
Q 1406 481 1766 481 
L 2356 481 
L 2356 0 
L 1766 0 
Q 1100 0 847 248 
Q 594 497 594 1153 
L 594 3053 
L 172 3053 
L 172 3500 
L 594 3500 
L 594 4494 
L 1172 4494 
z
" id="DejaVuSans-74" transform="scale(0.015625)"/>
       <path d="M 603 3500 
L 1178 3500 
L 1178 0 
L 603 0 
L 603 3500 
z
M 603 4863 
L 1178 4863 
L 1178 4134 
L 603 4134 
L 603 4863 
z
" id="DejaVuSans-69" transform="scale(0.015625)"/>
       <path d="M 3513 2113 
L 3513 0 
L 2938 0 
L 2938 2094 
Q 2938 2591 2744 2837 
Q 2550 3084 2163 3084 
Q 1697 3084 1428 2787 
Q 1159 2491 1159 1978 
L 1159 0 
L 581 0 
L 581 3500 
L 1159 3500 
L 1159 2956 
Q 1366 3272 1645 3428 
Q 1925 3584 2291 3584 
Q 2894 3584 3203 3211 
Q 3513 2838 3513 2113 
z
" id="DejaVuSans-6e" transform="scale(0.015625)"/>
       <path id="DejaVuSans-20" transform="scale(0.015625)"/>
       <path d="M 2375 4863 
L 2375 4384 
L 1825 4384 
Q 1516 4384 1395 4259 
Q 1275 4134 1275 3809 
L 1275 3500 
L 2222 3500 
L 2222 3053 
L 1275 3053 
L 1275 0 
L 697 0 
L 697 3053 
L 147 3053 
L 147 3500 
L 697 3500 
L 697 3744 
Q 697 4328 969 4595 
Q 1241 4863 1831 4863 
L 2375 4863 
z
" id="DejaVuSans-66" transform="scale(0.015625)"/>
       <path d="M 628 4666 
L 1478 4666 
L 3547 763 
L 3547 4666 
L 4159 4666 
L 4159 0 
L 3309 0 
L 1241 3903 
L 1241 0 
L 628 0 
L 628 4666 
z
" id="DejaVuSans-4e" transform="scale(0.015625)"/>
       <path d="M 3597 1894 
L 3597 1613 
L 953 1613 
Q 991 1019 1311 708 
Q 1631 397 2203 397 
Q 2534 397 2845 478 
Q 3156 559 3463 722 
L 3463 178 
Q 3153 47 2828 -22 
Q 2503 -91 2169 -91 
Q 1331 -91 842 396 
Q 353 884 353 1716 
Q 353 2575 817 3079 
Q 1281 3584 2069 3584 
Q 2775 3584 3186 3129 
Q 3597 2675 3597 1894 
z
M 3022 2063 
Q 3016 2534 2758 2815 
Q 2500 3097 2075 3097 
Q 1594 3097 1305 2825 
Q 1016 2553 972 2059 
L 3022 2063 
z
" id="DejaVuSans-65" transform="scale(0.015625)"/>
       <path d="M 269 3500 
L 844 3500 
L 1563 769 
L 2278 3500 
L 2956 3500 
L 3675 769 
L 4391 3500 
L 4966 3500 
L 4050 0 
L 3372 0 
L 2619 2869 
L 1863 0 
L 1184 0 
L 269 3500 
z
" id="DejaVuSans-77" transform="scale(0.015625)"/>
       <path d="M -19 4666 
L 3928 4666 
L 3928 4134 
L 2272 4134 
L 2272 0 
L 1638 0 
L 1638 4134 
L -19 4134 
L -19 4666 
z
" id="DejaVuSans-54" transform="scale(0.015625)"/>
       <path d="M 3122 3366 
L 3122 2828 
Q 2878 2963 2633 3030 
Q 2388 3097 2138 3097 
Q 1578 3097 1268 2742 
Q 959 2388 959 1747 
Q 959 1106 1268 751 
Q 1578 397 2138 397 
Q 2388 397 2633 464 
Q 2878 531 3122 666 
L 3122 134 
Q 2881 22 2623 -34 
Q 2366 -91 2075 -91 
Q 1284 -91 818 406 
Q 353 903 353 1747 
Q 353 2603 823 3093 
Q 1294 3584 2113 3584 
Q 2378 3584 2631 3529 
Q 2884 3475 3122 3366 
z
" id="DejaVuSans-63" transform="scale(0.015625)"/>
       <path d="M 3513 2113 
L 3513 0 
L 2938 0 
L 2938 2094 
Q 2938 2591 2744 2837 
Q 2550 3084 2163 3084 
Q 1697 3084 1428 2787 
Q 1159 2491 1159 1978 
L 1159 0 
L 581 0 
L 581 4863 
L 1159 4863 
L 1159 2956 
Q 1366 3272 1645 3428 
Q 1925 3584 2291 3584 
Q 2894 3584 3203 3211 
Q 3513 2838 3513 2113 
z
" id="DejaVuSans-68" transform="scale(0.015625)"/>
       <path d="M 603 4863 
L 1178 4863 
L 1178 0 
L 603 0 
L 603 4863 
z
" id="DejaVuSans-6c" transform="scale(0.015625)"/>
       <path d="M 2906 1791 
Q 2906 2416 2648 2759 
Q 2391 3103 1925 3103 
Q 1463 3103 1205 2759 
Q 947 2416 947 1791 
Q 947 1169 1205 825 
Q 1463 481 1925 481 
Q 2391 481 2648 825 
Q 2906 1169 2906 1791 
z
M 3481 434 
Q 3481 -459 3084 -895 
Q 2688 -1331 1869 -1331 
Q 1566 -1331 1297 -1286 
Q 1028 -1241 775 -1147 
L 775 -588 
Q 1028 -725 1275 -790 
Q 1522 -856 1778 -856 
Q 2344 -856 2625 -561 
Q 2906 -266 2906 331 
L 2906 616 
Q 2728 306 2450 153 
Q 2172 0 1784 0 
Q 1141 0 747 490 
Q 353 981 353 1791 
Q 353 2603 747 3093 
Q 1141 3584 1784 3584 
Q 2172 3584 2450 3431 
Q 2728 3278 2906 2969 
L 2906 3500 
L 3481 3500 
L 3481 434 
z
" id="DejaVuSans-67" transform="scale(0.015625)"/>
       <path d="M 2059 -325 
Q 1816 -950 1584 -1140 
Q 1353 -1331 966 -1331 
L 506 -1331 
L 506 -850 
L 844 -850 
Q 1081 -850 1212 -737 
Q 1344 -625 1503 -206 
L 1606 56 
L 191 3500 
L 800 3500 
L 1894 763 
L 2988 3500 
L 3597 3500 
L 2059 -325 
z
" id="DejaVuSans-79" transform="scale(0.015625)"/>
       <path d="M 3809 666 
L 3809 1919 
L 2778 1919 
L 2778 2438 
L 4434 2438 
L 4434 434 
Q 4069 175 3628 42 
Q 3188 -91 2688 -91 
Q 1594 -91 976 548 
Q 359 1188 359 2328 
Q 359 3472 976 4111 
Q 1594 4750 2688 4750 
Q 3144 4750 3555 4637 
Q 3966 4525 4313 4306 
L 4313 3634 
Q 3963 3931 3569 4081 
Q 3175 4231 2741 4231 
Q 1884 4231 1454 3753 
Q 1025 3275 1025 2328 
Q 1025 1384 1454 906 
Q 1884 428 2741 428 
Q 3075 428 3337 486 
Q 3600 544 3809 666 
z
" id="DejaVuSans-47" transform="scale(0.015625)"/>
       <path d="M 2906 2969 
L 2906 4863 
L 3481 4863 
L 3481 0 
L 2906 0 
L 2906 525 
Q 2725 213 2448 61 
Q 2172 -91 1784 -91 
Q 1150 -91 751 415 
Q 353 922 353 1747 
Q 353 2572 751 3078 
Q 1150 3584 1784 3584 
Q 2172 3584 2448 3432 
Q 2725 3281 2906 2969 
z
M 947 1747 
Q 947 1113 1208 752 
Q 1469 391 1925 391 
Q 2381 391 2643 752 
Q 2906 1113 2906 1747 
Q 2906 2381 2643 2742 
Q 2381 3103 1925 3103 
Q 1469 3103 1208 2742 
Q 947 2381 947 1747 
z
" id="DejaVuSans-64" transform="scale(0.015625)"/>
       <path d="M 1984 4856 
Q 1566 4138 1362 3434 
Q 1159 2731 1159 2009 
Q 1159 1288 1364 580 
Q 1569 -128 1984 -844 
L 1484 -844 
Q 1016 -109 783 600 
Q 550 1309 550 2009 
Q 550 2706 781 3412 
Q 1013 4119 1484 4856 
L 1984 4856 
z
" id="DejaVuSans-28" transform="scale(0.015625)"/>
       <path d="M 4653 2053 
Q 4381 2053 4226 1822 
Q 4072 1591 4072 1178 
Q 4072 772 4226 539 
Q 4381 306 4653 306 
Q 4919 306 5073 539 
Q 5228 772 5228 1178 
Q 5228 1588 5073 1820 
Q 4919 2053 4653 2053 
z
M 4653 2450 
Q 5147 2450 5437 2106 
Q 5728 1763 5728 1178 
Q 5728 594 5436 251 
Q 5144 -91 4653 -91 
Q 4153 -91 3862 251 
Q 3572 594 3572 1178 
Q 3572 1766 3864 2108 
Q 4156 2450 4653 2450 
z
M 1428 4353 
Q 1159 4353 1004 4120 
Q 850 3888 850 3481 
Q 850 3069 1003 2837 
Q 1156 2606 1428 2606 
Q 1700 2606 1854 2837 
Q 2009 3069 2009 3481 
Q 2009 3884 1853 4118 
Q 1697 4353 1428 4353 
z
M 4250 4750 
L 4750 4750 
L 1831 -91 
L 1331 -91 
L 4250 4750 
z
M 1428 4750 
Q 1922 4750 2215 4408 
Q 2509 4066 2509 3481 
Q 2509 2891 2217 2550 
Q 1925 2209 1428 2209 
Q 931 2209 642 2551 
Q 353 2894 353 3481 
Q 353 4063 643 4406 
Q 934 4750 1428 4750 
z
" id="DejaVuSans-25" transform="scale(0.015625)"/>
       <path d="M 513 4856 
L 1013 4856 
Q 1481 4119 1714 3412 
Q 1947 2706 1947 2009 
Q 1947 1309 1714 600 
Q 1481 -109 1013 -844 
L 513 -844 
Q 928 -128 1133 580 
Q 1338 1288 1338 2009 
Q 1338 2731 1133 3434 
Q 928 4138 513 4856 
z
" id="DejaVuSans-29" transform="scale(0.015625)"/>
      </defs>
      <use xlink:href="#DejaVuSans-50"/>
      <use x="58.552734" xlink:href="#DejaVuSans-72"/>
      <use x="97.416016" xlink:href="#DejaVuSans-6f"/>
      <use x="158.597656" xlink:href="#DejaVuSans-70"/>
      <use x="222.074219" xlink:href="#DejaVuSans-6f"/>
      <use x="283.255859" xlink:href="#DejaVuSans-72"/>
      <use x="324.369141" xlink:href="#DejaVuSans-74"/>
      <use x="363.578125" xlink:href="#DejaVuSans-69"/>
      <use x="391.361328" xlink:href="#DejaVuSans-6f"/>
      <use x="452.542969" xlink:href="#DejaVuSans-6e"/>
      <use x="515.921875" xlink:href="#DejaVuSans-20"/>
      <use x="547.708984" xlink:href="#DejaVuSans-6f"/>
      <use x="608.890625" xlink:href="#DejaVuSans-66"/>
      <use x="644.095703" xlink:href="#DejaVuSans-20"/>
      <use x="675.882812" xlink:href="#DejaVuSans-4e"/>
      <use x="750.6875" xlink:href="#DejaVuSans-65"/>
      <use x="812.210938" xlink:href="#DejaVuSans-77"/>
      <use x="893.998047" xlink:href="#DejaVuSans-20"/>
      <use x="925.785156" xlink:href="#DejaVuSans-54"/>
      <use x="969.869141" xlink:href="#DejaVuSans-65"/>
      <use x="1031.392578" xlink:href="#DejaVuSans-63"/>
      <use x="1086.373047" xlink:href="#DejaVuSans-68"/>
      <use x="1149.751953" xlink:href="#DejaVuSans-6e"/>
      <use x="1213.130859" xlink:href="#DejaVuSans-6f"/>
      <use x="1274.3125" xlink:href="#DejaVuSans-6c"/>
      <use x="1302.095703" xlink:href="#DejaVuSans-6f"/>
      <use x="1363.277344" xlink:href="#DejaVuSans-67"/>
      <use x="1426.753906" xlink:href="#DejaVuSans-79"/>
      <use x="1485.933594" xlink:href="#DejaVuSans-20"/>
      <use x="1517.720703" xlink:href="#DejaVuSans-69"/>
      <use x="1545.503906" xlink:href="#DejaVuSans-6e"/>
      <use x="1608.882812" xlink:href="#DejaVuSans-20"/>
      <use x="1640.669922" xlink:href="#DejaVuSans-47"/>
      <use x="1718.160156" xlink:href="#DejaVuSans-72"/>
      <use x="1759.273438" xlink:href="#DejaVuSans-69"/>
      <use x="1787.056641" xlink:href="#DejaVuSans-64"/>
      <use x="1850.533203" xlink:href="#DejaVuSans-20"/>
      <use x="1882.320312" xlink:href="#DejaVuSans-28"/>
      <use x="1921.333984" xlink:href="#DejaVuSans-25"/>
      <use x="2016.353516" xlink:href="#DejaVuSans-29"/>
     </g>
    </g>
   </g>
   <g id="matplotlib.axis_2">
    <g id="ytick_1">
     <g id="line2d_7">
      <defs>
       <path d="M 0 0 
L -3.5 0 
" id="mf10f993f69" style="stroke:#000000;stroke-width:0.8;"/>
      </defs>
      <g>
       <use style="stroke:#000000;stroke-width:0.8;" x="54" xlink:href="#mf10f993f69" y="512.64"/>
      </g>
     </g>
     <g id="text_8">
      <!-- 0 -->
      <g transform="translate(40.6375 516.439219)scale(0.1 -0.1)">
       <use xlink:href="#DejaVuSans-30"/>
      </g>
     </g>
    </g>
    <g id="ytick_2">
     <g id="line2d_8">
      <g>
       <use style="stroke:#000000;stroke-width:0.8;" x="54" xlink:href="#mf10f993f69" y="422.249316"/>
      </g>
     </g>
     <g id="text_9">
      <!-- 20 -->
      <g transform="translate(34.275 426.048535)scale(0.1 -0.1)">
       <use xlink:href="#DejaVuSans-32"/>
       <use x="63.623047" xlink:href="#DejaVuSans-30"/>
      </g>
     </g>
    </g>
    <g id="ytick_3">
     <g id="line2d_9">
      <g>
       <use style="stroke:#000000;stroke-width:0.8;" x="54" xlink:href="#mf10f993f69" y="331.858633"/>
      </g>
     </g>
     <g id="text_10">
      <!-- 40 -->
      <g transform="translate(34.275 335.657851)scale(0.1 -0.1)">
       <use xlink:href="#DejaVuSans-34"/>
       <use x="63.623047" xlink:href="#DejaVuSans-30"/>
      </g>
     </g>
    </g>
    <g id="ytick_4">
     <g id="line2d_10">
      <g>
       <use style="stroke:#000000;stroke-width:0.8;" x="54" xlink:href="#mf10f993f69" y="241.467949"/>
      </g>
     </g>
     <g id="text_11">
      <!-- 60 -->
      <g transform="translate(34.275 245.267168)scale(0.1 -0.1)">
       <use xlink:href="#DejaVuSans-36"/>
       <use x="63.623047" xlink:href="#DejaVuSans-30"/>
      </g>
     </g>
    </g>
    <g id="ytick_5">
     <g id="line2d_11">
      <g>
       <use style="stroke:#000000;stroke-width:0.8;" x="54" xlink:href="#mf10f993f69" y="151.077265"/>
      </g>
     </g>
     <g id="text_12">
      <!-- 80 -->
      <g transform="translate(34.275 154.876484)scale(0.1 -0.1)">
       <use xlink:href="#DejaVuSans-38"/>
       <use x="63.623047" xlink:href="#DejaVuSans-30"/>
      </g>
     </g>
    </g>
    <g id="text_13">
     <!-- Carbon Equivalent Emissions (Mt) -->
     <g transform="translate(28.195312 375.195625)rotate(-90)scale(0.1 -0.1)">
      <defs>
       <path d="M 4122 4306 
L 4122 3641 
Q 3803 3938 3442 4084 
Q 3081 4231 2675 4231 
Q 1875 4231 1450 3742 
Q 1025 3253 1025 2328 
Q 1025 1406 1450 917 
Q 1875 428 2675 428 
Q 3081 428 3442 575 
Q 3803 722 4122 1019 
L 4122 359 
Q 3791 134 3420 21 
Q 3050 -91 2638 -91 
Q 1578 -91 968 557 
Q 359 1206 359 2328 
Q 359 3453 968 4101 
Q 1578 4750 2638 4750 
Q 3056 4750 3426 4639 
Q 3797 4528 4122 4306 
z
" id="DejaVuSans-43" transform="scale(0.015625)"/>
       <path d="M 2194 1759 
Q 1497 1759 1228 1600 
Q 959 1441 959 1056 
Q 959 750 1161 570 
Q 1363 391 1709 391 
Q 2188 391 2477 730 
Q 2766 1069 2766 1631 
L 2766 1759 
L 2194 1759 
z
M 3341 1997 
L 3341 0 
L 2766 0 
L 2766 531 
Q 2569 213 2275 61 
Q 1981 -91 1556 -91 
Q 1019 -91 701 211 
Q 384 513 384 1019 
Q 384 1609 779 1909 
Q 1175 2209 1959 2209 
L 2766 2209 
L 2766 2266 
Q 2766 2663 2505 2880 
Q 2244 3097 1772 3097 
Q 1472 3097 1187 3025 
Q 903 2953 641 2809 
L 641 3341 
Q 956 3463 1253 3523 
Q 1550 3584 1831 3584 
Q 2591 3584 2966 3190 
Q 3341 2797 3341 1997 
z
" id="DejaVuSans-61" transform="scale(0.015625)"/>
       <path d="M 3116 1747 
Q 3116 2381 2855 2742 
Q 2594 3103 2138 3103 
Q 1681 3103 1420 2742 
Q 1159 2381 1159 1747 
Q 1159 1113 1420 752 
Q 1681 391 2138 391 
Q 2594 391 2855 752 
Q 3116 1113 3116 1747 
z
M 1159 2969 
Q 1341 3281 1617 3432 
Q 1894 3584 2278 3584 
Q 2916 3584 3314 3078 
Q 3713 2572 3713 1747 
Q 3713 922 3314 415 
Q 2916 -91 2278 -91 
Q 1894 -91 1617 61 
Q 1341 213 1159 525 
L 1159 0 
L 581 0 
L 581 4863 
L 1159 4863 
L 1159 2969 
z
" id="DejaVuSans-62" transform="scale(0.015625)"/>
       <path d="M 628 4666 
L 3578 4666 
L 3578 4134 
L 1259 4134 
L 1259 2753 
L 3481 2753 
L 3481 2222 
L 1259 2222 
L 1259 531 
L 3634 531 
L 3634 0 
L 628 0 
L 628 4666 
z
" id="DejaVuSans-45" transform="scale(0.015625)"/>
       <path d="M 947 1747 
Q 947 1113 1208 752 
Q 1469 391 1925 391 
Q 2381 391 2643 752 
Q 2906 1113 2906 1747 
Q 2906 2381 2643 2742 
Q 2381 3103 1925 3103 
Q 1469 3103 1208 2742 
Q 947 2381 947 1747 
z
M 2906 525 
Q 2725 213 2448 61 
Q 2172 -91 1784 -91 
Q 1150 -91 751 415 
Q 353 922 353 1747 
Q 353 2572 751 3078 
Q 1150 3584 1784 3584 
Q 2172 3584 2448 3432 
Q 2725 3281 2906 2969 
L 2906 3500 
L 3481 3500 
L 3481 -1331 
L 2906 -1331 
L 2906 525 
z
" id="DejaVuSans-71" transform="scale(0.015625)"/>
       <path d="M 544 1381 
L 544 3500 
L 1119 3500 
L 1119 1403 
Q 1119 906 1312 657 
Q 1506 409 1894 409 
Q 2359 409 2629 706 
Q 2900 1003 2900 1516 
L 2900 3500 
L 3475 3500 
L 3475 0 
L 2900 0 
L 2900 538 
Q 2691 219 2414 64 
Q 2138 -91 1772 -91 
Q 1169 -91 856 284 
Q 544 659 544 1381 
z
M 1991 3584 
L 1991 3584 
z
" id="DejaVuSans-75" transform="scale(0.015625)"/>
       <path d="M 191 3500 
L 800 3500 
L 1894 563 
L 2988 3500 
L 3597 3500 
L 2284 0 
L 1503 0 
L 191 3500 
z
" id="DejaVuSans-76" transform="scale(0.015625)"/>
       <path d="M 3328 2828 
Q 3544 3216 3844 3400 
Q 4144 3584 4550 3584 
Q 5097 3584 5394 3201 
Q 5691 2819 5691 2113 
L 5691 0 
L 5113 0 
L 5113 2094 
Q 5113 2597 4934 2840 
Q 4756 3084 4391 3084 
Q 3944 3084 3684 2787 
Q 3425 2491 3425 1978 
L 3425 0 
L 2847 0 
L 2847 2094 
Q 2847 2600 2669 2842 
Q 2491 3084 2119 3084 
Q 1678 3084 1418 2786 
Q 1159 2488 1159 1978 
L 1159 0 
L 581 0 
L 581 3500 
L 1159 3500 
L 1159 2956 
Q 1356 3278 1631 3431 
Q 1906 3584 2284 3584 
Q 2666 3584 2933 3390 
Q 3200 3197 3328 2828 
z
" id="DejaVuSans-6d" transform="scale(0.015625)"/>
       <path d="M 2834 3397 
L 2834 2853 
Q 2591 2978 2328 3040 
Q 2066 3103 1784 3103 
Q 1356 3103 1142 2972 
Q 928 2841 928 2578 
Q 928 2378 1081 2264 
Q 1234 2150 1697 2047 
L 1894 2003 
Q 2506 1872 2764 1633 
Q 3022 1394 3022 966 
Q 3022 478 2636 193 
Q 2250 -91 1575 -91 
Q 1294 -91 989 -36 
Q 684 19 347 128 
L 347 722 
Q 666 556 975 473 
Q 1284 391 1588 391 
Q 1994 391 2212 530 
Q 2431 669 2431 922 
Q 2431 1156 2273 1281 
Q 2116 1406 1581 1522 
L 1381 1569 
Q 847 1681 609 1914 
Q 372 2147 372 2553 
Q 372 3047 722 3315 
Q 1072 3584 1716 3584 
Q 2034 3584 2315 3537 
Q 2597 3491 2834 3397 
z
" id="DejaVuSans-73" transform="scale(0.015625)"/>
       <path d="M 628 4666 
L 1569 4666 
L 2759 1491 
L 3956 4666 
L 4897 4666 
L 4897 0 
L 4281 0 
L 4281 4097 
L 3078 897 
L 2444 897 
L 1241 4097 
L 1241 0 
L 628 0 
L 628 4666 
z
" id="DejaVuSans-4d" transform="scale(0.015625)"/>
      </defs>
      <use xlink:href="#DejaVuSans-43"/>
      <use x="69.824219" xlink:href="#DejaVuSans-61"/>
      <use x="131.103516" xlink:href="#DejaVuSans-72"/>
      <use x="172.216797" xlink:href="#DejaVuSans-62"/>
      <use x="235.693359" xlink:href="#DejaVuSans-6f"/>
      <use x="296.875" xlink:href="#DejaVuSans-6e"/>
      <use x="360.253906" xlink:href="#DejaVuSans-20"/>
      <use x="392.041016" xlink:href="#DejaVuSans-45"/>
      <use x="455.224609" xlink:href="#DejaVuSans-71"/>
      <use x="518.701172" xlink:href="#DejaVuSans-75"/>
      <use x="582.080078" xlink:href="#DejaVuSans-69"/>
      <use x="609.863281" xlink:href="#DejaVuSans-76"/>
      <use x="669.042969" xlink:href="#DejaVuSans-61"/>
      <use x="730.322266" xlink:href="#DejaVuSans-6c"/>
      <use x="758.105469" xlink:href="#DejaVuSans-65"/>
      <use x="819.628906" xlink:href="#DejaVuSans-6e"/>
      <use x="883.007812" xlink:href="#DejaVuSans-74"/>
      <use x="922.216797" xlink:href="#DejaVuSans-20"/>
      <use x="954.003906" xlink:href="#DejaVuSans-45"/>
      <use x="1017.1875" xlink:href="#DejaVuSans-6d"/>
      <use x="1114.599609" xlink:href="#DejaVuSans-69"/>
      <use x="1142.382812" xlink:href="#DejaVuSans-73"/>
      <use x="1194.482422" xlink:href="#DejaVuSans-73"/>
      <use x="1246.582031" xlink:href="#DejaVuSans-69"/>
      <use x="1274.365234" xlink:href="#DejaVuSans-6f"/>
      <use x="1335.546875" xlink:href="#DejaVuSans-6e"/>
      <use x="1398.925781" xlink:href="#DejaVuSans-73"/>
      <use x="1451.025391" xlink:href="#DejaVuSans-20"/>
      <use x="1482.8125" xlink:href="#DejaVuSans-28"/>
      <use x="1521.826172" xlink:href="#DejaVuSans-4d"/>
      <use x="1608.105469" xlink:href="#DejaVuSans-74"/>
      <use x="1647.314453" xlink:href="#DejaVuSans-29"/>
     </g>
    </g>
   </g>
   <g id="patch_3">
    <path d="M 54 512.64 
L 54 69.12 
" style="fill:none;stroke:#000000;stroke-linecap:square;stroke-linejoin:miter;stroke-width:0.8;"/>
   </g>
   <g id="patch_4">
    <path d="M 388.8 512.64 
L 388.8 69.12 
" style="fill:none;stroke:#000000;stroke-linecap:square;stroke-linejoin:miter;stroke-width:0.8;"/>
   </g>
   <g id="patch_5">
    <path d="M 54 512.64 
L 388.8 512.64 
" style="fill:none;stroke:#000000;stroke-linecap:square;stroke-linejoin:miter;stroke-width:0.8;"/>
   </g>
   <g id="patch_6">
    <path d="M 54 69.12 
L 388.8 69.12 
" style="fill:none;stroke:#000000;stroke-linecap:square;stroke-linejoin:miter;stroke-width:0.8;"/>
   </g>
  </g>
 </g>
 <defs>
  <clipPath id="p05bd508f7d">
   <rect height="443.52" width="334.8" x="54" y="69.12"/>
  </clipPath>
 </defs>
</svg>
