<?xml version="1.0" encoding="utf-8" standalone="no"?>
<!DOCTYPE svg PUBLIC "-//W3C//DTD SVG 1.1//EN"
  "http://www.w3.org/Graphics/SVG/1.1/DTD/svg11.dtd">
<svg height="576pt" version="1.1" viewBox="0 0 432 576" width="432pt" xmlns="http://www.w3.org/2000/svg" xmlns:xlink="http://www.w3.org/1999/xlink">
 <metadata>
  <rdf:RDF xmlns:cc="http://creativecommons.org/ns#" xmlns:dc="http://purl.org/dc/elements/1.1/" xmlns:rdf="http://www.w3.org/1999/02/22-rdf-syntax-ns#">
   <cc:Work>
    <dc:type rdf:resource="http://purl.org/dc/dcmitype/StillImage"/>
    <dc:date>2021-06-15T11:13:11.829351</dc:date>
    <dc:format>image/svg+xml</dc:format>
    <dc:creator>
     <cc:Agent>
      <dc:title>Matplotlib v3.4.1, https://matplotlib.org/</dc:title>
     </cc:Agent>
    </dc:creator>
   </cc:Work>
  </rdf:RDF>
 </metadata>
 <defs>
  <style type="text/css">*{stroke-linecap:butt;stroke-linejoin:round;}</style>
 </defs>
 <g id="figure_1">
  <g id="patch_1">
   <path d="M 0 576 
L 432 576 
L 432 0 
L 0 0 
z
" style="fill:#ffffff;"/>
  </g>
  <g id="axes_1">
   <g id="patch_2">
    <path d="M 54 512.64 
L 388.8 512.64 
L 388.8 69.12 
L 54 69.12 
z
" style="fill:#ffffff;"/>
   </g>
   <g id="PolyCollection_1">
    <path clip-path="url(#p78d0408d5c)" d="M 69.218182 219.919698 
L 69.218182 512.64 
L 72.292562 512.64 
L 75.366942 512.64 
L 78.441322 512.64 
L 81.515702 512.64 
L 84.590083 512.64 
L 87.664463 512.64 
L 90.738843 512.64 
L 93.813223 512.64 
L 96.887603 512.64 
L 99.961983 512.64 
L 103.036364 512.64 
L 106.110744 512.64 
L 109.185124 512.64 
L 112.259504 512.64 
L 115.333884 512.64 
L 118.408264 512.64 
L 121.482645 512.64 
L 124.557025 512.64 
L 127.631405 512.64 
L 130.705785 512.64 
L 133.780165 512.64 
L 136.854545 512.64 
L 139.928926 512.64 
L 143.003306 512.64 
L 146.077686 512.64 
L 149.152066 512.64 
L 152.226446 512.64 
L 155.300826 512.64 
L 158.375207 512.64 
L 161.449587 512.64 
L 164.523967 512.64 
L 167.598347 512.64 
L 170.672727 512.64 
L 173.747107 512.64 
L 176.821488 512.64 
L 179.895868 512.64 
L 182.970248 512.64 
L 186.044628 512.64 
L 189.119008 512.64 
L 192.193388 512.64 
L 195.267769 512.64 
L 198.342149 512.64 
L 201.416529 512.64 
L 204.490909 512.64 
L 207.565289 512.64 
L 210.639669 512.64 
L 213.71405 512.64 
L 216.78843 512.64 
L 219.86281 512.64 
L 222.93719 512.64 
L 226.01157 512.64 
L 229.08595 512.64 
L 232.160331 512.64 
L 235.234711 512.64 
L 238.309091 512.64 
L 241.383471 512.64 
L 244.457851 512.64 
L 247.532231 512.64 
L 250.606612 512.64 
L 253.680992 512.64 
L 256.755372 512.64 
L 259.829752 512.64 
L 262.904132 512.64 
L 265.978512 512.64 
L 269.052893 512.64 
L 272.127273 512.64 
L 275.201653 512.64 
L 278.276033 512.64 
L 281.350413 512.64 
L 284.424793 512.64 
L 287.499174 512.64 
L 290.573554 512.64 
L 293.647934 512.64 
L 296.722314 512.64 
L 299.796694 512.64 
L 302.871074 512.64 
L 305.945455 512.64 
L 309.019835 512.64 
L 312.094215 512.64 
L 315.168595 512.64 
L 318.242975 512.64 
L 321.317355 512.64 
L 324.391736 512.64 
L 327.466116 512.64 
L 330.540496 512.64 
L 333.614876 512.64 
L 336.689256 512.64 
L 339.763636 512.64 
L 342.838017 512.64 
L 345.912397 512.64 
L 348.986777 512.64 
L 352.061157 512.64 
L 355.135537 512.64 
L 358.209917 512.64 
L 361.284298 512.64 
L 364.358678 512.64 
L 367.433058 512.64 
L 370.507438 512.64 
L 373.581818 512.64 
L 373.581818 226.359056 
L 373.581818 226.359056 
L 370.507438 226.318101 
L 367.433058 226.276984 
L 364.358678 226.235718 
L 361.284298 226.194053 
L 358.209917 226.152514 
L 355.135537 226.110893 
L 352.061157 226.069223 
L 348.986777 226.027266 
L 345.912397 225.984921 
L 342.838017 225.942563 
L 339.763636 225.900293 
L 336.689256 225.857989 
L 333.614876 225.815774 
L 330.540496 225.773395 
L 327.466116 225.730794 
L 324.391736 225.687702 
L 321.317355 225.644189 
L 318.242975 225.600375 
L 315.168595 225.556269 
L 312.094215 225.512222 
L 309.019835 225.468009 
L 305.945455 225.423463 
L 302.871074 225.378563 
L 299.796694 225.333298 
L 296.722314 225.287618 
L 293.647934 225.241625 
L 290.573554 225.195473 
L 287.499174 225.149104 
L 284.424793 225.10232 
L 281.350413 225.055116 
L 278.276033 225.007129 
L 275.201653 224.958597 
L 272.127273 224.90941 
L 269.052893 224.859663 
L 265.978512 224.809301 
L 262.904132 224.758318 
L 259.829752 224.70649 
L 256.755372 224.654068 
L 253.680992 224.600871 
L 250.606612 224.546763 
L 247.532231 224.491515 
L 244.457851 224.43489 
L 241.383471 224.377082 
L 238.309091 224.31819 
L 235.234711 224.258232 
L 232.160331 224.197081 
L 229.08595 224.13492 
L 226.01157 224.071492 
L 222.93719 224.006625 
L 219.86281 223.94001 
L 216.78843 223.872253 
L 213.71405 223.803327 
L 210.639669 223.733109 
L 207.565289 223.661827 
L 204.490909 223.587834 
L 201.416529 223.504467 
L 198.342149 223.421101 
L 195.267769 223.337734 
L 192.193388 223.254367 
L 189.119008 223.171 
L 186.044628 223.087634 
L 182.970248 223.004267 
L 179.895868 222.9209 
L 176.821488 222.837534 
L 173.747107 222.754167 
L 170.672727 222.6708 
L 167.598347 222.587433 
L 164.523967 222.504067 
L 161.449587 222.4207 
L 158.375207 222.337333 
L 155.300826 222.253966 
L 152.226446 222.1706 
L 149.152066 222.087233 
L 146.077686 222.003866 
L 143.003306 221.920499 
L 139.928926 221.837133 
L 136.854545 221.753766 
L 133.780165 221.670399 
L 130.705785 221.587032 
L 127.631405 221.503666 
L 124.557025 221.420299 
L 121.482645 221.336932 
L 118.408264 221.253565 
L 115.333884 221.170199 
L 112.259504 221.086832 
L 109.185124 221.003465 
L 106.110744 220.920099 
L 103.036364 220.836732 
L 99.961983 220.753365 
L 96.887603 220.669998 
L 93.813223 220.586632 
L 90.738843 220.503265 
L 87.664463 220.419898 
L 84.590083 220.336531 
L 81.515702 220.253165 
L 78.441322 220.169798 
L 75.366942 220.086431 
L 72.292562 220.003064 
L 69.218182 219.919698 
z
" style="fill:#3182bd;"/>
   </g>
   <g id="PolyCollection_2">
    <path clip-path="url(#p78d0408d5c)" d="M 69.218182 99.4443 
L 69.218182 219.919698 
L 72.292562 220.003064 
L 75.366942 220.086431 
L 78.441322 220.169798 
L 81.515702 220.253165 
L 84.590083 220.336531 
L 87.664463 220.419898 
L 90.738843 220.503265 
L 93.813223 220.586632 
L 96.887603 220.669998 
L 99.961983 220.753365 
L 103.036364 220.836732 
L 106.110744 220.920099 
L 109.185124 221.003465 
L 112.259504 221.086832 
L 115.333884 221.170199 
L 118.408264 221.253565 
L 121.482645 221.336932 
L 124.557025 221.420299 
L 127.631405 221.503666 
L 130.705785 221.587032 
L 133.780165 221.670399 
L 136.854545 221.753766 
L 139.928926 221.837133 
L 143.003306 221.920499 
L 146.077686 222.003866 
L 149.152066 222.087233 
L 152.226446 222.1706 
L 155.300826 222.253966 
L 158.375207 222.337333 
L 161.449587 222.4207 
L 164.523967 222.504067 
L 167.598347 222.587433 
L 170.672727 222.6708 
L 173.747107 222.754167 
L 176.821488 222.837534 
L 179.895868 222.9209 
L 182.970248 223.004267 
L 186.044628 223.087634 
L 189.119008 223.171 
L 192.193388 223.254367 
L 195.267769 223.337734 
L 198.342149 223.421101 
L 201.416529 223.504467 
L 204.490909 223.587834 
L 207.565289 223.661827 
L 210.639669 223.733109 
L 213.71405 223.803327 
L 216.78843 223.872253 
L 219.86281 223.94001 
L 222.93719 224.006625 
L 226.01157 224.071492 
L 229.08595 224.13492 
L 232.160331 224.197081 
L 235.234711 224.258232 
L 238.309091 224.31819 
L 241.383471 224.377082 
L 244.457851 224.43489 
L 247.532231 224.491515 
L 250.606612 224.546763 
L 253.680992 224.600871 
L 256.755372 224.654068 
L 259.829752 224.70649 
L 262.904132 224.758318 
L 265.978512 224.809301 
L 269.052893 224.859663 
L 272.127273 224.90941 
L 275.201653 224.958597 
L 278.276033 225.007129 
L 281.350413 225.055116 
L 284.424793 225.10232 
L 287.499174 225.149104 
L 290.573554 225.195473 
L 293.647934 225.241625 
L 296.722314 225.287618 
L 299.796694 225.333298 
L 302.871074 225.378563 
L 305.945455 225.423463 
L 309.019835 225.468009 
L 312.094215 225.512222 
L 315.168595 225.556269 
L 318.242975 225.600375 
L 321.317355 225.644189 
L 324.391736 225.687702 
L 327.466116 225.730794 
L 330.540496 225.773395 
L 333.614876 225.815774 
L 336.689256 225.857989 
L 339.763636 225.900293 
L 342.838017 225.942563 
L 345.912397 225.984921 
L 348.986777 226.027266 
L 352.061157 226.069223 
L 355.135537 226.110893 
L 358.209917 226.152514 
L 361.284298 226.194053 
L 364.358678 226.235718 
L 367.433058 226.276984 
L 370.507438 226.318101 
L 373.581818 226.359056 
L 373.581818 109.814562 
L 373.581818 109.814562 
L 370.507438 109.6817 
L 367.433058 109.549025 
L 364.358678 109.416525 
L 361.284298 109.284491 
L 358.209917 109.152309 
L 355.135537 109.020224 
L 352.061157 108.888196 
L 348.986777 108.756502 
L 345.912397 108.625261 
L 342.838017 108.494035 
L 339.763636 108.362707 
L 336.689256 108.231418 
L 333.614876 108.100025 
L 330.540496 107.968824 
L 327.466116 107.837882 
L 324.391736 107.707513 
L 321.317355 107.577635 
L 318.242975 107.448109 
L 315.168595 107.318923 
L 312.094215 107.189669 
L 309.019835 107.060608 
L 305.945455 106.931936 
L 302.871074 106.803677 
L 299.796694 106.675843 
L 296.722314 106.548495 
L 293.647934 106.421511 
L 290.573554 106.294713 
L 287.499174 106.168169 
L 284.424793 106.042108 
L 281.350413 105.916538 
L 278.276033 105.791881 
L 275.201653 105.667861 
L 272.127273 105.544605 
L 269.052893 105.422003 
L 265.978512 105.300118 
L 262.904132 105.178959 
L 259.829752 105.058785 
L 256.755372 104.939303 
L 253.680992 104.820728 
L 250.606612 104.703214 
L 247.532231 104.587032 
L 244.457851 104.472457 
L 241.383471 104.359261 
L 238.309091 104.247332 
L 235.234711 104.136647 
L 232.160331 104.027353 
L 229.08595 103.919238 
L 226.01157 103.812602 
L 222.93719 103.707646 
L 219.86281 103.604728 
L 216.78843 103.503144 
L 213.71405 103.402924 
L 210.639669 103.304213 
L 207.565289 103.206743 
L 204.490909 103.112436 
L 201.416529 103.02907 
L 198.342149 102.945703 
L 195.267769 102.862336 
L 192.193388 102.778969 
L 189.119008 102.695603 
L 186.044628 102.612236 
L 182.970248 102.528869 
L 179.895868 102.445502 
L 176.821488 102.362136 
L 173.747107 102.278769 
L 170.672727 102.195402 
L 167.598347 102.112035 
L 164.523967 102.028669 
L 161.449587 101.945302 
L 158.375207 101.861935 
L 155.300826 101.778568 
L 152.226446 101.695202 
L 149.152066 101.611835 
L 146.077686 101.528468 
L 143.003306 101.445102 
L 139.928926 101.361735 
L 136.854545 101.278368 
L 133.780165 101.195001 
L 130.705785 101.111635 
L 127.631405 101.028268 
L 124.557025 100.944901 
L 121.482645 100.861534 
L 118.408264 100.778168 
L 115.333884 100.694801 
L 112.259504 100.611434 
L 109.185124 100.528067 
L 106.110744 100.444701 
L 103.036364 100.361334 
L 99.961983 100.277967 
L 96.887603 100.1946 
L 93.813223 100.111234 
L 90.738843 100.027867 
L 87.664463 99.9445 
L 84.590083 99.861134 
L 81.515702 99.777767 
L 78.441322 99.6944 
L 75.366942 99.611033 
L 72.292562 99.527667 
L 69.218182 99.4443 
z
" style="fill:#6baed6;"/>
   </g>
   <g id="PolyCollection_3">
    <path clip-path="url(#p78d0408d5c)" d="M 69.218182 99.281456 
L 69.218182 99.4443 
L 72.292562 99.527667 
L 75.366942 99.611033 
L 78.441322 99.6944 
L 81.515702 99.777767 
L 84.590083 99.861134 
L 87.664463 99.9445 
L 90.738843 100.027867 
L 93.813223 100.111234 
L 96.887603 100.1946 
L 99.961983 100.277967 
L 103.036364 100.361334 
L 106.110744 100.444701 
L 109.185124 100.528067 
L 112.259504 100.611434 
L 115.333884 100.694801 
L 118.408264 100.778168 
L 121.482645 100.861534 
L 124.557025 100.944901 
L 127.631405 101.028268 
L 130.705785 101.111635 
L 133.780165 101.195001 
L 136.854545 101.278368 
L 139.928926 101.361735 
L 143.003306 101.445102 
L 146.077686 101.528468 
L 149.152066 101.611835 
L 152.226446 101.695202 
L 155.300826 101.778568 
L 158.375207 101.861935 
L 161.449587 101.945302 
L 164.523967 102.028669 
L 167.598347 102.112035 
L 170.672727 102.195402 
L 173.747107 102.278769 
L 176.821488 102.362136 
L 179.895868 102.445502 
L 182.970248 102.528869 
L 186.044628 102.612236 
L 189.119008 102.695603 
L 192.193388 102.778969 
L 195.267769 102.862336 
L 198.342149 102.945703 
L 201.416529 103.02907 
L 204.490909 103.112436 
L 207.565289 103.206743 
L 210.639669 103.304213 
L 213.71405 103.402924 
L 216.78843 103.503144 
L 219.86281 103.604728 
L 222.93719 103.707646 
L 226.01157 103.812602 
L 229.08595 103.919238 
L 232.160331 104.027353 
L 235.234711 104.136647 
L 238.309091 104.247332 
L 241.383471 104.359261 
L 244.457851 104.472457 
L 247.532231 104.587032 
L 250.606612 104.703214 
L 253.680992 104.820728 
L 256.755372 104.939303 
L 259.829752 105.058785 
L 262.904132 105.178959 
L 265.978512 105.300118 
L 269.052893 105.422003 
L 272.127273 105.544605 
L 275.201653 105.667861 
L 278.276033 105.791881 
L 281.350413 105.916538 
L 284.424793 106.042108 
L 287.499174 106.168169 
L 290.573554 106.294713 
L 293.647934 106.421511 
L 296.722314 106.548495 
L 299.796694 106.675843 
L 302.871074 106.803677 
L 305.945455 106.931936 
L 309.019835 107.060608 
L 312.094215 107.189669 
L 315.168595 107.318923 
L 318.242975 107.448109 
L 321.317355 107.577635 
L 324.391736 107.707513 
L 327.466116 107.837882 
L 330.540496 107.968824 
L 333.614876 108.100025 
L 336.689256 108.231418 
L 339.763636 108.362707 
L 342.838017 108.494035 
L 345.912397 108.625261 
L 348.986777 108.756502 
L 352.061157 108.888196 
L 355.135537 109.020224 
L 358.209917 109.152309 
L 361.284298 109.284491 
L 364.358678 109.416525 
L 367.433058 109.549025 
L 370.507438 109.6817 
L 373.581818 109.814562 
L 373.581818 109.651719 
L 373.581818 109.651719 
L 370.507438 109.518857 
L 367.433058 109.386182 
L 364.358678 109.253682 
L 361.284298 109.121648 
L 358.209917 108.989466 
L 355.135537 108.85738 
L 352.061157 108.725352 
L 348.986777 108.593658 
L 345.912397 108.462418 
L 342.838017 108.331191 
L 339.763636 108.199863 
L 336.689256 108.068574 
L 333.614876 107.937182 
L 330.540496 107.80598 
L 327.466116 107.675038 
L 324.391736 107.544669 
L 321.317355 107.414791 
L 318.242975 107.285266 
L 315.168595 107.156079 
L 312.094215 107.026825 
L 309.019835 106.897765 
L 305.945455 106.769092 
L 302.871074 106.640833 
L 299.796694 106.513 
L 296.722314 106.385651 
L 293.647934 106.258668 
L 290.573554 106.131869 
L 287.499174 106.005325 
L 284.424793 105.879265 
L 281.350413 105.753694 
L 278.276033 105.629038 
L 275.201653 105.505017 
L 272.127273 105.381762 
L 269.052893 105.259159 
L 265.978512 105.137275 
L 262.904132 105.016115 
L 259.829752 104.895941 
L 256.755372 104.77646 
L 253.680992 104.657885 
L 250.606612 104.540371 
L 247.532231 104.424188 
L 244.457851 104.309613 
L 241.383471 104.196418 
L 238.309091 104.084489 
L 235.234711 103.973803 
L 232.160331 103.864509 
L 229.08595 103.756395 
L 226.01157 103.649758 
L 222.93719 103.544802 
L 219.86281 103.441884 
L 216.78843 103.3403 
L 213.71405 103.240081 
L 210.639669 103.141369 
L 207.565289 103.043899 
L 204.490909 102.949593 
L 201.416529 102.866226 
L 198.342149 102.782859 
L 195.267769 102.699493 
L 192.193388 102.616126 
L 189.119008 102.532759 
L 186.044628 102.449392 
L 182.970248 102.366026 
L 179.895868 102.282659 
L 176.821488 102.199292 
L 173.747107 102.115925 
L 170.672727 102.032559 
L 167.598347 101.949192 
L 164.523967 101.865825 
L 161.449587 101.782458 
L 158.375207 101.699092 
L 155.300826 101.615725 
L 152.226446 101.532358 
L 149.152066 101.448991 
L 146.077686 101.365625 
L 143.003306 101.282258 
L 139.928926 101.198891 
L 136.854545 101.115525 
L 133.780165 101.032158 
L 130.705785 100.948791 
L 127.631405 100.865424 
L 124.557025 100.782058 
L 121.482645 100.698691 
L 118.408264 100.615324 
L 115.333884 100.531957 
L 112.259504 100.448591 
L 109.185124 100.365224 
L 106.110744 100.281857 
L 103.036364 100.19849 
L 99.961983 100.115124 
L 96.887603 100.031757 
L 93.813223 99.94839 
L 90.738843 99.865023 
L 87.664463 99.781657 
L 84.590083 99.69829 
L 81.515702 99.614923 
L 78.441322 99.531556 
L 75.366942 99.44819 
L 72.292562 99.364823 
L 69.218182 99.281456 
z
" style="fill:#9ecae1;"/>
   </g>
   <g id="PolyCollection_4">
    <path clip-path="url(#p78d0408d5c)" d="M 69.218182 99.130353 
L 69.218182 99.281456 
L 72.292562 99.364823 
L 75.366942 99.44819 
L 78.441322 99.531556 
L 81.515702 99.614923 
L 84.590083 99.69829 
L 87.664463 99.781657 
L 90.738843 99.865023 
L 93.813223 99.94839 
L 96.887603 100.031757 
L 99.961983 100.115124 
L 103.036364 100.19849 
L 106.110744 100.281857 
L 109.185124 100.365224 
L 112.259504 100.448591 
L 115.333884 100.531957 
L 118.408264 100.615324 
L 121.482645 100.698691 
L 124.557025 100.782058 
L 127.631405 100.865424 
L 130.705785 100.948791 
L 133.780165 101.032158 
L 136.854545 101.115525 
L 139.928926 101.198891 
L 143.003306 101.282258 
L 146.077686 101.365625 
L 149.152066 101.448991 
L 152.226446 101.532358 
L 155.300826 101.615725 
L 158.375207 101.699092 
L 161.449587 101.782458 
L 164.523967 101.865825 
L 167.598347 101.949192 
L 170.672727 102.032559 
L 173.747107 102.115925 
L 176.821488 102.199292 
L 179.895868 102.282659 
L 182.970248 102.366026 
L 186.044628 102.449392 
L 189.119008 102.532759 
L 192.193388 102.616126 
L 195.267769 102.699493 
L 198.342149 102.782859 
L 201.416529 102.866226 
L 204.490909 102.949593 
L 207.565289 103.043899 
L 210.639669 103.141369 
L 213.71405 103.240081 
L 216.78843 103.3403 
L 219.86281 103.441884 
L 222.93719 103.544802 
L 226.01157 103.649758 
L 229.08595 103.756395 
L 232.160331 103.864509 
L 235.234711 103.973803 
L 238.309091 104.084489 
L 241.383471 104.196418 
L 244.457851 104.309613 
L 247.532231 104.424188 
L 250.606612 104.540371 
L 253.680992 104.657885 
L 256.755372 104.77646 
L 259.829752 104.895941 
L 262.904132 105.016115 
L 265.978512 105.137275 
L 269.052893 105.259159 
L 272.127273 105.381762 
L 275.201653 105.505017 
L 278.276033 105.629038 
L 281.350413 105.753694 
L 284.424793 105.879265 
L 287.499174 106.005325 
L 290.573554 106.131869 
L 293.647934 106.258668 
L 296.722314 106.385651 
L 299.796694 106.513 
L 302.871074 106.640833 
L 305.945455 106.769092 
L 309.019835 106.897765 
L 312.094215 107.026825 
L 315.168595 107.156079 
L 318.242975 107.285266 
L 321.317355 107.414791 
L 324.391736 107.544669 
L 327.466116 107.675038 
L 330.540496 107.80598 
L 333.614876 107.937182 
L 336.689256 108.068574 
L 339.763636 108.199863 
L 342.838017 108.331191 
L 345.912397 108.462418 
L 348.986777 108.593658 
L 352.061157 108.725352 
L 355.135537 108.85738 
L 358.209917 108.989466 
L 361.284298 109.121648 
L 364.358678 109.253682 
L 367.433058 109.386182 
L 370.507438 109.518857 
L 373.581818 109.651719 
L 373.581818 109.500616 
L 373.581818 109.500616 
L 370.507438 109.367754 
L 367.433058 109.235079 
L 364.358678 109.102579 
L 361.284298 108.970545 
L 358.209917 108.838363 
L 355.135537 108.706277 
L 352.061157 108.574249 
L 348.986777 108.442555 
L 345.912397 108.311315 
L 342.838017 108.180088 
L 339.763636 108.048761 
L 336.689256 107.917471 
L 333.614876 107.786079 
L 330.540496 107.654877 
L 327.466116 107.523935 
L 324.391736 107.393567 
L 321.317355 107.263688 
L 318.242975 107.134163 
L 315.168595 107.004976 
L 312.094215 106.875722 
L 309.019835 106.746662 
L 305.945455 106.617989 
L 302.871074 106.48973 
L 299.796694 106.361897 
L 296.722314 106.234548 
L 293.647934 106.107565 
L 290.573554 105.980766 
L 287.499174 105.854222 
L 284.424793 105.728162 
L 281.350413 105.602591 
L 278.276033 105.477935 
L 275.201653 105.353914 
L 272.127273 105.230659 
L 269.052893 105.108056 
L 265.978512 104.986172 
L 262.904132 104.865012 
L 259.829752 104.744838 
L 256.755372 104.625357 
L 253.680992 104.506782 
L 250.606612 104.389268 
L 247.532231 104.273085 
L 244.457851 104.15851 
L 241.383471 104.045315 
L 238.309091 103.933386 
L 235.234711 103.8227 
L 232.160331 103.713406 
L 229.08595 103.605292 
L 226.01157 103.498656 
L 222.93719 103.393699 
L 219.86281 103.290781 
L 216.78843 103.189197 
L 213.71405 103.088978 
L 210.639669 102.990266 
L 207.565289 102.892796 
L 204.490909 102.79849 
L 201.416529 102.715123 
L 198.342149 102.631756 
L 195.267769 102.54839 
L 192.193388 102.465023 
L 189.119008 102.381656 
L 186.044628 102.298289 
L 182.970248 102.214923 
L 179.895868 102.131556 
L 176.821488 102.048189 
L 173.747107 101.964822 
L 170.672727 101.881456 
L 167.598347 101.798089 
L 164.523967 101.714722 
L 161.449587 101.631355 
L 158.375207 101.547989 
L 155.300826 101.464622 
L 152.226446 101.381255 
L 149.152066 101.297889 
L 146.077686 101.214522 
L 143.003306 101.131155 
L 139.928926 101.047788 
L 136.854545 100.964422 
L 133.780165 100.881055 
L 130.705785 100.797688 
L 127.631405 100.714321 
L 124.557025 100.630955 
L 121.482645 100.547588 
L 118.408264 100.464221 
L 115.333884 100.380854 
L 112.259504 100.297488 
L 109.185124 100.214121 
L 106.110744 100.130754 
L 103.036364 100.047387 
L 99.961983 99.964021 
L 96.887603 99.880654 
L 93.813223 99.797287 
L 90.738843 99.71392 
L 87.664463 99.630554 
L 84.590083 99.547187 
L 81.515702 99.46382 
L 78.441322 99.380454 
L 75.366942 99.297087 
L 72.292562 99.21372 
L 69.218182 99.130353 
z
" style="fill:#c6dbef;"/>
   </g>
   <g id="PolyCollection_5">
    <path clip-path="url(#p78d0408d5c)" d="M 69.218182 98.627771 
L 69.218182 99.130353 
L 72.292562 99.21372 
L 75.366942 99.297087 
L 78.441322 99.380454 
L 81.515702 99.46382 
L 84.590083 99.547187 
L 87.664463 99.630554 
L 90.738843 99.71392 
L 93.813223 99.797287 
L 96.887603 99.880654 
L 99.961983 99.964021 
L 103.036364 100.047387 
L 106.110744 100.130754 
L 109.185124 100.214121 
L 112.259504 100.297488 
L 115.333884 100.380854 
L 118.408264 100.464221 
L 121.482645 100.547588 
L 124.557025 100.630955 
L 127.631405 100.714321 
L 130.705785 100.797688 
L 133.780165 100.881055 
L 136.854545 100.964422 
L 139.928926 101.047788 
L 143.003306 101.131155 
L 146.077686 101.214522 
L 149.152066 101.297889 
L 152.226446 101.381255 
L 155.300826 101.464622 
L 158.375207 101.547989 
L 161.449587 101.631355 
L 164.523967 101.714722 
L 167.598347 101.798089 
L 170.672727 101.881456 
L 173.747107 101.964822 
L 176.821488 102.048189 
L 179.895868 102.131556 
L 182.970248 102.214923 
L 186.044628 102.298289 
L 189.119008 102.381656 
L 192.193388 102.465023 
L 195.267769 102.54839 
L 198.342149 102.631756 
L 201.416529 102.715123 
L 204.490909 102.79849 
L 207.565289 102.892796 
L 210.639669 102.990266 
L 213.71405 103.088978 
L 216.78843 103.189197 
L 219.86281 103.290781 
L 222.93719 103.393699 
L 226.01157 103.498656 
L 229.08595 103.605292 
L 232.160331 103.713406 
L 235.234711 103.8227 
L 238.309091 103.933386 
L 241.383471 104.045315 
L 244.457851 104.15851 
L 247.532231 104.273085 
L 250.606612 104.389268 
L 253.680992 104.506782 
L 256.755372 104.625357 
L 259.829752 104.744838 
L 262.904132 104.865012 
L 265.978512 104.986172 
L 269.052893 105.108056 
L 272.127273 105.230659 
L 275.201653 105.353914 
L 278.276033 105.477935 
L 281.350413 105.602591 
L 284.424793 105.728162 
L 287.499174 105.854222 
L 290.573554 105.980766 
L 293.647934 106.107565 
L 296.722314 106.234548 
L 299.796694 106.361897 
L 302.871074 106.48973 
L 305.945455 106.617989 
L 309.019835 106.746662 
L 312.094215 106.875722 
L 315.168595 107.004976 
L 318.242975 107.134163 
L 321.317355 107.263688 
L 324.391736 107.393567 
L 327.466116 107.523935 
L 330.540496 107.654877 
L 333.614876 107.786079 
L 336.689256 107.917471 
L 339.763636 108.048761 
L 342.838017 108.180088 
L 345.912397 108.311315 
L 348.986777 108.442555 
L 352.061157 108.574249 
L 355.135537 108.706277 
L 358.209917 108.838363 
L 361.284298 108.970545 
L 364.358678 109.102579 
L 367.433058 109.235079 
L 370.507438 109.367754 
L 373.581818 109.500616 
L 373.581818 108.998033 
L 373.581818 108.998033 
L 370.507438 108.865171 
L 367.433058 108.732497 
L 364.358678 108.599996 
L 361.284298 108.467962 
L 358.209917 108.33578 
L 355.135537 108.203695 
L 352.061157 108.071667 
L 348.986777 107.939973 
L 345.912397 107.808732 
L 342.838017 107.677506 
L 339.763636 107.546178 
L 336.689256 107.414889 
L 333.614876 107.283496 
L 330.540496 107.152295 
L 327.466116 107.021353 
L 324.391736 106.890984 
L 321.317355 106.761106 
L 318.242975 106.63158 
L 315.168595 106.502394 
L 312.094215 106.37314 
L 309.019835 106.244079 
L 305.945455 106.115407 
L 302.871074 105.987148 
L 299.796694 105.859314 
L 296.722314 105.731966 
L 293.647934 105.604982 
L 290.573554 105.478184 
L 287.499174 105.35164 
L 284.424793 105.225579 
L 281.350413 105.100009 
L 278.276033 104.975353 
L 275.201653 104.851332 
L 272.127273 104.728076 
L 269.052893 104.605474 
L 265.978512 104.483589 
L 262.904132 104.36243 
L 259.829752 104.242256 
L 256.755372 104.122774 
L 253.680992 104.004199 
L 250.606612 103.886685 
L 247.532231 103.770503 
L 244.457851 103.655928 
L 241.383471 103.542732 
L 238.309091 103.430803 
L 235.234711 103.320118 
L 232.160331 103.210824 
L 229.08595 103.102709 
L 226.01157 102.996073 
L 222.93719 102.891117 
L 219.86281 102.788199 
L 216.78843 102.686615 
L 213.71405 102.586395 
L 210.639669 102.487684 
L 207.565289 102.390214 
L 204.490909 102.295907 
L 201.416529 102.212541 
L 198.342149 102.129174 
L 195.267769 102.045807 
L 192.193388 101.96244 
L 189.119008 101.879074 
L 186.044628 101.795707 
L 182.970248 101.71234 
L 179.895868 101.628973 
L 176.821488 101.545607 
L 173.747107 101.46224 
L 170.672727 101.378873 
L 167.598347 101.295506 
L 164.523967 101.21214 
L 161.449587 101.128773 
L 158.375207 101.045406 
L 155.300826 100.96204 
L 152.226446 100.878673 
L 149.152066 100.795306 
L 146.077686 100.711939 
L 143.003306 100.628573 
L 139.928926 100.545206 
L 136.854545 100.461839 
L 133.780165 100.378472 
L 130.705785 100.295106 
L 127.631405 100.211739 
L 124.557025 100.128372 
L 121.482645 100.045005 
L 118.408264 99.961639 
L 115.333884 99.878272 
L 112.259504 99.794905 
L 109.185124 99.711538 
L 106.110744 99.628172 
L 103.036364 99.544805 
L 99.961983 99.461438 
L 96.887603 99.378072 
L 93.813223 99.294705 
L 90.738843 99.211338 
L 87.664463 99.127971 
L 84.590083 99.044605 
L 81.515702 98.961238 
L 78.441322 98.877871 
L 75.366942 98.794504 
L 72.292562 98.711138 
L 69.218182 98.627771 
z
" style="fill:#e6550d;"/>
   </g>
   <g id="PolyCollection_6">
    <path clip-path="url(#p78d0408d5c)" d="M 69.218182 97.884903 
L 69.218182 98.627771 
L 72.292562 98.711138 
L 75.366942 98.794504 
L 78.441322 98.877871 
L 81.515702 98.961238 
L 84.590083 99.044605 
L 87.664463 99.127971 
L 90.738843 99.211338 
L 93.813223 99.294705 
L 96.887603 99.378072 
L 99.961983 99.461438 
L 103.036364 99.544805 
L 106.110744 99.628172 
L 109.185124 99.711538 
L 112.259504 99.794905 
L 115.333884 99.878272 
L 118.408264 99.961639 
L 121.482645 100.045005 
L 124.557025 100.128372 
L 127.631405 100.211739 
L 130.705785 100.295106 
L 133.780165 100.378472 
L 136.854545 100.461839 
L 139.928926 100.545206 
L 143.003306 100.628573 
L 146.077686 100.711939 
L 149.152066 100.795306 
L 152.226446 100.878673 
L 155.300826 100.96204 
L 158.375207 101.045406 
L 161.449587 101.128773 
L 164.523967 101.21214 
L 167.598347 101.295506 
L 170.672727 101.378873 
L 173.747107 101.46224 
L 176.821488 101.545607 
L 179.895868 101.628973 
L 182.970248 101.71234 
L 186.044628 101.795707 
L 189.119008 101.879074 
L 192.193388 101.96244 
L 195.267769 102.045807 
L 198.342149 102.129174 
L 201.416529 102.212541 
L 204.490909 102.295907 
L 207.565289 102.390214 
L 210.639669 102.487684 
L 213.71405 102.586395 
L 216.78843 102.686615 
L 219.86281 102.788199 
L 222.93719 102.891117 
L 226.01157 102.996073 
L 229.08595 103.102709 
L 232.160331 103.210824 
L 235.234711 103.320118 
L 238.309091 103.430803 
L 241.383471 103.542732 
L 244.457851 103.655928 
L 247.532231 103.770503 
L 250.606612 103.886685 
L 253.680992 104.004199 
L 256.755372 104.122774 
L 259.829752 104.242256 
L 262.904132 104.36243 
L 265.978512 104.483589 
L 269.052893 104.605474 
L 272.127273 104.728076 
L 275.201653 104.851332 
L 278.276033 104.975353 
L 281.350413 105.100009 
L 284.424793 105.225579 
L 287.499174 105.35164 
L 290.573554 105.478184 
L 293.647934 105.604982 
L 296.722314 105.731966 
L 299.796694 105.859314 
L 302.871074 105.987148 
L 305.945455 106.115407 
L 309.019835 106.244079 
L 312.094215 106.37314 
L 315.168595 106.502394 
L 318.242975 106.63158 
L 321.317355 106.761106 
L 324.391736 106.890984 
L 327.466116 107.021353 
L 330.540496 107.152295 
L 333.614876 107.283496 
L 336.689256 107.414889 
L 339.763636 107.546178 
L 342.838017 107.677506 
L 345.912397 107.808732 
L 348.986777 107.939973 
L 352.061157 108.071667 
L 355.135537 108.203695 
L 358.209917 108.33578 
L 361.284298 108.467962 
L 364.358678 108.599996 
L 367.433058 108.732497 
L 370.507438 108.865171 
L 373.581818 108.998033 
L 373.581818 108.255166 
L 373.581818 108.255166 
L 370.507438 108.122303 
L 367.433058 107.989629 
L 364.358678 107.857129 
L 361.284298 107.725095 
L 358.209917 107.592913 
L 355.135537 107.460827 
L 352.061157 107.328799 
L 348.986777 107.197105 
L 345.912397 107.065864 
L 342.838017 106.934638 
L 339.763636 106.80331 
L 336.689256 106.672021 
L 333.614876 106.540628 
L 330.540496 106.409427 
L 327.466116 106.278485 
L 324.391736 106.148116 
L 321.317355 106.018238 
L 318.242975 105.888712 
L 315.168595 105.759526 
L 312.094215 105.630272 
L 309.019835 105.501212 
L 305.945455 105.372539 
L 302.871074 105.24428 
L 299.796694 105.116447 
L 296.722314 104.989098 
L 293.647934 104.862115 
L 290.573554 104.735316 
L 287.499174 104.608772 
L 284.424793 104.482712 
L 281.350413 104.357141 
L 278.276033 104.232485 
L 275.201653 104.108464 
L 272.127273 103.985209 
L 269.052893 103.862606 
L 265.978512 103.740722 
L 262.904132 103.619562 
L 259.829752 103.499388 
L 256.755372 103.379907 
L 253.680992 103.261332 
L 250.606612 103.143817 
L 247.532231 103.027635 
L 244.457851 102.91306 
L 241.383471 102.799865 
L 238.309091 102.687935 
L 235.234711 102.57725 
L 232.160331 102.467956 
L 229.08595 102.359842 
L 226.01157 102.253205 
L 222.93719 102.148249 
L 219.86281 102.045331 
L 216.78843 101.943747 
L 213.71405 101.843528 
L 210.639669 101.744816 
L 207.565289 101.647346 
L 204.490909 101.55304 
L 201.416529 101.469673 
L 198.342149 101.386306 
L 195.267769 101.302939 
L 192.193388 101.219573 
L 189.119008 101.136206 
L 186.044628 101.052839 
L 182.970248 100.969472 
L 179.895868 100.886106 
L 176.821488 100.802739 
L 173.747107 100.719372 
L 170.672727 100.636006 
L 167.598347 100.552639 
L 164.523967 100.469272 
L 161.449587 100.385905 
L 158.375207 100.302539 
L 155.300826 100.219172 
L 152.226446 100.135805 
L 149.152066 100.052438 
L 146.077686 99.969072 
L 143.003306 99.885705 
L 139.928926 99.802338 
L 136.854545 99.718971 
L 133.780165 99.635605 
L 130.705785 99.552238 
L 127.631405 99.468871 
L 124.557025 99.385504 
L 121.482645 99.302138 
L 118.408264 99.218771 
L 115.333884 99.135404 
L 112.259504 99.052037 
L 109.185124 98.968671 
L 106.110744 98.885304 
L 103.036364 98.801937 
L 99.961983 98.718571 
L 96.887603 98.635204 
L 93.813223 98.551837 
L 90.738843 98.46847 
L 87.664463 98.385104 
L 84.590083 98.301737 
L 81.515702 98.21837 
L 78.441322 98.135003 
L 75.366942 98.051637 
L 72.292562 97.96827 
L 69.218182 97.884903 
z
" style="fill:#fd8d3c;"/>
   </g>
   <g id="PolyCollection_7">
    <path clip-path="url(#p78d0408d5c)" d="M 69.218182 96.094807 
L 69.218182 97.884903 
L 72.292562 97.96827 
L 75.366942 98.051637 
L 78.441322 98.135003 
L 81.515702 98.21837 
L 84.590083 98.301737 
L 87.664463 98.385104 
L 90.738843 98.46847 
L 93.813223 98.551837 
L 96.887603 98.635204 
L 99.961983 98.718571 
L 103.036364 98.801937 
L 106.110744 98.885304 
L 109.185124 98.968671 
L 112.259504 99.052037 
L 115.333884 99.135404 
L 118.408264 99.218771 
L 121.482645 99.302138 
L 124.557025 99.385504 
L 127.631405 99.468871 
L 130.705785 99.552238 
L 133.780165 99.635605 
L 136.854545 99.718971 
L 139.928926 99.802338 
L 143.003306 99.885705 
L 146.077686 99.969072 
L 149.152066 100.052438 
L 152.226446 100.135805 
L 155.300826 100.219172 
L 158.375207 100.302539 
L 161.449587 100.385905 
L 164.523967 100.469272 
L 167.598347 100.552639 
L 170.672727 100.636006 
L 173.747107 100.719372 
L 176.821488 100.802739 
L 179.895868 100.886106 
L 182.970248 100.969472 
L 186.044628 101.052839 
L 189.119008 101.136206 
L 192.193388 101.219573 
L 195.267769 101.302939 
L 198.342149 101.386306 
L 201.416529 101.469673 
L 204.490909 101.55304 
L 207.565289 101.647346 
L 210.639669 101.744816 
L 213.71405 101.843528 
L 216.78843 101.943747 
L 219.86281 102.045331 
L 222.93719 102.148249 
L 226.01157 102.253205 
L 229.08595 102.359842 
L 232.160331 102.467956 
L 235.234711 102.57725 
L 238.309091 102.687935 
L 241.383471 102.799865 
L 244.457851 102.91306 
L 247.532231 103.027635 
L 250.606612 103.143817 
L 253.680992 103.261332 
L 256.755372 103.379907 
L 259.829752 103.499388 
L 262.904132 103.619562 
L 265.978512 103.740722 
L 269.052893 103.862606 
L 272.127273 103.985209 
L 275.201653 104.108464 
L 278.276033 104.232485 
L 281.350413 104.357141 
L 284.424793 104.482712 
L 287.499174 104.608772 
L 290.573554 104.735316 
L 293.647934 104.862115 
L 296.722314 104.989098 
L 299.796694 105.116447 
L 302.871074 105.24428 
L 305.945455 105.372539 
L 309.019835 105.501212 
L 312.094215 105.630272 
L 315.168595 105.759526 
L 318.242975 105.888712 
L 321.317355 106.018238 
L 324.391736 106.148116 
L 327.466116 106.278485 
L 330.540496 106.409427 
L 333.614876 106.540628 
L 336.689256 106.672021 
L 339.763636 106.80331 
L 342.838017 106.934638 
L 345.912397 107.065864 
L 348.986777 107.197105 
L 352.061157 107.328799 
L 355.135537 107.460827 
L 358.209917 107.592913 
L 361.284298 107.725095 
L 364.358678 107.857129 
L 367.433058 107.989629 
L 370.507438 108.122303 
L 373.581818 108.255166 
L 373.581818 108.255166 
L 373.581818 108.255166 
L 370.507438 108.104222 
L 367.433058 107.953465 
L 364.358678 107.802883 
L 361.284298 107.652768 
L 358.209917 107.502504 
L 355.135537 107.352337 
L 352.061157 107.202227 
L 348.986777 107.052451 
L 345.912397 106.903128 
L 342.838017 106.75382 
L 339.763636 106.604411 
L 336.689256 106.45504 
L 333.614876 106.305565 
L 330.540496 106.156282 
L 327.466116 106.007258 
L 324.391736 105.858808 
L 321.317355 105.710848 
L 318.242975 105.56324 
L 315.168595 105.415973 
L 312.094215 105.268637 
L 309.019835 105.121494 
L 305.945455 104.97474 
L 302.871074 104.828399 
L 299.796694 104.682484 
L 296.722314 104.537053 
L 293.647934 104.391988 
L 290.573554 104.247108 
L 287.499174 104.102482 
L 284.424793 103.95834 
L 281.350413 103.814688 
L 278.276033 103.67195 
L 275.201653 103.529847 
L 272.127273 103.38851 
L 269.052893 103.247826 
L 265.978512 103.107859 
L 262.904132 102.968618 
L 259.829752 102.830362 
L 256.755372 102.692799 
L 253.680992 102.556142 
L 250.606612 102.420546 
L 247.532231 102.286282 
L 244.457851 102.153625 
L 241.383471 102.022348 
L 238.309091 101.892337 
L 235.234711 101.76357 
L 232.160331 101.636194 
L 229.08595 101.509998 
L 226.01157 101.38528 
L 222.93719 101.262242 
L 219.86281 101.141242 
L 216.78843 101.021577 
L 213.71405 100.903275 
L 210.639669 100.786482 
L 207.565289 100.67093 
L 204.490909 100.558542 
L 201.416529 100.457093 
L 198.342149 100.355645 
L 195.267769 100.254196 
L 192.193388 100.152748 
L 189.119008 100.051299 
L 186.044628 99.949851 
L 182.970248 99.848402 
L 179.895868 99.746954 
L 176.821488 99.645505 
L 173.747107 99.544057 
L 170.672727 99.442608 
L 167.598347 99.34116 
L 164.523967 99.239711 
L 161.449587 99.138262 
L 158.375207 99.036814 
L 155.300826 98.935365 
L 152.226446 98.833917 
L 149.152066 98.732468 
L 146.077686 98.63102 
L 143.003306 98.529571 
L 139.928926 98.428123 
L 136.854545 98.326674 
L 133.780165 98.225226 
L 130.705785 98.123777 
L 127.631405 98.022329 
L 124.557025 97.92088 
L 121.482645 97.819432 
L 118.408264 97.717983 
L 115.333884 97.616535 
L 112.259504 97.515086 
L 109.185124 97.413638 
L 106.110744 97.312189 
L 103.036364 97.210741 
L 99.961983 97.109292 
L 96.887603 97.007844 
L 93.813223 96.906395 
L 90.738843 96.804947 
L 87.664463 96.703498 
L 84.590083 96.60205 
L 81.515702 96.500601 
L 78.441322 96.399152 
L 75.366942 96.297704 
L 72.292562 96.196255 
L 69.218182 96.094807 
z
" style="fill:#fdae6b;"/>
   </g>
   <g id="PolyCollection_8">
    <path clip-path="url(#p78d0408d5c)" d="M 69.218182 92.202101 
L 69.218182 96.094807 
L 72.292562 96.196255 
L 75.366942 96.297704 
L 78.441322 96.399152 
L 81.515702 96.500601 
L 84.590083 96.60205 
L 87.664463 96.703498 
L 90.738843 96.804947 
L 93.813223 96.906395 
L 96.887603 97.007844 
L 99.961983 97.109292 
L 103.036364 97.210741 
L 106.110744 97.312189 
L 109.185124 97.413638 
L 112.259504 97.515086 
L 115.333884 97.616535 
L 118.408264 97.717983 
L 121.482645 97.819432 
L 124.557025 97.92088 
L 127.631405 98.022329 
L 130.705785 98.123777 
L 133.780165 98.225226 
L 136.854545 98.326674 
L 139.928926 98.428123 
L 143.003306 98.529571 
L 146.077686 98.63102 
L 149.152066 98.732468 
L 152.226446 98.833917 
L 155.300826 98.935365 
L 158.375207 99.036814 
L 161.449587 99.138262 
L 164.523967 99.239711 
L 167.598347 99.34116 
L 170.672727 99.442608 
L 173.747107 99.544057 
L 176.821488 99.645505 
L 179.895868 99.746954 
L 182.970248 99.848402 
L 186.044628 99.949851 
L 189.119008 100.051299 
L 192.193388 100.152748 
L 195.267769 100.254196 
L 198.342149 100.355645 
L 201.416529 100.457093 
L 204.490909 100.558542 
L 207.565289 100.67093 
L 210.639669 100.786482 
L 213.71405 100.903275 
L 216.78843 101.021577 
L 219.86281 101.141242 
L 222.93719 101.262242 
L 226.01157 101.38528 
L 229.08595 101.509998 
L 232.160331 101.636194 
L 235.234711 101.76357 
L 238.309091 101.892337 
L 241.383471 102.022348 
L 244.457851 102.153625 
L 247.532231 102.286282 
L 250.606612 102.420546 
L 253.680992 102.556142 
L 256.755372 102.692799 
L 259.829752 102.830362 
L 262.904132 102.968618 
L 265.978512 103.107859 
L 269.052893 103.247826 
L 272.127273 103.38851 
L 275.201653 103.529847 
L 278.276033 103.67195 
L 281.350413 103.814688 
L 284.424793 103.95834 
L 287.499174 104.102482 
L 290.573554 104.247108 
L 293.647934 104.391988 
L 296.722314 104.537053 
L 299.796694 104.682484 
L 302.871074 104.828399 
L 305.945455 104.97474 
L 309.019835 105.121494 
L 312.094215 105.268637 
L 315.168595 105.415973 
L 318.242975 105.56324 
L 321.317355 105.710848 
L 324.391736 105.858808 
L 327.466116 106.007258 
L 330.540496 106.156282 
L 333.614876 106.305565 
L 336.689256 106.45504 
L 339.763636 106.604411 
L 342.838017 106.75382 
L 345.912397 106.903128 
L 348.986777 107.052451 
L 352.061157 107.202227 
L 355.135537 107.352337 
L 358.209917 107.502504 
L 361.284298 107.652768 
L 364.358678 107.802883 
L 367.433058 107.953465 
L 370.507438 108.104222 
L 373.581818 108.255166 
L 373.581818 104.36246 
L 373.581818 104.36246 
L 370.507438 104.211516 
L 367.433058 104.060759 
L 364.358678 103.910177 
L 361.284298 103.760062 
L 358.209917 103.609798 
L 355.135537 103.459631 
L 352.061157 103.309521 
L 348.986777 103.159745 
L 345.912397 103.010422 
L 342.838017 102.861114 
L 339.763636 102.711705 
L 336.689256 102.562334 
L 333.614876 102.412859 
L 330.540496 102.263576 
L 327.466116 102.114552 
L 324.391736 101.966102 
L 321.317355 101.818142 
L 318.242975 101.670534 
L 315.168595 101.523266 
L 312.094215 101.375931 
L 309.019835 101.228788 
L 305.945455 101.082034 
L 302.871074 100.935693 
L 299.796694 100.789778 
L 296.722314 100.644347 
L 293.647934 100.499282 
L 290.573554 100.354402 
L 287.499174 100.209776 
L 284.424793 100.065634 
L 281.350413 99.921982 
L 278.276033 99.779244 
L 275.201653 99.637141 
L 272.127273 99.495804 
L 269.052893 99.35512 
L 265.978512 99.215153 
L 262.904132 99.075912 
L 259.829752 98.937656 
L 256.755372 98.800093 
L 253.680992 98.663436 
L 250.606612 98.52784 
L 247.532231 98.393576 
L 244.457851 98.260919 
L 241.383471 98.129642 
L 238.309091 97.999631 
L 235.234711 97.870864 
L 232.160331 97.743488 
L 229.08595 97.617292 
L 226.01157 97.492574 
L 222.93719 97.369536 
L 219.86281 97.248536 
L 216.78843 97.128871 
L 213.71405 97.010569 
L 210.639669 96.893776 
L 207.565289 96.778224 
L 204.490909 96.665836 
L 201.416529 96.564387 
L 198.342149 96.462939 
L 195.267769 96.36149 
L 192.193388 96.260042 
L 189.119008 96.158593 
L 186.044628 96.057145 
L 182.970248 95.955696 
L 179.895868 95.854248 
L 176.821488 95.752799 
L 173.747107 95.651351 
L 170.672727 95.549902 
L 167.598347 95.448453 
L 164.523967 95.347005 
L 161.449587 95.245556 
L 158.375207 95.144108 
L 155.300826 95.042659 
L 152.226446 94.941211 
L 149.152066 94.839762 
L 146.077686 94.738314 
L 143.003306 94.636865 
L 139.928926 94.535417 
L 136.854545 94.433968 
L 133.780165 94.33252 
L 130.705785 94.231071 
L 127.631405 94.129623 
L 124.557025 94.028174 
L 121.482645 93.926726 
L 118.408264 93.825277 
L 115.333884 93.723829 
L 112.259504 93.62238 
L 109.185124 93.520932 
L 106.110744 93.419483 
L 103.036364 93.318035 
L 99.961983 93.216586 
L 96.887603 93.115138 
L 93.813223 93.013689 
L 90.738843 92.912241 
L 87.664463 92.810792 
L 84.590083 92.709343 
L 81.515702 92.607895 
L 78.441322 92.506446 
L 75.366942 92.404998 
L 72.292562 92.303549 
L 69.218182 92.202101 
z
" style="fill:#fdd0a2;"/>
   </g>
   <g id="PolyCollection_9">
    <path clip-path="url(#p78d0408d5c)" d="M 69.218182 90.24 
L 69.218182 92.202101 
L 72.292562 92.303549 
L 75.366942 92.404998 
L 78.441322 92.506446 
L 81.515702 92.607895 
L 84.590083 92.709343 
L 87.664463 92.810792 
L 90.738843 92.912241 
L 93.813223 93.013689 
L 96.887603 93.115138 
L 99.961983 93.216586 
L 103.036364 93.318035 
L 106.110744 93.419483 
L 109.185124 93.520932 
L 112.259504 93.62238 
L 115.333884 93.723829 
L 118.408264 93.825277 
L 121.482645 93.926726 
L 124.557025 94.028174 
L 127.631405 94.129623 
L 130.705785 94.231071 
L 133.780165 94.33252 
L 136.854545 94.433968 
L 139.928926 94.535417 
L 143.003306 94.636865 
L 146.077686 94.738314 
L 149.152066 94.839762 
L 152.226446 94.941211 
L 155.300826 95.042659 
L 158.375207 95.144108 
L 161.449587 95.245556 
L 164.523967 95.347005 
L 167.598347 95.448453 
L 170.672727 95.549902 
L 173.747107 95.651351 
L 176.821488 95.752799 
L 179.895868 95.854248 
L 182.970248 95.955696 
L 186.044628 96.057145 
L 189.119008 96.158593 
L 192.193388 96.260042 
L 195.267769 96.36149 
L 198.342149 96.462939 
L 201.416529 96.564387 
L 204.490909 96.665836 
L 207.565289 96.778224 
L 210.639669 96.893776 
L 213.71405 97.010569 
L 216.78843 97.128871 
L 219.86281 97.248536 
L 222.93719 97.369536 
L 226.01157 97.492574 
L 229.08595 97.617292 
L 232.160331 97.743488 
L 235.234711 97.870864 
L 238.309091 97.999631 
L 241.383471 98.129642 
L 244.457851 98.260919 
L 247.532231 98.393576 
L 250.606612 98.52784 
L 253.680992 98.663436 
L 256.755372 98.800093 
L 259.829752 98.937656 
L 262.904132 99.075912 
L 265.978512 99.215153 
L 269.052893 99.35512 
L 272.127273 99.495804 
L 275.201653 99.637141 
L 278.276033 99.779244 
L 281.350413 99.921982 
L 284.424793 100.065634 
L 287.499174 100.209776 
L 290.573554 100.354402 
L 293.647934 100.499282 
L 296.722314 100.644347 
L 299.796694 100.789778 
L 302.871074 100.935693 
L 305.945455 101.082034 
L 309.019835 101.228788 
L 312.094215 101.375931 
L 315.168595 101.523266 
L 318.242975 101.670534 
L 321.317355 101.818142 
L 324.391736 101.966102 
L 327.466116 102.114552 
L 330.540496 102.263576 
L 333.614876 102.412859 
L 336.689256 102.562334 
L 339.763636 102.711705 
L 342.838017 102.861114 
L 345.912397 103.010422 
L 348.986777 103.159745 
L 352.061157 103.309521 
L 355.135537 103.459631 
L 358.209917 103.609798 
L 361.284298 103.760062 
L 364.358678 103.910177 
L 367.433058 104.060759 
L 370.507438 104.211516 
L 373.581818 104.36246 
L 373.581818 104.36246 
L 373.581818 104.36246 
L 370.507438 104.191696 
L 367.433058 104.021121 
L 364.358678 103.85072 
L 361.284298 103.680785 
L 358.209917 103.510702 
L 355.135537 103.340715 
L 352.061157 103.170786 
L 348.986777 103.001191 
L 345.912397 102.83205 
L 342.838017 102.662922 
L 339.763636 102.493694 
L 336.689256 102.324503 
L 333.614876 102.15521 
L 330.540496 101.986108 
L 327.466116 101.817264 
L 324.391736 101.648995 
L 321.317355 101.481216 
L 318.242975 101.313789 
L 315.168595 101.146702 
L 312.094215 100.979547 
L 309.019835 100.812585 
L 305.945455 100.646011 
L 302.871074 100.479852 
L 299.796694 100.314117 
L 296.722314 100.148867 
L 293.647934 99.983983 
L 290.573554 99.819284 
L 287.499174 99.654838 
L 284.424793 99.490877 
L 281.350413 99.327406 
L 278.276033 99.164848 
L 275.201653 99.002927 
L 272.127273 98.84177 
L 269.052893 98.681267 
L 265.978512 98.521481 
L 262.904132 98.362421 
L 259.829752 98.204346 
L 256.755372 98.046963 
L 253.680992 97.890487 
L 250.606612 97.735072 
L 247.532231 97.580989 
L 244.457851 97.428513 
L 241.383471 97.277416 
L 238.309091 97.127586 
L 235.234711 96.979 
L 232.160331 96.831805 
L 229.08595 96.685789 
L 226.01157 96.541252 
L 222.93719 96.398395 
L 219.86281 96.257576 
L 216.78843 96.118091 
L 213.71405 95.979971 
L 210.639669 95.843358 
L 207.565289 95.707987 
L 204.490909 95.57578 
L 201.416529 95.454512 
L 198.342149 95.333244 
L 195.267769 95.211976 
L 192.193388 95.090709 
L 189.119008 94.969441 
L 186.044628 94.848173 
L 182.970248 94.726906 
L 179.895868 94.605638 
L 176.821488 94.48437 
L 173.747107 94.363102 
L 170.672727 94.241835 
L 167.598347 94.120567 
L 164.523967 93.999299 
L 161.449587 93.878032 
L 158.375207 93.756764 
L 155.300826 93.635496 
L 152.226446 93.514228 
L 149.152066 93.392961 
L 146.077686 93.271693 
L 143.003306 93.150425 
L 139.928926 93.029158 
L 136.854545 92.90789 
L 133.780165 92.786622 
L 130.705785 92.665354 
L 127.631405 92.544087 
L 124.557025 92.422819 
L 121.482645 92.301551 
L 118.408264 92.180284 
L 115.333884 92.059016 
L 112.259504 91.937748 
L 109.185124 91.81648 
L 106.110744 91.695213 
L 103.036364 91.573945 
L 99.961983 91.452677 
L 96.887603 91.331409 
L 93.813223 91.210142 
L 90.738843 91.088874 
L 87.664463 90.967606 
L 84.590083 90.846339 
L 81.515702 90.725071 
L 78.441322 90.603803 
L 75.366942 90.482535 
L 72.292562 90.361268 
L 69.218182 90.24 
z
" style="fill:#31a354;"/>
   </g>
   <g id="PolyCollection_10">
    <path clip-path="url(#p78d0408d5c)" d="M 69.218182 90.24 
L 69.218182 90.24 
L 72.292562 90.361268 
L 75.366942 90.482535 
L 78.441322 90.603803 
L 81.515702 90.725071 
L 84.590083 90.846339 
L 87.664463 90.967606 
L 90.738843 91.088874 
L 93.813223 91.210142 
L 96.887603 91.331409 
L 99.961983 91.452677 
L 103.036364 91.573945 
L 106.110744 91.695213 
L 109.185124 91.81648 
L 112.259504 91.937748 
L 115.333884 92.059016 
L 118.408264 92.180284 
L 121.482645 92.301551 
L 124.557025 92.422819 
L 127.631405 92.544087 
L 130.705785 92.665354 
L 133.780165 92.786622 
L 136.854545 92.90789 
L 139.928926 93.029158 
L 143.003306 93.150425 
L 146.077686 93.271693 
L 149.152066 93.392961 
L 152.226446 93.514228 
L 155.300826 93.635496 
L 158.375207 93.756764 
L 161.449587 93.878032 
L 164.523967 93.999299 
L 167.598347 94.120567 
L 170.672727 94.241835 
L 173.747107 94.363102 
L 176.821488 94.48437 
L 179.895868 94.605638 
L 182.970248 94.726906 
L 186.044628 94.848173 
L 189.119008 94.969441 
L 192.193388 95.090709 
L 195.267769 95.211976 
L 198.342149 95.333244 
L 201.416529 95.454512 
L 204.490909 95.57578 
L 207.565289 95.707987 
L 210.639669 95.843358 
L 213.71405 95.979971 
L 216.78843 96.118091 
L 219.86281 96.257576 
L 222.93719 96.398395 
L 226.01157 96.541252 
L 229.08595 96.685789 
L 232.160331 96.831805 
L 235.234711 96.979 
L 238.309091 97.127586 
L 241.383471 97.277416 
L 244.457851 97.428513 
L 247.532231 97.580989 
L 250.606612 97.735072 
L 253.680992 97.890487 
L 256.755372 98.046963 
L 259.829752 98.204346 
L 262.904132 98.362421 
L 265.978512 98.521481 
L 269.052893 98.681267 
L 272.127273 98.84177 
L 275.201653 99.002927 
L 278.276033 99.164848 
L 281.350413 99.327406 
L 284.424793 99.490877 
L 287.499174 99.654838 
L 290.573554 99.819284 
L 293.647934 99.983983 
L 296.722314 100.148867 
L 299.796694 100.314117 
L 302.871074 100.479852 
L 305.945455 100.646011 
L 309.019835 100.812585 
L 312.094215 100.979547 
L 315.168595 101.146702 
L 318.242975 101.313789 
L 321.317355 101.481216 
L 324.391736 101.648995 
L 327.466116 101.817264 
L 330.540496 101.986108 
L 333.614876 102.15521 
L 336.689256 102.324503 
L 339.763636 102.493694 
L 342.838017 102.662922 
L 345.912397 102.83205 
L 348.986777 103.001191 
L 352.061157 103.170786 
L 355.135537 103.340715 
L 358.209917 103.510702 
L 361.284298 103.680785 
L 364.358678 103.85072 
L 367.433058 104.021121 
L 370.507438 104.191696 
L 373.581818 104.36246 
L 373.581818 102.120477 
L 373.581818 102.120477 
L 370.507438 101.97236 
L 367.433058 101.824431 
L 364.358678 101.676676 
L 361.284298 101.529387 
L 358.209917 101.38195 
L 355.135537 101.23461 
L 352.061157 101.087327 
L 348.986777 100.940379 
L 345.912397 100.793883 
L 342.838017 100.647402 
L 339.763636 100.50082 
L 336.689256 100.354276 
L 333.614876 100.207629 
L 330.540496 100.061173 
L 327.466116 99.914976 
L 324.391736 99.769353 
L 321.317355 99.62422 
L 318.242975 99.479439 
L 315.168595 99.334998 
L 312.094215 99.19049 
L 309.019835 99.046174 
L 305.945455 98.902247 
L 302.871074 98.758734 
L 299.796694 98.615645 
L 296.722314 98.473042 
L 293.647934 98.330804 
L 290.573554 98.188751 
L 287.499174 98.046952 
L 284.424793 97.905637 
L 281.350413 97.764812 
L 278.276033 97.624901 
L 275.201653 97.485625 
L 272.127273 97.347115 
L 269.052893 97.209258 
L 265.978512 97.072119 
L 262.904132 96.935704 
L 259.829752 96.800276 
L 256.755372 96.66554 
L 253.680992 96.53171 
L 250.606612 96.398941 
L 247.532231 96.267504 
L 244.457851 96.137674 
L 241.383471 96.009224 
L 238.309091 95.88204 
L 235.234711 95.7561 
L 232.160331 95.631552 
L 229.08595 95.508182 
L 226.01157 95.386291 
L 222.93719 95.26608 
L 219.86281 95.147908 
L 216.78843 95.031069 
L 213.71405 94.915595 
L 210.639669 94.801629 
L 207.565289 94.688904 
L 204.490909 94.579343 
L 201.416529 94.480721 
L 198.342149 94.3821 
L 195.267769 94.283479 
L 192.193388 94.184857 
L 189.119008 94.086236 
L 186.044628 93.987614 
L 182.970248 93.888993 
L 179.895868 93.790371 
L 176.821488 93.69175 
L 173.747107 93.593129 
L 170.672727 93.494507 
L 167.598347 93.395886 
L 164.523967 93.297264 
L 161.449587 93.198643 
L 158.375207 93.100021 
L 155.300826 93.0014 
L 152.226446 92.902779 
L 149.152066 92.804157 
L 146.077686 92.705536 
L 143.003306 92.606914 
L 139.928926 92.508293 
L 136.854545 92.409671 
L 133.780165 92.31105 
L 130.705785 92.212429 
L 127.631405 92.113807 
L 124.557025 92.015186 
L 121.482645 91.916564 
L 118.408264 91.817943 
L 115.333884 91.719321 
L 112.259504 91.6207 
L 109.185124 91.522079 
L 106.110744 91.423457 
L 103.036364 91.324836 
L 99.961983 91.226214 
L 96.887603 91.127593 
L 93.813223 91.028971 
L 90.738843 90.93035 
L 87.664463 90.831729 
L 84.590083 90.733107 
L 81.515702 90.634486 
L 78.441322 90.535864 
L 75.366942 90.437243 
L 72.292562 90.338621 
L 69.218182 90.24 
z
" style="fill:#74c476;"/>
   </g>
   <g id="PolyCollection_11">
    <path clip-path="url(#p78d0408d5c)" d="M 69.218182 90.24 
L 69.218182 90.24 
L 72.292562 90.338621 
L 75.366942 90.437243 
L 78.441322 90.535864 
L 81.515702 90.634486 
L 84.590083 90.733107 
L 87.664463 90.831729 
L 90.738843 90.93035 
L 93.813223 91.028971 
L 96.887603 91.127593 
L 99.961983 91.226214 
L 103.036364 91.324836 
L 106.110744 91.423457 
L 109.185124 91.522079 
L 112.259504 91.6207 
L 115.333884 91.719321 
L 118.408264 91.817943 
L 121.482645 91.916564 
L 124.557025 92.015186 
L 127.631405 92.113807 
L 130.705785 92.212429 
L 133.780165 92.31105 
L 136.854545 92.409671 
L 139.928926 92.508293 
L 143.003306 92.606914 
L 146.077686 92.705536 
L 149.152066 92.804157 
L 152.226446 92.902779 
L 155.300826 93.0014 
L 158.375207 93.100021 
L 161.449587 93.198643 
L 164.523967 93.297264 
L 167.598347 93.395886 
L 170.672727 93.494507 
L 173.747107 93.593129 
L 176.821488 93.69175 
L 179.895868 93.790371 
L 182.970248 93.888993 
L 186.044628 93.987614 
L 189.119008 94.086236 
L 192.193388 94.184857 
L 195.267769 94.283479 
L 198.342149 94.3821 
L 201.416529 94.480721 
L 204.490909 94.579343 
L 207.565289 94.688904 
L 210.639669 94.801629 
L 213.71405 94.915595 
L 216.78843 95.031069 
L 219.86281 95.147908 
L 222.93719 95.26608 
L 226.01157 95.386291 
L 229.08595 95.508182 
L 232.160331 95.631552 
L 235.234711 95.7561 
L 238.309091 95.88204 
L 241.383471 96.009224 
L 244.457851 96.137674 
L 247.532231 96.267504 
L 250.606612 96.398941 
L 253.680992 96.53171 
L 256.755372 96.66554 
L 259.829752 96.800276 
L 262.904132 96.935704 
L 265.978512 97.072119 
L 269.052893 97.209258 
L 272.127273 97.347115 
L 275.201653 97.485625 
L 278.276033 97.624901 
L 281.350413 97.764812 
L 284.424793 97.905637 
L 287.499174 98.046952 
L 290.573554 98.188751 
L 293.647934 98.330804 
L 296.722314 98.473042 
L 299.796694 98.615645 
L 302.871074 98.758734 
L 305.945455 98.902247 
L 309.019835 99.046174 
L 312.094215 99.19049 
L 315.168595 99.334998 
L 318.242975 99.479439 
L 321.317355 99.62422 
L 324.391736 99.769353 
L 327.466116 99.914976 
L 330.540496 100.061173 
L 333.614876 100.207629 
L 336.689256 100.354276 
L 339.763636 100.50082 
L 342.838017 100.647402 
L 345.912397 100.793883 
L 348.986777 100.940379 
L 352.061157 101.087327 
L 355.135537 101.23461 
L 358.209917 101.38195 
L 361.284298 101.529387 
L 364.358678 101.676676 
L 367.433058 101.824431 
L 370.507438 101.97236 
L 373.581818 102.120477 
L 373.581818 99.827782 
L 373.581818 99.827782 
L 370.507438 99.702824 
L 367.433058 99.578053 
L 364.358678 99.453456 
L 361.284298 99.329326 
L 358.209917 99.205048 
L 355.135537 99.080867 
L 352.061157 98.956742 
L 348.986777 98.832952 
L 345.912397 98.709615 
L 342.838017 98.586293 
L 339.763636 98.462869 
L 336.689256 98.339483 
L 333.614876 98.215995 
L 330.540496 98.092697 
L 327.466116 97.969659 
L 324.391736 97.847194 
L 321.317355 97.72522 
L 318.242975 97.603598 
L 315.168595 97.482316 
L 312.094215 97.360965 
L 309.019835 97.239809 
L 305.945455 97.11904 
L 302.871074 96.998685 
L 299.796694 96.878755 
L 296.722314 96.75931 
L 293.647934 96.640231 
L 290.573554 96.521336 
L 287.499174 96.402696 
L 284.424793 96.284539 
L 281.350413 96.166873 
L 278.276033 96.05012 
L 275.201653 95.934003 
L 272.127273 95.818652 
L 269.052893 95.703953 
L 265.978512 95.589973 
L 262.904132 95.476717 
L 259.829752 95.364447 
L 256.755372 95.252869 
L 253.680992 95.142198 
L 250.606612 95.032588 
L 247.532231 94.924309 
L 244.457851 94.817638 
L 241.383471 94.712346 
L 238.309091 94.608321 
L 235.234711 94.505539 
L 232.160331 94.404149 
L 229.08595 94.303939 
L 226.01157 94.205206 
L 222.93719 94.108153 
L 219.86281 94.01314 
L 216.78843 93.91946 
L 213.71405 93.827144 
L 210.639669 93.736336 
L 207.565289 93.64677 
L 204.490909 93.560367 
L 201.416529 93.484904 
L 198.342149 93.409442 
L 195.267769 93.333979 
L 192.193388 93.258516 
L 189.119008 93.183053 
L 186.044628 93.10759 
L 182.970248 93.032127 
L 179.895868 92.956664 
L 176.821488 92.881201 
L 173.747107 92.805738 
L 170.672727 92.730276 
L 167.598347 92.654813 
L 164.523967 92.57935 
L 161.449587 92.503887 
L 158.375207 92.428424 
L 155.300826 92.352961 
L 152.226446 92.277498 
L 149.152066 92.202035 
L 146.077686 92.126572 
L 143.003306 92.051109 
L 139.928926 91.975647 
L 136.854545 91.900184 
L 133.780165 91.824721 
L 130.705785 91.749258 
L 127.631405 91.673795 
L 124.557025 91.598332 
L 121.482645 91.522869 
L 118.408264 91.447406 
L 115.333884 91.371943 
L 112.259504 91.296481 
L 109.185124 91.221018 
L 106.110744 91.145555 
L 103.036364 91.070092 
L 99.961983 90.994629 
L 96.887603 90.919166 
L 93.813223 90.843703 
L 90.738843 90.76824 
L 87.664463 90.692777 
L 84.590083 90.617314 
L 81.515702 90.541852 
L 78.441322 90.466389 
L 75.366942 90.390926 
L 72.292562 90.315463 
L 69.218182 90.24 
z
" style="fill:#a1d99b;"/>
   </g>
   <g id="matplotlib.axis_1">
    <g id="xtick_1">
     <g id="line2d_1">
      <defs>
       <path d="M 0 0 
L 0 3.5 
" id="md5ee2c9b4e" style="stroke:#000000;stroke-width:0.8;"/>
      </defs>
      <g>
       <use style="stroke:#000000;stroke-width:0.8;" x="69.218182" xlink:href="#md5ee2c9b4e" y="512.64"/>
      </g>
     </g>
     <g id="text_1">
      <!-- 0 -->
      <g transform="translate(66.036932 527.238438)scale(0.1 -0.1)">
       <defs>
        <path d="M 2034 4250 
Q 1547 4250 1301 3770 
Q 1056 3291 1056 2328 
Q 1056 1369 1301 889 
Q 1547 409 2034 409 
Q 2525 409 2770 889 
Q 3016 1369 3016 2328 
Q 3016 3291 2770 3770 
Q 2525 4250 2034 4250 
z
M 2034 4750 
Q 2819 4750 3233 4129 
Q 3647 3509 3647 2328 
Q 3647 1150 3233 529 
Q 2819 -91 2034 -91 
Q 1250 -91 836 529 
Q 422 1150 422 2328 
Q 422 3509 836 4129 
Q 1250 4750 2034 4750 
z
" id="DejaVuSans-30" transform="scale(0.015625)"/>
       </defs>
       <use xlink:href="#DejaVuSans-30"/>
      </g>
     </g>
    </g>
    <g id="xtick_2">
     <g id="line2d_2">
      <g>
       <use style="stroke:#000000;stroke-width:0.8;" x="130.090909" xlink:href="#md5ee2c9b4e" y="512.64"/>
      </g>
     </g>
     <g id="text_2">
      <!-- 20 -->
      <g transform="translate(123.728409 527.238438)scale(0.1 -0.1)">
       <defs>
        <path d="M 1228 531 
L 3431 531 
L 3431 0 
L 469 0 
L 469 531 
Q 828 903 1448 1529 
Q 2069 2156 2228 2338 
Q 2531 2678 2651 2914 
Q 2772 3150 2772 3378 
Q 2772 3750 2511 3984 
Q 2250 4219 1831 4219 
Q 1534 4219 1204 4116 
Q 875 4013 500 3803 
L 500 4441 
Q 881 4594 1212 4672 
Q 1544 4750 1819 4750 
Q 2544 4750 2975 4387 
Q 3406 4025 3406 3419 
Q 3406 3131 3298 2873 
Q 3191 2616 2906 2266 
Q 2828 2175 2409 1742 
Q 1991 1309 1228 531 
z
" id="DejaVuSans-32" transform="scale(0.015625)"/>
       </defs>
       <use xlink:href="#DejaVuSans-32"/>
       <use x="63.623047" xlink:href="#DejaVuSans-30"/>
      </g>
     </g>
    </g>
    <g id="xtick_3">
     <g id="line2d_3">
      <g>
       <use style="stroke:#000000;stroke-width:0.8;" x="190.963636" xlink:href="#md5ee2c9b4e" y="512.64"/>
      </g>
     </g>
     <g id="text_3">
      <!-- 40 -->
      <g transform="translate(184.601136 527.238438)scale(0.1 -0.1)">
       <defs>
        <path d="M 2419 4116 
L 825 1625 
L 2419 1625 
L 2419 4116 
z
M 2253 4666 
L 3047 4666 
L 3047 1625 
L 3713 1625 
L 3713 1100 
L 3047 1100 
L 3047 0 
L 2419 0 
L 2419 1100 
L 313 1100 
L 313 1709 
L 2253 4666 
z
" id="DejaVuSans-34" transform="scale(0.015625)"/>
       </defs>
       <use xlink:href="#DejaVuSans-34"/>
       <use x="63.623047" xlink:href="#DejaVuSans-30"/>
      </g>
     </g>
    </g>
    <g id="xtick_4">
     <g id="line2d_4">
      <g>
       <use style="stroke:#000000;stroke-width:0.8;" x="251.836364" xlink:href="#md5ee2c9b4e" y="512.64"/>
      </g>
     </g>
     <g id="text_4">
      <!-- 60 -->
      <g transform="translate(245.473864 527.238438)scale(0.1 -0.1)">
       <defs>
        <path d="M 2113 2584 
Q 1688 2584 1439 2293 
Q 1191 2003 1191 1497 
Q 1191 994 1439 701 
Q 1688 409 2113 409 
Q 2538 409 2786 701 
Q 3034 994 3034 1497 
Q 3034 2003 2786 2293 
Q 2538 2584 2113 2584 
z
M 3366 4563 
L 3366 3988 
Q 3128 4100 2886 4159 
Q 2644 4219 2406 4219 
Q 1781 4219 1451 3797 
Q 1122 3375 1075 2522 
Q 1259 2794 1537 2939 
Q 1816 3084 2150 3084 
Q 2853 3084 3261 2657 
Q 3669 2231 3669 1497 
Q 3669 778 3244 343 
Q 2819 -91 2113 -91 
Q 1303 -91 875 529 
Q 447 1150 447 2328 
Q 447 3434 972 4092 
Q 1497 4750 2381 4750 
Q 2619 4750 2861 4703 
Q 3103 4656 3366 4563 
z
" id="DejaVuSans-36" transform="scale(0.015625)"/>
       </defs>
       <use xlink:href="#DejaVuSans-36"/>
       <use x="63.623047" xlink:href="#DejaVuSans-30"/>
      </g>
     </g>
    </g>
    <g id="xtick_5">
     <g id="line2d_5">
      <g>
       <use style="stroke:#000000;stroke-width:0.8;" x="312.709091" xlink:href="#md5ee2c9b4e" y="512.64"/>
      </g>
     </g>
     <g id="text_5">
      <!-- 80 -->
      <g transform="translate(306.346591 527.238438)scale(0.1 -0.1)">
       <defs>
        <path d="M 2034 2216 
Q 1584 2216 1326 1975 
Q 1069 1734 1069 1313 
Q 1069 891 1326 650 
Q 1584 409 2034 409 
Q 2484 409 2743 651 
Q 3003 894 3003 1313 
Q 3003 1734 2745 1975 
Q 2488 2216 2034 2216 
z
M 1403 2484 
Q 997 2584 770 2862 
Q 544 3141 544 3541 
Q 544 4100 942 4425 
Q 1341 4750 2034 4750 
Q 2731 4750 3128 4425 
Q 3525 4100 3525 3541 
Q 3525 3141 3298 2862 
Q 3072 2584 2669 2484 
Q 3125 2378 3379 2068 
Q 3634 1759 3634 1313 
Q 3634 634 3220 271 
Q 2806 -91 2034 -91 
Q 1263 -91 848 271 
Q 434 634 434 1313 
Q 434 1759 690 2068 
Q 947 2378 1403 2484 
z
M 1172 3481 
Q 1172 3119 1398 2916 
Q 1625 2713 2034 2713 
Q 2441 2713 2670 2916 
Q 2900 3119 2900 3481 
Q 2900 3844 2670 4047 
Q 2441 4250 2034 4250 
Q 1625 4250 1398 4047 
Q 1172 3844 1172 3481 
z
" id="DejaVuSans-38" transform="scale(0.015625)"/>
       </defs>
       <use xlink:href="#DejaVuSans-38"/>
       <use x="63.623047" xlink:href="#DejaVuSans-30"/>
      </g>
     </g>
    </g>
    <g id="xtick_6">
     <g id="line2d_6">
      <g>
       <use style="stroke:#000000;stroke-width:0.8;" x="373.581818" xlink:href="#md5ee2c9b4e" y="512.64"/>
      </g>
     </g>
     <g id="text_6">
      <!-- 100 -->
      <g transform="translate(364.038068 527.238438)scale(0.1 -0.1)">
       <defs>
        <path d="M 794 531 
L 1825 531 
L 1825 4091 
L 703 3866 
L 703 4441 
L 1819 4666 
L 2450 4666 
L 2450 531 
L 3481 531 
L 3481 0 
L 794 0 
L 794 531 
z
" id="DejaVuSans-31" transform="scale(0.015625)"/>
       </defs>
       <use xlink:href="#DejaVuSans-31"/>
       <use x="63.623047" xlink:href="#DejaVuSans-30"/>
       <use x="127.246094" xlink:href="#DejaVuSans-30"/>
      </g>
     </g>
    </g>
    <g id="text_7">
     <!-- Proportion of New Technology in Grid (%) -->
     <g transform="translate(118.632031 540.916563)scale(0.1 -0.1)">
      <defs>
       <path d="M 1259 4147 
L 1259 2394 
L 2053 2394 
Q 2494 2394 2734 2622 
Q 2975 2850 2975 3272 
Q 2975 3691 2734 3919 
Q 2494 4147 2053 4147 
L 1259 4147 
z
M 628 4666 
L 2053 4666 
Q 2838 4666 3239 4311 
Q 3641 3956 3641 3272 
Q 3641 2581 3239 2228 
Q 2838 1875 2053 1875 
L 1259 1875 
L 1259 0 
L 628 0 
L 628 4666 
z
" id="DejaVuSans-50" transform="scale(0.015625)"/>
       <path d="M 2631 2963 
Q 2534 3019 2420 3045 
Q 2306 3072 2169 3072 
Q 1681 3072 1420 2755 
Q 1159 2438 1159 1844 
L 1159 0 
L 581 0 
L 581 3500 
L 1159 3500 
L 1159 2956 
Q 1341 3275 1631 3429 
Q 1922 3584 2338 3584 
Q 2397 3584 2469 3576 
Q 2541 3569 2628 3553 
L 2631 2963 
z
" id="DejaVuSans-72" transform="scale(0.015625)"/>
       <path d="M 1959 3097 
Q 1497 3097 1228 2736 
Q 959 2375 959 1747 
Q 959 1119 1226 758 
Q 1494 397 1959 397 
Q 2419 397 2687 759 
Q 2956 1122 2956 1747 
Q 2956 2369 2687 2733 
Q 2419 3097 1959 3097 
z
M 1959 3584 
Q 2709 3584 3137 3096 
Q 3566 2609 3566 1747 
Q 3566 888 3137 398 
Q 2709 -91 1959 -91 
Q 1206 -91 779 398 
Q 353 888 353 1747 
Q 353 2609 779 3096 
Q 1206 3584 1959 3584 
z
" id="DejaVuSans-6f" transform="scale(0.015625)"/>
       <path d="M 1159 525 
L 1159 -1331 
L 581 -1331 
L 581 3500 
L 1159 3500 
L 1159 2969 
Q 1341 3281 1617 3432 
Q 1894 3584 2278 3584 
Q 2916 3584 3314 3078 
Q 3713 2572 3713 1747 
Q 3713 922 3314 415 
Q 2916 -91 2278 -91 
Q 1894 -91 1617 61 
Q 1341 213 1159 525 
z
M 3116 1747 
Q 3116 2381 2855 2742 
Q 2594 3103 2138 3103 
Q 1681 3103 1420 2742 
Q 1159 2381 1159 1747 
Q 1159 1113 1420 752 
Q 1681 391 2138 391 
Q 2594 391 2855 752 
Q 3116 1113 3116 1747 
z
" id="DejaVuSans-70" transform="scale(0.015625)"/>
       <path d="M 1172 4494 
L 1172 3500 
L 2356 3500 
L 2356 3053 
L 1172 3053 
L 1172 1153 
Q 1172 725 1289 603 
Q 1406 481 1766 481 
L 2356 481 
L 2356 0 
L 1766 0 
Q 1100 0 847 248 
Q 594 497 594 1153 
L 594 3053 
L 172 3053 
L 172 3500 
L 594 3500 
L 594 4494 
L 1172 4494 
z
" id="DejaVuSans-74" transform="scale(0.015625)"/>
       <path d="M 603 3500 
L 1178 3500 
L 1178 0 
L 603 0 
L 603 3500 
z
M 603 4863 
L 1178 4863 
L 1178 4134 
L 603 4134 
L 603 4863 
z
" id="DejaVuSans-69" transform="scale(0.015625)"/>
       <path d="M 3513 2113 
L 3513 0 
L 2938 0 
L 2938 2094 
Q 2938 2591 2744 2837 
Q 2550 3084 2163 3084 
Q 1697 3084 1428 2787 
Q 1159 2491 1159 1978 
L 1159 0 
L 581 0 
L 581 3500 
L 1159 3500 
L 1159 2956 
Q 1366 3272 1645 3428 
Q 1925 3584 2291 3584 
Q 2894 3584 3203 3211 
Q 3513 2838 3513 2113 
z
" id="DejaVuSans-6e" transform="scale(0.015625)"/>
       <path id="DejaVuSans-20" transform="scale(0.015625)"/>
       <path d="M 2375 4863 
L 2375 4384 
L 1825 4384 
Q 1516 4384 1395 4259 
Q 1275 4134 1275 3809 
L 1275 3500 
L 2222 3500 
L 2222 3053 
L 1275 3053 
L 1275 0 
L 697 0 
L 697 3053 
L 147 3053 
L 147 3500 
L 697 3500 
L 697 3744 
Q 697 4328 969 4595 
Q 1241 4863 1831 4863 
L 2375 4863 
z
" id="DejaVuSans-66" transform="scale(0.015625)"/>
       <path d="M 628 4666 
L 1478 4666 
L 3547 763 
L 3547 4666 
L 4159 4666 
L 4159 0 
L 3309 0 
L 1241 3903 
L 1241 0 
L 628 0 
L 628 4666 
z
" id="DejaVuSans-4e" transform="scale(0.015625)"/>
       <path d="M 3597 1894 
L 3597 1613 
L 953 1613 
Q 991 1019 1311 708 
Q 1631 397 2203 397 
Q 2534 397 2845 478 
Q 3156 559 3463 722 
L 3463 178 
Q 3153 47 2828 -22 
Q 2503 -91 2169 -91 
Q 1331 -91 842 396 
Q 353 884 353 1716 
Q 353 2575 817 3079 
Q 1281 3584 2069 3584 
Q 2775 3584 3186 3129 
Q 3597 2675 3597 1894 
z
M 3022 2063 
Q 3016 2534 2758 2815 
Q 2500 3097 2075 3097 
Q 1594 3097 1305 2825 
Q 1016 2553 972 2059 
L 3022 2063 
z
" id="DejaVuSans-65" transform="scale(0.015625)"/>
       <path d="M 269 3500 
L 844 3500 
L 1563 769 
L 2278 3500 
L 2956 3500 
L 3675 769 
L 4391 3500 
L 4966 3500 
L 4050 0 
L 3372 0 
L 2619 2869 
L 1863 0 
L 1184 0 
L 269 3500 
z
" id="DejaVuSans-77" transform="scale(0.015625)"/>
       <path d="M -19 4666 
L 3928 4666 
L 3928 4134 
L 2272 4134 
L 2272 0 
L 1638 0 
L 1638 4134 
L -19 4134 
L -19 4666 
z
" id="DejaVuSans-54" transform="scale(0.015625)"/>
       <path d="M 3122 3366 
L 3122 2828 
Q 2878 2963 2633 3030 
Q 2388 3097 2138 3097 
Q 1578 3097 1268 2742 
Q 959 2388 959 1747 
Q 959 1106 1268 751 
Q 1578 397 2138 397 
Q 2388 397 2633 464 
Q 2878 531 3122 666 
L 3122 134 
Q 2881 22 2623 -34 
Q 2366 -91 2075 -91 
Q 1284 -91 818 406 
Q 353 903 353 1747 
Q 353 2603 823 3093 
Q 1294 3584 2113 3584 
Q 2378 3584 2631 3529 
Q 2884 3475 3122 3366 
z
" id="DejaVuSans-63" transform="scale(0.015625)"/>
       <path d="M 3513 2113 
L 3513 0 
L 2938 0 
L 2938 2094 
Q 2938 2591 2744 2837 
Q 2550 3084 2163 3084 
Q 1697 3084 1428 2787 
Q 1159 2491 1159 1978 
L 1159 0 
L 581 0 
L 581 4863 
L 1159 4863 
L 1159 2956 
Q 1366 3272 1645 3428 
Q 1925 3584 2291 3584 
Q 2894 3584 3203 3211 
Q 3513 2838 3513 2113 
z
" id="DejaVuSans-68" transform="scale(0.015625)"/>
       <path d="M 603 4863 
L 1178 4863 
L 1178 0 
L 603 0 
L 603 4863 
z
" id="DejaVuSans-6c" transform="scale(0.015625)"/>
       <path d="M 2906 1791 
Q 2906 2416 2648 2759 
Q 2391 3103 1925 3103 
Q 1463 3103 1205 2759 
Q 947 2416 947 1791 
Q 947 1169 1205 825 
Q 1463 481 1925 481 
Q 2391 481 2648 825 
Q 2906 1169 2906 1791 
z
M 3481 434 
Q 3481 -459 3084 -895 
Q 2688 -1331 1869 -1331 
Q 1566 -1331 1297 -1286 
Q 1028 -1241 775 -1147 
L 775 -588 
Q 1028 -725 1275 -790 
Q 1522 -856 1778 -856 
Q 2344 -856 2625 -561 
Q 2906 -266 2906 331 
L 2906 616 
Q 2728 306 2450 153 
Q 2172 0 1784 0 
Q 1141 0 747 490 
Q 353 981 353 1791 
Q 353 2603 747 3093 
Q 1141 3584 1784 3584 
Q 2172 3584 2450 3431 
Q 2728 3278 2906 2969 
L 2906 3500 
L 3481 3500 
L 3481 434 
z
" id="DejaVuSans-67" transform="scale(0.015625)"/>
       <path d="M 2059 -325 
Q 1816 -950 1584 -1140 
Q 1353 -1331 966 -1331 
L 506 -1331 
L 506 -850 
L 844 -850 
Q 1081 -850 1212 -737 
Q 1344 -625 1503 -206 
L 1606 56 
L 191 3500 
L 800 3500 
L 1894 763 
L 2988 3500 
L 3597 3500 
L 2059 -325 
z
" id="DejaVuSans-79" transform="scale(0.015625)"/>
       <path d="M 3809 666 
L 3809 1919 
L 2778 1919 
L 2778 2438 
L 4434 2438 
L 4434 434 
Q 4069 175 3628 42 
Q 3188 -91 2688 -91 
Q 1594 -91 976 548 
Q 359 1188 359 2328 
Q 359 3472 976 4111 
Q 1594 4750 2688 4750 
Q 3144 4750 3555 4637 
Q 3966 4525 4313 4306 
L 4313 3634 
Q 3963 3931 3569 4081 
Q 3175 4231 2741 4231 
Q 1884 4231 1454 3753 
Q 1025 3275 1025 2328 
Q 1025 1384 1454 906 
Q 1884 428 2741 428 
Q 3075 428 3337 486 
Q 3600 544 3809 666 
z
" id="DejaVuSans-47" transform="scale(0.015625)"/>
       <path d="M 2906 2969 
L 2906 4863 
L 3481 4863 
L 3481 0 
L 2906 0 
L 2906 525 
Q 2725 213 2448 61 
Q 2172 -91 1784 -91 
Q 1150 -91 751 415 
Q 353 922 353 1747 
Q 353 2572 751 3078 
Q 1150 3584 1784 3584 
Q 2172 3584 2448 3432 
Q 2725 3281 2906 2969 
z
M 947 1747 
Q 947 1113 1208 752 
Q 1469 391 1925 391 
Q 2381 391 2643 752 
Q 2906 1113 2906 1747 
Q 2906 2381 2643 2742 
Q 2381 3103 1925 3103 
Q 1469 3103 1208 2742 
Q 947 2381 947 1747 
z
" id="DejaVuSans-64" transform="scale(0.015625)"/>
       <path d="M 1984 4856 
Q 1566 4138 1362 3434 
Q 1159 2731 1159 2009 
Q 1159 1288 1364 580 
Q 1569 -128 1984 -844 
L 1484 -844 
Q 1016 -109 783 600 
Q 550 1309 550 2009 
Q 550 2706 781 3412 
Q 1013 4119 1484 4856 
L 1984 4856 
z
" id="DejaVuSans-28" transform="scale(0.015625)"/>
       <path d="M 4653 2053 
Q 4381 2053 4226 1822 
Q 4072 1591 4072 1178 
Q 4072 772 4226 539 
Q 4381 306 4653 306 
Q 4919 306 5073 539 
Q 5228 772 5228 1178 
Q 5228 1588 5073 1820 
Q 4919 2053 4653 2053 
z
M 4653 2450 
Q 5147 2450 5437 2106 
Q 5728 1763 5728 1178 
Q 5728 594 5436 251 
Q 5144 -91 4653 -91 
Q 4153 -91 3862 251 
Q 3572 594 3572 1178 
Q 3572 1766 3864 2108 
Q 4156 2450 4653 2450 
z
M 1428 4353 
Q 1159 4353 1004 4120 
Q 850 3888 850 3481 
Q 850 3069 1003 2837 
Q 1156 2606 1428 2606 
Q 1700 2606 1854 2837 
Q 2009 3069 2009 3481 
Q 2009 3884 1853 4118 
Q 1697 4353 1428 4353 
z
M 4250 4750 
L 4750 4750 
L 1831 -91 
L 1331 -91 
L 4250 4750 
z
M 1428 4750 
Q 1922 4750 2215 4408 
Q 2509 4066 2509 3481 
Q 2509 2891 2217 2550 
Q 1925 2209 1428 2209 
Q 931 2209 642 2551 
Q 353 2894 353 3481 
Q 353 4063 643 4406 
Q 934 4750 1428 4750 
z
" id="DejaVuSans-25" transform="scale(0.015625)"/>
       <path d="M 513 4856 
L 1013 4856 
Q 1481 4119 1714 3412 
Q 1947 2706 1947 2009 
Q 1947 1309 1714 600 
Q 1481 -109 1013 -844 
L 513 -844 
Q 928 -128 1133 580 
Q 1338 1288 1338 2009 
Q 1338 2731 1133 3434 
Q 928 4138 513 4856 
z
" id="DejaVuSans-29" transform="scale(0.015625)"/>
      </defs>
      <use xlink:href="#DejaVuSans-50"/>
      <use x="58.552734" xlink:href="#DejaVuSans-72"/>
      <use x="97.416016" xlink:href="#DejaVuSans-6f"/>
      <use x="158.597656" xlink:href="#DejaVuSans-70"/>
      <use x="222.074219" xlink:href="#DejaVuSans-6f"/>
      <use x="283.255859" xlink:href="#DejaVuSans-72"/>
      <use x="324.369141" xlink:href="#DejaVuSans-74"/>
      <use x="363.578125" xlink:href="#DejaVuSans-69"/>
      <use x="391.361328" xlink:href="#DejaVuSans-6f"/>
      <use x="452.542969" xlink:href="#DejaVuSans-6e"/>
      <use x="515.921875" xlink:href="#DejaVuSans-20"/>
      <use x="547.708984" xlink:href="#DejaVuSans-6f"/>
      <use x="608.890625" xlink:href="#DejaVuSans-66"/>
      <use x="644.095703" xlink:href="#DejaVuSans-20"/>
      <use x="675.882812" xlink:href="#DejaVuSans-4e"/>
      <use x="750.6875" xlink:href="#DejaVuSans-65"/>
      <use x="812.210938" xlink:href="#DejaVuSans-77"/>
      <use x="893.998047" xlink:href="#DejaVuSans-20"/>
      <use x="925.785156" xlink:href="#DejaVuSans-54"/>
      <use x="969.869141" xlink:href="#DejaVuSans-65"/>
      <use x="1031.392578" xlink:href="#DejaVuSans-63"/>
      <use x="1086.373047" xlink:href="#DejaVuSans-68"/>
      <use x="1149.751953" xlink:href="#DejaVuSans-6e"/>
      <use x="1213.130859" xlink:href="#DejaVuSans-6f"/>
      <use x="1274.3125" xlink:href="#DejaVuSans-6c"/>
      <use x="1302.095703" xlink:href="#DejaVuSans-6f"/>
      <use x="1363.277344" xlink:href="#DejaVuSans-67"/>
      <use x="1426.753906" xlink:href="#DejaVuSans-79"/>
      <use x="1485.933594" xlink:href="#DejaVuSans-20"/>
      <use x="1517.720703" xlink:href="#DejaVuSans-69"/>
      <use x="1545.503906" xlink:href="#DejaVuSans-6e"/>
      <use x="1608.882812" xlink:href="#DejaVuSans-20"/>
      <use x="1640.669922" xlink:href="#DejaVuSans-47"/>
      <use x="1718.160156" xlink:href="#DejaVuSans-72"/>
      <use x="1759.273438" xlink:href="#DejaVuSans-69"/>
      <use x="1787.056641" xlink:href="#DejaVuSans-64"/>
      <use x="1850.533203" xlink:href="#DejaVuSans-20"/>
      <use x="1882.320312" xlink:href="#DejaVuSans-28"/>
      <use x="1921.333984" xlink:href="#DejaVuSans-25"/>
      <use x="2016.353516" xlink:href="#DejaVuSans-29"/>
     </g>
    </g>
   </g>
   <g id="matplotlib.axis_2">
    <g id="ytick_1">
     <g id="line2d_7">
      <defs>
       <path d="M 0 0 
L -3.5 0 
" id="me0d91da343" style="stroke:#000000;stroke-width:0.8;"/>
      </defs>
      <g>
       <use style="stroke:#000000;stroke-width:0.8;" x="54" xlink:href="#me0d91da343" y="512.64"/>
      </g>
     </g>
     <g id="text_8">
      <!-- 0 -->
      <g transform="translate(40.6375 516.439219)scale(0.1 -0.1)">
       <use xlink:href="#DejaVuSans-30"/>
      </g>
     </g>
    </g>
    <g id="ytick_2">
     <g id="line2d_8">
      <g>
       <use style="stroke:#000000;stroke-width:0.8;" x="54" xlink:href="#me0d91da343" y="422.249316"/>
      </g>
     </g>
     <g id="text_9">
      <!-- 20 -->
      <g transform="translate(34.275 426.048535)scale(0.1 -0.1)">
       <use xlink:href="#DejaVuSans-32"/>
       <use x="63.623047" xlink:href="#DejaVuSans-30"/>
      </g>
     </g>
    </g>
    <g id="ytick_3">
     <g id="line2d_9">
      <g>
       <use style="stroke:#000000;stroke-width:0.8;" x="54" xlink:href="#me0d91da343" y="331.858633"/>
      </g>
     </g>
     <g id="text_10">
      <!-- 40 -->
      <g transform="translate(34.275 335.657851)scale(0.1 -0.1)">
       <use xlink:href="#DejaVuSans-34"/>
       <use x="63.623047" xlink:href="#DejaVuSans-30"/>
      </g>
     </g>
    </g>
    <g id="ytick_4">
     <g id="line2d_10">
      <g>
       <use style="stroke:#000000;stroke-width:0.8;" x="54" xlink:href="#me0d91da343" y="241.467949"/>
      </g>
     </g>
     <g id="text_11">
      <!-- 60 -->
      <g transform="translate(34.275 245.267168)scale(0.1 -0.1)">
       <use xlink:href="#DejaVuSans-36"/>
       <use x="63.623047" xlink:href="#DejaVuSans-30"/>
      </g>
     </g>
    </g>
    <g id="ytick_5">
     <g id="line2d_11">
      <g>
       <use style="stroke:#000000;stroke-width:0.8;" x="54" xlink:href="#me0d91da343" y="151.077265"/>
      </g>
     </g>
     <g id="text_12">
      <!-- 80 -->
      <g transform="translate(34.275 154.876484)scale(0.1 -0.1)">
       <use xlink:href="#DejaVuSans-38"/>
       <use x="63.623047" xlink:href="#DejaVuSans-30"/>
      </g>
     </g>
    </g>
    <g id="text_13">
     <!-- Carbon Equivalent Emissions (Mt) -->
     <g transform="translate(28.195312 375.195625)rotate(-90)scale(0.1 -0.1)">
      <defs>
       <path d="M 4122 4306 
L 4122 3641 
Q 3803 3938 3442 4084 
Q 3081 4231 2675 4231 
Q 1875 4231 1450 3742 
Q 1025 3253 1025 2328 
Q 1025 1406 1450 917 
Q 1875 428 2675 428 
Q 3081 428 3442 575 
Q 3803 722 4122 1019 
L 4122 359 
Q 3791 134 3420 21 
Q 3050 -91 2638 -91 
Q 1578 -91 968 557 
Q 359 1206 359 2328 
Q 359 3453 968 4101 
Q 1578 4750 2638 4750 
Q 3056 4750 3426 4639 
Q 3797 4528 4122 4306 
z
" id="DejaVuSans-43" transform="scale(0.015625)"/>
       <path d="M 2194 1759 
Q 1497 1759 1228 1600 
Q 959 1441 959 1056 
Q 959 750 1161 570 
Q 1363 391 1709 391 
Q 2188 391 2477 730 
Q 2766 1069 2766 1631 
L 2766 1759 
L 2194 1759 
z
M 3341 1997 
L 3341 0 
L 2766 0 
L 2766 531 
Q 2569 213 2275 61 
Q 1981 -91 1556 -91 
Q 1019 -91 701 211 
Q 384 513 384 1019 
Q 384 1609 779 1909 
Q 1175 2209 1959 2209 
L 2766 2209 
L 2766 2266 
Q 2766 2663 2505 2880 
Q 2244 3097 1772 3097 
Q 1472 3097 1187 3025 
Q 903 2953 641 2809 
L 641 3341 
Q 956 3463 1253 3523 
Q 1550 3584 1831 3584 
Q 2591 3584 2966 3190 
Q 3341 2797 3341 1997 
z
" id="DejaVuSans-61" transform="scale(0.015625)"/>
       <path d="M 3116 1747 
Q 3116 2381 2855 2742 
Q 2594 3103 2138 3103 
Q 1681 3103 1420 2742 
Q 1159 2381 1159 1747 
Q 1159 1113 1420 752 
Q 1681 391 2138 391 
Q 2594 391 2855 752 
Q 3116 1113 3116 1747 
z
M 1159 2969 
Q 1341 3281 1617 3432 
Q 1894 3584 2278 3584 
Q 2916 3584 3314 3078 
Q 3713 2572 3713 1747 
Q 3713 922 3314 415 
Q 2916 -91 2278 -91 
Q 1894 -91 1617 61 
Q 1341 213 1159 525 
L 1159 0 
L 581 0 
L 581 4863 
L 1159 4863 
L 1159 2969 
z
" id="DejaVuSans-62" transform="scale(0.015625)"/>
       <path d="M 628 4666 
L 3578 4666 
L 3578 4134 
L 1259 4134 
L 1259 2753 
L 3481 2753 
L 3481 2222 
L 1259 2222 
L 1259 531 
L 3634 531 
L 3634 0 
L 628 0 
L 628 4666 
z
" id="DejaVuSans-45" transform="scale(0.015625)"/>
       <path d="M 947 1747 
Q 947 1113 1208 752 
Q 1469 391 1925 391 
Q 2381 391 2643 752 
Q 2906 1113 2906 1747 
Q 2906 2381 2643 2742 
Q 2381 3103 1925 3103 
Q 1469 3103 1208 2742 
Q 947 2381 947 1747 
z
M 2906 525 
Q 2725 213 2448 61 
Q 2172 -91 1784 -91 
Q 1150 -91 751 415 
Q 353 922 353 1747 
Q 353 2572 751 3078 
Q 1150 3584 1784 3584 
Q 2172 3584 2448 3432 
Q 2725 3281 2906 2969 
L 2906 3500 
L 3481 3500 
L 3481 -1331 
L 2906 -1331 
L 2906 525 
z
" id="DejaVuSans-71" transform="scale(0.015625)"/>
       <path d="M 544 1381 
L 544 3500 
L 1119 3500 
L 1119 1403 
Q 1119 906 1312 657 
Q 1506 409 1894 409 
Q 2359 409 2629 706 
Q 2900 1003 2900 1516 
L 2900 3500 
L 3475 3500 
L 3475 0 
L 2900 0 
L 2900 538 
Q 2691 219 2414 64 
Q 2138 -91 1772 -91 
Q 1169 -91 856 284 
Q 544 659 544 1381 
z
M 1991 3584 
L 1991 3584 
z
" id="DejaVuSans-75" transform="scale(0.015625)"/>
       <path d="M 191 3500 
L 800 3500 
L 1894 563 
L 2988 3500 
L 3597 3500 
L 2284 0 
L 1503 0 
L 191 3500 
z
" id="DejaVuSans-76" transform="scale(0.015625)"/>
       <path d="M 3328 2828 
Q 3544 3216 3844 3400 
Q 4144 3584 4550 3584 
Q 5097 3584 5394 3201 
Q 5691 2819 5691 2113 
L 5691 0 
L 5113 0 
L 5113 2094 
Q 5113 2597 4934 2840 
Q 4756 3084 4391 3084 
Q 3944 3084 3684 2787 
Q 3425 2491 3425 1978 
L 3425 0 
L 2847 0 
L 2847 2094 
Q 2847 2600 2669 2842 
Q 2491 3084 2119 3084 
Q 1678 3084 1418 2786 
Q 1159 2488 1159 1978 
L 1159 0 
L 581 0 
L 581 3500 
L 1159 3500 
L 1159 2956 
Q 1356 3278 1631 3431 
Q 1906 3584 2284 3584 
Q 2666 3584 2933 3390 
Q 3200 3197 3328 2828 
z
" id="DejaVuSans-6d" transform="scale(0.015625)"/>
       <path d="M 2834 3397 
L 2834 2853 
Q 2591 2978 2328 3040 
Q 2066 3103 1784 3103 
Q 1356 3103 1142 2972 
Q 928 2841 928 2578 
Q 928 2378 1081 2264 
Q 1234 2150 1697 2047 
L 1894 2003 
Q 2506 1872 2764 1633 
Q 3022 1394 3022 966 
Q 3022 478 2636 193 
Q 2250 -91 1575 -91 
Q 1294 -91 989 -36 
Q 684 19 347 128 
L 347 722 
Q 666 556 975 473 
Q 1284 391 1588 391 
Q 1994 391 2212 530 
Q 2431 669 2431 922 
Q 2431 1156 2273 1281 
Q 2116 1406 1581 1522 
L 1381 1569 
Q 847 1681 609 1914 
Q 372 2147 372 2553 
Q 372 3047 722 3315 
Q 1072 3584 1716 3584 
Q 2034 3584 2315 3537 
Q 2597 3491 2834 3397 
z
" id="DejaVuSans-73" transform="scale(0.015625)"/>
       <path d="M 628 4666 
L 1569 4666 
L 2759 1491 
L 3956 4666 
L 4897 4666 
L 4897 0 
L 4281 0 
L 4281 4097 
L 3078 897 
L 2444 897 
L 1241 4097 
L 1241 0 
L 628 0 
L 628 4666 
z
" id="DejaVuSans-4d" transform="scale(0.015625)"/>
      </defs>
      <use xlink:href="#DejaVuSans-43"/>
      <use x="69.824219" xlink:href="#DejaVuSans-61"/>
      <use x="131.103516" xlink:href="#DejaVuSans-72"/>
      <use x="172.216797" xlink:href="#DejaVuSans-62"/>
      <use x="235.693359" xlink:href="#DejaVuSans-6f"/>
      <use x="296.875" xlink:href="#DejaVuSans-6e"/>
      <use x="360.253906" xlink:href="#DejaVuSans-20"/>
      <use x="392.041016" xlink:href="#DejaVuSans-45"/>
      <use x="455.224609" xlink:href="#DejaVuSans-71"/>
      <use x="518.701172" xlink:href="#DejaVuSans-75"/>
      <use x="582.080078" xlink:href="#DejaVuSans-69"/>
      <use x="609.863281" xlink:href="#DejaVuSans-76"/>
      <use x="669.042969" xlink:href="#DejaVuSans-61"/>
      <use x="730.322266" xlink:href="#DejaVuSans-6c"/>
      <use x="758.105469" xlink:href="#DejaVuSans-65"/>
      <use x="819.628906" xlink:href="#DejaVuSans-6e"/>
      <use x="883.007812" xlink:href="#DejaVuSans-74"/>
      <use x="922.216797" xlink:href="#DejaVuSans-20"/>
      <use x="954.003906" xlink:href="#DejaVuSans-45"/>
      <use x="1017.1875" xlink:href="#DejaVuSans-6d"/>
      <use x="1114.599609" xlink:href="#DejaVuSans-69"/>
      <use x="1142.382812" xlink:href="#DejaVuSans-73"/>
      <use x="1194.482422" xlink:href="#DejaVuSans-73"/>
      <use x="1246.582031" xlink:href="#DejaVuSans-69"/>
      <use x="1274.365234" xlink:href="#DejaVuSans-6f"/>
      <use x="1335.546875" xlink:href="#DejaVuSans-6e"/>
      <use x="1398.925781" xlink:href="#DejaVuSans-73"/>
      <use x="1451.025391" xlink:href="#DejaVuSans-20"/>
      <use x="1482.8125" xlink:href="#DejaVuSans-28"/>
      <use x="1521.826172" xlink:href="#DejaVuSans-4d"/>
      <use x="1608.105469" xlink:href="#DejaVuSans-74"/>
      <use x="1647.314453" xlink:href="#DejaVuSans-29"/>
     </g>
    </g>
   </g>
   <g id="patch_3">
    <path d="M 54 512.64 
L 54 69.12 
" style="fill:none;stroke:#000000;stroke-linecap:square;stroke-linejoin:miter;stroke-width:0.8;"/>
   </g>
   <g id="patch_4">
    <path d="M 388.8 512.64 
L 388.8 69.12 
" style="fill:none;stroke:#000000;stroke-linecap:square;stroke-linejoin:miter;stroke-width:0.8;"/>
   </g>
   <g id="patch_5">
    <path d="M 54 512.64 
L 388.8 512.64 
" style="fill:none;stroke:#000000;stroke-linecap:square;stroke-linejoin:miter;stroke-width:0.8;"/>
   </g>
   <g id="patch_6">
    <path d="M 54 69.12 
L 388.8 69.12 
" style="fill:none;stroke:#000000;stroke-linecap:square;stroke-linejoin:miter;stroke-width:0.8;"/>
   </g>
  </g>
 </g>
 <defs>
  <clipPath id="p78d0408d5c">
   <rect height="443.52" width="334.8" x="54" y="69.12"/>
  </clipPath>
 </defs>
</svg>
