<?xml version="1.0" encoding="utf-8" standalone="no"?>
<!DOCTYPE svg PUBLIC "-//W3C//DTD SVG 1.1//EN"
  "http://www.w3.org/Graphics/SVG/1.1/DTD/svg11.dtd">
<svg height="576pt" version="1.1" viewBox="0 0 432 576" width="432pt" xmlns="http://www.w3.org/2000/svg" xmlns:xlink="http://www.w3.org/1999/xlink">
 <metadata>
  <rdf:RDF xmlns:cc="http://creativecommons.org/ns#" xmlns:dc="http://purl.org/dc/elements/1.1/" xmlns:rdf="http://www.w3.org/1999/02/22-rdf-syntax-ns#">
   <cc:Work>
    <dc:type rdf:resource="http://purl.org/dc/dcmitype/StillImage"/>
    <dc:date>2021-06-15T11:14:07.860020</dc:date>
    <dc:format>image/svg+xml</dc:format>
    <dc:creator>
     <cc:Agent>
      <dc:title>Matplotlib v3.4.1, https://matplotlib.org/</dc:title>
     </cc:Agent>
    </dc:creator>
   </cc:Work>
  </rdf:RDF>
 </metadata>
 <defs>
  <style type="text/css">*{stroke-linecap:butt;stroke-linejoin:round;}</style>
 </defs>
 <g id="figure_1">
  <g id="patch_1">
   <path d="M 0 576 
L 432 576 
L 432 0 
L 0 0 
z
" style="fill:#ffffff;"/>
  </g>
  <g id="axes_1">
   <g id="patch_2">
    <path d="M 54 512.64 
L 388.8 512.64 
L 388.8 69.12 
L 54 69.12 
z
" style="fill:#ffffff;"/>
   </g>
   <g id="PolyCollection_1">
    <path clip-path="url(#p6b20eae056)" d="M 69.218182 219.919698 
L 69.218182 512.64 
L 72.292562 512.64 
L 75.366942 512.64 
L 78.441322 512.64 
L 81.515702 512.64 
L 84.590083 512.64 
L 87.664463 512.64 
L 90.738843 512.64 
L 93.813223 512.64 
L 96.887603 512.64 
L 99.961983 512.64 
L 103.036364 512.64 
L 106.110744 512.64 
L 109.185124 512.64 
L 112.259504 512.64 
L 115.333884 512.64 
L 118.408264 512.64 
L 121.482645 512.64 
L 124.557025 512.64 
L 127.631405 512.64 
L 130.705785 512.64 
L 133.780165 512.64 
L 136.854545 512.64 
L 139.928926 512.64 
L 143.003306 512.64 
L 146.077686 512.64 
L 149.152066 512.64 
L 152.226446 512.64 
L 155.300826 512.64 
L 158.375207 512.64 
L 161.449587 512.64 
L 164.523967 512.64 
L 167.598347 512.64 
L 170.672727 512.64 
L 173.747107 512.64 
L 176.821488 512.64 
L 179.895868 512.64 
L 182.970248 512.64 
L 186.044628 512.64 
L 189.119008 512.64 
L 192.193388 512.64 
L 195.267769 512.64 
L 198.342149 512.64 
L 201.416529 512.64 
L 204.490909 512.64 
L 207.565289 512.64 
L 210.639669 512.64 
L 213.71405 512.64 
L 216.78843 512.64 
L 219.86281 512.64 
L 222.93719 512.64 
L 226.01157 512.64 
L 229.08595 512.64 
L 232.160331 512.64 
L 235.234711 512.64 
L 238.309091 512.64 
L 241.383471 512.64 
L 244.457851 512.64 
L 247.532231 512.64 
L 250.606612 512.64 
L 253.680992 512.64 
L 256.755372 512.64 
L 259.829752 512.64 
L 262.904132 512.64 
L 265.978512 512.64 
L 269.052893 512.64 
L 272.127273 512.64 
L 275.201653 512.64 
L 278.276033 512.64 
L 281.350413 512.64 
L 284.424793 512.64 
L 287.499174 512.64 
L 290.573554 512.64 
L 293.647934 512.64 
L 296.722314 512.64 
L 299.796694 512.64 
L 302.871074 512.64 
L 305.945455 512.64 
L 309.019835 512.64 
L 312.094215 512.64 
L 315.168595 512.64 
L 318.242975 512.64 
L 321.317355 512.64 
L 324.391736 512.64 
L 327.466116 512.64 
L 330.540496 512.64 
L 333.614876 512.64 
L 336.689256 512.64 
L 339.763636 512.64 
L 342.838017 512.64 
L 345.912397 512.64 
L 348.986777 512.64 
L 352.061157 512.64 
L 355.135537 512.64 
L 358.209917 512.64 
L 361.284298 512.64 
L 364.358678 512.64 
L 367.433058 512.64 
L 370.507438 512.64 
L 373.581818 512.64 
L 373.581818 226.641666 
L 373.581818 226.641666 
L 370.507438 226.573767 
L 367.433058 226.505869 
L 364.358678 226.43797 
L 361.284298 226.370071 
L 358.209917 226.302173 
L 355.135537 226.234274 
L 352.061157 226.166375 
L 348.986777 226.098477 
L 345.912397 226.030578 
L 342.838017 225.962679 
L 339.763636 225.894781 
L 336.689256 225.826882 
L 333.614876 225.758983 
L 330.540496 225.691085 
L 327.466116 225.623186 
L 324.391736 225.555287 
L 321.317355 225.487389 
L 318.242975 225.41949 
L 315.168595 225.351591 
L 312.094215 225.283693 
L 309.019835 225.215794 
L 305.945455 225.147895 
L 302.871074 225.079997 
L 299.796694 225.012098 
L 296.722314 224.944199 
L 293.647934 224.876301 
L 290.573554 224.808402 
L 287.499174 224.740503 
L 284.424793 224.672605 
L 281.350413 224.604706 
L 278.276033 224.536807 
L 275.201653 224.468909 
L 272.127273 224.40101 
L 269.052893 224.333111 
L 265.978512 224.265213 
L 262.904132 224.197314 
L 259.829752 224.129415 
L 256.755372 224.061517 
L 253.680992 223.993618 
L 250.606612 223.925719 
L 247.532231 223.857821 
L 244.457851 223.789922 
L 241.383471 223.722023 
L 238.309091 223.654125 
L 235.234711 223.586226 
L 232.160331 223.518327 
L 229.08595 223.450429 
L 226.01157 223.38253 
L 222.93719 223.314631 
L 219.86281 223.246733 
L 216.78843 223.178834 
L 213.71405 223.110935 
L 210.639669 223.043037 
L 207.565289 222.975138 
L 204.490909 222.907239 
L 201.416529 222.839341 
L 198.342149 222.771442 
L 195.267769 222.703543 
L 192.193388 222.635644 
L 189.119008 222.567746 
L 186.044628 222.499847 
L 182.970248 222.431948 
L 179.895868 222.36405 
L 176.821488 222.296151 
L 173.747107 222.228252 
L 170.672727 222.160354 
L 167.598347 222.092455 
L 164.523967 222.024556 
L 161.449587 221.956658 
L 158.375207 221.888759 
L 155.300826 221.82086 
L 152.226446 221.752962 
L 149.152066 221.685063 
L 146.077686 221.617164 
L 143.003306 221.549266 
L 139.928926 221.481367 
L 136.854545 221.413468 
L 133.780165 221.34557 
L 130.705785 221.277671 
L 127.631405 221.209772 
L 124.557025 221.141874 
L 121.482645 221.073975 
L 118.408264 221.006076 
L 115.333884 220.938178 
L 112.259504 220.870279 
L 109.185124 220.80238 
L 106.110744 220.734482 
L 103.036364 220.666583 
L 99.961983 220.598684 
L 96.887603 220.530786 
L 93.813223 220.462887 
L 90.738843 220.394988 
L 87.664463 220.32709 
L 84.590083 220.259191 
L 81.515702 220.191292 
L 78.441322 220.123394 
L 75.366942 220.055495 
L 72.292562 219.987596 
L 69.218182 219.919698 
z
" style="fill:#3182bd;"/>
   </g>
   <g id="PolyCollection_2">
    <path clip-path="url(#p6b20eae056)" d="M 69.218182 99.4443 
L 69.218182 219.919698 
L 72.292562 219.987596 
L 75.366942 220.055495 
L 78.441322 220.123394 
L 81.515702 220.191292 
L 84.590083 220.259191 
L 87.664463 220.32709 
L 90.738843 220.394988 
L 93.813223 220.462887 
L 96.887603 220.530786 
L 99.961983 220.598684 
L 103.036364 220.666583 
L 106.110744 220.734482 
L 109.185124 220.80238 
L 112.259504 220.870279 
L 115.333884 220.938178 
L 118.408264 221.006076 
L 121.482645 221.073975 
L 124.557025 221.141874 
L 127.631405 221.209772 
L 130.705785 221.277671 
L 133.780165 221.34557 
L 136.854545 221.413468 
L 139.928926 221.481367 
L 143.003306 221.549266 
L 146.077686 221.617164 
L 149.152066 221.685063 
L 152.226446 221.752962 
L 155.300826 221.82086 
L 158.375207 221.888759 
L 161.449587 221.956658 
L 164.523967 222.024556 
L 167.598347 222.092455 
L 170.672727 222.160354 
L 173.747107 222.228252 
L 176.821488 222.296151 
L 179.895868 222.36405 
L 182.970248 222.431948 
L 186.044628 222.499847 
L 189.119008 222.567746 
L 192.193388 222.635644 
L 195.267769 222.703543 
L 198.342149 222.771442 
L 201.416529 222.839341 
L 204.490909 222.907239 
L 207.565289 222.975138 
L 210.639669 223.043037 
L 213.71405 223.110935 
L 216.78843 223.178834 
L 219.86281 223.246733 
L 222.93719 223.314631 
L 226.01157 223.38253 
L 229.08595 223.450429 
L 232.160331 223.518327 
L 235.234711 223.586226 
L 238.309091 223.654125 
L 241.383471 223.722023 
L 244.457851 223.789922 
L 247.532231 223.857821 
L 250.606612 223.925719 
L 253.680992 223.993618 
L 256.755372 224.061517 
L 259.829752 224.129415 
L 262.904132 224.197314 
L 265.978512 224.265213 
L 269.052893 224.333111 
L 272.127273 224.40101 
L 275.201653 224.468909 
L 278.276033 224.536807 
L 281.350413 224.604706 
L 284.424793 224.672605 
L 287.499174 224.740503 
L 290.573554 224.808402 
L 293.647934 224.876301 
L 296.722314 224.944199 
L 299.796694 225.012098 
L 302.871074 225.079997 
L 305.945455 225.147895 
L 309.019835 225.215794 
L 312.094215 225.283693 
L 315.168595 225.351591 
L 318.242975 225.41949 
L 321.317355 225.487389 
L 324.391736 225.555287 
L 327.466116 225.623186 
L 330.540496 225.691085 
L 333.614876 225.758983 
L 336.689256 225.826882 
L 339.763636 225.894781 
L 342.838017 225.962679 
L 345.912397 226.030578 
L 348.986777 226.098477 
L 352.061157 226.166375 
L 355.135537 226.234274 
L 358.209917 226.302173 
L 361.284298 226.370071 
L 364.358678 226.43797 
L 367.433058 226.505869 
L 370.507438 226.573767 
L 373.581818 226.641666 
L 373.581818 106.166268 
L 373.581818 106.166268 
L 370.507438 106.09837 
L 367.433058 106.030471 
L 364.358678 105.962572 
L 361.284298 105.894674 
L 358.209917 105.826775 
L 355.135537 105.758876 
L 352.061157 105.690977 
L 348.986777 105.623079 
L 345.912397 105.55518 
L 342.838017 105.487281 
L 339.763636 105.419383 
L 336.689256 105.351484 
L 333.614876 105.283585 
L 330.540496 105.215687 
L 327.466116 105.147788 
L 324.391736 105.079889 
L 321.317355 105.011991 
L 318.242975 104.944092 
L 315.168595 104.876193 
L 312.094215 104.808295 
L 309.019835 104.740396 
L 305.945455 104.672497 
L 302.871074 104.604599 
L 299.796694 104.5367 
L 296.722314 104.468801 
L 293.647934 104.400903 
L 290.573554 104.333004 
L 287.499174 104.265105 
L 284.424793 104.197207 
L 281.350413 104.129308 
L 278.276033 104.061409 
L 275.201653 103.993511 
L 272.127273 103.925612 
L 269.052893 103.857713 
L 265.978512 103.789815 
L 262.904132 103.721916 
L 259.829752 103.654017 
L 256.755372 103.586119 
L 253.680992 103.51822 
L 250.606612 103.450321 
L 247.532231 103.382423 
L 244.457851 103.314524 
L 241.383471 103.246625 
L 238.309091 103.178727 
L 235.234711 103.110828 
L 232.160331 103.042929 
L 229.08595 102.975031 
L 226.01157 102.907132 
L 222.93719 102.839233 
L 219.86281 102.771335 
L 216.78843 102.703436 
L 213.71405 102.635537 
L 210.639669 102.567639 
L 207.565289 102.49974 
L 204.490909 102.431841 
L 201.416529 102.363943 
L 198.342149 102.296044 
L 195.267769 102.228145 
L 192.193388 102.160247 
L 189.119008 102.092348 
L 186.044628 102.024449 
L 182.970248 101.956551 
L 179.895868 101.888652 
L 176.821488 101.820753 
L 173.747107 101.752855 
L 170.672727 101.684956 
L 167.598347 101.617057 
L 164.523967 101.549159 
L 161.449587 101.48126 
L 158.375207 101.413361 
L 155.300826 101.345463 
L 152.226446 101.277564 
L 149.152066 101.209665 
L 146.077686 101.141767 
L 143.003306 101.073868 
L 139.928926 101.005969 
L 136.854545 100.938071 
L 133.780165 100.870172 
L 130.705785 100.802273 
L 127.631405 100.734375 
L 124.557025 100.666476 
L 121.482645 100.598577 
L 118.408264 100.530679 
L 115.333884 100.46278 
L 112.259504 100.394881 
L 109.185124 100.326983 
L 106.110744 100.259084 
L 103.036364 100.191185 
L 99.961983 100.123287 
L 96.887603 100.055388 
L 93.813223 99.987489 
L 90.738843 99.919591 
L 87.664463 99.851692 
L 84.590083 99.783793 
L 81.515702 99.715895 
L 78.441322 99.647996 
L 75.366942 99.580097 
L 72.292562 99.512198 
L 69.218182 99.4443 
z
" style="fill:#6baed6;"/>
   </g>
   <g id="PolyCollection_3">
    <path clip-path="url(#p6b20eae056)" d="M 69.218182 99.281456 
L 69.218182 99.4443 
L 72.292562 99.512198 
L 75.366942 99.580097 
L 78.441322 99.647996 
L 81.515702 99.715895 
L 84.590083 99.783793 
L 87.664463 99.851692 
L 90.738843 99.919591 
L 93.813223 99.987489 
L 96.887603 100.055388 
L 99.961983 100.123287 
L 103.036364 100.191185 
L 106.110744 100.259084 
L 109.185124 100.326983 
L 112.259504 100.394881 
L 115.333884 100.46278 
L 118.408264 100.530679 
L 121.482645 100.598577 
L 124.557025 100.666476 
L 127.631405 100.734375 
L 130.705785 100.802273 
L 133.780165 100.870172 
L 136.854545 100.938071 
L 139.928926 101.005969 
L 143.003306 101.073868 
L 146.077686 101.141767 
L 149.152066 101.209665 
L 152.226446 101.277564 
L 155.300826 101.345463 
L 158.375207 101.413361 
L 161.449587 101.48126 
L 164.523967 101.549159 
L 167.598347 101.617057 
L 170.672727 101.684956 
L 173.747107 101.752855 
L 176.821488 101.820753 
L 179.895868 101.888652 
L 182.970248 101.956551 
L 186.044628 102.024449 
L 189.119008 102.092348 
L 192.193388 102.160247 
L 195.267769 102.228145 
L 198.342149 102.296044 
L 201.416529 102.363943 
L 204.490909 102.431841 
L 207.565289 102.49974 
L 210.639669 102.567639 
L 213.71405 102.635537 
L 216.78843 102.703436 
L 219.86281 102.771335 
L 222.93719 102.839233 
L 226.01157 102.907132 
L 229.08595 102.975031 
L 232.160331 103.042929 
L 235.234711 103.110828 
L 238.309091 103.178727 
L 241.383471 103.246625 
L 244.457851 103.314524 
L 247.532231 103.382423 
L 250.606612 103.450321 
L 253.680992 103.51822 
L 256.755372 103.586119 
L 259.829752 103.654017 
L 262.904132 103.721916 
L 265.978512 103.789815 
L 269.052893 103.857713 
L 272.127273 103.925612 
L 275.201653 103.993511 
L 278.276033 104.061409 
L 281.350413 104.129308 
L 284.424793 104.197207 
L 287.499174 104.265105 
L 290.573554 104.333004 
L 293.647934 104.400903 
L 296.722314 104.468801 
L 299.796694 104.5367 
L 302.871074 104.604599 
L 305.945455 104.672497 
L 309.019835 104.740396 
L 312.094215 104.808295 
L 315.168595 104.876193 
L 318.242975 104.944092 
L 321.317355 105.011991 
L 324.391736 105.079889 
L 327.466116 105.147788 
L 330.540496 105.215687 
L 333.614876 105.283585 
L 336.689256 105.351484 
L 339.763636 105.419383 
L 342.838017 105.487281 
L 345.912397 105.55518 
L 348.986777 105.623079 
L 352.061157 105.690977 
L 355.135537 105.758876 
L 358.209917 105.826775 
L 361.284298 105.894674 
L 364.358678 105.962572 
L 367.433058 106.030471 
L 370.507438 106.09837 
L 373.581818 106.166268 
L 373.581818 106.003425 
L 373.581818 106.003425 
L 370.507438 105.935526 
L 367.433058 105.867627 
L 364.358678 105.799729 
L 361.284298 105.73183 
L 358.209917 105.663931 
L 355.135537 105.596033 
L 352.061157 105.528134 
L 348.986777 105.460235 
L 345.912397 105.392337 
L 342.838017 105.324438 
L 339.763636 105.256539 
L 336.689256 105.188641 
L 333.614876 105.120742 
L 330.540496 105.052843 
L 327.466116 104.984945 
L 324.391736 104.917046 
L 321.317355 104.849147 
L 318.242975 104.781249 
L 315.168595 104.71335 
L 312.094215 104.645451 
L 309.019835 104.577553 
L 305.945455 104.509654 
L 302.871074 104.441755 
L 299.796694 104.373857 
L 296.722314 104.305958 
L 293.647934 104.238059 
L 290.573554 104.170161 
L 287.499174 104.102262 
L 284.424793 104.034363 
L 281.350413 103.966465 
L 278.276033 103.898566 
L 275.201653 103.830667 
L 272.127273 103.762769 
L 269.052893 103.69487 
L 265.978512 103.626971 
L 262.904132 103.559072 
L 259.829752 103.491174 
L 256.755372 103.423275 
L 253.680992 103.355376 
L 250.606612 103.287478 
L 247.532231 103.219579 
L 244.457851 103.15168 
L 241.383471 103.083782 
L 238.309091 103.015883 
L 235.234711 102.947984 
L 232.160331 102.880086 
L 229.08595 102.812187 
L 226.01157 102.744288 
L 222.93719 102.67639 
L 219.86281 102.608491 
L 216.78843 102.540592 
L 213.71405 102.472694 
L 210.639669 102.404795 
L 207.565289 102.336896 
L 204.490909 102.268998 
L 201.416529 102.201099 
L 198.342149 102.1332 
L 195.267769 102.065302 
L 192.193388 101.997403 
L 189.119008 101.929504 
L 186.044628 101.861606 
L 182.970248 101.793707 
L 179.895868 101.725808 
L 176.821488 101.65791 
L 173.747107 101.590011 
L 170.672727 101.522112 
L 167.598347 101.454214 
L 164.523967 101.386315 
L 161.449587 101.318416 
L 158.375207 101.250518 
L 155.300826 101.182619 
L 152.226446 101.11472 
L 149.152066 101.046822 
L 146.077686 100.978923 
L 143.003306 100.911024 
L 139.928926 100.843126 
L 136.854545 100.775227 
L 133.780165 100.707328 
L 130.705785 100.63943 
L 127.631405 100.571531 
L 124.557025 100.503632 
L 121.482645 100.435734 
L 118.408264 100.367835 
L 115.333884 100.299936 
L 112.259504 100.232038 
L 109.185124 100.164139 
L 106.110744 100.09624 
L 103.036364 100.028342 
L 99.961983 99.960443 
L 96.887603 99.892544 
L 93.813223 99.824646 
L 90.738843 99.756747 
L 87.664463 99.688848 
L 84.590083 99.62095 
L 81.515702 99.553051 
L 78.441322 99.485152 
L 75.366942 99.417254 
L 72.292562 99.349355 
L 69.218182 99.281456 
z
" style="fill:#9ecae1;"/>
   </g>
   <g id="PolyCollection_4">
    <path clip-path="url(#p6b20eae056)" d="M 69.218182 99.130353 
L 69.218182 99.281456 
L 72.292562 99.349355 
L 75.366942 99.417254 
L 78.441322 99.485152 
L 81.515702 99.553051 
L 84.590083 99.62095 
L 87.664463 99.688848 
L 90.738843 99.756747 
L 93.813223 99.824646 
L 96.887603 99.892544 
L 99.961983 99.960443 
L 103.036364 100.028342 
L 106.110744 100.09624 
L 109.185124 100.164139 
L 112.259504 100.232038 
L 115.333884 100.299936 
L 118.408264 100.367835 
L 121.482645 100.435734 
L 124.557025 100.503632 
L 127.631405 100.571531 
L 130.705785 100.63943 
L 133.780165 100.707328 
L 136.854545 100.775227 
L 139.928926 100.843126 
L 143.003306 100.911024 
L 146.077686 100.978923 
L 149.152066 101.046822 
L 152.226446 101.11472 
L 155.300826 101.182619 
L 158.375207 101.250518 
L 161.449587 101.318416 
L 164.523967 101.386315 
L 167.598347 101.454214 
L 170.672727 101.522112 
L 173.747107 101.590011 
L 176.821488 101.65791 
L 179.895868 101.725808 
L 182.970248 101.793707 
L 186.044628 101.861606 
L 189.119008 101.929504 
L 192.193388 101.997403 
L 195.267769 102.065302 
L 198.342149 102.1332 
L 201.416529 102.201099 
L 204.490909 102.268998 
L 207.565289 102.336896 
L 210.639669 102.404795 
L 213.71405 102.472694 
L 216.78843 102.540592 
L 219.86281 102.608491 
L 222.93719 102.67639 
L 226.01157 102.744288 
L 229.08595 102.812187 
L 232.160331 102.880086 
L 235.234711 102.947984 
L 238.309091 103.015883 
L 241.383471 103.083782 
L 244.457851 103.15168 
L 247.532231 103.219579 
L 250.606612 103.287478 
L 253.680992 103.355376 
L 256.755372 103.423275 
L 259.829752 103.491174 
L 262.904132 103.559072 
L 265.978512 103.626971 
L 269.052893 103.69487 
L 272.127273 103.762769 
L 275.201653 103.830667 
L 278.276033 103.898566 
L 281.350413 103.966465 
L 284.424793 104.034363 
L 287.499174 104.102262 
L 290.573554 104.170161 
L 293.647934 104.238059 
L 296.722314 104.305958 
L 299.796694 104.373857 
L 302.871074 104.441755 
L 305.945455 104.509654 
L 309.019835 104.577553 
L 312.094215 104.645451 
L 315.168595 104.71335 
L 318.242975 104.781249 
L 321.317355 104.849147 
L 324.391736 104.917046 
L 327.466116 104.984945 
L 330.540496 105.052843 
L 333.614876 105.120742 
L 336.689256 105.188641 
L 339.763636 105.256539 
L 342.838017 105.324438 
L 345.912397 105.392337 
L 348.986777 105.460235 
L 352.061157 105.528134 
L 355.135537 105.596033 
L 358.209917 105.663931 
L 361.284298 105.73183 
L 364.358678 105.799729 
L 367.433058 105.867627 
L 370.507438 105.935526 
L 373.581818 106.003425 
L 373.581818 105.852322 
L 373.581818 105.852322 
L 370.507438 105.784423 
L 367.433058 105.716524 
L 364.358678 105.648626 
L 361.284298 105.580727 
L 358.209917 105.512828 
L 355.135537 105.44493 
L 352.061157 105.377031 
L 348.986777 105.309132 
L 345.912397 105.241234 
L 342.838017 105.173335 
L 339.763636 105.105436 
L 336.689256 105.037538 
L 333.614876 104.969639 
L 330.540496 104.90174 
L 327.466116 104.833842 
L 324.391736 104.765943 
L 321.317355 104.698044 
L 318.242975 104.630146 
L 315.168595 104.562247 
L 312.094215 104.494348 
L 309.019835 104.42645 
L 305.945455 104.358551 
L 302.871074 104.290652 
L 299.796694 104.222754 
L 296.722314 104.154855 
L 293.647934 104.086956 
L 290.573554 104.019058 
L 287.499174 103.951159 
L 284.424793 103.88326 
L 281.350413 103.815362 
L 278.276033 103.747463 
L 275.201653 103.679564 
L 272.127273 103.611666 
L 269.052893 103.543767 
L 265.978512 103.475868 
L 262.904132 103.40797 
L 259.829752 103.340071 
L 256.755372 103.272172 
L 253.680992 103.204274 
L 250.606612 103.136375 
L 247.532231 103.068476 
L 244.457851 103.000578 
L 241.383471 102.932679 
L 238.309091 102.86478 
L 235.234711 102.796882 
L 232.160331 102.728983 
L 229.08595 102.661084 
L 226.01157 102.593185 
L 222.93719 102.525287 
L 219.86281 102.457388 
L 216.78843 102.389489 
L 213.71405 102.321591 
L 210.639669 102.253692 
L 207.565289 102.185793 
L 204.490909 102.117895 
L 201.416529 102.049996 
L 198.342149 101.982097 
L 195.267769 101.914199 
L 192.193388 101.8463 
L 189.119008 101.778401 
L 186.044628 101.710503 
L 182.970248 101.642604 
L 179.895868 101.574705 
L 176.821488 101.506807 
L 173.747107 101.438908 
L 170.672727 101.371009 
L 167.598347 101.303111 
L 164.523967 101.235212 
L 161.449587 101.167313 
L 158.375207 101.099415 
L 155.300826 101.031516 
L 152.226446 100.963617 
L 149.152066 100.895719 
L 146.077686 100.82782 
L 143.003306 100.759921 
L 139.928926 100.692023 
L 136.854545 100.624124 
L 133.780165 100.556225 
L 130.705785 100.488327 
L 127.631405 100.420428 
L 124.557025 100.352529 
L 121.482645 100.284631 
L 118.408264 100.216732 
L 115.333884 100.148833 
L 112.259504 100.080935 
L 109.185124 100.013036 
L 106.110744 99.945137 
L 103.036364 99.877239 
L 99.961983 99.80934 
L 96.887603 99.741441 
L 93.813223 99.673543 
L 90.738843 99.605644 
L 87.664463 99.537745 
L 84.590083 99.469847 
L 81.515702 99.401948 
L 78.441322 99.334049 
L 75.366942 99.266151 
L 72.292562 99.198252 
L 69.218182 99.130353 
z
" style="fill:#c6dbef;"/>
   </g>
   <g id="PolyCollection_5">
    <path clip-path="url(#p6b20eae056)" d="M 69.218182 98.627771 
L 69.218182 99.130353 
L 72.292562 99.198252 
L 75.366942 99.266151 
L 78.441322 99.334049 
L 81.515702 99.401948 
L 84.590083 99.469847 
L 87.664463 99.537745 
L 90.738843 99.605644 
L 93.813223 99.673543 
L 96.887603 99.741441 
L 99.961983 99.80934 
L 103.036364 99.877239 
L 106.110744 99.945137 
L 109.185124 100.013036 
L 112.259504 100.080935 
L 115.333884 100.148833 
L 118.408264 100.216732 
L 121.482645 100.284631 
L 124.557025 100.352529 
L 127.631405 100.420428 
L 130.705785 100.488327 
L 133.780165 100.556225 
L 136.854545 100.624124 
L 139.928926 100.692023 
L 143.003306 100.759921 
L 146.077686 100.82782 
L 149.152066 100.895719 
L 152.226446 100.963617 
L 155.300826 101.031516 
L 158.375207 101.099415 
L 161.449587 101.167313 
L 164.523967 101.235212 
L 167.598347 101.303111 
L 170.672727 101.371009 
L 173.747107 101.438908 
L 176.821488 101.506807 
L 179.895868 101.574705 
L 182.970248 101.642604 
L 186.044628 101.710503 
L 189.119008 101.778401 
L 192.193388 101.8463 
L 195.267769 101.914199 
L 198.342149 101.982097 
L 201.416529 102.049996 
L 204.490909 102.117895 
L 207.565289 102.185793 
L 210.639669 102.253692 
L 213.71405 102.321591 
L 216.78843 102.389489 
L 219.86281 102.457388 
L 222.93719 102.525287 
L 226.01157 102.593185 
L 229.08595 102.661084 
L 232.160331 102.728983 
L 235.234711 102.796882 
L 238.309091 102.86478 
L 241.383471 102.932679 
L 244.457851 103.000578 
L 247.532231 103.068476 
L 250.606612 103.136375 
L 253.680992 103.204274 
L 256.755372 103.272172 
L 259.829752 103.340071 
L 262.904132 103.40797 
L 265.978512 103.475868 
L 269.052893 103.543767 
L 272.127273 103.611666 
L 275.201653 103.679564 
L 278.276033 103.747463 
L 281.350413 103.815362 
L 284.424793 103.88326 
L 287.499174 103.951159 
L 290.573554 104.019058 
L 293.647934 104.086956 
L 296.722314 104.154855 
L 299.796694 104.222754 
L 302.871074 104.290652 
L 305.945455 104.358551 
L 309.019835 104.42645 
L 312.094215 104.494348 
L 315.168595 104.562247 
L 318.242975 104.630146 
L 321.317355 104.698044 
L 324.391736 104.765943 
L 327.466116 104.833842 
L 330.540496 104.90174 
L 333.614876 104.969639 
L 336.689256 105.037538 
L 339.763636 105.105436 
L 342.838017 105.173335 
L 345.912397 105.241234 
L 348.986777 105.309132 
L 352.061157 105.377031 
L 355.135537 105.44493 
L 358.209917 105.512828 
L 361.284298 105.580727 
L 364.358678 105.648626 
L 367.433058 105.716524 
L 370.507438 105.784423 
L 373.581818 105.852322 
L 373.581818 105.349739 
L 373.581818 105.349739 
L 370.507438 105.281841 
L 367.433058 105.213942 
L 364.358678 105.146043 
L 361.284298 105.078145 
L 358.209917 105.010246 
L 355.135537 104.942347 
L 352.061157 104.874449 
L 348.986777 104.80655 
L 345.912397 104.738651 
L 342.838017 104.670753 
L 339.763636 104.602854 
L 336.689256 104.534955 
L 333.614876 104.467057 
L 330.540496 104.399158 
L 327.466116 104.331259 
L 324.391736 104.263361 
L 321.317355 104.195462 
L 318.242975 104.127563 
L 315.168595 104.059664 
L 312.094215 103.991766 
L 309.019835 103.923867 
L 305.945455 103.855968 
L 302.871074 103.78807 
L 299.796694 103.720171 
L 296.722314 103.652272 
L 293.647934 103.584374 
L 290.573554 103.516475 
L 287.499174 103.448576 
L 284.424793 103.380678 
L 281.350413 103.312779 
L 278.276033 103.24488 
L 275.201653 103.176982 
L 272.127273 103.109083 
L 269.052893 103.041184 
L 265.978512 102.973286 
L 262.904132 102.905387 
L 259.829752 102.837488 
L 256.755372 102.76959 
L 253.680992 102.701691 
L 250.606612 102.633792 
L 247.532231 102.565894 
L 244.457851 102.497995 
L 241.383471 102.430096 
L 238.309091 102.362198 
L 235.234711 102.294299 
L 232.160331 102.2264 
L 229.08595 102.158502 
L 226.01157 102.090603 
L 222.93719 102.022704 
L 219.86281 101.954806 
L 216.78843 101.886907 
L 213.71405 101.819008 
L 210.639669 101.75111 
L 207.565289 101.683211 
L 204.490909 101.615312 
L 201.416529 101.547414 
L 198.342149 101.479515 
L 195.267769 101.411616 
L 192.193388 101.343718 
L 189.119008 101.275819 
L 186.044628 101.20792 
L 182.970248 101.140022 
L 179.895868 101.072123 
L 176.821488 101.004224 
L 173.747107 100.936326 
L 170.672727 100.868427 
L 167.598347 100.800528 
L 164.523967 100.73263 
L 161.449587 100.664731 
L 158.375207 100.596832 
L 155.300826 100.528934 
L 152.226446 100.461035 
L 149.152066 100.393136 
L 146.077686 100.325238 
L 143.003306 100.257339 
L 139.928926 100.18944 
L 136.854545 100.121542 
L 133.780165 100.053643 
L 130.705785 99.985744 
L 127.631405 99.917846 
L 124.557025 99.849947 
L 121.482645 99.782048 
L 118.408264 99.71415 
L 115.333884 99.646251 
L 112.259504 99.578352 
L 109.185124 99.510454 
L 106.110744 99.442555 
L 103.036364 99.374656 
L 99.961983 99.306758 
L 96.887603 99.238859 
L 93.813223 99.17096 
L 90.738843 99.103062 
L 87.664463 99.035163 
L 84.590083 98.967264 
L 81.515702 98.899366 
L 78.441322 98.831467 
L 75.366942 98.763568 
L 72.292562 98.69567 
L 69.218182 98.627771 
z
" style="fill:#e6550d;"/>
   </g>
   <g id="PolyCollection_6">
    <path clip-path="url(#p6b20eae056)" d="M 69.218182 97.884903 
L 69.218182 98.627771 
L 72.292562 98.69567 
L 75.366942 98.763568 
L 78.441322 98.831467 
L 81.515702 98.899366 
L 84.590083 98.967264 
L 87.664463 99.035163 
L 90.738843 99.103062 
L 93.813223 99.17096 
L 96.887603 99.238859 
L 99.961983 99.306758 
L 103.036364 99.374656 
L 106.110744 99.442555 
L 109.185124 99.510454 
L 112.259504 99.578352 
L 115.333884 99.646251 
L 118.408264 99.71415 
L 121.482645 99.782048 
L 124.557025 99.849947 
L 127.631405 99.917846 
L 130.705785 99.985744 
L 133.780165 100.053643 
L 136.854545 100.121542 
L 139.928926 100.18944 
L 143.003306 100.257339 
L 146.077686 100.325238 
L 149.152066 100.393136 
L 152.226446 100.461035 
L 155.300826 100.528934 
L 158.375207 100.596832 
L 161.449587 100.664731 
L 164.523967 100.73263 
L 167.598347 100.800528 
L 170.672727 100.868427 
L 173.747107 100.936326 
L 176.821488 101.004224 
L 179.895868 101.072123 
L 182.970248 101.140022 
L 186.044628 101.20792 
L 189.119008 101.275819 
L 192.193388 101.343718 
L 195.267769 101.411616 
L 198.342149 101.479515 
L 201.416529 101.547414 
L 204.490909 101.615312 
L 207.565289 101.683211 
L 210.639669 101.75111 
L 213.71405 101.819008 
L 216.78843 101.886907 
L 219.86281 101.954806 
L 222.93719 102.022704 
L 226.01157 102.090603 
L 229.08595 102.158502 
L 232.160331 102.2264 
L 235.234711 102.294299 
L 238.309091 102.362198 
L 241.383471 102.430096 
L 244.457851 102.497995 
L 247.532231 102.565894 
L 250.606612 102.633792 
L 253.680992 102.701691 
L 256.755372 102.76959 
L 259.829752 102.837488 
L 262.904132 102.905387 
L 265.978512 102.973286 
L 269.052893 103.041184 
L 272.127273 103.109083 
L 275.201653 103.176982 
L 278.276033 103.24488 
L 281.350413 103.312779 
L 284.424793 103.380678 
L 287.499174 103.448576 
L 290.573554 103.516475 
L 293.647934 103.584374 
L 296.722314 103.652272 
L 299.796694 103.720171 
L 302.871074 103.78807 
L 305.945455 103.855968 
L 309.019835 103.923867 
L 312.094215 103.991766 
L 315.168595 104.059664 
L 318.242975 104.127563 
L 321.317355 104.195462 
L 324.391736 104.263361 
L 327.466116 104.331259 
L 330.540496 104.399158 
L 333.614876 104.467057 
L 336.689256 104.534955 
L 339.763636 104.602854 
L 342.838017 104.670753 
L 345.912397 104.738651 
L 348.986777 104.80655 
L 352.061157 104.874449 
L 355.135537 104.942347 
L 358.209917 105.010246 
L 361.284298 105.078145 
L 364.358678 105.146043 
L 367.433058 105.213942 
L 370.507438 105.281841 
L 373.581818 105.349739 
L 373.581818 104.606872 
L 373.581818 104.606872 
L 370.507438 104.538973 
L 367.433058 104.471074 
L 364.358678 104.403176 
L 361.284298 104.335277 
L 358.209917 104.267378 
L 355.135537 104.199479 
L 352.061157 104.131581 
L 348.986777 104.063682 
L 345.912397 103.995783 
L 342.838017 103.927885 
L 339.763636 103.859986 
L 336.689256 103.792087 
L 333.614876 103.724189 
L 330.540496 103.65629 
L 327.466116 103.588391 
L 324.391736 103.520493 
L 321.317355 103.452594 
L 318.242975 103.384695 
L 315.168595 103.316797 
L 312.094215 103.248898 
L 309.019835 103.180999 
L 305.945455 103.113101 
L 302.871074 103.045202 
L 299.796694 102.977303 
L 296.722314 102.909405 
L 293.647934 102.841506 
L 290.573554 102.773607 
L 287.499174 102.705709 
L 284.424793 102.63781 
L 281.350413 102.569911 
L 278.276033 102.502013 
L 275.201653 102.434114 
L 272.127273 102.366215 
L 269.052893 102.298317 
L 265.978512 102.230418 
L 262.904132 102.162519 
L 259.829752 102.094621 
L 256.755372 102.026722 
L 253.680992 101.958823 
L 250.606612 101.890925 
L 247.532231 101.823026 
L 244.457851 101.755127 
L 241.383471 101.687229 
L 238.309091 101.61933 
L 235.234711 101.551431 
L 232.160331 101.483533 
L 229.08595 101.415634 
L 226.01157 101.347735 
L 222.93719 101.279837 
L 219.86281 101.211938 
L 216.78843 101.144039 
L 213.71405 101.076141 
L 210.639669 101.008242 
L 207.565289 100.940343 
L 204.490909 100.872445 
L 201.416529 100.804546 
L 198.342149 100.736647 
L 195.267769 100.668749 
L 192.193388 100.60085 
L 189.119008 100.532951 
L 186.044628 100.465053 
L 182.970248 100.397154 
L 179.895868 100.329255 
L 176.821488 100.261357 
L 173.747107 100.193458 
L 170.672727 100.125559 
L 167.598347 100.057661 
L 164.523967 99.989762 
L 161.449587 99.921863 
L 158.375207 99.853965 
L 155.300826 99.786066 
L 152.226446 99.718167 
L 149.152066 99.650269 
L 146.077686 99.58237 
L 143.003306 99.514471 
L 139.928926 99.446573 
L 136.854545 99.378674 
L 133.780165 99.310775 
L 130.705785 99.242877 
L 127.631405 99.174978 
L 124.557025 99.107079 
L 121.482645 99.039181 
L 118.408264 98.971282 
L 115.333884 98.903383 
L 112.259504 98.835485 
L 109.185124 98.767586 
L 106.110744 98.699687 
L 103.036364 98.631789 
L 99.961983 98.56389 
L 96.887603 98.495991 
L 93.813223 98.428093 
L 90.738843 98.360194 
L 87.664463 98.292295 
L 84.590083 98.224396 
L 81.515702 98.156498 
L 78.441322 98.088599 
L 75.366942 98.0207 
L 72.292562 97.952802 
L 69.218182 97.884903 
z
" style="fill:#fd8d3c;"/>
   </g>
   <g id="PolyCollection_7">
    <path clip-path="url(#p6b20eae056)" d="M 69.218182 96.094807 
L 69.218182 97.884903 
L 72.292562 97.952802 
L 75.366942 98.0207 
L 78.441322 98.088599 
L 81.515702 98.156498 
L 84.590083 98.224396 
L 87.664463 98.292295 
L 90.738843 98.360194 
L 93.813223 98.428093 
L 96.887603 98.495991 
L 99.961983 98.56389 
L 103.036364 98.631789 
L 106.110744 98.699687 
L 109.185124 98.767586 
L 112.259504 98.835485 
L 115.333884 98.903383 
L 118.408264 98.971282 
L 121.482645 99.039181 
L 124.557025 99.107079 
L 127.631405 99.174978 
L 130.705785 99.242877 
L 133.780165 99.310775 
L 136.854545 99.378674 
L 139.928926 99.446573 
L 143.003306 99.514471 
L 146.077686 99.58237 
L 149.152066 99.650269 
L 152.226446 99.718167 
L 155.300826 99.786066 
L 158.375207 99.853965 
L 161.449587 99.921863 
L 164.523967 99.989762 
L 167.598347 100.057661 
L 170.672727 100.125559 
L 173.747107 100.193458 
L 176.821488 100.261357 
L 179.895868 100.329255 
L 182.970248 100.397154 
L 186.044628 100.465053 
L 189.119008 100.532951 
L 192.193388 100.60085 
L 195.267769 100.668749 
L 198.342149 100.736647 
L 201.416529 100.804546 
L 204.490909 100.872445 
L 207.565289 100.940343 
L 210.639669 101.008242 
L 213.71405 101.076141 
L 216.78843 101.144039 
L 219.86281 101.211938 
L 222.93719 101.279837 
L 226.01157 101.347735 
L 229.08595 101.415634 
L 232.160331 101.483533 
L 235.234711 101.551431 
L 238.309091 101.61933 
L 241.383471 101.687229 
L 244.457851 101.755127 
L 247.532231 101.823026 
L 250.606612 101.890925 
L 253.680992 101.958823 
L 256.755372 102.026722 
L 259.829752 102.094621 
L 262.904132 102.162519 
L 265.978512 102.230418 
L 269.052893 102.298317 
L 272.127273 102.366215 
L 275.201653 102.434114 
L 278.276033 102.502013 
L 281.350413 102.569911 
L 284.424793 102.63781 
L 287.499174 102.705709 
L 290.573554 102.773607 
L 293.647934 102.841506 
L 296.722314 102.909405 
L 299.796694 102.977303 
L 302.871074 103.045202 
L 305.945455 103.113101 
L 309.019835 103.180999 
L 312.094215 103.248898 
L 315.168595 103.316797 
L 318.242975 103.384695 
L 321.317355 103.452594 
L 324.391736 103.520493 
L 327.466116 103.588391 
L 330.540496 103.65629 
L 333.614876 103.724189 
L 336.689256 103.792087 
L 339.763636 103.859986 
L 342.838017 103.927885 
L 345.912397 103.995783 
L 348.986777 104.063682 
L 352.061157 104.131581 
L 355.135537 104.199479 
L 358.209917 104.267378 
L 361.284298 104.335277 
L 364.358678 104.403176 
L 367.433058 104.471074 
L 370.507438 104.538973 
L 373.581818 104.606872 
L 373.581818 104.606872 
L 373.581818 104.606872 
L 370.507438 104.520891 
L 367.433058 104.434911 
L 364.358678 104.34893 
L 361.284298 104.26295 
L 358.209917 104.176969 
L 355.135537 104.090989 
L 352.061157 104.005008 
L 348.986777 103.919028 
L 345.912397 103.833047 
L 342.838017 103.747067 
L 339.763636 103.661087 
L 336.689256 103.575106 
L 333.614876 103.489126 
L 330.540496 103.403145 
L 327.466116 103.317165 
L 324.391736 103.231184 
L 321.317355 103.145204 
L 318.242975 103.059223 
L 315.168595 102.973243 
L 312.094215 102.887263 
L 309.019835 102.801282 
L 305.945455 102.715302 
L 302.871074 102.629321 
L 299.796694 102.543341 
L 296.722314 102.45736 
L 293.647934 102.37138 
L 290.573554 102.285399 
L 287.499174 102.199419 
L 284.424793 102.113438 
L 281.350413 102.027458 
L 278.276033 101.941478 
L 275.201653 101.855497 
L 272.127273 101.769517 
L 269.052893 101.683536 
L 265.978512 101.597556 
L 262.904132 101.511575 
L 259.829752 101.425595 
L 256.755372 101.339614 
L 253.680992 101.253634 
L 250.606612 101.167654 
L 247.532231 101.081673 
L 244.457851 100.995693 
L 241.383471 100.909712 
L 238.309091 100.823732 
L 235.234711 100.737751 
L 232.160331 100.651771 
L 229.08595 100.56579 
L 226.01157 100.47981 
L 222.93719 100.393829 
L 219.86281 100.307849 
L 216.78843 100.221869 
L 213.71405 100.135888 
L 210.639669 100.049908 
L 207.565289 99.963927 
L 204.490909 99.877947 
L 201.416529 99.791966 
L 198.342149 99.705986 
L 195.267769 99.620005 
L 192.193388 99.534025 
L 189.119008 99.448044 
L 186.044628 99.362064 
L 182.970248 99.276084 
L 179.895868 99.190103 
L 176.821488 99.104123 
L 173.747107 99.018142 
L 170.672727 98.932162 
L 167.598347 98.846181 
L 164.523967 98.760201 
L 161.449587 98.67422 
L 158.375207 98.58824 
L 155.300826 98.50226 
L 152.226446 98.416279 
L 149.152066 98.330299 
L 146.077686 98.244318 
L 143.003306 98.158338 
L 139.928926 98.072357 
L 136.854545 97.986377 
L 133.780165 97.900396 
L 130.705785 97.814416 
L 127.631405 97.728435 
L 124.557025 97.642455 
L 121.482645 97.556475 
L 118.408264 97.470494 
L 115.333884 97.384514 
L 112.259504 97.298533 
L 109.185124 97.212553 
L 106.110744 97.126572 
L 103.036364 97.040592 
L 99.961983 96.954611 
L 96.887603 96.868631 
L 93.813223 96.782651 
L 90.738843 96.69667 
L 87.664463 96.61069 
L 84.590083 96.524709 
L 81.515702 96.438729 
L 78.441322 96.352748 
L 75.366942 96.266768 
L 72.292562 96.180787 
L 69.218182 96.094807 
z
" style="fill:#fdae6b;"/>
   </g>
   <g id="PolyCollection_8">
    <path clip-path="url(#p6b20eae056)" d="M 69.218182 92.202101 
L 69.218182 96.094807 
L 72.292562 96.180787 
L 75.366942 96.266768 
L 78.441322 96.352748 
L 81.515702 96.438729 
L 84.590083 96.524709 
L 87.664463 96.61069 
L 90.738843 96.69667 
L 93.813223 96.782651 
L 96.887603 96.868631 
L 99.961983 96.954611 
L 103.036364 97.040592 
L 106.110744 97.126572 
L 109.185124 97.212553 
L 112.259504 97.298533 
L 115.333884 97.384514 
L 118.408264 97.470494 
L 121.482645 97.556475 
L 124.557025 97.642455 
L 127.631405 97.728435 
L 130.705785 97.814416 
L 133.780165 97.900396 
L 136.854545 97.986377 
L 139.928926 98.072357 
L 143.003306 98.158338 
L 146.077686 98.244318 
L 149.152066 98.330299 
L 152.226446 98.416279 
L 155.300826 98.50226 
L 158.375207 98.58824 
L 161.449587 98.67422 
L 164.523967 98.760201 
L 167.598347 98.846181 
L 170.672727 98.932162 
L 173.747107 99.018142 
L 176.821488 99.104123 
L 179.895868 99.190103 
L 182.970248 99.276084 
L 186.044628 99.362064 
L 189.119008 99.448044 
L 192.193388 99.534025 
L 195.267769 99.620005 
L 198.342149 99.705986 
L 201.416529 99.791966 
L 204.490909 99.877947 
L 207.565289 99.963927 
L 210.639669 100.049908 
L 213.71405 100.135888 
L 216.78843 100.221869 
L 219.86281 100.307849 
L 222.93719 100.393829 
L 226.01157 100.47981 
L 229.08595 100.56579 
L 232.160331 100.651771 
L 235.234711 100.737751 
L 238.309091 100.823732 
L 241.383471 100.909712 
L 244.457851 100.995693 
L 247.532231 101.081673 
L 250.606612 101.167654 
L 253.680992 101.253634 
L 256.755372 101.339614 
L 259.829752 101.425595 
L 262.904132 101.511575 
L 265.978512 101.597556 
L 269.052893 101.683536 
L 272.127273 101.769517 
L 275.201653 101.855497 
L 278.276033 101.941478 
L 281.350413 102.027458 
L 284.424793 102.113438 
L 287.499174 102.199419 
L 290.573554 102.285399 
L 293.647934 102.37138 
L 296.722314 102.45736 
L 299.796694 102.543341 
L 302.871074 102.629321 
L 305.945455 102.715302 
L 309.019835 102.801282 
L 312.094215 102.887263 
L 315.168595 102.973243 
L 318.242975 103.059223 
L 321.317355 103.145204 
L 324.391736 103.231184 
L 327.466116 103.317165 
L 330.540496 103.403145 
L 333.614876 103.489126 
L 336.689256 103.575106 
L 339.763636 103.661087 
L 342.838017 103.747067 
L 345.912397 103.833047 
L 348.986777 103.919028 
L 352.061157 104.005008 
L 355.135537 104.090989 
L 358.209917 104.176969 
L 361.284298 104.26295 
L 364.358678 104.34893 
L 367.433058 104.434911 
L 370.507438 104.520891 
L 373.581818 104.606872 
L 373.581818 100.714165 
L 373.581818 100.714165 
L 370.507438 100.628185 
L 367.433058 100.542205 
L 364.358678 100.456224 
L 361.284298 100.370244 
L 358.209917 100.284263 
L 355.135537 100.198283 
L 352.061157 100.112302 
L 348.986777 100.026322 
L 345.912397 99.940341 
L 342.838017 99.854361 
L 339.763636 99.768381 
L 336.689256 99.6824 
L 333.614876 99.59642 
L 330.540496 99.510439 
L 327.466116 99.424459 
L 324.391736 99.338478 
L 321.317355 99.252498 
L 318.242975 99.166517 
L 315.168595 99.080537 
L 312.094215 98.994556 
L 309.019835 98.908576 
L 305.945455 98.822596 
L 302.871074 98.736615 
L 299.796694 98.650635 
L 296.722314 98.564654 
L 293.647934 98.478674 
L 290.573554 98.392693 
L 287.499174 98.306713 
L 284.424793 98.220732 
L 281.350413 98.134752 
L 278.276033 98.048772 
L 275.201653 97.962791 
L 272.127273 97.876811 
L 269.052893 97.79083 
L 265.978512 97.70485 
L 262.904132 97.618869 
L 259.829752 97.532889 
L 256.755372 97.446908 
L 253.680992 97.360928 
L 250.606612 97.274947 
L 247.532231 97.188967 
L 244.457851 97.102987 
L 241.383471 97.017006 
L 238.309091 96.931026 
L 235.234711 96.845045 
L 232.160331 96.759065 
L 229.08595 96.673084 
L 226.01157 96.587104 
L 222.93719 96.501123 
L 219.86281 96.415143 
L 216.78843 96.329163 
L 213.71405 96.243182 
L 210.639669 96.157202 
L 207.565289 96.071221 
L 204.490909 95.985241 
L 201.416529 95.89926 
L 198.342149 95.81328 
L 195.267769 95.727299 
L 192.193388 95.641319 
L 189.119008 95.555338 
L 186.044628 95.469358 
L 182.970248 95.383378 
L 179.895868 95.297397 
L 176.821488 95.211417 
L 173.747107 95.125436 
L 170.672727 95.039456 
L 167.598347 94.953475 
L 164.523967 94.867495 
L 161.449587 94.781514 
L 158.375207 94.695534 
L 155.300826 94.609554 
L 152.226446 94.523573 
L 149.152066 94.437593 
L 146.077686 94.351612 
L 143.003306 94.265632 
L 139.928926 94.179651 
L 136.854545 94.093671 
L 133.780165 94.00769 
L 130.705785 93.92171 
L 127.631405 93.835729 
L 124.557025 93.749749 
L 121.482645 93.663769 
L 118.408264 93.577788 
L 115.333884 93.491808 
L 112.259504 93.405827 
L 109.185124 93.319847 
L 106.110744 93.233866 
L 103.036364 93.147886 
L 99.961983 93.061905 
L 96.887603 92.975925 
L 93.813223 92.889944 
L 90.738843 92.803964 
L 87.664463 92.717984 
L 84.590083 92.632003 
L 81.515702 92.546023 
L 78.441322 92.460042 
L 75.366942 92.374062 
L 72.292562 92.288081 
L 69.218182 92.202101 
z
" style="fill:#fdd0a2;"/>
   </g>
   <g id="PolyCollection_9">
    <path clip-path="url(#p6b20eae056)" d="M 69.218182 90.24 
L 69.218182 92.202101 
L 72.292562 92.288081 
L 75.366942 92.374062 
L 78.441322 92.460042 
L 81.515702 92.546023 
L 84.590083 92.632003 
L 87.664463 92.717984 
L 90.738843 92.803964 
L 93.813223 92.889944 
L 96.887603 92.975925 
L 99.961983 93.061905 
L 103.036364 93.147886 
L 106.110744 93.233866 
L 109.185124 93.319847 
L 112.259504 93.405827 
L 115.333884 93.491808 
L 118.408264 93.577788 
L 121.482645 93.663769 
L 124.557025 93.749749 
L 127.631405 93.835729 
L 130.705785 93.92171 
L 133.780165 94.00769 
L 136.854545 94.093671 
L 139.928926 94.179651 
L 143.003306 94.265632 
L 146.077686 94.351612 
L 149.152066 94.437593 
L 152.226446 94.523573 
L 155.300826 94.609554 
L 158.375207 94.695534 
L 161.449587 94.781514 
L 164.523967 94.867495 
L 167.598347 94.953475 
L 170.672727 95.039456 
L 173.747107 95.125436 
L 176.821488 95.211417 
L 179.895868 95.297397 
L 182.970248 95.383378 
L 186.044628 95.469358 
L 189.119008 95.555338 
L 192.193388 95.641319 
L 195.267769 95.727299 
L 198.342149 95.81328 
L 201.416529 95.89926 
L 204.490909 95.985241 
L 207.565289 96.071221 
L 210.639669 96.157202 
L 213.71405 96.243182 
L 216.78843 96.329163 
L 219.86281 96.415143 
L 222.93719 96.501123 
L 226.01157 96.587104 
L 229.08595 96.673084 
L 232.160331 96.759065 
L 235.234711 96.845045 
L 238.309091 96.931026 
L 241.383471 97.017006 
L 244.457851 97.102987 
L 247.532231 97.188967 
L 250.606612 97.274947 
L 253.680992 97.360928 
L 256.755372 97.446908 
L 259.829752 97.532889 
L 262.904132 97.618869 
L 265.978512 97.70485 
L 269.052893 97.79083 
L 272.127273 97.876811 
L 275.201653 97.962791 
L 278.276033 98.048772 
L 281.350413 98.134752 
L 284.424793 98.220732 
L 287.499174 98.306713 
L 290.573554 98.392693 
L 293.647934 98.478674 
L 296.722314 98.564654 
L 299.796694 98.650635 
L 302.871074 98.736615 
L 305.945455 98.822596 
L 309.019835 98.908576 
L 312.094215 98.994556 
L 315.168595 99.080537 
L 318.242975 99.166517 
L 321.317355 99.252498 
L 324.391736 99.338478 
L 327.466116 99.424459 
L 330.540496 99.510439 
L 333.614876 99.59642 
L 336.689256 99.6824 
L 339.763636 99.768381 
L 342.838017 99.854361 
L 345.912397 99.940341 
L 348.986777 100.026322 
L 352.061157 100.112302 
L 355.135537 100.198283 
L 358.209917 100.284263 
L 361.284298 100.370244 
L 364.358678 100.456224 
L 367.433058 100.542205 
L 370.507438 100.628185 
L 373.581818 100.714165 
L 373.581818 100.714165 
L 373.581818 100.714165 
L 370.507438 100.608366 
L 367.433058 100.502566 
L 364.358678 100.396767 
L 361.284298 100.290967 
L 358.209917 100.185167 
L 355.135537 100.079368 
L 352.061157 99.973568 
L 348.986777 99.867768 
L 345.912397 99.761969 
L 342.838017 99.656169 
L 339.763636 99.550369 
L 336.689256 99.44457 
L 333.614876 99.33877 
L 330.540496 99.23297 
L 327.466116 99.127171 
L 324.391736 99.021371 
L 321.317355 98.915571 
L 318.242975 98.809772 
L 315.168595 98.703972 
L 312.094215 98.598172 
L 309.019835 98.492373 
L 305.945455 98.386573 
L 302.871074 98.280773 
L 299.796694 98.174974 
L 296.722314 98.069174 
L 293.647934 97.963375 
L 290.573554 97.857575 
L 287.499174 97.751775 
L 284.424793 97.645976 
L 281.350413 97.540176 
L 278.276033 97.434376 
L 275.201653 97.328577 
L 272.127273 97.222777 
L 269.052893 97.116977 
L 265.978512 97.011178 
L 262.904132 96.905378 
L 259.829752 96.799578 
L 256.755372 96.693779 
L 253.680992 96.587979 
L 250.606612 96.482179 
L 247.532231 96.37638 
L 244.457851 96.27058 
L 241.383471 96.16478 
L 238.309091 96.058981 
L 235.234711 95.953181 
L 232.160331 95.847382 
L 229.08595 95.741582 
L 226.01157 95.635782 
L 222.93719 95.529983 
L 219.86281 95.424183 
L 216.78843 95.318383 
L 213.71405 95.212584 
L 210.639669 95.106784 
L 207.565289 95.000984 
L 204.490909 94.895185 
L 201.416529 94.789385 
L 198.342149 94.683585 
L 195.267769 94.577786 
L 192.193388 94.471986 
L 189.119008 94.366186 
L 186.044628 94.260387 
L 182.970248 94.154587 
L 179.895868 94.048787 
L 176.821488 93.942988 
L 173.747107 93.837188 
L 170.672727 93.731388 
L 167.598347 93.625589 
L 164.523967 93.519789 
L 161.449587 93.41399 
L 158.375207 93.30819 
L 155.300826 93.20239 
L 152.226446 93.096591 
L 149.152066 92.990791 
L 146.077686 92.884991 
L 143.003306 92.779192 
L 139.928926 92.673392 
L 136.854545 92.567592 
L 133.780165 92.461793 
L 130.705785 92.355993 
L 127.631405 92.250193 
L 124.557025 92.144394 
L 121.482645 92.038594 
L 118.408264 91.932794 
L 115.333884 91.826995 
L 112.259504 91.721195 
L 109.185124 91.615395 
L 106.110744 91.509596 
L 103.036364 91.403796 
L 99.961983 91.297997 
L 96.887603 91.192197 
L 93.813223 91.086397 
L 90.738843 90.980598 
L 87.664463 90.874798 
L 84.590083 90.768998 
L 81.515702 90.663199 
L 78.441322 90.557399 
L 75.366942 90.451599 
L 72.292562 90.3458 
L 69.218182 90.24 
z
" style="fill:#31a354;"/>
   </g>
   <g id="PolyCollection_10">
    <path clip-path="url(#p6b20eae056)" d="M 69.218182 90.24 
L 69.218182 90.24 
L 72.292562 90.3458 
L 75.366942 90.451599 
L 78.441322 90.557399 
L 81.515702 90.663199 
L 84.590083 90.768998 
L 87.664463 90.874798 
L 90.738843 90.980598 
L 93.813223 91.086397 
L 96.887603 91.192197 
L 99.961983 91.297997 
L 103.036364 91.403796 
L 106.110744 91.509596 
L 109.185124 91.615395 
L 112.259504 91.721195 
L 115.333884 91.826995 
L 118.408264 91.932794 
L 121.482645 92.038594 
L 124.557025 92.144394 
L 127.631405 92.250193 
L 130.705785 92.355993 
L 133.780165 92.461793 
L 136.854545 92.567592 
L 139.928926 92.673392 
L 143.003306 92.779192 
L 146.077686 92.884991 
L 149.152066 92.990791 
L 152.226446 93.096591 
L 155.300826 93.20239 
L 158.375207 93.30819 
L 161.449587 93.41399 
L 164.523967 93.519789 
L 167.598347 93.625589 
L 170.672727 93.731388 
L 173.747107 93.837188 
L 176.821488 93.942988 
L 179.895868 94.048787 
L 182.970248 94.154587 
L 186.044628 94.260387 
L 189.119008 94.366186 
L 192.193388 94.471986 
L 195.267769 94.577786 
L 198.342149 94.683585 
L 201.416529 94.789385 
L 204.490909 94.895185 
L 207.565289 95.000984 
L 210.639669 95.106784 
L 213.71405 95.212584 
L 216.78843 95.318383 
L 219.86281 95.424183 
L 222.93719 95.529983 
L 226.01157 95.635782 
L 229.08595 95.741582 
L 232.160331 95.847382 
L 235.234711 95.953181 
L 238.309091 96.058981 
L 241.383471 96.16478 
L 244.457851 96.27058 
L 247.532231 96.37638 
L 250.606612 96.482179 
L 253.680992 96.587979 
L 256.755372 96.693779 
L 259.829752 96.799578 
L 262.904132 96.905378 
L 265.978512 97.011178 
L 269.052893 97.116977 
L 272.127273 97.222777 
L 275.201653 97.328577 
L 278.276033 97.434376 
L 281.350413 97.540176 
L 284.424793 97.645976 
L 287.499174 97.751775 
L 290.573554 97.857575 
L 293.647934 97.963375 
L 296.722314 98.069174 
L 299.796694 98.174974 
L 302.871074 98.280773 
L 305.945455 98.386573 
L 309.019835 98.492373 
L 312.094215 98.598172 
L 315.168595 98.703972 
L 318.242975 98.809772 
L 321.317355 98.915571 
L 324.391736 99.021371 
L 327.466116 99.127171 
L 330.540496 99.23297 
L 333.614876 99.33877 
L 336.689256 99.44457 
L 339.763636 99.550369 
L 342.838017 99.656169 
L 345.912397 99.761969 
L 348.986777 99.867768 
L 352.061157 99.973568 
L 355.135537 100.079368 
L 358.209917 100.185167 
L 361.284298 100.290967 
L 364.358678 100.396767 
L 367.433058 100.502566 
L 370.507438 100.608366 
L 373.581818 100.714165 
L 373.581818 98.639642 
L 373.581818 98.639642 
L 370.507438 98.554797 
L 367.433058 98.469952 
L 364.358678 98.385107 
L 361.284298 98.300262 
L 358.209917 98.215418 
L 355.135537 98.130573 
L 352.061157 98.045728 
L 348.986777 97.960883 
L 345.912397 97.876038 
L 342.838017 97.791193 
L 339.763636 97.706348 
L 336.689256 97.621504 
L 333.614876 97.536659 
L 330.540496 97.451814 
L 327.466116 97.366969 
L 324.391736 97.282124 
L 321.317355 97.197279 
L 318.242975 97.112434 
L 315.168595 97.027589 
L 312.094215 96.942745 
L 309.019835 96.8579 
L 305.945455 96.773055 
L 302.871074 96.68821 
L 299.796694 96.603365 
L 296.722314 96.51852 
L 293.647934 96.433675 
L 290.573554 96.348831 
L 287.499174 96.263986 
L 284.424793 96.179141 
L 281.350413 96.094296 
L 278.276033 96.009451 
L 275.201653 95.924606 
L 272.127273 95.839761 
L 269.052893 95.754916 
L 265.978512 95.670072 
L 262.904132 95.585227 
L 259.829752 95.500382 
L 256.755372 95.415537 
L 253.680992 95.330692 
L 250.606612 95.245847 
L 247.532231 95.161002 
L 244.457851 95.076157 
L 241.383471 94.991313 
L 238.309091 94.906468 
L 235.234711 94.821623 
L 232.160331 94.736778 
L 229.08595 94.651933 
L 226.01157 94.567088 
L 222.93719 94.482243 
L 219.86281 94.397399 
L 216.78843 94.312554 
L 213.71405 94.227709 
L 210.639669 94.142864 
L 207.565289 94.058019 
L 204.490909 93.973174 
L 201.416529 93.888329 
L 198.342149 93.803484 
L 195.267769 93.71864 
L 192.193388 93.633795 
L 189.119008 93.54895 
L 186.044628 93.464105 
L 182.970248 93.37926 
L 179.895868 93.294415 
L 176.821488 93.20957 
L 173.747107 93.124726 
L 170.672727 93.039881 
L 167.598347 92.955036 
L 164.523967 92.870191 
L 161.449587 92.785346 
L 158.375207 92.700501 
L 155.300826 92.615656 
L 152.226446 92.530811 
L 149.152066 92.445967 
L 146.077686 92.361122 
L 143.003306 92.276277 
L 139.928926 92.191432 
L 136.854545 92.106587 
L 133.780165 92.021742 
L 130.705785 91.936897 
L 127.631405 91.852052 
L 124.557025 91.767208 
L 121.482645 91.682363 
L 118.408264 91.597518 
L 115.333884 91.512673 
L 112.259504 91.427828 
L 109.185124 91.342983 
L 106.110744 91.258138 
L 103.036364 91.173294 
L 99.961983 91.088449 
L 96.887603 91.003604 
L 93.813223 90.918759 
L 90.738843 90.833914 
L 87.664463 90.749069 
L 84.590083 90.664224 
L 81.515702 90.579379 
L 78.441322 90.494535 
L 75.366942 90.40969 
L 72.292562 90.324845 
L 69.218182 90.24 
z
" style="fill:#74c476;"/>
   </g>
   <g id="PolyCollection_11">
    <path clip-path="url(#p6b20eae056)" d="M 69.218182 90.24 
L 69.218182 90.24 
L 72.292562 90.324845 
L 75.366942 90.40969 
L 78.441322 90.494535 
L 81.515702 90.579379 
L 84.590083 90.664224 
L 87.664463 90.749069 
L 90.738843 90.833914 
L 93.813223 90.918759 
L 96.887603 91.003604 
L 99.961983 91.088449 
L 103.036364 91.173294 
L 106.110744 91.258138 
L 109.185124 91.342983 
L 112.259504 91.427828 
L 115.333884 91.512673 
L 118.408264 91.597518 
L 121.482645 91.682363 
L 124.557025 91.767208 
L 127.631405 91.852052 
L 130.705785 91.936897 
L 133.780165 92.021742 
L 136.854545 92.106587 
L 139.928926 92.191432 
L 143.003306 92.276277 
L 146.077686 92.361122 
L 149.152066 92.445967 
L 152.226446 92.530811 
L 155.300826 92.615656 
L 158.375207 92.700501 
L 161.449587 92.785346 
L 164.523967 92.870191 
L 167.598347 92.955036 
L 170.672727 93.039881 
L 173.747107 93.124726 
L 176.821488 93.20957 
L 179.895868 93.294415 
L 182.970248 93.37926 
L 186.044628 93.464105 
L 189.119008 93.54895 
L 192.193388 93.633795 
L 195.267769 93.71864 
L 198.342149 93.803484 
L 201.416529 93.888329 
L 204.490909 93.973174 
L 207.565289 94.058019 
L 210.639669 94.142864 
L 213.71405 94.227709 
L 216.78843 94.312554 
L 219.86281 94.397399 
L 222.93719 94.482243 
L 226.01157 94.567088 
L 229.08595 94.651933 
L 232.160331 94.736778 
L 235.234711 94.821623 
L 238.309091 94.906468 
L 241.383471 94.991313 
L 244.457851 95.076157 
L 247.532231 95.161002 
L 250.606612 95.245847 
L 253.680992 95.330692 
L 256.755372 95.415537 
L 259.829752 95.500382 
L 262.904132 95.585227 
L 265.978512 95.670072 
L 269.052893 95.754916 
L 272.127273 95.839761 
L 275.201653 95.924606 
L 278.276033 96.009451 
L 281.350413 96.094296 
L 284.424793 96.179141 
L 287.499174 96.263986 
L 290.573554 96.348831 
L 293.647934 96.433675 
L 296.722314 96.51852 
L 299.796694 96.603365 
L 302.871074 96.68821 
L 305.945455 96.773055 
L 309.019835 96.8579 
L 312.094215 96.942745 
L 315.168595 97.027589 
L 318.242975 97.112434 
L 321.317355 97.197279 
L 324.391736 97.282124 
L 327.466116 97.366969 
L 330.540496 97.451814 
L 333.614876 97.536659 
L 336.689256 97.621504 
L 339.763636 97.706348 
L 342.838017 97.791193 
L 345.912397 97.876038 
L 348.986777 97.960883 
L 352.061157 98.045728 
L 355.135537 98.130573 
L 358.209917 98.215418 
L 361.284298 98.300262 
L 364.358678 98.385107 
L 367.433058 98.469952 
L 370.507438 98.554797 
L 373.581818 98.639642 
L 373.581818 96.324671 
L 373.581818 96.324671 
L 370.507438 96.26321 
L 367.433058 96.201748 
L 364.358678 96.140287 
L 361.284298 96.078826 
L 358.209917 96.017365 
L 355.135537 95.955903 
L 352.061157 95.894442 
L 348.986777 95.832981 
L 345.912397 95.771519 
L 342.838017 95.710058 
L 339.763636 95.648597 
L 336.689256 95.587135 
L 333.614876 95.525674 
L 330.540496 95.464213 
L 327.466116 95.402751 
L 324.391736 95.34129 
L 321.317355 95.279829 
L 318.242975 95.218367 
L 315.168595 95.156906 
L 312.094215 95.095445 
L 309.019835 95.033983 
L 305.945455 94.972522 
L 302.871074 94.911061 
L 299.796694 94.849599 
L 296.722314 94.788138 
L 293.647934 94.726677 
L 290.573554 94.665215 
L 287.499174 94.603754 
L 284.424793 94.542293 
L 281.350413 94.480831 
L 278.276033 94.41937 
L 275.201653 94.357909 
L 272.127273 94.296447 
L 269.052893 94.234986 
L 265.978512 94.173525 
L 262.904132 94.112063 
L 259.829752 94.050602 
L 256.755372 93.989141 
L 253.680992 93.927679 
L 250.606612 93.866218 
L 247.532231 93.804757 
L 244.457851 93.743296 
L 241.383471 93.681834 
L 238.309091 93.620373 
L 235.234711 93.558912 
L 232.160331 93.49745 
L 229.08595 93.435989 
L 226.01157 93.374528 
L 222.93719 93.313066 
L 219.86281 93.251605 
L 216.78843 93.190144 
L 213.71405 93.128682 
L 210.639669 93.067221 
L 207.565289 93.00576 
L 204.490909 92.944298 
L 201.416529 92.882837 
L 198.342149 92.821376 
L 195.267769 92.759914 
L 192.193388 92.698453 
L 189.119008 92.636992 
L 186.044628 92.57553 
L 182.970248 92.514069 
L 179.895868 92.452608 
L 176.821488 92.391146 
L 173.747107 92.329685 
L 170.672727 92.268224 
L 167.598347 92.206762 
L 164.523967 92.145301 
L 161.449587 92.08384 
L 158.375207 92.022378 
L 155.300826 91.960917 
L 152.226446 91.899456 
L 149.152066 91.837994 
L 146.077686 91.776533 
L 143.003306 91.715072 
L 139.928926 91.65361 
L 136.854545 91.592149 
L 133.780165 91.530688 
L 130.705785 91.469226 
L 127.631405 91.407765 
L 124.557025 91.346304 
L 121.482645 91.284843 
L 118.408264 91.223381 
L 115.333884 91.16192 
L 112.259504 91.100459 
L 109.185124 91.038997 
L 106.110744 90.977536 
L 103.036364 90.916075 
L 99.961983 90.854613 
L 96.887603 90.793152 
L 93.813223 90.731691 
L 90.738843 90.670229 
L 87.664463 90.608768 
L 84.590083 90.547307 
L 81.515702 90.485845 
L 78.441322 90.424384 
L 75.366942 90.362923 
L 72.292562 90.301461 
L 69.218182 90.24 
z
" style="fill:#a1d99b;"/>
   </g>
   <g id="matplotlib.axis_1">
    <g id="xtick_1">
     <g id="line2d_1">
      <defs>
       <path d="M 0 0 
L 0 3.5 
" id="m21629fdb56" style="stroke:#000000;stroke-width:0.8;"/>
      </defs>
      <g>
       <use style="stroke:#000000;stroke-width:0.8;" x="69.218182" xlink:href="#m21629fdb56" y="512.64"/>
      </g>
     </g>
     <g id="text_1">
      <!-- 0 -->
      <g transform="translate(66.036932 527.238438)scale(0.1 -0.1)">
       <defs>
        <path d="M 2034 4250 
Q 1547 4250 1301 3770 
Q 1056 3291 1056 2328 
Q 1056 1369 1301 889 
Q 1547 409 2034 409 
Q 2525 409 2770 889 
Q 3016 1369 3016 2328 
Q 3016 3291 2770 3770 
Q 2525 4250 2034 4250 
z
M 2034 4750 
Q 2819 4750 3233 4129 
Q 3647 3509 3647 2328 
Q 3647 1150 3233 529 
Q 2819 -91 2034 -91 
Q 1250 -91 836 529 
Q 422 1150 422 2328 
Q 422 3509 836 4129 
Q 1250 4750 2034 4750 
z
" id="DejaVuSans-30" transform="scale(0.015625)"/>
       </defs>
       <use xlink:href="#DejaVuSans-30"/>
      </g>
     </g>
    </g>
    <g id="xtick_2">
     <g id="line2d_2">
      <g>
       <use style="stroke:#000000;stroke-width:0.8;" x="130.090909" xlink:href="#m21629fdb56" y="512.64"/>
      </g>
     </g>
     <g id="text_2">
      <!-- 20 -->
      <g transform="translate(123.728409 527.238438)scale(0.1 -0.1)">
       <defs>
        <path d="M 1228 531 
L 3431 531 
L 3431 0 
L 469 0 
L 469 531 
Q 828 903 1448 1529 
Q 2069 2156 2228 2338 
Q 2531 2678 2651 2914 
Q 2772 3150 2772 3378 
Q 2772 3750 2511 3984 
Q 2250 4219 1831 4219 
Q 1534 4219 1204 4116 
Q 875 4013 500 3803 
L 500 4441 
Q 881 4594 1212 4672 
Q 1544 4750 1819 4750 
Q 2544 4750 2975 4387 
Q 3406 4025 3406 3419 
Q 3406 3131 3298 2873 
Q 3191 2616 2906 2266 
Q 2828 2175 2409 1742 
Q 1991 1309 1228 531 
z
" id="DejaVuSans-32" transform="scale(0.015625)"/>
       </defs>
       <use xlink:href="#DejaVuSans-32"/>
       <use x="63.623047" xlink:href="#DejaVuSans-30"/>
      </g>
     </g>
    </g>
    <g id="xtick_3">
     <g id="line2d_3">
      <g>
       <use style="stroke:#000000;stroke-width:0.8;" x="190.963636" xlink:href="#m21629fdb56" y="512.64"/>
      </g>
     </g>
     <g id="text_3">
      <!-- 40 -->
      <g transform="translate(184.601136 527.238438)scale(0.1 -0.1)">
       <defs>
        <path d="M 2419 4116 
L 825 1625 
L 2419 1625 
L 2419 4116 
z
M 2253 4666 
L 3047 4666 
L 3047 1625 
L 3713 1625 
L 3713 1100 
L 3047 1100 
L 3047 0 
L 2419 0 
L 2419 1100 
L 313 1100 
L 313 1709 
L 2253 4666 
z
" id="DejaVuSans-34" transform="scale(0.015625)"/>
       </defs>
       <use xlink:href="#DejaVuSans-34"/>
       <use x="63.623047" xlink:href="#DejaVuSans-30"/>
      </g>
     </g>
    </g>
    <g id="xtick_4">
     <g id="line2d_4">
      <g>
       <use style="stroke:#000000;stroke-width:0.8;" x="251.836364" xlink:href="#m21629fdb56" y="512.64"/>
      </g>
     </g>
     <g id="text_4">
      <!-- 60 -->
      <g transform="translate(245.473864 527.238438)scale(0.1 -0.1)">
       <defs>
        <path d="M 2113 2584 
Q 1688 2584 1439 2293 
Q 1191 2003 1191 1497 
Q 1191 994 1439 701 
Q 1688 409 2113 409 
Q 2538 409 2786 701 
Q 3034 994 3034 1497 
Q 3034 2003 2786 2293 
Q 2538 2584 2113 2584 
z
M 3366 4563 
L 3366 3988 
Q 3128 4100 2886 4159 
Q 2644 4219 2406 4219 
Q 1781 4219 1451 3797 
Q 1122 3375 1075 2522 
Q 1259 2794 1537 2939 
Q 1816 3084 2150 3084 
Q 2853 3084 3261 2657 
Q 3669 2231 3669 1497 
Q 3669 778 3244 343 
Q 2819 -91 2113 -91 
Q 1303 -91 875 529 
Q 447 1150 447 2328 
Q 447 3434 972 4092 
Q 1497 4750 2381 4750 
Q 2619 4750 2861 4703 
Q 3103 4656 3366 4563 
z
" id="DejaVuSans-36" transform="scale(0.015625)"/>
       </defs>
       <use xlink:href="#DejaVuSans-36"/>
       <use x="63.623047" xlink:href="#DejaVuSans-30"/>
      </g>
     </g>
    </g>
    <g id="xtick_5">
     <g id="line2d_5">
      <g>
       <use style="stroke:#000000;stroke-width:0.8;" x="312.709091" xlink:href="#m21629fdb56" y="512.64"/>
      </g>
     </g>
     <g id="text_5">
      <!-- 80 -->
      <g transform="translate(306.346591 527.238438)scale(0.1 -0.1)">
       <defs>
        <path d="M 2034 2216 
Q 1584 2216 1326 1975 
Q 1069 1734 1069 1313 
Q 1069 891 1326 650 
Q 1584 409 2034 409 
Q 2484 409 2743 651 
Q 3003 894 3003 1313 
Q 3003 1734 2745 1975 
Q 2488 2216 2034 2216 
z
M 1403 2484 
Q 997 2584 770 2862 
Q 544 3141 544 3541 
Q 544 4100 942 4425 
Q 1341 4750 2034 4750 
Q 2731 4750 3128 4425 
Q 3525 4100 3525 3541 
Q 3525 3141 3298 2862 
Q 3072 2584 2669 2484 
Q 3125 2378 3379 2068 
Q 3634 1759 3634 1313 
Q 3634 634 3220 271 
Q 2806 -91 2034 -91 
Q 1263 -91 848 271 
Q 434 634 434 1313 
Q 434 1759 690 2068 
Q 947 2378 1403 2484 
z
M 1172 3481 
Q 1172 3119 1398 2916 
Q 1625 2713 2034 2713 
Q 2441 2713 2670 2916 
Q 2900 3119 2900 3481 
Q 2900 3844 2670 4047 
Q 2441 4250 2034 4250 
Q 1625 4250 1398 4047 
Q 1172 3844 1172 3481 
z
" id="DejaVuSans-38" transform="scale(0.015625)"/>
       </defs>
       <use xlink:href="#DejaVuSans-38"/>
       <use x="63.623047" xlink:href="#DejaVuSans-30"/>
      </g>
     </g>
    </g>
    <g id="xtick_6">
     <g id="line2d_6">
      <g>
       <use style="stroke:#000000;stroke-width:0.8;" x="373.581818" xlink:href="#m21629fdb56" y="512.64"/>
      </g>
     </g>
     <g id="text_6">
      <!-- 100 -->
      <g transform="translate(364.038068 527.238438)scale(0.1 -0.1)">
       <defs>
        <path d="M 794 531 
L 1825 531 
L 1825 4091 
L 703 3866 
L 703 4441 
L 1819 4666 
L 2450 4666 
L 2450 531 
L 3481 531 
L 3481 0 
L 794 0 
L 794 531 
z
" id="DejaVuSans-31" transform="scale(0.015625)"/>
       </defs>
       <use xlink:href="#DejaVuSans-31"/>
       <use x="63.623047" xlink:href="#DejaVuSans-30"/>
       <use x="127.246094" xlink:href="#DejaVuSans-30"/>
      </g>
     </g>
    </g>
    <g id="text_7">
     <!-- Proportion of New Technology in Grid (%) -->
     <g transform="translate(118.632031 540.916563)scale(0.1 -0.1)">
      <defs>
       <path d="M 1259 4147 
L 1259 2394 
L 2053 2394 
Q 2494 2394 2734 2622 
Q 2975 2850 2975 3272 
Q 2975 3691 2734 3919 
Q 2494 4147 2053 4147 
L 1259 4147 
z
M 628 4666 
L 2053 4666 
Q 2838 4666 3239 4311 
Q 3641 3956 3641 3272 
Q 3641 2581 3239 2228 
Q 2838 1875 2053 1875 
L 1259 1875 
L 1259 0 
L 628 0 
L 628 4666 
z
" id="DejaVuSans-50" transform="scale(0.015625)"/>
       <path d="M 2631 2963 
Q 2534 3019 2420 3045 
Q 2306 3072 2169 3072 
Q 1681 3072 1420 2755 
Q 1159 2438 1159 1844 
L 1159 0 
L 581 0 
L 581 3500 
L 1159 3500 
L 1159 2956 
Q 1341 3275 1631 3429 
Q 1922 3584 2338 3584 
Q 2397 3584 2469 3576 
Q 2541 3569 2628 3553 
L 2631 2963 
z
" id="DejaVuSans-72" transform="scale(0.015625)"/>
       <path d="M 1959 3097 
Q 1497 3097 1228 2736 
Q 959 2375 959 1747 
Q 959 1119 1226 758 
Q 1494 397 1959 397 
Q 2419 397 2687 759 
Q 2956 1122 2956 1747 
Q 2956 2369 2687 2733 
Q 2419 3097 1959 3097 
z
M 1959 3584 
Q 2709 3584 3137 3096 
Q 3566 2609 3566 1747 
Q 3566 888 3137 398 
Q 2709 -91 1959 -91 
Q 1206 -91 779 398 
Q 353 888 353 1747 
Q 353 2609 779 3096 
Q 1206 3584 1959 3584 
z
" id="DejaVuSans-6f" transform="scale(0.015625)"/>
       <path d="M 1159 525 
L 1159 -1331 
L 581 -1331 
L 581 3500 
L 1159 3500 
L 1159 2969 
Q 1341 3281 1617 3432 
Q 1894 3584 2278 3584 
Q 2916 3584 3314 3078 
Q 3713 2572 3713 1747 
Q 3713 922 3314 415 
Q 2916 -91 2278 -91 
Q 1894 -91 1617 61 
Q 1341 213 1159 525 
z
M 3116 1747 
Q 3116 2381 2855 2742 
Q 2594 3103 2138 3103 
Q 1681 3103 1420 2742 
Q 1159 2381 1159 1747 
Q 1159 1113 1420 752 
Q 1681 391 2138 391 
Q 2594 391 2855 752 
Q 3116 1113 3116 1747 
z
" id="DejaVuSans-70" transform="scale(0.015625)"/>
       <path d="M 1172 4494 
L 1172 3500 
L 2356 3500 
L 2356 3053 
L 1172 3053 
L 1172 1153 
Q 1172 725 1289 603 
Q 1406 481 1766 481 
L 2356 481 
L 2356 0 
L 1766 0 
Q 1100 0 847 248 
Q 594 497 594 1153 
L 594 3053 
L 172 3053 
L 172 3500 
L 594 3500 
L 594 4494 
L 1172 4494 
z
" id="DejaVuSans-74" transform="scale(0.015625)"/>
       <path d="M 603 3500 
L 1178 3500 
L 1178 0 
L 603 0 
L 603 3500 
z
M 603 4863 
L 1178 4863 
L 1178 4134 
L 603 4134 
L 603 4863 
z
" id="DejaVuSans-69" transform="scale(0.015625)"/>
       <path d="M 3513 2113 
L 3513 0 
L 2938 0 
L 2938 2094 
Q 2938 2591 2744 2837 
Q 2550 3084 2163 3084 
Q 1697 3084 1428 2787 
Q 1159 2491 1159 1978 
L 1159 0 
L 581 0 
L 581 3500 
L 1159 3500 
L 1159 2956 
Q 1366 3272 1645 3428 
Q 1925 3584 2291 3584 
Q 2894 3584 3203 3211 
Q 3513 2838 3513 2113 
z
" id="DejaVuSans-6e" transform="scale(0.015625)"/>
       <path id="DejaVuSans-20" transform="scale(0.015625)"/>
       <path d="M 2375 4863 
L 2375 4384 
L 1825 4384 
Q 1516 4384 1395 4259 
Q 1275 4134 1275 3809 
L 1275 3500 
L 2222 3500 
L 2222 3053 
L 1275 3053 
L 1275 0 
L 697 0 
L 697 3053 
L 147 3053 
L 147 3500 
L 697 3500 
L 697 3744 
Q 697 4328 969 4595 
Q 1241 4863 1831 4863 
L 2375 4863 
z
" id="DejaVuSans-66" transform="scale(0.015625)"/>
       <path d="M 628 4666 
L 1478 4666 
L 3547 763 
L 3547 4666 
L 4159 4666 
L 4159 0 
L 3309 0 
L 1241 3903 
L 1241 0 
L 628 0 
L 628 4666 
z
" id="DejaVuSans-4e" transform="scale(0.015625)"/>
       <path d="M 3597 1894 
L 3597 1613 
L 953 1613 
Q 991 1019 1311 708 
Q 1631 397 2203 397 
Q 2534 397 2845 478 
Q 3156 559 3463 722 
L 3463 178 
Q 3153 47 2828 -22 
Q 2503 -91 2169 -91 
Q 1331 -91 842 396 
Q 353 884 353 1716 
Q 353 2575 817 3079 
Q 1281 3584 2069 3584 
Q 2775 3584 3186 3129 
Q 3597 2675 3597 1894 
z
M 3022 2063 
Q 3016 2534 2758 2815 
Q 2500 3097 2075 3097 
Q 1594 3097 1305 2825 
Q 1016 2553 972 2059 
L 3022 2063 
z
" id="DejaVuSans-65" transform="scale(0.015625)"/>
       <path d="M 269 3500 
L 844 3500 
L 1563 769 
L 2278 3500 
L 2956 3500 
L 3675 769 
L 4391 3500 
L 4966 3500 
L 4050 0 
L 3372 0 
L 2619 2869 
L 1863 0 
L 1184 0 
L 269 3500 
z
" id="DejaVuSans-77" transform="scale(0.015625)"/>
       <path d="M -19 4666 
L 3928 4666 
L 3928 4134 
L 2272 4134 
L 2272 0 
L 1638 0 
L 1638 4134 
L -19 4134 
L -19 4666 
z
" id="DejaVuSans-54" transform="scale(0.015625)"/>
       <path d="M 3122 3366 
L 3122 2828 
Q 2878 2963 2633 3030 
Q 2388 3097 2138 3097 
Q 1578 3097 1268 2742 
Q 959 2388 959 1747 
Q 959 1106 1268 751 
Q 1578 397 2138 397 
Q 2388 397 2633 464 
Q 2878 531 3122 666 
L 3122 134 
Q 2881 22 2623 -34 
Q 2366 -91 2075 -91 
Q 1284 -91 818 406 
Q 353 903 353 1747 
Q 353 2603 823 3093 
Q 1294 3584 2113 3584 
Q 2378 3584 2631 3529 
Q 2884 3475 3122 3366 
z
" id="DejaVuSans-63" transform="scale(0.015625)"/>
       <path d="M 3513 2113 
L 3513 0 
L 2938 0 
L 2938 2094 
Q 2938 2591 2744 2837 
Q 2550 3084 2163 3084 
Q 1697 3084 1428 2787 
Q 1159 2491 1159 1978 
L 1159 0 
L 581 0 
L 581 4863 
L 1159 4863 
L 1159 2956 
Q 1366 3272 1645 3428 
Q 1925 3584 2291 3584 
Q 2894 3584 3203 3211 
Q 3513 2838 3513 2113 
z
" id="DejaVuSans-68" transform="scale(0.015625)"/>
       <path d="M 603 4863 
L 1178 4863 
L 1178 0 
L 603 0 
L 603 4863 
z
" id="DejaVuSans-6c" transform="scale(0.015625)"/>
       <path d="M 2906 1791 
Q 2906 2416 2648 2759 
Q 2391 3103 1925 3103 
Q 1463 3103 1205 2759 
Q 947 2416 947 1791 
Q 947 1169 1205 825 
Q 1463 481 1925 481 
Q 2391 481 2648 825 
Q 2906 1169 2906 1791 
z
M 3481 434 
Q 3481 -459 3084 -895 
Q 2688 -1331 1869 -1331 
Q 1566 -1331 1297 -1286 
Q 1028 -1241 775 -1147 
L 775 -588 
Q 1028 -725 1275 -790 
Q 1522 -856 1778 -856 
Q 2344 -856 2625 -561 
Q 2906 -266 2906 331 
L 2906 616 
Q 2728 306 2450 153 
Q 2172 0 1784 0 
Q 1141 0 747 490 
Q 353 981 353 1791 
Q 353 2603 747 3093 
Q 1141 3584 1784 3584 
Q 2172 3584 2450 3431 
Q 2728 3278 2906 2969 
L 2906 3500 
L 3481 3500 
L 3481 434 
z
" id="DejaVuSans-67" transform="scale(0.015625)"/>
       <path d="M 2059 -325 
Q 1816 -950 1584 -1140 
Q 1353 -1331 966 -1331 
L 506 -1331 
L 506 -850 
L 844 -850 
Q 1081 -850 1212 -737 
Q 1344 -625 1503 -206 
L 1606 56 
L 191 3500 
L 800 3500 
L 1894 763 
L 2988 3500 
L 3597 3500 
L 2059 -325 
z
" id="DejaVuSans-79" transform="scale(0.015625)"/>
       <path d="M 3809 666 
L 3809 1919 
L 2778 1919 
L 2778 2438 
L 4434 2438 
L 4434 434 
Q 4069 175 3628 42 
Q 3188 -91 2688 -91 
Q 1594 -91 976 548 
Q 359 1188 359 2328 
Q 359 3472 976 4111 
Q 1594 4750 2688 4750 
Q 3144 4750 3555 4637 
Q 3966 4525 4313 4306 
L 4313 3634 
Q 3963 3931 3569 4081 
Q 3175 4231 2741 4231 
Q 1884 4231 1454 3753 
Q 1025 3275 1025 2328 
Q 1025 1384 1454 906 
Q 1884 428 2741 428 
Q 3075 428 3337 486 
Q 3600 544 3809 666 
z
" id="DejaVuSans-47" transform="scale(0.015625)"/>
       <path d="M 2906 2969 
L 2906 4863 
L 3481 4863 
L 3481 0 
L 2906 0 
L 2906 525 
Q 2725 213 2448 61 
Q 2172 -91 1784 -91 
Q 1150 -91 751 415 
Q 353 922 353 1747 
Q 353 2572 751 3078 
Q 1150 3584 1784 3584 
Q 2172 3584 2448 3432 
Q 2725 3281 2906 2969 
z
M 947 1747 
Q 947 1113 1208 752 
Q 1469 391 1925 391 
Q 2381 391 2643 752 
Q 2906 1113 2906 1747 
Q 2906 2381 2643 2742 
Q 2381 3103 1925 3103 
Q 1469 3103 1208 2742 
Q 947 2381 947 1747 
z
" id="DejaVuSans-64" transform="scale(0.015625)"/>
       <path d="M 1984 4856 
Q 1566 4138 1362 3434 
Q 1159 2731 1159 2009 
Q 1159 1288 1364 580 
Q 1569 -128 1984 -844 
L 1484 -844 
Q 1016 -109 783 600 
Q 550 1309 550 2009 
Q 550 2706 781 3412 
Q 1013 4119 1484 4856 
L 1984 4856 
z
" id="DejaVuSans-28" transform="scale(0.015625)"/>
       <path d="M 4653 2053 
Q 4381 2053 4226 1822 
Q 4072 1591 4072 1178 
Q 4072 772 4226 539 
Q 4381 306 4653 306 
Q 4919 306 5073 539 
Q 5228 772 5228 1178 
Q 5228 1588 5073 1820 
Q 4919 2053 4653 2053 
z
M 4653 2450 
Q 5147 2450 5437 2106 
Q 5728 1763 5728 1178 
Q 5728 594 5436 251 
Q 5144 -91 4653 -91 
Q 4153 -91 3862 251 
Q 3572 594 3572 1178 
Q 3572 1766 3864 2108 
Q 4156 2450 4653 2450 
z
M 1428 4353 
Q 1159 4353 1004 4120 
Q 850 3888 850 3481 
Q 850 3069 1003 2837 
Q 1156 2606 1428 2606 
Q 1700 2606 1854 2837 
Q 2009 3069 2009 3481 
Q 2009 3884 1853 4118 
Q 1697 4353 1428 4353 
z
M 4250 4750 
L 4750 4750 
L 1831 -91 
L 1331 -91 
L 4250 4750 
z
M 1428 4750 
Q 1922 4750 2215 4408 
Q 2509 4066 2509 3481 
Q 2509 2891 2217 2550 
Q 1925 2209 1428 2209 
Q 931 2209 642 2551 
Q 353 2894 353 3481 
Q 353 4063 643 4406 
Q 934 4750 1428 4750 
z
" id="DejaVuSans-25" transform="scale(0.015625)"/>
       <path d="M 513 4856 
L 1013 4856 
Q 1481 4119 1714 3412 
Q 1947 2706 1947 2009 
Q 1947 1309 1714 600 
Q 1481 -109 1013 -844 
L 513 -844 
Q 928 -128 1133 580 
Q 1338 1288 1338 2009 
Q 1338 2731 1133 3434 
Q 928 4138 513 4856 
z
" id="DejaVuSans-29" transform="scale(0.015625)"/>
      </defs>
      <use xlink:href="#DejaVuSans-50"/>
      <use x="58.552734" xlink:href="#DejaVuSans-72"/>
      <use x="97.416016" xlink:href="#DejaVuSans-6f"/>
      <use x="158.597656" xlink:href="#DejaVuSans-70"/>
      <use x="222.074219" xlink:href="#DejaVuSans-6f"/>
      <use x="283.255859" xlink:href="#DejaVuSans-72"/>
      <use x="324.369141" xlink:href="#DejaVuSans-74"/>
      <use x="363.578125" xlink:href="#DejaVuSans-69"/>
      <use x="391.361328" xlink:href="#DejaVuSans-6f"/>
      <use x="452.542969" xlink:href="#DejaVuSans-6e"/>
      <use x="515.921875" xlink:href="#DejaVuSans-20"/>
      <use x="547.708984" xlink:href="#DejaVuSans-6f"/>
      <use x="608.890625" xlink:href="#DejaVuSans-66"/>
      <use x="644.095703" xlink:href="#DejaVuSans-20"/>
      <use x="675.882812" xlink:href="#DejaVuSans-4e"/>
      <use x="750.6875" xlink:href="#DejaVuSans-65"/>
      <use x="812.210938" xlink:href="#DejaVuSans-77"/>
      <use x="893.998047" xlink:href="#DejaVuSans-20"/>
      <use x="925.785156" xlink:href="#DejaVuSans-54"/>
      <use x="969.869141" xlink:href="#DejaVuSans-65"/>
      <use x="1031.392578" xlink:href="#DejaVuSans-63"/>
      <use x="1086.373047" xlink:href="#DejaVuSans-68"/>
      <use x="1149.751953" xlink:href="#DejaVuSans-6e"/>
      <use x="1213.130859" xlink:href="#DejaVuSans-6f"/>
      <use x="1274.3125" xlink:href="#DejaVuSans-6c"/>
      <use x="1302.095703" xlink:href="#DejaVuSans-6f"/>
      <use x="1363.277344" xlink:href="#DejaVuSans-67"/>
      <use x="1426.753906" xlink:href="#DejaVuSans-79"/>
      <use x="1485.933594" xlink:href="#DejaVuSans-20"/>
      <use x="1517.720703" xlink:href="#DejaVuSans-69"/>
      <use x="1545.503906" xlink:href="#DejaVuSans-6e"/>
      <use x="1608.882812" xlink:href="#DejaVuSans-20"/>
      <use x="1640.669922" xlink:href="#DejaVuSans-47"/>
      <use x="1718.160156" xlink:href="#DejaVuSans-72"/>
      <use x="1759.273438" xlink:href="#DejaVuSans-69"/>
      <use x="1787.056641" xlink:href="#DejaVuSans-64"/>
      <use x="1850.533203" xlink:href="#DejaVuSans-20"/>
      <use x="1882.320312" xlink:href="#DejaVuSans-28"/>
      <use x="1921.333984" xlink:href="#DejaVuSans-25"/>
      <use x="2016.353516" xlink:href="#DejaVuSans-29"/>
     </g>
    </g>
   </g>
   <g id="matplotlib.axis_2">
    <g id="ytick_1">
     <g id="line2d_7">
      <defs>
       <path d="M 0 0 
L -3.5 0 
" id="med92a538fb" style="stroke:#000000;stroke-width:0.8;"/>
      </defs>
      <g>
       <use style="stroke:#000000;stroke-width:0.8;" x="54" xlink:href="#med92a538fb" y="512.64"/>
      </g>
     </g>
     <g id="text_8">
      <!-- 0 -->
      <g transform="translate(40.6375 516.439219)scale(0.1 -0.1)">
       <use xlink:href="#DejaVuSans-30"/>
      </g>
     </g>
    </g>
    <g id="ytick_2">
     <g id="line2d_8">
      <g>
       <use style="stroke:#000000;stroke-width:0.8;" x="54" xlink:href="#med92a538fb" y="422.249316"/>
      </g>
     </g>
     <g id="text_9">
      <!-- 20 -->
      <g transform="translate(34.275 426.048535)scale(0.1 -0.1)">
       <use xlink:href="#DejaVuSans-32"/>
       <use x="63.623047" xlink:href="#DejaVuSans-30"/>
      </g>
     </g>
    </g>
    <g id="ytick_3">
     <g id="line2d_9">
      <g>
       <use style="stroke:#000000;stroke-width:0.8;" x="54" xlink:href="#med92a538fb" y="331.858633"/>
      </g>
     </g>
     <g id="text_10">
      <!-- 40 -->
      <g transform="translate(34.275 335.657851)scale(0.1 -0.1)">
       <use xlink:href="#DejaVuSans-34"/>
       <use x="63.623047" xlink:href="#DejaVuSans-30"/>
      </g>
     </g>
    </g>
    <g id="ytick_4">
     <g id="line2d_10">
      <g>
       <use style="stroke:#000000;stroke-width:0.8;" x="54" xlink:href="#med92a538fb" y="241.467949"/>
      </g>
     </g>
     <g id="text_11">
      <!-- 60 -->
      <g transform="translate(34.275 245.267168)scale(0.1 -0.1)">
       <use xlink:href="#DejaVuSans-36"/>
       <use x="63.623047" xlink:href="#DejaVuSans-30"/>
      </g>
     </g>
    </g>
    <g id="ytick_5">
     <g id="line2d_11">
      <g>
       <use style="stroke:#000000;stroke-width:0.8;" x="54" xlink:href="#med92a538fb" y="151.077265"/>
      </g>
     </g>
     <g id="text_12">
      <!-- 80 -->
      <g transform="translate(34.275 154.876484)scale(0.1 -0.1)">
       <use xlink:href="#DejaVuSans-38"/>
       <use x="63.623047" xlink:href="#DejaVuSans-30"/>
      </g>
     </g>
    </g>
    <g id="text_13">
     <!-- Carbon Equivalent Emissions (Mt) -->
     <g transform="translate(28.195312 375.195625)rotate(-90)scale(0.1 -0.1)">
      <defs>
       <path d="M 4122 4306 
L 4122 3641 
Q 3803 3938 3442 4084 
Q 3081 4231 2675 4231 
Q 1875 4231 1450 3742 
Q 1025 3253 1025 2328 
Q 1025 1406 1450 917 
Q 1875 428 2675 428 
Q 3081 428 3442 575 
Q 3803 722 4122 1019 
L 4122 359 
Q 3791 134 3420 21 
Q 3050 -91 2638 -91 
Q 1578 -91 968 557 
Q 359 1206 359 2328 
Q 359 3453 968 4101 
Q 1578 4750 2638 4750 
Q 3056 4750 3426 4639 
Q 3797 4528 4122 4306 
z
" id="DejaVuSans-43" transform="scale(0.015625)"/>
       <path d="M 2194 1759 
Q 1497 1759 1228 1600 
Q 959 1441 959 1056 
Q 959 750 1161 570 
Q 1363 391 1709 391 
Q 2188 391 2477 730 
Q 2766 1069 2766 1631 
L 2766 1759 
L 2194 1759 
z
M 3341 1997 
L 3341 0 
L 2766 0 
L 2766 531 
Q 2569 213 2275 61 
Q 1981 -91 1556 -91 
Q 1019 -91 701 211 
Q 384 513 384 1019 
Q 384 1609 779 1909 
Q 1175 2209 1959 2209 
L 2766 2209 
L 2766 2266 
Q 2766 2663 2505 2880 
Q 2244 3097 1772 3097 
Q 1472 3097 1187 3025 
Q 903 2953 641 2809 
L 641 3341 
Q 956 3463 1253 3523 
Q 1550 3584 1831 3584 
Q 2591 3584 2966 3190 
Q 3341 2797 3341 1997 
z
" id="DejaVuSans-61" transform="scale(0.015625)"/>
       <path d="M 3116 1747 
Q 3116 2381 2855 2742 
Q 2594 3103 2138 3103 
Q 1681 3103 1420 2742 
Q 1159 2381 1159 1747 
Q 1159 1113 1420 752 
Q 1681 391 2138 391 
Q 2594 391 2855 752 
Q 3116 1113 3116 1747 
z
M 1159 2969 
Q 1341 3281 1617 3432 
Q 1894 3584 2278 3584 
Q 2916 3584 3314 3078 
Q 3713 2572 3713 1747 
Q 3713 922 3314 415 
Q 2916 -91 2278 -91 
Q 1894 -91 1617 61 
Q 1341 213 1159 525 
L 1159 0 
L 581 0 
L 581 4863 
L 1159 4863 
L 1159 2969 
z
" id="DejaVuSans-62" transform="scale(0.015625)"/>
       <path d="M 628 4666 
L 3578 4666 
L 3578 4134 
L 1259 4134 
L 1259 2753 
L 3481 2753 
L 3481 2222 
L 1259 2222 
L 1259 531 
L 3634 531 
L 3634 0 
L 628 0 
L 628 4666 
z
" id="DejaVuSans-45" transform="scale(0.015625)"/>
       <path d="M 947 1747 
Q 947 1113 1208 752 
Q 1469 391 1925 391 
Q 2381 391 2643 752 
Q 2906 1113 2906 1747 
Q 2906 2381 2643 2742 
Q 2381 3103 1925 3103 
Q 1469 3103 1208 2742 
Q 947 2381 947 1747 
z
M 2906 525 
Q 2725 213 2448 61 
Q 2172 -91 1784 -91 
Q 1150 -91 751 415 
Q 353 922 353 1747 
Q 353 2572 751 3078 
Q 1150 3584 1784 3584 
Q 2172 3584 2448 3432 
Q 2725 3281 2906 2969 
L 2906 3500 
L 3481 3500 
L 3481 -1331 
L 2906 -1331 
L 2906 525 
z
" id="DejaVuSans-71" transform="scale(0.015625)"/>
       <path d="M 544 1381 
L 544 3500 
L 1119 3500 
L 1119 1403 
Q 1119 906 1312 657 
Q 1506 409 1894 409 
Q 2359 409 2629 706 
Q 2900 1003 2900 1516 
L 2900 3500 
L 3475 3500 
L 3475 0 
L 2900 0 
L 2900 538 
Q 2691 219 2414 64 
Q 2138 -91 1772 -91 
Q 1169 -91 856 284 
Q 544 659 544 1381 
z
M 1991 3584 
L 1991 3584 
z
" id="DejaVuSans-75" transform="scale(0.015625)"/>
       <path d="M 191 3500 
L 800 3500 
L 1894 563 
L 2988 3500 
L 3597 3500 
L 2284 0 
L 1503 0 
L 191 3500 
z
" id="DejaVuSans-76" transform="scale(0.015625)"/>
       <path d="M 3328 2828 
Q 3544 3216 3844 3400 
Q 4144 3584 4550 3584 
Q 5097 3584 5394 3201 
Q 5691 2819 5691 2113 
L 5691 0 
L 5113 0 
L 5113 2094 
Q 5113 2597 4934 2840 
Q 4756 3084 4391 3084 
Q 3944 3084 3684 2787 
Q 3425 2491 3425 1978 
L 3425 0 
L 2847 0 
L 2847 2094 
Q 2847 2600 2669 2842 
Q 2491 3084 2119 3084 
Q 1678 3084 1418 2786 
Q 1159 2488 1159 1978 
L 1159 0 
L 581 0 
L 581 3500 
L 1159 3500 
L 1159 2956 
Q 1356 3278 1631 3431 
Q 1906 3584 2284 3584 
Q 2666 3584 2933 3390 
Q 3200 3197 3328 2828 
z
" id="DejaVuSans-6d" transform="scale(0.015625)"/>
       <path d="M 2834 3397 
L 2834 2853 
Q 2591 2978 2328 3040 
Q 2066 3103 1784 3103 
Q 1356 3103 1142 2972 
Q 928 2841 928 2578 
Q 928 2378 1081 2264 
Q 1234 2150 1697 2047 
L 1894 2003 
Q 2506 1872 2764 1633 
Q 3022 1394 3022 966 
Q 3022 478 2636 193 
Q 2250 -91 1575 -91 
Q 1294 -91 989 -36 
Q 684 19 347 128 
L 347 722 
Q 666 556 975 473 
Q 1284 391 1588 391 
Q 1994 391 2212 530 
Q 2431 669 2431 922 
Q 2431 1156 2273 1281 
Q 2116 1406 1581 1522 
L 1381 1569 
Q 847 1681 609 1914 
Q 372 2147 372 2553 
Q 372 3047 722 3315 
Q 1072 3584 1716 3584 
Q 2034 3584 2315 3537 
Q 2597 3491 2834 3397 
z
" id="DejaVuSans-73" transform="scale(0.015625)"/>
       <path d="M 628 4666 
L 1569 4666 
L 2759 1491 
L 3956 4666 
L 4897 4666 
L 4897 0 
L 4281 0 
L 4281 4097 
L 3078 897 
L 2444 897 
L 1241 4097 
L 1241 0 
L 628 0 
L 628 4666 
z
" id="DejaVuSans-4d" transform="scale(0.015625)"/>
      </defs>
      <use xlink:href="#DejaVuSans-43"/>
      <use x="69.824219" xlink:href="#DejaVuSans-61"/>
      <use x="131.103516" xlink:href="#DejaVuSans-72"/>
      <use x="172.216797" xlink:href="#DejaVuSans-62"/>
      <use x="235.693359" xlink:href="#DejaVuSans-6f"/>
      <use x="296.875" xlink:href="#DejaVuSans-6e"/>
      <use x="360.253906" xlink:href="#DejaVuSans-20"/>
      <use x="392.041016" xlink:href="#DejaVuSans-45"/>
      <use x="455.224609" xlink:href="#DejaVuSans-71"/>
      <use x="518.701172" xlink:href="#DejaVuSans-75"/>
      <use x="582.080078" xlink:href="#DejaVuSans-69"/>
      <use x="609.863281" xlink:href="#DejaVuSans-76"/>
      <use x="669.042969" xlink:href="#DejaVuSans-61"/>
      <use x="730.322266" xlink:href="#DejaVuSans-6c"/>
      <use x="758.105469" xlink:href="#DejaVuSans-65"/>
      <use x="819.628906" xlink:href="#DejaVuSans-6e"/>
      <use x="883.007812" xlink:href="#DejaVuSans-74"/>
      <use x="922.216797" xlink:href="#DejaVuSans-20"/>
      <use x="954.003906" xlink:href="#DejaVuSans-45"/>
      <use x="1017.1875" xlink:href="#DejaVuSans-6d"/>
      <use x="1114.599609" xlink:href="#DejaVuSans-69"/>
      <use x="1142.382812" xlink:href="#DejaVuSans-73"/>
      <use x="1194.482422" xlink:href="#DejaVuSans-73"/>
      <use x="1246.582031" xlink:href="#DejaVuSans-69"/>
      <use x="1274.365234" xlink:href="#DejaVuSans-6f"/>
      <use x="1335.546875" xlink:href="#DejaVuSans-6e"/>
      <use x="1398.925781" xlink:href="#DejaVuSans-73"/>
      <use x="1451.025391" xlink:href="#DejaVuSans-20"/>
      <use x="1482.8125" xlink:href="#DejaVuSans-28"/>
      <use x="1521.826172" xlink:href="#DejaVuSans-4d"/>
      <use x="1608.105469" xlink:href="#DejaVuSans-74"/>
      <use x="1647.314453" xlink:href="#DejaVuSans-29"/>
     </g>
    </g>
   </g>
   <g id="patch_3">
    <path d="M 54 512.64 
L 54 69.12 
" style="fill:none;stroke:#000000;stroke-linecap:square;stroke-linejoin:miter;stroke-width:0.8;"/>
   </g>
   <g id="patch_4">
    <path d="M 388.8 512.64 
L 388.8 69.12 
" style="fill:none;stroke:#000000;stroke-linecap:square;stroke-linejoin:miter;stroke-width:0.8;"/>
   </g>
   <g id="patch_5">
    <path d="M 54 512.64 
L 388.8 512.64 
" style="fill:none;stroke:#000000;stroke-linecap:square;stroke-linejoin:miter;stroke-width:0.8;"/>
   </g>
   <g id="patch_6">
    <path d="M 54 69.12 
L 388.8 69.12 
" style="fill:none;stroke:#000000;stroke-linecap:square;stroke-linejoin:miter;stroke-width:0.8;"/>
   </g>
  </g>
 </g>
 <defs>
  <clipPath id="p6b20eae056">
   <rect height="443.52" width="334.8" x="54" y="69.12"/>
  </clipPath>
 </defs>
</svg>
