<?xml version="1.0" encoding="utf-8" standalone="no"?>
<!DOCTYPE svg PUBLIC "-//W3C//DTD SVG 1.1//EN"
  "http://www.w3.org/Graphics/SVG/1.1/DTD/svg11.dtd">
<svg height="400.56pt" version="1.1" viewBox="0 0 288 400.56" width="288pt" xmlns="http://www.w3.org/2000/svg" xmlns:xlink="http://www.w3.org/1999/xlink">
 <metadata>
  <rdf:RDF xmlns:cc="http://creativecommons.org/ns#" xmlns:dc="http://purl.org/dc/elements/1.1/" xmlns:rdf="http://www.w3.org/1999/02/22-rdf-syntax-ns#">
   <cc:Work>
    <dc:type rdf:resource="http://purl.org/dc/dcmitype/StillImage"/>
    <dc:date>2021-08-12T15:18:41.440329</dc:date>
    <dc:format>image/svg+xml</dc:format>
    <dc:creator>
     <cc:Agent>
      <dc:title>Matplotlib v3.4.1, https://matplotlib.org/</dc:title>
     </cc:Agent>
    </dc:creator>
   </cc:Work>
  </rdf:RDF>
 </metadata>
 <defs>
  <style type="text/css">*{stroke-linecap:butt;stroke-linejoin:round;}</style>
 </defs>
 <g id="figure_1">
  <g id="patch_1">
   <path d="M 0 400.56 
L 288 400.56 
L 288 0 
L 0 0 
z
" style="fill:#ffffff;"/>
  </g>
  <g id="axes_1">
   <g id="patch_2">
    <path d="M 44.6 361.653756 
L 267.66 361.653756 
L 267.66 10.014 
L 44.6 10.014 
z
" style="fill:#ffffff;"/>
   </g>
   <g id="PolyCollection_1">
    <path clip-path="url(#pf9790bffb2)" d="M 44.6 361.653756 
L 44.6 361.653756 
L 46.853131 361.653756 
L 49.106263 361.653756 
L 51.359394 361.653756 
L 53.612525 361.653756 
L 55.865657 361.653756 
L 58.118788 361.653756 
L 60.371919 361.653756 
L 62.625051 361.653756 
L 64.878182 361.653756 
L 67.131313 361.653756 
L 69.384444 361.653756 
L 71.637576 361.653756 
L 73.890707 361.653756 
L 76.143838 361.653756 
L 78.39697 361.653756 
L 80.650101 361.653756 
L 82.903232 361.653756 
L 85.156364 361.653756 
L 87.409495 361.653756 
L 89.662626 361.653756 
L 91.915758 361.653756 
L 94.168889 361.653756 
L 96.42202 361.653756 
L 98.675152 361.653756 
L 100.928283 361.653756 
L 103.181414 361.653756 
L 105.434545 361.653756 
L 107.687677 361.653756 
L 109.940808 361.653756 
L 112.193939 361.653756 
L 114.447071 361.653756 
L 116.700202 361.653756 
L 118.953333 361.653756 
L 121.206465 361.653756 
L 123.459596 361.653756 
L 125.712727 361.653756 
L 127.965859 361.653756 
L 130.21899 361.653756 
L 132.472121 361.653756 
L 134.725253 361.653756 
L 136.978384 361.653756 
L 139.231515 361.653756 
L 141.484646 361.653756 
L 143.737778 361.653756 
L 145.990909 361.653756 
L 148.24404 361.653756 
L 150.497172 361.653756 
L 152.750303 361.653756 
L 155.003434 361.653756 
L 157.256566 361.653756 
L 159.509697 361.653756 
L 161.762828 361.653756 
L 164.01596 361.653756 
L 166.269091 361.653756 
L 168.522222 361.653756 
L 170.775354 361.653756 
L 173.028485 361.653756 
L 175.281616 361.653756 
L 177.534747 361.653756 
L 179.787879 361.653756 
L 182.04101 361.653756 
L 184.294141 361.653756 
L 186.547273 361.653756 
L 188.800404 361.653756 
L 191.053535 361.653756 
L 193.306667 361.653756 
L 195.559798 361.653756 
L 197.812929 361.653756 
L 200.066061 361.653756 
L 202.319192 361.653756 
L 204.572323 361.653756 
L 206.825455 361.653756 
L 209.078586 361.653756 
L 211.331717 361.653756 
L 213.584848 361.653756 
L 215.83798 361.653756 
L 218.091111 361.653756 
L 220.344242 361.653756 
L 222.597374 361.653756 
L 224.850505 361.653756 
L 227.103636 361.653756 
L 229.356768 361.653756 
L 231.609899 361.653756 
L 233.86303 361.653756 
L 236.116162 361.653756 
L 238.369293 361.653756 
L 240.622424 361.653756 
L 242.875556 361.653756 
L 245.128687 361.653756 
L 247.381818 361.653756 
L 249.634949 361.653756 
L 251.888081 361.653756 
L 254.141212 361.653756 
L 256.394343 361.653756 
L 258.647475 361.653756 
L 260.900606 361.653756 
L 263.153737 361.653756 
L 265.406869 361.653756 
L 267.66 361.653756 
L 267.66 148.417947 
L 267.66 148.417947 
L 265.406869 150.290538 
L 263.153737 152.168357 
L 260.900606 154.054849 
L 258.647475 155.956678 
L 256.394343 157.872302 
L 254.141212 159.793627 
L 251.888081 161.719953 
L 249.634949 163.656143 
L 247.381818 165.602328 
L 245.128687 167.559025 
L 242.875556 169.526843 
L 240.622424 171.508148 
L 238.369293 173.504869 
L 236.116162 175.520382 
L 233.86303 177.548136 
L 231.609899 179.582569 
L 229.356768 181.629606 
L 227.103636 183.703393 
L 224.850505 185.78207 
L 222.597374 187.870155 
L 220.344242 189.972633 
L 218.091111 192.086475 
L 215.83798 194.210142 
L 213.584848 196.344517 
L 211.331717 198.486074 
L 209.078586 200.629263 
L 206.825455 202.771062 
L 204.572323 204.912379 
L 202.319192 207.056411 
L 200.066061 209.196266 
L 197.812929 211.334806 
L 195.559798 213.470373 
L 193.306667 215.614533 
L 191.053535 217.759786 
L 188.800404 219.898215 
L 186.547273 222.036658 
L 184.294141 224.177523 
L 182.04101 226.321829 
L 179.787879 228.457932 
L 177.534747 230.604901 
L 175.281616 232.749258 
L 173.028485 234.910576 
L 170.775354 237.070976 
L 168.522222 239.222276 
L 166.269091 241.357574 
L 164.01596 243.470775 
L 161.762828 245.581839 
L 159.509697 247.708211 
L 157.256566 249.840572 
L 155.003434 251.970982 
L 152.750303 254.099348 
L 150.497172 256.224481 
L 148.24404 258.345236 
L 145.990909 260.456821 
L 143.737778 262.559097 
L 141.484646 264.640836 
L 139.231515 266.693208 
L 136.978384 268.729937 
L 134.725253 270.751179 
L 132.472121 272.76082 
L 130.21899 274.764357 
L 127.965859 276.758041 
L 125.712727 278.743903 
L 123.459596 280.71788 
L 121.206465 282.688029 
L 118.953333 284.653058 
L 116.700202 286.615217 
L 114.447071 288.53339 
L 112.193939 290.40207 
L 109.940808 292.217995 
L 107.687677 293.990387 
L 105.434545 295.728372 
L 103.181414 297.428027 
L 100.928283 299.109108 
L 98.675152 300.799336 
L 96.42202 302.53274 
L 94.168889 304.334483 
L 91.915758 306.213588 
L 89.662626 308.202021 
L 87.409495 310.331446 
L 85.156364 312.523329 
L 82.903232 314.766911 
L 80.650101 317.084484 
L 78.39697 319.442262 
L 76.143838 321.809894 
L 73.890707 324.259932 
L 71.637576 326.812351 
L 69.384444 329.587296 
L 67.131313 332.446158 
L 64.878182 335.339467 
L 62.625051 338.255927 
L 60.371919 341.180655 
L 58.118788 344.105384 
L 55.865657 347.030112 
L 53.612525 349.954841 
L 51.359394 352.87957 
L 49.106263 355.804298 
L 46.853131 358.729027 
L 44.6 361.653756 
z
" style="fill:#1f77b4;"/>
   </g>
   <g id="PolyCollection_2">
    <path clip-path="url(#pf9790bffb2)" d="M 44.6 361.653756 
L 44.6 361.653756 
L 46.853131 358.729027 
L 49.106263 355.804298 
L 51.359394 352.87957 
L 53.612525 349.954841 
L 55.865657 347.030112 
L 58.118788 344.105384 
L 60.371919 341.180655 
L 62.625051 338.255927 
L 64.878182 335.339467 
L 67.131313 332.446158 
L 69.384444 329.587296 
L 71.637576 326.812351 
L 73.890707 324.259932 
L 76.143838 321.809894 
L 78.39697 319.442262 
L 80.650101 317.084484 
L 82.903232 314.766911 
L 85.156364 312.523329 
L 87.409495 310.331446 
L 89.662626 308.202021 
L 91.915758 306.213588 
L 94.168889 304.334483 
L 96.42202 302.53274 
L 98.675152 300.799336 
L 100.928283 299.109108 
L 103.181414 297.428027 
L 105.434545 295.728372 
L 107.687677 293.990387 
L 109.940808 292.217995 
L 112.193939 290.40207 
L 114.447071 288.53339 
L 116.700202 286.615217 
L 118.953333 284.653058 
L 121.206465 282.688029 
L 123.459596 280.71788 
L 125.712727 278.743903 
L 127.965859 276.758041 
L 130.21899 274.764357 
L 132.472121 272.76082 
L 134.725253 270.751179 
L 136.978384 268.729937 
L 139.231515 266.693208 
L 141.484646 264.640836 
L 143.737778 262.559097 
L 145.990909 260.456821 
L 148.24404 258.345236 
L 150.497172 256.224481 
L 152.750303 254.099348 
L 155.003434 251.970982 
L 157.256566 249.840572 
L 159.509697 247.708211 
L 161.762828 245.581839 
L 164.01596 243.470775 
L 166.269091 241.357574 
L 168.522222 239.222276 
L 170.775354 237.070976 
L 173.028485 234.910576 
L 175.281616 232.749258 
L 177.534747 230.604901 
L 179.787879 228.457932 
L 182.04101 226.321829 
L 184.294141 224.177523 
L 186.547273 222.036658 
L 188.800404 219.898215 
L 191.053535 217.759786 
L 193.306667 215.614533 
L 195.559798 213.470373 
L 197.812929 211.334806 
L 200.066061 209.196266 
L 202.319192 207.056411 
L 204.572323 204.912379 
L 206.825455 202.771062 
L 209.078586 200.629263 
L 211.331717 198.486074 
L 213.584848 196.344517 
L 215.83798 194.210142 
L 218.091111 192.086475 
L 220.344242 189.972633 
L 222.597374 187.870155 
L 224.850505 185.78207 
L 227.103636 183.703393 
L 229.356768 181.629606 
L 231.609899 179.582569 
L 233.86303 177.548136 
L 236.116162 175.520382 
L 238.369293 173.504869 
L 240.622424 171.508148 
L 242.875556 169.526843 
L 245.128687 167.559025 
L 247.381818 165.602328 
L 249.634949 163.656143 
L 251.888081 161.719953 
L 254.141212 159.793627 
L 256.394343 157.872302 
L 258.647475 155.956678 
L 260.900606 154.054849 
L 263.153737 152.168357 
L 265.406869 150.290538 
L 267.66 148.417947 
L 267.66 26.792696 
L 267.66 26.792696 
L 265.406869 29.336108 
L 263.153737 31.899366 
L 260.900606 34.477315 
L 258.647475 37.075495 
L 256.394343 39.695103 
L 254.141212 42.328242 
L 251.888081 44.9791 
L 249.634949 47.652635 
L 247.381818 50.350195 
L 245.128687 53.074473 
L 242.875556 55.824089 
L 240.622424 58.598463 
L 238.369293 61.395538 
L 236.116162 64.208231 
L 233.86303 67.049068 
L 231.609899 69.916618 
L 229.356768 72.797527 
L 227.103636 75.689859 
L 224.850505 78.601254 
L 222.597374 81.528449 
L 220.344242 84.470767 
L 218.091111 87.430973 
L 215.83798 90.410587 
L 213.584848 93.407631 
L 211.331717 96.438305 
L 209.078586 99.499342 
L 206.825455 102.581977 
L 204.572323 105.693705 
L 202.319192 108.83041 
L 200.066061 111.993421 
L 197.812929 115.188005 
L 195.559798 118.410083 
L 193.306667 121.652352 
L 191.053535 124.909045 
L 188.800404 128.189075 
L 186.547273 131.49156 
L 184.294141 134.819966 
L 182.04101 138.178872 
L 179.787879 141.565831 
L 177.534747 144.970216 
L 175.281616 148.408574 
L 173.028485 151.860261 
L 170.775354 155.334968 
L 168.522222 158.848739 
L 166.269091 162.400391 
L 164.01596 165.995436 
L 161.762828 169.611907 
L 159.509697 173.232469 
L 157.256566 176.865502 
L 155.003434 180.51694 
L 152.750303 184.204392 
L 150.497172 187.917405 
L 148.24404 191.653409 
L 145.990909 195.420039 
L 143.737778 199.206869 
L 141.484646 203.025222 
L 139.231515 206.878928 
L 136.978384 210.754251 
L 134.725253 214.652059 
L 132.472121 218.573271 
L 130.21899 222.51046 
L 127.965859 226.463677 
L 125.712727 230.43817 
L 123.459596 234.43212 
L 121.206465 238.433636 
L 118.953333 242.445513 
L 116.700202 246.469059 
L 114.447071 250.547344 
L 112.193939 254.689216 
L 109.940808 258.895773 
L 107.687677 263.160427 
L 105.434545 267.466009 
L 103.181414 271.819615 
L 100.928283 276.195733 
L 98.675152 280.561177 
L 96.42202 284.876232 
L 94.168889 289.111533 
L 91.915758 293.25655 
L 89.662626 297.273976 
L 87.409495 301.126858 
L 85.156364 304.906848 
L 82.903232 308.626504 
L 80.650101 312.25981 
L 78.39697 315.846194 
L 76.143838 319.421078 
L 73.890707 322.899791 
L 71.637576 326.259021 
L 69.384444 329.358553 
L 67.131313 332.360151 
L 64.878182 335.321548 
L 62.625051 338.255927 
L 60.371919 341.180655 
L 58.118788 344.105384 
L 55.865657 347.030112 
L 53.612525 349.954841 
L 51.359394 352.87957 
L 49.106263 355.804298 
L 46.853131 358.729027 
L 44.6 361.653756 
z
" style="fill:#ff7f0e;"/>
   </g>
   <g id="PolyCollection_3">
    <path clip-path="url(#pf9790bffb2)" d="M 44.6 361.653756 
L 44.6 361.653756 
L 46.853131 358.729027 
L 49.106263 355.804298 
L 51.359394 352.87957 
L 53.612525 349.954841 
L 55.865657 347.030112 
L 58.118788 344.105384 
L 60.371919 341.180655 
L 62.625051 338.255927 
L 64.878182 335.321548 
L 67.131313 332.360151 
L 69.384444 329.358553 
L 71.637576 326.259021 
L 73.890707 322.899791 
L 76.143838 319.421078 
L 78.39697 315.846194 
L 80.650101 312.25981 
L 82.903232 308.626504 
L 85.156364 304.906848 
L 87.409495 301.126858 
L 89.662626 297.273976 
L 91.915758 293.25655 
L 94.168889 289.111533 
L 96.42202 284.876232 
L 98.675152 280.561177 
L 100.928283 276.195733 
L 103.181414 271.819615 
L 105.434545 267.466009 
L 107.687677 263.160427 
L 109.940808 258.895773 
L 112.193939 254.689216 
L 114.447071 250.547344 
L 116.700202 246.469059 
L 118.953333 242.445513 
L 121.206465 238.433636 
L 123.459596 234.43212 
L 125.712727 230.43817 
L 127.965859 226.463677 
L 130.21899 222.51046 
L 132.472121 218.573271 
L 134.725253 214.652059 
L 136.978384 210.754251 
L 139.231515 206.878928 
L 141.484646 203.025222 
L 143.737778 199.206869 
L 145.990909 195.420039 
L 148.24404 191.653409 
L 150.497172 187.917405 
L 152.750303 184.204392 
L 155.003434 180.51694 
L 157.256566 176.865502 
L 159.509697 173.232469 
L 161.762828 169.611907 
L 164.01596 165.995436 
L 166.269091 162.400391 
L 168.522222 158.848739 
L 170.775354 155.334968 
L 173.028485 151.860261 
L 175.281616 148.408574 
L 177.534747 144.970216 
L 179.787879 141.565831 
L 182.04101 138.178872 
L 184.294141 134.819966 
L 186.547273 131.49156 
L 188.800404 128.189075 
L 191.053535 124.909045 
L 193.306667 121.652352 
L 195.559798 118.410083 
L 197.812929 115.188005 
L 200.066061 111.993421 
L 202.319192 108.83041 
L 204.572323 105.693705 
L 206.825455 102.581977 
L 209.078586 99.499342 
L 211.331717 96.438305 
L 213.584848 93.407631 
L 215.83798 90.410587 
L 218.091111 87.430973 
L 220.344242 84.470767 
L 222.597374 81.528449 
L 224.850505 78.601254 
L 227.103636 75.689859 
L 229.356768 72.797527 
L 231.609899 69.916618 
L 233.86303 67.049068 
L 236.116162 64.208231 
L 238.369293 61.395538 
L 240.622424 58.598463 
L 242.875556 55.824089 
L 245.128687 53.074473 
L 247.381818 50.350195 
L 249.634949 47.652635 
L 251.888081 44.9791 
L 254.141212 42.328242 
L 256.394343 39.695103 
L 258.647475 37.075495 
L 260.900606 34.477315 
L 263.153737 31.899366 
L 265.406869 29.336108 
L 267.66 26.792696 
L 267.66 26.765946 
L 267.66 26.765946 
L 265.406869 29.310125 
L 263.153737 31.87421 
L 260.900606 34.453006 
L 258.647475 37.051926 
L 256.394343 39.672066 
L 254.141212 42.305831 
L 251.888081 44.957456 
L 249.634949 47.63176 
L 247.381818 50.33022 
L 245.128687 53.055331 
L 242.875556 55.805758 
L 240.622424 58.58091 
L 238.369293 61.378744 
L 236.116162 64.19217 
L 233.86303 67.03361 
L 231.609899 69.901719 
L 229.356768 72.783358 
L 227.103636 75.676172 
L 224.850505 78.588051 
L 222.597374 81.515838 
L 220.344242 84.458724 
L 218.091111 87.41946 
L 215.83798 90.399611 
L 213.584848 93.397344 
L 211.331717 96.428554 
L 209.078586 99.489973 
L 206.825455 102.573107 
L 204.572323 105.685262 
L 202.319192 108.822349 
L 200.066061 111.985815 
L 197.812929 115.180739 
L 195.559798 118.403212 
L 193.306667 121.645699 
L 191.053535 124.90265 
L 188.800404 128.182978 
L 186.547273 131.485792 
L 184.294141 134.814629 
L 182.04101 138.173828 
L 179.787879 141.561197 
L 177.534747 144.965987 
L 175.281616 148.404747 
L 173.028485 151.856742 
L 170.775354 155.33187 
L 168.522222 158.845906 
L 166.269091 162.397779 
L 164.01596 165.99305 
L 161.762828 169.609761 
L 159.509697 173.230544 
L 157.256566 176.86372 
L 155.003434 180.515468 
L 152.750303 184.203124 
L 150.497172 187.916325 
L 148.24404 191.652507 
L 145.990909 195.419216 
L 143.737778 199.206132 
L 141.484646 203.024498 
L 139.231515 206.878234 
L 136.978384 210.753612 
L 134.725253 214.651481 
L 132.472121 218.572795 
L 130.21899 222.510015 
L 127.965859 226.463313 
L 125.712727 230.437873 
L 123.459596 234.431848 
L 121.206465 238.433396 
L 118.953333 242.445331 
L 116.700202 246.468906 
L 114.447071 250.547225 
L 112.193939 254.689108 
L 109.940808 258.895731 
L 107.687677 263.160395 
L 105.434545 267.465999 
L 103.181414 271.819615 
L 100.928283 276.195733 
L 98.675152 280.561177 
L 96.42202 284.876232 
L 94.168889 289.111533 
L 91.915758 293.25655 
L 89.662626 297.273976 
L 87.409495 301.126858 
L 85.156364 304.906848 
L 82.903232 308.626504 
L 80.650101 312.25981 
L 78.39697 315.846194 
L 76.143838 319.421078 
L 73.890707 322.899791 
L 71.637576 326.259021 
L 69.384444 329.358553 
L 67.131313 332.360151 
L 64.878182 335.321548 
L 62.625051 338.255927 
L 60.371919 341.180655 
L 58.118788 344.105384 
L 55.865657 347.030112 
L 53.612525 349.954841 
L 51.359394 352.87957 
L 49.106263 355.804298 
L 46.853131 358.729027 
L 44.6 361.653756 
z
" style="fill:#2ca02c;"/>
   </g>
   <g id="PolyCollection_4">
    <path clip-path="url(#pf9790bffb2)" d="M 44.6 361.653756 
L 44.6 361.653756 
L 46.853131 358.729027 
L 49.106263 355.804298 
L 51.359394 352.87957 
L 53.612525 349.954841 
L 55.865657 347.030112 
L 58.118788 344.105384 
L 60.371919 341.180655 
L 62.625051 338.255927 
L 64.878182 335.321548 
L 67.131313 332.360151 
L 69.384444 329.358553 
L 71.637576 326.259021 
L 73.890707 322.899791 
L 76.143838 319.421078 
L 78.39697 315.846194 
L 80.650101 312.25981 
L 82.903232 308.626504 
L 85.156364 304.906848 
L 87.409495 301.126858 
L 89.662626 297.273976 
L 91.915758 293.25655 
L 94.168889 289.111533 
L 96.42202 284.876232 
L 98.675152 280.561177 
L 100.928283 276.195733 
L 103.181414 271.819615 
L 105.434545 267.465999 
L 107.687677 263.160395 
L 109.940808 258.895731 
L 112.193939 254.689108 
L 114.447071 250.547225 
L 116.700202 246.468906 
L 118.953333 242.445331 
L 121.206465 238.433396 
L 123.459596 234.431848 
L 125.712727 230.437873 
L 127.965859 226.463313 
L 130.21899 222.510015 
L 132.472121 218.572795 
L 134.725253 214.651481 
L 136.978384 210.753612 
L 139.231515 206.878234 
L 141.484646 203.024498 
L 143.737778 199.206132 
L 145.990909 195.419216 
L 148.24404 191.652507 
L 150.497172 187.916325 
L 152.750303 184.203124 
L 155.003434 180.515468 
L 157.256566 176.86372 
L 159.509697 173.230544 
L 161.762828 169.609761 
L 164.01596 165.99305 
L 166.269091 162.397779 
L 168.522222 158.845906 
L 170.775354 155.33187 
L 173.028485 151.856742 
L 175.281616 148.404747 
L 177.534747 144.965987 
L 179.787879 141.561197 
L 182.04101 138.173828 
L 184.294141 134.814629 
L 186.547273 131.485792 
L 188.800404 128.182978 
L 191.053535 124.90265 
L 193.306667 121.645699 
L 195.559798 118.403212 
L 197.812929 115.180739 
L 200.066061 111.985815 
L 202.319192 108.822349 
L 204.572323 105.685262 
L 206.825455 102.573107 
L 209.078586 99.489973 
L 211.331717 96.428554 
L 213.584848 93.397344 
L 215.83798 90.399611 
L 218.091111 87.41946 
L 220.344242 84.458724 
L 222.597374 81.515838 
L 224.850505 78.588051 
L 227.103636 75.676172 
L 229.356768 72.783358 
L 231.609899 69.901719 
L 233.86303 67.03361 
L 236.116162 64.19217 
L 238.369293 61.378744 
L 240.622424 58.58091 
L 242.875556 55.805758 
L 245.128687 53.055331 
L 247.381818 50.33022 
L 249.634949 47.63176 
L 251.888081 44.957456 
L 254.141212 42.305831 
L 256.394343 39.672066 
L 258.647475 37.051926 
L 260.900606 34.453006 
L 263.153737 31.87421 
L 265.406869 29.310125 
L 267.66 26.765946 
L 267.66 26.765569 
L 267.66 26.765569 
L 265.406869 29.309788 
L 263.153737 31.87389 
L 260.900606 34.452724 
L 258.647475 37.051663 
L 256.394343 39.671843 
L 254.141212 42.305653 
L 251.888081 44.957301 
L 249.634949 47.631605 
L 247.381818 50.330085 
L 245.128687 53.055207 
L 242.875556 55.805634 
L 240.622424 58.580786 
L 238.369293 61.378646 
L 236.116162 64.192073 
L 233.86303 67.033513 
L 231.609899 69.901622 
L 229.356768 72.783261 
L 227.103636 75.676075 
L 224.850505 78.587954 
L 222.597374 81.515747 
L 220.344242 84.458659 
L 218.091111 87.419415 
L 215.83798 90.399566 
L 213.584848 93.397299 
L 211.331717 96.428509 
L 209.078586 99.489955 
L 206.825455 102.573107 
L 204.572323 105.685262 
L 202.319192 108.822349 
L 200.066061 111.985815 
L 197.812929 115.180739 
L 195.559798 118.403212 
L 193.306667 121.645699 
L 191.053535 124.90265 
L 188.800404 128.182978 
L 186.547273 131.485792 
L 184.294141 134.814629 
L 182.04101 138.173828 
L 179.787879 141.561197 
L 177.534747 144.965987 
L 175.281616 148.404747 
L 173.028485 151.856742 
L 170.775354 155.33187 
L 168.522222 158.845906 
L 166.269091 162.397779 
L 164.01596 165.99305 
L 161.762828 169.609761 
L 159.509697 173.230544 
L 157.256566 176.86372 
L 155.003434 180.515468 
L 152.750303 184.203124 
L 150.497172 187.916325 
L 148.24404 191.652507 
L 145.990909 195.419216 
L 143.737778 199.206132 
L 141.484646 203.024498 
L 139.231515 206.878234 
L 136.978384 210.753612 
L 134.725253 214.651481 
L 132.472121 218.572795 
L 130.21899 222.510015 
L 127.965859 226.463313 
L 125.712727 230.437873 
L 123.459596 234.431848 
L 121.206465 238.433396 
L 118.953333 242.445331 
L 116.700202 246.468906 
L 114.447071 250.547225 
L 112.193939 254.689108 
L 109.940808 258.895731 
L 107.687677 263.160395 
L 105.434545 267.465999 
L 103.181414 271.819615 
L 100.928283 276.195733 
L 98.675152 280.561177 
L 96.42202 284.876232 
L 94.168889 289.111533 
L 91.915758 293.25655 
L 89.662626 297.273976 
L 87.409495 301.126858 
L 85.156364 304.906848 
L 82.903232 308.626504 
L 80.650101 312.25981 
L 78.39697 315.846194 
L 76.143838 319.421078 
L 73.890707 322.899791 
L 71.637576 326.259021 
L 69.384444 329.358553 
L 67.131313 332.360151 
L 64.878182 335.321548 
L 62.625051 338.255927 
L 60.371919 341.180655 
L 58.118788 344.105384 
L 55.865657 347.030112 
L 53.612525 349.954841 
L 51.359394 352.87957 
L 49.106263 355.804298 
L 46.853131 358.729027 
L 44.6 361.653756 
z
" style="fill:#d62728;"/>
   </g>
   <g id="PolyCollection_5">
    <path clip-path="url(#pf9790bffb2)" d="M 44.6 361.653756 
L 44.6 361.653756 
L 46.853131 358.729027 
L 49.106263 355.804298 
L 51.359394 352.87957 
L 53.612525 349.954841 
L 55.865657 347.030112 
L 58.118788 344.105384 
L 60.371919 341.180655 
L 62.625051 338.255927 
L 64.878182 335.321548 
L 67.131313 332.360151 
L 69.384444 329.358553 
L 71.637576 326.259021 
L 73.890707 322.899791 
L 76.143838 319.421078 
L 78.39697 315.846194 
L 80.650101 312.25981 
L 82.903232 308.626504 
L 85.156364 304.906848 
L 87.409495 301.126858 
L 89.662626 297.273976 
L 91.915758 293.25655 
L 94.168889 289.111533 
L 96.42202 284.876232 
L 98.675152 280.561177 
L 100.928283 276.195733 
L 103.181414 271.819615 
L 105.434545 267.465999 
L 107.687677 263.160395 
L 109.940808 258.895731 
L 112.193939 254.689108 
L 114.447071 250.547225 
L 116.700202 246.468906 
L 118.953333 242.445331 
L 121.206465 238.433396 
L 123.459596 234.431848 
L 125.712727 230.437873 
L 127.965859 226.463313 
L 130.21899 222.510015 
L 132.472121 218.572795 
L 134.725253 214.651481 
L 136.978384 210.753612 
L 139.231515 206.878234 
L 141.484646 203.024498 
L 143.737778 199.206132 
L 145.990909 195.419216 
L 148.24404 191.652507 
L 150.497172 187.916325 
L 152.750303 184.203124 
L 155.003434 180.515468 
L 157.256566 176.86372 
L 159.509697 173.230544 
L 161.762828 169.609761 
L 164.01596 165.99305 
L 166.269091 162.397779 
L 168.522222 158.845906 
L 170.775354 155.33187 
L 173.028485 151.856742 
L 175.281616 148.404747 
L 177.534747 144.965987 
L 179.787879 141.561197 
L 182.04101 138.173828 
L 184.294141 134.814629 
L 186.547273 131.485792 
L 188.800404 128.182978 
L 191.053535 124.90265 
L 193.306667 121.645699 
L 195.559798 118.403212 
L 197.812929 115.180739 
L 200.066061 111.985815 
L 202.319192 108.822349 
L 204.572323 105.685262 
L 206.825455 102.573107 
L 209.078586 99.489955 
L 211.331717 96.428509 
L 213.584848 93.397299 
L 215.83798 90.399566 
L 218.091111 87.419415 
L 220.344242 84.458659 
L 222.597374 81.515747 
L 224.850505 78.587954 
L 227.103636 75.676075 
L 229.356768 72.783261 
L 231.609899 69.901622 
L 233.86303 67.033513 
L 236.116162 64.192073 
L 238.369293 61.378646 
L 240.622424 58.580786 
L 242.875556 55.805634 
L 245.128687 53.055207 
L 247.381818 50.330085 
L 249.634949 47.631605 
L 251.888081 44.957301 
L 254.141212 42.305653 
L 256.394343 39.671843 
L 258.647475 37.051663 
L 260.900606 34.452724 
L 263.153737 31.87389 
L 265.406869 29.309788 
L 267.66 26.765569 
L 267.66 26.763682 
L 267.66 26.763682 
L 265.406869 29.307949 
L 263.153737 31.872124 
L 260.900606 34.451015 
L 258.647475 37.050048 
L 256.394343 39.670323 
L 254.141212 42.304222 
L 251.888081 44.955966 
L 249.634949 47.630387 
L 247.381818 50.328984 
L 245.128687 53.054222 
L 242.875556 55.804748 
L 240.622424 58.579989 
L 238.369293 61.377917 
L 236.116162 64.191417 
L 233.86303 67.032928 
L 231.609899 69.901088 
L 229.356768 72.782771 
L 227.103636 75.675614 
L 224.850505 78.587521 
L 222.597374 81.515323 
L 220.344242 84.458235 
L 218.091111 87.418996 
L 215.83798 90.39917 
L 213.584848 93.396927 
L 211.331717 96.42816 
L 209.078586 99.489629 
L 206.825455 102.572814 
L 204.572323 105.685019 
L 202.319192 108.822155 
L 200.066061 111.98567 
L 197.812929 115.180643 
L 195.559798 118.403149 
L 193.306667 121.645662 
L 191.053535 124.902639 
L 188.800404 128.182978 
L 186.547273 131.485792 
L 184.294141 134.814629 
L 182.04101 138.173828 
L 179.787879 141.561197 
L 177.534747 144.965987 
L 175.281616 148.404747 
L 173.028485 151.856742 
L 170.775354 155.33187 
L 168.522222 158.845906 
L 166.269091 162.397779 
L 164.01596 165.99305 
L 161.762828 169.609761 
L 159.509697 173.230544 
L 157.256566 176.86372 
L 155.003434 180.515468 
L 152.750303 184.203124 
L 150.497172 187.916325 
L 148.24404 191.652507 
L 145.990909 195.419216 
L 143.737778 199.206132 
L 141.484646 203.024498 
L 139.231515 206.878234 
L 136.978384 210.753612 
L 134.725253 214.651481 
L 132.472121 218.572795 
L 130.21899 222.510015 
L 127.965859 226.463313 
L 125.712727 230.437873 
L 123.459596 234.431848 
L 121.206465 238.433396 
L 118.953333 242.445331 
L 116.700202 246.468906 
L 114.447071 250.547225 
L 112.193939 254.689108 
L 109.940808 258.895731 
L 107.687677 263.160395 
L 105.434545 267.465999 
L 103.181414 271.819615 
L 100.928283 276.195733 
L 98.675152 280.561177 
L 96.42202 284.876232 
L 94.168889 289.111533 
L 91.915758 293.25655 
L 89.662626 297.273976 
L 87.409495 301.126858 
L 85.156364 304.906848 
L 82.903232 308.626504 
L 80.650101 312.25981 
L 78.39697 315.846194 
L 76.143838 319.421078 
L 73.890707 322.899791 
L 71.637576 326.259021 
L 69.384444 329.358553 
L 67.131313 332.360151 
L 64.878182 335.321548 
L 62.625051 338.255927 
L 60.371919 341.180655 
L 58.118788 344.105384 
L 55.865657 347.030112 
L 53.612525 349.954841 
L 51.359394 352.87957 
L 49.106263 355.804298 
L 46.853131 358.729027 
L 44.6 361.653756 
z
" style="fill:#9467bd;"/>
   </g>
   <g id="PolyCollection_6">
    <path clip-path="url(#pf9790bffb2)" d="M 44.6 361.653756 
L 44.6 361.653756 
L 46.853131 358.729027 
L 49.106263 355.804298 
L 51.359394 352.87957 
L 53.612525 349.954841 
L 55.865657 347.030112 
L 58.118788 344.105384 
L 60.371919 341.180655 
L 62.625051 338.255927 
L 64.878182 335.321548 
L 67.131313 332.360151 
L 69.384444 329.358553 
L 71.637576 326.259021 
L 73.890707 322.899791 
L 76.143838 319.421078 
L 78.39697 315.846194 
L 80.650101 312.25981 
L 82.903232 308.626504 
L 85.156364 304.906848 
L 87.409495 301.126858 
L 89.662626 297.273976 
L 91.915758 293.25655 
L 94.168889 289.111533 
L 96.42202 284.876232 
L 98.675152 280.561177 
L 100.928283 276.195733 
L 103.181414 271.819615 
L 105.434545 267.465999 
L 107.687677 263.160395 
L 109.940808 258.895731 
L 112.193939 254.689108 
L 114.447071 250.547225 
L 116.700202 246.468906 
L 118.953333 242.445331 
L 121.206465 238.433396 
L 123.459596 234.431848 
L 125.712727 230.437873 
L 127.965859 226.463313 
L 130.21899 222.510015 
L 132.472121 218.572795 
L 134.725253 214.651481 
L 136.978384 210.753612 
L 139.231515 206.878234 
L 141.484646 203.024498 
L 143.737778 199.206132 
L 145.990909 195.419216 
L 148.24404 191.652507 
L 150.497172 187.916325 
L 152.750303 184.203124 
L 155.003434 180.515468 
L 157.256566 176.86372 
L 159.509697 173.230544 
L 161.762828 169.609761 
L 164.01596 165.99305 
L 166.269091 162.397779 
L 168.522222 158.845906 
L 170.775354 155.33187 
L 173.028485 151.856742 
L 175.281616 148.404747 
L 177.534747 144.965987 
L 179.787879 141.561197 
L 182.04101 138.173828 
L 184.294141 134.814629 
L 186.547273 131.485792 
L 188.800404 128.182978 
L 191.053535 124.902639 
L 193.306667 121.645662 
L 195.559798 118.403149 
L 197.812929 115.180643 
L 200.066061 111.98567 
L 202.319192 108.822155 
L 204.572323 105.685019 
L 206.825455 102.572814 
L 209.078586 99.489629 
L 211.331717 96.42816 
L 213.584848 93.396927 
L 215.83798 90.39917 
L 218.091111 87.418996 
L 220.344242 84.458235 
L 222.597374 81.515323 
L 224.850505 78.587521 
L 227.103636 75.675614 
L 229.356768 72.782771 
L 231.609899 69.901088 
L 233.86303 67.032928 
L 236.116162 64.191417 
L 238.369293 61.377917 
L 240.622424 58.579989 
L 242.875556 55.804748 
L 245.128687 53.054222 
L 247.381818 50.328984 
L 249.634949 47.630387 
L 251.888081 44.955966 
L 254.141212 42.304222 
L 256.394343 39.670323 
L 258.647475 37.050048 
L 260.900606 34.451015 
L 263.153737 31.872124 
L 265.406869 29.307949 
L 267.66 26.763682 
L 267.66 26.75875 
L 267.66 26.75875 
L 265.406869 29.303217 
L 263.153737 31.867602 
L 260.900606 34.446725 
L 258.647475 37.045984 
L 256.394343 39.666455 
L 254.141212 42.300527 
L 251.888081 44.952417 
L 249.634949 47.626976 
L 247.381818 50.325697 
L 245.128687 53.051077 
L 242.875556 55.801771 
L 240.622424 58.577174 
L 238.369293 61.37526 
L 236.116162 64.188935 
L 233.86303 67.030607 
L 231.609899 69.898932 
L 229.356768 72.78077 
L 227.103636 75.673773 
L 224.850505 78.585841 
L 222.597374 81.513813 
L 220.344242 84.456886 
L 218.091111 87.417764 
L 215.83798 90.398055 
L 213.584848 93.395917 
L 211.331717 96.42722 
L 209.078586 99.48876 
L 206.825455 102.572015 
L 204.572323 105.68429 
L 202.319192 108.821483 
L 200.066061 111.985033 
L 197.812929 115.180028 
L 195.559798 118.402572 
L 193.306667 121.645109 
L 191.053535 124.90211 
L 188.800404 128.182487 
L 186.547273 131.48535 
L 184.294141 134.814236 
L 182.04101 138.173485 
L 179.787879 141.560903 
L 177.534747 144.965743 
L 175.281616 148.404552 
L 173.028485 151.856597 
L 170.775354 155.331773 
L 168.522222 158.845859 
L 166.269091 162.397765 
L 164.01596 165.99305 
L 161.762828 169.609761 
L 159.509697 173.230544 
L 157.256566 176.86372 
L 155.003434 180.515468 
L 152.750303 184.203124 
L 150.497172 187.916325 
L 148.24404 191.652507 
L 145.990909 195.419216 
L 143.737778 199.206132 
L 141.484646 203.024498 
L 139.231515 206.878234 
L 136.978384 210.753612 
L 134.725253 214.651481 
L 132.472121 218.572795 
L 130.21899 222.510015 
L 127.965859 226.463313 
L 125.712727 230.437873 
L 123.459596 234.431848 
L 121.206465 238.433396 
L 118.953333 242.445331 
L 116.700202 246.468906 
L 114.447071 250.547225 
L 112.193939 254.689108 
L 109.940808 258.895731 
L 107.687677 263.160395 
L 105.434545 267.465999 
L 103.181414 271.819615 
L 100.928283 276.195733 
L 98.675152 280.561177 
L 96.42202 284.876232 
L 94.168889 289.111533 
L 91.915758 293.25655 
L 89.662626 297.273976 
L 87.409495 301.126858 
L 85.156364 304.906848 
L 82.903232 308.626504 
L 80.650101 312.25981 
L 78.39697 315.846194 
L 76.143838 319.421078 
L 73.890707 322.899791 
L 71.637576 326.259021 
L 69.384444 329.358553 
L 67.131313 332.360151 
L 64.878182 335.321548 
L 62.625051 338.255927 
L 60.371919 341.180655 
L 58.118788 344.105384 
L 55.865657 347.030112 
L 53.612525 349.954841 
L 51.359394 352.87957 
L 49.106263 355.804298 
L 46.853131 358.729027 
L 44.6 361.653756 
z
" style="fill:#8c564b;"/>
   </g>
   <g id="matplotlib.axis_1">
    <g id="xtick_1">
     <g id="line2d_1">
      <defs>
       <path d="M 0 0 
L 0 3.5 
" id="m3a05060d3f" style="stroke:#000000;stroke-width:0.8;"/>
      </defs>
      <g>
       <use style="stroke:#000000;stroke-width:0.8;" x="44.6" xlink:href="#m3a05060d3f" y="361.653756"/>
      </g>
     </g>
     <g id="text_1">
      <!-- 0 -->
      <g transform="translate(41.41875 376.252193)scale(0.1 -0.1)">
       <defs>
        <path d="M 2034 4250 
Q 1547 4250 1301 3770 
Q 1056 3291 1056 2328 
Q 1056 1369 1301 889 
Q 1547 409 2034 409 
Q 2525 409 2770 889 
Q 3016 1369 3016 2328 
Q 3016 3291 2770 3770 
Q 2525 4250 2034 4250 
z
M 2034 4750 
Q 2819 4750 3233 4129 
Q 3647 3509 3647 2328 
Q 3647 1150 3233 529 
Q 2819 -91 2034 -91 
Q 1250 -91 836 529 
Q 422 1150 422 2328 
Q 422 3509 836 4129 
Q 1250 4750 2034 4750 
z
" id="DejaVuSans-30" transform="scale(0.015625)"/>
       </defs>
       <use xlink:href="#DejaVuSans-30"/>
      </g>
     </g>
    </g>
    <g id="xtick_2">
     <g id="line2d_2">
      <g>
       <use style="stroke:#000000;stroke-width:0.8;" x="100.365" xlink:href="#m3a05060d3f" y="361.653756"/>
      </g>
     </g>
     <g id="text_2">
      <!-- 25 -->
      <g transform="translate(94.0025 376.252193)scale(0.1 -0.1)">
       <defs>
        <path d="M 1228 531 
L 3431 531 
L 3431 0 
L 469 0 
L 469 531 
Q 828 903 1448 1529 
Q 2069 2156 2228 2338 
Q 2531 2678 2651 2914 
Q 2772 3150 2772 3378 
Q 2772 3750 2511 3984 
Q 2250 4219 1831 4219 
Q 1534 4219 1204 4116 
Q 875 4013 500 3803 
L 500 4441 
Q 881 4594 1212 4672 
Q 1544 4750 1819 4750 
Q 2544 4750 2975 4387 
Q 3406 4025 3406 3419 
Q 3406 3131 3298 2873 
Q 3191 2616 2906 2266 
Q 2828 2175 2409 1742 
Q 1991 1309 1228 531 
z
" id="DejaVuSans-32" transform="scale(0.015625)"/>
        <path d="M 691 4666 
L 3169 4666 
L 3169 4134 
L 1269 4134 
L 1269 2991 
Q 1406 3038 1543 3061 
Q 1681 3084 1819 3084 
Q 2600 3084 3056 2656 
Q 3513 2228 3513 1497 
Q 3513 744 3044 326 
Q 2575 -91 1722 -91 
Q 1428 -91 1123 -41 
Q 819 9 494 109 
L 494 744 
Q 775 591 1075 516 
Q 1375 441 1709 441 
Q 2250 441 2565 725 
Q 2881 1009 2881 1497 
Q 2881 1984 2565 2268 
Q 2250 2553 1709 2553 
Q 1456 2553 1204 2497 
Q 953 2441 691 2322 
L 691 4666 
z
" id="DejaVuSans-35" transform="scale(0.015625)"/>
       </defs>
       <use xlink:href="#DejaVuSans-32"/>
       <use x="63.623047" xlink:href="#DejaVuSans-35"/>
      </g>
     </g>
    </g>
    <g id="xtick_3">
     <g id="line2d_3">
      <g>
       <use style="stroke:#000000;stroke-width:0.8;" x="156.13" xlink:href="#m3a05060d3f" y="361.653756"/>
      </g>
     </g>
     <g id="text_3">
      <!-- 50 -->
      <g transform="translate(149.7675 376.252193)scale(0.1 -0.1)">
       <use xlink:href="#DejaVuSans-35"/>
       <use x="63.623047" xlink:href="#DejaVuSans-30"/>
      </g>
     </g>
    </g>
    <g id="xtick_4">
     <g id="line2d_4">
      <g>
       <use style="stroke:#000000;stroke-width:0.8;" x="211.895" xlink:href="#m3a05060d3f" y="361.653756"/>
      </g>
     </g>
     <g id="text_4">
      <!-- 75 -->
      <g transform="translate(205.5325 376.252193)scale(0.1 -0.1)">
       <defs>
        <path d="M 525 4666 
L 3525 4666 
L 3525 4397 
L 1831 0 
L 1172 0 
L 2766 4134 
L 525 4134 
L 525 4666 
z
" id="DejaVuSans-37" transform="scale(0.015625)"/>
       </defs>
       <use xlink:href="#DejaVuSans-37"/>
       <use x="63.623047" xlink:href="#DejaVuSans-35"/>
      </g>
     </g>
    </g>
    <g id="xtick_5">
     <g id="line2d_5">
      <g>
       <use style="stroke:#000000;stroke-width:0.8;" x="267.66" xlink:href="#m3a05060d3f" y="361.653756"/>
      </g>
     </g>
     <g id="text_5">
      <!-- 100 -->
      <g transform="translate(258.11625 376.252193)scale(0.1 -0.1)">
       <defs>
        <path d="M 794 531 
L 1825 531 
L 1825 4091 
L 703 3866 
L 703 4441 
L 1819 4666 
L 2450 4666 
L 2450 531 
L 3481 531 
L 3481 0 
L 794 0 
L 794 531 
z
" id="DejaVuSans-31" transform="scale(0.015625)"/>
       </defs>
       <use xlink:href="#DejaVuSans-31"/>
       <use x="63.623047" xlink:href="#DejaVuSans-30"/>
       <use x="127.246094" xlink:href="#DejaVuSans-30"/>
      </g>
     </g>
    </g>
    <g id="text_6">
     <!-- Proportion of DSSCs in Grid (%) -->
     <g transform="translate(77.571406 389.930318)scale(0.1 -0.1)">
      <defs>
       <path d="M 1259 4147 
L 1259 2394 
L 2053 2394 
Q 2494 2394 2734 2622 
Q 2975 2850 2975 3272 
Q 2975 3691 2734 3919 
Q 2494 4147 2053 4147 
L 1259 4147 
z
M 628 4666 
L 2053 4666 
Q 2838 4666 3239 4311 
Q 3641 3956 3641 3272 
Q 3641 2581 3239 2228 
Q 2838 1875 2053 1875 
L 1259 1875 
L 1259 0 
L 628 0 
L 628 4666 
z
" id="DejaVuSans-50" transform="scale(0.015625)"/>
       <path d="M 2631 2963 
Q 2534 3019 2420 3045 
Q 2306 3072 2169 3072 
Q 1681 3072 1420 2755 
Q 1159 2438 1159 1844 
L 1159 0 
L 581 0 
L 581 3500 
L 1159 3500 
L 1159 2956 
Q 1341 3275 1631 3429 
Q 1922 3584 2338 3584 
Q 2397 3584 2469 3576 
Q 2541 3569 2628 3553 
L 2631 2963 
z
" id="DejaVuSans-72" transform="scale(0.015625)"/>
       <path d="M 1959 3097 
Q 1497 3097 1228 2736 
Q 959 2375 959 1747 
Q 959 1119 1226 758 
Q 1494 397 1959 397 
Q 2419 397 2687 759 
Q 2956 1122 2956 1747 
Q 2956 2369 2687 2733 
Q 2419 3097 1959 3097 
z
M 1959 3584 
Q 2709 3584 3137 3096 
Q 3566 2609 3566 1747 
Q 3566 888 3137 398 
Q 2709 -91 1959 -91 
Q 1206 -91 779 398 
Q 353 888 353 1747 
Q 353 2609 779 3096 
Q 1206 3584 1959 3584 
z
" id="DejaVuSans-6f" transform="scale(0.015625)"/>
       <path d="M 1159 525 
L 1159 -1331 
L 581 -1331 
L 581 3500 
L 1159 3500 
L 1159 2969 
Q 1341 3281 1617 3432 
Q 1894 3584 2278 3584 
Q 2916 3584 3314 3078 
Q 3713 2572 3713 1747 
Q 3713 922 3314 415 
Q 2916 -91 2278 -91 
Q 1894 -91 1617 61 
Q 1341 213 1159 525 
z
M 3116 1747 
Q 3116 2381 2855 2742 
Q 2594 3103 2138 3103 
Q 1681 3103 1420 2742 
Q 1159 2381 1159 1747 
Q 1159 1113 1420 752 
Q 1681 391 2138 391 
Q 2594 391 2855 752 
Q 3116 1113 3116 1747 
z
" id="DejaVuSans-70" transform="scale(0.015625)"/>
       <path d="M 1172 4494 
L 1172 3500 
L 2356 3500 
L 2356 3053 
L 1172 3053 
L 1172 1153 
Q 1172 725 1289 603 
Q 1406 481 1766 481 
L 2356 481 
L 2356 0 
L 1766 0 
Q 1100 0 847 248 
Q 594 497 594 1153 
L 594 3053 
L 172 3053 
L 172 3500 
L 594 3500 
L 594 4494 
L 1172 4494 
z
" id="DejaVuSans-74" transform="scale(0.015625)"/>
       <path d="M 603 3500 
L 1178 3500 
L 1178 0 
L 603 0 
L 603 3500 
z
M 603 4863 
L 1178 4863 
L 1178 4134 
L 603 4134 
L 603 4863 
z
" id="DejaVuSans-69" transform="scale(0.015625)"/>
       <path d="M 3513 2113 
L 3513 0 
L 2938 0 
L 2938 2094 
Q 2938 2591 2744 2837 
Q 2550 3084 2163 3084 
Q 1697 3084 1428 2787 
Q 1159 2491 1159 1978 
L 1159 0 
L 581 0 
L 581 3500 
L 1159 3500 
L 1159 2956 
Q 1366 3272 1645 3428 
Q 1925 3584 2291 3584 
Q 2894 3584 3203 3211 
Q 3513 2838 3513 2113 
z
" id="DejaVuSans-6e" transform="scale(0.015625)"/>
       <path id="DejaVuSans-20" transform="scale(0.015625)"/>
       <path d="M 2375 4863 
L 2375 4384 
L 1825 4384 
Q 1516 4384 1395 4259 
Q 1275 4134 1275 3809 
L 1275 3500 
L 2222 3500 
L 2222 3053 
L 1275 3053 
L 1275 0 
L 697 0 
L 697 3053 
L 147 3053 
L 147 3500 
L 697 3500 
L 697 3744 
Q 697 4328 969 4595 
Q 1241 4863 1831 4863 
L 2375 4863 
z
" id="DejaVuSans-66" transform="scale(0.015625)"/>
       <path d="M 1259 4147 
L 1259 519 
L 2022 519 
Q 2988 519 3436 956 
Q 3884 1394 3884 2338 
Q 3884 3275 3436 3711 
Q 2988 4147 2022 4147 
L 1259 4147 
z
M 628 4666 
L 1925 4666 
Q 3281 4666 3915 4102 
Q 4550 3538 4550 2338 
Q 4550 1131 3912 565 
Q 3275 0 1925 0 
L 628 0 
L 628 4666 
z
" id="DejaVuSans-44" transform="scale(0.015625)"/>
       <path d="M 3425 4513 
L 3425 3897 
Q 3066 4069 2747 4153 
Q 2428 4238 2131 4238 
Q 1616 4238 1336 4038 
Q 1056 3838 1056 3469 
Q 1056 3159 1242 3001 
Q 1428 2844 1947 2747 
L 2328 2669 
Q 3034 2534 3370 2195 
Q 3706 1856 3706 1288 
Q 3706 609 3251 259 
Q 2797 -91 1919 -91 
Q 1588 -91 1214 -16 
Q 841 59 441 206 
L 441 856 
Q 825 641 1194 531 
Q 1563 422 1919 422 
Q 2459 422 2753 634 
Q 3047 847 3047 1241 
Q 3047 1584 2836 1778 
Q 2625 1972 2144 2069 
L 1759 2144 
Q 1053 2284 737 2584 
Q 422 2884 422 3419 
Q 422 4038 858 4394 
Q 1294 4750 2059 4750 
Q 2388 4750 2728 4690 
Q 3069 4631 3425 4513 
z
" id="DejaVuSans-53" transform="scale(0.015625)"/>
       <path d="M 4122 4306 
L 4122 3641 
Q 3803 3938 3442 4084 
Q 3081 4231 2675 4231 
Q 1875 4231 1450 3742 
Q 1025 3253 1025 2328 
Q 1025 1406 1450 917 
Q 1875 428 2675 428 
Q 3081 428 3442 575 
Q 3803 722 4122 1019 
L 4122 359 
Q 3791 134 3420 21 
Q 3050 -91 2638 -91 
Q 1578 -91 968 557 
Q 359 1206 359 2328 
Q 359 3453 968 4101 
Q 1578 4750 2638 4750 
Q 3056 4750 3426 4639 
Q 3797 4528 4122 4306 
z
" id="DejaVuSans-43" transform="scale(0.015625)"/>
       <path d="M 2834 3397 
L 2834 2853 
Q 2591 2978 2328 3040 
Q 2066 3103 1784 3103 
Q 1356 3103 1142 2972 
Q 928 2841 928 2578 
Q 928 2378 1081 2264 
Q 1234 2150 1697 2047 
L 1894 2003 
Q 2506 1872 2764 1633 
Q 3022 1394 3022 966 
Q 3022 478 2636 193 
Q 2250 -91 1575 -91 
Q 1294 -91 989 -36 
Q 684 19 347 128 
L 347 722 
Q 666 556 975 473 
Q 1284 391 1588 391 
Q 1994 391 2212 530 
Q 2431 669 2431 922 
Q 2431 1156 2273 1281 
Q 2116 1406 1581 1522 
L 1381 1569 
Q 847 1681 609 1914 
Q 372 2147 372 2553 
Q 372 3047 722 3315 
Q 1072 3584 1716 3584 
Q 2034 3584 2315 3537 
Q 2597 3491 2834 3397 
z
" id="DejaVuSans-73" transform="scale(0.015625)"/>
       <path d="M 3809 666 
L 3809 1919 
L 2778 1919 
L 2778 2438 
L 4434 2438 
L 4434 434 
Q 4069 175 3628 42 
Q 3188 -91 2688 -91 
Q 1594 -91 976 548 
Q 359 1188 359 2328 
Q 359 3472 976 4111 
Q 1594 4750 2688 4750 
Q 3144 4750 3555 4637 
Q 3966 4525 4313 4306 
L 4313 3634 
Q 3963 3931 3569 4081 
Q 3175 4231 2741 4231 
Q 1884 4231 1454 3753 
Q 1025 3275 1025 2328 
Q 1025 1384 1454 906 
Q 1884 428 2741 428 
Q 3075 428 3337 486 
Q 3600 544 3809 666 
z
" id="DejaVuSans-47" transform="scale(0.015625)"/>
       <path d="M 2906 2969 
L 2906 4863 
L 3481 4863 
L 3481 0 
L 2906 0 
L 2906 525 
Q 2725 213 2448 61 
Q 2172 -91 1784 -91 
Q 1150 -91 751 415 
Q 353 922 353 1747 
Q 353 2572 751 3078 
Q 1150 3584 1784 3584 
Q 2172 3584 2448 3432 
Q 2725 3281 2906 2969 
z
M 947 1747 
Q 947 1113 1208 752 
Q 1469 391 1925 391 
Q 2381 391 2643 752 
Q 2906 1113 2906 1747 
Q 2906 2381 2643 2742 
Q 2381 3103 1925 3103 
Q 1469 3103 1208 2742 
Q 947 2381 947 1747 
z
" id="DejaVuSans-64" transform="scale(0.015625)"/>
       <path d="M 1984 4856 
Q 1566 4138 1362 3434 
Q 1159 2731 1159 2009 
Q 1159 1288 1364 580 
Q 1569 -128 1984 -844 
L 1484 -844 
Q 1016 -109 783 600 
Q 550 1309 550 2009 
Q 550 2706 781 3412 
Q 1013 4119 1484 4856 
L 1984 4856 
z
" id="DejaVuSans-28" transform="scale(0.015625)"/>
       <path d="M 4653 2053 
Q 4381 2053 4226 1822 
Q 4072 1591 4072 1178 
Q 4072 772 4226 539 
Q 4381 306 4653 306 
Q 4919 306 5073 539 
Q 5228 772 5228 1178 
Q 5228 1588 5073 1820 
Q 4919 2053 4653 2053 
z
M 4653 2450 
Q 5147 2450 5437 2106 
Q 5728 1763 5728 1178 
Q 5728 594 5436 251 
Q 5144 -91 4653 -91 
Q 4153 -91 3862 251 
Q 3572 594 3572 1178 
Q 3572 1766 3864 2108 
Q 4156 2450 4653 2450 
z
M 1428 4353 
Q 1159 4353 1004 4120 
Q 850 3888 850 3481 
Q 850 3069 1003 2837 
Q 1156 2606 1428 2606 
Q 1700 2606 1854 2837 
Q 2009 3069 2009 3481 
Q 2009 3884 1853 4118 
Q 1697 4353 1428 4353 
z
M 4250 4750 
L 4750 4750 
L 1831 -91 
L 1331 -91 
L 4250 4750 
z
M 1428 4750 
Q 1922 4750 2215 4408 
Q 2509 4066 2509 3481 
Q 2509 2891 2217 2550 
Q 1925 2209 1428 2209 
Q 931 2209 642 2551 
Q 353 2894 353 3481 
Q 353 4063 643 4406 
Q 934 4750 1428 4750 
z
" id="DejaVuSans-25" transform="scale(0.015625)"/>
       <path d="M 513 4856 
L 1013 4856 
Q 1481 4119 1714 3412 
Q 1947 2706 1947 2009 
Q 1947 1309 1714 600 
Q 1481 -109 1013 -844 
L 513 -844 
Q 928 -128 1133 580 
Q 1338 1288 1338 2009 
Q 1338 2731 1133 3434 
Q 928 4138 513 4856 
z
" id="DejaVuSans-29" transform="scale(0.015625)"/>
      </defs>
      <use xlink:href="#DejaVuSans-50"/>
      <use x="58.552734" xlink:href="#DejaVuSans-72"/>
      <use x="97.416016" xlink:href="#DejaVuSans-6f"/>
      <use x="158.597656" xlink:href="#DejaVuSans-70"/>
      <use x="222.074219" xlink:href="#DejaVuSans-6f"/>
      <use x="283.255859" xlink:href="#DejaVuSans-72"/>
      <use x="324.369141" xlink:href="#DejaVuSans-74"/>
      <use x="363.578125" xlink:href="#DejaVuSans-69"/>
      <use x="391.361328" xlink:href="#DejaVuSans-6f"/>
      <use x="452.542969" xlink:href="#DejaVuSans-6e"/>
      <use x="515.921875" xlink:href="#DejaVuSans-20"/>
      <use x="547.708984" xlink:href="#DejaVuSans-6f"/>
      <use x="608.890625" xlink:href="#DejaVuSans-66"/>
      <use x="644.095703" xlink:href="#DejaVuSans-20"/>
      <use x="675.882812" xlink:href="#DejaVuSans-44"/>
      <use x="752.884766" xlink:href="#DejaVuSans-53"/>
      <use x="816.361328" xlink:href="#DejaVuSans-53"/>
      <use x="879.837891" xlink:href="#DejaVuSans-43"/>
      <use x="949.662109" xlink:href="#DejaVuSans-73"/>
      <use x="1001.761719" xlink:href="#DejaVuSans-20"/>
      <use x="1033.548828" xlink:href="#DejaVuSans-69"/>
      <use x="1061.332031" xlink:href="#DejaVuSans-6e"/>
      <use x="1124.710938" xlink:href="#DejaVuSans-20"/>
      <use x="1156.498047" xlink:href="#DejaVuSans-47"/>
      <use x="1233.988281" xlink:href="#DejaVuSans-72"/>
      <use x="1275.101562" xlink:href="#DejaVuSans-69"/>
      <use x="1302.884766" xlink:href="#DejaVuSans-64"/>
      <use x="1366.361328" xlink:href="#DejaVuSans-20"/>
      <use x="1398.148438" xlink:href="#DejaVuSans-28"/>
      <use x="1437.162109" xlink:href="#DejaVuSans-25"/>
      <use x="1532.181641" xlink:href="#DejaVuSans-29"/>
     </g>
    </g>
   </g>
   <g id="matplotlib.axis_2">
    <g id="ytick_1">
     <g id="line2d_6">
      <defs>
       <path d="M 0 0 
L -3.5 0 
" id="me9600c0c9a" style="stroke:#000000;stroke-width:0.8;"/>
      </defs>
      <g>
       <use style="stroke:#000000;stroke-width:0.8;" x="44.6" xlink:href="#me9600c0c9a" y="361.653756"/>
      </g>
     </g>
     <g id="text_7">
      <!-- 0 -->
      <g transform="translate(31.2375 365.452974)scale(0.1 -0.1)">
       <use xlink:href="#DejaVuSans-30"/>
      </g>
     </g>
    </g>
    <g id="ytick_2">
     <g id="line2d_7">
      <g>
       <use style="stroke:#000000;stroke-width:0.8;" x="44.6" xlink:href="#me9600c0c9a" y="286.156591"/>
      </g>
     </g>
     <g id="text_8">
      <!-- 5 -->
      <g transform="translate(31.2375 289.95581)scale(0.1 -0.1)">
       <use xlink:href="#DejaVuSans-35"/>
      </g>
     </g>
    </g>
    <g id="ytick_3">
     <g id="line2d_8">
      <g>
       <use style="stroke:#000000;stroke-width:0.8;" x="44.6" xlink:href="#me9600c0c9a" y="210.659426"/>
      </g>
     </g>
     <g id="text_9">
      <!-- 10 -->
      <g transform="translate(24.875 214.458645)scale(0.1 -0.1)">
       <use xlink:href="#DejaVuSans-31"/>
       <use x="63.623047" xlink:href="#DejaVuSans-30"/>
      </g>
     </g>
    </g>
    <g id="ytick_4">
     <g id="line2d_9">
      <g>
       <use style="stroke:#000000;stroke-width:0.8;" x="44.6" xlink:href="#me9600c0c9a" y="135.162262"/>
      </g>
     </g>
     <g id="text_10">
      <!-- 15 -->
      <g transform="translate(24.875 138.96148)scale(0.1 -0.1)">
       <use xlink:href="#DejaVuSans-31"/>
       <use x="63.623047" xlink:href="#DejaVuSans-35"/>
      </g>
     </g>
    </g>
    <g id="ytick_5">
     <g id="line2d_10">
      <g>
       <use style="stroke:#000000;stroke-width:0.8;" x="44.6" xlink:href="#me9600c0c9a" y="59.665097"/>
      </g>
     </g>
     <g id="text_11">
      <!-- 20 -->
      <g transform="translate(24.875 63.464316)scale(0.1 -0.1)">
       <use xlink:href="#DejaVuSans-32"/>
       <use x="63.623047" xlink:href="#DejaVuSans-30"/>
      </g>
     </g>
    </g>
    <g id="text_12">
     <!-- Carbon Equivalent Emissions Savings (Mt) -->
     <g transform="translate(18.795313 291.27294)rotate(-90)scale(0.1 -0.1)">
      <defs>
       <path d="M 2194 1759 
Q 1497 1759 1228 1600 
Q 959 1441 959 1056 
Q 959 750 1161 570 
Q 1363 391 1709 391 
Q 2188 391 2477 730 
Q 2766 1069 2766 1631 
L 2766 1759 
L 2194 1759 
z
M 3341 1997 
L 3341 0 
L 2766 0 
L 2766 531 
Q 2569 213 2275 61 
Q 1981 -91 1556 -91 
Q 1019 -91 701 211 
Q 384 513 384 1019 
Q 384 1609 779 1909 
Q 1175 2209 1959 2209 
L 2766 2209 
L 2766 2266 
Q 2766 2663 2505 2880 
Q 2244 3097 1772 3097 
Q 1472 3097 1187 3025 
Q 903 2953 641 2809 
L 641 3341 
Q 956 3463 1253 3523 
Q 1550 3584 1831 3584 
Q 2591 3584 2966 3190 
Q 3341 2797 3341 1997 
z
" id="DejaVuSans-61" transform="scale(0.015625)"/>
       <path d="M 3116 1747 
Q 3116 2381 2855 2742 
Q 2594 3103 2138 3103 
Q 1681 3103 1420 2742 
Q 1159 2381 1159 1747 
Q 1159 1113 1420 752 
Q 1681 391 2138 391 
Q 2594 391 2855 752 
Q 3116 1113 3116 1747 
z
M 1159 2969 
Q 1341 3281 1617 3432 
Q 1894 3584 2278 3584 
Q 2916 3584 3314 3078 
Q 3713 2572 3713 1747 
Q 3713 922 3314 415 
Q 2916 -91 2278 -91 
Q 1894 -91 1617 61 
Q 1341 213 1159 525 
L 1159 0 
L 581 0 
L 581 4863 
L 1159 4863 
L 1159 2969 
z
" id="DejaVuSans-62" transform="scale(0.015625)"/>
       <path d="M 628 4666 
L 3578 4666 
L 3578 4134 
L 1259 4134 
L 1259 2753 
L 3481 2753 
L 3481 2222 
L 1259 2222 
L 1259 531 
L 3634 531 
L 3634 0 
L 628 0 
L 628 4666 
z
" id="DejaVuSans-45" transform="scale(0.015625)"/>
       <path d="M 947 1747 
Q 947 1113 1208 752 
Q 1469 391 1925 391 
Q 2381 391 2643 752 
Q 2906 1113 2906 1747 
Q 2906 2381 2643 2742 
Q 2381 3103 1925 3103 
Q 1469 3103 1208 2742 
Q 947 2381 947 1747 
z
M 2906 525 
Q 2725 213 2448 61 
Q 2172 -91 1784 -91 
Q 1150 -91 751 415 
Q 353 922 353 1747 
Q 353 2572 751 3078 
Q 1150 3584 1784 3584 
Q 2172 3584 2448 3432 
Q 2725 3281 2906 2969 
L 2906 3500 
L 3481 3500 
L 3481 -1331 
L 2906 -1331 
L 2906 525 
z
" id="DejaVuSans-71" transform="scale(0.015625)"/>
       <path d="M 544 1381 
L 544 3500 
L 1119 3500 
L 1119 1403 
Q 1119 906 1312 657 
Q 1506 409 1894 409 
Q 2359 409 2629 706 
Q 2900 1003 2900 1516 
L 2900 3500 
L 3475 3500 
L 3475 0 
L 2900 0 
L 2900 538 
Q 2691 219 2414 64 
Q 2138 -91 1772 -91 
Q 1169 -91 856 284 
Q 544 659 544 1381 
z
M 1991 3584 
L 1991 3584 
z
" id="DejaVuSans-75" transform="scale(0.015625)"/>
       <path d="M 191 3500 
L 800 3500 
L 1894 563 
L 2988 3500 
L 3597 3500 
L 2284 0 
L 1503 0 
L 191 3500 
z
" id="DejaVuSans-76" transform="scale(0.015625)"/>
       <path d="M 603 4863 
L 1178 4863 
L 1178 0 
L 603 0 
L 603 4863 
z
" id="DejaVuSans-6c" transform="scale(0.015625)"/>
       <path d="M 3597 1894 
L 3597 1613 
L 953 1613 
Q 991 1019 1311 708 
Q 1631 397 2203 397 
Q 2534 397 2845 478 
Q 3156 559 3463 722 
L 3463 178 
Q 3153 47 2828 -22 
Q 2503 -91 2169 -91 
Q 1331 -91 842 396 
Q 353 884 353 1716 
Q 353 2575 817 3079 
Q 1281 3584 2069 3584 
Q 2775 3584 3186 3129 
Q 3597 2675 3597 1894 
z
M 3022 2063 
Q 3016 2534 2758 2815 
Q 2500 3097 2075 3097 
Q 1594 3097 1305 2825 
Q 1016 2553 972 2059 
L 3022 2063 
z
" id="DejaVuSans-65" transform="scale(0.015625)"/>
       <path d="M 3328 2828 
Q 3544 3216 3844 3400 
Q 4144 3584 4550 3584 
Q 5097 3584 5394 3201 
Q 5691 2819 5691 2113 
L 5691 0 
L 5113 0 
L 5113 2094 
Q 5113 2597 4934 2840 
Q 4756 3084 4391 3084 
Q 3944 3084 3684 2787 
Q 3425 2491 3425 1978 
L 3425 0 
L 2847 0 
L 2847 2094 
Q 2847 2600 2669 2842 
Q 2491 3084 2119 3084 
Q 1678 3084 1418 2786 
Q 1159 2488 1159 1978 
L 1159 0 
L 581 0 
L 581 3500 
L 1159 3500 
L 1159 2956 
Q 1356 3278 1631 3431 
Q 1906 3584 2284 3584 
Q 2666 3584 2933 3390 
Q 3200 3197 3328 2828 
z
" id="DejaVuSans-6d" transform="scale(0.015625)"/>
       <path d="M 2906 1791 
Q 2906 2416 2648 2759 
Q 2391 3103 1925 3103 
Q 1463 3103 1205 2759 
Q 947 2416 947 1791 
Q 947 1169 1205 825 
Q 1463 481 1925 481 
Q 2391 481 2648 825 
Q 2906 1169 2906 1791 
z
M 3481 434 
Q 3481 -459 3084 -895 
Q 2688 -1331 1869 -1331 
Q 1566 -1331 1297 -1286 
Q 1028 -1241 775 -1147 
L 775 -588 
Q 1028 -725 1275 -790 
Q 1522 -856 1778 -856 
Q 2344 -856 2625 -561 
Q 2906 -266 2906 331 
L 2906 616 
Q 2728 306 2450 153 
Q 2172 0 1784 0 
Q 1141 0 747 490 
Q 353 981 353 1791 
Q 353 2603 747 3093 
Q 1141 3584 1784 3584 
Q 2172 3584 2450 3431 
Q 2728 3278 2906 2969 
L 2906 3500 
L 3481 3500 
L 3481 434 
z
" id="DejaVuSans-67" transform="scale(0.015625)"/>
       <path d="M 628 4666 
L 1569 4666 
L 2759 1491 
L 3956 4666 
L 4897 4666 
L 4897 0 
L 4281 0 
L 4281 4097 
L 3078 897 
L 2444 897 
L 1241 4097 
L 1241 0 
L 628 0 
L 628 4666 
z
" id="DejaVuSans-4d" transform="scale(0.015625)"/>
      </defs>
      <use xlink:href="#DejaVuSans-43"/>
      <use x="69.824219" xlink:href="#DejaVuSans-61"/>
      <use x="131.103516" xlink:href="#DejaVuSans-72"/>
      <use x="172.216797" xlink:href="#DejaVuSans-62"/>
      <use x="235.693359" xlink:href="#DejaVuSans-6f"/>
      <use x="296.875" xlink:href="#DejaVuSans-6e"/>
      <use x="360.253906" xlink:href="#DejaVuSans-20"/>
      <use x="392.041016" xlink:href="#DejaVuSans-45"/>
      <use x="455.224609" xlink:href="#DejaVuSans-71"/>
      <use x="518.701172" xlink:href="#DejaVuSans-75"/>
      <use x="582.080078" xlink:href="#DejaVuSans-69"/>
      <use x="609.863281" xlink:href="#DejaVuSans-76"/>
      <use x="669.042969" xlink:href="#DejaVuSans-61"/>
      <use x="730.322266" xlink:href="#DejaVuSans-6c"/>
      <use x="758.105469" xlink:href="#DejaVuSans-65"/>
      <use x="819.628906" xlink:href="#DejaVuSans-6e"/>
      <use x="883.007812" xlink:href="#DejaVuSans-74"/>
      <use x="922.216797" xlink:href="#DejaVuSans-20"/>
      <use x="954.003906" xlink:href="#DejaVuSans-45"/>
      <use x="1017.1875" xlink:href="#DejaVuSans-6d"/>
      <use x="1114.599609" xlink:href="#DejaVuSans-69"/>
      <use x="1142.382812" xlink:href="#DejaVuSans-73"/>
      <use x="1194.482422" xlink:href="#DejaVuSans-73"/>
      <use x="1246.582031" xlink:href="#DejaVuSans-69"/>
      <use x="1274.365234" xlink:href="#DejaVuSans-6f"/>
      <use x="1335.546875" xlink:href="#DejaVuSans-6e"/>
      <use x="1398.925781" xlink:href="#DejaVuSans-73"/>
      <use x="1451.025391" xlink:href="#DejaVuSans-20"/>
      <use x="1482.8125" xlink:href="#DejaVuSans-53"/>
      <use x="1546.289062" xlink:href="#DejaVuSans-61"/>
      <use x="1607.568359" xlink:href="#DejaVuSans-76"/>
      <use x="1666.748047" xlink:href="#DejaVuSans-69"/>
      <use x="1694.53125" xlink:href="#DejaVuSans-6e"/>
      <use x="1757.910156" xlink:href="#DejaVuSans-67"/>
      <use x="1821.386719" xlink:href="#DejaVuSans-73"/>
      <use x="1873.486328" xlink:href="#DejaVuSans-20"/>
      <use x="1905.273438" xlink:href="#DejaVuSans-28"/>
      <use x="1944.287109" xlink:href="#DejaVuSans-4d"/>
      <use x="2030.566406" xlink:href="#DejaVuSans-74"/>
      <use x="2069.775391" xlink:href="#DejaVuSans-29"/>
     </g>
    </g>
   </g>
   <g id="patch_3">
    <path d="M 44.6 361.653756 
L 44.6 10.014 
" style="fill:none;stroke:#000000;stroke-linecap:square;stroke-linejoin:miter;stroke-width:0.8;"/>
   </g>
   <g id="patch_4">
    <path d="M 267.66 361.653756 
L 267.66 10.014 
" style="fill:none;stroke:#000000;stroke-linecap:square;stroke-linejoin:miter;stroke-width:0.8;"/>
   </g>
   <g id="patch_5">
    <path d="M 44.6 361.653756 
L 267.66 361.653756 
" style="fill:none;stroke:#000000;stroke-linecap:square;stroke-linejoin:miter;stroke-width:0.8;"/>
   </g>
   <g id="patch_6">
    <path d="M 44.6 10.014 
L 267.66 10.014 
" style="fill:none;stroke:#000000;stroke-linecap:square;stroke-linejoin:miter;stroke-width:0.8;"/>
   </g>
  </g>
 </g>
 <defs>
  <clipPath id="pf9790bffb2">
   <rect height="351.639756" width="223.06" x="44.6" y="10.014"/>
  </clipPath>
 </defs>
</svg>
