<?xml version="1.0" encoding="utf-8" standalone="no"?>
<!DOCTYPE svg PUBLIC "-//W3C//DTD SVG 1.1//EN"
  "http://www.w3.org/Graphics/SVG/1.1/DTD/svg11.dtd">
<svg height="400.56pt" version="1.1" viewBox="0 0 288 400.56" width="288pt" xmlns="http://www.w3.org/2000/svg" xmlns:xlink="http://www.w3.org/1999/xlink">
 <metadata>
  <rdf:RDF xmlns:cc="http://creativecommons.org/ns#" xmlns:dc="http://purl.org/dc/elements/1.1/" xmlns:rdf="http://www.w3.org/1999/02/22-rdf-syntax-ns#">
   <cc:Work>
    <dc:type rdf:resource="http://purl.org/dc/dcmitype/StillImage"/>
    <dc:date>2021-08-12T15:20:17.376861</dc:date>
    <dc:format>image/svg+xml</dc:format>
    <dc:creator>
     <cc:Agent>
      <dc:title>Matplotlib v3.4.1, https://matplotlib.org/</dc:title>
     </cc:Agent>
    </dc:creator>
   </cc:Work>
  </rdf:RDF>
 </metadata>
 <defs>
  <style type="text/css">*{stroke-linecap:butt;stroke-linejoin:round;}</style>
 </defs>
 <g id="figure_1">
  <g id="patch_1">
   <path d="M 0 400.56 
L 288 400.56 
L 288 0 
L 0 0 
z
" style="fill:#ffffff;"/>
  </g>
  <g id="axes_1">
   <g id="patch_2">
    <path d="M 50.99 361.653756 
L 262.89 361.653756 
L 262.89 10.014 
L 50.99 10.014 
z
" style="fill:#ffffff;"/>
   </g>
   <g id="PolyCollection_1">
    <path clip-path="url(#p38ef9cc4bb)" d="M 262.89 232.739976 
L 262.89 361.653756 
L 260.749596 361.653756 
L 258.609192 361.653756 
L 256.468788 361.653756 
L 254.328384 361.653756 
L 252.18798 361.653756 
L 250.047576 361.653756 
L 247.907172 361.653756 
L 245.766768 361.653756 
L 243.626364 361.653756 
L 241.48596 361.653756 
L 239.345556 361.653756 
L 237.205152 361.653756 
L 235.064747 361.653756 
L 232.924343 361.653756 
L 230.783939 361.653756 
L 228.643535 361.653756 
L 226.503131 361.653756 
L 224.362727 361.653756 
L 222.222323 361.653756 
L 220.081919 361.653756 
L 217.941515 361.653756 
L 215.801111 361.653756 
L 213.660707 361.653756 
L 211.520303 361.653756 
L 209.379899 361.653756 
L 207.239495 361.653756 
L 205.099091 361.653756 
L 202.958687 361.653756 
L 200.818283 361.653756 
L 198.677879 361.653756 
L 196.537475 361.653756 
L 194.397071 361.653756 
L 192.256667 361.653756 
L 190.116263 361.653756 
L 187.975859 361.653756 
L 185.835455 361.653756 
L 183.695051 361.653756 
L 181.554646 361.653756 
L 179.414242 361.653756 
L 177.273838 361.653756 
L 175.133434 361.653756 
L 172.99303 361.653756 
L 170.852626 361.653756 
L 168.712222 361.653756 
L 166.571818 361.653756 
L 164.431414 361.653756 
L 162.29101 361.653756 
L 160.150606 361.653756 
L 158.010202 361.653756 
L 155.869798 361.653756 
L 153.729394 361.653756 
L 151.58899 361.653756 
L 149.448586 361.653756 
L 147.308182 361.653756 
L 145.167778 361.653756 
L 143.027374 361.653756 
L 140.88697 361.653756 
L 138.746566 361.653756 
L 136.606162 361.653756 
L 134.465758 361.653756 
L 132.325354 361.653756 
L 130.184949 361.653756 
L 128.044545 361.653756 
L 125.904141 361.653756 
L 123.763737 361.653756 
L 121.623333 361.653756 
L 119.482929 361.653756 
L 117.342525 361.653756 
L 115.202121 361.653756 
L 113.061717 361.653756 
L 110.921313 361.653756 
L 108.780909 361.653756 
L 106.640505 361.653756 
L 104.500101 361.653756 
L 102.359697 361.653756 
L 100.219293 361.653756 
L 98.078889 361.653756 
L 95.938485 361.653756 
L 93.798081 361.653756 
L 91.657677 361.653756 
L 89.517273 361.653756 
L 87.376869 361.653756 
L 85.236465 361.653756 
L 83.096061 361.653756 
L 80.955657 361.653756 
L 78.815253 361.653756 
L 76.674848 361.653756 
L 74.534444 361.653756 
L 72.39404 361.653756 
L 70.253636 361.653756 
L 68.113232 361.653756 
L 65.972828 361.653756 
L 63.832424 361.653756 
L 61.69202 361.653756 
L 59.551616 361.653756 
L 57.411212 361.653756 
L 55.270808 361.653756 
L 53.130404 361.653756 
L 50.99 361.653756 
L 50.99 196.777546 
L 50.99 196.777546 
L 53.130404 197.270805 
L 55.270808 197.764063 
L 57.411212 198.257321 
L 59.551616 198.75058 
L 61.69202 199.243838 
L 63.832424 199.737096 
L 65.972828 200.230355 
L 68.113232 200.723613 
L 70.253636 201.215477 
L 72.39404 201.703436 
L 74.534444 202.185586 
L 76.674848 202.653583 
L 78.815253 203.084051 
L 80.955657 203.497253 
L 83.096061 203.896556 
L 85.236465 204.294198 
L 87.376869 204.685059 
L 89.517273 205.063441 
L 91.657677 205.433104 
L 93.798081 205.792234 
L 95.938485 206.127585 
L 98.078889 206.444498 
L 100.219293 206.748364 
L 102.359697 207.040704 
L 104.500101 207.325763 
L 106.640505 207.609279 
L 108.780909 207.895927 
L 110.921313 208.18904 
L 113.061717 208.487956 
L 115.202121 208.794213 
L 117.342525 209.109368 
L 119.482929 209.43287 
L 121.623333 209.76379 
L 123.763737 210.095194 
L 125.904141 210.427461 
L 128.044545 210.760375 
L 130.184949 211.095292 
L 132.325354 211.431529 
L 134.465758 211.769427 
L 136.606162 212.108355 
L 138.746566 212.44924 
L 140.88697 212.792736 
L 143.027374 213.138871 
L 145.167778 213.489958 
L 147.308182 213.844509 
L 149.448586 214.20063 
L 151.58899 214.558297 
L 153.729394 214.916703 
L 155.869798 215.275654 
L 158.010202 215.63495 
L 160.150606 215.994575 
L 162.29101 216.353189 
L 164.431414 216.709222 
L 166.571818 217.065616 
L 168.712222 217.425736 
L 170.852626 217.788555 
L 172.99303 218.152908 
L 175.133434 218.517417 
L 177.273838 218.879065 
L 179.414242 219.241153 
L 181.554646 219.601409 
L 183.695051 219.963048 
L 185.835455 220.324107 
L 187.975859 220.684758 
L 190.116263 221.045406 
L 192.256667 221.407205 
L 194.397071 221.76882 
L 196.537475 222.128985 
L 198.677879 222.489652 
L 200.818283 222.850541 
L 202.958687 223.212134 
L 205.099091 223.573269 
L 207.239495 223.934486 
L 209.379899 224.295937 
L 211.520303 224.657112 
L 213.660707 225.017077 
L 215.801111 225.375235 
L 217.941515 225.731737 
L 220.081919 226.086322 
L 222.222323 226.438479 
L 224.362727 226.78905 
L 226.503131 227.138797 
L 228.643535 227.484031 
L 230.783939 227.827141 
L 232.924343 228.169123 
L 235.064747 228.509042 
L 237.205152 228.84579 
L 239.345556 229.179939 
L 241.48596 229.511814 
L 243.626364 229.841813 
L 245.766768 230.170039 
L 247.907172 230.496579 
L 250.047576 230.821456 
L 252.18798 231.145489 
L 254.328384 231.468561 
L 256.468788 231.789306 
L 258.609192 232.107465 
L 260.749596 232.424161 
L 262.89 232.739976 
z
" style="fill:#3182bd;"/>
   </g>
   <g id="PolyCollection_2">
    <path clip-path="url(#p38ef9cc4bb)" d="M 262.89 210.885158 
L 262.89 232.739976 
L 260.749596 232.424161 
L 258.609192 232.107465 
L 256.468788 231.789306 
L 254.328384 231.468561 
L 252.18798 231.145489 
L 250.047576 230.821456 
L 247.907172 230.496579 
L 245.766768 230.170039 
L 243.626364 229.841813 
L 241.48596 229.511814 
L 239.345556 229.179939 
L 237.205152 228.84579 
L 235.064747 228.509042 
L 232.924343 228.169123 
L 230.783939 227.827141 
L 228.643535 227.484031 
L 226.503131 227.138797 
L 224.362727 226.78905 
L 222.222323 226.438479 
L 220.081919 226.086322 
L 217.941515 225.731737 
L 215.801111 225.375235 
L 213.660707 225.017077 
L 211.520303 224.657112 
L 209.379899 224.295937 
L 207.239495 223.934486 
L 205.099091 223.573269 
L 202.958687 223.212134 
L 200.818283 222.850541 
L 198.677879 222.489652 
L 196.537475 222.128985 
L 194.397071 221.76882 
L 192.256667 221.407205 
L 190.116263 221.045406 
L 187.975859 220.684758 
L 185.835455 220.324107 
L 183.695051 219.963048 
L 181.554646 219.601409 
L 179.414242 219.241153 
L 177.273838 218.879065 
L 175.133434 218.517417 
L 172.99303 218.152908 
L 170.852626 217.788555 
L 168.712222 217.425736 
L 166.571818 217.065616 
L 164.431414 216.709222 
L 162.29101 216.353189 
L 160.150606 215.994575 
L 158.010202 215.63495 
L 155.869798 215.275654 
L 153.729394 214.916703 
L 151.58899 214.558297 
L 149.448586 214.20063 
L 147.308182 213.844509 
L 145.167778 213.489958 
L 143.027374 213.138871 
L 140.88697 212.792736 
L 138.746566 212.44924 
L 136.606162 212.108355 
L 134.465758 211.769427 
L 132.325354 211.431529 
L 130.184949 211.095292 
L 128.044545 210.760375 
L 125.904141 210.427461 
L 123.763737 210.095194 
L 121.623333 209.76379 
L 119.482929 209.43287 
L 117.342525 209.109368 
L 115.202121 208.794213 
L 113.061717 208.487956 
L 110.921313 208.18904 
L 108.780909 207.895927 
L 106.640505 207.609279 
L 104.500101 207.325763 
L 102.359697 207.040704 
L 100.219293 206.748364 
L 98.078889 206.444498 
L 95.938485 206.127585 
L 93.798081 205.792234 
L 91.657677 205.433104 
L 89.517273 205.063441 
L 87.376869 204.685059 
L 85.236465 204.294198 
L 83.096061 203.896556 
L 80.955657 203.497253 
L 78.815253 203.084051 
L 76.674848 202.653583 
L 74.534444 202.185586 
L 72.39404 201.703436 
L 70.253636 201.215477 
L 68.113232 200.723613 
L 65.972828 200.230355 
L 63.832424 199.737096 
L 61.69202 199.243838 
L 59.551616 198.75058 
L 57.411212 198.257321 
L 55.270808 197.764063 
L 53.130404 197.270805 
L 50.99 196.777546 
L 50.99 165.457195 
L 50.99 165.457195 
L 53.130404 165.950453 
L 55.270808 166.443711 
L 57.411212 166.93697 
L 59.551616 167.430228 
L 61.69202 167.923487 
L 63.832424 168.416745 
L 65.972828 168.910003 
L 68.113232 169.403262 
L 70.253636 169.89652 
L 72.39404 170.389778 
L 74.534444 170.883037 
L 76.674848 171.376295 
L 78.815253 171.869553 
L 80.955657 172.362812 
L 83.096061 172.85607 
L 85.236465 173.349329 
L 87.376869 173.842587 
L 89.517273 174.335845 
L 91.657677 174.829104 
L 93.798081 175.322362 
L 95.938485 175.81562 
L 98.078889 176.308879 
L 100.219293 176.802137 
L 102.359697 177.295395 
L 104.500101 177.788654 
L 106.640505 178.281912 
L 108.780909 178.775105 
L 110.921313 179.268043 
L 113.061717 179.76092 
L 115.202121 180.253229 
L 117.342525 180.745296 
L 119.482929 181.236909 
L 121.623333 181.728258 
L 123.763737 182.218958 
L 125.904141 182.709318 
L 128.044545 183.199436 
L 130.184949 183.68912 
L 132.325354 184.177858 
L 134.465758 184.666244 
L 136.606162 185.153941 
L 138.746566 185.640869 
L 140.88697 186.127455 
L 143.027374 186.613779 
L 145.167778 187.100019 
L 147.308182 187.585671 
L 149.448586 188.070597 
L 151.58899 188.553972 
L 153.729394 189.035955 
L 155.869798 189.516242 
L 158.010202 189.993913 
L 160.150606 190.470328 
L 162.29101 190.945228 
L 164.431414 191.41842 
L 166.571818 191.890139 
L 168.712222 192.360487 
L 170.852626 192.829341 
L 172.99303 193.295981 
L 175.133434 193.760913 
L 177.273838 194.223267 
L 179.414242 194.683215 
L 181.554646 195.140819 
L 183.695051 195.596985 
L 185.835455 196.050465 
L 187.975859 196.501707 
L 190.116263 196.951201 
L 192.256667 197.399498 
L 194.397071 197.846574 
L 196.537475 198.291297 
L 198.677879 198.734151 
L 200.818283 199.174667 
L 202.958687 199.613516 
L 205.099091 200.050174 
L 207.239495 200.484611 
L 209.379899 200.917494 
L 211.520303 201.347865 
L 213.660707 201.774967 
L 215.801111 202.199741 
L 217.941515 202.622111 
L 220.081919 203.042057 
L 222.222323 203.459518 
L 224.362727 203.874896 
L 226.503131 204.288346 
L 228.643535 204.698477 
L 230.783939 205.106424 
L 232.924343 205.511685 
L 235.064747 205.913644 
L 237.205152 206.312681 
L 239.345556 206.708551 
L 241.48596 207.101269 
L 243.626364 207.491005 
L 245.766768 207.877707 
L 247.907172 208.261632 
L 250.047576 208.642895 
L 252.18798 209.022326 
L 254.328384 209.400186 
L 256.468788 209.775125 
L 258.609192 210.147097 
L 260.749596 210.517137 
L 262.89 210.885158 
z
" style="fill:#6baed6;"/>
   </g>
   <g id="PolyCollection_3">
    <path clip-path="url(#p38ef9cc4bb)" d="M 262.89 207.664445 
L 262.89 210.885158 
L 260.749596 210.517137 
L 258.609192 210.147097 
L 256.468788 209.775125 
L 254.328384 209.400186 
L 252.18798 209.022326 
L 250.047576 208.642895 
L 247.907172 208.261632 
L 245.766768 207.877707 
L 243.626364 207.491005 
L 241.48596 207.101269 
L 239.345556 206.708551 
L 237.205152 206.312681 
L 235.064747 205.913644 
L 232.924343 205.511685 
L 230.783939 205.106424 
L 228.643535 204.698477 
L 226.503131 204.288346 
L 224.362727 203.874896 
L 222.222323 203.459518 
L 220.081919 203.042057 
L 217.941515 202.622111 
L 215.801111 202.199741 
L 213.660707 201.774967 
L 211.520303 201.347865 
L 209.379899 200.917494 
L 207.239495 200.484611 
L 205.099091 200.050174 
L 202.958687 199.613516 
L 200.818283 199.174667 
L 198.677879 198.734151 
L 196.537475 198.291297 
L 194.397071 197.846574 
L 192.256667 197.399498 
L 190.116263 196.951201 
L 187.975859 196.501707 
L 185.835455 196.050465 
L 183.695051 195.596985 
L 181.554646 195.140819 
L 179.414242 194.683215 
L 177.273838 194.223267 
L 175.133434 193.760913 
L 172.99303 193.295981 
L 170.852626 192.829341 
L 168.712222 192.360487 
L 166.571818 191.890139 
L 164.431414 191.41842 
L 162.29101 190.945228 
L 160.150606 190.470328 
L 158.010202 189.993913 
L 155.869798 189.516242 
L 153.729394 189.035955 
L 151.58899 188.553972 
L 149.448586 188.070597 
L 147.308182 187.585671 
L 145.167778 187.100019 
L 143.027374 186.613779 
L 140.88697 186.127455 
L 138.746566 185.640869 
L 136.606162 185.153941 
L 134.465758 184.666244 
L 132.325354 184.177858 
L 130.184949 183.68912 
L 128.044545 183.199436 
L 125.904141 182.709318 
L 123.763737 182.218958 
L 121.623333 181.728258 
L 119.482929 181.236909 
L 117.342525 180.745296 
L 115.202121 180.253229 
L 113.061717 179.76092 
L 110.921313 179.268043 
L 108.780909 178.775105 
L 106.640505 178.281912 
L 104.500101 177.788654 
L 102.359697 177.295395 
L 100.219293 176.802137 
L 98.078889 176.308879 
L 95.938485 175.81562 
L 93.798081 175.322362 
L 91.657677 174.829104 
L 89.517273 174.335845 
L 87.376869 173.842587 
L 85.236465 173.349329 
L 83.096061 172.85607 
L 80.955657 172.362812 
L 78.815253 171.869553 
L 76.674848 171.376295 
L 74.534444 170.883037 
L 72.39404 170.389778 
L 70.253636 169.89652 
L 68.113232 169.403262 
L 65.972828 168.910003 
L 63.832424 168.416745 
L 61.69202 167.923487 
L 59.551616 167.430228 
L 57.411212 166.93697 
L 55.270808 166.443711 
L 53.130404 165.950453 
L 50.99 165.457195 
L 50.99 162.069932 
L 50.99 162.069932 
L 53.130404 162.56319 
L 55.270808 163.056448 
L 57.411212 163.549707 
L 59.551616 164.042965 
L 61.69202 164.536224 
L 63.832424 165.029482 
L 65.972828 165.52274 
L 68.113232 166.015999 
L 70.253636 166.509257 
L 72.39404 167.002515 
L 74.534444 167.495774 
L 76.674848 167.989032 
L 78.815253 168.48229 
L 80.955657 168.975549 
L 83.096061 169.468807 
L 85.236465 169.962066 
L 87.376869 170.455324 
L 89.517273 170.948582 
L 91.657677 171.441841 
L 93.798081 171.935099 
L 95.938485 172.428357 
L 98.078889 172.921616 
L 100.219293 173.414874 
L 102.359697 173.908132 
L 104.500101 174.401391 
L 106.640505 174.894649 
L 108.780909 175.387908 
L 110.921313 175.88098 
L 113.061717 176.373918 
L 115.202121 176.866642 
L 117.342525 177.358778 
L 119.482929 177.850593 
L 121.623333 178.342124 
L 123.763737 178.833189 
L 125.904141 179.323748 
L 128.044545 179.814023 
L 130.184949 180.304123 
L 132.325354 180.793363 
L 134.465758 181.281946 
L 136.606162 181.770275 
L 138.746566 182.257586 
L 140.88697 182.744515 
L 143.027374 183.231019 
L 145.167778 183.717343 
L 147.308182 184.203531 
L 149.448586 184.688955 
L 151.58899 185.17343 
L 153.729394 185.656583 
L 155.869798 186.138142 
L 158.010202 186.617744 
L 160.150606 187.095049 
L 162.29101 187.571327 
L 164.431414 188.046014 
L 166.571818 188.519135 
L 168.712222 188.990857 
L 170.852626 189.461365 
L 172.99303 189.930626 
L 175.133434 190.39748 
L 177.273838 190.862331 
L 179.414242 191.324803 
L 181.554646 191.784959 
L 183.695051 192.242954 
L 185.835455 192.699116 
L 187.975859 193.152407 
L 190.116263 193.603751 
L 192.256667 194.053656 
L 194.397071 194.502086 
L 196.537475 194.949274 
L 198.677879 195.394247 
L 200.818283 195.837596 
L 202.958687 196.278821 
L 205.099091 196.718141 
L 207.239495 197.155678 
L 209.379899 197.590942 
L 211.520303 198.024648 
L 213.660707 198.456045 
L 215.801111 198.884155 
L 217.941515 199.309824 
L 220.081919 199.733309 
L 222.222323 200.154457 
L 224.362727 200.572847 
L 226.503131 200.989301 
L 228.643535 201.403977 
L 230.783939 201.815401 
L 232.924343 202.22442 
L 235.064747 202.63094 
L 237.205152 203.034704 
L 239.345556 203.435418 
L 241.48596 203.833182 
L 243.626364 204.228105 
L 245.766768 204.62041 
L 247.907172 205.009122 
L 250.047576 205.395166 
L 252.18798 205.77849 
L 254.328384 206.159668 
L 256.468788 206.539209 
L 258.609192 206.916455 
L 260.749596 207.291642 
L 262.89 207.664445 
z
" style="fill:#9ecae1;"/>
   </g>
   <g id="PolyCollection_4">
    <path clip-path="url(#p38ef9cc4bb)" d="M 262.89 203.896588 
L 262.89 207.664445 
L 260.749596 207.291642 
L 258.609192 206.916455 
L 256.468788 206.539209 
L 254.328384 206.159668 
L 252.18798 205.77849 
L 250.047576 205.395166 
L 247.907172 205.009122 
L 245.766768 204.62041 
L 243.626364 204.228105 
L 241.48596 203.833182 
L 239.345556 203.435418 
L 237.205152 203.034704 
L 235.064747 202.63094 
L 232.924343 202.22442 
L 230.783939 201.815401 
L 228.643535 201.403977 
L 226.503131 200.989301 
L 224.362727 200.572847 
L 222.222323 200.154457 
L 220.081919 199.733309 
L 217.941515 199.309824 
L 215.801111 198.884155 
L 213.660707 198.456045 
L 211.520303 198.024648 
L 209.379899 197.590942 
L 207.239495 197.155678 
L 205.099091 196.718141 
L 202.958687 196.278821 
L 200.818283 195.837596 
L 198.677879 195.394247 
L 196.537475 194.949274 
L 194.397071 194.502086 
L 192.256667 194.053656 
L 190.116263 193.603751 
L 187.975859 193.152407 
L 185.835455 192.699116 
L 183.695051 192.242954 
L 181.554646 191.784959 
L 179.414242 191.324803 
L 177.273838 190.862331 
L 175.133434 190.39748 
L 172.99303 189.930626 
L 170.852626 189.461365 
L 168.712222 188.990857 
L 166.571818 188.519135 
L 164.431414 188.046014 
L 162.29101 187.571327 
L 160.150606 187.095049 
L 158.010202 186.617744 
L 155.869798 186.138142 
L 153.729394 185.656583 
L 151.58899 185.17343 
L 149.448586 184.688955 
L 147.308182 184.203531 
L 145.167778 183.717343 
L 143.027374 183.231019 
L 140.88697 182.744515 
L 138.746566 182.257586 
L 136.606162 181.770275 
L 134.465758 181.281946 
L 132.325354 180.793363 
L 130.184949 180.304123 
L 128.044545 179.814023 
L 125.904141 179.323748 
L 123.763737 178.833189 
L 121.623333 178.342124 
L 119.482929 177.850593 
L 117.342525 177.358778 
L 115.202121 176.866642 
L 113.061717 176.373918 
L 110.921313 175.88098 
L 108.780909 175.387908 
L 106.640505 174.894649 
L 104.500101 174.401391 
L 102.359697 173.908132 
L 100.219293 173.414874 
L 98.078889 172.921616 
L 95.938485 172.428357 
L 93.798081 171.935099 
L 91.657677 171.441841 
L 89.517273 170.948582 
L 87.376869 170.455324 
L 85.236465 169.962066 
L 83.096061 169.468807 
L 80.955657 168.975549 
L 78.815253 168.48229 
L 76.674848 167.989032 
L 74.534444 167.495774 
L 72.39404 167.002515 
L 70.253636 166.509257 
L 68.113232 166.015999 
L 65.972828 165.52274 
L 63.832424 165.029482 
L 61.69202 164.536224 
L 59.551616 164.042965 
L 57.411212 163.549707 
L 55.270808 163.056448 
L 53.130404 162.56319 
L 50.99 162.069932 
L 50.99 158.299261 
L 50.99 158.299261 
L 53.130404 158.79252 
L 55.270808 159.285778 
L 57.411212 159.779036 
L 59.551616 160.272295 
L 61.69202 160.765553 
L 63.832424 161.258811 
L 65.972828 161.75207 
L 68.113232 162.245328 
L 70.253636 162.738587 
L 72.39404 163.231845 
L 74.534444 163.725103 
L 76.674848 164.218362 
L 78.815253 164.71162 
L 80.955657 165.204878 
L 83.096061 165.698137 
L 85.236465 166.191395 
L 87.376869 166.684653 
L 89.517273 167.177912 
L 91.657677 167.67117 
L 93.798081 168.164429 
L 95.938485 168.657687 
L 98.078889 169.150945 
L 100.219293 169.644204 
L 102.359697 170.137462 
L 104.500101 170.63072 
L 106.640505 171.123979 
L 108.780909 171.617237 
L 110.921313 172.11031 
L 113.061717 172.603247 
L 115.202121 173.095972 
L 117.342525 173.588108 
L 119.482929 174.079923 
L 121.623333 174.571453 
L 123.763737 175.062518 
L 125.904141 175.553077 
L 128.044545 176.043353 
L 130.184949 176.533452 
L 132.325354 177.022693 
L 134.465758 177.511275 
L 136.606162 177.999605 
L 138.746566 178.486916 
L 140.88697 178.973845 
L 143.027374 179.460349 
L 145.167778 179.946673 
L 147.308182 180.43286 
L 149.448586 180.918284 
L 151.58899 181.402759 
L 153.729394 181.885912 
L 155.869798 182.367472 
L 158.010202 182.847073 
L 160.150606 183.324379 
L 162.29101 183.800657 
L 164.431414 184.275344 
L 166.571818 184.748464 
L 168.712222 185.220187 
L 170.852626 185.690695 
L 172.99303 186.159955 
L 175.133434 186.626809 
L 177.273838 187.09166 
L 179.414242 187.554132 
L 181.554646 188.014289 
L 183.695051 188.472284 
L 185.835455 188.928445 
L 187.975859 189.381736 
L 190.116263 189.833081 
L 192.256667 190.282986 
L 194.397071 190.731415 
L 196.537475 191.178604 
L 198.677879 191.623576 
L 200.818283 192.066926 
L 202.958687 192.50815 
L 205.099091 192.947471 
L 207.239495 193.385144 
L 209.379899 193.820608 
L 211.520303 194.254315 
L 213.660707 194.685712 
L 215.801111 195.113821 
L 217.941515 195.539643 
L 220.081919 195.96332 
L 222.222323 196.38451 
L 224.362727 196.8029 
L 226.503131 197.219353 
L 228.643535 197.634029 
L 230.783939 198.045454 
L 232.924343 198.454473 
L 235.064747 198.861005 
L 237.205152 199.26496 
L 239.345556 199.665675 
L 241.48596 200.063439 
L 243.626364 200.458448 
L 245.766768 200.850897 
L 247.907172 201.23961 
L 250.047576 201.625827 
L 252.18798 202.009482 
L 254.328384 202.390959 
L 256.468788 202.770647 
L 258.609192 203.148173 
L 260.749596 203.52349 
L 262.89 203.896588 
z
" style="fill:#c6dbef;"/>
   </g>
   <g id="PolyCollection_5">
    <path clip-path="url(#p38ef9cc4bb)" d="M 262.89 189.975691 
L 262.89 203.896588 
L 260.749596 203.52349 
L 258.609192 203.148173 
L 256.468788 202.770647 
L 254.328384 202.390959 
L 252.18798 202.009482 
L 250.047576 201.625827 
L 247.907172 201.23961 
L 245.766768 200.850897 
L 243.626364 200.458448 
L 241.48596 200.063439 
L 239.345556 199.665675 
L 237.205152 199.26496 
L 235.064747 198.861005 
L 232.924343 198.454473 
L 230.783939 198.045454 
L 228.643535 197.634029 
L 226.503131 197.219353 
L 224.362727 196.8029 
L 222.222323 196.38451 
L 220.081919 195.96332 
L 217.941515 195.539643 
L 215.801111 195.113821 
L 213.660707 194.685712 
L 211.520303 194.254315 
L 209.379899 193.820608 
L 207.239495 193.385144 
L 205.099091 192.947471 
L 202.958687 192.50815 
L 200.818283 192.066926 
L 198.677879 191.623576 
L 196.537475 191.178604 
L 194.397071 190.731415 
L 192.256667 190.282986 
L 190.116263 189.833081 
L 187.975859 189.381736 
L 185.835455 188.928445 
L 183.695051 188.472284 
L 181.554646 188.014289 
L 179.414242 187.554132 
L 177.273838 187.09166 
L 175.133434 186.626809 
L 172.99303 186.159955 
L 170.852626 185.690695 
L 168.712222 185.220187 
L 166.571818 184.748464 
L 164.431414 184.275344 
L 162.29101 183.800657 
L 160.150606 183.324379 
L 158.010202 182.847073 
L 155.869798 182.367472 
L 153.729394 181.885912 
L 151.58899 181.402759 
L 149.448586 180.918284 
L 147.308182 180.43286 
L 145.167778 179.946673 
L 143.027374 179.460349 
L 140.88697 178.973845 
L 138.746566 178.486916 
L 136.606162 177.999605 
L 134.465758 177.511275 
L 132.325354 177.022693 
L 130.184949 176.533452 
L 128.044545 176.043353 
L 125.904141 175.553077 
L 123.763737 175.062518 
L 121.623333 174.571453 
L 119.482929 174.079923 
L 117.342525 173.588108 
L 115.202121 173.095972 
L 113.061717 172.603247 
L 110.921313 172.11031 
L 108.780909 171.617237 
L 106.640505 171.123979 
L 104.500101 170.63072 
L 102.359697 170.137462 
L 100.219293 169.644204 
L 98.078889 169.150945 
L 95.938485 168.657687 
L 93.798081 168.164429 
L 91.657677 167.67117 
L 89.517273 167.177912 
L 87.376869 166.684653 
L 85.236465 166.191395 
L 83.096061 165.698137 
L 80.955657 165.204878 
L 78.815253 164.71162 
L 76.674848 164.218362 
L 74.534444 163.725103 
L 72.39404 163.231845 
L 70.253636 162.738587 
L 68.113232 162.245328 
L 65.972828 161.75207 
L 63.832424 161.258811 
L 61.69202 160.765553 
L 59.551616 160.272295 
L 57.411212 159.779036 
L 55.270808 159.285778 
L 53.130404 158.79252 
L 50.99 158.299261 
L 50.99 144.362697 
L 50.99 144.362697 
L 53.130404 144.855955 
L 55.270808 145.349213 
L 57.411212 145.842472 
L 59.551616 146.33573 
L 61.69202 146.828988 
L 63.832424 147.322247 
L 65.972828 147.815505 
L 68.113232 148.308764 
L 70.253636 148.802022 
L 72.39404 149.29528 
L 74.534444 149.788539 
L 76.674848 150.281797 
L 78.815253 150.775055 
L 80.955657 151.268314 
L 83.096061 151.761572 
L 85.236465 152.25483 
L 87.376869 152.748089 
L 89.517273 153.241347 
L 91.657677 153.734606 
L 93.798081 154.227864 
L 95.938485 154.721122 
L 98.078889 155.214381 
L 100.219293 155.707639 
L 102.359697 156.200897 
L 104.500101 156.694156 
L 106.640505 157.187414 
L 108.780909 157.680672 
L 110.921313 158.173745 
L 113.061717 158.666683 
L 115.202121 159.159407 
L 117.342525 159.651543 
L 119.482929 160.143358 
L 121.623333 160.634889 
L 123.763737 161.125954 
L 125.904141 161.616512 
L 128.044545 162.106788 
L 130.184949 162.596888 
L 132.325354 163.086128 
L 134.465758 163.574711 
L 136.606162 164.06304 
L 138.746566 164.550351 
L 140.88697 165.03728 
L 143.027374 165.523784 
L 145.167778 166.010108 
L 147.308182 166.496295 
L 149.448586 166.98172 
L 151.58899 167.466194 
L 153.729394 167.949347 
L 155.869798 168.430907 
L 158.010202 168.910509 
L 160.150606 169.387814 
L 162.29101 169.864092 
L 164.431414 170.338779 
L 166.571818 170.8119 
L 168.712222 171.283622 
L 170.852626 171.75413 
L 172.99303 172.22339 
L 175.133434 172.690244 
L 177.273838 173.155095 
L 179.414242 173.617568 
L 181.554646 174.077724 
L 183.695051 174.535719 
L 185.835455 174.991881 
L 187.975859 175.445172 
L 190.116263 175.896608 
L 192.256667 176.346729 
L 194.397071 176.795375 
L 196.537475 177.242833 
L 198.677879 177.688215 
L 200.818283 178.131974 
L 202.958687 178.573608 
L 205.099091 179.013338 
L 207.239495 179.451285 
L 209.379899 179.886941 
L 211.520303 180.320841 
L 213.660707 180.752431 
L 215.801111 181.180733 
L 217.941515 181.606595 
L 220.081919 182.030272 
L 222.222323 182.451535 
L 224.362727 182.870165 
L 226.503131 183.286858 
L 228.643535 183.701894 
L 230.783939 184.113754 
L 232.924343 184.523357 
L 235.064747 184.930485 
L 237.205152 185.33501 
L 239.345556 185.736462 
L 241.48596 186.135058 
L 243.626364 186.53102 
L 245.766768 186.924442 
L 247.907172 187.314127 
L 250.047576 187.701143 
L 252.18798 188.085537 
L 254.328384 188.467803 
L 256.468788 188.848267 
L 258.609192 189.226272 
L 260.749596 189.602193 
L 262.89 189.975691 
z
" style="fill:#e6550d;"/>
   </g>
   <g id="PolyCollection_6">
    <path clip-path="url(#p38ef9cc4bb)" d="M 262.89 169.418524 
L 262.89 189.975691 
L 260.749596 189.602193 
L 258.609192 189.226272 
L 256.468788 188.848267 
L 254.328384 188.467803 
L 252.18798 188.085537 
L 250.047576 187.701143 
L 247.907172 187.314127 
L 245.766768 186.924442 
L 243.626364 186.53102 
L 241.48596 186.135058 
L 239.345556 185.736462 
L 237.205152 185.33501 
L 235.064747 184.930485 
L 232.924343 184.523357 
L 230.783939 184.113754 
L 228.643535 183.701894 
L 226.503131 183.286858 
L 224.362727 182.870165 
L 222.222323 182.451535 
L 220.081919 182.030272 
L 217.941515 181.606595 
L 215.801111 181.180733 
L 213.660707 180.752431 
L 211.520303 180.320841 
L 209.379899 179.886941 
L 207.239495 179.451285 
L 205.099091 179.013338 
L 202.958687 178.573608 
L 200.818283 178.131974 
L 198.677879 177.688215 
L 196.537475 177.242833 
L 194.397071 176.795375 
L 192.256667 176.346729 
L 190.116263 175.896608 
L 187.975859 175.445172 
L 185.835455 174.991881 
L 183.695051 174.535719 
L 181.554646 174.077724 
L 179.414242 173.617568 
L 177.273838 173.155095 
L 175.133434 172.690244 
L 172.99303 172.22339 
L 170.852626 171.75413 
L 168.712222 171.283622 
L 166.571818 170.8119 
L 164.431414 170.338779 
L 162.29101 169.864092 
L 160.150606 169.387814 
L 158.010202 168.910509 
L 155.869798 168.430907 
L 153.729394 167.949347 
L 151.58899 167.466194 
L 149.448586 166.98172 
L 147.308182 166.496295 
L 145.167778 166.010108 
L 143.027374 165.523784 
L 140.88697 165.03728 
L 138.746566 164.550351 
L 136.606162 164.06304 
L 134.465758 163.574711 
L 132.325354 163.086128 
L 130.184949 162.596888 
L 128.044545 162.106788 
L 125.904141 161.616512 
L 123.763737 161.125954 
L 121.623333 160.634889 
L 119.482929 160.143358 
L 117.342525 159.651543 
L 115.202121 159.159407 
L 113.061717 158.666683 
L 110.921313 158.173745 
L 108.780909 157.680672 
L 106.640505 157.187414 
L 104.500101 156.694156 
L 102.359697 156.200897 
L 100.219293 155.707639 
L 98.078889 155.214381 
L 95.938485 154.721122 
L 93.798081 154.227864 
L 91.657677 153.734606 
L 89.517273 153.241347 
L 87.376869 152.748089 
L 85.236465 152.25483 
L 83.096061 151.761572 
L 80.955657 151.268314 
L 78.815253 150.775055 
L 76.674848 150.281797 
L 74.534444 149.788539 
L 72.39404 149.29528 
L 70.253636 148.802022 
L 68.113232 148.308764 
L 65.972828 147.815505 
L 63.832424 147.322247 
L 61.69202 146.828988 
L 59.551616 146.33573 
L 57.411212 145.842472 
L 55.270808 145.349213 
L 53.130404 144.855955 
L 50.99 144.362697 
L 50.99 123.76459 
L 50.99 123.76459 
L 53.130404 124.257848 
L 55.270808 124.751107 
L 57.411212 125.244365 
L 59.551616 125.737623 
L 61.69202 126.230882 
L 63.832424 126.72414 
L 65.972828 127.217399 
L 68.113232 127.710657 
L 70.253636 128.203915 
L 72.39404 128.697174 
L 74.534444 129.190432 
L 76.674848 129.68369 
L 78.815253 130.176949 
L 80.955657 130.670207 
L 83.096061 131.163465 
L 85.236465 131.656724 
L 87.376869 132.149982 
L 89.517273 132.643241 
L 91.657677 133.136499 
L 93.798081 133.629757 
L 95.938485 134.123016 
L 98.078889 134.616274 
L 100.219293 135.109532 
L 102.359697 135.602791 
L 104.500101 136.096049 
L 106.640505 136.589307 
L 108.780909 137.082566 
L 110.921313 137.575639 
L 113.061717 138.068576 
L 115.202121 138.561301 
L 117.342525 139.053437 
L 119.482929 139.545251 
L 121.623333 140.036782 
L 123.763737 140.527847 
L 125.904141 141.018406 
L 128.044545 141.508682 
L 130.184949 141.998781 
L 132.325354 142.488022 
L 134.465758 142.976604 
L 136.606162 143.464933 
L 138.746566 143.952245 
L 140.88697 144.439173 
L 143.027374 144.925677 
L 145.167778 145.412002 
L 147.308182 145.898189 
L 149.448586 146.383613 
L 151.58899 146.868088 
L 153.729394 147.351241 
L 155.869798 147.8328 
L 158.010202 148.312402 
L 160.150606 148.789708 
L 162.29101 149.265986 
L 164.431414 149.740673 
L 166.571818 150.213916 
L 168.712222 150.685908 
L 170.852626 151.156825 
L 172.99303 151.626495 
L 175.133434 152.093758 
L 177.273838 152.559019 
L 179.414242 153.0219 
L 181.554646 153.482466 
L 183.695051 153.940871 
L 185.835455 154.397442 
L 187.975859 154.851142 
L 190.116263 155.302897 
L 192.256667 155.753211 
L 194.397071 156.202057 
L 196.537475 156.649834 
L 198.677879 157.095395 
L 200.818283 157.539446 
L 202.958687 157.981546 
L 205.099091 158.421861 
L 207.239495 158.860393 
L 209.379899 159.296634 
L 211.520303 159.731119 
L 213.660707 160.163578 
L 215.801111 160.592852 
L 217.941515 161.019686 
L 220.081919 161.4447 
L 222.222323 161.867375 
L 224.362727 162.287335 
L 226.503131 162.705358 
L 228.643535 163.121688 
L 230.783939 163.534908 
L 232.924343 163.945856 
L 235.064747 164.354443 
L 237.205152 164.76027 
L 239.345556 165.163071 
L 241.48596 165.563056 
L 243.626364 165.960201 
L 245.766768 166.354658 
L 247.907172 166.745479 
L 250.047576 167.133705 
L 252.18798 167.519539 
L 254.328384 167.903434 
L 256.468788 168.285769 
L 258.609192 168.665702 
L 260.749596 169.043372 
L 262.89 169.418524 
z
" style="fill:#fd8d3c;"/>
   </g>
   <g id="PolyCollection_7">
    <path clip-path="url(#p38ef9cc4bb)" d="M 262.89 169.418524 
L 262.89 169.418524 
L 260.749596 169.043372 
L 258.609192 168.665702 
L 256.468788 168.285769 
L 254.328384 167.903434 
L 252.18798 167.519539 
L 250.047576 167.133705 
L 247.907172 166.745479 
L 245.766768 166.354658 
L 243.626364 165.960201 
L 241.48596 165.563056 
L 239.345556 165.163071 
L 237.205152 164.76027 
L 235.064747 164.354443 
L 232.924343 163.945856 
L 230.783939 163.534908 
L 228.643535 163.121688 
L 226.503131 162.705358 
L 224.362727 162.287335 
L 222.222323 161.867375 
L 220.081919 161.4447 
L 217.941515 161.019686 
L 215.801111 160.592852 
L 213.660707 160.163578 
L 211.520303 159.731119 
L 209.379899 159.296634 
L 207.239495 158.860393 
L 205.099091 158.421861 
L 202.958687 157.981546 
L 200.818283 157.539446 
L 198.677879 157.095395 
L 196.537475 156.649834 
L 194.397071 156.202057 
L 192.256667 155.753211 
L 190.116263 155.302897 
L 187.975859 154.851142 
L 185.835455 154.397442 
L 183.695051 153.940871 
L 181.554646 153.482466 
L 179.414242 153.0219 
L 177.273838 152.559019 
L 175.133434 152.093758 
L 172.99303 151.626495 
L 170.852626 151.156825 
L 168.712222 150.685908 
L 166.571818 150.213916 
L 164.431414 149.740673 
L 162.29101 149.265986 
L 160.150606 148.789708 
L 158.010202 148.312402 
L 155.869798 147.8328 
L 153.729394 147.351241 
L 151.58899 146.868088 
L 149.448586 146.383613 
L 147.308182 145.898189 
L 145.167778 145.412002 
L 143.027374 144.925677 
L 140.88697 144.439173 
L 138.746566 143.952245 
L 136.606162 143.464933 
L 134.465758 142.976604 
L 132.325354 142.488022 
L 130.184949 141.998781 
L 128.044545 141.508682 
L 125.904141 141.018406 
L 123.763737 140.527847 
L 121.623333 140.036782 
L 119.482929 139.545251 
L 117.342525 139.053437 
L 115.202121 138.561301 
L 113.061717 138.068576 
L 110.921313 137.575639 
L 108.780909 137.082566 
L 106.640505 136.589307 
L 104.500101 136.096049 
L 102.359697 135.602791 
L 100.219293 135.109532 
L 98.078889 134.616274 
L 95.938485 134.123016 
L 93.798081 133.629757 
L 91.657677 133.136499 
L 89.517273 132.643241 
L 87.376869 132.149982 
L 85.236465 131.656724 
L 83.096061 131.163465 
L 80.955657 130.670207 
L 78.815253 130.176949 
L 76.674848 129.68369 
L 74.534444 129.190432 
L 72.39404 128.697174 
L 70.253636 128.203915 
L 68.113232 127.710657 
L 65.972828 127.217399 
L 63.832424 126.72414 
L 61.69202 126.230882 
L 59.551616 125.737623 
L 57.411212 125.244365 
L 55.270808 124.751107 
L 53.130404 124.257848 
L 50.99 123.76459 
L 50.99 113.125937 
L 50.99 113.125937 
L 53.130404 113.726656 
L 55.270808 114.327376 
L 57.411212 114.928095 
L 59.551616 115.528815 
L 61.69202 116.129534 
L 63.832424 116.730254 
L 65.972828 117.330973 
L 68.113232 117.931693 
L 70.253636 118.532412 
L 72.39404 119.133132 
L 74.534444 119.733851 
L 76.674848 120.334571 
L 78.815253 120.93529 
L 80.955657 121.53601 
L 83.096061 122.136729 
L 85.236465 122.737449 
L 87.376869 123.338168 
L 89.517273 123.938888 
L 91.657677 124.539607 
L 93.798081 125.140327 
L 95.938485 125.741046 
L 98.078889 126.341766 
L 100.219293 126.942485 
L 102.359697 127.543205 
L 104.500101 128.143924 
L 106.640505 128.744644 
L 108.780909 129.345363 
L 110.921313 129.945897 
L 113.061717 130.546296 
L 115.202121 131.146482 
L 117.342525 131.746079 
L 119.482929 132.345355 
L 121.623333 132.944347 
L 123.763737 133.542873 
L 125.904141 134.140893 
L 128.044545 134.738629 
L 130.184949 135.33619 
L 132.325354 135.932892 
L 134.465758 136.528936 
L 136.606162 137.124726 
L 138.746566 137.719498 
L 140.88697 138.313888 
L 143.027374 138.907853 
L 145.167778 139.501639 
L 147.308182 140.095287 
L 149.448586 140.688172 
L 151.58899 141.280108 
L 153.729394 141.870722 
L 155.869798 142.459743 
L 158.010202 143.046806 
L 160.150606 143.6317 
L 162.29101 144.215614 
L 164.431414 144.797937 
L 166.571818 145.378816 
L 168.712222 145.958392 
L 170.852626 146.536753 
L 172.99303 147.113866 
L 175.133434 147.688573 
L 177.273838 148.261277 
L 179.414242 148.831602 
L 181.554646 149.399612 
L 183.695051 149.96546 
L 185.835455 150.529525 
L 187.975859 151.090827 
L 190.116263 151.650183 
L 192.256667 152.208168 
L 194.397071 152.76482 
L 196.537475 153.320272 
L 198.677879 153.873618 
L 200.818283 154.42534 
L 202.958687 154.974937 
L 205.099091 155.522731 
L 207.239495 156.068838 
L 209.379899 156.612751 
L 211.520303 157.155099 
L 213.660707 157.695341 
L 215.801111 158.232296 
L 217.941515 158.76686 
L 220.081919 159.29937 
L 222.222323 159.829424 
L 224.362727 160.356839 
L 226.503131 160.882317 
L 228.643535 161.406112 
L 230.783939 161.926805 
L 232.924343 162.44525 
L 235.064747 162.961209 
L 237.205152 163.474521 
L 239.345556 163.984591 
L 241.48596 164.491711 
L 243.626364 164.99599 
L 245.766768 165.497674 
L 247.907172 165.995716 
L 250.047576 166.491333 
L 252.18798 166.984524 
L 254.328384 167.475557 
L 256.468788 167.964861 
L 258.609192 168.451808 
L 260.749596 168.936425 
L 262.89 169.418524 
z
" style="fill:#fdae6b;"/>
   </g>
   <g id="PolyCollection_8">
    <path clip-path="url(#p38ef9cc4bb)" d="M 262.89 94.711211 
L 262.89 169.418524 
L 260.749596 168.936425 
L 258.609192 168.451808 
L 256.468788 167.964861 
L 254.328384 167.475557 
L 252.18798 166.984524 
L 250.047576 166.491333 
L 247.907172 165.995716 
L 245.766768 165.497674 
L 243.626364 164.99599 
L 241.48596 164.491711 
L 239.345556 163.984591 
L 237.205152 163.474521 
L 235.064747 162.961209 
L 232.924343 162.44525 
L 230.783939 161.926805 
L 228.643535 161.406112 
L 226.503131 160.882317 
L 224.362727 160.356839 
L 222.222323 159.829424 
L 220.081919 159.29937 
L 217.941515 158.76686 
L 215.801111 158.232296 
L 213.660707 157.695341 
L 211.520303 157.155099 
L 209.379899 156.612751 
L 207.239495 156.068838 
L 205.099091 155.522731 
L 202.958687 154.974937 
L 200.818283 154.42534 
L 198.677879 153.873618 
L 196.537475 153.320272 
L 194.397071 152.76482 
L 192.256667 152.208168 
L 190.116263 151.650183 
L 187.975859 151.090827 
L 185.835455 150.529525 
L 183.695051 149.96546 
L 181.554646 149.399612 
L 179.414242 148.831602 
L 177.273838 148.261277 
L 175.133434 147.688573 
L 172.99303 147.113866 
L 170.852626 146.536753 
L 168.712222 145.958392 
L 166.571818 145.378816 
L 164.431414 144.797937 
L 162.29101 144.215614 
L 160.150606 143.6317 
L 158.010202 143.046806 
L 155.869798 142.459743 
L 153.729394 141.870722 
L 151.58899 141.280108 
L 149.448586 140.688172 
L 147.308182 140.095287 
L 145.167778 139.501639 
L 143.027374 138.907853 
L 140.88697 138.313888 
L 138.746566 137.719498 
L 136.606162 137.124726 
L 134.465758 136.528936 
L 132.325354 135.932892 
L 130.184949 135.33619 
L 128.044545 134.738629 
L 125.904141 134.140893 
L 123.763737 133.542873 
L 121.623333 132.944347 
L 119.482929 132.345355 
L 117.342525 131.746079 
L 115.202121 131.146482 
L 113.061717 130.546296 
L 110.921313 129.945897 
L 108.780909 129.345363 
L 106.640505 128.744644 
L 104.500101 128.143924 
L 102.359697 127.543205 
L 100.219293 126.942485 
L 98.078889 126.341766 
L 95.938485 125.741046 
L 93.798081 125.140327 
L 91.657677 124.539607 
L 89.517273 123.938888 
L 87.376869 123.338168 
L 85.236465 122.737449 
L 83.096061 122.136729 
L 80.955657 121.53601 
L 78.815253 120.93529 
L 76.674848 120.334571 
L 74.534444 119.733851 
L 72.39404 119.133132 
L 70.253636 118.532412 
L 68.113232 117.931693 
L 65.972828 117.330973 
L 63.832424 116.730254 
L 61.69202 116.129534 
L 59.551616 115.528815 
L 57.411212 114.928095 
L 55.270808 114.327376 
L 53.130404 113.726656 
L 50.99 113.125937 
L 50.99 38.418624 
L 50.99 38.418624 
L 53.130404 39.019344 
L 55.270808 39.620063 
L 57.411212 40.220783 
L 59.551616 40.821502 
L 61.69202 41.422222 
L 63.832424 42.022941 
L 65.972828 42.623661 
L 68.113232 43.22438 
L 70.253636 43.8251 
L 72.39404 44.425819 
L 74.534444 45.026539 
L 76.674848 45.627258 
L 78.815253 46.227978 
L 80.955657 46.828697 
L 83.096061 47.429417 
L 85.236465 48.030136 
L 87.376869 48.630856 
L 89.517273 49.231575 
L 91.657677 49.832295 
L 93.798081 50.433014 
L 95.938485 51.033734 
L 98.078889 51.634453 
L 100.219293 52.235173 
L 102.359697 52.835892 
L 104.500101 53.436612 
L 106.640505 54.037331 
L 108.780909 54.638051 
L 110.921313 55.238585 
L 113.061717 55.838983 
L 115.202121 56.439169 
L 117.342525 57.038766 
L 119.482929 57.638042 
L 121.623333 58.237034 
L 123.763737 58.83556 
L 125.904141 59.43358 
L 128.044545 60.031317 
L 130.184949 60.628877 
L 132.325354 61.225579 
L 134.465758 61.821623 
L 136.606162 62.417413 
L 138.746566 63.012186 
L 140.88697 63.606576 
L 143.027374 64.200541 
L 145.167778 64.794326 
L 147.308182 65.387975 
L 149.448586 65.98086 
L 151.58899 66.572796 
L 153.729394 67.16341 
L 155.869798 67.752431 
L 158.010202 68.339493 
L 160.150606 68.924387 
L 162.29101 69.508301 
L 164.431414 70.090625 
L 166.571818 70.671504 
L 168.712222 71.251079 
L 170.852626 71.82944 
L 172.99303 72.406554 
L 175.133434 72.981261 
L 177.273838 73.553965 
L 179.414242 74.12429 
L 181.554646 74.692299 
L 183.695051 75.258147 
L 185.835455 75.822213 
L 187.975859 76.383515 
L 190.116263 76.942871 
L 192.256667 77.500855 
L 194.397071 78.057508 
L 196.537475 78.612959 
L 198.677879 79.166305 
L 200.818283 79.718028 
L 202.958687 80.267625 
L 205.099091 80.815419 
L 207.239495 81.361525 
L 209.379899 81.905439 
L 211.520303 82.447786 
L 213.660707 82.988028 
L 215.801111 83.524983 
L 217.941515 84.059548 
L 220.081919 84.592057 
L 222.222323 85.122112 
L 224.362727 85.649526 
L 226.503131 86.175004 
L 228.643535 86.6988 
L 230.783939 87.219493 
L 232.924343 87.737938 
L 235.064747 88.253897 
L 237.205152 88.767208 
L 239.345556 89.277278 
L 241.48596 89.784398 
L 243.626364 90.288678 
L 245.766768 90.790362 
L 247.907172 91.288404 
L 250.047576 91.78402 
L 252.18798 92.277211 
L 254.328384 92.768245 
L 256.468788 93.257549 
L 258.609192 93.744496 
L 260.749596 94.229112 
L 262.89 94.711211 
z
" style="fill:#fdd0a2;"/>
   </g>
   <g id="PolyCollection_9">
    <path clip-path="url(#p38ef9cc4bb)" d="M 262.89 94.711211 
L 262.89 94.711211 
L 260.749596 94.229112 
L 258.609192 93.744496 
L 256.468788 93.257549 
L 254.328384 92.768245 
L 252.18798 92.277211 
L 250.047576 91.78402 
L 247.907172 91.288404 
L 245.766768 90.790362 
L 243.626364 90.288678 
L 241.48596 89.784398 
L 239.345556 89.277278 
L 237.205152 88.767208 
L 235.064747 88.253897 
L 232.924343 87.737938 
L 230.783939 87.219493 
L 228.643535 86.6988 
L 226.503131 86.175004 
L 224.362727 85.649526 
L 222.222323 85.122112 
L 220.081919 84.592057 
L 217.941515 84.059548 
L 215.801111 83.524983 
L 213.660707 82.988028 
L 211.520303 82.447786 
L 209.379899 81.905439 
L 207.239495 81.361525 
L 205.099091 80.815419 
L 202.958687 80.267625 
L 200.818283 79.718028 
L 198.677879 79.166305 
L 196.537475 78.612959 
L 194.397071 78.057508 
L 192.256667 77.500855 
L 190.116263 76.942871 
L 187.975859 76.383515 
L 185.835455 75.822213 
L 183.695051 75.258147 
L 181.554646 74.692299 
L 179.414242 74.12429 
L 177.273838 73.553965 
L 175.133434 72.981261 
L 172.99303 72.406554 
L 170.852626 71.82944 
L 168.712222 71.251079 
L 166.571818 70.671504 
L 164.431414 70.090625 
L 162.29101 69.508301 
L 160.150606 68.924387 
L 158.010202 68.339493 
L 155.869798 67.752431 
L 153.729394 67.16341 
L 151.58899 66.572796 
L 149.448586 65.98086 
L 147.308182 65.387975 
L 145.167778 64.794326 
L 143.027374 64.200541 
L 140.88697 63.606576 
L 138.746566 63.012186 
L 136.606162 62.417413 
L 134.465758 61.821623 
L 132.325354 61.225579 
L 130.184949 60.628877 
L 128.044545 60.031317 
L 125.904141 59.43358 
L 123.763737 58.83556 
L 121.623333 58.237034 
L 119.482929 57.638042 
L 117.342525 57.038766 
L 115.202121 56.439169 
L 113.061717 55.838983 
L 110.921313 55.238585 
L 108.780909 54.638051 
L 106.640505 54.037331 
L 104.500101 53.436612 
L 102.359697 52.835892 
L 100.219293 52.235173 
L 98.078889 51.634453 
L 95.938485 51.033734 
L 93.798081 50.433014 
L 91.657677 49.832295 
L 89.517273 49.231575 
L 87.376869 48.630856 
L 85.236465 48.030136 
L 83.096061 47.429417 
L 80.955657 46.828697 
L 78.815253 46.227978 
L 76.674848 45.627258 
L 74.534444 45.026539 
L 72.39404 44.425819 
L 70.253636 43.8251 
L 68.113232 43.22438 
L 65.972828 42.623661 
L 63.832424 42.022941 
L 61.69202 41.422222 
L 59.551616 40.821502 
L 57.411212 40.220783 
L 55.270808 39.620063 
L 53.130404 39.019344 
L 50.99 38.418624 
L 50.99 26.75875 
L 50.99 26.75875 
L 53.130404 27.477246 
L 55.270808 28.195742 
L 57.411212 28.914238 
L 59.551616 29.632734 
L 61.69202 30.35123 
L 63.832424 31.069726 
L 65.972828 31.788222 
L 68.113232 32.506718 
L 70.253636 33.225214 
L 72.39404 33.94371 
L 74.534444 34.662206 
L 76.674848 35.380702 
L 78.815253 36.099198 
L 80.955657 36.817694 
L 83.096061 37.53619 
L 85.236465 38.254686 
L 87.376869 38.973183 
L 89.517273 39.691679 
L 91.657677 40.410175 
L 93.798081 41.128671 
L 95.938485 41.847167 
L 98.078889 42.565663 
L 100.219293 43.284159 
L 102.359697 44.002655 
L 104.500101 44.721151 
L 106.640505 45.439647 
L 108.780909 46.158143 
L 110.921313 46.876453 
L 113.061717 47.594628 
L 115.202121 48.31259 
L 117.342525 49.029964 
L 119.482929 49.747016 
L 121.623333 50.463785 
L 123.763737 51.180088 
L 125.904141 51.895884 
L 128.044545 52.611397 
L 130.184949 53.326734 
L 132.325354 54.041213 
L 134.465758 54.755033 
L 136.606162 55.4686 
L 138.746566 56.181149 
L 140.88697 56.893315 
L 143.027374 57.605057 
L 145.167778 58.316618 
L 147.308182 59.028043 
L 149.448586 59.738705 
L 151.58899 60.448418 
L 153.729394 61.156808 
L 155.869798 61.863606 
L 158.010202 62.568445 
L 160.150606 63.271115 
L 162.29101 63.972806 
L 164.431414 64.672905 
L 166.571818 65.371561 
L 168.712222 66.068913 
L 170.852626 66.765051 
L 172.99303 67.459941 
L 175.133434 68.152424 
L 177.273838 68.842905 
L 179.414242 69.531006 
L 181.554646 70.216792 
L 183.695051 70.900417 
L 185.835455 71.582259 
L 187.975859 72.261337 
L 190.116263 72.93847 
L 192.256667 73.614231 
L 194.397071 74.28866 
L 196.537475 74.961888 
L 198.677879 75.63301 
L 200.818283 76.302509 
L 202.958687 76.969883 
L 205.099091 77.635453 
L 207.239495 78.299336 
L 209.379899 78.961026 
L 211.520303 79.62115 
L 213.660707 80.279169 
L 215.801111 80.9339 
L 217.941515 81.586241 
L 220.081919 82.236527 
L 222.222323 82.884358 
L 224.362727 83.529549 
L 226.503131 84.172804 
L 228.643535 84.814375 
L 230.783939 85.452845 
L 232.924343 86.089067 
L 235.064747 86.722802 
L 237.205152 87.35389 
L 239.345556 87.981737 
L 241.48596 88.606633 
L 243.626364 89.228689 
L 245.766768 89.84815 
L 247.907172 90.463968 
L 250.047576 91.077361 
L 252.18798 91.688329 
L 254.328384 92.297139 
L 256.468788 92.904219 
L 258.609192 93.508943 
L 260.749596 94.111336 
L 262.89 94.711211 
z
" style="fill:#31a354;"/>
   </g>
   <g id="PolyCollection_10">
    <path clip-path="url(#p38ef9cc4bb)" d="M 262.89 63.491816 
L 262.89 94.711211 
L 260.749596 94.111336 
L 258.609192 93.508943 
L 256.468788 92.904219 
L 254.328384 92.297139 
L 252.18798 91.688329 
L 250.047576 91.077361 
L 247.907172 90.463968 
L 245.766768 89.84815 
L 243.626364 89.228689 
L 241.48596 88.606633 
L 239.345556 87.981737 
L 237.205152 87.35389 
L 235.064747 86.722802 
L 232.924343 86.089067 
L 230.783939 85.452845 
L 228.643535 84.814375 
L 226.503131 84.172804 
L 224.362727 83.529549 
L 222.222323 82.884358 
L 220.081919 82.236527 
L 217.941515 81.586241 
L 215.801111 80.9339 
L 213.660707 80.279169 
L 211.520303 79.62115 
L 209.379899 78.961026 
L 207.239495 78.299336 
L 205.099091 77.635453 
L 202.958687 76.969883 
L 200.818283 76.302509 
L 198.677879 75.63301 
L 196.537475 74.961888 
L 194.397071 74.28866 
L 192.256667 73.614231 
L 190.116263 72.93847 
L 187.975859 72.261337 
L 185.835455 71.582259 
L 183.695051 70.900417 
L 181.554646 70.216792 
L 179.414242 69.531006 
L 177.273838 68.842905 
L 175.133434 68.152424 
L 172.99303 67.459941 
L 170.852626 66.765051 
L 168.712222 66.068913 
L 166.571818 65.371561 
L 164.431414 64.672905 
L 162.29101 63.972806 
L 160.150606 63.271115 
L 158.010202 62.568445 
L 155.869798 61.863606 
L 153.729394 61.156808 
L 151.58899 60.448418 
L 149.448586 59.738705 
L 147.308182 59.028043 
L 145.167778 58.316618 
L 143.027374 57.605057 
L 140.88697 56.893315 
L 138.746566 56.181149 
L 136.606162 55.4686 
L 134.465758 54.755033 
L 132.325354 54.041213 
L 130.184949 53.326734 
L 128.044545 52.611397 
L 125.904141 51.895884 
L 123.763737 51.180088 
L 121.623333 50.463785 
L 119.482929 49.747016 
L 117.342525 49.029964 
L 115.202121 48.31259 
L 113.061717 47.594628 
L 110.921313 46.876453 
L 108.780909 46.158143 
L 106.640505 45.439647 
L 104.500101 44.721151 
L 102.359697 44.002655 
L 100.219293 43.284159 
L 98.078889 42.565663 
L 95.938485 41.847167 
L 93.798081 41.128671 
L 91.657677 40.410175 
L 89.517273 39.691679 
L 87.376869 38.973183 
L 85.236465 38.254686 
L 83.096061 37.53619 
L 80.955657 36.817694 
L 78.815253 36.099198 
L 76.674848 35.380702 
L 74.534444 34.662206 
L 72.39404 33.94371 
L 70.253636 33.225214 
L 68.113232 32.506718 
L 65.972828 31.788222 
L 63.832424 31.069726 
L 61.69202 30.35123 
L 59.551616 29.632734 
L 57.411212 28.914238 
L 55.270808 28.195742 
L 53.130404 27.477246 
L 50.99 26.75875 
L 50.99 26.75875 
L 50.99 26.75875 
L 53.130404 27.129966 
L 55.270808 27.501182 
L 57.411212 27.872398 
L 59.551616 28.243614 
L 61.69202 28.61483 
L 63.832424 28.986046 
L 65.972828 29.357262 
L 68.113232 29.728478 
L 70.253636 30.099694 
L 72.39404 30.47091 
L 74.534444 30.842126 
L 76.674848 31.213342 
L 78.815253 31.584558 
L 80.955657 31.955773 
L 83.096061 32.326989 
L 85.236465 32.698205 
L 87.376869 33.069421 
L 89.517273 33.440637 
L 91.657677 33.811853 
L 93.798081 34.183069 
L 95.938485 34.554285 
L 98.078889 34.925501 
L 100.219293 35.296717 
L 102.359697 35.667933 
L 104.500101 36.039149 
L 106.640505 36.410365 
L 108.780909 36.781581 
L 110.921313 37.152797 
L 113.061717 37.524013 
L 115.202121 37.895229 
L 117.342525 38.266445 
L 119.482929 38.63766 
L 121.623333 39.008876 
L 123.763737 39.380092 
L 125.904141 39.751308 
L 128.044545 40.122524 
L 130.184949 40.49374 
L 132.325354 40.864956 
L 134.465758 41.236172 
L 136.606162 41.607388 
L 138.746566 41.978604 
L 140.88697 42.34982 
L 143.027374 42.721036 
L 145.167778 43.092252 
L 147.308182 43.463468 
L 149.448586 43.834684 
L 151.58899 44.2059 
L 153.729394 44.577116 
L 155.869798 44.948332 
L 158.010202 45.319548 
L 160.150606 45.690763 
L 162.29101 46.061979 
L 164.431414 46.433195 
L 166.571818 46.804411 
L 168.712222 47.175627 
L 170.852626 47.546843 
L 172.99303 47.918059 
L 175.133434 48.289275 
L 177.273838 48.660491 
L 179.414242 49.031707 
L 181.554646 49.402923 
L 183.695051 49.774139 
L 185.835455 50.145355 
L 187.975859 50.516571 
L 190.116263 50.887787 
L 192.256667 51.259003 
L 194.397071 51.630219 
L 196.537475 52.001435 
L 198.677879 52.37265 
L 200.818283 52.743866 
L 202.958687 53.115082 
L 205.099091 53.486298 
L 207.239495 53.857514 
L 209.379899 54.228714 
L 211.520303 54.599714 
L 213.660707 54.970713 
L 215.801111 55.341712 
L 217.941515 55.712711 
L 220.081919 56.08371 
L 222.222323 56.454558 
L 224.362727 56.825365 
L 226.503131 57.196171 
L 228.643535 57.566977 
L 230.783939 57.937784 
L 232.924343 58.30859 
L 235.064747 58.679397 
L 237.205152 59.050156 
L 239.345556 59.420723 
L 241.48596 59.791289 
L 243.626364 60.161856 
L 245.766768 60.532354 
L 247.907172 60.902707 
L 250.047576 61.273059 
L 252.18798 61.643312 
L 254.328384 62.013393 
L 256.468788 62.383309 
L 258.609192 62.753061 
L 260.749596 63.122505 
L 262.89 63.491816 
z
" style="fill:#74c476;"/>
   </g>
   <g id="PolyCollection_11">
    <path clip-path="url(#p38ef9cc4bb)" d="M 262.89 26.75875 
L 262.89 63.491816 
L 260.749596 63.122505 
L 258.609192 62.753061 
L 256.468788 62.383309 
L 254.328384 62.013393 
L 252.18798 61.643312 
L 250.047576 61.273059 
L 247.907172 60.902707 
L 245.766768 60.532354 
L 243.626364 60.161856 
L 241.48596 59.791289 
L 239.345556 59.420723 
L 237.205152 59.050156 
L 235.064747 58.679397 
L 232.924343 58.30859 
L 230.783939 57.937784 
L 228.643535 57.566977 
L 226.503131 57.196171 
L 224.362727 56.825365 
L 222.222323 56.454558 
L 220.081919 56.08371 
L 217.941515 55.712711 
L 215.801111 55.341712 
L 213.660707 54.970713 
L 211.520303 54.599714 
L 209.379899 54.228714 
L 207.239495 53.857514 
L 205.099091 53.486298 
L 202.958687 53.115082 
L 200.818283 52.743866 
L 198.677879 52.37265 
L 196.537475 52.001435 
L 194.397071 51.630219 
L 192.256667 51.259003 
L 190.116263 50.887787 
L 187.975859 50.516571 
L 185.835455 50.145355 
L 183.695051 49.774139 
L 181.554646 49.402923 
L 179.414242 49.031707 
L 177.273838 48.660491 
L 175.133434 48.289275 
L 172.99303 47.918059 
L 170.852626 47.546843 
L 168.712222 47.175627 
L 166.571818 46.804411 
L 164.431414 46.433195 
L 162.29101 46.061979 
L 160.150606 45.690763 
L 158.010202 45.319548 
L 155.869798 44.948332 
L 153.729394 44.577116 
L 151.58899 44.2059 
L 149.448586 43.834684 
L 147.308182 43.463468 
L 145.167778 43.092252 
L 143.027374 42.721036 
L 140.88697 42.34982 
L 138.746566 41.978604 
L 136.606162 41.607388 
L 134.465758 41.236172 
L 132.325354 40.864956 
L 130.184949 40.49374 
L 128.044545 40.122524 
L 125.904141 39.751308 
L 123.763737 39.380092 
L 121.623333 39.008876 
L 119.482929 38.63766 
L 117.342525 38.266445 
L 115.202121 37.895229 
L 113.061717 37.524013 
L 110.921313 37.152797 
L 108.780909 36.781581 
L 106.640505 36.410365 
L 104.500101 36.039149 
L 102.359697 35.667933 
L 100.219293 35.296717 
L 98.078889 34.925501 
L 95.938485 34.554285 
L 93.798081 34.183069 
L 91.657677 33.811853 
L 89.517273 33.440637 
L 87.376869 33.069421 
L 85.236465 32.698205 
L 83.096061 32.326989 
L 80.955657 31.955773 
L 78.815253 31.584558 
L 76.674848 31.213342 
L 74.534444 30.842126 
L 72.39404 30.47091 
L 70.253636 30.099694 
L 68.113232 29.728478 
L 65.972828 29.357262 
L 63.832424 28.986046 
L 61.69202 28.61483 
L 59.551616 28.243614 
L 57.411212 27.872398 
L 55.270808 27.501182 
L 53.130404 27.129966 
L 50.99 26.75875 
L 50.99 26.75875 
L 50.99 26.75875 
L 53.130404 26.75875 
L 55.270808 26.75875 
L 57.411212 26.75875 
L 59.551616 26.75875 
L 61.69202 26.75875 
L 63.832424 26.75875 
L 65.972828 26.75875 
L 68.113232 26.75875 
L 70.253636 26.75875 
L 72.39404 26.75875 
L 74.534444 26.75875 
L 76.674848 26.75875 
L 78.815253 26.75875 
L 80.955657 26.75875 
L 83.096061 26.75875 
L 85.236465 26.75875 
L 87.376869 26.75875 
L 89.517273 26.75875 
L 91.657677 26.75875 
L 93.798081 26.75875 
L 95.938485 26.75875 
L 98.078889 26.75875 
L 100.219293 26.75875 
L 102.359697 26.75875 
L 104.500101 26.75875 
L 106.640505 26.75875 
L 108.780909 26.75875 
L 110.921313 26.75875 
L 113.061717 26.75875 
L 115.202121 26.75875 
L 117.342525 26.75875 
L 119.482929 26.75875 
L 121.623333 26.75875 
L 123.763737 26.75875 
L 125.904141 26.75875 
L 128.044545 26.75875 
L 130.184949 26.75875 
L 132.325354 26.75875 
L 134.465758 26.75875 
L 136.606162 26.75875 
L 138.746566 26.75875 
L 140.88697 26.75875 
L 143.027374 26.75875 
L 145.167778 26.75875 
L 147.308182 26.75875 
L 149.448586 26.75875 
L 151.58899 26.75875 
L 153.729394 26.75875 
L 155.869798 26.75875 
L 158.010202 26.75875 
L 160.150606 26.75875 
L 162.29101 26.75875 
L 164.431414 26.75875 
L 166.571818 26.75875 
L 168.712222 26.75875 
L 170.852626 26.75875 
L 172.99303 26.75875 
L 175.133434 26.75875 
L 177.273838 26.75875 
L 179.414242 26.75875 
L 181.554646 26.75875 
L 183.695051 26.75875 
L 185.835455 26.75875 
L 187.975859 26.75875 
L 190.116263 26.75875 
L 192.256667 26.75875 
L 194.397071 26.75875 
L 196.537475 26.75875 
L 198.677879 26.75875 
L 200.818283 26.75875 
L 202.958687 26.75875 
L 205.099091 26.75875 
L 207.239495 26.75875 
L 209.379899 26.75875 
L 211.520303 26.75875 
L 213.660707 26.75875 
L 215.801111 26.75875 
L 217.941515 26.75875 
L 220.081919 26.75875 
L 222.222323 26.75875 
L 224.362727 26.75875 
L 226.503131 26.75875 
L 228.643535 26.75875 
L 230.783939 26.75875 
L 232.924343 26.75875 
L 235.064747 26.75875 
L 237.205152 26.75875 
L 239.345556 26.75875 
L 241.48596 26.75875 
L 243.626364 26.75875 
L 245.766768 26.75875 
L 247.907172 26.75875 
L 250.047576 26.75875 
L 252.18798 26.75875 
L 254.328384 26.75875 
L 256.468788 26.75875 
L 258.609192 26.75875 
L 260.749596 26.75875 
L 262.89 26.75875 
z
" style="fill:#a1d99b;"/>
   </g>
   <g id="matplotlib.axis_1">
    <g id="xtick_1">
     <g id="line2d_1">
      <defs>
       <path d="M 0 0 
L 0 3.5 
" id="m729d507534" style="stroke:#000000;stroke-width:0.8;"/>
      </defs>
      <g>
       <use style="stroke:#000000;stroke-width:0.8;" x="50.99" xlink:href="#m729d507534" y="361.653756"/>
      </g>
     </g>
     <g id="text_1">
      <!-- 0.0 -->
      <g transform="translate(43.038438 376.252193)scale(0.1 -0.1)">
       <defs>
        <path d="M 2034 4250 
Q 1547 4250 1301 3770 
Q 1056 3291 1056 2328 
Q 1056 1369 1301 889 
Q 1547 409 2034 409 
Q 2525 409 2770 889 
Q 3016 1369 3016 2328 
Q 3016 3291 2770 3770 
Q 2525 4250 2034 4250 
z
M 2034 4750 
Q 2819 4750 3233 4129 
Q 3647 3509 3647 2328 
Q 3647 1150 3233 529 
Q 2819 -91 2034 -91 
Q 1250 -91 836 529 
Q 422 1150 422 2328 
Q 422 3509 836 4129 
Q 1250 4750 2034 4750 
z
" id="DejaVuSans-30" transform="scale(0.015625)"/>
        <path d="M 684 794 
L 1344 794 
L 1344 0 
L 684 0 
L 684 794 
z
" id="DejaVuSans-2e" transform="scale(0.015625)"/>
       </defs>
       <use xlink:href="#DejaVuSans-30"/>
       <use x="63.623047" xlink:href="#DejaVuSans-2e"/>
       <use x="95.410156" xlink:href="#DejaVuSans-30"/>
      </g>
     </g>
    </g>
    <g id="xtick_2">
     <g id="line2d_2">
      <g>
       <use style="stroke:#000000;stroke-width:0.8;" x="103.965" xlink:href="#m729d507534" y="361.653756"/>
      </g>
     </g>
     <g id="text_2">
      <!-- 25.0 -->
      <g transform="translate(92.832188 376.252193)scale(0.1 -0.1)">
       <defs>
        <path d="M 1228 531 
L 3431 531 
L 3431 0 
L 469 0 
L 469 531 
Q 828 903 1448 1529 
Q 2069 2156 2228 2338 
Q 2531 2678 2651 2914 
Q 2772 3150 2772 3378 
Q 2772 3750 2511 3984 
Q 2250 4219 1831 4219 
Q 1534 4219 1204 4116 
Q 875 4013 500 3803 
L 500 4441 
Q 881 4594 1212 4672 
Q 1544 4750 1819 4750 
Q 2544 4750 2975 4387 
Q 3406 4025 3406 3419 
Q 3406 3131 3298 2873 
Q 3191 2616 2906 2266 
Q 2828 2175 2409 1742 
Q 1991 1309 1228 531 
z
" id="DejaVuSans-32" transform="scale(0.015625)"/>
        <path d="M 691 4666 
L 3169 4666 
L 3169 4134 
L 1269 4134 
L 1269 2991 
Q 1406 3038 1543 3061 
Q 1681 3084 1819 3084 
Q 2600 3084 3056 2656 
Q 3513 2228 3513 1497 
Q 3513 744 3044 326 
Q 2575 -91 1722 -91 
Q 1428 -91 1123 -41 
Q 819 9 494 109 
L 494 744 
Q 775 591 1075 516 
Q 1375 441 1709 441 
Q 2250 441 2565 725 
Q 2881 1009 2881 1497 
Q 2881 1984 2565 2268 
Q 2250 2553 1709 2553 
Q 1456 2553 1204 2497 
Q 953 2441 691 2322 
L 691 4666 
z
" id="DejaVuSans-35" transform="scale(0.015625)"/>
       </defs>
       <use xlink:href="#DejaVuSans-32"/>
       <use x="63.623047" xlink:href="#DejaVuSans-35"/>
       <use x="127.246094" xlink:href="#DejaVuSans-2e"/>
       <use x="159.033203" xlink:href="#DejaVuSans-30"/>
      </g>
     </g>
    </g>
    <g id="xtick_3">
     <g id="line2d_3">
      <g>
       <use style="stroke:#000000;stroke-width:0.8;" x="156.94" xlink:href="#m729d507534" y="361.653756"/>
      </g>
     </g>
     <g id="text_3">
      <!-- 50.0 -->
      <g transform="translate(145.807187 376.252193)scale(0.1 -0.1)">
       <use xlink:href="#DejaVuSans-35"/>
       <use x="63.623047" xlink:href="#DejaVuSans-30"/>
       <use x="127.246094" xlink:href="#DejaVuSans-2e"/>
       <use x="159.033203" xlink:href="#DejaVuSans-30"/>
      </g>
     </g>
    </g>
    <g id="xtick_4">
     <g id="line2d_4">
      <g>
       <use style="stroke:#000000;stroke-width:0.8;" x="209.915" xlink:href="#m729d507534" y="361.653756"/>
      </g>
     </g>
     <g id="text_4">
      <!-- 75.0 -->
      <g transform="translate(198.782187 376.252193)scale(0.1 -0.1)">
       <defs>
        <path d="M 525 4666 
L 3525 4666 
L 3525 4397 
L 1831 0 
L 1172 0 
L 2766 4134 
L 525 4134 
L 525 4666 
z
" id="DejaVuSans-37" transform="scale(0.015625)"/>
       </defs>
       <use xlink:href="#DejaVuSans-37"/>
       <use x="63.623047" xlink:href="#DejaVuSans-35"/>
       <use x="127.246094" xlink:href="#DejaVuSans-2e"/>
       <use x="159.033203" xlink:href="#DejaVuSans-30"/>
      </g>
     </g>
    </g>
    <g id="xtick_5">
     <g id="line2d_5">
      <g>
       <use style="stroke:#000000;stroke-width:0.8;" x="262.89" xlink:href="#m729d507534" y="361.653756"/>
      </g>
     </g>
     <g id="text_5">
      <!-- 100.0 -->
      <g transform="translate(248.575937 376.252193)scale(0.1 -0.1)">
       <defs>
        <path d="M 794 531 
L 1825 531 
L 1825 4091 
L 703 3866 
L 703 4441 
L 1819 4666 
L 2450 4666 
L 2450 531 
L 3481 531 
L 3481 0 
L 794 0 
L 794 531 
z
" id="DejaVuSans-31" transform="scale(0.015625)"/>
       </defs>
       <use xlink:href="#DejaVuSans-31"/>
       <use x="63.623047" xlink:href="#DejaVuSans-30"/>
       <use x="127.246094" xlink:href="#DejaVuSans-30"/>
       <use x="190.869141" xlink:href="#DejaVuSans-2e"/>
       <use x="222.65625" xlink:href="#DejaVuSans-30"/>
      </g>
     </g>
    </g>
    <g id="text_6">
     <!-- Proportion of DSSCs in Grid (%) -->
     <g transform="translate(78.381406 389.930318)scale(0.1 -0.1)">
      <defs>
       <path d="M 1259 4147 
L 1259 2394 
L 2053 2394 
Q 2494 2394 2734 2622 
Q 2975 2850 2975 3272 
Q 2975 3691 2734 3919 
Q 2494 4147 2053 4147 
L 1259 4147 
z
M 628 4666 
L 2053 4666 
Q 2838 4666 3239 4311 
Q 3641 3956 3641 3272 
Q 3641 2581 3239 2228 
Q 2838 1875 2053 1875 
L 1259 1875 
L 1259 0 
L 628 0 
L 628 4666 
z
" id="DejaVuSans-50" transform="scale(0.015625)"/>
       <path d="M 2631 2963 
Q 2534 3019 2420 3045 
Q 2306 3072 2169 3072 
Q 1681 3072 1420 2755 
Q 1159 2438 1159 1844 
L 1159 0 
L 581 0 
L 581 3500 
L 1159 3500 
L 1159 2956 
Q 1341 3275 1631 3429 
Q 1922 3584 2338 3584 
Q 2397 3584 2469 3576 
Q 2541 3569 2628 3553 
L 2631 2963 
z
" id="DejaVuSans-72" transform="scale(0.015625)"/>
       <path d="M 1959 3097 
Q 1497 3097 1228 2736 
Q 959 2375 959 1747 
Q 959 1119 1226 758 
Q 1494 397 1959 397 
Q 2419 397 2687 759 
Q 2956 1122 2956 1747 
Q 2956 2369 2687 2733 
Q 2419 3097 1959 3097 
z
M 1959 3584 
Q 2709 3584 3137 3096 
Q 3566 2609 3566 1747 
Q 3566 888 3137 398 
Q 2709 -91 1959 -91 
Q 1206 -91 779 398 
Q 353 888 353 1747 
Q 353 2609 779 3096 
Q 1206 3584 1959 3584 
z
" id="DejaVuSans-6f" transform="scale(0.015625)"/>
       <path d="M 1159 525 
L 1159 -1331 
L 581 -1331 
L 581 3500 
L 1159 3500 
L 1159 2969 
Q 1341 3281 1617 3432 
Q 1894 3584 2278 3584 
Q 2916 3584 3314 3078 
Q 3713 2572 3713 1747 
Q 3713 922 3314 415 
Q 2916 -91 2278 -91 
Q 1894 -91 1617 61 
Q 1341 213 1159 525 
z
M 3116 1747 
Q 3116 2381 2855 2742 
Q 2594 3103 2138 3103 
Q 1681 3103 1420 2742 
Q 1159 2381 1159 1747 
Q 1159 1113 1420 752 
Q 1681 391 2138 391 
Q 2594 391 2855 752 
Q 3116 1113 3116 1747 
z
" id="DejaVuSans-70" transform="scale(0.015625)"/>
       <path d="M 1172 4494 
L 1172 3500 
L 2356 3500 
L 2356 3053 
L 1172 3053 
L 1172 1153 
Q 1172 725 1289 603 
Q 1406 481 1766 481 
L 2356 481 
L 2356 0 
L 1766 0 
Q 1100 0 847 248 
Q 594 497 594 1153 
L 594 3053 
L 172 3053 
L 172 3500 
L 594 3500 
L 594 4494 
L 1172 4494 
z
" id="DejaVuSans-74" transform="scale(0.015625)"/>
       <path d="M 603 3500 
L 1178 3500 
L 1178 0 
L 603 0 
L 603 3500 
z
M 603 4863 
L 1178 4863 
L 1178 4134 
L 603 4134 
L 603 4863 
z
" id="DejaVuSans-69" transform="scale(0.015625)"/>
       <path d="M 3513 2113 
L 3513 0 
L 2938 0 
L 2938 2094 
Q 2938 2591 2744 2837 
Q 2550 3084 2163 3084 
Q 1697 3084 1428 2787 
Q 1159 2491 1159 1978 
L 1159 0 
L 581 0 
L 581 3500 
L 1159 3500 
L 1159 2956 
Q 1366 3272 1645 3428 
Q 1925 3584 2291 3584 
Q 2894 3584 3203 3211 
Q 3513 2838 3513 2113 
z
" id="DejaVuSans-6e" transform="scale(0.015625)"/>
       <path id="DejaVuSans-20" transform="scale(0.015625)"/>
       <path d="M 2375 4863 
L 2375 4384 
L 1825 4384 
Q 1516 4384 1395 4259 
Q 1275 4134 1275 3809 
L 1275 3500 
L 2222 3500 
L 2222 3053 
L 1275 3053 
L 1275 0 
L 697 0 
L 697 3053 
L 147 3053 
L 147 3500 
L 697 3500 
L 697 3744 
Q 697 4328 969 4595 
Q 1241 4863 1831 4863 
L 2375 4863 
z
" id="DejaVuSans-66" transform="scale(0.015625)"/>
       <path d="M 1259 4147 
L 1259 519 
L 2022 519 
Q 2988 519 3436 956 
Q 3884 1394 3884 2338 
Q 3884 3275 3436 3711 
Q 2988 4147 2022 4147 
L 1259 4147 
z
M 628 4666 
L 1925 4666 
Q 3281 4666 3915 4102 
Q 4550 3538 4550 2338 
Q 4550 1131 3912 565 
Q 3275 0 1925 0 
L 628 0 
L 628 4666 
z
" id="DejaVuSans-44" transform="scale(0.015625)"/>
       <path d="M 3425 4513 
L 3425 3897 
Q 3066 4069 2747 4153 
Q 2428 4238 2131 4238 
Q 1616 4238 1336 4038 
Q 1056 3838 1056 3469 
Q 1056 3159 1242 3001 
Q 1428 2844 1947 2747 
L 2328 2669 
Q 3034 2534 3370 2195 
Q 3706 1856 3706 1288 
Q 3706 609 3251 259 
Q 2797 -91 1919 -91 
Q 1588 -91 1214 -16 
Q 841 59 441 206 
L 441 856 
Q 825 641 1194 531 
Q 1563 422 1919 422 
Q 2459 422 2753 634 
Q 3047 847 3047 1241 
Q 3047 1584 2836 1778 
Q 2625 1972 2144 2069 
L 1759 2144 
Q 1053 2284 737 2584 
Q 422 2884 422 3419 
Q 422 4038 858 4394 
Q 1294 4750 2059 4750 
Q 2388 4750 2728 4690 
Q 3069 4631 3425 4513 
z
" id="DejaVuSans-53" transform="scale(0.015625)"/>
       <path d="M 4122 4306 
L 4122 3641 
Q 3803 3938 3442 4084 
Q 3081 4231 2675 4231 
Q 1875 4231 1450 3742 
Q 1025 3253 1025 2328 
Q 1025 1406 1450 917 
Q 1875 428 2675 428 
Q 3081 428 3442 575 
Q 3803 722 4122 1019 
L 4122 359 
Q 3791 134 3420 21 
Q 3050 -91 2638 -91 
Q 1578 -91 968 557 
Q 359 1206 359 2328 
Q 359 3453 968 4101 
Q 1578 4750 2638 4750 
Q 3056 4750 3426 4639 
Q 3797 4528 4122 4306 
z
" id="DejaVuSans-43" transform="scale(0.015625)"/>
       <path d="M 2834 3397 
L 2834 2853 
Q 2591 2978 2328 3040 
Q 2066 3103 1784 3103 
Q 1356 3103 1142 2972 
Q 928 2841 928 2578 
Q 928 2378 1081 2264 
Q 1234 2150 1697 2047 
L 1894 2003 
Q 2506 1872 2764 1633 
Q 3022 1394 3022 966 
Q 3022 478 2636 193 
Q 2250 -91 1575 -91 
Q 1294 -91 989 -36 
Q 684 19 347 128 
L 347 722 
Q 666 556 975 473 
Q 1284 391 1588 391 
Q 1994 391 2212 530 
Q 2431 669 2431 922 
Q 2431 1156 2273 1281 
Q 2116 1406 1581 1522 
L 1381 1569 
Q 847 1681 609 1914 
Q 372 2147 372 2553 
Q 372 3047 722 3315 
Q 1072 3584 1716 3584 
Q 2034 3584 2315 3537 
Q 2597 3491 2834 3397 
z
" id="DejaVuSans-73" transform="scale(0.015625)"/>
       <path d="M 3809 666 
L 3809 1919 
L 2778 1919 
L 2778 2438 
L 4434 2438 
L 4434 434 
Q 4069 175 3628 42 
Q 3188 -91 2688 -91 
Q 1594 -91 976 548 
Q 359 1188 359 2328 
Q 359 3472 976 4111 
Q 1594 4750 2688 4750 
Q 3144 4750 3555 4637 
Q 3966 4525 4313 4306 
L 4313 3634 
Q 3963 3931 3569 4081 
Q 3175 4231 2741 4231 
Q 1884 4231 1454 3753 
Q 1025 3275 1025 2328 
Q 1025 1384 1454 906 
Q 1884 428 2741 428 
Q 3075 428 3337 486 
Q 3600 544 3809 666 
z
" id="DejaVuSans-47" transform="scale(0.015625)"/>
       <path d="M 2906 2969 
L 2906 4863 
L 3481 4863 
L 3481 0 
L 2906 0 
L 2906 525 
Q 2725 213 2448 61 
Q 2172 -91 1784 -91 
Q 1150 -91 751 415 
Q 353 922 353 1747 
Q 353 2572 751 3078 
Q 1150 3584 1784 3584 
Q 2172 3584 2448 3432 
Q 2725 3281 2906 2969 
z
M 947 1747 
Q 947 1113 1208 752 
Q 1469 391 1925 391 
Q 2381 391 2643 752 
Q 2906 1113 2906 1747 
Q 2906 2381 2643 2742 
Q 2381 3103 1925 3103 
Q 1469 3103 1208 2742 
Q 947 2381 947 1747 
z
" id="DejaVuSans-64" transform="scale(0.015625)"/>
       <path d="M 1984 4856 
Q 1566 4138 1362 3434 
Q 1159 2731 1159 2009 
Q 1159 1288 1364 580 
Q 1569 -128 1984 -844 
L 1484 -844 
Q 1016 -109 783 600 
Q 550 1309 550 2009 
Q 550 2706 781 3412 
Q 1013 4119 1484 4856 
L 1984 4856 
z
" id="DejaVuSans-28" transform="scale(0.015625)"/>
       <path d="M 4653 2053 
Q 4381 2053 4226 1822 
Q 4072 1591 4072 1178 
Q 4072 772 4226 539 
Q 4381 306 4653 306 
Q 4919 306 5073 539 
Q 5228 772 5228 1178 
Q 5228 1588 5073 1820 
Q 4919 2053 4653 2053 
z
M 4653 2450 
Q 5147 2450 5437 2106 
Q 5728 1763 5728 1178 
Q 5728 594 5436 251 
Q 5144 -91 4653 -91 
Q 4153 -91 3862 251 
Q 3572 594 3572 1178 
Q 3572 1766 3864 2108 
Q 4156 2450 4653 2450 
z
M 1428 4353 
Q 1159 4353 1004 4120 
Q 850 3888 850 3481 
Q 850 3069 1003 2837 
Q 1156 2606 1428 2606 
Q 1700 2606 1854 2837 
Q 2009 3069 2009 3481 
Q 2009 3884 1853 4118 
Q 1697 4353 1428 4353 
z
M 4250 4750 
L 4750 4750 
L 1831 -91 
L 1331 -91 
L 4250 4750 
z
M 1428 4750 
Q 1922 4750 2215 4408 
Q 2509 4066 2509 3481 
Q 2509 2891 2217 2550 
Q 1925 2209 1428 2209 
Q 931 2209 642 2551 
Q 353 2894 353 3481 
Q 353 4063 643 4406 
Q 934 4750 1428 4750 
z
" id="DejaVuSans-25" transform="scale(0.015625)"/>
       <path d="M 513 4856 
L 1013 4856 
Q 1481 4119 1714 3412 
Q 1947 2706 1947 2009 
Q 1947 1309 1714 600 
Q 1481 -109 1013 -844 
L 513 -844 
Q 928 -128 1133 580 
Q 1338 1288 1338 2009 
Q 1338 2731 1133 3434 
Q 928 4138 513 4856 
z
" id="DejaVuSans-29" transform="scale(0.015625)"/>
      </defs>
      <use xlink:href="#DejaVuSans-50"/>
      <use x="58.552734" xlink:href="#DejaVuSans-72"/>
      <use x="97.416016" xlink:href="#DejaVuSans-6f"/>
      <use x="158.597656" xlink:href="#DejaVuSans-70"/>
      <use x="222.074219" xlink:href="#DejaVuSans-6f"/>
      <use x="283.255859" xlink:href="#DejaVuSans-72"/>
      <use x="324.369141" xlink:href="#DejaVuSans-74"/>
      <use x="363.578125" xlink:href="#DejaVuSans-69"/>
      <use x="391.361328" xlink:href="#DejaVuSans-6f"/>
      <use x="452.542969" xlink:href="#DejaVuSans-6e"/>
      <use x="515.921875" xlink:href="#DejaVuSans-20"/>
      <use x="547.708984" xlink:href="#DejaVuSans-6f"/>
      <use x="608.890625" xlink:href="#DejaVuSans-66"/>
      <use x="644.095703" xlink:href="#DejaVuSans-20"/>
      <use x="675.882812" xlink:href="#DejaVuSans-44"/>
      <use x="752.884766" xlink:href="#DejaVuSans-53"/>
      <use x="816.361328" xlink:href="#DejaVuSans-53"/>
      <use x="879.837891" xlink:href="#DejaVuSans-43"/>
      <use x="949.662109" xlink:href="#DejaVuSans-73"/>
      <use x="1001.761719" xlink:href="#DejaVuSans-20"/>
      <use x="1033.548828" xlink:href="#DejaVuSans-69"/>
      <use x="1061.332031" xlink:href="#DejaVuSans-6e"/>
      <use x="1124.710938" xlink:href="#DejaVuSans-20"/>
      <use x="1156.498047" xlink:href="#DejaVuSans-47"/>
      <use x="1233.988281" xlink:href="#DejaVuSans-72"/>
      <use x="1275.101562" xlink:href="#DejaVuSans-69"/>
      <use x="1302.884766" xlink:href="#DejaVuSans-64"/>
      <use x="1366.361328" xlink:href="#DejaVuSans-20"/>
      <use x="1398.148438" xlink:href="#DejaVuSans-28"/>
      <use x="1437.162109" xlink:href="#DejaVuSans-25"/>
      <use x="1532.181641" xlink:href="#DejaVuSans-29"/>
     </g>
    </g>
   </g>
   <g id="matplotlib.axis_2">
    <g id="ytick_1">
     <g id="line2d_6">
      <defs>
       <path d="M 0 0 
L -3.5 0 
" id="m97cb16f32a" style="stroke:#000000;stroke-width:0.8;"/>
      </defs>
      <g>
       <use style="stroke:#000000;stroke-width:0.8;" x="50.99" xlink:href="#m97cb16f32a" y="361.653756"/>
      </g>
     </g>
     <g id="text_7">
      <!-- 0 -->
      <g transform="translate(37.6275 365.452974)scale(0.1 -0.1)">
       <use xlink:href="#DejaVuSans-30"/>
      </g>
     </g>
    </g>
    <g id="ytick_2">
     <g id="line2d_7">
      <g>
       <use style="stroke:#000000;stroke-width:0.8;" x="50.99" xlink:href="#m97cb16f32a" y="305.248022"/>
      </g>
     </g>
     <g id="text_8">
      <!-- 50 -->
      <g transform="translate(31.265 309.047241)scale(0.1 -0.1)">
       <use xlink:href="#DejaVuSans-35"/>
       <use x="63.623047" xlink:href="#DejaVuSans-30"/>
      </g>
     </g>
    </g>
    <g id="ytick_3">
     <g id="line2d_8">
      <g>
       <use style="stroke:#000000;stroke-width:0.8;" x="50.99" xlink:href="#m97cb16f32a" y="248.842288"/>
      </g>
     </g>
     <g id="text_9">
      <!-- 100 -->
      <g transform="translate(24.9025 252.641507)scale(0.1 -0.1)">
       <use xlink:href="#DejaVuSans-31"/>
       <use x="63.623047" xlink:href="#DejaVuSans-30"/>
       <use x="127.246094" xlink:href="#DejaVuSans-30"/>
      </g>
     </g>
    </g>
    <g id="ytick_4">
     <g id="line2d_9">
      <g>
       <use style="stroke:#000000;stroke-width:0.8;" x="50.99" xlink:href="#m97cb16f32a" y="192.436554"/>
      </g>
     </g>
     <g id="text_10">
      <!-- 150 -->
      <g transform="translate(24.9025 196.235773)scale(0.1 -0.1)">
       <use xlink:href="#DejaVuSans-31"/>
       <use x="63.623047" xlink:href="#DejaVuSans-35"/>
       <use x="127.246094" xlink:href="#DejaVuSans-30"/>
      </g>
     </g>
    </g>
    <g id="ytick_5">
     <g id="line2d_10">
      <g>
       <use style="stroke:#000000;stroke-width:0.8;" x="50.99" xlink:href="#m97cb16f32a" y="136.03082"/>
      </g>
     </g>
     <g id="text_11">
      <!-- 200 -->
      <g transform="translate(24.9025 139.830039)scale(0.1 -0.1)">
       <use xlink:href="#DejaVuSans-32"/>
       <use x="63.623047" xlink:href="#DejaVuSans-30"/>
       <use x="127.246094" xlink:href="#DejaVuSans-30"/>
      </g>
     </g>
    </g>
    <g id="ytick_6">
     <g id="line2d_11">
      <g>
       <use style="stroke:#000000;stroke-width:0.8;" x="50.99" xlink:href="#m97cb16f32a" y="79.625087"/>
      </g>
     </g>
     <g id="text_12">
      <!-- 250 -->
      <g transform="translate(24.9025 83.424305)scale(0.1 -0.1)">
       <use xlink:href="#DejaVuSans-32"/>
       <use x="63.623047" xlink:href="#DejaVuSans-35"/>
       <use x="127.246094" xlink:href="#DejaVuSans-30"/>
      </g>
     </g>
    </g>
    <g id="ytick_7">
     <g id="line2d_12">
      <g>
       <use style="stroke:#000000;stroke-width:0.8;" x="50.99" xlink:href="#m97cb16f32a" y="23.219353"/>
      </g>
     </g>
     <g id="text_13">
      <!-- 300 -->
      <g transform="translate(24.9025 27.018572)scale(0.1 -0.1)">
       <defs>
        <path d="M 2597 2516 
Q 3050 2419 3304 2112 
Q 3559 1806 3559 1356 
Q 3559 666 3084 287 
Q 2609 -91 1734 -91 
Q 1441 -91 1130 -33 
Q 819 25 488 141 
L 488 750 
Q 750 597 1062 519 
Q 1375 441 1716 441 
Q 2309 441 2620 675 
Q 2931 909 2931 1356 
Q 2931 1769 2642 2001 
Q 2353 2234 1838 2234 
L 1294 2234 
L 1294 2753 
L 1863 2753 
Q 2328 2753 2575 2939 
Q 2822 3125 2822 3475 
Q 2822 3834 2567 4026 
Q 2313 4219 1838 4219 
Q 1578 4219 1281 4162 
Q 984 4106 628 3988 
L 628 4550 
Q 988 4650 1302 4700 
Q 1616 4750 1894 4750 
Q 2613 4750 3031 4423 
Q 3450 4097 3450 3541 
Q 3450 3153 3228 2886 
Q 3006 2619 2597 2516 
z
" id="DejaVuSans-33" transform="scale(0.015625)"/>
       </defs>
       <use xlink:href="#DejaVuSans-33"/>
       <use x="63.623047" xlink:href="#DejaVuSans-30"/>
       <use x="127.246094" xlink:href="#DejaVuSans-30"/>
      </g>
     </g>
    </g>
    <g id="text_14">
     <!-- Energy Generated (TWh) -->
     <g transform="translate(18.822813 248.112784)rotate(-90)scale(0.1 -0.1)">
      <defs>
       <path d="M 628 4666 
L 3578 4666 
L 3578 4134 
L 1259 4134 
L 1259 2753 
L 3481 2753 
L 3481 2222 
L 1259 2222 
L 1259 531 
L 3634 531 
L 3634 0 
L 628 0 
L 628 4666 
z
" id="DejaVuSans-45" transform="scale(0.015625)"/>
       <path d="M 3597 1894 
L 3597 1613 
L 953 1613 
Q 991 1019 1311 708 
Q 1631 397 2203 397 
Q 2534 397 2845 478 
Q 3156 559 3463 722 
L 3463 178 
Q 3153 47 2828 -22 
Q 2503 -91 2169 -91 
Q 1331 -91 842 396 
Q 353 884 353 1716 
Q 353 2575 817 3079 
Q 1281 3584 2069 3584 
Q 2775 3584 3186 3129 
Q 3597 2675 3597 1894 
z
M 3022 2063 
Q 3016 2534 2758 2815 
Q 2500 3097 2075 3097 
Q 1594 3097 1305 2825 
Q 1016 2553 972 2059 
L 3022 2063 
z
" id="DejaVuSans-65" transform="scale(0.015625)"/>
       <path d="M 2906 1791 
Q 2906 2416 2648 2759 
Q 2391 3103 1925 3103 
Q 1463 3103 1205 2759 
Q 947 2416 947 1791 
Q 947 1169 1205 825 
Q 1463 481 1925 481 
Q 2391 481 2648 825 
Q 2906 1169 2906 1791 
z
M 3481 434 
Q 3481 -459 3084 -895 
Q 2688 -1331 1869 -1331 
Q 1566 -1331 1297 -1286 
Q 1028 -1241 775 -1147 
L 775 -588 
Q 1028 -725 1275 -790 
Q 1522 -856 1778 -856 
Q 2344 -856 2625 -561 
Q 2906 -266 2906 331 
L 2906 616 
Q 2728 306 2450 153 
Q 2172 0 1784 0 
Q 1141 0 747 490 
Q 353 981 353 1791 
Q 353 2603 747 3093 
Q 1141 3584 1784 3584 
Q 2172 3584 2450 3431 
Q 2728 3278 2906 2969 
L 2906 3500 
L 3481 3500 
L 3481 434 
z
" id="DejaVuSans-67" transform="scale(0.015625)"/>
       <path d="M 2059 -325 
Q 1816 -950 1584 -1140 
Q 1353 -1331 966 -1331 
L 506 -1331 
L 506 -850 
L 844 -850 
Q 1081 -850 1212 -737 
Q 1344 -625 1503 -206 
L 1606 56 
L 191 3500 
L 800 3500 
L 1894 763 
L 2988 3500 
L 3597 3500 
L 2059 -325 
z
" id="DejaVuSans-79" transform="scale(0.015625)"/>
       <path d="M 2194 1759 
Q 1497 1759 1228 1600 
Q 959 1441 959 1056 
Q 959 750 1161 570 
Q 1363 391 1709 391 
Q 2188 391 2477 730 
Q 2766 1069 2766 1631 
L 2766 1759 
L 2194 1759 
z
M 3341 1997 
L 3341 0 
L 2766 0 
L 2766 531 
Q 2569 213 2275 61 
Q 1981 -91 1556 -91 
Q 1019 -91 701 211 
Q 384 513 384 1019 
Q 384 1609 779 1909 
Q 1175 2209 1959 2209 
L 2766 2209 
L 2766 2266 
Q 2766 2663 2505 2880 
Q 2244 3097 1772 3097 
Q 1472 3097 1187 3025 
Q 903 2953 641 2809 
L 641 3341 
Q 956 3463 1253 3523 
Q 1550 3584 1831 3584 
Q 2591 3584 2966 3190 
Q 3341 2797 3341 1997 
z
" id="DejaVuSans-61" transform="scale(0.015625)"/>
       <path d="M -19 4666 
L 3928 4666 
L 3928 4134 
L 2272 4134 
L 2272 0 
L 1638 0 
L 1638 4134 
L -19 4134 
L -19 4666 
z
" id="DejaVuSans-54" transform="scale(0.015625)"/>
       <path d="M 213 4666 
L 850 4666 
L 1831 722 
L 2809 4666 
L 3519 4666 
L 4500 722 
L 5478 4666 
L 6119 4666 
L 4947 0 
L 4153 0 
L 3169 4050 
L 2175 0 
L 1381 0 
L 213 4666 
z
" id="DejaVuSans-57" transform="scale(0.015625)"/>
       <path d="M 3513 2113 
L 3513 0 
L 2938 0 
L 2938 2094 
Q 2938 2591 2744 2837 
Q 2550 3084 2163 3084 
Q 1697 3084 1428 2787 
Q 1159 2491 1159 1978 
L 1159 0 
L 581 0 
L 581 4863 
L 1159 4863 
L 1159 2956 
Q 1366 3272 1645 3428 
Q 1925 3584 2291 3584 
Q 2894 3584 3203 3211 
Q 3513 2838 3513 2113 
z
" id="DejaVuSans-68" transform="scale(0.015625)"/>
      </defs>
      <use xlink:href="#DejaVuSans-45"/>
      <use x="63.183594" xlink:href="#DejaVuSans-6e"/>
      <use x="126.5625" xlink:href="#DejaVuSans-65"/>
      <use x="188.085938" xlink:href="#DejaVuSans-72"/>
      <use x="227.449219" xlink:href="#DejaVuSans-67"/>
      <use x="290.925781" xlink:href="#DejaVuSans-79"/>
      <use x="350.105469" xlink:href="#DejaVuSans-20"/>
      <use x="381.892578" xlink:href="#DejaVuSans-47"/>
      <use x="459.382812" xlink:href="#DejaVuSans-65"/>
      <use x="520.90625" xlink:href="#DejaVuSans-6e"/>
      <use x="584.285156" xlink:href="#DejaVuSans-65"/>
      <use x="645.808594" xlink:href="#DejaVuSans-72"/>
      <use x="686.921875" xlink:href="#DejaVuSans-61"/>
      <use x="748.201172" xlink:href="#DejaVuSans-74"/>
      <use x="787.410156" xlink:href="#DejaVuSans-65"/>
      <use x="848.933594" xlink:href="#DejaVuSans-64"/>
      <use x="912.410156" xlink:href="#DejaVuSans-20"/>
      <use x="944.197266" xlink:href="#DejaVuSans-28"/>
      <use x="983.210938" xlink:href="#DejaVuSans-54"/>
      <use x="1044.294922" xlink:href="#DejaVuSans-57"/>
      <use x="1143.171875" xlink:href="#DejaVuSans-68"/>
      <use x="1206.550781" xlink:href="#DejaVuSans-29"/>
     </g>
    </g>
   </g>
   <g id="patch_3">
    <path d="M 50.99 361.653756 
L 50.99 10.014 
" style="fill:none;stroke:#000000;stroke-linecap:square;stroke-linejoin:miter;stroke-width:0.8;"/>
   </g>
   <g id="patch_4">
    <path d="M 262.89 361.653756 
L 262.89 10.014 
" style="fill:none;stroke:#000000;stroke-linecap:square;stroke-linejoin:miter;stroke-width:0.8;"/>
   </g>
   <g id="patch_5">
    <path d="M 50.99 361.653756 
L 262.89 361.653756 
" style="fill:none;stroke:#000000;stroke-linecap:square;stroke-linejoin:miter;stroke-width:0.8;"/>
   </g>
   <g id="patch_6">
    <path d="M 50.99 10.014 
L 262.89 10.014 
" style="fill:none;stroke:#000000;stroke-linecap:square;stroke-linejoin:miter;stroke-width:0.8;"/>
   </g>
  </g>
 </g>
 <defs>
  <clipPath id="p38ef9cc4bb">
   <rect height="351.639756" width="211.9" x="50.99" y="10.014"/>
  </clipPath>
 </defs>
</svg>
