<?xml version="1.0" encoding="utf-8" standalone="no"?>
<!DOCTYPE svg PUBLIC "-//W3C//DTD SVG 1.1//EN"
  "http://www.w3.org/Graphics/SVG/1.1/DTD/svg11.dtd">
<svg height="400.56pt" version="1.1" viewBox="0 0 288 400.56" width="288pt" xmlns="http://www.w3.org/2000/svg" xmlns:xlink="http://www.w3.org/1999/xlink">
 <metadata>
  <rdf:RDF xmlns:cc="http://creativecommons.org/ns#" xmlns:dc="http://purl.org/dc/elements/1.1/" xmlns:rdf="http://www.w3.org/1999/02/22-rdf-syntax-ns#">
   <cc:Work>
    <dc:type rdf:resource="http://purl.org/dc/dcmitype/StillImage"/>
    <dc:date>2021-08-12T15:20:56.643366</dc:date>
    <dc:format>image/svg+xml</dc:format>
    <dc:creator>
     <cc:Agent>
      <dc:title>Matplotlib v3.4.1, https://matplotlib.org/</dc:title>
     </cc:Agent>
    </dc:creator>
   </cc:Work>
  </rdf:RDF>
 </metadata>
 <defs>
  <style type="text/css">*{stroke-linecap:butt;stroke-linejoin:round;}</style>
 </defs>
 <g id="figure_1">
  <g id="patch_1">
   <path d="M 0 400.56 
L 288 400.56 
L 288 0 
L 0 0 
z
" style="fill:#ffffff;"/>
  </g>
  <g id="axes_1">
   <g id="patch_2">
    <path d="M 50.99 361.653756 
L 262.89 361.653756 
L 262.89 10.014 
L 50.99 10.014 
z
" style="fill:#ffffff;"/>
   </g>
   <g id="PolyCollection_1">
    <path clip-path="url(#pfc6d85c3d3)" d="M 262.89 199.841109 
L 262.89 361.653756 
L 260.749596 361.653756 
L 258.609192 361.653756 
L 256.468788 361.653756 
L 254.328384 361.653756 
L 252.18798 361.653756 
L 250.047576 361.653756 
L 247.907172 361.653756 
L 245.766768 361.653756 
L 243.626364 361.653756 
L 241.48596 361.653756 
L 239.345556 361.653756 
L 237.205152 361.653756 
L 235.064747 361.653756 
L 232.924343 361.653756 
L 230.783939 361.653756 
L 228.643535 361.653756 
L 226.503131 361.653756 
L 224.362727 361.653756 
L 222.222323 361.653756 
L 220.081919 361.653756 
L 217.941515 361.653756 
L 215.801111 361.653756 
L 213.660707 361.653756 
L 211.520303 361.653756 
L 209.379899 361.653756 
L 207.239495 361.653756 
L 205.099091 361.653756 
L 202.958687 361.653756 
L 200.818283 361.653756 
L 198.677879 361.653756 
L 196.537475 361.653756 
L 194.397071 361.653756 
L 192.256667 361.653756 
L 190.116263 361.653756 
L 187.975859 361.653756 
L 185.835455 361.653756 
L 183.695051 361.653756 
L 181.554646 361.653756 
L 179.414242 361.653756 
L 177.273838 361.653756 
L 175.133434 361.653756 
L 172.99303 361.653756 
L 170.852626 361.653756 
L 168.712222 361.653756 
L 166.571818 361.653756 
L 164.431414 361.653756 
L 162.29101 361.653756 
L 160.150606 361.653756 
L 158.010202 361.653756 
L 155.869798 361.653756 
L 153.729394 361.653756 
L 151.58899 361.653756 
L 149.448586 361.653756 
L 147.308182 361.653756 
L 145.167778 361.653756 
L 143.027374 361.653756 
L 140.88697 361.653756 
L 138.746566 361.653756 
L 136.606162 361.653756 
L 134.465758 361.653756 
L 132.325354 361.653756 
L 130.184949 361.653756 
L 128.044545 361.653756 
L 125.904141 361.653756 
L 123.763737 361.653756 
L 121.623333 361.653756 
L 119.482929 361.653756 
L 117.342525 361.653756 
L 115.202121 361.653756 
L 113.061717 361.653756 
L 110.921313 361.653756 
L 108.780909 361.653756 
L 106.640505 361.653756 
L 104.500101 361.653756 
L 102.359697 361.653756 
L 100.219293 361.653756 
L 98.078889 361.653756 
L 95.938485 361.653756 
L 93.798081 361.653756 
L 91.657677 361.653756 
L 89.517273 361.653756 
L 87.376869 361.653756 
L 85.236465 361.653756 
L 83.096061 361.653756 
L 80.955657 361.653756 
L 78.815253 361.653756 
L 76.674848 361.653756 
L 74.534444 361.653756 
L 72.39404 361.653756 
L 70.253636 361.653756 
L 68.113232 361.653756 
L 65.972828 361.653756 
L 63.832424 361.653756 
L 61.69202 361.653756 
L 59.551616 361.653756 
L 57.411212 361.653756 
L 55.270808 361.653756 
L 53.130404 361.653756 
L 50.99 361.653756 
L 50.99 196.777546 
L 50.99 196.777546 
L 53.130404 196.816546 
L 55.270808 196.855545 
L 57.411212 196.894544 
L 59.551616 196.933544 
L 61.69202 196.972543 
L 63.832424 197.011542 
L 65.972828 197.050542 
L 68.113232 197.089541 
L 70.253636 197.128541 
L 72.39404 197.16754 
L 74.534444 197.206539 
L 76.674848 197.245539 
L 78.815253 197.284538 
L 80.955657 197.323537 
L 83.096061 197.362537 
L 85.236465 197.401536 
L 87.376869 197.440536 
L 89.517273 197.479535 
L 91.657677 197.518534 
L 93.798081 197.557534 
L 95.938485 197.596533 
L 98.078889 197.635532 
L 100.219293 197.674532 
L 102.359697 197.713531 
L 104.500101 197.752531 
L 106.640505 197.79153 
L 108.780909 197.830529 
L 110.921313 197.869529 
L 113.061717 197.908528 
L 115.202121 197.947527 
L 117.342525 197.986527 
L 119.482929 198.025526 
L 121.623333 198.064525 
L 123.763737 198.103525 
L 125.904141 198.142524 
L 128.044545 198.181524 
L 130.184949 198.220523 
L 132.325354 198.259522 
L 134.465758 198.298522 
L 136.606162 198.337521 
L 138.746566 198.37652 
L 140.88697 198.41552 
L 143.027374 198.454519 
L 145.167778 198.493519 
L 147.308182 198.529558 
L 149.448586 198.564771 
L 151.58899 198.59949 
L 153.729394 198.633688 
L 155.869798 198.667269 
L 158.010202 198.700243 
L 160.150606 198.732605 
L 162.29101 198.764513 
L 164.431414 198.795968 
L 166.571818 198.826758 
L 168.712222 198.856828 
L 170.852626 198.886269 
L 172.99303 198.915042 
L 175.133434 198.943253 
L 177.273838 198.971081 
L 179.414242 198.998417 
L 181.554646 199.025371 
L 183.695051 199.051997 
L 185.835455 199.078343 
L 187.975859 199.104401 
L 190.116263 199.130096 
L 192.256667 199.155399 
L 194.397071 199.180195 
L 196.537475 199.204581 
L 198.677879 199.228601 
L 200.818283 199.252243 
L 202.958687 199.275451 
L 205.099091 199.298281 
L 207.239495 199.320725 
L 209.379899 199.342754 
L 211.520303 199.364517 
L 213.660707 199.386055 
L 215.801111 199.407369 
L 217.941515 199.428357 
L 220.081919 199.449209 
L 222.222323 199.46992 
L 224.362727 199.490592 
L 226.503131 199.511078 
L 228.643535 199.531459 
L 230.783939 199.551729 
L 232.924343 199.571801 
L 235.064747 199.591692 
L 237.205152 199.611544 
L 239.345556 199.631336 
L 241.48596 199.650963 
L 243.626364 199.670505 
L 245.766768 199.689971 
L 247.907172 199.709354 
L 250.047576 199.728586 
L 252.18798 199.74769 
L 254.328384 199.766674 
L 256.468788 199.785525 
L 258.609192 199.804155 
L 260.749596 199.822679 
L 262.89 199.841109 
z
" style="fill:#3182bd;"/>
   </g>
   <g id="PolyCollection_2">
    <path clip-path="url(#pfc6d85c3d3)" d="M 262.89 169.318133 
L 262.89 199.841109 
L 260.749596 199.822679 
L 258.609192 199.804155 
L 256.468788 199.785525 
L 254.328384 199.766674 
L 252.18798 199.74769 
L 250.047576 199.728586 
L 247.907172 199.709354 
L 245.766768 199.689971 
L 243.626364 199.670505 
L 241.48596 199.650963 
L 239.345556 199.631336 
L 237.205152 199.611544 
L 235.064747 199.591692 
L 232.924343 199.571801 
L 230.783939 199.551729 
L 228.643535 199.531459 
L 226.503131 199.511078 
L 224.362727 199.490592 
L 222.222323 199.46992 
L 220.081919 199.449209 
L 217.941515 199.428357 
L 215.801111 199.407369 
L 213.660707 199.386055 
L 211.520303 199.364517 
L 209.379899 199.342754 
L 207.239495 199.320725 
L 205.099091 199.298281 
L 202.958687 199.275451 
L 200.818283 199.252243 
L 198.677879 199.228601 
L 196.537475 199.204581 
L 194.397071 199.180195 
L 192.256667 199.155399 
L 190.116263 199.130096 
L 187.975859 199.104401 
L 185.835455 199.078343 
L 183.695051 199.051997 
L 181.554646 199.025371 
L 179.414242 198.998417 
L 177.273838 198.971081 
L 175.133434 198.943253 
L 172.99303 198.915042 
L 170.852626 198.886269 
L 168.712222 198.856828 
L 166.571818 198.826758 
L 164.431414 198.795968 
L 162.29101 198.764513 
L 160.150606 198.732605 
L 158.010202 198.700243 
L 155.869798 198.667269 
L 153.729394 198.633688 
L 151.58899 198.59949 
L 149.448586 198.564771 
L 147.308182 198.529558 
L 145.167778 198.493519 
L 143.027374 198.454519 
L 140.88697 198.41552 
L 138.746566 198.37652 
L 136.606162 198.337521 
L 134.465758 198.298522 
L 132.325354 198.259522 
L 130.184949 198.220523 
L 128.044545 198.181524 
L 125.904141 198.142524 
L 123.763737 198.103525 
L 121.623333 198.064525 
L 119.482929 198.025526 
L 117.342525 197.986527 
L 115.202121 197.947527 
L 113.061717 197.908528 
L 110.921313 197.869529 
L 108.780909 197.830529 
L 106.640505 197.79153 
L 104.500101 197.752531 
L 102.359697 197.713531 
L 100.219293 197.674532 
L 98.078889 197.635532 
L 95.938485 197.596533 
L 93.798081 197.557534 
L 91.657677 197.518534 
L 89.517273 197.479535 
L 87.376869 197.440536 
L 85.236465 197.401536 
L 83.096061 197.362537 
L 80.955657 197.323537 
L 78.815253 197.284538 
L 76.674848 197.245539 
L 74.534444 197.206539 
L 72.39404 197.16754 
L 70.253636 197.128541 
L 68.113232 197.089541 
L 65.972828 197.050542 
L 63.832424 197.011542 
L 61.69202 196.972543 
L 59.551616 196.933544 
L 57.411212 196.894544 
L 55.270808 196.855545 
L 53.130404 196.816546 
L 50.99 196.777546 
L 50.99 165.457195 
L 50.99 165.457195 
L 53.130404 165.496194 
L 55.270808 165.535193 
L 57.411212 165.574193 
L 59.551616 165.613192 
L 61.69202 165.652192 
L 63.832424 165.691191 
L 65.972828 165.73019 
L 68.113232 165.76919 
L 70.253636 165.808189 
L 72.39404 165.847188 
L 74.534444 165.886188 
L 76.674848 165.925187 
L 78.815253 165.964187 
L 80.955657 166.003186 
L 83.096061 166.042185 
L 85.236465 166.081185 
L 87.376869 166.120184 
L 89.517273 166.159183 
L 91.657677 166.198183 
L 93.798081 166.237182 
L 95.938485 166.276182 
L 98.078889 166.315181 
L 100.219293 166.35418 
L 102.359697 166.39318 
L 104.500101 166.432179 
L 106.640505 166.471178 
L 108.780909 166.510178 
L 110.921313 166.549177 
L 113.061717 166.588177 
L 115.202121 166.627176 
L 117.342525 166.666175 
L 119.482929 166.705175 
L 121.623333 166.744174 
L 123.763737 166.783173 
L 125.904141 166.822173 
L 128.044545 166.861172 
L 130.184949 166.900172 
L 132.325354 166.939171 
L 134.465758 166.97817 
L 136.606162 167.01717 
L 138.746566 167.056169 
L 140.88697 167.095168 
L 143.027374 167.134168 
L 145.167778 167.173167 
L 147.308182 167.212167 
L 149.448586 167.251166 
L 151.58899 167.290165 
L 153.729394 167.329165 
L 155.869798 167.368164 
L 158.010202 167.407163 
L 160.150606 167.446163 
L 162.29101 167.485162 
L 164.431414 167.524162 
L 166.571818 167.563161 
L 168.712222 167.60216 
L 170.852626 167.64116 
L 172.99303 167.680159 
L 175.133434 167.719158 
L 177.273838 167.758158 
L 179.414242 167.797157 
L 181.554646 167.836157 
L 183.695051 167.875156 
L 185.835455 167.914155 
L 187.975859 167.953155 
L 190.116263 167.992154 
L 192.256667 168.031153 
L 194.397071 168.070153 
L 196.537475 168.109152 
L 198.677879 168.148151 
L 200.818283 168.187151 
L 202.958687 168.22615 
L 205.099091 168.26515 
L 207.239495 168.304149 
L 209.379899 168.343148 
L 211.520303 168.382148 
L 213.660707 168.421147 
L 215.801111 168.460146 
L 217.941515 168.499146 
L 220.081919 168.538145 
L 222.222323 168.577145 
L 224.362727 168.616144 
L 226.503131 168.655143 
L 228.643535 168.694143 
L 230.783939 168.733142 
L 232.924343 168.772141 
L 235.064747 168.811141 
L 237.205152 168.85014 
L 239.345556 168.88914 
L 241.48596 168.928139 
L 243.626364 168.967138 
L 245.766768 169.006138 
L 247.907172 169.045137 
L 250.047576 169.084136 
L 252.18798 169.123136 
L 254.328384 169.162135 
L 256.468788 169.201135 
L 258.609192 169.240134 
L 260.749596 169.279133 
L 262.89 169.318133 
z
" style="fill:#6baed6;"/>
   </g>
   <g id="PolyCollection_3">
    <path clip-path="url(#pfc6d85c3d3)" d="M 262.89 165.93087 
L 262.89 169.318133 
L 260.749596 169.279133 
L 258.609192 169.240134 
L 256.468788 169.201135 
L 254.328384 169.162135 
L 252.18798 169.123136 
L 250.047576 169.084136 
L 247.907172 169.045137 
L 245.766768 169.006138 
L 243.626364 168.967138 
L 241.48596 168.928139 
L 239.345556 168.88914 
L 237.205152 168.85014 
L 235.064747 168.811141 
L 232.924343 168.772141 
L 230.783939 168.733142 
L 228.643535 168.694143 
L 226.503131 168.655143 
L 224.362727 168.616144 
L 222.222323 168.577145 
L 220.081919 168.538145 
L 217.941515 168.499146 
L 215.801111 168.460146 
L 213.660707 168.421147 
L 211.520303 168.382148 
L 209.379899 168.343148 
L 207.239495 168.304149 
L 205.099091 168.26515 
L 202.958687 168.22615 
L 200.818283 168.187151 
L 198.677879 168.148151 
L 196.537475 168.109152 
L 194.397071 168.070153 
L 192.256667 168.031153 
L 190.116263 167.992154 
L 187.975859 167.953155 
L 185.835455 167.914155 
L 183.695051 167.875156 
L 181.554646 167.836157 
L 179.414242 167.797157 
L 177.273838 167.758158 
L 175.133434 167.719158 
L 172.99303 167.680159 
L 170.852626 167.64116 
L 168.712222 167.60216 
L 166.571818 167.563161 
L 164.431414 167.524162 
L 162.29101 167.485162 
L 160.150606 167.446163 
L 158.010202 167.407163 
L 155.869798 167.368164 
L 153.729394 167.329165 
L 151.58899 167.290165 
L 149.448586 167.251166 
L 147.308182 167.212167 
L 145.167778 167.173167 
L 143.027374 167.134168 
L 140.88697 167.095168 
L 138.746566 167.056169 
L 136.606162 167.01717 
L 134.465758 166.97817 
L 132.325354 166.939171 
L 130.184949 166.900172 
L 128.044545 166.861172 
L 125.904141 166.822173 
L 123.763737 166.783173 
L 121.623333 166.744174 
L 119.482929 166.705175 
L 117.342525 166.666175 
L 115.202121 166.627176 
L 113.061717 166.588177 
L 110.921313 166.549177 
L 108.780909 166.510178 
L 106.640505 166.471178 
L 104.500101 166.432179 
L 102.359697 166.39318 
L 100.219293 166.35418 
L 98.078889 166.315181 
L 95.938485 166.276182 
L 93.798081 166.237182 
L 91.657677 166.198183 
L 89.517273 166.159183 
L 87.376869 166.120184 
L 85.236465 166.081185 
L 83.096061 166.042185 
L 80.955657 166.003186 
L 78.815253 165.964187 
L 76.674848 165.925187 
L 74.534444 165.886188 
L 72.39404 165.847188 
L 70.253636 165.808189 
L 68.113232 165.76919 
L 65.972828 165.73019 
L 63.832424 165.691191 
L 61.69202 165.652192 
L 59.551616 165.613192 
L 57.411212 165.574193 
L 55.270808 165.535193 
L 53.130404 165.496194 
L 50.99 165.457195 
L 50.99 162.069932 
L 50.99 162.069932 
L 53.130404 162.108931 
L 55.270808 162.14793 
L 57.411212 162.18693 
L 59.551616 162.225929 
L 61.69202 162.264929 
L 63.832424 162.303928 
L 65.972828 162.342927 
L 68.113232 162.381927 
L 70.253636 162.420926 
L 72.39404 162.459925 
L 74.534444 162.498925 
L 76.674848 162.537924 
L 78.815253 162.576924 
L 80.955657 162.615923 
L 83.096061 162.654922 
L 85.236465 162.693922 
L 87.376869 162.732921 
L 89.517273 162.77192 
L 91.657677 162.81092 
L 93.798081 162.849919 
L 95.938485 162.888919 
L 98.078889 162.927918 
L 100.219293 162.966917 
L 102.359697 163.005917 
L 104.500101 163.044916 
L 106.640505 163.083915 
L 108.780909 163.122915 
L 110.921313 163.161914 
L 113.061717 163.200914 
L 115.202121 163.239913 
L 117.342525 163.278912 
L 119.482929 163.317912 
L 121.623333 163.356911 
L 123.763737 163.39591 
L 125.904141 163.43491 
L 128.044545 163.473909 
L 130.184949 163.512909 
L 132.325354 163.551908 
L 134.465758 163.590907 
L 136.606162 163.629907 
L 138.746566 163.668906 
L 140.88697 163.707905 
L 143.027374 163.746905 
L 145.167778 163.785904 
L 147.308182 163.824904 
L 149.448586 163.863903 
L 151.58899 163.902902 
L 153.729394 163.941902 
L 155.869798 163.980901 
L 158.010202 164.0199 
L 160.150606 164.0589 
L 162.29101 164.097899 
L 164.431414 164.136898 
L 166.571818 164.175898 
L 168.712222 164.214897 
L 170.852626 164.253897 
L 172.99303 164.292896 
L 175.133434 164.331895 
L 177.273838 164.370895 
L 179.414242 164.409894 
L 181.554646 164.448893 
L 183.695051 164.487893 
L 185.835455 164.526892 
L 187.975859 164.565892 
L 190.116263 164.604891 
L 192.256667 164.64389 
L 194.397071 164.68289 
L 196.537475 164.721889 
L 198.677879 164.760888 
L 200.818283 164.799888 
L 202.958687 164.838887 
L 205.099091 164.877887 
L 207.239495 164.916886 
L 209.379899 164.955885 
L 211.520303 164.994885 
L 213.660707 165.033884 
L 215.801111 165.072883 
L 217.941515 165.111883 
L 220.081919 165.150882 
L 222.222323 165.189882 
L 224.362727 165.228881 
L 226.503131 165.26788 
L 228.643535 165.30688 
L 230.783939 165.345879 
L 232.924343 165.384878 
L 235.064747 165.423878 
L 237.205152 165.462877 
L 239.345556 165.501877 
L 241.48596 165.540876 
L 243.626364 165.579875 
L 245.766768 165.618875 
L 247.907172 165.657874 
L 250.047576 165.696873 
L 252.18798 165.735873 
L 254.328384 165.774872 
L 256.468788 165.813872 
L 258.609192 165.852871 
L 260.749596 165.89187 
L 262.89 165.93087 
z
" style="fill:#9ecae1;"/>
   </g>
   <g id="PolyCollection_4">
    <path clip-path="url(#pfc6d85c3d3)" d="M 262.89 162.160199 
L 262.89 165.93087 
L 260.749596 165.89187 
L 258.609192 165.852871 
L 256.468788 165.813872 
L 254.328384 165.774872 
L 252.18798 165.735873 
L 250.047576 165.696873 
L 247.907172 165.657874 
L 245.766768 165.618875 
L 243.626364 165.579875 
L 241.48596 165.540876 
L 239.345556 165.501877 
L 237.205152 165.462877 
L 235.064747 165.423878 
L 232.924343 165.384878 
L 230.783939 165.345879 
L 228.643535 165.30688 
L 226.503131 165.26788 
L 224.362727 165.228881 
L 222.222323 165.189882 
L 220.081919 165.150882 
L 217.941515 165.111883 
L 215.801111 165.072883 
L 213.660707 165.033884 
L 211.520303 164.994885 
L 209.379899 164.955885 
L 207.239495 164.916886 
L 205.099091 164.877887 
L 202.958687 164.838887 
L 200.818283 164.799888 
L 198.677879 164.760888 
L 196.537475 164.721889 
L 194.397071 164.68289 
L 192.256667 164.64389 
L 190.116263 164.604891 
L 187.975859 164.565892 
L 185.835455 164.526892 
L 183.695051 164.487893 
L 181.554646 164.448893 
L 179.414242 164.409894 
L 177.273838 164.370895 
L 175.133434 164.331895 
L 172.99303 164.292896 
L 170.852626 164.253897 
L 168.712222 164.214897 
L 166.571818 164.175898 
L 164.431414 164.136898 
L 162.29101 164.097899 
L 160.150606 164.0589 
L 158.010202 164.0199 
L 155.869798 163.980901 
L 153.729394 163.941902 
L 151.58899 163.902902 
L 149.448586 163.863903 
L 147.308182 163.824904 
L 145.167778 163.785904 
L 143.027374 163.746905 
L 140.88697 163.707905 
L 138.746566 163.668906 
L 136.606162 163.629907 
L 134.465758 163.590907 
L 132.325354 163.551908 
L 130.184949 163.512909 
L 128.044545 163.473909 
L 125.904141 163.43491 
L 123.763737 163.39591 
L 121.623333 163.356911 
L 119.482929 163.317912 
L 117.342525 163.278912 
L 115.202121 163.239913 
L 113.061717 163.200914 
L 110.921313 163.161914 
L 108.780909 163.122915 
L 106.640505 163.083915 
L 104.500101 163.044916 
L 102.359697 163.005917 
L 100.219293 162.966917 
L 98.078889 162.927918 
L 95.938485 162.888919 
L 93.798081 162.849919 
L 91.657677 162.81092 
L 89.517273 162.77192 
L 87.376869 162.732921 
L 85.236465 162.693922 
L 83.096061 162.654922 
L 80.955657 162.615923 
L 78.815253 162.576924 
L 76.674848 162.537924 
L 74.534444 162.498925 
L 72.39404 162.459925 
L 70.253636 162.420926 
L 68.113232 162.381927 
L 65.972828 162.342927 
L 63.832424 162.303928 
L 61.69202 162.264929 
L 59.551616 162.225929 
L 57.411212 162.18693 
L 55.270808 162.14793 
L 53.130404 162.108931 
L 50.99 162.069932 
L 50.99 158.299261 
L 50.99 158.299261 
L 53.130404 158.338261 
L 55.270808 158.37726 
L 57.411212 158.416259 
L 59.551616 158.455259 
L 61.69202 158.494258 
L 63.832424 158.533257 
L 65.972828 158.572257 
L 68.113232 158.611256 
L 70.253636 158.650256 
L 72.39404 158.689255 
L 74.534444 158.728254 
L 76.674848 158.767254 
L 78.815253 158.806253 
L 80.955657 158.845252 
L 83.096061 158.884252 
L 85.236465 158.923251 
L 87.376869 158.962251 
L 89.517273 159.00125 
L 91.657677 159.040249 
L 93.798081 159.079249 
L 95.938485 159.118248 
L 98.078889 159.157247 
L 100.219293 159.196247 
L 102.359697 159.235246 
L 104.500101 159.274246 
L 106.640505 159.313245 
L 108.780909 159.352244 
L 110.921313 159.391244 
L 113.061717 159.430243 
L 115.202121 159.469242 
L 117.342525 159.508242 
L 119.482929 159.547241 
L 121.623333 159.586241 
L 123.763737 159.62524 
L 125.904141 159.664239 
L 128.044545 159.703239 
L 130.184949 159.742238 
L 132.325354 159.781237 
L 134.465758 159.820237 
L 136.606162 159.859236 
L 138.746566 159.898236 
L 140.88697 159.937235 
L 143.027374 159.976234 
L 145.167778 160.015234 
L 147.308182 160.054233 
L 149.448586 160.093232 
L 151.58899 160.132232 
L 153.729394 160.171231 
L 155.869798 160.210231 
L 158.010202 160.24923 
L 160.150606 160.288229 
L 162.29101 160.327229 
L 164.431414 160.366228 
L 166.571818 160.405227 
L 168.712222 160.444227 
L 170.852626 160.483226 
L 172.99303 160.522226 
L 175.133434 160.561225 
L 177.273838 160.600224 
L 179.414242 160.639224 
L 181.554646 160.678223 
L 183.695051 160.717222 
L 185.835455 160.756222 
L 187.975859 160.795221 
L 190.116263 160.834221 
L 192.256667 160.87322 
L 194.397071 160.912219 
L 196.537475 160.951219 
L 198.677879 160.990218 
L 200.818283 161.029217 
L 202.958687 161.068217 
L 205.099091 161.107216 
L 207.239495 161.146215 
L 209.379899 161.185215 
L 211.520303 161.224214 
L 213.660707 161.263214 
L 215.801111 161.302213 
L 217.941515 161.341212 
L 220.081919 161.380212 
L 222.222323 161.419211 
L 224.362727 161.45821 
L 226.503131 161.49721 
L 228.643535 161.536209 
L 230.783939 161.575209 
L 232.924343 161.614208 
L 235.064747 161.653207 
L 237.205152 161.692207 
L 239.345556 161.731206 
L 241.48596 161.770205 
L 243.626364 161.809205 
L 245.766768 161.848204 
L 247.907172 161.887204 
L 250.047576 161.926203 
L 252.18798 161.965202 
L 254.328384 162.004202 
L 256.468788 162.043201 
L 258.609192 162.0822 
L 260.749596 162.1212 
L 262.89 162.160199 
z
" style="fill:#c6dbef;"/>
   </g>
   <g id="PolyCollection_5">
    <path clip-path="url(#pfc6d85c3d3)" d="M 262.89 148.223635 
L 262.89 162.160199 
L 260.749596 162.1212 
L 258.609192 162.0822 
L 256.468788 162.043201 
L 254.328384 162.004202 
L 252.18798 161.965202 
L 250.047576 161.926203 
L 247.907172 161.887204 
L 245.766768 161.848204 
L 243.626364 161.809205 
L 241.48596 161.770205 
L 239.345556 161.731206 
L 237.205152 161.692207 
L 235.064747 161.653207 
L 232.924343 161.614208 
L 230.783939 161.575209 
L 228.643535 161.536209 
L 226.503131 161.49721 
L 224.362727 161.45821 
L 222.222323 161.419211 
L 220.081919 161.380212 
L 217.941515 161.341212 
L 215.801111 161.302213 
L 213.660707 161.263214 
L 211.520303 161.224214 
L 209.379899 161.185215 
L 207.239495 161.146215 
L 205.099091 161.107216 
L 202.958687 161.068217 
L 200.818283 161.029217 
L 198.677879 160.990218 
L 196.537475 160.951219 
L 194.397071 160.912219 
L 192.256667 160.87322 
L 190.116263 160.834221 
L 187.975859 160.795221 
L 185.835455 160.756222 
L 183.695051 160.717222 
L 181.554646 160.678223 
L 179.414242 160.639224 
L 177.273838 160.600224 
L 175.133434 160.561225 
L 172.99303 160.522226 
L 170.852626 160.483226 
L 168.712222 160.444227 
L 166.571818 160.405227 
L 164.431414 160.366228 
L 162.29101 160.327229 
L 160.150606 160.288229 
L 158.010202 160.24923 
L 155.869798 160.210231 
L 153.729394 160.171231 
L 151.58899 160.132232 
L 149.448586 160.093232 
L 147.308182 160.054233 
L 145.167778 160.015234 
L 143.027374 159.976234 
L 140.88697 159.937235 
L 138.746566 159.898236 
L 136.606162 159.859236 
L 134.465758 159.820237 
L 132.325354 159.781237 
L 130.184949 159.742238 
L 128.044545 159.703239 
L 125.904141 159.664239 
L 123.763737 159.62524 
L 121.623333 159.586241 
L 119.482929 159.547241 
L 117.342525 159.508242 
L 115.202121 159.469242 
L 113.061717 159.430243 
L 110.921313 159.391244 
L 108.780909 159.352244 
L 106.640505 159.313245 
L 104.500101 159.274246 
L 102.359697 159.235246 
L 100.219293 159.196247 
L 98.078889 159.157247 
L 95.938485 159.118248 
L 93.798081 159.079249 
L 91.657677 159.040249 
L 89.517273 159.00125 
L 87.376869 158.962251 
L 85.236465 158.923251 
L 83.096061 158.884252 
L 80.955657 158.845252 
L 78.815253 158.806253 
L 76.674848 158.767254 
L 74.534444 158.728254 
L 72.39404 158.689255 
L 70.253636 158.650256 
L 68.113232 158.611256 
L 65.972828 158.572257 
L 63.832424 158.533257 
L 61.69202 158.494258 
L 59.551616 158.455259 
L 57.411212 158.416259 
L 55.270808 158.37726 
L 53.130404 158.338261 
L 50.99 158.299261 
L 50.99 144.362697 
L 50.99 144.362697 
L 53.130404 144.401696 
L 55.270808 144.440695 
L 57.411212 144.479695 
L 59.551616 144.518694 
L 61.69202 144.557693 
L 63.832424 144.596693 
L 65.972828 144.635692 
L 68.113232 144.674692 
L 70.253636 144.713691 
L 72.39404 144.75269 
L 74.534444 144.79169 
L 76.674848 144.830689 
L 78.815253 144.869688 
L 80.955657 144.908688 
L 83.096061 144.947687 
L 85.236465 144.986687 
L 87.376869 145.025686 
L 89.517273 145.064685 
L 91.657677 145.103685 
L 93.798081 145.142684 
L 95.938485 145.181683 
L 98.078889 145.220683 
L 100.219293 145.259682 
L 102.359697 145.298682 
L 104.500101 145.337681 
L 106.640505 145.37668 
L 108.780909 145.41568 
L 110.921313 145.454679 
L 113.061717 145.493678 
L 115.202121 145.532678 
L 117.342525 145.571677 
L 119.482929 145.610677 
L 121.623333 145.649676 
L 123.763737 145.688675 
L 125.904141 145.727675 
L 128.044545 145.766674 
L 130.184949 145.805673 
L 132.325354 145.844673 
L 134.465758 145.883672 
L 136.606162 145.922672 
L 138.746566 145.961671 
L 140.88697 146.00067 
L 143.027374 146.03967 
L 145.167778 146.078669 
L 147.308182 146.117668 
L 149.448586 146.156668 
L 151.58899 146.195667 
L 153.729394 146.234667 
L 155.869798 146.273666 
L 158.010202 146.312665 
L 160.150606 146.351665 
L 162.29101 146.390664 
L 164.431414 146.429663 
L 166.571818 146.468663 
L 168.712222 146.507662 
L 170.852626 146.546661 
L 172.99303 146.585661 
L 175.133434 146.62466 
L 177.273838 146.66366 
L 179.414242 146.702659 
L 181.554646 146.741658 
L 183.695051 146.780658 
L 185.835455 146.819657 
L 187.975859 146.858656 
L 190.116263 146.897656 
L 192.256667 146.936655 
L 194.397071 146.975655 
L 196.537475 147.014654 
L 198.677879 147.053653 
L 200.818283 147.092653 
L 202.958687 147.131652 
L 205.099091 147.170651 
L 207.239495 147.209651 
L 209.379899 147.24865 
L 211.520303 147.28765 
L 213.660707 147.326649 
L 215.801111 147.365648 
L 217.941515 147.404648 
L 220.081919 147.443647 
L 222.222323 147.482646 
L 224.362727 147.521646 
L 226.503131 147.560645 
L 228.643535 147.599645 
L 230.783939 147.638644 
L 232.924343 147.677643 
L 235.064747 147.716643 
L 237.205152 147.755642 
L 239.345556 147.794641 
L 241.48596 147.833641 
L 243.626364 147.87264 
L 245.766768 147.91164 
L 247.907172 147.950639 
L 250.047576 147.989638 
L 252.18798 148.028638 
L 254.328384 148.067637 
L 256.468788 148.106636 
L 258.609192 148.145636 
L 260.749596 148.184635 
L 262.89 148.223635 
z
" style="fill:#e6550d;"/>
   </g>
   <g id="PolyCollection_6">
    <path clip-path="url(#pfc6d85c3d3)" d="M 262.89 127.625528 
L 262.89 148.223635 
L 260.749596 148.184635 
L 258.609192 148.145636 
L 256.468788 148.106636 
L 254.328384 148.067637 
L 252.18798 148.028638 
L 250.047576 147.989638 
L 247.907172 147.950639 
L 245.766768 147.91164 
L 243.626364 147.87264 
L 241.48596 147.833641 
L 239.345556 147.794641 
L 237.205152 147.755642 
L 235.064747 147.716643 
L 232.924343 147.677643 
L 230.783939 147.638644 
L 228.643535 147.599645 
L 226.503131 147.560645 
L 224.362727 147.521646 
L 222.222323 147.482646 
L 220.081919 147.443647 
L 217.941515 147.404648 
L 215.801111 147.365648 
L 213.660707 147.326649 
L 211.520303 147.28765 
L 209.379899 147.24865 
L 207.239495 147.209651 
L 205.099091 147.170651 
L 202.958687 147.131652 
L 200.818283 147.092653 
L 198.677879 147.053653 
L 196.537475 147.014654 
L 194.397071 146.975655 
L 192.256667 146.936655 
L 190.116263 146.897656 
L 187.975859 146.858656 
L 185.835455 146.819657 
L 183.695051 146.780658 
L 181.554646 146.741658 
L 179.414242 146.702659 
L 177.273838 146.66366 
L 175.133434 146.62466 
L 172.99303 146.585661 
L 170.852626 146.546661 
L 168.712222 146.507662 
L 166.571818 146.468663 
L 164.431414 146.429663 
L 162.29101 146.390664 
L 160.150606 146.351665 
L 158.010202 146.312665 
L 155.869798 146.273666 
L 153.729394 146.234667 
L 151.58899 146.195667 
L 149.448586 146.156668 
L 147.308182 146.117668 
L 145.167778 146.078669 
L 143.027374 146.03967 
L 140.88697 146.00067 
L 138.746566 145.961671 
L 136.606162 145.922672 
L 134.465758 145.883672 
L 132.325354 145.844673 
L 130.184949 145.805673 
L 128.044545 145.766674 
L 125.904141 145.727675 
L 123.763737 145.688675 
L 121.623333 145.649676 
L 119.482929 145.610677 
L 117.342525 145.571677 
L 115.202121 145.532678 
L 113.061717 145.493678 
L 110.921313 145.454679 
L 108.780909 145.41568 
L 106.640505 145.37668 
L 104.500101 145.337681 
L 102.359697 145.298682 
L 100.219293 145.259682 
L 98.078889 145.220683 
L 95.938485 145.181683 
L 93.798081 145.142684 
L 91.657677 145.103685 
L 89.517273 145.064685 
L 87.376869 145.025686 
L 85.236465 144.986687 
L 83.096061 144.947687 
L 80.955657 144.908688 
L 78.815253 144.869688 
L 76.674848 144.830689 
L 74.534444 144.79169 
L 72.39404 144.75269 
L 70.253636 144.713691 
L 68.113232 144.674692 
L 65.972828 144.635692 
L 63.832424 144.596693 
L 61.69202 144.557693 
L 59.551616 144.518694 
L 57.411212 144.479695 
L 55.270808 144.440695 
L 53.130404 144.401696 
L 50.99 144.362697 
L 50.99 123.76459 
L 50.99 123.76459 
L 53.130404 123.803589 
L 55.270808 123.842589 
L 57.411212 123.881588 
L 59.551616 123.920587 
L 61.69202 123.959587 
L 63.832424 123.998586 
L 65.972828 124.037586 
L 68.113232 124.076585 
L 70.253636 124.115584 
L 72.39404 124.154584 
L 74.534444 124.193583 
L 76.674848 124.232582 
L 78.815253 124.271582 
L 80.955657 124.310581 
L 83.096061 124.349581 
L 85.236465 124.38858 
L 87.376869 124.427579 
L 89.517273 124.466579 
L 91.657677 124.505578 
L 93.798081 124.544577 
L 95.938485 124.583577 
L 98.078889 124.622576 
L 100.219293 124.661576 
L 102.359697 124.700575 
L 104.500101 124.739574 
L 106.640505 124.778574 
L 108.780909 124.817573 
L 110.921313 124.856572 
L 113.061717 124.895572 
L 115.202121 124.934571 
L 117.342525 124.973571 
L 119.482929 125.01257 
L 121.623333 125.051569 
L 123.763737 125.090569 
L 125.904141 125.129568 
L 128.044545 125.168567 
L 130.184949 125.207567 
L 132.325354 125.246566 
L 134.465758 125.285566 
L 136.606162 125.324565 
L 138.746566 125.363564 
L 140.88697 125.402564 
L 143.027374 125.441563 
L 145.167778 125.480562 
L 147.308182 125.519562 
L 149.448586 125.558561 
L 151.58899 125.597561 
L 153.729394 125.63656 
L 155.869798 125.675559 
L 158.010202 125.714559 
L 160.150606 125.753558 
L 162.29101 125.792557 
L 164.431414 125.831557 
L 166.571818 125.870556 
L 168.712222 125.909555 
L 170.852626 125.948555 
L 172.99303 125.987554 
L 175.133434 126.026554 
L 177.273838 126.065553 
L 179.414242 126.104552 
L 181.554646 126.143552 
L 183.695051 126.182551 
L 185.835455 126.22155 
L 187.975859 126.26055 
L 190.116263 126.299549 
L 192.256667 126.338549 
L 194.397071 126.377548 
L 196.537475 126.416547 
L 198.677879 126.455547 
L 200.818283 126.494546 
L 202.958687 126.533545 
L 205.099091 126.572545 
L 207.239495 126.611544 
L 209.379899 126.650544 
L 211.520303 126.689543 
L 213.660707 126.728542 
L 215.801111 126.767542 
L 217.941515 126.806541 
L 220.081919 126.84554 
L 222.222323 126.88454 
L 224.362727 126.923539 
L 226.503131 126.962539 
L 228.643535 127.001538 
L 230.783939 127.040537 
L 232.924343 127.079537 
L 235.064747 127.118536 
L 237.205152 127.157535 
L 239.345556 127.196535 
L 241.48596 127.235534 
L 243.626364 127.274534 
L 245.766768 127.313533 
L 247.907172 127.352532 
L 250.047576 127.391532 
L 252.18798 127.430531 
L 254.328384 127.46953 
L 256.468788 127.50853 
L 258.609192 127.547529 
L 260.749596 127.586529 
L 262.89 127.625528 
z
" style="fill:#fd8d3c;"/>
   </g>
   <g id="PolyCollection_7">
    <path clip-path="url(#pfc6d85c3d3)" d="M 262.89 127.625528 
L 262.89 127.625528 
L 260.749596 127.586529 
L 258.609192 127.547529 
L 256.468788 127.50853 
L 254.328384 127.46953 
L 252.18798 127.430531 
L 250.047576 127.391532 
L 247.907172 127.352532 
L 245.766768 127.313533 
L 243.626364 127.274534 
L 241.48596 127.235534 
L 239.345556 127.196535 
L 237.205152 127.157535 
L 235.064747 127.118536 
L 232.924343 127.079537 
L 230.783939 127.040537 
L 228.643535 127.001538 
L 226.503131 126.962539 
L 224.362727 126.923539 
L 222.222323 126.88454 
L 220.081919 126.84554 
L 217.941515 126.806541 
L 215.801111 126.767542 
L 213.660707 126.728542 
L 211.520303 126.689543 
L 209.379899 126.650544 
L 207.239495 126.611544 
L 205.099091 126.572545 
L 202.958687 126.533545 
L 200.818283 126.494546 
L 198.677879 126.455547 
L 196.537475 126.416547 
L 194.397071 126.377548 
L 192.256667 126.338549 
L 190.116263 126.299549 
L 187.975859 126.26055 
L 185.835455 126.22155 
L 183.695051 126.182551 
L 181.554646 126.143552 
L 179.414242 126.104552 
L 177.273838 126.065553 
L 175.133434 126.026554 
L 172.99303 125.987554 
L 170.852626 125.948555 
L 168.712222 125.909555 
L 166.571818 125.870556 
L 164.431414 125.831557 
L 162.29101 125.792557 
L 160.150606 125.753558 
L 158.010202 125.714559 
L 155.869798 125.675559 
L 153.729394 125.63656 
L 151.58899 125.597561 
L 149.448586 125.558561 
L 147.308182 125.519562 
L 145.167778 125.480562 
L 143.027374 125.441563 
L 140.88697 125.402564 
L 138.746566 125.363564 
L 136.606162 125.324565 
L 134.465758 125.285566 
L 132.325354 125.246566 
L 130.184949 125.207567 
L 128.044545 125.168567 
L 125.904141 125.129568 
L 123.763737 125.090569 
L 121.623333 125.051569 
L 119.482929 125.01257 
L 117.342525 124.973571 
L 115.202121 124.934571 
L 113.061717 124.895572 
L 110.921313 124.856572 
L 108.780909 124.817573 
L 106.640505 124.778574 
L 104.500101 124.739574 
L 102.359697 124.700575 
L 100.219293 124.661576 
L 98.078889 124.622576 
L 95.938485 124.583577 
L 93.798081 124.544577 
L 91.657677 124.505578 
L 89.517273 124.466579 
L 87.376869 124.427579 
L 85.236465 124.38858 
L 83.096061 124.349581 
L 80.955657 124.310581 
L 78.815253 124.271582 
L 76.674848 124.232582 
L 74.534444 124.193583 
L 72.39404 124.154584 
L 70.253636 124.115584 
L 68.113232 124.076585 
L 65.972828 124.037586 
L 63.832424 123.998586 
L 61.69202 123.959587 
L 59.551616 123.920587 
L 57.411212 123.881588 
L 55.270808 123.842589 
L 53.130404 123.803589 
L 50.99 123.76459 
L 50.99 113.125937 
L 50.99 113.125937 
L 53.130404 113.272397 
L 55.270808 113.418858 
L 57.411212 113.565318 
L 59.551616 113.711779 
L 61.69202 113.858239 
L 63.832424 114.0047 
L 65.972828 114.15116 
L 68.113232 114.297621 
L 70.253636 114.444081 
L 72.39404 114.590542 
L 74.534444 114.737002 
L 76.674848 114.883463 
L 78.815253 115.029923 
L 80.955657 115.176384 
L 83.096061 115.322844 
L 85.236465 115.469305 
L 87.376869 115.615765 
L 89.517273 115.762226 
L 91.657677 115.908686 
L 93.798081 116.055147 
L 95.938485 116.201608 
L 98.078889 116.348068 
L 100.219293 116.494529 
L 102.359697 116.640989 
L 104.500101 116.78745 
L 106.640505 116.93391 
L 108.780909 117.080371 
L 110.921313 117.226831 
L 113.061717 117.373292 
L 115.202121 117.519752 
L 117.342525 117.666213 
L 119.482929 117.812673 
L 121.623333 117.959134 
L 123.763737 118.105594 
L 125.904141 118.252055 
L 128.044545 118.398515 
L 130.184949 118.544976 
L 132.325354 118.691436 
L 134.465758 118.837897 
L 136.606162 118.984357 
L 138.746566 119.130818 
L 140.88697 119.277278 
L 143.027374 119.423739 
L 145.167778 119.570199 
L 147.308182 119.71666 
L 149.448586 119.86312 
L 151.58899 120.009581 
L 153.729394 120.156042 
L 155.869798 120.302502 
L 158.010202 120.448963 
L 160.150606 120.595423 
L 162.29101 120.741884 
L 164.431414 120.888344 
L 166.571818 121.034805 
L 168.712222 121.181265 
L 170.852626 121.327726 
L 172.99303 121.474186 
L 175.133434 121.620647 
L 177.273838 121.767107 
L 179.414242 121.913568 
L 181.554646 122.060028 
L 183.695051 122.206489 
L 185.835455 122.352949 
L 187.975859 122.49941 
L 190.116263 122.64587 
L 192.256667 122.792331 
L 194.397071 122.938791 
L 196.537475 123.085252 
L 198.677879 123.231712 
L 200.818283 123.378173 
L 202.958687 123.524633 
L 205.099091 123.671094 
L 207.239495 123.817554 
L 209.379899 123.964015 
L 211.520303 124.110475 
L 213.660707 124.256936 
L 215.801111 124.403397 
L 217.941515 124.549857 
L 220.081919 124.696318 
L 222.222323 124.842778 
L 224.362727 124.989239 
L 226.503131 125.135699 
L 228.643535 125.28216 
L 230.783939 125.42862 
L 232.924343 125.575081 
L 235.064747 125.721541 
L 237.205152 125.868002 
L 239.345556 126.014462 
L 241.48596 126.160923 
L 243.626364 126.307383 
L 245.766768 126.453844 
L 247.907172 126.600304 
L 250.047576 126.746765 
L 252.18798 126.893225 
L 254.328384 127.039686 
L 256.468788 127.186146 
L 258.609192 127.332607 
L 260.749596 127.479067 
L 262.89 127.625528 
z
" style="fill:#fdae6b;"/>
   </g>
   <g id="PolyCollection_8">
    <path clip-path="url(#pfc6d85c3d3)" d="M 262.89 52.918215 
L 262.89 127.625528 
L 260.749596 127.479067 
L 258.609192 127.332607 
L 256.468788 127.186146 
L 254.328384 127.039686 
L 252.18798 126.893225 
L 250.047576 126.746765 
L 247.907172 126.600304 
L 245.766768 126.453844 
L 243.626364 126.307383 
L 241.48596 126.160923 
L 239.345556 126.014462 
L 237.205152 125.868002 
L 235.064747 125.721541 
L 232.924343 125.575081 
L 230.783939 125.42862 
L 228.643535 125.28216 
L 226.503131 125.135699 
L 224.362727 124.989239 
L 222.222323 124.842778 
L 220.081919 124.696318 
L 217.941515 124.549857 
L 215.801111 124.403397 
L 213.660707 124.256936 
L 211.520303 124.110475 
L 209.379899 123.964015 
L 207.239495 123.817554 
L 205.099091 123.671094 
L 202.958687 123.524633 
L 200.818283 123.378173 
L 198.677879 123.231712 
L 196.537475 123.085252 
L 194.397071 122.938791 
L 192.256667 122.792331 
L 190.116263 122.64587 
L 187.975859 122.49941 
L 185.835455 122.352949 
L 183.695051 122.206489 
L 181.554646 122.060028 
L 179.414242 121.913568 
L 177.273838 121.767107 
L 175.133434 121.620647 
L 172.99303 121.474186 
L 170.852626 121.327726 
L 168.712222 121.181265 
L 166.571818 121.034805 
L 164.431414 120.888344 
L 162.29101 120.741884 
L 160.150606 120.595423 
L 158.010202 120.448963 
L 155.869798 120.302502 
L 153.729394 120.156042 
L 151.58899 120.009581 
L 149.448586 119.86312 
L 147.308182 119.71666 
L 145.167778 119.570199 
L 143.027374 119.423739 
L 140.88697 119.277278 
L 138.746566 119.130818 
L 136.606162 118.984357 
L 134.465758 118.837897 
L 132.325354 118.691436 
L 130.184949 118.544976 
L 128.044545 118.398515 
L 125.904141 118.252055 
L 123.763737 118.105594 
L 121.623333 117.959134 
L 119.482929 117.812673 
L 117.342525 117.666213 
L 115.202121 117.519752 
L 113.061717 117.373292 
L 110.921313 117.226831 
L 108.780909 117.080371 
L 106.640505 116.93391 
L 104.500101 116.78745 
L 102.359697 116.640989 
L 100.219293 116.494529 
L 98.078889 116.348068 
L 95.938485 116.201608 
L 93.798081 116.055147 
L 91.657677 115.908686 
L 89.517273 115.762226 
L 87.376869 115.615765 
L 85.236465 115.469305 
L 83.096061 115.322844 
L 80.955657 115.176384 
L 78.815253 115.029923 
L 76.674848 114.883463 
L 74.534444 114.737002 
L 72.39404 114.590542 
L 70.253636 114.444081 
L 68.113232 114.297621 
L 65.972828 114.15116 
L 63.832424 114.0047 
L 61.69202 113.858239 
L 59.551616 113.711779 
L 57.411212 113.565318 
L 55.270808 113.418858 
L 53.130404 113.272397 
L 50.99 113.125937 
L 50.99 38.418624 
L 50.99 38.418624 
L 53.130404 38.565085 
L 55.270808 38.711545 
L 57.411212 38.858006 
L 59.551616 39.004466 
L 61.69202 39.150927 
L 63.832424 39.297387 
L 65.972828 39.443848 
L 68.113232 39.590308 
L 70.253636 39.736769 
L 72.39404 39.883229 
L 74.534444 40.02969 
L 76.674848 40.17615 
L 78.815253 40.322611 
L 80.955657 40.469071 
L 83.096061 40.615532 
L 85.236465 40.761992 
L 87.376869 40.908453 
L 89.517273 41.054914 
L 91.657677 41.201374 
L 93.798081 41.347835 
L 95.938485 41.494295 
L 98.078889 41.640756 
L 100.219293 41.787216 
L 102.359697 41.933677 
L 104.500101 42.080137 
L 106.640505 42.226598 
L 108.780909 42.373058 
L 110.921313 42.519519 
L 113.061717 42.665979 
L 115.202121 42.81244 
L 117.342525 42.9589 
L 119.482929 43.105361 
L 121.623333 43.251821 
L 123.763737 43.398282 
L 125.904141 43.544742 
L 128.044545 43.691203 
L 130.184949 43.837663 
L 132.325354 43.984124 
L 134.465758 44.130584 
L 136.606162 44.277045 
L 138.746566 44.423505 
L 140.88697 44.569966 
L 143.027374 44.716426 
L 145.167778 44.862887 
L 147.308182 45.009348 
L 149.448586 45.155808 
L 151.58899 45.302269 
L 153.729394 45.448729 
L 155.869798 45.59519 
L 158.010202 45.74165 
L 160.150606 45.888111 
L 162.29101 46.034571 
L 164.431414 46.181032 
L 166.571818 46.327492 
L 168.712222 46.473953 
L 170.852626 46.620413 
L 172.99303 46.766874 
L 175.133434 46.913334 
L 177.273838 47.059795 
L 179.414242 47.206255 
L 181.554646 47.352716 
L 183.695051 47.499176 
L 185.835455 47.645637 
L 187.975859 47.792097 
L 190.116263 47.938558 
L 192.256667 48.085018 
L 194.397071 48.231479 
L 196.537475 48.377939 
L 198.677879 48.5244 
L 200.818283 48.67086 
L 202.958687 48.817321 
L 205.099091 48.963781 
L 207.239495 49.110242 
L 209.379899 49.256703 
L 211.520303 49.403163 
L 213.660707 49.549624 
L 215.801111 49.696084 
L 217.941515 49.842545 
L 220.081919 49.989005 
L 222.222323 50.135466 
L 224.362727 50.281926 
L 226.503131 50.428387 
L 228.643535 50.574847 
L 230.783939 50.721308 
L 232.924343 50.867768 
L 235.064747 51.014229 
L 237.205152 51.160689 
L 239.345556 51.30715 
L 241.48596 51.45361 
L 243.626364 51.600071 
L 245.766768 51.746531 
L 247.907172 51.892992 
L 250.047576 52.039452 
L 252.18798 52.185913 
L 254.328384 52.332373 
L 256.468788 52.478834 
L 258.609192 52.625294 
L 260.749596 52.771755 
L 262.89 52.918215 
z
" style="fill:#fdd0a2;"/>
   </g>
   <g id="PolyCollection_9">
    <path clip-path="url(#pfc6d85c3d3)" d="M 262.89 52.918215 
L 262.89 52.918215 
L 260.749596 52.771755 
L 258.609192 52.625294 
L 256.468788 52.478834 
L 254.328384 52.332373 
L 252.18798 52.185913 
L 250.047576 52.039452 
L 247.907172 51.892992 
L 245.766768 51.746531 
L 243.626364 51.600071 
L 241.48596 51.45361 
L 239.345556 51.30715 
L 237.205152 51.160689 
L 235.064747 51.014229 
L 232.924343 50.867768 
L 230.783939 50.721308 
L 228.643535 50.574847 
L 226.503131 50.428387 
L 224.362727 50.281926 
L 222.222323 50.135466 
L 220.081919 49.989005 
L 217.941515 49.842545 
L 215.801111 49.696084 
L 213.660707 49.549624 
L 211.520303 49.403163 
L 209.379899 49.256703 
L 207.239495 49.110242 
L 205.099091 48.963781 
L 202.958687 48.817321 
L 200.818283 48.67086 
L 198.677879 48.5244 
L 196.537475 48.377939 
L 194.397071 48.231479 
L 192.256667 48.085018 
L 190.116263 47.938558 
L 187.975859 47.792097 
L 185.835455 47.645637 
L 183.695051 47.499176 
L 181.554646 47.352716 
L 179.414242 47.206255 
L 177.273838 47.059795 
L 175.133434 46.913334 
L 172.99303 46.766874 
L 170.852626 46.620413 
L 168.712222 46.473953 
L 166.571818 46.327492 
L 164.431414 46.181032 
L 162.29101 46.034571 
L 160.150606 45.888111 
L 158.010202 45.74165 
L 155.869798 45.59519 
L 153.729394 45.448729 
L 151.58899 45.302269 
L 149.448586 45.155808 
L 147.308182 45.009348 
L 145.167778 44.862887 
L 143.027374 44.716426 
L 140.88697 44.569966 
L 138.746566 44.423505 
L 136.606162 44.277045 
L 134.465758 44.130584 
L 132.325354 43.984124 
L 130.184949 43.837663 
L 128.044545 43.691203 
L 125.904141 43.544742 
L 123.763737 43.398282 
L 121.623333 43.251821 
L 119.482929 43.105361 
L 117.342525 42.9589 
L 115.202121 42.81244 
L 113.061717 42.665979 
L 110.921313 42.519519 
L 108.780909 42.373058 
L 106.640505 42.226598 
L 104.500101 42.080137 
L 102.359697 41.933677 
L 100.219293 41.787216 
L 98.078889 41.640756 
L 95.938485 41.494295 
L 93.798081 41.347835 
L 91.657677 41.201374 
L 89.517273 41.054914 
L 87.376869 40.908453 
L 85.236465 40.761992 
L 83.096061 40.615532 
L 80.955657 40.469071 
L 78.815253 40.322611 
L 76.674848 40.17615 
L 74.534444 40.02969 
L 72.39404 39.883229 
L 70.253636 39.736769 
L 68.113232 39.590308 
L 65.972828 39.443848 
L 63.832424 39.297387 
L 61.69202 39.150927 
L 59.551616 39.004466 
L 57.411212 38.858006 
L 55.270808 38.711545 
L 53.130404 38.565085 
L 50.99 38.418624 
L 50.99 26.75875 
L 50.99 26.75875 
L 53.130404 27.022987 
L 55.270808 27.287224 
L 57.411212 27.551461 
L 59.551616 27.815698 
L 61.69202 28.079935 
L 63.832424 28.344172 
L 65.972828 28.608409 
L 68.113232 28.872646 
L 70.253636 29.136883 
L 72.39404 29.40112 
L 74.534444 29.665358 
L 76.674848 29.929595 
L 78.815253 30.193832 
L 80.955657 30.458069 
L 83.096061 30.722306 
L 85.236465 30.986543 
L 87.376869 31.25078 
L 89.517273 31.515017 
L 91.657677 31.779254 
L 93.798081 32.043491 
L 95.938485 32.307728 
L 98.078889 32.571965 
L 100.219293 32.836202 
L 102.359697 33.100439 
L 104.500101 33.364676 
L 106.640505 33.628913 
L 108.780909 33.89315 
L 110.921313 34.157387 
L 113.061717 34.421624 
L 115.202121 34.685861 
L 117.342525 34.950098 
L 119.482929 35.214335 
L 121.623333 35.478572 
L 123.763737 35.742809 
L 125.904141 36.007046 
L 128.044545 36.271283 
L 130.184949 36.53552 
L 132.325354 36.799757 
L 134.465758 37.063994 
L 136.606162 37.328231 
L 138.746566 37.592468 
L 140.88697 37.856705 
L 143.027374 38.120942 
L 145.167778 38.385179 
L 147.308182 38.649416 
L 149.448586 38.913653 
L 151.58899 39.17789 
L 153.729394 39.442127 
L 155.869798 39.706364 
L 158.010202 39.970601 
L 160.150606 40.234838 
L 162.29101 40.499075 
L 164.431414 40.763312 
L 166.571818 41.027549 
L 168.712222 41.291786 
L 170.852626 41.556024 
L 172.99303 41.820261 
L 175.133434 42.084498 
L 177.273838 42.348735 
L 179.414242 42.612972 
L 181.554646 42.877209 
L 183.695051 43.141446 
L 185.835455 43.405683 
L 187.975859 43.66992 
L 190.116263 43.934157 
L 192.256667 44.198394 
L 194.397071 44.462631 
L 196.537475 44.726868 
L 198.677879 44.991105 
L 200.818283 45.255342 
L 202.958687 45.519579 
L 205.099091 45.783816 
L 207.239495 46.048053 
L 209.379899 46.31229 
L 211.520303 46.576527 
L 213.660707 46.840764 
L 215.801111 47.105001 
L 217.941515 47.369238 
L 220.081919 47.633475 
L 222.222323 47.897712 
L 224.362727 48.161949 
L 226.503131 48.426186 
L 228.643535 48.690423 
L 230.783939 48.95466 
L 232.924343 49.218897 
L 235.064747 49.483134 
L 237.205152 49.747371 
L 239.345556 50.011608 
L 241.48596 50.275845 
L 243.626364 50.540082 
L 245.766768 50.804319 
L 247.907172 51.068556 
L 250.047576 51.332793 
L 252.18798 51.59703 
L 254.328384 51.861267 
L 256.468788 52.125504 
L 258.609192 52.389741 
L 260.749596 52.653978 
L 262.89 52.918215 
z
" style="fill:#31a354;"/>
   </g>
   <g id="PolyCollection_10">
    <path clip-path="url(#pfc6d85c3d3)" d="M 262.89 40.29723 
L 262.89 52.918215 
L 260.749596 52.653978 
L 258.609192 52.389741 
L 256.468788 52.125504 
L 254.328384 51.861267 
L 252.18798 51.59703 
L 250.047576 51.332793 
L 247.907172 51.068556 
L 245.766768 50.804319 
L 243.626364 50.540082 
L 241.48596 50.275845 
L 239.345556 50.011608 
L 237.205152 49.747371 
L 235.064747 49.483134 
L 232.924343 49.218897 
L 230.783939 48.95466 
L 228.643535 48.690423 
L 226.503131 48.426186 
L 224.362727 48.161949 
L 222.222323 47.897712 
L 220.081919 47.633475 
L 217.941515 47.369238 
L 215.801111 47.105001 
L 213.660707 46.840764 
L 211.520303 46.576527 
L 209.379899 46.31229 
L 207.239495 46.048053 
L 205.099091 45.783816 
L 202.958687 45.519579 
L 200.818283 45.255342 
L 198.677879 44.991105 
L 196.537475 44.726868 
L 194.397071 44.462631 
L 192.256667 44.198394 
L 190.116263 43.934157 
L 187.975859 43.66992 
L 185.835455 43.405683 
L 183.695051 43.141446 
L 181.554646 42.877209 
L 179.414242 42.612972 
L 177.273838 42.348735 
L 175.133434 42.084498 
L 172.99303 41.820261 
L 170.852626 41.556024 
L 168.712222 41.291786 
L 166.571818 41.027549 
L 164.431414 40.763312 
L 162.29101 40.499075 
L 160.150606 40.234838 
L 158.010202 39.970601 
L 155.869798 39.706364 
L 153.729394 39.442127 
L 151.58899 39.17789 
L 149.448586 38.913653 
L 147.308182 38.649416 
L 145.167778 38.385179 
L 143.027374 38.120942 
L 140.88697 37.856705 
L 138.746566 37.592468 
L 136.606162 37.328231 
L 134.465758 37.063994 
L 132.325354 36.799757 
L 130.184949 36.53552 
L 128.044545 36.271283 
L 125.904141 36.007046 
L 123.763737 35.742809 
L 121.623333 35.478572 
L 119.482929 35.214335 
L 117.342525 34.950098 
L 115.202121 34.685861 
L 113.061717 34.421624 
L 110.921313 34.157387 
L 108.780909 33.89315 
L 106.640505 33.628913 
L 104.500101 33.364676 
L 102.359697 33.100439 
L 100.219293 32.836202 
L 98.078889 32.571965 
L 95.938485 32.307728 
L 93.798081 32.043491 
L 91.657677 31.779254 
L 89.517273 31.515017 
L 87.376869 31.25078 
L 85.236465 30.986543 
L 83.096061 30.722306 
L 80.955657 30.458069 
L 78.815253 30.193832 
L 76.674848 29.929595 
L 74.534444 29.665358 
L 72.39404 29.40112 
L 70.253636 29.136883 
L 68.113232 28.872646 
L 65.972828 28.608409 
L 63.832424 28.344172 
L 61.69202 28.079935 
L 59.551616 27.815698 
L 57.411212 27.551461 
L 55.270808 27.287224 
L 53.130404 27.022987 
L 50.99 26.75875 
L 50.99 26.75875 
L 50.99 26.75875 
L 53.130404 26.895503 
L 55.270808 27.032255 
L 57.411212 27.169007 
L 59.551616 27.30576 
L 61.69202 27.442512 
L 63.832424 27.579264 
L 65.972828 27.716017 
L 68.113232 27.852769 
L 70.253636 27.989521 
L 72.39404 28.126274 
L 74.534444 28.263026 
L 76.674848 28.399778 
L 78.815253 28.53653 
L 80.955657 28.673283 
L 83.096061 28.810035 
L 85.236465 28.946787 
L 87.376869 29.08354 
L 89.517273 29.220292 
L 91.657677 29.357044 
L 93.798081 29.493797 
L 95.938485 29.630549 
L 98.078889 29.767301 
L 100.219293 29.904054 
L 102.359697 30.040806 
L 104.500101 30.177558 
L 106.640505 30.314311 
L 108.780909 30.451063 
L 110.921313 30.587815 
L 113.061717 30.724568 
L 115.202121 30.86132 
L 117.342525 30.998072 
L 119.482929 31.134825 
L 121.623333 31.271577 
L 123.763737 31.408329 
L 125.904141 31.545082 
L 128.044545 31.681834 
L 130.184949 31.818586 
L 132.325354 31.955339 
L 134.465758 32.092091 
L 136.606162 32.228843 
L 138.746566 32.365596 
L 140.88697 32.502348 
L 143.027374 32.6391 
L 145.167778 32.775853 
L 147.308182 32.912605 
L 149.448586 33.049357 
L 151.58899 33.18611 
L 153.729394 33.322862 
L 155.869798 33.459614 
L 158.010202 33.596366 
L 160.150606 33.733119 
L 162.29101 33.869871 
L 164.431414 34.006623 
L 166.571818 34.143376 
L 168.712222 34.280128 
L 170.852626 34.41688 
L 172.99303 34.553633 
L 175.133434 34.690385 
L 177.273838 34.827137 
L 179.414242 34.96389 
L 181.554646 35.100642 
L 183.695051 35.237394 
L 185.835455 35.374147 
L 187.975859 35.510899 
L 190.116263 35.647651 
L 192.256667 35.784404 
L 194.397071 35.921156 
L 196.537475 36.057908 
L 198.677879 36.194661 
L 200.818283 36.331413 
L 202.958687 36.468165 
L 205.099091 36.604918 
L 207.239495 36.74167 
L 209.379899 36.878422 
L 211.520303 37.015175 
L 213.660707 37.151927 
L 215.801111 37.288679 
L 217.941515 37.425432 
L 220.081919 37.562184 
L 222.222323 37.698936 
L 224.362727 37.835689 
L 226.503131 37.972441 
L 228.643535 38.109193 
L 230.783939 38.245946 
L 232.924343 38.382698 
L 235.064747 38.51945 
L 237.205152 38.656203 
L 239.345556 38.792955 
L 241.48596 38.929707 
L 243.626364 39.066459 
L 245.766768 39.203212 
L 247.907172 39.339964 
L 250.047576 39.476716 
L 252.18798 39.613469 
L 254.328384 39.750221 
L 256.468788 39.886973 
L 258.609192 40.023726 
L 260.749596 40.160478 
L 262.89 40.29723 
z
" style="fill:#74c476;"/>
   </g>
   <g id="PolyCollection_11">
    <path clip-path="url(#pfc6d85c3d3)" d="M 262.89 26.75875 
L 262.89 40.29723 
L 260.749596 40.160478 
L 258.609192 40.023726 
L 256.468788 39.886973 
L 254.328384 39.750221 
L 252.18798 39.613469 
L 250.047576 39.476716 
L 247.907172 39.339964 
L 245.766768 39.203212 
L 243.626364 39.066459 
L 241.48596 38.929707 
L 239.345556 38.792955 
L 237.205152 38.656203 
L 235.064747 38.51945 
L 232.924343 38.382698 
L 230.783939 38.245946 
L 228.643535 38.109193 
L 226.503131 37.972441 
L 224.362727 37.835689 
L 222.222323 37.698936 
L 220.081919 37.562184 
L 217.941515 37.425432 
L 215.801111 37.288679 
L 213.660707 37.151927 
L 211.520303 37.015175 
L 209.379899 36.878422 
L 207.239495 36.74167 
L 205.099091 36.604918 
L 202.958687 36.468165 
L 200.818283 36.331413 
L 198.677879 36.194661 
L 196.537475 36.057908 
L 194.397071 35.921156 
L 192.256667 35.784404 
L 190.116263 35.647651 
L 187.975859 35.510899 
L 185.835455 35.374147 
L 183.695051 35.237394 
L 181.554646 35.100642 
L 179.414242 34.96389 
L 177.273838 34.827137 
L 175.133434 34.690385 
L 172.99303 34.553633 
L 170.852626 34.41688 
L 168.712222 34.280128 
L 166.571818 34.143376 
L 164.431414 34.006623 
L 162.29101 33.869871 
L 160.150606 33.733119 
L 158.010202 33.596366 
L 155.869798 33.459614 
L 153.729394 33.322862 
L 151.58899 33.18611 
L 149.448586 33.049357 
L 147.308182 32.912605 
L 145.167778 32.775853 
L 143.027374 32.6391 
L 140.88697 32.502348 
L 138.746566 32.365596 
L 136.606162 32.228843 
L 134.465758 32.092091 
L 132.325354 31.955339 
L 130.184949 31.818586 
L 128.044545 31.681834 
L 125.904141 31.545082 
L 123.763737 31.408329 
L 121.623333 31.271577 
L 119.482929 31.134825 
L 117.342525 30.998072 
L 115.202121 30.86132 
L 113.061717 30.724568 
L 110.921313 30.587815 
L 108.780909 30.451063 
L 106.640505 30.314311 
L 104.500101 30.177558 
L 102.359697 30.040806 
L 100.219293 29.904054 
L 98.078889 29.767301 
L 95.938485 29.630549 
L 93.798081 29.493797 
L 91.657677 29.357044 
L 89.517273 29.220292 
L 87.376869 29.08354 
L 85.236465 28.946787 
L 83.096061 28.810035 
L 80.955657 28.673283 
L 78.815253 28.53653 
L 76.674848 28.399778 
L 74.534444 28.263026 
L 72.39404 28.126274 
L 70.253636 27.989521 
L 68.113232 27.852769 
L 65.972828 27.716017 
L 63.832424 27.579264 
L 61.69202 27.442512 
L 59.551616 27.30576 
L 57.411212 27.169007 
L 55.270808 27.032255 
L 53.130404 26.895503 
L 50.99 26.75875 
L 50.99 26.75875 
L 50.99 26.75875 
L 53.130404 26.75875 
L 55.270808 26.75875 
L 57.411212 26.75875 
L 59.551616 26.75875 
L 61.69202 26.75875 
L 63.832424 26.75875 
L 65.972828 26.75875 
L 68.113232 26.75875 
L 70.253636 26.75875 
L 72.39404 26.75875 
L 74.534444 26.75875 
L 76.674848 26.75875 
L 78.815253 26.75875 
L 80.955657 26.75875 
L 83.096061 26.75875 
L 85.236465 26.75875 
L 87.376869 26.75875 
L 89.517273 26.75875 
L 91.657677 26.75875 
L 93.798081 26.75875 
L 95.938485 26.75875 
L 98.078889 26.75875 
L 100.219293 26.75875 
L 102.359697 26.75875 
L 104.500101 26.75875 
L 106.640505 26.75875 
L 108.780909 26.75875 
L 110.921313 26.75875 
L 113.061717 26.75875 
L 115.202121 26.75875 
L 117.342525 26.75875 
L 119.482929 26.75875 
L 121.623333 26.75875 
L 123.763737 26.75875 
L 125.904141 26.75875 
L 128.044545 26.75875 
L 130.184949 26.75875 
L 132.325354 26.75875 
L 134.465758 26.75875 
L 136.606162 26.75875 
L 138.746566 26.75875 
L 140.88697 26.75875 
L 143.027374 26.75875 
L 145.167778 26.75875 
L 147.308182 26.75875 
L 149.448586 26.75875 
L 151.58899 26.75875 
L 153.729394 26.75875 
L 155.869798 26.75875 
L 158.010202 26.75875 
L 160.150606 26.75875 
L 162.29101 26.75875 
L 164.431414 26.75875 
L 166.571818 26.75875 
L 168.712222 26.75875 
L 170.852626 26.75875 
L 172.99303 26.75875 
L 175.133434 26.75875 
L 177.273838 26.75875 
L 179.414242 26.75875 
L 181.554646 26.75875 
L 183.695051 26.75875 
L 185.835455 26.75875 
L 187.975859 26.75875 
L 190.116263 26.75875 
L 192.256667 26.75875 
L 194.397071 26.75875 
L 196.537475 26.75875 
L 198.677879 26.75875 
L 200.818283 26.75875 
L 202.958687 26.75875 
L 205.099091 26.75875 
L 207.239495 26.75875 
L 209.379899 26.75875 
L 211.520303 26.75875 
L 213.660707 26.75875 
L 215.801111 26.75875 
L 217.941515 26.75875 
L 220.081919 26.75875 
L 222.222323 26.75875 
L 224.362727 26.75875 
L 226.503131 26.75875 
L 228.643535 26.75875 
L 230.783939 26.75875 
L 232.924343 26.75875 
L 235.064747 26.75875 
L 237.205152 26.75875 
L 239.345556 26.75875 
L 241.48596 26.75875 
L 243.626364 26.75875 
L 245.766768 26.75875 
L 247.907172 26.75875 
L 250.047576 26.75875 
L 252.18798 26.75875 
L 254.328384 26.75875 
L 256.468788 26.75875 
L 258.609192 26.75875 
L 260.749596 26.75875 
L 262.89 26.75875 
z
" style="fill:#a1d99b;"/>
   </g>
   <g id="matplotlib.axis_1">
    <g id="xtick_1">
     <g id="line2d_1">
      <defs>
       <path d="M 0 0 
L 0 3.5 
" id="mf519853306" style="stroke:#000000;stroke-width:0.8;"/>
      </defs>
      <g>
       <use style="stroke:#000000;stroke-width:0.8;" x="50.99" xlink:href="#mf519853306" y="361.653756"/>
      </g>
     </g>
     <g id="text_1">
      <!-- 0.0 -->
      <g transform="translate(43.038438 376.252193)scale(0.1 -0.1)">
       <defs>
        <path d="M 2034 4250 
Q 1547 4250 1301 3770 
Q 1056 3291 1056 2328 
Q 1056 1369 1301 889 
Q 1547 409 2034 409 
Q 2525 409 2770 889 
Q 3016 1369 3016 2328 
Q 3016 3291 2770 3770 
Q 2525 4250 2034 4250 
z
M 2034 4750 
Q 2819 4750 3233 4129 
Q 3647 3509 3647 2328 
Q 3647 1150 3233 529 
Q 2819 -91 2034 -91 
Q 1250 -91 836 529 
Q 422 1150 422 2328 
Q 422 3509 836 4129 
Q 1250 4750 2034 4750 
z
" id="DejaVuSans-30" transform="scale(0.015625)"/>
        <path d="M 684 794 
L 1344 794 
L 1344 0 
L 684 0 
L 684 794 
z
" id="DejaVuSans-2e" transform="scale(0.015625)"/>
       </defs>
       <use xlink:href="#DejaVuSans-30"/>
       <use x="63.623047" xlink:href="#DejaVuSans-2e"/>
       <use x="95.410156" xlink:href="#DejaVuSans-30"/>
      </g>
     </g>
    </g>
    <g id="xtick_2">
     <g id="line2d_2">
      <g>
       <use style="stroke:#000000;stroke-width:0.8;" x="103.965" xlink:href="#mf519853306" y="361.653756"/>
      </g>
     </g>
     <g id="text_2">
      <!-- 25.0 -->
      <g transform="translate(92.832188 376.252193)scale(0.1 -0.1)">
       <defs>
        <path d="M 1228 531 
L 3431 531 
L 3431 0 
L 469 0 
L 469 531 
Q 828 903 1448 1529 
Q 2069 2156 2228 2338 
Q 2531 2678 2651 2914 
Q 2772 3150 2772 3378 
Q 2772 3750 2511 3984 
Q 2250 4219 1831 4219 
Q 1534 4219 1204 4116 
Q 875 4013 500 3803 
L 500 4441 
Q 881 4594 1212 4672 
Q 1544 4750 1819 4750 
Q 2544 4750 2975 4387 
Q 3406 4025 3406 3419 
Q 3406 3131 3298 2873 
Q 3191 2616 2906 2266 
Q 2828 2175 2409 1742 
Q 1991 1309 1228 531 
z
" id="DejaVuSans-32" transform="scale(0.015625)"/>
        <path d="M 691 4666 
L 3169 4666 
L 3169 4134 
L 1269 4134 
L 1269 2991 
Q 1406 3038 1543 3061 
Q 1681 3084 1819 3084 
Q 2600 3084 3056 2656 
Q 3513 2228 3513 1497 
Q 3513 744 3044 326 
Q 2575 -91 1722 -91 
Q 1428 -91 1123 -41 
Q 819 9 494 109 
L 494 744 
Q 775 591 1075 516 
Q 1375 441 1709 441 
Q 2250 441 2565 725 
Q 2881 1009 2881 1497 
Q 2881 1984 2565 2268 
Q 2250 2553 1709 2553 
Q 1456 2553 1204 2497 
Q 953 2441 691 2322 
L 691 4666 
z
" id="DejaVuSans-35" transform="scale(0.015625)"/>
       </defs>
       <use xlink:href="#DejaVuSans-32"/>
       <use x="63.623047" xlink:href="#DejaVuSans-35"/>
       <use x="127.246094" xlink:href="#DejaVuSans-2e"/>
       <use x="159.033203" xlink:href="#DejaVuSans-30"/>
      </g>
     </g>
    </g>
    <g id="xtick_3">
     <g id="line2d_3">
      <g>
       <use style="stroke:#000000;stroke-width:0.8;" x="156.94" xlink:href="#mf519853306" y="361.653756"/>
      </g>
     </g>
     <g id="text_3">
      <!-- 50.0 -->
      <g transform="translate(145.807187 376.252193)scale(0.1 -0.1)">
       <use xlink:href="#DejaVuSans-35"/>
       <use x="63.623047" xlink:href="#DejaVuSans-30"/>
       <use x="127.246094" xlink:href="#DejaVuSans-2e"/>
       <use x="159.033203" xlink:href="#DejaVuSans-30"/>
      </g>
     </g>
    </g>
    <g id="xtick_4">
     <g id="line2d_4">
      <g>
       <use style="stroke:#000000;stroke-width:0.8;" x="209.915" xlink:href="#mf519853306" y="361.653756"/>
      </g>
     </g>
     <g id="text_4">
      <!-- 75.0 -->
      <g transform="translate(198.782187 376.252193)scale(0.1 -0.1)">
       <defs>
        <path d="M 525 4666 
L 3525 4666 
L 3525 4397 
L 1831 0 
L 1172 0 
L 2766 4134 
L 525 4134 
L 525 4666 
z
" id="DejaVuSans-37" transform="scale(0.015625)"/>
       </defs>
       <use xlink:href="#DejaVuSans-37"/>
       <use x="63.623047" xlink:href="#DejaVuSans-35"/>
       <use x="127.246094" xlink:href="#DejaVuSans-2e"/>
       <use x="159.033203" xlink:href="#DejaVuSans-30"/>
      </g>
     </g>
    </g>
    <g id="xtick_5">
     <g id="line2d_5">
      <g>
       <use style="stroke:#000000;stroke-width:0.8;" x="262.89" xlink:href="#mf519853306" y="361.653756"/>
      </g>
     </g>
     <g id="text_5">
      <!-- 100.0 -->
      <g transform="translate(248.575937 376.252193)scale(0.1 -0.1)">
       <defs>
        <path d="M 794 531 
L 1825 531 
L 1825 4091 
L 703 3866 
L 703 4441 
L 1819 4666 
L 2450 4666 
L 2450 531 
L 3481 531 
L 3481 0 
L 794 0 
L 794 531 
z
" id="DejaVuSans-31" transform="scale(0.015625)"/>
       </defs>
       <use xlink:href="#DejaVuSans-31"/>
       <use x="63.623047" xlink:href="#DejaVuSans-30"/>
       <use x="127.246094" xlink:href="#DejaVuSans-30"/>
       <use x="190.869141" xlink:href="#DejaVuSans-2e"/>
       <use x="222.65625" xlink:href="#DejaVuSans-30"/>
      </g>
     </g>
    </g>
    <g id="text_6">
     <!-- Proportion of DSSCs in Grid (%) -->
     <g transform="translate(78.381406 389.930318)scale(0.1 -0.1)">
      <defs>
       <path d="M 1259 4147 
L 1259 2394 
L 2053 2394 
Q 2494 2394 2734 2622 
Q 2975 2850 2975 3272 
Q 2975 3691 2734 3919 
Q 2494 4147 2053 4147 
L 1259 4147 
z
M 628 4666 
L 2053 4666 
Q 2838 4666 3239 4311 
Q 3641 3956 3641 3272 
Q 3641 2581 3239 2228 
Q 2838 1875 2053 1875 
L 1259 1875 
L 1259 0 
L 628 0 
L 628 4666 
z
" id="DejaVuSans-50" transform="scale(0.015625)"/>
       <path d="M 2631 2963 
Q 2534 3019 2420 3045 
Q 2306 3072 2169 3072 
Q 1681 3072 1420 2755 
Q 1159 2438 1159 1844 
L 1159 0 
L 581 0 
L 581 3500 
L 1159 3500 
L 1159 2956 
Q 1341 3275 1631 3429 
Q 1922 3584 2338 3584 
Q 2397 3584 2469 3576 
Q 2541 3569 2628 3553 
L 2631 2963 
z
" id="DejaVuSans-72" transform="scale(0.015625)"/>
       <path d="M 1959 3097 
Q 1497 3097 1228 2736 
Q 959 2375 959 1747 
Q 959 1119 1226 758 
Q 1494 397 1959 397 
Q 2419 397 2687 759 
Q 2956 1122 2956 1747 
Q 2956 2369 2687 2733 
Q 2419 3097 1959 3097 
z
M 1959 3584 
Q 2709 3584 3137 3096 
Q 3566 2609 3566 1747 
Q 3566 888 3137 398 
Q 2709 -91 1959 -91 
Q 1206 -91 779 398 
Q 353 888 353 1747 
Q 353 2609 779 3096 
Q 1206 3584 1959 3584 
z
" id="DejaVuSans-6f" transform="scale(0.015625)"/>
       <path d="M 1159 525 
L 1159 -1331 
L 581 -1331 
L 581 3500 
L 1159 3500 
L 1159 2969 
Q 1341 3281 1617 3432 
Q 1894 3584 2278 3584 
Q 2916 3584 3314 3078 
Q 3713 2572 3713 1747 
Q 3713 922 3314 415 
Q 2916 -91 2278 -91 
Q 1894 -91 1617 61 
Q 1341 213 1159 525 
z
M 3116 1747 
Q 3116 2381 2855 2742 
Q 2594 3103 2138 3103 
Q 1681 3103 1420 2742 
Q 1159 2381 1159 1747 
Q 1159 1113 1420 752 
Q 1681 391 2138 391 
Q 2594 391 2855 752 
Q 3116 1113 3116 1747 
z
" id="DejaVuSans-70" transform="scale(0.015625)"/>
       <path d="M 1172 4494 
L 1172 3500 
L 2356 3500 
L 2356 3053 
L 1172 3053 
L 1172 1153 
Q 1172 725 1289 603 
Q 1406 481 1766 481 
L 2356 481 
L 2356 0 
L 1766 0 
Q 1100 0 847 248 
Q 594 497 594 1153 
L 594 3053 
L 172 3053 
L 172 3500 
L 594 3500 
L 594 4494 
L 1172 4494 
z
" id="DejaVuSans-74" transform="scale(0.015625)"/>
       <path d="M 603 3500 
L 1178 3500 
L 1178 0 
L 603 0 
L 603 3500 
z
M 603 4863 
L 1178 4863 
L 1178 4134 
L 603 4134 
L 603 4863 
z
" id="DejaVuSans-69" transform="scale(0.015625)"/>
       <path d="M 3513 2113 
L 3513 0 
L 2938 0 
L 2938 2094 
Q 2938 2591 2744 2837 
Q 2550 3084 2163 3084 
Q 1697 3084 1428 2787 
Q 1159 2491 1159 1978 
L 1159 0 
L 581 0 
L 581 3500 
L 1159 3500 
L 1159 2956 
Q 1366 3272 1645 3428 
Q 1925 3584 2291 3584 
Q 2894 3584 3203 3211 
Q 3513 2838 3513 2113 
z
" id="DejaVuSans-6e" transform="scale(0.015625)"/>
       <path id="DejaVuSans-20" transform="scale(0.015625)"/>
       <path d="M 2375 4863 
L 2375 4384 
L 1825 4384 
Q 1516 4384 1395 4259 
Q 1275 4134 1275 3809 
L 1275 3500 
L 2222 3500 
L 2222 3053 
L 1275 3053 
L 1275 0 
L 697 0 
L 697 3053 
L 147 3053 
L 147 3500 
L 697 3500 
L 697 3744 
Q 697 4328 969 4595 
Q 1241 4863 1831 4863 
L 2375 4863 
z
" id="DejaVuSans-66" transform="scale(0.015625)"/>
       <path d="M 1259 4147 
L 1259 519 
L 2022 519 
Q 2988 519 3436 956 
Q 3884 1394 3884 2338 
Q 3884 3275 3436 3711 
Q 2988 4147 2022 4147 
L 1259 4147 
z
M 628 4666 
L 1925 4666 
Q 3281 4666 3915 4102 
Q 4550 3538 4550 2338 
Q 4550 1131 3912 565 
Q 3275 0 1925 0 
L 628 0 
L 628 4666 
z
" id="DejaVuSans-44" transform="scale(0.015625)"/>
       <path d="M 3425 4513 
L 3425 3897 
Q 3066 4069 2747 4153 
Q 2428 4238 2131 4238 
Q 1616 4238 1336 4038 
Q 1056 3838 1056 3469 
Q 1056 3159 1242 3001 
Q 1428 2844 1947 2747 
L 2328 2669 
Q 3034 2534 3370 2195 
Q 3706 1856 3706 1288 
Q 3706 609 3251 259 
Q 2797 -91 1919 -91 
Q 1588 -91 1214 -16 
Q 841 59 441 206 
L 441 856 
Q 825 641 1194 531 
Q 1563 422 1919 422 
Q 2459 422 2753 634 
Q 3047 847 3047 1241 
Q 3047 1584 2836 1778 
Q 2625 1972 2144 2069 
L 1759 2144 
Q 1053 2284 737 2584 
Q 422 2884 422 3419 
Q 422 4038 858 4394 
Q 1294 4750 2059 4750 
Q 2388 4750 2728 4690 
Q 3069 4631 3425 4513 
z
" id="DejaVuSans-53" transform="scale(0.015625)"/>
       <path d="M 4122 4306 
L 4122 3641 
Q 3803 3938 3442 4084 
Q 3081 4231 2675 4231 
Q 1875 4231 1450 3742 
Q 1025 3253 1025 2328 
Q 1025 1406 1450 917 
Q 1875 428 2675 428 
Q 3081 428 3442 575 
Q 3803 722 4122 1019 
L 4122 359 
Q 3791 134 3420 21 
Q 3050 -91 2638 -91 
Q 1578 -91 968 557 
Q 359 1206 359 2328 
Q 359 3453 968 4101 
Q 1578 4750 2638 4750 
Q 3056 4750 3426 4639 
Q 3797 4528 4122 4306 
z
" id="DejaVuSans-43" transform="scale(0.015625)"/>
       <path d="M 2834 3397 
L 2834 2853 
Q 2591 2978 2328 3040 
Q 2066 3103 1784 3103 
Q 1356 3103 1142 2972 
Q 928 2841 928 2578 
Q 928 2378 1081 2264 
Q 1234 2150 1697 2047 
L 1894 2003 
Q 2506 1872 2764 1633 
Q 3022 1394 3022 966 
Q 3022 478 2636 193 
Q 2250 -91 1575 -91 
Q 1294 -91 989 -36 
Q 684 19 347 128 
L 347 722 
Q 666 556 975 473 
Q 1284 391 1588 391 
Q 1994 391 2212 530 
Q 2431 669 2431 922 
Q 2431 1156 2273 1281 
Q 2116 1406 1581 1522 
L 1381 1569 
Q 847 1681 609 1914 
Q 372 2147 372 2553 
Q 372 3047 722 3315 
Q 1072 3584 1716 3584 
Q 2034 3584 2315 3537 
Q 2597 3491 2834 3397 
z
" id="DejaVuSans-73" transform="scale(0.015625)"/>
       <path d="M 3809 666 
L 3809 1919 
L 2778 1919 
L 2778 2438 
L 4434 2438 
L 4434 434 
Q 4069 175 3628 42 
Q 3188 -91 2688 -91 
Q 1594 -91 976 548 
Q 359 1188 359 2328 
Q 359 3472 976 4111 
Q 1594 4750 2688 4750 
Q 3144 4750 3555 4637 
Q 3966 4525 4313 4306 
L 4313 3634 
Q 3963 3931 3569 4081 
Q 3175 4231 2741 4231 
Q 1884 4231 1454 3753 
Q 1025 3275 1025 2328 
Q 1025 1384 1454 906 
Q 1884 428 2741 428 
Q 3075 428 3337 486 
Q 3600 544 3809 666 
z
" id="DejaVuSans-47" transform="scale(0.015625)"/>
       <path d="M 2906 2969 
L 2906 4863 
L 3481 4863 
L 3481 0 
L 2906 0 
L 2906 525 
Q 2725 213 2448 61 
Q 2172 -91 1784 -91 
Q 1150 -91 751 415 
Q 353 922 353 1747 
Q 353 2572 751 3078 
Q 1150 3584 1784 3584 
Q 2172 3584 2448 3432 
Q 2725 3281 2906 2969 
z
M 947 1747 
Q 947 1113 1208 752 
Q 1469 391 1925 391 
Q 2381 391 2643 752 
Q 2906 1113 2906 1747 
Q 2906 2381 2643 2742 
Q 2381 3103 1925 3103 
Q 1469 3103 1208 2742 
Q 947 2381 947 1747 
z
" id="DejaVuSans-64" transform="scale(0.015625)"/>
       <path d="M 1984 4856 
Q 1566 4138 1362 3434 
Q 1159 2731 1159 2009 
Q 1159 1288 1364 580 
Q 1569 -128 1984 -844 
L 1484 -844 
Q 1016 -109 783 600 
Q 550 1309 550 2009 
Q 550 2706 781 3412 
Q 1013 4119 1484 4856 
L 1984 4856 
z
" id="DejaVuSans-28" transform="scale(0.015625)"/>
       <path d="M 4653 2053 
Q 4381 2053 4226 1822 
Q 4072 1591 4072 1178 
Q 4072 772 4226 539 
Q 4381 306 4653 306 
Q 4919 306 5073 539 
Q 5228 772 5228 1178 
Q 5228 1588 5073 1820 
Q 4919 2053 4653 2053 
z
M 4653 2450 
Q 5147 2450 5437 2106 
Q 5728 1763 5728 1178 
Q 5728 594 5436 251 
Q 5144 -91 4653 -91 
Q 4153 -91 3862 251 
Q 3572 594 3572 1178 
Q 3572 1766 3864 2108 
Q 4156 2450 4653 2450 
z
M 1428 4353 
Q 1159 4353 1004 4120 
Q 850 3888 850 3481 
Q 850 3069 1003 2837 
Q 1156 2606 1428 2606 
Q 1700 2606 1854 2837 
Q 2009 3069 2009 3481 
Q 2009 3884 1853 4118 
Q 1697 4353 1428 4353 
z
M 4250 4750 
L 4750 4750 
L 1831 -91 
L 1331 -91 
L 4250 4750 
z
M 1428 4750 
Q 1922 4750 2215 4408 
Q 2509 4066 2509 3481 
Q 2509 2891 2217 2550 
Q 1925 2209 1428 2209 
Q 931 2209 642 2551 
Q 353 2894 353 3481 
Q 353 4063 643 4406 
Q 934 4750 1428 4750 
z
" id="DejaVuSans-25" transform="scale(0.015625)"/>
       <path d="M 513 4856 
L 1013 4856 
Q 1481 4119 1714 3412 
Q 1947 2706 1947 2009 
Q 1947 1309 1714 600 
Q 1481 -109 1013 -844 
L 513 -844 
Q 928 -128 1133 580 
Q 1338 1288 1338 2009 
Q 1338 2731 1133 3434 
Q 928 4138 513 4856 
z
" id="DejaVuSans-29" transform="scale(0.015625)"/>
      </defs>
      <use xlink:href="#DejaVuSans-50"/>
      <use x="58.552734" xlink:href="#DejaVuSans-72"/>
      <use x="97.416016" xlink:href="#DejaVuSans-6f"/>
      <use x="158.597656" xlink:href="#DejaVuSans-70"/>
      <use x="222.074219" xlink:href="#DejaVuSans-6f"/>
      <use x="283.255859" xlink:href="#DejaVuSans-72"/>
      <use x="324.369141" xlink:href="#DejaVuSans-74"/>
      <use x="363.578125" xlink:href="#DejaVuSans-69"/>
      <use x="391.361328" xlink:href="#DejaVuSans-6f"/>
      <use x="452.542969" xlink:href="#DejaVuSans-6e"/>
      <use x="515.921875" xlink:href="#DejaVuSans-20"/>
      <use x="547.708984" xlink:href="#DejaVuSans-6f"/>
      <use x="608.890625" xlink:href="#DejaVuSans-66"/>
      <use x="644.095703" xlink:href="#DejaVuSans-20"/>
      <use x="675.882812" xlink:href="#DejaVuSans-44"/>
      <use x="752.884766" xlink:href="#DejaVuSans-53"/>
      <use x="816.361328" xlink:href="#DejaVuSans-53"/>
      <use x="879.837891" xlink:href="#DejaVuSans-43"/>
      <use x="949.662109" xlink:href="#DejaVuSans-73"/>
      <use x="1001.761719" xlink:href="#DejaVuSans-20"/>
      <use x="1033.548828" xlink:href="#DejaVuSans-69"/>
      <use x="1061.332031" xlink:href="#DejaVuSans-6e"/>
      <use x="1124.710938" xlink:href="#DejaVuSans-20"/>
      <use x="1156.498047" xlink:href="#DejaVuSans-47"/>
      <use x="1233.988281" xlink:href="#DejaVuSans-72"/>
      <use x="1275.101562" xlink:href="#DejaVuSans-69"/>
      <use x="1302.884766" xlink:href="#DejaVuSans-64"/>
      <use x="1366.361328" xlink:href="#DejaVuSans-20"/>
      <use x="1398.148438" xlink:href="#DejaVuSans-28"/>
      <use x="1437.162109" xlink:href="#DejaVuSans-25"/>
      <use x="1532.181641" xlink:href="#DejaVuSans-29"/>
     </g>
    </g>
   </g>
   <g id="matplotlib.axis_2">
    <g id="ytick_1">
     <g id="line2d_6">
      <defs>
       <path d="M 0 0 
L -3.5 0 
" id="mce97f64aeb" style="stroke:#000000;stroke-width:0.8;"/>
      </defs>
      <g>
       <use style="stroke:#000000;stroke-width:0.8;" x="50.99" xlink:href="#mce97f64aeb" y="361.653756"/>
      </g>
     </g>
     <g id="text_7">
      <!-- 0 -->
      <g transform="translate(37.6275 365.452974)scale(0.1 -0.1)">
       <use xlink:href="#DejaVuSans-30"/>
      </g>
     </g>
    </g>
    <g id="ytick_2">
     <g id="line2d_7">
      <g>
       <use style="stroke:#000000;stroke-width:0.8;" x="50.99" xlink:href="#mce97f64aeb" y="305.248022"/>
      </g>
     </g>
     <g id="text_8">
      <!-- 50 -->
      <g transform="translate(31.265 309.047241)scale(0.1 -0.1)">
       <use xlink:href="#DejaVuSans-35"/>
       <use x="63.623047" xlink:href="#DejaVuSans-30"/>
      </g>
     </g>
    </g>
    <g id="ytick_3">
     <g id="line2d_8">
      <g>
       <use style="stroke:#000000;stroke-width:0.8;" x="50.99" xlink:href="#mce97f64aeb" y="248.842288"/>
      </g>
     </g>
     <g id="text_9">
      <!-- 100 -->
      <g transform="translate(24.9025 252.641507)scale(0.1 -0.1)">
       <use xlink:href="#DejaVuSans-31"/>
       <use x="63.623047" xlink:href="#DejaVuSans-30"/>
       <use x="127.246094" xlink:href="#DejaVuSans-30"/>
      </g>
     </g>
    </g>
    <g id="ytick_4">
     <g id="line2d_9">
      <g>
       <use style="stroke:#000000;stroke-width:0.8;" x="50.99" xlink:href="#mce97f64aeb" y="192.436554"/>
      </g>
     </g>
     <g id="text_10">
      <!-- 150 -->
      <g transform="translate(24.9025 196.235773)scale(0.1 -0.1)">
       <use xlink:href="#DejaVuSans-31"/>
       <use x="63.623047" xlink:href="#DejaVuSans-35"/>
       <use x="127.246094" xlink:href="#DejaVuSans-30"/>
      </g>
     </g>
    </g>
    <g id="ytick_5">
     <g id="line2d_10">
      <g>
       <use style="stroke:#000000;stroke-width:0.8;" x="50.99" xlink:href="#mce97f64aeb" y="136.03082"/>
      </g>
     </g>
     <g id="text_11">
      <!-- 200 -->
      <g transform="translate(24.9025 139.830039)scale(0.1 -0.1)">
       <use xlink:href="#DejaVuSans-32"/>
       <use x="63.623047" xlink:href="#DejaVuSans-30"/>
       <use x="127.246094" xlink:href="#DejaVuSans-30"/>
      </g>
     </g>
    </g>
    <g id="ytick_6">
     <g id="line2d_11">
      <g>
       <use style="stroke:#000000;stroke-width:0.8;" x="50.99" xlink:href="#mce97f64aeb" y="79.625087"/>
      </g>
     </g>
     <g id="text_12">
      <!-- 250 -->
      <g transform="translate(24.9025 83.424305)scale(0.1 -0.1)">
       <use xlink:href="#DejaVuSans-32"/>
       <use x="63.623047" xlink:href="#DejaVuSans-35"/>
       <use x="127.246094" xlink:href="#DejaVuSans-30"/>
      </g>
     </g>
    </g>
    <g id="ytick_7">
     <g id="line2d_12">
      <g>
       <use style="stroke:#000000;stroke-width:0.8;" x="50.99" xlink:href="#mce97f64aeb" y="23.219353"/>
      </g>
     </g>
     <g id="text_13">
      <!-- 300 -->
      <g transform="translate(24.9025 27.018572)scale(0.1 -0.1)">
       <defs>
        <path d="M 2597 2516 
Q 3050 2419 3304 2112 
Q 3559 1806 3559 1356 
Q 3559 666 3084 287 
Q 2609 -91 1734 -91 
Q 1441 -91 1130 -33 
Q 819 25 488 141 
L 488 750 
Q 750 597 1062 519 
Q 1375 441 1716 441 
Q 2309 441 2620 675 
Q 2931 909 2931 1356 
Q 2931 1769 2642 2001 
Q 2353 2234 1838 2234 
L 1294 2234 
L 1294 2753 
L 1863 2753 
Q 2328 2753 2575 2939 
Q 2822 3125 2822 3475 
Q 2822 3834 2567 4026 
Q 2313 4219 1838 4219 
Q 1578 4219 1281 4162 
Q 984 4106 628 3988 
L 628 4550 
Q 988 4650 1302 4700 
Q 1616 4750 1894 4750 
Q 2613 4750 3031 4423 
Q 3450 4097 3450 3541 
Q 3450 3153 3228 2886 
Q 3006 2619 2597 2516 
z
" id="DejaVuSans-33" transform="scale(0.015625)"/>
       </defs>
       <use xlink:href="#DejaVuSans-33"/>
       <use x="63.623047" xlink:href="#DejaVuSans-30"/>
       <use x="127.246094" xlink:href="#DejaVuSans-30"/>
      </g>
     </g>
    </g>
    <g id="text_14">
     <!-- Energy Generated (TWh) -->
     <g transform="translate(18.822813 248.112784)rotate(-90)scale(0.1 -0.1)">
      <defs>
       <path d="M 628 4666 
L 3578 4666 
L 3578 4134 
L 1259 4134 
L 1259 2753 
L 3481 2753 
L 3481 2222 
L 1259 2222 
L 1259 531 
L 3634 531 
L 3634 0 
L 628 0 
L 628 4666 
z
" id="DejaVuSans-45" transform="scale(0.015625)"/>
       <path d="M 3597 1894 
L 3597 1613 
L 953 1613 
Q 991 1019 1311 708 
Q 1631 397 2203 397 
Q 2534 397 2845 478 
Q 3156 559 3463 722 
L 3463 178 
Q 3153 47 2828 -22 
Q 2503 -91 2169 -91 
Q 1331 -91 842 396 
Q 353 884 353 1716 
Q 353 2575 817 3079 
Q 1281 3584 2069 3584 
Q 2775 3584 3186 3129 
Q 3597 2675 3597 1894 
z
M 3022 2063 
Q 3016 2534 2758 2815 
Q 2500 3097 2075 3097 
Q 1594 3097 1305 2825 
Q 1016 2553 972 2059 
L 3022 2063 
z
" id="DejaVuSans-65" transform="scale(0.015625)"/>
       <path d="M 2906 1791 
Q 2906 2416 2648 2759 
Q 2391 3103 1925 3103 
Q 1463 3103 1205 2759 
Q 947 2416 947 1791 
Q 947 1169 1205 825 
Q 1463 481 1925 481 
Q 2391 481 2648 825 
Q 2906 1169 2906 1791 
z
M 3481 434 
Q 3481 -459 3084 -895 
Q 2688 -1331 1869 -1331 
Q 1566 -1331 1297 -1286 
Q 1028 -1241 775 -1147 
L 775 -588 
Q 1028 -725 1275 -790 
Q 1522 -856 1778 -856 
Q 2344 -856 2625 -561 
Q 2906 -266 2906 331 
L 2906 616 
Q 2728 306 2450 153 
Q 2172 0 1784 0 
Q 1141 0 747 490 
Q 353 981 353 1791 
Q 353 2603 747 3093 
Q 1141 3584 1784 3584 
Q 2172 3584 2450 3431 
Q 2728 3278 2906 2969 
L 2906 3500 
L 3481 3500 
L 3481 434 
z
" id="DejaVuSans-67" transform="scale(0.015625)"/>
       <path d="M 2059 -325 
Q 1816 -950 1584 -1140 
Q 1353 -1331 966 -1331 
L 506 -1331 
L 506 -850 
L 844 -850 
Q 1081 -850 1212 -737 
Q 1344 -625 1503 -206 
L 1606 56 
L 191 3500 
L 800 3500 
L 1894 763 
L 2988 3500 
L 3597 3500 
L 2059 -325 
z
" id="DejaVuSans-79" transform="scale(0.015625)"/>
       <path d="M 2194 1759 
Q 1497 1759 1228 1600 
Q 959 1441 959 1056 
Q 959 750 1161 570 
Q 1363 391 1709 391 
Q 2188 391 2477 730 
Q 2766 1069 2766 1631 
L 2766 1759 
L 2194 1759 
z
M 3341 1997 
L 3341 0 
L 2766 0 
L 2766 531 
Q 2569 213 2275 61 
Q 1981 -91 1556 -91 
Q 1019 -91 701 211 
Q 384 513 384 1019 
Q 384 1609 779 1909 
Q 1175 2209 1959 2209 
L 2766 2209 
L 2766 2266 
Q 2766 2663 2505 2880 
Q 2244 3097 1772 3097 
Q 1472 3097 1187 3025 
Q 903 2953 641 2809 
L 641 3341 
Q 956 3463 1253 3523 
Q 1550 3584 1831 3584 
Q 2591 3584 2966 3190 
Q 3341 2797 3341 1997 
z
" id="DejaVuSans-61" transform="scale(0.015625)"/>
       <path d="M -19 4666 
L 3928 4666 
L 3928 4134 
L 2272 4134 
L 2272 0 
L 1638 0 
L 1638 4134 
L -19 4134 
L -19 4666 
z
" id="DejaVuSans-54" transform="scale(0.015625)"/>
       <path d="M 213 4666 
L 850 4666 
L 1831 722 
L 2809 4666 
L 3519 4666 
L 4500 722 
L 5478 4666 
L 6119 4666 
L 4947 0 
L 4153 0 
L 3169 4050 
L 2175 0 
L 1381 0 
L 213 4666 
z
" id="DejaVuSans-57" transform="scale(0.015625)"/>
       <path d="M 3513 2113 
L 3513 0 
L 2938 0 
L 2938 2094 
Q 2938 2591 2744 2837 
Q 2550 3084 2163 3084 
Q 1697 3084 1428 2787 
Q 1159 2491 1159 1978 
L 1159 0 
L 581 0 
L 581 4863 
L 1159 4863 
L 1159 2956 
Q 1366 3272 1645 3428 
Q 1925 3584 2291 3584 
Q 2894 3584 3203 3211 
Q 3513 2838 3513 2113 
z
" id="DejaVuSans-68" transform="scale(0.015625)"/>
      </defs>
      <use xlink:href="#DejaVuSans-45"/>
      <use x="63.183594" xlink:href="#DejaVuSans-6e"/>
      <use x="126.5625" xlink:href="#DejaVuSans-65"/>
      <use x="188.085938" xlink:href="#DejaVuSans-72"/>
      <use x="227.449219" xlink:href="#DejaVuSans-67"/>
      <use x="290.925781" xlink:href="#DejaVuSans-79"/>
      <use x="350.105469" xlink:href="#DejaVuSans-20"/>
      <use x="381.892578" xlink:href="#DejaVuSans-47"/>
      <use x="459.382812" xlink:href="#DejaVuSans-65"/>
      <use x="520.90625" xlink:href="#DejaVuSans-6e"/>
      <use x="584.285156" xlink:href="#DejaVuSans-65"/>
      <use x="645.808594" xlink:href="#DejaVuSans-72"/>
      <use x="686.921875" xlink:href="#DejaVuSans-61"/>
      <use x="748.201172" xlink:href="#DejaVuSans-74"/>
      <use x="787.410156" xlink:href="#DejaVuSans-65"/>
      <use x="848.933594" xlink:href="#DejaVuSans-64"/>
      <use x="912.410156" xlink:href="#DejaVuSans-20"/>
      <use x="944.197266" xlink:href="#DejaVuSans-28"/>
      <use x="983.210938" xlink:href="#DejaVuSans-54"/>
      <use x="1044.294922" xlink:href="#DejaVuSans-57"/>
      <use x="1143.171875" xlink:href="#DejaVuSans-68"/>
      <use x="1206.550781" xlink:href="#DejaVuSans-29"/>
     </g>
    </g>
   </g>
   <g id="patch_3">
    <path d="M 50.99 361.653756 
L 50.99 10.014 
" style="fill:none;stroke:#000000;stroke-linecap:square;stroke-linejoin:miter;stroke-width:0.8;"/>
   </g>
   <g id="patch_4">
    <path d="M 262.89 361.653756 
L 262.89 10.014 
" style="fill:none;stroke:#000000;stroke-linecap:square;stroke-linejoin:miter;stroke-width:0.8;"/>
   </g>
   <g id="patch_5">
    <path d="M 50.99 361.653756 
L 262.89 361.653756 
" style="fill:none;stroke:#000000;stroke-linecap:square;stroke-linejoin:miter;stroke-width:0.8;"/>
   </g>
   <g id="patch_6">
    <path d="M 50.99 10.014 
L 262.89 10.014 
" style="fill:none;stroke:#000000;stroke-linecap:square;stroke-linejoin:miter;stroke-width:0.8;"/>
   </g>
  </g>
 </g>
 <defs>
  <clipPath id="pfc6d85c3d3">
   <rect height="351.639756" width="211.9" x="50.99" y="10.014"/>
  </clipPath>
 </defs>
</svg>
