<?xml version="1.0" encoding="utf-8" standalone="no"?>
<!DOCTYPE svg PUBLIC "-//W3C//DTD SVG 1.1//EN"
  "http://www.w3.org/Graphics/SVG/1.1/DTD/svg11.dtd">
<svg height="400.56pt" version="1.1" viewBox="0 0 432 400.56" width="432pt" xmlns="http://www.w3.org/2000/svg" xmlns:xlink="http://www.w3.org/1999/xlink">
 <metadata>
  <rdf:RDF xmlns:cc="http://creativecommons.org/ns#" xmlns:dc="http://purl.org/dc/elements/1.1/" xmlns:rdf="http://www.w3.org/1999/02/22-rdf-syntax-ns#">
   <cc:Work>
    <dc:type rdf:resource="http://purl.org/dc/dcmitype/StillImage"/>
    <dc:date>2021-08-12T15:49:56.720204</dc:date>
    <dc:format>image/svg+xml</dc:format>
    <dc:creator>
     <cc:Agent>
      <dc:title>Matplotlib v3.4.1, https://matplotlib.org/</dc:title>
     </cc:Agent>
    </dc:creator>
   </cc:Work>
  </rdf:RDF>
 </metadata>
 <defs>
  <style type="text/css">*{stroke-linecap:butt;stroke-linejoin:round;}</style>
 </defs>
 <g id="figure_1">
  <g id="patch_1">
   <path d="M 0 400.56 
L 432 400.56 
L 432 0 
L 0 0 
z
" style="fill:#ffffff;"/>
  </g>
  <g id="axes_1">
   <g id="patch_2">
    <path d="M 63.71 361.653756 
L 421.2 361.653756 
L 421.2 10.014 
L 63.71 10.014 
z
" style="fill:#ffffff;"/>
   </g>
   <g id="PolyCollection_1">
    <path clip-path="url(#pd31c22177d)" d="M 63.71 296.484233 
L 63.71 361.653756 
L 71.31617 361.653756 
L 78.92234 361.653756 
L 86.528511 361.653756 
L 94.134681 361.653756 
L 101.740851 361.653756 
L 109.347021 361.653756 
L 116.953191 361.653756 
L 124.559362 361.653756 
L 132.165532 361.653756 
L 139.771702 361.653756 
L 147.377872 361.653756 
L 154.984043 361.653756 
L 162.590213 361.653756 
L 170.196383 361.653756 
L 177.802553 361.653756 
L 185.408723 361.653756 
L 193.014894 361.653756 
L 200.621064 361.653756 
L 208.227234 361.653756 
L 215.833404 361.653756 
L 223.439574 361.653756 
L 231.045745 361.653756 
L 238.651915 361.653756 
L 246.258085 361.653756 
L 253.864255 361.653756 
L 261.470426 361.653756 
L 269.076596 361.653756 
L 276.682766 361.653756 
L 284.288936 361.653756 
L 291.895106 361.653756 
L 299.501277 361.653756 
L 307.107447 361.653756 
L 314.713617 361.653756 
L 322.319787 361.653756 
L 329.925957 361.653756 
L 337.532128 361.653756 
L 345.138298 361.653756 
L 352.744468 361.653756 
L 360.350638 361.653756 
L 367.956809 361.653756 
L 375.562979 361.653756 
L 383.169149 361.653756 
L 390.775319 361.653756 
L 398.381489 361.653756 
L 405.98766 361.653756 
L 413.59383 361.653756 
L 421.2 361.653756 
L 421.2 289.638996 
L 421.2 289.638996 
L 413.59383 281.652359 
L 405.98766 269.669957 
L 398.381489 259.647889 
L 390.775319 248.275065 
L 383.169149 241.143597 
L 375.562979 233.444871 
L 367.956809 227.202329 
L 360.350638 221.046137 
L 352.744468 218.194919 
L 345.138298 217.288381 
L 337.532128 216.252442 
L 329.925957 217.668215 
L 322.319787 223.098988 
L 314.713617 228.33767 
L 307.107447 230.711802 
L 299.501277 228.612527 
L 291.895106 224.98564 
L 284.288936 221.385416 
L 276.682766 218.929127 
L 269.076596 218.921911 
L 261.470426 215.558962 
L 253.864255 216.264184 
L 246.258085 218.192473 
L 238.651915 220.766788 
L 231.045745 224.600618 
L 223.439574 229.137958 
L 215.833404 234.725057 
L 208.227234 242.452892 
L 200.621064 247.756621 
L 193.014894 252.645758 
L 185.408723 257.401153 
L 177.802553 270.17484 
L 170.196383 284.409155 
L 162.590213 293.654329 
L 154.984043 298.473219 
L 147.377872 301.02454 
L 139.771702 302.18352 
L 132.165532 301.864299 
L 124.559362 300.655907 
L 116.953191 297.52583 
L 109.347021 296.128597 
L 101.740851 296.012161 
L 94.134681 295.539812 
L 86.528511 292.227742 
L 78.92234 295.188057 
L 71.31617 298.816657 
L 63.71 296.484233 
z
" style="fill:#3182bd;"/>
   </g>
   <g id="PolyCollection_2">
    <path clip-path="url(#pd31c22177d)" d="M 63.71 265.662271 
L 63.71 296.484233 
L 71.31617 298.816657 
L 78.92234 295.188057 
L 86.528511 292.227742 
L 94.134681 295.539812 
L 101.740851 296.012161 
L 109.347021 296.128597 
L 116.953191 297.52583 
L 124.559362 300.655907 
L 132.165532 301.864299 
L 139.771702 302.18352 
L 147.377872 301.02454 
L 154.984043 298.473219 
L 162.590213 293.654329 
L 170.196383 284.409155 
L 177.802553 270.17484 
L 185.408723 257.401153 
L 193.014894 252.645758 
L 200.621064 247.756621 
L 208.227234 242.452892 
L 215.833404 234.725057 
L 223.439574 229.137958 
L 231.045745 224.600618 
L 238.651915 220.766788 
L 246.258085 218.192473 
L 253.864255 216.264184 
L 261.470426 215.558962 
L 269.076596 218.921911 
L 276.682766 218.929127 
L 284.288936 221.385416 
L 291.895106 224.98564 
L 299.501277 228.612527 
L 307.107447 230.711802 
L 314.713617 228.33767 
L 322.319787 223.098988 
L 329.925957 217.668215 
L 337.532128 216.252442 
L 345.138298 217.288381 
L 352.744468 218.194919 
L 360.350638 221.046137 
L 367.956809 227.202329 
L 375.562979 233.444871 
L 383.169149 241.143597 
L 390.775319 248.275065 
L 398.381489 259.647889 
L 405.98766 269.669957 
L 413.59383 281.652359 
L 421.2 289.638996 
L 421.2 255.822865 
L 421.2 255.822865 
L 413.59383 242.817734 
L 405.98766 225.051686 
L 398.381489 211.009392 
L 390.775319 196.039034 
L 383.169149 184.441165 
L 375.562979 172.443108 
L 367.956809 162.573924 
L 360.350638 153.942975 
L 352.744468 148.835441 
L 345.138298 146.814443 
L 337.532128 145.603116 
L 329.925957 147.671518 
L 322.319787 155.782523 
L 314.713617 165.146615 
L 307.107447 170.948763 
L 299.501277 171.687252 
L 291.895106 169.495024 
L 284.288936 166.544983 
L 276.682766 163.947797 
L 269.076596 164.329272 
L 261.470426 160.066389 
L 253.864255 160.915199 
L 246.258085 163.090059 
L 238.651915 165.585119 
L 231.045745 169.772661 
L 223.439574 174.752262 
L 215.833404 180.948938 
L 208.227234 189.525828 
L 200.621064 195.879439 
L 193.014894 202.476957 
L 185.408723 209.658431 
L 177.802553 227.11011 
L 170.196383 246.870493 
L 162.590213 260.906182 
L 154.984043 269.15211 
L 147.377872 273.236914 
L 139.771702 274.57862 
L 132.165532 274.437967 
L 124.559362 272.902527 
L 116.953191 268.908964 
L 109.347021 267.147256 
L 101.740851 266.750737 
L 94.134681 266.444725 
L 86.528511 262.094026 
L 78.92234 265.257371 
L 71.31617 269.675583 
L 63.71 265.662271 
z
" style="fill:#6baed6;"/>
   </g>
   <g id="PolyCollection_3">
    <path clip-path="url(#pd31c22177d)" d="M 63.71 265.202487 
L 63.71 265.662271 
L 71.31617 269.675583 
L 78.92234 265.257371 
L 86.528511 262.094026 
L 94.134681 266.444725 
L 101.740851 266.750737 
L 109.347021 267.147256 
L 116.953191 268.908964 
L 124.559362 272.902527 
L 132.165532 274.437967 
L 139.771702 274.57862 
L 147.377872 273.236914 
L 154.984043 269.15211 
L 162.590213 260.906182 
L 170.196383 246.870493 
L 177.802553 227.11011 
L 185.408723 209.658431 
L 193.014894 202.476957 
L 200.621064 195.879439 
L 208.227234 189.525828 
L 215.833404 180.948938 
L 223.439574 174.752262 
L 231.045745 169.772661 
L 238.651915 165.585119 
L 246.258085 163.090059 
L 253.864255 160.915199 
L 261.470426 160.066389 
L 269.076596 164.329272 
L 276.682766 163.947797 
L 284.288936 166.544983 
L 291.895106 169.495024 
L 299.501277 171.687252 
L 307.107447 170.948763 
L 314.713617 165.146615 
L 322.319787 155.782523 
L 329.925957 147.671518 
L 337.532128 145.603116 
L 345.138298 146.814443 
L 352.744468 148.835441 
L 360.350638 153.942975 
L 367.956809 162.573924 
L 375.562979 172.443108 
L 383.169149 184.441165 
L 390.775319 196.039034 
L 398.381489 211.009392 
L 405.98766 225.051686 
L 413.59383 242.817734 
L 421.2 255.822865 
L 421.2 255.060404 
L 421.2 255.060404 
L 413.59383 239.516916 
L 405.98766 221.233266 
L 398.381489 207.954656 
L 390.775319 191.556733 
L 383.169149 180.95542 
L 375.562979 167.860516 
L 367.956809 157.863154 
L 360.350638 148.862593 
L 352.744468 143.012657 
L 345.138298 139.035238 
L 337.532128 136.864292 
L 329.925957 139.528084 
L 322.319787 151.267933 
L 314.713617 161.99599 
L 307.107447 168.019759 
L 299.501277 168.708102 
L 291.895106 166.197142 
L 284.288936 162.990746 
L 276.682766 160.543019 
L 269.076596 160.651995 
L 261.470426 156.264114 
L 253.864255 156.900599 
L 246.258085 159.390766 
L 238.651915 161.792628 
L 231.045745 165.835359 
L 223.439574 170.712956 
L 215.833404 177.197298 
L 208.227234 185.911416 
L 200.621064 192.916188 
L 193.014894 198.828055 
L 185.408723 206.473561 
L 177.802553 225.645852 
L 170.196383 246.410619 
L 162.590213 260.698261 
L 154.984043 269.112727 
L 147.377872 273.236914 
L 139.771702 274.57862 
L 132.165532 274.437967 
L 124.559362 272.892498 
L 116.953191 268.872761 
L 109.347021 267.147256 
L 101.740851 266.750737 
L 94.134681 266.414393 
L 86.528511 262.045104 
L 78.92234 265.202822 
L 71.31617 269.495303 
L 63.71 265.202487 
z
" style="fill:#9ecae1;"/>
   </g>
   <g id="PolyCollection_4">
    <path clip-path="url(#pd31c22177d)" d="M 63.71 260.955488 
L 63.71 265.202487 
L 71.31617 269.495303 
L 78.92234 265.202822 
L 86.528511 262.045104 
L 94.134681 266.414393 
L 101.740851 266.750737 
L 109.347021 267.147256 
L 116.953191 268.872761 
L 124.559362 272.892498 
L 132.165532 274.437967 
L 139.771702 274.57862 
L 147.377872 273.236914 
L 154.984043 269.112727 
L 162.590213 260.698261 
L 170.196383 246.410619 
L 177.802553 225.645852 
L 185.408723 206.473561 
L 193.014894 198.828055 
L 200.621064 192.916188 
L 208.227234 185.911416 
L 215.833404 177.197298 
L 223.439574 170.712956 
L 231.045745 165.835359 
L 238.651915 161.792628 
L 246.258085 159.390766 
L 253.864255 156.900599 
L 261.470426 156.264114 
L 269.076596 160.651995 
L 276.682766 160.543019 
L 284.288936 162.990746 
L 291.895106 166.197142 
L 299.501277 168.708102 
L 307.107447 168.019759 
L 314.713617 161.99599 
L 322.319787 151.267933 
L 329.925957 139.528084 
L 337.532128 136.864292 
L 345.138298 139.035238 
L 352.744468 143.012657 
L 360.350638 148.862593 
L 367.956809 157.863154 
L 375.562979 167.860516 
L 383.169149 180.95542 
L 390.775319 191.556733 
L 398.381489 207.954656 
L 405.98766 221.233266 
L 413.59383 239.516916 
L 421.2 255.060404 
L 421.2 250.660782 
L 421.2 250.660782 
L 413.59383 234.861184 
L 405.98766 216.353468 
L 398.381489 202.872807 
L 390.775319 186.262804 
L 383.169149 175.346918 
L 375.562979 162.016694 
L 367.956809 151.883083 
L 360.350638 142.783943 
L 352.744468 136.505688 
L 345.138298 132.29344 
L 337.532128 129.97915 
L 329.925957 132.697246 
L 322.319787 144.954698 
L 314.713617 156.49683 
L 307.107447 162.644862 
L 299.501277 163.349839 
L 291.895106 160.935991 
L 284.288936 157.682384 
L 276.682766 155.154913 
L 269.076596 155.333359 
L 261.470426 150.728262 
L 253.864255 151.374042 
L 246.258085 153.845619 
L 238.651915 156.267294 
L 231.045745 160.476117 
L 223.439574 165.27397 
L 215.833404 171.661201 
L 208.227234 180.451883 
L 200.621064 187.665311 
L 193.014894 193.60384 
L 185.408723 201.404431 
L 177.802553 220.709548 
L 170.196383 241.988249 
L 162.590213 256.30402 
L 154.984043 264.753466 
L 147.377872 268.882545 
L 139.771702 270.257519 
L 132.165532 270.131054 
L 124.559362 268.623989 
L 116.953191 264.619173 
L 109.347021 262.85135 
L 101.740851 262.442356 
L 94.134681 262.289717 
L 86.528511 257.682908 
L 78.92234 260.758191 
L 71.31617 265.2038 
L 63.71 260.955488 
z
" style="fill:#c6dbef;"/>
   </g>
   <g id="PolyCollection_5">
    <path clip-path="url(#pd31c22177d)" d="M 63.71 241.576604 
L 63.71 260.955488 
L 71.31617 265.2038 
L 78.92234 260.758191 
L 86.528511 257.682908 
L 94.134681 262.289717 
L 101.740851 262.442356 
L 109.347021 262.85135 
L 116.953191 264.619173 
L 124.559362 268.623989 
L 132.165532 270.131054 
L 139.771702 270.257519 
L 147.377872 268.882545 
L 154.984043 264.753466 
L 162.590213 256.30402 
L 170.196383 241.988249 
L 177.802553 220.709548 
L 185.408723 201.404431 
L 193.014894 193.60384 
L 200.621064 187.665311 
L 208.227234 180.451883 
L 215.833404 171.661201 
L 223.439574 165.27397 
L 231.045745 160.476117 
L 238.651915 156.267294 
L 246.258085 153.845619 
L 253.864255 151.374042 
L 261.470426 150.728262 
L 269.076596 155.333359 
L 276.682766 155.154913 
L 284.288936 157.682384 
L 291.895106 160.935991 
L 299.501277 163.349839 
L 307.107447 162.644862 
L 314.713617 156.49683 
L 322.319787 144.954698 
L 329.925957 132.697246 
L 337.532128 129.97915 
L 345.138298 132.29344 
L 352.744468 136.505688 
L 360.350638 142.783943 
L 367.956809 151.883083 
L 375.562979 162.016694 
L 383.169149 175.346918 
L 390.775319 186.262804 
L 398.381489 202.872807 
L 405.98766 216.353468 
L 413.59383 234.861184 
L 421.2 250.660782 
L 421.2 230.875252 
L 421.2 230.875252 
L 413.59383 215.188894 
L 405.98766 196.706074 
L 398.381489 183.852274 
L 390.775319 167.378765 
L 383.169149 156.264654 
L 375.562979 142.820685 
L 367.956809 132.748215 
L 360.350638 123.113057 
L 352.744468 116.865675 
L 345.138298 112.66309 
L 337.532128 110.204805 
L 329.925957 113.08842 
L 322.319787 125.527258 
L 314.713617 137.183165 
L 307.107447 143.35515 
L 299.501277 144.110459 
L 291.895106 142.047661 
L 284.288936 138.448585 
L 276.682766 136.203945 
L 269.076596 136.091126 
L 261.470426 131.657402 
L 253.864255 132.471469 
L 246.258085 134.94101 
L 238.651915 137.40548 
L 231.045745 141.618283 
L 223.439574 146.302845 
L 215.833404 152.626757 
L 208.227234 161.530715 
L 200.621064 169.087668 
L 193.014894 175.27567 
L 185.408723 182.90601 
L 177.802553 202.193581 
L 170.196383 223.532001 
L 162.590213 237.626542 
L 154.984043 246.828435 
L 147.377872 250.733448 
L 139.771702 251.112365 
L 132.165532 250.711247 
L 124.559362 250.091609 
L 116.953191 246.003136 
L 109.347021 244.370875 
L 101.740851 243.86428 
L 94.134681 243.62286 
L 86.528511 238.203413 
L 78.92234 241.244629 
L 71.31617 245.785078 
L 63.71 241.576604 
z
" style="fill:#e6550d;"/>
   </g>
   <g id="PolyCollection_6">
    <path clip-path="url(#pd31c22177d)" d="M 63.71 220.128369 
L 63.71 241.576604 
L 71.31617 245.785078 
L 78.92234 241.244629 
L 86.528511 238.203413 
L 94.134681 243.62286 
L 101.740851 243.86428 
L 109.347021 244.370875 
L 116.953191 246.003136 
L 124.559362 250.091609 
L 132.165532 250.711247 
L 139.771702 251.112365 
L 147.377872 250.733448 
L 154.984043 246.828435 
L 162.590213 237.626542 
L 170.196383 223.532001 
L 177.802553 202.193581 
L 185.408723 182.90601 
L 193.014894 175.27567 
L 200.621064 169.087668 
L 208.227234 161.530715 
L 215.833404 152.626757 
L 223.439574 146.302845 
L 231.045745 141.618283 
L 238.651915 137.40548 
L 246.258085 134.94101 
L 253.864255 132.471469 
L 261.470426 131.657402 
L 269.076596 136.091126 
L 276.682766 136.203945 
L 284.288936 138.448585 
L 291.895106 142.047661 
L 299.501277 144.110459 
L 307.107447 143.35515 
L 314.713617 137.183165 
L 322.319787 125.527258 
L 329.925957 113.08842 
L 337.532128 110.204805 
L 345.138298 112.66309 
L 352.744468 116.865675 
L 360.350638 123.113057 
L 367.956809 132.748215 
L 375.562979 142.820685 
L 383.169149 156.264654 
L 390.775319 167.378765 
L 398.381489 183.852274 
L 405.98766 196.706074 
L 413.59383 215.188894 
L 421.2 230.875252 
L 421.2 208.740609 
L 421.2 208.740609 
L 413.59383 192.606081 
L 405.98766 173.604062 
L 398.381489 160.371179 
L 390.775319 143.432415 
L 383.169149 132.002974 
L 375.562979 118.386308 
L 367.956809 108.27501 
L 360.350638 98.068795 
L 352.744468 91.462961 
L 345.138298 87.176617 
L 337.532128 84.658566 
L 329.925957 87.487212 
L 322.319787 100.160459 
L 314.713617 112.081833 
L 307.107447 118.304543 
L 299.501277 119.252216 
L 291.895106 117.21955 
L 284.288936 113.616117 
L 276.682766 111.960919 
L 269.076596 111.410109 
L 261.470426 107.031564 
L 253.864255 108.016744 
L 246.258085 110.962798 
L 238.651915 113.50003 
L 231.045745 118.099236 
L 223.439574 122.879225 
L 215.833404 129.40076 
L 208.227234 138.700197 
L 200.621064 146.527452 
L 193.014894 152.882754 
L 185.408723 161.010638 
L 177.802553 180.760255 
L 170.196383 202.262676 
L 162.590213 216.495099 
L 154.984043 226.343044 
L 147.377872 230.089303 
L 139.771702 229.541981 
L 132.165532 229.077403 
L 124.559362 229.040258 
L 116.953191 225.144296 
L 109.347021 223.761198 
L 101.740851 223.102208 
L 94.134681 222.823213 
L 86.528511 216.836302 
L 78.92234 219.603791 
L 71.31617 224.115853 
L 63.71 220.128369 
z
" style="fill:#fd8d3c;"/>
   </g>
   <g id="PolyCollection_7">
    <path clip-path="url(#pd31c22177d)" d="M 63.71 220.128369 
L 63.71 220.128369 
L 71.31617 224.115853 
L 78.92234 219.603791 
L 86.528511 216.836302 
L 94.134681 222.823213 
L 101.740851 223.102208 
L 109.347021 223.761198 
L 116.953191 225.144296 
L 124.559362 229.040258 
L 132.165532 229.077403 
L 139.771702 229.541981 
L 147.377872 230.089303 
L 154.984043 226.343044 
L 162.590213 216.495099 
L 170.196383 202.262676 
L 177.802553 180.760255 
L 185.408723 161.010638 
L 193.014894 152.882754 
L 200.621064 146.527452 
L 208.227234 138.700197 
L 215.833404 129.40076 
L 223.439574 122.879225 
L 231.045745 118.099236 
L 238.651915 113.50003 
L 246.258085 110.962798 
L 253.864255 108.016744 
L 261.470426 107.031564 
L 269.076596 111.410109 
L 276.682766 111.960919 
L 284.288936 113.616117 
L 291.895106 117.21955 
L 299.501277 119.252216 
L 307.107447 118.304543 
L 314.713617 112.081833 
L 322.319787 100.160459 
L 329.925957 87.487212 
L 337.532128 84.658566 
L 345.138298 87.176617 
L 352.744468 91.462961 
L 360.350638 98.068795 
L 367.956809 108.27501 
L 375.562979 118.386308 
L 383.169149 132.002974 
L 390.775319 143.432415 
L 398.381489 160.371179 
L 405.98766 173.604062 
L 413.59383 192.606081 
L 421.2 208.740609 
L 421.2 208.740609 
L 421.2 208.740609 
L 413.59383 192.605836 
L 405.98766 173.603818 
L 398.381489 160.370935 
L 390.775319 143.432415 
L 383.169149 132.002974 
L 375.562979 118.386308 
L 367.956809 108.273298 
L 360.350638 98.067083 
L 352.744468 91.459047 
L 345.138298 87.172703 
L 337.532128 84.439393 
L 329.925957 87.055224 
L 322.319787 98.459415 
L 314.713617 109.100237 
L 307.107447 113.760599 
L 299.501277 113.12024 
L 291.895106 109.886521 
L 284.288936 105.060264 
L 276.682766 102.849915 
L 269.076596 101.691118 
L 261.470426 97.689523 
L 253.864255 99.014226 
L 246.258085 103.026796 
L 238.651915 106.615378 
L 231.045745 112.826588 
L 223.439574 119.20684 
L 215.833404 127.1782 
L 208.227234 137.921592 
L 200.621064 146.136315 
L 193.014894 152.880064 
L 185.408723 161.008192 
L 177.802553 180.759277 
L 170.196383 202.260964 
L 162.590213 216.493876 
L 154.984043 226.342066 
L 147.377872 230.089303 
L 139.771702 229.541981 
L 132.165532 229.077403 
L 124.559362 229.040258 
L 116.953191 225.144296 
L 109.347021 223.761198 
L 101.740851 223.102208 
L 94.134681 222.823213 
L 86.528511 216.836302 
L 78.92234 219.603791 
L 71.31617 224.115853 
L 63.71 220.128369 
z
" style="fill:#fdae6b;"/>
   </g>
   <g id="PolyCollection_8">
    <path clip-path="url(#pd31c22177d)" d="M 63.71 164.29001 
L 63.71 220.128369 
L 71.31617 224.115853 
L 78.92234 219.603791 
L 86.528511 216.836302 
L 94.134681 222.823213 
L 101.740851 223.102208 
L 109.347021 223.761198 
L 116.953191 225.144296 
L 124.559362 229.040258 
L 132.165532 229.077403 
L 139.771702 229.541981 
L 147.377872 230.089303 
L 154.984043 226.342066 
L 162.590213 216.493876 
L 170.196383 202.260964 
L 177.802553 180.759277 
L 185.408723 161.008192 
L 193.014894 152.880064 
L 200.621064 146.136315 
L 208.227234 137.921592 
L 215.833404 127.1782 
L 223.439574 119.20684 
L 231.045745 112.826588 
L 238.651915 106.615378 
L 246.258085 103.026796 
L 253.864255 99.014226 
L 261.470426 97.689523 
L 269.076596 101.691118 
L 276.682766 102.849915 
L 284.288936 105.060264 
L 291.895106 109.886521 
L 299.501277 113.12024 
L 307.107447 113.760599 
L 314.713617 109.100237 
L 322.319787 98.459415 
L 329.925957 87.055224 
L 337.532128 84.439393 
L 345.138298 87.172703 
L 352.744468 91.459047 
L 360.350638 98.067083 
L 367.956809 108.273298 
L 375.562979 118.386308 
L 383.169149 132.002974 
L 390.775319 143.432415 
L 398.381489 160.370935 
L 405.98766 173.603818 
L 413.59383 192.605836 
L 421.2 208.740609 
L 421.2 152.855676 
L 421.2 152.855676 
L 413.59383 136.685678 
L 405.98766 115.747543 
L 398.381489 102.492155 
L 390.775319 85.570758 
L 383.169149 74.078452 
L 375.562979 60.488938 
L 367.956809 50.446866 
L 360.350638 40.217901 
L 352.744468 33.679826 
L 345.138298 29.455613 
L 337.532128 26.75875 
L 329.925957 29.33153 
L 322.319787 40.746729 
L 314.713617 51.498116 
L 307.107447 56.228437 
L 299.501277 55.587345 
L 291.895106 52.373684 
L 284.288936 47.519541 
L 276.682766 45.353222 
L 269.076596 45.117719 
L 261.470426 40.100611 
L 253.864255 41.388377 
L 246.258085 45.388472 
L 238.651915 48.993443 
L 231.045745 55.201473 
L 223.439574 61.520816 
L 215.833404 69.31532 
L 208.227234 80.020308 
L 200.621064 88.265608 
L 193.014894 94.99786 
L 185.408723 103.12501 
L 177.802553 122.821056 
L 170.196383 144.304642 
L 162.590213 158.499394 
L 154.984043 168.323367 
L 147.377872 172.06718 
L 139.771702 171.571226 
L 132.165532 171.187126 
L 124.559362 171.197437 
L 116.953191 167.331807 
L 109.347021 166.016222 
L 101.740851 165.347937 
L 94.134681 166.910883 
L 86.528511 158.995683 
L 78.92234 161.769531 
L 71.31617 168.149464 
L 63.71 164.29001 
z
" style="fill:#fdd0a2;"/>
   </g>
   <g id="PolyCollection_9">
    <path clip-path="url(#pd31c22177d)" d="M 63.71 164.29001 
L 63.71 164.29001 
L 71.31617 168.149464 
L 78.92234 161.769531 
L 86.528511 158.995683 
L 94.134681 166.910883 
L 101.740851 165.347937 
L 109.347021 166.016222 
L 116.953191 167.331807 
L 124.559362 171.197437 
L 132.165532 171.187126 
L 139.771702 171.571226 
L 147.377872 172.06718 
L 154.984043 168.323367 
L 162.590213 158.499394 
L 170.196383 144.304642 
L 177.802553 122.821056 
L 185.408723 103.12501 
L 193.014894 94.99786 
L 200.621064 88.265608 
L 208.227234 80.020308 
L 215.833404 69.31532 
L 223.439574 61.520816 
L 231.045745 55.201473 
L 238.651915 48.993443 
L 246.258085 45.388472 
L 253.864255 41.388377 
L 261.470426 40.100611 
L 269.076596 45.117719 
L 276.682766 45.353222 
L 284.288936 47.519541 
L 291.895106 52.373684 
L 299.501277 55.587345 
L 307.107447 56.228437 
L 314.713617 51.498116 
L 322.319787 40.746729 
L 329.925957 29.33153 
L 337.532128 26.75875 
L 345.138298 29.455613 
L 352.744468 33.679826 
L 360.350638 40.217901 
L 367.956809 50.446866 
L 375.562979 60.488938 
L 383.169149 74.078452 
L 390.775319 85.570758 
L 398.381489 102.492155 
L 405.98766 115.747543 
L 413.59383 136.685678 
L 421.2 152.855676 
L 421.2 152.855676 
L 421.2 152.855676 
L 413.59383 136.685678 
L 405.98766 115.747543 
L 398.381489 102.492155 
L 390.775319 85.570758 
L 383.169149 74.078452 
L 375.562979 60.488938 
L 367.956809 50.446866 
L 360.350638 40.217901 
L 352.744468 33.679826 
L 345.138298 29.455613 
L 337.532128 26.75875 
L 329.925957 29.330011 
L 322.319787 40.655541 
L 314.713617 50.787112 
L 307.107447 53.94717 
L 299.501277 51.293396 
L 291.895106 45.952574 
L 284.288936 39.062267 
L 276.682766 35.32773 
L 269.076596 33.74514 
L 261.470426 28.312677 
L 253.864255 29.787818 
L 246.258085 34.138932 
L 238.651915 38.766878 
L 231.045745 46.56661 
L 223.439574 54.793939 
L 215.833404 64.645523 
L 208.227234 77.543717 
L 200.621064 87.528969 
L 193.014894 94.9249 
L 185.408723 103.124072 
L 177.802553 122.821056 
L 170.196383 144.304642 
L 162.590213 158.499394 
L 154.984043 168.323367 
L 147.377872 172.06718 
L 139.771702 171.571226 
L 132.165532 171.187126 
L 124.559362 171.197437 
L 116.953191 167.331807 
L 109.347021 166.016222 
L 101.740851 165.347937 
L 94.134681 166.910883 
L 86.528511 158.995683 
L 78.92234 161.769531 
L 71.31617 168.149464 
L 63.71 164.29001 
z
" style="fill:#31a354;"/>
   </g>
   <g id="PolyCollection_10">
    <path clip-path="url(#pd31c22177d)" d="M 63.71 164.29001 
L 63.71 164.29001 
L 71.31617 168.149464 
L 78.92234 161.769531 
L 86.528511 158.995683 
L 94.134681 166.910883 
L 101.740851 165.347937 
L 109.347021 166.016222 
L 116.953191 167.331807 
L 124.559362 171.197437 
L 132.165532 171.187126 
L 139.771702 171.571226 
L 147.377872 172.06718 
L 154.984043 168.323367 
L 162.590213 158.499394 
L 170.196383 144.304642 
L 177.802553 122.821056 
L 185.408723 103.124072 
L 193.014894 94.9249 
L 200.621064 87.528969 
L 208.227234 77.543717 
L 215.833404 64.645523 
L 223.439574 54.793939 
L 231.045745 46.56661 
L 238.651915 38.766878 
L 246.258085 34.138932 
L 253.864255 29.787818 
L 261.470426 28.312677 
L 269.076596 33.74514 
L 276.682766 35.32773 
L 284.288936 39.062267 
L 291.895106 45.952574 
L 299.501277 51.293396 
L 307.107447 53.94717 
L 314.713617 50.787112 
L 322.319787 40.655541 
L 329.925957 29.330011 
L 337.532128 26.75875 
L 345.138298 29.455613 
L 352.744468 33.679826 
L 360.350638 40.217901 
L 367.956809 50.446866 
L 375.562979 60.488938 
L 383.169149 74.078452 
L 390.775319 85.570758 
L 398.381489 102.492155 
L 405.98766 115.747543 
L 413.59383 136.685678 
L 421.2 152.855676 
L 421.2 152.855676 
L 421.2 152.855676 
L 413.59383 136.685678 
L 405.98766 115.747543 
L 398.381489 102.492155 
L 390.775319 85.570758 
L 383.169149 74.078452 
L 375.562979 60.488938 
L 367.956809 50.446866 
L 360.350638 40.217901 
L 352.744468 33.679826 
L 345.138298 29.455613 
L 337.532128 26.75875 
L 329.925957 29.330011 
L 322.319787 40.655541 
L 314.713617 50.787112 
L 307.107447 53.94717 
L 299.501277 51.293396 
L 291.895106 45.952574 
L 284.288936 39.062267 
L 276.682766 35.32773 
L 269.076596 33.74514 
L 261.470426 28.312677 
L 253.864255 29.787818 
L 246.258085 34.138932 
L 238.651915 38.766878 
L 231.045745 46.56661 
L 223.439574 54.793939 
L 215.833404 64.645523 
L 208.227234 77.543717 
L 200.621064 87.528969 
L 193.014894 94.9249 
L 185.408723 103.124072 
L 177.802553 122.821056 
L 170.196383 144.304642 
L 162.590213 158.499394 
L 154.984043 168.323367 
L 147.377872 172.06718 
L 139.771702 171.571226 
L 132.165532 171.187126 
L 124.559362 171.197437 
L 116.953191 167.331807 
L 109.347021 166.016222 
L 101.740851 165.347937 
L 94.134681 166.910883 
L 86.528511 158.995683 
L 78.92234 161.769531 
L 71.31617 168.149464 
L 63.71 164.29001 
z
" style="fill:#74c476;"/>
   </g>
   <g id="PolyCollection_11">
    <path clip-path="url(#pd31c22177d)" d="M 63.71 164.29001 
L 63.71 164.29001 
L 71.31617 168.149464 
L 78.92234 161.769531 
L 86.528511 158.995683 
L 94.134681 166.910883 
L 101.740851 165.347937 
L 109.347021 166.016222 
L 116.953191 167.331807 
L 124.559362 171.197437 
L 132.165532 171.187126 
L 139.771702 171.571226 
L 147.377872 172.06718 
L 154.984043 168.323367 
L 162.590213 158.499394 
L 170.196383 144.304642 
L 177.802553 122.821056 
L 185.408723 103.124072 
L 193.014894 94.9249 
L 200.621064 87.528969 
L 208.227234 77.543717 
L 215.833404 64.645523 
L 223.439574 54.793939 
L 231.045745 46.56661 
L 238.651915 38.766878 
L 246.258085 34.138932 
L 253.864255 29.787818 
L 261.470426 28.312677 
L 269.076596 33.74514 
L 276.682766 35.32773 
L 284.288936 39.062267 
L 291.895106 45.952574 
L 299.501277 51.293396 
L 307.107447 53.94717 
L 314.713617 50.787112 
L 322.319787 40.655541 
L 329.925957 29.330011 
L 337.532128 26.75875 
L 345.138298 29.455613 
L 352.744468 33.679826 
L 360.350638 40.217901 
L 367.956809 50.446866 
L 375.562979 60.488938 
L 383.169149 74.078452 
L 390.775319 85.570758 
L 398.381489 102.492155 
L 405.98766 115.747543 
L 413.59383 136.685678 
L 421.2 152.855676 
L 421.2 152.855676 
L 421.2 152.855676 
L 413.59383 136.685678 
L 405.98766 115.747543 
L 398.381489 102.492155 
L 390.775319 85.570758 
L 383.169149 74.078452 
L 375.562979 60.488938 
L 367.956809 50.446866 
L 360.350638 40.217901 
L 352.744468 33.679826 
L 345.138298 29.455613 
L 337.532128 26.75875 
L 329.925957 29.330011 
L 322.319787 40.655541 
L 314.713617 50.787112 
L 307.107447 53.94717 
L 299.501277 51.293396 
L 291.895106 45.952574 
L 284.288936 39.062267 
L 276.682766 35.32773 
L 269.076596 33.74514 
L 261.470426 28.312677 
L 253.864255 29.787818 
L 246.258085 34.138932 
L 238.651915 38.766878 
L 231.045745 46.56661 
L 223.439574 54.793939 
L 215.833404 64.645523 
L 208.227234 77.543717 
L 200.621064 87.528969 
L 193.014894 94.9249 
L 185.408723 103.124072 
L 177.802553 122.821056 
L 170.196383 144.304642 
L 162.590213 158.499394 
L 154.984043 168.323367 
L 147.377872 172.06718 
L 139.771702 171.571226 
L 132.165532 171.187126 
L 124.559362 171.197437 
L 116.953191 167.331807 
L 109.347021 166.016222 
L 101.740851 165.347937 
L 94.134681 166.910883 
L 86.528511 158.995683 
L 78.92234 161.769531 
L 71.31617 168.149464 
L 63.71 164.29001 
z
" style="fill:#a1d99b;"/>
   </g>
   <g id="matplotlib.axis_1">
    <g id="xtick_1">
     <g id="line2d_1">
      <defs>
       <path d="M 0 0 
L 0 3.5 
" id="meb0023bf96" style="stroke:#000000;stroke-width:0.8;"/>
      </defs>
      <g>
       <use style="stroke:#000000;stroke-width:0.8;" x="63.71" xlink:href="#meb0023bf96" y="361.653756"/>
      </g>
     </g>
     <g id="text_1">
      <!-- 0:00:00 -->
      <g transform="translate(44.435 376.252193)scale(0.1 -0.1)">
       <defs>
        <path d="M 2034 4250 
Q 1547 4250 1301 3770 
Q 1056 3291 1056 2328 
Q 1056 1369 1301 889 
Q 1547 409 2034 409 
Q 2525 409 2770 889 
Q 3016 1369 3016 2328 
Q 3016 3291 2770 3770 
Q 2525 4250 2034 4250 
z
M 2034 4750 
Q 2819 4750 3233 4129 
Q 3647 3509 3647 2328 
Q 3647 1150 3233 529 
Q 2819 -91 2034 -91 
Q 1250 -91 836 529 
Q 422 1150 422 2328 
Q 422 3509 836 4129 
Q 1250 4750 2034 4750 
z
" id="DejaVuSans-30" transform="scale(0.015625)"/>
        <path d="M 750 794 
L 1409 794 
L 1409 0 
L 750 0 
L 750 794 
z
M 750 3309 
L 1409 3309 
L 1409 2516 
L 750 2516 
L 750 3309 
z
" id="DejaVuSans-3a" transform="scale(0.015625)"/>
       </defs>
       <use xlink:href="#DejaVuSans-30"/>
       <use x="63.623047" xlink:href="#DejaVuSans-3a"/>
       <use x="97.314453" xlink:href="#DejaVuSans-30"/>
       <use x="160.9375" xlink:href="#DejaVuSans-30"/>
       <use x="224.560547" xlink:href="#DejaVuSans-3a"/>
       <use x="258.251953" xlink:href="#DejaVuSans-30"/>
       <use x="321.875" xlink:href="#DejaVuSans-30"/>
      </g>
     </g>
    </g>
    <g id="xtick_2">
     <g id="line2d_2">
      <g>
       <use style="stroke:#000000;stroke-width:0.8;" x="124.559362" xlink:href="#meb0023bf96" y="361.653756"/>
      </g>
     </g>
     <g id="text_2">
      <!-- 4:00:00 -->
      <g transform="translate(105.284362 376.252193)scale(0.1 -0.1)">
       <defs>
        <path d="M 2419 4116 
L 825 1625 
L 2419 1625 
L 2419 4116 
z
M 2253 4666 
L 3047 4666 
L 3047 1625 
L 3713 1625 
L 3713 1100 
L 3047 1100 
L 3047 0 
L 2419 0 
L 2419 1100 
L 313 1100 
L 313 1709 
L 2253 4666 
z
" id="DejaVuSans-34" transform="scale(0.015625)"/>
       </defs>
       <use xlink:href="#DejaVuSans-34"/>
       <use x="63.623047" xlink:href="#DejaVuSans-3a"/>
       <use x="97.314453" xlink:href="#DejaVuSans-30"/>
       <use x="160.9375" xlink:href="#DejaVuSans-30"/>
       <use x="224.560547" xlink:href="#DejaVuSans-3a"/>
       <use x="258.251953" xlink:href="#DejaVuSans-30"/>
       <use x="321.875" xlink:href="#DejaVuSans-30"/>
      </g>
     </g>
    </g>
    <g id="xtick_3">
     <g id="line2d_3">
      <g>
       <use style="stroke:#000000;stroke-width:0.8;" x="185.408723" xlink:href="#meb0023bf96" y="361.653756"/>
      </g>
     </g>
     <g id="text_3">
      <!-- 8:00:00 -->
      <g transform="translate(166.133723 376.252193)scale(0.1 -0.1)">
       <defs>
        <path d="M 2034 2216 
Q 1584 2216 1326 1975 
Q 1069 1734 1069 1313 
Q 1069 891 1326 650 
Q 1584 409 2034 409 
Q 2484 409 2743 651 
Q 3003 894 3003 1313 
Q 3003 1734 2745 1975 
Q 2488 2216 2034 2216 
z
M 1403 2484 
Q 997 2584 770 2862 
Q 544 3141 544 3541 
Q 544 4100 942 4425 
Q 1341 4750 2034 4750 
Q 2731 4750 3128 4425 
Q 3525 4100 3525 3541 
Q 3525 3141 3298 2862 
Q 3072 2584 2669 2484 
Q 3125 2378 3379 2068 
Q 3634 1759 3634 1313 
Q 3634 634 3220 271 
Q 2806 -91 2034 -91 
Q 1263 -91 848 271 
Q 434 634 434 1313 
Q 434 1759 690 2068 
Q 947 2378 1403 2484 
z
M 1172 3481 
Q 1172 3119 1398 2916 
Q 1625 2713 2034 2713 
Q 2441 2713 2670 2916 
Q 2900 3119 2900 3481 
Q 2900 3844 2670 4047 
Q 2441 4250 2034 4250 
Q 1625 4250 1398 4047 
Q 1172 3844 1172 3481 
z
" id="DejaVuSans-38" transform="scale(0.015625)"/>
       </defs>
       <use xlink:href="#DejaVuSans-38"/>
       <use x="63.623047" xlink:href="#DejaVuSans-3a"/>
       <use x="97.314453" xlink:href="#DejaVuSans-30"/>
       <use x="160.9375" xlink:href="#DejaVuSans-30"/>
       <use x="224.560547" xlink:href="#DejaVuSans-3a"/>
       <use x="258.251953" xlink:href="#DejaVuSans-30"/>
       <use x="321.875" xlink:href="#DejaVuSans-30"/>
      </g>
     </g>
    </g>
    <g id="xtick_4">
     <g id="line2d_4">
      <g>
       <use style="stroke:#000000;stroke-width:0.8;" x="246.258085" xlink:href="#meb0023bf96" y="361.653756"/>
      </g>
     </g>
     <g id="text_4">
      <!-- 12:00:00 -->
      <g transform="translate(223.801835 376.252193)scale(0.1 -0.1)">
       <defs>
        <path d="M 794 531 
L 1825 531 
L 1825 4091 
L 703 3866 
L 703 4441 
L 1819 4666 
L 2450 4666 
L 2450 531 
L 3481 531 
L 3481 0 
L 794 0 
L 794 531 
z
" id="DejaVuSans-31" transform="scale(0.015625)"/>
        <path d="M 1228 531 
L 3431 531 
L 3431 0 
L 469 0 
L 469 531 
Q 828 903 1448 1529 
Q 2069 2156 2228 2338 
Q 2531 2678 2651 2914 
Q 2772 3150 2772 3378 
Q 2772 3750 2511 3984 
Q 2250 4219 1831 4219 
Q 1534 4219 1204 4116 
Q 875 4013 500 3803 
L 500 4441 
Q 881 4594 1212 4672 
Q 1544 4750 1819 4750 
Q 2544 4750 2975 4387 
Q 3406 4025 3406 3419 
Q 3406 3131 3298 2873 
Q 3191 2616 2906 2266 
Q 2828 2175 2409 1742 
Q 1991 1309 1228 531 
z
" id="DejaVuSans-32" transform="scale(0.015625)"/>
       </defs>
       <use xlink:href="#DejaVuSans-31"/>
       <use x="63.623047" xlink:href="#DejaVuSans-32"/>
       <use x="127.246094" xlink:href="#DejaVuSans-3a"/>
       <use x="160.9375" xlink:href="#DejaVuSans-30"/>
       <use x="224.560547" xlink:href="#DejaVuSans-30"/>
       <use x="288.183594" xlink:href="#DejaVuSans-3a"/>
       <use x="321.875" xlink:href="#DejaVuSans-30"/>
       <use x="385.498047" xlink:href="#DejaVuSans-30"/>
      </g>
     </g>
    </g>
    <g id="xtick_5">
     <g id="line2d_5">
      <g>
       <use style="stroke:#000000;stroke-width:0.8;" x="307.107447" xlink:href="#meb0023bf96" y="361.653756"/>
      </g>
     </g>
     <g id="text_5">
      <!-- 16:00:00 -->
      <g transform="translate(284.651197 376.252193)scale(0.1 -0.1)">
       <defs>
        <path d="M 2113 2584 
Q 1688 2584 1439 2293 
Q 1191 2003 1191 1497 
Q 1191 994 1439 701 
Q 1688 409 2113 409 
Q 2538 409 2786 701 
Q 3034 994 3034 1497 
Q 3034 2003 2786 2293 
Q 2538 2584 2113 2584 
z
M 3366 4563 
L 3366 3988 
Q 3128 4100 2886 4159 
Q 2644 4219 2406 4219 
Q 1781 4219 1451 3797 
Q 1122 3375 1075 2522 
Q 1259 2794 1537 2939 
Q 1816 3084 2150 3084 
Q 2853 3084 3261 2657 
Q 3669 2231 3669 1497 
Q 3669 778 3244 343 
Q 2819 -91 2113 -91 
Q 1303 -91 875 529 
Q 447 1150 447 2328 
Q 447 3434 972 4092 
Q 1497 4750 2381 4750 
Q 2619 4750 2861 4703 
Q 3103 4656 3366 4563 
z
" id="DejaVuSans-36" transform="scale(0.015625)"/>
       </defs>
       <use xlink:href="#DejaVuSans-31"/>
       <use x="63.623047" xlink:href="#DejaVuSans-36"/>
       <use x="127.246094" xlink:href="#DejaVuSans-3a"/>
       <use x="160.9375" xlink:href="#DejaVuSans-30"/>
       <use x="224.560547" xlink:href="#DejaVuSans-30"/>
       <use x="288.183594" xlink:href="#DejaVuSans-3a"/>
       <use x="321.875" xlink:href="#DejaVuSans-30"/>
       <use x="385.498047" xlink:href="#DejaVuSans-30"/>
      </g>
     </g>
    </g>
    <g id="xtick_6">
     <g id="line2d_6">
      <g>
       <use style="stroke:#000000;stroke-width:0.8;" x="367.956809" xlink:href="#meb0023bf96" y="361.653756"/>
      </g>
     </g>
     <g id="text_6">
      <!-- 20:00:00 -->
      <g transform="translate(345.500559 376.252193)scale(0.1 -0.1)">
       <use xlink:href="#DejaVuSans-32"/>
       <use x="63.623047" xlink:href="#DejaVuSans-30"/>
       <use x="127.246094" xlink:href="#DejaVuSans-3a"/>
       <use x="160.9375" xlink:href="#DejaVuSans-30"/>
       <use x="224.560547" xlink:href="#DejaVuSans-30"/>
       <use x="288.183594" xlink:href="#DejaVuSans-3a"/>
       <use x="321.875" xlink:href="#DejaVuSans-30"/>
       <use x="385.498047" xlink:href="#DejaVuSans-30"/>
      </g>
     </g>
    </g>
    <g id="text_7">
     <!-- Time of Day -->
     <g transform="translate(212.350313 389.930318)scale(0.1 -0.1)">
      <defs>
       <path d="M -19 4666 
L 3928 4666 
L 3928 4134 
L 2272 4134 
L 2272 0 
L 1638 0 
L 1638 4134 
L -19 4134 
L -19 4666 
z
" id="DejaVuSans-54" transform="scale(0.015625)"/>
       <path d="M 603 3500 
L 1178 3500 
L 1178 0 
L 603 0 
L 603 3500 
z
M 603 4863 
L 1178 4863 
L 1178 4134 
L 603 4134 
L 603 4863 
z
" id="DejaVuSans-69" transform="scale(0.015625)"/>
       <path d="M 3328 2828 
Q 3544 3216 3844 3400 
Q 4144 3584 4550 3584 
Q 5097 3584 5394 3201 
Q 5691 2819 5691 2113 
L 5691 0 
L 5113 0 
L 5113 2094 
Q 5113 2597 4934 2840 
Q 4756 3084 4391 3084 
Q 3944 3084 3684 2787 
Q 3425 2491 3425 1978 
L 3425 0 
L 2847 0 
L 2847 2094 
Q 2847 2600 2669 2842 
Q 2491 3084 2119 3084 
Q 1678 3084 1418 2786 
Q 1159 2488 1159 1978 
L 1159 0 
L 581 0 
L 581 3500 
L 1159 3500 
L 1159 2956 
Q 1356 3278 1631 3431 
Q 1906 3584 2284 3584 
Q 2666 3584 2933 3390 
Q 3200 3197 3328 2828 
z
" id="DejaVuSans-6d" transform="scale(0.015625)"/>
       <path d="M 3597 1894 
L 3597 1613 
L 953 1613 
Q 991 1019 1311 708 
Q 1631 397 2203 397 
Q 2534 397 2845 478 
Q 3156 559 3463 722 
L 3463 178 
Q 3153 47 2828 -22 
Q 2503 -91 2169 -91 
Q 1331 -91 842 396 
Q 353 884 353 1716 
Q 353 2575 817 3079 
Q 1281 3584 2069 3584 
Q 2775 3584 3186 3129 
Q 3597 2675 3597 1894 
z
M 3022 2063 
Q 3016 2534 2758 2815 
Q 2500 3097 2075 3097 
Q 1594 3097 1305 2825 
Q 1016 2553 972 2059 
L 3022 2063 
z
" id="DejaVuSans-65" transform="scale(0.015625)"/>
       <path id="DejaVuSans-20" transform="scale(0.015625)"/>
       <path d="M 1959 3097 
Q 1497 3097 1228 2736 
Q 959 2375 959 1747 
Q 959 1119 1226 758 
Q 1494 397 1959 397 
Q 2419 397 2687 759 
Q 2956 1122 2956 1747 
Q 2956 2369 2687 2733 
Q 2419 3097 1959 3097 
z
M 1959 3584 
Q 2709 3584 3137 3096 
Q 3566 2609 3566 1747 
Q 3566 888 3137 398 
Q 2709 -91 1959 -91 
Q 1206 -91 779 398 
Q 353 888 353 1747 
Q 353 2609 779 3096 
Q 1206 3584 1959 3584 
z
" id="DejaVuSans-6f" transform="scale(0.015625)"/>
       <path d="M 2375 4863 
L 2375 4384 
L 1825 4384 
Q 1516 4384 1395 4259 
Q 1275 4134 1275 3809 
L 1275 3500 
L 2222 3500 
L 2222 3053 
L 1275 3053 
L 1275 0 
L 697 0 
L 697 3053 
L 147 3053 
L 147 3500 
L 697 3500 
L 697 3744 
Q 697 4328 969 4595 
Q 1241 4863 1831 4863 
L 2375 4863 
z
" id="DejaVuSans-66" transform="scale(0.015625)"/>
       <path d="M 1259 4147 
L 1259 519 
L 2022 519 
Q 2988 519 3436 956 
Q 3884 1394 3884 2338 
Q 3884 3275 3436 3711 
Q 2988 4147 2022 4147 
L 1259 4147 
z
M 628 4666 
L 1925 4666 
Q 3281 4666 3915 4102 
Q 4550 3538 4550 2338 
Q 4550 1131 3912 565 
Q 3275 0 1925 0 
L 628 0 
L 628 4666 
z
" id="DejaVuSans-44" transform="scale(0.015625)"/>
       <path d="M 2194 1759 
Q 1497 1759 1228 1600 
Q 959 1441 959 1056 
Q 959 750 1161 570 
Q 1363 391 1709 391 
Q 2188 391 2477 730 
Q 2766 1069 2766 1631 
L 2766 1759 
L 2194 1759 
z
M 3341 1997 
L 3341 0 
L 2766 0 
L 2766 531 
Q 2569 213 2275 61 
Q 1981 -91 1556 -91 
Q 1019 -91 701 211 
Q 384 513 384 1019 
Q 384 1609 779 1909 
Q 1175 2209 1959 2209 
L 2766 2209 
L 2766 2266 
Q 2766 2663 2505 2880 
Q 2244 3097 1772 3097 
Q 1472 3097 1187 3025 
Q 903 2953 641 2809 
L 641 3341 
Q 956 3463 1253 3523 
Q 1550 3584 1831 3584 
Q 2591 3584 2966 3190 
Q 3341 2797 3341 1997 
z
" id="DejaVuSans-61" transform="scale(0.015625)"/>
       <path d="M 2059 -325 
Q 1816 -950 1584 -1140 
Q 1353 -1331 966 -1331 
L 506 -1331 
L 506 -850 
L 844 -850 
Q 1081 -850 1212 -737 
Q 1344 -625 1503 -206 
L 1606 56 
L 191 3500 
L 800 3500 
L 1894 763 
L 2988 3500 
L 3597 3500 
L 2059 -325 
z
" id="DejaVuSans-79" transform="scale(0.015625)"/>
      </defs>
      <use xlink:href="#DejaVuSans-54"/>
      <use x="57.958984" xlink:href="#DejaVuSans-69"/>
      <use x="85.742188" xlink:href="#DejaVuSans-6d"/>
      <use x="183.154297" xlink:href="#DejaVuSans-65"/>
      <use x="244.677734" xlink:href="#DejaVuSans-20"/>
      <use x="276.464844" xlink:href="#DejaVuSans-6f"/>
      <use x="337.646484" xlink:href="#DejaVuSans-66"/>
      <use x="372.851562" xlink:href="#DejaVuSans-20"/>
      <use x="404.638672" xlink:href="#DejaVuSans-44"/>
      <use x="481.640625" xlink:href="#DejaVuSans-61"/>
      <use x="542.919922" xlink:href="#DejaVuSans-79"/>
     </g>
    </g>
   </g>
   <g id="matplotlib.axis_2">
    <g id="ytick_1">
     <g id="line2d_7">
      <defs>
       <path d="M 0 0 
L -3.5 0 
" id="md88b27b687" style="stroke:#000000;stroke-width:0.8;"/>
      </defs>
      <g>
       <use style="stroke:#000000;stroke-width:0.8;" x="63.71" xlink:href="#md88b27b687" y="361.653756"/>
      </g>
     </g>
     <g id="text_8">
      <!-- 0 -->
      <g transform="translate(50.3475 365.452974)scale(0.1 -0.1)">
       <use xlink:href="#DejaVuSans-30"/>
      </g>
     </g>
    </g>
    <g id="ytick_2">
     <g id="line2d_8">
      <g>
       <use style="stroke:#000000;stroke-width:0.8;" x="63.71" xlink:href="#md88b27b687" y="285.823511"/>
      </g>
     </g>
     <g id="text_9">
      <!-- 10000 -->
      <g transform="translate(24.8975 289.62273)scale(0.1 -0.1)">
       <use xlink:href="#DejaVuSans-31"/>
       <use x="63.623047" xlink:href="#DejaVuSans-30"/>
       <use x="127.246094" xlink:href="#DejaVuSans-30"/>
       <use x="190.869141" xlink:href="#DejaVuSans-30"/>
       <use x="254.492188" xlink:href="#DejaVuSans-30"/>
      </g>
     </g>
    </g>
    <g id="ytick_3">
     <g id="line2d_9">
      <g>
       <use style="stroke:#000000;stroke-width:0.8;" x="63.71" xlink:href="#md88b27b687" y="209.993267"/>
      </g>
     </g>
     <g id="text_10">
      <!-- 20000 -->
      <g transform="translate(24.8975 213.792486)scale(0.1 -0.1)">
       <use xlink:href="#DejaVuSans-32"/>
       <use x="63.623047" xlink:href="#DejaVuSans-30"/>
       <use x="127.246094" xlink:href="#DejaVuSans-30"/>
       <use x="190.869141" xlink:href="#DejaVuSans-30"/>
       <use x="254.492188" xlink:href="#DejaVuSans-30"/>
      </g>
     </g>
    </g>
    <g id="ytick_4">
     <g id="line2d_10">
      <g>
       <use style="stroke:#000000;stroke-width:0.8;" x="63.71" xlink:href="#md88b27b687" y="134.163023"/>
      </g>
     </g>
     <g id="text_11">
      <!-- 30000 -->
      <g transform="translate(24.8975 137.962241)scale(0.1 -0.1)">
       <defs>
        <path d="M 2597 2516 
Q 3050 2419 3304 2112 
Q 3559 1806 3559 1356 
Q 3559 666 3084 287 
Q 2609 -91 1734 -91 
Q 1441 -91 1130 -33 
Q 819 25 488 141 
L 488 750 
Q 750 597 1062 519 
Q 1375 441 1716 441 
Q 2309 441 2620 675 
Q 2931 909 2931 1356 
Q 2931 1769 2642 2001 
Q 2353 2234 1838 2234 
L 1294 2234 
L 1294 2753 
L 1863 2753 
Q 2328 2753 2575 2939 
Q 2822 3125 2822 3475 
Q 2822 3834 2567 4026 
Q 2313 4219 1838 4219 
Q 1578 4219 1281 4162 
Q 984 4106 628 3988 
L 628 4550 
Q 988 4650 1302 4700 
Q 1616 4750 1894 4750 
Q 2613 4750 3031 4423 
Q 3450 4097 3450 3541 
Q 3450 3153 3228 2886 
Q 3006 2619 2597 2516 
z
" id="DejaVuSans-33" transform="scale(0.015625)"/>
       </defs>
       <use xlink:href="#DejaVuSans-33"/>
       <use x="63.623047" xlink:href="#DejaVuSans-30"/>
       <use x="127.246094" xlink:href="#DejaVuSans-30"/>
       <use x="190.869141" xlink:href="#DejaVuSans-30"/>
       <use x="254.492188" xlink:href="#DejaVuSans-30"/>
      </g>
     </g>
    </g>
    <g id="ytick_5">
     <g id="line2d_11">
      <g>
       <use style="stroke:#000000;stroke-width:0.8;" x="63.71" xlink:href="#md88b27b687" y="58.332778"/>
      </g>
     </g>
     <g id="text_12">
      <!-- 40000 -->
      <g transform="translate(24.8975 62.131997)scale(0.1 -0.1)">
       <use xlink:href="#DejaVuSans-34"/>
       <use x="63.623047" xlink:href="#DejaVuSans-30"/>
       <use x="127.246094" xlink:href="#DejaVuSans-30"/>
       <use x="190.869141" xlink:href="#DejaVuSans-30"/>
       <use x="254.492188" xlink:href="#DejaVuSans-30"/>
      </g>
     </g>
    </g>
    <g id="text_13">
     <!-- Generation (MW) -->
     <g transform="translate(18.817812 228.475284)rotate(-90)scale(0.1 -0.1)">
      <defs>
       <path d="M 3809 666 
L 3809 1919 
L 2778 1919 
L 2778 2438 
L 4434 2438 
L 4434 434 
Q 4069 175 3628 42 
Q 3188 -91 2688 -91 
Q 1594 -91 976 548 
Q 359 1188 359 2328 
Q 359 3472 976 4111 
Q 1594 4750 2688 4750 
Q 3144 4750 3555 4637 
Q 3966 4525 4313 4306 
L 4313 3634 
Q 3963 3931 3569 4081 
Q 3175 4231 2741 4231 
Q 1884 4231 1454 3753 
Q 1025 3275 1025 2328 
Q 1025 1384 1454 906 
Q 1884 428 2741 428 
Q 3075 428 3337 486 
Q 3600 544 3809 666 
z
" id="DejaVuSans-47" transform="scale(0.015625)"/>
       <path d="M 3513 2113 
L 3513 0 
L 2938 0 
L 2938 2094 
Q 2938 2591 2744 2837 
Q 2550 3084 2163 3084 
Q 1697 3084 1428 2787 
Q 1159 2491 1159 1978 
L 1159 0 
L 581 0 
L 581 3500 
L 1159 3500 
L 1159 2956 
Q 1366 3272 1645 3428 
Q 1925 3584 2291 3584 
Q 2894 3584 3203 3211 
Q 3513 2838 3513 2113 
z
" id="DejaVuSans-6e" transform="scale(0.015625)"/>
       <path d="M 2631 2963 
Q 2534 3019 2420 3045 
Q 2306 3072 2169 3072 
Q 1681 3072 1420 2755 
Q 1159 2438 1159 1844 
L 1159 0 
L 581 0 
L 581 3500 
L 1159 3500 
L 1159 2956 
Q 1341 3275 1631 3429 
Q 1922 3584 2338 3584 
Q 2397 3584 2469 3576 
Q 2541 3569 2628 3553 
L 2631 2963 
z
" id="DejaVuSans-72" transform="scale(0.015625)"/>
       <path d="M 1172 4494 
L 1172 3500 
L 2356 3500 
L 2356 3053 
L 1172 3053 
L 1172 1153 
Q 1172 725 1289 603 
Q 1406 481 1766 481 
L 2356 481 
L 2356 0 
L 1766 0 
Q 1100 0 847 248 
Q 594 497 594 1153 
L 594 3053 
L 172 3053 
L 172 3500 
L 594 3500 
L 594 4494 
L 1172 4494 
z
" id="DejaVuSans-74" transform="scale(0.015625)"/>
       <path d="M 1984 4856 
Q 1566 4138 1362 3434 
Q 1159 2731 1159 2009 
Q 1159 1288 1364 580 
Q 1569 -128 1984 -844 
L 1484 -844 
Q 1016 -109 783 600 
Q 550 1309 550 2009 
Q 550 2706 781 3412 
Q 1013 4119 1484 4856 
L 1984 4856 
z
" id="DejaVuSans-28" transform="scale(0.015625)"/>
       <path d="M 628 4666 
L 1569 4666 
L 2759 1491 
L 3956 4666 
L 4897 4666 
L 4897 0 
L 4281 0 
L 4281 4097 
L 3078 897 
L 2444 897 
L 1241 4097 
L 1241 0 
L 628 0 
L 628 4666 
z
" id="DejaVuSans-4d" transform="scale(0.015625)"/>
       <path d="M 213 4666 
L 850 4666 
L 1831 722 
L 2809 4666 
L 3519 4666 
L 4500 722 
L 5478 4666 
L 6119 4666 
L 4947 0 
L 4153 0 
L 3169 4050 
L 2175 0 
L 1381 0 
L 213 4666 
z
" id="DejaVuSans-57" transform="scale(0.015625)"/>
       <path d="M 513 4856 
L 1013 4856 
Q 1481 4119 1714 3412 
Q 1947 2706 1947 2009 
Q 1947 1309 1714 600 
Q 1481 -109 1013 -844 
L 513 -844 
Q 928 -128 1133 580 
Q 1338 1288 1338 2009 
Q 1338 2731 1133 3434 
Q 928 4138 513 4856 
z
" id="DejaVuSans-29" transform="scale(0.015625)"/>
      </defs>
      <use xlink:href="#DejaVuSans-47"/>
      <use x="77.490234" xlink:href="#DejaVuSans-65"/>
      <use x="139.013672" xlink:href="#DejaVuSans-6e"/>
      <use x="202.392578" xlink:href="#DejaVuSans-65"/>
      <use x="263.916016" xlink:href="#DejaVuSans-72"/>
      <use x="305.029297" xlink:href="#DejaVuSans-61"/>
      <use x="366.308594" xlink:href="#DejaVuSans-74"/>
      <use x="405.517578" xlink:href="#DejaVuSans-69"/>
      <use x="433.300781" xlink:href="#DejaVuSans-6f"/>
      <use x="494.482422" xlink:href="#DejaVuSans-6e"/>
      <use x="557.861328" xlink:href="#DejaVuSans-20"/>
      <use x="589.648438" xlink:href="#DejaVuSans-28"/>
      <use x="628.662109" xlink:href="#DejaVuSans-4d"/>
      <use x="714.941406" xlink:href="#DejaVuSans-57"/>
      <use x="813.818359" xlink:href="#DejaVuSans-29"/>
     </g>
    </g>
   </g>
   <g id="patch_3">
    <path d="M 63.71 361.653756 
L 63.71 10.014 
" style="fill:none;stroke:#000000;stroke-linecap:square;stroke-linejoin:miter;stroke-width:0.8;"/>
   </g>
   <g id="patch_4">
    <path d="M 421.2 361.653756 
L 421.2 10.014 
" style="fill:none;stroke:#000000;stroke-linecap:square;stroke-linejoin:miter;stroke-width:0.8;"/>
   </g>
   <g id="patch_5">
    <path d="M 63.71 361.653756 
L 421.2 361.653756 
" style="fill:none;stroke:#000000;stroke-linecap:square;stroke-linejoin:miter;stroke-width:0.8;"/>
   </g>
   <g id="patch_6">
    <path d="M 63.71 10.014 
L 421.2 10.014 
" style="fill:none;stroke:#000000;stroke-linecap:square;stroke-linejoin:miter;stroke-width:0.8;"/>
   </g>
  </g>
 </g>
 <defs>
  <clipPath id="pd31c22177d">
   <rect height="351.639756" width="357.49" x="63.71" y="10.014"/>
  </clipPath>
 </defs>
</svg>
