<?xml version="1.0" encoding="utf-8" standalone="no"?>
<!DOCTYPE svg PUBLIC "-//W3C//DTD SVG 1.1//EN"
  "http://www.w3.org/Graphics/SVG/1.1/DTD/svg11.dtd">
<svg height="702pt" version="1.1" viewBox="0 0 460.8 702" width="460.8pt" xmlns="http://www.w3.org/2000/svg" xmlns:xlink="http://www.w3.org/1999/xlink">
 <metadata>
  <rdf:RDF xmlns:cc="http://creativecommons.org/ns#" xmlns:dc="http://purl.org/dc/elements/1.1/" xmlns:rdf="http://www.w3.org/1999/02/22-rdf-syntax-ns#">
   <cc:Work>
    <dc:type rdf:resource="http://purl.org/dc/dcmitype/StillImage"/>
    <dc:date>2021-06-03T11:10:14.749803</dc:date>
    <dc:format>image/svg+xml</dc:format>
    <dc:creator>
     <cc:Agent>
      <dc:title>Matplotlib v3.4.1, https://matplotlib.org/</dc:title>
     </cc:Agent>
    </dc:creator>
   </cc:Work>
  </rdf:RDF>
 </metadata>
 <defs>
  <style type="text/css">*{stroke-linecap:butt;stroke-linejoin:round;}</style>
 </defs>
 <g id="figure_1">
  <g id="patch_1">
   <path d="M 0 702 
L 460.8 702 
L 460.8 0 
L 0 0 
z
" style="fill:#ffffff;"/>
  </g>
  <g id="axes_1">
   <g id="patch_2">
    <path d="M 57.6 624.78 
L 414.72 624.78 
L 414.72 84.24 
L 57.6 84.24 
z
" style="fill:#ffffff;"/>
   </g>
   <g id="PolyCollection_1">
    <path clip-path="url(#p6fca1d3733)" d="M 73.832727 505.106952 
L 73.832727 624.78 
L 77.112066 624.78 
L 80.391405 624.78 
L 83.670744 624.78 
L 86.950083 624.78 
L 90.229421 624.78 
L 93.50876 624.78 
L 96.788099 624.78 
L 100.067438 624.78 
L 103.346777 624.78 
L 106.626116 624.78 
L 109.905455 624.78 
L 113.184793 624.78 
L 116.464132 624.78 
L 119.743471 624.78 
L 123.02281 624.78 
L 126.302149 624.78 
L 129.581488 624.78 
L 132.860826 624.78 
L 136.140165 624.78 
L 139.419504 624.78 
L 142.698843 624.78 
L 145.978182 624.78 
L 149.257521 624.78 
L 152.53686 624.78 
L 155.816198 624.78 
L 159.095537 624.78 
L 162.374876 624.78 
L 165.654215 624.78 
L 168.933554 624.78 
L 172.212893 624.78 
L 175.492231 624.78 
L 178.77157 624.78 
L 182.050909 624.78 
L 185.330248 624.78 
L 188.609587 624.78 
L 191.888926 624.78 
L 195.168264 624.78 
L 198.447603 624.78 
L 201.726942 624.78 
L 205.006281 624.78 
L 208.28562 624.78 
L 211.564959 624.78 
L 214.844298 624.78 
L 218.123636 624.78 
L 221.402975 624.78 
L 224.682314 624.78 
L 227.961653 624.78 
L 231.240992 624.78 
L 234.520331 624.78 
L 237.799669 624.78 
L 241.079008 624.78 
L 244.358347 624.78 
L 247.637686 624.78 
L 250.917025 624.78 
L 254.196364 624.78 
L 257.475702 624.78 
L 260.755041 624.78 
L 264.03438 624.78 
L 267.313719 624.78 
L 270.593058 624.78 
L 273.872397 624.78 
L 277.151736 624.78 
L 280.431074 624.78 
L 283.710413 624.78 
L 286.989752 624.78 
L 290.269091 624.78 
L 293.54843 624.78 
L 296.827769 624.78 
L 300.107107 624.78 
L 303.386446 624.78 
L 306.665785 624.78 
L 309.945124 624.78 
L 313.224463 624.78 
L 316.503802 624.78 
L 319.78314 624.78 
L 323.062479 624.78 
L 326.341818 624.78 
L 329.621157 624.78 
L 332.900496 624.78 
L 336.179835 624.78 
L 339.459174 624.78 
L 342.738512 624.78 
L 346.017851 624.78 
L 349.29719 624.78 
L 352.576529 624.78 
L 355.855868 624.78 
L 359.135207 624.78 
L 362.414545 624.78 
L 365.693884 624.78 
L 368.973223 624.78 
L 372.252562 624.78 
L 375.531901 624.78 
L 378.81124 624.78 
L 382.090579 624.78 
L 385.369917 624.78 
L 388.649256 624.78 
L 391.928595 624.78 
L 395.207934 624.78 
L 398.487273 624.78 
L 398.487273 505.106952 
L 398.487273 505.106952 
L 395.207934 505.106952 
L 391.928595 505.106952 
L 388.649256 505.106952 
L 385.369917 505.106952 
L 382.090579 505.106952 
L 378.81124 505.106952 
L 375.531901 505.106952 
L 372.252562 505.106952 
L 368.973223 505.106952 
L 365.693884 505.106952 
L 362.414545 505.106952 
L 359.135207 505.106952 
L 355.855868 505.106952 
L 352.576529 505.106952 
L 349.29719 505.106952 
L 346.017851 505.106952 
L 342.738512 505.106952 
L 339.459174 505.106952 
L 336.179835 505.106952 
L 332.900496 505.106952 
L 329.621157 505.106952 
L 326.341818 505.106952 
L 323.062479 505.106952 
L 319.78314 505.106952 
L 316.503802 505.106952 
L 313.224463 505.106952 
L 309.945124 505.106952 
L 306.665785 505.106952 
L 303.386446 505.106952 
L 300.107107 505.106952 
L 296.827769 505.106952 
L 293.54843 505.106952 
L 290.269091 505.106952 
L 286.989752 505.106952 
L 283.710413 505.106952 
L 280.431074 505.106952 
L 277.151736 505.106952 
L 273.872397 505.106952 
L 270.593058 505.106952 
L 267.313719 505.106952 
L 264.03438 505.106952 
L 260.755041 505.106952 
L 257.475702 505.106952 
L 254.196364 505.106952 
L 250.917025 505.106952 
L 247.637686 505.106952 
L 244.358347 505.106952 
L 241.079008 505.106952 
L 237.799669 505.106952 
L 234.520331 505.106952 
L 231.240992 505.106952 
L 227.961653 505.106952 
L 224.682314 505.106952 
L 221.402975 505.106952 
L 218.123636 505.106952 
L 214.844298 505.106952 
L 211.564959 505.106952 
L 208.28562 505.106952 
L 205.006281 505.106952 
L 201.726942 505.106952 
L 198.447603 505.106952 
L 195.168264 505.106952 
L 191.888926 505.106952 
L 188.609587 505.106952 
L 185.330248 505.106952 
L 182.050909 505.106952 
L 178.77157 505.106952 
L 175.492231 505.106952 
L 172.212893 505.106952 
L 168.933554 505.106952 
L 165.654215 505.106952 
L 162.374876 505.106952 
L 159.095537 505.106952 
L 155.816198 505.106952 
L 152.53686 505.106952 
L 149.257521 505.106952 
L 145.978182 505.106952 
L 142.698843 505.106952 
L 139.419504 505.106952 
L 136.140165 505.106952 
L 132.860826 505.106952 
L 129.581488 505.106952 
L 126.302149 505.106952 
L 123.02281 505.106952 
L 119.743471 505.106952 
L 116.464132 505.106952 
L 113.184793 505.106952 
L 109.905455 505.106952 
L 106.626116 505.106952 
L 103.346777 505.106952 
L 100.067438 505.106952 
L 96.788099 505.106952 
L 93.50876 505.106952 
L 90.229421 505.106952 
L 86.950083 505.106952 
L 83.670744 505.106952 
L 80.391405 505.106952 
L 77.112066 505.106952 
L 73.832727 505.106952 
z
" style="fill:#1f77b4;"/>
   </g>
   <g id="PolyCollection_2">
    <path clip-path="url(#p6fca1d3733)" d="M 73.832727 491.716439 
L 73.832727 505.106952 
L 77.112066 505.106952 
L 80.391405 505.106952 
L 83.670744 505.106952 
L 86.950083 505.106952 
L 90.229421 505.106952 
L 93.50876 505.106952 
L 96.788099 505.106952 
L 100.067438 505.106952 
L 103.346777 505.106952 
L 106.626116 505.106952 
L 109.905455 505.106952 
L 113.184793 505.106952 
L 116.464132 505.106952 
L 119.743471 505.106952 
L 123.02281 505.106952 
L 126.302149 505.106952 
L 129.581488 505.106952 
L 132.860826 505.106952 
L 136.140165 505.106952 
L 139.419504 505.106952 
L 142.698843 505.106952 
L 145.978182 505.106952 
L 149.257521 505.106952 
L 152.53686 505.106952 
L 155.816198 505.106952 
L 159.095537 505.106952 
L 162.374876 505.106952 
L 165.654215 505.106952 
L 168.933554 505.106952 
L 172.212893 505.106952 
L 175.492231 505.106952 
L 178.77157 505.106952 
L 182.050909 505.106952 
L 185.330248 505.106952 
L 188.609587 505.106952 
L 191.888926 505.106952 
L 195.168264 505.106952 
L 198.447603 505.106952 
L 201.726942 505.106952 
L 205.006281 505.106952 
L 208.28562 505.106952 
L 211.564959 505.106952 
L 214.844298 505.106952 
L 218.123636 505.106952 
L 221.402975 505.106952 
L 224.682314 505.106952 
L 227.961653 505.106952 
L 231.240992 505.106952 
L 234.520331 505.106952 
L 237.799669 505.106952 
L 241.079008 505.106952 
L 244.358347 505.106952 
L 247.637686 505.106952 
L 250.917025 505.106952 
L 254.196364 505.106952 
L 257.475702 505.106952 
L 260.755041 505.106952 
L 264.03438 505.106952 
L 267.313719 505.106952 
L 270.593058 505.106952 
L 273.872397 505.106952 
L 277.151736 505.106952 
L 280.431074 505.106952 
L 283.710413 505.106952 
L 286.989752 505.106952 
L 290.269091 505.106952 
L 293.54843 505.106952 
L 296.827769 505.106952 
L 300.107107 505.106952 
L 303.386446 505.106952 
L 306.665785 505.106952 
L 309.945124 505.106952 
L 313.224463 505.106952 
L 316.503802 505.106952 
L 319.78314 505.106952 
L 323.062479 505.106952 
L 326.341818 505.106952 
L 329.621157 505.106952 
L 332.900496 505.106952 
L 336.179835 505.106952 
L 339.459174 505.106952 
L 342.738512 505.106952 
L 346.017851 505.106952 
L 349.29719 505.106952 
L 352.576529 505.106952 
L 355.855868 505.106952 
L 359.135207 505.106952 
L 362.414545 505.106952 
L 365.693884 505.106952 
L 368.973223 505.106952 
L 372.252562 505.106952 
L 375.531901 505.106952 
L 378.81124 505.106952 
L 382.090579 505.106952 
L 385.369917 505.106952 
L 388.649256 505.106952 
L 391.928595 505.106952 
L 395.207934 505.106952 
L 398.487273 505.106952 
L 398.487273 505.106952 
L 398.487273 505.106952 
L 395.207934 504.971694 
L 391.928595 504.836436 
L 388.649256 504.701179 
L 385.369917 504.565921 
L 382.090579 504.430663 
L 378.81124 504.295405 
L 375.531901 504.160148 
L 372.252562 504.02489 
L 368.973223 503.889632 
L 365.693884 503.754375 
L 362.414545 503.619117 
L 359.135207 503.483859 
L 355.855868 503.348602 
L 352.576529 503.213344 
L 349.29719 503.078086 
L 346.017851 502.942828 
L 342.738512 502.807571 
L 339.459174 502.672313 
L 336.179835 502.537055 
L 332.900496 502.401798 
L 329.621157 502.26654 
L 326.341818 502.131282 
L 323.062479 501.996024 
L 319.78314 501.860767 
L 316.503802 501.725509 
L 313.224463 501.590251 
L 309.945124 501.454994 
L 306.665785 501.319736 
L 303.386446 501.184478 
L 300.107107 501.049221 
L 296.827769 500.913963 
L 293.54843 500.778705 
L 290.269091 500.643447 
L 286.989752 500.50819 
L 283.710413 500.372932 
L 280.431074 500.237674 
L 277.151736 500.102417 
L 273.872397 499.967159 
L 270.593058 499.831901 
L 267.313719 499.696643 
L 264.03438 499.561386 
L 260.755041 499.426128 
L 257.475702 499.29087 
L 254.196364 499.155613 
L 250.917025 499.020355 
L 247.637686 498.885097 
L 244.358347 498.749839 
L 241.079008 498.614582 
L 237.799669 498.479324 
L 234.520331 498.344066 
L 231.240992 498.208809 
L 227.961653 498.073551 
L 224.682314 497.938293 
L 221.402975 497.803036 
L 218.123636 497.667778 
L 214.844298 497.53252 
L 211.564959 497.397262 
L 208.28562 497.262005 
L 205.006281 497.126747 
L 201.726942 496.991489 
L 198.447603 496.856232 
L 195.168264 496.720974 
L 191.888926 496.585716 
L 188.609587 496.450458 
L 185.330248 496.315201 
L 182.050909 496.179943 
L 178.77157 496.044685 
L 175.492231 495.909428 
L 172.212893 495.77417 
L 168.933554 495.638912 
L 165.654215 495.503655 
L 162.374876 495.368397 
L 159.095537 495.233139 
L 155.816198 495.097881 
L 152.53686 494.962624 
L 149.257521 494.827366 
L 145.978182 494.692108 
L 142.698843 494.556851 
L 139.419504 494.421593 
L 136.140165 494.286335 
L 132.860826 494.151077 
L 129.581488 494.01582 
L 126.302149 493.880562 
L 123.02281 493.745304 
L 119.743471 493.610047 
L 116.464132 493.474789 
L 113.184793 493.339531 
L 109.905455 493.204274 
L 106.626116 493.069016 
L 103.346777 492.933758 
L 100.067438 492.7985 
L 96.788099 492.663243 
L 93.50876 492.527985 
L 90.229421 492.392727 
L 86.950083 492.25747 
L 83.670744 492.122212 
L 80.391405 491.986954 
L 77.112066 491.851696 
L 73.832727 491.716439 
z
" style="fill:#aec7e8;"/>
   </g>
   <g id="PolyCollection_3">
    <path clip-path="url(#p6fca1d3733)" d="M 73.832727 491.716439 
L 73.832727 491.716439 
L 77.112066 491.851696 
L 80.391405 491.986954 
L 83.670744 492.122212 
L 86.950083 492.25747 
L 90.229421 492.392727 
L 93.50876 492.527985 
L 96.788099 492.663243 
L 100.067438 492.7985 
L 103.346777 492.933758 
L 106.626116 493.069016 
L 109.905455 493.204274 
L 113.184793 493.339531 
L 116.464132 493.474789 
L 119.743471 493.610047 
L 123.02281 493.745304 
L 126.302149 493.880562 
L 129.581488 494.01582 
L 132.860826 494.151077 
L 136.140165 494.286335 
L 139.419504 494.421593 
L 142.698843 494.556851 
L 145.978182 494.692108 
L 149.257521 494.827366 
L 152.53686 494.962624 
L 155.816198 495.097881 
L 159.095537 495.233139 
L 162.374876 495.368397 
L 165.654215 495.503655 
L 168.933554 495.638912 
L 172.212893 495.77417 
L 175.492231 495.909428 
L 178.77157 496.044685 
L 182.050909 496.179943 
L 185.330248 496.315201 
L 188.609587 496.450458 
L 191.888926 496.585716 
L 195.168264 496.720974 
L 198.447603 496.856232 
L 201.726942 496.991489 
L 205.006281 497.126747 
L 208.28562 497.262005 
L 211.564959 497.397262 
L 214.844298 497.53252 
L 218.123636 497.667778 
L 221.402975 497.803036 
L 224.682314 497.938293 
L 227.961653 498.073551 
L 231.240992 498.208809 
L 234.520331 498.344066 
L 237.799669 498.479324 
L 241.079008 498.614582 
L 244.358347 498.749839 
L 247.637686 498.885097 
L 250.917025 499.020355 
L 254.196364 499.155613 
L 257.475702 499.29087 
L 260.755041 499.426128 
L 264.03438 499.561386 
L 267.313719 499.696643 
L 270.593058 499.831901 
L 273.872397 499.967159 
L 277.151736 500.102417 
L 280.431074 500.237674 
L 283.710413 500.372932 
L 286.989752 500.50819 
L 290.269091 500.643447 
L 293.54843 500.778705 
L 296.827769 500.913963 
L 300.107107 501.049221 
L 303.386446 501.184478 
L 306.665785 501.319736 
L 309.945124 501.454994 
L 313.224463 501.590251 
L 316.503802 501.725509 
L 319.78314 501.860767 
L 323.062479 501.996024 
L 326.341818 502.131282 
L 329.621157 502.26654 
L 332.900496 502.401798 
L 336.179835 502.537055 
L 339.459174 502.672313 
L 342.738512 502.807571 
L 346.017851 502.942828 
L 349.29719 503.078086 
L 352.576529 503.213344 
L 355.855868 503.348602 
L 359.135207 503.483859 
L 362.414545 503.619117 
L 365.693884 503.754375 
L 368.973223 503.889632 
L 372.252562 504.02489 
L 375.531901 504.160148 
L 378.81124 504.295405 
L 382.090579 504.430663 
L 385.369917 504.565921 
L 388.649256 504.701179 
L 391.928595 504.836436 
L 395.207934 504.971694 
L 398.487273 505.106952 
L 398.487273 489.927322 
L 398.487273 489.927322 
L 395.207934 489.945394 
L 391.928595 489.963466 
L 388.649256 489.981538 
L 385.369917 489.999609 
L 382.090579 490.017681 
L 378.81124 490.035753 
L 375.531901 490.053825 
L 372.252562 490.071897 
L 368.973223 490.089969 
L 365.693884 490.108041 
L 362.414545 490.126113 
L 359.135207 490.144185 
L 355.855868 490.162256 
L 352.576529 490.180328 
L 349.29719 490.1984 
L 346.017851 490.216472 
L 342.738512 490.234544 
L 339.459174 490.252616 
L 336.179835 490.270688 
L 332.900496 490.28876 
L 329.621157 490.306831 
L 326.341818 490.324903 
L 323.062479 490.342975 
L 319.78314 490.361047 
L 316.503802 490.379119 
L 313.224463 490.397191 
L 309.945124 490.415263 
L 306.665785 490.433335 
L 303.386446 490.451407 
L 300.107107 490.469478 
L 296.827769 490.48755 
L 293.54843 490.505622 
L 290.269091 490.523694 
L 286.989752 490.541766 
L 283.710413 490.559838 
L 280.431074 490.57791 
L 277.151736 490.595982 
L 273.872397 490.614054 
L 270.593058 490.632125 
L 267.313719 490.650197 
L 264.03438 490.668269 
L 260.755041 490.686341 
L 257.475702 490.704413 
L 254.196364 490.722485 
L 250.917025 490.740557 
L 247.637686 490.758629 
L 244.358347 490.776701 
L 241.079008 490.794772 
L 237.799669 490.812844 
L 234.520331 490.830916 
L 231.240992 490.848988 
L 227.961653 490.86706 
L 224.682314 490.885132 
L 221.402975 490.903204 
L 218.123636 490.921276 
L 214.844298 490.939348 
L 211.564959 490.957419 
L 208.28562 490.975491 
L 205.006281 490.993563 
L 201.726942 491.011635 
L 198.447603 491.029707 
L 195.168264 491.047779 
L 191.888926 491.065851 
L 188.609587 491.083923 
L 185.330248 491.101995 
L 182.050909 491.120066 
L 178.77157 491.138138 
L 175.492231 491.15621 
L 172.212893 491.174282 
L 168.933554 491.192354 
L 165.654215 491.210426 
L 162.374876 491.228498 
L 159.095537 491.24657 
L 155.816198 491.264642 
L 152.53686 491.282713 
L 149.257521 491.300785 
L 145.978182 491.318857 
L 142.698843 491.336929 
L 139.419504 491.355001 
L 136.140165 491.373073 
L 132.860826 491.391145 
L 129.581488 491.409217 
L 126.302149 491.427289 
L 123.02281 491.44536 
L 119.743471 491.463432 
L 116.464132 491.481504 
L 113.184793 491.499576 
L 109.905455 491.517648 
L 106.626116 491.53572 
L 103.346777 491.553792 
L 100.067438 491.571864 
L 96.788099 491.589936 
L 93.50876 491.608007 
L 90.229421 491.626079 
L 86.950083 491.644151 
L 83.670744 491.662223 
L 80.391405 491.680295 
L 77.112066 491.698367 
L 73.832727 491.716439 
z
" style="fill:#ff7f0e;"/>
   </g>
   <g id="PolyCollection_4">
    <path clip-path="url(#p6fca1d3733)" d="M 73.832727 484.274011 
L 73.832727 491.716439 
L 77.112066 491.698367 
L 80.391405 491.680295 
L 83.670744 491.662223 
L 86.950083 491.644151 
L 90.229421 491.626079 
L 93.50876 491.608007 
L 96.788099 491.589936 
L 100.067438 491.571864 
L 103.346777 491.553792 
L 106.626116 491.53572 
L 109.905455 491.517648 
L 113.184793 491.499576 
L 116.464132 491.481504 
L 119.743471 491.463432 
L 123.02281 491.44536 
L 126.302149 491.427289 
L 129.581488 491.409217 
L 132.860826 491.391145 
L 136.140165 491.373073 
L 139.419504 491.355001 
L 142.698843 491.336929 
L 145.978182 491.318857 
L 149.257521 491.300785 
L 152.53686 491.282713 
L 155.816198 491.264642 
L 159.095537 491.24657 
L 162.374876 491.228498 
L 165.654215 491.210426 
L 168.933554 491.192354 
L 172.212893 491.174282 
L 175.492231 491.15621 
L 178.77157 491.138138 
L 182.050909 491.120066 
L 185.330248 491.101995 
L 188.609587 491.083923 
L 191.888926 491.065851 
L 195.168264 491.047779 
L 198.447603 491.029707 
L 201.726942 491.011635 
L 205.006281 490.993563 
L 208.28562 490.975491 
L 211.564959 490.957419 
L 214.844298 490.939348 
L 218.123636 490.921276 
L 221.402975 490.903204 
L 224.682314 490.885132 
L 227.961653 490.86706 
L 231.240992 490.848988 
L 234.520331 490.830916 
L 237.799669 490.812844 
L 241.079008 490.794772 
L 244.358347 490.776701 
L 247.637686 490.758629 
L 250.917025 490.740557 
L 254.196364 490.722485 
L 257.475702 490.704413 
L 260.755041 490.686341 
L 264.03438 490.668269 
L 267.313719 490.650197 
L 270.593058 490.632125 
L 273.872397 490.614054 
L 277.151736 490.595982 
L 280.431074 490.57791 
L 283.710413 490.559838 
L 286.989752 490.541766 
L 290.269091 490.523694 
L 293.54843 490.505622 
L 296.827769 490.48755 
L 300.107107 490.469478 
L 303.386446 490.451407 
L 306.665785 490.433335 
L 309.945124 490.415263 
L 313.224463 490.397191 
L 316.503802 490.379119 
L 319.78314 490.361047 
L 323.062479 490.342975 
L 326.341818 490.324903 
L 329.621157 490.306831 
L 332.900496 490.28876 
L 336.179835 490.270688 
L 339.459174 490.252616 
L 342.738512 490.234544 
L 346.017851 490.216472 
L 349.29719 490.1984 
L 352.576529 490.180328 
L 355.855868 490.162256 
L 359.135207 490.144185 
L 362.414545 490.126113 
L 365.693884 490.108041 
L 368.973223 490.089969 
L 372.252562 490.071897 
L 375.531901 490.053825 
L 378.81124 490.035753 
L 382.090579 490.017681 
L 385.369917 489.999609 
L 388.649256 489.981538 
L 391.928595 489.963466 
L 395.207934 489.945394 
L 398.487273 489.927322 
L 398.487273 482.484894 
L 398.487273 482.484894 
L 395.207934 482.502966 
L 391.928595 482.521038 
L 388.649256 482.53911 
L 385.369917 482.557182 
L 382.090579 482.575253 
L 378.81124 482.593325 
L 375.531901 482.611397 
L 372.252562 482.629469 
L 368.973223 482.647541 
L 365.693884 482.665613 
L 362.414545 482.683685 
L 359.135207 482.701757 
L 355.855868 482.719829 
L 352.576529 482.7379 
L 349.29719 482.755972 
L 346.017851 482.774044 
L 342.738512 482.792116 
L 339.459174 482.810188 
L 336.179835 482.82826 
L 332.900496 482.846332 
L 329.621157 482.864404 
L 326.341818 482.882476 
L 323.062479 482.900547 
L 319.78314 482.918619 
L 316.503802 482.936691 
L 313.224463 482.954763 
L 309.945124 482.972835 
L 306.665785 482.990907 
L 303.386446 483.008979 
L 300.107107 483.027051 
L 296.827769 483.045123 
L 293.54843 483.063194 
L 290.269091 483.081266 
L 286.989752 483.099338 
L 283.710413 483.11741 
L 280.431074 483.135482 
L 277.151736 483.153554 
L 273.872397 483.171626 
L 270.593058 483.189698 
L 267.313719 483.20777 
L 264.03438 483.225841 
L 260.755041 483.243913 
L 257.475702 483.261985 
L 254.196364 483.280057 
L 250.917025 483.298129 
L 247.637686 483.316201 
L 244.358347 483.334273 
L 241.079008 483.352345 
L 237.799669 483.370416 
L 234.520331 483.388488 
L 231.240992 483.40656 
L 227.961653 483.424632 
L 224.682314 483.442704 
L 221.402975 483.460776 
L 218.123636 483.478848 
L 214.844298 483.49692 
L 211.564959 483.514992 
L 208.28562 483.533063 
L 205.006281 483.551135 
L 201.726942 483.569207 
L 198.447603 483.587279 
L 195.168264 483.605351 
L 191.888926 483.623423 
L 188.609587 483.641495 
L 185.330248 483.659567 
L 182.050909 483.677639 
L 178.77157 483.69571 
L 175.492231 483.713782 
L 172.212893 483.731854 
L 168.933554 483.749926 
L 165.654215 483.767998 
L 162.374876 483.78607 
L 159.095537 483.804142 
L 155.816198 483.822214 
L 152.53686 483.840286 
L 149.257521 483.858357 
L 145.978182 483.876429 
L 142.698843 483.894501 
L 139.419504 483.912573 
L 136.140165 483.930645 
L 132.860826 483.948717 
L 129.581488 483.966789 
L 126.302149 483.984861 
L 123.02281 484.002933 
L 119.743471 484.021004 
L 116.464132 484.039076 
L 113.184793 484.057148 
L 109.905455 484.07522 
L 106.626116 484.093292 
L 103.346777 484.111364 
L 100.067438 484.129436 
L 96.788099 484.147508 
L 93.50876 484.16558 
L 90.229421 484.183651 
L 86.950083 484.201723 
L 83.670744 484.219795 
L 80.391405 484.237867 
L 77.112066 484.255939 
L 73.832727 484.274011 
z
" style="fill:#ffbb78;"/>
   </g>
   <g id="PolyCollection_5">
    <path clip-path="url(#p6fca1d3733)" d="M 73.832727 470.131971 
L 73.832727 484.274011 
L 77.112066 484.255939 
L 80.391405 484.237867 
L 83.670744 484.219795 
L 86.950083 484.201723 
L 90.229421 484.183651 
L 93.50876 484.16558 
L 96.788099 484.147508 
L 100.067438 484.129436 
L 103.346777 484.111364 
L 106.626116 484.093292 
L 109.905455 484.07522 
L 113.184793 484.057148 
L 116.464132 484.039076 
L 119.743471 484.021004 
L 123.02281 484.002933 
L 126.302149 483.984861 
L 129.581488 483.966789 
L 132.860826 483.948717 
L 136.140165 483.930645 
L 139.419504 483.912573 
L 142.698843 483.894501 
L 145.978182 483.876429 
L 149.257521 483.858357 
L 152.53686 483.840286 
L 155.816198 483.822214 
L 159.095537 483.804142 
L 162.374876 483.78607 
L 165.654215 483.767998 
L 168.933554 483.749926 
L 172.212893 483.731854 
L 175.492231 483.713782 
L 178.77157 483.69571 
L 182.050909 483.677639 
L 185.330248 483.659567 
L 188.609587 483.641495 
L 191.888926 483.623423 
L 195.168264 483.605351 
L 198.447603 483.587279 
L 201.726942 483.569207 
L 205.006281 483.551135 
L 208.28562 483.533063 
L 211.564959 483.514992 
L 214.844298 483.49692 
L 218.123636 483.478848 
L 221.402975 483.460776 
L 224.682314 483.442704 
L 227.961653 483.424632 
L 231.240992 483.40656 
L 234.520331 483.388488 
L 237.799669 483.370416 
L 241.079008 483.352345 
L 244.358347 483.334273 
L 247.637686 483.316201 
L 250.917025 483.298129 
L 254.196364 483.280057 
L 257.475702 483.261985 
L 260.755041 483.243913 
L 264.03438 483.225841 
L 267.313719 483.20777 
L 270.593058 483.189698 
L 273.872397 483.171626 
L 277.151736 483.153554 
L 280.431074 483.135482 
L 283.710413 483.11741 
L 286.989752 483.099338 
L 290.269091 483.081266 
L 293.54843 483.063194 
L 296.827769 483.045123 
L 300.107107 483.027051 
L 303.386446 483.008979 
L 306.665785 482.990907 
L 309.945124 482.972835 
L 313.224463 482.954763 
L 316.503802 482.936691 
L 319.78314 482.918619 
L 323.062479 482.900547 
L 326.341818 482.882476 
L 329.621157 482.864404 
L 332.900496 482.846332 
L 336.179835 482.82826 
L 339.459174 482.810188 
L 342.738512 482.792116 
L 346.017851 482.774044 
L 349.29719 482.755972 
L 352.576529 482.7379 
L 355.855868 482.719829 
L 359.135207 482.701757 
L 362.414545 482.683685 
L 365.693884 482.665613 
L 368.973223 482.647541 
L 372.252562 482.629469 
L 375.531901 482.611397 
L 378.81124 482.593325 
L 382.090579 482.575253 
L 385.369917 482.557182 
L 388.649256 482.53911 
L 391.928595 482.521038 
L 395.207934 482.502966 
L 398.487273 482.484894 
L 398.487273 482.484894 
L 398.487273 482.484894 
L 395.207934 482.360124 
L 391.928595 482.235354 
L 388.649256 482.110584 
L 385.369917 481.985814 
L 382.090579 481.861044 
L 378.81124 481.736275 
L 375.531901 481.611505 
L 372.252562 481.486735 
L 368.973223 481.361965 
L 365.693884 481.237195 
L 362.414545 481.112425 
L 359.135207 480.987655 
L 355.855868 480.862885 
L 352.576529 480.738115 
L 349.29719 480.613345 
L 346.017851 480.488576 
L 342.738512 480.363806 
L 339.459174 480.239036 
L 336.179835 480.114266 
L 332.900496 479.989496 
L 329.621157 479.864726 
L 326.341818 479.739956 
L 323.062479 479.615186 
L 319.78314 479.490416 
L 316.503802 479.365646 
L 313.224463 479.240876 
L 309.945124 479.116107 
L 306.665785 478.991337 
L 303.386446 478.866567 
L 300.107107 478.741797 
L 296.827769 478.617027 
L 293.54843 478.492257 
L 290.269091 478.367487 
L 286.989752 478.242717 
L 283.710413 478.117947 
L 280.431074 477.993177 
L 277.151736 477.868408 
L 273.872397 477.743638 
L 270.593058 477.618868 
L 267.313719 477.494098 
L 264.03438 477.369328 
L 260.755041 477.244558 
L 257.475702 477.119788 
L 254.196364 476.995018 
L 250.917025 476.870248 
L 247.637686 476.745477 
L 244.358347 476.620706 
L 241.079008 476.495935 
L 237.799669 476.371164 
L 234.520331 476.246393 
L 231.240992 476.121621 
L 227.961653 475.996848 
L 224.682314 475.872074 
L 221.402975 475.7473 
L 218.123636 475.622525 
L 214.844298 475.49775 
L 211.564959 475.372976 
L 208.28562 475.248201 
L 205.006281 475.123427 
L 201.726942 474.998651 
L 198.447603 474.873875 
L 195.168264 474.7491 
L 191.888926 474.624324 
L 188.609587 474.499548 
L 185.330248 474.374772 
L 182.050909 474.249995 
L 178.77157 474.125216 
L 175.492231 474.000436 
L 172.212893 473.875657 
L 168.933554 473.750878 
L 165.654215 473.626099 
L 162.374876 473.501319 
L 159.095537 473.376539 
L 155.816198 473.251759 
L 152.53686 473.126978 
L 149.257521 473.002193 
L 145.978182 472.877405 
L 142.698843 472.752614 
L 139.419504 472.627824 
L 136.140165 472.503033 
L 132.860826 472.378242 
L 129.581488 472.25345 
L 126.302149 472.128659 
L 123.02281 472.003867 
L 119.743471 471.879075 
L 116.464132 471.754283 
L 113.184793 471.629491 
L 109.905455 471.504699 
L 106.626116 471.379906 
L 103.346777 471.255113 
L 100.067438 471.130319 
L 96.788099 471.005526 
L 93.50876 470.880732 
L 90.229421 470.755939 
L 86.950083 470.631145 
L 83.670744 470.506352 
L 80.391405 470.381558 
L 77.112066 470.256765 
L 73.832727 470.131971 
z
" style="fill:#2ca02c;"/>
   </g>
   <g id="PolyCollection_6">
    <path clip-path="url(#p6fca1d3733)" d="M 73.832727 470.131971 
L 73.832727 470.131971 
L 77.112066 470.256765 
L 80.391405 470.381558 
L 83.670744 470.506352 
L 86.950083 470.631145 
L 90.229421 470.755939 
L 93.50876 470.880732 
L 96.788099 471.005526 
L 100.067438 471.130319 
L 103.346777 471.255113 
L 106.626116 471.379906 
L 109.905455 471.504699 
L 113.184793 471.629491 
L 116.464132 471.754283 
L 119.743471 471.879075 
L 123.02281 472.003867 
L 126.302149 472.128659 
L 129.581488 472.25345 
L 132.860826 472.378242 
L 136.140165 472.503033 
L 139.419504 472.627824 
L 142.698843 472.752614 
L 145.978182 472.877405 
L 149.257521 473.002193 
L 152.53686 473.126978 
L 155.816198 473.251759 
L 159.095537 473.376539 
L 162.374876 473.501319 
L 165.654215 473.626099 
L 168.933554 473.750878 
L 172.212893 473.875657 
L 175.492231 474.000436 
L 178.77157 474.125216 
L 182.050909 474.249995 
L 185.330248 474.374772 
L 188.609587 474.499548 
L 191.888926 474.624324 
L 195.168264 474.7491 
L 198.447603 474.873875 
L 201.726942 474.998651 
L 205.006281 475.123427 
L 208.28562 475.248201 
L 211.564959 475.372976 
L 214.844298 475.49775 
L 218.123636 475.622525 
L 221.402975 475.7473 
L 224.682314 475.872074 
L 227.961653 475.996848 
L 231.240992 476.121621 
L 234.520331 476.246393 
L 237.799669 476.371164 
L 241.079008 476.495935 
L 244.358347 476.620706 
L 247.637686 476.745477 
L 250.917025 476.870248 
L 254.196364 476.995018 
L 257.475702 477.119788 
L 260.755041 477.244558 
L 264.03438 477.369328 
L 267.313719 477.494098 
L 270.593058 477.618868 
L 273.872397 477.743638 
L 277.151736 477.868408 
L 280.431074 477.993177 
L 283.710413 478.117947 
L 286.989752 478.242717 
L 290.269091 478.367487 
L 293.54843 478.492257 
L 296.827769 478.617027 
L 300.107107 478.741797 
L 303.386446 478.866567 
L 306.665785 478.991337 
L 309.945124 479.116107 
L 313.224463 479.240876 
L 316.503802 479.365646 
L 319.78314 479.490416 
L 323.062479 479.615186 
L 326.341818 479.739956 
L 329.621157 479.864726 
L 332.900496 479.989496 
L 336.179835 480.114266 
L 339.459174 480.239036 
L 342.738512 480.363806 
L 346.017851 480.488576 
L 349.29719 480.613345 
L 352.576529 480.738115 
L 355.855868 480.862885 
L 359.135207 480.987655 
L 362.414545 481.112425 
L 365.693884 481.237195 
L 368.973223 481.361965 
L 372.252562 481.486735 
L 375.531901 481.611505 
L 378.81124 481.736275 
L 382.090579 481.861044 
L 385.369917 481.985814 
L 388.649256 482.110584 
L 391.928595 482.235354 
L 395.207934 482.360124 
L 398.487273 482.484894 
L 398.487273 466.203074 
L 398.487273 466.203074 
L 395.207934 466.242767 
L 391.928595 466.28246 
L 388.649256 466.322153 
L 385.369917 466.361846 
L 382.090579 466.401539 
L 378.81124 466.441232 
L 375.531901 466.480924 
L 372.252562 466.520617 
L 368.973223 466.56031 
L 365.693884 466.600003 
L 362.414545 466.639696 
L 359.135207 466.679389 
L 355.855868 466.719082 
L 352.576529 466.758775 
L 349.29719 466.798468 
L 346.017851 466.838161 
L 342.738512 466.877854 
L 339.459174 466.917547 
L 336.179835 466.95724 
L 332.900496 466.996932 
L 329.621157 467.036625 
L 326.341818 467.076318 
L 323.062479 467.116011 
L 319.78314 467.155704 
L 316.503802 467.195397 
L 313.224463 467.23509 
L 309.945124 467.274783 
L 306.665785 467.314476 
L 303.386446 467.354169 
L 300.107107 467.393862 
L 296.827769 467.433555 
L 293.54843 467.473248 
L 290.269091 467.51294 
L 286.989752 467.552633 
L 283.710413 467.592326 
L 280.431074 467.632019 
L 277.151736 467.671712 
L 273.872397 467.711405 
L 270.593058 467.751098 
L 267.313719 467.790791 
L 264.03438 467.830484 
L 260.755041 467.870177 
L 257.475702 467.90987 
L 254.196364 467.949563 
L 250.917025 467.989256 
L 247.637686 468.028947 
L 244.358347 468.068639 
L 241.079008 468.108331 
L 237.799669 468.148023 
L 234.520331 468.187715 
L 231.240992 468.227406 
L 227.961653 468.267095 
L 224.682314 468.306784 
L 221.402975 468.346472 
L 218.123636 468.386161 
L 214.844298 468.425849 
L 211.564959 468.465537 
L 208.28562 468.505225 
L 205.006281 468.544913 
L 201.726942 468.584601 
L 198.447603 468.624288 
L 195.168264 468.663975 
L 191.888926 468.703662 
L 188.609587 468.743349 
L 185.330248 468.783036 
L 182.050909 468.822721 
L 178.77157 468.862405 
L 175.492231 468.902089 
L 172.212893 468.941772 
L 168.933554 468.981456 
L 165.654215 469.02114 
L 162.374876 469.060823 
L 159.095537 469.100505 
L 155.816198 469.140188 
L 152.53686 469.179871 
L 149.257521 469.219548 
L 145.978182 469.259222 
L 142.698843 469.298895 
L 139.419504 469.338567 
L 136.140165 469.37824 
L 132.860826 469.417911 
L 129.581488 469.457582 
L 126.302149 469.497253 
L 123.02281 469.536924 
L 119.743471 469.576595 
L 116.464132 469.616266 
L 113.184793 469.655937 
L 109.905455 469.695608 
L 106.626116 469.735278 
L 103.346777 469.774947 
L 100.067438 469.814617 
L 96.788099 469.854286 
L 93.50876 469.893955 
L 90.229421 469.933625 
L 86.950083 469.973294 
L 83.670744 470.012963 
L 80.391405 470.052633 
L 77.112066 470.092302 
L 73.832727 470.131971 
z
" style="fill:#98df8a;"/>
   </g>
   <g id="PolyCollection_7">
    <path clip-path="url(#p6fca1d3733)" d="M 73.832727 443.128611 
L 73.832727 470.131971 
L 77.112066 470.092302 
L 80.391405 470.052633 
L 83.670744 470.012963 
L 86.950083 469.973294 
L 90.229421 469.933625 
L 93.50876 469.893955 
L 96.788099 469.854286 
L 100.067438 469.814617 
L 103.346777 469.774947 
L 106.626116 469.735278 
L 109.905455 469.695608 
L 113.184793 469.655937 
L 116.464132 469.616266 
L 119.743471 469.576595 
L 123.02281 469.536924 
L 126.302149 469.497253 
L 129.581488 469.457582 
L 132.860826 469.417911 
L 136.140165 469.37824 
L 139.419504 469.338567 
L 142.698843 469.298895 
L 145.978182 469.259222 
L 149.257521 469.219548 
L 152.53686 469.179871 
L 155.816198 469.140188 
L 159.095537 469.100505 
L 162.374876 469.060823 
L 165.654215 469.02114 
L 168.933554 468.981456 
L 172.212893 468.941772 
L 175.492231 468.902089 
L 178.77157 468.862405 
L 182.050909 468.822721 
L 185.330248 468.783036 
L 188.609587 468.743349 
L 191.888926 468.703662 
L 195.168264 468.663975 
L 198.447603 468.624288 
L 201.726942 468.584601 
L 205.006281 468.544913 
L 208.28562 468.505225 
L 211.564959 468.465537 
L 214.844298 468.425849 
L 218.123636 468.386161 
L 221.402975 468.346472 
L 224.682314 468.306784 
L 227.961653 468.267095 
L 231.240992 468.227406 
L 234.520331 468.187715 
L 237.799669 468.148023 
L 241.079008 468.108331 
L 244.358347 468.068639 
L 247.637686 468.028947 
L 250.917025 467.989256 
L 254.196364 467.949563 
L 257.475702 467.90987 
L 260.755041 467.870177 
L 264.03438 467.830484 
L 267.313719 467.790791 
L 270.593058 467.751098 
L 273.872397 467.711405 
L 277.151736 467.671712 
L 280.431074 467.632019 
L 283.710413 467.592326 
L 286.989752 467.552633 
L 290.269091 467.51294 
L 293.54843 467.473248 
L 296.827769 467.433555 
L 300.107107 467.393862 
L 303.386446 467.354169 
L 306.665785 467.314476 
L 309.945124 467.274783 
L 313.224463 467.23509 
L 316.503802 467.195397 
L 319.78314 467.155704 
L 323.062479 467.116011 
L 326.341818 467.076318 
L 329.621157 467.036625 
L 332.900496 466.996932 
L 336.179835 466.95724 
L 339.459174 466.917547 
L 342.738512 466.877854 
L 346.017851 466.838161 
L 349.29719 466.798468 
L 352.576529 466.758775 
L 355.855868 466.719082 
L 359.135207 466.679389 
L 362.414545 466.639696 
L 365.693884 466.600003 
L 368.973223 466.56031 
L 372.252562 466.520617 
L 375.531901 466.480924 
L 378.81124 466.441232 
L 382.090579 466.401539 
L 385.369917 466.361846 
L 388.649256 466.322153 
L 391.928595 466.28246 
L 395.207934 466.242767 
L 398.487273 466.203074 
L 398.487273 439.19974 
L 398.487273 439.19974 
L 395.207934 439.239429 
L 391.928595 439.279118 
L 388.649256 439.318807 
L 385.369917 439.358496 
L 382.090579 439.398185 
L 378.81124 439.437874 
L 375.531901 439.477565 
L 372.252562 439.517258 
L 368.973223 439.55695 
L 365.693884 439.596643 
L 362.414545 439.636336 
L 359.135207 439.676029 
L 355.855868 439.715722 
L 352.576529 439.755415 
L 349.29719 439.795108 
L 346.017851 439.834801 
L 342.738512 439.874494 
L 339.459174 439.914187 
L 336.179835 439.95388 
L 332.900496 439.993573 
L 329.621157 440.033266 
L 326.341818 440.072958 
L 323.062479 440.112651 
L 319.78314 440.152344 
L 316.503802 440.192037 
L 313.224463 440.23173 
L 309.945124 440.271423 
L 306.665785 440.311116 
L 303.386446 440.350809 
L 300.107107 440.390502 
L 296.827769 440.430195 
L 293.54843 440.469888 
L 290.269091 440.509581 
L 286.989752 440.549274 
L 283.710413 440.588966 
L 280.431074 440.628659 
L 277.151736 440.668352 
L 273.872397 440.708045 
L 270.593058 440.747738 
L 267.313719 440.787431 
L 264.03438 440.827124 
L 260.755041 440.866817 
L 257.475702 440.90651 
L 254.196364 440.946203 
L 250.917025 440.985896 
L 247.637686 441.025587 
L 244.358347 441.065279 
L 241.079008 441.104971 
L 237.799669 441.144663 
L 234.520331 441.184355 
L 231.240992 441.224046 
L 227.961653 441.263735 
L 224.682314 441.303424 
L 221.402975 441.343112 
L 218.123636 441.382801 
L 214.844298 441.422489 
L 211.564959 441.462177 
L 208.28562 441.501865 
L 205.006281 441.541554 
L 201.726942 441.581241 
L 198.447603 441.620928 
L 195.168264 441.660615 
L 191.888926 441.700302 
L 188.609587 441.739989 
L 185.330248 441.779676 
L 182.050909 441.819361 
L 178.77157 441.859045 
L 175.492231 441.898729 
L 172.212893 441.938413 
L 168.933554 441.978096 
L 165.654215 442.01778 
L 162.374876 442.057463 
L 159.095537 442.097146 
L 155.816198 442.136828 
L 152.53686 442.176511 
L 149.257521 442.216189 
L 145.978182 442.255863 
L 142.698843 442.295535 
L 139.419504 442.335207 
L 136.140165 442.37488 
L 132.860826 442.414552 
L 129.581488 442.454223 
L 126.302149 442.493893 
L 123.02281 442.533564 
L 119.743471 442.573235 
L 116.464132 442.612906 
L 113.184793 442.652577 
L 109.905455 442.692248 
L 106.626116 442.731918 
L 103.346777 442.771588 
L 100.067438 442.811257 
L 96.788099 442.850926 
L 93.50876 442.890595 
L 90.229421 442.930265 
L 86.950083 442.969934 
L 83.670744 443.009603 
L 80.391405 443.049273 
L 77.112066 443.088942 
L 73.832727 443.128611 
z
" style="fill:#d62728;"/>
   </g>
   <g id="PolyCollection_8">
    <path clip-path="url(#p6fca1d3733)" d="M 73.832727 410.090487 
L 73.832727 443.128611 
L 77.112066 443.088942 
L 80.391405 443.049273 
L 83.670744 443.009603 
L 86.950083 442.969934 
L 90.229421 442.930265 
L 93.50876 442.890595 
L 96.788099 442.850926 
L 100.067438 442.811257 
L 103.346777 442.771588 
L 106.626116 442.731918 
L 109.905455 442.692248 
L 113.184793 442.652577 
L 116.464132 442.612906 
L 119.743471 442.573235 
L 123.02281 442.533564 
L 126.302149 442.493893 
L 129.581488 442.454223 
L 132.860826 442.414552 
L 136.140165 442.37488 
L 139.419504 442.335207 
L 142.698843 442.295535 
L 145.978182 442.255863 
L 149.257521 442.216189 
L 152.53686 442.176511 
L 155.816198 442.136828 
L 159.095537 442.097146 
L 162.374876 442.057463 
L 165.654215 442.01778 
L 168.933554 441.978096 
L 172.212893 441.938413 
L 175.492231 441.898729 
L 178.77157 441.859045 
L 182.050909 441.819361 
L 185.330248 441.779676 
L 188.609587 441.739989 
L 191.888926 441.700302 
L 195.168264 441.660615 
L 198.447603 441.620928 
L 201.726942 441.581241 
L 205.006281 441.541554 
L 208.28562 441.501865 
L 211.564959 441.462177 
L 214.844298 441.422489 
L 218.123636 441.382801 
L 221.402975 441.343112 
L 224.682314 441.303424 
L 227.961653 441.263735 
L 231.240992 441.224046 
L 234.520331 441.184355 
L 237.799669 441.144663 
L 241.079008 441.104971 
L 244.358347 441.065279 
L 247.637686 441.025587 
L 250.917025 440.985896 
L 254.196364 440.946203 
L 257.475702 440.90651 
L 260.755041 440.866817 
L 264.03438 440.827124 
L 267.313719 440.787431 
L 270.593058 440.747738 
L 273.872397 440.708045 
L 277.151736 440.668352 
L 280.431074 440.628659 
L 283.710413 440.588966 
L 286.989752 440.549274 
L 290.269091 440.509581 
L 293.54843 440.469888 
L 296.827769 440.430195 
L 300.107107 440.390502 
L 303.386446 440.350809 
L 306.665785 440.311116 
L 309.945124 440.271423 
L 313.224463 440.23173 
L 316.503802 440.192037 
L 319.78314 440.152344 
L 323.062479 440.112651 
L 326.341818 440.072958 
L 329.621157 440.033266 
L 332.900496 439.993573 
L 336.179835 439.95388 
L 339.459174 439.914187 
L 342.738512 439.874494 
L 346.017851 439.834801 
L 349.29719 439.795108 
L 352.576529 439.755415 
L 355.855868 439.715722 
L 359.135207 439.676029 
L 362.414545 439.636336 
L 365.693884 439.596643 
L 368.973223 439.55695 
L 372.252562 439.517258 
L 375.531901 439.477565 
L 378.81124 439.437874 
L 382.090579 439.398185 
L 385.369917 439.358496 
L 388.649256 439.318807 
L 391.928595 439.279118 
L 395.207934 439.239429 
L 398.487273 439.19974 
L 398.487273 406.163249 
L 398.487273 406.163249 
L 395.207934 406.202919 
L 391.928595 406.242588 
L 388.649256 406.282257 
L 385.369917 406.321926 
L 382.090579 406.361595 
L 378.81124 406.401264 
L 375.531901 406.440933 
L 372.252562 406.480602 
L 368.973223 406.520271 
L 365.693884 406.55994 
L 362.414545 406.599609 
L 359.135207 406.639278 
L 355.855868 406.678947 
L 352.576529 406.718616 
L 349.29719 406.758286 
L 346.017851 406.797955 
L 342.738512 406.837624 
L 339.459174 406.877293 
L 336.179835 406.916962 
L 332.900496 406.956631 
L 329.621157 406.9963 
L 326.341818 407.035969 
L 323.062479 407.075638 
L 319.78314 407.115307 
L 316.503802 407.154976 
L 313.224463 407.194645 
L 309.945124 407.234314 
L 306.665785 407.273983 
L 303.386446 407.313653 
L 300.107107 407.353322 
L 296.827769 407.392991 
L 293.54843 407.43266 
L 290.269091 407.472329 
L 286.989752 407.511998 
L 283.710413 407.551667 
L 280.431074 407.591336 
L 277.151736 407.631005 
L 273.872397 407.670674 
L 270.593058 407.710343 
L 267.313719 407.750012 
L 264.03438 407.789681 
L 260.755041 407.82935 
L 257.475702 407.86902 
L 254.196364 407.908689 
L 250.917025 407.948358 
L 247.637686 407.988027 
L 244.358347 408.027696 
L 241.079008 408.067365 
L 237.799669 408.107034 
L 234.520331 408.146703 
L 231.240992 408.186372 
L 227.961653 408.226041 
L 224.682314 408.26571 
L 221.402975 408.305379 
L 218.123636 408.345048 
L 214.844298 408.384717 
L 211.564959 408.424387 
L 208.28562 408.464056 
L 205.006281 408.503725 
L 201.726942 408.543394 
L 198.447603 408.583063 
L 195.168264 408.622732 
L 191.888926 408.662401 
L 188.609587 408.70207 
L 185.330248 408.741739 
L 182.050909 408.781408 
L 178.77157 408.821077 
L 175.492231 408.860746 
L 172.212893 408.900415 
L 168.933554 408.940084 
L 165.654215 408.979753 
L 162.374876 409.019423 
L 159.095537 409.059092 
L 155.816198 409.098761 
L 152.53686 409.13843 
L 149.257521 409.178099 
L 145.978182 409.217768 
L 142.698843 409.257437 
L 139.419504 409.297106 
L 136.140165 409.336775 
L 132.860826 409.376444 
L 129.581488 409.416113 
L 126.302149 409.455782 
L 123.02281 409.495451 
L 119.743471 409.53512 
L 116.464132 409.57479 
L 113.184793 409.614459 
L 109.905455 409.654128 
L 106.626116 409.693797 
L 103.346777 409.733466 
L 100.067438 409.773135 
L 96.788099 409.812804 
L 93.50876 409.852473 
L 90.229421 409.892142 
L 86.950083 409.931811 
L 83.670744 409.97148 
L 80.391405 410.011149 
L 77.112066 410.050818 
L 73.832727 410.090487 
z
" style="fill:#ff9896;"/>
   </g>
   <g id="PolyCollection_9">
    <path clip-path="url(#p6fca1d3733)" d="M 73.832727 404.998257 
L 73.832727 410.090487 
L 77.112066 410.050818 
L 80.391405 410.011149 
L 83.670744 409.97148 
L 86.950083 409.931811 
L 90.229421 409.892142 
L 93.50876 409.852473 
L 96.788099 409.812804 
L 100.067438 409.773135 
L 103.346777 409.733466 
L 106.626116 409.693797 
L 109.905455 409.654128 
L 113.184793 409.614459 
L 116.464132 409.57479 
L 119.743471 409.53512 
L 123.02281 409.495451 
L 126.302149 409.455782 
L 129.581488 409.416113 
L 132.860826 409.376444 
L 136.140165 409.336775 
L 139.419504 409.297106 
L 142.698843 409.257437 
L 145.978182 409.217768 
L 149.257521 409.178099 
L 152.53686 409.13843 
L 155.816198 409.098761 
L 159.095537 409.059092 
L 162.374876 409.019423 
L 165.654215 408.979753 
L 168.933554 408.940084 
L 172.212893 408.900415 
L 175.492231 408.860746 
L 178.77157 408.821077 
L 182.050909 408.781408 
L 185.330248 408.741739 
L 188.609587 408.70207 
L 191.888926 408.662401 
L 195.168264 408.622732 
L 198.447603 408.583063 
L 201.726942 408.543394 
L 205.006281 408.503725 
L 208.28562 408.464056 
L 211.564959 408.424387 
L 214.844298 408.384717 
L 218.123636 408.345048 
L 221.402975 408.305379 
L 224.682314 408.26571 
L 227.961653 408.226041 
L 231.240992 408.186372 
L 234.520331 408.146703 
L 237.799669 408.107034 
L 241.079008 408.067365 
L 244.358347 408.027696 
L 247.637686 407.988027 
L 250.917025 407.948358 
L 254.196364 407.908689 
L 257.475702 407.86902 
L 260.755041 407.82935 
L 264.03438 407.789681 
L 267.313719 407.750012 
L 270.593058 407.710343 
L 273.872397 407.670674 
L 277.151736 407.631005 
L 280.431074 407.591336 
L 283.710413 407.551667 
L 286.989752 407.511998 
L 290.269091 407.472329 
L 293.54843 407.43266 
L 296.827769 407.392991 
L 300.107107 407.353322 
L 303.386446 407.313653 
L 306.665785 407.273983 
L 309.945124 407.234314 
L 313.224463 407.194645 
L 316.503802 407.154976 
L 319.78314 407.115307 
L 323.062479 407.075638 
L 326.341818 407.035969 
L 329.621157 406.9963 
L 332.900496 406.956631 
L 336.179835 406.916962 
L 339.459174 406.877293 
L 342.738512 406.837624 
L 346.017851 406.797955 
L 349.29719 406.758286 
L 352.576529 406.718616 
L 355.855868 406.678947 
L 359.135207 406.639278 
L 362.414545 406.599609 
L 365.693884 406.55994 
L 368.973223 406.520271 
L 372.252562 406.480602 
L 375.531901 406.440933 
L 378.81124 406.401264 
L 382.090579 406.361595 
L 385.369917 406.321926 
L 388.649256 406.282257 
L 391.928595 406.242588 
L 395.207934 406.202919 
L 398.487273 406.163249 
L 398.487273 401.071019 
L 398.487273 401.071019 
L 395.207934 401.110688 
L 391.928595 401.150357 
L 388.649256 401.190026 
L 385.369917 401.229695 
L 382.090579 401.269364 
L 378.81124 401.309033 
L 375.531901 401.348702 
L 372.252562 401.388371 
L 368.973223 401.42804 
L 365.693884 401.467709 
L 362.414545 401.507378 
L 359.135207 401.547047 
L 355.855868 401.586716 
L 352.576529 401.626386 
L 349.29719 401.666055 
L 346.017851 401.705724 
L 342.738512 401.745393 
L 339.459174 401.785062 
L 336.179835 401.824731 
L 332.900496 401.8644 
L 329.621157 401.904069 
L 326.341818 401.943738 
L 323.062479 401.983407 
L 319.78314 402.023076 
L 316.503802 402.062745 
L 313.224463 402.102414 
L 309.945124 402.142083 
L 306.665785 402.181753 
L 303.386446 402.221422 
L 300.107107 402.261091 
L 296.827769 402.30076 
L 293.54843 402.340429 
L 290.269091 402.380098 
L 286.989752 402.419767 
L 283.710413 402.459436 
L 280.431074 402.499105 
L 277.151736 402.538774 
L 273.872397 402.578443 
L 270.593058 402.618112 
L 267.313719 402.657781 
L 264.03438 402.69745 
L 260.755041 402.73712 
L 257.475702 402.776789 
L 254.196364 402.816458 
L 250.917025 402.856127 
L 247.637686 402.895796 
L 244.358347 402.935465 
L 241.079008 402.975134 
L 237.799669 403.014803 
L 234.520331 403.054472 
L 231.240992 403.094141 
L 227.961653 403.13381 
L 224.682314 403.173479 
L 221.402975 403.213148 
L 218.123636 403.252817 
L 214.844298 403.292487 
L 211.564959 403.332156 
L 208.28562 403.371825 
L 205.006281 403.411494 
L 201.726942 403.451163 
L 198.447603 403.490832 
L 195.168264 403.530501 
L 191.888926 403.57017 
L 188.609587 403.609839 
L 185.330248 403.649508 
L 182.050909 403.689177 
L 178.77157 403.728846 
L 175.492231 403.768515 
L 172.212893 403.808184 
L 168.933554 403.847853 
L 165.654215 403.887523 
L 162.374876 403.927192 
L 159.095537 403.966861 
L 155.816198 404.00653 
L 152.53686 404.046199 
L 149.257521 404.085868 
L 145.978182 404.125537 
L 142.698843 404.165206 
L 139.419504 404.204875 
L 136.140165 404.244544 
L 132.860826 404.284213 
L 129.581488 404.323882 
L 126.302149 404.363551 
L 123.02281 404.40322 
L 119.743471 404.44289 
L 116.464132 404.482559 
L 113.184793 404.522228 
L 109.905455 404.561897 
L 106.626116 404.601566 
L 103.346777 404.641235 
L 100.067438 404.680904 
L 96.788099 404.720573 
L 93.50876 404.760242 
L 90.229421 404.799911 
L 86.950083 404.83958 
L 83.670744 404.879249 
L 80.391405 404.918918 
L 77.112066 404.958587 
L 73.832727 404.998257 
z
" style="fill:#9467bd;"/>
   </g>
   <g id="PolyCollection_10">
    <path clip-path="url(#p6fca1d3733)" d="M 73.832727 264.617894 
L 73.832727 404.998257 
L 77.112066 404.958587 
L 80.391405 404.918918 
L 83.670744 404.879249 
L 86.950083 404.83958 
L 90.229421 404.799911 
L 93.50876 404.760242 
L 96.788099 404.720573 
L 100.067438 404.680904 
L 103.346777 404.641235 
L 106.626116 404.601566 
L 109.905455 404.561897 
L 113.184793 404.522228 
L 116.464132 404.482559 
L 119.743471 404.44289 
L 123.02281 404.40322 
L 126.302149 404.363551 
L 129.581488 404.323882 
L 132.860826 404.284213 
L 136.140165 404.244544 
L 139.419504 404.204875 
L 142.698843 404.165206 
L 145.978182 404.125537 
L 149.257521 404.085868 
L 152.53686 404.046199 
L 155.816198 404.00653 
L 159.095537 403.966861 
L 162.374876 403.927192 
L 165.654215 403.887523 
L 168.933554 403.847853 
L 172.212893 403.808184 
L 175.492231 403.768515 
L 178.77157 403.728846 
L 182.050909 403.689177 
L 185.330248 403.649508 
L 188.609587 403.609839 
L 191.888926 403.57017 
L 195.168264 403.530501 
L 198.447603 403.490832 
L 201.726942 403.451163 
L 205.006281 403.411494 
L 208.28562 403.371825 
L 211.564959 403.332156 
L 214.844298 403.292487 
L 218.123636 403.252817 
L 221.402975 403.213148 
L 224.682314 403.173479 
L 227.961653 403.13381 
L 231.240992 403.094141 
L 234.520331 403.054472 
L 237.799669 403.014803 
L 241.079008 402.975134 
L 244.358347 402.935465 
L 247.637686 402.895796 
L 250.917025 402.856127 
L 254.196364 402.816458 
L 257.475702 402.776789 
L 260.755041 402.73712 
L 264.03438 402.69745 
L 267.313719 402.657781 
L 270.593058 402.618112 
L 273.872397 402.578443 
L 277.151736 402.538774 
L 280.431074 402.499105 
L 283.710413 402.459436 
L 286.989752 402.419767 
L 290.269091 402.380098 
L 293.54843 402.340429 
L 296.827769 402.30076 
L 300.107107 402.261091 
L 303.386446 402.221422 
L 306.665785 402.181753 
L 309.945124 402.142083 
L 313.224463 402.102414 
L 316.503802 402.062745 
L 319.78314 402.023076 
L 323.062479 401.983407 
L 326.341818 401.943738 
L 329.621157 401.904069 
L 332.900496 401.8644 
L 336.179835 401.824731 
L 339.459174 401.785062 
L 342.738512 401.745393 
L 346.017851 401.705724 
L 349.29719 401.666055 
L 352.576529 401.626386 
L 355.855868 401.586716 
L 359.135207 401.547047 
L 362.414545 401.507378 
L 365.693884 401.467709 
L 368.973223 401.42804 
L 372.252562 401.388371 
L 375.531901 401.348702 
L 378.81124 401.309033 
L 382.090579 401.269364 
L 385.369917 401.229695 
L 388.649256 401.190026 
L 391.928595 401.150357 
L 395.207934 401.110688 
L 398.487273 401.071019 
L 398.487273 266.061535 
L 398.487273 266.061535 
L 395.207934 266.049384 
L 391.928595 266.03717 
L 388.649256 266.02489 
L 385.369917 266.012549 
L 382.090579 266.000061 
L 378.81124 265.987449 
L 375.531901 265.97477 
L 372.252562 265.961937 
L 368.973223 265.948956 
L 365.693884 265.935833 
L 362.414545 265.922452 
L 359.135207 265.908984 
L 355.855868 265.895448 
L 352.576529 265.881871 
L 349.29719 265.868251 
L 346.017851 265.854525 
L 342.738512 265.840791 
L 339.459174 265.827011 
L 336.179835 265.813187 
L 332.900496 265.799255 
L 329.621157 265.785242 
L 326.341818 265.77117 
L 323.062479 265.757083 
L 319.78314 265.742907 
L 316.503802 265.728638 
L 313.224463 265.71433 
L 309.945124 265.700021 
L 306.665785 265.685713 
L 303.386446 265.671367 
L 300.107107 265.656986 
L 296.827769 265.642574 
L 293.54843 265.628152 
L 290.269091 265.613593 
L 286.989752 265.599017 
L 283.710413 265.584346 
L 280.431074 265.56965 
L 277.151736 265.554954 
L 273.872397 265.540257 
L 270.593058 265.525556 
L 267.313719 265.510806 
L 264.03438 265.496055 
L 260.755041 265.481207 
L 257.475702 265.466291 
L 254.196364 265.451323 
L 250.917025 265.436341 
L 247.637686 265.421359 
L 244.358347 265.406378 
L 241.079008 265.39136 
L 237.799669 265.376305 
L 234.520331 265.361191 
L 231.240992 265.346075 
L 227.961653 265.330959 
L 224.682314 265.315844 
L 221.402975 265.300728 
L 218.123636 265.285577 
L 214.844298 265.270402 
L 211.564959 265.255227 
L 208.28562 265.240053 
L 205.006281 265.224878 
L 201.726942 265.209704 
L 198.447603 265.194529 
L 195.168264 265.179354 
L 191.888926 265.16418 
L 188.609587 265.149005 
L 185.330248 265.13383 
L 182.050909 265.118656 
L 178.77157 265.103481 
L 175.492231 265.088307 
L 172.212893 265.073132 
L 168.933554 265.057957 
L 165.654215 265.042783 
L 162.374876 265.027608 
L 159.095537 265.012434 
L 155.816198 264.997259 
L 152.53686 264.982084 
L 149.257521 264.96691 
L 145.978182 264.951735 
L 142.698843 264.936561 
L 139.419504 264.921386 
L 136.140165 264.906211 
L 132.860826 264.891037 
L 129.581488 264.875862 
L 126.302149 264.860688 
L 123.02281 264.845513 
L 119.743471 264.830338 
L 116.464132 264.815164 
L 113.184793 264.799989 
L 109.905455 264.784815 
L 106.626116 264.76964 
L 103.346777 264.754465 
L 100.067438 264.739291 
L 96.788099 264.724116 
L 93.50876 264.708941 
L 90.229421 264.693767 
L 86.950083 264.678592 
L 83.670744 264.663418 
L 80.391405 264.648243 
L 77.112066 264.633068 
L 73.832727 264.617894 
z
" style="fill:#c5b0d5;"/>
   </g>
   <g id="PolyCollection_11">
    <path clip-path="url(#p6fca1d3733)" d="M 73.832727 109.98 
L 73.832727 264.617894 
L 77.112066 264.633068 
L 80.391405 264.648243 
L 83.670744 264.663418 
L 86.950083 264.678592 
L 90.229421 264.693767 
L 93.50876 264.708941 
L 96.788099 264.724116 
L 100.067438 264.739291 
L 103.346777 264.754465 
L 106.626116 264.76964 
L 109.905455 264.784815 
L 113.184793 264.799989 
L 116.464132 264.815164 
L 119.743471 264.830338 
L 123.02281 264.845513 
L 126.302149 264.860688 
L 129.581488 264.875862 
L 132.860826 264.891037 
L 136.140165 264.906211 
L 139.419504 264.921386 
L 142.698843 264.936561 
L 145.978182 264.951735 
L 149.257521 264.96691 
L 152.53686 264.982084 
L 155.816198 264.997259 
L 159.095537 265.012434 
L 162.374876 265.027608 
L 165.654215 265.042783 
L 168.933554 265.057957 
L 172.212893 265.073132 
L 175.492231 265.088307 
L 178.77157 265.103481 
L 182.050909 265.118656 
L 185.330248 265.13383 
L 188.609587 265.149005 
L 191.888926 265.16418 
L 195.168264 265.179354 
L 198.447603 265.194529 
L 201.726942 265.209704 
L 205.006281 265.224878 
L 208.28562 265.240053 
L 211.564959 265.255227 
L 214.844298 265.270402 
L 218.123636 265.285577 
L 221.402975 265.300728 
L 224.682314 265.315844 
L 227.961653 265.330959 
L 231.240992 265.346075 
L 234.520331 265.361191 
L 237.799669 265.376305 
L 241.079008 265.39136 
L 244.358347 265.406378 
L 247.637686 265.421359 
L 250.917025 265.436341 
L 254.196364 265.451323 
L 257.475702 265.466291 
L 260.755041 265.481207 
L 264.03438 265.496055 
L 267.313719 265.510806 
L 270.593058 265.525556 
L 273.872397 265.540257 
L 277.151736 265.554954 
L 280.431074 265.56965 
L 283.710413 265.584346 
L 286.989752 265.599017 
L 290.269091 265.613593 
L 293.54843 265.628152 
L 296.827769 265.642574 
L 300.107107 265.656986 
L 303.386446 265.671367 
L 306.665785 265.685713 
L 309.945124 265.700021 
L 313.224463 265.71433 
L 316.503802 265.728638 
L 319.78314 265.742907 
L 323.062479 265.757083 
L 326.341818 265.77117 
L 329.621157 265.785242 
L 332.900496 265.799255 
L 336.179835 265.813187 
L 339.459174 265.827011 
L 342.738512 265.840791 
L 346.017851 265.854525 
L 349.29719 265.868251 
L 352.576529 265.881871 
L 355.855868 265.895448 
L 359.135207 265.908984 
L 362.414545 265.922452 
L 365.693884 265.935833 
L 368.973223 265.948956 
L 372.252562 265.961937 
L 375.531901 265.97477 
L 378.81124 265.987449 
L 382.090579 266.000061 
L 385.369917 266.012549 
L 388.649256 266.02489 
L 391.928595 266.03717 
L 395.207934 266.049384 
L 398.487273 266.061535 
L 398.487273 109.98 
L 398.487273 109.98 
L 395.207934 109.98 
L 391.928595 109.98 
L 388.649256 109.98 
L 385.369917 109.98 
L 382.090579 109.98 
L 378.81124 109.98 
L 375.531901 109.98 
L 372.252562 109.98 
L 368.973223 109.98 
L 365.693884 109.98 
L 362.414545 109.98 
L 359.135207 109.98 
L 355.855868 109.98 
L 352.576529 109.98 
L 349.29719 109.98 
L 346.017851 109.98 
L 342.738512 109.98 
L 339.459174 109.98 
L 336.179835 109.98 
L 332.900496 109.98 
L 329.621157 109.98 
L 326.341818 109.98 
L 323.062479 109.98 
L 319.78314 109.98 
L 316.503802 109.98 
L 313.224463 109.98 
L 309.945124 109.98 
L 306.665785 109.98 
L 303.386446 109.98 
L 300.107107 109.98 
L 296.827769 109.98 
L 293.54843 109.98 
L 290.269091 109.98 
L 286.989752 109.98 
L 283.710413 109.98 
L 280.431074 109.98 
L 277.151736 109.98 
L 273.872397 109.98 
L 270.593058 109.98 
L 267.313719 109.98 
L 264.03438 109.98 
L 260.755041 109.98 
L 257.475702 109.98 
L 254.196364 109.98 
L 250.917025 109.98 
L 247.637686 109.98 
L 244.358347 109.98 
L 241.079008 109.98 
L 237.799669 109.98 
L 234.520331 109.98 
L 231.240992 109.98 
L 227.961653 109.98 
L 224.682314 109.98 
L 221.402975 109.98 
L 218.123636 109.98 
L 214.844298 109.98 
L 211.564959 109.98 
L 208.28562 109.98 
L 205.006281 109.98 
L 201.726942 109.98 
L 198.447603 109.98 
L 195.168264 109.98 
L 191.888926 109.98 
L 188.609587 109.98 
L 185.330248 109.98 
L 182.050909 109.98 
L 178.77157 109.98 
L 175.492231 109.98 
L 172.212893 109.98 
L 168.933554 109.98 
L 165.654215 109.98 
L 162.374876 109.98 
L 159.095537 109.98 
L 155.816198 109.98 
L 152.53686 109.98 
L 149.257521 109.98 
L 145.978182 109.98 
L 142.698843 109.98 
L 139.419504 109.98 
L 136.140165 109.98 
L 132.860826 109.98 
L 129.581488 109.98 
L 126.302149 109.98 
L 123.02281 109.98 
L 119.743471 109.98 
L 116.464132 109.98 
L 113.184793 109.98 
L 109.905455 109.98 
L 106.626116 109.98 
L 103.346777 109.98 
L 100.067438 109.98 
L 96.788099 109.98 
L 93.50876 109.98 
L 90.229421 109.98 
L 86.950083 109.98 
L 83.670744 109.98 
L 80.391405 109.98 
L 77.112066 109.98 
L 73.832727 109.98 
z
" style="fill:#8c564b;"/>
   </g>
   <g id="matplotlib.axis_1">
    <g id="xtick_1">
     <g id="line2d_1">
      <defs>
       <path d="M 0 0 
L 0 3.5 
" id="m4382ee16c7" style="stroke:#000000;stroke-width:0.8;"/>
      </defs>
      <g>
       <use style="stroke:#000000;stroke-width:0.8;" x="73.832727" xlink:href="#m4382ee16c7" y="624.78"/>
      </g>
     </g>
     <g id="text_1">
      <!-- 0 -->
      <g transform="translate(70.651477 639.378438)scale(0.1 -0.1)">
       <defs>
        <path d="M 2034 4250 
Q 1547 4250 1301 3770 
Q 1056 3291 1056 2328 
Q 1056 1369 1301 889 
Q 1547 409 2034 409 
Q 2525 409 2770 889 
Q 3016 1369 3016 2328 
Q 3016 3291 2770 3770 
Q 2525 4250 2034 4250 
z
M 2034 4750 
Q 2819 4750 3233 4129 
Q 3647 3509 3647 2328 
Q 3647 1150 3233 529 
Q 2819 -91 2034 -91 
Q 1250 -91 836 529 
Q 422 1150 422 2328 
Q 422 3509 836 4129 
Q 1250 4750 2034 4750 
z
" id="DejaVuSans-30" transform="scale(0.015625)"/>
       </defs>
       <use xlink:href="#DejaVuSans-30"/>
      </g>
     </g>
    </g>
    <g id="xtick_2">
     <g id="line2d_2">
      <g>
       <use style="stroke:#000000;stroke-width:0.8;" x="138.763636" xlink:href="#m4382ee16c7" y="624.78"/>
      </g>
     </g>
     <g id="text_2">
      <!-- 20 -->
      <g transform="translate(132.401136 639.378438)scale(0.1 -0.1)">
       <defs>
        <path d="M 1228 531 
L 3431 531 
L 3431 0 
L 469 0 
L 469 531 
Q 828 903 1448 1529 
Q 2069 2156 2228 2338 
Q 2531 2678 2651 2914 
Q 2772 3150 2772 3378 
Q 2772 3750 2511 3984 
Q 2250 4219 1831 4219 
Q 1534 4219 1204 4116 
Q 875 4013 500 3803 
L 500 4441 
Q 881 4594 1212 4672 
Q 1544 4750 1819 4750 
Q 2544 4750 2975 4387 
Q 3406 4025 3406 3419 
Q 3406 3131 3298 2873 
Q 3191 2616 2906 2266 
Q 2828 2175 2409 1742 
Q 1991 1309 1228 531 
z
" id="DejaVuSans-32" transform="scale(0.015625)"/>
       </defs>
       <use xlink:href="#DejaVuSans-32"/>
       <use x="63.623047" xlink:href="#DejaVuSans-30"/>
      </g>
     </g>
    </g>
    <g id="xtick_3">
     <g id="line2d_3">
      <g>
       <use style="stroke:#000000;stroke-width:0.8;" x="203.694545" xlink:href="#m4382ee16c7" y="624.78"/>
      </g>
     </g>
     <g id="text_3">
      <!-- 40 -->
      <g transform="translate(197.332045 639.378438)scale(0.1 -0.1)">
       <defs>
        <path d="M 2419 4116 
L 825 1625 
L 2419 1625 
L 2419 4116 
z
M 2253 4666 
L 3047 4666 
L 3047 1625 
L 3713 1625 
L 3713 1100 
L 3047 1100 
L 3047 0 
L 2419 0 
L 2419 1100 
L 313 1100 
L 313 1709 
L 2253 4666 
z
" id="DejaVuSans-34" transform="scale(0.015625)"/>
       </defs>
       <use xlink:href="#DejaVuSans-34"/>
       <use x="63.623047" xlink:href="#DejaVuSans-30"/>
      </g>
     </g>
    </g>
    <g id="xtick_4">
     <g id="line2d_4">
      <g>
       <use style="stroke:#000000;stroke-width:0.8;" x="268.625455" xlink:href="#m4382ee16c7" y="624.78"/>
      </g>
     </g>
     <g id="text_4">
      <!-- 60 -->
      <g transform="translate(262.262955 639.378438)scale(0.1 -0.1)">
       <defs>
        <path d="M 2113 2584 
Q 1688 2584 1439 2293 
Q 1191 2003 1191 1497 
Q 1191 994 1439 701 
Q 1688 409 2113 409 
Q 2538 409 2786 701 
Q 3034 994 3034 1497 
Q 3034 2003 2786 2293 
Q 2538 2584 2113 2584 
z
M 3366 4563 
L 3366 3988 
Q 3128 4100 2886 4159 
Q 2644 4219 2406 4219 
Q 1781 4219 1451 3797 
Q 1122 3375 1075 2522 
Q 1259 2794 1537 2939 
Q 1816 3084 2150 3084 
Q 2853 3084 3261 2657 
Q 3669 2231 3669 1497 
Q 3669 778 3244 343 
Q 2819 -91 2113 -91 
Q 1303 -91 875 529 
Q 447 1150 447 2328 
Q 447 3434 972 4092 
Q 1497 4750 2381 4750 
Q 2619 4750 2861 4703 
Q 3103 4656 3366 4563 
z
" id="DejaVuSans-36" transform="scale(0.015625)"/>
       </defs>
       <use xlink:href="#DejaVuSans-36"/>
       <use x="63.623047" xlink:href="#DejaVuSans-30"/>
      </g>
     </g>
    </g>
    <g id="xtick_5">
     <g id="line2d_5">
      <g>
       <use style="stroke:#000000;stroke-width:0.8;" x="333.556364" xlink:href="#m4382ee16c7" y="624.78"/>
      </g>
     </g>
     <g id="text_5">
      <!-- 80 -->
      <g transform="translate(327.193864 639.378438)scale(0.1 -0.1)">
       <defs>
        <path d="M 2034 2216 
Q 1584 2216 1326 1975 
Q 1069 1734 1069 1313 
Q 1069 891 1326 650 
Q 1584 409 2034 409 
Q 2484 409 2743 651 
Q 3003 894 3003 1313 
Q 3003 1734 2745 1975 
Q 2488 2216 2034 2216 
z
M 1403 2484 
Q 997 2584 770 2862 
Q 544 3141 544 3541 
Q 544 4100 942 4425 
Q 1341 4750 2034 4750 
Q 2731 4750 3128 4425 
Q 3525 4100 3525 3541 
Q 3525 3141 3298 2862 
Q 3072 2584 2669 2484 
Q 3125 2378 3379 2068 
Q 3634 1759 3634 1313 
Q 3634 634 3220 271 
Q 2806 -91 2034 -91 
Q 1263 -91 848 271 
Q 434 634 434 1313 
Q 434 1759 690 2068 
Q 947 2378 1403 2484 
z
M 1172 3481 
Q 1172 3119 1398 2916 
Q 1625 2713 2034 2713 
Q 2441 2713 2670 2916 
Q 2900 3119 2900 3481 
Q 2900 3844 2670 4047 
Q 2441 4250 2034 4250 
Q 1625 4250 1398 4047 
Q 1172 3844 1172 3481 
z
" id="DejaVuSans-38" transform="scale(0.015625)"/>
       </defs>
       <use xlink:href="#DejaVuSans-38"/>
       <use x="63.623047" xlink:href="#DejaVuSans-30"/>
      </g>
     </g>
    </g>
    <g id="xtick_6">
     <g id="line2d_6">
      <g>
       <use style="stroke:#000000;stroke-width:0.8;" x="398.487273" xlink:href="#m4382ee16c7" y="624.78"/>
      </g>
     </g>
     <g id="text_6">
      <!-- 100 -->
      <g transform="translate(388.943523 639.378438)scale(0.1 -0.1)">
       <defs>
        <path d="M 794 531 
L 1825 531 
L 1825 4091 
L 703 3866 
L 703 4441 
L 1819 4666 
L 2450 4666 
L 2450 531 
L 3481 531 
L 3481 0 
L 794 0 
L 794 531 
z
" id="DejaVuSans-31" transform="scale(0.015625)"/>
       </defs>
       <use xlink:href="#DejaVuSans-31"/>
       <use x="63.623047" xlink:href="#DejaVuSans-30"/>
       <use x="127.246094" xlink:href="#DejaVuSans-30"/>
      </g>
     </g>
    </g>
    <g id="text_7">
     <!-- Proportion of New Technology in Grid -->
     <g transform="translate(143.633437 653.056563)scale(0.1 -0.1)">
      <defs>
       <path d="M 1259 4147 
L 1259 2394 
L 2053 2394 
Q 2494 2394 2734 2622 
Q 2975 2850 2975 3272 
Q 2975 3691 2734 3919 
Q 2494 4147 2053 4147 
L 1259 4147 
z
M 628 4666 
L 2053 4666 
Q 2838 4666 3239 4311 
Q 3641 3956 3641 3272 
Q 3641 2581 3239 2228 
Q 2838 1875 2053 1875 
L 1259 1875 
L 1259 0 
L 628 0 
L 628 4666 
z
" id="DejaVuSans-50" transform="scale(0.015625)"/>
       <path d="M 2631 2963 
Q 2534 3019 2420 3045 
Q 2306 3072 2169 3072 
Q 1681 3072 1420 2755 
Q 1159 2438 1159 1844 
L 1159 0 
L 581 0 
L 581 3500 
L 1159 3500 
L 1159 2956 
Q 1341 3275 1631 3429 
Q 1922 3584 2338 3584 
Q 2397 3584 2469 3576 
Q 2541 3569 2628 3553 
L 2631 2963 
z
" id="DejaVuSans-72" transform="scale(0.015625)"/>
       <path d="M 1959 3097 
Q 1497 3097 1228 2736 
Q 959 2375 959 1747 
Q 959 1119 1226 758 
Q 1494 397 1959 397 
Q 2419 397 2687 759 
Q 2956 1122 2956 1747 
Q 2956 2369 2687 2733 
Q 2419 3097 1959 3097 
z
M 1959 3584 
Q 2709 3584 3137 3096 
Q 3566 2609 3566 1747 
Q 3566 888 3137 398 
Q 2709 -91 1959 -91 
Q 1206 -91 779 398 
Q 353 888 353 1747 
Q 353 2609 779 3096 
Q 1206 3584 1959 3584 
z
" id="DejaVuSans-6f" transform="scale(0.015625)"/>
       <path d="M 1159 525 
L 1159 -1331 
L 581 -1331 
L 581 3500 
L 1159 3500 
L 1159 2969 
Q 1341 3281 1617 3432 
Q 1894 3584 2278 3584 
Q 2916 3584 3314 3078 
Q 3713 2572 3713 1747 
Q 3713 922 3314 415 
Q 2916 -91 2278 -91 
Q 1894 -91 1617 61 
Q 1341 213 1159 525 
z
M 3116 1747 
Q 3116 2381 2855 2742 
Q 2594 3103 2138 3103 
Q 1681 3103 1420 2742 
Q 1159 2381 1159 1747 
Q 1159 1113 1420 752 
Q 1681 391 2138 391 
Q 2594 391 2855 752 
Q 3116 1113 3116 1747 
z
" id="DejaVuSans-70" transform="scale(0.015625)"/>
       <path d="M 1172 4494 
L 1172 3500 
L 2356 3500 
L 2356 3053 
L 1172 3053 
L 1172 1153 
Q 1172 725 1289 603 
Q 1406 481 1766 481 
L 2356 481 
L 2356 0 
L 1766 0 
Q 1100 0 847 248 
Q 594 497 594 1153 
L 594 3053 
L 172 3053 
L 172 3500 
L 594 3500 
L 594 4494 
L 1172 4494 
z
" id="DejaVuSans-74" transform="scale(0.015625)"/>
       <path d="M 603 3500 
L 1178 3500 
L 1178 0 
L 603 0 
L 603 3500 
z
M 603 4863 
L 1178 4863 
L 1178 4134 
L 603 4134 
L 603 4863 
z
" id="DejaVuSans-69" transform="scale(0.015625)"/>
       <path d="M 3513 2113 
L 3513 0 
L 2938 0 
L 2938 2094 
Q 2938 2591 2744 2837 
Q 2550 3084 2163 3084 
Q 1697 3084 1428 2787 
Q 1159 2491 1159 1978 
L 1159 0 
L 581 0 
L 581 3500 
L 1159 3500 
L 1159 2956 
Q 1366 3272 1645 3428 
Q 1925 3584 2291 3584 
Q 2894 3584 3203 3211 
Q 3513 2838 3513 2113 
z
" id="DejaVuSans-6e" transform="scale(0.015625)"/>
       <path id="DejaVuSans-20" transform="scale(0.015625)"/>
       <path d="M 2375 4863 
L 2375 4384 
L 1825 4384 
Q 1516 4384 1395 4259 
Q 1275 4134 1275 3809 
L 1275 3500 
L 2222 3500 
L 2222 3053 
L 1275 3053 
L 1275 0 
L 697 0 
L 697 3053 
L 147 3053 
L 147 3500 
L 697 3500 
L 697 3744 
Q 697 4328 969 4595 
Q 1241 4863 1831 4863 
L 2375 4863 
z
" id="DejaVuSans-66" transform="scale(0.015625)"/>
       <path d="M 628 4666 
L 1478 4666 
L 3547 763 
L 3547 4666 
L 4159 4666 
L 4159 0 
L 3309 0 
L 1241 3903 
L 1241 0 
L 628 0 
L 628 4666 
z
" id="DejaVuSans-4e" transform="scale(0.015625)"/>
       <path d="M 3597 1894 
L 3597 1613 
L 953 1613 
Q 991 1019 1311 708 
Q 1631 397 2203 397 
Q 2534 397 2845 478 
Q 3156 559 3463 722 
L 3463 178 
Q 3153 47 2828 -22 
Q 2503 -91 2169 -91 
Q 1331 -91 842 396 
Q 353 884 353 1716 
Q 353 2575 817 3079 
Q 1281 3584 2069 3584 
Q 2775 3584 3186 3129 
Q 3597 2675 3597 1894 
z
M 3022 2063 
Q 3016 2534 2758 2815 
Q 2500 3097 2075 3097 
Q 1594 3097 1305 2825 
Q 1016 2553 972 2059 
L 3022 2063 
z
" id="DejaVuSans-65" transform="scale(0.015625)"/>
       <path d="M 269 3500 
L 844 3500 
L 1563 769 
L 2278 3500 
L 2956 3500 
L 3675 769 
L 4391 3500 
L 4966 3500 
L 4050 0 
L 3372 0 
L 2619 2869 
L 1863 0 
L 1184 0 
L 269 3500 
z
" id="DejaVuSans-77" transform="scale(0.015625)"/>
       <path d="M -19 4666 
L 3928 4666 
L 3928 4134 
L 2272 4134 
L 2272 0 
L 1638 0 
L 1638 4134 
L -19 4134 
L -19 4666 
z
" id="DejaVuSans-54" transform="scale(0.015625)"/>
       <path d="M 3122 3366 
L 3122 2828 
Q 2878 2963 2633 3030 
Q 2388 3097 2138 3097 
Q 1578 3097 1268 2742 
Q 959 2388 959 1747 
Q 959 1106 1268 751 
Q 1578 397 2138 397 
Q 2388 397 2633 464 
Q 2878 531 3122 666 
L 3122 134 
Q 2881 22 2623 -34 
Q 2366 -91 2075 -91 
Q 1284 -91 818 406 
Q 353 903 353 1747 
Q 353 2603 823 3093 
Q 1294 3584 2113 3584 
Q 2378 3584 2631 3529 
Q 2884 3475 3122 3366 
z
" id="DejaVuSans-63" transform="scale(0.015625)"/>
       <path d="M 3513 2113 
L 3513 0 
L 2938 0 
L 2938 2094 
Q 2938 2591 2744 2837 
Q 2550 3084 2163 3084 
Q 1697 3084 1428 2787 
Q 1159 2491 1159 1978 
L 1159 0 
L 581 0 
L 581 4863 
L 1159 4863 
L 1159 2956 
Q 1366 3272 1645 3428 
Q 1925 3584 2291 3584 
Q 2894 3584 3203 3211 
Q 3513 2838 3513 2113 
z
" id="DejaVuSans-68" transform="scale(0.015625)"/>
       <path d="M 603 4863 
L 1178 4863 
L 1178 0 
L 603 0 
L 603 4863 
z
" id="DejaVuSans-6c" transform="scale(0.015625)"/>
       <path d="M 2906 1791 
Q 2906 2416 2648 2759 
Q 2391 3103 1925 3103 
Q 1463 3103 1205 2759 
Q 947 2416 947 1791 
Q 947 1169 1205 825 
Q 1463 481 1925 481 
Q 2391 481 2648 825 
Q 2906 1169 2906 1791 
z
M 3481 434 
Q 3481 -459 3084 -895 
Q 2688 -1331 1869 -1331 
Q 1566 -1331 1297 -1286 
Q 1028 -1241 775 -1147 
L 775 -588 
Q 1028 -725 1275 -790 
Q 1522 -856 1778 -856 
Q 2344 -856 2625 -561 
Q 2906 -266 2906 331 
L 2906 616 
Q 2728 306 2450 153 
Q 2172 0 1784 0 
Q 1141 0 747 490 
Q 353 981 353 1791 
Q 353 2603 747 3093 
Q 1141 3584 1784 3584 
Q 2172 3584 2450 3431 
Q 2728 3278 2906 2969 
L 2906 3500 
L 3481 3500 
L 3481 434 
z
" id="DejaVuSans-67" transform="scale(0.015625)"/>
       <path d="M 2059 -325 
Q 1816 -950 1584 -1140 
Q 1353 -1331 966 -1331 
L 506 -1331 
L 506 -850 
L 844 -850 
Q 1081 -850 1212 -737 
Q 1344 -625 1503 -206 
L 1606 56 
L 191 3500 
L 800 3500 
L 1894 763 
L 2988 3500 
L 3597 3500 
L 2059 -325 
z
" id="DejaVuSans-79" transform="scale(0.015625)"/>
       <path d="M 3809 666 
L 3809 1919 
L 2778 1919 
L 2778 2438 
L 4434 2438 
L 4434 434 
Q 4069 175 3628 42 
Q 3188 -91 2688 -91 
Q 1594 -91 976 548 
Q 359 1188 359 2328 
Q 359 3472 976 4111 
Q 1594 4750 2688 4750 
Q 3144 4750 3555 4637 
Q 3966 4525 4313 4306 
L 4313 3634 
Q 3963 3931 3569 4081 
Q 3175 4231 2741 4231 
Q 1884 4231 1454 3753 
Q 1025 3275 1025 2328 
Q 1025 1384 1454 906 
Q 1884 428 2741 428 
Q 3075 428 3337 486 
Q 3600 544 3809 666 
z
" id="DejaVuSans-47" transform="scale(0.015625)"/>
       <path d="M 2906 2969 
L 2906 4863 
L 3481 4863 
L 3481 0 
L 2906 0 
L 2906 525 
Q 2725 213 2448 61 
Q 2172 -91 1784 -91 
Q 1150 -91 751 415 
Q 353 922 353 1747 
Q 353 2572 751 3078 
Q 1150 3584 1784 3584 
Q 2172 3584 2448 3432 
Q 2725 3281 2906 2969 
z
M 947 1747 
Q 947 1113 1208 752 
Q 1469 391 1925 391 
Q 2381 391 2643 752 
Q 2906 1113 2906 1747 
Q 2906 2381 2643 2742 
Q 2381 3103 1925 3103 
Q 1469 3103 1208 2742 
Q 947 2381 947 1747 
z
" id="DejaVuSans-64" transform="scale(0.015625)"/>
      </defs>
      <use xlink:href="#DejaVuSans-50"/>
      <use x="58.552734" xlink:href="#DejaVuSans-72"/>
      <use x="97.416016" xlink:href="#DejaVuSans-6f"/>
      <use x="158.597656" xlink:href="#DejaVuSans-70"/>
      <use x="222.074219" xlink:href="#DejaVuSans-6f"/>
      <use x="283.255859" xlink:href="#DejaVuSans-72"/>
      <use x="324.369141" xlink:href="#DejaVuSans-74"/>
      <use x="363.578125" xlink:href="#DejaVuSans-69"/>
      <use x="391.361328" xlink:href="#DejaVuSans-6f"/>
      <use x="452.542969" xlink:href="#DejaVuSans-6e"/>
      <use x="515.921875" xlink:href="#DejaVuSans-20"/>
      <use x="547.708984" xlink:href="#DejaVuSans-6f"/>
      <use x="608.890625" xlink:href="#DejaVuSans-66"/>
      <use x="644.095703" xlink:href="#DejaVuSans-20"/>
      <use x="675.882812" xlink:href="#DejaVuSans-4e"/>
      <use x="750.6875" xlink:href="#DejaVuSans-65"/>
      <use x="812.210938" xlink:href="#DejaVuSans-77"/>
      <use x="893.998047" xlink:href="#DejaVuSans-20"/>
      <use x="925.785156" xlink:href="#DejaVuSans-54"/>
      <use x="969.869141" xlink:href="#DejaVuSans-65"/>
      <use x="1031.392578" xlink:href="#DejaVuSans-63"/>
      <use x="1086.373047" xlink:href="#DejaVuSans-68"/>
      <use x="1149.751953" xlink:href="#DejaVuSans-6e"/>
      <use x="1213.130859" xlink:href="#DejaVuSans-6f"/>
      <use x="1274.3125" xlink:href="#DejaVuSans-6c"/>
      <use x="1302.095703" xlink:href="#DejaVuSans-6f"/>
      <use x="1363.277344" xlink:href="#DejaVuSans-67"/>
      <use x="1426.753906" xlink:href="#DejaVuSans-79"/>
      <use x="1485.933594" xlink:href="#DejaVuSans-20"/>
      <use x="1517.720703" xlink:href="#DejaVuSans-69"/>
      <use x="1545.503906" xlink:href="#DejaVuSans-6e"/>
      <use x="1608.882812" xlink:href="#DejaVuSans-20"/>
      <use x="1640.669922" xlink:href="#DejaVuSans-47"/>
      <use x="1718.160156" xlink:href="#DejaVuSans-72"/>
      <use x="1759.273438" xlink:href="#DejaVuSans-69"/>
      <use x="1787.056641" xlink:href="#DejaVuSans-64"/>
     </g>
    </g>
   </g>
   <g id="matplotlib.axis_2">
    <g id="ytick_1">
     <g id="line2d_7">
      <defs>
       <path d="M 0 0 
L -3.5 0 
" id="m9bce981f85" style="stroke:#000000;stroke-width:0.8;"/>
      </defs>
      <g>
       <use style="stroke:#000000;stroke-width:0.8;" x="57.6" xlink:href="#m9bce981f85" y="624.78"/>
      </g>
     </g>
     <g id="text_8">
      <!-- 0 -->
      <g transform="translate(44.2375 628.579219)scale(0.1 -0.1)">
       <use xlink:href="#DejaVuSans-30"/>
      </g>
     </g>
    </g>
    <g id="ytick_2">
     <g id="line2d_8">
      <g>
       <use style="stroke:#000000;stroke-width:0.8;" x="57.6" xlink:href="#m9bce981f85" y="532.02092"/>
      </g>
     </g>
     <g id="text_9">
      <!-- 50 -->
      <g transform="translate(37.875 535.820139)scale(0.1 -0.1)">
       <defs>
        <path d="M 691 4666 
L 3169 4666 
L 3169 4134 
L 1269 4134 
L 1269 2991 
Q 1406 3038 1543 3061 
Q 1681 3084 1819 3084 
Q 2600 3084 3056 2656 
Q 3513 2228 3513 1497 
Q 3513 744 3044 326 
Q 2575 -91 1722 -91 
Q 1428 -91 1123 -41 
Q 819 9 494 109 
L 494 744 
Q 775 591 1075 516 
Q 1375 441 1709 441 
Q 2250 441 2565 725 
Q 2881 1009 2881 1497 
Q 2881 1984 2565 2268 
Q 2250 2553 1709 2553 
Q 1456 2553 1204 2497 
Q 953 2441 691 2322 
L 691 4666 
z
" id="DejaVuSans-35" transform="scale(0.015625)"/>
       </defs>
       <use xlink:href="#DejaVuSans-35"/>
       <use x="63.623047" xlink:href="#DejaVuSans-30"/>
      </g>
     </g>
    </g>
    <g id="ytick_3">
     <g id="line2d_9">
      <g>
       <use style="stroke:#000000;stroke-width:0.8;" x="57.6" xlink:href="#m9bce981f85" y="439.26184"/>
      </g>
     </g>
     <g id="text_10">
      <!-- 100 -->
      <g transform="translate(31.5125 443.061059)scale(0.1 -0.1)">
       <use xlink:href="#DejaVuSans-31"/>
       <use x="63.623047" xlink:href="#DejaVuSans-30"/>
       <use x="127.246094" xlink:href="#DejaVuSans-30"/>
      </g>
     </g>
    </g>
    <g id="ytick_4">
     <g id="line2d_10">
      <g>
       <use style="stroke:#000000;stroke-width:0.8;" x="57.6" xlink:href="#m9bce981f85" y="346.50276"/>
      </g>
     </g>
     <g id="text_11">
      <!-- 150 -->
      <g transform="translate(31.5125 350.301979)scale(0.1 -0.1)">
       <use xlink:href="#DejaVuSans-31"/>
       <use x="63.623047" xlink:href="#DejaVuSans-35"/>
       <use x="127.246094" xlink:href="#DejaVuSans-30"/>
      </g>
     </g>
    </g>
    <g id="ytick_5">
     <g id="line2d_11">
      <g>
       <use style="stroke:#000000;stroke-width:0.8;" x="57.6" xlink:href="#m9bce981f85" y="253.74368"/>
      </g>
     </g>
     <g id="text_12">
      <!-- 200 -->
      <g transform="translate(31.5125 257.542899)scale(0.1 -0.1)">
       <use xlink:href="#DejaVuSans-32"/>
       <use x="63.623047" xlink:href="#DejaVuSans-30"/>
       <use x="127.246094" xlink:href="#DejaVuSans-30"/>
      </g>
     </g>
    </g>
    <g id="ytick_6">
     <g id="line2d_12">
      <g>
       <use style="stroke:#000000;stroke-width:0.8;" x="57.6" xlink:href="#m9bce981f85" y="160.9846"/>
      </g>
     </g>
     <g id="text_13">
      <!-- 250 -->
      <g transform="translate(31.5125 164.783818)scale(0.1 -0.1)">
       <use xlink:href="#DejaVuSans-32"/>
       <use x="63.623047" xlink:href="#DejaVuSans-35"/>
       <use x="127.246094" xlink:href="#DejaVuSans-30"/>
      </g>
     </g>
    </g>
    <g id="text_14">
     <!-- Total Energy Generated (TWh) -->
     <g transform="translate(25.432812 430.054531)rotate(-90)scale(0.1 -0.1)">
      <defs>
       <path d="M 2194 1759 
Q 1497 1759 1228 1600 
Q 959 1441 959 1056 
Q 959 750 1161 570 
Q 1363 391 1709 391 
Q 2188 391 2477 730 
Q 2766 1069 2766 1631 
L 2766 1759 
L 2194 1759 
z
M 3341 1997 
L 3341 0 
L 2766 0 
L 2766 531 
Q 2569 213 2275 61 
Q 1981 -91 1556 -91 
Q 1019 -91 701 211 
Q 384 513 384 1019 
Q 384 1609 779 1909 
Q 1175 2209 1959 2209 
L 2766 2209 
L 2766 2266 
Q 2766 2663 2505 2880 
Q 2244 3097 1772 3097 
Q 1472 3097 1187 3025 
Q 903 2953 641 2809 
L 641 3341 
Q 956 3463 1253 3523 
Q 1550 3584 1831 3584 
Q 2591 3584 2966 3190 
Q 3341 2797 3341 1997 
z
" id="DejaVuSans-61" transform="scale(0.015625)"/>
       <path d="M 628 4666 
L 3578 4666 
L 3578 4134 
L 1259 4134 
L 1259 2753 
L 3481 2753 
L 3481 2222 
L 1259 2222 
L 1259 531 
L 3634 531 
L 3634 0 
L 628 0 
L 628 4666 
z
" id="DejaVuSans-45" transform="scale(0.015625)"/>
       <path d="M 1984 4856 
Q 1566 4138 1362 3434 
Q 1159 2731 1159 2009 
Q 1159 1288 1364 580 
Q 1569 -128 1984 -844 
L 1484 -844 
Q 1016 -109 783 600 
Q 550 1309 550 2009 
Q 550 2706 781 3412 
Q 1013 4119 1484 4856 
L 1984 4856 
z
" id="DejaVuSans-28" transform="scale(0.015625)"/>
       <path d="M 213 4666 
L 850 4666 
L 1831 722 
L 2809 4666 
L 3519 4666 
L 4500 722 
L 5478 4666 
L 6119 4666 
L 4947 0 
L 4153 0 
L 3169 4050 
L 2175 0 
L 1381 0 
L 213 4666 
z
" id="DejaVuSans-57" transform="scale(0.015625)"/>
       <path d="M 513 4856 
L 1013 4856 
Q 1481 4119 1714 3412 
Q 1947 2706 1947 2009 
Q 1947 1309 1714 600 
Q 1481 -109 1013 -844 
L 513 -844 
Q 928 -128 1133 580 
Q 1338 1288 1338 2009 
Q 1338 2731 1133 3434 
Q 928 4138 513 4856 
z
" id="DejaVuSans-29" transform="scale(0.015625)"/>
      </defs>
      <use xlink:href="#DejaVuSans-54"/>
      <use x="44.083984" xlink:href="#DejaVuSans-6f"/>
      <use x="105.265625" xlink:href="#DejaVuSans-74"/>
      <use x="144.474609" xlink:href="#DejaVuSans-61"/>
      <use x="205.753906" xlink:href="#DejaVuSans-6c"/>
      <use x="233.537109" xlink:href="#DejaVuSans-20"/>
      <use x="265.324219" xlink:href="#DejaVuSans-45"/>
      <use x="328.507812" xlink:href="#DejaVuSans-6e"/>
      <use x="391.886719" xlink:href="#DejaVuSans-65"/>
      <use x="453.410156" xlink:href="#DejaVuSans-72"/>
      <use x="492.773438" xlink:href="#DejaVuSans-67"/>
      <use x="556.25" xlink:href="#DejaVuSans-79"/>
      <use x="615.429688" xlink:href="#DejaVuSans-20"/>
      <use x="647.216797" xlink:href="#DejaVuSans-47"/>
      <use x="724.707031" xlink:href="#DejaVuSans-65"/>
      <use x="786.230469" xlink:href="#DejaVuSans-6e"/>
      <use x="849.609375" xlink:href="#DejaVuSans-65"/>
      <use x="911.132812" xlink:href="#DejaVuSans-72"/>
      <use x="952.246094" xlink:href="#DejaVuSans-61"/>
      <use x="1013.525391" xlink:href="#DejaVuSans-74"/>
      <use x="1052.734375" xlink:href="#DejaVuSans-65"/>
      <use x="1114.257812" xlink:href="#DejaVuSans-64"/>
      <use x="1177.734375" xlink:href="#DejaVuSans-20"/>
      <use x="1209.521484" xlink:href="#DejaVuSans-28"/>
      <use x="1248.535156" xlink:href="#DejaVuSans-54"/>
      <use x="1309.619141" xlink:href="#DejaVuSans-57"/>
      <use x="1408.496094" xlink:href="#DejaVuSans-68"/>
      <use x="1471.875" xlink:href="#DejaVuSans-29"/>
     </g>
    </g>
   </g>
   <g id="patch_3">
    <path d="M 57.6 624.78 
L 57.6 84.24 
" style="fill:none;stroke:#000000;stroke-linecap:square;stroke-linejoin:miter;stroke-width:0.8;"/>
   </g>
   <g id="patch_4">
    <path d="M 414.72 624.78 
L 414.72 84.24 
" style="fill:none;stroke:#000000;stroke-linecap:square;stroke-linejoin:miter;stroke-width:0.8;"/>
   </g>
   <g id="patch_5">
    <path d="M 57.6 624.78 
L 414.72 624.78 
" style="fill:none;stroke:#000000;stroke-linecap:square;stroke-linejoin:miter;stroke-width:0.8;"/>
   </g>
   <g id="patch_6">
    <path d="M 57.6 84.24 
L 414.72 84.24 
" style="fill:none;stroke:#000000;stroke-linecap:square;stroke-linejoin:miter;stroke-width:0.8;"/>
   </g>
  </g>
 </g>
 <defs>
  <clipPath id="p6fca1d3733">
   <rect height="540.54" width="357.12" x="57.6" y="84.24"/>
  </clipPath>
 </defs>
</svg>
