<?xml version="1.0" encoding="utf-8" standalone="no"?>
<!DOCTYPE svg PUBLIC "-//W3C//DTD SVG 1.1//EN"
  "http://www.w3.org/Graphics/SVG/1.1/DTD/svg11.dtd">
<svg height="432pt" version="1.1" viewBox="0 0 288 432" width="288pt" xmlns="http://www.w3.org/2000/svg" xmlns:xlink="http://www.w3.org/1999/xlink">
 <metadata>
  <rdf:RDF xmlns:cc="http://creativecommons.org/ns#" xmlns:dc="http://purl.org/dc/elements/1.1/" xmlns:rdf="http://www.w3.org/1999/02/22-rdf-syntax-ns#">
   <cc:Work>
    <dc:type rdf:resource="http://purl.org/dc/dcmitype/StillImage"/>
    <dc:date>2022-02-16T14:47:57.975465</dc:date>
    <dc:format>image/svg+xml</dc:format>
    <dc:creator>
     <cc:Agent>
      <dc:title>Matplotlib v3.4.1, https://matplotlib.org/</dc:title>
     </cc:Agent>
    </dc:creator>
   </cc:Work>
  </rdf:RDF>
 </metadata>
 <defs>
  <style type="text/css">*{stroke-linecap:butt;stroke-linejoin:round;}</style>
 </defs>
 <g id="figure_1">
  <g id="patch_1">
   <path d="M 0 432 
L 288 432 
L 288 0 
L 0 0 
z
" style="fill:#ffffff;"/>
  </g>
  <g id="axes_1">
   <g id="patch_2">
    <path d="M 55.1 389.992 
L 269.265 389.992 
L 269.265 10.8 
L 55.1 10.8 
z
" style="fill:#ffffff;"/>
   </g>
   <g id="PolyCollection_1">
    <path clip-path="url(#paa12ea3a6d)" d="M 55.1 389.992 
L 55.1 389.992 
L 57.263283 389.992 
L 59.426566 389.992 
L 61.589848 389.992 
L 63.753131 389.992 
L 65.916414 389.992 
L 68.079697 389.992 
L 70.24298 389.992 
L 72.406263 389.992 
L 74.569545 389.992 
L 76.732828 389.992 
L 78.896111 389.992 
L 81.059394 389.992 
L 83.222677 389.992 
L 85.38596 389.992 
L 87.549242 389.992 
L 89.712525 389.992 
L 91.875808 389.992 
L 94.039091 389.992 
L 96.202374 389.992 
L 98.365657 389.992 
L 100.528939 389.992 
L 102.692222 389.992 
L 104.855505 389.992 
L 107.018788 389.992 
L 109.182071 389.992 
L 111.345354 389.992 
L 113.508636 389.992 
L 115.671919 389.992 
L 117.835202 389.992 
L 119.998485 389.992 
L 122.161768 389.992 
L 124.325051 389.992 
L 126.488333 389.992 
L 128.651616 389.992 
L 130.814899 389.992 
L 132.978182 389.992 
L 135.141465 389.992 
L 137.304747 389.992 
L 139.46803 389.992 
L 141.631313 389.992 
L 143.794596 389.992 
L 145.957879 389.992 
L 148.121162 389.992 
L 150.284444 389.992 
L 152.447727 389.992 
L 154.61101 389.992 
L 156.774293 389.992 
L 158.937576 389.992 
L 161.100859 389.992 
L 163.264141 389.992 
L 165.427424 389.992 
L 167.590707 389.992 
L 169.75399 389.992 
L 171.917273 389.992 
L 174.080556 389.992 
L 176.243838 389.992 
L 178.407121 389.992 
L 180.570404 389.992 
L 182.733687 389.992 
L 184.89697 389.992 
L 187.060253 389.992 
L 189.223535 389.992 
L 191.386818 389.992 
L 193.550101 389.992 
L 195.713384 389.992 
L 197.876667 389.992 
L 200.039949 389.992 
L 202.203232 389.992 
L 204.366515 389.992 
L 206.529798 389.992 
L 208.693081 389.992 
L 210.856364 389.992 
L 213.019646 389.992 
L 215.182929 389.992 
L 217.346212 389.992 
L 219.509495 389.992 
L 221.672778 389.992 
L 223.836061 389.992 
L 225.999343 389.992 
L 228.162626 389.992 
L 230.325909 389.992 
L 232.489192 389.992 
L 234.652475 389.992 
L 236.815758 389.992 
L 238.97904 389.992 
L 241.142323 389.992 
L 243.305606 389.992 
L 245.468889 389.992 
L 247.632172 389.992 
L 249.795455 389.992 
L 251.958737 389.992 
L 254.12202 389.992 
L 256.285303 389.992 
L 258.448586 389.992 
L 260.611869 389.992 
L 262.775152 389.992 
L 264.938434 389.992 
L 267.101717 389.992 
L 269.265 389.992 
L 269.265 195.296874 
L 269.265 195.296874 
L 267.101717 196.934333 
L 264.938434 198.570065 
L 262.775152 200.204629 
L 260.611869 201.839633 
L 258.448586 203.473045 
L 256.285303 205.103657 
L 254.12202 206.733793 
L 251.958737 208.361325 
L 249.795455 209.986804 
L 247.632172 211.609188 
L 245.468889 213.230958 
L 243.305606 214.849924 
L 241.142323 216.465478 
L 238.97904 218.076731 
L 236.815758 219.685214 
L 234.652475 221.289709 
L 232.489192 222.888956 
L 230.325909 224.48651 
L 228.162626 226.081593 
L 225.999343 227.6716 
L 223.836061 229.258285 
L 221.672778 230.840923 
L 219.509495 232.418056 
L 217.346212 233.990228 
L 215.182929 235.556832 
L 213.019646 237.11553 
L 210.856364 238.664322 
L 208.693081 240.201707 
L 206.529798 241.72982 
L 204.366515 243.248381 
L 202.203232 244.757633 
L 200.039949 246.25752 
L 197.876667 247.750276 
L 195.713384 249.235825 
L 193.550101 250.715 
L 191.386818 252.187367 
L 189.223535 253.652836 
L 187.060253 255.108454 
L 184.89697 256.552013 
L 182.733687 257.983778 
L 180.570404 259.405603 
L 178.407121 260.81663 
L 176.243838 262.220627 
L 174.080556 263.612924 
L 171.917273 264.99054 
L 169.75399 266.349881 
L 167.590707 267.690979 
L 165.427424 269.004434 
L 163.264141 270.281847 
L 161.100859 271.532893 
L 158.937576 272.747656 
L 156.774293 273.941494 
L 154.61101 275.109068 
L 152.447727 276.248316 
L 150.284444 277.349548 
L 148.121162 278.410557 
L 145.957879 279.426327 
L 143.794596 280.408065 
L 141.631313 281.356504 
L 139.46803 282.279222 
L 137.304747 283.178461 
L 135.141465 284.0566 
L 132.978182 284.909771 
L 130.814899 285.729358 
L 128.651616 286.524712 
L 126.488333 287.300186 
L 124.325051 288.060157 
L 122.161768 288.816228 
L 119.998485 289.56952 
L 117.835202 290.310976 
L 115.671919 291.055227 
L 113.508636 291.819684 
L 111.345354 292.617975 
L 109.182071 293.452422 
L 107.018788 294.325255 
L 104.855505 295.24754 
L 102.692222 296.228187 
L 100.528939 297.284087 
L 98.365657 298.448616 
L 96.202374 299.796244 
L 94.039091 301.480989 
L 91.875808 303.600444 
L 89.712525 306.364737 
L 87.549242 309.897618 
L 85.38596 314.157612 
L 83.222677 318.951738 
L 81.059394 324.129529 
L 78.896111 329.578108 
L 76.732828 335.183151 
L 74.569545 340.891334 
L 72.406263 346.591401 
L 70.24298 352.234934 
L 68.079697 357.819188 
L 65.916414 363.341411 
L 63.753131 368.80011 
L 61.589848 374.195284 
L 59.426566 379.525627 
L 57.263283 384.79124 
L 55.1 389.992 
z
" style="fill:#1f77b4;"/>
   </g>
   <g id="PolyCollection_2">
    <path clip-path="url(#paa12ea3a6d)" d="M 55.1 389.992 
L 55.1 389.992 
L 57.263283 384.79124 
L 59.426566 379.525627 
L 61.589848 374.195284 
L 63.753131 368.80011 
L 65.916414 363.341411 
L 68.079697 357.819188 
L 70.24298 352.234934 
L 72.406263 346.591401 
L 74.569545 340.891334 
L 76.732828 335.183151 
L 78.896111 329.578108 
L 81.059394 324.129529 
L 83.222677 318.951738 
L 85.38596 314.157612 
L 87.549242 309.897618 
L 89.712525 306.364737 
L 91.875808 303.600444 
L 94.039091 301.480989 
L 96.202374 299.796244 
L 98.365657 298.448616 
L 100.528939 297.284087 
L 102.692222 296.228187 
L 104.855505 295.24754 
L 107.018788 294.325255 
L 109.182071 293.452422 
L 111.345354 292.617975 
L 113.508636 291.819684 
L 115.671919 291.055227 
L 117.835202 290.310976 
L 119.998485 289.56952 
L 122.161768 288.816228 
L 124.325051 288.060157 
L 126.488333 287.300186 
L 128.651616 286.524712 
L 130.814899 285.729358 
L 132.978182 284.909771 
L 135.141465 284.0566 
L 137.304747 283.178461 
L 139.46803 282.279222 
L 141.631313 281.356504 
L 143.794596 280.408065 
L 145.957879 279.426327 
L 148.121162 278.410557 
L 150.284444 277.349548 
L 152.447727 276.248316 
L 154.61101 275.109068 
L 156.774293 273.941494 
L 158.937576 272.747656 
L 161.100859 271.532893 
L 163.264141 270.281847 
L 165.427424 269.004434 
L 167.590707 267.690979 
L 169.75399 266.349881 
L 171.917273 264.99054 
L 174.080556 263.612924 
L 176.243838 262.220627 
L 178.407121 260.81663 
L 180.570404 259.405603 
L 182.733687 257.983778 
L 184.89697 256.552013 
L 187.060253 255.108454 
L 189.223535 253.652836 
L 191.386818 252.187367 
L 193.550101 250.715 
L 195.713384 249.235825 
L 197.876667 247.750276 
L 200.039949 246.25752 
L 202.203232 244.757633 
L 204.366515 243.248381 
L 206.529798 241.72982 
L 208.693081 240.201707 
L 210.856364 238.664322 
L 213.019646 237.11553 
L 215.182929 235.556832 
L 217.346212 233.990228 
L 219.509495 232.418056 
L 221.672778 230.840923 
L 223.836061 229.258285 
L 225.999343 227.6716 
L 228.162626 226.081593 
L 230.325909 224.48651 
L 232.489192 222.888956 
L 234.652475 221.289709 
L 236.815758 219.685214 
L 238.97904 218.076731 
L 241.142323 216.465478 
L 243.305606 214.849924 
L 245.468889 213.230958 
L 247.632172 211.609188 
L 249.795455 209.986804 
L 251.958737 208.361325 
L 254.12202 206.733793 
L 256.285303 205.103657 
L 258.448586 203.473045 
L 260.611869 201.839633 
L 262.775152 200.204629 
L 264.938434 198.570065 
L 267.101717 196.934333 
L 269.265 195.296874 
L 269.265 28.856762 
L 269.265 28.856762 
L 267.101717 31.18128 
L 264.938434 33.512949 
L 262.775152 35.851132 
L 260.611869 38.196294 
L 258.448586 40.546854 
L 256.285303 42.905183 
L 254.12202 45.270813 
L 251.958737 47.64481 
L 249.795455 50.027338 
L 247.632172 52.416513 
L 245.468889 54.813109 
L 243.305606 57.216749 
L 241.142323 59.630246 
L 238.97904 62.053104 
L 236.815758 64.486479 
L 234.652475 66.929059 
L 232.489192 69.381129 
L 230.325909 71.842011 
L 228.162626 74.313129 
L 225.999343 76.793907 
L 223.836061 79.286936 
L 221.672778 81.790911 
L 219.509495 84.307107 
L 217.346212 86.833692 
L 215.182929 89.373392 
L 213.019646 91.927803 
L 210.856364 94.500463 
L 208.693081 97.094448 
L 206.529798 99.703788 
L 204.366515 102.328246 
L 202.203232 104.970242 
L 200.039949 107.631078 
L 197.876667 110.309087 
L 195.713384 113.007997 
L 193.550101 115.727362 
L 191.386818 118.463859 
L 189.223535 121.21715 
L 187.060253 123.98892 
L 184.89697 126.784226 
L 182.733687 129.603665 
L 180.570404 132.443933 
L 178.407121 135.306994 
L 176.243838 138.190501 
L 174.080556 141.098507 
L 171.917273 144.034389 
L 169.75399 146.999138 
L 167.590707 149.997192 
L 165.427424 153.034304 
L 163.264141 156.118281 
L 161.100859 159.245187 
L 158.937576 162.420425 
L 156.774293 165.638413 
L 154.61101 168.906063 
L 152.447727 172.223607 
L 150.284444 175.610822 
L 148.121162 179.064399 
L 145.957879 182.587603 
L 143.794596 186.171041 
L 141.631313 189.813458 
L 139.46803 193.508667 
L 137.304747 197.257533 
L 135.141465 201.072997 
L 132.978182 204.951854 
L 130.814899 208.908761 
L 128.651616 212.947027 
L 126.488333 217.074295 
L 124.325051 221.274173 
L 122.161768 225.54839 
L 119.998485 229.900336 
L 117.835202 234.355422 
L 115.671919 238.897878 
L 113.508636 243.541342 
L 111.345354 248.267228 
L 109.182071 253.087205 
L 107.018788 258.007291 
L 104.855505 263.057265 
L 102.692222 268.25956 
L 100.528939 273.606059 
L 98.365657 279.113867 
L 96.202374 284.773159 
L 94.039091 290.479355 
L 91.875808 296.161255 
L 89.712525 301.746711 
L 87.549242 307.17307 
L 85.38596 312.511183 
L 83.222677 317.877911 
L 81.059394 323.377223 
L 78.896111 329.02875 
L 76.732828 334.768128 
L 74.569545 340.566699 
L 72.406263 346.334227 
L 70.24298 352.029716 
L 68.079697 357.655016 
L 65.916414 363.211979 
L 63.753131 368.701612 
L 61.589848 374.123916 
L 59.426566 379.479768 
L 57.263283 384.769102 
L 55.1 389.992 
z
" style="fill:#ff7f0e;"/>
   </g>
   <g id="matplotlib.axis_1">
    <g id="xtick_1">
     <g id="line2d_1">
      <defs>
       <path d="M 0 0 
L 0 3.5 
" id="mb57d136a48" style="stroke:#000000;stroke-width:0.8;"/>
      </defs>
      <g>
       <use style="stroke:#000000;stroke-width:0.8;" x="55.1" xlink:href="#mb57d136a48" y="389.992"/>
      </g>
     </g>
     <g id="text_1">
      <!-- 0.0 -->
      <g transform="translate(47.148438 404.590438)scale(0.1 -0.1)">
       <defs>
        <path d="M 2034 4250 
Q 1547 4250 1301 3770 
Q 1056 3291 1056 2328 
Q 1056 1369 1301 889 
Q 1547 409 2034 409 
Q 2525 409 2770 889 
Q 3016 1369 3016 2328 
Q 3016 3291 2770 3770 
Q 2525 4250 2034 4250 
z
M 2034 4750 
Q 2819 4750 3233 4129 
Q 3647 3509 3647 2328 
Q 3647 1150 3233 529 
Q 2819 -91 2034 -91 
Q 1250 -91 836 529 
Q 422 1150 422 2328 
Q 422 3509 836 4129 
Q 1250 4750 2034 4750 
z
" id="DejaVuSans-30" transform="scale(0.015625)"/>
        <path d="M 684 794 
L 1344 794 
L 1344 0 
L 684 0 
L 684 794 
z
" id="DejaVuSans-2e" transform="scale(0.015625)"/>
       </defs>
       <use xlink:href="#DejaVuSans-30"/>
       <use x="63.623047" xlink:href="#DejaVuSans-2e"/>
       <use x="95.410156" xlink:href="#DejaVuSans-30"/>
      </g>
     </g>
    </g>
    <g id="xtick_2">
     <g id="line2d_2">
      <g>
       <use style="stroke:#000000;stroke-width:0.8;" x="108.64125" xlink:href="#mb57d136a48" y="389.992"/>
      </g>
     </g>
     <g id="text_2">
      <!-- 0.5 -->
      <g transform="translate(100.689688 404.590438)scale(0.1 -0.1)">
       <defs>
        <path d="M 691 4666 
L 3169 4666 
L 3169 4134 
L 1269 4134 
L 1269 2991 
Q 1406 3038 1543 3061 
Q 1681 3084 1819 3084 
Q 2600 3084 3056 2656 
Q 3513 2228 3513 1497 
Q 3513 744 3044 326 
Q 2575 -91 1722 -91 
Q 1428 -91 1123 -41 
Q 819 9 494 109 
L 494 744 
Q 775 591 1075 516 
Q 1375 441 1709 441 
Q 2250 441 2565 725 
Q 2881 1009 2881 1497 
Q 2881 1984 2565 2268 
Q 2250 2553 1709 2553 
Q 1456 2553 1204 2497 
Q 953 2441 691 2322 
L 691 4666 
z
" id="DejaVuSans-35" transform="scale(0.015625)"/>
       </defs>
       <use xlink:href="#DejaVuSans-30"/>
       <use x="63.623047" xlink:href="#DejaVuSans-2e"/>
       <use x="95.410156" xlink:href="#DejaVuSans-35"/>
      </g>
     </g>
    </g>
    <g id="xtick_3">
     <g id="line2d_3">
      <g>
       <use style="stroke:#000000;stroke-width:0.8;" x="162.1825" xlink:href="#mb57d136a48" y="389.992"/>
      </g>
     </g>
     <g id="text_3">
      <!-- 1.0 -->
      <g transform="translate(154.230938 404.590438)scale(0.1 -0.1)">
       <defs>
        <path d="M 794 531 
L 1825 531 
L 1825 4091 
L 703 3866 
L 703 4441 
L 1819 4666 
L 2450 4666 
L 2450 531 
L 3481 531 
L 3481 0 
L 794 0 
L 794 531 
z
" id="DejaVuSans-31" transform="scale(0.015625)"/>
       </defs>
       <use xlink:href="#DejaVuSans-31"/>
       <use x="63.623047" xlink:href="#DejaVuSans-2e"/>
       <use x="95.410156" xlink:href="#DejaVuSans-30"/>
      </g>
     </g>
    </g>
    <g id="xtick_4">
     <g id="line2d_4">
      <g>
       <use style="stroke:#000000;stroke-width:0.8;" x="215.72375" xlink:href="#mb57d136a48" y="389.992"/>
      </g>
     </g>
     <g id="text_4">
      <!-- 1.5 -->
      <g transform="translate(207.772188 404.590438)scale(0.1 -0.1)">
       <use xlink:href="#DejaVuSans-31"/>
       <use x="63.623047" xlink:href="#DejaVuSans-2e"/>
       <use x="95.410156" xlink:href="#DejaVuSans-35"/>
      </g>
     </g>
    </g>
    <g id="xtick_5">
     <g id="line2d_5">
      <g>
       <use style="stroke:#000000;stroke-width:0.8;" x="269.265" xlink:href="#mb57d136a48" y="389.992"/>
      </g>
     </g>
     <g id="text_5">
      <!-- 2.0 -->
      <g transform="translate(261.313437 404.590438)scale(0.1 -0.1)">
       <defs>
        <path d="M 1228 531 
L 3431 531 
L 3431 0 
L 469 0 
L 469 531 
Q 828 903 1448 1529 
Q 2069 2156 2228 2338 
Q 2531 2678 2651 2914 
Q 2772 3150 2772 3378 
Q 2772 3750 2511 3984 
Q 2250 4219 1831 4219 
Q 1534 4219 1204 4116 
Q 875 4013 500 3803 
L 500 4441 
Q 881 4594 1212 4672 
Q 1544 4750 1819 4750 
Q 2544 4750 2975 4387 
Q 3406 4025 3406 3419 
Q 3406 3131 3298 2873 
Q 3191 2616 2906 2266 
Q 2828 2175 2409 1742 
Q 1991 1309 1228 531 
z
" id="DejaVuSans-32" transform="scale(0.015625)"/>
       </defs>
       <use xlink:href="#DejaVuSans-32"/>
       <use x="63.623047" xlink:href="#DejaVuSans-2e"/>
       <use x="95.410156" xlink:href="#DejaVuSans-30"/>
      </g>
     </g>
    </g>
    <g id="text_6">
     <!-- C$_C$ -->
     <g transform="translate(156.0325 418.268563)scale(0.1 -0.1)">
      <defs>
       <path d="M 4122 4306 
L 4122 3641 
Q 3803 3938 3442 4084 
Q 3081 4231 2675 4231 
Q 1875 4231 1450 3742 
Q 1025 3253 1025 2328 
Q 1025 1406 1450 917 
Q 1875 428 2675 428 
Q 3081 428 3442 575 
Q 3803 722 4122 1019 
L 4122 359 
Q 3791 134 3420 21 
Q 3050 -91 2638 -91 
Q 1578 -91 968 557 
Q 359 1206 359 2328 
Q 359 3453 968 4101 
Q 1578 4750 2638 4750 
Q 3056 4750 3426 4639 
Q 3797 4528 4122 4306 
z
" id="DejaVuSans-43" transform="scale(0.015625)"/>
       <path d="M 4447 4306 
L 4319 3641 
Q 4019 3944 3683 4091 
Q 3347 4238 2956 4238 
Q 2422 4238 2017 3981 
Q 1613 3725 1319 3200 
Q 1131 2863 1032 2486 
Q 934 2109 934 1728 
Q 934 1091 1264 756 
Q 1594 422 2222 422 
Q 2656 422 3056 561 
Q 3456 700 3834 978 
L 3688 231 
Q 3316 72 2936 -9 
Q 2556 -91 2175 -91 
Q 1278 -91 773 396 
Q 269 884 269 1753 
Q 269 2309 461 2846 
Q 653 3384 1013 3828 
Q 1394 4300 1883 4525 
Q 2372 4750 3022 4750 
Q 3422 4750 3780 4639 
Q 4138 4528 4447 4306 
z
" id="DejaVuSans-Oblique-43" transform="scale(0.015625)"/>
      </defs>
      <use transform="translate(0 0.78125)" xlink:href="#DejaVuSans-43"/>
      <use transform="translate(70.78125 -15.625)scale(0.7)" xlink:href="#DejaVuSans-Oblique-43"/>
     </g>
    </g>
   </g>
   <g id="matplotlib.axis_2">
    <g id="ytick_1">
     <g id="line2d_6">
      <defs>
       <path d="M 0 0 
L -3.5 0 
" id="m756ab1b428" style="stroke:#000000;stroke-width:0.8;"/>
      </defs>
      <g>
       <use style="stroke:#000000;stroke-width:0.8;" x="55.1" xlink:href="#m756ab1b428" y="389.992"/>
      </g>
     </g>
     <g id="text_7">
      <!-- 0.0 -->
      <g transform="translate(32.196875 393.791219)scale(0.1 -0.1)">
       <use xlink:href="#DejaVuSans-30"/>
       <use x="63.623047" xlink:href="#DejaVuSans-2e"/>
       <use x="95.410156" xlink:href="#DejaVuSans-30"/>
      </g>
     </g>
    </g>
    <g id="ytick_2">
     <g id="line2d_7">
      <g>
       <use style="stroke:#000000;stroke-width:0.8;" x="55.1" xlink:href="#m756ab1b428" y="338.489293"/>
      </g>
     </g>
     <g id="text_8">
      <!-- 2.5 -->
      <g transform="translate(32.196875 342.288512)scale(0.1 -0.1)">
       <use xlink:href="#DejaVuSans-32"/>
       <use x="63.623047" xlink:href="#DejaVuSans-2e"/>
       <use x="95.410156" xlink:href="#DejaVuSans-35"/>
      </g>
     </g>
    </g>
    <g id="ytick_3">
     <g id="line2d_8">
      <g>
       <use style="stroke:#000000;stroke-width:0.8;" x="55.1" xlink:href="#m756ab1b428" y="286.986587"/>
      </g>
     </g>
     <g id="text_9">
      <!-- 5.0 -->
      <g transform="translate(32.196875 290.785805)scale(0.1 -0.1)">
       <use xlink:href="#DejaVuSans-35"/>
       <use x="63.623047" xlink:href="#DejaVuSans-2e"/>
       <use x="95.410156" xlink:href="#DejaVuSans-30"/>
      </g>
     </g>
    </g>
    <g id="ytick_4">
     <g id="line2d_9">
      <g>
       <use style="stroke:#000000;stroke-width:0.8;" x="55.1" xlink:href="#m756ab1b428" y="235.48388"/>
      </g>
     </g>
     <g id="text_10">
      <!-- 7.5 -->
      <g transform="translate(32.196875 239.283099)scale(0.1 -0.1)">
       <defs>
        <path d="M 525 4666 
L 3525 4666 
L 3525 4397 
L 1831 0 
L 1172 0 
L 2766 4134 
L 525 4134 
L 525 4666 
z
" id="DejaVuSans-37" transform="scale(0.015625)"/>
       </defs>
       <use xlink:href="#DejaVuSans-37"/>
       <use x="63.623047" xlink:href="#DejaVuSans-2e"/>
       <use x="95.410156" xlink:href="#DejaVuSans-35"/>
      </g>
     </g>
    </g>
    <g id="ytick_5">
     <g id="line2d_10">
      <g>
       <use style="stroke:#000000;stroke-width:0.8;" x="55.1" xlink:href="#m756ab1b428" y="183.981173"/>
      </g>
     </g>
     <g id="text_11">
      <!-- 10.0 -->
      <g transform="translate(25.834375 187.780392)scale(0.1 -0.1)">
       <use xlink:href="#DejaVuSans-31"/>
       <use x="63.623047" xlink:href="#DejaVuSans-30"/>
       <use x="127.246094" xlink:href="#DejaVuSans-2e"/>
       <use x="159.033203" xlink:href="#DejaVuSans-30"/>
      </g>
     </g>
    </g>
    <g id="ytick_6">
     <g id="line2d_11">
      <g>
       <use style="stroke:#000000;stroke-width:0.8;" x="55.1" xlink:href="#m756ab1b428" y="132.478467"/>
      </g>
     </g>
     <g id="text_12">
      <!-- 12.5 -->
      <g transform="translate(25.834375 136.277686)scale(0.1 -0.1)">
       <use xlink:href="#DejaVuSans-31"/>
       <use x="63.623047" xlink:href="#DejaVuSans-32"/>
       <use x="127.246094" xlink:href="#DejaVuSans-2e"/>
       <use x="159.033203" xlink:href="#DejaVuSans-35"/>
      </g>
     </g>
    </g>
    <g id="ytick_7">
     <g id="line2d_12">
      <g>
       <use style="stroke:#000000;stroke-width:0.8;" x="55.1" xlink:href="#m756ab1b428" y="80.97576"/>
      </g>
     </g>
     <g id="text_13">
      <!-- 15.0 -->
      <g transform="translate(25.834375 84.774979)scale(0.1 -0.1)">
       <use xlink:href="#DejaVuSans-31"/>
       <use x="63.623047" xlink:href="#DejaVuSans-35"/>
       <use x="127.246094" xlink:href="#DejaVuSans-2e"/>
       <use x="159.033203" xlink:href="#DejaVuSans-30"/>
      </g>
     </g>
    </g>
    <g id="ytick_8">
     <g id="line2d_13">
      <g>
       <use style="stroke:#000000;stroke-width:0.8;" x="55.1" xlink:href="#m756ab1b428" y="29.473053"/>
      </g>
     </g>
     <g id="text_14">
      <!-- 17.5 -->
      <g transform="translate(25.834375 33.272272)scale(0.1 -0.1)">
       <use xlink:href="#DejaVuSans-31"/>
       <use x="63.623047" xlink:href="#DejaVuSans-37"/>
       <use x="127.246094" xlink:href="#DejaVuSans-2e"/>
       <use x="159.033203" xlink:href="#DejaVuSans-35"/>
      </g>
     </g>
    </g>
    <g id="text_15">
     <!-- CO$_2$e Emissions Savings (Mt) -->
     <g transform="translate(19.734375 272.646)rotate(-90)scale(0.1 -0.1)">
      <defs>
       <path d="M 2522 4238 
Q 1834 4238 1429 3725 
Q 1025 3213 1025 2328 
Q 1025 1447 1429 934 
Q 1834 422 2522 422 
Q 3209 422 3611 934 
Q 4013 1447 4013 2328 
Q 4013 3213 3611 3725 
Q 3209 4238 2522 4238 
z
M 2522 4750 
Q 3503 4750 4090 4092 
Q 4678 3434 4678 2328 
Q 4678 1225 4090 567 
Q 3503 -91 2522 -91 
Q 1538 -91 948 565 
Q 359 1222 359 2328 
Q 359 3434 948 4092 
Q 1538 4750 2522 4750 
z
" id="DejaVuSans-4f" transform="scale(0.015625)"/>
       <path d="M 3597 1894 
L 3597 1613 
L 953 1613 
Q 991 1019 1311 708 
Q 1631 397 2203 397 
Q 2534 397 2845 478 
Q 3156 559 3463 722 
L 3463 178 
Q 3153 47 2828 -22 
Q 2503 -91 2169 -91 
Q 1331 -91 842 396 
Q 353 884 353 1716 
Q 353 2575 817 3079 
Q 1281 3584 2069 3584 
Q 2775 3584 3186 3129 
Q 3597 2675 3597 1894 
z
M 3022 2063 
Q 3016 2534 2758 2815 
Q 2500 3097 2075 3097 
Q 1594 3097 1305 2825 
Q 1016 2553 972 2059 
L 3022 2063 
z
" id="DejaVuSans-65" transform="scale(0.015625)"/>
       <path id="DejaVuSans-20" transform="scale(0.015625)"/>
       <path d="M 628 4666 
L 3578 4666 
L 3578 4134 
L 1259 4134 
L 1259 2753 
L 3481 2753 
L 3481 2222 
L 1259 2222 
L 1259 531 
L 3634 531 
L 3634 0 
L 628 0 
L 628 4666 
z
" id="DejaVuSans-45" transform="scale(0.015625)"/>
       <path d="M 3328 2828 
Q 3544 3216 3844 3400 
Q 4144 3584 4550 3584 
Q 5097 3584 5394 3201 
Q 5691 2819 5691 2113 
L 5691 0 
L 5113 0 
L 5113 2094 
Q 5113 2597 4934 2840 
Q 4756 3084 4391 3084 
Q 3944 3084 3684 2787 
Q 3425 2491 3425 1978 
L 3425 0 
L 2847 0 
L 2847 2094 
Q 2847 2600 2669 2842 
Q 2491 3084 2119 3084 
Q 1678 3084 1418 2786 
Q 1159 2488 1159 1978 
L 1159 0 
L 581 0 
L 581 3500 
L 1159 3500 
L 1159 2956 
Q 1356 3278 1631 3431 
Q 1906 3584 2284 3584 
Q 2666 3584 2933 3390 
Q 3200 3197 3328 2828 
z
" id="DejaVuSans-6d" transform="scale(0.015625)"/>
       <path d="M 603 3500 
L 1178 3500 
L 1178 0 
L 603 0 
L 603 3500 
z
M 603 4863 
L 1178 4863 
L 1178 4134 
L 603 4134 
L 603 4863 
z
" id="DejaVuSans-69" transform="scale(0.015625)"/>
       <path d="M 2834 3397 
L 2834 2853 
Q 2591 2978 2328 3040 
Q 2066 3103 1784 3103 
Q 1356 3103 1142 2972 
Q 928 2841 928 2578 
Q 928 2378 1081 2264 
Q 1234 2150 1697 2047 
L 1894 2003 
Q 2506 1872 2764 1633 
Q 3022 1394 3022 966 
Q 3022 478 2636 193 
Q 2250 -91 1575 -91 
Q 1294 -91 989 -36 
Q 684 19 347 128 
L 347 722 
Q 666 556 975 473 
Q 1284 391 1588 391 
Q 1994 391 2212 530 
Q 2431 669 2431 922 
Q 2431 1156 2273 1281 
Q 2116 1406 1581 1522 
L 1381 1569 
Q 847 1681 609 1914 
Q 372 2147 372 2553 
Q 372 3047 722 3315 
Q 1072 3584 1716 3584 
Q 2034 3584 2315 3537 
Q 2597 3491 2834 3397 
z
" id="DejaVuSans-73" transform="scale(0.015625)"/>
       <path d="M 1959 3097 
Q 1497 3097 1228 2736 
Q 959 2375 959 1747 
Q 959 1119 1226 758 
Q 1494 397 1959 397 
Q 2419 397 2687 759 
Q 2956 1122 2956 1747 
Q 2956 2369 2687 2733 
Q 2419 3097 1959 3097 
z
M 1959 3584 
Q 2709 3584 3137 3096 
Q 3566 2609 3566 1747 
Q 3566 888 3137 398 
Q 2709 -91 1959 -91 
Q 1206 -91 779 398 
Q 353 888 353 1747 
Q 353 2609 779 3096 
Q 1206 3584 1959 3584 
z
" id="DejaVuSans-6f" transform="scale(0.015625)"/>
       <path d="M 3513 2113 
L 3513 0 
L 2938 0 
L 2938 2094 
Q 2938 2591 2744 2837 
Q 2550 3084 2163 3084 
Q 1697 3084 1428 2787 
Q 1159 2491 1159 1978 
L 1159 0 
L 581 0 
L 581 3500 
L 1159 3500 
L 1159 2956 
Q 1366 3272 1645 3428 
Q 1925 3584 2291 3584 
Q 2894 3584 3203 3211 
Q 3513 2838 3513 2113 
z
" id="DejaVuSans-6e" transform="scale(0.015625)"/>
       <path d="M 3425 4513 
L 3425 3897 
Q 3066 4069 2747 4153 
Q 2428 4238 2131 4238 
Q 1616 4238 1336 4038 
Q 1056 3838 1056 3469 
Q 1056 3159 1242 3001 
Q 1428 2844 1947 2747 
L 2328 2669 
Q 3034 2534 3370 2195 
Q 3706 1856 3706 1288 
Q 3706 609 3251 259 
Q 2797 -91 1919 -91 
Q 1588 -91 1214 -16 
Q 841 59 441 206 
L 441 856 
Q 825 641 1194 531 
Q 1563 422 1919 422 
Q 2459 422 2753 634 
Q 3047 847 3047 1241 
Q 3047 1584 2836 1778 
Q 2625 1972 2144 2069 
L 1759 2144 
Q 1053 2284 737 2584 
Q 422 2884 422 3419 
Q 422 4038 858 4394 
Q 1294 4750 2059 4750 
Q 2388 4750 2728 4690 
Q 3069 4631 3425 4513 
z
" id="DejaVuSans-53" transform="scale(0.015625)"/>
       <path d="M 2194 1759 
Q 1497 1759 1228 1600 
Q 959 1441 959 1056 
Q 959 750 1161 570 
Q 1363 391 1709 391 
Q 2188 391 2477 730 
Q 2766 1069 2766 1631 
L 2766 1759 
L 2194 1759 
z
M 3341 1997 
L 3341 0 
L 2766 0 
L 2766 531 
Q 2569 213 2275 61 
Q 1981 -91 1556 -91 
Q 1019 -91 701 211 
Q 384 513 384 1019 
Q 384 1609 779 1909 
Q 1175 2209 1959 2209 
L 2766 2209 
L 2766 2266 
Q 2766 2663 2505 2880 
Q 2244 3097 1772 3097 
Q 1472 3097 1187 3025 
Q 903 2953 641 2809 
L 641 3341 
Q 956 3463 1253 3523 
Q 1550 3584 1831 3584 
Q 2591 3584 2966 3190 
Q 3341 2797 3341 1997 
z
" id="DejaVuSans-61" transform="scale(0.015625)"/>
       <path d="M 191 3500 
L 800 3500 
L 1894 563 
L 2988 3500 
L 3597 3500 
L 2284 0 
L 1503 0 
L 191 3500 
z
" id="DejaVuSans-76" transform="scale(0.015625)"/>
       <path d="M 2906 1791 
Q 2906 2416 2648 2759 
Q 2391 3103 1925 3103 
Q 1463 3103 1205 2759 
Q 947 2416 947 1791 
Q 947 1169 1205 825 
Q 1463 481 1925 481 
Q 2391 481 2648 825 
Q 2906 1169 2906 1791 
z
M 3481 434 
Q 3481 -459 3084 -895 
Q 2688 -1331 1869 -1331 
Q 1566 -1331 1297 -1286 
Q 1028 -1241 775 -1147 
L 775 -588 
Q 1028 -725 1275 -790 
Q 1522 -856 1778 -856 
Q 2344 -856 2625 -561 
Q 2906 -266 2906 331 
L 2906 616 
Q 2728 306 2450 153 
Q 2172 0 1784 0 
Q 1141 0 747 490 
Q 353 981 353 1791 
Q 353 2603 747 3093 
Q 1141 3584 1784 3584 
Q 2172 3584 2450 3431 
Q 2728 3278 2906 2969 
L 2906 3500 
L 3481 3500 
L 3481 434 
z
" id="DejaVuSans-67" transform="scale(0.015625)"/>
       <path d="M 1984 4856 
Q 1566 4138 1362 3434 
Q 1159 2731 1159 2009 
Q 1159 1288 1364 580 
Q 1569 -128 1984 -844 
L 1484 -844 
Q 1016 -109 783 600 
Q 550 1309 550 2009 
Q 550 2706 781 3412 
Q 1013 4119 1484 4856 
L 1984 4856 
z
" id="DejaVuSans-28" transform="scale(0.015625)"/>
       <path d="M 628 4666 
L 1569 4666 
L 2759 1491 
L 3956 4666 
L 4897 4666 
L 4897 0 
L 4281 0 
L 4281 4097 
L 3078 897 
L 2444 897 
L 1241 4097 
L 1241 0 
L 628 0 
L 628 4666 
z
" id="DejaVuSans-4d" transform="scale(0.015625)"/>
       <path d="M 1172 4494 
L 1172 3500 
L 2356 3500 
L 2356 3053 
L 1172 3053 
L 1172 1153 
Q 1172 725 1289 603 
Q 1406 481 1766 481 
L 2356 481 
L 2356 0 
L 1766 0 
Q 1100 0 847 248 
Q 594 497 594 1153 
L 594 3053 
L 172 3053 
L 172 3500 
L 594 3500 
L 594 4494 
L 1172 4494 
z
" id="DejaVuSans-74" transform="scale(0.015625)"/>
       <path d="M 513 4856 
L 1013 4856 
Q 1481 4119 1714 3412 
Q 1947 2706 1947 2009 
Q 1947 1309 1714 600 
Q 1481 -109 1013 -844 
L 513 -844 
Q 928 -128 1133 580 
Q 1338 1288 1338 2009 
Q 1338 2731 1133 3434 
Q 928 4138 513 4856 
z
" id="DejaVuSans-29" transform="scale(0.015625)"/>
      </defs>
      <use transform="translate(0 0.015625)" xlink:href="#DejaVuSans-43"/>
      <use transform="translate(69.824219 0.015625)" xlink:href="#DejaVuSans-4f"/>
      <use transform="translate(149.492188 -16.390625)scale(0.7)" xlink:href="#DejaVuSans-32"/>
      <use transform="translate(196.762695 0.015625)" xlink:href="#DejaVuSans-65"/>
      <use transform="translate(258.286133 0.015625)" xlink:href="#DejaVuSans-20"/>
      <use transform="translate(290.073242 0.015625)" xlink:href="#DejaVuSans-45"/>
      <use transform="translate(353.256836 0.015625)" xlink:href="#DejaVuSans-6d"/>
      <use transform="translate(450.668945 0.015625)" xlink:href="#DejaVuSans-69"/>
      <use transform="translate(478.452148 0.015625)" xlink:href="#DejaVuSans-73"/>
      <use transform="translate(530.551758 0.015625)" xlink:href="#DejaVuSans-73"/>
      <use transform="translate(582.651367 0.015625)" xlink:href="#DejaVuSans-69"/>
      <use transform="translate(610.43457 0.015625)" xlink:href="#DejaVuSans-6f"/>
      <use transform="translate(671.616211 0.015625)" xlink:href="#DejaVuSans-6e"/>
      <use transform="translate(734.995117 0.015625)" xlink:href="#DejaVuSans-73"/>
      <use transform="translate(787.094727 0.015625)" xlink:href="#DejaVuSans-20"/>
      <use transform="translate(818.881836 0.015625)" xlink:href="#DejaVuSans-53"/>
      <use transform="translate(882.358398 0.015625)" xlink:href="#DejaVuSans-61"/>
      <use transform="translate(943.637695 0.015625)" xlink:href="#DejaVuSans-76"/>
      <use transform="translate(1002.817383 0.015625)" xlink:href="#DejaVuSans-69"/>
      <use transform="translate(1030.600586 0.015625)" xlink:href="#DejaVuSans-6e"/>
      <use transform="translate(1093.979492 0.015625)" xlink:href="#DejaVuSans-67"/>
      <use transform="translate(1157.456055 0.015625)" xlink:href="#DejaVuSans-73"/>
      <use transform="translate(1209.555664 0.015625)" xlink:href="#DejaVuSans-20"/>
      <use transform="translate(1241.342773 0.015625)" xlink:href="#DejaVuSans-28"/>
      <use transform="translate(1280.356445 0.015625)" xlink:href="#DejaVuSans-4d"/>
      <use transform="translate(1366.635742 0.015625)" xlink:href="#DejaVuSans-74"/>
      <use transform="translate(1405.844727 0.015625)" xlink:href="#DejaVuSans-29"/>
     </g>
    </g>
   </g>
   <g id="patch_3">
    <path d="M 55.1 389.992 
L 55.1 10.8 
" style="fill:none;stroke:#000000;stroke-linecap:square;stroke-linejoin:miter;stroke-width:0.8;"/>
   </g>
   <g id="patch_4">
    <path d="M 269.265 389.992 
L 269.265 10.8 
" style="fill:none;stroke:#000000;stroke-linecap:square;stroke-linejoin:miter;stroke-width:0.8;"/>
   </g>
   <g id="patch_5">
    <path d="M 55.1 389.992 
L 269.265 389.992 
" style="fill:none;stroke:#000000;stroke-linecap:square;stroke-linejoin:miter;stroke-width:0.8;"/>
   </g>
   <g id="patch_6">
    <path d="M 55.1 10.8 
L 269.265 10.8 
" style="fill:none;stroke:#000000;stroke-linecap:square;stroke-linejoin:miter;stroke-width:0.8;"/>
   </g>
  </g>
 </g>
 <defs>
  <clipPath id="paa12ea3a6d">
   <rect height="379.192" width="214.165" x="55.1" y="10.8"/>
  </clipPath>
 </defs>
</svg>
