<?xml version="1.0" encoding="utf-8" standalone="no"?>
<!DOCTYPE svg PUBLIC "-//W3C//DTD SVG 1.1//EN"
  "http://www.w3.org/Graphics/SVG/1.1/DTD/svg11.dtd">
<svg height="432pt" version="1.1" viewBox="0 0 288 432" width="288pt" xmlns="http://www.w3.org/2000/svg" xmlns:xlink="http://www.w3.org/1999/xlink">
 <metadata>
  <rdf:RDF xmlns:cc="http://creativecommons.org/ns#" xmlns:dc="http://purl.org/dc/elements/1.1/" xmlns:rdf="http://www.w3.org/1999/02/22-rdf-syntax-ns#">
   <cc:Work>
    <dc:type rdf:resource="http://purl.org/dc/dcmitype/StillImage"/>
    <dc:date>2022-02-16T12:43:55.653934</dc:date>
    <dc:format>image/svg+xml</dc:format>
    <dc:creator>
     <cc:Agent>
      <dc:title>Matplotlib v3.4.1, https://matplotlib.org/</dc:title>
     </cc:Agent>
    </dc:creator>
   </cc:Work>
  </rdf:RDF>
 </metadata>
 <defs>
  <style type="text/css">*{stroke-linecap:butt;stroke-linejoin:round;}</style>
 </defs>
 <g id="figure_1">
  <g id="patch_1">
   <path d="M 0 432 
L 288 432 
L 288 0 
L 0 0 
z
" style="fill:#ffffff;"/>
  </g>
  <g id="axes_1">
   <g id="patch_2">
    <path d="M 55.1 389.992 
L 269.265 389.992 
L 269.265 10.8 
L 55.1 10.8 
z
" style="fill:#ffffff;"/>
   </g>
   <g id="PolyCollection_1">
    <path clip-path="url(#p60a4ac5237)" d="M 55.1 389.992 
L 55.1 389.992 
L 57.263283 389.992 
L 59.426566 389.992 
L 61.589848 389.992 
L 63.753131 389.992 
L 65.916414 389.992 
L 68.079697 389.992 
L 70.24298 389.992 
L 72.406263 389.992 
L 74.569545 389.992 
L 76.732828 389.992 
L 78.896111 389.992 
L 81.059394 389.992 
L 83.222677 389.992 
L 85.38596 389.992 
L 87.549242 389.992 
L 89.712525 389.992 
L 91.875808 389.992 
L 94.039091 389.992 
L 96.202374 389.992 
L 98.365657 389.992 
L 100.528939 389.992 
L 102.692222 389.992 
L 104.855505 389.992 
L 107.018788 389.992 
L 109.182071 389.992 
L 111.345354 389.992 
L 113.508636 389.992 
L 115.671919 389.992 
L 117.835202 389.992 
L 119.998485 389.992 
L 122.161768 389.992 
L 124.325051 389.992 
L 126.488333 389.992 
L 128.651616 389.992 
L 130.814899 389.992 
L 132.978182 389.992 
L 135.141465 389.992 
L 137.304747 389.992 
L 139.46803 389.992 
L 141.631313 389.992 
L 143.794596 389.992 
L 145.957879 389.992 
L 148.121162 389.992 
L 150.284444 389.992 
L 152.447727 389.992 
L 154.61101 389.992 
L 156.774293 389.992 
L 158.937576 389.992 
L 161.100859 389.992 
L 163.264141 389.992 
L 165.427424 389.992 
L 167.590707 389.992 
L 169.75399 389.992 
L 171.917273 389.992 
L 174.080556 389.992 
L 176.243838 389.992 
L 178.407121 389.992 
L 180.570404 389.992 
L 182.733687 389.992 
L 184.89697 389.992 
L 187.060253 389.992 
L 189.223535 389.992 
L 191.386818 389.992 
L 193.550101 389.992 
L 195.713384 389.992 
L 197.876667 389.992 
L 200.039949 389.992 
L 202.203232 389.992 
L 204.366515 389.992 
L 206.529798 389.992 
L 208.693081 389.992 
L 210.856364 389.992 
L 213.019646 389.992 
L 215.182929 389.992 
L 217.346212 389.992 
L 219.509495 389.992 
L 221.672778 389.992 
L 223.836061 389.992 
L 225.999343 389.992 
L 228.162626 389.992 
L 230.325909 389.992 
L 232.489192 389.992 
L 234.652475 389.992 
L 236.815758 389.992 
L 238.97904 389.992 
L 241.142323 389.992 
L 243.305606 389.992 
L 245.468889 389.992 
L 247.632172 389.992 
L 249.795455 389.992 
L 251.958737 389.992 
L 254.12202 389.992 
L 256.285303 389.992 
L 258.448586 389.992 
L 260.611869 389.992 
L 262.775152 389.992 
L 264.938434 389.992 
L 267.101717 389.992 
L 269.265 389.992 
L 269.265 218.595209 
L 269.265 218.595209 
L 267.101717 220.036721 
L 264.938434 221.476712 
L 262.775152 222.915674 
L 260.611869 224.355024 
L 258.448586 225.792972 
L 256.285303 227.228456 
L 254.12202 228.663521 
L 251.958737 230.096293 
L 249.795455 231.527258 
L 247.632172 232.955498 
L 245.468889 234.383198 
L 243.305606 235.808429 
L 241.142323 237.230656 
L 238.97904 238.649098 
L 236.815758 240.0651 
L 234.652475 241.477592 
L 232.489192 242.885464 
L 230.325909 244.291846 
L 228.162626 245.696052 
L 225.999343 247.09579 
L 223.836061 248.492603 
L 221.672778 249.885853 
L 219.509495 251.274257 
L 217.346212 252.658294 
L 215.182929 254.03743 
L 213.019646 255.409604 
L 210.856364 256.77306 
L 208.693081 258.126472 
L 206.529798 259.471722 
L 204.366515 260.808563 
L 202.203232 262.13721 
L 200.039949 263.457612 
L 197.876667 264.771736 
L 195.713384 266.079516 
L 193.550101 267.381684 
L 191.386818 268.677859 
L 189.223535 269.967962 
L 187.060253 271.249392 
L 184.89697 272.520207 
L 182.733687 273.780638 
L 180.570404 275.03232 
L 178.407121 276.274496 
L 176.243838 277.510482 
L 174.080556 278.736169 
L 171.917273 279.948931 
L 169.75399 281.145606 
L 167.590707 282.32622 
L 165.427424 283.482499 
L 163.264141 284.607051 
L 161.100859 285.708389 
L 158.937576 286.777786 
L 156.774293 287.828763 
L 154.61101 288.856618 
L 152.447727 289.859537 
L 150.284444 290.82899 
L 148.121162 291.763032 
L 145.957879 292.657249 
L 143.794596 293.521507 
L 141.631313 294.35645 
L 139.46803 295.168751 
L 137.304747 295.960381 
L 135.141465 296.733437 
L 132.978182 297.484513 
L 130.814899 298.206024 
L 128.651616 298.906201 
L 126.488333 299.588877 
L 124.325051 300.257906 
L 122.161768 300.923501 
L 119.998485 301.586649 
L 117.835202 302.239379 
L 115.671919 302.894569 
L 113.508636 303.567546 
L 111.345354 304.270309 
L 109.182071 305.004901 
L 107.018788 305.773286 
L 104.855505 306.585205 
L 102.692222 307.448502 
L 100.528939 308.378047 
L 98.365657 309.403222 
L 96.202374 310.589586 
L 94.039091 312.072724 
L 91.875808 313.938553 
L 89.712525 316.372055 
L 87.549242 319.482171 
L 85.38596 323.23239 
L 83.222677 327.452823 
L 81.059394 332.01101 
L 78.896111 336.807581 
L 76.732828 341.741892 
L 74.569545 346.767001 
L 72.406263 351.784965 
L 70.24298 356.753161 
L 68.079697 361.669171 
L 65.916414 366.530573 
L 63.753131 371.336053 
L 61.589848 376.085609 
L 59.426566 380.778093 
L 57.263283 385.413592 
L 55.1 389.992 
z
" style="fill:#1f77b4;"/>
   </g>
   <g id="PolyCollection_2">
    <path clip-path="url(#p60a4ac5237)" d="M 55.1 389.992 
L 55.1 389.992 
L 57.263283 385.413592 
L 59.426566 380.778093 
L 61.589848 376.085609 
L 63.753131 371.336053 
L 65.916414 366.530573 
L 68.079697 361.669171 
L 70.24298 356.753161 
L 72.406263 351.784965 
L 74.569545 346.767001 
L 76.732828 341.741892 
L 78.896111 336.807581 
L 81.059394 332.01101 
L 83.222677 327.452823 
L 85.38596 323.23239 
L 87.549242 319.482171 
L 89.712525 316.372055 
L 91.875808 313.938553 
L 94.039091 312.072724 
L 96.202374 310.589586 
L 98.365657 309.403222 
L 100.528939 308.378047 
L 102.692222 307.448502 
L 104.855505 306.585205 
L 107.018788 305.773286 
L 109.182071 305.004901 
L 111.345354 304.270309 
L 113.508636 303.567546 
L 115.671919 302.894569 
L 117.835202 302.239379 
L 119.998485 301.586649 
L 122.161768 300.923501 
L 124.325051 300.257906 
L 126.488333 299.588877 
L 128.651616 298.906201 
L 130.814899 298.206024 
L 132.978182 297.484513 
L 135.141465 296.733437 
L 137.304747 295.960381 
L 139.46803 295.168751 
L 141.631313 294.35645 
L 143.794596 293.521507 
L 145.957879 292.657249 
L 148.121162 291.763032 
L 150.284444 290.82899 
L 152.447727 289.859537 
L 154.61101 288.856618 
L 156.774293 287.828763 
L 158.937576 286.777786 
L 161.100859 285.708389 
L 163.264141 284.607051 
L 165.427424 283.482499 
L 167.590707 282.32622 
L 169.75399 281.145606 
L 171.917273 279.948931 
L 174.080556 278.736169 
L 176.243838 277.510482 
L 178.407121 276.274496 
L 180.570404 275.03232 
L 182.733687 273.780638 
L 184.89697 272.520207 
L 187.060253 271.249392 
L 189.223535 269.967962 
L 191.386818 268.677859 
L 193.550101 267.381684 
L 195.713384 266.079516 
L 197.876667 264.771736 
L 200.039949 263.457612 
L 202.203232 262.13721 
L 204.366515 260.808563 
L 206.529798 259.471722 
L 208.693081 258.126472 
L 210.856364 256.77306 
L 213.019646 255.409604 
L 215.182929 254.03743 
L 217.346212 252.658294 
L 219.509495 251.274257 
L 221.672778 249.885853 
L 223.836061 248.492603 
L 225.999343 247.09579 
L 228.162626 245.696052 
L 230.325909 244.291846 
L 232.489192 242.885464 
L 234.652475 241.477592 
L 236.815758 240.0651 
L 238.97904 238.649098 
L 241.142323 237.230656 
L 243.305606 235.808429 
L 245.468889 234.383198 
L 247.632172 232.955498 
L 249.795455 231.527258 
L 251.958737 230.096293 
L 254.12202 228.663521 
L 256.285303 227.228456 
L 258.448586 225.792972 
L 260.611869 224.355024 
L 262.775152 222.915674 
L 264.938434 221.476712 
L 267.101717 220.036721 
L 269.265 218.595209 
L 269.265 28.856762 
L 269.265 28.856762 
L 267.101717 31.081507 
L 264.938434 33.314852 
L 262.775152 35.555927 
L 260.611869 37.804844 
L 258.448586 40.060327 
L 256.285303 42.325393 
L 254.12202 44.598906 
L 251.958737 46.882633 
L 249.795455 49.17662 
L 247.632172 51.478987 
L 245.468889 53.789973 
L 243.305606 56.109717 
L 241.142323 58.441584 
L 238.97904 60.785238 
L 236.815758 63.141602 
L 234.652475 65.509494 
L 232.489192 67.889568 
L 230.325909 70.280126 
L 228.162626 72.682994 
L 225.999343 75.098193 
L 223.836061 77.528221 
L 221.672778 79.971778 
L 219.509495 82.430696 
L 217.346212 84.902745 
L 215.182929 87.39119 
L 213.019646 89.898459 
L 210.856364 92.429102 
L 208.693081 94.987018 
L 206.529798 97.564845 
L 204.366515 100.162387 
L 202.203232 102.782339 
L 200.039949 105.426201 
L 197.876667 108.09149 
L 195.713384 110.782478 
L 193.550101 113.498438 
L 191.386818 116.235696 
L 189.223535 118.99389 
L 187.060253 121.775709 
L 184.89697 124.587488 
L 182.733687 127.429841 
L 180.570404 130.298518 
L 178.407121 133.195984 
L 176.243838 136.118583 
L 174.080556 139.072148 
L 171.917273 142.061304 
L 169.75399 145.088111 
L 167.590707 148.157623 
L 165.427424 151.278837 
L 163.264141 154.462835 
L 161.100859 157.702617 
L 158.937576 161.006918 
L 156.774293 164.365385 
L 154.61101 167.787286 
L 152.447727 171.27342 
L 150.284444 174.848847 
L 148.121162 178.51037 
L 145.957879 182.263013 
L 143.794596 186.093157 
L 141.631313 189.999183 
L 139.46803 193.972068 
L 137.304747 198.012217 
L 135.141465 202.133765 
L 132.978182 206.334064 
L 130.814899 210.632057 
L 128.651616 215.029091 
L 126.488333 219.532745 
L 124.325051 224.1232 
L 122.161768 228.799413 
L 119.998485 233.564957 
L 117.835202 238.45115 
L 115.671919 243.436218 
L 113.508636 248.531188 
L 111.345354 253.711332 
L 109.182071 258.989349 
L 107.018788 264.371523 
L 104.855505 269.888926 
L 102.692222 275.564819 
L 100.528939 281.385562 
L 98.365657 287.361989 
L 96.202374 293.463564 
L 94.039091 299.531078 
L 91.875808 305.458025 
L 89.712525 311.107596 
L 87.549242 316.376239 
L 85.38596 321.355493 
L 83.222677 326.228681 
L 81.059394 331.153396 
L 78.896111 336.181324 
L 76.732828 341.268774 
L 74.569545 346.396924 
L 72.406263 351.491792 
L 70.24298 356.519217 
L 68.079697 361.482018 
L 65.916414 366.383024 
L 63.753131 371.223768 
L 61.589848 376.004251 
L 59.426566 380.725814 
L 57.263283 385.388356 
L 55.1 389.992 
z
" style="fill:#ff7f0e;"/>
   </g>
   <g id="matplotlib.axis_1">
    <g id="xtick_1">
     <g id="line2d_1">
      <defs>
       <path d="M 0 0 
L 0 3.5 
" id="m5cf0de695d" style="stroke:#000000;stroke-width:0.8;"/>
      </defs>
      <g>
       <use style="stroke:#000000;stroke-width:0.8;" x="55.1" xlink:href="#m5cf0de695d" y="389.992"/>
      </g>
     </g>
     <g id="text_1">
      <!-- 0.0 -->
      <g transform="translate(47.148438 404.590438)scale(0.1 -0.1)">
       <defs>
        <path d="M 2034 4250 
Q 1547 4250 1301 3770 
Q 1056 3291 1056 2328 
Q 1056 1369 1301 889 
Q 1547 409 2034 409 
Q 2525 409 2770 889 
Q 3016 1369 3016 2328 
Q 3016 3291 2770 3770 
Q 2525 4250 2034 4250 
z
M 2034 4750 
Q 2819 4750 3233 4129 
Q 3647 3509 3647 2328 
Q 3647 1150 3233 529 
Q 2819 -91 2034 -91 
Q 1250 -91 836 529 
Q 422 1150 422 2328 
Q 422 3509 836 4129 
Q 1250 4750 2034 4750 
z
" id="DejaVuSans-30" transform="scale(0.015625)"/>
        <path d="M 684 794 
L 1344 794 
L 1344 0 
L 684 0 
L 684 794 
z
" id="DejaVuSans-2e" transform="scale(0.015625)"/>
       </defs>
       <use xlink:href="#DejaVuSans-30"/>
       <use x="63.623047" xlink:href="#DejaVuSans-2e"/>
       <use x="95.410156" xlink:href="#DejaVuSans-30"/>
      </g>
     </g>
    </g>
    <g id="xtick_2">
     <g id="line2d_2">
      <g>
       <use style="stroke:#000000;stroke-width:0.8;" x="108.64125" xlink:href="#m5cf0de695d" y="389.992"/>
      </g>
     </g>
     <g id="text_2">
      <!-- 0.5 -->
      <g transform="translate(100.689688 404.590438)scale(0.1 -0.1)">
       <defs>
        <path d="M 691 4666 
L 3169 4666 
L 3169 4134 
L 1269 4134 
L 1269 2991 
Q 1406 3038 1543 3061 
Q 1681 3084 1819 3084 
Q 2600 3084 3056 2656 
Q 3513 2228 3513 1497 
Q 3513 744 3044 326 
Q 2575 -91 1722 -91 
Q 1428 -91 1123 -41 
Q 819 9 494 109 
L 494 744 
Q 775 591 1075 516 
Q 1375 441 1709 441 
Q 2250 441 2565 725 
Q 2881 1009 2881 1497 
Q 2881 1984 2565 2268 
Q 2250 2553 1709 2553 
Q 1456 2553 1204 2497 
Q 953 2441 691 2322 
L 691 4666 
z
" id="DejaVuSans-35" transform="scale(0.015625)"/>
       </defs>
       <use xlink:href="#DejaVuSans-30"/>
       <use x="63.623047" xlink:href="#DejaVuSans-2e"/>
       <use x="95.410156" xlink:href="#DejaVuSans-35"/>
      </g>
     </g>
    </g>
    <g id="xtick_3">
     <g id="line2d_3">
      <g>
       <use style="stroke:#000000;stroke-width:0.8;" x="162.1825" xlink:href="#m5cf0de695d" y="389.992"/>
      </g>
     </g>
     <g id="text_3">
      <!-- 1.0 -->
      <g transform="translate(154.230938 404.590438)scale(0.1 -0.1)">
       <defs>
        <path d="M 794 531 
L 1825 531 
L 1825 4091 
L 703 3866 
L 703 4441 
L 1819 4666 
L 2450 4666 
L 2450 531 
L 3481 531 
L 3481 0 
L 794 0 
L 794 531 
z
" id="DejaVuSans-31" transform="scale(0.015625)"/>
       </defs>
       <use xlink:href="#DejaVuSans-31"/>
       <use x="63.623047" xlink:href="#DejaVuSans-2e"/>
       <use x="95.410156" xlink:href="#DejaVuSans-30"/>
      </g>
     </g>
    </g>
    <g id="xtick_4">
     <g id="line2d_4">
      <g>
       <use style="stroke:#000000;stroke-width:0.8;" x="215.72375" xlink:href="#m5cf0de695d" y="389.992"/>
      </g>
     </g>
     <g id="text_4">
      <!-- 1.5 -->
      <g transform="translate(207.772188 404.590438)scale(0.1 -0.1)">
       <use xlink:href="#DejaVuSans-31"/>
       <use x="63.623047" xlink:href="#DejaVuSans-2e"/>
       <use x="95.410156" xlink:href="#DejaVuSans-35"/>
      </g>
     </g>
    </g>
    <g id="xtick_5">
     <g id="line2d_5">
      <g>
       <use style="stroke:#000000;stroke-width:0.8;" x="269.265" xlink:href="#m5cf0de695d" y="389.992"/>
      </g>
     </g>
     <g id="text_5">
      <!-- 2.0 -->
      <g transform="translate(261.313437 404.590438)scale(0.1 -0.1)">
       <defs>
        <path d="M 1228 531 
L 3431 531 
L 3431 0 
L 469 0 
L 469 531 
Q 828 903 1448 1529 
Q 2069 2156 2228 2338 
Q 2531 2678 2651 2914 
Q 2772 3150 2772 3378 
Q 2772 3750 2511 3984 
Q 2250 4219 1831 4219 
Q 1534 4219 1204 4116 
Q 875 4013 500 3803 
L 500 4441 
Q 881 4594 1212 4672 
Q 1544 4750 1819 4750 
Q 2544 4750 2975 4387 
Q 3406 4025 3406 3419 
Q 3406 3131 3298 2873 
Q 3191 2616 2906 2266 
Q 2828 2175 2409 1742 
Q 1991 1309 1228 531 
z
" id="DejaVuSans-32" transform="scale(0.015625)"/>
       </defs>
       <use xlink:href="#DejaVuSans-32"/>
       <use x="63.623047" xlink:href="#DejaVuSans-2e"/>
       <use x="95.410156" xlink:href="#DejaVuSans-30"/>
      </g>
     </g>
    </g>
    <g id="text_6">
     <!-- C$_C$ -->
     <g transform="translate(156.0325 418.268563)scale(0.1 -0.1)">
      <defs>
       <path d="M 4122 4306 
L 4122 3641 
Q 3803 3938 3442 4084 
Q 3081 4231 2675 4231 
Q 1875 4231 1450 3742 
Q 1025 3253 1025 2328 
Q 1025 1406 1450 917 
Q 1875 428 2675 428 
Q 3081 428 3442 575 
Q 3803 722 4122 1019 
L 4122 359 
Q 3791 134 3420 21 
Q 3050 -91 2638 -91 
Q 1578 -91 968 557 
Q 359 1206 359 2328 
Q 359 3453 968 4101 
Q 1578 4750 2638 4750 
Q 3056 4750 3426 4639 
Q 3797 4528 4122 4306 
z
" id="DejaVuSans-43" transform="scale(0.015625)"/>
       <path d="M 4447 4306 
L 4319 3641 
Q 4019 3944 3683 4091 
Q 3347 4238 2956 4238 
Q 2422 4238 2017 3981 
Q 1613 3725 1319 3200 
Q 1131 2863 1032 2486 
Q 934 2109 934 1728 
Q 934 1091 1264 756 
Q 1594 422 2222 422 
Q 2656 422 3056 561 
Q 3456 700 3834 978 
L 3688 231 
Q 3316 72 2936 -9 
Q 2556 -91 2175 -91 
Q 1278 -91 773 396 
Q 269 884 269 1753 
Q 269 2309 461 2846 
Q 653 3384 1013 3828 
Q 1394 4300 1883 4525 
Q 2372 4750 3022 4750 
Q 3422 4750 3780 4639 
Q 4138 4528 4447 4306 
z
" id="DejaVuSans-Oblique-43" transform="scale(0.015625)"/>
      </defs>
      <use transform="translate(0 0.78125)" xlink:href="#DejaVuSans-43"/>
      <use transform="translate(70.78125 -15.625)scale(0.7)" xlink:href="#DejaVuSans-Oblique-43"/>
     </g>
    </g>
   </g>
   <g id="matplotlib.axis_2">
    <g id="ytick_1">
     <g id="line2d_6">
      <defs>
       <path d="M 0 0 
L -3.5 0 
" id="m98a3fab3ab" style="stroke:#000000;stroke-width:0.8;"/>
      </defs>
      <g>
       <use style="stroke:#000000;stroke-width:0.8;" x="55.1" xlink:href="#m98a3fab3ab" y="389.992"/>
      </g>
     </g>
     <g id="text_7">
      <!-- 0.0 -->
      <g transform="translate(32.196875 393.791219)scale(0.1 -0.1)">
       <use xlink:href="#DejaVuSans-30"/>
       <use x="63.623047" xlink:href="#DejaVuSans-2e"/>
       <use x="95.410156" xlink:href="#DejaVuSans-30"/>
      </g>
     </g>
    </g>
    <g id="ytick_2">
     <g id="line2d_7">
      <g>
       <use style="stroke:#000000;stroke-width:0.8;" x="55.1" xlink:href="#m98a3fab3ab" y="339.842107"/>
      </g>
     </g>
     <g id="text_8">
      <!-- 2.5 -->
      <g transform="translate(32.196875 343.641325)scale(0.1 -0.1)">
       <use xlink:href="#DejaVuSans-32"/>
       <use x="63.623047" xlink:href="#DejaVuSans-2e"/>
       <use x="95.410156" xlink:href="#DejaVuSans-35"/>
      </g>
     </g>
    </g>
    <g id="ytick_3">
     <g id="line2d_8">
      <g>
       <use style="stroke:#000000;stroke-width:0.8;" x="55.1" xlink:href="#m98a3fab3ab" y="289.692213"/>
      </g>
     </g>
     <g id="text_9">
      <!-- 5.0 -->
      <g transform="translate(32.196875 293.491432)scale(0.1 -0.1)">
       <use xlink:href="#DejaVuSans-35"/>
       <use x="63.623047" xlink:href="#DejaVuSans-2e"/>
       <use x="95.410156" xlink:href="#DejaVuSans-30"/>
      </g>
     </g>
    </g>
    <g id="ytick_4">
     <g id="line2d_9">
      <g>
       <use style="stroke:#000000;stroke-width:0.8;" x="55.1" xlink:href="#m98a3fab3ab" y="239.54232"/>
      </g>
     </g>
     <g id="text_10">
      <!-- 7.5 -->
      <g transform="translate(32.196875 243.341538)scale(0.1 -0.1)">
       <defs>
        <path d="M 525 4666 
L 3525 4666 
L 3525 4397 
L 1831 0 
L 1172 0 
L 2766 4134 
L 525 4134 
L 525 4666 
z
" id="DejaVuSans-37" transform="scale(0.015625)"/>
       </defs>
       <use xlink:href="#DejaVuSans-37"/>
       <use x="63.623047" xlink:href="#DejaVuSans-2e"/>
       <use x="95.410156" xlink:href="#DejaVuSans-35"/>
      </g>
     </g>
    </g>
    <g id="ytick_5">
     <g id="line2d_10">
      <g>
       <use style="stroke:#000000;stroke-width:0.8;" x="55.1" xlink:href="#m98a3fab3ab" y="189.392426"/>
      </g>
     </g>
     <g id="text_11">
      <!-- 10.0 -->
      <g transform="translate(25.834375 193.191645)scale(0.1 -0.1)">
       <use xlink:href="#DejaVuSans-31"/>
       <use x="63.623047" xlink:href="#DejaVuSans-30"/>
       <use x="127.246094" xlink:href="#DejaVuSans-2e"/>
       <use x="159.033203" xlink:href="#DejaVuSans-30"/>
      </g>
     </g>
    </g>
    <g id="ytick_6">
     <g id="line2d_11">
      <g>
       <use style="stroke:#000000;stroke-width:0.8;" x="55.1" xlink:href="#m98a3fab3ab" y="139.242533"/>
      </g>
     </g>
     <g id="text_12">
      <!-- 12.5 -->
      <g transform="translate(25.834375 143.041752)scale(0.1 -0.1)">
       <use xlink:href="#DejaVuSans-31"/>
       <use x="63.623047" xlink:href="#DejaVuSans-32"/>
       <use x="127.246094" xlink:href="#DejaVuSans-2e"/>
       <use x="159.033203" xlink:href="#DejaVuSans-35"/>
      </g>
     </g>
    </g>
    <g id="ytick_7">
     <g id="line2d_12">
      <g>
       <use style="stroke:#000000;stroke-width:0.8;" x="55.1" xlink:href="#m98a3fab3ab" y="89.092639"/>
      </g>
     </g>
     <g id="text_13">
      <!-- 15.0 -->
      <g transform="translate(25.834375 92.891858)scale(0.1 -0.1)">
       <use xlink:href="#DejaVuSans-31"/>
       <use x="63.623047" xlink:href="#DejaVuSans-35"/>
       <use x="127.246094" xlink:href="#DejaVuSans-2e"/>
       <use x="159.033203" xlink:href="#DejaVuSans-30"/>
      </g>
     </g>
    </g>
    <g id="ytick_8">
     <g id="line2d_13">
      <g>
       <use style="stroke:#000000;stroke-width:0.8;" x="55.1" xlink:href="#m98a3fab3ab" y="38.942746"/>
      </g>
     </g>
     <g id="text_14">
      <!-- 17.5 -->
      <g transform="translate(25.834375 42.741965)scale(0.1 -0.1)">
       <use xlink:href="#DejaVuSans-31"/>
       <use x="63.623047" xlink:href="#DejaVuSans-37"/>
       <use x="127.246094" xlink:href="#DejaVuSans-2e"/>
       <use x="159.033203" xlink:href="#DejaVuSans-35"/>
      </g>
     </g>
    </g>
    <g id="text_15">
     <!-- CO$_2$e Emissions Savings (Mt) -->
     <g transform="translate(19.734375 272.646)rotate(-90)scale(0.1 -0.1)">
      <defs>
       <path d="M 2522 4238 
Q 1834 4238 1429 3725 
Q 1025 3213 1025 2328 
Q 1025 1447 1429 934 
Q 1834 422 2522 422 
Q 3209 422 3611 934 
Q 4013 1447 4013 2328 
Q 4013 3213 3611 3725 
Q 3209 4238 2522 4238 
z
M 2522 4750 
Q 3503 4750 4090 4092 
Q 4678 3434 4678 2328 
Q 4678 1225 4090 567 
Q 3503 -91 2522 -91 
Q 1538 -91 948 565 
Q 359 1222 359 2328 
Q 359 3434 948 4092 
Q 1538 4750 2522 4750 
z
" id="DejaVuSans-4f" transform="scale(0.015625)"/>
       <path d="M 3597 1894 
L 3597 1613 
L 953 1613 
Q 991 1019 1311 708 
Q 1631 397 2203 397 
Q 2534 397 2845 478 
Q 3156 559 3463 722 
L 3463 178 
Q 3153 47 2828 -22 
Q 2503 -91 2169 -91 
Q 1331 -91 842 396 
Q 353 884 353 1716 
Q 353 2575 817 3079 
Q 1281 3584 2069 3584 
Q 2775 3584 3186 3129 
Q 3597 2675 3597 1894 
z
M 3022 2063 
Q 3016 2534 2758 2815 
Q 2500 3097 2075 3097 
Q 1594 3097 1305 2825 
Q 1016 2553 972 2059 
L 3022 2063 
z
" id="DejaVuSans-65" transform="scale(0.015625)"/>
       <path id="DejaVuSans-20" transform="scale(0.015625)"/>
       <path d="M 628 4666 
L 3578 4666 
L 3578 4134 
L 1259 4134 
L 1259 2753 
L 3481 2753 
L 3481 2222 
L 1259 2222 
L 1259 531 
L 3634 531 
L 3634 0 
L 628 0 
L 628 4666 
z
" id="DejaVuSans-45" transform="scale(0.015625)"/>
       <path d="M 3328 2828 
Q 3544 3216 3844 3400 
Q 4144 3584 4550 3584 
Q 5097 3584 5394 3201 
Q 5691 2819 5691 2113 
L 5691 0 
L 5113 0 
L 5113 2094 
Q 5113 2597 4934 2840 
Q 4756 3084 4391 3084 
Q 3944 3084 3684 2787 
Q 3425 2491 3425 1978 
L 3425 0 
L 2847 0 
L 2847 2094 
Q 2847 2600 2669 2842 
Q 2491 3084 2119 3084 
Q 1678 3084 1418 2786 
Q 1159 2488 1159 1978 
L 1159 0 
L 581 0 
L 581 3500 
L 1159 3500 
L 1159 2956 
Q 1356 3278 1631 3431 
Q 1906 3584 2284 3584 
Q 2666 3584 2933 3390 
Q 3200 3197 3328 2828 
z
" id="DejaVuSans-6d" transform="scale(0.015625)"/>
       <path d="M 603 3500 
L 1178 3500 
L 1178 0 
L 603 0 
L 603 3500 
z
M 603 4863 
L 1178 4863 
L 1178 4134 
L 603 4134 
L 603 4863 
z
" id="DejaVuSans-69" transform="scale(0.015625)"/>
       <path d="M 2834 3397 
L 2834 2853 
Q 2591 2978 2328 3040 
Q 2066 3103 1784 3103 
Q 1356 3103 1142 2972 
Q 928 2841 928 2578 
Q 928 2378 1081 2264 
Q 1234 2150 1697 2047 
L 1894 2003 
Q 2506 1872 2764 1633 
Q 3022 1394 3022 966 
Q 3022 478 2636 193 
Q 2250 -91 1575 -91 
Q 1294 -91 989 -36 
Q 684 19 347 128 
L 347 722 
Q 666 556 975 473 
Q 1284 391 1588 391 
Q 1994 391 2212 530 
Q 2431 669 2431 922 
Q 2431 1156 2273 1281 
Q 2116 1406 1581 1522 
L 1381 1569 
Q 847 1681 609 1914 
Q 372 2147 372 2553 
Q 372 3047 722 3315 
Q 1072 3584 1716 3584 
Q 2034 3584 2315 3537 
Q 2597 3491 2834 3397 
z
" id="DejaVuSans-73" transform="scale(0.015625)"/>
       <path d="M 1959 3097 
Q 1497 3097 1228 2736 
Q 959 2375 959 1747 
Q 959 1119 1226 758 
Q 1494 397 1959 397 
Q 2419 397 2687 759 
Q 2956 1122 2956 1747 
Q 2956 2369 2687 2733 
Q 2419 3097 1959 3097 
z
M 1959 3584 
Q 2709 3584 3137 3096 
Q 3566 2609 3566 1747 
Q 3566 888 3137 398 
Q 2709 -91 1959 -91 
Q 1206 -91 779 398 
Q 353 888 353 1747 
Q 353 2609 779 3096 
Q 1206 3584 1959 3584 
z
" id="DejaVuSans-6f" transform="scale(0.015625)"/>
       <path d="M 3513 2113 
L 3513 0 
L 2938 0 
L 2938 2094 
Q 2938 2591 2744 2837 
Q 2550 3084 2163 3084 
Q 1697 3084 1428 2787 
Q 1159 2491 1159 1978 
L 1159 0 
L 581 0 
L 581 3500 
L 1159 3500 
L 1159 2956 
Q 1366 3272 1645 3428 
Q 1925 3584 2291 3584 
Q 2894 3584 3203 3211 
Q 3513 2838 3513 2113 
z
" id="DejaVuSans-6e" transform="scale(0.015625)"/>
       <path d="M 3425 4513 
L 3425 3897 
Q 3066 4069 2747 4153 
Q 2428 4238 2131 4238 
Q 1616 4238 1336 4038 
Q 1056 3838 1056 3469 
Q 1056 3159 1242 3001 
Q 1428 2844 1947 2747 
L 2328 2669 
Q 3034 2534 3370 2195 
Q 3706 1856 3706 1288 
Q 3706 609 3251 259 
Q 2797 -91 1919 -91 
Q 1588 -91 1214 -16 
Q 841 59 441 206 
L 441 856 
Q 825 641 1194 531 
Q 1563 422 1919 422 
Q 2459 422 2753 634 
Q 3047 847 3047 1241 
Q 3047 1584 2836 1778 
Q 2625 1972 2144 2069 
L 1759 2144 
Q 1053 2284 737 2584 
Q 422 2884 422 3419 
Q 422 4038 858 4394 
Q 1294 4750 2059 4750 
Q 2388 4750 2728 4690 
Q 3069 4631 3425 4513 
z
" id="DejaVuSans-53" transform="scale(0.015625)"/>
       <path d="M 2194 1759 
Q 1497 1759 1228 1600 
Q 959 1441 959 1056 
Q 959 750 1161 570 
Q 1363 391 1709 391 
Q 2188 391 2477 730 
Q 2766 1069 2766 1631 
L 2766 1759 
L 2194 1759 
z
M 3341 1997 
L 3341 0 
L 2766 0 
L 2766 531 
Q 2569 213 2275 61 
Q 1981 -91 1556 -91 
Q 1019 -91 701 211 
Q 384 513 384 1019 
Q 384 1609 779 1909 
Q 1175 2209 1959 2209 
L 2766 2209 
L 2766 2266 
Q 2766 2663 2505 2880 
Q 2244 3097 1772 3097 
Q 1472 3097 1187 3025 
Q 903 2953 641 2809 
L 641 3341 
Q 956 3463 1253 3523 
Q 1550 3584 1831 3584 
Q 2591 3584 2966 3190 
Q 3341 2797 3341 1997 
z
" id="DejaVuSans-61" transform="scale(0.015625)"/>
       <path d="M 191 3500 
L 800 3500 
L 1894 563 
L 2988 3500 
L 3597 3500 
L 2284 0 
L 1503 0 
L 191 3500 
z
" id="DejaVuSans-76" transform="scale(0.015625)"/>
       <path d="M 2906 1791 
Q 2906 2416 2648 2759 
Q 2391 3103 1925 3103 
Q 1463 3103 1205 2759 
Q 947 2416 947 1791 
Q 947 1169 1205 825 
Q 1463 481 1925 481 
Q 2391 481 2648 825 
Q 2906 1169 2906 1791 
z
M 3481 434 
Q 3481 -459 3084 -895 
Q 2688 -1331 1869 -1331 
Q 1566 -1331 1297 -1286 
Q 1028 -1241 775 -1147 
L 775 -588 
Q 1028 -725 1275 -790 
Q 1522 -856 1778 -856 
Q 2344 -856 2625 -561 
Q 2906 -266 2906 331 
L 2906 616 
Q 2728 306 2450 153 
Q 2172 0 1784 0 
Q 1141 0 747 490 
Q 353 981 353 1791 
Q 353 2603 747 3093 
Q 1141 3584 1784 3584 
Q 2172 3584 2450 3431 
Q 2728 3278 2906 2969 
L 2906 3500 
L 3481 3500 
L 3481 434 
z
" id="DejaVuSans-67" transform="scale(0.015625)"/>
       <path d="M 1984 4856 
Q 1566 4138 1362 3434 
Q 1159 2731 1159 2009 
Q 1159 1288 1364 580 
Q 1569 -128 1984 -844 
L 1484 -844 
Q 1016 -109 783 600 
Q 550 1309 550 2009 
Q 550 2706 781 3412 
Q 1013 4119 1484 4856 
L 1984 4856 
z
" id="DejaVuSans-28" transform="scale(0.015625)"/>
       <path d="M 628 4666 
L 1569 4666 
L 2759 1491 
L 3956 4666 
L 4897 4666 
L 4897 0 
L 4281 0 
L 4281 4097 
L 3078 897 
L 2444 897 
L 1241 4097 
L 1241 0 
L 628 0 
L 628 4666 
z
" id="DejaVuSans-4d" transform="scale(0.015625)"/>
       <path d="M 1172 4494 
L 1172 3500 
L 2356 3500 
L 2356 3053 
L 1172 3053 
L 1172 1153 
Q 1172 725 1289 603 
Q 1406 481 1766 481 
L 2356 481 
L 2356 0 
L 1766 0 
Q 1100 0 847 248 
Q 594 497 594 1153 
L 594 3053 
L 172 3053 
L 172 3500 
L 594 3500 
L 594 4494 
L 1172 4494 
z
" id="DejaVuSans-74" transform="scale(0.015625)"/>
       <path d="M 513 4856 
L 1013 4856 
Q 1481 4119 1714 3412 
Q 1947 2706 1947 2009 
Q 1947 1309 1714 600 
Q 1481 -109 1013 -844 
L 513 -844 
Q 928 -128 1133 580 
Q 1338 1288 1338 2009 
Q 1338 2731 1133 3434 
Q 928 4138 513 4856 
z
" id="DejaVuSans-29" transform="scale(0.015625)"/>
      </defs>
      <use transform="translate(0 0.015625)" xlink:href="#DejaVuSans-43"/>
      <use transform="translate(69.824219 0.015625)" xlink:href="#DejaVuSans-4f"/>
      <use transform="translate(149.492188 -16.390625)scale(0.7)" xlink:href="#DejaVuSans-32"/>
      <use transform="translate(196.762695 0.015625)" xlink:href="#DejaVuSans-65"/>
      <use transform="translate(258.286133 0.015625)" xlink:href="#DejaVuSans-20"/>
      <use transform="translate(290.073242 0.015625)" xlink:href="#DejaVuSans-45"/>
      <use transform="translate(353.256836 0.015625)" xlink:href="#DejaVuSans-6d"/>
      <use transform="translate(450.668945 0.015625)" xlink:href="#DejaVuSans-69"/>
      <use transform="translate(478.452148 0.015625)" xlink:href="#DejaVuSans-73"/>
      <use transform="translate(530.551758 0.015625)" xlink:href="#DejaVuSans-73"/>
      <use transform="translate(582.651367 0.015625)" xlink:href="#DejaVuSans-69"/>
      <use transform="translate(610.43457 0.015625)" xlink:href="#DejaVuSans-6f"/>
      <use transform="translate(671.616211 0.015625)" xlink:href="#DejaVuSans-6e"/>
      <use transform="translate(734.995117 0.015625)" xlink:href="#DejaVuSans-73"/>
      <use transform="translate(787.094727 0.015625)" xlink:href="#DejaVuSans-20"/>
      <use transform="translate(818.881836 0.015625)" xlink:href="#DejaVuSans-53"/>
      <use transform="translate(882.358398 0.015625)" xlink:href="#DejaVuSans-61"/>
      <use transform="translate(943.637695 0.015625)" xlink:href="#DejaVuSans-76"/>
      <use transform="translate(1002.817383 0.015625)" xlink:href="#DejaVuSans-69"/>
      <use transform="translate(1030.600586 0.015625)" xlink:href="#DejaVuSans-6e"/>
      <use transform="translate(1093.979492 0.015625)" xlink:href="#DejaVuSans-67"/>
      <use transform="translate(1157.456055 0.015625)" xlink:href="#DejaVuSans-73"/>
      <use transform="translate(1209.555664 0.015625)" xlink:href="#DejaVuSans-20"/>
      <use transform="translate(1241.342773 0.015625)" xlink:href="#DejaVuSans-28"/>
      <use transform="translate(1280.356445 0.015625)" xlink:href="#DejaVuSans-4d"/>
      <use transform="translate(1366.635742 0.015625)" xlink:href="#DejaVuSans-74"/>
      <use transform="translate(1405.844727 0.015625)" xlink:href="#DejaVuSans-29"/>
     </g>
    </g>
   </g>
   <g id="patch_3">
    <path d="M 55.1 389.992 
L 55.1 10.8 
" style="fill:none;stroke:#000000;stroke-linecap:square;stroke-linejoin:miter;stroke-width:0.8;"/>
   </g>
   <g id="patch_4">
    <path d="M 269.265 389.992 
L 269.265 10.8 
" style="fill:none;stroke:#000000;stroke-linecap:square;stroke-linejoin:miter;stroke-width:0.8;"/>
   </g>
   <g id="patch_5">
    <path d="M 55.1 389.992 
L 269.265 389.992 
" style="fill:none;stroke:#000000;stroke-linecap:square;stroke-linejoin:miter;stroke-width:0.8;"/>
   </g>
   <g id="patch_6">
    <path d="M 55.1 10.8 
L 269.265 10.8 
" style="fill:none;stroke:#000000;stroke-linecap:square;stroke-linejoin:miter;stroke-width:0.8;"/>
   </g>
  </g>
 </g>
 <defs>
  <clipPath id="p60a4ac5237">
   <rect height="379.192" width="214.165" x="55.1" y="10.8"/>
  </clipPath>
 </defs>
</svg>
