<?xml version="1.0" encoding="utf-8" standalone="no"?>
<!DOCTYPE svg PUBLIC "-//W3C//DTD SVG 1.1//EN"
  "http://www.w3.org/Graphics/SVG/1.1/DTD/svg11.dtd">
<svg height="864pt" version="1.1" viewBox="0 0 576 864" width="576pt" xmlns="http://www.w3.org/2000/svg" xmlns:xlink="http://www.w3.org/1999/xlink">
 <metadata>
  <rdf:RDF xmlns:cc="http://creativecommons.org/ns#" xmlns:dc="http://purl.org/dc/elements/1.1/" xmlns:rdf="http://www.w3.org/1999/02/22-rdf-syntax-ns#">
   <cc:Work>
    <dc:type rdf:resource="http://purl.org/dc/dcmitype/StillImage"/>
    <dc:date>2021-06-15T14:50:30.235816</dc:date>
    <dc:format>image/svg+xml</dc:format>
    <dc:creator>
     <cc:Agent>
      <dc:title>Matplotlib v3.4.1, https://matplotlib.org/</dc:title>
     </cc:Agent>
    </dc:creator>
   </cc:Work>
  </rdf:RDF>
 </metadata>
 <defs>
  <style type="text/css">*{stroke-linecap:butt;stroke-linejoin:round;}</style>
 </defs>
 <g id="figure_1">
  <g id="patch_1">
   <path d="M 0 864 
L 576 864 
L 576 0 
L 0 0 
z
" style="fill:#ffffff;"/>
  </g>
  <g id="axes_1">
   <g id="patch_2">
    <path d="M 72 768.96 
L 518.4 768.96 
L 518.4 103.68 
L 72 103.68 
z
" style="fill:#ffffff;"/>
   </g>
   <g id="PolyCollection_1">
    <path clip-path="url(#pbe0e9967f6)" d="M 92.290909 535.456073 
L 92.290909 768.96 
L 96.390083 768.96 
L 100.489256 768.96 
L 104.58843 768.96 
L 108.687603 768.96 
L 112.786777 768.96 
L 116.88595 768.96 
L 120.985124 768.96 
L 125.084298 768.96 
L 129.183471 768.96 
L 133.282645 768.96 
L 137.381818 768.96 
L 141.480992 768.96 
L 145.580165 768.96 
L 149.679339 768.96 
L 153.778512 768.96 
L 157.877686 768.96 
L 161.97686 768.96 
L 166.076033 768.96 
L 170.175207 768.96 
L 174.27438 768.96 
L 178.373554 768.96 
L 182.472727 768.96 
L 186.571901 768.96 
L 190.671074 768.96 
L 194.770248 768.96 
L 198.869421 768.96 
L 202.968595 768.96 
L 207.067769 768.96 
L 211.166942 768.96 
L 215.266116 768.96 
L 219.365289 768.96 
L 223.464463 768.96 
L 227.563636 768.96 
L 231.66281 768.96 
L 235.761983 768.96 
L 239.861157 768.96 
L 243.960331 768.96 
L 248.059504 768.96 
L 252.158678 768.96 
L 256.257851 768.96 
L 260.357025 768.96 
L 264.456198 768.96 
L 268.555372 768.96 
L 272.654545 768.96 
L 276.753719 768.96 
L 280.852893 768.96 
L 284.952066 768.96 
L 289.05124 768.96 
L 293.150413 768.96 
L 297.249587 768.96 
L 301.34876 768.96 
L 305.447934 768.96 
L 309.547107 768.96 
L 313.646281 768.96 
L 317.745455 768.96 
L 321.844628 768.96 
L 325.943802 768.96 
L 330.042975 768.96 
L 334.142149 768.96 
L 338.241322 768.96 
L 342.340496 768.96 
L 346.439669 768.96 
L 350.538843 768.96 
L 354.638017 768.96 
L 358.73719 768.96 
L 362.836364 768.96 
L 366.935537 768.96 
L 371.034711 768.96 
L 375.133884 768.96 
L 379.233058 768.96 
L 383.332231 768.96 
L 387.431405 768.96 
L 391.530579 768.96 
L 395.629752 768.96 
L 399.728926 768.96 
L 403.828099 768.96 
L 407.927273 768.96 
L 412.026446 768.96 
L 416.12562 768.96 
L 420.224793 768.96 
L 424.323967 768.96 
L 428.42314 768.96 
L 432.522314 768.96 
L 436.621488 768.96 
L 440.720661 768.96 
L 444.819835 768.96 
L 448.919008 768.96 
L 453.018182 768.96 
L 457.117355 768.96 
L 461.216529 768.96 
L 465.315702 768.96 
L 469.414876 768.96 
L 473.51405 768.96 
L 477.613223 768.96 
L 481.712397 768.96 
L 485.81157 768.96 
L 489.910744 768.96 
L 494.009917 768.96 
L 498.109091 768.96 
L 498.109091 575.923785 
L 498.109091 575.923785 
L 494.009917 575.586538 
L 489.910744 575.247971 
L 485.81157 574.909041 
L 481.712397 574.569034 
L 477.613223 574.228274 
L 473.51405 573.885914 
L 469.414876 573.542807 
L 465.315702 573.199395 
L 461.216529 572.85453 
L 457.117355 572.508132 
L 453.018182 572.162528 
L 448.919008 571.818002 
L 444.819835 571.471433 
L 440.720661 571.12192 
L 436.621488 570.771285 
L 432.522314 570.422626 
L 428.42314 570.074732 
L 424.323967 569.722436 
L 420.224793 569.368651 
L 416.12562 569.014476 
L 412.026446 568.660352 
L 407.927273 568.30611 
L 403.828099 567.951993 
L 399.728926 567.597603 
L 395.629752 567.245051 
L 391.530579 566.89467 
L 387.431405 566.54744 
L 383.332231 566.202707 
L 379.233058 565.859072 
L 375.133884 565.518442 
L 371.034711 565.179958 
L 366.935537 564.843916 
L 362.836364 564.510094 
L 358.73719 564.177137 
L 354.638017 563.845061 
L 350.538843 563.513843 
L 346.439669 563.184497 
L 342.340496 562.856888 
L 338.241322 562.532075 
L 334.142149 562.196543 
L 330.042975 561.862415 
L 325.943802 561.526498 
L 321.844628 561.194048 
L 317.745455 560.869316 
L 313.646281 560.54989 
L 309.547107 560.235671 
L 305.447934 559.924479 
L 301.34876 559.609874 
L 297.249587 559.294396 
L 293.150413 558.980017 
L 289.05124 558.669213 
L 284.952066 558.359643 
L 280.852893 558.052183 
L 276.753719 557.745522 
L 272.654545 557.439963 
L 268.555372 557.137395 
L 264.456198 556.837362 
L 260.357025 556.541481 
L 256.257851 556.248064 
L 252.158678 555.953756 
L 248.059504 555.65715 
L 243.960331 555.357797 
L 239.861157 555.054384 
L 235.761983 554.746144 
L 231.66281 554.433053 
L 227.563636 554.114497 
L 223.464463 553.789793 
L 219.365289 553.46535 
L 215.266116 553.1423 
L 211.166942 552.820157 
L 207.067769 552.495633 
L 202.968595 552.166332 
L 198.869421 551.829983 
L 194.770248 551.484778 
L 190.671074 551.124665 
L 186.571901 550.74493 
L 182.472727 550.339136 
L 178.373554 549.902516 
L 174.27438 549.430782 
L 170.175207 548.913189 
L 166.076033 548.375978 
L 161.97686 547.820483 
L 157.877686 547.243391 
L 153.778512 546.655345 
L 149.679339 546.055255 
L 145.580165 545.430094 
L 141.480992 544.769292 
L 137.381818 544.035476 
L 133.282645 543.274176 
L 129.183471 542.501144 
L 125.084298 541.721134 
L 120.985124 540.938001 
L 116.88595 540.154869 
L 112.786777 539.371736 
L 108.687603 538.588603 
L 104.58843 537.805471 
L 100.489256 537.022338 
L 96.390083 536.239205 
L 92.290909 535.456073 
z
" style="fill:#3182bd;"/>
   </g>
   <g id="PolyCollection_2">
    <path clip-path="url(#pbe0e9967f6)" d="M 92.290909 145.176622 
L 92.290909 535.456073 
L 96.390083 536.239205 
L 100.489256 537.022338 
L 104.58843 537.805471 
L 108.687603 538.588603 
L 112.786777 539.371736 
L 116.88595 540.154869 
L 120.985124 540.938001 
L 125.084298 541.721134 
L 129.183471 542.501144 
L 133.282645 543.274176 
L 137.381818 544.035476 
L 141.480992 544.769292 
L 145.580165 545.430094 
L 149.679339 546.055255 
L 153.778512 546.655345 
L 157.877686 547.243391 
L 161.97686 547.820483 
L 166.076033 548.375978 
L 170.175207 548.913189 
L 174.27438 549.430782 
L 178.373554 549.902516 
L 182.472727 550.339136 
L 186.571901 550.74493 
L 190.671074 551.124665 
L 194.770248 551.484778 
L 198.869421 551.829983 
L 202.968595 552.166332 
L 207.067769 552.495633 
L 211.166942 552.820157 
L 215.266116 553.1423 
L 219.365289 553.46535 
L 223.464463 553.789793 
L 227.563636 554.114497 
L 231.66281 554.433053 
L 235.761983 554.746144 
L 239.861157 555.054384 
L 243.960331 555.357797 
L 248.059504 555.65715 
L 252.158678 555.953756 
L 256.257851 556.248064 
L 260.357025 556.541481 
L 264.456198 556.837362 
L 268.555372 557.137395 
L 272.654545 557.439963 
L 276.753719 557.745522 
L 280.852893 558.052183 
L 284.952066 558.359643 
L 289.05124 558.669213 
L 293.150413 558.980017 
L 297.249587 559.294396 
L 301.34876 559.609874 
L 305.447934 559.924479 
L 309.547107 560.235671 
L 313.646281 560.54989 
L 317.745455 560.869316 
L 321.844628 561.194048 
L 325.943802 561.526498 
L 330.042975 561.862415 
L 334.142149 562.196543 
L 338.241322 562.532075 
L 342.340496 562.856888 
L 346.439669 563.184497 
L 350.538843 563.513843 
L 354.638017 563.845061 
L 358.73719 564.177137 
L 362.836364 564.510094 
L 366.935537 564.843916 
L 371.034711 565.179958 
L 375.133884 565.518442 
L 379.233058 565.859072 
L 383.332231 566.202707 
L 387.431405 566.54744 
L 391.530579 566.89467 
L 395.629752 567.245051 
L 399.728926 567.597603 
L 403.828099 567.951993 
L 407.927273 568.30611 
L 412.026446 568.660352 
L 416.12562 569.014476 
L 420.224793 569.368651 
L 424.323967 569.722436 
L 428.42314 570.074732 
L 432.522314 570.422626 
L 436.621488 570.771285 
L 440.720661 571.12192 
L 444.819835 571.471433 
L 448.919008 571.818002 
L 453.018182 572.162528 
L 457.117355 572.508132 
L 461.216529 572.85453 
L 465.315702 573.199395 
L 469.414876 573.542807 
L 473.51405 573.885914 
L 477.613223 574.228274 
L 481.712397 574.569034 
L 485.81157 574.909041 
L 489.910744 575.247971 
L 494.009917 575.586538 
L 498.109091 575.923785 
L 498.109091 260.730294 
L 498.109091 260.730294 
L 494.009917 259.661585 
L 489.910744 258.585338 
L 485.81157 257.504303 
L 481.712397 256.419326 
L 477.613223 255.331189 
L 473.51405 254.238348 
L 469.414876 253.140335 
L 465.315702 252.036287 
L 461.216529 250.924316 
L 457.117355 249.804549 
L 453.018182 248.678026 
L 448.919008 247.54671 
L 444.819835 246.41088 
L 440.720661 245.271374 
L 436.621488 244.12459 
L 432.522314 242.970723 
L 428.42314 241.812989 
L 424.323967 240.652669 
L 420.224793 239.488736 
L 416.12562 238.319499 
L 412.026446 237.143391 
L 407.927273 235.962339 
L 403.828099 234.777039 
L 399.728926 233.58643 
L 395.629752 232.389095 
L 391.530579 231.185247 
L 387.431405 229.974307 
L 383.332231 228.756988 
L 379.233058 227.534218 
L 375.133884 226.304753 
L 371.034711 225.067485 
L 366.935537 223.824849 
L 362.836364 222.575914 
L 358.73719 221.322449 
L 354.638017 220.065071 
L 350.538843 218.80295 
L 346.439669 217.537383 
L 342.340496 216.26585 
L 338.241322 214.98783 
L 334.142149 213.718084 
L 330.042975 212.441536 
L 325.943802 211.161424 
L 321.844628 209.876205 
L 317.745455 208.5817 
L 313.646281 207.279931 
L 309.547107 205.969855 
L 305.447934 204.654612 
L 301.34876 203.341748 
L 297.249587 202.028878 
L 293.150413 200.713597 
L 289.05124 199.39399 
L 284.952066 198.071829 
L 280.852893 196.746391 
L 276.753719 195.418475 
L 272.654545 194.087548 
L 268.555372 192.752765 
L 264.456198 191.414074 
L 260.357025 190.06822 
L 256.257851 188.719044 
L 252.158678 187.369688 
L 248.059504 186.022713 
L 243.960331 184.678781 
L 239.861157 183.339537 
L 235.761983 182.005666 
L 231.66281 180.677304 
L 227.563636 179.35532 
L 223.464463 178.040451 
L 219.365289 176.725235 
L 215.266116 175.408394 
L 211.166942 174.090495 
L 207.067769 172.775243 
L 202.968595 171.465429 
L 198.869421 170.163683 
L 194.770248 168.872256 
L 190.671074 167.598199 
L 186.571901 166.347041 
L 182.472727 165.126097 
L 178.373554 163.940885 
L 174.27438 162.79641 
L 170.175207 161.705333 
L 166.076033 160.636776 
L 161.97686 159.589495 
L 157.877686 158.567308 
L 153.778512 157.557852 
L 149.679339 156.562431 
L 145.580165 155.59624 
L 141.480992 154.671566 
L 137.381818 153.831599 
L 133.282645 153.023333 
L 129.183471 152.228453 
L 125.084298 151.441684 
L 120.985124 150.658551 
L 116.88595 149.875419 
L 112.786777 149.092286 
L 108.687603 148.309153 
L 104.58843 147.52602 
L 100.489256 146.742888 
L 96.390083 145.959755 
L 92.290909 145.176622 
z
" style="fill:#6baed6;"/>
   </g>
   <g id="PolyCollection_3">
    <path clip-path="url(#pbe0e9967f6)" d="M 92.290909 144.999903 
L 92.290909 145.176622 
L 96.390083 145.959755 
L 100.489256 146.742888 
L 104.58843 147.52602 
L 108.687603 148.309153 
L 112.786777 149.092286 
L 116.88595 149.875419 
L 120.985124 150.658551 
L 125.084298 151.441684 
L 129.183471 152.228453 
L 133.282645 153.023333 
L 137.381818 153.831599 
L 141.480992 154.671566 
L 145.580165 155.59624 
L 149.679339 156.562431 
L 153.778512 157.557852 
L 157.877686 158.567308 
L 161.97686 159.589495 
L 166.076033 160.636776 
L 170.175207 161.705333 
L 174.27438 162.79641 
L 178.373554 163.940885 
L 182.472727 165.126097 
L 186.571901 166.347041 
L 190.671074 167.598199 
L 194.770248 168.872256 
L 198.869421 170.163683 
L 202.968595 171.465429 
L 207.067769 172.775243 
L 211.166942 174.090495 
L 215.266116 175.408394 
L 219.365289 176.725235 
L 223.464463 178.040451 
L 227.563636 179.35532 
L 231.66281 180.677304 
L 235.761983 182.005666 
L 239.861157 183.339537 
L 243.960331 184.678781 
L 248.059504 186.022713 
L 252.158678 187.369688 
L 256.257851 188.719044 
L 260.357025 190.06822 
L 264.456198 191.414074 
L 268.555372 192.752765 
L 272.654545 194.087548 
L 276.753719 195.418475 
L 280.852893 196.746391 
L 284.952066 198.071829 
L 289.05124 199.39399 
L 293.150413 200.713597 
L 297.249587 202.028878 
L 301.34876 203.341748 
L 305.447934 204.654612 
L 309.547107 205.969855 
L 313.646281 207.279931 
L 317.745455 208.5817 
L 321.844628 209.876205 
L 325.943802 211.161424 
L 330.042975 212.441536 
L 334.142149 213.718084 
L 338.241322 214.98783 
L 342.340496 216.26585 
L 346.439669 217.537383 
L 350.538843 218.80295 
L 354.638017 220.065071 
L 358.73719 221.322449 
L 362.836364 222.575914 
L 366.935537 223.824849 
L 371.034711 225.067485 
L 375.133884 226.304753 
L 379.233058 227.534218 
L 383.332231 228.756988 
L 387.431405 229.974307 
L 391.530579 231.185247 
L 395.629752 232.389095 
L 399.728926 233.58643 
L 403.828099 234.777039 
L 407.927273 235.962339 
L 412.026446 237.143391 
L 416.12562 238.319499 
L 420.224793 239.488736 
L 424.323967 240.652669 
L 428.42314 241.812989 
L 432.522314 242.970723 
L 436.621488 244.12459 
L 440.720661 245.271374 
L 444.819835 246.41088 
L 448.919008 247.54671 
L 453.018182 248.678026 
L 457.117355 249.804549 
L 461.216529 250.924316 
L 465.315702 252.036287 
L 469.414876 253.140335 
L 473.51405 254.238348 
L 477.613223 255.331189 
L 481.712397 256.419326 
L 485.81157 257.504303 
L 489.910744 258.585338 
L 494.009917 259.661585 
L 498.109091 260.730294 
L 498.109091 260.558311 
L 498.109091 260.558311 
L 494.009917 259.489417 
L 489.910744 258.413032 
L 485.81157 257.331874 
L 481.712397 256.246744 
L 477.613223 255.158423 
L 473.51405 254.06539 
L 469.414876 252.967192 
L 465.315702 251.86294 
L 461.216529 250.750796 
L 457.117355 249.630901 
L 453.018182 248.50424 
L 448.919008 247.372768 
L 444.819835 246.236783 
L 440.720661 245.097105 
L 436.621488 243.950221 
L 432.522314 242.796265 
L 428.42314 241.638389 
L 424.323967 240.477955 
L 420.224793 239.313887 
L 416.12562 238.144526 
L 412.026446 236.96834 
L 407.927273 235.787196 
L 403.828099 234.601803 
L 399.728926 233.411107 
L 395.629752 232.213701 
L 391.530579 231.009774 
L 387.431405 229.798742 
L 383.332231 228.581345 
L 379.233058 227.3585 
L 375.133884 226.128947 
L 371.034711 224.891629 
L 366.935537 223.648926 
L 362.836364 222.399935 
L 358.73719 221.146418 
L 354.638017 219.888987 
L 350.538843 218.626832 
L 346.439669 217.361181 
L 342.340496 216.089577 
L 338.241322 214.811482 
L 334.142149 213.541676 
L 330.042975 212.265065 
L 325.943802 210.984939 
L 321.844628 209.699716 
L 317.745455 208.405201 
L 313.646281 207.103398 
L 309.547107 205.793302 
L 305.447934 204.478037 
L 301.34876 203.165157 
L 297.249587 201.852273 
L 293.150413 200.536992 
L 289.05124 199.217364 
L 284.952066 197.895193 
L 280.852893 196.569746 
L 276.753719 195.241806 
L 272.654545 193.910875 
L 268.555372 192.576085 
L 264.456198 191.237372 
L 260.357025 189.891513 
L 256.257851 188.542326 
L 252.158678 187.192969 
L 248.059504 185.845994 
L 243.960331 184.502062 
L 239.861157 183.162818 
L 235.761983 181.828947 
L 231.66281 180.500585 
L 227.563636 179.178601 
L 223.464463 177.863732 
L 219.365289 176.548516 
L 215.266116 175.231675 
L 211.166942 173.913776 
L 207.067769 172.598524 
L 202.968595 171.28871 
L 198.869421 169.986964 
L 194.770248 168.695537 
L 190.671074 167.42148 
L 186.571901 166.170322 
L 182.472727 164.949378 
L 178.373554 163.764166 
L 174.27438 162.619691 
L 170.175207 161.528614 
L 166.076033 160.460057 
L 161.97686 159.412775 
L 157.877686 158.390589 
L 153.778512 157.381133 
L 149.679339 156.385712 
L 145.580165 155.419521 
L 141.480992 154.494847 
L 137.381818 153.65488 
L 133.282645 152.846614 
L 129.183471 152.051734 
L 125.084298 151.264965 
L 120.985124 150.481832 
L 116.88595 149.698699 
L 112.786777 148.915567 
L 108.687603 148.132434 
L 104.58843 147.349301 
L 100.489256 146.566169 
L 96.390083 145.783036 
L 92.290909 144.999903 
z
" style="fill:#9ecae1;"/>
   </g>
   <g id="PolyCollection_4">
    <path clip-path="url(#pbe0e9967f6)" d="M 92.290909 144.785284 
L 92.290909 144.999903 
L 96.390083 145.783036 
L 100.489256 146.566169 
L 104.58843 147.349301 
L 108.687603 148.132434 
L 112.786777 148.915567 
L 116.88595 149.698699 
L 120.985124 150.481832 
L 125.084298 151.264965 
L 129.183471 152.051734 
L 133.282645 152.846614 
L 137.381818 153.65488 
L 141.480992 154.494847 
L 145.580165 155.419521 
L 149.679339 156.385712 
L 153.778512 157.381133 
L 157.877686 158.390589 
L 161.97686 159.412775 
L 166.076033 160.460057 
L 170.175207 161.528614 
L 174.27438 162.619691 
L 178.373554 163.764166 
L 182.472727 164.949378 
L 186.571901 166.170322 
L 190.671074 167.42148 
L 194.770248 168.695537 
L 198.869421 169.986964 
L 202.968595 171.28871 
L 207.067769 172.598524 
L 211.166942 173.913776 
L 215.266116 175.231675 
L 219.365289 176.548516 
L 223.464463 177.863732 
L 227.563636 179.178601 
L 231.66281 180.500585 
L 235.761983 181.828947 
L 239.861157 183.162818 
L 243.960331 184.502062 
L 248.059504 185.845994 
L 252.158678 187.192969 
L 256.257851 188.542326 
L 260.357025 189.891513 
L 264.456198 191.237372 
L 268.555372 192.576085 
L 272.654545 193.910875 
L 276.753719 195.241806 
L 280.852893 196.569746 
L 284.952066 197.895193 
L 289.05124 199.217364 
L 293.150413 200.536992 
L 297.249587 201.852273 
L 301.34876 203.165157 
L 305.447934 204.478037 
L 309.547107 205.793302 
L 313.646281 207.103398 
L 317.745455 208.405201 
L 321.844628 209.699716 
L 325.943802 210.984939 
L 330.042975 212.265065 
L 334.142149 213.541676 
L 338.241322 214.811482 
L 342.340496 216.089577 
L 346.439669 217.361181 
L 350.538843 218.626832 
L 354.638017 219.888987 
L 358.73719 221.146418 
L 362.836364 222.399935 
L 366.935537 223.648926 
L 371.034711 224.891629 
L 375.133884 226.128947 
L 379.233058 227.3585 
L 383.332231 228.581345 
L 387.431405 229.798742 
L 391.530579 231.009774 
L 395.629752 232.213701 
L 399.728926 233.411107 
L 403.828099 234.601803 
L 407.927273 235.787196 
L 412.026446 236.96834 
L 416.12562 238.144526 
L 420.224793 239.313887 
L 424.323967 240.477955 
L 428.42314 241.638389 
L 432.522314 242.796265 
L 436.621488 243.950221 
L 440.720661 245.097105 
L 444.819835 246.236783 
L 448.919008 247.372768 
L 453.018182 248.50424 
L 457.117355 249.630901 
L 461.216529 250.750796 
L 465.315702 251.86294 
L 469.414876 252.967192 
L 473.51405 254.06539 
L 477.613223 255.158423 
L 481.712397 256.246744 
L 485.81157 257.331874 
L 489.910744 258.413032 
L 494.009917 259.489417 
L 498.109091 260.558311 
L 498.109091 260.343693 
L 498.109091 260.343693 
L 494.009917 259.274799 
L 489.910744 258.198412 
L 485.81157 257.117254 
L 481.712397 256.032125 
L 477.613223 254.943803 
L 473.51405 253.850771 
L 469.414876 252.752572 
L 465.315702 251.64832 
L 461.216529 250.536176 
L 457.117355 249.416281 
L 453.018182 248.28962 
L 448.919008 247.158148 
L 444.819835 246.022163 
L 440.720661 244.882486 
L 436.621488 243.735602 
L 432.522314 242.581645 
L 428.42314 241.423769 
L 424.323967 240.263335 
L 420.224793 239.099267 
L 416.12562 237.929907 
L 412.026446 236.753721 
L 407.927273 235.572577 
L 403.828099 234.387183 
L 399.728926 233.196487 
L 395.629752 231.999082 
L 391.530579 230.795154 
L 387.431405 229.584123 
L 383.332231 228.366725 
L 379.233058 227.14388 
L 375.133884 225.914327 
L 371.034711 224.677009 
L 366.935537 223.434306 
L 362.836364 222.185315 
L 358.73719 220.931798 
L 354.638017 219.674368 
L 350.538843 218.412212 
L 346.439669 217.146561 
L 342.340496 215.874957 
L 338.241322 214.596862 
L 334.142149 213.327057 
L 330.042975 212.050445 
L 325.943802 210.770319 
L 321.844628 209.485096 
L 317.745455 208.190582 
L 313.646281 206.888778 
L 309.547107 205.578682 
L 305.447934 204.263417 
L 301.34876 202.950538 
L 297.249587 201.637653 
L 293.150413 200.322372 
L 289.05124 199.002745 
L 284.952066 197.680574 
L 280.852893 196.355126 
L 276.753719 195.027187 
L 272.654545 193.696255 
L 268.555372 192.361465 
L 264.456198 191.022752 
L 260.357025 189.676893 
L 256.257851 188.327706 
L 252.158678 186.978349 
L 248.059504 185.631374 
L 243.960331 184.287442 
L 239.861157 182.948198 
L 235.761983 181.614327 
L 231.66281 180.285965 
L 227.563636 178.963981 
L 223.464463 177.649112 
L 219.365289 176.333896 
L 215.266116 175.017055 
L 211.166942 173.699156 
L 207.067769 172.383905 
L 202.968595 171.07409 
L 198.869421 169.772345 
L 194.770248 168.480917 
L 190.671074 167.20686 
L 186.571901 165.955703 
L 182.472727 164.734759 
L 178.373554 163.549546 
L 174.27438 162.405071 
L 170.175207 161.313994 
L 166.076033 160.245437 
L 161.97686 159.198156 
L 157.877686 158.175969 
L 153.778512 157.166513 
L 149.679339 156.171092 
L 145.580165 155.204901 
L 141.480992 154.280228 
L 137.381818 153.44026 
L 133.282645 152.631995 
L 129.183471 151.837114 
L 125.084298 151.050345 
L 120.985124 150.267212 
L 116.88595 149.48408 
L 112.786777 148.700947 
L 108.687603 147.917814 
L 104.58843 147.134682 
L 100.489256 146.351549 
L 96.390083 145.568416 
L 92.290909 144.785284 
z
" style="fill:#c6dbef;"/>
   </g>
   <g id="PolyCollection_5">
    <path clip-path="url(#pbe0e9967f6)" d="M 92.290909 144.070778 
L 92.290909 144.785284 
L 96.390083 145.568416 
L 100.489256 146.351549 
L 104.58843 147.134682 
L 108.687603 147.917814 
L 112.786777 148.700947 
L 116.88595 149.48408 
L 120.985124 150.267212 
L 125.084298 151.050345 
L 129.183471 151.837114 
L 133.282645 152.631995 
L 137.381818 153.44026 
L 141.480992 154.280228 
L 145.580165 155.204901 
L 149.679339 156.171092 
L 153.778512 157.166513 
L 157.877686 158.175969 
L 161.97686 159.198156 
L 166.076033 160.245437 
L 170.175207 161.313994 
L 174.27438 162.405071 
L 178.373554 163.549546 
L 182.472727 164.734759 
L 186.571901 165.955703 
L 190.671074 167.20686 
L 194.770248 168.480917 
L 198.869421 169.772345 
L 202.968595 171.07409 
L 207.067769 172.383905 
L 211.166942 173.699156 
L 215.266116 175.017055 
L 219.365289 176.333896 
L 223.464463 177.649112 
L 227.563636 178.963981 
L 231.66281 180.285965 
L 235.761983 181.614327 
L 239.861157 182.948198 
L 243.960331 184.287442 
L 248.059504 185.631374 
L 252.158678 186.978349 
L 256.257851 188.327706 
L 260.357025 189.676893 
L 264.456198 191.022752 
L 268.555372 192.361465 
L 272.654545 193.696255 
L 276.753719 195.027187 
L 280.852893 196.355126 
L 284.952066 197.680574 
L 289.05124 199.002745 
L 293.150413 200.322372 
L 297.249587 201.637653 
L 301.34876 202.950538 
L 305.447934 204.263417 
L 309.547107 205.578682 
L 313.646281 206.888778 
L 317.745455 208.190582 
L 321.844628 209.485096 
L 325.943802 210.770319 
L 330.042975 212.050445 
L 334.142149 213.327057 
L 338.241322 214.596862 
L 342.340496 215.874957 
L 346.439669 217.146561 
L 350.538843 218.412212 
L 354.638017 219.674368 
L 358.73719 220.931798 
L 362.836364 222.185315 
L 366.935537 223.434306 
L 371.034711 224.677009 
L 375.133884 225.914327 
L 379.233058 227.14388 
L 383.332231 228.366725 
L 387.431405 229.584123 
L 391.530579 230.795154 
L 395.629752 231.999082 
L 399.728926 233.196487 
L 403.828099 234.387183 
L 407.927273 235.572577 
L 412.026446 236.753721 
L 416.12562 237.929907 
L 420.224793 239.099267 
L 424.323967 240.263335 
L 428.42314 241.423769 
L 432.522314 242.581645 
L 436.621488 243.735602 
L 440.720661 244.882486 
L 444.819835 246.022163 
L 448.919008 247.158148 
L 453.018182 248.28962 
L 457.117355 249.416281 
L 461.216529 250.536176 
L 465.315702 251.64832 
L 469.414876 252.752572 
L 473.51405 253.850771 
L 477.613223 254.943803 
L 481.712397 256.032125 
L 485.81157 257.117254 
L 489.910744 258.198412 
L 494.009917 259.274799 
L 498.109091 260.343693 
L 498.109091 259.629284 
L 498.109091 259.629284 
L 494.009917 258.560389 
L 489.910744 257.484001 
L 485.81157 256.402834 
L 481.712397 255.317694 
L 477.613223 254.229362 
L 473.51405 253.136321 
L 469.414876 252.038122 
L 465.315702 250.933869 
L 461.216529 249.821725 
L 457.117355 248.70183 
L 453.018182 247.575168 
L 448.919008 246.443696 
L 444.819835 245.30771 
L 440.720661 244.16803 
L 436.621488 243.021144 
L 432.522314 241.867187 
L 428.42314 240.70931 
L 424.323967 239.548874 
L 420.224793 238.384804 
L 416.12562 237.215442 
L 412.026446 236.039254 
L 407.927273 234.858109 
L 403.828099 233.672714 
L 399.728926 232.482017 
L 395.629752 231.284612 
L 391.530579 230.080684 
L 387.431405 228.869652 
L 383.332231 227.652253 
L 379.233058 226.429408 
L 375.133884 225.199854 
L 371.034711 223.962535 
L 366.935537 222.719831 
L 362.836364 221.470839 
L 358.73719 220.217321 
L 354.638017 218.959891 
L 350.538843 217.697735 
L 346.439669 216.432084 
L 342.340496 215.16048 
L 338.241322 213.882385 
L 334.142149 212.612579 
L 330.042975 211.335967 
L 325.943802 210.05584 
L 321.844628 208.770617 
L 317.745455 207.4761 
L 313.646281 206.174293 
L 309.547107 204.864194 
L 305.447934 203.548926 
L 301.34876 202.236044 
L 297.249587 200.923157 
L 293.150413 199.607876 
L 289.05124 198.288247 
L 284.952066 196.966075 
L 280.852893 195.640626 
L 276.753719 194.312686 
L 272.654545 192.981754 
L 268.555372 191.646964 
L 264.456198 190.308251 
L 260.357025 188.962392 
L 256.257851 187.613204 
L 252.158678 186.263845 
L 248.059504 184.916869 
L 243.960331 183.572937 
L 239.861157 182.233692 
L 235.761983 180.899822 
L 231.66281 179.571459 
L 227.563636 178.249475 
L 223.464463 176.934607 
L 219.365289 175.619391 
L 215.266116 174.302549 
L 211.166942 172.98465 
L 207.067769 171.669399 
L 202.968595 170.359584 
L 198.869421 169.057839 
L 194.770248 167.766412 
L 190.671074 166.492354 
L 186.571901 165.241197 
L 182.472727 164.020253 
L 178.373554 162.83504 
L 174.27438 161.690565 
L 170.175207 160.599489 
L 166.076033 159.530931 
L 161.97686 158.48365 
L 157.877686 157.461464 
L 153.778512 156.452008 
L 149.679339 155.456587 
L 145.580165 154.490395 
L 141.480992 153.565722 
L 137.381818 152.725755 
L 133.282645 151.917489 
L 129.183471 151.122609 
L 125.084298 150.335839 
L 120.985124 149.552707 
L 116.88595 148.769574 
L 112.786777 147.986441 
L 108.687603 147.203309 
L 104.58843 146.420176 
L 100.489256 145.637043 
L 96.390083 144.853911 
L 92.290909 144.070778 
z
" style="fill:#e6550d;"/>
   </g>
   <g id="PolyCollection_6">
    <path clip-path="url(#pbe0e9967f6)" d="M 92.290909 143.206247 
L 92.290909 144.070778 
L 96.390083 144.853911 
L 100.489256 145.637043 
L 104.58843 146.420176 
L 108.687603 147.203309 
L 112.786777 147.986441 
L 116.88595 148.769574 
L 120.985124 149.552707 
L 125.084298 150.335839 
L 129.183471 151.122609 
L 133.282645 151.917489 
L 137.381818 152.725755 
L 141.480992 153.565722 
L 145.580165 154.490395 
L 149.679339 155.456587 
L 153.778512 156.452008 
L 157.877686 157.461464 
L 161.97686 158.48365 
L 166.076033 159.530931 
L 170.175207 160.599489 
L 174.27438 161.690565 
L 178.373554 162.83504 
L 182.472727 164.020253 
L 186.571901 165.241197 
L 190.671074 166.492354 
L 194.770248 167.766412 
L 198.869421 169.057839 
L 202.968595 170.359584 
L 207.067769 171.669399 
L 211.166942 172.98465 
L 215.266116 174.302549 
L 219.365289 175.619391 
L 223.464463 176.934607 
L 227.563636 178.249475 
L 231.66281 179.571459 
L 235.761983 180.899822 
L 239.861157 182.233692 
L 243.960331 183.572937 
L 248.059504 184.916869 
L 252.158678 186.263845 
L 256.257851 187.613204 
L 260.357025 188.962392 
L 264.456198 190.308251 
L 268.555372 191.646964 
L 272.654545 192.981754 
L 276.753719 194.312686 
L 280.852893 195.640626 
L 284.952066 196.966075 
L 289.05124 198.288247 
L 293.150413 199.607876 
L 297.249587 200.923157 
L 301.34876 202.236044 
L 305.447934 203.548926 
L 309.547107 204.864194 
L 313.646281 206.174293 
L 317.745455 207.4761 
L 321.844628 208.770617 
L 325.943802 210.05584 
L 330.042975 211.335967 
L 334.142149 212.612579 
L 338.241322 213.882385 
L 342.340496 215.16048 
L 346.439669 216.432084 
L 350.538843 217.697735 
L 354.638017 218.959891 
L 358.73719 220.217321 
L 362.836364 221.470839 
L 366.935537 222.719831 
L 371.034711 223.962535 
L 375.133884 225.199854 
L 379.233058 226.429408 
L 383.332231 227.652253 
L 387.431405 228.869652 
L 391.530579 230.080684 
L 395.629752 231.284612 
L 399.728926 232.482017 
L 403.828099 233.672714 
L 407.927273 234.858109 
L 412.026446 236.039254 
L 416.12562 237.215442 
L 420.224793 238.384804 
L 424.323967 239.548874 
L 428.42314 240.70931 
L 432.522314 241.867187 
L 436.621488 243.021144 
L 440.720661 244.16803 
L 444.819835 245.30771 
L 448.919008 246.443696 
L 453.018182 247.575168 
L 457.117355 248.70183 
L 461.216529 249.821725 
L 465.315702 250.933869 
L 469.414876 252.038122 
L 473.51405 253.136321 
L 477.613223 254.229362 
L 481.712397 255.317694 
L 485.81157 256.402834 
L 489.910744 257.484001 
L 494.009917 258.560389 
L 498.109091 259.629284 
L 498.109091 258.765315 
L 498.109091 258.765315 
L 494.009917 257.696403 
L 489.910744 256.620002 
L 485.81157 255.538826 
L 481.712397 254.453678 
L 477.613223 253.365339 
L 473.51405 252.272294 
L 469.414876 251.174082 
L 465.315702 250.069818 
L 461.216529 248.95767 
L 457.117355 247.83777 
L 453.018182 246.711104 
L 448.919008 245.579628 
L 444.819835 244.443637 
L 440.720661 243.303953 
L 436.621488 242.157062 
L 432.522314 241.003099 
L 428.42314 239.845216 
L 424.323967 238.684775 
L 420.224793 237.520699 
L 416.12562 236.35133 
L 412.026446 235.175136 
L 407.927273 233.993984 
L 403.828099 232.808582 
L 399.728926 231.617877 
L 395.629752 230.420465 
L 391.530579 229.21653 
L 387.431405 228.005491 
L 383.332231 226.788085 
L 379.233058 225.565231 
L 375.133884 224.33567 
L 371.034711 223.098344 
L 366.935537 221.855632 
L 362.836364 220.606633 
L 358.73719 219.353107 
L 354.638017 218.095668 
L 350.538843 216.833504 
L 346.439669 215.567846 
L 342.340496 214.296235 
L 338.241322 213.018133 
L 334.142149 211.74832 
L 330.042975 210.471701 
L 325.943802 209.191567 
L 321.844628 207.906337 
L 317.745455 206.611814 
L 313.646281 205.309999 
L 309.547107 203.999894 
L 305.447934 202.68462 
L 301.34876 201.37173 
L 297.249587 200.058835 
L 293.150413 198.743543 
L 289.05124 197.423904 
L 284.952066 196.101722 
L 280.852893 194.776263 
L 276.753719 193.448312 
L 272.654545 192.11737 
L 268.555372 190.782569 
L 264.456198 189.443846 
L 260.357025 188.097977 
L 256.257851 186.74878 
L 252.158678 185.399413 
L 248.059504 184.052427 
L 243.960331 182.708485 
L 239.861157 181.369232 
L 235.761983 180.035353 
L 231.66281 178.706982 
L 227.563636 177.384991 
L 223.464463 176.070116 
L 219.365289 174.754893 
L 215.266116 173.438045 
L 211.166942 172.12014 
L 207.067769 170.804883 
L 202.968595 169.495066 
L 198.869421 168.193317 
L 194.770248 166.901887 
L 190.671074 165.627827 
L 186.571901 164.376669 
L 182.472727 163.155724 
L 178.373554 161.970511 
L 174.27438 160.826035 
L 170.175207 159.734958 
L 166.076033 158.666401 
L 161.97686 157.61912 
L 157.877686 156.596933 
L 153.778512 155.587477 
L 149.679339 154.592056 
L 145.580165 153.625865 
L 141.480992 152.701191 
L 137.381818 151.861224 
L 133.282645 151.052958 
L 129.183471 150.258078 
L 125.084298 149.471309 
L 120.985124 148.688176 
L 116.88595 147.905043 
L 112.786777 147.12191 
L 108.687603 146.338778 
L 104.58843 145.555645 
L 100.489256 144.772512 
L 96.390083 143.98938 
L 92.290909 143.206247 
z
" style="fill:#fd8d3c;"/>
   </g>
   <g id="PolyCollection_7">
    <path clip-path="url(#pbe0e9967f6)" d="M 92.290909 141.486281 
L 92.290909 143.206247 
L 96.390083 143.98938 
L 100.489256 144.772512 
L 104.58843 145.555645 
L 108.687603 146.338778 
L 112.786777 147.12191 
L 116.88595 147.905043 
L 120.985124 148.688176 
L 125.084298 149.471309 
L 129.183471 150.258078 
L 133.282645 151.052958 
L 137.381818 151.861224 
L 141.480992 152.701191 
L 145.580165 153.625865 
L 149.679339 154.592056 
L 153.778512 155.587477 
L 157.877686 156.596933 
L 161.97686 157.61912 
L 166.076033 158.666401 
L 170.175207 159.734958 
L 174.27438 160.826035 
L 178.373554 161.970511 
L 182.472727 163.155724 
L 186.571901 164.376669 
L 190.671074 165.627827 
L 194.770248 166.901887 
L 198.869421 168.193317 
L 202.968595 169.495066 
L 207.067769 170.804883 
L 211.166942 172.12014 
L 215.266116 173.438045 
L 219.365289 174.754893 
L 223.464463 176.070116 
L 227.563636 177.384991 
L 231.66281 178.706982 
L 235.761983 180.035353 
L 239.861157 181.369232 
L 243.960331 182.708485 
L 248.059504 184.052427 
L 252.158678 185.399413 
L 256.257851 186.74878 
L 260.357025 188.097977 
L 264.456198 189.443846 
L 268.555372 190.782569 
L 272.654545 192.11737 
L 276.753719 193.448312 
L 280.852893 194.776263 
L 284.952066 196.101722 
L 289.05124 197.423904 
L 293.150413 198.743543 
L 297.249587 200.058835 
L 301.34876 201.37173 
L 305.447934 202.68462 
L 309.547107 203.999894 
L 313.646281 205.309999 
L 317.745455 206.611814 
L 321.844628 207.906337 
L 325.943802 209.191567 
L 330.042975 210.471701 
L 334.142149 211.74832 
L 338.241322 213.018133 
L 342.340496 214.296235 
L 346.439669 215.567846 
L 350.538843 216.833504 
L 354.638017 218.095668 
L 358.73719 219.353107 
L 362.836364 220.606633 
L 366.935537 221.855632 
L 371.034711 223.098344 
L 375.133884 224.33567 
L 379.233058 225.565231 
L 383.332231 226.788085 
L 387.431405 228.005491 
L 391.530579 229.21653 
L 395.629752 230.420465 
L 399.728926 231.617877 
L 403.828099 232.808582 
L 407.927273 233.993984 
L 412.026446 235.175136 
L 416.12562 236.35133 
L 420.224793 237.520699 
L 424.323967 238.684775 
L 428.42314 239.845216 
L 432.522314 241.003099 
L 436.621488 242.157062 
L 440.720661 243.303953 
L 444.819835 244.443637 
L 448.919008 245.579628 
L 453.018182 246.711104 
L 457.117355 247.83777 
L 461.216529 248.95767 
L 465.315702 250.069818 
L 469.414876 251.174082 
L 473.51405 252.272294 
L 477.613223 253.365339 
L 481.712397 254.453678 
L 485.81157 255.538826 
L 489.910744 256.620002 
L 494.009917 257.696403 
L 498.109091 258.765315 
L 498.109091 258.765315 
L 498.109091 258.765315 
L 494.009917 257.679054 
L 489.910744 256.585298 
L 485.81157 255.48677 
L 481.712397 254.384269 
L 477.613223 253.27857 
L 473.51405 252.16816 
L 469.414876 251.052593 
L 465.315702 249.93097 
L 461.216529 248.801432 
L 457.117355 247.664173 
L 453.018182 246.520148 
L 448.919008 245.371311 
L 444.819835 244.217961 
L 440.720661 243.060917 
L 436.621488 241.896664 
L 432.522314 240.725339 
L 428.42314 239.550093 
L 424.323967 238.372288 
L 420.224793 237.190848 
L 416.12562 236.004116 
L 412.026446 234.810559 
L 407.927273 233.612044 
L 403.828099 232.40928 
L 399.728926 231.201212 
L 395.629752 229.986431 
L 391.530579 228.765128 
L 387.431405 227.53672 
L 383.332231 226.301945 
L 379.233058 225.061726 
L 375.133884 223.814799 
L 371.034711 222.560103 
L 366.935537 221.300022 
L 362.836364 220.033651 
L 358.73719 218.762753 
L 354.638017 217.487942 
L 350.538843 216.208406 
L 346.439669 214.925373 
L 342.340496 213.636388 
L 338.241322 212.340913 
L 334.142149 211.053725 
L 330.042975 209.759732 
L 325.943802 208.462227 
L 321.844628 207.159623 
L 317.745455 205.847725 
L 313.646281 204.528537 
L 309.547107 203.201052 
L 305.447934 201.868398 
L 301.34876 200.53813 
L 297.249587 199.207855 
L 293.150413 197.875185 
L 289.05124 196.538167 
L 284.952066 195.198606 
L 280.852893 193.855774 
L 276.753719 192.510447 
L 272.654545 191.162129 
L 268.555372 189.809953 
L 264.456198 188.453854 
L 260.357025 187.090607 
L 256.257851 185.724027 
L 252.158678 184.357278 
L 248.059504 182.992911 
L 243.960331 181.63158 
L 239.861157 180.274938 
L 235.761983 178.923668 
L 231.66281 177.577911 
L 227.563636 176.23853 
L 223.464463 174.906263 
L 219.365289 173.573654 
L 215.266116 172.239424 
L 211.166942 170.904136 
L 207.067769 169.571491 
L 202.968595 168.244278 
L 198.869421 166.925139 
L 194.770248 165.616321 
L 190.671074 164.324876 
L 186.571901 163.056328 
L 182.472727 161.817995 
L 178.373554 160.615401 
L 174.27438 159.453545 
L 170.175207 158.345089 
L 166.076033 157.259157 
L 161.97686 156.194501 
L 157.877686 155.154941 
L 153.778512 154.128112 
L 149.679339 153.115318 
L 145.580165 152.131753 
L 141.480992 151.189706 
L 137.381818 150.332365 
L 133.282645 149.506726 
L 129.183471 148.694472 
L 125.084298 147.89033 
L 120.985124 147.089824 
L 116.88595 146.289318 
L 112.786777 145.488812 
L 108.687603 144.688305 
L 104.58843 143.887799 
L 100.489256 143.087293 
L 96.390083 142.286787 
L 92.290909 141.486281 
z
" style="fill:#fdae6b;"/>
   </g>
   <g id="PolyCollection_8">
    <path clip-path="url(#pbe0e9967f6)" d="M 92.290909 136.988261 
L 92.290909 141.486281 
L 96.390083 142.286787 
L 100.489256 143.087293 
L 104.58843 143.887799 
L 108.687603 144.688305 
L 112.786777 145.488812 
L 116.88595 146.289318 
L 120.985124 147.089824 
L 125.084298 147.89033 
L 129.183471 148.694472 
L 133.282645 149.506726 
L 137.381818 150.332365 
L 141.480992 151.189706 
L 145.580165 152.131753 
L 149.679339 153.115318 
L 153.778512 154.128112 
L 157.877686 155.154941 
L 161.97686 156.194501 
L 166.076033 157.259157 
L 170.175207 158.345089 
L 174.27438 159.453545 
L 178.373554 160.615401 
L 182.472727 161.817995 
L 186.571901 163.056328 
L 190.671074 164.324876 
L 194.770248 165.616321 
L 198.869421 166.925139 
L 202.968595 168.244278 
L 207.067769 169.571491 
L 211.166942 170.904136 
L 215.266116 172.239424 
L 219.365289 173.573654 
L 223.464463 174.906263 
L 227.563636 176.23853 
L 231.66281 177.577911 
L 235.761983 178.923668 
L 239.861157 180.274938 
L 243.960331 181.63158 
L 248.059504 182.992911 
L 252.158678 184.357278 
L 256.257851 185.724027 
L 260.357025 187.090607 
L 264.456198 188.453854 
L 268.555372 189.809953 
L 272.654545 191.162129 
L 276.753719 192.510447 
L 280.852893 193.855774 
L 284.952066 195.198606 
L 289.05124 196.538167 
L 293.150413 197.875185 
L 297.249587 199.207855 
L 301.34876 200.53813 
L 305.447934 201.868398 
L 309.547107 203.201052 
L 313.646281 204.528537 
L 317.745455 205.847725 
L 321.844628 207.159623 
L 325.943802 208.462227 
L 330.042975 209.759732 
L 334.142149 211.053725 
L 338.241322 212.340913 
L 342.340496 213.636388 
L 346.439669 214.925373 
L 350.538843 216.208406 
L 354.638017 217.487942 
L 358.73719 218.762753 
L 362.836364 220.033651 
L 366.935537 221.300022 
L 371.034711 222.560103 
L 375.133884 223.814799 
L 379.233058 225.061726 
L 383.332231 226.301945 
L 387.431405 227.53672 
L 391.530579 228.765128 
L 395.629752 229.986431 
L 399.728926 231.201212 
L 403.828099 232.40928 
L 407.927273 233.612044 
L 412.026446 234.810559 
L 416.12562 236.004116 
L 420.224793 237.190848 
L 424.323967 238.372288 
L 428.42314 239.550093 
L 432.522314 240.725339 
L 436.621488 241.896664 
L 440.720661 243.060917 
L 444.819835 244.217961 
L 448.919008 245.371311 
L 453.018182 246.520148 
L 457.117355 247.664173 
L 461.216529 248.801432 
L 465.315702 249.93097 
L 469.414876 251.052593 
L 473.51405 252.16816 
L 477.613223 253.27857 
L 481.712397 254.384269 
L 485.81157 255.48677 
L 489.910744 256.585298 
L 494.009917 257.679054 
L 498.109091 258.765315 
L 498.109091 254.267295 
L 498.109091 254.267295 
L 494.009917 253.181034 
L 489.910744 252.087278 
L 485.81157 250.988749 
L 481.712397 249.886249 
L 477.613223 248.78055 
L 473.51405 247.67014 
L 469.414876 246.554573 
L 465.315702 245.432949 
L 461.216529 244.303412 
L 457.117355 243.166153 
L 453.018182 242.022127 
L 448.919008 240.873291 
L 444.819835 239.719941 
L 440.720661 238.562897 
L 436.621488 237.398644 
L 432.522314 236.227318 
L 428.42314 235.052073 
L 424.323967 233.874268 
L 420.224793 232.692828 
L 416.12562 231.506096 
L 412.026446 230.312539 
L 407.927273 229.114024 
L 403.828099 227.91126 
L 399.728926 226.703192 
L 395.629752 225.488411 
L 391.530579 224.267108 
L 387.431405 223.0387 
L 383.332231 221.803925 
L 379.233058 220.563706 
L 375.133884 219.316779 
L 371.034711 218.062083 
L 366.935537 216.802002 
L 362.836364 215.535631 
L 358.73719 214.264733 
L 354.638017 212.989922 
L 350.538843 211.710385 
L 346.439669 210.427353 
L 342.340496 209.138368 
L 338.241322 207.842893 
L 334.142149 206.555705 
L 330.042975 205.261712 
L 325.943802 203.964207 
L 321.844628 202.661602 
L 317.745455 201.349705 
L 313.646281 200.030517 
L 309.547107 198.703032 
L 305.447934 197.370378 
L 301.34876 196.04011 
L 297.249587 194.709835 
L 293.150413 193.377165 
L 289.05124 192.040147 
L 284.952066 190.700586 
L 280.852893 189.357754 
L 276.753719 188.012427 
L 272.654545 186.664109 
L 268.555372 185.311933 
L 264.456198 183.955834 
L 260.357025 182.592587 
L 256.257851 181.226007 
L 252.158678 179.859258 
L 248.059504 178.494891 
L 243.960331 177.13356 
L 239.861157 175.776918 
L 235.761983 174.425648 
L 231.66281 173.079891 
L 227.563636 171.74051 
L 223.464463 170.408243 
L 219.365289 169.075634 
L 215.266116 167.741404 
L 211.166942 166.406115 
L 207.067769 165.073471 
L 202.968595 163.746258 
L 198.869421 162.427119 
L 194.770248 161.1183 
L 190.671074 159.826856 
L 186.571901 158.558308 
L 182.472727 157.319975 
L 178.373554 156.11738 
L 174.27438 154.955525 
L 170.175207 153.847069 
L 166.076033 152.761137 
L 161.97686 151.696481 
L 157.877686 150.656921 
L 153.778512 149.630092 
L 149.679339 148.617297 
L 145.580165 147.633733 
L 141.480992 146.691686 
L 137.381818 145.834345 
L 133.282645 145.008706 
L 129.183471 144.196452 
L 125.084298 143.39231 
L 120.985124 142.591804 
L 116.88595 141.791297 
L 112.786777 140.990791 
L 108.687603 140.190285 
L 104.58843 139.389779 
L 100.489256 138.589273 
L 96.390083 137.788767 
L 92.290909 136.988261 
z
" style="fill:#fdd0a2;"/>
   </g>
   <g id="PolyCollection_9">
    <path clip-path="url(#pbe0e9967f6)" d="M 92.290909 135.36 
L 92.290909 136.988261 
L 96.390083 137.788767 
L 100.489256 138.589273 
L 104.58843 139.389779 
L 108.687603 140.190285 
L 112.786777 140.990791 
L 116.88595 141.791297 
L 120.985124 142.591804 
L 125.084298 143.39231 
L 129.183471 144.196452 
L 133.282645 145.008706 
L 137.381818 145.834345 
L 141.480992 146.691686 
L 145.580165 147.633733 
L 149.679339 148.617297 
L 153.778512 149.630092 
L 157.877686 150.656921 
L 161.97686 151.696481 
L 166.076033 152.761137 
L 170.175207 153.847069 
L 174.27438 154.955525 
L 178.373554 156.11738 
L 182.472727 157.319975 
L 186.571901 158.558308 
L 190.671074 159.826856 
L 194.770248 161.1183 
L 198.869421 162.427119 
L 202.968595 163.746258 
L 207.067769 165.073471 
L 211.166942 166.406115 
L 215.266116 167.741404 
L 219.365289 169.075634 
L 223.464463 170.408243 
L 227.563636 171.74051 
L 231.66281 173.079891 
L 235.761983 174.425648 
L 239.861157 175.776918 
L 243.960331 177.13356 
L 248.059504 178.494891 
L 252.158678 179.859258 
L 256.257851 181.226007 
L 260.357025 182.592587 
L 264.456198 183.955834 
L 268.555372 185.311933 
L 272.654545 186.664109 
L 276.753719 188.012427 
L 280.852893 189.357754 
L 284.952066 190.700586 
L 289.05124 192.040147 
L 293.150413 193.377165 
L 297.249587 194.709835 
L 301.34876 196.04011 
L 305.447934 197.370378 
L 309.547107 198.703032 
L 313.646281 200.030517 
L 317.745455 201.349705 
L 321.844628 202.661602 
L 325.943802 203.964207 
L 330.042975 205.261712 
L 334.142149 206.555705 
L 338.241322 207.842893 
L 342.340496 209.138368 
L 346.439669 210.427353 
L 350.538843 211.710385 
L 354.638017 212.989922 
L 358.73719 214.264733 
L 362.836364 215.535631 
L 366.935537 216.802002 
L 371.034711 218.062083 
L 375.133884 219.316779 
L 379.233058 220.563706 
L 383.332231 221.803925 
L 387.431405 223.0387 
L 391.530579 224.267108 
L 395.629752 225.488411 
L 399.728926 226.703192 
L 403.828099 227.91126 
L 407.927273 229.114024 
L 412.026446 230.312539 
L 416.12562 231.506096 
L 420.224793 232.692828 
L 424.323967 233.874268 
L 428.42314 235.052073 
L 432.522314 236.227318 
L 436.621488 237.398644 
L 440.720661 238.562897 
L 444.819835 239.719941 
L 448.919008 240.873291 
L 453.018182 242.022127 
L 457.117355 243.166153 
L 461.216529 244.303412 
L 465.315702 245.432949 
L 469.414876 246.554573 
L 473.51405 247.67014 
L 477.613223 248.78055 
L 481.712397 249.886249 
L 485.81157 250.988749 
L 489.910744 252.087278 
L 494.009917 253.181034 
L 498.109091 254.267295 
L 498.109091 254.267295 
L 498.109091 254.267295 
L 494.009917 253.164587 
L 489.910744 252.054383 
L 485.81157 250.939408 
L 481.712397 249.820461 
L 477.613223 248.698315 
L 473.51405 247.571457 
L 469.414876 246.439443 
L 465.315702 245.301373 
L 461.216529 244.155389 
L 457.117355 243.001682 
L 453.018182 241.841209 
L 448.919008 240.675926 
L 444.819835 239.506129 
L 440.720661 238.332637 
L 436.621488 237.151938 
L 432.522314 235.964165 
L 428.42314 234.772473 
L 424.323967 233.578221 
L 420.224793 232.380333 
L 416.12562 231.177154 
L 412.026446 229.96715 
L 407.927273 228.752188 
L 403.828099 227.532977 
L 399.728926 226.308462 
L 395.629752 225.077234 
L 391.530579 223.839484 
L 387.431405 222.594629 
L 383.332231 221.343407 
L 379.233058 220.08674 
L 375.133884 218.823366 
L 371.034711 217.552224 
L 366.935537 216.275695 
L 362.836364 214.992877 
L 358.73719 213.705532 
L 354.638017 212.414274 
L 350.538843 211.118291 
L 346.439669 209.818811 
L 342.340496 208.513379 
L 338.241322 207.201457 
L 334.142149 205.897822 
L 330.042975 204.587382 
L 325.943802 203.27343 
L 321.844628 201.954378 
L 317.745455 200.626034 
L 313.646281 199.290398 
L 309.547107 197.946466 
L 305.447934 196.597365 
L 301.34876 195.25065 
L 297.249587 193.903928 
L 293.150413 192.554811 
L 289.05124 191.201346 
L 284.952066 189.845338 
L 280.852893 188.486059 
L 276.753719 187.124284 
L 272.654545 185.759519 
L 268.555372 184.390896 
L 264.456198 183.018351 
L 260.357025 181.638656 
L 256.257851 180.255629 
L 252.158678 178.872433 
L 248.059504 177.491619 
L 243.960331 176.113841 
L 239.861157 174.740752 
L 235.761983 173.373035 
L 231.66281 172.010831 
L 227.563636 170.655002 
L 223.464463 169.306289 
L 219.365289 167.957233 
L 215.266116 166.606555 
L 211.166942 165.25482 
L 207.067769 163.905728 
L 202.968595 162.562068 
L 198.869421 161.226482 
L 194.770248 159.901216 
L 190.671074 158.593325 
L 186.571901 157.30833 
L 182.472727 156.05355 
L 178.373554 154.834508 
L 174.27438 153.656206 
L 170.175207 152.531303 
L 166.076033 151.428923 
L 161.97686 150.347821 
L 157.877686 149.291814 
L 153.778512 148.248537 
L 149.679339 147.219296 
L 145.580165 146.219284 
L 141.480992 145.26079 
L 137.381818 144.387002 
L 133.282645 143.544916 
L 129.183471 142.716215 
L 125.084298 141.895625 
L 120.985124 141.078672 
L 116.88595 140.261719 
L 112.786777 139.444766 
L 108.687603 138.627813 
L 104.58843 137.81086 
L 100.489256 136.993906 
L 96.390083 136.176953 
L 92.290909 135.36 
z
" style="fill:#31a354;"/>
   </g>
   <g id="PolyCollection_10">
    <path clip-path="url(#pbe0e9967f6)" d="M 92.290909 135.36 
L 92.290909 135.36 
L 96.390083 136.176953 
L 100.489256 136.993906 
L 104.58843 137.81086 
L 108.687603 138.627813 
L 112.786777 139.444766 
L 116.88595 140.261719 
L 120.985124 141.078672 
L 125.084298 141.895625 
L 129.183471 142.716215 
L 133.282645 143.544916 
L 137.381818 144.387002 
L 141.480992 145.26079 
L 145.580165 146.219284 
L 149.679339 147.219296 
L 153.778512 148.248537 
L 157.877686 149.291814 
L 161.97686 150.347821 
L 166.076033 151.428923 
L 170.175207 152.531303 
L 174.27438 153.656206 
L 178.373554 154.834508 
L 182.472727 156.05355 
L 186.571901 157.30833 
L 190.671074 158.593325 
L 194.770248 159.901216 
L 198.869421 161.226482 
L 202.968595 162.562068 
L 207.067769 163.905728 
L 211.166942 165.25482 
L 215.266116 166.606555 
L 219.365289 167.957233 
L 223.464463 169.306289 
L 227.563636 170.655002 
L 231.66281 172.010831 
L 235.761983 173.373035 
L 239.861157 174.740752 
L 243.960331 176.113841 
L 248.059504 177.491619 
L 252.158678 178.872433 
L 256.257851 180.255629 
L 260.357025 181.638656 
L 264.456198 183.018351 
L 268.555372 184.390896 
L 272.654545 185.759519 
L 276.753719 187.124284 
L 280.852893 188.486059 
L 284.952066 189.845338 
L 289.05124 191.201346 
L 293.150413 192.554811 
L 297.249587 193.903928 
L 301.34876 195.25065 
L 305.447934 196.597365 
L 309.547107 197.946466 
L 313.646281 199.290398 
L 317.745455 200.626034 
L 321.844628 201.954378 
L 325.943802 203.27343 
L 330.042975 204.587382 
L 334.142149 205.897822 
L 338.241322 207.201457 
L 342.340496 208.513379 
L 346.439669 209.818811 
L 350.538843 211.118291 
L 354.638017 212.414274 
L 358.73719 213.705532 
L 362.836364 214.992877 
L 366.935537 216.275695 
L 371.034711 217.552224 
L 375.133884 218.823366 
L 379.233058 220.08674 
L 383.332231 221.343407 
L 387.431405 222.594629 
L 391.530579 223.839484 
L 395.629752 225.077234 
L 399.728926 226.308462 
L 403.828099 227.532977 
L 407.927273 228.752188 
L 412.026446 229.96715 
L 416.12562 231.177154 
L 420.224793 232.380333 
L 424.323967 233.578221 
L 428.42314 234.772473 
L 432.522314 235.964165 
L 436.621488 237.151938 
L 440.720661 238.332637 
L 444.819835 239.506129 
L 448.919008 240.675926 
L 453.018182 241.841209 
L 457.117355 243.001682 
L 461.216529 244.155389 
L 465.315702 245.301373 
L 469.414876 246.439443 
L 473.51405 247.571457 
L 477.613223 248.698315 
L 481.712397 249.820461 
L 485.81157 250.939408 
L 489.910744 252.054383 
L 494.009917 253.164587 
L 498.109091 254.267295 
L 498.109091 248.73649 
L 498.109091 248.73649 
L 494.009917 247.682312 
L 489.910744 246.620848 
L 485.81157 245.554767 
L 481.712397 244.485042 
L 477.613223 243.412411 
L 473.51405 242.33536 
L 469.414876 241.25339 
L 465.315702 240.165704 
L 461.216529 239.07041 
L 457.117355 237.967627 
L 453.018182 236.858369 
L 448.919008 235.744514 
L 444.819835 234.626445 
L 440.720661 233.505056 
L 436.621488 232.376581 
L 432.522314 231.241204 
L 428.42314 230.102218 
L 424.323967 228.960917 
L 420.224793 227.816285 
L 416.12562 226.666576 
L 412.026446 225.510178 
L 407.927273 224.349092 
L 403.828099 223.183943 
L 399.728926 222.013712 
L 395.629752 220.836908 
L 391.530579 219.653789 
L 387.431405 218.463759 
L 383.332231 217.267468 
L 379.233058 216.065894 
L 375.133884 214.8578 
L 371.034711 213.642036 
L 366.935537 212.421053 
L 362.836364 211.193906 
L 358.73719 209.962372 
L 354.638017 208.727053 
L 350.538843 207.487105 
L 346.439669 206.243888 
L 342.340496 204.994844 
L 338.241322 203.739465 
L 334.142149 202.492504 
L 330.042975 201.238977 
L 325.943802 199.982006 
L 321.844628 198.719946 
L 317.745455 197.44863 
L 313.646281 196.170153 
L 309.547107 194.883424 
L 305.447934 193.591603 
L 301.34876 192.302217 
L 297.249587 191.012861 
L 293.150413 189.721108 
L 289.05124 188.425084 
L 284.952066 187.12653 
L 280.852893 185.824732 
L 276.753719 184.520556 
L 272.654545 183.213397 
L 268.555372 181.902403 
L 264.456198 180.587579 
L 260.357025 179.26565 
L 256.257851 177.940426 
L 252.158678 176.615052 
L 248.059504 175.292068 
L 243.960331 173.972128 
L 239.861157 172.656876 
L 235.761983 171.347008 
L 231.66281 170.042651 
L 227.563636 168.74467 
L 223.464463 167.453806 
L 219.365289 166.162595 
L 215.266116 164.869759 
L 211.166942 163.575864 
L 207.067769 162.284618 
L 202.968595 160.998809 
L 198.869421 159.721074 
L 194.770248 158.453657 
L 190.671074 157.203611 
L 186.571901 155.976459 
L 182.472727 154.779528 
L 178.373554 153.618338 
L 174.27438 152.497897 
L 170.175207 151.430858 
L 166.076033 150.386355 
L 161.97686 149.36313 
L 157.877686 148.365005 
L 153.778512 147.379612 
L 149.679339 146.408256 
L 145.580165 145.46613 
L 141.480992 144.565525 
L 137.381818 143.749649 
L 133.282645 142.96549 
L 129.183471 142.19473 
L 125.084298 141.432083 
L 120.985124 140.673073 
L 116.88595 139.914062 
L 112.786777 139.155052 
L 108.687603 138.396042 
L 104.58843 137.637031 
L 100.489256 136.878021 
L 96.390083 136.11901 
L 92.290909 135.36 
z
" style="fill:#74c476;"/>
   </g>
   <g id="PolyCollection_11">
    <path clip-path="url(#pbe0e9967f6)" d="M 92.290909 135.36 
L 92.290909 135.36 
L 96.390083 136.11901 
L 100.489256 136.878021 
L 104.58843 137.637031 
L 108.687603 138.396042 
L 112.786777 139.155052 
L 116.88595 139.914062 
L 120.985124 140.673073 
L 125.084298 141.432083 
L 129.183471 142.19473 
L 133.282645 142.96549 
L 137.381818 143.749649 
L 141.480992 144.565525 
L 145.580165 145.46613 
L 149.679339 146.408256 
L 153.778512 147.379612 
L 157.877686 148.365005 
L 161.97686 149.36313 
L 166.076033 150.386355 
L 170.175207 151.430858 
L 174.27438 152.497897 
L 178.373554 153.618338 
L 182.472727 154.779528 
L 186.571901 155.976459 
L 190.671074 157.203611 
L 194.770248 158.453657 
L 198.869421 159.721074 
L 202.968595 160.998809 
L 207.067769 162.284618 
L 211.166942 163.575864 
L 215.266116 164.869759 
L 219.365289 166.162595 
L 223.464463 167.453806 
L 227.563636 168.74467 
L 231.66281 170.042651 
L 235.761983 171.347008 
L 239.861157 172.656876 
L 243.960331 173.972128 
L 248.059504 175.292068 
L 252.158678 176.615052 
L 256.257851 177.940426 
L 260.357025 179.26565 
L 264.456198 180.587579 
L 268.555372 181.902403 
L 272.654545 183.213397 
L 276.753719 184.520556 
L 280.852893 185.824732 
L 284.952066 187.12653 
L 289.05124 188.425084 
L 293.150413 189.721108 
L 297.249587 191.012861 
L 301.34876 192.302217 
L 305.447934 193.591603 
L 309.547107 194.883424 
L 313.646281 196.170153 
L 317.745455 197.44863 
L 321.844628 198.719946 
L 325.943802 199.982006 
L 330.042975 201.238977 
L 334.142149 202.492504 
L 338.241322 203.739465 
L 342.340496 204.994844 
L 346.439669 206.243888 
L 350.538843 207.487105 
L 354.638017 208.727053 
L 358.73719 209.962372 
L 362.836364 211.193906 
L 366.935537 212.421053 
L 371.034711 213.642036 
L 375.133884 214.8578 
L 379.233058 216.065894 
L 383.332231 217.267468 
L 387.431405 218.463759 
L 391.530579 219.653789 
L 395.629752 220.836908 
L 399.728926 222.013712 
L 403.828099 223.183943 
L 407.927273 224.349092 
L 412.026446 225.510178 
L 416.12562 226.666576 
L 420.224793 227.816285 
L 424.323967 228.960917 
L 428.42314 230.102218 
L 432.522314 231.241204 
L 436.621488 232.376581 
L 440.720661 233.505056 
L 444.819835 234.626445 
L 448.919008 235.744514 
L 453.018182 236.858369 
L 457.117355 237.967627 
L 461.216529 239.07041 
L 465.315702 240.165704 
L 469.414876 241.25339 
L 473.51405 242.33536 
L 477.613223 243.412411 
L 481.712397 244.485042 
L 485.81157 245.554767 
L 489.910744 246.620848 
L 494.009917 247.682312 
L 498.109091 248.73649 
L 498.109091 243.77773 
L 498.109091 243.77773 
L 494.009917 242.773529 
L 489.910744 241.762057 
L 485.81157 240.745995 
L 481.712397 239.726295 
L 477.613223 238.703689 
L 473.51405 237.676664 
L 469.414876 236.64472 
L 465.315702 235.60706 
L 461.216529 234.561795 
L 457.117355 233.509042 
L 453.018182 232.449814 
L 448.919008 231.385988 
L 444.819835 230.317955 
L 440.720661 229.246603 
L 436.621488 228.168167 
L 432.522314 227.082833 
L 428.42314 225.993892 
L 424.323967 224.902636 
L 420.224793 223.808053 
L 416.12562 222.708394 
L 412.026446 221.602047 
L 407.927273 220.491012 
L 403.828099 219.375916 
L 399.728926 218.255738 
L 395.629752 217.128987 
L 391.530579 215.995921 
L 387.431405 214.855949 
L 383.332231 213.709718 
L 379.233058 212.558206 
L 375.133884 211.400173 
L 371.034711 210.234475 
L 366.935537 209.063561 
L 362.836364 207.886482 
L 358.73719 206.705018 
L 354.638017 205.519769 
L 350.538843 204.329892 
L 346.439669 203.136746 
L 342.340496 201.937772 
L 338.241322 200.732464 
L 334.142149 199.535577 
L 330.042975 198.332125 
L 325.943802 197.125231 
L 321.844628 195.91325 
L 317.745455 194.692018 
L 313.646281 193.463637 
L 309.547107 192.227001 
L 305.447934 190.985279 
L 301.34876 189.745996 
L 297.249587 188.506744 
L 293.150413 187.265098 
L 289.05124 186.019185 
L 284.952066 184.770742 
L 280.852893 183.519057 
L 276.753719 182.264993 
L 272.654545 181.007946 
L 268.555372 179.747065 
L 264.456198 178.482355 
L 260.357025 177.21054 
L 256.257851 175.935432 
L 252.158678 174.66018 
L 248.059504 173.387319 
L 243.960331 172.117501 
L 239.861157 170.852375 
L 235.761983 169.592632 
L 231.66281 168.3384 
L 227.563636 167.090544 
L 223.464463 165.849804 
L 219.365289 164.608719 
L 215.266116 163.366007 
L 211.166942 162.122237 
L 207.067769 160.881117 
L 202.968595 159.645432 
L 198.869421 158.417822 
L 194.770248 157.200531 
L 190.671074 156.00061 
L 186.571901 154.823583 
L 182.472727 153.676777 
L 178.373554 152.565712 
L 174.27438 151.495396 
L 170.175207 150.478483 
L 166.076033 149.484104 
L 161.97686 148.511004 
L 157.877686 147.563004 
L 153.778512 146.627736 
L 149.679339 145.706505 
L 145.580165 144.814504 
L 141.480992 143.964025 
L 137.381818 143.198273 
L 133.282645 142.46424 
L 129.183471 141.743605 
L 125.084298 141.031083 
L 120.985124 140.322198 
L 116.88595 139.613312 
L 112.786777 138.904427 
L 108.687603 138.195541 
L 104.58843 137.486656 
L 100.489256 136.777771 
L 96.390083 136.068885 
L 92.290909 135.36 
z
" style="fill:#a1d99b;"/>
   </g>
   <g id="matplotlib.axis_1">
    <g id="xtick_1">
     <g id="line2d_1">
      <defs>
       <path d="M 0 0 
L 0 3.5 
" id="mb4736e85d5" style="stroke:#000000;stroke-width:0.8;"/>
      </defs>
      <g>
       <use style="stroke:#000000;stroke-width:0.8;" x="92.290909" xlink:href="#mb4736e85d5" y="768.96"/>
      </g>
     </g>
     <g id="text_1">
      <!-- 0 -->
      <g transform="translate(89.109659 783.558437)scale(0.1 -0.1)">
       <defs>
        <path d="M 2034 4250 
Q 1547 4250 1301 3770 
Q 1056 3291 1056 2328 
Q 1056 1369 1301 889 
Q 1547 409 2034 409 
Q 2525 409 2770 889 
Q 3016 1369 3016 2328 
Q 3016 3291 2770 3770 
Q 2525 4250 2034 4250 
z
M 2034 4750 
Q 2819 4750 3233 4129 
Q 3647 3509 3647 2328 
Q 3647 1150 3233 529 
Q 2819 -91 2034 -91 
Q 1250 -91 836 529 
Q 422 1150 422 2328 
Q 422 3509 836 4129 
Q 1250 4750 2034 4750 
z
" id="DejaVuSans-30" transform="scale(0.015625)"/>
       </defs>
       <use xlink:href="#DejaVuSans-30"/>
      </g>
     </g>
    </g>
    <g id="xtick_2">
     <g id="line2d_2">
      <g>
       <use style="stroke:#000000;stroke-width:0.8;" x="173.454545" xlink:href="#mb4736e85d5" y="768.96"/>
      </g>
     </g>
     <g id="text_2">
      <!-- 20 -->
      <g transform="translate(167.092045 783.558437)scale(0.1 -0.1)">
       <defs>
        <path d="M 1228 531 
L 3431 531 
L 3431 0 
L 469 0 
L 469 531 
Q 828 903 1448 1529 
Q 2069 2156 2228 2338 
Q 2531 2678 2651 2914 
Q 2772 3150 2772 3378 
Q 2772 3750 2511 3984 
Q 2250 4219 1831 4219 
Q 1534 4219 1204 4116 
Q 875 4013 500 3803 
L 500 4441 
Q 881 4594 1212 4672 
Q 1544 4750 1819 4750 
Q 2544 4750 2975 4387 
Q 3406 4025 3406 3419 
Q 3406 3131 3298 2873 
Q 3191 2616 2906 2266 
Q 2828 2175 2409 1742 
Q 1991 1309 1228 531 
z
" id="DejaVuSans-32" transform="scale(0.015625)"/>
       </defs>
       <use xlink:href="#DejaVuSans-32"/>
       <use x="63.623047" xlink:href="#DejaVuSans-30"/>
      </g>
     </g>
    </g>
    <g id="xtick_3">
     <g id="line2d_3">
      <g>
       <use style="stroke:#000000;stroke-width:0.8;" x="254.618182" xlink:href="#mb4736e85d5" y="768.96"/>
      </g>
     </g>
     <g id="text_3">
      <!-- 40 -->
      <g transform="translate(248.255682 783.558437)scale(0.1 -0.1)">
       <defs>
        <path d="M 2419 4116 
L 825 1625 
L 2419 1625 
L 2419 4116 
z
M 2253 4666 
L 3047 4666 
L 3047 1625 
L 3713 1625 
L 3713 1100 
L 3047 1100 
L 3047 0 
L 2419 0 
L 2419 1100 
L 313 1100 
L 313 1709 
L 2253 4666 
z
" id="DejaVuSans-34" transform="scale(0.015625)"/>
       </defs>
       <use xlink:href="#DejaVuSans-34"/>
       <use x="63.623047" xlink:href="#DejaVuSans-30"/>
      </g>
     </g>
    </g>
    <g id="xtick_4">
     <g id="line2d_4">
      <g>
       <use style="stroke:#000000;stroke-width:0.8;" x="335.781818" xlink:href="#mb4736e85d5" y="768.96"/>
      </g>
     </g>
     <g id="text_4">
      <!-- 60 -->
      <g transform="translate(329.419318 783.558437)scale(0.1 -0.1)">
       <defs>
        <path d="M 2113 2584 
Q 1688 2584 1439 2293 
Q 1191 2003 1191 1497 
Q 1191 994 1439 701 
Q 1688 409 2113 409 
Q 2538 409 2786 701 
Q 3034 994 3034 1497 
Q 3034 2003 2786 2293 
Q 2538 2584 2113 2584 
z
M 3366 4563 
L 3366 3988 
Q 3128 4100 2886 4159 
Q 2644 4219 2406 4219 
Q 1781 4219 1451 3797 
Q 1122 3375 1075 2522 
Q 1259 2794 1537 2939 
Q 1816 3084 2150 3084 
Q 2853 3084 3261 2657 
Q 3669 2231 3669 1497 
Q 3669 778 3244 343 
Q 2819 -91 2113 -91 
Q 1303 -91 875 529 
Q 447 1150 447 2328 
Q 447 3434 972 4092 
Q 1497 4750 2381 4750 
Q 2619 4750 2861 4703 
Q 3103 4656 3366 4563 
z
" id="DejaVuSans-36" transform="scale(0.015625)"/>
       </defs>
       <use xlink:href="#DejaVuSans-36"/>
       <use x="63.623047" xlink:href="#DejaVuSans-30"/>
      </g>
     </g>
    </g>
    <g id="xtick_5">
     <g id="line2d_5">
      <g>
       <use style="stroke:#000000;stroke-width:0.8;" x="416.945455" xlink:href="#mb4736e85d5" y="768.96"/>
      </g>
     </g>
     <g id="text_5">
      <!-- 80 -->
      <g transform="translate(410.582955 783.558437)scale(0.1 -0.1)">
       <defs>
        <path d="M 2034 2216 
Q 1584 2216 1326 1975 
Q 1069 1734 1069 1313 
Q 1069 891 1326 650 
Q 1584 409 2034 409 
Q 2484 409 2743 651 
Q 3003 894 3003 1313 
Q 3003 1734 2745 1975 
Q 2488 2216 2034 2216 
z
M 1403 2484 
Q 997 2584 770 2862 
Q 544 3141 544 3541 
Q 544 4100 942 4425 
Q 1341 4750 2034 4750 
Q 2731 4750 3128 4425 
Q 3525 4100 3525 3541 
Q 3525 3141 3298 2862 
Q 3072 2584 2669 2484 
Q 3125 2378 3379 2068 
Q 3634 1759 3634 1313 
Q 3634 634 3220 271 
Q 2806 -91 2034 -91 
Q 1263 -91 848 271 
Q 434 634 434 1313 
Q 434 1759 690 2068 
Q 947 2378 1403 2484 
z
M 1172 3481 
Q 1172 3119 1398 2916 
Q 1625 2713 2034 2713 
Q 2441 2713 2670 2916 
Q 2900 3119 2900 3481 
Q 2900 3844 2670 4047 
Q 2441 4250 2034 4250 
Q 1625 4250 1398 4047 
Q 1172 3844 1172 3481 
z
" id="DejaVuSans-38" transform="scale(0.015625)"/>
       </defs>
       <use xlink:href="#DejaVuSans-38"/>
       <use x="63.623047" xlink:href="#DejaVuSans-30"/>
      </g>
     </g>
    </g>
    <g id="xtick_6">
     <g id="line2d_6">
      <g>
       <use style="stroke:#000000;stroke-width:0.8;" x="498.109091" xlink:href="#mb4736e85d5" y="768.96"/>
      </g>
     </g>
     <g id="text_6">
      <!-- 100 -->
      <g transform="translate(488.565341 783.558437)scale(0.1 -0.1)">
       <defs>
        <path d="M 794 531 
L 1825 531 
L 1825 4091 
L 703 3866 
L 703 4441 
L 1819 4666 
L 2450 4666 
L 2450 531 
L 3481 531 
L 3481 0 
L 794 0 
L 794 531 
z
" id="DejaVuSans-31" transform="scale(0.015625)"/>
       </defs>
       <use xlink:href="#DejaVuSans-31"/>
       <use x="63.623047" xlink:href="#DejaVuSans-30"/>
       <use x="127.246094" xlink:href="#DejaVuSans-30"/>
      </g>
     </g>
    </g>
    <g id="text_7">
     <!-- Proportion of New Technology in Grid (%) -->
     <g transform="translate(192.432031 797.236562)scale(0.1 -0.1)">
      <defs>
       <path d="M 1259 4147 
L 1259 2394 
L 2053 2394 
Q 2494 2394 2734 2622 
Q 2975 2850 2975 3272 
Q 2975 3691 2734 3919 
Q 2494 4147 2053 4147 
L 1259 4147 
z
M 628 4666 
L 2053 4666 
Q 2838 4666 3239 4311 
Q 3641 3956 3641 3272 
Q 3641 2581 3239 2228 
Q 2838 1875 2053 1875 
L 1259 1875 
L 1259 0 
L 628 0 
L 628 4666 
z
" id="DejaVuSans-50" transform="scale(0.015625)"/>
       <path d="M 2631 2963 
Q 2534 3019 2420 3045 
Q 2306 3072 2169 3072 
Q 1681 3072 1420 2755 
Q 1159 2438 1159 1844 
L 1159 0 
L 581 0 
L 581 3500 
L 1159 3500 
L 1159 2956 
Q 1341 3275 1631 3429 
Q 1922 3584 2338 3584 
Q 2397 3584 2469 3576 
Q 2541 3569 2628 3553 
L 2631 2963 
z
" id="DejaVuSans-72" transform="scale(0.015625)"/>
       <path d="M 1959 3097 
Q 1497 3097 1228 2736 
Q 959 2375 959 1747 
Q 959 1119 1226 758 
Q 1494 397 1959 397 
Q 2419 397 2687 759 
Q 2956 1122 2956 1747 
Q 2956 2369 2687 2733 
Q 2419 3097 1959 3097 
z
M 1959 3584 
Q 2709 3584 3137 3096 
Q 3566 2609 3566 1747 
Q 3566 888 3137 398 
Q 2709 -91 1959 -91 
Q 1206 -91 779 398 
Q 353 888 353 1747 
Q 353 2609 779 3096 
Q 1206 3584 1959 3584 
z
" id="DejaVuSans-6f" transform="scale(0.015625)"/>
       <path d="M 1159 525 
L 1159 -1331 
L 581 -1331 
L 581 3500 
L 1159 3500 
L 1159 2969 
Q 1341 3281 1617 3432 
Q 1894 3584 2278 3584 
Q 2916 3584 3314 3078 
Q 3713 2572 3713 1747 
Q 3713 922 3314 415 
Q 2916 -91 2278 -91 
Q 1894 -91 1617 61 
Q 1341 213 1159 525 
z
M 3116 1747 
Q 3116 2381 2855 2742 
Q 2594 3103 2138 3103 
Q 1681 3103 1420 2742 
Q 1159 2381 1159 1747 
Q 1159 1113 1420 752 
Q 1681 391 2138 391 
Q 2594 391 2855 752 
Q 3116 1113 3116 1747 
z
" id="DejaVuSans-70" transform="scale(0.015625)"/>
       <path d="M 1172 4494 
L 1172 3500 
L 2356 3500 
L 2356 3053 
L 1172 3053 
L 1172 1153 
Q 1172 725 1289 603 
Q 1406 481 1766 481 
L 2356 481 
L 2356 0 
L 1766 0 
Q 1100 0 847 248 
Q 594 497 594 1153 
L 594 3053 
L 172 3053 
L 172 3500 
L 594 3500 
L 594 4494 
L 1172 4494 
z
" id="DejaVuSans-74" transform="scale(0.015625)"/>
       <path d="M 603 3500 
L 1178 3500 
L 1178 0 
L 603 0 
L 603 3500 
z
M 603 4863 
L 1178 4863 
L 1178 4134 
L 603 4134 
L 603 4863 
z
" id="DejaVuSans-69" transform="scale(0.015625)"/>
       <path d="M 3513 2113 
L 3513 0 
L 2938 0 
L 2938 2094 
Q 2938 2591 2744 2837 
Q 2550 3084 2163 3084 
Q 1697 3084 1428 2787 
Q 1159 2491 1159 1978 
L 1159 0 
L 581 0 
L 581 3500 
L 1159 3500 
L 1159 2956 
Q 1366 3272 1645 3428 
Q 1925 3584 2291 3584 
Q 2894 3584 3203 3211 
Q 3513 2838 3513 2113 
z
" id="DejaVuSans-6e" transform="scale(0.015625)"/>
       <path id="DejaVuSans-20" transform="scale(0.015625)"/>
       <path d="M 2375 4863 
L 2375 4384 
L 1825 4384 
Q 1516 4384 1395 4259 
Q 1275 4134 1275 3809 
L 1275 3500 
L 2222 3500 
L 2222 3053 
L 1275 3053 
L 1275 0 
L 697 0 
L 697 3053 
L 147 3053 
L 147 3500 
L 697 3500 
L 697 3744 
Q 697 4328 969 4595 
Q 1241 4863 1831 4863 
L 2375 4863 
z
" id="DejaVuSans-66" transform="scale(0.015625)"/>
       <path d="M 628 4666 
L 1478 4666 
L 3547 763 
L 3547 4666 
L 4159 4666 
L 4159 0 
L 3309 0 
L 1241 3903 
L 1241 0 
L 628 0 
L 628 4666 
z
" id="DejaVuSans-4e" transform="scale(0.015625)"/>
       <path d="M 3597 1894 
L 3597 1613 
L 953 1613 
Q 991 1019 1311 708 
Q 1631 397 2203 397 
Q 2534 397 2845 478 
Q 3156 559 3463 722 
L 3463 178 
Q 3153 47 2828 -22 
Q 2503 -91 2169 -91 
Q 1331 -91 842 396 
Q 353 884 353 1716 
Q 353 2575 817 3079 
Q 1281 3584 2069 3584 
Q 2775 3584 3186 3129 
Q 3597 2675 3597 1894 
z
M 3022 2063 
Q 3016 2534 2758 2815 
Q 2500 3097 2075 3097 
Q 1594 3097 1305 2825 
Q 1016 2553 972 2059 
L 3022 2063 
z
" id="DejaVuSans-65" transform="scale(0.015625)"/>
       <path d="M 269 3500 
L 844 3500 
L 1563 769 
L 2278 3500 
L 2956 3500 
L 3675 769 
L 4391 3500 
L 4966 3500 
L 4050 0 
L 3372 0 
L 2619 2869 
L 1863 0 
L 1184 0 
L 269 3500 
z
" id="DejaVuSans-77" transform="scale(0.015625)"/>
       <path d="M -19 4666 
L 3928 4666 
L 3928 4134 
L 2272 4134 
L 2272 0 
L 1638 0 
L 1638 4134 
L -19 4134 
L -19 4666 
z
" id="DejaVuSans-54" transform="scale(0.015625)"/>
       <path d="M 3122 3366 
L 3122 2828 
Q 2878 2963 2633 3030 
Q 2388 3097 2138 3097 
Q 1578 3097 1268 2742 
Q 959 2388 959 1747 
Q 959 1106 1268 751 
Q 1578 397 2138 397 
Q 2388 397 2633 464 
Q 2878 531 3122 666 
L 3122 134 
Q 2881 22 2623 -34 
Q 2366 -91 2075 -91 
Q 1284 -91 818 406 
Q 353 903 353 1747 
Q 353 2603 823 3093 
Q 1294 3584 2113 3584 
Q 2378 3584 2631 3529 
Q 2884 3475 3122 3366 
z
" id="DejaVuSans-63" transform="scale(0.015625)"/>
       <path d="M 3513 2113 
L 3513 0 
L 2938 0 
L 2938 2094 
Q 2938 2591 2744 2837 
Q 2550 3084 2163 3084 
Q 1697 3084 1428 2787 
Q 1159 2491 1159 1978 
L 1159 0 
L 581 0 
L 581 4863 
L 1159 4863 
L 1159 2956 
Q 1366 3272 1645 3428 
Q 1925 3584 2291 3584 
Q 2894 3584 3203 3211 
Q 3513 2838 3513 2113 
z
" id="DejaVuSans-68" transform="scale(0.015625)"/>
       <path d="M 603 4863 
L 1178 4863 
L 1178 0 
L 603 0 
L 603 4863 
z
" id="DejaVuSans-6c" transform="scale(0.015625)"/>
       <path d="M 2906 1791 
Q 2906 2416 2648 2759 
Q 2391 3103 1925 3103 
Q 1463 3103 1205 2759 
Q 947 2416 947 1791 
Q 947 1169 1205 825 
Q 1463 481 1925 481 
Q 2391 481 2648 825 
Q 2906 1169 2906 1791 
z
M 3481 434 
Q 3481 -459 3084 -895 
Q 2688 -1331 1869 -1331 
Q 1566 -1331 1297 -1286 
Q 1028 -1241 775 -1147 
L 775 -588 
Q 1028 -725 1275 -790 
Q 1522 -856 1778 -856 
Q 2344 -856 2625 -561 
Q 2906 -266 2906 331 
L 2906 616 
Q 2728 306 2450 153 
Q 2172 0 1784 0 
Q 1141 0 747 490 
Q 353 981 353 1791 
Q 353 2603 747 3093 
Q 1141 3584 1784 3584 
Q 2172 3584 2450 3431 
Q 2728 3278 2906 2969 
L 2906 3500 
L 3481 3500 
L 3481 434 
z
" id="DejaVuSans-67" transform="scale(0.015625)"/>
       <path d="M 2059 -325 
Q 1816 -950 1584 -1140 
Q 1353 -1331 966 -1331 
L 506 -1331 
L 506 -850 
L 844 -850 
Q 1081 -850 1212 -737 
Q 1344 -625 1503 -206 
L 1606 56 
L 191 3500 
L 800 3500 
L 1894 763 
L 2988 3500 
L 3597 3500 
L 2059 -325 
z
" id="DejaVuSans-79" transform="scale(0.015625)"/>
       <path d="M 3809 666 
L 3809 1919 
L 2778 1919 
L 2778 2438 
L 4434 2438 
L 4434 434 
Q 4069 175 3628 42 
Q 3188 -91 2688 -91 
Q 1594 -91 976 548 
Q 359 1188 359 2328 
Q 359 3472 976 4111 
Q 1594 4750 2688 4750 
Q 3144 4750 3555 4637 
Q 3966 4525 4313 4306 
L 4313 3634 
Q 3963 3931 3569 4081 
Q 3175 4231 2741 4231 
Q 1884 4231 1454 3753 
Q 1025 3275 1025 2328 
Q 1025 1384 1454 906 
Q 1884 428 2741 428 
Q 3075 428 3337 486 
Q 3600 544 3809 666 
z
" id="DejaVuSans-47" transform="scale(0.015625)"/>
       <path d="M 2906 2969 
L 2906 4863 
L 3481 4863 
L 3481 0 
L 2906 0 
L 2906 525 
Q 2725 213 2448 61 
Q 2172 -91 1784 -91 
Q 1150 -91 751 415 
Q 353 922 353 1747 
Q 353 2572 751 3078 
Q 1150 3584 1784 3584 
Q 2172 3584 2448 3432 
Q 2725 3281 2906 2969 
z
M 947 1747 
Q 947 1113 1208 752 
Q 1469 391 1925 391 
Q 2381 391 2643 752 
Q 2906 1113 2906 1747 
Q 2906 2381 2643 2742 
Q 2381 3103 1925 3103 
Q 1469 3103 1208 2742 
Q 947 2381 947 1747 
z
" id="DejaVuSans-64" transform="scale(0.015625)"/>
       <path d="M 1984 4856 
Q 1566 4138 1362 3434 
Q 1159 2731 1159 2009 
Q 1159 1288 1364 580 
Q 1569 -128 1984 -844 
L 1484 -844 
Q 1016 -109 783 600 
Q 550 1309 550 2009 
Q 550 2706 781 3412 
Q 1013 4119 1484 4856 
L 1984 4856 
z
" id="DejaVuSans-28" transform="scale(0.015625)"/>
       <path d="M 4653 2053 
Q 4381 2053 4226 1822 
Q 4072 1591 4072 1178 
Q 4072 772 4226 539 
Q 4381 306 4653 306 
Q 4919 306 5073 539 
Q 5228 772 5228 1178 
Q 5228 1588 5073 1820 
Q 4919 2053 4653 2053 
z
M 4653 2450 
Q 5147 2450 5437 2106 
Q 5728 1763 5728 1178 
Q 5728 594 5436 251 
Q 5144 -91 4653 -91 
Q 4153 -91 3862 251 
Q 3572 594 3572 1178 
Q 3572 1766 3864 2108 
Q 4156 2450 4653 2450 
z
M 1428 4353 
Q 1159 4353 1004 4120 
Q 850 3888 850 3481 
Q 850 3069 1003 2837 
Q 1156 2606 1428 2606 
Q 1700 2606 1854 2837 
Q 2009 3069 2009 3481 
Q 2009 3884 1853 4118 
Q 1697 4353 1428 4353 
z
M 4250 4750 
L 4750 4750 
L 1831 -91 
L 1331 -91 
L 4250 4750 
z
M 1428 4750 
Q 1922 4750 2215 4408 
Q 2509 4066 2509 3481 
Q 2509 2891 2217 2550 
Q 1925 2209 1428 2209 
Q 931 2209 642 2551 
Q 353 2894 353 3481 
Q 353 4063 643 4406 
Q 934 4750 1428 4750 
z
" id="DejaVuSans-25" transform="scale(0.015625)"/>
       <path d="M 513 4856 
L 1013 4856 
Q 1481 4119 1714 3412 
Q 1947 2706 1947 2009 
Q 1947 1309 1714 600 
Q 1481 -109 1013 -844 
L 513 -844 
Q 928 -128 1133 580 
Q 1338 1288 1338 2009 
Q 1338 2731 1133 3434 
Q 928 4138 513 4856 
z
" id="DejaVuSans-29" transform="scale(0.015625)"/>
      </defs>
      <use xlink:href="#DejaVuSans-50"/>
      <use x="58.552734" xlink:href="#DejaVuSans-72"/>
      <use x="97.416016" xlink:href="#DejaVuSans-6f"/>
      <use x="158.597656" xlink:href="#DejaVuSans-70"/>
      <use x="222.074219" xlink:href="#DejaVuSans-6f"/>
      <use x="283.255859" xlink:href="#DejaVuSans-72"/>
      <use x="324.369141" xlink:href="#DejaVuSans-74"/>
      <use x="363.578125" xlink:href="#DejaVuSans-69"/>
      <use x="391.361328" xlink:href="#DejaVuSans-6f"/>
      <use x="452.542969" xlink:href="#DejaVuSans-6e"/>
      <use x="515.921875" xlink:href="#DejaVuSans-20"/>
      <use x="547.708984" xlink:href="#DejaVuSans-6f"/>
      <use x="608.890625" xlink:href="#DejaVuSans-66"/>
      <use x="644.095703" xlink:href="#DejaVuSans-20"/>
      <use x="675.882812" xlink:href="#DejaVuSans-4e"/>
      <use x="750.6875" xlink:href="#DejaVuSans-65"/>
      <use x="812.210938" xlink:href="#DejaVuSans-77"/>
      <use x="893.998047" xlink:href="#DejaVuSans-20"/>
      <use x="925.785156" xlink:href="#DejaVuSans-54"/>
      <use x="969.869141" xlink:href="#DejaVuSans-65"/>
      <use x="1031.392578" xlink:href="#DejaVuSans-63"/>
      <use x="1086.373047" xlink:href="#DejaVuSans-68"/>
      <use x="1149.751953" xlink:href="#DejaVuSans-6e"/>
      <use x="1213.130859" xlink:href="#DejaVuSans-6f"/>
      <use x="1274.3125" xlink:href="#DejaVuSans-6c"/>
      <use x="1302.095703" xlink:href="#DejaVuSans-6f"/>
      <use x="1363.277344" xlink:href="#DejaVuSans-67"/>
      <use x="1426.753906" xlink:href="#DejaVuSans-79"/>
      <use x="1485.933594" xlink:href="#DejaVuSans-20"/>
      <use x="1517.720703" xlink:href="#DejaVuSans-69"/>
      <use x="1545.503906" xlink:href="#DejaVuSans-6e"/>
      <use x="1608.882812" xlink:href="#DejaVuSans-20"/>
      <use x="1640.669922" xlink:href="#DejaVuSans-47"/>
      <use x="1718.160156" xlink:href="#DejaVuSans-72"/>
      <use x="1759.273438" xlink:href="#DejaVuSans-69"/>
      <use x="1787.056641" xlink:href="#DejaVuSans-64"/>
      <use x="1850.533203" xlink:href="#DejaVuSans-20"/>
      <use x="1882.320312" xlink:href="#DejaVuSans-28"/>
      <use x="1921.333984" xlink:href="#DejaVuSans-25"/>
      <use x="2016.353516" xlink:href="#DejaVuSans-29"/>
     </g>
    </g>
   </g>
   <g id="matplotlib.axis_2">
    <g id="ytick_1">
     <g id="line2d_7">
      <defs>
       <path d="M 0 0 
L -3.5 0 
" id="m2b3adad0ed" style="stroke:#000000;stroke-width:0.8;"/>
      </defs>
      <g>
       <use style="stroke:#000000;stroke-width:0.8;" x="72" xlink:href="#m2b3adad0ed" y="768.96"/>
      </g>
     </g>
     <g id="text_8">
      <!-- 0 -->
      <g transform="translate(58.6375 772.759219)scale(0.1 -0.1)">
       <use xlink:href="#DejaVuSans-30"/>
      </g>
     </g>
    </g>
    <g id="ytick_2">
     <g id="line2d_8">
      <g>
       <use style="stroke:#000000;stroke-width:0.8;" x="72" xlink:href="#m2b3adad0ed" y="661.374309"/>
      </g>
     </g>
     <g id="text_9">
      <!-- 20 -->
      <g transform="translate(52.275 665.173527)scale(0.1 -0.1)">
       <use xlink:href="#DejaVuSans-32"/>
       <use x="63.623047" xlink:href="#DejaVuSans-30"/>
      </g>
     </g>
    </g>
    <g id="ytick_3">
     <g id="line2d_9">
      <g>
       <use style="stroke:#000000;stroke-width:0.8;" x="72" xlink:href="#m2b3adad0ed" y="553.788617"/>
      </g>
     </g>
     <g id="text_10">
      <!-- 40 -->
      <g transform="translate(52.275 557.587836)scale(0.1 -0.1)">
       <use xlink:href="#DejaVuSans-34"/>
       <use x="63.623047" xlink:href="#DejaVuSans-30"/>
      </g>
     </g>
    </g>
    <g id="ytick_4">
     <g id="line2d_10">
      <g>
       <use style="stroke:#000000;stroke-width:0.8;" x="72" xlink:href="#m2b3adad0ed" y="446.202926"/>
      </g>
     </g>
     <g id="text_11">
      <!-- 60 -->
      <g transform="translate(52.275 450.002145)scale(0.1 -0.1)">
       <use xlink:href="#DejaVuSans-36"/>
       <use x="63.623047" xlink:href="#DejaVuSans-30"/>
      </g>
     </g>
    </g>
    <g id="ytick_5">
     <g id="line2d_11">
      <g>
       <use style="stroke:#000000;stroke-width:0.8;" x="72" xlink:href="#m2b3adad0ed" y="338.617235"/>
      </g>
     </g>
     <g id="text_12">
      <!-- 80 -->
      <g transform="translate(52.275 342.416454)scale(0.1 -0.1)">
       <use xlink:href="#DejaVuSans-38"/>
       <use x="63.623047" xlink:href="#DejaVuSans-30"/>
      </g>
     </g>
    </g>
    <g id="ytick_6">
     <g id="line2d_12">
      <g>
       <use style="stroke:#000000;stroke-width:0.8;" x="72" xlink:href="#m2b3adad0ed" y="231.031544"/>
      </g>
     </g>
     <g id="text_13">
      <!-- 100 -->
      <g transform="translate(45.9125 234.830762)scale(0.1 -0.1)">
       <use xlink:href="#DejaVuSans-31"/>
       <use x="63.623047" xlink:href="#DejaVuSans-30"/>
       <use x="127.246094" xlink:href="#DejaVuSans-30"/>
      </g>
     </g>
    </g>
    <g id="ytick_7">
     <g id="line2d_13">
      <g>
       <use style="stroke:#000000;stroke-width:0.8;" x="72" xlink:href="#m2b3adad0ed" y="123.445852"/>
      </g>
     </g>
     <g id="text_14">
      <!-- 120 -->
      <g transform="translate(45.9125 127.245071)scale(0.1 -0.1)">
       <use xlink:href="#DejaVuSans-31"/>
       <use x="63.623047" xlink:href="#DejaVuSans-32"/>
       <use x="127.246094" xlink:href="#DejaVuSans-30"/>
      </g>
     </g>
    </g>
    <g id="text_15">
     <!-- Carbon Equivilent Emissions (Mt) -->
     <g transform="translate(39.832812 518.960625)rotate(-90)scale(0.1 -0.1)">
      <defs>
       <path d="M 4122 4306 
L 4122 3641 
Q 3803 3938 3442 4084 
Q 3081 4231 2675 4231 
Q 1875 4231 1450 3742 
Q 1025 3253 1025 2328 
Q 1025 1406 1450 917 
Q 1875 428 2675 428 
Q 3081 428 3442 575 
Q 3803 722 4122 1019 
L 4122 359 
Q 3791 134 3420 21 
Q 3050 -91 2638 -91 
Q 1578 -91 968 557 
Q 359 1206 359 2328 
Q 359 3453 968 4101 
Q 1578 4750 2638 4750 
Q 3056 4750 3426 4639 
Q 3797 4528 4122 4306 
z
" id="DejaVuSans-43" transform="scale(0.015625)"/>
       <path d="M 2194 1759 
Q 1497 1759 1228 1600 
Q 959 1441 959 1056 
Q 959 750 1161 570 
Q 1363 391 1709 391 
Q 2188 391 2477 730 
Q 2766 1069 2766 1631 
L 2766 1759 
L 2194 1759 
z
M 3341 1997 
L 3341 0 
L 2766 0 
L 2766 531 
Q 2569 213 2275 61 
Q 1981 -91 1556 -91 
Q 1019 -91 701 211 
Q 384 513 384 1019 
Q 384 1609 779 1909 
Q 1175 2209 1959 2209 
L 2766 2209 
L 2766 2266 
Q 2766 2663 2505 2880 
Q 2244 3097 1772 3097 
Q 1472 3097 1187 3025 
Q 903 2953 641 2809 
L 641 3341 
Q 956 3463 1253 3523 
Q 1550 3584 1831 3584 
Q 2591 3584 2966 3190 
Q 3341 2797 3341 1997 
z
" id="DejaVuSans-61" transform="scale(0.015625)"/>
       <path d="M 3116 1747 
Q 3116 2381 2855 2742 
Q 2594 3103 2138 3103 
Q 1681 3103 1420 2742 
Q 1159 2381 1159 1747 
Q 1159 1113 1420 752 
Q 1681 391 2138 391 
Q 2594 391 2855 752 
Q 3116 1113 3116 1747 
z
M 1159 2969 
Q 1341 3281 1617 3432 
Q 1894 3584 2278 3584 
Q 2916 3584 3314 3078 
Q 3713 2572 3713 1747 
Q 3713 922 3314 415 
Q 2916 -91 2278 -91 
Q 1894 -91 1617 61 
Q 1341 213 1159 525 
L 1159 0 
L 581 0 
L 581 4863 
L 1159 4863 
L 1159 2969 
z
" id="DejaVuSans-62" transform="scale(0.015625)"/>
       <path d="M 628 4666 
L 3578 4666 
L 3578 4134 
L 1259 4134 
L 1259 2753 
L 3481 2753 
L 3481 2222 
L 1259 2222 
L 1259 531 
L 3634 531 
L 3634 0 
L 628 0 
L 628 4666 
z
" id="DejaVuSans-45" transform="scale(0.015625)"/>
       <path d="M 947 1747 
Q 947 1113 1208 752 
Q 1469 391 1925 391 
Q 2381 391 2643 752 
Q 2906 1113 2906 1747 
Q 2906 2381 2643 2742 
Q 2381 3103 1925 3103 
Q 1469 3103 1208 2742 
Q 947 2381 947 1747 
z
M 2906 525 
Q 2725 213 2448 61 
Q 2172 -91 1784 -91 
Q 1150 -91 751 415 
Q 353 922 353 1747 
Q 353 2572 751 3078 
Q 1150 3584 1784 3584 
Q 2172 3584 2448 3432 
Q 2725 3281 2906 2969 
L 2906 3500 
L 3481 3500 
L 3481 -1331 
L 2906 -1331 
L 2906 525 
z
" id="DejaVuSans-71" transform="scale(0.015625)"/>
       <path d="M 544 1381 
L 544 3500 
L 1119 3500 
L 1119 1403 
Q 1119 906 1312 657 
Q 1506 409 1894 409 
Q 2359 409 2629 706 
Q 2900 1003 2900 1516 
L 2900 3500 
L 3475 3500 
L 3475 0 
L 2900 0 
L 2900 538 
Q 2691 219 2414 64 
Q 2138 -91 1772 -91 
Q 1169 -91 856 284 
Q 544 659 544 1381 
z
M 1991 3584 
L 1991 3584 
z
" id="DejaVuSans-75" transform="scale(0.015625)"/>
       <path d="M 191 3500 
L 800 3500 
L 1894 563 
L 2988 3500 
L 3597 3500 
L 2284 0 
L 1503 0 
L 191 3500 
z
" id="DejaVuSans-76" transform="scale(0.015625)"/>
       <path d="M 3328 2828 
Q 3544 3216 3844 3400 
Q 4144 3584 4550 3584 
Q 5097 3584 5394 3201 
Q 5691 2819 5691 2113 
L 5691 0 
L 5113 0 
L 5113 2094 
Q 5113 2597 4934 2840 
Q 4756 3084 4391 3084 
Q 3944 3084 3684 2787 
Q 3425 2491 3425 1978 
L 3425 0 
L 2847 0 
L 2847 2094 
Q 2847 2600 2669 2842 
Q 2491 3084 2119 3084 
Q 1678 3084 1418 2786 
Q 1159 2488 1159 1978 
L 1159 0 
L 581 0 
L 581 3500 
L 1159 3500 
L 1159 2956 
Q 1356 3278 1631 3431 
Q 1906 3584 2284 3584 
Q 2666 3584 2933 3390 
Q 3200 3197 3328 2828 
z
" id="DejaVuSans-6d" transform="scale(0.015625)"/>
       <path d="M 2834 3397 
L 2834 2853 
Q 2591 2978 2328 3040 
Q 2066 3103 1784 3103 
Q 1356 3103 1142 2972 
Q 928 2841 928 2578 
Q 928 2378 1081 2264 
Q 1234 2150 1697 2047 
L 1894 2003 
Q 2506 1872 2764 1633 
Q 3022 1394 3022 966 
Q 3022 478 2636 193 
Q 2250 -91 1575 -91 
Q 1294 -91 989 -36 
Q 684 19 347 128 
L 347 722 
Q 666 556 975 473 
Q 1284 391 1588 391 
Q 1994 391 2212 530 
Q 2431 669 2431 922 
Q 2431 1156 2273 1281 
Q 2116 1406 1581 1522 
L 1381 1569 
Q 847 1681 609 1914 
Q 372 2147 372 2553 
Q 372 3047 722 3315 
Q 1072 3584 1716 3584 
Q 2034 3584 2315 3537 
Q 2597 3491 2834 3397 
z
" id="DejaVuSans-73" transform="scale(0.015625)"/>
       <path d="M 628 4666 
L 1569 4666 
L 2759 1491 
L 3956 4666 
L 4897 4666 
L 4897 0 
L 4281 0 
L 4281 4097 
L 3078 897 
L 2444 897 
L 1241 4097 
L 1241 0 
L 628 0 
L 628 4666 
z
" id="DejaVuSans-4d" transform="scale(0.015625)"/>
      </defs>
      <use xlink:href="#DejaVuSans-43"/>
      <use x="69.824219" xlink:href="#DejaVuSans-61"/>
      <use x="131.103516" xlink:href="#DejaVuSans-72"/>
      <use x="172.216797" xlink:href="#DejaVuSans-62"/>
      <use x="235.693359" xlink:href="#DejaVuSans-6f"/>
      <use x="296.875" xlink:href="#DejaVuSans-6e"/>
      <use x="360.253906" xlink:href="#DejaVuSans-20"/>
      <use x="392.041016" xlink:href="#DejaVuSans-45"/>
      <use x="455.224609" xlink:href="#DejaVuSans-71"/>
      <use x="518.701172" xlink:href="#DejaVuSans-75"/>
      <use x="582.080078" xlink:href="#DejaVuSans-69"/>
      <use x="609.863281" xlink:href="#DejaVuSans-76"/>
      <use x="669.042969" xlink:href="#DejaVuSans-69"/>
      <use x="696.826172" xlink:href="#DejaVuSans-6c"/>
      <use x="724.609375" xlink:href="#DejaVuSans-65"/>
      <use x="786.132812" xlink:href="#DejaVuSans-6e"/>
      <use x="849.511719" xlink:href="#DejaVuSans-74"/>
      <use x="888.720703" xlink:href="#DejaVuSans-20"/>
      <use x="920.507812" xlink:href="#DejaVuSans-45"/>
      <use x="983.691406" xlink:href="#DejaVuSans-6d"/>
      <use x="1081.103516" xlink:href="#DejaVuSans-69"/>
      <use x="1108.886719" xlink:href="#DejaVuSans-73"/>
      <use x="1160.986328" xlink:href="#DejaVuSans-73"/>
      <use x="1213.085938" xlink:href="#DejaVuSans-69"/>
      <use x="1240.869141" xlink:href="#DejaVuSans-6f"/>
      <use x="1302.050781" xlink:href="#DejaVuSans-6e"/>
      <use x="1365.429688" xlink:href="#DejaVuSans-73"/>
      <use x="1417.529297" xlink:href="#DejaVuSans-20"/>
      <use x="1449.316406" xlink:href="#DejaVuSans-28"/>
      <use x="1488.330078" xlink:href="#DejaVuSans-4d"/>
      <use x="1574.609375" xlink:href="#DejaVuSans-74"/>
      <use x="1613.818359" xlink:href="#DejaVuSans-29"/>
     </g>
    </g>
   </g>
   <g id="patch_3">
    <path d="M 72 768.96 
L 72 103.68 
" style="fill:none;stroke:#000000;stroke-linecap:square;stroke-linejoin:miter;stroke-width:0.8;"/>
   </g>
   <g id="patch_4">
    <path d="M 518.4 768.96 
L 518.4 103.68 
" style="fill:none;stroke:#000000;stroke-linecap:square;stroke-linejoin:miter;stroke-width:0.8;"/>
   </g>
   <g id="patch_5">
    <path d="M 72 768.96 
L 518.4 768.96 
" style="fill:none;stroke:#000000;stroke-linecap:square;stroke-linejoin:miter;stroke-width:0.8;"/>
   </g>
   <g id="patch_6">
    <path d="M 72 103.68 
L 518.4 103.68 
" style="fill:none;stroke:#000000;stroke-linecap:square;stroke-linejoin:miter;stroke-width:0.8;"/>
   </g>
  </g>
 </g>
 <defs>
  <clipPath id="pbe0e9967f6">
   <rect height="665.28" width="446.4" x="72" y="103.68"/>
  </clipPath>
 </defs>
</svg>
