<?xml version="1.0" encoding="utf-8" standalone="no"?>
<!DOCTYPE svg PUBLIC "-//W3C//DTD SVG 1.1//EN"
  "http://www.w3.org/Graphics/SVG/1.1/DTD/svg11.dtd">
<svg height="576pt" version="1.1" viewBox="0 0 432 576" width="432pt" xmlns="http://www.w3.org/2000/svg" xmlns:xlink="http://www.w3.org/1999/xlink">
 <metadata>
  <rdf:RDF xmlns:cc="http://creativecommons.org/ns#" xmlns:dc="http://purl.org/dc/elements/1.1/" xmlns:rdf="http://www.w3.org/1999/02/22-rdf-syntax-ns#">
   <cc:Work>
    <dc:type rdf:resource="http://purl.org/dc/dcmitype/StillImage"/>
    <dc:date>2021-06-15T10:27:46.439405</dc:date>
    <dc:format>image/svg+xml</dc:format>
    <dc:creator>
     <cc:Agent>
      <dc:title>Matplotlib v3.4.1, https://matplotlib.org/</dc:title>
     </cc:Agent>
    </dc:creator>
   </cc:Work>
  </rdf:RDF>
 </metadata>
 <defs>
  <style type="text/css">*{stroke-linecap:butt;stroke-linejoin:round;}</style>
 </defs>
 <g id="figure_1">
  <g id="patch_1">
   <path d="M 0 576 
L 432 576 
L 432 0 
L 0 0 
z
" style="fill:#ffffff;"/>
  </g>
  <g id="axes_1">
   <g id="patch_2">
    <path d="M 54 512.64 
L 388.8 512.64 
L 388.8 69.12 
L 54 69.12 
z
" style="fill:#ffffff;"/>
   </g>
   <g id="PolyCollection_1">
    <path clip-path="url(#pd80a4481b0)" d="M 69.218182 356.970715 
L 69.218182 512.64 
L 72.292562 512.64 
L 75.366942 512.64 
L 78.441322 512.64 
L 81.515702 512.64 
L 84.590083 512.64 
L 87.664463 512.64 
L 90.738843 512.64 
L 93.813223 512.64 
L 96.887603 512.64 
L 99.961983 512.64 
L 103.036364 512.64 
L 106.110744 512.64 
L 109.185124 512.64 
L 112.259504 512.64 
L 115.333884 512.64 
L 118.408264 512.64 
L 121.482645 512.64 
L 124.557025 512.64 
L 127.631405 512.64 
L 130.705785 512.64 
L 133.780165 512.64 
L 136.854545 512.64 
L 139.928926 512.64 
L 143.003306 512.64 
L 146.077686 512.64 
L 149.152066 512.64 
L 152.226446 512.64 
L 155.300826 512.64 
L 158.375207 512.64 
L 161.449587 512.64 
L 164.523967 512.64 
L 167.598347 512.64 
L 170.672727 512.64 
L 173.747107 512.64 
L 176.821488 512.64 
L 179.895868 512.64 
L 182.970248 512.64 
L 186.044628 512.64 
L 189.119008 512.64 
L 192.193388 512.64 
L 195.267769 512.64 
L 198.342149 512.64 
L 201.416529 512.64 
L 204.490909 512.64 
L 207.565289 512.64 
L 210.639669 512.64 
L 213.71405 512.64 
L 216.78843 512.64 
L 219.86281 512.64 
L 222.93719 512.64 
L 226.01157 512.64 
L 229.08595 512.64 
L 232.160331 512.64 
L 235.234711 512.64 
L 238.309091 512.64 
L 241.383471 512.64 
L 244.457851 512.64 
L 247.532231 512.64 
L 250.606612 512.64 
L 253.680992 512.64 
L 256.755372 512.64 
L 259.829752 512.64 
L 262.904132 512.64 
L 265.978512 512.64 
L 269.052893 512.64 
L 272.127273 512.64 
L 275.201653 512.64 
L 278.276033 512.64 
L 281.350413 512.64 
L 284.424793 512.64 
L 287.499174 512.64 
L 290.573554 512.64 
L 293.647934 512.64 
L 296.722314 512.64 
L 299.796694 512.64 
L 302.871074 512.64 
L 305.945455 512.64 
L 309.019835 512.64 
L 312.094215 512.64 
L 315.168595 512.64 
L 318.242975 512.64 
L 321.317355 512.64 
L 324.391736 512.64 
L 327.466116 512.64 
L 330.540496 512.64 
L 333.614876 512.64 
L 336.689256 512.64 
L 339.763636 512.64 
L 342.838017 512.64 
L 345.912397 512.64 
L 348.986777 512.64 
L 352.061157 512.64 
L 355.135537 512.64 
L 358.209917 512.64 
L 361.284298 512.64 
L 364.358678 512.64 
L 367.433058 512.64 
L 370.507438 512.64 
L 373.581818 512.64 
L 373.581818 383.94919 
L 373.581818 383.94919 
L 370.507438 383.724359 
L 367.433058 383.498647 
L 364.358678 383.272694 
L 361.284298 383.046023 
L 358.209917 382.818849 
L 355.135537 382.59061 
L 352.061157 382.361871 
L 348.986777 382.13293 
L 345.912397 381.90302 
L 342.838017 381.672088 
L 339.763636 381.441685 
L 336.689256 381.212001 
L 333.614876 380.980956 
L 330.540496 380.747947 
L 327.466116 380.51419 
L 324.391736 380.281751 
L 321.317355 380.049821 
L 318.242975 379.814958 
L 315.168595 379.579101 
L 312.094215 379.342984 
L 309.019835 379.106901 
L 305.945455 378.87074 
L 302.871074 378.634662 
L 299.796694 378.398402 
L 296.722314 378.163368 
L 293.647934 377.92978 
L 290.573554 377.698293 
L 287.499174 377.468471 
L 284.424793 377.239381 
L 281.350413 377.012295 
L 278.276033 376.786638 
L 275.201653 376.56261 
L 272.127273 376.340063 
L 269.052893 376.118092 
L 265.978512 375.896708 
L 262.904132 375.675895 
L 259.829752 375.456331 
L 256.755372 375.237925 
L 253.680992 375.021383 
L 250.606612 374.797696 
L 247.532231 374.574943 
L 244.457851 374.350999 
L 241.383471 374.129365 
L 238.309091 373.912878 
L 235.234711 373.699926 
L 232.160331 373.490447 
L 229.08595 373.282986 
L 226.01157 373.073249 
L 222.93719 372.862931 
L 219.86281 372.653344 
L 216.78843 372.446142 
L 213.71405 372.239762 
L 210.639669 372.034789 
L 207.565289 371.830348 
L 204.490909 371.626642 
L 201.416529 371.42493 
L 198.342149 371.224908 
L 195.267769 371.027654 
L 192.193388 370.832043 
L 189.119008 370.635837 
L 186.044628 370.4381 
L 182.970248 370.238531 
L 179.895868 370.036256 
L 176.821488 369.830762 
L 173.747107 369.622035 
L 170.672727 369.409665 
L 167.598347 369.193195 
L 164.523967 368.9769 
L 161.449587 368.761533 
L 158.375207 368.546771 
L 155.300826 368.330422 
L 152.226446 368.110888 
L 149.152066 367.886655 
L 146.077686 367.656518 
L 143.003306 367.416443 
L 139.928926 367.163287 
L 136.854545 366.892757 
L 133.780165 366.601677 
L 130.705785 366.287188 
L 127.631405 365.942126 
L 124.557025 365.583986 
L 121.482645 365.213656 
L 118.408264 364.828928 
L 115.333884 364.436896 
L 112.259504 364.036837 
L 109.185124 363.620062 
L 106.110744 363.179528 
L 103.036364 362.690317 
L 99.961983 362.182784 
L 96.887603 361.667429 
L 93.813223 361.147423 
L 90.738843 360.625334 
L 87.664463 360.103246 
L 84.590083 359.581157 
L 81.515702 359.059069 
L 78.441322 358.53698 
L 75.366942 358.014892 
L 72.292562 357.492803 
L 69.218182 356.970715 
z
" style="fill:#3182bd;"/>
   </g>
   <g id="PolyCollection_2">
    <path clip-path="url(#pd80a4481b0)" d="M 69.218182 96.784415 
L 69.218182 356.970715 
L 72.292562 357.492803 
L 75.366942 358.014892 
L 78.441322 358.53698 
L 81.515702 359.059069 
L 84.590083 359.581157 
L 87.664463 360.103246 
L 90.738843 360.625334 
L 93.813223 361.147423 
L 96.887603 361.667429 
L 99.961983 362.182784 
L 103.036364 362.690317 
L 106.110744 363.179528 
L 109.185124 363.620062 
L 112.259504 364.036837 
L 115.333884 364.436896 
L 118.408264 364.828928 
L 121.482645 365.213656 
L 124.557025 365.583986 
L 127.631405 365.942126 
L 130.705785 366.287188 
L 133.780165 366.601677 
L 136.854545 366.892757 
L 139.928926 367.163287 
L 143.003306 367.416443 
L 146.077686 367.656518 
L 149.152066 367.886655 
L 152.226446 368.110888 
L 155.300826 368.330422 
L 158.375207 368.546771 
L 161.449587 368.761533 
L 164.523967 368.9769 
L 167.598347 369.193195 
L 170.672727 369.409665 
L 173.747107 369.622035 
L 176.821488 369.830762 
L 179.895868 370.036256 
L 182.970248 370.238531 
L 186.044628 370.4381 
L 189.119008 370.635837 
L 192.193388 370.832043 
L 195.267769 371.027654 
L 198.342149 371.224908 
L 201.416529 371.42493 
L 204.490909 371.626642 
L 207.565289 371.830348 
L 210.639669 372.034789 
L 213.71405 372.239762 
L 216.78843 372.446142 
L 219.86281 372.653344 
L 222.93719 372.862931 
L 226.01157 373.073249 
L 229.08595 373.282986 
L 232.160331 373.490447 
L 235.234711 373.699926 
L 238.309091 373.912878 
L 241.383471 374.129365 
L 244.457851 374.350999 
L 247.532231 374.574943 
L 250.606612 374.797696 
L 253.680992 375.021383 
L 256.755372 375.237925 
L 259.829752 375.456331 
L 262.904132 375.675895 
L 265.978512 375.896708 
L 269.052893 376.118092 
L 272.127273 376.340063 
L 275.201653 376.56261 
L 278.276033 376.786638 
L 281.350413 377.012295 
L 284.424793 377.239381 
L 287.499174 377.468471 
L 290.573554 377.698293 
L 293.647934 377.92978 
L 296.722314 378.163368 
L 299.796694 378.398402 
L 302.871074 378.634662 
L 305.945455 378.87074 
L 309.019835 379.106901 
L 312.094215 379.342984 
L 315.168595 379.579101 
L 318.242975 379.814958 
L 321.317355 380.049821 
L 324.391736 380.281751 
L 327.466116 380.51419 
L 330.540496 380.747947 
L 333.614876 380.980956 
L 336.689256 381.212001 
L 339.763636 381.441685 
L 342.838017 381.672088 
L 345.912397 381.90302 
L 348.986777 382.13293 
L 352.061157 382.361871 
L 355.135537 382.59061 
L 358.209917 382.818849 
L 361.284298 383.046023 
L 364.358678 383.272694 
L 367.433058 383.498647 
L 370.507438 383.724359 
L 373.581818 383.94919 
L 373.581818 173.820196 
L 373.581818 173.820196 
L 370.507438 173.107724 
L 367.433058 172.390225 
L 364.358678 171.669536 
L 361.284298 170.946217 
L 358.209917 170.220793 
L 355.135537 169.492232 
L 352.061157 168.760224 
L 348.986777 168.024191 
L 345.912397 167.282877 
L 342.838017 166.536366 
L 339.763636 165.785351 
L 336.689256 165.03114 
L 333.614876 164.27392 
L 330.540496 163.51425 
L 327.466116 162.749727 
L 324.391736 161.980482 
L 321.317355 161.208659 
L 318.242975 160.435113 
L 315.168595 159.659157 
L 312.094215 158.879666 
L 309.019835 158.095594 
L 305.945455 157.308226 
L 302.871074 156.518026 
L 299.796694 155.724287 
L 296.722314 154.926063 
L 293.647934 154.123498 
L 290.573554 153.316205 
L 287.499174 152.504659 
L 284.424793 151.689479 
L 281.350413 150.869835 
L 278.276033 150.04499 
L 275.201653 149.216566 
L 272.127273 148.383943 
L 269.052893 147.548299 
L 265.978512 146.710048 
L 262.904132 145.868633 
L 259.829752 145.024922 
L 256.755372 144.177233 
L 253.680992 143.32522 
L 250.606612 142.478723 
L 247.532231 141.627691 
L 244.457851 140.774283 
L 241.383471 139.91747 
L 238.309091 139.054467 
L 235.234711 138.186621 
L 232.160331 137.313237 
L 229.08595 136.436408 
L 226.01157 135.561166 
L 222.93719 134.685919 
L 219.86281 133.809065 
L 216.78843 132.929326 
L 213.71405 132.047886 
L 210.639669 131.164261 
L 207.565289 130.278983 
L 204.490909 129.391699 
L 201.416529 128.501843 
L 198.342149 127.609383 
L 195.267769 126.712147 
L 192.193388 125.812696 
L 189.119008 124.913125 
L 186.044628 124.015142 
L 182.970248 123.119187 
L 179.895868 122.226358 
L 176.821488 121.337111 
L 173.747107 120.451536 
L 170.672727 119.570213 
L 167.598347 118.693634 
L 164.523967 117.816823 
L 161.449587 116.938929 
L 158.375207 116.06033 
L 155.300826 115.183496 
L 152.226446 114.310286 
L 149.152066 113.442456 
L 146.077686 112.581504 
L 143.003306 111.732133 
L 139.928926 110.898028 
L 136.854545 110.084065 
L 133.780165 109.293923 
L 130.705785 108.53094 
L 127.631405 107.803555 
L 124.557025 107.091184 
L 121.482645 106.392996 
L 118.408264 105.711539 
L 115.333884 105.038568 
L 112.259504 104.374954 
L 109.185124 103.730827 
L 106.110744 103.114378 
L 103.036364 102.554399 
L 99.961983 102.015556 
L 96.887603 101.485635 
L 93.813223 100.961123 
L 90.738843 100.439034 
L 87.664463 99.916946 
L 84.590083 99.394857 
L 81.515702 98.872769 
L 78.441322 98.35068 
L 75.366942 97.828592 
L 72.292562 97.306503 
L 69.218182 96.784415 
z
" style="fill:#6baed6;"/>
   </g>
   <g id="PolyCollection_3">
    <path clip-path="url(#pd80a4481b0)" d="M 69.218182 96.666602 
L 69.218182 96.784415 
L 72.292562 97.306503 
L 75.366942 97.828592 
L 78.441322 98.35068 
L 81.515702 98.872769 
L 84.590083 99.394857 
L 87.664463 99.916946 
L 90.738843 100.439034 
L 93.813223 100.961123 
L 96.887603 101.485635 
L 99.961983 102.015556 
L 103.036364 102.554399 
L 106.110744 103.114378 
L 109.185124 103.730827 
L 112.259504 104.374954 
L 115.333884 105.038568 
L 118.408264 105.711539 
L 121.482645 106.392996 
L 124.557025 107.091184 
L 127.631405 107.803555 
L 130.705785 108.53094 
L 133.780165 109.293923 
L 136.854545 110.084065 
L 139.928926 110.898028 
L 143.003306 111.732133 
L 146.077686 112.581504 
L 149.152066 113.442456 
L 152.226446 114.310286 
L 155.300826 115.183496 
L 158.375207 116.06033 
L 161.449587 116.938929 
L 164.523967 117.816823 
L 167.598347 118.693634 
L 170.672727 119.570213 
L 173.747107 120.451536 
L 176.821488 121.337111 
L 179.895868 122.226358 
L 182.970248 123.119187 
L 186.044628 124.015142 
L 189.119008 124.913125 
L 192.193388 125.812696 
L 195.267769 126.712147 
L 198.342149 127.609383 
L 201.416529 128.501843 
L 204.490909 129.391699 
L 207.565289 130.278983 
L 210.639669 131.164261 
L 213.71405 132.047886 
L 216.78843 132.929326 
L 219.86281 133.809065 
L 222.93719 134.685919 
L 226.01157 135.561166 
L 229.08595 136.436408 
L 232.160331 137.313237 
L 235.234711 138.186621 
L 238.309091 139.054467 
L 241.383471 139.91747 
L 244.457851 140.774283 
L 247.532231 141.627691 
L 250.606612 142.478723 
L 253.680992 143.32522 
L 256.755372 144.177233 
L 259.829752 145.024922 
L 262.904132 145.868633 
L 265.978512 146.710048 
L 269.052893 147.548299 
L 272.127273 148.383943 
L 275.201653 149.216566 
L 278.276033 150.04499 
L 281.350413 150.869835 
L 284.424793 151.689479 
L 287.499174 152.504659 
L 290.573554 153.316205 
L 293.647934 154.123498 
L 296.722314 154.926063 
L 299.796694 155.724287 
L 302.871074 156.518026 
L 305.945455 157.308226 
L 309.019835 158.095594 
L 312.094215 158.879666 
L 315.168595 159.659157 
L 318.242975 160.435113 
L 321.317355 161.208659 
L 324.391736 161.980482 
L 327.466116 162.749727 
L 330.540496 163.51425 
L 333.614876 164.27392 
L 336.689256 165.03114 
L 339.763636 165.785351 
L 342.838017 166.536366 
L 345.912397 167.282877 
L 348.986777 168.024191 
L 352.061157 168.760224 
L 355.135537 169.492232 
L 358.209917 170.220793 
L 361.284298 170.946217 
L 364.358678 171.669536 
L 367.433058 172.390225 
L 370.507438 173.107724 
L 373.581818 173.820196 
L 373.581818 173.705541 
L 373.581818 173.705541 
L 370.507438 172.992944 
L 367.433058 172.275354 
L 364.358678 171.554582 
L 361.284298 170.831163 
L 358.209917 170.105615 
L 355.135537 169.376927 
L 352.061157 168.644794 
L 348.986777 167.908626 
L 345.912397 167.167197 
L 342.838017 166.420601 
L 339.763636 165.669493 
L 336.689256 164.915179 
L 333.614876 164.157855 
L 330.540496 163.39807 
L 327.466116 162.633481 
L 324.391736 161.864176 
L 321.317355 161.092259 
L 318.242975 160.318637 
L 315.168595 159.542591 
L 312.094215 158.763017 
L 309.019835 157.978894 
L 305.945455 157.191464 
L 302.871074 156.401202 
L 299.796694 155.607404 
L 296.722314 154.809134 
L 293.647934 154.006516 
L 290.573554 153.199162 
L 287.499174 152.387563 
L 284.424793 151.572333 
L 281.350413 150.752631 
L 278.276033 149.927752 
L 275.201653 149.099284 
L 272.127273 148.266623 
L 269.052893 147.430945 
L 265.978512 146.592658 
L 262.904132 145.751221 
L 259.829752 144.907454 
L 256.755372 144.059718 
L 253.680992 143.207655 
L 250.606612 142.361118 
L 247.532231 141.510043 
L 244.457851 140.656626 
L 241.383471 139.799811 
L 238.309091 138.936801 
L 235.234711 138.068932 
L 232.160331 137.195535 
L 229.08595 136.318691 
L 226.01157 135.443438 
L 222.93719 134.568182 
L 219.86281 133.691328 
L 216.78843 132.811576 
L 213.71405 131.930129 
L 210.639669 131.046497 
L 207.565289 130.161204 
L 204.490909 129.273916 
L 201.416529 128.384056 
L 198.342149 127.491581 
L 195.267769 126.594342 
L 192.193388 125.694884 
L 189.119008 124.795313 
L 186.044628 123.897329 
L 182.970248 123.001374 
L 179.895868 122.108545 
L 176.821488 121.219298 
L 173.747107 120.333723 
L 170.672727 119.4524 
L 167.598347 118.575821 
L 164.523967 117.699011 
L 161.449587 116.821117 
L 158.375207 115.942517 
L 155.300826 115.065683 
L 152.226446 114.192473 
L 149.152066 113.324643 
L 146.077686 112.463691 
L 143.003306 111.61432 
L 139.928926 110.780215 
L 136.854545 109.966252 
L 133.780165 109.17611 
L 130.705785 108.413127 
L 127.631405 107.685743 
L 124.557025 106.973371 
L 121.482645 106.275184 
L 118.408264 105.593726 
L 115.333884 104.920755 
L 112.259504 104.257141 
L 109.185124 103.613014 
L 106.110744 102.996565 
L 103.036364 102.436587 
L 99.961983 101.897743 
L 96.887603 101.367823 
L 93.813223 100.84331 
L 90.738843 100.321221 
L 87.664463 99.799133 
L 84.590083 99.277044 
L 81.515702 98.754956 
L 78.441322 98.232868 
L 75.366942 97.710779 
L 72.292562 97.188691 
L 69.218182 96.666602 
z
" style="fill:#9ecae1;"/>
   </g>
   <g id="PolyCollection_4">
    <path clip-path="url(#pd80a4481b0)" d="M 69.218182 96.523522 
L 69.218182 96.666602 
L 72.292562 97.188691 
L 75.366942 97.710779 
L 78.441322 98.232868 
L 81.515702 98.754956 
L 84.590083 99.277044 
L 87.664463 99.799133 
L 90.738843 100.321221 
L 93.813223 100.84331 
L 96.887603 101.367823 
L 99.961983 101.897743 
L 103.036364 102.436587 
L 106.110744 102.996565 
L 109.185124 103.613014 
L 112.259504 104.257141 
L 115.333884 104.920755 
L 118.408264 105.593726 
L 121.482645 106.275184 
L 124.557025 106.973371 
L 127.631405 107.685743 
L 130.705785 108.413127 
L 133.780165 109.17611 
L 136.854545 109.966252 
L 139.928926 110.780215 
L 143.003306 111.61432 
L 146.077686 112.463691 
L 149.152066 113.324643 
L 152.226446 114.192473 
L 155.300826 115.065683 
L 158.375207 115.942517 
L 161.449587 116.821117 
L 164.523967 117.699011 
L 167.598347 118.575821 
L 170.672727 119.4524 
L 173.747107 120.333723 
L 176.821488 121.219298 
L 179.895868 122.108545 
L 182.970248 123.001374 
L 186.044628 123.897329 
L 189.119008 124.795313 
L 192.193388 125.694884 
L 195.267769 126.594342 
L 198.342149 127.491581 
L 201.416529 128.384056 
L 204.490909 129.273916 
L 207.565289 130.161204 
L 210.639669 131.046497 
L 213.71405 131.930129 
L 216.78843 132.811576 
L 219.86281 133.691328 
L 222.93719 134.568182 
L 226.01157 135.443438 
L 229.08595 136.318691 
L 232.160331 137.195535 
L 235.234711 138.068932 
L 238.309091 138.936801 
L 241.383471 139.799811 
L 244.457851 140.656626 
L 247.532231 141.510043 
L 250.606612 142.361118 
L 253.680992 143.207655 
L 256.755372 144.059718 
L 259.829752 144.907454 
L 262.904132 145.751221 
L 265.978512 146.592658 
L 269.052893 147.430945 
L 272.127273 148.266623 
L 275.201653 149.099284 
L 278.276033 149.927752 
L 281.350413 150.752631 
L 284.424793 151.572333 
L 287.499174 152.387563 
L 290.573554 153.199162 
L 293.647934 154.006516 
L 296.722314 154.809134 
L 299.796694 155.607404 
L 302.871074 156.401202 
L 305.945455 157.191464 
L 309.019835 157.978894 
L 312.094215 158.763017 
L 315.168595 159.542591 
L 318.242975 160.318637 
L 321.317355 161.092259 
L 324.391736 161.864176 
L 327.466116 162.633481 
L 330.540496 163.39807 
L 333.614876 164.157855 
L 336.689256 164.915179 
L 339.763636 165.669493 
L 342.838017 166.420601 
L 345.912397 167.167197 
L 348.986777 167.908626 
L 352.061157 168.644794 
L 355.135537 169.376927 
L 358.209917 170.105615 
L 361.284298 170.831163 
L 364.358678 171.554582 
L 367.433058 172.275354 
L 370.507438 172.992944 
L 373.581818 173.705541 
L 373.581818 173.562462 
L 373.581818 173.562462 
L 370.507438 172.849866 
L 367.433058 172.132275 
L 364.358678 171.411503 
L 361.284298 170.688083 
L 358.209917 169.962535 
L 355.135537 169.233847 
L 352.061157 168.501715 
L 348.986777 167.765547 
L 345.912397 167.024117 
L 342.838017 166.277521 
L 339.763636 165.526413 
L 336.689256 164.772099 
L 333.614876 164.014776 
L 330.540496 163.25499 
L 327.466116 162.490401 
L 324.391736 161.721097 
L 321.317355 160.949179 
L 318.242975 160.175557 
L 315.168595 159.399512 
L 312.094215 158.619938 
L 309.019835 157.835814 
L 305.945455 157.048384 
L 302.871074 156.258122 
L 299.796694 155.464325 
L 296.722314 154.666055 
L 293.647934 153.863436 
L 290.573554 153.056082 
L 287.499174 152.244483 
L 284.424793 151.429254 
L 281.350413 150.609551 
L 278.276033 149.784673 
L 275.201653 148.956204 
L 272.127273 148.123543 
L 269.052893 147.287865 
L 265.978512 146.449578 
L 262.904132 145.608141 
L 259.829752 144.764374 
L 256.755372 143.916638 
L 253.680992 143.064575 
L 250.606612 142.218038 
L 247.532231 141.366963 
L 244.457851 140.513546 
L 241.383471 139.656731 
L 238.309091 138.793721 
L 235.234711 137.925852 
L 232.160331 137.052455 
L 229.08595 136.175611 
L 226.01157 135.300359 
L 222.93719 134.425102 
L 219.86281 133.548248 
L 216.78843 132.668496 
L 213.71405 131.787049 
L 210.639669 130.903418 
L 207.565289 130.018124 
L 204.490909 129.130837 
L 201.416529 128.240977 
L 198.342149 127.348502 
L 195.267769 126.451262 
L 192.193388 125.551804 
L 189.119008 124.652233 
L 186.044628 123.75425 
L 182.970248 122.858295 
L 179.895868 121.965465 
L 176.821488 121.076218 
L 173.747107 120.190643 
L 170.672727 119.309321 
L 167.598347 118.432741 
L 164.523967 117.555931 
L 161.449587 116.678037 
L 158.375207 115.799437 
L 155.300826 114.922603 
L 152.226446 114.049393 
L 149.152066 113.181563 
L 146.077686 112.320612 
L 143.003306 111.47124 
L 139.928926 110.637135 
L 136.854545 109.823172 
L 133.780165 109.033031 
L 130.705785 108.270047 
L 127.631405 107.542663 
L 124.557025 106.830291 
L 121.482645 106.132104 
L 118.408264 105.450646 
L 115.333884 104.777676 
L 112.259504 104.114062 
L 109.185124 103.469934 
L 106.110744 102.853485 
L 103.036364 102.293507 
L 99.961983 101.754663 
L 96.887603 101.224743 
L 93.813223 100.70023 
L 90.738843 100.178142 
L 87.664463 99.656053 
L 84.590083 99.133965 
L 81.515702 98.611876 
L 78.441322 98.089788 
L 75.366942 97.567699 
L 72.292562 97.045611 
L 69.218182 96.523522 
z
" style="fill:#c6dbef;"/>
   </g>
   <g id="PolyCollection_5">
    <path clip-path="url(#pd80a4481b0)" d="M 69.218182 96.047185 
L 69.218182 96.523522 
L 72.292562 97.045611 
L 75.366942 97.567699 
L 78.441322 98.089788 
L 81.515702 98.611876 
L 84.590083 99.133965 
L 87.664463 99.656053 
L 90.738843 100.178142 
L 93.813223 100.70023 
L 96.887603 101.224743 
L 99.961983 101.754663 
L 103.036364 102.293507 
L 106.110744 102.853485 
L 109.185124 103.469934 
L 112.259504 104.114062 
L 115.333884 104.777676 
L 118.408264 105.450646 
L 121.482645 106.132104 
L 124.557025 106.830291 
L 127.631405 107.542663 
L 130.705785 108.270047 
L 133.780165 109.033031 
L 136.854545 109.823172 
L 139.928926 110.637135 
L 143.003306 111.47124 
L 146.077686 112.320612 
L 149.152066 113.181563 
L 152.226446 114.049393 
L 155.300826 114.922603 
L 158.375207 115.799437 
L 161.449587 116.678037 
L 164.523967 117.555931 
L 167.598347 118.432741 
L 170.672727 119.309321 
L 173.747107 120.190643 
L 176.821488 121.076218 
L 179.895868 121.965465 
L 182.970248 122.858295 
L 186.044628 123.75425 
L 189.119008 124.652233 
L 192.193388 125.551804 
L 195.267769 126.451262 
L 198.342149 127.348502 
L 201.416529 128.240977 
L 204.490909 129.130837 
L 207.565289 130.018124 
L 210.639669 130.903418 
L 213.71405 131.787049 
L 216.78843 132.668496 
L 219.86281 133.548248 
L 222.93719 134.425102 
L 226.01157 135.300359 
L 229.08595 136.175611 
L 232.160331 137.052455 
L 235.234711 137.925852 
L 238.309091 138.793721 
L 241.383471 139.656731 
L 244.457851 140.513546 
L 247.532231 141.366963 
L 250.606612 142.218038 
L 253.680992 143.064575 
L 256.755372 143.916638 
L 259.829752 144.764374 
L 262.904132 145.608141 
L 265.978512 146.449578 
L 269.052893 147.287865 
L 272.127273 148.123543 
L 275.201653 148.956204 
L 278.276033 149.784673 
L 281.350413 150.609551 
L 284.424793 151.429254 
L 287.499174 152.244483 
L 290.573554 153.056082 
L 293.647934 153.863436 
L 296.722314 154.666055 
L 299.796694 155.464325 
L 302.871074 156.258122 
L 305.945455 157.048384 
L 309.019835 157.835814 
L 312.094215 158.619938 
L 315.168595 159.399512 
L 318.242975 160.175557 
L 321.317355 160.949179 
L 324.391736 161.721097 
L 327.466116 162.490401 
L 330.540496 163.25499 
L 333.614876 164.014776 
L 336.689256 164.772099 
L 339.763636 165.526413 
L 342.838017 166.277521 
L 345.912397 167.024117 
L 348.986777 167.765547 
L 352.061157 168.501715 
L 355.135537 169.233847 
L 358.209917 169.962535 
L 361.284298 170.688083 
L 364.358678 171.411503 
L 367.433058 172.132275 
L 370.507438 172.849866 
L 373.581818 173.562462 
L 373.581818 173.086189 
L 373.581818 173.086189 
L 370.507438 172.373593 
L 367.433058 171.656001 
L 364.358678 170.935222 
L 361.284298 170.211796 
L 358.209917 169.486242 
L 355.135537 168.757547 
L 352.061157 168.025414 
L 348.986777 167.289246 
L 345.912397 166.547817 
L 342.838017 165.80122 
L 339.763636 165.050112 
L 336.689256 164.295798 
L 333.614876 163.538473 
L 330.540496 162.778687 
L 327.466116 162.014096 
L 324.391736 161.244791 
L 321.317355 160.472873 
L 318.242975 159.699249 
L 315.168595 158.923203 
L 312.094215 158.143628 
L 309.019835 157.359503 
L 305.945455 156.572072 
L 302.871074 155.78181 
L 299.796694 154.988012 
L 296.722314 154.189741 
L 293.647934 153.387123 
L 290.573554 152.579768 
L 287.499174 151.768169 
L 284.424793 150.952939 
L 281.350413 150.133236 
L 278.276033 149.308357 
L 275.201653 148.479888 
L 272.127273 147.647226 
L 269.052893 146.811547 
L 265.978512 145.97326 
L 262.904132 145.131823 
L 259.829752 144.288056 
L 256.755372 143.44032 
L 253.680992 142.588257 
L 250.606612 141.741719 
L 247.532231 140.890644 
L 244.457851 140.037227 
L 241.383471 139.180411 
L 238.309091 138.3174 
L 235.234711 137.449529 
L 232.160331 136.576129 
L 229.08595 135.699284 
L 226.01157 134.824029 
L 222.93719 133.948772 
L 219.86281 133.071918 
L 216.78843 132.192165 
L 213.71405 131.310717 
L 210.639669 130.427084 
L 207.565289 129.54179 
L 204.490909 128.654503 
L 201.416529 127.764643 
L 198.342149 126.872168 
L 195.267769 125.974928 
L 192.193388 125.07547 
L 189.119008 124.175897 
L 186.044628 123.277913 
L 182.970248 122.381958 
L 179.895868 121.489128 
L 176.821488 120.599881 
L 173.747107 119.714306 
L 170.672727 118.832983 
L 167.598347 117.956404 
L 164.523967 117.079594 
L 161.449587 116.2017 
L 158.375207 115.3231 
L 155.300826 114.446266 
L 152.226446 113.573056 
L 149.152066 112.705226 
L 146.077686 111.844274 
L 143.003306 110.994903 
L 139.928926 110.160798 
L 136.854545 109.346835 
L 133.780165 108.556694 
L 130.705785 107.79371 
L 127.631405 107.066326 
L 124.557025 106.353954 
L 121.482645 105.655767 
L 118.408264 104.974309 
L 115.333884 104.301338 
L 112.259504 103.637725 
L 109.185124 102.993597 
L 106.110744 102.377148 
L 103.036364 101.81717 
L 99.961983 101.278326 
L 96.887603 100.748406 
L 93.813223 100.223893 
L 90.738843 99.701805 
L 87.664463 99.179716 
L 84.590083 98.657628 
L 81.515702 98.135539 
L 78.441322 97.613451 
L 75.366942 97.091362 
L 72.292562 96.569274 
L 69.218182 96.047185 
z
" style="fill:#e6550d;"/>
   </g>
   <g id="PolyCollection_6">
    <path clip-path="url(#pd80a4481b0)" d="M 69.218182 95.470831 
L 69.218182 96.047185 
L 72.292562 96.569274 
L 75.366942 97.091362 
L 78.441322 97.613451 
L 81.515702 98.135539 
L 84.590083 98.657628 
L 87.664463 99.179716 
L 90.738843 99.701805 
L 93.813223 100.223893 
L 96.887603 100.748406 
L 99.961983 101.278326 
L 103.036364 101.81717 
L 106.110744 102.377148 
L 109.185124 102.993597 
L 112.259504 103.637725 
L 115.333884 104.301338 
L 118.408264 104.974309 
L 121.482645 105.655767 
L 124.557025 106.353954 
L 127.631405 107.066326 
L 130.705785 107.79371 
L 133.780165 108.556694 
L 136.854545 109.346835 
L 139.928926 110.160798 
L 143.003306 110.994903 
L 146.077686 111.844274 
L 149.152066 112.705226 
L 152.226446 113.573056 
L 155.300826 114.446266 
L 158.375207 115.3231 
L 161.449587 116.2017 
L 164.523967 117.079594 
L 167.598347 117.956404 
L 170.672727 118.832983 
L 173.747107 119.714306 
L 176.821488 120.599881 
L 179.895868 121.489128 
L 182.970248 122.381958 
L 186.044628 123.277913 
L 189.119008 124.175897 
L 192.193388 125.07547 
L 195.267769 125.974928 
L 198.342149 126.872168 
L 201.416529 127.764643 
L 204.490909 128.654503 
L 207.565289 129.54179 
L 210.639669 130.427084 
L 213.71405 131.310717 
L 216.78843 132.192165 
L 219.86281 133.071918 
L 222.93719 133.948772 
L 226.01157 134.824029 
L 229.08595 135.699284 
L 232.160331 136.576129 
L 235.234711 137.449529 
L 238.309091 138.3174 
L 241.383471 139.180411 
L 244.457851 140.037227 
L 247.532231 140.890644 
L 250.606612 141.741719 
L 253.680992 142.588257 
L 256.755372 143.44032 
L 259.829752 144.288056 
L 262.904132 145.131823 
L 265.978512 145.97326 
L 269.052893 146.811547 
L 272.127273 147.647226 
L 275.201653 148.479888 
L 278.276033 149.308357 
L 281.350413 150.133236 
L 284.424793 150.952939 
L 287.499174 151.768169 
L 290.573554 152.579768 
L 293.647934 153.387123 
L 296.722314 154.189741 
L 299.796694 154.988012 
L 302.871074 155.78181 
L 305.945455 156.572072 
L 309.019835 157.359503 
L 312.094215 158.143628 
L 315.168595 158.923203 
L 318.242975 159.699249 
L 321.317355 160.472873 
L 324.391736 161.244791 
L 327.466116 162.014096 
L 330.540496 162.778687 
L 333.614876 163.538473 
L 336.689256 164.295798 
L 339.763636 165.050112 
L 342.838017 165.80122 
L 345.912397 166.547817 
L 348.986777 167.289246 
L 352.061157 168.025414 
L 355.135537 168.757547 
L 358.209917 169.486242 
L 361.284298 170.211796 
L 364.358678 170.935222 
L 367.433058 171.656001 
L 370.507438 172.373593 
L 373.581818 173.086189 
L 373.581818 172.51021 
L 373.581818 172.51021 
L 370.507438 171.797602 
L 367.433058 171.080001 
L 364.358678 170.359217 
L 361.284298 169.635785 
L 358.209917 168.910226 
L 355.135537 168.181529 
L 352.061157 167.449388 
L 348.986777 166.713212 
L 345.912397 165.97178 
L 342.838017 165.22518 
L 339.763636 164.47407 
L 336.689256 163.719752 
L 333.614876 162.962425 
L 330.540496 162.202635 
L 327.466116 161.438042 
L 324.391736 160.668733 
L 321.317355 159.89681 
L 318.242975 159.123183 
L 315.168595 158.347133 
L 312.094215 157.567553 
L 309.019835 156.783424 
L 305.945455 155.995989 
L 302.871074 155.205721 
L 299.796694 154.411918 
L 296.722314 153.613643 
L 293.647934 152.81102 
L 290.573554 152.003661 
L 287.499174 151.192056 
L 284.424793 150.376821 
L 281.350413 149.557113 
L 278.276033 148.732229 
L 275.201653 147.903755 
L 272.127273 147.071088 
L 269.052893 146.235404 
L 265.978512 145.397112 
L 262.904132 144.555669 
L 259.829752 143.711897 
L 256.755372 142.864156 
L 253.680992 142.012089 
L 250.606612 141.165547 
L 247.532231 140.314467 
L 244.457851 139.461045 
L 241.383471 138.604225 
L 238.309091 137.741209 
L 235.234711 136.873333 
L 232.160331 135.99993 
L 229.08595 135.12308 
L 226.01157 134.24782 
L 222.93719 133.372556 
L 219.86281 132.495695 
L 216.78843 131.615936 
L 213.71405 130.734481 
L 210.639669 129.850842 
L 207.565289 128.965541 
L 204.490909 128.078246 
L 201.416529 127.188379 
L 198.342149 126.295897 
L 195.267769 125.398651 
L 192.193388 124.499187 
L 189.119008 123.599608 
L 186.044628 122.701618 
L 182.970248 121.805657 
L 179.895868 120.912821 
L 176.821488 120.023568 
L 173.747107 119.137988 
L 170.672727 118.256661 
L 167.598347 117.380077 
L 164.523967 116.503262 
L 161.449587 115.625364 
L 158.375207 114.74676 
L 155.300826 113.869922 
L 152.226446 112.99671 
L 149.152066 112.128878 
L 146.077686 111.267925 
L 143.003306 110.418552 
L 139.928926 109.584446 
L 136.854545 108.770483 
L 133.780165 107.980341 
L 130.705785 107.217357 
L 127.631405 106.489972 
L 124.557025 105.777601 
L 121.482645 105.079413 
L 118.408264 104.397955 
L 115.333884 103.724985 
L 112.259504 103.061371 
L 109.185124 102.417243 
L 106.110744 101.800794 
L 103.036364 101.240816 
L 99.961983 100.701972 
L 96.887603 100.172052 
L 93.813223 99.647539 
L 90.738843 99.125451 
L 87.664463 98.603362 
L 84.590083 98.081274 
L 81.515702 97.559185 
L 78.441322 97.037097 
L 75.366942 96.515008 
L 72.292562 95.99292 
L 69.218182 95.470831 
z
" style="fill:#fd8d3c;"/>
   </g>
   <g id="PolyCollection_7">
    <path clip-path="url(#pd80a4481b0)" d="M 69.218182 94.324187 
L 69.218182 95.470831 
L 72.292562 95.99292 
L 75.366942 96.515008 
L 78.441322 97.037097 
L 81.515702 97.559185 
L 84.590083 98.081274 
L 87.664463 98.603362 
L 90.738843 99.125451 
L 93.813223 99.647539 
L 96.887603 100.172052 
L 99.961983 100.701972 
L 103.036364 101.240816 
L 106.110744 101.800794 
L 109.185124 102.417243 
L 112.259504 103.061371 
L 115.333884 103.724985 
L 118.408264 104.397955 
L 121.482645 105.079413 
L 124.557025 105.777601 
L 127.631405 106.489972 
L 130.705785 107.217357 
L 133.780165 107.980341 
L 136.854545 108.770483 
L 139.928926 109.584446 
L 143.003306 110.418552 
L 146.077686 111.267925 
L 149.152066 112.128878 
L 152.226446 112.99671 
L 155.300826 113.869922 
L 158.375207 114.74676 
L 161.449587 115.625364 
L 164.523967 116.503262 
L 167.598347 117.380077 
L 170.672727 118.256661 
L 173.747107 119.137988 
L 176.821488 120.023568 
L 179.895868 120.912821 
L 182.970248 121.805657 
L 186.044628 122.701618 
L 189.119008 123.599608 
L 192.193388 124.499187 
L 195.267769 125.398651 
L 198.342149 126.295897 
L 201.416529 127.188379 
L 204.490909 128.078246 
L 207.565289 128.965541 
L 210.639669 129.850842 
L 213.71405 130.734481 
L 216.78843 131.615936 
L 219.86281 132.495695 
L 222.93719 133.372556 
L 226.01157 134.24782 
L 229.08595 135.12308 
L 232.160331 135.99993 
L 235.234711 136.873333 
L 238.309091 137.741209 
L 241.383471 138.604225 
L 244.457851 139.461045 
L 247.532231 140.314467 
L 250.606612 141.165547 
L 253.680992 142.012089 
L 256.755372 142.864156 
L 259.829752 143.711897 
L 262.904132 144.555669 
L 265.978512 145.397112 
L 269.052893 146.235404 
L 272.127273 147.071088 
L 275.201653 147.903755 
L 278.276033 148.732229 
L 281.350413 149.557113 
L 284.424793 150.376821 
L 287.499174 151.192056 
L 290.573554 152.003661 
L 293.647934 152.81102 
L 296.722314 153.613643 
L 299.796694 154.411918 
L 302.871074 155.205721 
L 305.945455 155.995989 
L 309.019835 156.783424 
L 312.094215 157.567553 
L 315.168595 158.347133 
L 318.242975 159.123183 
L 321.317355 159.89681 
L 324.391736 160.668733 
L 327.466116 161.438042 
L 330.540496 162.202635 
L 333.614876 162.962425 
L 336.689256 163.719752 
L 339.763636 164.47407 
L 342.838017 165.22518 
L 345.912397 165.97178 
L 348.986777 166.713212 
L 352.061157 167.449388 
L 355.135537 168.181529 
L 358.209917 168.910226 
L 361.284298 169.635785 
L 364.358678 170.359217 
L 367.433058 171.080001 
L 370.507438 171.797602 
L 373.581818 172.51021 
L 373.581818 172.51021 
L 373.581818 172.51021 
L 370.507438 171.786036 
L 367.433058 171.056865 
L 364.358678 170.324513 
L 361.284298 169.589513 
L 358.209917 168.85238 
L 355.135537 168.112107 
L 352.061157 167.368395 
L 348.986777 166.620646 
L 345.912397 165.867622 
L 342.838017 165.109449 
L 339.763636 164.346765 
L 336.689256 163.580874 
L 333.614876 162.811974 
L 330.540496 162.040611 
L 327.466116 161.264443 
L 324.391736 160.483559 
L 321.317355 159.700062 
L 318.242975 158.914859 
L 315.168595 158.127232 
L 312.094215 157.336077 
L 309.019835 156.540373 
L 305.945455 155.741363 
L 302.871074 154.93952 
L 299.796694 154.134141 
L 296.722314 153.324287 
L 293.647934 152.510085 
L 290.573554 151.691147 
L 287.499174 150.867963 
L 284.424793 150.04115 
L 281.350413 149.209866 
L 278.276033 148.373402 
L 275.201653 147.533348 
L 272.127273 146.6891 
L 269.052893 145.841835 
L 265.978512 144.991962 
L 262.904132 144.138937 
L 259.829752 143.283582 
L 256.755372 142.424259 
L 253.680992 141.560609 
L 250.606612 140.702484 
L 247.532231 139.839821 
L 244.457851 138.974818 
L 241.383471 138.106415 
L 238.309091 137.231817 
L 235.234711 136.352358 
L 232.160331 135.467368 
L 229.08595 134.578932 
L 226.01157 133.692087 
L 222.93719 132.805237 
L 219.86281 131.91679 
L 216.78843 131.025445 
L 213.71405 130.132404 
L 210.639669 129.237183 
L 207.565289 128.340298 
L 204.490909 127.441419 
L 201.416529 126.539968 
L 198.342149 125.635903 
L 195.267769 124.727071 
L 192.193388 123.816018 
L 189.119008 122.904852 
L 186.044628 121.995274 
L 182.970248 121.08772 
L 179.895868 120.183292 
L 176.821488 119.282445 
L 173.747107 118.385274 
L 170.672727 117.492353 
L 167.598347 116.604175 
L 164.523967 115.715769 
L 161.449587 114.826283 
L 158.375207 113.93609 
L 155.300826 113.04766 
L 152.226446 112.162852 
L 149.152066 111.283426 
L 146.077686 110.41088 
L 143.003306 109.549918 
L 139.928926 108.704219 
L 136.854545 107.878663 
L 133.780165 107.076934 
L 130.705785 106.302364 
L 127.631405 105.563393 
L 124.557025 104.839438 
L 121.482645 104.129668 
L 118.408264 103.436628 
L 115.333884 102.752075 
L 112.259504 102.076878 
L 109.185124 101.421168 
L 106.110744 100.793137 
L 103.036364 100.221577 
L 99.961983 99.671151 
L 96.887603 99.129648 
L 93.813223 98.593553 
L 90.738843 98.059882 
L 87.664463 97.526212 
L 84.590083 96.992541 
L 81.515702 96.45887 
L 78.441322 95.9252 
L 75.366942 95.391529 
L 72.292562 94.857858 
L 69.218182 94.324187 
z
" style="fill:#fdae6b;"/>
   </g>
   <g id="PolyCollection_8">
    <path clip-path="url(#pd80a4481b0)" d="M 69.218182 91.325507 
L 69.218182 94.324187 
L 72.292562 94.857858 
L 75.366942 95.391529 
L 78.441322 95.9252 
L 81.515702 96.45887 
L 84.590083 96.992541 
L 87.664463 97.526212 
L 90.738843 98.059882 
L 93.813223 98.593553 
L 96.887603 99.129648 
L 99.961983 99.671151 
L 103.036364 100.221577 
L 106.110744 100.793137 
L 109.185124 101.421168 
L 112.259504 102.076878 
L 115.333884 102.752075 
L 118.408264 103.436628 
L 121.482645 104.129668 
L 124.557025 104.839438 
L 127.631405 105.563393 
L 130.705785 106.302364 
L 133.780165 107.076934 
L 136.854545 107.878663 
L 139.928926 108.704219 
L 143.003306 109.549918 
L 146.077686 110.41088 
L 149.152066 111.283426 
L 152.226446 112.162852 
L 155.300826 113.04766 
L 158.375207 113.93609 
L 161.449587 114.826283 
L 164.523967 115.715769 
L 167.598347 116.604175 
L 170.672727 117.492353 
L 173.747107 118.385274 
L 176.821488 119.282445 
L 179.895868 120.183292 
L 182.970248 121.08772 
L 186.044628 121.995274 
L 189.119008 122.904852 
L 192.193388 123.816018 
L 195.267769 124.727071 
L 198.342149 125.635903 
L 201.416529 126.539968 
L 204.490909 127.441419 
L 207.565289 128.340298 
L 210.639669 129.237183 
L 213.71405 130.132404 
L 216.78843 131.025445 
L 219.86281 131.91679 
L 222.93719 132.805237 
L 226.01157 133.692087 
L 229.08595 134.578932 
L 232.160331 135.467368 
L 235.234711 136.352358 
L 238.309091 137.231817 
L 241.383471 138.106415 
L 244.457851 138.974818 
L 247.532231 139.839821 
L 250.606612 140.702484 
L 253.680992 141.560609 
L 256.755372 142.424259 
L 259.829752 143.283582 
L 262.904132 144.138937 
L 265.978512 144.991962 
L 269.052893 145.841835 
L 272.127273 146.6891 
L 275.201653 147.533348 
L 278.276033 148.373402 
L 281.350413 149.209866 
L 284.424793 150.04115 
L 287.499174 150.867963 
L 290.573554 151.691147 
L 293.647934 152.510085 
L 296.722314 153.324287 
L 299.796694 154.134141 
L 302.871074 154.93952 
L 305.945455 155.741363 
L 309.019835 156.540373 
L 312.094215 157.336077 
L 315.168595 158.127232 
L 318.242975 158.914859 
L 321.317355 159.700062 
L 324.391736 160.483559 
L 327.466116 161.264443 
L 330.540496 162.040611 
L 333.614876 162.811974 
L 336.689256 163.580874 
L 339.763636 164.346765 
L 342.838017 165.109449 
L 345.912397 165.867622 
L 348.986777 166.620646 
L 352.061157 167.368395 
L 355.135537 168.112107 
L 358.209917 168.85238 
L 361.284298 169.589513 
L 364.358678 170.324513 
L 367.433058 171.056865 
L 370.507438 171.786036 
L 373.581818 172.51021 
L 373.581818 169.51153 
L 373.581818 169.51153 
L 370.507438 168.787356 
L 367.433058 168.058185 
L 364.358678 167.325833 
L 361.284298 166.590833 
L 358.209917 165.8537 
L 355.135537 165.113427 
L 352.061157 164.369715 
L 348.986777 163.621966 
L 345.912397 162.868942 
L 342.838017 162.110769 
L 339.763636 161.348085 
L 336.689256 160.582194 
L 333.614876 159.813294 
L 330.540496 159.041931 
L 327.466116 158.265763 
L 324.391736 157.484879 
L 321.317355 156.701382 
L 318.242975 155.916179 
L 315.168595 155.128552 
L 312.094215 154.337397 
L 309.019835 153.541693 
L 305.945455 152.742683 
L 302.871074 151.94084 
L 299.796694 151.135461 
L 296.722314 150.325607 
L 293.647934 149.511405 
L 290.573554 148.692467 
L 287.499174 147.869283 
L 284.424793 147.04247 
L 281.350413 146.211186 
L 278.276033 145.374722 
L 275.201653 144.534668 
L 272.127273 143.69042 
L 269.052893 142.843155 
L 265.978512 141.993281 
L 262.904132 141.140257 
L 259.829752 140.284902 
L 256.755372 139.425579 
L 253.680992 138.561929 
L 250.606612 137.703803 
L 247.532231 136.841141 
L 244.457851 135.976138 
L 241.383471 135.107735 
L 238.309091 134.233137 
L 235.234711 133.353678 
L 232.160331 132.468688 
L 229.08595 131.580252 
L 226.01157 130.693407 
L 222.93719 129.806557 
L 219.86281 128.91811 
L 216.78843 128.026764 
L 213.71405 127.133724 
L 210.639669 126.238503 
L 207.565289 125.341618 
L 204.490909 124.442739 
L 201.416529 123.541288 
L 198.342149 122.637223 
L 195.267769 121.728391 
L 192.193388 120.817338 
L 189.119008 119.906172 
L 186.044628 118.996594 
L 182.970248 118.08904 
L 179.895868 117.184612 
L 176.821488 116.283765 
L 173.747107 115.386594 
L 170.672727 114.493673 
L 167.598347 113.605495 
L 164.523967 112.717089 
L 161.449587 111.827603 
L 158.375207 110.93741 
L 155.300826 110.04898 
L 152.226446 109.164172 
L 149.152066 108.284746 
L 146.077686 107.4122 
L 143.003306 106.551238 
L 139.928926 105.705539 
L 136.854545 104.879983 
L 133.780165 104.078254 
L 130.705785 103.303683 
L 127.631405 102.564713 
L 124.557025 101.840758 
L 121.482645 101.130988 
L 118.408264 100.437948 
L 115.333884 99.753395 
L 112.259504 99.078198 
L 109.185124 98.422488 
L 106.110744 97.794457 
L 103.036364 97.222897 
L 99.961983 96.672471 
L 96.887603 96.130968 
L 93.813223 95.594873 
L 90.738843 95.061202 
L 87.664463 94.527532 
L 84.590083 93.993861 
L 81.515702 93.46019 
L 78.441322 92.926519 
L 75.366942 92.392849 
L 72.292562 91.859178 
L 69.218182 91.325507 
z
" style="fill:#fdd0a2;"/>
   </g>
   <g id="PolyCollection_9">
    <path clip-path="url(#pd80a4481b0)" d="M 69.218182 90.24 
L 69.218182 91.325507 
L 72.292562 91.859178 
L 75.366942 92.392849 
L 78.441322 92.926519 
L 81.515702 93.46019 
L 84.590083 93.993861 
L 87.664463 94.527532 
L 90.738843 95.061202 
L 93.813223 95.594873 
L 96.887603 96.130968 
L 99.961983 96.672471 
L 103.036364 97.222897 
L 106.110744 97.794457 
L 109.185124 98.422488 
L 112.259504 99.078198 
L 115.333884 99.753395 
L 118.408264 100.437948 
L 121.482645 101.130988 
L 124.557025 101.840758 
L 127.631405 102.564713 
L 130.705785 103.303683 
L 133.780165 104.078254 
L 136.854545 104.879983 
L 139.928926 105.705539 
L 143.003306 106.551238 
L 146.077686 107.4122 
L 149.152066 108.284746 
L 152.226446 109.164172 
L 155.300826 110.04898 
L 158.375207 110.93741 
L 161.449587 111.827603 
L 164.523967 112.717089 
L 167.598347 113.605495 
L 170.672727 114.493673 
L 173.747107 115.386594 
L 176.821488 116.283765 
L 179.895868 117.184612 
L 182.970248 118.08904 
L 186.044628 118.996594 
L 189.119008 119.906172 
L 192.193388 120.817338 
L 195.267769 121.728391 
L 198.342149 122.637223 
L 201.416529 123.541288 
L 204.490909 124.442739 
L 207.565289 125.341618 
L 210.639669 126.238503 
L 213.71405 127.133724 
L 216.78843 128.026764 
L 219.86281 128.91811 
L 222.93719 129.806557 
L 226.01157 130.693407 
L 229.08595 131.580252 
L 232.160331 132.468688 
L 235.234711 133.353678 
L 238.309091 134.233137 
L 241.383471 135.107735 
L 244.457851 135.976138 
L 247.532231 136.841141 
L 250.606612 137.703803 
L 253.680992 138.561929 
L 256.755372 139.425579 
L 259.829752 140.284902 
L 262.904132 141.140257 
L 265.978512 141.993281 
L 269.052893 142.843155 
L 272.127273 143.69042 
L 275.201653 144.534668 
L 278.276033 145.374722 
L 281.350413 146.211186 
L 284.424793 147.04247 
L 287.499174 147.869283 
L 290.573554 148.692467 
L 293.647934 149.511405 
L 296.722314 150.325607 
L 299.796694 151.135461 
L 302.871074 151.94084 
L 305.945455 152.742683 
L 309.019835 153.541693 
L 312.094215 154.337397 
L 315.168595 155.128552 
L 318.242975 155.916179 
L 321.317355 156.701382 
L 324.391736 157.484879 
L 327.466116 158.265763 
L 330.540496 159.041931 
L 333.614876 159.813294 
L 336.689256 160.582194 
L 339.763636 161.348085 
L 342.838017 162.110769 
L 345.912397 162.868942 
L 348.986777 163.621966 
L 352.061157 164.369715 
L 355.135537 165.113427 
L 358.209917 165.8537 
L 361.284298 166.590833 
L 364.358678 167.325833 
L 367.433058 168.058185 
L 370.507438 168.787356 
L 373.581818 169.51153 
L 373.581818 169.51153 
L 373.581818 169.51153 
L 370.507438 168.776391 
L 367.433058 168.036256 
L 364.358678 167.292939 
L 361.284298 166.546974 
L 358.209917 165.798877 
L 355.135537 165.047638 
L 352.061157 164.292962 
L 348.986777 163.534249 
L 345.912397 162.770259 
L 342.838017 162.001122 
L 339.763636 161.227473 
L 336.689256 160.450618 
L 333.614876 159.670752 
L 330.540496 158.888425 
L 327.466116 158.101292 
L 324.391736 157.309443 
L 321.317355 156.514982 
L 318.242975 155.718814 
L 315.168595 154.920222 
L 312.094215 154.118103 
L 309.019835 153.311434 
L 305.945455 152.501459 
L 302.871074 151.688652 
L 299.796694 150.872308 
L 296.722314 150.051489 
L 293.647934 149.226323 
L 290.573554 148.396419 
L 287.499174 147.562271 
L 284.424793 146.724494 
L 281.350413 145.882244 
L 278.276033 145.034816 
L 275.201653 144.183797 
L 272.127273 143.328585 
L 269.052893 142.470355 
L 265.978512 141.609516 
L 262.904132 140.745527 
L 259.829752 139.879208 
L 256.755372 139.008919 
L 253.680992 138.134305 
L 250.606612 137.265215 
L 247.532231 136.391588 
L 244.457851 135.51562 
L 241.383471 134.636252 
L 238.309091 133.750689 
L 235.234711 132.860265 
L 232.160331 131.964311 
L 229.08595 131.06491 
L 226.01157 130.1671 
L 222.93719 129.269285 
L 219.86281 128.369874 
L 216.78843 127.467564 
L 213.71405 126.563559 
L 210.639669 125.657372 
L 207.565289 124.749523 
L 204.490909 123.839679 
L 201.416529 122.927264 
L 198.342149 122.012234 
L 195.267769 121.092437 
L 192.193388 120.17042 
L 189.119008 119.248289 
L 186.044628 118.327746 
L 182.970248 117.409228 
L 179.895868 116.493835 
L 176.821488 115.582023 
L 173.747107 114.673887 
L 170.672727 113.770002 
L 167.598347 112.870859 
L 164.523967 111.971488 
L 161.449587 111.071037 
L 158.375207 110.16988 
L 155.300826 109.270485 
L 152.226446 108.374712 
L 149.152066 107.484321 
L 146.077686 106.600811 
L 143.003306 105.728884 
L 139.928926 104.87222 
L 136.854545 104.0357 
L 133.780165 103.223005 
L 130.705785 102.437471 
L 127.631405 101.687535 
L 124.557025 100.952615 
L 121.482645 100.231881 
L 118.408264 99.527876 
L 115.333884 98.832358 
L 112.259504 98.146197 
L 109.185124 97.479522 
L 106.110744 96.840527 
L 103.036364 96.258001 
L 99.961983 95.696611 
L 96.887603 95.144143 
L 93.813223 94.597084 
L 90.738843 94.052448 
L 87.664463 93.507813 
L 84.590083 92.963177 
L 81.515702 92.418542 
L 78.441322 91.873906 
L 75.366942 91.329271 
L 72.292562 90.784635 
L 69.218182 90.24 
z
" style="fill:#31a354;"/>
   </g>
   <g id="PolyCollection_10">
    <path clip-path="url(#pd80a4481b0)" d="M 69.218182 90.24 
L 69.218182 90.24 
L 72.292562 90.784635 
L 75.366942 91.329271 
L 78.441322 91.873906 
L 81.515702 92.418542 
L 84.590083 92.963177 
L 87.664463 93.507813 
L 90.738843 94.052448 
L 93.813223 94.597084 
L 96.887603 95.144143 
L 99.961983 95.696611 
L 103.036364 96.258001 
L 106.110744 96.840527 
L 109.185124 97.479522 
L 112.259504 98.146197 
L 115.333884 98.832358 
L 118.408264 99.527876 
L 121.482645 100.231881 
L 124.557025 100.952615 
L 127.631405 101.687535 
L 130.705785 102.437471 
L 133.780165 103.223005 
L 136.854545 104.0357 
L 139.928926 104.87222 
L 143.003306 105.728884 
L 146.077686 106.600811 
L 149.152066 107.484321 
L 152.226446 108.374712 
L 155.300826 109.270485 
L 158.375207 110.16988 
L 161.449587 111.071037 
L 164.523967 111.971488 
L 167.598347 112.870859 
L 170.672727 113.770002 
L 173.747107 114.673887 
L 176.821488 115.582023 
L 179.895868 116.493835 
L 182.970248 117.409228 
L 186.044628 118.327746 
L 189.119008 119.248289 
L 192.193388 120.17042 
L 195.267769 121.092437 
L 198.342149 122.012234 
L 201.416529 122.927264 
L 204.490909 123.839679 
L 207.565289 124.749523 
L 210.639669 125.657372 
L 213.71405 126.563559 
L 216.78843 127.467564 
L 219.86281 128.369874 
L 222.93719 129.269285 
L 226.01157 130.1671 
L 229.08595 131.06491 
L 232.160331 131.964311 
L 235.234711 132.860265 
L 238.309091 133.750689 
L 241.383471 134.636252 
L 244.457851 135.51562 
L 247.532231 136.391588 
L 250.606612 137.265215 
L 253.680992 138.134305 
L 256.755372 139.008919 
L 259.829752 139.879208 
L 262.904132 140.745527 
L 265.978512 141.609516 
L 269.052893 142.470355 
L 272.127273 143.328585 
L 275.201653 144.183797 
L 278.276033 145.034816 
L 281.350413 145.882244 
L 284.424793 146.724494 
L 287.499174 147.562271 
L 290.573554 148.396419 
L 293.647934 149.226323 
L 296.722314 150.051489 
L 299.796694 150.872308 
L 302.871074 151.688652 
L 305.945455 152.501459 
L 309.019835 153.311434 
L 312.094215 154.118103 
L 315.168595 154.920222 
L 318.242975 155.718814 
L 321.317355 156.514982 
L 324.391736 157.309443 
L 327.466116 158.101292 
L 330.540496 158.888425 
L 333.614876 159.670752 
L 336.689256 160.450618 
L 339.763636 161.227473 
L 342.838017 162.001122 
L 345.912397 162.770259 
L 348.986777 163.534249 
L 352.061157 164.292962 
L 355.135537 165.047638 
L 358.209917 165.798877 
L 361.284298 166.546974 
L 364.358678 167.292939 
L 367.433058 168.036256 
L 370.507438 168.776391 
L 373.581818 169.51153 
L 373.581818 165.824327 
L 373.581818 165.824327 
L 370.507438 165.121541 
L 367.433058 164.413898 
L 364.358678 163.703178 
L 361.284298 162.990028 
L 358.209917 162.27494 
L 355.135537 161.556907 
L 352.061157 160.835594 
L 348.986777 160.110469 
L 345.912397 159.380273 
L 342.838017 158.645085 
L 339.763636 157.90558 
L 336.689256 157.163009 
L 333.614876 156.41763 
L 330.540496 155.670037 
L 327.466116 154.91772 
L 324.391736 154.160803 
L 321.317355 153.401479 
L 318.242975 152.640611 
L 315.168595 151.877523 
L 312.094215 151.111051 
L 309.019835 150.340119 
L 305.945455 149.566061 
L 302.871074 148.789295 
L 299.796694 148.009141 
L 296.722314 147.224605 
L 293.647934 146.435859 
L 290.573554 145.642506 
L 287.499174 144.844978 
L 284.424793 144.043929 
L 281.350413 143.238533 
L 278.276033 142.428024 
L 275.201653 141.614035 
L 272.127273 140.795937 
L 269.052893 139.974914 
L 265.978512 139.151369 
L 262.904132 138.324736 
L 259.829752 137.495925 
L 256.755372 136.663229 
L 253.680992 135.82631 
L 250.606612 134.995003 
L 247.532231 134.159318 
L 244.457851 133.321337 
L 241.383471 132.479964 
L 238.309091 131.63242 
L 235.234711 130.780102 
L 232.160331 129.922282 
L 229.08595 129.061069 
L 226.01157 128.201478 
L 222.93719 127.341907 
L 219.86281 126.480739 
L 216.78843 125.616723 
L 213.71405 124.75102 
L 210.639669 123.883155 
L 207.565289 123.013704 
L 204.490909 122.142265 
L 201.416529 121.268268 
L 198.342149 120.391719 
L 195.267769 119.510433 
L 192.193388 118.626951 
L 189.119008 117.743368 
L 186.044628 116.861379 
L 182.970248 115.981418 
L 179.895868 115.104584 
L 176.821488 114.231339 
L 173.747107 113.361768 
L 170.672727 112.496447 
L 167.598347 111.635871 
L 164.523967 110.775064 
L 161.449587 109.913173 
L 158.375207 109.050576 
L 155.300826 108.189745 
L 152.226446 107.332539 
L 149.152066 106.480716 
L 146.077686 105.635771 
L 143.003306 104.802407 
L 139.928926 103.984306 
L 136.854545 103.186352 
L 133.780165 102.412226 
L 130.705785 101.665264 
L 127.631405 100.953906 
L 124.557025 100.25757 
L 121.482645 99.57542 
L 118.408264 98.910003 
L 115.333884 98.253075 
L 112.259504 97.605504 
L 109.185124 96.97742 
L 106.110744 96.377017 
L 103.036364 95.833099 
L 99.961983 95.310327 
L 96.887603 94.796487 
L 93.813223 94.288055 
L 90.738843 93.782049 
L 87.664463 93.276042 
L 84.590083 92.770035 
L 81.515702 92.264028 
L 78.441322 91.758021 
L 75.366942 91.252014 
L 72.292562 90.746007 
L 69.218182 90.24 
z
" style="fill:#74c476;"/>
   </g>
   <g id="PolyCollection_11">
    <path clip-path="url(#pd80a4481b0)" d="M 69.218182 90.24 
L 69.218182 90.24 
L 72.292562 90.746007 
L 75.366942 91.252014 
L 78.441322 91.758021 
L 81.515702 92.264028 
L 84.590083 92.770035 
L 87.664463 93.276042 
L 90.738843 93.782049 
L 93.813223 94.288055 
L 96.887603 94.796487 
L 99.961983 95.310327 
L 103.036364 95.833099 
L 106.110744 96.377017 
L 109.185124 96.97742 
L 112.259504 97.605504 
L 115.333884 98.253075 
L 118.408264 98.910003 
L 121.482645 99.57542 
L 124.557025 100.25757 
L 127.631405 100.953906 
L 130.705785 101.665264 
L 133.780165 102.412226 
L 136.854545 103.186352 
L 139.928926 103.984306 
L 143.003306 104.802407 
L 146.077686 105.635771 
L 149.152066 106.480716 
L 152.226446 107.332539 
L 155.300826 108.189745 
L 158.375207 109.050576 
L 161.449587 109.913173 
L 164.523967 110.775064 
L 167.598347 111.635871 
L 170.672727 112.496447 
L 173.747107 113.361768 
L 176.821488 114.231339 
L 179.895868 115.104584 
L 182.970248 115.981418 
L 186.044628 116.861379 
L 189.119008 117.743368 
L 192.193388 118.626951 
L 195.267769 119.510433 
L 198.342149 120.391719 
L 201.416529 121.268268 
L 204.490909 122.142265 
L 207.565289 123.013704 
L 210.639669 123.883155 
L 213.71405 124.75102 
L 216.78843 125.616723 
L 219.86281 126.480739 
L 222.93719 127.341907 
L 226.01157 128.201478 
L 229.08595 129.061069 
L 232.160331 129.922282 
L 235.234711 130.780102 
L 238.309091 131.63242 
L 241.383471 132.479964 
L 244.457851 133.321337 
L 247.532231 134.159318 
L 250.606612 134.995003 
L 253.680992 135.82631 
L 256.755372 136.663229 
L 259.829752 137.495925 
L 262.904132 138.324736 
L 265.978512 139.151369 
L 269.052893 139.974914 
L 272.127273 140.795937 
L 275.201653 141.614035 
L 278.276033 142.428024 
L 281.350413 143.238533 
L 284.424793 144.043929 
L 287.499174 144.844978 
L 290.573554 145.642506 
L 293.647934 146.435859 
L 296.722314 147.224605 
L 299.796694 148.009141 
L 302.871074 148.789295 
L 305.945455 149.566061 
L 309.019835 150.340119 
L 312.094215 151.111051 
L 315.168595 151.877523 
L 318.242975 152.640611 
L 321.317355 153.401479 
L 324.391736 154.160803 
L 327.466116 154.91772 
L 330.540496 155.670037 
L 333.614876 156.41763 
L 336.689256 157.163009 
L 339.763636 157.90558 
L 342.838017 158.645085 
L 345.912397 159.380273 
L 348.986777 160.110469 
L 352.061157 160.835594 
L 355.135537 161.556907 
L 358.209917 162.27494 
L 361.284298 162.990028 
L 364.358678 163.703178 
L 367.433058 164.413898 
L 370.507438 165.121541 
L 373.581818 165.824327 
L 373.581818 162.518487 
L 373.581818 162.518487 
L 370.507438 161.84902 
L 367.433058 161.174704 
L 364.358678 160.49733 
L 361.284298 159.81753 
L 358.209917 159.135793 
L 355.135537 158.451109 
L 352.061157 157.763146 
L 348.986777 157.071373 
L 345.912397 156.37453 
L 342.838017 155.672695 
L 339.763636 154.966542 
L 336.689256 154.257325 
L 333.614876 153.545303 
L 330.540496 152.831069 
L 327.466116 152.112111 
L 324.391736 151.388555 
L 321.317355 150.662594 
L 318.242975 149.93509 
L 315.168595 149.205369 
L 312.094215 148.472263 
L 309.019835 147.734698 
L 305.945455 146.994008 
L 302.871074 146.25061 
L 299.796694 145.503825 
L 296.722314 144.752658 
L 293.647934 143.997281 
L 290.573554 143.2373 
L 287.499174 142.473146 
L 284.424793 141.705471 
L 281.350413 140.933449 
L 278.276033 140.156316 
L 275.201653 139.375707 
L 272.127273 138.590988 
L 269.052893 137.803345 
L 265.978512 137.01318 
L 262.904132 136.219928 
L 259.829752 135.424497 
L 256.755372 134.625181 
L 253.680992 133.821643 
L 250.606612 133.023718 
L 247.532231 132.221417 
L 244.457851 131.41682 
L 241.383471 130.608834 
L 238.309091 129.794679 
L 235.234711 128.975758 
L 232.160331 128.151334 
L 229.08595 127.323519 
L 226.01157 126.497331 
L 222.93719 125.671163 
L 219.86281 124.843399 
L 216.78843 124.01279 
L 213.71405 123.180494 
L 210.639669 122.346038 
L 207.565289 121.509995 
L 204.490909 120.671964 
L 201.416529 119.831377 
L 198.342149 118.988236 
L 195.267769 118.14036 
L 192.193388 117.290288 
L 189.119008 116.44012 
L 186.044628 115.591546 
L 182.970248 114.745001 
L 179.895868 113.901583 
L 176.821488 113.061754 
L 173.747107 112.2256 
L 170.672727 111.393696 
L 167.598347 110.566536 
L 164.523967 109.739146 
L 161.449587 108.910672 
L 158.375207 108.081492 
L 155.300826 107.254078 
L 152.226446 106.430288 
L 149.152066 105.611882 
L 146.077686 104.800354 
L 143.003306 104.000407 
L 139.928926 103.215722 
L 136.854545 102.451185 
L 133.780165 101.710475 
L 130.705785 100.99693 
L 127.631405 100.318988 
L 124.557025 99.656069 
L 121.482645 99.007336 
L 118.408264 98.375336 
L 115.333884 97.751824 
L 112.259504 97.13767 
L 109.185124 96.543003 
L 106.110744 95.976017 
L 103.036364 95.465516 
L 99.961983 94.97616 
L 96.887603 94.495737 
L 93.813223 94.020722 
L 90.738843 93.548132 
L 87.664463 93.075541 
L 84.590083 92.602951 
L 81.515702 92.130361 
L 78.441322 91.657771 
L 75.366942 91.18518 
L 72.292562 90.71259 
L 69.218182 90.24 
z
" style="fill:#a1d99b;"/>
   </g>
   <g id="matplotlib.axis_1">
    <g id="xtick_1">
     <g id="line2d_1">
      <defs>
       <path d="M 0 0 
L 0 3.5 
" id="m3a2b0239f0" style="stroke:#000000;stroke-width:0.8;"/>
      </defs>
      <g>
       <use style="stroke:#000000;stroke-width:0.8;" x="69.218182" xlink:href="#m3a2b0239f0" y="512.64"/>
      </g>
     </g>
     <g id="text_1">
      <!-- 0 -->
      <g transform="translate(66.036932 527.238438)scale(0.1 -0.1)">
       <defs>
        <path d="M 2034 4250 
Q 1547 4250 1301 3770 
Q 1056 3291 1056 2328 
Q 1056 1369 1301 889 
Q 1547 409 2034 409 
Q 2525 409 2770 889 
Q 3016 1369 3016 2328 
Q 3016 3291 2770 3770 
Q 2525 4250 2034 4250 
z
M 2034 4750 
Q 2819 4750 3233 4129 
Q 3647 3509 3647 2328 
Q 3647 1150 3233 529 
Q 2819 -91 2034 -91 
Q 1250 -91 836 529 
Q 422 1150 422 2328 
Q 422 3509 836 4129 
Q 1250 4750 2034 4750 
z
" id="DejaVuSans-30" transform="scale(0.015625)"/>
       </defs>
       <use xlink:href="#DejaVuSans-30"/>
      </g>
     </g>
    </g>
    <g id="xtick_2">
     <g id="line2d_2">
      <g>
       <use style="stroke:#000000;stroke-width:0.8;" x="130.090909" xlink:href="#m3a2b0239f0" y="512.64"/>
      </g>
     </g>
     <g id="text_2">
      <!-- 20 -->
      <g transform="translate(123.728409 527.238438)scale(0.1 -0.1)">
       <defs>
        <path d="M 1228 531 
L 3431 531 
L 3431 0 
L 469 0 
L 469 531 
Q 828 903 1448 1529 
Q 2069 2156 2228 2338 
Q 2531 2678 2651 2914 
Q 2772 3150 2772 3378 
Q 2772 3750 2511 3984 
Q 2250 4219 1831 4219 
Q 1534 4219 1204 4116 
Q 875 4013 500 3803 
L 500 4441 
Q 881 4594 1212 4672 
Q 1544 4750 1819 4750 
Q 2544 4750 2975 4387 
Q 3406 4025 3406 3419 
Q 3406 3131 3298 2873 
Q 3191 2616 2906 2266 
Q 2828 2175 2409 1742 
Q 1991 1309 1228 531 
z
" id="DejaVuSans-32" transform="scale(0.015625)"/>
       </defs>
       <use xlink:href="#DejaVuSans-32"/>
       <use x="63.623047" xlink:href="#DejaVuSans-30"/>
      </g>
     </g>
    </g>
    <g id="xtick_3">
     <g id="line2d_3">
      <g>
       <use style="stroke:#000000;stroke-width:0.8;" x="190.963636" xlink:href="#m3a2b0239f0" y="512.64"/>
      </g>
     </g>
     <g id="text_3">
      <!-- 40 -->
      <g transform="translate(184.601136 527.238438)scale(0.1 -0.1)">
       <defs>
        <path d="M 2419 4116 
L 825 1625 
L 2419 1625 
L 2419 4116 
z
M 2253 4666 
L 3047 4666 
L 3047 1625 
L 3713 1625 
L 3713 1100 
L 3047 1100 
L 3047 0 
L 2419 0 
L 2419 1100 
L 313 1100 
L 313 1709 
L 2253 4666 
z
" id="DejaVuSans-34" transform="scale(0.015625)"/>
       </defs>
       <use xlink:href="#DejaVuSans-34"/>
       <use x="63.623047" xlink:href="#DejaVuSans-30"/>
      </g>
     </g>
    </g>
    <g id="xtick_4">
     <g id="line2d_4">
      <g>
       <use style="stroke:#000000;stroke-width:0.8;" x="251.836364" xlink:href="#m3a2b0239f0" y="512.64"/>
      </g>
     </g>
     <g id="text_4">
      <!-- 60 -->
      <g transform="translate(245.473864 527.238438)scale(0.1 -0.1)">
       <defs>
        <path d="M 2113 2584 
Q 1688 2584 1439 2293 
Q 1191 2003 1191 1497 
Q 1191 994 1439 701 
Q 1688 409 2113 409 
Q 2538 409 2786 701 
Q 3034 994 3034 1497 
Q 3034 2003 2786 2293 
Q 2538 2584 2113 2584 
z
M 3366 4563 
L 3366 3988 
Q 3128 4100 2886 4159 
Q 2644 4219 2406 4219 
Q 1781 4219 1451 3797 
Q 1122 3375 1075 2522 
Q 1259 2794 1537 2939 
Q 1816 3084 2150 3084 
Q 2853 3084 3261 2657 
Q 3669 2231 3669 1497 
Q 3669 778 3244 343 
Q 2819 -91 2113 -91 
Q 1303 -91 875 529 
Q 447 1150 447 2328 
Q 447 3434 972 4092 
Q 1497 4750 2381 4750 
Q 2619 4750 2861 4703 
Q 3103 4656 3366 4563 
z
" id="DejaVuSans-36" transform="scale(0.015625)"/>
       </defs>
       <use xlink:href="#DejaVuSans-36"/>
       <use x="63.623047" xlink:href="#DejaVuSans-30"/>
      </g>
     </g>
    </g>
    <g id="xtick_5">
     <g id="line2d_5">
      <g>
       <use style="stroke:#000000;stroke-width:0.8;" x="312.709091" xlink:href="#m3a2b0239f0" y="512.64"/>
      </g>
     </g>
     <g id="text_5">
      <!-- 80 -->
      <g transform="translate(306.346591 527.238438)scale(0.1 -0.1)">
       <defs>
        <path d="M 2034 2216 
Q 1584 2216 1326 1975 
Q 1069 1734 1069 1313 
Q 1069 891 1326 650 
Q 1584 409 2034 409 
Q 2484 409 2743 651 
Q 3003 894 3003 1313 
Q 3003 1734 2745 1975 
Q 2488 2216 2034 2216 
z
M 1403 2484 
Q 997 2584 770 2862 
Q 544 3141 544 3541 
Q 544 4100 942 4425 
Q 1341 4750 2034 4750 
Q 2731 4750 3128 4425 
Q 3525 4100 3525 3541 
Q 3525 3141 3298 2862 
Q 3072 2584 2669 2484 
Q 3125 2378 3379 2068 
Q 3634 1759 3634 1313 
Q 3634 634 3220 271 
Q 2806 -91 2034 -91 
Q 1263 -91 848 271 
Q 434 634 434 1313 
Q 434 1759 690 2068 
Q 947 2378 1403 2484 
z
M 1172 3481 
Q 1172 3119 1398 2916 
Q 1625 2713 2034 2713 
Q 2441 2713 2670 2916 
Q 2900 3119 2900 3481 
Q 2900 3844 2670 4047 
Q 2441 4250 2034 4250 
Q 1625 4250 1398 4047 
Q 1172 3844 1172 3481 
z
" id="DejaVuSans-38" transform="scale(0.015625)"/>
       </defs>
       <use xlink:href="#DejaVuSans-38"/>
       <use x="63.623047" xlink:href="#DejaVuSans-30"/>
      </g>
     </g>
    </g>
    <g id="xtick_6">
     <g id="line2d_6">
      <g>
       <use style="stroke:#000000;stroke-width:0.8;" x="373.581818" xlink:href="#m3a2b0239f0" y="512.64"/>
      </g>
     </g>
     <g id="text_6">
      <!-- 100 -->
      <g transform="translate(364.038068 527.238438)scale(0.1 -0.1)">
       <defs>
        <path d="M 794 531 
L 1825 531 
L 1825 4091 
L 703 3866 
L 703 4441 
L 1819 4666 
L 2450 4666 
L 2450 531 
L 3481 531 
L 3481 0 
L 794 0 
L 794 531 
z
" id="DejaVuSans-31" transform="scale(0.015625)"/>
       </defs>
       <use xlink:href="#DejaVuSans-31"/>
       <use x="63.623047" xlink:href="#DejaVuSans-30"/>
       <use x="127.246094" xlink:href="#DejaVuSans-30"/>
      </g>
     </g>
    </g>
    <g id="text_7">
     <!-- Proportion of New Technology in Grid (%) -->
     <g transform="translate(118.632031 540.916563)scale(0.1 -0.1)">
      <defs>
       <path d="M 1259 4147 
L 1259 2394 
L 2053 2394 
Q 2494 2394 2734 2622 
Q 2975 2850 2975 3272 
Q 2975 3691 2734 3919 
Q 2494 4147 2053 4147 
L 1259 4147 
z
M 628 4666 
L 2053 4666 
Q 2838 4666 3239 4311 
Q 3641 3956 3641 3272 
Q 3641 2581 3239 2228 
Q 2838 1875 2053 1875 
L 1259 1875 
L 1259 0 
L 628 0 
L 628 4666 
z
" id="DejaVuSans-50" transform="scale(0.015625)"/>
       <path d="M 2631 2963 
Q 2534 3019 2420 3045 
Q 2306 3072 2169 3072 
Q 1681 3072 1420 2755 
Q 1159 2438 1159 1844 
L 1159 0 
L 581 0 
L 581 3500 
L 1159 3500 
L 1159 2956 
Q 1341 3275 1631 3429 
Q 1922 3584 2338 3584 
Q 2397 3584 2469 3576 
Q 2541 3569 2628 3553 
L 2631 2963 
z
" id="DejaVuSans-72" transform="scale(0.015625)"/>
       <path d="M 1959 3097 
Q 1497 3097 1228 2736 
Q 959 2375 959 1747 
Q 959 1119 1226 758 
Q 1494 397 1959 397 
Q 2419 397 2687 759 
Q 2956 1122 2956 1747 
Q 2956 2369 2687 2733 
Q 2419 3097 1959 3097 
z
M 1959 3584 
Q 2709 3584 3137 3096 
Q 3566 2609 3566 1747 
Q 3566 888 3137 398 
Q 2709 -91 1959 -91 
Q 1206 -91 779 398 
Q 353 888 353 1747 
Q 353 2609 779 3096 
Q 1206 3584 1959 3584 
z
" id="DejaVuSans-6f" transform="scale(0.015625)"/>
       <path d="M 1159 525 
L 1159 -1331 
L 581 -1331 
L 581 3500 
L 1159 3500 
L 1159 2969 
Q 1341 3281 1617 3432 
Q 1894 3584 2278 3584 
Q 2916 3584 3314 3078 
Q 3713 2572 3713 1747 
Q 3713 922 3314 415 
Q 2916 -91 2278 -91 
Q 1894 -91 1617 61 
Q 1341 213 1159 525 
z
M 3116 1747 
Q 3116 2381 2855 2742 
Q 2594 3103 2138 3103 
Q 1681 3103 1420 2742 
Q 1159 2381 1159 1747 
Q 1159 1113 1420 752 
Q 1681 391 2138 391 
Q 2594 391 2855 752 
Q 3116 1113 3116 1747 
z
" id="DejaVuSans-70" transform="scale(0.015625)"/>
       <path d="M 1172 4494 
L 1172 3500 
L 2356 3500 
L 2356 3053 
L 1172 3053 
L 1172 1153 
Q 1172 725 1289 603 
Q 1406 481 1766 481 
L 2356 481 
L 2356 0 
L 1766 0 
Q 1100 0 847 248 
Q 594 497 594 1153 
L 594 3053 
L 172 3053 
L 172 3500 
L 594 3500 
L 594 4494 
L 1172 4494 
z
" id="DejaVuSans-74" transform="scale(0.015625)"/>
       <path d="M 603 3500 
L 1178 3500 
L 1178 0 
L 603 0 
L 603 3500 
z
M 603 4863 
L 1178 4863 
L 1178 4134 
L 603 4134 
L 603 4863 
z
" id="DejaVuSans-69" transform="scale(0.015625)"/>
       <path d="M 3513 2113 
L 3513 0 
L 2938 0 
L 2938 2094 
Q 2938 2591 2744 2837 
Q 2550 3084 2163 3084 
Q 1697 3084 1428 2787 
Q 1159 2491 1159 1978 
L 1159 0 
L 581 0 
L 581 3500 
L 1159 3500 
L 1159 2956 
Q 1366 3272 1645 3428 
Q 1925 3584 2291 3584 
Q 2894 3584 3203 3211 
Q 3513 2838 3513 2113 
z
" id="DejaVuSans-6e" transform="scale(0.015625)"/>
       <path id="DejaVuSans-20" transform="scale(0.015625)"/>
       <path d="M 2375 4863 
L 2375 4384 
L 1825 4384 
Q 1516 4384 1395 4259 
Q 1275 4134 1275 3809 
L 1275 3500 
L 2222 3500 
L 2222 3053 
L 1275 3053 
L 1275 0 
L 697 0 
L 697 3053 
L 147 3053 
L 147 3500 
L 697 3500 
L 697 3744 
Q 697 4328 969 4595 
Q 1241 4863 1831 4863 
L 2375 4863 
z
" id="DejaVuSans-66" transform="scale(0.015625)"/>
       <path d="M 628 4666 
L 1478 4666 
L 3547 763 
L 3547 4666 
L 4159 4666 
L 4159 0 
L 3309 0 
L 1241 3903 
L 1241 0 
L 628 0 
L 628 4666 
z
" id="DejaVuSans-4e" transform="scale(0.015625)"/>
       <path d="M 3597 1894 
L 3597 1613 
L 953 1613 
Q 991 1019 1311 708 
Q 1631 397 2203 397 
Q 2534 397 2845 478 
Q 3156 559 3463 722 
L 3463 178 
Q 3153 47 2828 -22 
Q 2503 -91 2169 -91 
Q 1331 -91 842 396 
Q 353 884 353 1716 
Q 353 2575 817 3079 
Q 1281 3584 2069 3584 
Q 2775 3584 3186 3129 
Q 3597 2675 3597 1894 
z
M 3022 2063 
Q 3016 2534 2758 2815 
Q 2500 3097 2075 3097 
Q 1594 3097 1305 2825 
Q 1016 2553 972 2059 
L 3022 2063 
z
" id="DejaVuSans-65" transform="scale(0.015625)"/>
       <path d="M 269 3500 
L 844 3500 
L 1563 769 
L 2278 3500 
L 2956 3500 
L 3675 769 
L 4391 3500 
L 4966 3500 
L 4050 0 
L 3372 0 
L 2619 2869 
L 1863 0 
L 1184 0 
L 269 3500 
z
" id="DejaVuSans-77" transform="scale(0.015625)"/>
       <path d="M -19 4666 
L 3928 4666 
L 3928 4134 
L 2272 4134 
L 2272 0 
L 1638 0 
L 1638 4134 
L -19 4134 
L -19 4666 
z
" id="DejaVuSans-54" transform="scale(0.015625)"/>
       <path d="M 3122 3366 
L 3122 2828 
Q 2878 2963 2633 3030 
Q 2388 3097 2138 3097 
Q 1578 3097 1268 2742 
Q 959 2388 959 1747 
Q 959 1106 1268 751 
Q 1578 397 2138 397 
Q 2388 397 2633 464 
Q 2878 531 3122 666 
L 3122 134 
Q 2881 22 2623 -34 
Q 2366 -91 2075 -91 
Q 1284 -91 818 406 
Q 353 903 353 1747 
Q 353 2603 823 3093 
Q 1294 3584 2113 3584 
Q 2378 3584 2631 3529 
Q 2884 3475 3122 3366 
z
" id="DejaVuSans-63" transform="scale(0.015625)"/>
       <path d="M 3513 2113 
L 3513 0 
L 2938 0 
L 2938 2094 
Q 2938 2591 2744 2837 
Q 2550 3084 2163 3084 
Q 1697 3084 1428 2787 
Q 1159 2491 1159 1978 
L 1159 0 
L 581 0 
L 581 4863 
L 1159 4863 
L 1159 2956 
Q 1366 3272 1645 3428 
Q 1925 3584 2291 3584 
Q 2894 3584 3203 3211 
Q 3513 2838 3513 2113 
z
" id="DejaVuSans-68" transform="scale(0.015625)"/>
       <path d="M 603 4863 
L 1178 4863 
L 1178 0 
L 603 0 
L 603 4863 
z
" id="DejaVuSans-6c" transform="scale(0.015625)"/>
       <path d="M 2906 1791 
Q 2906 2416 2648 2759 
Q 2391 3103 1925 3103 
Q 1463 3103 1205 2759 
Q 947 2416 947 1791 
Q 947 1169 1205 825 
Q 1463 481 1925 481 
Q 2391 481 2648 825 
Q 2906 1169 2906 1791 
z
M 3481 434 
Q 3481 -459 3084 -895 
Q 2688 -1331 1869 -1331 
Q 1566 -1331 1297 -1286 
Q 1028 -1241 775 -1147 
L 775 -588 
Q 1028 -725 1275 -790 
Q 1522 -856 1778 -856 
Q 2344 -856 2625 -561 
Q 2906 -266 2906 331 
L 2906 616 
Q 2728 306 2450 153 
Q 2172 0 1784 0 
Q 1141 0 747 490 
Q 353 981 353 1791 
Q 353 2603 747 3093 
Q 1141 3584 1784 3584 
Q 2172 3584 2450 3431 
Q 2728 3278 2906 2969 
L 2906 3500 
L 3481 3500 
L 3481 434 
z
" id="DejaVuSans-67" transform="scale(0.015625)"/>
       <path d="M 2059 -325 
Q 1816 -950 1584 -1140 
Q 1353 -1331 966 -1331 
L 506 -1331 
L 506 -850 
L 844 -850 
Q 1081 -850 1212 -737 
Q 1344 -625 1503 -206 
L 1606 56 
L 191 3500 
L 800 3500 
L 1894 763 
L 2988 3500 
L 3597 3500 
L 2059 -325 
z
" id="DejaVuSans-79" transform="scale(0.015625)"/>
       <path d="M 3809 666 
L 3809 1919 
L 2778 1919 
L 2778 2438 
L 4434 2438 
L 4434 434 
Q 4069 175 3628 42 
Q 3188 -91 2688 -91 
Q 1594 -91 976 548 
Q 359 1188 359 2328 
Q 359 3472 976 4111 
Q 1594 4750 2688 4750 
Q 3144 4750 3555 4637 
Q 3966 4525 4313 4306 
L 4313 3634 
Q 3963 3931 3569 4081 
Q 3175 4231 2741 4231 
Q 1884 4231 1454 3753 
Q 1025 3275 1025 2328 
Q 1025 1384 1454 906 
Q 1884 428 2741 428 
Q 3075 428 3337 486 
Q 3600 544 3809 666 
z
" id="DejaVuSans-47" transform="scale(0.015625)"/>
       <path d="M 2906 2969 
L 2906 4863 
L 3481 4863 
L 3481 0 
L 2906 0 
L 2906 525 
Q 2725 213 2448 61 
Q 2172 -91 1784 -91 
Q 1150 -91 751 415 
Q 353 922 353 1747 
Q 353 2572 751 3078 
Q 1150 3584 1784 3584 
Q 2172 3584 2448 3432 
Q 2725 3281 2906 2969 
z
M 947 1747 
Q 947 1113 1208 752 
Q 1469 391 1925 391 
Q 2381 391 2643 752 
Q 2906 1113 2906 1747 
Q 2906 2381 2643 2742 
Q 2381 3103 1925 3103 
Q 1469 3103 1208 2742 
Q 947 2381 947 1747 
z
" id="DejaVuSans-64" transform="scale(0.015625)"/>
       <path d="M 1984 4856 
Q 1566 4138 1362 3434 
Q 1159 2731 1159 2009 
Q 1159 1288 1364 580 
Q 1569 -128 1984 -844 
L 1484 -844 
Q 1016 -109 783 600 
Q 550 1309 550 2009 
Q 550 2706 781 3412 
Q 1013 4119 1484 4856 
L 1984 4856 
z
" id="DejaVuSans-28" transform="scale(0.015625)"/>
       <path d="M 4653 2053 
Q 4381 2053 4226 1822 
Q 4072 1591 4072 1178 
Q 4072 772 4226 539 
Q 4381 306 4653 306 
Q 4919 306 5073 539 
Q 5228 772 5228 1178 
Q 5228 1588 5073 1820 
Q 4919 2053 4653 2053 
z
M 4653 2450 
Q 5147 2450 5437 2106 
Q 5728 1763 5728 1178 
Q 5728 594 5436 251 
Q 5144 -91 4653 -91 
Q 4153 -91 3862 251 
Q 3572 594 3572 1178 
Q 3572 1766 3864 2108 
Q 4156 2450 4653 2450 
z
M 1428 4353 
Q 1159 4353 1004 4120 
Q 850 3888 850 3481 
Q 850 3069 1003 2837 
Q 1156 2606 1428 2606 
Q 1700 2606 1854 2837 
Q 2009 3069 2009 3481 
Q 2009 3884 1853 4118 
Q 1697 4353 1428 4353 
z
M 4250 4750 
L 4750 4750 
L 1831 -91 
L 1331 -91 
L 4250 4750 
z
M 1428 4750 
Q 1922 4750 2215 4408 
Q 2509 4066 2509 3481 
Q 2509 2891 2217 2550 
Q 1925 2209 1428 2209 
Q 931 2209 642 2551 
Q 353 2894 353 3481 
Q 353 4063 643 4406 
Q 934 4750 1428 4750 
z
" id="DejaVuSans-25" transform="scale(0.015625)"/>
       <path d="M 513 4856 
L 1013 4856 
Q 1481 4119 1714 3412 
Q 1947 2706 1947 2009 
Q 1947 1309 1714 600 
Q 1481 -109 1013 -844 
L 513 -844 
Q 928 -128 1133 580 
Q 1338 1288 1338 2009 
Q 1338 2731 1133 3434 
Q 928 4138 513 4856 
z
" id="DejaVuSans-29" transform="scale(0.015625)"/>
      </defs>
      <use xlink:href="#DejaVuSans-50"/>
      <use x="58.552734" xlink:href="#DejaVuSans-72"/>
      <use x="97.416016" xlink:href="#DejaVuSans-6f"/>
      <use x="158.597656" xlink:href="#DejaVuSans-70"/>
      <use x="222.074219" xlink:href="#DejaVuSans-6f"/>
      <use x="283.255859" xlink:href="#DejaVuSans-72"/>
      <use x="324.369141" xlink:href="#DejaVuSans-74"/>
      <use x="363.578125" xlink:href="#DejaVuSans-69"/>
      <use x="391.361328" xlink:href="#DejaVuSans-6f"/>
      <use x="452.542969" xlink:href="#DejaVuSans-6e"/>
      <use x="515.921875" xlink:href="#DejaVuSans-20"/>
      <use x="547.708984" xlink:href="#DejaVuSans-6f"/>
      <use x="608.890625" xlink:href="#DejaVuSans-66"/>
      <use x="644.095703" xlink:href="#DejaVuSans-20"/>
      <use x="675.882812" xlink:href="#DejaVuSans-4e"/>
      <use x="750.6875" xlink:href="#DejaVuSans-65"/>
      <use x="812.210938" xlink:href="#DejaVuSans-77"/>
      <use x="893.998047" xlink:href="#DejaVuSans-20"/>
      <use x="925.785156" xlink:href="#DejaVuSans-54"/>
      <use x="969.869141" xlink:href="#DejaVuSans-65"/>
      <use x="1031.392578" xlink:href="#DejaVuSans-63"/>
      <use x="1086.373047" xlink:href="#DejaVuSans-68"/>
      <use x="1149.751953" xlink:href="#DejaVuSans-6e"/>
      <use x="1213.130859" xlink:href="#DejaVuSans-6f"/>
      <use x="1274.3125" xlink:href="#DejaVuSans-6c"/>
      <use x="1302.095703" xlink:href="#DejaVuSans-6f"/>
      <use x="1363.277344" xlink:href="#DejaVuSans-67"/>
      <use x="1426.753906" xlink:href="#DejaVuSans-79"/>
      <use x="1485.933594" xlink:href="#DejaVuSans-20"/>
      <use x="1517.720703" xlink:href="#DejaVuSans-69"/>
      <use x="1545.503906" xlink:href="#DejaVuSans-6e"/>
      <use x="1608.882812" xlink:href="#DejaVuSans-20"/>
      <use x="1640.669922" xlink:href="#DejaVuSans-47"/>
      <use x="1718.160156" xlink:href="#DejaVuSans-72"/>
      <use x="1759.273438" xlink:href="#DejaVuSans-69"/>
      <use x="1787.056641" xlink:href="#DejaVuSans-64"/>
      <use x="1850.533203" xlink:href="#DejaVuSans-20"/>
      <use x="1882.320312" xlink:href="#DejaVuSans-28"/>
      <use x="1921.333984" xlink:href="#DejaVuSans-25"/>
      <use x="2016.353516" xlink:href="#DejaVuSans-29"/>
     </g>
    </g>
   </g>
   <g id="matplotlib.axis_2">
    <g id="ytick_1">
     <g id="line2d_7">
      <defs>
       <path d="M 0 0 
L -3.5 0 
" id="m2528804b10" style="stroke:#000000;stroke-width:0.8;"/>
      </defs>
      <g>
       <use style="stroke:#000000;stroke-width:0.8;" x="54" xlink:href="#m2528804b10" y="512.64"/>
      </g>
     </g>
     <g id="text_8">
      <!-- 0 -->
      <g transform="translate(40.6375 516.439219)scale(0.1 -0.1)">
       <use xlink:href="#DejaVuSans-30"/>
      </g>
     </g>
    </g>
    <g id="ytick_2">
     <g id="line2d_8">
      <g>
       <use style="stroke:#000000;stroke-width:0.8;" x="54" xlink:href="#m2528804b10" y="440.916206"/>
      </g>
     </g>
     <g id="text_9">
      <!-- 20 -->
      <g transform="translate(34.275 444.715425)scale(0.1 -0.1)">
       <use xlink:href="#DejaVuSans-32"/>
       <use x="63.623047" xlink:href="#DejaVuSans-30"/>
      </g>
     </g>
    </g>
    <g id="ytick_3">
     <g id="line2d_9">
      <g>
       <use style="stroke:#000000;stroke-width:0.8;" x="54" xlink:href="#m2528804b10" y="369.192412"/>
      </g>
     </g>
     <g id="text_10">
      <!-- 40 -->
      <g transform="translate(34.275 372.99163)scale(0.1 -0.1)">
       <use xlink:href="#DejaVuSans-34"/>
       <use x="63.623047" xlink:href="#DejaVuSans-30"/>
      </g>
     </g>
    </g>
    <g id="ytick_4">
     <g id="line2d_10">
      <g>
       <use style="stroke:#000000;stroke-width:0.8;" x="54" xlink:href="#m2528804b10" y="297.468617"/>
      </g>
     </g>
     <g id="text_11">
      <!-- 60 -->
      <g transform="translate(34.275 301.267836)scale(0.1 -0.1)">
       <use xlink:href="#DejaVuSans-36"/>
       <use x="63.623047" xlink:href="#DejaVuSans-30"/>
      </g>
     </g>
    </g>
    <g id="ytick_5">
     <g id="line2d_11">
      <g>
       <use style="stroke:#000000;stroke-width:0.8;" x="54" xlink:href="#m2528804b10" y="225.744823"/>
      </g>
     </g>
     <g id="text_12">
      <!-- 80 -->
      <g transform="translate(34.275 229.544042)scale(0.1 -0.1)">
       <use xlink:href="#DejaVuSans-38"/>
       <use x="63.623047" xlink:href="#DejaVuSans-30"/>
      </g>
     </g>
    </g>
    <g id="ytick_6">
     <g id="line2d_12">
      <g>
       <use style="stroke:#000000;stroke-width:0.8;" x="54" xlink:href="#m2528804b10" y="154.021029"/>
      </g>
     </g>
     <g id="text_13">
      <!-- 100 -->
      <g transform="translate(27.9125 157.820248)scale(0.1 -0.1)">
       <use xlink:href="#DejaVuSans-31"/>
       <use x="63.623047" xlink:href="#DejaVuSans-30"/>
       <use x="127.246094" xlink:href="#DejaVuSans-30"/>
      </g>
     </g>
    </g>
    <g id="ytick_7">
     <g id="line2d_13">
      <g>
       <use style="stroke:#000000;stroke-width:0.8;" x="54" xlink:href="#m2528804b10" y="82.297235"/>
      </g>
     </g>
     <g id="text_14">
      <!-- 120 -->
      <g transform="translate(27.9125 86.096454)scale(0.1 -0.1)">
       <use xlink:href="#DejaVuSans-31"/>
       <use x="63.623047" xlink:href="#DejaVuSans-32"/>
       <use x="127.246094" xlink:href="#DejaVuSans-30"/>
      </g>
     </g>
    </g>
    <g id="text_15">
     <!-- Energy Generated (TWh) -->
     <g transform="translate(21.832812 353.158906)rotate(-90)scale(0.1 -0.1)">
      <defs>
       <path d="M 628 4666 
L 3578 4666 
L 3578 4134 
L 1259 4134 
L 1259 2753 
L 3481 2753 
L 3481 2222 
L 1259 2222 
L 1259 531 
L 3634 531 
L 3634 0 
L 628 0 
L 628 4666 
z
" id="DejaVuSans-45" transform="scale(0.015625)"/>
       <path d="M 2194 1759 
Q 1497 1759 1228 1600 
Q 959 1441 959 1056 
Q 959 750 1161 570 
Q 1363 391 1709 391 
Q 2188 391 2477 730 
Q 2766 1069 2766 1631 
L 2766 1759 
L 2194 1759 
z
M 3341 1997 
L 3341 0 
L 2766 0 
L 2766 531 
Q 2569 213 2275 61 
Q 1981 -91 1556 -91 
Q 1019 -91 701 211 
Q 384 513 384 1019 
Q 384 1609 779 1909 
Q 1175 2209 1959 2209 
L 2766 2209 
L 2766 2266 
Q 2766 2663 2505 2880 
Q 2244 3097 1772 3097 
Q 1472 3097 1187 3025 
Q 903 2953 641 2809 
L 641 3341 
Q 956 3463 1253 3523 
Q 1550 3584 1831 3584 
Q 2591 3584 2966 3190 
Q 3341 2797 3341 1997 
z
" id="DejaVuSans-61" transform="scale(0.015625)"/>
       <path d="M 213 4666 
L 850 4666 
L 1831 722 
L 2809 4666 
L 3519 4666 
L 4500 722 
L 5478 4666 
L 6119 4666 
L 4947 0 
L 4153 0 
L 3169 4050 
L 2175 0 
L 1381 0 
L 213 4666 
z
" id="DejaVuSans-57" transform="scale(0.015625)"/>
      </defs>
      <use xlink:href="#DejaVuSans-45"/>
      <use x="63.183594" xlink:href="#DejaVuSans-6e"/>
      <use x="126.5625" xlink:href="#DejaVuSans-65"/>
      <use x="188.085938" xlink:href="#DejaVuSans-72"/>
      <use x="227.449219" xlink:href="#DejaVuSans-67"/>
      <use x="290.925781" xlink:href="#DejaVuSans-79"/>
      <use x="350.105469" xlink:href="#DejaVuSans-20"/>
      <use x="381.892578" xlink:href="#DejaVuSans-47"/>
      <use x="459.382812" xlink:href="#DejaVuSans-65"/>
      <use x="520.90625" xlink:href="#DejaVuSans-6e"/>
      <use x="584.285156" xlink:href="#DejaVuSans-65"/>
      <use x="645.808594" xlink:href="#DejaVuSans-72"/>
      <use x="686.921875" xlink:href="#DejaVuSans-61"/>
      <use x="748.201172" xlink:href="#DejaVuSans-74"/>
      <use x="787.410156" xlink:href="#DejaVuSans-65"/>
      <use x="848.933594" xlink:href="#DejaVuSans-64"/>
      <use x="912.410156" xlink:href="#DejaVuSans-20"/>
      <use x="944.197266" xlink:href="#DejaVuSans-28"/>
      <use x="983.210938" xlink:href="#DejaVuSans-54"/>
      <use x="1044.294922" xlink:href="#DejaVuSans-57"/>
      <use x="1143.171875" xlink:href="#DejaVuSans-68"/>
      <use x="1206.550781" xlink:href="#DejaVuSans-29"/>
     </g>
    </g>
   </g>
   <g id="patch_3">
    <path d="M 54 512.64 
L 54 69.12 
" style="fill:none;stroke:#000000;stroke-linecap:square;stroke-linejoin:miter;stroke-width:0.8;"/>
   </g>
   <g id="patch_4">
    <path d="M 388.8 512.64 
L 388.8 69.12 
" style="fill:none;stroke:#000000;stroke-linecap:square;stroke-linejoin:miter;stroke-width:0.8;"/>
   </g>
   <g id="patch_5">
    <path d="M 54 512.64 
L 388.8 512.64 
" style="fill:none;stroke:#000000;stroke-linecap:square;stroke-linejoin:miter;stroke-width:0.8;"/>
   </g>
   <g id="patch_6">
    <path d="M 54 69.12 
L 388.8 69.12 
" style="fill:none;stroke:#000000;stroke-linecap:square;stroke-linejoin:miter;stroke-width:0.8;"/>
   </g>
  </g>
 </g>
 <defs>
  <clipPath id="pd80a4481b0">
   <rect height="443.52" width="334.8" x="54" y="69.12"/>
  </clipPath>
 </defs>
</svg>
