<?xml version="1.0" encoding="utf-8" standalone="no"?>
<!DOCTYPE svg PUBLIC "-//W3C//DTD SVG 1.1//EN"
  "http://www.w3.org/Graphics/SVG/1.1/DTD/svg11.dtd">
<svg height="576pt" version="1.1" viewBox="0 0 432 576" width="432pt" xmlns="http://www.w3.org/2000/svg" xmlns:xlink="http://www.w3.org/1999/xlink">
 <metadata>
  <rdf:RDF xmlns:cc="http://creativecommons.org/ns#" xmlns:dc="http://purl.org/dc/elements/1.1/" xmlns:rdf="http://www.w3.org/1999/02/22-rdf-syntax-ns#">
   <cc:Work>
    <dc:type rdf:resource="http://purl.org/dc/dcmitype/StillImage"/>
    <dc:date>2021-06-15T10:28:40.719802</dc:date>
    <dc:format>image/svg+xml</dc:format>
    <dc:creator>
     <cc:Agent>
      <dc:title>Matplotlib v3.4.1, https://matplotlib.org/</dc:title>
     </cc:Agent>
    </dc:creator>
   </cc:Work>
  </rdf:RDF>
 </metadata>
 <defs>
  <style type="text/css">*{stroke-linecap:butt;stroke-linejoin:round;}</style>
 </defs>
 <g id="figure_1">
  <g id="patch_1">
   <path d="M 0 576 
L 432 576 
L 432 0 
L 0 0 
z
" style="fill:#ffffff;"/>
  </g>
  <g id="axes_1">
   <g id="patch_2">
    <path d="M 54 512.64 
L 388.8 512.64 
L 388.8 69.12 
L 54 69.12 
z
" style="fill:#ffffff;"/>
   </g>
   <g id="PolyCollection_1">
    <path clip-path="url(#p41342fbb2d)" d="M 69.218182 356.970715 
L 69.218182 512.64 
L 72.292562 512.64 
L 75.366942 512.64 
L 78.441322 512.64 
L 81.515702 512.64 
L 84.590083 512.64 
L 87.664463 512.64 
L 90.738843 512.64 
L 93.813223 512.64 
L 96.887603 512.64 
L 99.961983 512.64 
L 103.036364 512.64 
L 106.110744 512.64 
L 109.185124 512.64 
L 112.259504 512.64 
L 115.333884 512.64 
L 118.408264 512.64 
L 121.482645 512.64 
L 124.557025 512.64 
L 127.631405 512.64 
L 130.705785 512.64 
L 133.780165 512.64 
L 136.854545 512.64 
L 139.928926 512.64 
L 143.003306 512.64 
L 146.077686 512.64 
L 149.152066 512.64 
L 152.226446 512.64 
L 155.300826 512.64 
L 158.375207 512.64 
L 161.449587 512.64 
L 164.523967 512.64 
L 167.598347 512.64 
L 170.672727 512.64 
L 173.747107 512.64 
L 176.821488 512.64 
L 179.895868 512.64 
L 182.970248 512.64 
L 186.044628 512.64 
L 189.119008 512.64 
L 192.193388 512.64 
L 195.267769 512.64 
L 198.342149 512.64 
L 201.416529 512.64 
L 204.490909 512.64 
L 207.565289 512.64 
L 210.639669 512.64 
L 213.71405 512.64 
L 216.78843 512.64 
L 219.86281 512.64 
L 222.93719 512.64 
L 226.01157 512.64 
L 229.08595 512.64 
L 232.160331 512.64 
L 235.234711 512.64 
L 238.309091 512.64 
L 241.383471 512.64 
L 244.457851 512.64 
L 247.532231 512.64 
L 250.606612 512.64 
L 253.680992 512.64 
L 256.755372 512.64 
L 259.829752 512.64 
L 262.904132 512.64 
L 265.978512 512.64 
L 269.052893 512.64 
L 272.127273 512.64 
L 275.201653 512.64 
L 278.276033 512.64 
L 281.350413 512.64 
L 284.424793 512.64 
L 287.499174 512.64 
L 290.573554 512.64 
L 293.647934 512.64 
L 296.722314 512.64 
L 299.796694 512.64 
L 302.871074 512.64 
L 305.945455 512.64 
L 309.019835 512.64 
L 312.094215 512.64 
L 315.168595 512.64 
L 318.242975 512.64 
L 321.317355 512.64 
L 324.391736 512.64 
L 327.466116 512.64 
L 330.540496 512.64 
L 333.614876 512.64 
L 336.689256 512.64 
L 339.763636 512.64 
L 342.838017 512.64 
L 345.912397 512.64 
L 348.986777 512.64 
L 352.061157 512.64 
L 355.135537 512.64 
L 358.209917 512.64 
L 361.284298 512.64 
L 364.358678 512.64 
L 367.433058 512.64 
L 370.507438 512.64 
L 373.581818 512.64 
L 373.581818 360.371985 
L 373.581818 360.371985 
L 370.507438 360.359603 
L 367.433058 360.346977 
L 364.358678 360.334184 
L 361.284298 360.321036 
L 358.209917 360.307689 
L 355.135537 360.29406 
L 352.061157 360.280259 
L 348.986777 360.266267 
L 345.912397 360.251975 
L 342.838017 360.237496 
L 339.763636 360.222871 
L 336.689256 360.208042 
L 333.614876 360.192996 
L 330.540496 360.177666 
L 327.466116 360.162048 
L 324.391736 360.14625 
L 321.317355 360.130205 
L 318.242975 360.113799 
L 315.168595 360.097153 
L 312.094215 360.080264 
L 309.019835 360.063147 
L 305.945455 360.045819 
L 302.871074 360.028167 
L 299.796694 360.010065 
L 296.722314 359.991572 
L 293.647934 359.972718 
L 290.573554 359.953478 
L 287.499174 359.933703 
L 284.424793 359.913515 
L 281.350413 359.892786 
L 278.276033 359.871421 
L 275.201653 359.849543 
L 272.127273 359.82721 
L 269.052893 359.804314 
L 265.978512 359.780806 
L 262.904132 359.756732 
L 259.829752 359.732112 
L 256.755372 359.706858 
L 253.680992 359.680983 
L 250.606612 359.654464 
L 247.532231 359.627231 
L 244.457851 359.599384 
L 241.383471 359.570943 
L 238.309091 359.541755 
L 235.234711 359.51177 
L 232.160331 359.481031 
L 229.08595 359.449579 
L 226.01157 359.417353 
L 222.93719 359.384204 
L 219.86281 359.350121 
L 216.78843 359.315311 
L 213.71405 359.279889 
L 210.639669 359.243662 
L 207.565289 359.206569 
L 204.490909 359.166772 
L 201.416529 359.116862 
L 198.342149 359.066951 
L 195.267769 359.017041 
L 192.193388 358.967131 
L 189.119008 358.91722 
L 186.044628 358.86731 
L 182.970248 358.817399 
L 179.895868 358.767489 
L 176.821488 358.717579 
L 173.747107 358.667668 
L 170.672727 358.617758 
L 167.598347 358.567847 
L 164.523967 358.517937 
L 161.449587 358.468027 
L 158.375207 358.418116 
L 155.300826 358.368206 
L 152.226446 358.318295 
L 149.152066 358.268385 
L 146.077686 358.218475 
L 143.003306 358.168564 
L 139.928926 358.118654 
L 136.854545 358.068744 
L 133.780165 358.018833 
L 130.705785 357.968923 
L 127.631405 357.919012 
L 124.557025 357.869102 
L 121.482645 357.819192 
L 118.408264 357.769281 
L 115.333884 357.719371 
L 112.259504 357.66946 
L 109.185124 357.61955 
L 106.110744 357.56964 
L 103.036364 357.519729 
L 99.961983 357.469819 
L 96.887603 357.419909 
L 93.813223 357.369998 
L 90.738843 357.320088 
L 87.664463 357.270177 
L 84.590083 357.220267 
L 81.515702 357.170357 
L 78.441322 357.120446 
L 75.366942 357.070536 
L 72.292562 357.020625 
L 69.218182 356.970715 
z
" style="fill:#3182bd;"/>
   </g>
   <g id="PolyCollection_2">
    <path clip-path="url(#p41342fbb2d)" d="M 69.218182 96.784415 
L 69.218182 356.970715 
L 72.292562 357.020625 
L 75.366942 357.070536 
L 78.441322 357.120446 
L 81.515702 357.170357 
L 84.590083 357.220267 
L 87.664463 357.270177 
L 90.738843 357.320088 
L 93.813223 357.369998 
L 96.887603 357.419909 
L 99.961983 357.469819 
L 103.036364 357.519729 
L 106.110744 357.56964 
L 109.185124 357.61955 
L 112.259504 357.66946 
L 115.333884 357.719371 
L 118.408264 357.769281 
L 121.482645 357.819192 
L 124.557025 357.869102 
L 127.631405 357.919012 
L 130.705785 357.968923 
L 133.780165 358.018833 
L 136.854545 358.068744 
L 139.928926 358.118654 
L 143.003306 358.168564 
L 146.077686 358.218475 
L 149.152066 358.268385 
L 152.226446 358.318295 
L 155.300826 358.368206 
L 158.375207 358.418116 
L 161.449587 358.468027 
L 164.523967 358.517937 
L 167.598347 358.567847 
L 170.672727 358.617758 
L 173.747107 358.667668 
L 176.821488 358.717579 
L 179.895868 358.767489 
L 182.970248 358.817399 
L 186.044628 358.86731 
L 189.119008 358.91722 
L 192.193388 358.967131 
L 195.267769 359.017041 
L 198.342149 359.066951 
L 201.416529 359.116862 
L 204.490909 359.166772 
L 207.565289 359.206569 
L 210.639669 359.243662 
L 213.71405 359.279889 
L 216.78843 359.315311 
L 219.86281 359.350121 
L 222.93719 359.384204 
L 226.01157 359.417353 
L 229.08595 359.449579 
L 232.160331 359.481031 
L 235.234711 359.51177 
L 238.309091 359.541755 
L 241.383471 359.570943 
L 244.457851 359.599384 
L 247.532231 359.627231 
L 250.606612 359.654464 
L 253.680992 359.680983 
L 256.755372 359.706858 
L 259.829752 359.732112 
L 262.904132 359.756732 
L 265.978512 359.780806 
L 269.052893 359.804314 
L 272.127273 359.82721 
L 275.201653 359.849543 
L 278.276033 359.871421 
L 281.350413 359.892786 
L 284.424793 359.913515 
L 287.499174 359.933703 
L 290.573554 359.953478 
L 293.647934 359.972718 
L 296.722314 359.991572 
L 299.796694 360.010065 
L 302.871074 360.028167 
L 305.945455 360.045819 
L 309.019835 360.063147 
L 312.094215 360.080264 
L 315.168595 360.097153 
L 318.242975 360.113799 
L 321.317355 360.130205 
L 324.391736 360.14625 
L 327.466116 360.162048 
L 330.540496 360.177666 
L 333.614876 360.192996 
L 336.689256 360.208042 
L 339.763636 360.222871 
L 342.838017 360.237496 
L 345.912397 360.251975 
L 348.986777 360.266267 
L 352.061157 360.280259 
L 355.135537 360.29406 
L 358.209917 360.307689 
L 361.284298 360.321036 
L 364.358678 360.334184 
L 367.433058 360.346977 
L 370.507438 360.359603 
L 373.581818 360.371985 
L 373.581818 103.511569 
L 373.581818 103.511569 
L 370.507438 103.418116 
L 367.433058 103.324943 
L 364.358678 103.231965 
L 361.284298 103.139401 
L 358.209917 103.047071 
L 355.135537 102.955068 
L 352.061157 102.863264 
L 348.986777 102.771682 
L 345.912397 102.68045 
L 342.838017 102.589436 
L 339.763636 102.498592 
L 336.689256 102.407986 
L 333.614876 102.317635 
L 330.540496 102.227614 
L 327.466116 102.137928 
L 324.391736 102.048454 
L 321.317355 101.959267 
L 318.242975 101.870498 
L 315.168595 101.782011 
L 312.094215 101.693805 
L 309.019835 101.605867 
L 305.945455 101.518174 
L 302.871074 101.43086 
L 299.796694 101.344071 
L 296.722314 101.257738 
L 293.647934 101.171826 
L 290.573554 101.086363 
L 287.499174 101.001524 
L 284.424793 100.917168 
L 281.350413 100.833442 
L 278.276033 100.750459 
L 275.201653 100.668067 
L 272.127273 100.586197 
L 269.052893 100.504973 
L 265.978512 100.424443 
L 262.904132 100.344553 
L 259.829752 100.265299 
L 256.755372 100.18678 
L 253.680992 100.108981 
L 250.606612 100.031934 
L 247.532231 99.95572 
L 244.457851 99.880222 
L 241.383471 99.805418 
L 238.309091 99.731484 
L 235.234711 99.658482 
L 232.160331 99.586354 
L 229.08595 99.515023 
L 226.01157 99.444568 
L 222.93719 99.375186 
L 219.86281 99.30689 
L 216.78843 99.239442 
L 213.71405 99.172706 
L 210.639669 99.106906 
L 207.565289 99.042117 
L 204.490909 98.980472 
L 201.416529 98.930562 
L 198.342149 98.880651 
L 195.267769 98.830741 
L 192.193388 98.78083 
L 189.119008 98.73092 
L 186.044628 98.68101 
L 182.970248 98.631099 
L 179.895868 98.581189 
L 176.821488 98.531278 
L 173.747107 98.481368 
L 170.672727 98.431458 
L 167.598347 98.381547 
L 164.523967 98.331637 
L 161.449587 98.281727 
L 158.375207 98.231816 
L 155.300826 98.181906 
L 152.226446 98.131995 
L 149.152066 98.082085 
L 146.077686 98.032175 
L 143.003306 97.982264 
L 139.928926 97.932354 
L 136.854545 97.882443 
L 133.780165 97.832533 
L 130.705785 97.782623 
L 127.631405 97.732712 
L 124.557025 97.682802 
L 121.482645 97.632891 
L 118.408264 97.582981 
L 115.333884 97.533071 
L 112.259504 97.48316 
L 109.185124 97.43325 
L 106.110744 97.38334 
L 103.036364 97.333429 
L 99.961983 97.283519 
L 96.887603 97.233608 
L 93.813223 97.183698 
L 90.738843 97.133788 
L 87.664463 97.083877 
L 84.590083 97.033967 
L 81.515702 96.984056 
L 78.441322 96.934146 
L 75.366942 96.884236 
L 72.292562 96.834325 
L 69.218182 96.784415 
z
" style="fill:#6baed6;"/>
   </g>
   <g id="PolyCollection_3">
    <path clip-path="url(#p41342fbb2d)" d="M 69.218182 96.666602 
L 69.218182 96.784415 
L 72.292562 96.834325 
L 75.366942 96.884236 
L 78.441322 96.934146 
L 81.515702 96.984056 
L 84.590083 97.033967 
L 87.664463 97.083877 
L 90.738843 97.133788 
L 93.813223 97.183698 
L 96.887603 97.233608 
L 99.961983 97.283519 
L 103.036364 97.333429 
L 106.110744 97.38334 
L 109.185124 97.43325 
L 112.259504 97.48316 
L 115.333884 97.533071 
L 118.408264 97.582981 
L 121.482645 97.632891 
L 124.557025 97.682802 
L 127.631405 97.732712 
L 130.705785 97.782623 
L 133.780165 97.832533 
L 136.854545 97.882443 
L 139.928926 97.932354 
L 143.003306 97.982264 
L 146.077686 98.032175 
L 149.152066 98.082085 
L 152.226446 98.131995 
L 155.300826 98.181906 
L 158.375207 98.231816 
L 161.449587 98.281727 
L 164.523967 98.331637 
L 167.598347 98.381547 
L 170.672727 98.431458 
L 173.747107 98.481368 
L 176.821488 98.531278 
L 179.895868 98.581189 
L 182.970248 98.631099 
L 186.044628 98.68101 
L 189.119008 98.73092 
L 192.193388 98.78083 
L 195.267769 98.830741 
L 198.342149 98.880651 
L 201.416529 98.930562 
L 204.490909 98.980472 
L 207.565289 99.042117 
L 210.639669 99.106906 
L 213.71405 99.172706 
L 216.78843 99.239442 
L 219.86281 99.30689 
L 222.93719 99.375186 
L 226.01157 99.444568 
L 229.08595 99.515023 
L 232.160331 99.586354 
L 235.234711 99.658482 
L 238.309091 99.731484 
L 241.383471 99.805418 
L 244.457851 99.880222 
L 247.532231 99.95572 
L 250.606612 100.031934 
L 253.680992 100.108981 
L 256.755372 100.18678 
L 259.829752 100.265299 
L 262.904132 100.344553 
L 265.978512 100.424443 
L 269.052893 100.504973 
L 272.127273 100.586197 
L 275.201653 100.668067 
L 278.276033 100.750459 
L 281.350413 100.833442 
L 284.424793 100.917168 
L 287.499174 101.001524 
L 290.573554 101.086363 
L 293.647934 101.171826 
L 296.722314 101.257738 
L 299.796694 101.344071 
L 302.871074 101.43086 
L 305.945455 101.518174 
L 309.019835 101.605867 
L 312.094215 101.693805 
L 315.168595 101.782011 
L 318.242975 101.870498 
L 321.317355 101.959267 
L 324.391736 102.048454 
L 327.466116 102.137928 
L 330.540496 102.227614 
L 333.614876 102.317635 
L 336.689256 102.407986 
L 339.763636 102.498592 
L 342.838017 102.589436 
L 345.912397 102.68045 
L 348.986777 102.771682 
L 352.061157 102.863264 
L 355.135537 102.955068 
L 358.209917 103.047071 
L 361.284298 103.139401 
L 364.358678 103.231965 
L 367.433058 103.324943 
L 370.507438 103.418116 
L 373.581818 103.511569 
L 373.581818 103.393756 
L 373.581818 103.393756 
L 370.507438 103.300303 
L 367.433058 103.207131 
L 364.358678 103.114153 
L 361.284298 103.021589 
L 358.209917 102.929258 
L 355.135537 102.837255 
L 352.061157 102.745452 
L 348.986777 102.653869 
L 345.912397 102.562637 
L 342.838017 102.471624 
L 339.763636 102.380779 
L 336.689256 102.290174 
L 333.614876 102.199822 
L 330.540496 102.109801 
L 327.466116 102.020116 
L 324.391736 101.930641 
L 321.317355 101.841455 
L 318.242975 101.752686 
L 315.168595 101.664198 
L 312.094215 101.575992 
L 309.019835 101.488055 
L 305.945455 101.400362 
L 302.871074 101.313047 
L 299.796694 101.226258 
L 296.722314 101.139926 
L 293.647934 101.054013 
L 290.573554 100.96855 
L 287.499174 100.883711 
L 284.424793 100.799355 
L 281.350413 100.715629 
L 278.276033 100.632646 
L 275.201653 100.550255 
L 272.127273 100.468385 
L 269.052893 100.387161 
L 265.978512 100.306631 
L 262.904132 100.226741 
L 259.829752 100.147487 
L 256.755372 100.068967 
L 253.680992 99.991168 
L 250.606612 99.914121 
L 247.532231 99.837907 
L 244.457851 99.762409 
L 241.383471 99.687605 
L 238.309091 99.613672 
L 235.234711 99.540669 
L 232.160331 99.468541 
L 229.08595 99.39721 
L 226.01157 99.326755 
L 222.93719 99.257373 
L 219.86281 99.189078 
L 216.78843 99.121629 
L 213.71405 99.054893 
L 210.639669 98.989093 
L 207.565289 98.924304 
L 204.490909 98.862659 
L 201.416529 98.812749 
L 198.342149 98.762838 
L 195.267769 98.712928 
L 192.193388 98.663018 
L 189.119008 98.613107 
L 186.044628 98.563197 
L 182.970248 98.513286 
L 179.895868 98.463376 
L 176.821488 98.413466 
L 173.747107 98.363555 
L 170.672727 98.313645 
L 167.598347 98.263735 
L 164.523967 98.213824 
L 161.449587 98.163914 
L 158.375207 98.114003 
L 155.300826 98.064093 
L 152.226446 98.014183 
L 149.152066 97.964272 
L 146.077686 97.914362 
L 143.003306 97.864451 
L 139.928926 97.814541 
L 136.854545 97.764631 
L 133.780165 97.71472 
L 130.705785 97.66481 
L 127.631405 97.6149 
L 124.557025 97.564989 
L 121.482645 97.515079 
L 118.408264 97.465168 
L 115.333884 97.415258 
L 112.259504 97.365348 
L 109.185124 97.315437 
L 106.110744 97.265527 
L 103.036364 97.215616 
L 99.961983 97.165706 
L 96.887603 97.115796 
L 93.813223 97.065885 
L 90.738843 97.015975 
L 87.664463 96.966064 
L 84.590083 96.916154 
L 81.515702 96.866244 
L 78.441322 96.816333 
L 75.366942 96.766423 
L 72.292562 96.716513 
L 69.218182 96.666602 
z
" style="fill:#9ecae1;"/>
   </g>
   <g id="PolyCollection_4">
    <path clip-path="url(#p41342fbb2d)" d="M 69.218182 96.523522 
L 69.218182 96.666602 
L 72.292562 96.716513 
L 75.366942 96.766423 
L 78.441322 96.816333 
L 81.515702 96.866244 
L 84.590083 96.916154 
L 87.664463 96.966064 
L 90.738843 97.015975 
L 93.813223 97.065885 
L 96.887603 97.115796 
L 99.961983 97.165706 
L 103.036364 97.215616 
L 106.110744 97.265527 
L 109.185124 97.315437 
L 112.259504 97.365348 
L 115.333884 97.415258 
L 118.408264 97.465168 
L 121.482645 97.515079 
L 124.557025 97.564989 
L 127.631405 97.6149 
L 130.705785 97.66481 
L 133.780165 97.71472 
L 136.854545 97.764631 
L 139.928926 97.814541 
L 143.003306 97.864451 
L 146.077686 97.914362 
L 149.152066 97.964272 
L 152.226446 98.014183 
L 155.300826 98.064093 
L 158.375207 98.114003 
L 161.449587 98.163914 
L 164.523967 98.213824 
L 167.598347 98.263735 
L 170.672727 98.313645 
L 173.747107 98.363555 
L 176.821488 98.413466 
L 179.895868 98.463376 
L 182.970248 98.513286 
L 186.044628 98.563197 
L 189.119008 98.613107 
L 192.193388 98.663018 
L 195.267769 98.712928 
L 198.342149 98.762838 
L 201.416529 98.812749 
L 204.490909 98.862659 
L 207.565289 98.924304 
L 210.639669 98.989093 
L 213.71405 99.054893 
L 216.78843 99.121629 
L 219.86281 99.189078 
L 222.93719 99.257373 
L 226.01157 99.326755 
L 229.08595 99.39721 
L 232.160331 99.468541 
L 235.234711 99.540669 
L 238.309091 99.613672 
L 241.383471 99.687605 
L 244.457851 99.762409 
L 247.532231 99.837907 
L 250.606612 99.914121 
L 253.680992 99.991168 
L 256.755372 100.068967 
L 259.829752 100.147487 
L 262.904132 100.226741 
L 265.978512 100.306631 
L 269.052893 100.387161 
L 272.127273 100.468385 
L 275.201653 100.550255 
L 278.276033 100.632646 
L 281.350413 100.715629 
L 284.424793 100.799355 
L 287.499174 100.883711 
L 290.573554 100.96855 
L 293.647934 101.054013 
L 296.722314 101.139926 
L 299.796694 101.226258 
L 302.871074 101.313047 
L 305.945455 101.400362 
L 309.019835 101.488055 
L 312.094215 101.575992 
L 315.168595 101.664198 
L 318.242975 101.752686 
L 321.317355 101.841455 
L 324.391736 101.930641 
L 327.466116 102.020116 
L 330.540496 102.109801 
L 333.614876 102.199822 
L 336.689256 102.290174 
L 339.763636 102.380779 
L 342.838017 102.471624 
L 345.912397 102.562637 
L 348.986777 102.653869 
L 352.061157 102.745452 
L 355.135537 102.837255 
L 358.209917 102.929258 
L 361.284298 103.021589 
L 364.358678 103.114153 
L 367.433058 103.207131 
L 370.507438 103.300303 
L 373.581818 103.393756 
L 373.581818 103.250676 
L 373.581818 103.250676 
L 370.507438 103.157223 
L 367.433058 103.064051 
L 364.358678 102.971073 
L 361.284298 102.878509 
L 358.209917 102.786178 
L 355.135537 102.694175 
L 352.061157 102.602372 
L 348.986777 102.510789 
L 345.912397 102.419557 
L 342.838017 102.328544 
L 339.763636 102.2377 
L 336.689256 102.147094 
L 333.614876 102.056742 
L 330.540496 101.966721 
L 327.466116 101.877036 
L 324.391736 101.787561 
L 321.317355 101.698375 
L 318.242975 101.609606 
L 315.168595 101.521118 
L 312.094215 101.432912 
L 309.019835 101.344975 
L 305.945455 101.257282 
L 302.871074 101.169967 
L 299.796694 101.083178 
L 296.722314 100.996846 
L 293.647934 100.910933 
L 290.573554 100.82547 
L 287.499174 100.740632 
L 284.424793 100.656275 
L 281.350413 100.572549 
L 278.276033 100.489566 
L 275.201653 100.407175 
L 272.127273 100.325305 
L 269.052893 100.244081 
L 265.978512 100.163551 
L 262.904132 100.083661 
L 259.829752 100.004407 
L 256.755372 99.925887 
L 253.680992 99.848088 
L 250.606612 99.771042 
L 247.532231 99.694827 
L 244.457851 99.61933 
L 241.383471 99.544525 
L 238.309091 99.470592 
L 235.234711 99.39759 
L 232.160331 99.325461 
L 229.08595 99.25413 
L 226.01157 99.183676 
L 222.93719 99.114293 
L 219.86281 99.045998 
L 216.78843 98.97855 
L 213.71405 98.911813 
L 210.639669 98.846013 
L 207.565289 98.781224 
L 204.490909 98.719579 
L 201.416529 98.669669 
L 198.342149 98.619759 
L 195.267769 98.569848 
L 192.193388 98.519938 
L 189.119008 98.470028 
L 186.044628 98.420117 
L 182.970248 98.370207 
L 179.895868 98.320296 
L 176.821488 98.270386 
L 173.747107 98.220476 
L 170.672727 98.170565 
L 167.598347 98.120655 
L 164.523967 98.070744 
L 161.449587 98.020834 
L 158.375207 97.970924 
L 155.300826 97.921013 
L 152.226446 97.871103 
L 149.152066 97.821192 
L 146.077686 97.771282 
L 143.003306 97.721372 
L 139.928926 97.671461 
L 136.854545 97.621551 
L 133.780165 97.571641 
L 130.705785 97.52173 
L 127.631405 97.47182 
L 124.557025 97.421909 
L 121.482645 97.371999 
L 118.408264 97.322089 
L 115.333884 97.272178 
L 112.259504 97.222268 
L 109.185124 97.172357 
L 106.110744 97.122447 
L 103.036364 97.072537 
L 99.961983 97.022626 
L 96.887603 96.972716 
L 93.813223 96.922805 
L 90.738843 96.872895 
L 87.664463 96.822985 
L 84.590083 96.773074 
L 81.515702 96.723164 
L 78.441322 96.673254 
L 75.366942 96.623343 
L 72.292562 96.573433 
L 69.218182 96.523522 
z
" style="fill:#c6dbef;"/>
   </g>
   <g id="PolyCollection_5">
    <path clip-path="url(#p41342fbb2d)" d="M 69.218182 96.047185 
L 69.218182 96.523522 
L 72.292562 96.573433 
L 75.366942 96.623343 
L 78.441322 96.673254 
L 81.515702 96.723164 
L 84.590083 96.773074 
L 87.664463 96.822985 
L 90.738843 96.872895 
L 93.813223 96.922805 
L 96.887603 96.972716 
L 99.961983 97.022626 
L 103.036364 97.072537 
L 106.110744 97.122447 
L 109.185124 97.172357 
L 112.259504 97.222268 
L 115.333884 97.272178 
L 118.408264 97.322089 
L 121.482645 97.371999 
L 124.557025 97.421909 
L 127.631405 97.47182 
L 130.705785 97.52173 
L 133.780165 97.571641 
L 136.854545 97.621551 
L 139.928926 97.671461 
L 143.003306 97.721372 
L 146.077686 97.771282 
L 149.152066 97.821192 
L 152.226446 97.871103 
L 155.300826 97.921013 
L 158.375207 97.970924 
L 161.449587 98.020834 
L 164.523967 98.070744 
L 167.598347 98.120655 
L 170.672727 98.170565 
L 173.747107 98.220476 
L 176.821488 98.270386 
L 179.895868 98.320296 
L 182.970248 98.370207 
L 186.044628 98.420117 
L 189.119008 98.470028 
L 192.193388 98.519938 
L 195.267769 98.569848 
L 198.342149 98.619759 
L 201.416529 98.669669 
L 204.490909 98.719579 
L 207.565289 98.781224 
L 210.639669 98.846013 
L 213.71405 98.911813 
L 216.78843 98.97855 
L 219.86281 99.045998 
L 222.93719 99.114293 
L 226.01157 99.183676 
L 229.08595 99.25413 
L 232.160331 99.325461 
L 235.234711 99.39759 
L 238.309091 99.470592 
L 241.383471 99.544525 
L 244.457851 99.61933 
L 247.532231 99.694827 
L 250.606612 99.771042 
L 253.680992 99.848088 
L 256.755372 99.925887 
L 259.829752 100.004407 
L 262.904132 100.083661 
L 265.978512 100.163551 
L 269.052893 100.244081 
L 272.127273 100.325305 
L 275.201653 100.407175 
L 278.276033 100.489566 
L 281.350413 100.572549 
L 284.424793 100.656275 
L 287.499174 100.740632 
L 290.573554 100.82547 
L 293.647934 100.910933 
L 296.722314 100.996846 
L 299.796694 101.083178 
L 302.871074 101.169967 
L 305.945455 101.257282 
L 309.019835 101.344975 
L 312.094215 101.432912 
L 315.168595 101.521118 
L 318.242975 101.609606 
L 321.317355 101.698375 
L 324.391736 101.787561 
L 327.466116 101.877036 
L 330.540496 101.966721 
L 333.614876 102.056742 
L 336.689256 102.147094 
L 339.763636 102.2377 
L 342.838017 102.328544 
L 345.912397 102.419557 
L 348.986777 102.510789 
L 352.061157 102.602372 
L 355.135537 102.694175 
L 358.209917 102.786178 
L 361.284298 102.878509 
L 364.358678 102.971073 
L 367.433058 103.064051 
L 370.507438 103.157223 
L 373.581818 103.250676 
L 373.581818 102.774339 
L 373.581818 102.774339 
L 370.507438 102.680886 
L 367.433058 102.587714 
L 364.358678 102.494736 
L 361.284298 102.402172 
L 358.209917 102.309841 
L 355.135537 102.217838 
L 352.061157 102.126035 
L 348.986777 102.034452 
L 345.912397 101.94322 
L 342.838017 101.852207 
L 339.763636 101.761362 
L 336.689256 101.670757 
L 333.614876 101.580405 
L 330.540496 101.490384 
L 327.466116 101.400699 
L 324.391736 101.311224 
L 321.317355 101.222038 
L 318.242975 101.133269 
L 315.168595 101.044781 
L 312.094215 100.956575 
L 309.019835 100.868638 
L 305.945455 100.780945 
L 302.871074 100.69363 
L 299.796694 100.606841 
L 296.722314 100.520509 
L 293.647934 100.434596 
L 290.573554 100.349133 
L 287.499174 100.264295 
L 284.424793 100.179938 
L 281.350413 100.096212 
L 278.276033 100.013229 
L 275.201653 99.930838 
L 272.127273 99.848968 
L 269.052893 99.767744 
L 265.978512 99.687214 
L 262.904132 99.607324 
L 259.829752 99.52807 
L 256.755372 99.44955 
L 253.680992 99.371751 
L 250.606612 99.294705 
L 247.532231 99.21849 
L 244.457851 99.142992 
L 241.383471 99.068188 
L 238.309091 98.994255 
L 235.234711 98.921253 
L 232.160331 98.849124 
L 229.08595 98.777793 
L 226.01157 98.707338 
L 222.93719 98.637956 
L 219.86281 98.569661 
L 216.78843 98.502213 
L 213.71405 98.435476 
L 210.639669 98.369676 
L 207.565289 98.304887 
L 204.490909 98.243242 
L 201.416529 98.193332 
L 198.342149 98.143422 
L 195.267769 98.093511 
L 192.193388 98.043601 
L 189.119008 97.99369 
L 186.044628 97.94378 
L 182.970248 97.89387 
L 179.895868 97.843959 
L 176.821488 97.794049 
L 173.747107 97.744138 
L 170.672727 97.694228 
L 167.598347 97.644318 
L 164.523967 97.594407 
L 161.449587 97.544497 
L 158.375207 97.494587 
L 155.300826 97.444676 
L 152.226446 97.394766 
L 149.152066 97.344855 
L 146.077686 97.294945 
L 143.003306 97.245035 
L 139.928926 97.195124 
L 136.854545 97.145214 
L 133.780165 97.095303 
L 130.705785 97.045393 
L 127.631405 96.995483 
L 124.557025 96.945572 
L 121.482645 96.895662 
L 118.408264 96.845751 
L 115.333884 96.795841 
L 112.259504 96.745931 
L 109.185124 96.69602 
L 106.110744 96.64611 
L 103.036364 96.5962 
L 99.961983 96.546289 
L 96.887603 96.496379 
L 93.813223 96.446468 
L 90.738843 96.396558 
L 87.664463 96.346648 
L 84.590083 96.296737 
L 81.515702 96.246827 
L 78.441322 96.196916 
L 75.366942 96.147006 
L 72.292562 96.097096 
L 69.218182 96.047185 
z
" style="fill:#e6550d;"/>
   </g>
   <g id="PolyCollection_6">
    <path clip-path="url(#p41342fbb2d)" d="M 69.218182 95.470831 
L 69.218182 96.047185 
L 72.292562 96.097096 
L 75.366942 96.147006 
L 78.441322 96.196916 
L 81.515702 96.246827 
L 84.590083 96.296737 
L 87.664463 96.346648 
L 90.738843 96.396558 
L 93.813223 96.446468 
L 96.887603 96.496379 
L 99.961983 96.546289 
L 103.036364 96.5962 
L 106.110744 96.64611 
L 109.185124 96.69602 
L 112.259504 96.745931 
L 115.333884 96.795841 
L 118.408264 96.845751 
L 121.482645 96.895662 
L 124.557025 96.945572 
L 127.631405 96.995483 
L 130.705785 97.045393 
L 133.780165 97.095303 
L 136.854545 97.145214 
L 139.928926 97.195124 
L 143.003306 97.245035 
L 146.077686 97.294945 
L 149.152066 97.344855 
L 152.226446 97.394766 
L 155.300826 97.444676 
L 158.375207 97.494587 
L 161.449587 97.544497 
L 164.523967 97.594407 
L 167.598347 97.644318 
L 170.672727 97.694228 
L 173.747107 97.744138 
L 176.821488 97.794049 
L 179.895868 97.843959 
L 182.970248 97.89387 
L 186.044628 97.94378 
L 189.119008 97.99369 
L 192.193388 98.043601 
L 195.267769 98.093511 
L 198.342149 98.143422 
L 201.416529 98.193332 
L 204.490909 98.243242 
L 207.565289 98.304887 
L 210.639669 98.369676 
L 213.71405 98.435476 
L 216.78843 98.502213 
L 219.86281 98.569661 
L 222.93719 98.637956 
L 226.01157 98.707338 
L 229.08595 98.777793 
L 232.160331 98.849124 
L 235.234711 98.921253 
L 238.309091 98.994255 
L 241.383471 99.068188 
L 244.457851 99.142992 
L 247.532231 99.21849 
L 250.606612 99.294705 
L 253.680992 99.371751 
L 256.755372 99.44955 
L 259.829752 99.52807 
L 262.904132 99.607324 
L 265.978512 99.687214 
L 269.052893 99.767744 
L 272.127273 99.848968 
L 275.201653 99.930838 
L 278.276033 100.013229 
L 281.350413 100.096212 
L 284.424793 100.179938 
L 287.499174 100.264295 
L 290.573554 100.349133 
L 293.647934 100.434596 
L 296.722314 100.520509 
L 299.796694 100.606841 
L 302.871074 100.69363 
L 305.945455 100.780945 
L 309.019835 100.868638 
L 312.094215 100.956575 
L 315.168595 101.044781 
L 318.242975 101.133269 
L 321.317355 101.222038 
L 324.391736 101.311224 
L 327.466116 101.400699 
L 330.540496 101.490384 
L 333.614876 101.580405 
L 336.689256 101.670757 
L 339.763636 101.761362 
L 342.838017 101.852207 
L 345.912397 101.94322 
L 348.986777 102.034452 
L 352.061157 102.126035 
L 355.135537 102.217838 
L 358.209917 102.309841 
L 361.284298 102.402172 
L 364.358678 102.494736 
L 367.433058 102.587714 
L 370.507438 102.680886 
L 373.581818 102.774339 
L 373.581818 102.197986 
L 373.581818 102.197986 
L 370.507438 102.104533 
L 367.433058 102.01136 
L 364.358678 101.918382 
L 361.284298 101.825818 
L 358.209917 101.733488 
L 355.135537 101.641485 
L 352.061157 101.549681 
L 348.986777 101.458099 
L 345.912397 101.366867 
L 342.838017 101.275853 
L 339.763636 101.185009 
L 336.689256 101.094403 
L 333.614876 101.004051 
L 330.540496 100.914031 
L 327.466116 100.824345 
L 324.391736 100.734871 
L 321.317355 100.645684 
L 318.242975 100.556915 
L 315.168595 100.468427 
L 312.094215 100.380222 
L 309.019835 100.292284 
L 305.945455 100.204591 
L 302.871074 100.117277 
L 299.796694 100.030488 
L 296.722314 99.944155 
L 293.647934 99.858242 
L 290.573554 99.772779 
L 287.499174 99.687941 
L 284.424793 99.603584 
L 281.350413 99.519859 
L 278.276033 99.436875 
L 275.201653 99.354484 
L 272.127273 99.272614 
L 269.052893 99.19139 
L 265.978512 99.11086 
L 262.904132 99.03097 
L 259.829752 98.951716 
L 256.755372 98.873196 
L 253.680992 98.795397 
L 250.606612 98.718351 
L 247.532231 98.642136 
L 244.457851 98.566639 
L 241.383471 98.491834 
L 238.309091 98.417901 
L 235.234711 98.344899 
L 232.160331 98.27277 
L 229.08595 98.201439 
L 226.01157 98.130985 
L 222.93719 98.061602 
L 219.86281 97.993307 
L 216.78843 97.925859 
L 213.71405 97.859122 
L 210.639669 97.793322 
L 207.565289 97.728533 
L 204.490909 97.666888 
L 201.416529 97.616978 
L 198.342149 97.567068 
L 195.267769 97.517157 
L 192.193388 97.467247 
L 189.119008 97.417336 
L 186.044628 97.367426 
L 182.970248 97.317516 
L 179.895868 97.267605 
L 176.821488 97.217695 
L 173.747107 97.167784 
L 170.672727 97.117874 
L 167.598347 97.067964 
L 164.523967 97.018053 
L 161.449587 96.968143 
L 158.375207 96.918233 
L 155.300826 96.868322 
L 152.226446 96.818412 
L 149.152066 96.768501 
L 146.077686 96.718591 
L 143.003306 96.668681 
L 139.928926 96.61877 
L 136.854545 96.56886 
L 133.780165 96.518949 
L 130.705785 96.469039 
L 127.631405 96.419129 
L 124.557025 96.369218 
L 121.482645 96.319308 
L 118.408264 96.269398 
L 115.333884 96.219487 
L 112.259504 96.169577 
L 109.185124 96.119666 
L 106.110744 96.069756 
L 103.036364 96.019846 
L 99.961983 95.969935 
L 96.887603 95.920025 
L 93.813223 95.870114 
L 90.738843 95.820204 
L 87.664463 95.770294 
L 84.590083 95.720383 
L 81.515702 95.670473 
L 78.441322 95.620562 
L 75.366942 95.570652 
L 72.292562 95.520742 
L 69.218182 95.470831 
z
" style="fill:#fd8d3c;"/>
   </g>
   <g id="PolyCollection_7">
    <path clip-path="url(#p41342fbb2d)" d="M 69.218182 94.324187 
L 69.218182 95.470831 
L 72.292562 95.520742 
L 75.366942 95.570652 
L 78.441322 95.620562 
L 81.515702 95.670473 
L 84.590083 95.720383 
L 87.664463 95.770294 
L 90.738843 95.820204 
L 93.813223 95.870114 
L 96.887603 95.920025 
L 99.961983 95.969935 
L 103.036364 96.019846 
L 106.110744 96.069756 
L 109.185124 96.119666 
L 112.259504 96.169577 
L 115.333884 96.219487 
L 118.408264 96.269398 
L 121.482645 96.319308 
L 124.557025 96.369218 
L 127.631405 96.419129 
L 130.705785 96.469039 
L 133.780165 96.518949 
L 136.854545 96.56886 
L 139.928926 96.61877 
L 143.003306 96.668681 
L 146.077686 96.718591 
L 149.152066 96.768501 
L 152.226446 96.818412 
L 155.300826 96.868322 
L 158.375207 96.918233 
L 161.449587 96.968143 
L 164.523967 97.018053 
L 167.598347 97.067964 
L 170.672727 97.117874 
L 173.747107 97.167784 
L 176.821488 97.217695 
L 179.895868 97.267605 
L 182.970248 97.317516 
L 186.044628 97.367426 
L 189.119008 97.417336 
L 192.193388 97.467247 
L 195.267769 97.517157 
L 198.342149 97.567068 
L 201.416529 97.616978 
L 204.490909 97.666888 
L 207.565289 97.728533 
L 210.639669 97.793322 
L 213.71405 97.859122 
L 216.78843 97.925859 
L 219.86281 97.993307 
L 222.93719 98.061602 
L 226.01157 98.130985 
L 229.08595 98.201439 
L 232.160331 98.27277 
L 235.234711 98.344899 
L 238.309091 98.417901 
L 241.383471 98.491834 
L 244.457851 98.566639 
L 247.532231 98.642136 
L 250.606612 98.718351 
L 253.680992 98.795397 
L 256.755372 98.873196 
L 259.829752 98.951716 
L 262.904132 99.03097 
L 265.978512 99.11086 
L 269.052893 99.19139 
L 272.127273 99.272614 
L 275.201653 99.354484 
L 278.276033 99.436875 
L 281.350413 99.519859 
L 284.424793 99.603584 
L 287.499174 99.687941 
L 290.573554 99.772779 
L 293.647934 99.858242 
L 296.722314 99.944155 
L 299.796694 100.030488 
L 302.871074 100.117277 
L 305.945455 100.204591 
L 309.019835 100.292284 
L 312.094215 100.380222 
L 315.168595 100.468427 
L 318.242975 100.556915 
L 321.317355 100.645684 
L 324.391736 100.734871 
L 327.466116 100.824345 
L 330.540496 100.914031 
L 333.614876 101.004051 
L 336.689256 101.094403 
L 339.763636 101.185009 
L 342.838017 101.275853 
L 345.912397 101.366867 
L 348.986777 101.458099 
L 352.061157 101.549681 
L 355.135537 101.641485 
L 358.209917 101.733488 
L 361.284298 101.825818 
L 364.358678 101.918382 
L 367.433058 102.01136 
L 370.507438 102.104533 
L 373.581818 102.197986 
L 373.581818 102.197986 
L 373.581818 102.197986 
L 370.507438 102.09295 
L 367.433058 101.988196 
L 364.358678 101.883635 
L 361.284298 101.779489 
L 358.209917 101.675576 
L 355.135537 101.571991 
L 352.061157 101.468605 
L 348.986777 101.365441 
L 345.912397 101.262626 
L 342.838017 101.16003 
L 339.763636 101.057604 
L 336.689256 100.955416 
L 333.614876 100.853482 
L 330.540496 100.751879 
L 327.466116 100.650611 
L 324.391736 100.549554 
L 321.317355 100.448785 
L 318.242975 100.348434 
L 315.168595 100.248364 
L 312.094215 100.148576 
L 309.019835 100.049056 
L 305.945455 99.949781 
L 302.871074 99.850885 
L 299.796694 99.752513 
L 296.722314 99.654598 
L 293.647934 99.557103 
L 290.573554 99.460058 
L 287.499174 99.363637 
L 284.424793 99.267699 
L 281.350413 99.172391 
L 278.276033 99.077825 
L 275.201653 98.983851 
L 272.127273 98.890399 
L 269.052893 98.797593 
L 265.978512 98.705481 
L 262.904132 98.614008 
L 259.829752 98.523172 
L 256.755372 98.43307 
L 253.680992 98.343689 
L 250.606612 98.25506 
L 247.532231 98.167263 
L 244.457851 98.080184 
L 241.383471 97.993797 
L 238.309091 97.908281 
L 235.234711 97.823697 
L 232.160331 97.739986 
L 229.08595 97.657073 
L 226.01157 97.575036 
L 222.93719 97.494071 
L 219.86281 97.414194 
L 216.78843 97.335163 
L 213.71405 97.256844 
L 210.639669 97.179462 
L 207.565289 97.103091 
L 204.490909 97.029864 
L 201.416529 96.968371 
L 198.342149 96.906879 
L 195.267769 96.845386 
L 192.193388 96.783893 
L 189.119008 96.722401 
L 186.044628 96.660908 
L 182.970248 96.599415 
L 179.895868 96.537923 
L 176.821488 96.47643 
L 173.747107 96.414937 
L 170.672727 96.353445 
L 167.598347 96.291952 
L 164.523967 96.23046 
L 161.449587 96.168967 
L 158.375207 96.107474 
L 155.300826 96.045982 
L 152.226446 95.984489 
L 149.152066 95.922996 
L 146.077686 95.861504 
L 143.003306 95.800011 
L 139.928926 95.738518 
L 136.854545 95.677026 
L 133.780165 95.615533 
L 130.705785 95.55404 
L 127.631405 95.492548 
L 124.557025 95.431055 
L 121.482645 95.369562 
L 118.408264 95.30807 
L 115.333884 95.246577 
L 112.259504 95.185084 
L 109.185124 95.123592 
L 106.110744 95.062099 
L 103.036364 95.000607 
L 99.961983 94.939114 
L 96.887603 94.877621 
L 93.813223 94.816129 
L 90.738843 94.754636 
L 87.664463 94.693143 
L 84.590083 94.631651 
L 81.515702 94.570158 
L 78.441322 94.508665 
L 75.366942 94.447173 
L 72.292562 94.38568 
L 69.218182 94.324187 
z
" style="fill:#fdae6b;"/>
   </g>
   <g id="PolyCollection_8">
    <path clip-path="url(#p41342fbb2d)" d="M 69.218182 91.325507 
L 69.218182 94.324187 
L 72.292562 94.38568 
L 75.366942 94.447173 
L 78.441322 94.508665 
L 81.515702 94.570158 
L 84.590083 94.631651 
L 87.664463 94.693143 
L 90.738843 94.754636 
L 93.813223 94.816129 
L 96.887603 94.877621 
L 99.961983 94.939114 
L 103.036364 95.000607 
L 106.110744 95.062099 
L 109.185124 95.123592 
L 112.259504 95.185084 
L 115.333884 95.246577 
L 118.408264 95.30807 
L 121.482645 95.369562 
L 124.557025 95.431055 
L 127.631405 95.492548 
L 130.705785 95.55404 
L 133.780165 95.615533 
L 136.854545 95.677026 
L 139.928926 95.738518 
L 143.003306 95.800011 
L 146.077686 95.861504 
L 149.152066 95.922996 
L 152.226446 95.984489 
L 155.300826 96.045982 
L 158.375207 96.107474 
L 161.449587 96.168967 
L 164.523967 96.23046 
L 167.598347 96.291952 
L 170.672727 96.353445 
L 173.747107 96.414937 
L 176.821488 96.47643 
L 179.895868 96.537923 
L 182.970248 96.599415 
L 186.044628 96.660908 
L 189.119008 96.722401 
L 192.193388 96.783893 
L 195.267769 96.845386 
L 198.342149 96.906879 
L 201.416529 96.968371 
L 204.490909 97.029864 
L 207.565289 97.103091 
L 210.639669 97.179462 
L 213.71405 97.256844 
L 216.78843 97.335163 
L 219.86281 97.414194 
L 222.93719 97.494071 
L 226.01157 97.575036 
L 229.08595 97.657073 
L 232.160331 97.739986 
L 235.234711 97.823697 
L 238.309091 97.908281 
L 241.383471 97.993797 
L 244.457851 98.080184 
L 247.532231 98.167263 
L 250.606612 98.25506 
L 253.680992 98.343689 
L 256.755372 98.43307 
L 259.829752 98.523172 
L 262.904132 98.614008 
L 265.978512 98.705481 
L 269.052893 98.797593 
L 272.127273 98.890399 
L 275.201653 98.983851 
L 278.276033 99.077825 
L 281.350413 99.172391 
L 284.424793 99.267699 
L 287.499174 99.363637 
L 290.573554 99.460058 
L 293.647934 99.557103 
L 296.722314 99.654598 
L 299.796694 99.752513 
L 302.871074 99.850885 
L 305.945455 99.949781 
L 309.019835 100.049056 
L 312.094215 100.148576 
L 315.168595 100.248364 
L 318.242975 100.348434 
L 321.317355 100.448785 
L 324.391736 100.549554 
L 327.466116 100.650611 
L 330.540496 100.751879 
L 333.614876 100.853482 
L 336.689256 100.955416 
L 339.763636 101.057604 
L 342.838017 101.16003 
L 345.912397 101.262626 
L 348.986777 101.365441 
L 352.061157 101.468605 
L 355.135537 101.571991 
L 358.209917 101.675576 
L 361.284298 101.779489 
L 364.358678 101.883635 
L 367.433058 101.988196 
L 370.507438 102.09295 
L 373.581818 102.197986 
L 373.581818 99.199306 
L 373.581818 99.199306 
L 370.507438 99.09427 
L 367.433058 98.989515 
L 364.358678 98.884955 
L 361.284298 98.780809 
L 358.209917 98.676896 
L 355.135537 98.573311 
L 352.061157 98.469925 
L 348.986777 98.36676 
L 345.912397 98.263946 
L 342.838017 98.16135 
L 339.763636 98.058924 
L 336.689256 97.956736 
L 333.614876 97.854802 
L 330.540496 97.753199 
L 327.466116 97.651931 
L 324.391736 97.550874 
L 321.317355 97.450105 
L 318.242975 97.349754 
L 315.168595 97.249684 
L 312.094215 97.149896 
L 309.019835 97.050376 
L 305.945455 96.951101 
L 302.871074 96.852204 
L 299.796694 96.753833 
L 296.722314 96.655918 
L 293.647934 96.558423 
L 290.573554 96.461378 
L 287.499174 96.364957 
L 284.424793 96.269018 
L 281.350413 96.173711 
L 278.276033 96.079145 
L 275.201653 95.985171 
L 272.127273 95.891719 
L 269.052893 95.798913 
L 265.978512 95.706801 
L 262.904132 95.615328 
L 259.829752 95.524492 
L 256.755372 95.43439 
L 253.680992 95.345009 
L 250.606612 95.25638 
L 247.532231 95.168583 
L 244.457851 95.081503 
L 241.383471 94.995117 
L 238.309091 94.909601 
L 235.234711 94.825017 
L 232.160331 94.741306 
L 229.08595 94.658393 
L 226.01157 94.576356 
L 222.93719 94.495391 
L 219.86281 94.415514 
L 216.78843 94.336483 
L 213.71405 94.258164 
L 210.639669 94.180782 
L 207.565289 94.104411 
L 204.490909 94.031184 
L 201.416529 93.969691 
L 198.342149 93.908199 
L 195.267769 93.846706 
L 192.193388 93.785213 
L 189.119008 93.723721 
L 186.044628 93.662228 
L 182.970248 93.600735 
L 179.895868 93.539243 
L 176.821488 93.47775 
L 173.747107 93.416257 
L 170.672727 93.354765 
L 167.598347 93.293272 
L 164.523967 93.231779 
L 161.449587 93.170287 
L 158.375207 93.108794 
L 155.300826 93.047301 
L 152.226446 92.985809 
L 149.152066 92.924316 
L 146.077686 92.862824 
L 143.003306 92.801331 
L 139.928926 92.739838 
L 136.854545 92.678346 
L 133.780165 92.616853 
L 130.705785 92.55536 
L 127.631405 92.493868 
L 124.557025 92.432375 
L 121.482645 92.370882 
L 118.408264 92.30939 
L 115.333884 92.247897 
L 112.259504 92.186404 
L 109.185124 92.124912 
L 106.110744 92.063419 
L 103.036364 92.001926 
L 99.961983 91.940434 
L 96.887603 91.878941 
L 93.813223 91.817448 
L 90.738843 91.755956 
L 87.664463 91.694463 
L 84.590083 91.632971 
L 81.515702 91.571478 
L 78.441322 91.509985 
L 75.366942 91.448493 
L 72.292562 91.387 
L 69.218182 91.325507 
z
" style="fill:#fdd0a2;"/>
   </g>
   <g id="PolyCollection_9">
    <path clip-path="url(#p41342fbb2d)" d="M 69.218182 90.24 
L 69.218182 91.325507 
L 72.292562 91.387 
L 75.366942 91.448493 
L 78.441322 91.509985 
L 81.515702 91.571478 
L 84.590083 91.632971 
L 87.664463 91.694463 
L 90.738843 91.755956 
L 93.813223 91.817448 
L 96.887603 91.878941 
L 99.961983 91.940434 
L 103.036364 92.001926 
L 106.110744 92.063419 
L 109.185124 92.124912 
L 112.259504 92.186404 
L 115.333884 92.247897 
L 118.408264 92.30939 
L 121.482645 92.370882 
L 124.557025 92.432375 
L 127.631405 92.493868 
L 130.705785 92.55536 
L 133.780165 92.616853 
L 136.854545 92.678346 
L 139.928926 92.739838 
L 143.003306 92.801331 
L 146.077686 92.862824 
L 149.152066 92.924316 
L 152.226446 92.985809 
L 155.300826 93.047301 
L 158.375207 93.108794 
L 161.449587 93.170287 
L 164.523967 93.231779 
L 167.598347 93.293272 
L 170.672727 93.354765 
L 173.747107 93.416257 
L 176.821488 93.47775 
L 179.895868 93.539243 
L 182.970248 93.600735 
L 186.044628 93.662228 
L 189.119008 93.723721 
L 192.193388 93.785213 
L 195.267769 93.846706 
L 198.342149 93.908199 
L 201.416529 93.969691 
L 204.490909 94.031184 
L 207.565289 94.104411 
L 210.639669 94.180782 
L 213.71405 94.258164 
L 216.78843 94.336483 
L 219.86281 94.415514 
L 222.93719 94.495391 
L 226.01157 94.576356 
L 229.08595 94.658393 
L 232.160331 94.741306 
L 235.234711 94.825017 
L 238.309091 94.909601 
L 241.383471 94.995117 
L 244.457851 95.081503 
L 247.532231 95.168583 
L 250.606612 95.25638 
L 253.680992 95.345009 
L 256.755372 95.43439 
L 259.829752 95.524492 
L 262.904132 95.615328 
L 265.978512 95.706801 
L 269.052893 95.798913 
L 272.127273 95.891719 
L 275.201653 95.985171 
L 278.276033 96.079145 
L 281.350413 96.173711 
L 284.424793 96.269018 
L 287.499174 96.364957 
L 290.573554 96.461378 
L 293.647934 96.558423 
L 296.722314 96.655918 
L 299.796694 96.753833 
L 302.871074 96.852204 
L 305.945455 96.951101 
L 309.019835 97.050376 
L 312.094215 97.149896 
L 315.168595 97.249684 
L 318.242975 97.349754 
L 321.317355 97.450105 
L 324.391736 97.550874 
L 327.466116 97.651931 
L 330.540496 97.753199 
L 333.614876 97.854802 
L 336.689256 97.956736 
L 339.763636 98.058924 
L 342.838017 98.16135 
L 345.912397 98.263946 
L 348.986777 98.36676 
L 352.061157 98.469925 
L 355.135537 98.573311 
L 358.209917 98.676896 
L 361.284298 98.780809 
L 364.358678 98.884955 
L 367.433058 98.989515 
L 370.507438 99.09427 
L 373.581818 99.199306 
L 373.581818 99.199306 
L 373.581818 99.199306 
L 370.507438 99.083306 
L 367.433058 98.967586 
L 364.358678 98.852061 
L 361.284298 98.73695 
L 358.209917 98.622073 
L 355.135537 98.507523 
L 352.061157 98.393172 
L 348.986777 98.279043 
L 345.912397 98.165264 
L 342.838017 98.051703 
L 339.763636 97.938312 
L 336.689256 97.825159 
L 333.614876 97.71226 
L 330.540496 97.599693 
L 327.466116 97.48746 
L 324.391736 97.375439 
L 321.317355 97.263705 
L 318.242975 97.152389 
L 315.168595 97.041355 
L 312.094215 96.930602 
L 309.019835 96.820117 
L 305.945455 96.709877 
L 302.871074 96.600016 
L 299.796694 96.49068 
L 296.722314 96.3818 
L 293.647934 96.273341 
L 290.573554 96.165331 
L 287.499174 96.057945 
L 284.424793 95.951042 
L 281.350413 95.844769 
L 278.276033 95.739239 
L 275.201653 95.6343 
L 272.127273 95.529883 
L 269.052893 95.426112 
L 265.978512 95.323035 
L 262.904132 95.220598 
L 259.829752 95.118797 
L 256.755372 95.017731 
L 253.680992 94.917385 
L 250.606612 94.817791 
L 247.532231 94.71903 
L 244.457851 94.620985 
L 241.383471 94.523634 
L 238.309091 94.427154 
L 235.234711 94.331604 
L 232.160331 94.236929 
L 229.08595 94.143051 
L 226.01157 94.050049 
L 222.93719 93.95812 
L 219.86281 93.867278 
L 216.78843 93.777282 
L 213.71405 93.687999 
L 210.639669 93.599652 
L 207.565289 93.512316 
L 204.490909 93.428124 
L 201.416529 93.355667 
L 198.342149 93.28321 
L 195.267769 93.210752 
L 192.193388 93.138295 
L 189.119008 93.065837 
L 186.044628 92.99338 
L 182.970248 92.920923 
L 179.895868 92.848465 
L 176.821488 92.776008 
L 173.747107 92.703551 
L 170.672727 92.631093 
L 167.598347 92.558636 
L 164.523967 92.486178 
L 161.449587 92.413721 
L 158.375207 92.341264 
L 155.300826 92.268806 
L 152.226446 92.196349 
L 149.152066 92.123892 
L 146.077686 92.051434 
L 143.003306 91.978977 
L 139.928926 91.90652 
L 136.854545 91.834062 
L 133.780165 91.761605 
L 130.705785 91.689147 
L 127.631405 91.61669 
L 124.557025 91.544233 
L 121.482645 91.471775 
L 118.408264 91.399318 
L 115.333884 91.326861 
L 112.259504 91.254403 
L 109.185124 91.181946 
L 106.110744 91.109488 
L 103.036364 91.037031 
L 99.961983 90.964574 
L 96.887603 90.892116 
L 93.813223 90.819659 
L 90.738843 90.747202 
L 87.664463 90.674744 
L 84.590083 90.602287 
L 81.515702 90.529829 
L 78.441322 90.457372 
L 75.366942 90.384915 
L 72.292562 90.312457 
L 69.218182 90.24 
z
" style="fill:#31a354;"/>
   </g>
   <g id="PolyCollection_10">
    <path clip-path="url(#p41342fbb2d)" d="M 69.218182 90.24 
L 69.218182 90.24 
L 72.292562 90.312457 
L 75.366942 90.384915 
L 78.441322 90.457372 
L 81.515702 90.529829 
L 84.590083 90.602287 
L 87.664463 90.674744 
L 90.738843 90.747202 
L 93.813223 90.819659 
L 96.887603 90.892116 
L 99.961983 90.964574 
L 103.036364 91.037031 
L 106.110744 91.109488 
L 109.185124 91.181946 
L 112.259504 91.254403 
L 115.333884 91.326861 
L 118.408264 91.399318 
L 121.482645 91.471775 
L 124.557025 91.544233 
L 127.631405 91.61669 
L 130.705785 91.689147 
L 133.780165 91.761605 
L 136.854545 91.834062 
L 139.928926 91.90652 
L 143.003306 91.978977 
L 146.077686 92.051434 
L 149.152066 92.123892 
L 152.226446 92.196349 
L 155.300826 92.268806 
L 158.375207 92.341264 
L 161.449587 92.413721 
L 164.523967 92.486178 
L 167.598347 92.558636 
L 170.672727 92.631093 
L 173.747107 92.703551 
L 176.821488 92.776008 
L 179.895868 92.848465 
L 182.970248 92.920923 
L 186.044628 92.99338 
L 189.119008 93.065837 
L 192.193388 93.138295 
L 195.267769 93.210752 
L 198.342149 93.28321 
L 201.416529 93.355667 
L 204.490909 93.428124 
L 207.565289 93.512316 
L 210.639669 93.599652 
L 213.71405 93.687999 
L 216.78843 93.777282 
L 219.86281 93.867278 
L 222.93719 93.95812 
L 226.01157 94.050049 
L 229.08595 94.143051 
L 232.160331 94.236929 
L 235.234711 94.331604 
L 238.309091 94.427154 
L 241.383471 94.523634 
L 244.457851 94.620985 
L 247.532231 94.71903 
L 250.606612 94.817791 
L 253.680992 94.917385 
L 256.755372 95.017731 
L 259.829752 95.118797 
L 262.904132 95.220598 
L 265.978512 95.323035 
L 269.052893 95.426112 
L 272.127273 95.529883 
L 275.201653 95.6343 
L 278.276033 95.739239 
L 281.350413 95.844769 
L 284.424793 95.951042 
L 287.499174 96.057945 
L 290.573554 96.165331 
L 293.647934 96.273341 
L 296.722314 96.3818 
L 299.796694 96.49068 
L 302.871074 96.600016 
L 305.945455 96.709877 
L 309.019835 96.820117 
L 312.094215 96.930602 
L 315.168595 97.041355 
L 318.242975 97.152389 
L 321.317355 97.263705 
L 324.391736 97.375439 
L 327.466116 97.48746 
L 330.540496 97.599693 
L 333.614876 97.71226 
L 336.689256 97.825159 
L 339.763636 97.938312 
L 342.838017 98.051703 
L 345.912397 98.165264 
L 348.986777 98.279043 
L 352.061157 98.393172 
L 355.135537 98.507523 
L 358.209917 98.622073 
L 361.284298 98.73695 
L 364.358678 98.852061 
L 367.433058 98.967586 
L 370.507438 99.083306 
L 373.581818 99.199306 
L 373.581818 97.731983 
L 373.581818 97.731983 
L 370.507438 97.630798 
L 367.433058 97.529894 
L 364.358678 97.429184 
L 361.284298 97.328889 
L 358.209917 97.228827 
L 355.135537 97.129092 
L 352.061157 97.029557 
L 348.986777 96.930243 
L 345.912397 96.83128 
L 342.838017 96.732535 
L 339.763636 96.633959 
L 336.689256 96.535622 
L 333.614876 96.437539 
L 330.540496 96.339787 
L 327.466116 96.24237 
L 324.391736 96.145164 
L 321.317355 96.048246 
L 318.242975 95.951746 
L 315.168595 95.855527 
L 312.094215 95.75959 
L 309.019835 95.663921 
L 305.945455 95.568497 
L 302.871074 95.473451 
L 299.796694 95.378931 
L 296.722314 95.284867 
L 293.647934 95.191223 
L 290.573554 95.098029 
L 287.499174 95.005459 
L 284.424793 94.913371 
L 281.350413 94.821915 
L 278.276033 94.7312 
L 275.201653 94.641078 
L 272.127273 94.551477 
L 269.052893 94.462523 
L 265.978512 94.374264 
L 262.904132 94.286646 
L 259.829752 94.199664 
L 256.755372 94.113416 
L 253.680992 94.02789 
L 250.606612 93.943115 
L 247.532231 93.859173 
L 244.457851 93.775948 
L 241.383471 93.693416 
L 238.309091 93.611755 
L 235.234711 93.531025 
L 232.160331 93.451169 
L 229.08595 93.372112 
L 226.01157 93.293932 
L 222.93719 93.216825 
L 219.86281 93.140806 
L 216.78843 93.065633 
L 213.71405 92.991172 
L 210.639669 92.917648 
L 207.565289 92.845135 
L 204.490909 92.775767 
L 201.416529 92.718136 
L 198.342149 92.660504 
L 195.267769 92.602873 
L 192.193388 92.545242 
L 189.119008 92.487611 
L 186.044628 92.42998 
L 182.970248 92.372349 
L 179.895868 92.314718 
L 176.821488 92.257087 
L 173.747107 92.199456 
L 170.672727 92.141825 
L 167.598347 92.084194 
L 164.523967 92.026563 
L 161.449587 91.968932 
L 158.375207 91.911301 
L 155.300826 91.85367 
L 152.226446 91.796039 
L 149.152066 91.738408 
L 146.077686 91.680776 
L 143.003306 91.623145 
L 139.928926 91.565514 
L 136.854545 91.507883 
L 133.780165 91.450252 
L 130.705785 91.392621 
L 127.631405 91.33499 
L 124.557025 91.277359 
L 121.482645 91.219728 
L 118.408264 91.162097 
L 115.333884 91.104466 
L 112.259504 91.046835 
L 109.185124 90.989204 
L 106.110744 90.931573 
L 103.036364 90.873942 
L 99.961983 90.816311 
L 96.887603 90.75868 
L 93.813223 90.701048 
L 90.738843 90.643417 
L 87.664463 90.585786 
L 84.590083 90.528155 
L 81.515702 90.470524 
L 78.441322 90.412893 
L 75.366942 90.355262 
L 72.292562 90.297631 
L 69.218182 90.24 
z
" style="fill:#74c476;"/>
   </g>
   <g id="PolyCollection_11">
    <path clip-path="url(#p41342fbb2d)" d="M 69.218182 90.24 
L 69.218182 90.24 
L 72.292562 90.297631 
L 75.366942 90.355262 
L 78.441322 90.412893 
L 81.515702 90.470524 
L 84.590083 90.528155 
L 87.664463 90.585786 
L 90.738843 90.643417 
L 93.813223 90.701048 
L 96.887603 90.75868 
L 99.961983 90.816311 
L 103.036364 90.873942 
L 106.110744 90.931573 
L 109.185124 90.989204 
L 112.259504 91.046835 
L 115.333884 91.104466 
L 118.408264 91.162097 
L 121.482645 91.219728 
L 124.557025 91.277359 
L 127.631405 91.33499 
L 130.705785 91.392621 
L 133.780165 91.450252 
L 136.854545 91.507883 
L 139.928926 91.565514 
L 143.003306 91.623145 
L 146.077686 91.680776 
L 149.152066 91.738408 
L 152.226446 91.796039 
L 155.300826 91.85367 
L 158.375207 91.911301 
L 161.449587 91.968932 
L 164.523967 92.026563 
L 167.598347 92.084194 
L 170.672727 92.141825 
L 173.747107 92.199456 
L 176.821488 92.257087 
L 179.895868 92.314718 
L 182.970248 92.372349 
L 186.044628 92.42998 
L 189.119008 92.487611 
L 192.193388 92.545242 
L 195.267769 92.602873 
L 198.342149 92.660504 
L 201.416529 92.718136 
L 204.490909 92.775767 
L 207.565289 92.845135 
L 210.639669 92.917648 
L 213.71405 92.991172 
L 216.78843 93.065633 
L 219.86281 93.140806 
L 222.93719 93.216825 
L 226.01157 93.293932 
L 229.08595 93.372112 
L 232.160331 93.451169 
L 235.234711 93.531025 
L 238.309091 93.611755 
L 241.383471 93.693416 
L 244.457851 93.775948 
L 247.532231 93.859173 
L 250.606612 93.943115 
L 253.680992 94.02789 
L 256.755372 94.113416 
L 259.829752 94.199664 
L 262.904132 94.286646 
L 265.978512 94.374264 
L 269.052893 94.462523 
L 272.127273 94.551477 
L 275.201653 94.641078 
L 278.276033 94.7312 
L 281.350413 94.821915 
L 284.424793 94.913371 
L 287.499174 95.005459 
L 290.573554 95.098029 
L 293.647934 95.191223 
L 296.722314 95.284867 
L 299.796694 95.378931 
L 302.871074 95.473451 
L 305.945455 95.568497 
L 309.019835 95.663921 
L 312.094215 95.75959 
L 315.168595 95.855527 
L 318.242975 95.951746 
L 321.317355 96.048246 
L 324.391736 96.145164 
L 327.466116 96.24237 
L 330.540496 96.339787 
L 333.614876 96.437539 
L 336.689256 96.535622 
L 339.763636 96.633959 
L 342.838017 96.732535 
L 345.912397 96.83128 
L 348.986777 96.930243 
L 352.061157 97.029557 
L 355.135537 97.129092 
L 358.209917 97.228827 
L 361.284298 97.328889 
L 364.358678 97.429184 
L 367.433058 97.529894 
L 370.507438 97.630798 
L 373.581818 97.731983 
L 373.581818 96.499177 
L 373.581818 96.499177 
L 370.507438 96.410445 
L 367.433058 96.321994 
L 364.358678 96.233737 
L 361.284298 96.145894 
L 358.209917 96.058284 
L 355.135537 95.971002 
L 352.061157 95.88392 
L 348.986777 95.797058 
L 345.912397 95.710548 
L 342.838017 95.624255 
L 339.763636 95.538132 
L 336.689256 95.452248 
L 333.614876 95.366617 
L 330.540496 95.281317 
L 327.466116 95.196353 
L 324.391736 95.1116 
L 321.317355 95.027134 
L 318.242975 94.943087 
L 315.168595 94.85932 
L 312.094215 94.775836 
L 309.019835 94.69262 
L 305.945455 94.609648 
L 302.871074 94.527055 
L 299.796694 94.444987 
L 296.722314 94.363376 
L 293.647934 94.282185 
L 290.573554 94.201443 
L 287.499174 94.121326 
L 284.424793 94.041691 
L 281.350413 93.962686 
L 278.276033 93.884425 
L 275.201653 93.806755 
L 272.127273 93.729607 
L 269.052893 93.653106 
L 265.978512 93.577299 
L 262.904132 93.502134 
L 259.829752 93.427604 
L 256.755372 93.353809 
L 253.680992 93.280735 
L 250.606612 93.208413 
L 247.532231 93.136923 
L 244.457851 93.066151 
L 241.383471 92.996071 
L 238.309091 92.926863 
L 235.234711 92.858585 
L 232.160331 92.791182 
L 229.08595 92.724577 
L 226.01157 92.658851 
L 222.93719 92.594196 
L 219.86281 92.530629 
L 216.78843 92.467909 
L 213.71405 92.405901 
L 210.639669 92.344829 
L 207.565289 92.284769 
L 204.490909 92.227853 
L 201.416529 92.182675 
L 198.342149 92.137496 
L 195.267769 92.092318 
L 192.193388 92.047139 
L 189.119008 92.001961 
L 186.044628 91.956782 
L 182.970248 91.911604 
L 179.895868 91.866425 
L 176.821488 91.821247 
L 173.747107 91.776068 
L 170.672727 91.73089 
L 167.598347 91.685711 
L 164.523967 91.640533 
L 161.449587 91.595354 
L 158.375207 91.550176 
L 155.300826 91.504997 
L 152.226446 91.459819 
L 149.152066 91.41464 
L 146.077686 91.369462 
L 143.003306 91.324283 
L 139.928926 91.279105 
L 136.854545 91.233927 
L 133.780165 91.188748 
L 130.705785 91.14357 
L 127.631405 91.098391 
L 124.557025 91.053213 
L 121.482645 91.008034 
L 118.408264 90.962856 
L 115.333884 90.917677 
L 112.259504 90.872499 
L 109.185124 90.82732 
L 106.110744 90.782142 
L 103.036364 90.736963 
L 99.961983 90.691785 
L 96.887603 90.646606 
L 93.813223 90.601428 
L 90.738843 90.556249 
L 87.664463 90.511071 
L 84.590083 90.465892 
L 81.515702 90.420714 
L 78.441322 90.375535 
L 75.366942 90.330357 
L 72.292562 90.285178 
L 69.218182 90.24 
z
" style="fill:#a1d99b;"/>
   </g>
   <g id="matplotlib.axis_1">
    <g id="xtick_1">
     <g id="line2d_1">
      <defs>
       <path d="M 0 0 
L 0 3.5 
" id="me5e6a6657a" style="stroke:#000000;stroke-width:0.8;"/>
      </defs>
      <g>
       <use style="stroke:#000000;stroke-width:0.8;" x="69.218182" xlink:href="#me5e6a6657a" y="512.64"/>
      </g>
     </g>
     <g id="text_1">
      <!-- 0 -->
      <g transform="translate(66.036932 527.238438)scale(0.1 -0.1)">
       <defs>
        <path d="M 2034 4250 
Q 1547 4250 1301 3770 
Q 1056 3291 1056 2328 
Q 1056 1369 1301 889 
Q 1547 409 2034 409 
Q 2525 409 2770 889 
Q 3016 1369 3016 2328 
Q 3016 3291 2770 3770 
Q 2525 4250 2034 4250 
z
M 2034 4750 
Q 2819 4750 3233 4129 
Q 3647 3509 3647 2328 
Q 3647 1150 3233 529 
Q 2819 -91 2034 -91 
Q 1250 -91 836 529 
Q 422 1150 422 2328 
Q 422 3509 836 4129 
Q 1250 4750 2034 4750 
z
" id="DejaVuSans-30" transform="scale(0.015625)"/>
       </defs>
       <use xlink:href="#DejaVuSans-30"/>
      </g>
     </g>
    </g>
    <g id="xtick_2">
     <g id="line2d_2">
      <g>
       <use style="stroke:#000000;stroke-width:0.8;" x="130.090909" xlink:href="#me5e6a6657a" y="512.64"/>
      </g>
     </g>
     <g id="text_2">
      <!-- 20 -->
      <g transform="translate(123.728409 527.238438)scale(0.1 -0.1)">
       <defs>
        <path d="M 1228 531 
L 3431 531 
L 3431 0 
L 469 0 
L 469 531 
Q 828 903 1448 1529 
Q 2069 2156 2228 2338 
Q 2531 2678 2651 2914 
Q 2772 3150 2772 3378 
Q 2772 3750 2511 3984 
Q 2250 4219 1831 4219 
Q 1534 4219 1204 4116 
Q 875 4013 500 3803 
L 500 4441 
Q 881 4594 1212 4672 
Q 1544 4750 1819 4750 
Q 2544 4750 2975 4387 
Q 3406 4025 3406 3419 
Q 3406 3131 3298 2873 
Q 3191 2616 2906 2266 
Q 2828 2175 2409 1742 
Q 1991 1309 1228 531 
z
" id="DejaVuSans-32" transform="scale(0.015625)"/>
       </defs>
       <use xlink:href="#DejaVuSans-32"/>
       <use x="63.623047" xlink:href="#DejaVuSans-30"/>
      </g>
     </g>
    </g>
    <g id="xtick_3">
     <g id="line2d_3">
      <g>
       <use style="stroke:#000000;stroke-width:0.8;" x="190.963636" xlink:href="#me5e6a6657a" y="512.64"/>
      </g>
     </g>
     <g id="text_3">
      <!-- 40 -->
      <g transform="translate(184.601136 527.238438)scale(0.1 -0.1)">
       <defs>
        <path d="M 2419 4116 
L 825 1625 
L 2419 1625 
L 2419 4116 
z
M 2253 4666 
L 3047 4666 
L 3047 1625 
L 3713 1625 
L 3713 1100 
L 3047 1100 
L 3047 0 
L 2419 0 
L 2419 1100 
L 313 1100 
L 313 1709 
L 2253 4666 
z
" id="DejaVuSans-34" transform="scale(0.015625)"/>
       </defs>
       <use xlink:href="#DejaVuSans-34"/>
       <use x="63.623047" xlink:href="#DejaVuSans-30"/>
      </g>
     </g>
    </g>
    <g id="xtick_4">
     <g id="line2d_4">
      <g>
       <use style="stroke:#000000;stroke-width:0.8;" x="251.836364" xlink:href="#me5e6a6657a" y="512.64"/>
      </g>
     </g>
     <g id="text_4">
      <!-- 60 -->
      <g transform="translate(245.473864 527.238438)scale(0.1 -0.1)">
       <defs>
        <path d="M 2113 2584 
Q 1688 2584 1439 2293 
Q 1191 2003 1191 1497 
Q 1191 994 1439 701 
Q 1688 409 2113 409 
Q 2538 409 2786 701 
Q 3034 994 3034 1497 
Q 3034 2003 2786 2293 
Q 2538 2584 2113 2584 
z
M 3366 4563 
L 3366 3988 
Q 3128 4100 2886 4159 
Q 2644 4219 2406 4219 
Q 1781 4219 1451 3797 
Q 1122 3375 1075 2522 
Q 1259 2794 1537 2939 
Q 1816 3084 2150 3084 
Q 2853 3084 3261 2657 
Q 3669 2231 3669 1497 
Q 3669 778 3244 343 
Q 2819 -91 2113 -91 
Q 1303 -91 875 529 
Q 447 1150 447 2328 
Q 447 3434 972 4092 
Q 1497 4750 2381 4750 
Q 2619 4750 2861 4703 
Q 3103 4656 3366 4563 
z
" id="DejaVuSans-36" transform="scale(0.015625)"/>
       </defs>
       <use xlink:href="#DejaVuSans-36"/>
       <use x="63.623047" xlink:href="#DejaVuSans-30"/>
      </g>
     </g>
    </g>
    <g id="xtick_5">
     <g id="line2d_5">
      <g>
       <use style="stroke:#000000;stroke-width:0.8;" x="312.709091" xlink:href="#me5e6a6657a" y="512.64"/>
      </g>
     </g>
     <g id="text_5">
      <!-- 80 -->
      <g transform="translate(306.346591 527.238438)scale(0.1 -0.1)">
       <defs>
        <path d="M 2034 2216 
Q 1584 2216 1326 1975 
Q 1069 1734 1069 1313 
Q 1069 891 1326 650 
Q 1584 409 2034 409 
Q 2484 409 2743 651 
Q 3003 894 3003 1313 
Q 3003 1734 2745 1975 
Q 2488 2216 2034 2216 
z
M 1403 2484 
Q 997 2584 770 2862 
Q 544 3141 544 3541 
Q 544 4100 942 4425 
Q 1341 4750 2034 4750 
Q 2731 4750 3128 4425 
Q 3525 4100 3525 3541 
Q 3525 3141 3298 2862 
Q 3072 2584 2669 2484 
Q 3125 2378 3379 2068 
Q 3634 1759 3634 1313 
Q 3634 634 3220 271 
Q 2806 -91 2034 -91 
Q 1263 -91 848 271 
Q 434 634 434 1313 
Q 434 1759 690 2068 
Q 947 2378 1403 2484 
z
M 1172 3481 
Q 1172 3119 1398 2916 
Q 1625 2713 2034 2713 
Q 2441 2713 2670 2916 
Q 2900 3119 2900 3481 
Q 2900 3844 2670 4047 
Q 2441 4250 2034 4250 
Q 1625 4250 1398 4047 
Q 1172 3844 1172 3481 
z
" id="DejaVuSans-38" transform="scale(0.015625)"/>
       </defs>
       <use xlink:href="#DejaVuSans-38"/>
       <use x="63.623047" xlink:href="#DejaVuSans-30"/>
      </g>
     </g>
    </g>
    <g id="xtick_6">
     <g id="line2d_6">
      <g>
       <use style="stroke:#000000;stroke-width:0.8;" x="373.581818" xlink:href="#me5e6a6657a" y="512.64"/>
      </g>
     </g>
     <g id="text_6">
      <!-- 100 -->
      <g transform="translate(364.038068 527.238438)scale(0.1 -0.1)">
       <defs>
        <path d="M 794 531 
L 1825 531 
L 1825 4091 
L 703 3866 
L 703 4441 
L 1819 4666 
L 2450 4666 
L 2450 531 
L 3481 531 
L 3481 0 
L 794 0 
L 794 531 
z
" id="DejaVuSans-31" transform="scale(0.015625)"/>
       </defs>
       <use xlink:href="#DejaVuSans-31"/>
       <use x="63.623047" xlink:href="#DejaVuSans-30"/>
       <use x="127.246094" xlink:href="#DejaVuSans-30"/>
      </g>
     </g>
    </g>
    <g id="text_7">
     <!-- Proportion of New Technology in Grid (%) -->
     <g transform="translate(118.632031 540.916563)scale(0.1 -0.1)">
      <defs>
       <path d="M 1259 4147 
L 1259 2394 
L 2053 2394 
Q 2494 2394 2734 2622 
Q 2975 2850 2975 3272 
Q 2975 3691 2734 3919 
Q 2494 4147 2053 4147 
L 1259 4147 
z
M 628 4666 
L 2053 4666 
Q 2838 4666 3239 4311 
Q 3641 3956 3641 3272 
Q 3641 2581 3239 2228 
Q 2838 1875 2053 1875 
L 1259 1875 
L 1259 0 
L 628 0 
L 628 4666 
z
" id="DejaVuSans-50" transform="scale(0.015625)"/>
       <path d="M 2631 2963 
Q 2534 3019 2420 3045 
Q 2306 3072 2169 3072 
Q 1681 3072 1420 2755 
Q 1159 2438 1159 1844 
L 1159 0 
L 581 0 
L 581 3500 
L 1159 3500 
L 1159 2956 
Q 1341 3275 1631 3429 
Q 1922 3584 2338 3584 
Q 2397 3584 2469 3576 
Q 2541 3569 2628 3553 
L 2631 2963 
z
" id="DejaVuSans-72" transform="scale(0.015625)"/>
       <path d="M 1959 3097 
Q 1497 3097 1228 2736 
Q 959 2375 959 1747 
Q 959 1119 1226 758 
Q 1494 397 1959 397 
Q 2419 397 2687 759 
Q 2956 1122 2956 1747 
Q 2956 2369 2687 2733 
Q 2419 3097 1959 3097 
z
M 1959 3584 
Q 2709 3584 3137 3096 
Q 3566 2609 3566 1747 
Q 3566 888 3137 398 
Q 2709 -91 1959 -91 
Q 1206 -91 779 398 
Q 353 888 353 1747 
Q 353 2609 779 3096 
Q 1206 3584 1959 3584 
z
" id="DejaVuSans-6f" transform="scale(0.015625)"/>
       <path d="M 1159 525 
L 1159 -1331 
L 581 -1331 
L 581 3500 
L 1159 3500 
L 1159 2969 
Q 1341 3281 1617 3432 
Q 1894 3584 2278 3584 
Q 2916 3584 3314 3078 
Q 3713 2572 3713 1747 
Q 3713 922 3314 415 
Q 2916 -91 2278 -91 
Q 1894 -91 1617 61 
Q 1341 213 1159 525 
z
M 3116 1747 
Q 3116 2381 2855 2742 
Q 2594 3103 2138 3103 
Q 1681 3103 1420 2742 
Q 1159 2381 1159 1747 
Q 1159 1113 1420 752 
Q 1681 391 2138 391 
Q 2594 391 2855 752 
Q 3116 1113 3116 1747 
z
" id="DejaVuSans-70" transform="scale(0.015625)"/>
       <path d="M 1172 4494 
L 1172 3500 
L 2356 3500 
L 2356 3053 
L 1172 3053 
L 1172 1153 
Q 1172 725 1289 603 
Q 1406 481 1766 481 
L 2356 481 
L 2356 0 
L 1766 0 
Q 1100 0 847 248 
Q 594 497 594 1153 
L 594 3053 
L 172 3053 
L 172 3500 
L 594 3500 
L 594 4494 
L 1172 4494 
z
" id="DejaVuSans-74" transform="scale(0.015625)"/>
       <path d="M 603 3500 
L 1178 3500 
L 1178 0 
L 603 0 
L 603 3500 
z
M 603 4863 
L 1178 4863 
L 1178 4134 
L 603 4134 
L 603 4863 
z
" id="DejaVuSans-69" transform="scale(0.015625)"/>
       <path d="M 3513 2113 
L 3513 0 
L 2938 0 
L 2938 2094 
Q 2938 2591 2744 2837 
Q 2550 3084 2163 3084 
Q 1697 3084 1428 2787 
Q 1159 2491 1159 1978 
L 1159 0 
L 581 0 
L 581 3500 
L 1159 3500 
L 1159 2956 
Q 1366 3272 1645 3428 
Q 1925 3584 2291 3584 
Q 2894 3584 3203 3211 
Q 3513 2838 3513 2113 
z
" id="DejaVuSans-6e" transform="scale(0.015625)"/>
       <path id="DejaVuSans-20" transform="scale(0.015625)"/>
       <path d="M 2375 4863 
L 2375 4384 
L 1825 4384 
Q 1516 4384 1395 4259 
Q 1275 4134 1275 3809 
L 1275 3500 
L 2222 3500 
L 2222 3053 
L 1275 3053 
L 1275 0 
L 697 0 
L 697 3053 
L 147 3053 
L 147 3500 
L 697 3500 
L 697 3744 
Q 697 4328 969 4595 
Q 1241 4863 1831 4863 
L 2375 4863 
z
" id="DejaVuSans-66" transform="scale(0.015625)"/>
       <path d="M 628 4666 
L 1478 4666 
L 3547 763 
L 3547 4666 
L 4159 4666 
L 4159 0 
L 3309 0 
L 1241 3903 
L 1241 0 
L 628 0 
L 628 4666 
z
" id="DejaVuSans-4e" transform="scale(0.015625)"/>
       <path d="M 3597 1894 
L 3597 1613 
L 953 1613 
Q 991 1019 1311 708 
Q 1631 397 2203 397 
Q 2534 397 2845 478 
Q 3156 559 3463 722 
L 3463 178 
Q 3153 47 2828 -22 
Q 2503 -91 2169 -91 
Q 1331 -91 842 396 
Q 353 884 353 1716 
Q 353 2575 817 3079 
Q 1281 3584 2069 3584 
Q 2775 3584 3186 3129 
Q 3597 2675 3597 1894 
z
M 3022 2063 
Q 3016 2534 2758 2815 
Q 2500 3097 2075 3097 
Q 1594 3097 1305 2825 
Q 1016 2553 972 2059 
L 3022 2063 
z
" id="DejaVuSans-65" transform="scale(0.015625)"/>
       <path d="M 269 3500 
L 844 3500 
L 1563 769 
L 2278 3500 
L 2956 3500 
L 3675 769 
L 4391 3500 
L 4966 3500 
L 4050 0 
L 3372 0 
L 2619 2869 
L 1863 0 
L 1184 0 
L 269 3500 
z
" id="DejaVuSans-77" transform="scale(0.015625)"/>
       <path d="M -19 4666 
L 3928 4666 
L 3928 4134 
L 2272 4134 
L 2272 0 
L 1638 0 
L 1638 4134 
L -19 4134 
L -19 4666 
z
" id="DejaVuSans-54" transform="scale(0.015625)"/>
       <path d="M 3122 3366 
L 3122 2828 
Q 2878 2963 2633 3030 
Q 2388 3097 2138 3097 
Q 1578 3097 1268 2742 
Q 959 2388 959 1747 
Q 959 1106 1268 751 
Q 1578 397 2138 397 
Q 2388 397 2633 464 
Q 2878 531 3122 666 
L 3122 134 
Q 2881 22 2623 -34 
Q 2366 -91 2075 -91 
Q 1284 -91 818 406 
Q 353 903 353 1747 
Q 353 2603 823 3093 
Q 1294 3584 2113 3584 
Q 2378 3584 2631 3529 
Q 2884 3475 3122 3366 
z
" id="DejaVuSans-63" transform="scale(0.015625)"/>
       <path d="M 3513 2113 
L 3513 0 
L 2938 0 
L 2938 2094 
Q 2938 2591 2744 2837 
Q 2550 3084 2163 3084 
Q 1697 3084 1428 2787 
Q 1159 2491 1159 1978 
L 1159 0 
L 581 0 
L 581 4863 
L 1159 4863 
L 1159 2956 
Q 1366 3272 1645 3428 
Q 1925 3584 2291 3584 
Q 2894 3584 3203 3211 
Q 3513 2838 3513 2113 
z
" id="DejaVuSans-68" transform="scale(0.015625)"/>
       <path d="M 603 4863 
L 1178 4863 
L 1178 0 
L 603 0 
L 603 4863 
z
" id="DejaVuSans-6c" transform="scale(0.015625)"/>
       <path d="M 2906 1791 
Q 2906 2416 2648 2759 
Q 2391 3103 1925 3103 
Q 1463 3103 1205 2759 
Q 947 2416 947 1791 
Q 947 1169 1205 825 
Q 1463 481 1925 481 
Q 2391 481 2648 825 
Q 2906 1169 2906 1791 
z
M 3481 434 
Q 3481 -459 3084 -895 
Q 2688 -1331 1869 -1331 
Q 1566 -1331 1297 -1286 
Q 1028 -1241 775 -1147 
L 775 -588 
Q 1028 -725 1275 -790 
Q 1522 -856 1778 -856 
Q 2344 -856 2625 -561 
Q 2906 -266 2906 331 
L 2906 616 
Q 2728 306 2450 153 
Q 2172 0 1784 0 
Q 1141 0 747 490 
Q 353 981 353 1791 
Q 353 2603 747 3093 
Q 1141 3584 1784 3584 
Q 2172 3584 2450 3431 
Q 2728 3278 2906 2969 
L 2906 3500 
L 3481 3500 
L 3481 434 
z
" id="DejaVuSans-67" transform="scale(0.015625)"/>
       <path d="M 2059 -325 
Q 1816 -950 1584 -1140 
Q 1353 -1331 966 -1331 
L 506 -1331 
L 506 -850 
L 844 -850 
Q 1081 -850 1212 -737 
Q 1344 -625 1503 -206 
L 1606 56 
L 191 3500 
L 800 3500 
L 1894 763 
L 2988 3500 
L 3597 3500 
L 2059 -325 
z
" id="DejaVuSans-79" transform="scale(0.015625)"/>
       <path d="M 3809 666 
L 3809 1919 
L 2778 1919 
L 2778 2438 
L 4434 2438 
L 4434 434 
Q 4069 175 3628 42 
Q 3188 -91 2688 -91 
Q 1594 -91 976 548 
Q 359 1188 359 2328 
Q 359 3472 976 4111 
Q 1594 4750 2688 4750 
Q 3144 4750 3555 4637 
Q 3966 4525 4313 4306 
L 4313 3634 
Q 3963 3931 3569 4081 
Q 3175 4231 2741 4231 
Q 1884 4231 1454 3753 
Q 1025 3275 1025 2328 
Q 1025 1384 1454 906 
Q 1884 428 2741 428 
Q 3075 428 3337 486 
Q 3600 544 3809 666 
z
" id="DejaVuSans-47" transform="scale(0.015625)"/>
       <path d="M 2906 2969 
L 2906 4863 
L 3481 4863 
L 3481 0 
L 2906 0 
L 2906 525 
Q 2725 213 2448 61 
Q 2172 -91 1784 -91 
Q 1150 -91 751 415 
Q 353 922 353 1747 
Q 353 2572 751 3078 
Q 1150 3584 1784 3584 
Q 2172 3584 2448 3432 
Q 2725 3281 2906 2969 
z
M 947 1747 
Q 947 1113 1208 752 
Q 1469 391 1925 391 
Q 2381 391 2643 752 
Q 2906 1113 2906 1747 
Q 2906 2381 2643 2742 
Q 2381 3103 1925 3103 
Q 1469 3103 1208 2742 
Q 947 2381 947 1747 
z
" id="DejaVuSans-64" transform="scale(0.015625)"/>
       <path d="M 1984 4856 
Q 1566 4138 1362 3434 
Q 1159 2731 1159 2009 
Q 1159 1288 1364 580 
Q 1569 -128 1984 -844 
L 1484 -844 
Q 1016 -109 783 600 
Q 550 1309 550 2009 
Q 550 2706 781 3412 
Q 1013 4119 1484 4856 
L 1984 4856 
z
" id="DejaVuSans-28" transform="scale(0.015625)"/>
       <path d="M 4653 2053 
Q 4381 2053 4226 1822 
Q 4072 1591 4072 1178 
Q 4072 772 4226 539 
Q 4381 306 4653 306 
Q 4919 306 5073 539 
Q 5228 772 5228 1178 
Q 5228 1588 5073 1820 
Q 4919 2053 4653 2053 
z
M 4653 2450 
Q 5147 2450 5437 2106 
Q 5728 1763 5728 1178 
Q 5728 594 5436 251 
Q 5144 -91 4653 -91 
Q 4153 -91 3862 251 
Q 3572 594 3572 1178 
Q 3572 1766 3864 2108 
Q 4156 2450 4653 2450 
z
M 1428 4353 
Q 1159 4353 1004 4120 
Q 850 3888 850 3481 
Q 850 3069 1003 2837 
Q 1156 2606 1428 2606 
Q 1700 2606 1854 2837 
Q 2009 3069 2009 3481 
Q 2009 3884 1853 4118 
Q 1697 4353 1428 4353 
z
M 4250 4750 
L 4750 4750 
L 1831 -91 
L 1331 -91 
L 4250 4750 
z
M 1428 4750 
Q 1922 4750 2215 4408 
Q 2509 4066 2509 3481 
Q 2509 2891 2217 2550 
Q 1925 2209 1428 2209 
Q 931 2209 642 2551 
Q 353 2894 353 3481 
Q 353 4063 643 4406 
Q 934 4750 1428 4750 
z
" id="DejaVuSans-25" transform="scale(0.015625)"/>
       <path d="M 513 4856 
L 1013 4856 
Q 1481 4119 1714 3412 
Q 1947 2706 1947 2009 
Q 1947 1309 1714 600 
Q 1481 -109 1013 -844 
L 513 -844 
Q 928 -128 1133 580 
Q 1338 1288 1338 2009 
Q 1338 2731 1133 3434 
Q 928 4138 513 4856 
z
" id="DejaVuSans-29" transform="scale(0.015625)"/>
      </defs>
      <use xlink:href="#DejaVuSans-50"/>
      <use x="58.552734" xlink:href="#DejaVuSans-72"/>
      <use x="97.416016" xlink:href="#DejaVuSans-6f"/>
      <use x="158.597656" xlink:href="#DejaVuSans-70"/>
      <use x="222.074219" xlink:href="#DejaVuSans-6f"/>
      <use x="283.255859" xlink:href="#DejaVuSans-72"/>
      <use x="324.369141" xlink:href="#DejaVuSans-74"/>
      <use x="363.578125" xlink:href="#DejaVuSans-69"/>
      <use x="391.361328" xlink:href="#DejaVuSans-6f"/>
      <use x="452.542969" xlink:href="#DejaVuSans-6e"/>
      <use x="515.921875" xlink:href="#DejaVuSans-20"/>
      <use x="547.708984" xlink:href="#DejaVuSans-6f"/>
      <use x="608.890625" xlink:href="#DejaVuSans-66"/>
      <use x="644.095703" xlink:href="#DejaVuSans-20"/>
      <use x="675.882812" xlink:href="#DejaVuSans-4e"/>
      <use x="750.6875" xlink:href="#DejaVuSans-65"/>
      <use x="812.210938" xlink:href="#DejaVuSans-77"/>
      <use x="893.998047" xlink:href="#DejaVuSans-20"/>
      <use x="925.785156" xlink:href="#DejaVuSans-54"/>
      <use x="969.869141" xlink:href="#DejaVuSans-65"/>
      <use x="1031.392578" xlink:href="#DejaVuSans-63"/>
      <use x="1086.373047" xlink:href="#DejaVuSans-68"/>
      <use x="1149.751953" xlink:href="#DejaVuSans-6e"/>
      <use x="1213.130859" xlink:href="#DejaVuSans-6f"/>
      <use x="1274.3125" xlink:href="#DejaVuSans-6c"/>
      <use x="1302.095703" xlink:href="#DejaVuSans-6f"/>
      <use x="1363.277344" xlink:href="#DejaVuSans-67"/>
      <use x="1426.753906" xlink:href="#DejaVuSans-79"/>
      <use x="1485.933594" xlink:href="#DejaVuSans-20"/>
      <use x="1517.720703" xlink:href="#DejaVuSans-69"/>
      <use x="1545.503906" xlink:href="#DejaVuSans-6e"/>
      <use x="1608.882812" xlink:href="#DejaVuSans-20"/>
      <use x="1640.669922" xlink:href="#DejaVuSans-47"/>
      <use x="1718.160156" xlink:href="#DejaVuSans-72"/>
      <use x="1759.273438" xlink:href="#DejaVuSans-69"/>
      <use x="1787.056641" xlink:href="#DejaVuSans-64"/>
      <use x="1850.533203" xlink:href="#DejaVuSans-20"/>
      <use x="1882.320312" xlink:href="#DejaVuSans-28"/>
      <use x="1921.333984" xlink:href="#DejaVuSans-25"/>
      <use x="2016.353516" xlink:href="#DejaVuSans-29"/>
     </g>
    </g>
   </g>
   <g id="matplotlib.axis_2">
    <g id="ytick_1">
     <g id="line2d_7">
      <defs>
       <path d="M 0 0 
L -3.5 0 
" id="mecf40ac780" style="stroke:#000000;stroke-width:0.8;"/>
      </defs>
      <g>
       <use style="stroke:#000000;stroke-width:0.8;" x="54" xlink:href="#mecf40ac780" y="512.64"/>
      </g>
     </g>
     <g id="text_8">
      <!-- 0 -->
      <g transform="translate(40.6375 516.439219)scale(0.1 -0.1)">
       <use xlink:href="#DejaVuSans-30"/>
      </g>
     </g>
    </g>
    <g id="ytick_2">
     <g id="line2d_8">
      <g>
       <use style="stroke:#000000;stroke-width:0.8;" x="54" xlink:href="#mecf40ac780" y="440.916206"/>
      </g>
     </g>
     <g id="text_9">
      <!-- 20 -->
      <g transform="translate(34.275 444.715425)scale(0.1 -0.1)">
       <use xlink:href="#DejaVuSans-32"/>
       <use x="63.623047" xlink:href="#DejaVuSans-30"/>
      </g>
     </g>
    </g>
    <g id="ytick_3">
     <g id="line2d_9">
      <g>
       <use style="stroke:#000000;stroke-width:0.8;" x="54" xlink:href="#mecf40ac780" y="369.192412"/>
      </g>
     </g>
     <g id="text_10">
      <!-- 40 -->
      <g transform="translate(34.275 372.99163)scale(0.1 -0.1)">
       <use xlink:href="#DejaVuSans-34"/>
       <use x="63.623047" xlink:href="#DejaVuSans-30"/>
      </g>
     </g>
    </g>
    <g id="ytick_4">
     <g id="line2d_10">
      <g>
       <use style="stroke:#000000;stroke-width:0.8;" x="54" xlink:href="#mecf40ac780" y="297.468617"/>
      </g>
     </g>
     <g id="text_11">
      <!-- 60 -->
      <g transform="translate(34.275 301.267836)scale(0.1 -0.1)">
       <use xlink:href="#DejaVuSans-36"/>
       <use x="63.623047" xlink:href="#DejaVuSans-30"/>
      </g>
     </g>
    </g>
    <g id="ytick_5">
     <g id="line2d_11">
      <g>
       <use style="stroke:#000000;stroke-width:0.8;" x="54" xlink:href="#mecf40ac780" y="225.744823"/>
      </g>
     </g>
     <g id="text_12">
      <!-- 80 -->
      <g transform="translate(34.275 229.544042)scale(0.1 -0.1)">
       <use xlink:href="#DejaVuSans-38"/>
       <use x="63.623047" xlink:href="#DejaVuSans-30"/>
      </g>
     </g>
    </g>
    <g id="ytick_6">
     <g id="line2d_12">
      <g>
       <use style="stroke:#000000;stroke-width:0.8;" x="54" xlink:href="#mecf40ac780" y="154.021029"/>
      </g>
     </g>
     <g id="text_13">
      <!-- 100 -->
      <g transform="translate(27.9125 157.820248)scale(0.1 -0.1)">
       <use xlink:href="#DejaVuSans-31"/>
       <use x="63.623047" xlink:href="#DejaVuSans-30"/>
       <use x="127.246094" xlink:href="#DejaVuSans-30"/>
      </g>
     </g>
    </g>
    <g id="ytick_7">
     <g id="line2d_13">
      <g>
       <use style="stroke:#000000;stroke-width:0.8;" x="54" xlink:href="#mecf40ac780" y="82.297235"/>
      </g>
     </g>
     <g id="text_14">
      <!-- 120 -->
      <g transform="translate(27.9125 86.096454)scale(0.1 -0.1)">
       <use xlink:href="#DejaVuSans-31"/>
       <use x="63.623047" xlink:href="#DejaVuSans-32"/>
       <use x="127.246094" xlink:href="#DejaVuSans-30"/>
      </g>
     </g>
    </g>
    <g id="text_15">
     <!-- Energy Generated (TWh) -->
     <g transform="translate(21.832812 353.158906)rotate(-90)scale(0.1 -0.1)">
      <defs>
       <path d="M 628 4666 
L 3578 4666 
L 3578 4134 
L 1259 4134 
L 1259 2753 
L 3481 2753 
L 3481 2222 
L 1259 2222 
L 1259 531 
L 3634 531 
L 3634 0 
L 628 0 
L 628 4666 
z
" id="DejaVuSans-45" transform="scale(0.015625)"/>
       <path d="M 2194 1759 
Q 1497 1759 1228 1600 
Q 959 1441 959 1056 
Q 959 750 1161 570 
Q 1363 391 1709 391 
Q 2188 391 2477 730 
Q 2766 1069 2766 1631 
L 2766 1759 
L 2194 1759 
z
M 3341 1997 
L 3341 0 
L 2766 0 
L 2766 531 
Q 2569 213 2275 61 
Q 1981 -91 1556 -91 
Q 1019 -91 701 211 
Q 384 513 384 1019 
Q 384 1609 779 1909 
Q 1175 2209 1959 2209 
L 2766 2209 
L 2766 2266 
Q 2766 2663 2505 2880 
Q 2244 3097 1772 3097 
Q 1472 3097 1187 3025 
Q 903 2953 641 2809 
L 641 3341 
Q 956 3463 1253 3523 
Q 1550 3584 1831 3584 
Q 2591 3584 2966 3190 
Q 3341 2797 3341 1997 
z
" id="DejaVuSans-61" transform="scale(0.015625)"/>
       <path d="M 213 4666 
L 850 4666 
L 1831 722 
L 2809 4666 
L 3519 4666 
L 4500 722 
L 5478 4666 
L 6119 4666 
L 4947 0 
L 4153 0 
L 3169 4050 
L 2175 0 
L 1381 0 
L 213 4666 
z
" id="DejaVuSans-57" transform="scale(0.015625)"/>
      </defs>
      <use xlink:href="#DejaVuSans-45"/>
      <use x="63.183594" xlink:href="#DejaVuSans-6e"/>
      <use x="126.5625" xlink:href="#DejaVuSans-65"/>
      <use x="188.085938" xlink:href="#DejaVuSans-72"/>
      <use x="227.449219" xlink:href="#DejaVuSans-67"/>
      <use x="290.925781" xlink:href="#DejaVuSans-79"/>
      <use x="350.105469" xlink:href="#DejaVuSans-20"/>
      <use x="381.892578" xlink:href="#DejaVuSans-47"/>
      <use x="459.382812" xlink:href="#DejaVuSans-65"/>
      <use x="520.90625" xlink:href="#DejaVuSans-6e"/>
      <use x="584.285156" xlink:href="#DejaVuSans-65"/>
      <use x="645.808594" xlink:href="#DejaVuSans-72"/>
      <use x="686.921875" xlink:href="#DejaVuSans-61"/>
      <use x="748.201172" xlink:href="#DejaVuSans-74"/>
      <use x="787.410156" xlink:href="#DejaVuSans-65"/>
      <use x="848.933594" xlink:href="#DejaVuSans-64"/>
      <use x="912.410156" xlink:href="#DejaVuSans-20"/>
      <use x="944.197266" xlink:href="#DejaVuSans-28"/>
      <use x="983.210938" xlink:href="#DejaVuSans-54"/>
      <use x="1044.294922" xlink:href="#DejaVuSans-57"/>
      <use x="1143.171875" xlink:href="#DejaVuSans-68"/>
      <use x="1206.550781" xlink:href="#DejaVuSans-29"/>
     </g>
    </g>
   </g>
   <g id="patch_3">
    <path d="M 54 512.64 
L 54 69.12 
" style="fill:none;stroke:#000000;stroke-linecap:square;stroke-linejoin:miter;stroke-width:0.8;"/>
   </g>
   <g id="patch_4">
    <path d="M 388.8 512.64 
L 388.8 69.12 
" style="fill:none;stroke:#000000;stroke-linecap:square;stroke-linejoin:miter;stroke-width:0.8;"/>
   </g>
   <g id="patch_5">
    <path d="M 54 512.64 
L 388.8 512.64 
" style="fill:none;stroke:#000000;stroke-linecap:square;stroke-linejoin:miter;stroke-width:0.8;"/>
   </g>
   <g id="patch_6">
    <path d="M 54 69.12 
L 388.8 69.12 
" style="fill:none;stroke:#000000;stroke-linecap:square;stroke-linejoin:miter;stroke-width:0.8;"/>
   </g>
  </g>
 </g>
 <defs>
  <clipPath id="p41342fbb2d">
   <rect height="443.52" width="334.8" x="54" y="69.12"/>
  </clipPath>
 </defs>
</svg>
