<?xml version="1.0" encoding="utf-8" standalone="no"?>
<!DOCTYPE svg PUBLIC "-//W3C//DTD SVG 1.1//EN"
  "http://www.w3.org/Graphics/SVG/1.1/DTD/svg11.dtd">
<svg height="864pt" version="1.1" viewBox="0 0 576 864" width="576pt" xmlns="http://www.w3.org/2000/svg" xmlns:xlink="http://www.w3.org/1999/xlink">
 <metadata>
  <rdf:RDF xmlns:cc="http://creativecommons.org/ns#" xmlns:dc="http://purl.org/dc/elements/1.1/" xmlns:rdf="http://www.w3.org/1999/02/22-rdf-syntax-ns#">
   <cc:Work>
    <dc:type rdf:resource="http://purl.org/dc/dcmitype/StillImage"/>
    <dc:date>2021-06-15T14:49:42.610407</dc:date>
    <dc:format>image/svg+xml</dc:format>
    <dc:creator>
     <cc:Agent>
      <dc:title>Matplotlib v3.4.1, https://matplotlib.org/</dc:title>
     </cc:Agent>
    </dc:creator>
   </cc:Work>
  </rdf:RDF>
 </metadata>
 <defs>
  <style type="text/css">*{stroke-linecap:butt;stroke-linejoin:round;}</style>
 </defs>
 <g id="figure_1">
  <g id="patch_1">
   <path d="M 0 864 
L 576 864 
L 576 0 
L 0 0 
z
" style="fill:#ffffff;"/>
  </g>
  <g id="axes_1">
   <g id="patch_2">
    <path d="M 72 768.96 
L 518.4 768.96 
L 518.4 103.68 
L 72 103.68 
z
" style="fill:#ffffff;"/>
   </g>
   <g id="PolyCollection_1">
    <path clip-path="url(#p834a5f00e8)" d="M 92.290909 535.456073 
L 92.290909 768.96 
L 96.390083 768.96 
L 100.489256 768.96 
L 104.58843 768.96 
L 108.687603 768.96 
L 112.786777 768.96 
L 116.88595 768.96 
L 120.985124 768.96 
L 125.084298 768.96 
L 129.183471 768.96 
L 133.282645 768.96 
L 137.381818 768.96 
L 141.480992 768.96 
L 145.580165 768.96 
L 149.679339 768.96 
L 153.778512 768.96 
L 157.877686 768.96 
L 161.97686 768.96 
L 166.076033 768.96 
L 170.175207 768.96 
L 174.27438 768.96 
L 178.373554 768.96 
L 182.472727 768.96 
L 186.571901 768.96 
L 190.671074 768.96 
L 194.770248 768.96 
L 198.869421 768.96 
L 202.968595 768.96 
L 207.067769 768.96 
L 211.166942 768.96 
L 215.266116 768.96 
L 219.365289 768.96 
L 223.464463 768.96 
L 227.563636 768.96 
L 231.66281 768.96 
L 235.761983 768.96 
L 239.861157 768.96 
L 243.960331 768.96 
L 248.059504 768.96 
L 252.158678 768.96 
L 256.257851 768.96 
L 260.357025 768.96 
L 264.456198 768.96 
L 268.555372 768.96 
L 272.654545 768.96 
L 276.753719 768.96 
L 280.852893 768.96 
L 284.952066 768.96 
L 289.05124 768.96 
L 293.150413 768.96 
L 297.249587 768.96 
L 301.34876 768.96 
L 305.447934 768.96 
L 309.547107 768.96 
L 313.646281 768.96 
L 317.745455 768.96 
L 321.844628 768.96 
L 325.943802 768.96 
L 330.042975 768.96 
L 334.142149 768.96 
L 338.241322 768.96 
L 342.340496 768.96 
L 346.439669 768.96 
L 350.538843 768.96 
L 354.638017 768.96 
L 358.73719 768.96 
L 362.836364 768.96 
L 366.935537 768.96 
L 371.034711 768.96 
L 375.133884 768.96 
L 379.233058 768.96 
L 383.332231 768.96 
L 387.431405 768.96 
L 391.530579 768.96 
L 395.629752 768.96 
L 399.728926 768.96 
L 403.828099 768.96 
L 407.927273 768.96 
L 412.026446 768.96 
L 416.12562 768.96 
L 420.224793 768.96 
L 424.323967 768.96 
L 428.42314 768.96 
L 432.522314 768.96 
L 436.621488 768.96 
L 440.720661 768.96 
L 444.819835 768.96 
L 448.919008 768.96 
L 453.018182 768.96 
L 457.117355 768.96 
L 461.216529 768.96 
L 465.315702 768.96 
L 469.414876 768.96 
L 473.51405 768.96 
L 477.613223 768.96 
L 481.712397 768.96 
L 485.81157 768.96 
L 489.910744 768.96 
L 494.009917 768.96 
L 498.109091 768.96 
L 498.109091 540.557977 
L 498.109091 540.557977 
L 494.009917 540.539405 
L 489.910744 540.520465 
L 485.81157 540.501276 
L 481.712397 540.481555 
L 477.613223 540.461533 
L 473.51405 540.441091 
L 469.414876 540.420389 
L 465.315702 540.399401 
L 461.216529 540.377963 
L 457.117355 540.356244 
L 453.018182 540.334307 
L 448.919008 540.312063 
L 444.819835 540.289494 
L 440.720661 540.266499 
L 436.621488 540.243072 
L 432.522314 540.219375 
L 428.42314 540.195307 
L 424.323967 540.170699 
L 420.224793 540.145729 
L 416.12562 540.120397 
L 412.026446 540.09472 
L 407.927273 540.068729 
L 403.828099 540.042251 
L 399.728926 540.015098 
L 395.629752 539.987358 
L 391.530579 539.959077 
L 387.431405 539.930217 
L 383.332231 539.900554 
L 379.233058 539.870272 
L 375.133884 539.839179 
L 371.034711 539.807132 
L 366.935537 539.774314 
L 362.836364 539.740815 
L 358.73719 539.706471 
L 354.638017 539.671208 
L 350.538843 539.635098 
L 346.439669 539.598168 
L 342.340496 539.560288 
L 338.241322 539.521475 
L 334.142149 539.481695 
L 330.042975 539.440846 
L 325.943802 539.399076 
L 321.844628 539.356414 
L 317.745455 539.312633 
L 313.646281 539.267655 
L 309.547107 539.221547 
L 305.447934 539.174369 
L 301.34876 539.12603 
L 297.249587 539.076306 
L 293.150413 539.025182 
L 289.05124 538.972967 
L 284.952066 538.919833 
L 280.852893 538.865493 
L 276.753719 538.809854 
L 272.654545 538.750158 
L 268.555372 538.675293 
L 264.456198 538.600427 
L 260.357025 538.525561 
L 256.257851 538.450696 
L 252.158678 538.37583 
L 248.059504 538.300965 
L 243.960331 538.226099 
L 239.861157 538.151233 
L 235.761983 538.076368 
L 231.66281 538.001502 
L 227.563636 537.926637 
L 223.464463 537.851771 
L 219.365289 537.776906 
L 215.266116 537.70204 
L 211.166942 537.627174 
L 207.067769 537.552309 
L 202.968595 537.477443 
L 198.869421 537.402578 
L 194.770248 537.327712 
L 190.671074 537.252846 
L 186.571901 537.177981 
L 182.472727 537.103115 
L 178.373554 537.02825 
L 174.27438 536.953384 
L 170.175207 536.878519 
L 166.076033 536.803653 
L 161.97686 536.728787 
L 157.877686 536.653922 
L 153.778512 536.579056 
L 149.679339 536.504191 
L 145.580165 536.429325 
L 141.480992 536.35446 
L 137.381818 536.279594 
L 133.282645 536.204728 
L 129.183471 536.129863 
L 125.084298 536.054997 
L 120.985124 535.980132 
L 116.88595 535.905266 
L 112.786777 535.8304 
L 108.687603 535.755535 
L 104.58843 535.680669 
L 100.489256 535.605804 
L 96.390083 535.530938 
L 92.290909 535.456073 
z
" style="fill:#3182bd;"/>
   </g>
   <g id="PolyCollection_2">
    <path clip-path="url(#p834a5f00e8)" d="M 92.290909 145.176622 
L 92.290909 535.456073 
L 96.390083 535.530938 
L 100.489256 535.605804 
L 104.58843 535.680669 
L 108.687603 535.755535 
L 112.786777 535.8304 
L 116.88595 535.905266 
L 120.985124 535.980132 
L 125.084298 536.054997 
L 129.183471 536.129863 
L 133.282645 536.204728 
L 137.381818 536.279594 
L 141.480992 536.35446 
L 145.580165 536.429325 
L 149.679339 536.504191 
L 153.778512 536.579056 
L 157.877686 536.653922 
L 161.97686 536.728787 
L 166.076033 536.803653 
L 170.175207 536.878519 
L 174.27438 536.953384 
L 178.373554 537.02825 
L 182.472727 537.103115 
L 186.571901 537.177981 
L 190.671074 537.252846 
L 194.770248 537.327712 
L 198.869421 537.402578 
L 202.968595 537.477443 
L 207.067769 537.552309 
L 211.166942 537.627174 
L 215.266116 537.70204 
L 219.365289 537.776906 
L 223.464463 537.851771 
L 227.563636 537.926637 
L 231.66281 538.001502 
L 235.761983 538.076368 
L 239.861157 538.151233 
L 243.960331 538.226099 
L 248.059504 538.300965 
L 252.158678 538.37583 
L 256.257851 538.450696 
L 260.357025 538.525561 
L 264.456198 538.600427 
L 268.555372 538.675293 
L 272.654545 538.750158 
L 276.753719 538.809854 
L 280.852893 538.865493 
L 284.952066 538.919833 
L 289.05124 538.972967 
L 293.150413 539.025182 
L 297.249587 539.076306 
L 301.34876 539.12603 
L 305.447934 539.174369 
L 309.547107 539.221547 
L 313.646281 539.267655 
L 317.745455 539.312633 
L 321.844628 539.356414 
L 325.943802 539.399076 
L 330.042975 539.440846 
L 334.142149 539.481695 
L 338.241322 539.521475 
L 342.340496 539.560288 
L 346.439669 539.598168 
L 350.538843 539.635098 
L 354.638017 539.671208 
L 358.73719 539.706471 
L 362.836364 539.740815 
L 366.935537 539.774314 
L 371.034711 539.807132 
L 375.133884 539.839179 
L 379.233058 539.870272 
L 383.332231 539.900554 
L 387.431405 539.930217 
L 391.530579 539.959077 
L 395.629752 539.987358 
L 399.728926 540.015098 
L 403.828099 540.042251 
L 407.927273 540.068729 
L 412.026446 540.09472 
L 416.12562 540.120397 
L 420.224793 540.145729 
L 424.323967 540.170699 
L 428.42314 540.195307 
L 432.522314 540.219375 
L 436.621488 540.243072 
L 440.720661 540.266499 
L 444.819835 540.289494 
L 448.919008 540.312063 
L 453.018182 540.334307 
L 457.117355 540.356244 
L 461.216529 540.377963 
L 465.315702 540.399401 
L 469.414876 540.420389 
L 473.51405 540.441091 
L 477.613223 540.461533 
L 481.712397 540.481555 
L 485.81157 540.501276 
L 489.910744 540.520465 
L 494.009917 540.539405 
L 498.109091 540.557977 
L 498.109091 155.267353 
L 498.109091 155.267353 
L 494.009917 155.127174 
L 489.910744 154.987415 
L 485.81157 154.847948 
L 481.712397 154.709102 
L 477.613223 154.570606 
L 473.51405 154.432602 
L 469.414876 154.294897 
L 465.315702 154.157523 
L 461.216529 154.020675 
L 457.117355 153.884154 
L 453.018182 153.747888 
L 448.919008 153.61198 
L 444.819835 153.476452 
L 440.720661 153.341421 
L 436.621488 153.206893 
L 432.522314 153.072681 
L 428.42314 152.938901 
L 424.323967 152.805748 
L 420.224793 152.673016 
L 416.12562 152.540708 
L 412.026446 152.408801 
L 407.927273 152.277261 
L 403.828099 152.14629 
L 399.728926 152.016106 
L 395.629752 151.886607 
L 391.530579 151.757739 
L 387.431405 151.629544 
L 383.332231 151.502286 
L 379.233058 151.375751 
L 375.133884 151.250163 
L 371.034711 151.125688 
L 366.935537 151.002101 
L 362.836364 150.879296 
L 358.73719 150.75746 
L 354.638017 150.636665 
L 350.538843 150.51683 
L 346.439669 150.397949 
L 342.340496 150.28017 
L 338.241322 150.163471 
L 334.142149 150.047901 
L 330.042975 149.933579 
L 325.943802 149.820333 
L 321.844628 149.708126 
L 317.745455 149.597227 
L 313.646281 149.487723 
L 309.547107 149.37953 
L 305.447934 149.272534 
L 301.34876 149.166852 
L 297.249587 149.062779 
L 293.150413 148.960335 
L 289.05124 148.859163 
L 284.952066 148.759059 
L 280.852893 148.660359 
L 276.753719 148.563175 
L 272.654545 148.470708 
L 268.555372 148.395842 
L 264.456198 148.320977 
L 260.357025 148.246111 
L 256.257851 148.171246 
L 252.158678 148.09638 
L 248.059504 148.021514 
L 243.960331 147.946649 
L 239.861157 147.871783 
L 235.761983 147.796918 
L 231.66281 147.722052 
L 227.563636 147.647187 
L 223.464463 147.572321 
L 219.365289 147.497455 
L 215.266116 147.42259 
L 211.166942 147.347724 
L 207.067769 147.272859 
L 202.968595 147.197993 
L 198.869421 147.123127 
L 194.770248 147.048262 
L 190.671074 146.973396 
L 186.571901 146.898531 
L 182.472727 146.823665 
L 178.373554 146.7488 
L 174.27438 146.673934 
L 170.175207 146.599068 
L 166.076033 146.524203 
L 161.97686 146.449337 
L 157.877686 146.374472 
L 153.778512 146.299606 
L 149.679339 146.22474 
L 145.580165 146.149875 
L 141.480992 146.075009 
L 137.381818 146.000144 
L 133.282645 145.925278 
L 129.183471 145.850413 
L 125.084298 145.775547 
L 120.985124 145.700681 
L 116.88595 145.625816 
L 112.786777 145.55095 
L 108.687603 145.476085 
L 104.58843 145.401219 
L 100.489256 145.326353 
L 96.390083 145.251488 
L 92.290909 145.176622 
z
" style="fill:#6baed6;"/>
   </g>
   <g id="PolyCollection_3">
    <path clip-path="url(#p834a5f00e8)" d="M 92.290909 144.999903 
L 92.290909 145.176622 
L 96.390083 145.251488 
L 100.489256 145.326353 
L 104.58843 145.401219 
L 108.687603 145.476085 
L 112.786777 145.55095 
L 116.88595 145.625816 
L 120.985124 145.700681 
L 125.084298 145.775547 
L 129.183471 145.850413 
L 133.282645 145.925278 
L 137.381818 146.000144 
L 141.480992 146.075009 
L 145.580165 146.149875 
L 149.679339 146.22474 
L 153.778512 146.299606 
L 157.877686 146.374472 
L 161.97686 146.449337 
L 166.076033 146.524203 
L 170.175207 146.599068 
L 174.27438 146.673934 
L 178.373554 146.7488 
L 182.472727 146.823665 
L 186.571901 146.898531 
L 190.671074 146.973396 
L 194.770248 147.048262 
L 198.869421 147.123127 
L 202.968595 147.197993 
L 207.067769 147.272859 
L 211.166942 147.347724 
L 215.266116 147.42259 
L 219.365289 147.497455 
L 223.464463 147.572321 
L 227.563636 147.647187 
L 231.66281 147.722052 
L 235.761983 147.796918 
L 239.861157 147.871783 
L 243.960331 147.946649 
L 248.059504 148.021514 
L 252.158678 148.09638 
L 256.257851 148.171246 
L 260.357025 148.246111 
L 264.456198 148.320977 
L 268.555372 148.395842 
L 272.654545 148.470708 
L 276.753719 148.563175 
L 280.852893 148.660359 
L 284.952066 148.759059 
L 289.05124 148.859163 
L 293.150413 148.960335 
L 297.249587 149.062779 
L 301.34876 149.166852 
L 305.447934 149.272534 
L 309.547107 149.37953 
L 313.646281 149.487723 
L 317.745455 149.597227 
L 321.844628 149.708126 
L 325.943802 149.820333 
L 330.042975 149.933579 
L 334.142149 150.047901 
L 338.241322 150.163471 
L 342.340496 150.28017 
L 346.439669 150.397949 
L 350.538843 150.51683 
L 354.638017 150.636665 
L 358.73719 150.75746 
L 362.836364 150.879296 
L 366.935537 151.002101 
L 371.034711 151.125688 
L 375.133884 151.250163 
L 379.233058 151.375751 
L 383.332231 151.502286 
L 387.431405 151.629544 
L 391.530579 151.757739 
L 395.629752 151.886607 
L 399.728926 152.016106 
L 403.828099 152.14629 
L 407.927273 152.277261 
L 412.026446 152.408801 
L 416.12562 152.540708 
L 420.224793 152.673016 
L 424.323967 152.805748 
L 428.42314 152.938901 
L 432.522314 153.072681 
L 436.621488 153.206893 
L 440.720661 153.341421 
L 444.819835 153.476452 
L 448.919008 153.61198 
L 453.018182 153.747888 
L 457.117355 153.884154 
L 461.216529 154.020675 
L 465.315702 154.157523 
L 469.414876 154.294897 
L 473.51405 154.432602 
L 477.613223 154.570606 
L 481.712397 154.709102 
L 485.81157 154.847948 
L 489.910744 154.987415 
L 494.009917 155.127174 
L 498.109091 155.267353 
L 498.109091 155.090634 
L 498.109091 155.090634 
L 494.009917 154.950455 
L 489.910744 154.810696 
L 485.81157 154.671229 
L 481.712397 154.532383 
L 477.613223 154.393887 
L 473.51405 154.255883 
L 469.414876 154.118177 
L 465.315702 153.980804 
L 461.216529 153.843956 
L 457.117355 153.707435 
L 453.018182 153.571169 
L 448.919008 153.435261 
L 444.819835 153.299733 
L 440.720661 153.164702 
L 436.621488 153.030174 
L 432.522314 152.895962 
L 428.42314 152.762182 
L 424.323967 152.629028 
L 420.224793 152.496297 
L 416.12562 152.363988 
L 412.026446 152.232082 
L 407.927273 152.100542 
L 403.828099 151.969571 
L 399.728926 151.839387 
L 395.629752 151.709888 
L 391.530579 151.581019 
L 387.431405 151.452825 
L 383.332231 151.325567 
L 379.233058 151.199032 
L 375.133884 151.073444 
L 371.034711 150.948969 
L 366.935537 150.825382 
L 362.836364 150.702577 
L 358.73719 150.580741 
L 354.638017 150.459946 
L 350.538843 150.340111 
L 346.439669 150.22123 
L 342.340496 150.10345 
L 338.241322 149.986752 
L 334.142149 149.871182 
L 330.042975 149.75686 
L 325.943802 149.643614 
L 321.844628 149.531407 
L 317.745455 149.420507 
L 313.646281 149.311004 
L 309.547107 149.202811 
L 305.447934 149.095815 
L 301.34876 148.990133 
L 297.249587 148.88606 
L 293.150413 148.783616 
L 289.05124 148.682444 
L 284.952066 148.582339 
L 280.852893 148.48364 
L 276.753719 148.386456 
L 272.654545 148.293989 
L 268.555372 148.219123 
L 264.456198 148.144258 
L 260.357025 148.069392 
L 256.257851 147.994526 
L 252.158678 147.919661 
L 248.059504 147.844795 
L 243.960331 147.76993 
L 239.861157 147.695064 
L 235.761983 147.620199 
L 231.66281 147.545333 
L 227.563636 147.470467 
L 223.464463 147.395602 
L 219.365289 147.320736 
L 215.266116 147.245871 
L 211.166942 147.171005 
L 207.067769 147.09614 
L 202.968595 147.021274 
L 198.869421 146.946408 
L 194.770248 146.871543 
L 190.671074 146.796677 
L 186.571901 146.721812 
L 182.472727 146.646946 
L 178.373554 146.57208 
L 174.27438 146.497215 
L 170.175207 146.422349 
L 166.076033 146.347484 
L 161.97686 146.272618 
L 157.877686 146.197753 
L 153.778512 146.122887 
L 149.679339 146.048021 
L 145.580165 145.973156 
L 141.480992 145.89829 
L 137.381818 145.823425 
L 133.282645 145.748559 
L 129.183471 145.673693 
L 125.084298 145.598828 
L 120.985124 145.523962 
L 116.88595 145.449097 
L 112.786777 145.374231 
L 108.687603 145.299366 
L 104.58843 145.2245 
L 100.489256 145.149634 
L 96.390083 145.074769 
L 92.290909 144.999903 
z
" style="fill:#9ecae1;"/>
   </g>
   <g id="PolyCollection_4">
    <path clip-path="url(#p834a5f00e8)" d="M 92.290909 144.785284 
L 92.290909 144.999903 
L 96.390083 145.074769 
L 100.489256 145.149634 
L 104.58843 145.2245 
L 108.687603 145.299366 
L 112.786777 145.374231 
L 116.88595 145.449097 
L 120.985124 145.523962 
L 125.084298 145.598828 
L 129.183471 145.673693 
L 133.282645 145.748559 
L 137.381818 145.823425 
L 141.480992 145.89829 
L 145.580165 145.973156 
L 149.679339 146.048021 
L 153.778512 146.122887 
L 157.877686 146.197753 
L 161.97686 146.272618 
L 166.076033 146.347484 
L 170.175207 146.422349 
L 174.27438 146.497215 
L 178.373554 146.57208 
L 182.472727 146.646946 
L 186.571901 146.721812 
L 190.671074 146.796677 
L 194.770248 146.871543 
L 198.869421 146.946408 
L 202.968595 147.021274 
L 207.067769 147.09614 
L 211.166942 147.171005 
L 215.266116 147.245871 
L 219.365289 147.320736 
L 223.464463 147.395602 
L 227.563636 147.470467 
L 231.66281 147.545333 
L 235.761983 147.620199 
L 239.861157 147.695064 
L 243.960331 147.76993 
L 248.059504 147.844795 
L 252.158678 147.919661 
L 256.257851 147.994526 
L 260.357025 148.069392 
L 264.456198 148.144258 
L 268.555372 148.219123 
L 272.654545 148.293989 
L 276.753719 148.386456 
L 280.852893 148.48364 
L 284.952066 148.582339 
L 289.05124 148.682444 
L 293.150413 148.783616 
L 297.249587 148.88606 
L 301.34876 148.990133 
L 305.447934 149.095815 
L 309.547107 149.202811 
L 313.646281 149.311004 
L 317.745455 149.420507 
L 321.844628 149.531407 
L 325.943802 149.643614 
L 330.042975 149.75686 
L 334.142149 149.871182 
L 338.241322 149.986752 
L 342.340496 150.10345 
L 346.439669 150.22123 
L 350.538843 150.340111 
L 354.638017 150.459946 
L 358.73719 150.580741 
L 362.836364 150.702577 
L 366.935537 150.825382 
L 371.034711 150.948969 
L 375.133884 151.073444 
L 379.233058 151.199032 
L 383.332231 151.325567 
L 387.431405 151.452825 
L 391.530579 151.581019 
L 395.629752 151.709888 
L 399.728926 151.839387 
L 403.828099 151.969571 
L 407.927273 152.100542 
L 412.026446 152.232082 
L 416.12562 152.363988 
L 420.224793 152.496297 
L 424.323967 152.629028 
L 428.42314 152.762182 
L 432.522314 152.895962 
L 436.621488 153.030174 
L 440.720661 153.164702 
L 444.819835 153.299733 
L 448.919008 153.435261 
L 453.018182 153.571169 
L 457.117355 153.707435 
L 461.216529 153.843956 
L 465.315702 153.980804 
L 469.414876 154.118177 
L 473.51405 154.255883 
L 477.613223 154.393887 
L 481.712397 154.532383 
L 485.81157 154.671229 
L 489.910744 154.810696 
L 494.009917 154.950455 
L 498.109091 155.090634 
L 498.109091 154.876015 
L 498.109091 154.876015 
L 494.009917 154.735835 
L 489.910744 154.596076 
L 485.81157 154.456609 
L 481.712397 154.317763 
L 477.613223 154.179268 
L 473.51405 154.041263 
L 469.414876 153.903558 
L 465.315702 153.766184 
L 461.216529 153.629336 
L 457.117355 153.492816 
L 453.018182 153.356549 
L 448.919008 153.220641 
L 444.819835 153.085113 
L 440.720661 152.950082 
L 436.621488 152.815554 
L 432.522314 152.681342 
L 428.42314 152.547562 
L 424.323967 152.414409 
L 420.224793 152.281677 
L 416.12562 152.149369 
L 412.026446 152.017462 
L 407.927273 151.885923 
L 403.828099 151.754951 
L 399.728926 151.624768 
L 395.629752 151.495269 
L 391.530579 151.3664 
L 387.431405 151.238205 
L 383.332231 151.110948 
L 379.233058 150.984413 
L 375.133884 150.858824 
L 371.034711 150.734349 
L 366.935537 150.610762 
L 362.836364 150.487957 
L 358.73719 150.366121 
L 354.638017 150.245326 
L 350.538843 150.125491 
L 346.439669 150.00661 
L 342.340496 149.888831 
L 338.241322 149.772132 
L 334.142149 149.656562 
L 330.042975 149.542241 
L 325.943802 149.428994 
L 321.844628 149.316788 
L 317.745455 149.205888 
L 313.646281 149.096384 
L 309.547107 148.988192 
L 305.447934 148.881195 
L 301.34876 148.775513 
L 297.249587 148.67144 
L 293.150413 148.568997 
L 289.05124 148.467824 
L 284.952066 148.36772 
L 280.852893 148.26902 
L 276.753719 148.171836 
L 272.654545 148.079369 
L 268.555372 148.004504 
L 264.456198 147.929638 
L 260.357025 147.854772 
L 256.257851 147.779907 
L 252.158678 147.705041 
L 248.059504 147.630176 
L 243.960331 147.55531 
L 239.861157 147.480445 
L 235.761983 147.405579 
L 231.66281 147.330713 
L 227.563636 147.255848 
L 223.464463 147.180982 
L 219.365289 147.106117 
L 215.266116 147.031251 
L 211.166942 146.956385 
L 207.067769 146.88152 
L 202.968595 146.806654 
L 198.869421 146.731789 
L 194.770248 146.656923 
L 190.671074 146.582058 
L 186.571901 146.507192 
L 182.472727 146.432326 
L 178.373554 146.357461 
L 174.27438 146.282595 
L 170.175207 146.20773 
L 166.076033 146.132864 
L 161.97686 146.057998 
L 157.877686 145.983133 
L 153.778512 145.908267 
L 149.679339 145.833402 
L 145.580165 145.758536 
L 141.480992 145.683671 
L 137.381818 145.608805 
L 133.282645 145.533939 
L 129.183471 145.459074 
L 125.084298 145.384208 
L 120.985124 145.309343 
L 116.88595 145.234477 
L 112.786777 145.159611 
L 108.687603 145.084746 
L 104.58843 145.00988 
L 100.489256 144.935015 
L 96.390083 144.860149 
L 92.290909 144.785284 
z
" style="fill:#c6dbef;"/>
   </g>
   <g id="PolyCollection_5">
    <path clip-path="url(#p834a5f00e8)" d="M 92.290909 144.070778 
L 92.290909 144.785284 
L 96.390083 144.860149 
L 100.489256 144.935015 
L 104.58843 145.00988 
L 108.687603 145.084746 
L 112.786777 145.159611 
L 116.88595 145.234477 
L 120.985124 145.309343 
L 125.084298 145.384208 
L 129.183471 145.459074 
L 133.282645 145.533939 
L 137.381818 145.608805 
L 141.480992 145.683671 
L 145.580165 145.758536 
L 149.679339 145.833402 
L 153.778512 145.908267 
L 157.877686 145.983133 
L 161.97686 146.057998 
L 166.076033 146.132864 
L 170.175207 146.20773 
L 174.27438 146.282595 
L 178.373554 146.357461 
L 182.472727 146.432326 
L 186.571901 146.507192 
L 190.671074 146.582058 
L 194.770248 146.656923 
L 198.869421 146.731789 
L 202.968595 146.806654 
L 207.067769 146.88152 
L 211.166942 146.956385 
L 215.266116 147.031251 
L 219.365289 147.106117 
L 223.464463 147.180982 
L 227.563636 147.255848 
L 231.66281 147.330713 
L 235.761983 147.405579 
L 239.861157 147.480445 
L 243.960331 147.55531 
L 248.059504 147.630176 
L 252.158678 147.705041 
L 256.257851 147.779907 
L 260.357025 147.854772 
L 264.456198 147.929638 
L 268.555372 148.004504 
L 272.654545 148.079369 
L 276.753719 148.171836 
L 280.852893 148.26902 
L 284.952066 148.36772 
L 289.05124 148.467824 
L 293.150413 148.568997 
L 297.249587 148.67144 
L 301.34876 148.775513 
L 305.447934 148.881195 
L 309.547107 148.988192 
L 313.646281 149.096384 
L 317.745455 149.205888 
L 321.844628 149.316788 
L 325.943802 149.428994 
L 330.042975 149.542241 
L 334.142149 149.656562 
L 338.241322 149.772132 
L 342.340496 149.888831 
L 346.439669 150.00661 
L 350.538843 150.125491 
L 354.638017 150.245326 
L 358.73719 150.366121 
L 362.836364 150.487957 
L 366.935537 150.610762 
L 371.034711 150.734349 
L 375.133884 150.858824 
L 379.233058 150.984413 
L 383.332231 151.110948 
L 387.431405 151.238205 
L 391.530579 151.3664 
L 395.629752 151.495269 
L 399.728926 151.624768 
L 403.828099 151.754951 
L 407.927273 151.885923 
L 412.026446 152.017462 
L 416.12562 152.149369 
L 420.224793 152.281677 
L 424.323967 152.414409 
L 428.42314 152.547562 
L 432.522314 152.681342 
L 436.621488 152.815554 
L 440.720661 152.950082 
L 444.819835 153.085113 
L 448.919008 153.220641 
L 453.018182 153.356549 
L 457.117355 153.492816 
L 461.216529 153.629336 
L 465.315702 153.766184 
L 469.414876 153.903558 
L 473.51405 154.041263 
L 477.613223 154.179268 
L 481.712397 154.317763 
L 485.81157 154.456609 
L 489.910744 154.596076 
L 494.009917 154.735835 
L 498.109091 154.876015 
L 498.109091 154.161509 
L 498.109091 154.161509 
L 494.009917 154.021329 
L 489.910744 153.881571 
L 485.81157 153.742104 
L 481.712397 153.603258 
L 477.613223 153.464762 
L 473.51405 153.326757 
L 469.414876 153.189052 
L 465.315702 153.051679 
L 461.216529 152.91483 
L 457.117355 152.77831 
L 453.018182 152.642044 
L 448.919008 152.506135 
L 444.819835 152.370607 
L 440.720661 152.235576 
L 436.621488 152.101048 
L 432.522314 151.966836 
L 428.42314 151.833057 
L 424.323967 151.699903 
L 420.224793 151.567172 
L 416.12562 151.434863 
L 412.026446 151.302957 
L 407.927273 151.171417 
L 403.828099 151.040446 
L 399.728926 150.910262 
L 395.629752 150.780763 
L 391.530579 150.651894 
L 387.431405 150.5237 
L 383.332231 150.396442 
L 379.233058 150.269907 
L 375.133884 150.144319 
L 371.034711 150.019844 
L 366.935537 149.896256 
L 362.836364 149.773452 
L 358.73719 149.651616 
L 354.638017 149.530821 
L 350.538843 149.410986 
L 346.439669 149.292105 
L 342.340496 149.174325 
L 338.241322 149.057627 
L 334.142149 148.942057 
L 330.042975 148.827735 
L 325.943802 148.714489 
L 321.844628 148.602282 
L 317.745455 148.491382 
L 313.646281 148.381879 
L 309.547107 148.273686 
L 305.447934 148.166689 
L 301.34876 148.061008 
L 297.249587 147.956934 
L 293.150413 147.854491 
L 289.05124 147.753319 
L 284.952066 147.653214 
L 280.852893 147.554514 
L 276.753719 147.45733 
L 272.654545 147.364863 
L 268.555372 147.289998 
L 264.456198 147.215132 
L 260.357025 147.140267 
L 256.257851 147.065401 
L 252.158678 146.990536 
L 248.059504 146.91567 
L 243.960331 146.840804 
L 239.861157 146.765939 
L 235.761983 146.691073 
L 231.66281 146.616208 
L 227.563636 146.541342 
L 223.464463 146.466477 
L 219.365289 146.391611 
L 215.266116 146.316745 
L 211.166942 146.24188 
L 207.067769 146.167014 
L 202.968595 146.092149 
L 198.869421 146.017283 
L 194.770248 145.942417 
L 190.671074 145.867552 
L 186.571901 145.792686 
L 182.472727 145.717821 
L 178.373554 145.642955 
L 174.27438 145.56809 
L 170.175207 145.493224 
L 166.076033 145.418358 
L 161.97686 145.343493 
L 157.877686 145.268627 
L 153.778512 145.193762 
L 149.679339 145.118896 
L 145.580165 145.04403 
L 141.480992 144.969165 
L 137.381818 144.894299 
L 133.282645 144.819434 
L 129.183471 144.744568 
L 125.084298 144.669703 
L 120.985124 144.594837 
L 116.88595 144.519971 
L 112.786777 144.445106 
L 108.687603 144.37024 
L 104.58843 144.295375 
L 100.489256 144.220509 
L 96.390083 144.145643 
L 92.290909 144.070778 
z
" style="fill:#e6550d;"/>
   </g>
   <g id="PolyCollection_6">
    <path clip-path="url(#p834a5f00e8)" d="M 92.290909 143.206247 
L 92.290909 144.070778 
L 96.390083 144.145643 
L 100.489256 144.220509 
L 104.58843 144.295375 
L 108.687603 144.37024 
L 112.786777 144.445106 
L 116.88595 144.519971 
L 120.985124 144.594837 
L 125.084298 144.669703 
L 129.183471 144.744568 
L 133.282645 144.819434 
L 137.381818 144.894299 
L 141.480992 144.969165 
L 145.580165 145.04403 
L 149.679339 145.118896 
L 153.778512 145.193762 
L 157.877686 145.268627 
L 161.97686 145.343493 
L 166.076033 145.418358 
L 170.175207 145.493224 
L 174.27438 145.56809 
L 178.373554 145.642955 
L 182.472727 145.717821 
L 186.571901 145.792686 
L 190.671074 145.867552 
L 194.770248 145.942417 
L 198.869421 146.017283 
L 202.968595 146.092149 
L 207.067769 146.167014 
L 211.166942 146.24188 
L 215.266116 146.316745 
L 219.365289 146.391611 
L 223.464463 146.466477 
L 227.563636 146.541342 
L 231.66281 146.616208 
L 235.761983 146.691073 
L 239.861157 146.765939 
L 243.960331 146.840804 
L 248.059504 146.91567 
L 252.158678 146.990536 
L 256.257851 147.065401 
L 260.357025 147.140267 
L 264.456198 147.215132 
L 268.555372 147.289998 
L 272.654545 147.364863 
L 276.753719 147.45733 
L 280.852893 147.554514 
L 284.952066 147.653214 
L 289.05124 147.753319 
L 293.150413 147.854491 
L 297.249587 147.956934 
L 301.34876 148.061008 
L 305.447934 148.166689 
L 309.547107 148.273686 
L 313.646281 148.381879 
L 317.745455 148.491382 
L 321.844628 148.602282 
L 325.943802 148.714489 
L 330.042975 148.827735 
L 334.142149 148.942057 
L 338.241322 149.057627 
L 342.340496 149.174325 
L 346.439669 149.292105 
L 350.538843 149.410986 
L 354.638017 149.530821 
L 358.73719 149.651616 
L 362.836364 149.773452 
L 366.935537 149.896256 
L 371.034711 150.019844 
L 375.133884 150.144319 
L 379.233058 150.269907 
L 383.332231 150.396442 
L 387.431405 150.5237 
L 391.530579 150.651894 
L 395.629752 150.780763 
L 399.728926 150.910262 
L 403.828099 151.040446 
L 407.927273 151.171417 
L 412.026446 151.302957 
L 416.12562 151.434863 
L 420.224793 151.567172 
L 424.323967 151.699903 
L 428.42314 151.833057 
L 432.522314 151.966836 
L 436.621488 152.101048 
L 440.720661 152.235576 
L 444.819835 152.370607 
L 448.919008 152.506135 
L 453.018182 152.642044 
L 457.117355 152.77831 
L 461.216529 152.91483 
L 465.315702 153.051679 
L 469.414876 153.189052 
L 473.51405 153.326757 
L 477.613223 153.464762 
L 481.712397 153.603258 
L 485.81157 153.742104 
L 489.910744 153.881571 
L 494.009917 154.021329 
L 498.109091 154.161509 
L 498.109091 153.296978 
L 498.109091 153.296978 
L 494.009917 153.156799 
L 489.910744 153.01704 
L 485.81157 152.877573 
L 481.712397 152.738727 
L 477.613223 152.600232 
L 473.51405 152.462227 
L 469.414876 152.324522 
L 465.315702 152.187148 
L 461.216529 152.0503 
L 457.117355 151.913779 
L 453.018182 151.777513 
L 448.919008 151.641605 
L 444.819835 151.506077 
L 440.720661 151.371046 
L 436.621488 151.236518 
L 432.522314 151.102306 
L 428.42314 150.968526 
L 424.323967 150.835372 
L 420.224793 150.702641 
L 416.12562 150.570332 
L 412.026446 150.438426 
L 407.927273 150.306886 
L 403.828099 150.175915 
L 399.728926 150.045731 
L 395.629752 149.916232 
L 391.530579 149.787363 
L 387.431405 149.659169 
L 383.332231 149.531911 
L 379.233058 149.405376 
L 375.133884 149.279788 
L 371.034711 149.155313 
L 366.935537 149.031726 
L 362.836364 148.908921 
L 358.73719 148.787085 
L 354.638017 148.66629 
L 350.538843 148.546455 
L 346.439669 148.427574 
L 342.340496 148.309794 
L 338.241322 148.193096 
L 334.142149 148.077526 
L 330.042975 147.963204 
L 325.943802 147.849958 
L 321.844628 147.737751 
L 317.745455 147.626851 
L 313.646281 147.517348 
L 309.547107 147.409155 
L 305.447934 147.302159 
L 301.34876 147.196477 
L 297.249587 147.092403 
L 293.150413 146.98996 
L 289.05124 146.888788 
L 284.952066 146.788683 
L 280.852893 146.689983 
L 276.753719 146.592799 
L 272.654545 146.500333 
L 268.555372 146.425467 
L 264.456198 146.350601 
L 260.357025 146.275736 
L 256.257851 146.20087 
L 252.158678 146.126005 
L 248.059504 146.051139 
L 243.960331 145.976273 
L 239.861157 145.901408 
L 235.761983 145.826542 
L 231.66281 145.751677 
L 227.563636 145.676811 
L 223.464463 145.601946 
L 219.365289 145.52708 
L 215.266116 145.452214 
L 211.166942 145.377349 
L 207.067769 145.302483 
L 202.968595 145.227618 
L 198.869421 145.152752 
L 194.770248 145.077887 
L 190.671074 145.003021 
L 186.571901 144.928155 
L 182.472727 144.85329 
L 178.373554 144.778424 
L 174.27438 144.703559 
L 170.175207 144.628693 
L 166.076033 144.553827 
L 161.97686 144.478962 
L 157.877686 144.404096 
L 153.778512 144.329231 
L 149.679339 144.254365 
L 145.580165 144.1795 
L 141.480992 144.104634 
L 137.381818 144.029768 
L 133.282645 143.954903 
L 129.183471 143.880037 
L 125.084298 143.805172 
L 120.985124 143.730306 
L 116.88595 143.65544 
L 112.786777 143.580575 
L 108.687603 143.505709 
L 104.58843 143.430844 
L 100.489256 143.355978 
L 96.390083 143.281113 
L 92.290909 143.206247 
z
" style="fill:#fd8d3c;"/>
   </g>
   <g id="PolyCollection_7">
    <path clip-path="url(#p834a5f00e8)" d="M 92.290909 141.486281 
L 92.290909 143.206247 
L 96.390083 143.281113 
L 100.489256 143.355978 
L 104.58843 143.430844 
L 108.687603 143.505709 
L 112.786777 143.580575 
L 116.88595 143.65544 
L 120.985124 143.730306 
L 125.084298 143.805172 
L 129.183471 143.880037 
L 133.282645 143.954903 
L 137.381818 144.029768 
L 141.480992 144.104634 
L 145.580165 144.1795 
L 149.679339 144.254365 
L 153.778512 144.329231 
L 157.877686 144.404096 
L 161.97686 144.478962 
L 166.076033 144.553827 
L 170.175207 144.628693 
L 174.27438 144.703559 
L 178.373554 144.778424 
L 182.472727 144.85329 
L 186.571901 144.928155 
L 190.671074 145.003021 
L 194.770248 145.077887 
L 198.869421 145.152752 
L 202.968595 145.227618 
L 207.067769 145.302483 
L 211.166942 145.377349 
L 215.266116 145.452214 
L 219.365289 145.52708 
L 223.464463 145.601946 
L 227.563636 145.676811 
L 231.66281 145.751677 
L 235.761983 145.826542 
L 239.861157 145.901408 
L 243.960331 145.976273 
L 248.059504 146.051139 
L 252.158678 146.126005 
L 256.257851 146.20087 
L 260.357025 146.275736 
L 264.456198 146.350601 
L 268.555372 146.425467 
L 272.654545 146.500333 
L 276.753719 146.592799 
L 280.852893 146.689983 
L 284.952066 146.788683 
L 289.05124 146.888788 
L 293.150413 146.98996 
L 297.249587 147.092403 
L 301.34876 147.196477 
L 305.447934 147.302159 
L 309.547107 147.409155 
L 313.646281 147.517348 
L 317.745455 147.626851 
L 321.844628 147.737751 
L 325.943802 147.849958 
L 330.042975 147.963204 
L 334.142149 148.077526 
L 338.241322 148.193096 
L 342.340496 148.309794 
L 346.439669 148.427574 
L 350.538843 148.546455 
L 354.638017 148.66629 
L 358.73719 148.787085 
L 362.836364 148.908921 
L 366.935537 149.031726 
L 371.034711 149.155313 
L 375.133884 149.279788 
L 379.233058 149.405376 
L 383.332231 149.531911 
L 387.431405 149.659169 
L 391.530579 149.787363 
L 395.629752 149.916232 
L 399.728926 150.045731 
L 403.828099 150.175915 
L 407.927273 150.306886 
L 412.026446 150.438426 
L 416.12562 150.570332 
L 420.224793 150.702641 
L 424.323967 150.835372 
L 428.42314 150.968526 
L 432.522314 151.102306 
L 436.621488 151.236518 
L 440.720661 151.371046 
L 444.819835 151.506077 
L 448.919008 151.641605 
L 453.018182 151.777513 
L 457.117355 151.913779 
L 461.216529 152.0503 
L 465.315702 152.187148 
L 469.414876 152.324522 
L 473.51405 152.462227 
L 477.613223 152.600232 
L 481.712397 152.738727 
L 485.81157 152.877573 
L 489.910744 153.01704 
L 494.009917 153.156799 
L 498.109091 153.296978 
L 498.109091 153.296978 
L 498.109091 153.296978 
L 494.009917 153.139426 
L 489.910744 152.982293 
L 485.81157 152.825453 
L 481.712397 152.669234 
L 477.613223 152.513365 
L 473.51405 152.357987 
L 469.414876 152.202908 
L 465.315702 152.048161 
L 461.216529 151.893939 
L 457.117355 151.740046 
L 453.018182 151.586406 
L 448.919008 151.433124 
L 444.819835 151.280223 
L 440.720661 151.127818 
L 436.621488 150.975917 
L 432.522314 150.824332 
L 428.42314 150.673178 
L 424.323967 150.522651 
L 420.224793 150.372547 
L 416.12562 150.222865 
L 412.026446 150.073585 
L 407.927273 149.924672 
L 403.828099 149.776327 
L 399.728926 149.62877 
L 395.629752 149.481897 
L 391.530579 149.335655 
L 387.431405 149.190087 
L 383.332231 149.045456 
L 379.233058 148.901548 
L 375.133884 148.758586 
L 371.034711 148.616738 
L 366.935537 148.475777 
L 362.836364 148.335599 
L 358.73719 148.19639 
L 354.638017 148.058221 
L 350.538843 147.921013 
L 346.439669 147.784758 
L 342.340496 147.649605 
L 338.241322 147.515533 
L 334.142149 147.38259 
L 330.042975 147.250895 
L 325.943802 147.120275 
L 321.844628 146.990695 
L 317.745455 146.862422 
L 313.646281 146.735545 
L 309.547107 146.609979 
L 305.447934 146.485609 
L 301.34876 146.362554 
L 297.249587 146.241107 
L 293.150413 146.12129 
L 289.05124 146.002745 
L 284.952066 145.885267 
L 280.852893 145.769193 
L 276.753719 145.654636 
L 272.654545 145.544796 
L 268.555372 145.452557 
L 264.456198 145.360318 
L 260.357025 145.268079 
L 256.257851 145.17584 
L 252.158678 145.083601 
L 248.059504 144.991362 
L 243.960331 144.899123 
L 239.861157 144.806884 
L 235.761983 144.714645 
L 231.66281 144.622406 
L 227.563636 144.530167 
L 223.464463 144.437928 
L 219.365289 144.345689 
L 215.266116 144.25345 
L 211.166942 144.161211 
L 207.067769 144.068972 
L 202.968595 143.976733 
L 198.869421 143.884494 
L 194.770248 143.792255 
L 190.671074 143.700016 
L 186.571901 143.607777 
L 182.472727 143.515538 
L 178.373554 143.4233 
L 174.27438 143.331061 
L 170.175207 143.238822 
L 166.076033 143.146583 
L 161.97686 143.054344 
L 157.877686 142.962105 
L 153.778512 142.869866 
L 149.679339 142.777627 
L 145.580165 142.685388 
L 141.480992 142.593149 
L 137.381818 142.50091 
L 133.282645 142.408671 
L 129.183471 142.316432 
L 125.084298 142.224193 
L 120.985124 142.131954 
L 116.88595 142.039715 
L 112.786777 141.947476 
L 108.687603 141.855237 
L 104.58843 141.762998 
L 100.489256 141.670759 
L 96.390083 141.57852 
L 92.290909 141.486281 
z
" style="fill:#fdae6b;"/>
   </g>
   <g id="PolyCollection_8">
    <path clip-path="url(#p834a5f00e8)" d="M 92.290909 136.988261 
L 92.290909 141.486281 
L 96.390083 141.57852 
L 100.489256 141.670759 
L 104.58843 141.762998 
L 108.687603 141.855237 
L 112.786777 141.947476 
L 116.88595 142.039715 
L 120.985124 142.131954 
L 125.084298 142.224193 
L 129.183471 142.316432 
L 133.282645 142.408671 
L 137.381818 142.50091 
L 141.480992 142.593149 
L 145.580165 142.685388 
L 149.679339 142.777627 
L 153.778512 142.869866 
L 157.877686 142.962105 
L 161.97686 143.054344 
L 166.076033 143.146583 
L 170.175207 143.238822 
L 174.27438 143.331061 
L 178.373554 143.4233 
L 182.472727 143.515538 
L 186.571901 143.607777 
L 190.671074 143.700016 
L 194.770248 143.792255 
L 198.869421 143.884494 
L 202.968595 143.976733 
L 207.067769 144.068972 
L 211.166942 144.161211 
L 215.266116 144.25345 
L 219.365289 144.345689 
L 223.464463 144.437928 
L 227.563636 144.530167 
L 231.66281 144.622406 
L 235.761983 144.714645 
L 239.861157 144.806884 
L 243.960331 144.899123 
L 248.059504 144.991362 
L 252.158678 145.083601 
L 256.257851 145.17584 
L 260.357025 145.268079 
L 264.456198 145.360318 
L 268.555372 145.452557 
L 272.654545 145.544796 
L 276.753719 145.654636 
L 280.852893 145.769193 
L 284.952066 145.885267 
L 289.05124 146.002745 
L 293.150413 146.12129 
L 297.249587 146.241107 
L 301.34876 146.362554 
L 305.447934 146.485609 
L 309.547107 146.609979 
L 313.646281 146.735545 
L 317.745455 146.862422 
L 321.844628 146.990695 
L 325.943802 147.120275 
L 330.042975 147.250895 
L 334.142149 147.38259 
L 338.241322 147.515533 
L 342.340496 147.649605 
L 346.439669 147.784758 
L 350.538843 147.921013 
L 354.638017 148.058221 
L 358.73719 148.19639 
L 362.836364 148.335599 
L 366.935537 148.475777 
L 371.034711 148.616738 
L 375.133884 148.758586 
L 379.233058 148.901548 
L 383.332231 149.045456 
L 387.431405 149.190087 
L 391.530579 149.335655 
L 395.629752 149.481897 
L 399.728926 149.62877 
L 403.828099 149.776327 
L 407.927273 149.924672 
L 412.026446 150.073585 
L 416.12562 150.222865 
L 420.224793 150.372547 
L 424.323967 150.522651 
L 428.42314 150.673178 
L 432.522314 150.824332 
L 436.621488 150.975917 
L 440.720661 151.127818 
L 444.819835 151.280223 
L 448.919008 151.433124 
L 453.018182 151.586406 
L 457.117355 151.740046 
L 461.216529 151.893939 
L 465.315702 152.048161 
L 469.414876 152.202908 
L 473.51405 152.357987 
L 477.613223 152.513365 
L 481.712397 152.669234 
L 485.81157 152.825453 
L 489.910744 152.982293 
L 494.009917 153.139426 
L 498.109091 153.296978 
L 498.109091 148.798958 
L 498.109091 148.798958 
L 494.009917 148.641405 
L 489.910744 148.484273 
L 485.81157 148.327433 
L 481.712397 148.171214 
L 477.613223 148.015344 
L 473.51405 147.859966 
L 469.414876 147.704888 
L 465.315702 147.550141 
L 461.216529 147.395919 
L 457.117355 147.242025 
L 453.018182 147.088386 
L 448.919008 146.935104 
L 444.819835 146.782202 
L 440.720661 146.629798 
L 436.621488 146.477897 
L 432.522314 146.326311 
L 428.42314 146.175158 
L 424.323967 146.024631 
L 420.224793 145.874526 
L 416.12562 145.724844 
L 412.026446 145.575565 
L 407.927273 145.426651 
L 403.828099 145.278307 
L 399.728926 145.13075 
L 395.629752 144.983877 
L 391.530579 144.837635 
L 387.431405 144.692067 
L 383.332231 144.547436 
L 379.233058 144.403528 
L 375.133884 144.260566 
L 371.034711 144.118717 
L 366.935537 143.977757 
L 362.836364 143.837579 
L 358.73719 143.698369 
L 354.638017 143.560201 
L 350.538843 143.422993 
L 346.439669 143.286738 
L 342.340496 143.151585 
L 338.241322 143.017513 
L 334.142149 142.88457 
L 330.042975 142.752875 
L 325.943802 142.622255 
L 321.844628 142.492675 
L 317.745455 142.364402 
L 313.646281 142.237525 
L 309.547107 142.111959 
L 305.447934 141.987589 
L 301.34876 141.864534 
L 297.249587 141.743087 
L 293.150413 141.62327 
L 289.05124 141.504725 
L 284.952066 141.387247 
L 280.852893 141.271173 
L 276.753719 141.156616 
L 272.654545 141.046776 
L 268.555372 140.954537 
L 264.456198 140.862298 
L 260.357025 140.770059 
L 256.257851 140.67782 
L 252.158678 140.585581 
L 248.059504 140.493342 
L 243.960331 140.401103 
L 239.861157 140.308864 
L 235.761983 140.216625 
L 231.66281 140.124386 
L 227.563636 140.032147 
L 223.464463 139.939908 
L 219.365289 139.847669 
L 215.266116 139.75543 
L 211.166942 139.663191 
L 207.067769 139.570952 
L 202.968595 139.478713 
L 198.869421 139.386474 
L 194.770248 139.294235 
L 190.671074 139.201996 
L 186.571901 139.109757 
L 182.472727 139.017518 
L 178.373554 138.925279 
L 174.27438 138.83304 
L 170.175207 138.740801 
L 166.076033 138.648562 
L 161.97686 138.556323 
L 157.877686 138.464084 
L 153.778512 138.371846 
L 149.679339 138.279607 
L 145.580165 138.187368 
L 141.480992 138.095129 
L 137.381818 138.00289 
L 133.282645 137.910651 
L 129.183471 137.818412 
L 125.084298 137.726173 
L 120.985124 137.633934 
L 116.88595 137.541695 
L 112.786777 137.449456 
L 108.687603 137.357217 
L 104.58843 137.264978 
L 100.489256 137.172739 
L 96.390083 137.0805 
L 92.290909 136.988261 
z
" style="fill:#fdd0a2;"/>
   </g>
   <g id="PolyCollection_9">
    <path clip-path="url(#p834a5f00e8)" d="M 92.290909 135.36 
L 92.290909 136.988261 
L 96.390083 137.0805 
L 100.489256 137.172739 
L 104.58843 137.264978 
L 108.687603 137.357217 
L 112.786777 137.449456 
L 116.88595 137.541695 
L 120.985124 137.633934 
L 125.084298 137.726173 
L 129.183471 137.818412 
L 133.282645 137.910651 
L 137.381818 138.00289 
L 141.480992 138.095129 
L 145.580165 138.187368 
L 149.679339 138.279607 
L 153.778512 138.371846 
L 157.877686 138.464084 
L 161.97686 138.556323 
L 166.076033 138.648562 
L 170.175207 138.740801 
L 174.27438 138.83304 
L 178.373554 138.925279 
L 182.472727 139.017518 
L 186.571901 139.109757 
L 190.671074 139.201996 
L 194.770248 139.294235 
L 198.869421 139.386474 
L 202.968595 139.478713 
L 207.067769 139.570952 
L 211.166942 139.663191 
L 215.266116 139.75543 
L 219.365289 139.847669 
L 223.464463 139.939908 
L 227.563636 140.032147 
L 231.66281 140.124386 
L 235.761983 140.216625 
L 239.861157 140.308864 
L 243.960331 140.401103 
L 248.059504 140.493342 
L 252.158678 140.585581 
L 256.257851 140.67782 
L 260.357025 140.770059 
L 264.456198 140.862298 
L 268.555372 140.954537 
L 272.654545 141.046776 
L 276.753719 141.156616 
L 280.852893 141.271173 
L 284.952066 141.387247 
L 289.05124 141.504725 
L 293.150413 141.62327 
L 297.249587 141.743087 
L 301.34876 141.864534 
L 305.447934 141.987589 
L 309.547107 142.111959 
L 313.646281 142.237525 
L 317.745455 142.364402 
L 321.844628 142.492675 
L 325.943802 142.622255 
L 330.042975 142.752875 
L 334.142149 142.88457 
L 338.241322 143.017513 
L 342.340496 143.151585 
L 346.439669 143.286738 
L 350.538843 143.422993 
L 354.638017 143.560201 
L 358.73719 143.698369 
L 362.836364 143.837579 
L 366.935537 143.977757 
L 371.034711 144.118717 
L 375.133884 144.260566 
L 379.233058 144.403528 
L 383.332231 144.547436 
L 387.431405 144.692067 
L 391.530579 144.837635 
L 395.629752 144.983877 
L 399.728926 145.13075 
L 403.828099 145.278307 
L 407.927273 145.426651 
L 412.026446 145.575565 
L 416.12562 145.724844 
L 420.224793 145.874526 
L 424.323967 146.024631 
L 428.42314 146.175158 
L 432.522314 146.326311 
L 436.621488 146.477897 
L 440.720661 146.629798 
L 444.819835 146.782202 
L 448.919008 146.935104 
L 453.018182 147.088386 
L 457.117355 147.242025 
L 461.216529 147.395919 
L 465.315702 147.550141 
L 469.414876 147.704888 
L 473.51405 147.859966 
L 477.613223 148.015344 
L 481.712397 148.171214 
L 485.81157 148.327433 
L 489.910744 148.484273 
L 494.009917 148.641405 
L 498.109091 148.798958 
L 498.109091 148.798958 
L 498.109091 148.798958 
L 494.009917 148.624958 
L 489.910744 148.451379 
L 485.81157 148.278092 
L 481.712397 148.105425 
L 477.613223 147.933109 
L 473.51405 147.761284 
L 469.414876 147.589758 
L 465.315702 147.418564 
L 461.216529 147.247895 
L 457.117355 147.077555 
L 453.018182 146.907468 
L 448.919008 146.737739 
L 444.819835 146.56839 
L 440.720661 146.399539 
L 436.621488 146.23119 
L 432.522314 146.063158 
L 428.42314 145.895558 
L 424.323967 145.728584 
L 420.224793 145.562032 
L 416.12562 145.395903 
L 412.026446 145.230176 
L 407.927273 145.064816 
L 403.828099 144.900024 
L 399.728926 144.73602 
L 395.629752 144.5727 
L 391.530579 144.410011 
L 387.431405 144.247996 
L 383.332231 144.086918 
L 379.233058 143.926562 
L 375.133884 143.767153 
L 371.034711 143.608858 
L 366.935537 143.45145 
L 362.836364 143.294825 
L 358.73719 143.139169 
L 354.638017 142.984553 
L 350.538843 142.830898 
L 346.439669 142.678196 
L 342.340496 142.526596 
L 338.241322 142.376077 
L 334.142149 142.226687 
L 330.042975 142.078545 
L 325.943802 141.931478 
L 321.844628 141.78545 
L 317.745455 141.64073 
L 313.646281 141.497406 
L 309.547107 141.355393 
L 305.447934 141.214576 
L 301.34876 141.075074 
L 297.249587 140.93718 
L 293.150413 140.800916 
L 289.05124 140.665924 
L 284.952066 140.531998 
L 280.852893 140.399478 
L 276.753719 140.268474 
L 272.654545 140.142186 
L 268.555372 140.0335 
L 264.456198 139.924814 
L 260.357025 139.816128 
L 256.257851 139.707442 
L 252.158678 139.598756 
L 248.059504 139.49007 
L 243.960331 139.381384 
L 239.861157 139.272698 
L 235.761983 139.164012 
L 231.66281 139.055326 
L 227.563636 138.94664 
L 223.464463 138.837954 
L 219.365289 138.729268 
L 215.266116 138.620582 
L 211.166942 138.511896 
L 207.067769 138.40321 
L 202.968595 138.294523 
L 198.869421 138.185837 
L 194.770248 138.077151 
L 190.671074 137.968465 
L 186.571901 137.859779 
L 182.472727 137.751093 
L 178.373554 137.642407 
L 174.27438 137.533721 
L 170.175207 137.425035 
L 166.076033 137.316349 
L 161.97686 137.207663 
L 157.877686 137.098977 
L 153.778512 136.990291 
L 149.679339 136.881605 
L 145.580165 136.772919 
L 141.480992 136.664233 
L 137.381818 136.555547 
L 133.282645 136.446861 
L 129.183471 136.338174 
L 125.084298 136.229488 
L 120.985124 136.120802 
L 116.88595 136.012116 
L 112.786777 135.90343 
L 108.687603 135.794744 
L 104.58843 135.686058 
L 100.489256 135.577372 
L 96.390083 135.468686 
L 92.290909 135.36 
z
" style="fill:#31a354;"/>
   </g>
   <g id="PolyCollection_10">
    <path clip-path="url(#p834a5f00e8)" d="M 92.290909 135.36 
L 92.290909 135.36 
L 96.390083 135.468686 
L 100.489256 135.577372 
L 104.58843 135.686058 
L 108.687603 135.794744 
L 112.786777 135.90343 
L 116.88595 136.012116 
L 120.985124 136.120802 
L 125.084298 136.229488 
L 129.183471 136.338174 
L 133.282645 136.446861 
L 137.381818 136.555547 
L 141.480992 136.664233 
L 145.580165 136.772919 
L 149.679339 136.881605 
L 153.778512 136.990291 
L 157.877686 137.098977 
L 161.97686 137.207663 
L 166.076033 137.316349 
L 170.175207 137.425035 
L 174.27438 137.533721 
L 178.373554 137.642407 
L 182.472727 137.751093 
L 186.571901 137.859779 
L 190.671074 137.968465 
L 194.770248 138.077151 
L 198.869421 138.185837 
L 202.968595 138.294523 
L 207.067769 138.40321 
L 211.166942 138.511896 
L 215.266116 138.620582 
L 219.365289 138.729268 
L 223.464463 138.837954 
L 227.563636 138.94664 
L 231.66281 139.055326 
L 235.761983 139.164012 
L 239.861157 139.272698 
L 243.960331 139.381384 
L 248.059504 139.49007 
L 252.158678 139.598756 
L 256.257851 139.707442 
L 260.357025 139.816128 
L 264.456198 139.924814 
L 268.555372 140.0335 
L 272.654545 140.142186 
L 276.753719 140.268474 
L 280.852893 140.399478 
L 284.952066 140.531998 
L 289.05124 140.665924 
L 293.150413 140.800916 
L 297.249587 140.93718 
L 301.34876 141.075074 
L 305.447934 141.214576 
L 309.547107 141.355393 
L 313.646281 141.497406 
L 317.745455 141.64073 
L 321.844628 141.78545 
L 325.943802 141.931478 
L 330.042975 142.078545 
L 334.142149 142.226687 
L 338.241322 142.376077 
L 342.340496 142.526596 
L 346.439669 142.678196 
L 350.538843 142.830898 
L 354.638017 142.984553 
L 358.73719 143.139169 
L 362.836364 143.294825 
L 366.935537 143.45145 
L 371.034711 143.608858 
L 375.133884 143.767153 
L 379.233058 143.926562 
L 383.332231 144.086918 
L 387.431405 144.247996 
L 391.530579 144.410011 
L 395.629752 144.5727 
L 399.728926 144.73602 
L 403.828099 144.900024 
L 407.927273 145.064816 
L 412.026446 145.230176 
L 416.12562 145.395903 
L 420.224793 145.562032 
L 424.323967 145.728584 
L 428.42314 145.895558 
L 432.522314 146.063158 
L 436.621488 146.23119 
L 440.720661 146.399539 
L 444.819835 146.56839 
L 448.919008 146.737739 
L 453.018182 146.907468 
L 457.117355 147.077555 
L 461.216529 147.247895 
L 465.315702 147.418564 
L 469.414876 147.589758 
L 473.51405 147.761284 
L 477.613223 147.933109 
L 481.712397 148.105425 
L 485.81157 148.278092 
L 489.910744 148.451379 
L 494.009917 148.624958 
L 498.109091 148.798958 
L 498.109091 146.597974 
L 498.109091 146.597974 
L 494.009917 146.446197 
L 489.910744 146.294841 
L 485.81157 146.143777 
L 481.712397 145.993333 
L 477.613223 145.84324 
L 473.51405 145.693638 
L 469.414876 145.544336 
L 465.315702 145.395365 
L 461.216529 145.24692 
L 457.117355 145.098802 
L 453.018182 144.950939 
L 448.919008 144.803433 
L 444.819835 144.656308 
L 440.720661 144.50968 
L 436.621488 144.363555 
L 432.522314 144.217746 
L 428.42314 144.072369 
L 424.323967 143.927619 
L 420.224793 143.78329 
L 416.12562 143.639385 
L 412.026446 143.495881 
L 407.927273 143.352745 
L 403.828099 143.210176 
L 399.728926 143.068396 
L 395.629752 142.9273 
L 391.530579 142.786834 
L 387.431405 142.647043 
L 383.332231 142.508189 
L 379.233058 142.370057 
L 375.133884 142.232872 
L 371.034711 142.0968 
L 366.935537 141.961617 
L 362.836364 141.827216 
L 358.73719 141.693785 
L 354.638017 141.561397 
L 350.538843 141.429969 
L 346.439669 141.299496 
L 342.340496 141.170125 
L 338.241322 141.041834 
L 334.142149 140.914673 
L 330.042975 140.78876 
L 325.943802 140.663922 
L 321.844628 140.540123 
L 317.745455 140.417632 
L 313.646281 140.296537 
L 309.547107 140.176753 
L 305.447934 140.058168 
L 301.34876 139.940899 
L 297.249587 139.825238 
L 293.150413 139.711208 
L 289.05124 139.59845 
L 284.952066 139.486758 
L 280.852893 139.376472 
L 276.753719 139.267702 
L 272.654545 139.16365 
L 268.555372 139.077203 
L 264.456198 138.990757 
L 260.357025 138.90431 
L 256.257851 138.817864 
L 252.158678 138.731417 
L 248.059504 138.64497 
L 243.960331 138.558524 
L 239.861157 138.472077 
L 235.761983 138.385631 
L 231.66281 138.299184 
L 227.563636 138.212737 
L 223.464463 138.126291 
L 219.365289 138.039844 
L 215.266116 137.953398 
L 211.166942 137.866951 
L 207.067769 137.780504 
L 202.968595 137.694058 
L 198.869421 137.607611 
L 194.770248 137.521165 
L 190.671074 137.434718 
L 186.571901 137.348272 
L 182.472727 137.261825 
L 178.373554 137.175378 
L 174.27438 137.088932 
L 170.175207 137.002485 
L 166.076033 136.916039 
L 161.97686 136.829592 
L 157.877686 136.743145 
L 153.778512 136.656699 
L 149.679339 136.570252 
L 145.580165 136.483806 
L 141.480992 136.397359 
L 137.381818 136.310912 
L 133.282645 136.224466 
L 129.183471 136.138019 
L 125.084298 136.051573 
L 120.985124 135.965126 
L 116.88595 135.87868 
L 112.786777 135.792233 
L 108.687603 135.705786 
L 104.58843 135.61934 
L 100.489256 135.532893 
L 96.390083 135.446447 
L 92.290909 135.36 
z
" style="fill:#74c476;"/>
   </g>
   <g id="PolyCollection_11">
    <path clip-path="url(#p834a5f00e8)" d="M 92.290909 135.36 
L 92.290909 135.36 
L 96.390083 135.446447 
L 100.489256 135.532893 
L 104.58843 135.61934 
L 108.687603 135.705786 
L 112.786777 135.792233 
L 116.88595 135.87868 
L 120.985124 135.965126 
L 125.084298 136.051573 
L 129.183471 136.138019 
L 133.282645 136.224466 
L 137.381818 136.310912 
L 141.480992 136.397359 
L 145.580165 136.483806 
L 149.679339 136.570252 
L 153.778512 136.656699 
L 157.877686 136.743145 
L 161.97686 136.829592 
L 166.076033 136.916039 
L 170.175207 137.002485 
L 174.27438 137.088932 
L 178.373554 137.175378 
L 182.472727 137.261825 
L 186.571901 137.348272 
L 190.671074 137.434718 
L 194.770248 137.521165 
L 198.869421 137.607611 
L 202.968595 137.694058 
L 207.067769 137.780504 
L 211.166942 137.866951 
L 215.266116 137.953398 
L 219.365289 138.039844 
L 223.464463 138.126291 
L 227.563636 138.212737 
L 231.66281 138.299184 
L 235.761983 138.385631 
L 239.861157 138.472077 
L 243.960331 138.558524 
L 248.059504 138.64497 
L 252.158678 138.731417 
L 256.257851 138.817864 
L 260.357025 138.90431 
L 264.456198 138.990757 
L 268.555372 139.077203 
L 272.654545 139.16365 
L 276.753719 139.267702 
L 280.852893 139.376472 
L 284.952066 139.486758 
L 289.05124 139.59845 
L 293.150413 139.711208 
L 297.249587 139.825238 
L 301.34876 139.940899 
L 305.447934 140.058168 
L 309.547107 140.176753 
L 313.646281 140.296537 
L 317.745455 140.417632 
L 321.844628 140.540123 
L 325.943802 140.663922 
L 330.042975 140.78876 
L 334.142149 140.914673 
L 338.241322 141.041834 
L 342.340496 141.170125 
L 346.439669 141.299496 
L 350.538843 141.429969 
L 354.638017 141.561397 
L 358.73719 141.693785 
L 362.836364 141.827216 
L 366.935537 141.961617 
L 371.034711 142.0968 
L 375.133884 142.232872 
L 379.233058 142.370057 
L 383.332231 142.508189 
L 387.431405 142.647043 
L 391.530579 142.786834 
L 395.629752 142.9273 
L 399.728926 143.068396 
L 403.828099 143.210176 
L 407.927273 143.352745 
L 412.026446 143.495881 
L 416.12562 143.639385 
L 420.224793 143.78329 
L 424.323967 143.927619 
L 428.42314 144.072369 
L 432.522314 144.217746 
L 436.621488 144.363555 
L 440.720661 144.50968 
L 444.819835 144.656308 
L 448.919008 144.803433 
L 453.018182 144.950939 
L 457.117355 145.098802 
L 461.216529 145.24692 
L 465.315702 145.395365 
L 469.414876 145.544336 
L 473.51405 145.693638 
L 477.613223 145.84324 
L 481.712397 145.993333 
L 485.81157 146.143777 
L 489.910744 146.294841 
L 494.009917 146.446197 
L 498.109091 146.597974 
L 498.109091 144.748766 
L 498.109091 144.748766 
L 494.009917 144.615668 
L 489.910744 144.48299 
L 485.81157 144.350605 
L 481.712397 144.218841 
L 477.613223 144.087426 
L 473.51405 143.956503 
L 469.414876 143.82588 
L 465.315702 143.695588 
L 461.216529 143.565821 
L 457.117355 143.436383 
L 453.018182 143.307198 
L 448.919008 143.178371 
L 444.819835 143.049925 
L 440.720661 142.921976 
L 436.621488 142.79453 
L 432.522314 142.6674 
L 428.42314 142.540701 
L 424.323967 142.41463 
L 420.224793 142.288981 
L 416.12562 142.163754 
L 412.026446 142.038929 
L 407.927273 141.914472 
L 403.828099 141.790582 
L 399.728926 141.667481 
L 395.629752 141.545064 
L 391.530579 141.423277 
L 387.431405 141.302164 
L 383.332231 141.181989 
L 379.233058 141.062536 
L 375.133884 140.94403 
L 371.034711 140.826637 
L 366.935537 140.710132 
L 362.836364 140.59441 
L 358.73719 140.479659 
L 354.638017 140.365949 
L 350.538843 140.2532 
L 346.439669 140.141406 
L 342.340496 140.030713 
L 338.241322 139.921102 
L 334.142149 139.81262 
L 330.042975 139.705385 
L 325.943802 139.599226 
L 321.844628 139.494106 
L 317.745455 139.390294 
L 313.646281 139.287878 
L 309.547107 139.186773 
L 305.447934 139.086866 
L 301.34876 138.988276 
L 297.249587 138.891295 
L 293.150413 138.795944 
L 289.05124 138.701864 
L 284.952066 138.608852 
L 280.852893 138.517244 
L 276.753719 138.427153 
L 272.654545 138.34178 
L 268.555372 138.274012 
L 264.456198 138.206244 
L 260.357025 138.138476 
L 256.257851 138.070709 
L 252.158678 138.002941 
L 248.059504 137.935173 
L 243.960331 137.867406 
L 239.861157 137.799638 
L 235.761983 137.73187 
L 231.66281 137.664102 
L 227.563636 137.596335 
L 223.464463 137.528567 
L 219.365289 137.460799 
L 215.266116 137.393031 
L 211.166942 137.325264 
L 207.067769 137.257496 
L 202.968595 137.189728 
L 198.869421 137.121961 
L 194.770248 137.054193 
L 190.671074 136.986425 
L 186.571901 136.918657 
L 182.472727 136.85089 
L 178.373554 136.783122 
L 174.27438 136.715354 
L 170.175207 136.647587 
L 166.076033 136.579819 
L 161.97686 136.512051 
L 157.877686 136.444283 
L 153.778512 136.376516 
L 149.679339 136.308748 
L 145.580165 136.24098 
L 141.480992 136.173213 
L 137.381818 136.105445 
L 133.282645 136.037677 
L 129.183471 135.969909 
L 125.084298 135.902142 
L 120.985124 135.834374 
L 116.88595 135.766606 
L 112.786777 135.698839 
L 108.687603 135.631071 
L 104.58843 135.563303 
L 100.489256 135.495535 
L 96.390083 135.427768 
L 92.290909 135.36 
z
" style="fill:#a1d99b;"/>
   </g>
   <g id="matplotlib.axis_1">
    <g id="xtick_1">
     <g id="line2d_1">
      <defs>
       <path d="M 0 0 
L 0 3.5 
" id="m259814c779" style="stroke:#000000;stroke-width:0.8;"/>
      </defs>
      <g>
       <use style="stroke:#000000;stroke-width:0.8;" x="92.290909" xlink:href="#m259814c779" y="768.96"/>
      </g>
     </g>
     <g id="text_1">
      <!-- 0 -->
      <g transform="translate(89.109659 783.558437)scale(0.1 -0.1)">
       <defs>
        <path d="M 2034 4250 
Q 1547 4250 1301 3770 
Q 1056 3291 1056 2328 
Q 1056 1369 1301 889 
Q 1547 409 2034 409 
Q 2525 409 2770 889 
Q 3016 1369 3016 2328 
Q 3016 3291 2770 3770 
Q 2525 4250 2034 4250 
z
M 2034 4750 
Q 2819 4750 3233 4129 
Q 3647 3509 3647 2328 
Q 3647 1150 3233 529 
Q 2819 -91 2034 -91 
Q 1250 -91 836 529 
Q 422 1150 422 2328 
Q 422 3509 836 4129 
Q 1250 4750 2034 4750 
z
" id="DejaVuSans-30" transform="scale(0.015625)"/>
       </defs>
       <use xlink:href="#DejaVuSans-30"/>
      </g>
     </g>
    </g>
    <g id="xtick_2">
     <g id="line2d_2">
      <g>
       <use style="stroke:#000000;stroke-width:0.8;" x="173.454545" xlink:href="#m259814c779" y="768.96"/>
      </g>
     </g>
     <g id="text_2">
      <!-- 20 -->
      <g transform="translate(167.092045 783.558437)scale(0.1 -0.1)">
       <defs>
        <path d="M 1228 531 
L 3431 531 
L 3431 0 
L 469 0 
L 469 531 
Q 828 903 1448 1529 
Q 2069 2156 2228 2338 
Q 2531 2678 2651 2914 
Q 2772 3150 2772 3378 
Q 2772 3750 2511 3984 
Q 2250 4219 1831 4219 
Q 1534 4219 1204 4116 
Q 875 4013 500 3803 
L 500 4441 
Q 881 4594 1212 4672 
Q 1544 4750 1819 4750 
Q 2544 4750 2975 4387 
Q 3406 4025 3406 3419 
Q 3406 3131 3298 2873 
Q 3191 2616 2906 2266 
Q 2828 2175 2409 1742 
Q 1991 1309 1228 531 
z
" id="DejaVuSans-32" transform="scale(0.015625)"/>
       </defs>
       <use xlink:href="#DejaVuSans-32"/>
       <use x="63.623047" xlink:href="#DejaVuSans-30"/>
      </g>
     </g>
    </g>
    <g id="xtick_3">
     <g id="line2d_3">
      <g>
       <use style="stroke:#000000;stroke-width:0.8;" x="254.618182" xlink:href="#m259814c779" y="768.96"/>
      </g>
     </g>
     <g id="text_3">
      <!-- 40 -->
      <g transform="translate(248.255682 783.558437)scale(0.1 -0.1)">
       <defs>
        <path d="M 2419 4116 
L 825 1625 
L 2419 1625 
L 2419 4116 
z
M 2253 4666 
L 3047 4666 
L 3047 1625 
L 3713 1625 
L 3713 1100 
L 3047 1100 
L 3047 0 
L 2419 0 
L 2419 1100 
L 313 1100 
L 313 1709 
L 2253 4666 
z
" id="DejaVuSans-34" transform="scale(0.015625)"/>
       </defs>
       <use xlink:href="#DejaVuSans-34"/>
       <use x="63.623047" xlink:href="#DejaVuSans-30"/>
      </g>
     </g>
    </g>
    <g id="xtick_4">
     <g id="line2d_4">
      <g>
       <use style="stroke:#000000;stroke-width:0.8;" x="335.781818" xlink:href="#m259814c779" y="768.96"/>
      </g>
     </g>
     <g id="text_4">
      <!-- 60 -->
      <g transform="translate(329.419318 783.558437)scale(0.1 -0.1)">
       <defs>
        <path d="M 2113 2584 
Q 1688 2584 1439 2293 
Q 1191 2003 1191 1497 
Q 1191 994 1439 701 
Q 1688 409 2113 409 
Q 2538 409 2786 701 
Q 3034 994 3034 1497 
Q 3034 2003 2786 2293 
Q 2538 2584 2113 2584 
z
M 3366 4563 
L 3366 3988 
Q 3128 4100 2886 4159 
Q 2644 4219 2406 4219 
Q 1781 4219 1451 3797 
Q 1122 3375 1075 2522 
Q 1259 2794 1537 2939 
Q 1816 3084 2150 3084 
Q 2853 3084 3261 2657 
Q 3669 2231 3669 1497 
Q 3669 778 3244 343 
Q 2819 -91 2113 -91 
Q 1303 -91 875 529 
Q 447 1150 447 2328 
Q 447 3434 972 4092 
Q 1497 4750 2381 4750 
Q 2619 4750 2861 4703 
Q 3103 4656 3366 4563 
z
" id="DejaVuSans-36" transform="scale(0.015625)"/>
       </defs>
       <use xlink:href="#DejaVuSans-36"/>
       <use x="63.623047" xlink:href="#DejaVuSans-30"/>
      </g>
     </g>
    </g>
    <g id="xtick_5">
     <g id="line2d_5">
      <g>
       <use style="stroke:#000000;stroke-width:0.8;" x="416.945455" xlink:href="#m259814c779" y="768.96"/>
      </g>
     </g>
     <g id="text_5">
      <!-- 80 -->
      <g transform="translate(410.582955 783.558437)scale(0.1 -0.1)">
       <defs>
        <path d="M 2034 2216 
Q 1584 2216 1326 1975 
Q 1069 1734 1069 1313 
Q 1069 891 1326 650 
Q 1584 409 2034 409 
Q 2484 409 2743 651 
Q 3003 894 3003 1313 
Q 3003 1734 2745 1975 
Q 2488 2216 2034 2216 
z
M 1403 2484 
Q 997 2584 770 2862 
Q 544 3141 544 3541 
Q 544 4100 942 4425 
Q 1341 4750 2034 4750 
Q 2731 4750 3128 4425 
Q 3525 4100 3525 3541 
Q 3525 3141 3298 2862 
Q 3072 2584 2669 2484 
Q 3125 2378 3379 2068 
Q 3634 1759 3634 1313 
Q 3634 634 3220 271 
Q 2806 -91 2034 -91 
Q 1263 -91 848 271 
Q 434 634 434 1313 
Q 434 1759 690 2068 
Q 947 2378 1403 2484 
z
M 1172 3481 
Q 1172 3119 1398 2916 
Q 1625 2713 2034 2713 
Q 2441 2713 2670 2916 
Q 2900 3119 2900 3481 
Q 2900 3844 2670 4047 
Q 2441 4250 2034 4250 
Q 1625 4250 1398 4047 
Q 1172 3844 1172 3481 
z
" id="DejaVuSans-38" transform="scale(0.015625)"/>
       </defs>
       <use xlink:href="#DejaVuSans-38"/>
       <use x="63.623047" xlink:href="#DejaVuSans-30"/>
      </g>
     </g>
    </g>
    <g id="xtick_6">
     <g id="line2d_6">
      <g>
       <use style="stroke:#000000;stroke-width:0.8;" x="498.109091" xlink:href="#m259814c779" y="768.96"/>
      </g>
     </g>
     <g id="text_6">
      <!-- 100 -->
      <g transform="translate(488.565341 783.558437)scale(0.1 -0.1)">
       <defs>
        <path d="M 794 531 
L 1825 531 
L 1825 4091 
L 703 3866 
L 703 4441 
L 1819 4666 
L 2450 4666 
L 2450 531 
L 3481 531 
L 3481 0 
L 794 0 
L 794 531 
z
" id="DejaVuSans-31" transform="scale(0.015625)"/>
       </defs>
       <use xlink:href="#DejaVuSans-31"/>
       <use x="63.623047" xlink:href="#DejaVuSans-30"/>
       <use x="127.246094" xlink:href="#DejaVuSans-30"/>
      </g>
     </g>
    </g>
    <g id="text_7">
     <!-- Proportion of New Technology in Grid (%) -->
     <g transform="translate(192.432031 797.236562)scale(0.1 -0.1)">
      <defs>
       <path d="M 1259 4147 
L 1259 2394 
L 2053 2394 
Q 2494 2394 2734 2622 
Q 2975 2850 2975 3272 
Q 2975 3691 2734 3919 
Q 2494 4147 2053 4147 
L 1259 4147 
z
M 628 4666 
L 2053 4666 
Q 2838 4666 3239 4311 
Q 3641 3956 3641 3272 
Q 3641 2581 3239 2228 
Q 2838 1875 2053 1875 
L 1259 1875 
L 1259 0 
L 628 0 
L 628 4666 
z
" id="DejaVuSans-50" transform="scale(0.015625)"/>
       <path d="M 2631 2963 
Q 2534 3019 2420 3045 
Q 2306 3072 2169 3072 
Q 1681 3072 1420 2755 
Q 1159 2438 1159 1844 
L 1159 0 
L 581 0 
L 581 3500 
L 1159 3500 
L 1159 2956 
Q 1341 3275 1631 3429 
Q 1922 3584 2338 3584 
Q 2397 3584 2469 3576 
Q 2541 3569 2628 3553 
L 2631 2963 
z
" id="DejaVuSans-72" transform="scale(0.015625)"/>
       <path d="M 1959 3097 
Q 1497 3097 1228 2736 
Q 959 2375 959 1747 
Q 959 1119 1226 758 
Q 1494 397 1959 397 
Q 2419 397 2687 759 
Q 2956 1122 2956 1747 
Q 2956 2369 2687 2733 
Q 2419 3097 1959 3097 
z
M 1959 3584 
Q 2709 3584 3137 3096 
Q 3566 2609 3566 1747 
Q 3566 888 3137 398 
Q 2709 -91 1959 -91 
Q 1206 -91 779 398 
Q 353 888 353 1747 
Q 353 2609 779 3096 
Q 1206 3584 1959 3584 
z
" id="DejaVuSans-6f" transform="scale(0.015625)"/>
       <path d="M 1159 525 
L 1159 -1331 
L 581 -1331 
L 581 3500 
L 1159 3500 
L 1159 2969 
Q 1341 3281 1617 3432 
Q 1894 3584 2278 3584 
Q 2916 3584 3314 3078 
Q 3713 2572 3713 1747 
Q 3713 922 3314 415 
Q 2916 -91 2278 -91 
Q 1894 -91 1617 61 
Q 1341 213 1159 525 
z
M 3116 1747 
Q 3116 2381 2855 2742 
Q 2594 3103 2138 3103 
Q 1681 3103 1420 2742 
Q 1159 2381 1159 1747 
Q 1159 1113 1420 752 
Q 1681 391 2138 391 
Q 2594 391 2855 752 
Q 3116 1113 3116 1747 
z
" id="DejaVuSans-70" transform="scale(0.015625)"/>
       <path d="M 1172 4494 
L 1172 3500 
L 2356 3500 
L 2356 3053 
L 1172 3053 
L 1172 1153 
Q 1172 725 1289 603 
Q 1406 481 1766 481 
L 2356 481 
L 2356 0 
L 1766 0 
Q 1100 0 847 248 
Q 594 497 594 1153 
L 594 3053 
L 172 3053 
L 172 3500 
L 594 3500 
L 594 4494 
L 1172 4494 
z
" id="DejaVuSans-74" transform="scale(0.015625)"/>
       <path d="M 603 3500 
L 1178 3500 
L 1178 0 
L 603 0 
L 603 3500 
z
M 603 4863 
L 1178 4863 
L 1178 4134 
L 603 4134 
L 603 4863 
z
" id="DejaVuSans-69" transform="scale(0.015625)"/>
       <path d="M 3513 2113 
L 3513 0 
L 2938 0 
L 2938 2094 
Q 2938 2591 2744 2837 
Q 2550 3084 2163 3084 
Q 1697 3084 1428 2787 
Q 1159 2491 1159 1978 
L 1159 0 
L 581 0 
L 581 3500 
L 1159 3500 
L 1159 2956 
Q 1366 3272 1645 3428 
Q 1925 3584 2291 3584 
Q 2894 3584 3203 3211 
Q 3513 2838 3513 2113 
z
" id="DejaVuSans-6e" transform="scale(0.015625)"/>
       <path id="DejaVuSans-20" transform="scale(0.015625)"/>
       <path d="M 2375 4863 
L 2375 4384 
L 1825 4384 
Q 1516 4384 1395 4259 
Q 1275 4134 1275 3809 
L 1275 3500 
L 2222 3500 
L 2222 3053 
L 1275 3053 
L 1275 0 
L 697 0 
L 697 3053 
L 147 3053 
L 147 3500 
L 697 3500 
L 697 3744 
Q 697 4328 969 4595 
Q 1241 4863 1831 4863 
L 2375 4863 
z
" id="DejaVuSans-66" transform="scale(0.015625)"/>
       <path d="M 628 4666 
L 1478 4666 
L 3547 763 
L 3547 4666 
L 4159 4666 
L 4159 0 
L 3309 0 
L 1241 3903 
L 1241 0 
L 628 0 
L 628 4666 
z
" id="DejaVuSans-4e" transform="scale(0.015625)"/>
       <path d="M 3597 1894 
L 3597 1613 
L 953 1613 
Q 991 1019 1311 708 
Q 1631 397 2203 397 
Q 2534 397 2845 478 
Q 3156 559 3463 722 
L 3463 178 
Q 3153 47 2828 -22 
Q 2503 -91 2169 -91 
Q 1331 -91 842 396 
Q 353 884 353 1716 
Q 353 2575 817 3079 
Q 1281 3584 2069 3584 
Q 2775 3584 3186 3129 
Q 3597 2675 3597 1894 
z
M 3022 2063 
Q 3016 2534 2758 2815 
Q 2500 3097 2075 3097 
Q 1594 3097 1305 2825 
Q 1016 2553 972 2059 
L 3022 2063 
z
" id="DejaVuSans-65" transform="scale(0.015625)"/>
       <path d="M 269 3500 
L 844 3500 
L 1563 769 
L 2278 3500 
L 2956 3500 
L 3675 769 
L 4391 3500 
L 4966 3500 
L 4050 0 
L 3372 0 
L 2619 2869 
L 1863 0 
L 1184 0 
L 269 3500 
z
" id="DejaVuSans-77" transform="scale(0.015625)"/>
       <path d="M -19 4666 
L 3928 4666 
L 3928 4134 
L 2272 4134 
L 2272 0 
L 1638 0 
L 1638 4134 
L -19 4134 
L -19 4666 
z
" id="DejaVuSans-54" transform="scale(0.015625)"/>
       <path d="M 3122 3366 
L 3122 2828 
Q 2878 2963 2633 3030 
Q 2388 3097 2138 3097 
Q 1578 3097 1268 2742 
Q 959 2388 959 1747 
Q 959 1106 1268 751 
Q 1578 397 2138 397 
Q 2388 397 2633 464 
Q 2878 531 3122 666 
L 3122 134 
Q 2881 22 2623 -34 
Q 2366 -91 2075 -91 
Q 1284 -91 818 406 
Q 353 903 353 1747 
Q 353 2603 823 3093 
Q 1294 3584 2113 3584 
Q 2378 3584 2631 3529 
Q 2884 3475 3122 3366 
z
" id="DejaVuSans-63" transform="scale(0.015625)"/>
       <path d="M 3513 2113 
L 3513 0 
L 2938 0 
L 2938 2094 
Q 2938 2591 2744 2837 
Q 2550 3084 2163 3084 
Q 1697 3084 1428 2787 
Q 1159 2491 1159 1978 
L 1159 0 
L 581 0 
L 581 4863 
L 1159 4863 
L 1159 2956 
Q 1366 3272 1645 3428 
Q 1925 3584 2291 3584 
Q 2894 3584 3203 3211 
Q 3513 2838 3513 2113 
z
" id="DejaVuSans-68" transform="scale(0.015625)"/>
       <path d="M 603 4863 
L 1178 4863 
L 1178 0 
L 603 0 
L 603 4863 
z
" id="DejaVuSans-6c" transform="scale(0.015625)"/>
       <path d="M 2906 1791 
Q 2906 2416 2648 2759 
Q 2391 3103 1925 3103 
Q 1463 3103 1205 2759 
Q 947 2416 947 1791 
Q 947 1169 1205 825 
Q 1463 481 1925 481 
Q 2391 481 2648 825 
Q 2906 1169 2906 1791 
z
M 3481 434 
Q 3481 -459 3084 -895 
Q 2688 -1331 1869 -1331 
Q 1566 -1331 1297 -1286 
Q 1028 -1241 775 -1147 
L 775 -588 
Q 1028 -725 1275 -790 
Q 1522 -856 1778 -856 
Q 2344 -856 2625 -561 
Q 2906 -266 2906 331 
L 2906 616 
Q 2728 306 2450 153 
Q 2172 0 1784 0 
Q 1141 0 747 490 
Q 353 981 353 1791 
Q 353 2603 747 3093 
Q 1141 3584 1784 3584 
Q 2172 3584 2450 3431 
Q 2728 3278 2906 2969 
L 2906 3500 
L 3481 3500 
L 3481 434 
z
" id="DejaVuSans-67" transform="scale(0.015625)"/>
       <path d="M 2059 -325 
Q 1816 -950 1584 -1140 
Q 1353 -1331 966 -1331 
L 506 -1331 
L 506 -850 
L 844 -850 
Q 1081 -850 1212 -737 
Q 1344 -625 1503 -206 
L 1606 56 
L 191 3500 
L 800 3500 
L 1894 763 
L 2988 3500 
L 3597 3500 
L 2059 -325 
z
" id="DejaVuSans-79" transform="scale(0.015625)"/>
       <path d="M 3809 666 
L 3809 1919 
L 2778 1919 
L 2778 2438 
L 4434 2438 
L 4434 434 
Q 4069 175 3628 42 
Q 3188 -91 2688 -91 
Q 1594 -91 976 548 
Q 359 1188 359 2328 
Q 359 3472 976 4111 
Q 1594 4750 2688 4750 
Q 3144 4750 3555 4637 
Q 3966 4525 4313 4306 
L 4313 3634 
Q 3963 3931 3569 4081 
Q 3175 4231 2741 4231 
Q 1884 4231 1454 3753 
Q 1025 3275 1025 2328 
Q 1025 1384 1454 906 
Q 1884 428 2741 428 
Q 3075 428 3337 486 
Q 3600 544 3809 666 
z
" id="DejaVuSans-47" transform="scale(0.015625)"/>
       <path d="M 2906 2969 
L 2906 4863 
L 3481 4863 
L 3481 0 
L 2906 0 
L 2906 525 
Q 2725 213 2448 61 
Q 2172 -91 1784 -91 
Q 1150 -91 751 415 
Q 353 922 353 1747 
Q 353 2572 751 3078 
Q 1150 3584 1784 3584 
Q 2172 3584 2448 3432 
Q 2725 3281 2906 2969 
z
M 947 1747 
Q 947 1113 1208 752 
Q 1469 391 1925 391 
Q 2381 391 2643 752 
Q 2906 1113 2906 1747 
Q 2906 2381 2643 2742 
Q 2381 3103 1925 3103 
Q 1469 3103 1208 2742 
Q 947 2381 947 1747 
z
" id="DejaVuSans-64" transform="scale(0.015625)"/>
       <path d="M 1984 4856 
Q 1566 4138 1362 3434 
Q 1159 2731 1159 2009 
Q 1159 1288 1364 580 
Q 1569 -128 1984 -844 
L 1484 -844 
Q 1016 -109 783 600 
Q 550 1309 550 2009 
Q 550 2706 781 3412 
Q 1013 4119 1484 4856 
L 1984 4856 
z
" id="DejaVuSans-28" transform="scale(0.015625)"/>
       <path d="M 4653 2053 
Q 4381 2053 4226 1822 
Q 4072 1591 4072 1178 
Q 4072 772 4226 539 
Q 4381 306 4653 306 
Q 4919 306 5073 539 
Q 5228 772 5228 1178 
Q 5228 1588 5073 1820 
Q 4919 2053 4653 2053 
z
M 4653 2450 
Q 5147 2450 5437 2106 
Q 5728 1763 5728 1178 
Q 5728 594 5436 251 
Q 5144 -91 4653 -91 
Q 4153 -91 3862 251 
Q 3572 594 3572 1178 
Q 3572 1766 3864 2108 
Q 4156 2450 4653 2450 
z
M 1428 4353 
Q 1159 4353 1004 4120 
Q 850 3888 850 3481 
Q 850 3069 1003 2837 
Q 1156 2606 1428 2606 
Q 1700 2606 1854 2837 
Q 2009 3069 2009 3481 
Q 2009 3884 1853 4118 
Q 1697 4353 1428 4353 
z
M 4250 4750 
L 4750 4750 
L 1831 -91 
L 1331 -91 
L 4250 4750 
z
M 1428 4750 
Q 1922 4750 2215 4408 
Q 2509 4066 2509 3481 
Q 2509 2891 2217 2550 
Q 1925 2209 1428 2209 
Q 931 2209 642 2551 
Q 353 2894 353 3481 
Q 353 4063 643 4406 
Q 934 4750 1428 4750 
z
" id="DejaVuSans-25" transform="scale(0.015625)"/>
       <path d="M 513 4856 
L 1013 4856 
Q 1481 4119 1714 3412 
Q 1947 2706 1947 2009 
Q 1947 1309 1714 600 
Q 1481 -109 1013 -844 
L 513 -844 
Q 928 -128 1133 580 
Q 1338 1288 1338 2009 
Q 1338 2731 1133 3434 
Q 928 4138 513 4856 
z
" id="DejaVuSans-29" transform="scale(0.015625)"/>
      </defs>
      <use xlink:href="#DejaVuSans-50"/>
      <use x="58.552734" xlink:href="#DejaVuSans-72"/>
      <use x="97.416016" xlink:href="#DejaVuSans-6f"/>
      <use x="158.597656" xlink:href="#DejaVuSans-70"/>
      <use x="222.074219" xlink:href="#DejaVuSans-6f"/>
      <use x="283.255859" xlink:href="#DejaVuSans-72"/>
      <use x="324.369141" xlink:href="#DejaVuSans-74"/>
      <use x="363.578125" xlink:href="#DejaVuSans-69"/>
      <use x="391.361328" xlink:href="#DejaVuSans-6f"/>
      <use x="452.542969" xlink:href="#DejaVuSans-6e"/>
      <use x="515.921875" xlink:href="#DejaVuSans-20"/>
      <use x="547.708984" xlink:href="#DejaVuSans-6f"/>
      <use x="608.890625" xlink:href="#DejaVuSans-66"/>
      <use x="644.095703" xlink:href="#DejaVuSans-20"/>
      <use x="675.882812" xlink:href="#DejaVuSans-4e"/>
      <use x="750.6875" xlink:href="#DejaVuSans-65"/>
      <use x="812.210938" xlink:href="#DejaVuSans-77"/>
      <use x="893.998047" xlink:href="#DejaVuSans-20"/>
      <use x="925.785156" xlink:href="#DejaVuSans-54"/>
      <use x="969.869141" xlink:href="#DejaVuSans-65"/>
      <use x="1031.392578" xlink:href="#DejaVuSans-63"/>
      <use x="1086.373047" xlink:href="#DejaVuSans-68"/>
      <use x="1149.751953" xlink:href="#DejaVuSans-6e"/>
      <use x="1213.130859" xlink:href="#DejaVuSans-6f"/>
      <use x="1274.3125" xlink:href="#DejaVuSans-6c"/>
      <use x="1302.095703" xlink:href="#DejaVuSans-6f"/>
      <use x="1363.277344" xlink:href="#DejaVuSans-67"/>
      <use x="1426.753906" xlink:href="#DejaVuSans-79"/>
      <use x="1485.933594" xlink:href="#DejaVuSans-20"/>
      <use x="1517.720703" xlink:href="#DejaVuSans-69"/>
      <use x="1545.503906" xlink:href="#DejaVuSans-6e"/>
      <use x="1608.882812" xlink:href="#DejaVuSans-20"/>
      <use x="1640.669922" xlink:href="#DejaVuSans-47"/>
      <use x="1718.160156" xlink:href="#DejaVuSans-72"/>
      <use x="1759.273438" xlink:href="#DejaVuSans-69"/>
      <use x="1787.056641" xlink:href="#DejaVuSans-64"/>
      <use x="1850.533203" xlink:href="#DejaVuSans-20"/>
      <use x="1882.320312" xlink:href="#DejaVuSans-28"/>
      <use x="1921.333984" xlink:href="#DejaVuSans-25"/>
      <use x="2016.353516" xlink:href="#DejaVuSans-29"/>
     </g>
    </g>
   </g>
   <g id="matplotlib.axis_2">
    <g id="ytick_1">
     <g id="line2d_7">
      <defs>
       <path d="M 0 0 
L -3.5 0 
" id="m71c43474b3" style="stroke:#000000;stroke-width:0.8;"/>
      </defs>
      <g>
       <use style="stroke:#000000;stroke-width:0.8;" x="72" xlink:href="#m71c43474b3" y="768.96"/>
      </g>
     </g>
     <g id="text_8">
      <!-- 0 -->
      <g transform="translate(58.6375 772.759219)scale(0.1 -0.1)">
       <use xlink:href="#DejaVuSans-30"/>
      </g>
     </g>
    </g>
    <g id="ytick_2">
     <g id="line2d_8">
      <g>
       <use style="stroke:#000000;stroke-width:0.8;" x="72" xlink:href="#m71c43474b3" y="661.374309"/>
      </g>
     </g>
     <g id="text_9">
      <!-- 20 -->
      <g transform="translate(52.275 665.173527)scale(0.1 -0.1)">
       <use xlink:href="#DejaVuSans-32"/>
       <use x="63.623047" xlink:href="#DejaVuSans-30"/>
      </g>
     </g>
    </g>
    <g id="ytick_3">
     <g id="line2d_9">
      <g>
       <use style="stroke:#000000;stroke-width:0.8;" x="72" xlink:href="#m71c43474b3" y="553.788617"/>
      </g>
     </g>
     <g id="text_10">
      <!-- 40 -->
      <g transform="translate(52.275 557.587836)scale(0.1 -0.1)">
       <use xlink:href="#DejaVuSans-34"/>
       <use x="63.623047" xlink:href="#DejaVuSans-30"/>
      </g>
     </g>
    </g>
    <g id="ytick_4">
     <g id="line2d_10">
      <g>
       <use style="stroke:#000000;stroke-width:0.8;" x="72" xlink:href="#m71c43474b3" y="446.202926"/>
      </g>
     </g>
     <g id="text_11">
      <!-- 60 -->
      <g transform="translate(52.275 450.002145)scale(0.1 -0.1)">
       <use xlink:href="#DejaVuSans-36"/>
       <use x="63.623047" xlink:href="#DejaVuSans-30"/>
      </g>
     </g>
    </g>
    <g id="ytick_5">
     <g id="line2d_11">
      <g>
       <use style="stroke:#000000;stroke-width:0.8;" x="72" xlink:href="#m71c43474b3" y="338.617235"/>
      </g>
     </g>
     <g id="text_12">
      <!-- 80 -->
      <g transform="translate(52.275 342.416454)scale(0.1 -0.1)">
       <use xlink:href="#DejaVuSans-38"/>
       <use x="63.623047" xlink:href="#DejaVuSans-30"/>
      </g>
     </g>
    </g>
    <g id="ytick_6">
     <g id="line2d_12">
      <g>
       <use style="stroke:#000000;stroke-width:0.8;" x="72" xlink:href="#m71c43474b3" y="231.031544"/>
      </g>
     </g>
     <g id="text_13">
      <!-- 100 -->
      <g transform="translate(45.9125 234.830762)scale(0.1 -0.1)">
       <use xlink:href="#DejaVuSans-31"/>
       <use x="63.623047" xlink:href="#DejaVuSans-30"/>
       <use x="127.246094" xlink:href="#DejaVuSans-30"/>
      </g>
     </g>
    </g>
    <g id="ytick_7">
     <g id="line2d_13">
      <g>
       <use style="stroke:#000000;stroke-width:0.8;" x="72" xlink:href="#m71c43474b3" y="123.445852"/>
      </g>
     </g>
     <g id="text_14">
      <!-- 120 -->
      <g transform="translate(45.9125 127.245071)scale(0.1 -0.1)">
       <use xlink:href="#DejaVuSans-31"/>
       <use x="63.623047" xlink:href="#DejaVuSans-32"/>
       <use x="127.246094" xlink:href="#DejaVuSans-30"/>
      </g>
     </g>
    </g>
    <g id="text_15">
     <!-- Carbon Equivilent Emissions (Mt) -->
     <g transform="translate(39.832812 518.960625)rotate(-90)scale(0.1 -0.1)">
      <defs>
       <path d="M 4122 4306 
L 4122 3641 
Q 3803 3938 3442 4084 
Q 3081 4231 2675 4231 
Q 1875 4231 1450 3742 
Q 1025 3253 1025 2328 
Q 1025 1406 1450 917 
Q 1875 428 2675 428 
Q 3081 428 3442 575 
Q 3803 722 4122 1019 
L 4122 359 
Q 3791 134 3420 21 
Q 3050 -91 2638 -91 
Q 1578 -91 968 557 
Q 359 1206 359 2328 
Q 359 3453 968 4101 
Q 1578 4750 2638 4750 
Q 3056 4750 3426 4639 
Q 3797 4528 4122 4306 
z
" id="DejaVuSans-43" transform="scale(0.015625)"/>
       <path d="M 2194 1759 
Q 1497 1759 1228 1600 
Q 959 1441 959 1056 
Q 959 750 1161 570 
Q 1363 391 1709 391 
Q 2188 391 2477 730 
Q 2766 1069 2766 1631 
L 2766 1759 
L 2194 1759 
z
M 3341 1997 
L 3341 0 
L 2766 0 
L 2766 531 
Q 2569 213 2275 61 
Q 1981 -91 1556 -91 
Q 1019 -91 701 211 
Q 384 513 384 1019 
Q 384 1609 779 1909 
Q 1175 2209 1959 2209 
L 2766 2209 
L 2766 2266 
Q 2766 2663 2505 2880 
Q 2244 3097 1772 3097 
Q 1472 3097 1187 3025 
Q 903 2953 641 2809 
L 641 3341 
Q 956 3463 1253 3523 
Q 1550 3584 1831 3584 
Q 2591 3584 2966 3190 
Q 3341 2797 3341 1997 
z
" id="DejaVuSans-61" transform="scale(0.015625)"/>
       <path d="M 3116 1747 
Q 3116 2381 2855 2742 
Q 2594 3103 2138 3103 
Q 1681 3103 1420 2742 
Q 1159 2381 1159 1747 
Q 1159 1113 1420 752 
Q 1681 391 2138 391 
Q 2594 391 2855 752 
Q 3116 1113 3116 1747 
z
M 1159 2969 
Q 1341 3281 1617 3432 
Q 1894 3584 2278 3584 
Q 2916 3584 3314 3078 
Q 3713 2572 3713 1747 
Q 3713 922 3314 415 
Q 2916 -91 2278 -91 
Q 1894 -91 1617 61 
Q 1341 213 1159 525 
L 1159 0 
L 581 0 
L 581 4863 
L 1159 4863 
L 1159 2969 
z
" id="DejaVuSans-62" transform="scale(0.015625)"/>
       <path d="M 628 4666 
L 3578 4666 
L 3578 4134 
L 1259 4134 
L 1259 2753 
L 3481 2753 
L 3481 2222 
L 1259 2222 
L 1259 531 
L 3634 531 
L 3634 0 
L 628 0 
L 628 4666 
z
" id="DejaVuSans-45" transform="scale(0.015625)"/>
       <path d="M 947 1747 
Q 947 1113 1208 752 
Q 1469 391 1925 391 
Q 2381 391 2643 752 
Q 2906 1113 2906 1747 
Q 2906 2381 2643 2742 
Q 2381 3103 1925 3103 
Q 1469 3103 1208 2742 
Q 947 2381 947 1747 
z
M 2906 525 
Q 2725 213 2448 61 
Q 2172 -91 1784 -91 
Q 1150 -91 751 415 
Q 353 922 353 1747 
Q 353 2572 751 3078 
Q 1150 3584 1784 3584 
Q 2172 3584 2448 3432 
Q 2725 3281 2906 2969 
L 2906 3500 
L 3481 3500 
L 3481 -1331 
L 2906 -1331 
L 2906 525 
z
" id="DejaVuSans-71" transform="scale(0.015625)"/>
       <path d="M 544 1381 
L 544 3500 
L 1119 3500 
L 1119 1403 
Q 1119 906 1312 657 
Q 1506 409 1894 409 
Q 2359 409 2629 706 
Q 2900 1003 2900 1516 
L 2900 3500 
L 3475 3500 
L 3475 0 
L 2900 0 
L 2900 538 
Q 2691 219 2414 64 
Q 2138 -91 1772 -91 
Q 1169 -91 856 284 
Q 544 659 544 1381 
z
M 1991 3584 
L 1991 3584 
z
" id="DejaVuSans-75" transform="scale(0.015625)"/>
       <path d="M 191 3500 
L 800 3500 
L 1894 563 
L 2988 3500 
L 3597 3500 
L 2284 0 
L 1503 0 
L 191 3500 
z
" id="DejaVuSans-76" transform="scale(0.015625)"/>
       <path d="M 3328 2828 
Q 3544 3216 3844 3400 
Q 4144 3584 4550 3584 
Q 5097 3584 5394 3201 
Q 5691 2819 5691 2113 
L 5691 0 
L 5113 0 
L 5113 2094 
Q 5113 2597 4934 2840 
Q 4756 3084 4391 3084 
Q 3944 3084 3684 2787 
Q 3425 2491 3425 1978 
L 3425 0 
L 2847 0 
L 2847 2094 
Q 2847 2600 2669 2842 
Q 2491 3084 2119 3084 
Q 1678 3084 1418 2786 
Q 1159 2488 1159 1978 
L 1159 0 
L 581 0 
L 581 3500 
L 1159 3500 
L 1159 2956 
Q 1356 3278 1631 3431 
Q 1906 3584 2284 3584 
Q 2666 3584 2933 3390 
Q 3200 3197 3328 2828 
z
" id="DejaVuSans-6d" transform="scale(0.015625)"/>
       <path d="M 2834 3397 
L 2834 2853 
Q 2591 2978 2328 3040 
Q 2066 3103 1784 3103 
Q 1356 3103 1142 2972 
Q 928 2841 928 2578 
Q 928 2378 1081 2264 
Q 1234 2150 1697 2047 
L 1894 2003 
Q 2506 1872 2764 1633 
Q 3022 1394 3022 966 
Q 3022 478 2636 193 
Q 2250 -91 1575 -91 
Q 1294 -91 989 -36 
Q 684 19 347 128 
L 347 722 
Q 666 556 975 473 
Q 1284 391 1588 391 
Q 1994 391 2212 530 
Q 2431 669 2431 922 
Q 2431 1156 2273 1281 
Q 2116 1406 1581 1522 
L 1381 1569 
Q 847 1681 609 1914 
Q 372 2147 372 2553 
Q 372 3047 722 3315 
Q 1072 3584 1716 3584 
Q 2034 3584 2315 3537 
Q 2597 3491 2834 3397 
z
" id="DejaVuSans-73" transform="scale(0.015625)"/>
       <path d="M 628 4666 
L 1569 4666 
L 2759 1491 
L 3956 4666 
L 4897 4666 
L 4897 0 
L 4281 0 
L 4281 4097 
L 3078 897 
L 2444 897 
L 1241 4097 
L 1241 0 
L 628 0 
L 628 4666 
z
" id="DejaVuSans-4d" transform="scale(0.015625)"/>
      </defs>
      <use xlink:href="#DejaVuSans-43"/>
      <use x="69.824219" xlink:href="#DejaVuSans-61"/>
      <use x="131.103516" xlink:href="#DejaVuSans-72"/>
      <use x="172.216797" xlink:href="#DejaVuSans-62"/>
      <use x="235.693359" xlink:href="#DejaVuSans-6f"/>
      <use x="296.875" xlink:href="#DejaVuSans-6e"/>
      <use x="360.253906" xlink:href="#DejaVuSans-20"/>
      <use x="392.041016" xlink:href="#DejaVuSans-45"/>
      <use x="455.224609" xlink:href="#DejaVuSans-71"/>
      <use x="518.701172" xlink:href="#DejaVuSans-75"/>
      <use x="582.080078" xlink:href="#DejaVuSans-69"/>
      <use x="609.863281" xlink:href="#DejaVuSans-76"/>
      <use x="669.042969" xlink:href="#DejaVuSans-69"/>
      <use x="696.826172" xlink:href="#DejaVuSans-6c"/>
      <use x="724.609375" xlink:href="#DejaVuSans-65"/>
      <use x="786.132812" xlink:href="#DejaVuSans-6e"/>
      <use x="849.511719" xlink:href="#DejaVuSans-74"/>
      <use x="888.720703" xlink:href="#DejaVuSans-20"/>
      <use x="920.507812" xlink:href="#DejaVuSans-45"/>
      <use x="983.691406" xlink:href="#DejaVuSans-6d"/>
      <use x="1081.103516" xlink:href="#DejaVuSans-69"/>
      <use x="1108.886719" xlink:href="#DejaVuSans-73"/>
      <use x="1160.986328" xlink:href="#DejaVuSans-73"/>
      <use x="1213.085938" xlink:href="#DejaVuSans-69"/>
      <use x="1240.869141" xlink:href="#DejaVuSans-6f"/>
      <use x="1302.050781" xlink:href="#DejaVuSans-6e"/>
      <use x="1365.429688" xlink:href="#DejaVuSans-73"/>
      <use x="1417.529297" xlink:href="#DejaVuSans-20"/>
      <use x="1449.316406" xlink:href="#DejaVuSans-28"/>
      <use x="1488.330078" xlink:href="#DejaVuSans-4d"/>
      <use x="1574.609375" xlink:href="#DejaVuSans-74"/>
      <use x="1613.818359" xlink:href="#DejaVuSans-29"/>
     </g>
    </g>
   </g>
   <g id="patch_3">
    <path d="M 72 768.96 
L 72 103.68 
" style="fill:none;stroke:#000000;stroke-linecap:square;stroke-linejoin:miter;stroke-width:0.8;"/>
   </g>
   <g id="patch_4">
    <path d="M 518.4 768.96 
L 518.4 103.68 
" style="fill:none;stroke:#000000;stroke-linecap:square;stroke-linejoin:miter;stroke-width:0.8;"/>
   </g>
   <g id="patch_5">
    <path d="M 72 768.96 
L 518.4 768.96 
" style="fill:none;stroke:#000000;stroke-linecap:square;stroke-linejoin:miter;stroke-width:0.8;"/>
   </g>
   <g id="patch_6">
    <path d="M 72 103.68 
L 518.4 103.68 
" style="fill:none;stroke:#000000;stroke-linecap:square;stroke-linejoin:miter;stroke-width:0.8;"/>
   </g>
  </g>
 </g>
 <defs>
  <clipPath id="p834a5f00e8">
   <rect height="665.28" width="446.4" x="72" y="103.68"/>
  </clipPath>
 </defs>
</svg>
