<?xml version="1.0" encoding="utf-8" standalone="no"?>
<!DOCTYPE svg PUBLIC "-//W3C//DTD SVG 1.1//EN"
  "http://www.w3.org/Graphics/SVG/1.1/DTD/svg11.dtd">
<svg height="864pt" version="1.1" viewBox="0 0 576 864" width="576pt" xmlns="http://www.w3.org/2000/svg" xmlns:xlink="http://www.w3.org/1999/xlink">
 <metadata>
  <rdf:RDF xmlns:cc="http://creativecommons.org/ns#" xmlns:dc="http://purl.org/dc/elements/1.1/" xmlns:rdf="http://www.w3.org/1999/02/22-rdf-syntax-ns#">
   <cc:Work>
    <dc:type rdf:resource="http://purl.org/dc/dcmitype/StillImage"/>
    <dc:date>2021-06-15T14:48:58.891741</dc:date>
    <dc:format>image/svg+xml</dc:format>
    <dc:creator>
     <cc:Agent>
      <dc:title>Matplotlib v3.4.1, https://matplotlib.org/</dc:title>
     </cc:Agent>
    </dc:creator>
   </cc:Work>
  </rdf:RDF>
 </metadata>
 <defs>
  <style type="text/css">*{stroke-linecap:butt;stroke-linejoin:round;}</style>
 </defs>
 <g id="figure_1">
  <g id="patch_1">
   <path d="M 0 864 
L 576 864 
L 576 0 
L 0 0 
z
" style="fill:#ffffff;"/>
  </g>
  <g id="axes_1">
   <g id="patch_2">
    <path d="M 72 768.96 
L 518.4 768.96 
L 518.4 103.68 
L 72 103.68 
z
" style="fill:#ffffff;"/>
   </g>
   <g id="PolyCollection_1">
    <path clip-path="url(#pe4a8a0efcb)" d="M 92.290909 535.456073 
L 92.290909 768.96 
L 96.390083 768.96 
L 100.489256 768.96 
L 104.58843 768.96 
L 108.687603 768.96 
L 112.786777 768.96 
L 116.88595 768.96 
L 120.985124 768.96 
L 125.084298 768.96 
L 129.183471 768.96 
L 133.282645 768.96 
L 137.381818 768.96 
L 141.480992 768.96 
L 145.580165 768.96 
L 149.679339 768.96 
L 153.778512 768.96 
L 157.877686 768.96 
L 161.97686 768.96 
L 166.076033 768.96 
L 170.175207 768.96 
L 174.27438 768.96 
L 178.373554 768.96 
L 182.472727 768.96 
L 186.571901 768.96 
L 190.671074 768.96 
L 194.770248 768.96 
L 198.869421 768.96 
L 202.968595 768.96 
L 207.067769 768.96 
L 211.166942 768.96 
L 215.266116 768.96 
L 219.365289 768.96 
L 223.464463 768.96 
L 227.563636 768.96 
L 231.66281 768.96 
L 235.761983 768.96 
L 239.861157 768.96 
L 243.960331 768.96 
L 248.059504 768.96 
L 252.158678 768.96 
L 256.257851 768.96 
L 260.357025 768.96 
L 264.456198 768.96 
L 268.555372 768.96 
L 272.654545 768.96 
L 276.753719 768.96 
L 280.852893 768.96 
L 284.952066 768.96 
L 289.05124 768.96 
L 293.150413 768.96 
L 297.249587 768.96 
L 301.34876 768.96 
L 305.447934 768.96 
L 309.547107 768.96 
L 313.646281 768.96 
L 317.745455 768.96 
L 321.844628 768.96 
L 325.943802 768.96 
L 330.042975 768.96 
L 334.142149 768.96 
L 338.241322 768.96 
L 342.340496 768.96 
L 346.439669 768.96 
L 350.538843 768.96 
L 354.638017 768.96 
L 358.73719 768.96 
L 362.836364 768.96 
L 366.935537 768.96 
L 371.034711 768.96 
L 375.133884 768.96 
L 379.233058 768.96 
L 383.332231 768.96 
L 387.431405 768.96 
L 391.530579 768.96 
L 395.629752 768.96 
L 399.728926 768.96 
L 403.828099 768.96 
L 407.927273 768.96 
L 412.026446 768.96 
L 416.12562 768.96 
L 420.224793 768.96 
L 424.323967 768.96 
L 428.42314 768.96 
L 432.522314 768.96 
L 436.621488 768.96 
L 440.720661 768.96 
L 444.819835 768.96 
L 448.919008 768.96 
L 453.018182 768.96 
L 457.117355 768.96 
L 461.216529 768.96 
L 465.315702 768.96 
L 469.414876 768.96 
L 473.51405 768.96 
L 477.613223 768.96 
L 481.712397 768.96 
L 485.81157 768.96 
L 489.910744 768.96 
L 494.009917 768.96 
L 498.109091 768.96 
L 498.109091 540.668496 
L 498.109091 540.668496 
L 494.009917 540.615845 
L 489.910744 540.563195 
L 485.81157 540.510544 
L 481.712397 540.457893 
L 477.613223 540.405242 
L 473.51405 540.352592 
L 469.414876 540.299941 
L 465.315702 540.24729 
L 461.216529 540.194639 
L 457.117355 540.141989 
L 453.018182 540.089338 
L 448.919008 540.036687 
L 444.819835 539.984036 
L 440.720661 539.931386 
L 436.621488 539.878735 
L 432.522314 539.826084 
L 428.42314 539.773433 
L 424.323967 539.720783 
L 420.224793 539.668132 
L 416.12562 539.615481 
L 412.026446 539.56283 
L 407.927273 539.51018 
L 403.828099 539.457529 
L 399.728926 539.404878 
L 395.629752 539.352228 
L 391.530579 539.299577 
L 387.431405 539.246926 
L 383.332231 539.194275 
L 379.233058 539.141625 
L 375.133884 539.088974 
L 371.034711 539.036323 
L 366.935537 538.983672 
L 362.836364 538.931022 
L 358.73719 538.878371 
L 354.638017 538.82572 
L 350.538843 538.773069 
L 346.439669 538.720419 
L 342.340496 538.667768 
L 338.241322 538.615117 
L 334.142149 538.562466 
L 330.042975 538.509816 
L 325.943802 538.457165 
L 321.844628 538.404514 
L 317.745455 538.351863 
L 313.646281 538.299213 
L 309.547107 538.246562 
L 305.447934 538.193911 
L 301.34876 538.14126 
L 297.249587 538.08861 
L 293.150413 538.035959 
L 289.05124 537.983308 
L 284.952066 537.930657 
L 280.852893 537.878007 
L 276.753719 537.825356 
L 272.654545 537.772705 
L 268.555372 537.720054 
L 264.456198 537.667404 
L 260.357025 537.614753 
L 256.257851 537.562102 
L 252.158678 537.509452 
L 248.059504 537.456801 
L 243.960331 537.40415 
L 239.861157 537.351499 
L 235.761983 537.298849 
L 231.66281 537.246198 
L 227.563636 537.193547 
L 223.464463 537.140896 
L 219.365289 537.088246 
L 215.266116 537.035595 
L 211.166942 536.982944 
L 207.067769 536.930293 
L 202.968595 536.877643 
L 198.869421 536.824992 
L 194.770248 536.772341 
L 190.671074 536.71969 
L 186.571901 536.66704 
L 182.472727 536.614389 
L 178.373554 536.561738 
L 174.27438 536.509087 
L 170.175207 536.456437 
L 166.076033 536.403786 
L 161.97686 536.351135 
L 157.877686 536.298484 
L 153.778512 536.245834 
L 149.679339 536.193183 
L 145.580165 536.140532 
L 141.480992 536.087881 
L 137.381818 536.035231 
L 133.282645 535.98258 
L 129.183471 535.929929 
L 125.084298 535.877278 
L 120.985124 535.824628 
L 116.88595 535.771977 
L 112.786777 535.719326 
L 108.687603 535.666675 
L 104.58843 535.614025 
L 100.489256 535.561374 
L 96.390083 535.508723 
L 92.290909 535.456073 
z
" style="fill:#3182bd;"/>
   </g>
   <g id="PolyCollection_2">
    <path clip-path="url(#pe4a8a0efcb)" d="M 92.290909 145.176622 
L 92.290909 535.456073 
L 96.390083 535.508723 
L 100.489256 535.561374 
L 104.58843 535.614025 
L 108.687603 535.666675 
L 112.786777 535.719326 
L 116.88595 535.771977 
L 120.985124 535.824628 
L 125.084298 535.877278 
L 129.183471 535.929929 
L 133.282645 535.98258 
L 137.381818 536.035231 
L 141.480992 536.087881 
L 145.580165 536.140532 
L 149.679339 536.193183 
L 153.778512 536.245834 
L 157.877686 536.298484 
L 161.97686 536.351135 
L 166.076033 536.403786 
L 170.175207 536.456437 
L 174.27438 536.509087 
L 178.373554 536.561738 
L 182.472727 536.614389 
L 186.571901 536.66704 
L 190.671074 536.71969 
L 194.770248 536.772341 
L 198.869421 536.824992 
L 202.968595 536.877643 
L 207.067769 536.930293 
L 211.166942 536.982944 
L 215.266116 537.035595 
L 219.365289 537.088246 
L 223.464463 537.140896 
L 227.563636 537.193547 
L 231.66281 537.246198 
L 235.761983 537.298849 
L 239.861157 537.351499 
L 243.960331 537.40415 
L 248.059504 537.456801 
L 252.158678 537.509452 
L 256.257851 537.562102 
L 260.357025 537.614753 
L 264.456198 537.667404 
L 268.555372 537.720054 
L 272.654545 537.772705 
L 276.753719 537.825356 
L 280.852893 537.878007 
L 284.952066 537.930657 
L 289.05124 537.983308 
L 293.150413 538.035959 
L 297.249587 538.08861 
L 301.34876 538.14126 
L 305.447934 538.193911 
L 309.547107 538.246562 
L 313.646281 538.299213 
L 317.745455 538.351863 
L 321.844628 538.404514 
L 325.943802 538.457165 
L 330.042975 538.509816 
L 334.142149 538.562466 
L 338.241322 538.615117 
L 342.340496 538.667768 
L 346.439669 538.720419 
L 350.538843 538.773069 
L 354.638017 538.82572 
L 358.73719 538.878371 
L 362.836364 538.931022 
L 366.935537 538.983672 
L 371.034711 539.036323 
L 375.133884 539.088974 
L 379.233058 539.141625 
L 383.332231 539.194275 
L 387.431405 539.246926 
L 391.530579 539.299577 
L 395.629752 539.352228 
L 399.728926 539.404878 
L 403.828099 539.457529 
L 407.927273 539.51018 
L 412.026446 539.56283 
L 416.12562 539.615481 
L 420.224793 539.668132 
L 424.323967 539.720783 
L 428.42314 539.773433 
L 432.522314 539.826084 
L 436.621488 539.878735 
L 440.720661 539.931386 
L 444.819835 539.984036 
L 448.919008 540.036687 
L 453.018182 540.089338 
L 457.117355 540.141989 
L 461.216529 540.194639 
L 465.315702 540.24729 
L 469.414876 540.299941 
L 473.51405 540.352592 
L 477.613223 540.405242 
L 481.712397 540.457893 
L 485.81157 540.510544 
L 489.910744 540.563195 
L 494.009917 540.615845 
L 498.109091 540.668496 
L 498.109091 150.389046 
L 498.109091 150.389046 
L 494.009917 150.336395 
L 489.910744 150.283744 
L 485.81157 150.231094 
L 481.712397 150.178443 
L 477.613223 150.125792 
L 473.51405 150.073141 
L 469.414876 150.020491 
L 465.315702 149.96784 
L 461.216529 149.915189 
L 457.117355 149.862538 
L 453.018182 149.809888 
L 448.919008 149.757237 
L 444.819835 149.704586 
L 440.720661 149.651935 
L 436.621488 149.599285 
L 432.522314 149.546634 
L 428.42314 149.493983 
L 424.323967 149.441333 
L 420.224793 149.388682 
L 416.12562 149.336031 
L 412.026446 149.28338 
L 407.927273 149.23073 
L 403.828099 149.178079 
L 399.728926 149.125428 
L 395.629752 149.072777 
L 391.530579 149.020127 
L 387.431405 148.967476 
L 383.332231 148.914825 
L 379.233058 148.862174 
L 375.133884 148.809524 
L 371.034711 148.756873 
L 366.935537 148.704222 
L 362.836364 148.651571 
L 358.73719 148.598921 
L 354.638017 148.54627 
L 350.538843 148.493619 
L 346.439669 148.440968 
L 342.340496 148.388318 
L 338.241322 148.335667 
L 334.142149 148.283016 
L 330.042975 148.230365 
L 325.943802 148.177715 
L 321.844628 148.125064 
L 317.745455 148.072413 
L 313.646281 148.019762 
L 309.547107 147.967112 
L 305.447934 147.914461 
L 301.34876 147.86181 
L 297.249587 147.809159 
L 293.150413 147.756509 
L 289.05124 147.703858 
L 284.952066 147.651207 
L 280.852893 147.598556 
L 276.753719 147.545906 
L 272.654545 147.493255 
L 268.555372 147.440604 
L 264.456198 147.387954 
L 260.357025 147.335303 
L 256.257851 147.282652 
L 252.158678 147.230001 
L 248.059504 147.177351 
L 243.960331 147.1247 
L 239.861157 147.072049 
L 235.761983 147.019398 
L 231.66281 146.966748 
L 227.563636 146.914097 
L 223.464463 146.861446 
L 219.365289 146.808795 
L 215.266116 146.756145 
L 211.166942 146.703494 
L 207.067769 146.650843 
L 202.968595 146.598192 
L 198.869421 146.545542 
L 194.770248 146.492891 
L 190.671074 146.44024 
L 186.571901 146.387589 
L 182.472727 146.334939 
L 178.373554 146.282288 
L 174.27438 146.229637 
L 170.175207 146.176986 
L 166.076033 146.124336 
L 161.97686 146.071685 
L 157.877686 146.019034 
L 153.778512 145.966383 
L 149.679339 145.913733 
L 145.580165 145.861082 
L 141.480992 145.808431 
L 137.381818 145.75578 
L 133.282645 145.70313 
L 129.183471 145.650479 
L 125.084298 145.597828 
L 120.985124 145.545178 
L 116.88595 145.492527 
L 112.786777 145.439876 
L 108.687603 145.387225 
L 104.58843 145.334575 
L 100.489256 145.281924 
L 96.390083 145.229273 
L 92.290909 145.176622 
z
" style="fill:#6baed6;"/>
   </g>
   <g id="PolyCollection_3">
    <path clip-path="url(#pe4a8a0efcb)" d="M 92.290909 144.999903 
L 92.290909 145.176622 
L 96.390083 145.229273 
L 100.489256 145.281924 
L 104.58843 145.334575 
L 108.687603 145.387225 
L 112.786777 145.439876 
L 116.88595 145.492527 
L 120.985124 145.545178 
L 125.084298 145.597828 
L 129.183471 145.650479 
L 133.282645 145.70313 
L 137.381818 145.75578 
L 141.480992 145.808431 
L 145.580165 145.861082 
L 149.679339 145.913733 
L 153.778512 145.966383 
L 157.877686 146.019034 
L 161.97686 146.071685 
L 166.076033 146.124336 
L 170.175207 146.176986 
L 174.27438 146.229637 
L 178.373554 146.282288 
L 182.472727 146.334939 
L 186.571901 146.387589 
L 190.671074 146.44024 
L 194.770248 146.492891 
L 198.869421 146.545542 
L 202.968595 146.598192 
L 207.067769 146.650843 
L 211.166942 146.703494 
L 215.266116 146.756145 
L 219.365289 146.808795 
L 223.464463 146.861446 
L 227.563636 146.914097 
L 231.66281 146.966748 
L 235.761983 147.019398 
L 239.861157 147.072049 
L 243.960331 147.1247 
L 248.059504 147.177351 
L 252.158678 147.230001 
L 256.257851 147.282652 
L 260.357025 147.335303 
L 264.456198 147.387954 
L 268.555372 147.440604 
L 272.654545 147.493255 
L 276.753719 147.545906 
L 280.852893 147.598556 
L 284.952066 147.651207 
L 289.05124 147.703858 
L 293.150413 147.756509 
L 297.249587 147.809159 
L 301.34876 147.86181 
L 305.447934 147.914461 
L 309.547107 147.967112 
L 313.646281 148.019762 
L 317.745455 148.072413 
L 321.844628 148.125064 
L 325.943802 148.177715 
L 330.042975 148.230365 
L 334.142149 148.283016 
L 338.241322 148.335667 
L 342.340496 148.388318 
L 346.439669 148.440968 
L 350.538843 148.493619 
L 354.638017 148.54627 
L 358.73719 148.598921 
L 362.836364 148.651571 
L 366.935537 148.704222 
L 371.034711 148.756873 
L 375.133884 148.809524 
L 379.233058 148.862174 
L 383.332231 148.914825 
L 387.431405 148.967476 
L 391.530579 149.020127 
L 395.629752 149.072777 
L 399.728926 149.125428 
L 403.828099 149.178079 
L 407.927273 149.23073 
L 412.026446 149.28338 
L 416.12562 149.336031 
L 420.224793 149.388682 
L 424.323967 149.441333 
L 428.42314 149.493983 
L 432.522314 149.546634 
L 436.621488 149.599285 
L 440.720661 149.651935 
L 444.819835 149.704586 
L 448.919008 149.757237 
L 453.018182 149.809888 
L 457.117355 149.862538 
L 461.216529 149.915189 
L 465.315702 149.96784 
L 469.414876 150.020491 
L 473.51405 150.073141 
L 477.613223 150.125792 
L 481.712397 150.178443 
L 485.81157 150.231094 
L 489.910744 150.283744 
L 494.009917 150.336395 
L 498.109091 150.389046 
L 498.109091 150.212327 
L 498.109091 150.212327 
L 494.009917 150.159676 
L 489.910744 150.107025 
L 485.81157 150.054375 
L 481.712397 150.001724 
L 477.613223 149.949073 
L 473.51405 149.896422 
L 469.414876 149.843772 
L 465.315702 149.791121 
L 461.216529 149.73847 
L 457.117355 149.685819 
L 453.018182 149.633169 
L 448.919008 149.580518 
L 444.819835 149.527867 
L 440.720661 149.475216 
L 436.621488 149.422566 
L 432.522314 149.369915 
L 428.42314 149.317264 
L 424.323967 149.264613 
L 420.224793 149.211963 
L 416.12562 149.159312 
L 412.026446 149.106661 
L 407.927273 149.05401 
L 403.828099 149.00136 
L 399.728926 148.948709 
L 395.629752 148.896058 
L 391.530579 148.843407 
L 387.431405 148.790757 
L 383.332231 148.738106 
L 379.233058 148.685455 
L 375.133884 148.632804 
L 371.034711 148.580154 
L 366.935537 148.527503 
L 362.836364 148.474852 
L 358.73719 148.422202 
L 354.638017 148.369551 
L 350.538843 148.3169 
L 346.439669 148.264249 
L 342.340496 148.211599 
L 338.241322 148.158948 
L 334.142149 148.106297 
L 330.042975 148.053646 
L 325.943802 148.000996 
L 321.844628 147.948345 
L 317.745455 147.895694 
L 313.646281 147.843043 
L 309.547107 147.790393 
L 305.447934 147.737742 
L 301.34876 147.685091 
L 297.249587 147.63244 
L 293.150413 147.57979 
L 289.05124 147.527139 
L 284.952066 147.474488 
L 280.852893 147.421837 
L 276.753719 147.369187 
L 272.654545 147.316536 
L 268.555372 147.263885 
L 264.456198 147.211234 
L 260.357025 147.158584 
L 256.257851 147.105933 
L 252.158678 147.053282 
L 248.059504 147.000631 
L 243.960331 146.947981 
L 239.861157 146.89533 
L 235.761983 146.842679 
L 231.66281 146.790028 
L 227.563636 146.737378 
L 223.464463 146.684727 
L 219.365289 146.632076 
L 215.266116 146.579426 
L 211.166942 146.526775 
L 207.067769 146.474124 
L 202.968595 146.421473 
L 198.869421 146.368823 
L 194.770248 146.316172 
L 190.671074 146.263521 
L 186.571901 146.21087 
L 182.472727 146.15822 
L 178.373554 146.105569 
L 174.27438 146.052918 
L 170.175207 146.000267 
L 166.076033 145.947617 
L 161.97686 145.894966 
L 157.877686 145.842315 
L 153.778512 145.789664 
L 149.679339 145.737014 
L 145.580165 145.684363 
L 141.480992 145.631712 
L 137.381818 145.579061 
L 133.282645 145.526411 
L 129.183471 145.47376 
L 125.084298 145.421109 
L 120.985124 145.368458 
L 116.88595 145.315808 
L 112.786777 145.263157 
L 108.687603 145.210506 
L 104.58843 145.157855 
L 100.489256 145.105205 
L 96.390083 145.052554 
L 92.290909 144.999903 
z
" style="fill:#9ecae1;"/>
   </g>
   <g id="PolyCollection_4">
    <path clip-path="url(#pe4a8a0efcb)" d="M 92.290909 144.785284 
L 92.290909 144.999903 
L 96.390083 145.052554 
L 100.489256 145.105205 
L 104.58843 145.157855 
L 108.687603 145.210506 
L 112.786777 145.263157 
L 116.88595 145.315808 
L 120.985124 145.368458 
L 125.084298 145.421109 
L 129.183471 145.47376 
L 133.282645 145.526411 
L 137.381818 145.579061 
L 141.480992 145.631712 
L 145.580165 145.684363 
L 149.679339 145.737014 
L 153.778512 145.789664 
L 157.877686 145.842315 
L 161.97686 145.894966 
L 166.076033 145.947617 
L 170.175207 146.000267 
L 174.27438 146.052918 
L 178.373554 146.105569 
L 182.472727 146.15822 
L 186.571901 146.21087 
L 190.671074 146.263521 
L 194.770248 146.316172 
L 198.869421 146.368823 
L 202.968595 146.421473 
L 207.067769 146.474124 
L 211.166942 146.526775 
L 215.266116 146.579426 
L 219.365289 146.632076 
L 223.464463 146.684727 
L 227.563636 146.737378 
L 231.66281 146.790028 
L 235.761983 146.842679 
L 239.861157 146.89533 
L 243.960331 146.947981 
L 248.059504 147.000631 
L 252.158678 147.053282 
L 256.257851 147.105933 
L 260.357025 147.158584 
L 264.456198 147.211234 
L 268.555372 147.263885 
L 272.654545 147.316536 
L 276.753719 147.369187 
L 280.852893 147.421837 
L 284.952066 147.474488 
L 289.05124 147.527139 
L 293.150413 147.57979 
L 297.249587 147.63244 
L 301.34876 147.685091 
L 305.447934 147.737742 
L 309.547107 147.790393 
L 313.646281 147.843043 
L 317.745455 147.895694 
L 321.844628 147.948345 
L 325.943802 148.000996 
L 330.042975 148.053646 
L 334.142149 148.106297 
L 338.241322 148.158948 
L 342.340496 148.211599 
L 346.439669 148.264249 
L 350.538843 148.3169 
L 354.638017 148.369551 
L 358.73719 148.422202 
L 362.836364 148.474852 
L 366.935537 148.527503 
L 371.034711 148.580154 
L 375.133884 148.632804 
L 379.233058 148.685455 
L 383.332231 148.738106 
L 387.431405 148.790757 
L 391.530579 148.843407 
L 395.629752 148.896058 
L 399.728926 148.948709 
L 403.828099 149.00136 
L 407.927273 149.05401 
L 412.026446 149.106661 
L 416.12562 149.159312 
L 420.224793 149.211963 
L 424.323967 149.264613 
L 428.42314 149.317264 
L 432.522314 149.369915 
L 436.621488 149.422566 
L 440.720661 149.475216 
L 444.819835 149.527867 
L 448.919008 149.580518 
L 453.018182 149.633169 
L 457.117355 149.685819 
L 461.216529 149.73847 
L 465.315702 149.791121 
L 469.414876 149.843772 
L 473.51405 149.896422 
L 477.613223 149.949073 
L 481.712397 150.001724 
L 485.81157 150.054375 
L 489.910744 150.107025 
L 494.009917 150.159676 
L 498.109091 150.212327 
L 498.109091 149.997707 
L 498.109091 149.997707 
L 494.009917 149.945056 
L 489.910744 149.892406 
L 485.81157 149.839755 
L 481.712397 149.787104 
L 477.613223 149.734453 
L 473.51405 149.681803 
L 469.414876 149.629152 
L 465.315702 149.576501 
L 461.216529 149.52385 
L 457.117355 149.4712 
L 453.018182 149.418549 
L 448.919008 149.365898 
L 444.819835 149.313247 
L 440.720661 149.260597 
L 436.621488 149.207946 
L 432.522314 149.155295 
L 428.42314 149.102644 
L 424.323967 149.049994 
L 420.224793 148.997343 
L 416.12562 148.944692 
L 412.026446 148.892042 
L 407.927273 148.839391 
L 403.828099 148.78674 
L 399.728926 148.734089 
L 395.629752 148.681439 
L 391.530579 148.628788 
L 387.431405 148.576137 
L 383.332231 148.523486 
L 379.233058 148.470836 
L 375.133884 148.418185 
L 371.034711 148.365534 
L 366.935537 148.312883 
L 362.836364 148.260233 
L 358.73719 148.207582 
L 354.638017 148.154931 
L 350.538843 148.10228 
L 346.439669 148.04963 
L 342.340496 147.996979 
L 338.241322 147.944328 
L 334.142149 147.891677 
L 330.042975 147.839027 
L 325.943802 147.786376 
L 321.844628 147.733725 
L 317.745455 147.681074 
L 313.646281 147.628424 
L 309.547107 147.575773 
L 305.447934 147.523122 
L 301.34876 147.470471 
L 297.249587 147.417821 
L 293.150413 147.36517 
L 289.05124 147.312519 
L 284.952066 147.259868 
L 280.852893 147.207218 
L 276.753719 147.154567 
L 272.654545 147.101916 
L 268.555372 147.049266 
L 264.456198 146.996615 
L 260.357025 146.943964 
L 256.257851 146.891313 
L 252.158678 146.838663 
L 248.059504 146.786012 
L 243.960331 146.733361 
L 239.861157 146.68071 
L 235.761983 146.62806 
L 231.66281 146.575409 
L 227.563636 146.522758 
L 223.464463 146.470107 
L 219.365289 146.417457 
L 215.266116 146.364806 
L 211.166942 146.312155 
L 207.067769 146.259504 
L 202.968595 146.206854 
L 198.869421 146.154203 
L 194.770248 146.101552 
L 190.671074 146.048901 
L 186.571901 145.996251 
L 182.472727 145.9436 
L 178.373554 145.890949 
L 174.27438 145.838298 
L 170.175207 145.785648 
L 166.076033 145.732997 
L 161.97686 145.680346 
L 157.877686 145.627695 
L 153.778512 145.575045 
L 149.679339 145.522394 
L 145.580165 145.469743 
L 141.480992 145.417092 
L 137.381818 145.364442 
L 133.282645 145.311791 
L 129.183471 145.25914 
L 125.084298 145.206489 
L 120.985124 145.153839 
L 116.88595 145.101188 
L 112.786777 145.048537 
L 108.687603 144.995887 
L 104.58843 144.943236 
L 100.489256 144.890585 
L 96.390083 144.837934 
L 92.290909 144.785284 
z
" style="fill:#c6dbef;"/>
   </g>
   <g id="PolyCollection_5">
    <path clip-path="url(#pe4a8a0efcb)" d="M 92.290909 144.070778 
L 92.290909 144.785284 
L 96.390083 144.837934 
L 100.489256 144.890585 
L 104.58843 144.943236 
L 108.687603 144.995887 
L 112.786777 145.048537 
L 116.88595 145.101188 
L 120.985124 145.153839 
L 125.084298 145.206489 
L 129.183471 145.25914 
L 133.282645 145.311791 
L 137.381818 145.364442 
L 141.480992 145.417092 
L 145.580165 145.469743 
L 149.679339 145.522394 
L 153.778512 145.575045 
L 157.877686 145.627695 
L 161.97686 145.680346 
L 166.076033 145.732997 
L 170.175207 145.785648 
L 174.27438 145.838298 
L 178.373554 145.890949 
L 182.472727 145.9436 
L 186.571901 145.996251 
L 190.671074 146.048901 
L 194.770248 146.101552 
L 198.869421 146.154203 
L 202.968595 146.206854 
L 207.067769 146.259504 
L 211.166942 146.312155 
L 215.266116 146.364806 
L 219.365289 146.417457 
L 223.464463 146.470107 
L 227.563636 146.522758 
L 231.66281 146.575409 
L 235.761983 146.62806 
L 239.861157 146.68071 
L 243.960331 146.733361 
L 248.059504 146.786012 
L 252.158678 146.838663 
L 256.257851 146.891313 
L 260.357025 146.943964 
L 264.456198 146.996615 
L 268.555372 147.049266 
L 272.654545 147.101916 
L 276.753719 147.154567 
L 280.852893 147.207218 
L 284.952066 147.259868 
L 289.05124 147.312519 
L 293.150413 147.36517 
L 297.249587 147.417821 
L 301.34876 147.470471 
L 305.447934 147.523122 
L 309.547107 147.575773 
L 313.646281 147.628424 
L 317.745455 147.681074 
L 321.844628 147.733725 
L 325.943802 147.786376 
L 330.042975 147.839027 
L 334.142149 147.891677 
L 338.241322 147.944328 
L 342.340496 147.996979 
L 346.439669 148.04963 
L 350.538843 148.10228 
L 354.638017 148.154931 
L 358.73719 148.207582 
L 362.836364 148.260233 
L 366.935537 148.312883 
L 371.034711 148.365534 
L 375.133884 148.418185 
L 379.233058 148.470836 
L 383.332231 148.523486 
L 387.431405 148.576137 
L 391.530579 148.628788 
L 395.629752 148.681439 
L 399.728926 148.734089 
L 403.828099 148.78674 
L 407.927273 148.839391 
L 412.026446 148.892042 
L 416.12562 148.944692 
L 420.224793 148.997343 
L 424.323967 149.049994 
L 428.42314 149.102644 
L 432.522314 149.155295 
L 436.621488 149.207946 
L 440.720661 149.260597 
L 444.819835 149.313247 
L 448.919008 149.365898 
L 453.018182 149.418549 
L 457.117355 149.4712 
L 461.216529 149.52385 
L 465.315702 149.576501 
L 469.414876 149.629152 
L 473.51405 149.681803 
L 477.613223 149.734453 
L 481.712397 149.787104 
L 485.81157 149.839755 
L 489.910744 149.892406 
L 494.009917 149.945056 
L 498.109091 149.997707 
L 498.109091 149.283201 
L 498.109091 149.283201 
L 494.009917 149.230551 
L 489.910744 149.1779 
L 485.81157 149.125249 
L 481.712397 149.072598 
L 477.613223 149.019948 
L 473.51405 148.967297 
L 469.414876 148.914646 
L 465.315702 148.861996 
L 461.216529 148.809345 
L 457.117355 148.756694 
L 453.018182 148.704043 
L 448.919008 148.651393 
L 444.819835 148.598742 
L 440.720661 148.546091 
L 436.621488 148.49344 
L 432.522314 148.44079 
L 428.42314 148.388139 
L 424.323967 148.335488 
L 420.224793 148.282837 
L 416.12562 148.230187 
L 412.026446 148.177536 
L 407.927273 148.124885 
L 403.828099 148.072234 
L 399.728926 148.019584 
L 395.629752 147.966933 
L 391.530579 147.914282 
L 387.431405 147.861631 
L 383.332231 147.808981 
L 379.233058 147.75633 
L 375.133884 147.703679 
L 371.034711 147.651028 
L 366.935537 147.598378 
L 362.836364 147.545727 
L 358.73719 147.493076 
L 354.638017 147.440425 
L 350.538843 147.387775 
L 346.439669 147.335124 
L 342.340496 147.282473 
L 338.241322 147.229822 
L 334.142149 147.177172 
L 330.042975 147.124521 
L 325.943802 147.07187 
L 321.844628 147.019219 
L 317.745455 146.966569 
L 313.646281 146.913918 
L 309.547107 146.861267 
L 305.447934 146.808617 
L 301.34876 146.755966 
L 297.249587 146.703315 
L 293.150413 146.650664 
L 289.05124 146.598014 
L 284.952066 146.545363 
L 280.852893 146.492712 
L 276.753719 146.440061 
L 272.654545 146.387411 
L 268.555372 146.33476 
L 264.456198 146.282109 
L 260.357025 146.229458 
L 256.257851 146.176808 
L 252.158678 146.124157 
L 248.059504 146.071506 
L 243.960331 146.018855 
L 239.861157 145.966205 
L 235.761983 145.913554 
L 231.66281 145.860903 
L 227.563636 145.808252 
L 223.464463 145.755602 
L 219.365289 145.702951 
L 215.266116 145.6503 
L 211.166942 145.597649 
L 207.067769 145.544999 
L 202.968595 145.492348 
L 198.869421 145.439697 
L 194.770248 145.387046 
L 190.671074 145.334396 
L 186.571901 145.281745 
L 182.472727 145.229094 
L 178.373554 145.176443 
L 174.27438 145.123793 
L 170.175207 145.071142 
L 166.076033 145.018491 
L 161.97686 144.965841 
L 157.877686 144.91319 
L 153.778512 144.860539 
L 149.679339 144.807888 
L 145.580165 144.755238 
L 141.480992 144.702587 
L 137.381818 144.649936 
L 133.282645 144.597285 
L 129.183471 144.544635 
L 125.084298 144.491984 
L 120.985124 144.439333 
L 116.88595 144.386682 
L 112.786777 144.334032 
L 108.687603 144.281381 
L 104.58843 144.22873 
L 100.489256 144.176079 
L 96.390083 144.123429 
L 92.290909 144.070778 
z
" style="fill:#e6550d;"/>
   </g>
   <g id="PolyCollection_6">
    <path clip-path="url(#pe4a8a0efcb)" d="M 92.290909 143.206247 
L 92.290909 144.070778 
L 96.390083 144.123429 
L 100.489256 144.176079 
L 104.58843 144.22873 
L 108.687603 144.281381 
L 112.786777 144.334032 
L 116.88595 144.386682 
L 120.985124 144.439333 
L 125.084298 144.491984 
L 129.183471 144.544635 
L 133.282645 144.597285 
L 137.381818 144.649936 
L 141.480992 144.702587 
L 145.580165 144.755238 
L 149.679339 144.807888 
L 153.778512 144.860539 
L 157.877686 144.91319 
L 161.97686 144.965841 
L 166.076033 145.018491 
L 170.175207 145.071142 
L 174.27438 145.123793 
L 178.373554 145.176443 
L 182.472727 145.229094 
L 186.571901 145.281745 
L 190.671074 145.334396 
L 194.770248 145.387046 
L 198.869421 145.439697 
L 202.968595 145.492348 
L 207.067769 145.544999 
L 211.166942 145.597649 
L 215.266116 145.6503 
L 219.365289 145.702951 
L 223.464463 145.755602 
L 227.563636 145.808252 
L 231.66281 145.860903 
L 235.761983 145.913554 
L 239.861157 145.966205 
L 243.960331 146.018855 
L 248.059504 146.071506 
L 252.158678 146.124157 
L 256.257851 146.176808 
L 260.357025 146.229458 
L 264.456198 146.282109 
L 268.555372 146.33476 
L 272.654545 146.387411 
L 276.753719 146.440061 
L 280.852893 146.492712 
L 284.952066 146.545363 
L 289.05124 146.598014 
L 293.150413 146.650664 
L 297.249587 146.703315 
L 301.34876 146.755966 
L 305.447934 146.808617 
L 309.547107 146.861267 
L 313.646281 146.913918 
L 317.745455 146.966569 
L 321.844628 147.019219 
L 325.943802 147.07187 
L 330.042975 147.124521 
L 334.142149 147.177172 
L 338.241322 147.229822 
L 342.340496 147.282473 
L 346.439669 147.335124 
L 350.538843 147.387775 
L 354.638017 147.440425 
L 358.73719 147.493076 
L 362.836364 147.545727 
L 366.935537 147.598378 
L 371.034711 147.651028 
L 375.133884 147.703679 
L 379.233058 147.75633 
L 383.332231 147.808981 
L 387.431405 147.861631 
L 391.530579 147.914282 
L 395.629752 147.966933 
L 399.728926 148.019584 
L 403.828099 148.072234 
L 407.927273 148.124885 
L 412.026446 148.177536 
L 416.12562 148.230187 
L 420.224793 148.282837 
L 424.323967 148.335488 
L 428.42314 148.388139 
L 432.522314 148.44079 
L 436.621488 148.49344 
L 440.720661 148.546091 
L 444.819835 148.598742 
L 448.919008 148.651393 
L 453.018182 148.704043 
L 457.117355 148.756694 
L 461.216529 148.809345 
L 465.315702 148.861996 
L 469.414876 148.914646 
L 473.51405 148.967297 
L 477.613223 149.019948 
L 481.712397 149.072598 
L 485.81157 149.125249 
L 489.910744 149.1779 
L 494.009917 149.230551 
L 498.109091 149.283201 
L 498.109091 148.418671 
L 498.109091 148.418671 
L 494.009917 148.36602 
L 489.910744 148.313369 
L 485.81157 148.260718 
L 481.712397 148.208068 
L 477.613223 148.155417 
L 473.51405 148.102766 
L 469.414876 148.050115 
L 465.315702 147.997465 
L 461.216529 147.944814 
L 457.117355 147.892163 
L 453.018182 147.839512 
L 448.919008 147.786862 
L 444.819835 147.734211 
L 440.720661 147.68156 
L 436.621488 147.628909 
L 432.522314 147.576259 
L 428.42314 147.523608 
L 424.323967 147.470957 
L 420.224793 147.418306 
L 416.12562 147.365656 
L 412.026446 147.313005 
L 407.927273 147.260354 
L 403.828099 147.207703 
L 399.728926 147.155053 
L 395.629752 147.102402 
L 391.530579 147.049751 
L 387.431405 146.9971 
L 383.332231 146.94445 
L 379.233058 146.891799 
L 375.133884 146.839148 
L 371.034711 146.786497 
L 366.935537 146.733847 
L 362.836364 146.681196 
L 358.73719 146.628545 
L 354.638017 146.575895 
L 350.538843 146.523244 
L 346.439669 146.470593 
L 342.340496 146.417942 
L 338.241322 146.365292 
L 334.142149 146.312641 
L 330.042975 146.25999 
L 325.943802 146.207339 
L 321.844628 146.154689 
L 317.745455 146.102038 
L 313.646281 146.049387 
L 309.547107 145.996736 
L 305.447934 145.944086 
L 301.34876 145.891435 
L 297.249587 145.838784 
L 293.150413 145.786133 
L 289.05124 145.733483 
L 284.952066 145.680832 
L 280.852893 145.628181 
L 276.753719 145.57553 
L 272.654545 145.52288 
L 268.555372 145.470229 
L 264.456198 145.417578 
L 260.357025 145.364927 
L 256.257851 145.312277 
L 252.158678 145.259626 
L 248.059504 145.206975 
L 243.960331 145.154324 
L 239.861157 145.101674 
L 235.761983 145.049023 
L 231.66281 144.996372 
L 227.563636 144.943721 
L 223.464463 144.891071 
L 219.365289 144.83842 
L 215.266116 144.785769 
L 211.166942 144.733119 
L 207.067769 144.680468 
L 202.968595 144.627817 
L 198.869421 144.575166 
L 194.770248 144.522516 
L 190.671074 144.469865 
L 186.571901 144.417214 
L 182.472727 144.364563 
L 178.373554 144.311913 
L 174.27438 144.259262 
L 170.175207 144.206611 
L 166.076033 144.15396 
L 161.97686 144.10131 
L 157.877686 144.048659 
L 153.778512 143.996008 
L 149.679339 143.943357 
L 145.580165 143.890707 
L 141.480992 143.838056 
L 137.381818 143.785405 
L 133.282645 143.732754 
L 129.183471 143.680104 
L 125.084298 143.627453 
L 120.985124 143.574802 
L 116.88595 143.522151 
L 112.786777 143.469501 
L 108.687603 143.41685 
L 104.58843 143.364199 
L 100.489256 143.311548 
L 96.390083 143.258898 
L 92.290909 143.206247 
z
" style="fill:#fd8d3c;"/>
   </g>
   <g id="PolyCollection_7">
    <path clip-path="url(#pe4a8a0efcb)" d="M 92.290909 141.486281 
L 92.290909 143.206247 
L 96.390083 143.258898 
L 100.489256 143.311548 
L 104.58843 143.364199 
L 108.687603 143.41685 
L 112.786777 143.469501 
L 116.88595 143.522151 
L 120.985124 143.574802 
L 125.084298 143.627453 
L 129.183471 143.680104 
L 133.282645 143.732754 
L 137.381818 143.785405 
L 141.480992 143.838056 
L 145.580165 143.890707 
L 149.679339 143.943357 
L 153.778512 143.996008 
L 157.877686 144.048659 
L 161.97686 144.10131 
L 166.076033 144.15396 
L 170.175207 144.206611 
L 174.27438 144.259262 
L 178.373554 144.311913 
L 182.472727 144.364563 
L 186.571901 144.417214 
L 190.671074 144.469865 
L 194.770248 144.522516 
L 198.869421 144.575166 
L 202.968595 144.627817 
L 207.067769 144.680468 
L 211.166942 144.733119 
L 215.266116 144.785769 
L 219.365289 144.83842 
L 223.464463 144.891071 
L 227.563636 144.943721 
L 231.66281 144.996372 
L 235.761983 145.049023 
L 239.861157 145.101674 
L 243.960331 145.154324 
L 248.059504 145.206975 
L 252.158678 145.259626 
L 256.257851 145.312277 
L 260.357025 145.364927 
L 264.456198 145.417578 
L 268.555372 145.470229 
L 272.654545 145.52288 
L 276.753719 145.57553 
L 280.852893 145.628181 
L 284.952066 145.680832 
L 289.05124 145.733483 
L 293.150413 145.786133 
L 297.249587 145.838784 
L 301.34876 145.891435 
L 305.447934 145.944086 
L 309.547107 145.996736 
L 313.646281 146.049387 
L 317.745455 146.102038 
L 321.844628 146.154689 
L 325.943802 146.207339 
L 330.042975 146.25999 
L 334.142149 146.312641 
L 338.241322 146.365292 
L 342.340496 146.417942 
L 346.439669 146.470593 
L 350.538843 146.523244 
L 354.638017 146.575895 
L 358.73719 146.628545 
L 362.836364 146.681196 
L 366.935537 146.733847 
L 371.034711 146.786497 
L 375.133884 146.839148 
L 379.233058 146.891799 
L 383.332231 146.94445 
L 387.431405 146.9971 
L 391.530579 147.049751 
L 395.629752 147.102402 
L 399.728926 147.155053 
L 403.828099 147.207703 
L 407.927273 147.260354 
L 412.026446 147.313005 
L 416.12562 147.365656 
L 420.224793 147.418306 
L 424.323967 147.470957 
L 428.42314 147.523608 
L 432.522314 147.576259 
L 436.621488 147.628909 
L 440.720661 147.68156 
L 444.819835 147.734211 
L 448.919008 147.786862 
L 453.018182 147.839512 
L 457.117355 147.892163 
L 461.216529 147.944814 
L 465.315702 147.997465 
L 469.414876 148.050115 
L 473.51405 148.102766 
L 477.613223 148.155417 
L 481.712397 148.208068 
L 485.81157 148.260718 
L 489.910744 148.313369 
L 494.009917 148.36602 
L 498.109091 148.418671 
L 498.109091 148.418671 
L 498.109091 148.418671 
L 494.009917 148.348646 
L 489.910744 148.278622 
L 485.81157 148.208598 
L 481.712397 148.138574 
L 477.613223 148.06855 
L 473.51405 147.998526 
L 469.414876 147.928502 
L 465.315702 147.858477 
L 461.216529 147.788453 
L 457.117355 147.718429 
L 453.018182 147.648405 
L 448.919008 147.578381 
L 444.819835 147.508357 
L 440.720661 147.438333 
L 436.621488 147.368308 
L 432.522314 147.298284 
L 428.42314 147.22826 
L 424.323967 147.158236 
L 420.224793 147.088212 
L 416.12562 147.018188 
L 412.026446 146.948164 
L 407.927273 146.87814 
L 403.828099 146.808115 
L 399.728926 146.738091 
L 395.629752 146.668067 
L 391.530579 146.598043 
L 387.431405 146.528019 
L 383.332231 146.457995 
L 379.233058 146.387971 
L 375.133884 146.317946 
L 371.034711 146.247922 
L 366.935537 146.177898 
L 362.836364 146.107874 
L 358.73719 146.03785 
L 354.638017 145.967826 
L 350.538843 145.897802 
L 346.439669 145.827777 
L 342.340496 145.757753 
L 338.241322 145.687729 
L 334.142149 145.617705 
L 330.042975 145.547681 
L 325.943802 145.477657 
L 321.844628 145.407633 
L 317.745455 145.337609 
L 313.646281 145.267584 
L 309.547107 145.19756 
L 305.447934 145.127536 
L 301.34876 145.057512 
L 297.249587 144.987488 
L 293.150413 144.917464 
L 289.05124 144.84744 
L 284.952066 144.777415 
L 280.852893 144.707391 
L 276.753719 144.637367 
L 272.654545 144.567343 
L 268.555372 144.497319 
L 264.456198 144.427295 
L 260.357025 144.357271 
L 256.257851 144.287246 
L 252.158678 144.217222 
L 248.059504 144.147198 
L 243.960331 144.077174 
L 239.861157 144.00715 
L 235.761983 143.937126 
L 231.66281 143.867102 
L 227.563636 143.797078 
L 223.464463 143.727053 
L 219.365289 143.657029 
L 215.266116 143.587005 
L 211.166942 143.516981 
L 207.067769 143.446957 
L 202.968595 143.376933 
L 198.869421 143.306909 
L 194.770248 143.236884 
L 190.671074 143.16686 
L 186.571901 143.096836 
L 182.472727 143.026812 
L 178.373554 142.956788 
L 174.27438 142.886764 
L 170.175207 142.81674 
L 166.076033 142.746715 
L 161.97686 142.676691 
L 157.877686 142.606667 
L 153.778512 142.536643 
L 149.679339 142.466619 
L 145.580165 142.396595 
L 141.480992 142.326571 
L 137.381818 142.256547 
L 133.282645 142.186522 
L 129.183471 142.116498 
L 125.084298 142.046474 
L 120.985124 141.97645 
L 116.88595 141.906426 
L 112.786777 141.836402 
L 108.687603 141.766378 
L 104.58843 141.696353 
L 100.489256 141.626329 
L 96.390083 141.556305 
L 92.290909 141.486281 
z
" style="fill:#fdae6b;"/>
   </g>
   <g id="PolyCollection_8">
    <path clip-path="url(#pe4a8a0efcb)" d="M 92.290909 136.988261 
L 92.290909 141.486281 
L 96.390083 141.556305 
L 100.489256 141.626329 
L 104.58843 141.696353 
L 108.687603 141.766378 
L 112.786777 141.836402 
L 116.88595 141.906426 
L 120.985124 141.97645 
L 125.084298 142.046474 
L 129.183471 142.116498 
L 133.282645 142.186522 
L 137.381818 142.256547 
L 141.480992 142.326571 
L 145.580165 142.396595 
L 149.679339 142.466619 
L 153.778512 142.536643 
L 157.877686 142.606667 
L 161.97686 142.676691 
L 166.076033 142.746715 
L 170.175207 142.81674 
L 174.27438 142.886764 
L 178.373554 142.956788 
L 182.472727 143.026812 
L 186.571901 143.096836 
L 190.671074 143.16686 
L 194.770248 143.236884 
L 198.869421 143.306909 
L 202.968595 143.376933 
L 207.067769 143.446957 
L 211.166942 143.516981 
L 215.266116 143.587005 
L 219.365289 143.657029 
L 223.464463 143.727053 
L 227.563636 143.797078 
L 231.66281 143.867102 
L 235.761983 143.937126 
L 239.861157 144.00715 
L 243.960331 144.077174 
L 248.059504 144.147198 
L 252.158678 144.217222 
L 256.257851 144.287246 
L 260.357025 144.357271 
L 264.456198 144.427295 
L 268.555372 144.497319 
L 272.654545 144.567343 
L 276.753719 144.637367 
L 280.852893 144.707391 
L 284.952066 144.777415 
L 289.05124 144.84744 
L 293.150413 144.917464 
L 297.249587 144.987488 
L 301.34876 145.057512 
L 305.447934 145.127536 
L 309.547107 145.19756 
L 313.646281 145.267584 
L 317.745455 145.337609 
L 321.844628 145.407633 
L 325.943802 145.477657 
L 330.042975 145.547681 
L 334.142149 145.617705 
L 338.241322 145.687729 
L 342.340496 145.757753 
L 346.439669 145.827777 
L 350.538843 145.897802 
L 354.638017 145.967826 
L 358.73719 146.03785 
L 362.836364 146.107874 
L 366.935537 146.177898 
L 371.034711 146.247922 
L 375.133884 146.317946 
L 379.233058 146.387971 
L 383.332231 146.457995 
L 387.431405 146.528019 
L 391.530579 146.598043 
L 395.629752 146.668067 
L 399.728926 146.738091 
L 403.828099 146.808115 
L 407.927273 146.87814 
L 412.026446 146.948164 
L 416.12562 147.018188 
L 420.224793 147.088212 
L 424.323967 147.158236 
L 428.42314 147.22826 
L 432.522314 147.298284 
L 436.621488 147.368308 
L 440.720661 147.438333 
L 444.819835 147.508357 
L 448.919008 147.578381 
L 453.018182 147.648405 
L 457.117355 147.718429 
L 461.216529 147.788453 
L 465.315702 147.858477 
L 469.414876 147.928502 
L 473.51405 147.998526 
L 477.613223 148.06855 
L 481.712397 148.138574 
L 485.81157 148.208598 
L 489.910744 148.278622 
L 494.009917 148.348646 
L 498.109091 148.418671 
L 498.109091 143.92065 
L 498.109091 143.92065 
L 494.009917 143.850626 
L 489.910744 143.780602 
L 485.81157 143.710578 
L 481.712397 143.640554 
L 477.613223 143.57053 
L 473.51405 143.500506 
L 469.414876 143.430481 
L 465.315702 143.360457 
L 461.216529 143.290433 
L 457.117355 143.220409 
L 453.018182 143.150385 
L 448.919008 143.080361 
L 444.819835 143.010337 
L 440.720661 142.940312 
L 436.621488 142.870288 
L 432.522314 142.800264 
L 428.42314 142.73024 
L 424.323967 142.660216 
L 420.224793 142.590192 
L 416.12562 142.520168 
L 412.026446 142.450144 
L 407.927273 142.380119 
L 403.828099 142.310095 
L 399.728926 142.240071 
L 395.629752 142.170047 
L 391.530579 142.100023 
L 387.431405 142.029999 
L 383.332231 141.959975 
L 379.233058 141.88995 
L 375.133884 141.819926 
L 371.034711 141.749902 
L 366.935537 141.679878 
L 362.836364 141.609854 
L 358.73719 141.53983 
L 354.638017 141.469806 
L 350.538843 141.399781 
L 346.439669 141.329757 
L 342.340496 141.259733 
L 338.241322 141.189709 
L 334.142149 141.119685 
L 330.042975 141.049661 
L 325.943802 140.979637 
L 321.844628 140.909613 
L 317.745455 140.839588 
L 313.646281 140.769564 
L 309.547107 140.69954 
L 305.447934 140.629516 
L 301.34876 140.559492 
L 297.249587 140.489468 
L 293.150413 140.419444 
L 289.05124 140.349419 
L 284.952066 140.279395 
L 280.852893 140.209371 
L 276.753719 140.139347 
L 272.654545 140.069323 
L 268.555372 139.999299 
L 264.456198 139.929275 
L 260.357025 139.85925 
L 256.257851 139.789226 
L 252.158678 139.719202 
L 248.059504 139.649178 
L 243.960331 139.579154 
L 239.861157 139.50913 
L 235.761983 139.439106 
L 231.66281 139.369082 
L 227.563636 139.299057 
L 223.464463 139.229033 
L 219.365289 139.159009 
L 215.266116 139.088985 
L 211.166942 139.018961 
L 207.067769 138.948937 
L 202.968595 138.878913 
L 198.869421 138.808888 
L 194.770248 138.738864 
L 190.671074 138.66884 
L 186.571901 138.598816 
L 182.472727 138.528792 
L 178.373554 138.458768 
L 174.27438 138.388744 
L 170.175207 138.318719 
L 166.076033 138.248695 
L 161.97686 138.178671 
L 157.877686 138.108647 
L 153.778512 138.038623 
L 149.679339 137.968599 
L 145.580165 137.898575 
L 141.480992 137.828551 
L 137.381818 137.758526 
L 133.282645 137.688502 
L 129.183471 137.618478 
L 125.084298 137.548454 
L 120.985124 137.47843 
L 116.88595 137.408406 
L 112.786777 137.338382 
L 108.687603 137.268357 
L 104.58843 137.198333 
L 100.489256 137.128309 
L 96.390083 137.058285 
L 92.290909 136.988261 
z
" style="fill:#fdd0a2;"/>
   </g>
   <g id="PolyCollection_9">
    <path clip-path="url(#pe4a8a0efcb)" d="M 92.290909 135.36 
L 92.290909 136.988261 
L 96.390083 137.058285 
L 100.489256 137.128309 
L 104.58843 137.198333 
L 108.687603 137.268357 
L 112.786777 137.338382 
L 116.88595 137.408406 
L 120.985124 137.47843 
L 125.084298 137.548454 
L 129.183471 137.618478 
L 133.282645 137.688502 
L 137.381818 137.758526 
L 141.480992 137.828551 
L 145.580165 137.898575 
L 149.679339 137.968599 
L 153.778512 138.038623 
L 157.877686 138.108647 
L 161.97686 138.178671 
L 166.076033 138.248695 
L 170.175207 138.318719 
L 174.27438 138.388744 
L 178.373554 138.458768 
L 182.472727 138.528792 
L 186.571901 138.598816 
L 190.671074 138.66884 
L 194.770248 138.738864 
L 198.869421 138.808888 
L 202.968595 138.878913 
L 207.067769 138.948937 
L 211.166942 139.018961 
L 215.266116 139.088985 
L 219.365289 139.159009 
L 223.464463 139.229033 
L 227.563636 139.299057 
L 231.66281 139.369082 
L 235.761983 139.439106 
L 239.861157 139.50913 
L 243.960331 139.579154 
L 248.059504 139.649178 
L 252.158678 139.719202 
L 256.257851 139.789226 
L 260.357025 139.85925 
L 264.456198 139.929275 
L 268.555372 139.999299 
L 272.654545 140.069323 
L 276.753719 140.139347 
L 280.852893 140.209371 
L 284.952066 140.279395 
L 289.05124 140.349419 
L 293.150413 140.419444 
L 297.249587 140.489468 
L 301.34876 140.559492 
L 305.447934 140.629516 
L 309.547107 140.69954 
L 313.646281 140.769564 
L 317.745455 140.839588 
L 321.844628 140.909613 
L 325.943802 140.979637 
L 330.042975 141.049661 
L 334.142149 141.119685 
L 338.241322 141.189709 
L 342.340496 141.259733 
L 346.439669 141.329757 
L 350.538843 141.399781 
L 354.638017 141.469806 
L 358.73719 141.53983 
L 362.836364 141.609854 
L 366.935537 141.679878 
L 371.034711 141.749902 
L 375.133884 141.819926 
L 379.233058 141.88995 
L 383.332231 141.959975 
L 387.431405 142.029999 
L 391.530579 142.100023 
L 395.629752 142.170047 
L 399.728926 142.240071 
L 403.828099 142.310095 
L 407.927273 142.380119 
L 412.026446 142.450144 
L 416.12562 142.520168 
L 420.224793 142.590192 
L 424.323967 142.660216 
L 428.42314 142.73024 
L 432.522314 142.800264 
L 436.621488 142.870288 
L 440.720661 142.940312 
L 444.819835 143.010337 
L 448.919008 143.080361 
L 453.018182 143.150385 
L 457.117355 143.220409 
L 461.216529 143.290433 
L 465.315702 143.360457 
L 469.414876 143.430481 
L 473.51405 143.500506 
L 477.613223 143.57053 
L 481.712397 143.640554 
L 485.81157 143.710578 
L 489.910744 143.780602 
L 494.009917 143.850626 
L 498.109091 143.92065 
L 498.109091 143.92065 
L 498.109091 143.92065 
L 494.009917 143.834179 
L 489.910744 143.747708 
L 485.81157 143.661237 
L 481.712397 143.574766 
L 477.613223 143.488294 
L 473.51405 143.401823 
L 469.414876 143.315352 
L 465.315702 143.228881 
L 461.216529 143.142409 
L 457.117355 143.055938 
L 453.018182 142.969467 
L 448.919008 142.882996 
L 444.819835 142.796525 
L 440.720661 142.710053 
L 436.621488 142.623582 
L 432.522314 142.537111 
L 428.42314 142.45064 
L 424.323967 142.364168 
L 420.224793 142.277697 
L 416.12562 142.191226 
L 412.026446 142.104755 
L 407.927273 142.018284 
L 403.828099 141.931812 
L 399.728926 141.845341 
L 395.629752 141.75887 
L 391.530579 141.672399 
L 387.431405 141.585928 
L 383.332231 141.499456 
L 379.233058 141.412985 
L 375.133884 141.326514 
L 371.034711 141.240043 
L 366.935537 141.153571 
L 362.836364 141.0671 
L 358.73719 140.980629 
L 354.638017 140.894158 
L 350.538843 140.807687 
L 346.439669 140.721215 
L 342.340496 140.634744 
L 338.241322 140.548273 
L 334.142149 140.461802 
L 330.042975 140.375331 
L 325.943802 140.288859 
L 321.844628 140.202388 
L 317.745455 140.115917 
L 313.646281 140.029446 
L 309.547107 139.942974 
L 305.447934 139.856503 
L 301.34876 139.770032 
L 297.249587 139.683561 
L 293.150413 139.59709 
L 289.05124 139.510618 
L 284.952066 139.424147 
L 280.852893 139.337676 
L 276.753719 139.251205 
L 272.654545 139.164734 
L 268.555372 139.078262 
L 264.456198 138.991791 
L 260.357025 138.90532 
L 256.257851 138.818849 
L 252.158678 138.732377 
L 248.059504 138.645906 
L 243.960331 138.559435 
L 239.861157 138.472964 
L 235.761983 138.386493 
L 231.66281 138.300021 
L 227.563636 138.21355 
L 223.464463 138.127079 
L 219.365289 138.040608 
L 215.266116 137.954136 
L 211.166942 137.867665 
L 207.067769 137.781194 
L 202.968595 137.694723 
L 198.869421 137.608252 
L 194.770248 137.52178 
L 190.671074 137.435309 
L 186.571901 137.348838 
L 182.472727 137.262367 
L 178.373554 137.175896 
L 174.27438 137.089424 
L 170.175207 137.002953 
L 166.076033 136.916482 
L 161.97686 136.830011 
L 157.877686 136.743539 
L 153.778512 136.657068 
L 149.679339 136.570597 
L 145.580165 136.484126 
L 141.480992 136.397655 
L 137.381818 136.311183 
L 133.282645 136.224712 
L 129.183471 136.138241 
L 125.084298 136.05177 
L 120.985124 135.965299 
L 116.88595 135.878827 
L 112.786777 135.792356 
L 108.687603 135.705885 
L 104.58843 135.619414 
L 100.489256 135.532942 
L 96.390083 135.446471 
L 92.290909 135.36 
z
" style="fill:#31a354;"/>
   </g>
   <g id="PolyCollection_10">
    <path clip-path="url(#pe4a8a0efcb)" d="M 92.290909 135.36 
L 92.290909 135.36 
L 96.390083 135.446471 
L 100.489256 135.532942 
L 104.58843 135.619414 
L 108.687603 135.705885 
L 112.786777 135.792356 
L 116.88595 135.878827 
L 120.985124 135.965299 
L 125.084298 136.05177 
L 129.183471 136.138241 
L 133.282645 136.224712 
L 137.381818 136.311183 
L 141.480992 136.397655 
L 145.580165 136.484126 
L 149.679339 136.570597 
L 153.778512 136.657068 
L 157.877686 136.743539 
L 161.97686 136.830011 
L 166.076033 136.916482 
L 170.175207 137.002953 
L 174.27438 137.089424 
L 178.373554 137.175896 
L 182.472727 137.262367 
L 186.571901 137.348838 
L 190.671074 137.435309 
L 194.770248 137.52178 
L 198.869421 137.608252 
L 202.968595 137.694723 
L 207.067769 137.781194 
L 211.166942 137.867665 
L 215.266116 137.954136 
L 219.365289 138.040608 
L 223.464463 138.127079 
L 227.563636 138.21355 
L 231.66281 138.300021 
L 235.761983 138.386493 
L 239.861157 138.472964 
L 243.960331 138.559435 
L 248.059504 138.645906 
L 252.158678 138.732377 
L 256.257851 138.818849 
L 260.357025 138.90532 
L 264.456198 138.991791 
L 268.555372 139.078262 
L 272.654545 139.164734 
L 276.753719 139.251205 
L 280.852893 139.337676 
L 284.952066 139.424147 
L 289.05124 139.510618 
L 293.150413 139.59709 
L 297.249587 139.683561 
L 301.34876 139.770032 
L 305.447934 139.856503 
L 309.547107 139.942974 
L 313.646281 140.029446 
L 317.745455 140.115917 
L 321.844628 140.202388 
L 325.943802 140.288859 
L 330.042975 140.375331 
L 334.142149 140.461802 
L 338.241322 140.548273 
L 342.340496 140.634744 
L 346.439669 140.721215 
L 350.538843 140.807687 
L 354.638017 140.894158 
L 358.73719 140.980629 
L 362.836364 141.0671 
L 366.935537 141.153571 
L 371.034711 141.240043 
L 375.133884 141.326514 
L 379.233058 141.412985 
L 383.332231 141.499456 
L 387.431405 141.585928 
L 391.530579 141.672399 
L 395.629752 141.75887 
L 399.728926 141.845341 
L 403.828099 141.931812 
L 407.927273 142.018284 
L 412.026446 142.104755 
L 416.12562 142.191226 
L 420.224793 142.277697 
L 424.323967 142.364168 
L 428.42314 142.45064 
L 432.522314 142.537111 
L 436.621488 142.623582 
L 440.720661 142.710053 
L 444.819835 142.796525 
L 448.919008 142.882996 
L 453.018182 142.969467 
L 457.117355 143.055938 
L 461.216529 143.142409 
L 465.315702 143.228881 
L 469.414876 143.315352 
L 473.51405 143.401823 
L 477.613223 143.488294 
L 481.712397 143.574766 
L 485.81157 143.661237 
L 489.910744 143.747708 
L 494.009917 143.834179 
L 498.109091 143.92065 
L 498.109091 141.986407 
L 498.109091 141.986407 
L 494.009917 141.919474 
L 489.910744 141.85254 
L 485.81157 141.785607 
L 481.712397 141.718673 
L 477.613223 141.65174 
L 473.51405 141.584807 
L 469.414876 141.517873 
L 465.315702 141.45094 
L 461.216529 141.384006 
L 457.117355 141.317073 
L 453.018182 141.25014 
L 448.919008 141.183206 
L 444.819835 141.116273 
L 440.720661 141.049339 
L 436.621488 140.982406 
L 432.522314 140.915473 
L 428.42314 140.848539 
L 424.323967 140.781606 
L 420.224793 140.714672 
L 416.12562 140.647739 
L 412.026446 140.580806 
L 407.927273 140.513872 
L 403.828099 140.446939 
L 399.728926 140.380005 
L 395.629752 140.313072 
L 391.530579 140.246139 
L 387.431405 140.179205 
L 383.332231 140.112272 
L 379.233058 140.045338 
L 375.133884 139.978405 
L 371.034711 139.911472 
L 366.935537 139.844538 
L 362.836364 139.777605 
L 358.73719 139.710671 
L 354.638017 139.643738 
L 350.538843 139.576805 
L 346.439669 139.509871 
L 342.340496 139.442938 
L 338.241322 139.376004 
L 334.142149 139.309071 
L 330.042975 139.242138 
L 325.943802 139.175204 
L 321.844628 139.108271 
L 317.745455 139.041337 
L 313.646281 138.974404 
L 309.547107 138.90747 
L 305.447934 138.840537 
L 301.34876 138.773604 
L 297.249587 138.70667 
L 293.150413 138.639737 
L 289.05124 138.572803 
L 284.952066 138.50587 
L 280.852893 138.438937 
L 276.753719 138.372003 
L 272.654545 138.30507 
L 268.555372 138.238136 
L 264.456198 138.171203 
L 260.357025 138.10427 
L 256.257851 138.037336 
L 252.158678 137.970403 
L 248.059504 137.903469 
L 243.960331 137.836536 
L 239.861157 137.769603 
L 235.761983 137.702669 
L 231.66281 137.635736 
L 227.563636 137.568802 
L 223.464463 137.501869 
L 219.365289 137.434936 
L 215.266116 137.368002 
L 211.166942 137.301069 
L 207.067769 137.234135 
L 202.968595 137.167202 
L 198.869421 137.100269 
L 194.770248 137.033335 
L 190.671074 136.966402 
L 186.571901 136.899468 
L 182.472727 136.832535 
L 178.373554 136.765602 
L 174.27438 136.698668 
L 170.175207 136.631735 
L 166.076033 136.564801 
L 161.97686 136.497868 
L 157.877686 136.430934 
L 153.778512 136.364001 
L 149.679339 136.297068 
L 145.580165 136.230134 
L 141.480992 136.163201 
L 137.381818 136.096267 
L 133.282645 136.029334 
L 129.183471 135.962401 
L 125.084298 135.895467 
L 120.985124 135.828534 
L 116.88595 135.7616 
L 112.786777 135.694667 
L 108.687603 135.627734 
L 104.58843 135.5608 
L 100.489256 135.493867 
L 96.390083 135.426933 
L 92.290909 135.36 
z
" style="fill:#74c476;"/>
   </g>
   <g id="PolyCollection_11">
    <path clip-path="url(#pe4a8a0efcb)" d="M 92.290909 135.36 
L 92.290909 135.36 
L 96.390083 135.426933 
L 100.489256 135.493867 
L 104.58843 135.5608 
L 108.687603 135.627734 
L 112.786777 135.694667 
L 116.88595 135.7616 
L 120.985124 135.828534 
L 125.084298 135.895467 
L 129.183471 135.962401 
L 133.282645 136.029334 
L 137.381818 136.096267 
L 141.480992 136.163201 
L 145.580165 136.230134 
L 149.679339 136.297068 
L 153.778512 136.364001 
L 157.877686 136.430934 
L 161.97686 136.497868 
L 166.076033 136.564801 
L 170.175207 136.631735 
L 174.27438 136.698668 
L 178.373554 136.765602 
L 182.472727 136.832535 
L 186.571901 136.899468 
L 190.671074 136.966402 
L 194.770248 137.033335 
L 198.869421 137.100269 
L 202.968595 137.167202 
L 207.067769 137.234135 
L 211.166942 137.301069 
L 215.266116 137.368002 
L 219.365289 137.434936 
L 223.464463 137.501869 
L 227.563636 137.568802 
L 231.66281 137.635736 
L 235.761983 137.702669 
L 239.861157 137.769603 
L 243.960331 137.836536 
L 248.059504 137.903469 
L 252.158678 137.970403 
L 256.257851 138.037336 
L 260.357025 138.10427 
L 264.456198 138.171203 
L 268.555372 138.238136 
L 272.654545 138.30507 
L 276.753719 138.372003 
L 280.852893 138.438937 
L 284.952066 138.50587 
L 289.05124 138.572803 
L 293.150413 138.639737 
L 297.249587 138.70667 
L 301.34876 138.773604 
L 305.447934 138.840537 
L 309.547107 138.90747 
L 313.646281 138.974404 
L 317.745455 139.041337 
L 321.844628 139.108271 
L 325.943802 139.175204 
L 330.042975 139.242138 
L 334.142149 139.309071 
L 338.241322 139.376004 
L 342.340496 139.442938 
L 346.439669 139.509871 
L 350.538843 139.576805 
L 354.638017 139.643738 
L 358.73719 139.710671 
L 362.836364 139.777605 
L 366.935537 139.844538 
L 371.034711 139.911472 
L 375.133884 139.978405 
L 379.233058 140.045338 
L 383.332231 140.112272 
L 387.431405 140.179205 
L 391.530579 140.246139 
L 395.629752 140.313072 
L 399.728926 140.380005 
L 403.828099 140.446939 
L 407.927273 140.513872 
L 412.026446 140.580806 
L 416.12562 140.647739 
L 420.224793 140.714672 
L 424.323967 140.781606 
L 428.42314 140.848539 
L 432.522314 140.915473 
L 436.621488 140.982406 
L 440.720661 141.049339 
L 444.819835 141.116273 
L 448.919008 141.183206 
L 453.018182 141.25014 
L 457.117355 141.317073 
L 461.216529 141.384006 
L 465.315702 141.45094 
L 469.414876 141.517873 
L 473.51405 141.584807 
L 477.613223 141.65174 
L 481.712397 141.718673 
L 485.81157 141.785607 
L 489.910744 141.85254 
L 494.009917 141.919474 
L 498.109091 141.986407 
L 498.109091 140.078243 
L 498.109091 140.078243 
L 494.009917 140.030584 
L 489.910744 139.982925 
L 485.81157 139.935266 
L 481.712397 139.887607 
L 477.613223 139.839948 
L 473.51405 139.792289 
L 469.414876 139.74463 
L 465.315702 139.696971 
L 461.216529 139.649312 
L 457.117355 139.601653 
L 453.018182 139.553994 
L 448.919008 139.506335 
L 444.819835 139.458676 
L 440.720661 139.411017 
L 436.621488 139.363358 
L 432.522314 139.315699 
L 428.42314 139.26804 
L 424.323967 139.220381 
L 420.224793 139.172722 
L 416.12562 139.125063 
L 412.026446 139.077404 
L 407.927273 139.029745 
L 403.828099 138.982086 
L 399.728926 138.934427 
L 395.629752 138.886768 
L 391.530579 138.839109 
L 387.431405 138.79145 
L 383.332231 138.743791 
L 379.233058 138.696132 
L 375.133884 138.648473 
L 371.034711 138.600814 
L 366.935537 138.553155 
L 362.836364 138.505496 
L 358.73719 138.457837 
L 354.638017 138.410178 
L 350.538843 138.362519 
L 346.439669 138.31486 
L 342.340496 138.267201 
L 338.241322 138.219541 
L 334.142149 138.171882 
L 330.042975 138.124223 
L 325.943802 138.076564 
L 321.844628 138.028905 
L 317.745455 137.981246 
L 313.646281 137.933587 
L 309.547107 137.885928 
L 305.447934 137.838269 
L 301.34876 137.79061 
L 297.249587 137.742951 
L 293.150413 137.695292 
L 289.05124 137.647633 
L 284.952066 137.599974 
L 280.852893 137.552315 
L 276.753719 137.504656 
L 272.654545 137.456997 
L 268.555372 137.409338 
L 264.456198 137.361679 
L 260.357025 137.31402 
L 256.257851 137.266361 
L 252.158678 137.218702 
L 248.059504 137.171043 
L 243.960331 137.123384 
L 239.861157 137.075725 
L 235.761983 137.028066 
L 231.66281 136.980407 
L 227.563636 136.932748 
L 223.464463 136.885089 
L 219.365289 136.83743 
L 215.266116 136.789771 
L 211.166942 136.742112 
L 207.067769 136.694453 
L 202.968595 136.646794 
L 198.869421 136.599135 
L 194.770248 136.551476 
L 190.671074 136.503817 
L 186.571901 136.456158 
L 182.472727 136.408499 
L 178.373554 136.36084 
L 174.27438 136.31318 
L 170.175207 136.265521 
L 166.076033 136.217862 
L 161.97686 136.170203 
L 157.877686 136.122544 
L 153.778512 136.074885 
L 149.679339 136.027226 
L 145.580165 135.979567 
L 141.480992 135.931908 
L 137.381818 135.884249 
L 133.282645 135.83659 
L 129.183471 135.788931 
L 125.084298 135.741272 
L 120.985124 135.693613 
L 116.88595 135.645954 
L 112.786777 135.598295 
L 108.687603 135.550636 
L 104.58843 135.502977 
L 100.489256 135.455318 
L 96.390083 135.407659 
L 92.290909 135.36 
z
" style="fill:#a1d99b;"/>
   </g>
   <g id="matplotlib.axis_1">
    <g id="xtick_1">
     <g id="line2d_1">
      <defs>
       <path d="M 0 0 
L 0 3.5 
" id="me73a538f10" style="stroke:#000000;stroke-width:0.8;"/>
      </defs>
      <g>
       <use style="stroke:#000000;stroke-width:0.8;" x="92.290909" xlink:href="#me73a538f10" y="768.96"/>
      </g>
     </g>
     <g id="text_1">
      <!-- 0 -->
      <g transform="translate(89.109659 783.558437)scale(0.1 -0.1)">
       <defs>
        <path d="M 2034 4250 
Q 1547 4250 1301 3770 
Q 1056 3291 1056 2328 
Q 1056 1369 1301 889 
Q 1547 409 2034 409 
Q 2525 409 2770 889 
Q 3016 1369 3016 2328 
Q 3016 3291 2770 3770 
Q 2525 4250 2034 4250 
z
M 2034 4750 
Q 2819 4750 3233 4129 
Q 3647 3509 3647 2328 
Q 3647 1150 3233 529 
Q 2819 -91 2034 -91 
Q 1250 -91 836 529 
Q 422 1150 422 2328 
Q 422 3509 836 4129 
Q 1250 4750 2034 4750 
z
" id="DejaVuSans-30" transform="scale(0.015625)"/>
       </defs>
       <use xlink:href="#DejaVuSans-30"/>
      </g>
     </g>
    </g>
    <g id="xtick_2">
     <g id="line2d_2">
      <g>
       <use style="stroke:#000000;stroke-width:0.8;" x="173.454545" xlink:href="#me73a538f10" y="768.96"/>
      </g>
     </g>
     <g id="text_2">
      <!-- 20 -->
      <g transform="translate(167.092045 783.558437)scale(0.1 -0.1)">
       <defs>
        <path d="M 1228 531 
L 3431 531 
L 3431 0 
L 469 0 
L 469 531 
Q 828 903 1448 1529 
Q 2069 2156 2228 2338 
Q 2531 2678 2651 2914 
Q 2772 3150 2772 3378 
Q 2772 3750 2511 3984 
Q 2250 4219 1831 4219 
Q 1534 4219 1204 4116 
Q 875 4013 500 3803 
L 500 4441 
Q 881 4594 1212 4672 
Q 1544 4750 1819 4750 
Q 2544 4750 2975 4387 
Q 3406 4025 3406 3419 
Q 3406 3131 3298 2873 
Q 3191 2616 2906 2266 
Q 2828 2175 2409 1742 
Q 1991 1309 1228 531 
z
" id="DejaVuSans-32" transform="scale(0.015625)"/>
       </defs>
       <use xlink:href="#DejaVuSans-32"/>
       <use x="63.623047" xlink:href="#DejaVuSans-30"/>
      </g>
     </g>
    </g>
    <g id="xtick_3">
     <g id="line2d_3">
      <g>
       <use style="stroke:#000000;stroke-width:0.8;" x="254.618182" xlink:href="#me73a538f10" y="768.96"/>
      </g>
     </g>
     <g id="text_3">
      <!-- 40 -->
      <g transform="translate(248.255682 783.558437)scale(0.1 -0.1)">
       <defs>
        <path d="M 2419 4116 
L 825 1625 
L 2419 1625 
L 2419 4116 
z
M 2253 4666 
L 3047 4666 
L 3047 1625 
L 3713 1625 
L 3713 1100 
L 3047 1100 
L 3047 0 
L 2419 0 
L 2419 1100 
L 313 1100 
L 313 1709 
L 2253 4666 
z
" id="DejaVuSans-34" transform="scale(0.015625)"/>
       </defs>
       <use xlink:href="#DejaVuSans-34"/>
       <use x="63.623047" xlink:href="#DejaVuSans-30"/>
      </g>
     </g>
    </g>
    <g id="xtick_4">
     <g id="line2d_4">
      <g>
       <use style="stroke:#000000;stroke-width:0.8;" x="335.781818" xlink:href="#me73a538f10" y="768.96"/>
      </g>
     </g>
     <g id="text_4">
      <!-- 60 -->
      <g transform="translate(329.419318 783.558437)scale(0.1 -0.1)">
       <defs>
        <path d="M 2113 2584 
Q 1688 2584 1439 2293 
Q 1191 2003 1191 1497 
Q 1191 994 1439 701 
Q 1688 409 2113 409 
Q 2538 409 2786 701 
Q 3034 994 3034 1497 
Q 3034 2003 2786 2293 
Q 2538 2584 2113 2584 
z
M 3366 4563 
L 3366 3988 
Q 3128 4100 2886 4159 
Q 2644 4219 2406 4219 
Q 1781 4219 1451 3797 
Q 1122 3375 1075 2522 
Q 1259 2794 1537 2939 
Q 1816 3084 2150 3084 
Q 2853 3084 3261 2657 
Q 3669 2231 3669 1497 
Q 3669 778 3244 343 
Q 2819 -91 2113 -91 
Q 1303 -91 875 529 
Q 447 1150 447 2328 
Q 447 3434 972 4092 
Q 1497 4750 2381 4750 
Q 2619 4750 2861 4703 
Q 3103 4656 3366 4563 
z
" id="DejaVuSans-36" transform="scale(0.015625)"/>
       </defs>
       <use xlink:href="#DejaVuSans-36"/>
       <use x="63.623047" xlink:href="#DejaVuSans-30"/>
      </g>
     </g>
    </g>
    <g id="xtick_5">
     <g id="line2d_5">
      <g>
       <use style="stroke:#000000;stroke-width:0.8;" x="416.945455" xlink:href="#me73a538f10" y="768.96"/>
      </g>
     </g>
     <g id="text_5">
      <!-- 80 -->
      <g transform="translate(410.582955 783.558437)scale(0.1 -0.1)">
       <defs>
        <path d="M 2034 2216 
Q 1584 2216 1326 1975 
Q 1069 1734 1069 1313 
Q 1069 891 1326 650 
Q 1584 409 2034 409 
Q 2484 409 2743 651 
Q 3003 894 3003 1313 
Q 3003 1734 2745 1975 
Q 2488 2216 2034 2216 
z
M 1403 2484 
Q 997 2584 770 2862 
Q 544 3141 544 3541 
Q 544 4100 942 4425 
Q 1341 4750 2034 4750 
Q 2731 4750 3128 4425 
Q 3525 4100 3525 3541 
Q 3525 3141 3298 2862 
Q 3072 2584 2669 2484 
Q 3125 2378 3379 2068 
Q 3634 1759 3634 1313 
Q 3634 634 3220 271 
Q 2806 -91 2034 -91 
Q 1263 -91 848 271 
Q 434 634 434 1313 
Q 434 1759 690 2068 
Q 947 2378 1403 2484 
z
M 1172 3481 
Q 1172 3119 1398 2916 
Q 1625 2713 2034 2713 
Q 2441 2713 2670 2916 
Q 2900 3119 2900 3481 
Q 2900 3844 2670 4047 
Q 2441 4250 2034 4250 
Q 1625 4250 1398 4047 
Q 1172 3844 1172 3481 
z
" id="DejaVuSans-38" transform="scale(0.015625)"/>
       </defs>
       <use xlink:href="#DejaVuSans-38"/>
       <use x="63.623047" xlink:href="#DejaVuSans-30"/>
      </g>
     </g>
    </g>
    <g id="xtick_6">
     <g id="line2d_6">
      <g>
       <use style="stroke:#000000;stroke-width:0.8;" x="498.109091" xlink:href="#me73a538f10" y="768.96"/>
      </g>
     </g>
     <g id="text_6">
      <!-- 100 -->
      <g transform="translate(488.565341 783.558437)scale(0.1 -0.1)">
       <defs>
        <path d="M 794 531 
L 1825 531 
L 1825 4091 
L 703 3866 
L 703 4441 
L 1819 4666 
L 2450 4666 
L 2450 531 
L 3481 531 
L 3481 0 
L 794 0 
L 794 531 
z
" id="DejaVuSans-31" transform="scale(0.015625)"/>
       </defs>
       <use xlink:href="#DejaVuSans-31"/>
       <use x="63.623047" xlink:href="#DejaVuSans-30"/>
       <use x="127.246094" xlink:href="#DejaVuSans-30"/>
      </g>
     </g>
    </g>
    <g id="text_7">
     <!-- Proportion of New Technology in Grid (%) -->
     <g transform="translate(192.432031 797.236562)scale(0.1 -0.1)">
      <defs>
       <path d="M 1259 4147 
L 1259 2394 
L 2053 2394 
Q 2494 2394 2734 2622 
Q 2975 2850 2975 3272 
Q 2975 3691 2734 3919 
Q 2494 4147 2053 4147 
L 1259 4147 
z
M 628 4666 
L 2053 4666 
Q 2838 4666 3239 4311 
Q 3641 3956 3641 3272 
Q 3641 2581 3239 2228 
Q 2838 1875 2053 1875 
L 1259 1875 
L 1259 0 
L 628 0 
L 628 4666 
z
" id="DejaVuSans-50" transform="scale(0.015625)"/>
       <path d="M 2631 2963 
Q 2534 3019 2420 3045 
Q 2306 3072 2169 3072 
Q 1681 3072 1420 2755 
Q 1159 2438 1159 1844 
L 1159 0 
L 581 0 
L 581 3500 
L 1159 3500 
L 1159 2956 
Q 1341 3275 1631 3429 
Q 1922 3584 2338 3584 
Q 2397 3584 2469 3576 
Q 2541 3569 2628 3553 
L 2631 2963 
z
" id="DejaVuSans-72" transform="scale(0.015625)"/>
       <path d="M 1959 3097 
Q 1497 3097 1228 2736 
Q 959 2375 959 1747 
Q 959 1119 1226 758 
Q 1494 397 1959 397 
Q 2419 397 2687 759 
Q 2956 1122 2956 1747 
Q 2956 2369 2687 2733 
Q 2419 3097 1959 3097 
z
M 1959 3584 
Q 2709 3584 3137 3096 
Q 3566 2609 3566 1747 
Q 3566 888 3137 398 
Q 2709 -91 1959 -91 
Q 1206 -91 779 398 
Q 353 888 353 1747 
Q 353 2609 779 3096 
Q 1206 3584 1959 3584 
z
" id="DejaVuSans-6f" transform="scale(0.015625)"/>
       <path d="M 1159 525 
L 1159 -1331 
L 581 -1331 
L 581 3500 
L 1159 3500 
L 1159 2969 
Q 1341 3281 1617 3432 
Q 1894 3584 2278 3584 
Q 2916 3584 3314 3078 
Q 3713 2572 3713 1747 
Q 3713 922 3314 415 
Q 2916 -91 2278 -91 
Q 1894 -91 1617 61 
Q 1341 213 1159 525 
z
M 3116 1747 
Q 3116 2381 2855 2742 
Q 2594 3103 2138 3103 
Q 1681 3103 1420 2742 
Q 1159 2381 1159 1747 
Q 1159 1113 1420 752 
Q 1681 391 2138 391 
Q 2594 391 2855 752 
Q 3116 1113 3116 1747 
z
" id="DejaVuSans-70" transform="scale(0.015625)"/>
       <path d="M 1172 4494 
L 1172 3500 
L 2356 3500 
L 2356 3053 
L 1172 3053 
L 1172 1153 
Q 1172 725 1289 603 
Q 1406 481 1766 481 
L 2356 481 
L 2356 0 
L 1766 0 
Q 1100 0 847 248 
Q 594 497 594 1153 
L 594 3053 
L 172 3053 
L 172 3500 
L 594 3500 
L 594 4494 
L 1172 4494 
z
" id="DejaVuSans-74" transform="scale(0.015625)"/>
       <path d="M 603 3500 
L 1178 3500 
L 1178 0 
L 603 0 
L 603 3500 
z
M 603 4863 
L 1178 4863 
L 1178 4134 
L 603 4134 
L 603 4863 
z
" id="DejaVuSans-69" transform="scale(0.015625)"/>
       <path d="M 3513 2113 
L 3513 0 
L 2938 0 
L 2938 2094 
Q 2938 2591 2744 2837 
Q 2550 3084 2163 3084 
Q 1697 3084 1428 2787 
Q 1159 2491 1159 1978 
L 1159 0 
L 581 0 
L 581 3500 
L 1159 3500 
L 1159 2956 
Q 1366 3272 1645 3428 
Q 1925 3584 2291 3584 
Q 2894 3584 3203 3211 
Q 3513 2838 3513 2113 
z
" id="DejaVuSans-6e" transform="scale(0.015625)"/>
       <path id="DejaVuSans-20" transform="scale(0.015625)"/>
       <path d="M 2375 4863 
L 2375 4384 
L 1825 4384 
Q 1516 4384 1395 4259 
Q 1275 4134 1275 3809 
L 1275 3500 
L 2222 3500 
L 2222 3053 
L 1275 3053 
L 1275 0 
L 697 0 
L 697 3053 
L 147 3053 
L 147 3500 
L 697 3500 
L 697 3744 
Q 697 4328 969 4595 
Q 1241 4863 1831 4863 
L 2375 4863 
z
" id="DejaVuSans-66" transform="scale(0.015625)"/>
       <path d="M 628 4666 
L 1478 4666 
L 3547 763 
L 3547 4666 
L 4159 4666 
L 4159 0 
L 3309 0 
L 1241 3903 
L 1241 0 
L 628 0 
L 628 4666 
z
" id="DejaVuSans-4e" transform="scale(0.015625)"/>
       <path d="M 3597 1894 
L 3597 1613 
L 953 1613 
Q 991 1019 1311 708 
Q 1631 397 2203 397 
Q 2534 397 2845 478 
Q 3156 559 3463 722 
L 3463 178 
Q 3153 47 2828 -22 
Q 2503 -91 2169 -91 
Q 1331 -91 842 396 
Q 353 884 353 1716 
Q 353 2575 817 3079 
Q 1281 3584 2069 3584 
Q 2775 3584 3186 3129 
Q 3597 2675 3597 1894 
z
M 3022 2063 
Q 3016 2534 2758 2815 
Q 2500 3097 2075 3097 
Q 1594 3097 1305 2825 
Q 1016 2553 972 2059 
L 3022 2063 
z
" id="DejaVuSans-65" transform="scale(0.015625)"/>
       <path d="M 269 3500 
L 844 3500 
L 1563 769 
L 2278 3500 
L 2956 3500 
L 3675 769 
L 4391 3500 
L 4966 3500 
L 4050 0 
L 3372 0 
L 2619 2869 
L 1863 0 
L 1184 0 
L 269 3500 
z
" id="DejaVuSans-77" transform="scale(0.015625)"/>
       <path d="M -19 4666 
L 3928 4666 
L 3928 4134 
L 2272 4134 
L 2272 0 
L 1638 0 
L 1638 4134 
L -19 4134 
L -19 4666 
z
" id="DejaVuSans-54" transform="scale(0.015625)"/>
       <path d="M 3122 3366 
L 3122 2828 
Q 2878 2963 2633 3030 
Q 2388 3097 2138 3097 
Q 1578 3097 1268 2742 
Q 959 2388 959 1747 
Q 959 1106 1268 751 
Q 1578 397 2138 397 
Q 2388 397 2633 464 
Q 2878 531 3122 666 
L 3122 134 
Q 2881 22 2623 -34 
Q 2366 -91 2075 -91 
Q 1284 -91 818 406 
Q 353 903 353 1747 
Q 353 2603 823 3093 
Q 1294 3584 2113 3584 
Q 2378 3584 2631 3529 
Q 2884 3475 3122 3366 
z
" id="DejaVuSans-63" transform="scale(0.015625)"/>
       <path d="M 3513 2113 
L 3513 0 
L 2938 0 
L 2938 2094 
Q 2938 2591 2744 2837 
Q 2550 3084 2163 3084 
Q 1697 3084 1428 2787 
Q 1159 2491 1159 1978 
L 1159 0 
L 581 0 
L 581 4863 
L 1159 4863 
L 1159 2956 
Q 1366 3272 1645 3428 
Q 1925 3584 2291 3584 
Q 2894 3584 3203 3211 
Q 3513 2838 3513 2113 
z
" id="DejaVuSans-68" transform="scale(0.015625)"/>
       <path d="M 603 4863 
L 1178 4863 
L 1178 0 
L 603 0 
L 603 4863 
z
" id="DejaVuSans-6c" transform="scale(0.015625)"/>
       <path d="M 2906 1791 
Q 2906 2416 2648 2759 
Q 2391 3103 1925 3103 
Q 1463 3103 1205 2759 
Q 947 2416 947 1791 
Q 947 1169 1205 825 
Q 1463 481 1925 481 
Q 2391 481 2648 825 
Q 2906 1169 2906 1791 
z
M 3481 434 
Q 3481 -459 3084 -895 
Q 2688 -1331 1869 -1331 
Q 1566 -1331 1297 -1286 
Q 1028 -1241 775 -1147 
L 775 -588 
Q 1028 -725 1275 -790 
Q 1522 -856 1778 -856 
Q 2344 -856 2625 -561 
Q 2906 -266 2906 331 
L 2906 616 
Q 2728 306 2450 153 
Q 2172 0 1784 0 
Q 1141 0 747 490 
Q 353 981 353 1791 
Q 353 2603 747 3093 
Q 1141 3584 1784 3584 
Q 2172 3584 2450 3431 
Q 2728 3278 2906 2969 
L 2906 3500 
L 3481 3500 
L 3481 434 
z
" id="DejaVuSans-67" transform="scale(0.015625)"/>
       <path d="M 2059 -325 
Q 1816 -950 1584 -1140 
Q 1353 -1331 966 -1331 
L 506 -1331 
L 506 -850 
L 844 -850 
Q 1081 -850 1212 -737 
Q 1344 -625 1503 -206 
L 1606 56 
L 191 3500 
L 800 3500 
L 1894 763 
L 2988 3500 
L 3597 3500 
L 2059 -325 
z
" id="DejaVuSans-79" transform="scale(0.015625)"/>
       <path d="M 3809 666 
L 3809 1919 
L 2778 1919 
L 2778 2438 
L 4434 2438 
L 4434 434 
Q 4069 175 3628 42 
Q 3188 -91 2688 -91 
Q 1594 -91 976 548 
Q 359 1188 359 2328 
Q 359 3472 976 4111 
Q 1594 4750 2688 4750 
Q 3144 4750 3555 4637 
Q 3966 4525 4313 4306 
L 4313 3634 
Q 3963 3931 3569 4081 
Q 3175 4231 2741 4231 
Q 1884 4231 1454 3753 
Q 1025 3275 1025 2328 
Q 1025 1384 1454 906 
Q 1884 428 2741 428 
Q 3075 428 3337 486 
Q 3600 544 3809 666 
z
" id="DejaVuSans-47" transform="scale(0.015625)"/>
       <path d="M 2906 2969 
L 2906 4863 
L 3481 4863 
L 3481 0 
L 2906 0 
L 2906 525 
Q 2725 213 2448 61 
Q 2172 -91 1784 -91 
Q 1150 -91 751 415 
Q 353 922 353 1747 
Q 353 2572 751 3078 
Q 1150 3584 1784 3584 
Q 2172 3584 2448 3432 
Q 2725 3281 2906 2969 
z
M 947 1747 
Q 947 1113 1208 752 
Q 1469 391 1925 391 
Q 2381 391 2643 752 
Q 2906 1113 2906 1747 
Q 2906 2381 2643 2742 
Q 2381 3103 1925 3103 
Q 1469 3103 1208 2742 
Q 947 2381 947 1747 
z
" id="DejaVuSans-64" transform="scale(0.015625)"/>
       <path d="M 1984 4856 
Q 1566 4138 1362 3434 
Q 1159 2731 1159 2009 
Q 1159 1288 1364 580 
Q 1569 -128 1984 -844 
L 1484 -844 
Q 1016 -109 783 600 
Q 550 1309 550 2009 
Q 550 2706 781 3412 
Q 1013 4119 1484 4856 
L 1984 4856 
z
" id="DejaVuSans-28" transform="scale(0.015625)"/>
       <path d="M 4653 2053 
Q 4381 2053 4226 1822 
Q 4072 1591 4072 1178 
Q 4072 772 4226 539 
Q 4381 306 4653 306 
Q 4919 306 5073 539 
Q 5228 772 5228 1178 
Q 5228 1588 5073 1820 
Q 4919 2053 4653 2053 
z
M 4653 2450 
Q 5147 2450 5437 2106 
Q 5728 1763 5728 1178 
Q 5728 594 5436 251 
Q 5144 -91 4653 -91 
Q 4153 -91 3862 251 
Q 3572 594 3572 1178 
Q 3572 1766 3864 2108 
Q 4156 2450 4653 2450 
z
M 1428 4353 
Q 1159 4353 1004 4120 
Q 850 3888 850 3481 
Q 850 3069 1003 2837 
Q 1156 2606 1428 2606 
Q 1700 2606 1854 2837 
Q 2009 3069 2009 3481 
Q 2009 3884 1853 4118 
Q 1697 4353 1428 4353 
z
M 4250 4750 
L 4750 4750 
L 1831 -91 
L 1331 -91 
L 4250 4750 
z
M 1428 4750 
Q 1922 4750 2215 4408 
Q 2509 4066 2509 3481 
Q 2509 2891 2217 2550 
Q 1925 2209 1428 2209 
Q 931 2209 642 2551 
Q 353 2894 353 3481 
Q 353 4063 643 4406 
Q 934 4750 1428 4750 
z
" id="DejaVuSans-25" transform="scale(0.015625)"/>
       <path d="M 513 4856 
L 1013 4856 
Q 1481 4119 1714 3412 
Q 1947 2706 1947 2009 
Q 1947 1309 1714 600 
Q 1481 -109 1013 -844 
L 513 -844 
Q 928 -128 1133 580 
Q 1338 1288 1338 2009 
Q 1338 2731 1133 3434 
Q 928 4138 513 4856 
z
" id="DejaVuSans-29" transform="scale(0.015625)"/>
      </defs>
      <use xlink:href="#DejaVuSans-50"/>
      <use x="58.552734" xlink:href="#DejaVuSans-72"/>
      <use x="97.416016" xlink:href="#DejaVuSans-6f"/>
      <use x="158.597656" xlink:href="#DejaVuSans-70"/>
      <use x="222.074219" xlink:href="#DejaVuSans-6f"/>
      <use x="283.255859" xlink:href="#DejaVuSans-72"/>
      <use x="324.369141" xlink:href="#DejaVuSans-74"/>
      <use x="363.578125" xlink:href="#DejaVuSans-69"/>
      <use x="391.361328" xlink:href="#DejaVuSans-6f"/>
      <use x="452.542969" xlink:href="#DejaVuSans-6e"/>
      <use x="515.921875" xlink:href="#DejaVuSans-20"/>
      <use x="547.708984" xlink:href="#DejaVuSans-6f"/>
      <use x="608.890625" xlink:href="#DejaVuSans-66"/>
      <use x="644.095703" xlink:href="#DejaVuSans-20"/>
      <use x="675.882812" xlink:href="#DejaVuSans-4e"/>
      <use x="750.6875" xlink:href="#DejaVuSans-65"/>
      <use x="812.210938" xlink:href="#DejaVuSans-77"/>
      <use x="893.998047" xlink:href="#DejaVuSans-20"/>
      <use x="925.785156" xlink:href="#DejaVuSans-54"/>
      <use x="969.869141" xlink:href="#DejaVuSans-65"/>
      <use x="1031.392578" xlink:href="#DejaVuSans-63"/>
      <use x="1086.373047" xlink:href="#DejaVuSans-68"/>
      <use x="1149.751953" xlink:href="#DejaVuSans-6e"/>
      <use x="1213.130859" xlink:href="#DejaVuSans-6f"/>
      <use x="1274.3125" xlink:href="#DejaVuSans-6c"/>
      <use x="1302.095703" xlink:href="#DejaVuSans-6f"/>
      <use x="1363.277344" xlink:href="#DejaVuSans-67"/>
      <use x="1426.753906" xlink:href="#DejaVuSans-79"/>
      <use x="1485.933594" xlink:href="#DejaVuSans-20"/>
      <use x="1517.720703" xlink:href="#DejaVuSans-69"/>
      <use x="1545.503906" xlink:href="#DejaVuSans-6e"/>
      <use x="1608.882812" xlink:href="#DejaVuSans-20"/>
      <use x="1640.669922" xlink:href="#DejaVuSans-47"/>
      <use x="1718.160156" xlink:href="#DejaVuSans-72"/>
      <use x="1759.273438" xlink:href="#DejaVuSans-69"/>
      <use x="1787.056641" xlink:href="#DejaVuSans-64"/>
      <use x="1850.533203" xlink:href="#DejaVuSans-20"/>
      <use x="1882.320312" xlink:href="#DejaVuSans-28"/>
      <use x="1921.333984" xlink:href="#DejaVuSans-25"/>
      <use x="2016.353516" xlink:href="#DejaVuSans-29"/>
     </g>
    </g>
   </g>
   <g id="matplotlib.axis_2">
    <g id="ytick_1">
     <g id="line2d_7">
      <defs>
       <path d="M 0 0 
L -3.5 0 
" id="mdd1f80ebef" style="stroke:#000000;stroke-width:0.8;"/>
      </defs>
      <g>
       <use style="stroke:#000000;stroke-width:0.8;" x="72" xlink:href="#mdd1f80ebef" y="768.96"/>
      </g>
     </g>
     <g id="text_8">
      <!-- 0 -->
      <g transform="translate(58.6375 772.759219)scale(0.1 -0.1)">
       <use xlink:href="#DejaVuSans-30"/>
      </g>
     </g>
    </g>
    <g id="ytick_2">
     <g id="line2d_8">
      <g>
       <use style="stroke:#000000;stroke-width:0.8;" x="72" xlink:href="#mdd1f80ebef" y="661.374309"/>
      </g>
     </g>
     <g id="text_9">
      <!-- 20 -->
      <g transform="translate(52.275 665.173527)scale(0.1 -0.1)">
       <use xlink:href="#DejaVuSans-32"/>
       <use x="63.623047" xlink:href="#DejaVuSans-30"/>
      </g>
     </g>
    </g>
    <g id="ytick_3">
     <g id="line2d_9">
      <g>
       <use style="stroke:#000000;stroke-width:0.8;" x="72" xlink:href="#mdd1f80ebef" y="553.788617"/>
      </g>
     </g>
     <g id="text_10">
      <!-- 40 -->
      <g transform="translate(52.275 557.587836)scale(0.1 -0.1)">
       <use xlink:href="#DejaVuSans-34"/>
       <use x="63.623047" xlink:href="#DejaVuSans-30"/>
      </g>
     </g>
    </g>
    <g id="ytick_4">
     <g id="line2d_10">
      <g>
       <use style="stroke:#000000;stroke-width:0.8;" x="72" xlink:href="#mdd1f80ebef" y="446.202926"/>
      </g>
     </g>
     <g id="text_11">
      <!-- 60 -->
      <g transform="translate(52.275 450.002145)scale(0.1 -0.1)">
       <use xlink:href="#DejaVuSans-36"/>
       <use x="63.623047" xlink:href="#DejaVuSans-30"/>
      </g>
     </g>
    </g>
    <g id="ytick_5">
     <g id="line2d_11">
      <g>
       <use style="stroke:#000000;stroke-width:0.8;" x="72" xlink:href="#mdd1f80ebef" y="338.617235"/>
      </g>
     </g>
     <g id="text_12">
      <!-- 80 -->
      <g transform="translate(52.275 342.416454)scale(0.1 -0.1)">
       <use xlink:href="#DejaVuSans-38"/>
       <use x="63.623047" xlink:href="#DejaVuSans-30"/>
      </g>
     </g>
    </g>
    <g id="ytick_6">
     <g id="line2d_12">
      <g>
       <use style="stroke:#000000;stroke-width:0.8;" x="72" xlink:href="#mdd1f80ebef" y="231.031544"/>
      </g>
     </g>
     <g id="text_13">
      <!-- 100 -->
      <g transform="translate(45.9125 234.830762)scale(0.1 -0.1)">
       <use xlink:href="#DejaVuSans-31"/>
       <use x="63.623047" xlink:href="#DejaVuSans-30"/>
       <use x="127.246094" xlink:href="#DejaVuSans-30"/>
      </g>
     </g>
    </g>
    <g id="ytick_7">
     <g id="line2d_13">
      <g>
       <use style="stroke:#000000;stroke-width:0.8;" x="72" xlink:href="#mdd1f80ebef" y="123.445852"/>
      </g>
     </g>
     <g id="text_14">
      <!-- 120 -->
      <g transform="translate(45.9125 127.245071)scale(0.1 -0.1)">
       <use xlink:href="#DejaVuSans-31"/>
       <use x="63.623047" xlink:href="#DejaVuSans-32"/>
       <use x="127.246094" xlink:href="#DejaVuSans-30"/>
      </g>
     </g>
    </g>
    <g id="text_15">
     <!-- Carbon Equivilent Emissions (Mt) -->
     <g transform="translate(39.832812 518.960625)rotate(-90)scale(0.1 -0.1)">
      <defs>
       <path d="M 4122 4306 
L 4122 3641 
Q 3803 3938 3442 4084 
Q 3081 4231 2675 4231 
Q 1875 4231 1450 3742 
Q 1025 3253 1025 2328 
Q 1025 1406 1450 917 
Q 1875 428 2675 428 
Q 3081 428 3442 575 
Q 3803 722 4122 1019 
L 4122 359 
Q 3791 134 3420 21 
Q 3050 -91 2638 -91 
Q 1578 -91 968 557 
Q 359 1206 359 2328 
Q 359 3453 968 4101 
Q 1578 4750 2638 4750 
Q 3056 4750 3426 4639 
Q 3797 4528 4122 4306 
z
" id="DejaVuSans-43" transform="scale(0.015625)"/>
       <path d="M 2194 1759 
Q 1497 1759 1228 1600 
Q 959 1441 959 1056 
Q 959 750 1161 570 
Q 1363 391 1709 391 
Q 2188 391 2477 730 
Q 2766 1069 2766 1631 
L 2766 1759 
L 2194 1759 
z
M 3341 1997 
L 3341 0 
L 2766 0 
L 2766 531 
Q 2569 213 2275 61 
Q 1981 -91 1556 -91 
Q 1019 -91 701 211 
Q 384 513 384 1019 
Q 384 1609 779 1909 
Q 1175 2209 1959 2209 
L 2766 2209 
L 2766 2266 
Q 2766 2663 2505 2880 
Q 2244 3097 1772 3097 
Q 1472 3097 1187 3025 
Q 903 2953 641 2809 
L 641 3341 
Q 956 3463 1253 3523 
Q 1550 3584 1831 3584 
Q 2591 3584 2966 3190 
Q 3341 2797 3341 1997 
z
" id="DejaVuSans-61" transform="scale(0.015625)"/>
       <path d="M 3116 1747 
Q 3116 2381 2855 2742 
Q 2594 3103 2138 3103 
Q 1681 3103 1420 2742 
Q 1159 2381 1159 1747 
Q 1159 1113 1420 752 
Q 1681 391 2138 391 
Q 2594 391 2855 752 
Q 3116 1113 3116 1747 
z
M 1159 2969 
Q 1341 3281 1617 3432 
Q 1894 3584 2278 3584 
Q 2916 3584 3314 3078 
Q 3713 2572 3713 1747 
Q 3713 922 3314 415 
Q 2916 -91 2278 -91 
Q 1894 -91 1617 61 
Q 1341 213 1159 525 
L 1159 0 
L 581 0 
L 581 4863 
L 1159 4863 
L 1159 2969 
z
" id="DejaVuSans-62" transform="scale(0.015625)"/>
       <path d="M 628 4666 
L 3578 4666 
L 3578 4134 
L 1259 4134 
L 1259 2753 
L 3481 2753 
L 3481 2222 
L 1259 2222 
L 1259 531 
L 3634 531 
L 3634 0 
L 628 0 
L 628 4666 
z
" id="DejaVuSans-45" transform="scale(0.015625)"/>
       <path d="M 947 1747 
Q 947 1113 1208 752 
Q 1469 391 1925 391 
Q 2381 391 2643 752 
Q 2906 1113 2906 1747 
Q 2906 2381 2643 2742 
Q 2381 3103 1925 3103 
Q 1469 3103 1208 2742 
Q 947 2381 947 1747 
z
M 2906 525 
Q 2725 213 2448 61 
Q 2172 -91 1784 -91 
Q 1150 -91 751 415 
Q 353 922 353 1747 
Q 353 2572 751 3078 
Q 1150 3584 1784 3584 
Q 2172 3584 2448 3432 
Q 2725 3281 2906 2969 
L 2906 3500 
L 3481 3500 
L 3481 -1331 
L 2906 -1331 
L 2906 525 
z
" id="DejaVuSans-71" transform="scale(0.015625)"/>
       <path d="M 544 1381 
L 544 3500 
L 1119 3500 
L 1119 1403 
Q 1119 906 1312 657 
Q 1506 409 1894 409 
Q 2359 409 2629 706 
Q 2900 1003 2900 1516 
L 2900 3500 
L 3475 3500 
L 3475 0 
L 2900 0 
L 2900 538 
Q 2691 219 2414 64 
Q 2138 -91 1772 -91 
Q 1169 -91 856 284 
Q 544 659 544 1381 
z
M 1991 3584 
L 1991 3584 
z
" id="DejaVuSans-75" transform="scale(0.015625)"/>
       <path d="M 191 3500 
L 800 3500 
L 1894 563 
L 2988 3500 
L 3597 3500 
L 2284 0 
L 1503 0 
L 191 3500 
z
" id="DejaVuSans-76" transform="scale(0.015625)"/>
       <path d="M 3328 2828 
Q 3544 3216 3844 3400 
Q 4144 3584 4550 3584 
Q 5097 3584 5394 3201 
Q 5691 2819 5691 2113 
L 5691 0 
L 5113 0 
L 5113 2094 
Q 5113 2597 4934 2840 
Q 4756 3084 4391 3084 
Q 3944 3084 3684 2787 
Q 3425 2491 3425 1978 
L 3425 0 
L 2847 0 
L 2847 2094 
Q 2847 2600 2669 2842 
Q 2491 3084 2119 3084 
Q 1678 3084 1418 2786 
Q 1159 2488 1159 1978 
L 1159 0 
L 581 0 
L 581 3500 
L 1159 3500 
L 1159 2956 
Q 1356 3278 1631 3431 
Q 1906 3584 2284 3584 
Q 2666 3584 2933 3390 
Q 3200 3197 3328 2828 
z
" id="DejaVuSans-6d" transform="scale(0.015625)"/>
       <path d="M 2834 3397 
L 2834 2853 
Q 2591 2978 2328 3040 
Q 2066 3103 1784 3103 
Q 1356 3103 1142 2972 
Q 928 2841 928 2578 
Q 928 2378 1081 2264 
Q 1234 2150 1697 2047 
L 1894 2003 
Q 2506 1872 2764 1633 
Q 3022 1394 3022 966 
Q 3022 478 2636 193 
Q 2250 -91 1575 -91 
Q 1294 -91 989 -36 
Q 684 19 347 128 
L 347 722 
Q 666 556 975 473 
Q 1284 391 1588 391 
Q 1994 391 2212 530 
Q 2431 669 2431 922 
Q 2431 1156 2273 1281 
Q 2116 1406 1581 1522 
L 1381 1569 
Q 847 1681 609 1914 
Q 372 2147 372 2553 
Q 372 3047 722 3315 
Q 1072 3584 1716 3584 
Q 2034 3584 2315 3537 
Q 2597 3491 2834 3397 
z
" id="DejaVuSans-73" transform="scale(0.015625)"/>
       <path d="M 628 4666 
L 1569 4666 
L 2759 1491 
L 3956 4666 
L 4897 4666 
L 4897 0 
L 4281 0 
L 4281 4097 
L 3078 897 
L 2444 897 
L 1241 4097 
L 1241 0 
L 628 0 
L 628 4666 
z
" id="DejaVuSans-4d" transform="scale(0.015625)"/>
      </defs>
      <use xlink:href="#DejaVuSans-43"/>
      <use x="69.824219" xlink:href="#DejaVuSans-61"/>
      <use x="131.103516" xlink:href="#DejaVuSans-72"/>
      <use x="172.216797" xlink:href="#DejaVuSans-62"/>
      <use x="235.693359" xlink:href="#DejaVuSans-6f"/>
      <use x="296.875" xlink:href="#DejaVuSans-6e"/>
      <use x="360.253906" xlink:href="#DejaVuSans-20"/>
      <use x="392.041016" xlink:href="#DejaVuSans-45"/>
      <use x="455.224609" xlink:href="#DejaVuSans-71"/>
      <use x="518.701172" xlink:href="#DejaVuSans-75"/>
      <use x="582.080078" xlink:href="#DejaVuSans-69"/>
      <use x="609.863281" xlink:href="#DejaVuSans-76"/>
      <use x="669.042969" xlink:href="#DejaVuSans-69"/>
      <use x="696.826172" xlink:href="#DejaVuSans-6c"/>
      <use x="724.609375" xlink:href="#DejaVuSans-65"/>
      <use x="786.132812" xlink:href="#DejaVuSans-6e"/>
      <use x="849.511719" xlink:href="#DejaVuSans-74"/>
      <use x="888.720703" xlink:href="#DejaVuSans-20"/>
      <use x="920.507812" xlink:href="#DejaVuSans-45"/>
      <use x="983.691406" xlink:href="#DejaVuSans-6d"/>
      <use x="1081.103516" xlink:href="#DejaVuSans-69"/>
      <use x="1108.886719" xlink:href="#DejaVuSans-73"/>
      <use x="1160.986328" xlink:href="#DejaVuSans-73"/>
      <use x="1213.085938" xlink:href="#DejaVuSans-69"/>
      <use x="1240.869141" xlink:href="#DejaVuSans-6f"/>
      <use x="1302.050781" xlink:href="#DejaVuSans-6e"/>
      <use x="1365.429688" xlink:href="#DejaVuSans-73"/>
      <use x="1417.529297" xlink:href="#DejaVuSans-20"/>
      <use x="1449.316406" xlink:href="#DejaVuSans-28"/>
      <use x="1488.330078" xlink:href="#DejaVuSans-4d"/>
      <use x="1574.609375" xlink:href="#DejaVuSans-74"/>
      <use x="1613.818359" xlink:href="#DejaVuSans-29"/>
     </g>
    </g>
   </g>
   <g id="patch_3">
    <path d="M 72 768.96 
L 72 103.68 
" style="fill:none;stroke:#000000;stroke-linecap:square;stroke-linejoin:miter;stroke-width:0.8;"/>
   </g>
   <g id="patch_4">
    <path d="M 518.4 768.96 
L 518.4 103.68 
" style="fill:none;stroke:#000000;stroke-linecap:square;stroke-linejoin:miter;stroke-width:0.8;"/>
   </g>
   <g id="patch_5">
    <path d="M 72 768.96 
L 518.4 768.96 
" style="fill:none;stroke:#000000;stroke-linecap:square;stroke-linejoin:miter;stroke-width:0.8;"/>
   </g>
   <g id="patch_6">
    <path d="M 72 103.68 
L 518.4 103.68 
" style="fill:none;stroke:#000000;stroke-linecap:square;stroke-linejoin:miter;stroke-width:0.8;"/>
   </g>
  </g>
 </g>
 <defs>
  <clipPath id="pe4a8a0efcb">
   <rect height="665.28" width="446.4" x="72" y="103.68"/>
  </clipPath>
 </defs>
</svg>
