<?xml version="1.0" encoding="utf-8" standalone="no"?>
<!DOCTYPE svg PUBLIC "-//W3C//DTD SVG 1.1//EN"
  "http://www.w3.org/Graphics/SVG/1.1/DTD/svg11.dtd">
<svg height="576pt" version="1.1" viewBox="0 0 432 576" width="432pt" xmlns="http://www.w3.org/2000/svg" xmlns:xlink="http://www.w3.org/1999/xlink">
 <metadata>
  <rdf:RDF xmlns:cc="http://creativecommons.org/ns#" xmlns:dc="http://purl.org/dc/elements/1.1/" xmlns:rdf="http://www.w3.org/1999/02/22-rdf-syntax-ns#">
   <cc:Work>
    <dc:type rdf:resource="http://purl.org/dc/dcmitype/StillImage"/>
    <dc:date>2021-06-15T10:29:19.689065</dc:date>
    <dc:format>image/svg+xml</dc:format>
    <dc:creator>
     <cc:Agent>
      <dc:title>Matplotlib v3.4.1, https://matplotlib.org/</dc:title>
     </cc:Agent>
    </dc:creator>
   </cc:Work>
  </rdf:RDF>
 </metadata>
 <defs>
  <style type="text/css">*{stroke-linecap:butt;stroke-linejoin:round;}</style>
 </defs>
 <g id="figure_1">
  <g id="patch_1">
   <path d="M 0 576 
L 432 576 
L 432 0 
L 0 0 
z
" style="fill:#ffffff;"/>
  </g>
  <g id="axes_1">
   <g id="patch_2">
    <path d="M 54 512.64 
L 388.8 512.64 
L 388.8 69.12 
L 54 69.12 
z
" style="fill:#ffffff;"/>
   </g>
   <g id="PolyCollection_1">
    <path clip-path="url(#p70e68e1c7c)" d="M 69.218182 356.970715 
L 69.218182 512.64 
L 72.292562 512.64 
L 75.366942 512.64 
L 78.441322 512.64 
L 81.515702 512.64 
L 84.590083 512.64 
L 87.664463 512.64 
L 90.738843 512.64 
L 93.813223 512.64 
L 96.887603 512.64 
L 99.961983 512.64 
L 103.036364 512.64 
L 106.110744 512.64 
L 109.185124 512.64 
L 112.259504 512.64 
L 115.333884 512.64 
L 118.408264 512.64 
L 121.482645 512.64 
L 124.557025 512.64 
L 127.631405 512.64 
L 130.705785 512.64 
L 133.780165 512.64 
L 136.854545 512.64 
L 139.928926 512.64 
L 143.003306 512.64 
L 146.077686 512.64 
L 149.152066 512.64 
L 152.226446 512.64 
L 155.300826 512.64 
L 158.375207 512.64 
L 161.449587 512.64 
L 164.523967 512.64 
L 167.598347 512.64 
L 170.672727 512.64 
L 173.747107 512.64 
L 176.821488 512.64 
L 179.895868 512.64 
L 182.970248 512.64 
L 186.044628 512.64 
L 189.119008 512.64 
L 192.193388 512.64 
L 195.267769 512.64 
L 198.342149 512.64 
L 201.416529 512.64 
L 204.490909 512.64 
L 207.565289 512.64 
L 210.639669 512.64 
L 213.71405 512.64 
L 216.78843 512.64 
L 219.86281 512.64 
L 222.93719 512.64 
L 226.01157 512.64 
L 229.08595 512.64 
L 232.160331 512.64 
L 235.234711 512.64 
L 238.309091 512.64 
L 241.383471 512.64 
L 244.457851 512.64 
L 247.532231 512.64 
L 250.606612 512.64 
L 253.680992 512.64 
L 256.755372 512.64 
L 259.829752 512.64 
L 262.904132 512.64 
L 265.978512 512.64 
L 269.052893 512.64 
L 272.127273 512.64 
L 275.201653 512.64 
L 278.276033 512.64 
L 281.350413 512.64 
L 284.424793 512.64 
L 287.499174 512.64 
L 290.573554 512.64 
L 293.647934 512.64 
L 296.722314 512.64 
L 299.796694 512.64 
L 302.871074 512.64 
L 305.945455 512.64 
L 309.019835 512.64 
L 312.094215 512.64 
L 315.168595 512.64 
L 318.242975 512.64 
L 321.317355 512.64 
L 324.391736 512.64 
L 327.466116 512.64 
L 330.540496 512.64 
L 333.614876 512.64 
L 336.689256 512.64 
L 339.763636 512.64 
L 342.838017 512.64 
L 345.912397 512.64 
L 348.986777 512.64 
L 352.061157 512.64 
L 355.135537 512.64 
L 358.209917 512.64 
L 361.284298 512.64 
L 364.358678 512.64 
L 367.433058 512.64 
L 370.507438 512.64 
L 373.581818 512.64 
L 373.581818 360.445664 
L 373.581818 360.445664 
L 370.507438 360.410564 
L 367.433058 360.375463 
L 364.358678 360.340363 
L 361.284298 360.305262 
L 358.209917 360.270162 
L 355.135537 360.235061 
L 352.061157 360.199961 
L 348.986777 360.16486 
L 345.912397 360.12976 
L 342.838017 360.094659 
L 339.763636 360.059559 
L 336.689256 360.024458 
L 333.614876 359.989358 
L 330.540496 359.954257 
L 327.466116 359.919157 
L 324.391736 359.884056 
L 321.317355 359.848956 
L 318.242975 359.813855 
L 315.168595 359.778755 
L 312.094215 359.743654 
L 309.019835 359.708554 
L 305.945455 359.673453 
L 302.871074 359.638353 
L 299.796694 359.603252 
L 296.722314 359.568152 
L 293.647934 359.533051 
L 290.573554 359.497951 
L 287.499174 359.46285 
L 284.424793 359.42775 
L 281.350413 359.392649 
L 278.276033 359.357549 
L 275.201653 359.322448 
L 272.127273 359.287348 
L 269.052893 359.252247 
L 265.978512 359.217147 
L 262.904132 359.182046 
L 259.829752 359.146946 
L 256.755372 359.111845 
L 253.680992 359.076745 
L 250.606612 359.041644 
L 247.532231 359.006544 
L 244.457851 358.971443 
L 241.383471 358.936343 
L 238.309091 358.901242 
L 235.234711 358.866142 
L 232.160331 358.831041 
L 229.08595 358.795941 
L 226.01157 358.76084 
L 222.93719 358.72574 
L 219.86281 358.690639 
L 216.78843 358.655539 
L 213.71405 358.620438 
L 210.639669 358.585338 
L 207.565289 358.550237 
L 204.490909 358.515137 
L 201.416529 358.480036 
L 198.342149 358.444936 
L 195.267769 358.409835 
L 192.193388 358.374735 
L 189.119008 358.339634 
L 186.044628 358.304534 
L 182.970248 358.269433 
L 179.895868 358.234333 
L 176.821488 358.199232 
L 173.747107 358.164132 
L 170.672727 358.129031 
L 167.598347 358.093931 
L 164.523967 358.05883 
L 161.449587 358.02373 
L 158.375207 357.988629 
L 155.300826 357.953529 
L 152.226446 357.918428 
L 149.152066 357.883328 
L 146.077686 357.848227 
L 143.003306 357.813127 
L 139.928926 357.778026 
L 136.854545 357.742926 
L 133.780165 357.707825 
L 130.705785 357.672725 
L 127.631405 357.637624 
L 124.557025 357.602524 
L 121.482645 357.567423 
L 118.408264 357.532323 
L 115.333884 357.497222 
L 112.259504 357.462122 
L 109.185124 357.427021 
L 106.110744 357.391921 
L 103.036364 357.35682 
L 99.961983 357.32172 
L 96.887603 357.286619 
L 93.813223 357.251519 
L 90.738843 357.216418 
L 87.664463 357.181318 
L 84.590083 357.146217 
L 81.515702 357.111117 
L 78.441322 357.076016 
L 75.366942 357.040916 
L 72.292562 357.005816 
L 69.218182 356.970715 
z
" style="fill:#3182bd;"/>
   </g>
   <g id="PolyCollection_2">
    <path clip-path="url(#p70e68e1c7c)" d="M 69.218182 96.784415 
L 69.218182 356.970715 
L 72.292562 357.005816 
L 75.366942 357.040916 
L 78.441322 357.076016 
L 81.515702 357.111117 
L 84.590083 357.146217 
L 87.664463 357.181318 
L 90.738843 357.216418 
L 93.813223 357.251519 
L 96.887603 357.286619 
L 99.961983 357.32172 
L 103.036364 357.35682 
L 106.110744 357.391921 
L 109.185124 357.427021 
L 112.259504 357.462122 
L 115.333884 357.497222 
L 118.408264 357.532323 
L 121.482645 357.567423 
L 124.557025 357.602524 
L 127.631405 357.637624 
L 130.705785 357.672725 
L 133.780165 357.707825 
L 136.854545 357.742926 
L 139.928926 357.778026 
L 143.003306 357.813127 
L 146.077686 357.848227 
L 149.152066 357.883328 
L 152.226446 357.918428 
L 155.300826 357.953529 
L 158.375207 357.988629 
L 161.449587 358.02373 
L 164.523967 358.05883 
L 167.598347 358.093931 
L 170.672727 358.129031 
L 173.747107 358.164132 
L 176.821488 358.199232 
L 179.895868 358.234333 
L 182.970248 358.269433 
L 186.044628 358.304534 
L 189.119008 358.339634 
L 192.193388 358.374735 
L 195.267769 358.409835 
L 198.342149 358.444936 
L 201.416529 358.480036 
L 204.490909 358.515137 
L 207.565289 358.550237 
L 210.639669 358.585338 
L 213.71405 358.620438 
L 216.78843 358.655539 
L 219.86281 358.690639 
L 222.93719 358.72574 
L 226.01157 358.76084 
L 229.08595 358.795941 
L 232.160331 358.831041 
L 235.234711 358.866142 
L 238.309091 358.901242 
L 241.383471 358.936343 
L 244.457851 358.971443 
L 247.532231 359.006544 
L 250.606612 359.041644 
L 253.680992 359.076745 
L 256.755372 359.111845 
L 259.829752 359.146946 
L 262.904132 359.182046 
L 265.978512 359.217147 
L 269.052893 359.252247 
L 272.127273 359.287348 
L 275.201653 359.322448 
L 278.276033 359.357549 
L 281.350413 359.392649 
L 284.424793 359.42775 
L 287.499174 359.46285 
L 290.573554 359.497951 
L 293.647934 359.533051 
L 296.722314 359.568152 
L 299.796694 359.603252 
L 302.871074 359.638353 
L 305.945455 359.673453 
L 309.019835 359.708554 
L 312.094215 359.743654 
L 315.168595 359.778755 
L 318.242975 359.813855 
L 321.317355 359.848956 
L 324.391736 359.884056 
L 327.466116 359.919157 
L 330.540496 359.954257 
L 333.614876 359.989358 
L 336.689256 360.024458 
L 339.763636 360.059559 
L 342.838017 360.094659 
L 345.912397 360.12976 
L 348.986777 360.16486 
L 352.061157 360.199961 
L 355.135537 360.235061 
L 358.209917 360.270162 
L 361.284298 360.305262 
L 364.358678 360.340363 
L 367.433058 360.375463 
L 370.507438 360.410564 
L 373.581818 360.445664 
L 373.581818 100.259364 
L 373.581818 100.259364 
L 370.507438 100.224263 
L 367.433058 100.189163 
L 364.358678 100.154062 
L 361.284298 100.118962 
L 358.209917 100.083861 
L 355.135537 100.048761 
L 352.061157 100.01366 
L 348.986777 99.97856 
L 345.912397 99.943459 
L 342.838017 99.908359 
L 339.763636 99.873258 
L 336.689256 99.838158 
L 333.614876 99.803057 
L 330.540496 99.767957 
L 327.466116 99.732856 
L 324.391736 99.697756 
L 321.317355 99.662655 
L 318.242975 99.627555 
L 315.168595 99.592455 
L 312.094215 99.557354 
L 309.019835 99.522254 
L 305.945455 99.487153 
L 302.871074 99.452053 
L 299.796694 99.416952 
L 296.722314 99.381852 
L 293.647934 99.346751 
L 290.573554 99.311651 
L 287.499174 99.27655 
L 284.424793 99.24145 
L 281.350413 99.206349 
L 278.276033 99.171249 
L 275.201653 99.136148 
L 272.127273 99.101048 
L 269.052893 99.065947 
L 265.978512 99.030847 
L 262.904132 98.995746 
L 259.829752 98.960646 
L 256.755372 98.925545 
L 253.680992 98.890445 
L 250.606612 98.855344 
L 247.532231 98.820244 
L 244.457851 98.785143 
L 241.383471 98.750043 
L 238.309091 98.714942 
L 235.234711 98.679842 
L 232.160331 98.644741 
L 229.08595 98.609641 
L 226.01157 98.57454 
L 222.93719 98.53944 
L 219.86281 98.504339 
L 216.78843 98.469239 
L 213.71405 98.434138 
L 210.639669 98.399038 
L 207.565289 98.363937 
L 204.490909 98.328837 
L 201.416529 98.293736 
L 198.342149 98.258636 
L 195.267769 98.223535 
L 192.193388 98.188435 
L 189.119008 98.153334 
L 186.044628 98.118234 
L 182.970248 98.083133 
L 179.895868 98.048033 
L 176.821488 98.012932 
L 173.747107 97.977832 
L 170.672727 97.942731 
L 167.598347 97.907631 
L 164.523967 97.87253 
L 161.449587 97.83743 
L 158.375207 97.802329 
L 155.300826 97.767229 
L 152.226446 97.732128 
L 149.152066 97.697028 
L 146.077686 97.661927 
L 143.003306 97.626827 
L 139.928926 97.591726 
L 136.854545 97.556626 
L 133.780165 97.521525 
L 130.705785 97.486425 
L 127.631405 97.451324 
L 124.557025 97.416224 
L 121.482645 97.381123 
L 118.408264 97.346023 
L 115.333884 97.310922 
L 112.259504 97.275822 
L 109.185124 97.240721 
L 106.110744 97.205621 
L 103.036364 97.17052 
L 99.961983 97.13542 
L 96.887603 97.100319 
L 93.813223 97.065219 
L 90.738843 97.030118 
L 87.664463 96.995018 
L 84.590083 96.959917 
L 81.515702 96.924817 
L 78.441322 96.889716 
L 75.366942 96.854616 
L 72.292562 96.819515 
L 69.218182 96.784415 
z
" style="fill:#6baed6;"/>
   </g>
   <g id="PolyCollection_3">
    <path clip-path="url(#p70e68e1c7c)" d="M 69.218182 96.666602 
L 69.218182 96.784415 
L 72.292562 96.819515 
L 75.366942 96.854616 
L 78.441322 96.889716 
L 81.515702 96.924817 
L 84.590083 96.959917 
L 87.664463 96.995018 
L 90.738843 97.030118 
L 93.813223 97.065219 
L 96.887603 97.100319 
L 99.961983 97.13542 
L 103.036364 97.17052 
L 106.110744 97.205621 
L 109.185124 97.240721 
L 112.259504 97.275822 
L 115.333884 97.310922 
L 118.408264 97.346023 
L 121.482645 97.381123 
L 124.557025 97.416224 
L 127.631405 97.451324 
L 130.705785 97.486425 
L 133.780165 97.521525 
L 136.854545 97.556626 
L 139.928926 97.591726 
L 143.003306 97.626827 
L 146.077686 97.661927 
L 149.152066 97.697028 
L 152.226446 97.732128 
L 155.300826 97.767229 
L 158.375207 97.802329 
L 161.449587 97.83743 
L 164.523967 97.87253 
L 167.598347 97.907631 
L 170.672727 97.942731 
L 173.747107 97.977832 
L 176.821488 98.012932 
L 179.895868 98.048033 
L 182.970248 98.083133 
L 186.044628 98.118234 
L 189.119008 98.153334 
L 192.193388 98.188435 
L 195.267769 98.223535 
L 198.342149 98.258636 
L 201.416529 98.293736 
L 204.490909 98.328837 
L 207.565289 98.363937 
L 210.639669 98.399038 
L 213.71405 98.434138 
L 216.78843 98.469239 
L 219.86281 98.504339 
L 222.93719 98.53944 
L 226.01157 98.57454 
L 229.08595 98.609641 
L 232.160331 98.644741 
L 235.234711 98.679842 
L 238.309091 98.714942 
L 241.383471 98.750043 
L 244.457851 98.785143 
L 247.532231 98.820244 
L 250.606612 98.855344 
L 253.680992 98.890445 
L 256.755372 98.925545 
L 259.829752 98.960646 
L 262.904132 98.995746 
L 265.978512 99.030847 
L 269.052893 99.065947 
L 272.127273 99.101048 
L 275.201653 99.136148 
L 278.276033 99.171249 
L 281.350413 99.206349 
L 284.424793 99.24145 
L 287.499174 99.27655 
L 290.573554 99.311651 
L 293.647934 99.346751 
L 296.722314 99.381852 
L 299.796694 99.416952 
L 302.871074 99.452053 
L 305.945455 99.487153 
L 309.019835 99.522254 
L 312.094215 99.557354 
L 315.168595 99.592455 
L 318.242975 99.627555 
L 321.317355 99.662655 
L 324.391736 99.697756 
L 327.466116 99.732856 
L 330.540496 99.767957 
L 333.614876 99.803057 
L 336.689256 99.838158 
L 339.763636 99.873258 
L 342.838017 99.908359 
L 345.912397 99.943459 
L 348.986777 99.97856 
L 352.061157 100.01366 
L 355.135537 100.048761 
L 358.209917 100.083861 
L 361.284298 100.118962 
L 364.358678 100.154062 
L 367.433058 100.189163 
L 370.507438 100.224263 
L 373.581818 100.259364 
L 373.581818 100.141551 
L 373.581818 100.141551 
L 370.507438 100.106451 
L 367.433058 100.07135 
L 364.358678 100.03625 
L 361.284298 100.001149 
L 358.209917 99.966049 
L 355.135537 99.930948 
L 352.061157 99.895848 
L 348.986777 99.860747 
L 345.912397 99.825647 
L 342.838017 99.790546 
L 339.763636 99.755446 
L 336.689256 99.720345 
L 333.614876 99.685245 
L 330.540496 99.650144 
L 327.466116 99.615044 
L 324.391736 99.579943 
L 321.317355 99.544843 
L 318.242975 99.509742 
L 315.168595 99.474642 
L 312.094215 99.439541 
L 309.019835 99.404441 
L 305.945455 99.36934 
L 302.871074 99.33424 
L 299.796694 99.299139 
L 296.722314 99.264039 
L 293.647934 99.228938 
L 290.573554 99.193838 
L 287.499174 99.158737 
L 284.424793 99.123637 
L 281.350413 99.088536 
L 278.276033 99.053436 
L 275.201653 99.018335 
L 272.127273 98.983235 
L 269.052893 98.948134 
L 265.978512 98.913034 
L 262.904132 98.877933 
L 259.829752 98.842833 
L 256.755372 98.807732 
L 253.680992 98.772632 
L 250.606612 98.737531 
L 247.532231 98.702431 
L 244.457851 98.66733 
L 241.383471 98.63223 
L 238.309091 98.597129 
L 235.234711 98.562029 
L 232.160331 98.526928 
L 229.08595 98.491828 
L 226.01157 98.456727 
L 222.93719 98.421627 
L 219.86281 98.386526 
L 216.78843 98.351426 
L 213.71405 98.316325 
L 210.639669 98.281225 
L 207.565289 98.246124 
L 204.490909 98.211024 
L 201.416529 98.175923 
L 198.342149 98.140823 
L 195.267769 98.105722 
L 192.193388 98.070622 
L 189.119008 98.035521 
L 186.044628 98.000421 
L 182.970248 97.96532 
L 179.895868 97.93022 
L 176.821488 97.895119 
L 173.747107 97.860019 
L 170.672727 97.824918 
L 167.598347 97.789818 
L 164.523967 97.754717 
L 161.449587 97.719617 
L 158.375207 97.684517 
L 155.300826 97.649416 
L 152.226446 97.614316 
L 149.152066 97.579215 
L 146.077686 97.544115 
L 143.003306 97.509014 
L 139.928926 97.473914 
L 136.854545 97.438813 
L 133.780165 97.403713 
L 130.705785 97.368612 
L 127.631405 97.333512 
L 124.557025 97.298411 
L 121.482645 97.263311 
L 118.408264 97.22821 
L 115.333884 97.19311 
L 112.259504 97.158009 
L 109.185124 97.122909 
L 106.110744 97.087808 
L 103.036364 97.052708 
L 99.961983 97.017607 
L 96.887603 96.982507 
L 93.813223 96.947406 
L 90.738843 96.912306 
L 87.664463 96.877205 
L 84.590083 96.842105 
L 81.515702 96.807004 
L 78.441322 96.771904 
L 75.366942 96.736803 
L 72.292562 96.701703 
L 69.218182 96.666602 
z
" style="fill:#9ecae1;"/>
   </g>
   <g id="PolyCollection_4">
    <path clip-path="url(#p70e68e1c7c)" d="M 69.218182 96.523522 
L 69.218182 96.666602 
L 72.292562 96.701703 
L 75.366942 96.736803 
L 78.441322 96.771904 
L 81.515702 96.807004 
L 84.590083 96.842105 
L 87.664463 96.877205 
L 90.738843 96.912306 
L 93.813223 96.947406 
L 96.887603 96.982507 
L 99.961983 97.017607 
L 103.036364 97.052708 
L 106.110744 97.087808 
L 109.185124 97.122909 
L 112.259504 97.158009 
L 115.333884 97.19311 
L 118.408264 97.22821 
L 121.482645 97.263311 
L 124.557025 97.298411 
L 127.631405 97.333512 
L 130.705785 97.368612 
L 133.780165 97.403713 
L 136.854545 97.438813 
L 139.928926 97.473914 
L 143.003306 97.509014 
L 146.077686 97.544115 
L 149.152066 97.579215 
L 152.226446 97.614316 
L 155.300826 97.649416 
L 158.375207 97.684517 
L 161.449587 97.719617 
L 164.523967 97.754717 
L 167.598347 97.789818 
L 170.672727 97.824918 
L 173.747107 97.860019 
L 176.821488 97.895119 
L 179.895868 97.93022 
L 182.970248 97.96532 
L 186.044628 98.000421 
L 189.119008 98.035521 
L 192.193388 98.070622 
L 195.267769 98.105722 
L 198.342149 98.140823 
L 201.416529 98.175923 
L 204.490909 98.211024 
L 207.565289 98.246124 
L 210.639669 98.281225 
L 213.71405 98.316325 
L 216.78843 98.351426 
L 219.86281 98.386526 
L 222.93719 98.421627 
L 226.01157 98.456727 
L 229.08595 98.491828 
L 232.160331 98.526928 
L 235.234711 98.562029 
L 238.309091 98.597129 
L 241.383471 98.63223 
L 244.457851 98.66733 
L 247.532231 98.702431 
L 250.606612 98.737531 
L 253.680992 98.772632 
L 256.755372 98.807732 
L 259.829752 98.842833 
L 262.904132 98.877933 
L 265.978512 98.913034 
L 269.052893 98.948134 
L 272.127273 98.983235 
L 275.201653 99.018335 
L 278.276033 99.053436 
L 281.350413 99.088536 
L 284.424793 99.123637 
L 287.499174 99.158737 
L 290.573554 99.193838 
L 293.647934 99.228938 
L 296.722314 99.264039 
L 299.796694 99.299139 
L 302.871074 99.33424 
L 305.945455 99.36934 
L 309.019835 99.404441 
L 312.094215 99.439541 
L 315.168595 99.474642 
L 318.242975 99.509742 
L 321.317355 99.544843 
L 324.391736 99.579943 
L 327.466116 99.615044 
L 330.540496 99.650144 
L 333.614876 99.685245 
L 336.689256 99.720345 
L 339.763636 99.755446 
L 342.838017 99.790546 
L 345.912397 99.825647 
L 348.986777 99.860747 
L 352.061157 99.895848 
L 355.135537 99.930948 
L 358.209917 99.966049 
L 361.284298 100.001149 
L 364.358678 100.03625 
L 367.433058 100.07135 
L 370.507438 100.106451 
L 373.581818 100.141551 
L 373.581818 99.998471 
L 373.581818 99.998471 
L 370.507438 99.963371 
L 367.433058 99.92827 
L 364.358678 99.89317 
L 361.284298 99.858069 
L 358.209917 99.822969 
L 355.135537 99.787868 
L 352.061157 99.752768 
L 348.986777 99.717667 
L 345.912397 99.682567 
L 342.838017 99.647466 
L 339.763636 99.612366 
L 336.689256 99.577265 
L 333.614876 99.542165 
L 330.540496 99.507064 
L 327.466116 99.471964 
L 324.391736 99.436863 
L 321.317355 99.401763 
L 318.242975 99.366662 
L 315.168595 99.331562 
L 312.094215 99.296462 
L 309.019835 99.261361 
L 305.945455 99.226261 
L 302.871074 99.19116 
L 299.796694 99.15606 
L 296.722314 99.120959 
L 293.647934 99.085859 
L 290.573554 99.050758 
L 287.499174 99.015658 
L 284.424793 98.980557 
L 281.350413 98.945457 
L 278.276033 98.910356 
L 275.201653 98.875256 
L 272.127273 98.840155 
L 269.052893 98.805055 
L 265.978512 98.769954 
L 262.904132 98.734854 
L 259.829752 98.699753 
L 256.755372 98.664653 
L 253.680992 98.629552 
L 250.606612 98.594452 
L 247.532231 98.559351 
L 244.457851 98.524251 
L 241.383471 98.48915 
L 238.309091 98.45405 
L 235.234711 98.418949 
L 232.160331 98.383849 
L 229.08595 98.348748 
L 226.01157 98.313648 
L 222.93719 98.278547 
L 219.86281 98.243447 
L 216.78843 98.208346 
L 213.71405 98.173246 
L 210.639669 98.138145 
L 207.565289 98.103045 
L 204.490909 98.067944 
L 201.416529 98.032844 
L 198.342149 97.997743 
L 195.267769 97.962643 
L 192.193388 97.927542 
L 189.119008 97.892442 
L 186.044628 97.857341 
L 182.970248 97.822241 
L 179.895868 97.78714 
L 176.821488 97.75204 
L 173.747107 97.716939 
L 170.672727 97.681839 
L 167.598347 97.646738 
L 164.523967 97.611638 
L 161.449587 97.576537 
L 158.375207 97.541437 
L 155.300826 97.506336 
L 152.226446 97.471236 
L 149.152066 97.436135 
L 146.077686 97.401035 
L 143.003306 97.365934 
L 139.928926 97.330834 
L 136.854545 97.295733 
L 133.780165 97.260633 
L 130.705785 97.225532 
L 127.631405 97.190432 
L 124.557025 97.155331 
L 121.482645 97.120231 
L 118.408264 97.08513 
L 115.333884 97.05003 
L 112.259504 97.014929 
L 109.185124 96.979829 
L 106.110744 96.944728 
L 103.036364 96.909628 
L 99.961983 96.874527 
L 96.887603 96.839427 
L 93.813223 96.804326 
L 90.738843 96.769226 
L 87.664463 96.734125 
L 84.590083 96.699025 
L 81.515702 96.663924 
L 78.441322 96.628824 
L 75.366942 96.593723 
L 72.292562 96.558623 
L 69.218182 96.523522 
z
" style="fill:#c6dbef;"/>
   </g>
   <g id="PolyCollection_5">
    <path clip-path="url(#p70e68e1c7c)" d="M 69.218182 96.047185 
L 69.218182 96.523522 
L 72.292562 96.558623 
L 75.366942 96.593723 
L 78.441322 96.628824 
L 81.515702 96.663924 
L 84.590083 96.699025 
L 87.664463 96.734125 
L 90.738843 96.769226 
L 93.813223 96.804326 
L 96.887603 96.839427 
L 99.961983 96.874527 
L 103.036364 96.909628 
L 106.110744 96.944728 
L 109.185124 96.979829 
L 112.259504 97.014929 
L 115.333884 97.05003 
L 118.408264 97.08513 
L 121.482645 97.120231 
L 124.557025 97.155331 
L 127.631405 97.190432 
L 130.705785 97.225532 
L 133.780165 97.260633 
L 136.854545 97.295733 
L 139.928926 97.330834 
L 143.003306 97.365934 
L 146.077686 97.401035 
L 149.152066 97.436135 
L 152.226446 97.471236 
L 155.300826 97.506336 
L 158.375207 97.541437 
L 161.449587 97.576537 
L 164.523967 97.611638 
L 167.598347 97.646738 
L 170.672727 97.681839 
L 173.747107 97.716939 
L 176.821488 97.75204 
L 179.895868 97.78714 
L 182.970248 97.822241 
L 186.044628 97.857341 
L 189.119008 97.892442 
L 192.193388 97.927542 
L 195.267769 97.962643 
L 198.342149 97.997743 
L 201.416529 98.032844 
L 204.490909 98.067944 
L 207.565289 98.103045 
L 210.639669 98.138145 
L 213.71405 98.173246 
L 216.78843 98.208346 
L 219.86281 98.243447 
L 222.93719 98.278547 
L 226.01157 98.313648 
L 229.08595 98.348748 
L 232.160331 98.383849 
L 235.234711 98.418949 
L 238.309091 98.45405 
L 241.383471 98.48915 
L 244.457851 98.524251 
L 247.532231 98.559351 
L 250.606612 98.594452 
L 253.680992 98.629552 
L 256.755372 98.664653 
L 259.829752 98.699753 
L 262.904132 98.734854 
L 265.978512 98.769954 
L 269.052893 98.805055 
L 272.127273 98.840155 
L 275.201653 98.875256 
L 278.276033 98.910356 
L 281.350413 98.945457 
L 284.424793 98.980557 
L 287.499174 99.015658 
L 290.573554 99.050758 
L 293.647934 99.085859 
L 296.722314 99.120959 
L 299.796694 99.15606 
L 302.871074 99.19116 
L 305.945455 99.226261 
L 309.019835 99.261361 
L 312.094215 99.296462 
L 315.168595 99.331562 
L 318.242975 99.366662 
L 321.317355 99.401763 
L 324.391736 99.436863 
L 327.466116 99.471964 
L 330.540496 99.507064 
L 333.614876 99.542165 
L 336.689256 99.577265 
L 339.763636 99.612366 
L 342.838017 99.647466 
L 345.912397 99.682567 
L 348.986777 99.717667 
L 352.061157 99.752768 
L 355.135537 99.787868 
L 358.209917 99.822969 
L 361.284298 99.858069 
L 364.358678 99.89317 
L 367.433058 99.92827 
L 370.507438 99.963371 
L 373.581818 99.998471 
L 373.581818 99.522134 
L 373.581818 99.522134 
L 370.507438 99.487034 
L 367.433058 99.451933 
L 364.358678 99.416833 
L 361.284298 99.381732 
L 358.209917 99.346632 
L 355.135537 99.311531 
L 352.061157 99.276431 
L 348.986777 99.24133 
L 345.912397 99.20623 
L 342.838017 99.171129 
L 339.763636 99.136029 
L 336.689256 99.100928 
L 333.614876 99.065828 
L 330.540496 99.030727 
L 327.466116 98.995627 
L 324.391736 98.960526 
L 321.317355 98.925426 
L 318.242975 98.890325 
L 315.168595 98.855225 
L 312.094215 98.820124 
L 309.019835 98.785024 
L 305.945455 98.749923 
L 302.871074 98.714823 
L 299.796694 98.679722 
L 296.722314 98.644622 
L 293.647934 98.609521 
L 290.573554 98.574421 
L 287.499174 98.53932 
L 284.424793 98.50422 
L 281.350413 98.469119 
L 278.276033 98.434019 
L 275.201653 98.398918 
L 272.127273 98.363818 
L 269.052893 98.328717 
L 265.978512 98.293617 
L 262.904132 98.258516 
L 259.829752 98.223416 
L 256.755372 98.188315 
L 253.680992 98.153215 
L 250.606612 98.118114 
L 247.532231 98.083014 
L 244.457851 98.047913 
L 241.383471 98.012813 
L 238.309091 97.977713 
L 235.234711 97.942612 
L 232.160331 97.907512 
L 229.08595 97.872411 
L 226.01157 97.837311 
L 222.93719 97.80221 
L 219.86281 97.76711 
L 216.78843 97.732009 
L 213.71405 97.696909 
L 210.639669 97.661808 
L 207.565289 97.626708 
L 204.490909 97.591607 
L 201.416529 97.556507 
L 198.342149 97.521406 
L 195.267769 97.486306 
L 192.193388 97.451205 
L 189.119008 97.416105 
L 186.044628 97.381004 
L 182.970248 97.345904 
L 179.895868 97.310803 
L 176.821488 97.275703 
L 173.747107 97.240602 
L 170.672727 97.205502 
L 167.598347 97.170401 
L 164.523967 97.135301 
L 161.449587 97.1002 
L 158.375207 97.0651 
L 155.300826 97.029999 
L 152.226446 96.994899 
L 149.152066 96.959798 
L 146.077686 96.924698 
L 143.003306 96.889597 
L 139.928926 96.854497 
L 136.854545 96.819396 
L 133.780165 96.784296 
L 130.705785 96.749195 
L 127.631405 96.714095 
L 124.557025 96.678994 
L 121.482645 96.643894 
L 118.408264 96.608793 
L 115.333884 96.573693 
L 112.259504 96.538592 
L 109.185124 96.503492 
L 106.110744 96.468391 
L 103.036364 96.433291 
L 99.961983 96.39819 
L 96.887603 96.36309 
L 93.813223 96.327989 
L 90.738843 96.292889 
L 87.664463 96.257788 
L 84.590083 96.222688 
L 81.515702 96.187587 
L 78.441322 96.152487 
L 75.366942 96.117386 
L 72.292562 96.082286 
L 69.218182 96.047185 
z
" style="fill:#e6550d;"/>
   </g>
   <g id="PolyCollection_6">
    <path clip-path="url(#p70e68e1c7c)" d="M 69.218182 95.470831 
L 69.218182 96.047185 
L 72.292562 96.082286 
L 75.366942 96.117386 
L 78.441322 96.152487 
L 81.515702 96.187587 
L 84.590083 96.222688 
L 87.664463 96.257788 
L 90.738843 96.292889 
L 93.813223 96.327989 
L 96.887603 96.36309 
L 99.961983 96.39819 
L 103.036364 96.433291 
L 106.110744 96.468391 
L 109.185124 96.503492 
L 112.259504 96.538592 
L 115.333884 96.573693 
L 118.408264 96.608793 
L 121.482645 96.643894 
L 124.557025 96.678994 
L 127.631405 96.714095 
L 130.705785 96.749195 
L 133.780165 96.784296 
L 136.854545 96.819396 
L 139.928926 96.854497 
L 143.003306 96.889597 
L 146.077686 96.924698 
L 149.152066 96.959798 
L 152.226446 96.994899 
L 155.300826 97.029999 
L 158.375207 97.0651 
L 161.449587 97.1002 
L 164.523967 97.135301 
L 167.598347 97.170401 
L 170.672727 97.205502 
L 173.747107 97.240602 
L 176.821488 97.275703 
L 179.895868 97.310803 
L 182.970248 97.345904 
L 186.044628 97.381004 
L 189.119008 97.416105 
L 192.193388 97.451205 
L 195.267769 97.486306 
L 198.342149 97.521406 
L 201.416529 97.556507 
L 204.490909 97.591607 
L 207.565289 97.626708 
L 210.639669 97.661808 
L 213.71405 97.696909 
L 216.78843 97.732009 
L 219.86281 97.76711 
L 222.93719 97.80221 
L 226.01157 97.837311 
L 229.08595 97.872411 
L 232.160331 97.907512 
L 235.234711 97.942612 
L 238.309091 97.977713 
L 241.383471 98.012813 
L 244.457851 98.047913 
L 247.532231 98.083014 
L 250.606612 98.118114 
L 253.680992 98.153215 
L 256.755372 98.188315 
L 259.829752 98.223416 
L 262.904132 98.258516 
L 265.978512 98.293617 
L 269.052893 98.328717 
L 272.127273 98.363818 
L 275.201653 98.398918 
L 278.276033 98.434019 
L 281.350413 98.469119 
L 284.424793 98.50422 
L 287.499174 98.53932 
L 290.573554 98.574421 
L 293.647934 98.609521 
L 296.722314 98.644622 
L 299.796694 98.679722 
L 302.871074 98.714823 
L 305.945455 98.749923 
L 309.019835 98.785024 
L 312.094215 98.820124 
L 315.168595 98.855225 
L 318.242975 98.890325 
L 321.317355 98.925426 
L 324.391736 98.960526 
L 327.466116 98.995627 
L 330.540496 99.030727 
L 333.614876 99.065828 
L 336.689256 99.100928 
L 339.763636 99.136029 
L 342.838017 99.171129 
L 345.912397 99.20623 
L 348.986777 99.24133 
L 352.061157 99.276431 
L 355.135537 99.311531 
L 358.209917 99.346632 
L 361.284298 99.381732 
L 364.358678 99.416833 
L 367.433058 99.451933 
L 370.507438 99.487034 
L 373.581818 99.522134 
L 373.581818 98.94578 
L 373.581818 98.94578 
L 370.507438 98.91068 
L 367.433058 98.875579 
L 364.358678 98.840479 
L 361.284298 98.805378 
L 358.209917 98.770278 
L 355.135537 98.735177 
L 352.061157 98.700077 
L 348.986777 98.664976 
L 345.912397 98.629876 
L 342.838017 98.594775 
L 339.763636 98.559675 
L 336.689256 98.524574 
L 333.614876 98.489474 
L 330.540496 98.454373 
L 327.466116 98.419273 
L 324.391736 98.384172 
L 321.317355 98.349072 
L 318.242975 98.313971 
L 315.168595 98.278871 
L 312.094215 98.24377 
L 309.019835 98.20867 
L 305.945455 98.173569 
L 302.871074 98.138469 
L 299.796694 98.103368 
L 296.722314 98.068268 
L 293.647934 98.033167 
L 290.573554 97.998067 
L 287.499174 97.962966 
L 284.424793 97.927866 
L 281.350413 97.892765 
L 278.276033 97.857665 
L 275.201653 97.822564 
L 272.127273 97.787464 
L 269.052893 97.752364 
L 265.978512 97.717263 
L 262.904132 97.682163 
L 259.829752 97.647062 
L 256.755372 97.611962 
L 253.680992 97.576861 
L 250.606612 97.541761 
L 247.532231 97.50666 
L 244.457851 97.47156 
L 241.383471 97.436459 
L 238.309091 97.401359 
L 235.234711 97.366258 
L 232.160331 97.331158 
L 229.08595 97.296057 
L 226.01157 97.260957 
L 222.93719 97.225856 
L 219.86281 97.190756 
L 216.78843 97.155655 
L 213.71405 97.120555 
L 210.639669 97.085454 
L 207.565289 97.050354 
L 204.490909 97.015253 
L 201.416529 96.980153 
L 198.342149 96.945052 
L 195.267769 96.909952 
L 192.193388 96.874851 
L 189.119008 96.839751 
L 186.044628 96.80465 
L 182.970248 96.76955 
L 179.895868 96.734449 
L 176.821488 96.699349 
L 173.747107 96.664248 
L 170.672727 96.629148 
L 167.598347 96.594047 
L 164.523967 96.558947 
L 161.449587 96.523846 
L 158.375207 96.488746 
L 155.300826 96.453645 
L 152.226446 96.418545 
L 149.152066 96.383444 
L 146.077686 96.348344 
L 143.003306 96.313243 
L 139.928926 96.278143 
L 136.854545 96.243042 
L 133.780165 96.207942 
L 130.705785 96.172841 
L 127.631405 96.137741 
L 124.557025 96.10264 
L 121.482645 96.06754 
L 118.408264 96.032439 
L 115.333884 95.997339 
L 112.259504 95.962238 
L 109.185124 95.927138 
L 106.110744 95.892037 
L 103.036364 95.856937 
L 99.961983 95.821836 
L 96.887603 95.786736 
L 93.813223 95.751635 
L 90.738843 95.716535 
L 87.664463 95.681434 
L 84.590083 95.646334 
L 81.515702 95.611233 
L 78.441322 95.576133 
L 75.366942 95.541032 
L 72.292562 95.505932 
L 69.218182 95.470831 
z
" style="fill:#fd8d3c;"/>
   </g>
   <g id="PolyCollection_7">
    <path clip-path="url(#p70e68e1c7c)" d="M 69.218182 94.324187 
L 69.218182 95.470831 
L 72.292562 95.505932 
L 75.366942 95.541032 
L 78.441322 95.576133 
L 81.515702 95.611233 
L 84.590083 95.646334 
L 87.664463 95.681434 
L 90.738843 95.716535 
L 93.813223 95.751635 
L 96.887603 95.786736 
L 99.961983 95.821836 
L 103.036364 95.856937 
L 106.110744 95.892037 
L 109.185124 95.927138 
L 112.259504 95.962238 
L 115.333884 95.997339 
L 118.408264 96.032439 
L 121.482645 96.06754 
L 124.557025 96.10264 
L 127.631405 96.137741 
L 130.705785 96.172841 
L 133.780165 96.207942 
L 136.854545 96.243042 
L 139.928926 96.278143 
L 143.003306 96.313243 
L 146.077686 96.348344 
L 149.152066 96.383444 
L 152.226446 96.418545 
L 155.300826 96.453645 
L 158.375207 96.488746 
L 161.449587 96.523846 
L 164.523967 96.558947 
L 167.598347 96.594047 
L 170.672727 96.629148 
L 173.747107 96.664248 
L 176.821488 96.699349 
L 179.895868 96.734449 
L 182.970248 96.76955 
L 186.044628 96.80465 
L 189.119008 96.839751 
L 192.193388 96.874851 
L 195.267769 96.909952 
L 198.342149 96.945052 
L 201.416529 96.980153 
L 204.490909 97.015253 
L 207.565289 97.050354 
L 210.639669 97.085454 
L 213.71405 97.120555 
L 216.78843 97.155655 
L 219.86281 97.190756 
L 222.93719 97.225856 
L 226.01157 97.260957 
L 229.08595 97.296057 
L 232.160331 97.331158 
L 235.234711 97.366258 
L 238.309091 97.401359 
L 241.383471 97.436459 
L 244.457851 97.47156 
L 247.532231 97.50666 
L 250.606612 97.541761 
L 253.680992 97.576861 
L 256.755372 97.611962 
L 259.829752 97.647062 
L 262.904132 97.682163 
L 265.978512 97.717263 
L 269.052893 97.752364 
L 272.127273 97.787464 
L 275.201653 97.822564 
L 278.276033 97.857665 
L 281.350413 97.892765 
L 284.424793 97.927866 
L 287.499174 97.962966 
L 290.573554 97.998067 
L 293.647934 98.033167 
L 296.722314 98.068268 
L 299.796694 98.103368 
L 302.871074 98.138469 
L 305.945455 98.173569 
L 309.019835 98.20867 
L 312.094215 98.24377 
L 315.168595 98.278871 
L 318.242975 98.313971 
L 321.317355 98.349072 
L 324.391736 98.384172 
L 327.466116 98.419273 
L 330.540496 98.454373 
L 333.614876 98.489474 
L 336.689256 98.524574 
L 339.763636 98.559675 
L 342.838017 98.594775 
L 345.912397 98.629876 
L 348.986777 98.664976 
L 352.061157 98.700077 
L 355.135537 98.735177 
L 358.209917 98.770278 
L 361.284298 98.805378 
L 364.358678 98.840479 
L 367.433058 98.875579 
L 370.507438 98.91068 
L 373.581818 98.94578 
L 373.581818 98.94578 
L 373.581818 98.94578 
L 370.507438 98.899098 
L 367.433058 98.852415 
L 364.358678 98.805732 
L 361.284298 98.759049 
L 358.209917 98.712367 
L 355.135537 98.665684 
L 352.061157 98.619001 
L 348.986777 98.572318 
L 345.912397 98.525636 
L 342.838017 98.478953 
L 339.763636 98.43227 
L 336.689256 98.385587 
L 333.614876 98.338905 
L 330.540496 98.292222 
L 327.466116 98.245539 
L 324.391736 98.198856 
L 321.317355 98.152173 
L 318.242975 98.105491 
L 315.168595 98.058808 
L 312.094215 98.012125 
L 309.019835 97.965442 
L 305.945455 97.91876 
L 302.871074 97.872077 
L 299.796694 97.825394 
L 296.722314 97.778711 
L 293.647934 97.732029 
L 290.573554 97.685346 
L 287.499174 97.638663 
L 284.424793 97.59198 
L 281.350413 97.545298 
L 278.276033 97.498615 
L 275.201653 97.451932 
L 272.127273 97.405249 
L 269.052893 97.358567 
L 265.978512 97.311884 
L 262.904132 97.265201 
L 259.829752 97.218518 
L 256.755372 97.171836 
L 253.680992 97.125153 
L 250.606612 97.07847 
L 247.532231 97.031787 
L 244.457851 96.985105 
L 241.383471 96.938422 
L 238.309091 96.891739 
L 235.234711 96.845056 
L 232.160331 96.798374 
L 229.08595 96.751691 
L 226.01157 96.705008 
L 222.93719 96.658325 
L 219.86281 96.611642 
L 216.78843 96.56496 
L 213.71405 96.518277 
L 210.639669 96.471594 
L 207.565289 96.424911 
L 204.490909 96.378229 
L 201.416529 96.331546 
L 198.342149 96.284863 
L 195.267769 96.23818 
L 192.193388 96.191498 
L 189.119008 96.144815 
L 186.044628 96.098132 
L 182.970248 96.051449 
L 179.895868 96.004767 
L 176.821488 95.958084 
L 173.747107 95.911401 
L 170.672727 95.864718 
L 167.598347 95.818036 
L 164.523967 95.771353 
L 161.449587 95.72467 
L 158.375207 95.677987 
L 155.300826 95.631305 
L 152.226446 95.584622 
L 149.152066 95.537939 
L 146.077686 95.491256 
L 143.003306 95.444574 
L 139.928926 95.397891 
L 136.854545 95.351208 
L 133.780165 95.304525 
L 130.705785 95.257843 
L 127.631405 95.21116 
L 124.557025 95.164477 
L 121.482645 95.117794 
L 118.408264 95.071111 
L 115.333884 95.024429 
L 112.259504 94.977746 
L 109.185124 94.931063 
L 106.110744 94.88438 
L 103.036364 94.837698 
L 99.961983 94.791015 
L 96.887603 94.744332 
L 93.813223 94.697649 
L 90.738843 94.650967 
L 87.664463 94.604284 
L 84.590083 94.557601 
L 81.515702 94.510918 
L 78.441322 94.464236 
L 75.366942 94.417553 
L 72.292562 94.37087 
L 69.218182 94.324187 
z
" style="fill:#fdae6b;"/>
   </g>
   <g id="PolyCollection_8">
    <path clip-path="url(#p70e68e1c7c)" d="M 69.218182 91.325507 
L 69.218182 94.324187 
L 72.292562 94.37087 
L 75.366942 94.417553 
L 78.441322 94.464236 
L 81.515702 94.510918 
L 84.590083 94.557601 
L 87.664463 94.604284 
L 90.738843 94.650967 
L 93.813223 94.697649 
L 96.887603 94.744332 
L 99.961983 94.791015 
L 103.036364 94.837698 
L 106.110744 94.88438 
L 109.185124 94.931063 
L 112.259504 94.977746 
L 115.333884 95.024429 
L 118.408264 95.071111 
L 121.482645 95.117794 
L 124.557025 95.164477 
L 127.631405 95.21116 
L 130.705785 95.257843 
L 133.780165 95.304525 
L 136.854545 95.351208 
L 139.928926 95.397891 
L 143.003306 95.444574 
L 146.077686 95.491256 
L 149.152066 95.537939 
L 152.226446 95.584622 
L 155.300826 95.631305 
L 158.375207 95.677987 
L 161.449587 95.72467 
L 164.523967 95.771353 
L 167.598347 95.818036 
L 170.672727 95.864718 
L 173.747107 95.911401 
L 176.821488 95.958084 
L 179.895868 96.004767 
L 182.970248 96.051449 
L 186.044628 96.098132 
L 189.119008 96.144815 
L 192.193388 96.191498 
L 195.267769 96.23818 
L 198.342149 96.284863 
L 201.416529 96.331546 
L 204.490909 96.378229 
L 207.565289 96.424911 
L 210.639669 96.471594 
L 213.71405 96.518277 
L 216.78843 96.56496 
L 219.86281 96.611642 
L 222.93719 96.658325 
L 226.01157 96.705008 
L 229.08595 96.751691 
L 232.160331 96.798374 
L 235.234711 96.845056 
L 238.309091 96.891739 
L 241.383471 96.938422 
L 244.457851 96.985105 
L 247.532231 97.031787 
L 250.606612 97.07847 
L 253.680992 97.125153 
L 256.755372 97.171836 
L 259.829752 97.218518 
L 262.904132 97.265201 
L 265.978512 97.311884 
L 269.052893 97.358567 
L 272.127273 97.405249 
L 275.201653 97.451932 
L 278.276033 97.498615 
L 281.350413 97.545298 
L 284.424793 97.59198 
L 287.499174 97.638663 
L 290.573554 97.685346 
L 293.647934 97.732029 
L 296.722314 97.778711 
L 299.796694 97.825394 
L 302.871074 97.872077 
L 305.945455 97.91876 
L 309.019835 97.965442 
L 312.094215 98.012125 
L 315.168595 98.058808 
L 318.242975 98.105491 
L 321.317355 98.152173 
L 324.391736 98.198856 
L 327.466116 98.245539 
L 330.540496 98.292222 
L 333.614876 98.338905 
L 336.689256 98.385587 
L 339.763636 98.43227 
L 342.838017 98.478953 
L 345.912397 98.525636 
L 348.986777 98.572318 
L 352.061157 98.619001 
L 355.135537 98.665684 
L 358.209917 98.712367 
L 361.284298 98.759049 
L 364.358678 98.805732 
L 367.433058 98.852415 
L 370.507438 98.899098 
L 373.581818 98.94578 
L 373.581818 95.9471 
L 373.581818 95.9471 
L 370.507438 95.900417 
L 367.433058 95.853735 
L 364.358678 95.807052 
L 361.284298 95.760369 
L 358.209917 95.713686 
L 355.135537 95.667004 
L 352.061157 95.620321 
L 348.986777 95.573638 
L 345.912397 95.526955 
L 342.838017 95.480273 
L 339.763636 95.43359 
L 336.689256 95.386907 
L 333.614876 95.340224 
L 330.540496 95.293542 
L 327.466116 95.246859 
L 324.391736 95.200176 
L 321.317355 95.153493 
L 318.242975 95.106811 
L 315.168595 95.060128 
L 312.094215 95.013445 
L 309.019835 94.966762 
L 305.945455 94.92008 
L 302.871074 94.873397 
L 299.796694 94.826714 
L 296.722314 94.780031 
L 293.647934 94.733349 
L 290.573554 94.686666 
L 287.499174 94.639983 
L 284.424793 94.5933 
L 281.350413 94.546618 
L 278.276033 94.499935 
L 275.201653 94.453252 
L 272.127273 94.406569 
L 269.052893 94.359886 
L 265.978512 94.313204 
L 262.904132 94.266521 
L 259.829752 94.219838 
L 256.755372 94.173155 
L 253.680992 94.126473 
L 250.606612 94.07979 
L 247.532231 94.033107 
L 244.457851 93.986424 
L 241.383471 93.939742 
L 238.309091 93.893059 
L 235.234711 93.846376 
L 232.160331 93.799693 
L 229.08595 93.753011 
L 226.01157 93.706328 
L 222.93719 93.659645 
L 219.86281 93.612962 
L 216.78843 93.56628 
L 213.71405 93.519597 
L 210.639669 93.472914 
L 207.565289 93.426231 
L 204.490909 93.379549 
L 201.416529 93.332866 
L 198.342149 93.286183 
L 195.267769 93.2395 
L 192.193388 93.192818 
L 189.119008 93.146135 
L 186.044628 93.099452 
L 182.970248 93.052769 
L 179.895868 93.006087 
L 176.821488 92.959404 
L 173.747107 92.912721 
L 170.672727 92.866038 
L 167.598347 92.819355 
L 164.523967 92.772673 
L 161.449587 92.72599 
L 158.375207 92.679307 
L 155.300826 92.632624 
L 152.226446 92.585942 
L 149.152066 92.539259 
L 146.077686 92.492576 
L 143.003306 92.445893 
L 139.928926 92.399211 
L 136.854545 92.352528 
L 133.780165 92.305845 
L 130.705785 92.259162 
L 127.631405 92.21248 
L 124.557025 92.165797 
L 121.482645 92.119114 
L 118.408264 92.072431 
L 115.333884 92.025749 
L 112.259504 91.979066 
L 109.185124 91.932383 
L 106.110744 91.8857 
L 103.036364 91.839018 
L 99.961983 91.792335 
L 96.887603 91.745652 
L 93.813223 91.698969 
L 90.738843 91.652287 
L 87.664463 91.605604 
L 84.590083 91.558921 
L 81.515702 91.512238 
L 78.441322 91.465556 
L 75.366942 91.418873 
L 72.292562 91.37219 
L 69.218182 91.325507 
z
" style="fill:#fdd0a2;"/>
   </g>
   <g id="PolyCollection_9">
    <path clip-path="url(#p70e68e1c7c)" d="M 69.218182 90.24 
L 69.218182 91.325507 
L 72.292562 91.37219 
L 75.366942 91.418873 
L 78.441322 91.465556 
L 81.515702 91.512238 
L 84.590083 91.558921 
L 87.664463 91.605604 
L 90.738843 91.652287 
L 93.813223 91.698969 
L 96.887603 91.745652 
L 99.961983 91.792335 
L 103.036364 91.839018 
L 106.110744 91.8857 
L 109.185124 91.932383 
L 112.259504 91.979066 
L 115.333884 92.025749 
L 118.408264 92.072431 
L 121.482645 92.119114 
L 124.557025 92.165797 
L 127.631405 92.21248 
L 130.705785 92.259162 
L 133.780165 92.305845 
L 136.854545 92.352528 
L 139.928926 92.399211 
L 143.003306 92.445893 
L 146.077686 92.492576 
L 149.152066 92.539259 
L 152.226446 92.585942 
L 155.300826 92.632624 
L 158.375207 92.679307 
L 161.449587 92.72599 
L 164.523967 92.772673 
L 167.598347 92.819355 
L 170.672727 92.866038 
L 173.747107 92.912721 
L 176.821488 92.959404 
L 179.895868 93.006087 
L 182.970248 93.052769 
L 186.044628 93.099452 
L 189.119008 93.146135 
L 192.193388 93.192818 
L 195.267769 93.2395 
L 198.342149 93.286183 
L 201.416529 93.332866 
L 204.490909 93.379549 
L 207.565289 93.426231 
L 210.639669 93.472914 
L 213.71405 93.519597 
L 216.78843 93.56628 
L 219.86281 93.612962 
L 222.93719 93.659645 
L 226.01157 93.706328 
L 229.08595 93.753011 
L 232.160331 93.799693 
L 235.234711 93.846376 
L 238.309091 93.893059 
L 241.383471 93.939742 
L 244.457851 93.986424 
L 247.532231 94.033107 
L 250.606612 94.07979 
L 253.680992 94.126473 
L 256.755372 94.173155 
L 259.829752 94.219838 
L 262.904132 94.266521 
L 265.978512 94.313204 
L 269.052893 94.359886 
L 272.127273 94.406569 
L 275.201653 94.453252 
L 278.276033 94.499935 
L 281.350413 94.546618 
L 284.424793 94.5933 
L 287.499174 94.639983 
L 290.573554 94.686666 
L 293.647934 94.733349 
L 296.722314 94.780031 
L 299.796694 94.826714 
L 302.871074 94.873397 
L 305.945455 94.92008 
L 309.019835 94.966762 
L 312.094215 95.013445 
L 315.168595 95.060128 
L 318.242975 95.106811 
L 321.317355 95.153493 
L 324.391736 95.200176 
L 327.466116 95.246859 
L 330.540496 95.293542 
L 333.614876 95.340224 
L 336.689256 95.386907 
L 339.763636 95.43359 
L 342.838017 95.480273 
L 345.912397 95.526955 
L 348.986777 95.573638 
L 352.061157 95.620321 
L 355.135537 95.667004 
L 358.209917 95.713686 
L 361.284298 95.760369 
L 364.358678 95.807052 
L 367.433058 95.853735 
L 370.507438 95.900417 
L 373.581818 95.9471 
L 373.581818 95.9471 
L 373.581818 95.9471 
L 370.507438 95.889453 
L 367.433058 95.831805 
L 364.358678 95.774158 
L 361.284298 95.71651 
L 358.209917 95.658863 
L 355.135537 95.601215 
L 352.061157 95.543568 
L 348.986777 95.48592 
L 345.912397 95.428273 
L 342.838017 95.370625 
L 339.763636 95.312978 
L 336.689256 95.255331 
L 333.614876 95.197683 
L 330.540496 95.140036 
L 327.466116 95.082388 
L 324.391736 95.024741 
L 321.317355 94.967093 
L 318.242975 94.909446 
L 315.168595 94.851798 
L 312.094215 94.794151 
L 309.019835 94.736503 
L 305.945455 94.678856 
L 302.871074 94.621208 
L 299.796694 94.563561 
L 296.722314 94.505913 
L 293.647934 94.448266 
L 290.573554 94.390618 
L 287.499174 94.332971 
L 284.424793 94.275323 
L 281.350413 94.217676 
L 278.276033 94.160028 
L 275.201653 94.102381 
L 272.127273 94.044734 
L 269.052893 93.987086 
L 265.978512 93.929439 
L 262.904132 93.871791 
L 259.829752 93.814144 
L 256.755372 93.756496 
L 253.680992 93.698849 
L 250.606612 93.641201 
L 247.532231 93.583554 
L 244.457851 93.525906 
L 241.383471 93.468259 
L 238.309091 93.410611 
L 235.234711 93.352964 
L 232.160331 93.295316 
L 229.08595 93.237669 
L 226.01157 93.180021 
L 222.93719 93.122374 
L 219.86281 93.064726 
L 216.78843 93.007079 
L 213.71405 92.949431 
L 210.639669 92.891784 
L 207.565289 92.834136 
L 204.490909 92.776489 
L 201.416529 92.718842 
L 198.342149 92.661194 
L 195.267769 92.603547 
L 192.193388 92.545899 
L 189.119008 92.488252 
L 186.044628 92.430604 
L 182.970248 92.372957 
L 179.895868 92.315309 
L 176.821488 92.257662 
L 173.747107 92.200014 
L 170.672727 92.142367 
L 167.598347 92.084719 
L 164.523967 92.027072 
L 161.449587 91.969424 
L 158.375207 91.911777 
L 155.300826 91.854129 
L 152.226446 91.796482 
L 149.152066 91.738834 
L 146.077686 91.681187 
L 143.003306 91.623539 
L 139.928926 91.565892 
L 136.854545 91.508245 
L 133.780165 91.450597 
L 130.705785 91.39295 
L 127.631405 91.335302 
L 124.557025 91.277655 
L 121.482645 91.220007 
L 118.408264 91.16236 
L 115.333884 91.104712 
L 112.259504 91.047065 
L 109.185124 90.989417 
L 106.110744 90.93177 
L 103.036364 90.874122 
L 99.961983 90.816475 
L 96.887603 90.758827 
L 93.813223 90.70118 
L 90.738843 90.643532 
L 87.664463 90.585885 
L 84.590083 90.528237 
L 81.515702 90.47059 
L 78.441322 90.412942 
L 75.366942 90.355295 
L 72.292562 90.297647 
L 69.218182 90.24 
z
" style="fill:#31a354;"/>
   </g>
   <g id="PolyCollection_10">
    <path clip-path="url(#p70e68e1c7c)" d="M 69.218182 90.24 
L 69.218182 90.24 
L 72.292562 90.297647 
L 75.366942 90.355295 
L 78.441322 90.412942 
L 81.515702 90.47059 
L 84.590083 90.528237 
L 87.664463 90.585885 
L 90.738843 90.643532 
L 93.813223 90.70118 
L 96.887603 90.758827 
L 99.961983 90.816475 
L 103.036364 90.874122 
L 106.110744 90.93177 
L 109.185124 90.989417 
L 112.259504 91.047065 
L 115.333884 91.104712 
L 118.408264 91.16236 
L 121.482645 91.220007 
L 124.557025 91.277655 
L 127.631405 91.335302 
L 130.705785 91.39295 
L 133.780165 91.450597 
L 136.854545 91.508245 
L 139.928926 91.565892 
L 143.003306 91.623539 
L 146.077686 91.681187 
L 149.152066 91.738834 
L 152.226446 91.796482 
L 155.300826 91.854129 
L 158.375207 91.911777 
L 161.449587 91.969424 
L 164.523967 92.027072 
L 167.598347 92.084719 
L 170.672727 92.142367 
L 173.747107 92.200014 
L 176.821488 92.257662 
L 179.895868 92.315309 
L 182.970248 92.372957 
L 186.044628 92.430604 
L 189.119008 92.488252 
L 192.193388 92.545899 
L 195.267769 92.603547 
L 198.342149 92.661194 
L 201.416529 92.718842 
L 204.490909 92.776489 
L 207.565289 92.834136 
L 210.639669 92.891784 
L 213.71405 92.949431 
L 216.78843 93.007079 
L 219.86281 93.064726 
L 222.93719 93.122374 
L 226.01157 93.180021 
L 229.08595 93.237669 
L 232.160331 93.295316 
L 235.234711 93.352964 
L 238.309091 93.410611 
L 241.383471 93.468259 
L 244.457851 93.525906 
L 247.532231 93.583554 
L 250.606612 93.641201 
L 253.680992 93.698849 
L 256.755372 93.756496 
L 259.829752 93.814144 
L 262.904132 93.871791 
L 265.978512 93.929439 
L 269.052893 93.987086 
L 272.127273 94.044734 
L 275.201653 94.102381 
L 278.276033 94.160028 
L 281.350413 94.217676 
L 284.424793 94.275323 
L 287.499174 94.332971 
L 290.573554 94.390618 
L 293.647934 94.448266 
L 296.722314 94.505913 
L 299.796694 94.563561 
L 302.871074 94.621208 
L 305.945455 94.678856 
L 309.019835 94.736503 
L 312.094215 94.794151 
L 315.168595 94.851798 
L 318.242975 94.909446 
L 321.317355 94.967093 
L 324.391736 95.024741 
L 327.466116 95.082388 
L 330.540496 95.140036 
L 333.614876 95.197683 
L 336.689256 95.255331 
L 339.763636 95.312978 
L 342.838017 95.370625 
L 345.912397 95.428273 
L 348.986777 95.48592 
L 352.061157 95.543568 
L 355.135537 95.601215 
L 358.209917 95.658863 
L 361.284298 95.71651 
L 364.358678 95.774158 
L 367.433058 95.831805 
L 370.507438 95.889453 
L 373.581818 95.9471 
L 373.581818 94.657605 
L 373.581818 94.657605 
L 370.507438 94.612982 
L 367.433058 94.56836 
L 364.358678 94.523738 
L 361.284298 94.479116 
L 358.209917 94.434493 
L 355.135537 94.389871 
L 352.061157 94.345249 
L 348.986777 94.300627 
L 345.912397 94.256004 
L 342.838017 94.211382 
L 339.763636 94.16676 
L 336.689256 94.122138 
L 333.614876 94.077515 
L 330.540496 94.032893 
L 327.466116 93.988271 
L 324.391736 93.943648 
L 321.317355 93.899026 
L 318.242975 93.854404 
L 315.168595 93.809782 
L 312.094215 93.765159 
L 309.019835 93.720537 
L 305.945455 93.675915 
L 302.871074 93.631293 
L 299.796694 93.58667 
L 296.722314 93.542048 
L 293.647934 93.497426 
L 290.573554 93.452803 
L 287.499174 93.408181 
L 284.424793 93.363559 
L 281.350413 93.318937 
L 278.276033 93.274314 
L 275.201653 93.229692 
L 272.127273 93.18507 
L 269.052893 93.140448 
L 265.978512 93.095825 
L 262.904132 93.051203 
L 259.829752 93.006581 
L 256.755372 92.961958 
L 253.680992 92.917336 
L 250.606612 92.872714 
L 247.532231 92.828092 
L 244.457851 92.783469 
L 241.383471 92.738847 
L 238.309091 92.694225 
L 235.234711 92.649603 
L 232.160331 92.60498 
L 229.08595 92.560358 
L 226.01157 92.515736 
L 222.93719 92.471114 
L 219.86281 92.426491 
L 216.78843 92.381869 
L 213.71405 92.337247 
L 210.639669 92.292624 
L 207.565289 92.248002 
L 204.490909 92.20338 
L 201.416529 92.158758 
L 198.342149 92.114135 
L 195.267769 92.069513 
L 192.193388 92.024891 
L 189.119008 91.980269 
L 186.044628 91.935646 
L 182.970248 91.891024 
L 179.895868 91.846402 
L 176.821488 91.801779 
L 173.747107 91.757157 
L 170.672727 91.712535 
L 167.598347 91.667913 
L 164.523967 91.62329 
L 161.449587 91.578668 
L 158.375207 91.534046 
L 155.300826 91.489424 
L 152.226446 91.444801 
L 149.152066 91.400179 
L 146.077686 91.355557 
L 143.003306 91.310934 
L 139.928926 91.266312 
L 136.854545 91.22169 
L 133.780165 91.177068 
L 130.705785 91.132445 
L 127.631405 91.087823 
L 124.557025 91.043201 
L 121.482645 90.998579 
L 118.408264 90.953956 
L 115.333884 90.909334 
L 112.259504 90.864712 
L 109.185124 90.82009 
L 106.110744 90.775467 
L 103.036364 90.730845 
L 99.961983 90.686223 
L 96.887603 90.6416 
L 93.813223 90.596978 
L 90.738843 90.552356 
L 87.664463 90.507734 
L 84.590083 90.463111 
L 81.515702 90.418489 
L 78.441322 90.373867 
L 75.366942 90.329245 
L 72.292562 90.284622 
L 69.218182 90.24 
z
" style="fill:#74c476;"/>
   </g>
   <g id="PolyCollection_11">
    <path clip-path="url(#p70e68e1c7c)" d="M 69.218182 90.24 
L 69.218182 90.24 
L 72.292562 90.284622 
L 75.366942 90.329245 
L 78.441322 90.373867 
L 81.515702 90.418489 
L 84.590083 90.463111 
L 87.664463 90.507734 
L 90.738843 90.552356 
L 93.813223 90.596978 
L 96.887603 90.6416 
L 99.961983 90.686223 
L 103.036364 90.730845 
L 106.110744 90.775467 
L 109.185124 90.82009 
L 112.259504 90.864712 
L 115.333884 90.909334 
L 118.408264 90.953956 
L 121.482645 90.998579 
L 124.557025 91.043201 
L 127.631405 91.087823 
L 130.705785 91.132445 
L 133.780165 91.177068 
L 136.854545 91.22169 
L 139.928926 91.266312 
L 143.003306 91.310934 
L 146.077686 91.355557 
L 149.152066 91.400179 
L 152.226446 91.444801 
L 155.300826 91.489424 
L 158.375207 91.534046 
L 161.449587 91.578668 
L 164.523967 91.62329 
L 167.598347 91.667913 
L 170.672727 91.712535 
L 173.747107 91.757157 
L 176.821488 91.801779 
L 179.895868 91.846402 
L 182.970248 91.891024 
L 186.044628 91.935646 
L 189.119008 91.980269 
L 192.193388 92.024891 
L 195.267769 92.069513 
L 198.342149 92.114135 
L 201.416529 92.158758 
L 204.490909 92.20338 
L 207.565289 92.248002 
L 210.639669 92.292624 
L 213.71405 92.337247 
L 216.78843 92.381869 
L 219.86281 92.426491 
L 222.93719 92.471114 
L 226.01157 92.515736 
L 229.08595 92.560358 
L 232.160331 92.60498 
L 235.234711 92.649603 
L 238.309091 92.694225 
L 241.383471 92.738847 
L 244.457851 92.783469 
L 247.532231 92.828092 
L 250.606612 92.872714 
L 253.680992 92.917336 
L 256.755372 92.961958 
L 259.829752 93.006581 
L 262.904132 93.051203 
L 265.978512 93.095825 
L 269.052893 93.140448 
L 272.127273 93.18507 
L 275.201653 93.229692 
L 278.276033 93.274314 
L 281.350413 93.318937 
L 284.424793 93.363559 
L 287.499174 93.408181 
L 290.573554 93.452803 
L 293.647934 93.497426 
L 296.722314 93.542048 
L 299.796694 93.58667 
L 302.871074 93.631293 
L 305.945455 93.675915 
L 309.019835 93.720537 
L 312.094215 93.765159 
L 315.168595 93.809782 
L 318.242975 93.854404 
L 321.317355 93.899026 
L 324.391736 93.943648 
L 327.466116 93.988271 
L 330.540496 94.032893 
L 333.614876 94.077515 
L 336.689256 94.122138 
L 339.763636 94.16676 
L 342.838017 94.211382 
L 345.912397 94.256004 
L 348.986777 94.300627 
L 352.061157 94.345249 
L 355.135537 94.389871 
L 358.209917 94.434493 
L 361.284298 94.479116 
L 364.358678 94.523738 
L 367.433058 94.56836 
L 370.507438 94.612982 
L 373.581818 94.657605 
L 373.581818 93.385496 
L 373.581818 93.385496 
L 370.507438 93.353723 
L 367.433058 93.32195 
L 364.358678 93.290178 
L 361.284298 93.258405 
L 358.209917 93.226632 
L 355.135537 93.19486 
L 352.061157 93.163087 
L 348.986777 93.131314 
L 345.912397 93.099541 
L 342.838017 93.067769 
L 339.763636 93.035996 
L 336.689256 93.004223 
L 333.614876 92.972451 
L 330.540496 92.940678 
L 327.466116 92.908905 
L 324.391736 92.877133 
L 321.317355 92.84536 
L 318.242975 92.813587 
L 315.168595 92.781815 
L 312.094215 92.750042 
L 309.019835 92.718269 
L 305.945455 92.686497 
L 302.871074 92.654724 
L 299.796694 92.622951 
L 296.722314 92.591179 
L 293.647934 92.559406 
L 290.573554 92.527633 
L 287.499174 92.495861 
L 284.424793 92.464088 
L 281.350413 92.432315 
L 278.276033 92.400542 
L 275.201653 92.36877 
L 272.127273 92.336997 
L 269.052893 92.305224 
L 265.978512 92.273452 
L 262.904132 92.241679 
L 259.829752 92.209906 
L 256.755372 92.178134 
L 253.680992 92.146361 
L 250.606612 92.114588 
L 247.532231 92.082816 
L 244.457851 92.051043 
L 241.383471 92.01927 
L 238.309091 91.987498 
L 235.234711 91.955725 
L 232.160331 91.923952 
L 229.08595 91.89218 
L 226.01157 91.860407 
L 222.93719 91.828634 
L 219.86281 91.796861 
L 216.78843 91.765089 
L 213.71405 91.733316 
L 210.639669 91.701543 
L 207.565289 91.669771 
L 204.490909 91.637998 
L 201.416529 91.606225 
L 198.342149 91.574453 
L 195.267769 91.54268 
L 192.193388 91.510907 
L 189.119008 91.479135 
L 186.044628 91.447362 
L 182.970248 91.415589 
L 179.895868 91.383817 
L 176.821488 91.352044 
L 173.747107 91.320271 
L 170.672727 91.288499 
L 167.598347 91.256726 
L 164.523967 91.224953 
L 161.449587 91.19318 
L 158.375207 91.161408 
L 155.300826 91.129635 
L 152.226446 91.097862 
L 149.152066 91.06609 
L 146.077686 91.034317 
L 143.003306 91.002544 
L 139.928926 90.970772 
L 136.854545 90.938999 
L 133.780165 90.907226 
L 130.705785 90.875454 
L 127.631405 90.843681 
L 124.557025 90.811908 
L 121.482645 90.780136 
L 118.408264 90.748363 
L 115.333884 90.71659 
L 112.259504 90.684818 
L 109.185124 90.653045 
L 106.110744 90.621272 
L 103.036364 90.5895 
L 99.961983 90.557727 
L 96.887603 90.525954 
L 93.813223 90.494181 
L 90.738843 90.462409 
L 87.664463 90.430636 
L 84.590083 90.398863 
L 81.515702 90.367091 
L 78.441322 90.335318 
L 75.366942 90.303545 
L 72.292562 90.271773 
L 69.218182 90.24 
z
" style="fill:#a1d99b;"/>
   </g>
   <g id="matplotlib.axis_1">
    <g id="xtick_1">
     <g id="line2d_1">
      <defs>
       <path d="M 0 0 
L 0 3.5 
" id="m3c4e464ed6" style="stroke:#000000;stroke-width:0.8;"/>
      </defs>
      <g>
       <use style="stroke:#000000;stroke-width:0.8;" x="69.218182" xlink:href="#m3c4e464ed6" y="512.64"/>
      </g>
     </g>
     <g id="text_1">
      <!-- 0 -->
      <g transform="translate(66.036932 527.238438)scale(0.1 -0.1)">
       <defs>
        <path d="M 2034 4250 
Q 1547 4250 1301 3770 
Q 1056 3291 1056 2328 
Q 1056 1369 1301 889 
Q 1547 409 2034 409 
Q 2525 409 2770 889 
Q 3016 1369 3016 2328 
Q 3016 3291 2770 3770 
Q 2525 4250 2034 4250 
z
M 2034 4750 
Q 2819 4750 3233 4129 
Q 3647 3509 3647 2328 
Q 3647 1150 3233 529 
Q 2819 -91 2034 -91 
Q 1250 -91 836 529 
Q 422 1150 422 2328 
Q 422 3509 836 4129 
Q 1250 4750 2034 4750 
z
" id="DejaVuSans-30" transform="scale(0.015625)"/>
       </defs>
       <use xlink:href="#DejaVuSans-30"/>
      </g>
     </g>
    </g>
    <g id="xtick_2">
     <g id="line2d_2">
      <g>
       <use style="stroke:#000000;stroke-width:0.8;" x="130.090909" xlink:href="#m3c4e464ed6" y="512.64"/>
      </g>
     </g>
     <g id="text_2">
      <!-- 20 -->
      <g transform="translate(123.728409 527.238438)scale(0.1 -0.1)">
       <defs>
        <path d="M 1228 531 
L 3431 531 
L 3431 0 
L 469 0 
L 469 531 
Q 828 903 1448 1529 
Q 2069 2156 2228 2338 
Q 2531 2678 2651 2914 
Q 2772 3150 2772 3378 
Q 2772 3750 2511 3984 
Q 2250 4219 1831 4219 
Q 1534 4219 1204 4116 
Q 875 4013 500 3803 
L 500 4441 
Q 881 4594 1212 4672 
Q 1544 4750 1819 4750 
Q 2544 4750 2975 4387 
Q 3406 4025 3406 3419 
Q 3406 3131 3298 2873 
Q 3191 2616 2906 2266 
Q 2828 2175 2409 1742 
Q 1991 1309 1228 531 
z
" id="DejaVuSans-32" transform="scale(0.015625)"/>
       </defs>
       <use xlink:href="#DejaVuSans-32"/>
       <use x="63.623047" xlink:href="#DejaVuSans-30"/>
      </g>
     </g>
    </g>
    <g id="xtick_3">
     <g id="line2d_3">
      <g>
       <use style="stroke:#000000;stroke-width:0.8;" x="190.963636" xlink:href="#m3c4e464ed6" y="512.64"/>
      </g>
     </g>
     <g id="text_3">
      <!-- 40 -->
      <g transform="translate(184.601136 527.238438)scale(0.1 -0.1)">
       <defs>
        <path d="M 2419 4116 
L 825 1625 
L 2419 1625 
L 2419 4116 
z
M 2253 4666 
L 3047 4666 
L 3047 1625 
L 3713 1625 
L 3713 1100 
L 3047 1100 
L 3047 0 
L 2419 0 
L 2419 1100 
L 313 1100 
L 313 1709 
L 2253 4666 
z
" id="DejaVuSans-34" transform="scale(0.015625)"/>
       </defs>
       <use xlink:href="#DejaVuSans-34"/>
       <use x="63.623047" xlink:href="#DejaVuSans-30"/>
      </g>
     </g>
    </g>
    <g id="xtick_4">
     <g id="line2d_4">
      <g>
       <use style="stroke:#000000;stroke-width:0.8;" x="251.836364" xlink:href="#m3c4e464ed6" y="512.64"/>
      </g>
     </g>
     <g id="text_4">
      <!-- 60 -->
      <g transform="translate(245.473864 527.238438)scale(0.1 -0.1)">
       <defs>
        <path d="M 2113 2584 
Q 1688 2584 1439 2293 
Q 1191 2003 1191 1497 
Q 1191 994 1439 701 
Q 1688 409 2113 409 
Q 2538 409 2786 701 
Q 3034 994 3034 1497 
Q 3034 2003 2786 2293 
Q 2538 2584 2113 2584 
z
M 3366 4563 
L 3366 3988 
Q 3128 4100 2886 4159 
Q 2644 4219 2406 4219 
Q 1781 4219 1451 3797 
Q 1122 3375 1075 2522 
Q 1259 2794 1537 2939 
Q 1816 3084 2150 3084 
Q 2853 3084 3261 2657 
Q 3669 2231 3669 1497 
Q 3669 778 3244 343 
Q 2819 -91 2113 -91 
Q 1303 -91 875 529 
Q 447 1150 447 2328 
Q 447 3434 972 4092 
Q 1497 4750 2381 4750 
Q 2619 4750 2861 4703 
Q 3103 4656 3366 4563 
z
" id="DejaVuSans-36" transform="scale(0.015625)"/>
       </defs>
       <use xlink:href="#DejaVuSans-36"/>
       <use x="63.623047" xlink:href="#DejaVuSans-30"/>
      </g>
     </g>
    </g>
    <g id="xtick_5">
     <g id="line2d_5">
      <g>
       <use style="stroke:#000000;stroke-width:0.8;" x="312.709091" xlink:href="#m3c4e464ed6" y="512.64"/>
      </g>
     </g>
     <g id="text_5">
      <!-- 80 -->
      <g transform="translate(306.346591 527.238438)scale(0.1 -0.1)">
       <defs>
        <path d="M 2034 2216 
Q 1584 2216 1326 1975 
Q 1069 1734 1069 1313 
Q 1069 891 1326 650 
Q 1584 409 2034 409 
Q 2484 409 2743 651 
Q 3003 894 3003 1313 
Q 3003 1734 2745 1975 
Q 2488 2216 2034 2216 
z
M 1403 2484 
Q 997 2584 770 2862 
Q 544 3141 544 3541 
Q 544 4100 942 4425 
Q 1341 4750 2034 4750 
Q 2731 4750 3128 4425 
Q 3525 4100 3525 3541 
Q 3525 3141 3298 2862 
Q 3072 2584 2669 2484 
Q 3125 2378 3379 2068 
Q 3634 1759 3634 1313 
Q 3634 634 3220 271 
Q 2806 -91 2034 -91 
Q 1263 -91 848 271 
Q 434 634 434 1313 
Q 434 1759 690 2068 
Q 947 2378 1403 2484 
z
M 1172 3481 
Q 1172 3119 1398 2916 
Q 1625 2713 2034 2713 
Q 2441 2713 2670 2916 
Q 2900 3119 2900 3481 
Q 2900 3844 2670 4047 
Q 2441 4250 2034 4250 
Q 1625 4250 1398 4047 
Q 1172 3844 1172 3481 
z
" id="DejaVuSans-38" transform="scale(0.015625)"/>
       </defs>
       <use xlink:href="#DejaVuSans-38"/>
       <use x="63.623047" xlink:href="#DejaVuSans-30"/>
      </g>
     </g>
    </g>
    <g id="xtick_6">
     <g id="line2d_6">
      <g>
       <use style="stroke:#000000;stroke-width:0.8;" x="373.581818" xlink:href="#m3c4e464ed6" y="512.64"/>
      </g>
     </g>
     <g id="text_6">
      <!-- 100 -->
      <g transform="translate(364.038068 527.238438)scale(0.1 -0.1)">
       <defs>
        <path d="M 794 531 
L 1825 531 
L 1825 4091 
L 703 3866 
L 703 4441 
L 1819 4666 
L 2450 4666 
L 2450 531 
L 3481 531 
L 3481 0 
L 794 0 
L 794 531 
z
" id="DejaVuSans-31" transform="scale(0.015625)"/>
       </defs>
       <use xlink:href="#DejaVuSans-31"/>
       <use x="63.623047" xlink:href="#DejaVuSans-30"/>
       <use x="127.246094" xlink:href="#DejaVuSans-30"/>
      </g>
     </g>
    </g>
    <g id="text_7">
     <!-- Proportion of New Technology in Grid (%) -->
     <g transform="translate(118.632031 540.916563)scale(0.1 -0.1)">
      <defs>
       <path d="M 1259 4147 
L 1259 2394 
L 2053 2394 
Q 2494 2394 2734 2622 
Q 2975 2850 2975 3272 
Q 2975 3691 2734 3919 
Q 2494 4147 2053 4147 
L 1259 4147 
z
M 628 4666 
L 2053 4666 
Q 2838 4666 3239 4311 
Q 3641 3956 3641 3272 
Q 3641 2581 3239 2228 
Q 2838 1875 2053 1875 
L 1259 1875 
L 1259 0 
L 628 0 
L 628 4666 
z
" id="DejaVuSans-50" transform="scale(0.015625)"/>
       <path d="M 2631 2963 
Q 2534 3019 2420 3045 
Q 2306 3072 2169 3072 
Q 1681 3072 1420 2755 
Q 1159 2438 1159 1844 
L 1159 0 
L 581 0 
L 581 3500 
L 1159 3500 
L 1159 2956 
Q 1341 3275 1631 3429 
Q 1922 3584 2338 3584 
Q 2397 3584 2469 3576 
Q 2541 3569 2628 3553 
L 2631 2963 
z
" id="DejaVuSans-72" transform="scale(0.015625)"/>
       <path d="M 1959 3097 
Q 1497 3097 1228 2736 
Q 959 2375 959 1747 
Q 959 1119 1226 758 
Q 1494 397 1959 397 
Q 2419 397 2687 759 
Q 2956 1122 2956 1747 
Q 2956 2369 2687 2733 
Q 2419 3097 1959 3097 
z
M 1959 3584 
Q 2709 3584 3137 3096 
Q 3566 2609 3566 1747 
Q 3566 888 3137 398 
Q 2709 -91 1959 -91 
Q 1206 -91 779 398 
Q 353 888 353 1747 
Q 353 2609 779 3096 
Q 1206 3584 1959 3584 
z
" id="DejaVuSans-6f" transform="scale(0.015625)"/>
       <path d="M 1159 525 
L 1159 -1331 
L 581 -1331 
L 581 3500 
L 1159 3500 
L 1159 2969 
Q 1341 3281 1617 3432 
Q 1894 3584 2278 3584 
Q 2916 3584 3314 3078 
Q 3713 2572 3713 1747 
Q 3713 922 3314 415 
Q 2916 -91 2278 -91 
Q 1894 -91 1617 61 
Q 1341 213 1159 525 
z
M 3116 1747 
Q 3116 2381 2855 2742 
Q 2594 3103 2138 3103 
Q 1681 3103 1420 2742 
Q 1159 2381 1159 1747 
Q 1159 1113 1420 752 
Q 1681 391 2138 391 
Q 2594 391 2855 752 
Q 3116 1113 3116 1747 
z
" id="DejaVuSans-70" transform="scale(0.015625)"/>
       <path d="M 1172 4494 
L 1172 3500 
L 2356 3500 
L 2356 3053 
L 1172 3053 
L 1172 1153 
Q 1172 725 1289 603 
Q 1406 481 1766 481 
L 2356 481 
L 2356 0 
L 1766 0 
Q 1100 0 847 248 
Q 594 497 594 1153 
L 594 3053 
L 172 3053 
L 172 3500 
L 594 3500 
L 594 4494 
L 1172 4494 
z
" id="DejaVuSans-74" transform="scale(0.015625)"/>
       <path d="M 603 3500 
L 1178 3500 
L 1178 0 
L 603 0 
L 603 3500 
z
M 603 4863 
L 1178 4863 
L 1178 4134 
L 603 4134 
L 603 4863 
z
" id="DejaVuSans-69" transform="scale(0.015625)"/>
       <path d="M 3513 2113 
L 3513 0 
L 2938 0 
L 2938 2094 
Q 2938 2591 2744 2837 
Q 2550 3084 2163 3084 
Q 1697 3084 1428 2787 
Q 1159 2491 1159 1978 
L 1159 0 
L 581 0 
L 581 3500 
L 1159 3500 
L 1159 2956 
Q 1366 3272 1645 3428 
Q 1925 3584 2291 3584 
Q 2894 3584 3203 3211 
Q 3513 2838 3513 2113 
z
" id="DejaVuSans-6e" transform="scale(0.015625)"/>
       <path id="DejaVuSans-20" transform="scale(0.015625)"/>
       <path d="M 2375 4863 
L 2375 4384 
L 1825 4384 
Q 1516 4384 1395 4259 
Q 1275 4134 1275 3809 
L 1275 3500 
L 2222 3500 
L 2222 3053 
L 1275 3053 
L 1275 0 
L 697 0 
L 697 3053 
L 147 3053 
L 147 3500 
L 697 3500 
L 697 3744 
Q 697 4328 969 4595 
Q 1241 4863 1831 4863 
L 2375 4863 
z
" id="DejaVuSans-66" transform="scale(0.015625)"/>
       <path d="M 628 4666 
L 1478 4666 
L 3547 763 
L 3547 4666 
L 4159 4666 
L 4159 0 
L 3309 0 
L 1241 3903 
L 1241 0 
L 628 0 
L 628 4666 
z
" id="DejaVuSans-4e" transform="scale(0.015625)"/>
       <path d="M 3597 1894 
L 3597 1613 
L 953 1613 
Q 991 1019 1311 708 
Q 1631 397 2203 397 
Q 2534 397 2845 478 
Q 3156 559 3463 722 
L 3463 178 
Q 3153 47 2828 -22 
Q 2503 -91 2169 -91 
Q 1331 -91 842 396 
Q 353 884 353 1716 
Q 353 2575 817 3079 
Q 1281 3584 2069 3584 
Q 2775 3584 3186 3129 
Q 3597 2675 3597 1894 
z
M 3022 2063 
Q 3016 2534 2758 2815 
Q 2500 3097 2075 3097 
Q 1594 3097 1305 2825 
Q 1016 2553 972 2059 
L 3022 2063 
z
" id="DejaVuSans-65" transform="scale(0.015625)"/>
       <path d="M 269 3500 
L 844 3500 
L 1563 769 
L 2278 3500 
L 2956 3500 
L 3675 769 
L 4391 3500 
L 4966 3500 
L 4050 0 
L 3372 0 
L 2619 2869 
L 1863 0 
L 1184 0 
L 269 3500 
z
" id="DejaVuSans-77" transform="scale(0.015625)"/>
       <path d="M -19 4666 
L 3928 4666 
L 3928 4134 
L 2272 4134 
L 2272 0 
L 1638 0 
L 1638 4134 
L -19 4134 
L -19 4666 
z
" id="DejaVuSans-54" transform="scale(0.015625)"/>
       <path d="M 3122 3366 
L 3122 2828 
Q 2878 2963 2633 3030 
Q 2388 3097 2138 3097 
Q 1578 3097 1268 2742 
Q 959 2388 959 1747 
Q 959 1106 1268 751 
Q 1578 397 2138 397 
Q 2388 397 2633 464 
Q 2878 531 3122 666 
L 3122 134 
Q 2881 22 2623 -34 
Q 2366 -91 2075 -91 
Q 1284 -91 818 406 
Q 353 903 353 1747 
Q 353 2603 823 3093 
Q 1294 3584 2113 3584 
Q 2378 3584 2631 3529 
Q 2884 3475 3122 3366 
z
" id="DejaVuSans-63" transform="scale(0.015625)"/>
       <path d="M 3513 2113 
L 3513 0 
L 2938 0 
L 2938 2094 
Q 2938 2591 2744 2837 
Q 2550 3084 2163 3084 
Q 1697 3084 1428 2787 
Q 1159 2491 1159 1978 
L 1159 0 
L 581 0 
L 581 4863 
L 1159 4863 
L 1159 2956 
Q 1366 3272 1645 3428 
Q 1925 3584 2291 3584 
Q 2894 3584 3203 3211 
Q 3513 2838 3513 2113 
z
" id="DejaVuSans-68" transform="scale(0.015625)"/>
       <path d="M 603 4863 
L 1178 4863 
L 1178 0 
L 603 0 
L 603 4863 
z
" id="DejaVuSans-6c" transform="scale(0.015625)"/>
       <path d="M 2906 1791 
Q 2906 2416 2648 2759 
Q 2391 3103 1925 3103 
Q 1463 3103 1205 2759 
Q 947 2416 947 1791 
Q 947 1169 1205 825 
Q 1463 481 1925 481 
Q 2391 481 2648 825 
Q 2906 1169 2906 1791 
z
M 3481 434 
Q 3481 -459 3084 -895 
Q 2688 -1331 1869 -1331 
Q 1566 -1331 1297 -1286 
Q 1028 -1241 775 -1147 
L 775 -588 
Q 1028 -725 1275 -790 
Q 1522 -856 1778 -856 
Q 2344 -856 2625 -561 
Q 2906 -266 2906 331 
L 2906 616 
Q 2728 306 2450 153 
Q 2172 0 1784 0 
Q 1141 0 747 490 
Q 353 981 353 1791 
Q 353 2603 747 3093 
Q 1141 3584 1784 3584 
Q 2172 3584 2450 3431 
Q 2728 3278 2906 2969 
L 2906 3500 
L 3481 3500 
L 3481 434 
z
" id="DejaVuSans-67" transform="scale(0.015625)"/>
       <path d="M 2059 -325 
Q 1816 -950 1584 -1140 
Q 1353 -1331 966 -1331 
L 506 -1331 
L 506 -850 
L 844 -850 
Q 1081 -850 1212 -737 
Q 1344 -625 1503 -206 
L 1606 56 
L 191 3500 
L 800 3500 
L 1894 763 
L 2988 3500 
L 3597 3500 
L 2059 -325 
z
" id="DejaVuSans-79" transform="scale(0.015625)"/>
       <path d="M 3809 666 
L 3809 1919 
L 2778 1919 
L 2778 2438 
L 4434 2438 
L 4434 434 
Q 4069 175 3628 42 
Q 3188 -91 2688 -91 
Q 1594 -91 976 548 
Q 359 1188 359 2328 
Q 359 3472 976 4111 
Q 1594 4750 2688 4750 
Q 3144 4750 3555 4637 
Q 3966 4525 4313 4306 
L 4313 3634 
Q 3963 3931 3569 4081 
Q 3175 4231 2741 4231 
Q 1884 4231 1454 3753 
Q 1025 3275 1025 2328 
Q 1025 1384 1454 906 
Q 1884 428 2741 428 
Q 3075 428 3337 486 
Q 3600 544 3809 666 
z
" id="DejaVuSans-47" transform="scale(0.015625)"/>
       <path d="M 2906 2969 
L 2906 4863 
L 3481 4863 
L 3481 0 
L 2906 0 
L 2906 525 
Q 2725 213 2448 61 
Q 2172 -91 1784 -91 
Q 1150 -91 751 415 
Q 353 922 353 1747 
Q 353 2572 751 3078 
Q 1150 3584 1784 3584 
Q 2172 3584 2448 3432 
Q 2725 3281 2906 2969 
z
M 947 1747 
Q 947 1113 1208 752 
Q 1469 391 1925 391 
Q 2381 391 2643 752 
Q 2906 1113 2906 1747 
Q 2906 2381 2643 2742 
Q 2381 3103 1925 3103 
Q 1469 3103 1208 2742 
Q 947 2381 947 1747 
z
" id="DejaVuSans-64" transform="scale(0.015625)"/>
       <path d="M 1984 4856 
Q 1566 4138 1362 3434 
Q 1159 2731 1159 2009 
Q 1159 1288 1364 580 
Q 1569 -128 1984 -844 
L 1484 -844 
Q 1016 -109 783 600 
Q 550 1309 550 2009 
Q 550 2706 781 3412 
Q 1013 4119 1484 4856 
L 1984 4856 
z
" id="DejaVuSans-28" transform="scale(0.015625)"/>
       <path d="M 4653 2053 
Q 4381 2053 4226 1822 
Q 4072 1591 4072 1178 
Q 4072 772 4226 539 
Q 4381 306 4653 306 
Q 4919 306 5073 539 
Q 5228 772 5228 1178 
Q 5228 1588 5073 1820 
Q 4919 2053 4653 2053 
z
M 4653 2450 
Q 5147 2450 5437 2106 
Q 5728 1763 5728 1178 
Q 5728 594 5436 251 
Q 5144 -91 4653 -91 
Q 4153 -91 3862 251 
Q 3572 594 3572 1178 
Q 3572 1766 3864 2108 
Q 4156 2450 4653 2450 
z
M 1428 4353 
Q 1159 4353 1004 4120 
Q 850 3888 850 3481 
Q 850 3069 1003 2837 
Q 1156 2606 1428 2606 
Q 1700 2606 1854 2837 
Q 2009 3069 2009 3481 
Q 2009 3884 1853 4118 
Q 1697 4353 1428 4353 
z
M 4250 4750 
L 4750 4750 
L 1831 -91 
L 1331 -91 
L 4250 4750 
z
M 1428 4750 
Q 1922 4750 2215 4408 
Q 2509 4066 2509 3481 
Q 2509 2891 2217 2550 
Q 1925 2209 1428 2209 
Q 931 2209 642 2551 
Q 353 2894 353 3481 
Q 353 4063 643 4406 
Q 934 4750 1428 4750 
z
" id="DejaVuSans-25" transform="scale(0.015625)"/>
       <path d="M 513 4856 
L 1013 4856 
Q 1481 4119 1714 3412 
Q 1947 2706 1947 2009 
Q 1947 1309 1714 600 
Q 1481 -109 1013 -844 
L 513 -844 
Q 928 -128 1133 580 
Q 1338 1288 1338 2009 
Q 1338 2731 1133 3434 
Q 928 4138 513 4856 
z
" id="DejaVuSans-29" transform="scale(0.015625)"/>
      </defs>
      <use xlink:href="#DejaVuSans-50"/>
      <use x="58.552734" xlink:href="#DejaVuSans-72"/>
      <use x="97.416016" xlink:href="#DejaVuSans-6f"/>
      <use x="158.597656" xlink:href="#DejaVuSans-70"/>
      <use x="222.074219" xlink:href="#DejaVuSans-6f"/>
      <use x="283.255859" xlink:href="#DejaVuSans-72"/>
      <use x="324.369141" xlink:href="#DejaVuSans-74"/>
      <use x="363.578125" xlink:href="#DejaVuSans-69"/>
      <use x="391.361328" xlink:href="#DejaVuSans-6f"/>
      <use x="452.542969" xlink:href="#DejaVuSans-6e"/>
      <use x="515.921875" xlink:href="#DejaVuSans-20"/>
      <use x="547.708984" xlink:href="#DejaVuSans-6f"/>
      <use x="608.890625" xlink:href="#DejaVuSans-66"/>
      <use x="644.095703" xlink:href="#DejaVuSans-20"/>
      <use x="675.882812" xlink:href="#DejaVuSans-4e"/>
      <use x="750.6875" xlink:href="#DejaVuSans-65"/>
      <use x="812.210938" xlink:href="#DejaVuSans-77"/>
      <use x="893.998047" xlink:href="#DejaVuSans-20"/>
      <use x="925.785156" xlink:href="#DejaVuSans-54"/>
      <use x="969.869141" xlink:href="#DejaVuSans-65"/>
      <use x="1031.392578" xlink:href="#DejaVuSans-63"/>
      <use x="1086.373047" xlink:href="#DejaVuSans-68"/>
      <use x="1149.751953" xlink:href="#DejaVuSans-6e"/>
      <use x="1213.130859" xlink:href="#DejaVuSans-6f"/>
      <use x="1274.3125" xlink:href="#DejaVuSans-6c"/>
      <use x="1302.095703" xlink:href="#DejaVuSans-6f"/>
      <use x="1363.277344" xlink:href="#DejaVuSans-67"/>
      <use x="1426.753906" xlink:href="#DejaVuSans-79"/>
      <use x="1485.933594" xlink:href="#DejaVuSans-20"/>
      <use x="1517.720703" xlink:href="#DejaVuSans-69"/>
      <use x="1545.503906" xlink:href="#DejaVuSans-6e"/>
      <use x="1608.882812" xlink:href="#DejaVuSans-20"/>
      <use x="1640.669922" xlink:href="#DejaVuSans-47"/>
      <use x="1718.160156" xlink:href="#DejaVuSans-72"/>
      <use x="1759.273438" xlink:href="#DejaVuSans-69"/>
      <use x="1787.056641" xlink:href="#DejaVuSans-64"/>
      <use x="1850.533203" xlink:href="#DejaVuSans-20"/>
      <use x="1882.320312" xlink:href="#DejaVuSans-28"/>
      <use x="1921.333984" xlink:href="#DejaVuSans-25"/>
      <use x="2016.353516" xlink:href="#DejaVuSans-29"/>
     </g>
    </g>
   </g>
   <g id="matplotlib.axis_2">
    <g id="ytick_1">
     <g id="line2d_7">
      <defs>
       <path d="M 0 0 
L -3.5 0 
" id="m795323b72e" style="stroke:#000000;stroke-width:0.8;"/>
      </defs>
      <g>
       <use style="stroke:#000000;stroke-width:0.8;" x="54" xlink:href="#m795323b72e" y="512.64"/>
      </g>
     </g>
     <g id="text_8">
      <!-- 0 -->
      <g transform="translate(40.6375 516.439219)scale(0.1 -0.1)">
       <use xlink:href="#DejaVuSans-30"/>
      </g>
     </g>
    </g>
    <g id="ytick_2">
     <g id="line2d_8">
      <g>
       <use style="stroke:#000000;stroke-width:0.8;" x="54" xlink:href="#m795323b72e" y="440.916206"/>
      </g>
     </g>
     <g id="text_9">
      <!-- 20 -->
      <g transform="translate(34.275 444.715425)scale(0.1 -0.1)">
       <use xlink:href="#DejaVuSans-32"/>
       <use x="63.623047" xlink:href="#DejaVuSans-30"/>
      </g>
     </g>
    </g>
    <g id="ytick_3">
     <g id="line2d_9">
      <g>
       <use style="stroke:#000000;stroke-width:0.8;" x="54" xlink:href="#m795323b72e" y="369.192412"/>
      </g>
     </g>
     <g id="text_10">
      <!-- 40 -->
      <g transform="translate(34.275 372.99163)scale(0.1 -0.1)">
       <use xlink:href="#DejaVuSans-34"/>
       <use x="63.623047" xlink:href="#DejaVuSans-30"/>
      </g>
     </g>
    </g>
    <g id="ytick_4">
     <g id="line2d_10">
      <g>
       <use style="stroke:#000000;stroke-width:0.8;" x="54" xlink:href="#m795323b72e" y="297.468617"/>
      </g>
     </g>
     <g id="text_11">
      <!-- 60 -->
      <g transform="translate(34.275 301.267836)scale(0.1 -0.1)">
       <use xlink:href="#DejaVuSans-36"/>
       <use x="63.623047" xlink:href="#DejaVuSans-30"/>
      </g>
     </g>
    </g>
    <g id="ytick_5">
     <g id="line2d_11">
      <g>
       <use style="stroke:#000000;stroke-width:0.8;" x="54" xlink:href="#m795323b72e" y="225.744823"/>
      </g>
     </g>
     <g id="text_12">
      <!-- 80 -->
      <g transform="translate(34.275 229.544042)scale(0.1 -0.1)">
       <use xlink:href="#DejaVuSans-38"/>
       <use x="63.623047" xlink:href="#DejaVuSans-30"/>
      </g>
     </g>
    </g>
    <g id="ytick_6">
     <g id="line2d_12">
      <g>
       <use style="stroke:#000000;stroke-width:0.8;" x="54" xlink:href="#m795323b72e" y="154.021029"/>
      </g>
     </g>
     <g id="text_13">
      <!-- 100 -->
      <g transform="translate(27.9125 157.820248)scale(0.1 -0.1)">
       <use xlink:href="#DejaVuSans-31"/>
       <use x="63.623047" xlink:href="#DejaVuSans-30"/>
       <use x="127.246094" xlink:href="#DejaVuSans-30"/>
      </g>
     </g>
    </g>
    <g id="ytick_7">
     <g id="line2d_13">
      <g>
       <use style="stroke:#000000;stroke-width:0.8;" x="54" xlink:href="#m795323b72e" y="82.297235"/>
      </g>
     </g>
     <g id="text_14">
      <!-- 120 -->
      <g transform="translate(27.9125 86.096454)scale(0.1 -0.1)">
       <use xlink:href="#DejaVuSans-31"/>
       <use x="63.623047" xlink:href="#DejaVuSans-32"/>
       <use x="127.246094" xlink:href="#DejaVuSans-30"/>
      </g>
     </g>
    </g>
    <g id="text_15">
     <!-- Energy Generated (TWh) -->
     <g transform="translate(21.832812 353.158906)rotate(-90)scale(0.1 -0.1)">
      <defs>
       <path d="M 628 4666 
L 3578 4666 
L 3578 4134 
L 1259 4134 
L 1259 2753 
L 3481 2753 
L 3481 2222 
L 1259 2222 
L 1259 531 
L 3634 531 
L 3634 0 
L 628 0 
L 628 4666 
z
" id="DejaVuSans-45" transform="scale(0.015625)"/>
       <path d="M 2194 1759 
Q 1497 1759 1228 1600 
Q 959 1441 959 1056 
Q 959 750 1161 570 
Q 1363 391 1709 391 
Q 2188 391 2477 730 
Q 2766 1069 2766 1631 
L 2766 1759 
L 2194 1759 
z
M 3341 1997 
L 3341 0 
L 2766 0 
L 2766 531 
Q 2569 213 2275 61 
Q 1981 -91 1556 -91 
Q 1019 -91 701 211 
Q 384 513 384 1019 
Q 384 1609 779 1909 
Q 1175 2209 1959 2209 
L 2766 2209 
L 2766 2266 
Q 2766 2663 2505 2880 
Q 2244 3097 1772 3097 
Q 1472 3097 1187 3025 
Q 903 2953 641 2809 
L 641 3341 
Q 956 3463 1253 3523 
Q 1550 3584 1831 3584 
Q 2591 3584 2966 3190 
Q 3341 2797 3341 1997 
z
" id="DejaVuSans-61" transform="scale(0.015625)"/>
       <path d="M 213 4666 
L 850 4666 
L 1831 722 
L 2809 4666 
L 3519 4666 
L 4500 722 
L 5478 4666 
L 6119 4666 
L 4947 0 
L 4153 0 
L 3169 4050 
L 2175 0 
L 1381 0 
L 213 4666 
z
" id="DejaVuSans-57" transform="scale(0.015625)"/>
      </defs>
      <use xlink:href="#DejaVuSans-45"/>
      <use x="63.183594" xlink:href="#DejaVuSans-6e"/>
      <use x="126.5625" xlink:href="#DejaVuSans-65"/>
      <use x="188.085938" xlink:href="#DejaVuSans-72"/>
      <use x="227.449219" xlink:href="#DejaVuSans-67"/>
      <use x="290.925781" xlink:href="#DejaVuSans-79"/>
      <use x="350.105469" xlink:href="#DejaVuSans-20"/>
      <use x="381.892578" xlink:href="#DejaVuSans-47"/>
      <use x="459.382812" xlink:href="#DejaVuSans-65"/>
      <use x="520.90625" xlink:href="#DejaVuSans-6e"/>
      <use x="584.285156" xlink:href="#DejaVuSans-65"/>
      <use x="645.808594" xlink:href="#DejaVuSans-72"/>
      <use x="686.921875" xlink:href="#DejaVuSans-61"/>
      <use x="748.201172" xlink:href="#DejaVuSans-74"/>
      <use x="787.410156" xlink:href="#DejaVuSans-65"/>
      <use x="848.933594" xlink:href="#DejaVuSans-64"/>
      <use x="912.410156" xlink:href="#DejaVuSans-20"/>
      <use x="944.197266" xlink:href="#DejaVuSans-28"/>
      <use x="983.210938" xlink:href="#DejaVuSans-54"/>
      <use x="1044.294922" xlink:href="#DejaVuSans-57"/>
      <use x="1143.171875" xlink:href="#DejaVuSans-68"/>
      <use x="1206.550781" xlink:href="#DejaVuSans-29"/>
     </g>
    </g>
   </g>
   <g id="patch_3">
    <path d="M 54 512.64 
L 54 69.12 
" style="fill:none;stroke:#000000;stroke-linecap:square;stroke-linejoin:miter;stroke-width:0.8;"/>
   </g>
   <g id="patch_4">
    <path d="M 388.8 512.64 
L 388.8 69.12 
" style="fill:none;stroke:#000000;stroke-linecap:square;stroke-linejoin:miter;stroke-width:0.8;"/>
   </g>
   <g id="patch_5">
    <path d="M 54 512.64 
L 388.8 512.64 
" style="fill:none;stroke:#000000;stroke-linecap:square;stroke-linejoin:miter;stroke-width:0.8;"/>
   </g>
   <g id="patch_6">
    <path d="M 54 69.12 
L 388.8 69.12 
" style="fill:none;stroke:#000000;stroke-linecap:square;stroke-linejoin:miter;stroke-width:0.8;"/>
   </g>
  </g>
 </g>
 <defs>
  <clipPath id="p70e68e1c7c">
   <rect height="443.52" width="334.8" x="54" y="69.12"/>
  </clipPath>
 </defs>
</svg>
