<?xml version="1.0" encoding="utf-8" standalone="no"?>
<!DOCTYPE svg PUBLIC "-//W3C//DTD SVG 1.1//EN"
  "http://www.w3.org/Graphics/SVG/1.1/DTD/svg11.dtd">
<svg height="345.6pt" version="1.1" viewBox="0 0 460.8 345.6" width="460.8pt" xmlns="http://www.w3.org/2000/svg" xmlns:xlink="http://www.w3.org/1999/xlink">
 <metadata>
  <rdf:RDF xmlns:cc="http://creativecommons.org/ns#" xmlns:dc="http://purl.org/dc/elements/1.1/" xmlns:rdf="http://www.w3.org/1999/02/22-rdf-syntax-ns#">
   <cc:Work>
    <dc:type rdf:resource="http://purl.org/dc/dcmitype/StillImage"/>
    <dc:date>2021-10-15T14:41:22.550907</dc:date>
    <dc:format>image/svg+xml</dc:format>
    <dc:creator>
     <cc:Agent>
      <dc:title>Matplotlib v3.4.1, https://matplotlib.org/</dc:title>
     </cc:Agent>
    </dc:creator>
   </cc:Work>
  </rdf:RDF>
 </metadata>
 <defs>
  <style type="text/css">*{stroke-linecap:butt;stroke-linejoin:round;}</style>
 </defs>
 <g id="figure_1">
  <g id="patch_1">
   <path d="M 0 345.6 
L 460.8 345.6 
L 460.8 0 
L 0 0 
z
" style="fill:#ffffff;"/>
  </g>
  <g id="axes_1">
   <g id="patch_2">
    <path d="M 53.3 294.712 
L 432.18 294.712 
L 432.18 10.8 
L 53.3 10.8 
z
" style="fill:#ffffff;"/>
   </g>
   <g id="matplotlib.axis_1">
    <g id="xtick_1">
     <g id="line2d_1">
      <defs>
       <path d="M 0 0 
L 0 3.5 
" id="m7d1a729342" style="stroke:#000000;stroke-width:0.8;"/>
      </defs>
      <g>
       <use style="stroke:#000000;stroke-width:0.8;" x="53.3" xlink:href="#m7d1a729342" y="294.712"/>
      </g>
     </g>
     <g id="text_1">
      <!-- 0 -->
      <g transform="translate(48.84625 312.349812)scale(0.14 -0.14)">
       <defs>
        <path d="M 2034 4250 
Q 1547 4250 1301 3770 
Q 1056 3291 1056 2328 
Q 1056 1369 1301 889 
Q 1547 409 2034 409 
Q 2525 409 2770 889 
Q 3016 1369 3016 2328 
Q 3016 3291 2770 3770 
Q 2525 4250 2034 4250 
z
M 2034 4750 
Q 2819 4750 3233 4129 
Q 3647 3509 3647 2328 
Q 3647 1150 3233 529 
Q 2819 -91 2034 -91 
Q 1250 -91 836 529 
Q 422 1150 422 2328 
Q 422 3509 836 4129 
Q 1250 4750 2034 4750 
z
" id="DejaVuSans-30" transform="scale(0.015625)"/>
       </defs>
       <use xlink:href="#DejaVuSans-30"/>
      </g>
     </g>
    </g>
    <g id="xtick_2">
     <g id="line2d_2">
      <g>
       <use style="stroke:#000000;stroke-width:0.8;" x="129.076" xlink:href="#m7d1a729342" y="294.712"/>
      </g>
     </g>
     <g id="text_2">
      <!-- 200 -->
      <g transform="translate(115.71475 312.349812)scale(0.14 -0.14)">
       <defs>
        <path d="M 1228 531 
L 3431 531 
L 3431 0 
L 469 0 
L 469 531 
Q 828 903 1448 1529 
Q 2069 2156 2228 2338 
Q 2531 2678 2651 2914 
Q 2772 3150 2772 3378 
Q 2772 3750 2511 3984 
Q 2250 4219 1831 4219 
Q 1534 4219 1204 4116 
Q 875 4013 500 3803 
L 500 4441 
Q 881 4594 1212 4672 
Q 1544 4750 1819 4750 
Q 2544 4750 2975 4387 
Q 3406 4025 3406 3419 
Q 3406 3131 3298 2873 
Q 3191 2616 2906 2266 
Q 2828 2175 2409 1742 
Q 1991 1309 1228 531 
z
" id="DejaVuSans-32" transform="scale(0.015625)"/>
       </defs>
       <use xlink:href="#DejaVuSans-32"/>
       <use x="63.623047" xlink:href="#DejaVuSans-30"/>
       <use x="127.246094" xlink:href="#DejaVuSans-30"/>
      </g>
     </g>
    </g>
    <g id="xtick_3">
     <g id="line2d_3">
      <g>
       <use style="stroke:#000000;stroke-width:0.8;" x="204.852" xlink:href="#m7d1a729342" y="294.712"/>
      </g>
     </g>
     <g id="text_3">
      <!-- 400 -->
      <g transform="translate(191.49075 312.349812)scale(0.14 -0.14)">
       <defs>
        <path d="M 2419 4116 
L 825 1625 
L 2419 1625 
L 2419 4116 
z
M 2253 4666 
L 3047 4666 
L 3047 1625 
L 3713 1625 
L 3713 1100 
L 3047 1100 
L 3047 0 
L 2419 0 
L 2419 1100 
L 313 1100 
L 313 1709 
L 2253 4666 
z
" id="DejaVuSans-34" transform="scale(0.015625)"/>
       </defs>
       <use xlink:href="#DejaVuSans-34"/>
       <use x="63.623047" xlink:href="#DejaVuSans-30"/>
       <use x="127.246094" xlink:href="#DejaVuSans-30"/>
      </g>
     </g>
    </g>
    <g id="xtick_4">
     <g id="line2d_4">
      <g>
       <use style="stroke:#000000;stroke-width:0.8;" x="280.628" xlink:href="#m7d1a729342" y="294.712"/>
      </g>
     </g>
     <g id="text_4">
      <!-- 600 -->
      <g transform="translate(267.26675 312.349812)scale(0.14 -0.14)">
       <defs>
        <path d="M 2113 2584 
Q 1688 2584 1439 2293 
Q 1191 2003 1191 1497 
Q 1191 994 1439 701 
Q 1688 409 2113 409 
Q 2538 409 2786 701 
Q 3034 994 3034 1497 
Q 3034 2003 2786 2293 
Q 2538 2584 2113 2584 
z
M 3366 4563 
L 3366 3988 
Q 3128 4100 2886 4159 
Q 2644 4219 2406 4219 
Q 1781 4219 1451 3797 
Q 1122 3375 1075 2522 
Q 1259 2794 1537 2939 
Q 1816 3084 2150 3084 
Q 2853 3084 3261 2657 
Q 3669 2231 3669 1497 
Q 3669 778 3244 343 
Q 2819 -91 2113 -91 
Q 1303 -91 875 529 
Q 447 1150 447 2328 
Q 447 3434 972 4092 
Q 1497 4750 2381 4750 
Q 2619 4750 2861 4703 
Q 3103 4656 3366 4563 
z
" id="DejaVuSans-36" transform="scale(0.015625)"/>
       </defs>
       <use xlink:href="#DejaVuSans-36"/>
       <use x="63.623047" xlink:href="#DejaVuSans-30"/>
       <use x="127.246094" xlink:href="#DejaVuSans-30"/>
      </g>
     </g>
    </g>
    <g id="xtick_5">
     <g id="line2d_5">
      <g>
       <use style="stroke:#000000;stroke-width:0.8;" x="356.404" xlink:href="#m7d1a729342" y="294.712"/>
      </g>
     </g>
     <g id="text_5">
      <!-- 800 -->
      <g transform="translate(343.04275 312.349812)scale(0.14 -0.14)">
       <defs>
        <path d="M 2034 2216 
Q 1584 2216 1326 1975 
Q 1069 1734 1069 1313 
Q 1069 891 1326 650 
Q 1584 409 2034 409 
Q 2484 409 2743 651 
Q 3003 894 3003 1313 
Q 3003 1734 2745 1975 
Q 2488 2216 2034 2216 
z
M 1403 2484 
Q 997 2584 770 2862 
Q 544 3141 544 3541 
Q 544 4100 942 4425 
Q 1341 4750 2034 4750 
Q 2731 4750 3128 4425 
Q 3525 4100 3525 3541 
Q 3525 3141 3298 2862 
Q 3072 2584 2669 2484 
Q 3125 2378 3379 2068 
Q 3634 1759 3634 1313 
Q 3634 634 3220 271 
Q 2806 -91 2034 -91 
Q 1263 -91 848 271 
Q 434 634 434 1313 
Q 434 1759 690 2068 
Q 947 2378 1403 2484 
z
M 1172 3481 
Q 1172 3119 1398 2916 
Q 1625 2713 2034 2713 
Q 2441 2713 2670 2916 
Q 2900 3119 2900 3481 
Q 2900 3844 2670 4047 
Q 2441 4250 2034 4250 
Q 1625 4250 1398 4047 
Q 1172 3844 1172 3481 
z
" id="DejaVuSans-38" transform="scale(0.015625)"/>
       </defs>
       <use xlink:href="#DejaVuSans-38"/>
       <use x="63.623047" xlink:href="#DejaVuSans-30"/>
       <use x="127.246094" xlink:href="#DejaVuSans-30"/>
      </g>
     </g>
    </g>
    <g id="xtick_6">
     <g id="line2d_6">
      <g>
       <use style="stroke:#000000;stroke-width:0.8;" x="432.18" xlink:href="#m7d1a729342" y="294.712"/>
      </g>
     </g>
     <g id="text_6">
      <!-- 1000 -->
      <g transform="translate(414.365 312.349812)scale(0.14 -0.14)">
       <defs>
        <path d="M 794 531 
L 1825 531 
L 1825 4091 
L 703 3866 
L 703 4441 
L 1819 4666 
L 2450 4666 
L 2450 531 
L 3481 531 
L 3481 0 
L 794 0 
L 794 531 
z
" id="DejaVuSans-31" transform="scale(0.015625)"/>
       </defs>
       <use xlink:href="#DejaVuSans-31"/>
       <use x="63.623047" xlink:href="#DejaVuSans-30"/>
       <use x="127.246094" xlink:href="#DejaVuSans-30"/>
       <use x="190.869141" xlink:href="#DejaVuSans-30"/>
      </g>
     </g>
    </g>
    <g id="text_7">
     <!-- Irradiance (Wm$^{-2}$) -->
     <g transform="translate(178.41 331.049812)scale(0.14 -0.14)">
      <defs>
       <path d="M 628 4666 
L 1259 4666 
L 1259 0 
L 628 0 
L 628 4666 
z
" id="DejaVuSans-49" transform="scale(0.015625)"/>
       <path d="M 2631 2963 
Q 2534 3019 2420 3045 
Q 2306 3072 2169 3072 
Q 1681 3072 1420 2755 
Q 1159 2438 1159 1844 
L 1159 0 
L 581 0 
L 581 3500 
L 1159 3500 
L 1159 2956 
Q 1341 3275 1631 3429 
Q 1922 3584 2338 3584 
Q 2397 3584 2469 3576 
Q 2541 3569 2628 3553 
L 2631 2963 
z
" id="DejaVuSans-72" transform="scale(0.015625)"/>
       <path d="M 2194 1759 
Q 1497 1759 1228 1600 
Q 959 1441 959 1056 
Q 959 750 1161 570 
Q 1363 391 1709 391 
Q 2188 391 2477 730 
Q 2766 1069 2766 1631 
L 2766 1759 
L 2194 1759 
z
M 3341 1997 
L 3341 0 
L 2766 0 
L 2766 531 
Q 2569 213 2275 61 
Q 1981 -91 1556 -91 
Q 1019 -91 701 211 
Q 384 513 384 1019 
Q 384 1609 779 1909 
Q 1175 2209 1959 2209 
L 2766 2209 
L 2766 2266 
Q 2766 2663 2505 2880 
Q 2244 3097 1772 3097 
Q 1472 3097 1187 3025 
Q 903 2953 641 2809 
L 641 3341 
Q 956 3463 1253 3523 
Q 1550 3584 1831 3584 
Q 2591 3584 2966 3190 
Q 3341 2797 3341 1997 
z
" id="DejaVuSans-61" transform="scale(0.015625)"/>
       <path d="M 2906 2969 
L 2906 4863 
L 3481 4863 
L 3481 0 
L 2906 0 
L 2906 525 
Q 2725 213 2448 61 
Q 2172 -91 1784 -91 
Q 1150 -91 751 415 
Q 353 922 353 1747 
Q 353 2572 751 3078 
Q 1150 3584 1784 3584 
Q 2172 3584 2448 3432 
Q 2725 3281 2906 2969 
z
M 947 1747 
Q 947 1113 1208 752 
Q 1469 391 1925 391 
Q 2381 391 2643 752 
Q 2906 1113 2906 1747 
Q 2906 2381 2643 2742 
Q 2381 3103 1925 3103 
Q 1469 3103 1208 2742 
Q 947 2381 947 1747 
z
" id="DejaVuSans-64" transform="scale(0.015625)"/>
       <path d="M 603 3500 
L 1178 3500 
L 1178 0 
L 603 0 
L 603 3500 
z
M 603 4863 
L 1178 4863 
L 1178 4134 
L 603 4134 
L 603 4863 
z
" id="DejaVuSans-69" transform="scale(0.015625)"/>
       <path d="M 3513 2113 
L 3513 0 
L 2938 0 
L 2938 2094 
Q 2938 2591 2744 2837 
Q 2550 3084 2163 3084 
Q 1697 3084 1428 2787 
Q 1159 2491 1159 1978 
L 1159 0 
L 581 0 
L 581 3500 
L 1159 3500 
L 1159 2956 
Q 1366 3272 1645 3428 
Q 1925 3584 2291 3584 
Q 2894 3584 3203 3211 
Q 3513 2838 3513 2113 
z
" id="DejaVuSans-6e" transform="scale(0.015625)"/>
       <path d="M 3122 3366 
L 3122 2828 
Q 2878 2963 2633 3030 
Q 2388 3097 2138 3097 
Q 1578 3097 1268 2742 
Q 959 2388 959 1747 
Q 959 1106 1268 751 
Q 1578 397 2138 397 
Q 2388 397 2633 464 
Q 2878 531 3122 666 
L 3122 134 
Q 2881 22 2623 -34 
Q 2366 -91 2075 -91 
Q 1284 -91 818 406 
Q 353 903 353 1747 
Q 353 2603 823 3093 
Q 1294 3584 2113 3584 
Q 2378 3584 2631 3529 
Q 2884 3475 3122 3366 
z
" id="DejaVuSans-63" transform="scale(0.015625)"/>
       <path d="M 3597 1894 
L 3597 1613 
L 953 1613 
Q 991 1019 1311 708 
Q 1631 397 2203 397 
Q 2534 397 2845 478 
Q 3156 559 3463 722 
L 3463 178 
Q 3153 47 2828 -22 
Q 2503 -91 2169 -91 
Q 1331 -91 842 396 
Q 353 884 353 1716 
Q 353 2575 817 3079 
Q 1281 3584 2069 3584 
Q 2775 3584 3186 3129 
Q 3597 2675 3597 1894 
z
M 3022 2063 
Q 3016 2534 2758 2815 
Q 2500 3097 2075 3097 
Q 1594 3097 1305 2825 
Q 1016 2553 972 2059 
L 3022 2063 
z
" id="DejaVuSans-65" transform="scale(0.015625)"/>
       <path id="DejaVuSans-20" transform="scale(0.015625)"/>
       <path d="M 1984 4856 
Q 1566 4138 1362 3434 
Q 1159 2731 1159 2009 
Q 1159 1288 1364 580 
Q 1569 -128 1984 -844 
L 1484 -844 
Q 1016 -109 783 600 
Q 550 1309 550 2009 
Q 550 2706 781 3412 
Q 1013 4119 1484 4856 
L 1984 4856 
z
" id="DejaVuSans-28" transform="scale(0.015625)"/>
       <path d="M 213 4666 
L 850 4666 
L 1831 722 
L 2809 4666 
L 3519 4666 
L 4500 722 
L 5478 4666 
L 6119 4666 
L 4947 0 
L 4153 0 
L 3169 4050 
L 2175 0 
L 1381 0 
L 213 4666 
z
" id="DejaVuSans-57" transform="scale(0.015625)"/>
       <path d="M 3328 2828 
Q 3544 3216 3844 3400 
Q 4144 3584 4550 3584 
Q 5097 3584 5394 3201 
Q 5691 2819 5691 2113 
L 5691 0 
L 5113 0 
L 5113 2094 
Q 5113 2597 4934 2840 
Q 4756 3084 4391 3084 
Q 3944 3084 3684 2787 
Q 3425 2491 3425 1978 
L 3425 0 
L 2847 0 
L 2847 2094 
Q 2847 2600 2669 2842 
Q 2491 3084 2119 3084 
Q 1678 3084 1418 2786 
Q 1159 2488 1159 1978 
L 1159 0 
L 581 0 
L 581 3500 
L 1159 3500 
L 1159 2956 
Q 1356 3278 1631 3431 
Q 1906 3584 2284 3584 
Q 2666 3584 2933 3390 
Q 3200 3197 3328 2828 
z
" id="DejaVuSans-6d" transform="scale(0.015625)"/>
       <path d="M 678 2272 
L 4684 2272 
L 4684 1741 
L 678 1741 
L 678 2272 
z
" id="DejaVuSans-2212" transform="scale(0.015625)"/>
       <path d="M 513 4856 
L 1013 4856 
Q 1481 4119 1714 3412 
Q 1947 2706 1947 2009 
Q 1947 1309 1714 600 
Q 1481 -109 1013 -844 
L 513 -844 
Q 928 -128 1133 580 
Q 1338 1288 1338 2009 
Q 1338 2731 1133 3434 
Q 928 4138 513 4856 
z
" id="DejaVuSans-29" transform="scale(0.015625)"/>
      </defs>
      <use transform="translate(0 0.765625)" xlink:href="#DejaVuSans-49"/>
      <use transform="translate(29.492188 0.765625)" xlink:href="#DejaVuSans-72"/>
      <use transform="translate(70.605469 0.765625)" xlink:href="#DejaVuSans-72"/>
      <use transform="translate(111.71875 0.765625)" xlink:href="#DejaVuSans-61"/>
      <use transform="translate(172.998047 0.765625)" xlink:href="#DejaVuSans-64"/>
      <use transform="translate(236.474609 0.765625)" xlink:href="#DejaVuSans-69"/>
      <use transform="translate(264.257812 0.765625)" xlink:href="#DejaVuSans-61"/>
      <use transform="translate(325.537109 0.765625)" xlink:href="#DejaVuSans-6e"/>
      <use transform="translate(388.916016 0.765625)" xlink:href="#DejaVuSans-63"/>
      <use transform="translate(443.896484 0.765625)" xlink:href="#DejaVuSans-65"/>
      <use transform="translate(505.419922 0.765625)" xlink:href="#DejaVuSans-20"/>
      <use transform="translate(537.207031 0.765625)" xlink:href="#DejaVuSans-28"/>
      <use transform="translate(576.220703 0.765625)" xlink:href="#DejaVuSans-57"/>
      <use transform="translate(675.097656 0.765625)" xlink:href="#DejaVuSans-6d"/>
      <use transform="translate(773.466797 39.046875)scale(0.7)" xlink:href="#DejaVuSans-2212"/>
      <use transform="translate(832.119141 39.046875)scale(0.7)" xlink:href="#DejaVuSans-32"/>
      <use transform="translate(879.389648 0.765625)" xlink:href="#DejaVuSans-29"/>
     </g>
    </g>
   </g>
   <g id="matplotlib.axis_2">
    <g id="ytick_1">
     <g id="line2d_7">
      <defs>
       <path d="M 0 0 
L -3.5 0 
" id="madb0e52e20" style="stroke:#000000;stroke-width:0.8;"/>
      </defs>
      <g>
       <use style="stroke:#000000;stroke-width:0.8;" x="53.3" xlink:href="#madb0e52e20" y="253.854745"/>
      </g>
     </g>
     <g id="text_8">
      <!-- 1 -->
      <g transform="translate(37.3925 259.173651)scale(0.14 -0.14)">
       <use xlink:href="#DejaVuSans-31"/>
      </g>
     </g>
    </g>
    <g id="ytick_2">
     <g id="line2d_8">
      <g>
       <use style="stroke:#000000;stroke-width:0.8;" x="53.3" xlink:href="#madb0e52e20" y="113.608784"/>
      </g>
     </g>
     <g id="text_9">
      <!-- 5 -->
      <g transform="translate(37.3925 118.927691)scale(0.14 -0.14)">
       <defs>
        <path d="M 691 4666 
L 3169 4666 
L 3169 4134 
L 1269 4134 
L 1269 2991 
Q 1406 3038 1543 3061 
Q 1681 3084 1819 3084 
Q 2600 3084 3056 2656 
Q 3513 2228 3513 1497 
Q 3513 744 3044 326 
Q 2575 -91 1722 -91 
Q 1428 -91 1123 -41 
Q 819 9 494 109 
L 494 744 
Q 775 591 1075 516 
Q 1375 441 1709 441 
Q 2250 441 2565 725 
Q 2881 1009 2881 1497 
Q 2881 1984 2565 2268 
Q 2250 2553 1709 2553 
Q 1456 2553 1204 2497 
Q 953 2441 691 2322 
L 691 4666 
z
" id="DejaVuSans-35" transform="scale(0.015625)"/>
       </defs>
       <use xlink:href="#DejaVuSans-35"/>
      </g>
     </g>
    </g>
    <g id="ytick_3">
     <g id="line2d_9">
      <g>
       <use style="stroke:#000000;stroke-width:0.8;" x="53.3" xlink:href="#madb0e52e20" y="76.061743"/>
      </g>
     </g>
     <g id="text_10">
      <!-- 9 -->
      <g transform="translate(37.3925 81.380649)scale(0.14 -0.14)">
       <defs>
        <path d="M 703 97 
L 703 672 
Q 941 559 1184 500 
Q 1428 441 1663 441 
Q 2288 441 2617 861 
Q 2947 1281 2994 2138 
Q 2813 1869 2534 1725 
Q 2256 1581 1919 1581 
Q 1219 1581 811 2004 
Q 403 2428 403 3163 
Q 403 3881 828 4315 
Q 1253 4750 1959 4750 
Q 2769 4750 3195 4129 
Q 3622 3509 3622 2328 
Q 3622 1225 3098 567 
Q 2575 -91 1691 -91 
Q 1453 -91 1209 -44 
Q 966 3 703 97 
z
M 1959 2075 
Q 2384 2075 2632 2365 
Q 2881 2656 2881 3163 
Q 2881 3666 2632 3958 
Q 2384 4250 1959 4250 
Q 1534 4250 1286 3958 
Q 1038 3666 1038 3163 
Q 1038 2656 1286 2365 
Q 1534 2075 1959 2075 
z
" id="DejaVuSans-39" transform="scale(0.015625)"/>
       </defs>
       <use xlink:href="#DejaVuSans-39"/>
      </g>
     </g>
    </g>
    <g id="ytick_4">
     <g id="line2d_10">
      <g>
       <use style="stroke:#000000;stroke-width:0.8;" x="53.3" xlink:href="#madb0e52e20" y="52.571966"/>
      </g>
     </g>
     <g id="text_11">
      <!-- 13 -->
      <g transform="translate(28.485 57.890872)scale(0.14 -0.14)">
       <defs>
        <path d="M 2597 2516 
Q 3050 2419 3304 2112 
Q 3559 1806 3559 1356 
Q 3559 666 3084 287 
Q 2609 -91 1734 -91 
Q 1441 -91 1130 -33 
Q 819 25 488 141 
L 488 750 
Q 750 597 1062 519 
Q 1375 441 1716 441 
Q 2309 441 2620 675 
Q 2931 909 2931 1356 
Q 2931 1769 2642 2001 
Q 2353 2234 1838 2234 
L 1294 2234 
L 1294 2753 
L 1863 2753 
Q 2328 2753 2575 2939 
Q 2822 3125 2822 3475 
Q 2822 3834 2567 4026 
Q 2313 4219 1838 4219 
Q 1578 4219 1281 4162 
Q 984 4106 628 3988 
L 628 4550 
Q 988 4650 1302 4700 
Q 1616 4750 1894 4750 
Q 2613 4750 3031 4423 
Q 3450 4097 3450 3541 
Q 3450 3153 3228 2886 
Q 3006 2619 2597 2516 
z
" id="DejaVuSans-33" transform="scale(0.015625)"/>
       </defs>
       <use xlink:href="#DejaVuSans-31"/>
       <use x="63.623047" xlink:href="#DejaVuSans-33"/>
      </g>
     </g>
    </g>
    <g id="ytick_5">
     <g id="line2d_11">
      <g>
       <use style="stroke:#000000;stroke-width:0.8;" x="53.3" xlink:href="#madb0e52e20" y="35.435614"/>
      </g>
     </g>
     <g id="text_12">
      <!-- 17 -->
      <g transform="translate(28.485 40.75452)scale(0.14 -0.14)">
       <defs>
        <path d="M 525 4666 
L 3525 4666 
L 3525 4397 
L 1831 0 
L 1172 0 
L 2766 4134 
L 525 4134 
L 525 4666 
z
" id="DejaVuSans-37" transform="scale(0.015625)"/>
       </defs>
       <use xlink:href="#DejaVuSans-31"/>
       <use x="63.623047" xlink:href="#DejaVuSans-37"/>
      </g>
     </g>
    </g>
    <g id="ytick_6">
     <g id="line2d_12">
      <g>
       <use style="stroke:#000000;stroke-width:0.8;" x="53.3" xlink:href="#madb0e52e20" y="21.937466"/>
      </g>
     </g>
     <g id="text_13">
      <!-- 21 -->
      <g transform="translate(28.485 27.256372)scale(0.14 -0.14)">
       <use xlink:href="#DejaVuSans-32"/>
       <use x="63.623047" xlink:href="#DejaVuSans-31"/>
      </g>
     </g>
    </g>
    <g id="ytick_7">
     <g id="line2d_13">
      <defs>
       <path d="M 0 0 
L -2 0 
" id="m71c7c201da" style="stroke:#000000;stroke-width:0.6;"/>
      </defs>
      <g>
       <use style="stroke:#000000;stroke-width:0.6;" x="53.3" xlink:href="#m71c7c201da" y="69.331451"/>
      </g>
     </g>
    </g>
    <g id="text_14">
     <!-- Power Conversion Efficiency (%) -->
     <g transform="translate(21.573437 265.774281)rotate(-90)scale(0.14 -0.14)">
      <defs>
       <path d="M 1259 4147 
L 1259 2394 
L 2053 2394 
Q 2494 2394 2734 2622 
Q 2975 2850 2975 3272 
Q 2975 3691 2734 3919 
Q 2494 4147 2053 4147 
L 1259 4147 
z
M 628 4666 
L 2053 4666 
Q 2838 4666 3239 4311 
Q 3641 3956 3641 3272 
Q 3641 2581 3239 2228 
Q 2838 1875 2053 1875 
L 1259 1875 
L 1259 0 
L 628 0 
L 628 4666 
z
" id="DejaVuSans-50" transform="scale(0.015625)"/>
       <path d="M 1959 3097 
Q 1497 3097 1228 2736 
Q 959 2375 959 1747 
Q 959 1119 1226 758 
Q 1494 397 1959 397 
Q 2419 397 2687 759 
Q 2956 1122 2956 1747 
Q 2956 2369 2687 2733 
Q 2419 3097 1959 3097 
z
M 1959 3584 
Q 2709 3584 3137 3096 
Q 3566 2609 3566 1747 
Q 3566 888 3137 398 
Q 2709 -91 1959 -91 
Q 1206 -91 779 398 
Q 353 888 353 1747 
Q 353 2609 779 3096 
Q 1206 3584 1959 3584 
z
" id="DejaVuSans-6f" transform="scale(0.015625)"/>
       <path d="M 269 3500 
L 844 3500 
L 1563 769 
L 2278 3500 
L 2956 3500 
L 3675 769 
L 4391 3500 
L 4966 3500 
L 4050 0 
L 3372 0 
L 2619 2869 
L 1863 0 
L 1184 0 
L 269 3500 
z
" id="DejaVuSans-77" transform="scale(0.015625)"/>
       <path d="M 4122 4306 
L 4122 3641 
Q 3803 3938 3442 4084 
Q 3081 4231 2675 4231 
Q 1875 4231 1450 3742 
Q 1025 3253 1025 2328 
Q 1025 1406 1450 917 
Q 1875 428 2675 428 
Q 3081 428 3442 575 
Q 3803 722 4122 1019 
L 4122 359 
Q 3791 134 3420 21 
Q 3050 -91 2638 -91 
Q 1578 -91 968 557 
Q 359 1206 359 2328 
Q 359 3453 968 4101 
Q 1578 4750 2638 4750 
Q 3056 4750 3426 4639 
Q 3797 4528 4122 4306 
z
" id="DejaVuSans-43" transform="scale(0.015625)"/>
       <path d="M 191 3500 
L 800 3500 
L 1894 563 
L 2988 3500 
L 3597 3500 
L 2284 0 
L 1503 0 
L 191 3500 
z
" id="DejaVuSans-76" transform="scale(0.015625)"/>
       <path d="M 2834 3397 
L 2834 2853 
Q 2591 2978 2328 3040 
Q 2066 3103 1784 3103 
Q 1356 3103 1142 2972 
Q 928 2841 928 2578 
Q 928 2378 1081 2264 
Q 1234 2150 1697 2047 
L 1894 2003 
Q 2506 1872 2764 1633 
Q 3022 1394 3022 966 
Q 3022 478 2636 193 
Q 2250 -91 1575 -91 
Q 1294 -91 989 -36 
Q 684 19 347 128 
L 347 722 
Q 666 556 975 473 
Q 1284 391 1588 391 
Q 1994 391 2212 530 
Q 2431 669 2431 922 
Q 2431 1156 2273 1281 
Q 2116 1406 1581 1522 
L 1381 1569 
Q 847 1681 609 1914 
Q 372 2147 372 2553 
Q 372 3047 722 3315 
Q 1072 3584 1716 3584 
Q 2034 3584 2315 3537 
Q 2597 3491 2834 3397 
z
" id="DejaVuSans-73" transform="scale(0.015625)"/>
       <path d="M 628 4666 
L 3578 4666 
L 3578 4134 
L 1259 4134 
L 1259 2753 
L 3481 2753 
L 3481 2222 
L 1259 2222 
L 1259 531 
L 3634 531 
L 3634 0 
L 628 0 
L 628 4666 
z
" id="DejaVuSans-45" transform="scale(0.015625)"/>
       <path d="M 2375 4863 
L 2375 4384 
L 1825 4384 
Q 1516 4384 1395 4259 
Q 1275 4134 1275 3809 
L 1275 3500 
L 2222 3500 
L 2222 3053 
L 1275 3053 
L 1275 0 
L 697 0 
L 697 3053 
L 147 3053 
L 147 3500 
L 697 3500 
L 697 3744 
Q 697 4328 969 4595 
Q 1241 4863 1831 4863 
L 2375 4863 
z
" id="DejaVuSans-66" transform="scale(0.015625)"/>
       <path d="M 2059 -325 
Q 1816 -950 1584 -1140 
Q 1353 -1331 966 -1331 
L 506 -1331 
L 506 -850 
L 844 -850 
Q 1081 -850 1212 -737 
Q 1344 -625 1503 -206 
L 1606 56 
L 191 3500 
L 800 3500 
L 1894 763 
L 2988 3500 
L 3597 3500 
L 2059 -325 
z
" id="DejaVuSans-79" transform="scale(0.015625)"/>
       <path d="M 4653 2053 
Q 4381 2053 4226 1822 
Q 4072 1591 4072 1178 
Q 4072 772 4226 539 
Q 4381 306 4653 306 
Q 4919 306 5073 539 
Q 5228 772 5228 1178 
Q 5228 1588 5073 1820 
Q 4919 2053 4653 2053 
z
M 4653 2450 
Q 5147 2450 5437 2106 
Q 5728 1763 5728 1178 
Q 5728 594 5436 251 
Q 5144 -91 4653 -91 
Q 4153 -91 3862 251 
Q 3572 594 3572 1178 
Q 3572 1766 3864 2108 
Q 4156 2450 4653 2450 
z
M 1428 4353 
Q 1159 4353 1004 4120 
Q 850 3888 850 3481 
Q 850 3069 1003 2837 
Q 1156 2606 1428 2606 
Q 1700 2606 1854 2837 
Q 2009 3069 2009 3481 
Q 2009 3884 1853 4118 
Q 1697 4353 1428 4353 
z
M 4250 4750 
L 4750 4750 
L 1831 -91 
L 1331 -91 
L 4250 4750 
z
M 1428 4750 
Q 1922 4750 2215 4408 
Q 2509 4066 2509 3481 
Q 2509 2891 2217 2550 
Q 1925 2209 1428 2209 
Q 931 2209 642 2551 
Q 353 2894 353 3481 
Q 353 4063 643 4406 
Q 934 4750 1428 4750 
z
" id="DejaVuSans-25" transform="scale(0.015625)"/>
      </defs>
      <use xlink:href="#DejaVuSans-50"/>
      <use x="56.677734" xlink:href="#DejaVuSans-6f"/>
      <use x="117.859375" xlink:href="#DejaVuSans-77"/>
      <use x="199.646484" xlink:href="#DejaVuSans-65"/>
      <use x="261.169922" xlink:href="#DejaVuSans-72"/>
      <use x="302.283203" xlink:href="#DejaVuSans-20"/>
      <use x="334.070312" xlink:href="#DejaVuSans-43"/>
      <use x="403.894531" xlink:href="#DejaVuSans-6f"/>
      <use x="465.076172" xlink:href="#DejaVuSans-6e"/>
      <use x="528.455078" xlink:href="#DejaVuSans-76"/>
      <use x="587.634766" xlink:href="#DejaVuSans-65"/>
      <use x="649.158203" xlink:href="#DejaVuSans-72"/>
      <use x="690.271484" xlink:href="#DejaVuSans-73"/>
      <use x="742.371094" xlink:href="#DejaVuSans-69"/>
      <use x="770.154297" xlink:href="#DejaVuSans-6f"/>
      <use x="831.335938" xlink:href="#DejaVuSans-6e"/>
      <use x="894.714844" xlink:href="#DejaVuSans-20"/>
      <use x="926.501953" xlink:href="#DejaVuSans-45"/>
      <use x="989.685547" xlink:href="#DejaVuSans-66"/>
      <use x="1024.890625" xlink:href="#DejaVuSans-66"/>
      <use x="1060.095703" xlink:href="#DejaVuSans-69"/>
      <use x="1087.878906" xlink:href="#DejaVuSans-63"/>
      <use x="1142.859375" xlink:href="#DejaVuSans-69"/>
      <use x="1170.642578" xlink:href="#DejaVuSans-65"/>
      <use x="1232.166016" xlink:href="#DejaVuSans-6e"/>
      <use x="1295.544922" xlink:href="#DejaVuSans-63"/>
      <use x="1350.525391" xlink:href="#DejaVuSans-79"/>
      <use x="1409.705078" xlink:href="#DejaVuSans-20"/>
      <use x="1441.492188" xlink:href="#DejaVuSans-28"/>
      <use x="1480.505859" xlink:href="#DejaVuSans-25"/>
      <use x="1575.525391" xlink:href="#DejaVuSans-29"/>
     </g>
    </g>
   </g>
   <g id="line2d_14">
    <path clip-path="url(#p4d76bafea1)" d="M 54.982227 96.572283 
L 55.463405 91.370698 
L 55.584646 71.444732 
L 55.702099 90.546086 
L 56.304518 69.782965 
L 56.906938 93.125559 
L 57.388115 72.250387 
L 57.990534 69.605481 
L 58.229229 92.233329 
L 59.794003 92.63906 
L 60.153939 78.549613 
L 61.47623 93.015379 
L 63.279699 94.248906 
L 63.522182 80.340747 
L 65.685587 91.79199 
L 66.647942 87.934712 
L 66.647942 86.325743 
L 69.296314 90.227755 
L 71.459718 91.537941 
L 71.940896 95.993494 
L 73.024493 99.564633 
L 73.865606 96.487893 
L 74.10809 99.35659 
L 74.827962 93.591075 
L 74.949203 97.416244 
L 75.669075 101.308926 
L 77.112608 101.265764 
L 77.472544 119.218476 
L 82.28432 107.432809 
L 83.489158 121.258764 
L 83.727853 107.972798 
L 84.568966 107.736338 
L 88.179693 126.225322 
L 88.539629 131.27639 
L 91.305453 117.082715 
L 111.272429 131.369491 
L 114.879366 135.623616 
L 116.444141 139.327797 
L 116.804077 143.210856 
L 130.155808 151.522358 
L 132.561696 155.557949 
L 135.691245 151.031151 
L 138.214586 157.78108 
L 148.440557 163.340561 
L 151.206381 163.469604 
L 152.649914 164.78998 
L 156.499334 164.543836 
L 157.942867 168.045007 
L 161.068627 180.484047 
L 162.633402 168.904618 
L 163.232032 169.188817 
L 166.361581 168.218111 
L 170.08976 175.463605 
L 174.659053 180.284582 
L 177.906054 194.444603 
L 182.1192 188.875024 
L 185.847379 195.12325 
L 190.056736 195.672723 
L 192.341382 198.781756 
L 195.467142 199.918209 
L 195.709626 198.683625 
L 204.128339 207.146118 
L 205.45063 205.1187 
L 206.534227 204.929016 
L 210.986067 210.927841 
L 214.111827 210.848055 
L 220.60583 213.951417 
L 227.342317 219.657329 
L 231.070496 221.177088 
L 231.070496 222.34983 
L 232.275334 228.227244 
L 232.514029 221.839924 
L 235.76103 223.975745 
L 238.166918 221.31427 
L 238.409402 225.549296 
L 244.062291 226.975174 
L 249.112762 228.388434 
L 257.171539 232.89919 
L 257.8952 233.502954 
L 262.104557 233.557482 
L 267.276269 237.614926 
L 268.238624 237.714185 
L 268.719802 239.05655 
L 273.0504 240.435613 
L 276.17616 240.205872 
L 276.297402 241.525268 
L 277.37721 241.585393 
L 279.063226 241.905935 
L 279.783098 248.115649 
L 288.323053 244.963259 
L 288.444294 246.962665 
L 290.126522 246.111674 
L 292.53241 247.803622 
L 293.377312 247.517025 
L 295.661958 247.595961 
L 296.98425 247.163561 
L 302.879622 249.370596 
L 306.607802 254.715918 
L 307.570157 249.543406 
L 310.214739 251.590256 
L 310.817158 249.492424 
L 312.13945 252.172456 
L 312.620627 252.480315 
L 315.628934 253.265739 
L 321.520518 253.803379 
L 331.625248 255.701313 
L 334.512314 262.239381 
L 337.638074 257.836227 
L 337.99801 262.158279 
L 341.608736 258.799568 
L 343.893382 260.725693 
L 344.495802 260.358615 
L 350.868563 261.757821 
L 355.559098 263.760644 
L 358.446163 262.907503 
L 359.408518 262.764854 
L 359.52976 262.490735 
L 364.940166 264.373437 
L 371.797894 265.499324 
L 375.166138 267.779086 
L 380.819027 267.169054 
L 385.270867 267.890193 
L 394.89063 269.296099 
L 401.627117 270.095872 
L 402.828166 270.081375 
L 411.849299 272.122253 
L 411.849299 272.122253 
" style="fill:none;stroke:#ff7f0e;stroke-linecap:square;stroke-width:1.5;"/>
   </g>
   <g id="line2d_15">
    <path clip-path="url(#p4d76bafea1)" d="M 67.900122 106.035858 
L 68.460115 103.86634 
L 69.020109 102.179793 
L 72.143152 93.12537 
L 69.580103 100.343221 
L 70.140097 98.557979 
L 70.700091 97.050136 
L 71.260084 95.493105 
L 71.540081 94.329126 
L 73.406727 90.612966 
L 74.620047 88.687531 
L 75.273374 87.527689 
L 76.300029 86.023119 
L 77.420017 84.592473 
L 78.540004 83.447441 
L 79.659992 82.504894 
L 81.059976 81.27687 
L 82.739958 80.196652 
L 84.699936 79.159685 
L 86.939912 78.12865 
L 90.68487 76.637271 
L 88.339896 77.482053 
L 94.611827 75.798651 
L 97.579794 74.790717 
L 101.219754 73.919538 
L 105.139711 73.042295 
L 109.059668 72.22133 
L 113.259621 71.396417 
L 118.019569 70.530534 
L 123.059513 69.699595 
L 128.659451 68.70854 
L 134.632719 68.288419 
L 140.979316 67.841666 
L 147.139248 67.47375 
L 153.29918 67.163399 
L 159.459112 66.919539 
L 165.619044 66.632358 
L 171.778976 66.564252 
L 177.938908 66.457627 
L 184.09884 66.358085 
L 190.258772 66.255481 
L 196.418704 66.153041 
L 202.880171 66.054455 
L 208.738568 66.029399 
L 214.8985 66.048436 
L 221.058432 66.048875 
L 227.218364 66.049314 
L 233.378296 66.049753 
L 239.538228 66.050192 
L 245.69816 66.082712 
L 251.858093 66.169851 
L 258.018025 66.228156 
L 264.177957 66.292953 
L 270.337889 66.370708 
L 276.497821 66.455013 
L 282.657753 66.524348 
L 288.817685 66.607778 
L 294.977617 66.728043 
L 301.137549 66.829052 
L 307.297481 66.936724 
L 313.457413 67.042624 
L 319.377348 67.155706 
L 325.777277 67.277181 
L 331.937209 67.405265 
L 338.097141 67.540173 
L 344.257073 67.672076 
L 350.479227 67.818909 
L 356.576938 67.926132 
L 362.73687 68.095252 
L 368.896802 68.245566 
L 375.056734 68.398896 
L 381.216666 68.535921 
L 387.376598 68.686608 
L 393.656529 68.898058 
L 399.696462 68.99577 
L 405.856394 69.18459 
L 412.016326 69.35708 
L 418.176258 69.533424 
L 424.33619 69.693276 
L 430.856118 69.929868 
L 436.656054 69.973248 
L 442.815986 70.151303 
L 448.975918 70.29557 
L 455.13585 70.47109 
L 461.295782 70.671225 
L 461.8 70.685677 
" style="fill:none;stroke:#1f77b4;stroke-linecap:square;stroke-width:1.5;"/>
   </g>
   <g id="line2d_16">
    <path clip-path="url(#p4d76bafea1)" d="M 116.295173 -1 
L 120.808148 3.419883 
L 125.738519 7.922684 
L 130.668889 12.128877 
L 135.978519 16.368829 
L 141.667407 20.619534 
L 147.735556 24.862001 
L 154.182963 29.080768 
L 160.63037 33.03809 
L 167.457037 36.977065 
L 174.662963 40.887126 
L 182.627407 44.947351 
L 190.971111 48.941069 
L 199.694074 52.865427 
L 208.796296 56.718576 
L 218.657037 60.646162 
L 228.897037 64.484301 
L 239.895556 68.365038 
L 251.273333 72.145945 
L 263.40963 75.946542 
L 276.304444 79.751301 
L 289.957778 83.547191 
L 304.36963 87.323392 
L 319.54 91.071017 
L 335.848148 94.868657 
L 352.914815 98.615061 
L 371.119259 102.382956 
L 390.461481 106.156853 
L 410.941481 109.923719 
L 432.18 113.608784 
L 432.18 113.608784 
" style="fill:none;stroke:#000000;stroke-dasharray:5.55,2.4;stroke-dashoffset:0;stroke-width:1.5;"/>
   </g>
   <g id="patch_3">
    <path d="M 53.3 294.712 
L 53.3 10.8 
" style="fill:none;stroke:#000000;stroke-linecap:square;stroke-linejoin:miter;stroke-width:0.8;"/>
   </g>
   <g id="patch_4">
    <path d="M 432.18 294.712 
L 432.18 10.8 
" style="fill:none;stroke:#000000;stroke-linecap:square;stroke-linejoin:miter;stroke-width:0.8;"/>
   </g>
   <g id="patch_5">
    <path d="M 53.3 294.712 
L 432.18 294.712 
" style="fill:none;stroke:#000000;stroke-linecap:square;stroke-linejoin:miter;stroke-width:0.8;"/>
   </g>
   <g id="patch_6">
    <path d="M 53.3 10.8 
L 432.18 10.8 
" style="fill:none;stroke:#000000;stroke-linecap:square;stroke-linejoin:miter;stroke-width:0.8;"/>
   </g>
  </g>
 </g>
 <defs>
  <clipPath id="p4d76bafea1">
   <rect height="283.912" width="378.88" x="53.3" y="10.8"/>
  </clipPath>
 </defs>
</svg>
