<?xml version="1.0" encoding="utf-8" standalone="no"?>
<!DOCTYPE svg PUBLIC "-//W3C//DTD SVG 1.1//EN"
  "http://www.w3.org/Graphics/SVG/1.1/DTD/svg11.dtd">
<svg height="432pt" version="1.1" viewBox="0 0 360 432" width="360pt" xmlns="http://www.w3.org/2000/svg" xmlns:xlink="http://www.w3.org/1999/xlink">
 <metadata>
  <rdf:RDF xmlns:cc="http://creativecommons.org/ns#" xmlns:dc="http://purl.org/dc/elements/1.1/" xmlns:rdf="http://www.w3.org/1999/02/22-rdf-syntax-ns#">
   <cc:Work>
    <dc:type rdf:resource="http://purl.org/dc/dcmitype/StillImage"/>
    <dc:date>2022-02-16T12:46:13.656872</dc:date>
    <dc:format>image/svg+xml</dc:format>
    <dc:creator>
     <cc:Agent>
      <dc:title>Matplotlib v3.4.1, https://matplotlib.org/</dc:title>
     </cc:Agent>
    </dc:creator>
   </cc:Work>
  </rdf:RDF>
 </metadata>
 <defs>
  <style type="text/css">*{stroke-linecap:butt;stroke-linejoin:round;}</style>
 </defs>
 <g id="figure_1">
  <g id="patch_1">
   <path d="M 0 432 
L 360 432 
L 360 0 
L 0 0 
z
" style="fill:#ffffff;"/>
  </g>
  <g id="axes_1">
   <g id="patch_2">
    <path d="M 62.24 382.624 
L 338.07 382.624 
L 338.07 35.28 
L 62.24 35.28 
z
" style="fill:#ffffff;"/>
   </g>
   <g id="PolyCollection_1">
    <path clip-path="url(#pc61223f73c)" d="M 62.24 349.341426 
L 62.24 382.624 
L 65.026162 382.624 
L 67.812323 382.624 
L 70.598485 382.624 
L 73.384646 382.624 
L 76.170808 382.624 
L 78.95697 382.624 
L 81.743131 382.624 
L 84.529293 382.624 
L 87.315455 382.624 
L 90.101616 382.624 
L 92.887778 382.624 
L 95.673939 382.624 
L 98.460101 382.624 
L 101.246263 382.624 
L 104.032424 382.624 
L 106.818586 382.624 
L 109.604747 382.624 
L 112.390909 382.624 
L 115.177071 382.624 
L 117.963232 382.624 
L 120.749394 382.624 
L 123.535556 382.624 
L 126.321717 382.624 
L 129.107879 382.624 
L 131.89404 382.624 
L 134.680202 382.624 
L 137.466364 382.624 
L 140.252525 382.624 
L 143.038687 382.624 
L 145.824848 382.624 
L 148.61101 382.624 
L 151.397172 382.624 
L 154.183333 382.624 
L 156.969495 382.624 
L 159.755657 382.624 
L 162.541818 382.624 
L 165.32798 382.624 
L 168.114141 382.624 
L 170.900303 382.624 
L 173.686465 382.624 
L 176.472626 382.624 
L 179.258788 382.624 
L 182.044949 382.624 
L 184.831111 382.624 
L 187.617273 382.624 
L 190.403434 382.624 
L 193.189596 382.624 
L 195.975758 382.624 
L 198.761919 382.624 
L 201.548081 382.624 
L 204.334242 382.624 
L 207.120404 382.624 
L 209.906566 382.624 
L 212.692727 382.624 
L 215.478889 382.624 
L 218.265051 382.624 
L 221.051212 382.624 
L 223.837374 382.624 
L 226.623535 382.624 
L 229.409697 382.624 
L 232.195859 382.624 
L 234.98202 382.624 
L 237.768182 382.624 
L 240.554343 382.624 
L 243.340505 382.624 
L 246.126667 382.624 
L 248.912828 382.624 
L 251.69899 382.624 
L 254.485152 382.624 
L 257.271313 382.624 
L 260.057475 382.624 
L 262.843636 382.624 
L 265.629798 382.624 
L 268.41596 382.624 
L 271.202121 382.624 
L 273.988283 382.624 
L 276.774444 382.624 
L 279.560606 382.624 
L 282.346768 382.624 
L 285.132929 382.624 
L 287.919091 382.624 
L 290.705253 382.624 
L 293.491414 382.624 
L 296.277576 382.624 
L 299.063737 382.624 
L 301.849899 382.624 
L 304.636061 382.624 
L 307.422222 382.624 
L 310.208384 382.624 
L 312.994545 382.624 
L 315.780707 382.624 
L 318.566869 382.624 
L 321.35303 382.624 
L 324.139192 382.624 
L 326.925354 382.624 
L 329.711515 382.624 
L 332.497677 382.624 
L 335.283838 382.624 
L 338.07 382.624 
L 338.07 361.113098 
L 338.07 361.113098 
L 335.283838 361.064505 
L 332.497677 361.015284 
L 329.711515 360.96552 
L 326.925354 360.915293 
L 324.139192 360.864572 
L 321.35303 360.813103 
L 318.566869 360.761085 
L 315.780707 360.70829 
L 312.994545 360.654747 
L 310.208384 360.600515 
L 307.422222 360.545714 
L 304.636061 360.490217 
L 301.849899 360.433782 
L 299.063737 360.37638 
L 296.277576 360.318038 
L 293.491414 360.258764 
L 290.705253 360.198447 
L 287.919091 360.137387 
L 285.132929 360.075429 
L 282.346768 360.012428 
L 279.560606 359.948325 
L 276.774444 359.883163 
L 273.988283 359.816746 
L 271.202121 359.749244 
L 268.41596 359.680421 
L 265.629798 359.609998 
L 262.843636 359.537584 
L 260.057475 359.462855 
L 257.271313 359.386384 
L 254.485152 359.308168 
L 251.69899 359.228053 
L 248.912828 359.145944 
L 246.126667 359.062115 
L 243.340505 358.976299 
L 240.554343 358.888585 
L 237.768182 358.799178 
L 234.98202 358.708095 
L 232.195859 358.615009 
L 229.409697 358.519405 
L 226.623535 358.42126 
L 223.837374 358.320939 
L 221.051212 358.218242 
L 218.265051 358.113602 
L 215.478889 358.006402 
L 212.692727 357.896191 
L 209.906566 357.782647 
L 207.120404 357.665457 
L 204.334242 357.543549 
L 201.548081 357.415778 
L 198.761919 357.283106 
L 195.975758 357.144449 
L 193.189596 357.001288 
L 190.403434 356.852758 
L 187.617273 356.698695 
L 184.831111 356.537017 
L 182.044949 356.367799 
L 179.258788 356.190458 
L 176.472626 356.00645 
L 173.686465 355.815915 
L 170.900303 355.619827 
L 168.114141 355.418284 
L 165.32798 355.210538 
L 162.541818 354.996543 
L 159.755657 354.774653 
L 156.969495 354.545294 
L 154.183333 354.308234 
L 151.397172 354.064943 
L 148.61101 353.816118 
L 145.824848 353.561599 
L 143.038687 353.298948 
L 140.252525 353.030315 
L 137.466364 352.755968 
L 134.680202 352.478184 
L 131.89404 352.196303 
L 129.107879 351.910056 
L 126.321717 351.618121 
L 123.535556 351.31954 
L 120.749394 351.016082 
L 117.963232 350.708899 
L 115.177071 350.403951 
L 112.390909 350.119529 
L 109.604747 349.867571 
L 106.818586 349.668041 
L 104.032424 349.534123 
L 101.246263 349.457871 
L 98.460101 349.417373 
L 95.673939 349.394633 
L 92.887778 349.38028 
L 90.101616 349.370779 
L 87.315455 349.364386 
L 84.529293 349.359615 
L 81.743131 349.35594 
L 78.95697 349.353037 
L 76.170808 349.35058 
L 73.384646 349.348392 
L 70.598485 349.346473 
L 67.812323 349.344669 
L 65.026162 349.342991 
L 62.24 349.341426 
z
" style="fill:#3182bd;"/>
   </g>
   <g id="PolyCollection_2">
    <path clip-path="url(#pc61223f73c)" d="M 62.24 186.767377 
L 62.24 349.341426 
L 65.026162 349.342991 
L 67.812323 349.344669 
L 70.598485 349.346473 
L 73.384646 349.348392 
L 76.170808 349.35058 
L 78.95697 349.353037 
L 81.743131 349.35594 
L 84.529293 349.359615 
L 87.315455 349.364386 
L 90.101616 349.370779 
L 92.887778 349.38028 
L 95.673939 349.394633 
L 98.460101 349.417373 
L 101.246263 349.457871 
L 104.032424 349.534123 
L 106.818586 349.668041 
L 109.604747 349.867571 
L 112.390909 350.119529 
L 115.177071 350.403951 
L 117.963232 350.708899 
L 120.749394 351.016082 
L 123.535556 351.31954 
L 126.321717 351.618121 
L 129.107879 351.910056 
L 131.89404 352.196303 
L 134.680202 352.478184 
L 137.466364 352.755968 
L 140.252525 353.030315 
L 143.038687 353.298948 
L 145.824848 353.561599 
L 148.61101 353.816118 
L 151.397172 354.064943 
L 154.183333 354.308234 
L 156.969495 354.545294 
L 159.755657 354.774653 
L 162.541818 354.996543 
L 165.32798 355.210538 
L 168.114141 355.418284 
L 170.900303 355.619827 
L 173.686465 355.815915 
L 176.472626 356.00645 
L 179.258788 356.190458 
L 182.044949 356.367799 
L 184.831111 356.537017 
L 187.617273 356.698695 
L 190.403434 356.852758 
L 193.189596 357.001288 
L 195.975758 357.144449 
L 198.761919 357.283106 
L 201.548081 357.415778 
L 204.334242 357.543549 
L 207.120404 357.665457 
L 209.906566 357.782647 
L 212.692727 357.896191 
L 215.478889 358.006402 
L 218.265051 358.113602 
L 221.051212 358.218242 
L 223.837374 358.320939 
L 226.623535 358.42126 
L 229.409697 358.519405 
L 232.195859 358.615009 
L 234.98202 358.708095 
L 237.768182 358.799178 
L 240.554343 358.888585 
L 243.340505 358.976299 
L 246.126667 359.062115 
L 248.912828 359.145944 
L 251.69899 359.228053 
L 254.485152 359.308168 
L 257.271313 359.386384 
L 260.057475 359.462855 
L 262.843636 359.537584 
L 265.629798 359.609998 
L 268.41596 359.680421 
L 271.202121 359.749244 
L 273.988283 359.816746 
L 276.774444 359.883163 
L 279.560606 359.948325 
L 282.346768 360.012428 
L 285.132929 360.075429 
L 287.919091 360.137387 
L 290.705253 360.198447 
L 293.491414 360.258764 
L 296.277576 360.318038 
L 299.063737 360.37638 
L 301.849899 360.433782 
L 304.636061 360.490217 
L 307.422222 360.545714 
L 310.208384 360.600515 
L 312.994545 360.654747 
L 315.780707 360.70829 
L 318.566869 360.761085 
L 321.35303 360.813103 
L 324.139192 360.864572 
L 326.925354 360.915293 
L 329.711515 360.96552 
L 332.497677 361.015284 
L 335.283838 361.064505 
L 338.07 361.113098 
L 338.07 221.582792 
L 338.07 221.582792 
L 335.283838 221.340392 
L 332.497677 221.097569 
L 329.711515 220.854341 
L 326.925354 220.610598 
L 324.139192 220.366549 
L 321.35303 220.122085 
L 318.566869 219.877126 
L 315.780707 219.6317 
L 312.994545 219.385768 
L 310.208384 219.139514 
L 307.422222 218.892764 
L 304.636061 218.645649 
L 301.849899 218.398 
L 299.063737 218.149893 
L 296.277576 217.901175 
L 293.491414 217.651995 
L 290.705253 217.402395 
L 287.919091 217.152251 
L 285.132929 216.901502 
L 282.346768 216.650311 
L 279.560606 216.398411 
L 276.774444 216.145931 
L 273.988283 215.892848 
L 271.202121 215.639267 
L 268.41596 215.385023 
L 265.629798 215.130116 
L 262.843636 214.874389 
L 260.057475 214.617698 
L 257.271313 214.360362 
L 254.485152 214.102413 
L 251.69899 213.843666 
L 248.912828 213.584033 
L 246.126667 213.323524 
L 243.340505 213.061881 
L 240.554343 212.799095 
L 237.768182 212.535421 
L 234.98202 212.270889 
L 232.195859 212.005518 
L 229.409697 211.739057 
L 226.623535 211.471451 
L 223.837374 211.202846 
L 221.051212 210.933143 
L 218.265051 210.662328 
L 215.478889 210.390338 
L 212.692727 210.117076 
L 209.906566 209.842643 
L 207.120404 209.566723 
L 204.334242 209.289357 
L 201.548081 209.010394 
L 198.761919 208.72965 
L 195.975758 208.447216 
L 193.189596 208.162755 
L 190.403434 207.876033 
L 187.617273 207.587131 
L 184.831111 207.295113 
L 182.044949 207.000316 
L 179.258788 206.702751 
L 176.472626 206.402546 
L 173.686465 206.099755 
L 170.900303 205.794457 
L 168.114141 205.486481 
L 165.32798 205.174801 
L 162.541818 204.859826 
L 159.755657 204.54093 
L 156.969495 204.217435 
L 154.183333 203.888592 
L 151.397172 203.555352 
L 148.61101 203.21704 
L 145.824848 202.873362 
L 143.038687 202.522954 
L 140.252525 202.166234 
L 137.466364 201.801407 
L 134.680202 201.429139 
L 131.89404 201.048494 
L 129.107879 200.65894 
L 126.321717 200.257845 
L 123.535556 199.843196 
L 120.749394 199.414764 
L 117.963232 198.969749 
L 115.177071 198.505299 
L 112.390909 198.021474 
L 109.604747 197.518661 
L 106.818586 196.991955 
L 104.032424 196.439891 
L 101.246263 195.859435 
L 98.460101 195.251514 
L 95.673939 194.61594 
L 92.887778 193.956703 
L 90.101616 193.2838 
L 87.315455 192.601798 
L 84.529293 191.922377 
L 81.743131 191.250745 
L 78.95697 190.5869 
L 76.170808 189.930844 
L 73.384646 189.282575 
L 70.598485 188.642093 
L 67.812323 188.0094 
L 65.026162 187.384494 
L 62.24 186.767377 
z
" style="fill:#6baed6;"/>
   </g>
   <g id="PolyCollection_3">
    <path clip-path="url(#pc61223f73c)" d="M 62.24 183.169631 
L 62.24 186.767377 
L 65.026162 187.384494 
L 67.812323 188.0094 
L 70.598485 188.642093 
L 73.384646 189.282575 
L 76.170808 189.930844 
L 78.95697 190.5869 
L 81.743131 191.250745 
L 84.529293 191.922377 
L 87.315455 192.601798 
L 90.101616 193.2838 
L 92.887778 193.956703 
L 95.673939 194.61594 
L 98.460101 195.251514 
L 101.246263 195.859435 
L 104.032424 196.439891 
L 106.818586 196.991955 
L 109.604747 197.518661 
L 112.390909 198.021474 
L 115.177071 198.505299 
L 117.963232 198.969749 
L 120.749394 199.414764 
L 123.535556 199.843196 
L 126.321717 200.257845 
L 129.107879 200.65894 
L 131.89404 201.048494 
L 134.680202 201.429139 
L 137.466364 201.801407 
L 140.252525 202.166234 
L 143.038687 202.522954 
L 145.824848 202.873362 
L 148.61101 203.21704 
L 151.397172 203.555352 
L 154.183333 203.888592 
L 156.969495 204.217435 
L 159.755657 204.54093 
L 162.541818 204.859826 
L 165.32798 205.174801 
L 168.114141 205.486481 
L 170.900303 205.794457 
L 173.686465 206.099755 
L 176.472626 206.402546 
L 179.258788 206.702751 
L 182.044949 207.000316 
L 184.831111 207.295113 
L 187.617273 207.587131 
L 190.403434 207.876033 
L 193.189596 208.162755 
L 195.975758 208.447216 
L 198.761919 208.72965 
L 201.548081 209.010394 
L 204.334242 209.289357 
L 207.120404 209.566723 
L 209.906566 209.842643 
L 212.692727 210.117076 
L 215.478889 210.390338 
L 218.265051 210.662328 
L 221.051212 210.933143 
L 223.837374 211.202846 
L 226.623535 211.471451 
L 229.409697 211.739057 
L 232.195859 212.005518 
L 234.98202 212.270889 
L 237.768182 212.535421 
L 240.554343 212.799095 
L 243.340505 213.061881 
L 246.126667 213.323524 
L 248.912828 213.584033 
L 251.69899 213.843666 
L 254.485152 214.102413 
L 257.271313 214.360362 
L 260.057475 214.617698 
L 262.843636 214.874389 
L 265.629798 215.130116 
L 268.41596 215.385023 
L 271.202121 215.639267 
L 273.988283 215.892848 
L 276.774444 216.145931 
L 279.560606 216.398411 
L 282.346768 216.650311 
L 285.132929 216.901502 
L 287.919091 217.152251 
L 290.705253 217.402395 
L 293.491414 217.651995 
L 296.277576 217.901175 
L 299.063737 218.149893 
L 301.849899 218.398 
L 304.636061 218.645649 
L 307.422222 218.892764 
L 310.208384 219.139514 
L 312.994545 219.385768 
L 315.780707 219.6317 
L 318.566869 219.877126 
L 321.35303 220.122085 
L 324.139192 220.366549 
L 326.925354 220.610598 
L 329.711515 220.854341 
L 332.497677 221.097569 
L 335.283838 221.340392 
L 338.07 221.582792 
L 338.07 205.680813 
L 338.07 205.680813 
L 335.283838 205.454028 
L 332.497677 205.227244 
L 329.711515 205.000439 
L 326.925354 204.773512 
L 324.139192 204.546521 
L 321.35303 204.319521 
L 318.566869 204.092521 
L 315.780707 203.865521 
L 312.994545 203.638521 
L 310.208384 203.411521 
L 307.422222 203.184521 
L 304.636061 202.957521 
L 301.849899 202.730467 
L 299.063737 202.503389 
L 296.277576 202.276311 
L 293.491414 202.049233 
L 290.705253 201.822156 
L 287.919091 201.595078 
L 285.132929 201.368 
L 282.346768 201.140922 
L 279.560606 200.913845 
L 276.774444 200.686767 
L 273.988283 200.459689 
L 271.202121 200.232611 
L 268.41596 200.005534 
L 265.629798 199.778456 
L 262.843636 199.551378 
L 260.057475 199.3243 
L 257.271313 199.097223 
L 254.485152 198.870145 
L 251.69899 198.643067 
L 248.912828 198.415989 
L 246.126667 198.188912 
L 243.340505 197.961834 
L 240.554343 197.734756 
L 237.768182 197.507678 
L 234.98202 197.2806 
L 232.195859 197.053523 
L 229.409697 196.826445 
L 226.623535 196.599367 
L 223.837374 196.372289 
L 221.051212 196.145212 
L 218.265051 195.918134 
L 215.478889 195.691056 
L 212.692727 195.463978 
L 209.906566 195.236901 
L 207.120404 195.009823 
L 204.334242 194.782745 
L 201.548081 194.555667 
L 198.761919 194.328265 
L 195.975758 194.100538 
L 193.189596 193.87281 
L 190.403434 193.645083 
L 187.617273 193.417356 
L 184.831111 193.189629 
L 182.044949 192.961902 
L 179.258788 192.734174 
L 176.472626 192.506447 
L 173.686465 192.27872 
L 170.900303 192.050993 
L 168.114141 191.823265 
L 165.32798 191.595538 
L 162.541818 191.367811 
L 159.755657 191.140084 
L 156.969495 190.912357 
L 154.183333 190.684629 
L 151.397172 190.456902 
L 148.61101 190.229175 
L 145.824848 190.001448 
L 143.038687 189.77372 
L 140.252525 189.545993 
L 137.466364 189.318266 
L 134.680202 189.090539 
L 131.89404 188.862812 
L 129.107879 188.635084 
L 126.321717 188.407357 
L 123.535556 188.17963 
L 120.749394 187.951903 
L 117.963232 187.724175 
L 115.177071 187.496448 
L 112.390909 187.268721 
L 109.604747 187.040994 
L 106.818586 186.813267 
L 104.032424 186.585539 
L 101.246263 186.357812 
L 98.460101 186.130085 
L 95.673939 185.902358 
L 92.887778 185.67463 
L 90.101616 185.446903 
L 87.315455 185.219176 
L 84.529293 184.991449 
L 81.743131 184.763722 
L 78.95697 184.535994 
L 76.170808 184.308267 
L 73.384646 184.08054 
L 70.598485 183.852813 
L 67.812323 183.625085 
L 65.026162 183.397358 
L 62.24 183.169631 
z
" style="fill:#9ecae1;"/>
   </g>
   <g id="PolyCollection_4">
    <path clip-path="url(#pc61223f73c)" d="M 62.24 179.149491 
L 62.24 183.169631 
L 65.026162 183.397358 
L 67.812323 183.625085 
L 70.598485 183.852813 
L 73.384646 184.08054 
L 76.170808 184.308267 
L 78.95697 184.535994 
L 81.743131 184.763722 
L 84.529293 184.991449 
L 87.315455 185.219176 
L 90.101616 185.446903 
L 92.887778 185.67463 
L 95.673939 185.902358 
L 98.460101 186.130085 
L 101.246263 186.357812 
L 104.032424 186.585539 
L 106.818586 186.813267 
L 109.604747 187.040994 
L 112.390909 187.268721 
L 115.177071 187.496448 
L 117.963232 187.724175 
L 120.749394 187.951903 
L 123.535556 188.17963 
L 126.321717 188.407357 
L 129.107879 188.635084 
L 131.89404 188.862812 
L 134.680202 189.090539 
L 137.466364 189.318266 
L 140.252525 189.545993 
L 143.038687 189.77372 
L 145.824848 190.001448 
L 148.61101 190.229175 
L 151.397172 190.456902 
L 154.183333 190.684629 
L 156.969495 190.912357 
L 159.755657 191.140084 
L 162.541818 191.367811 
L 165.32798 191.595538 
L 168.114141 191.823265 
L 170.900303 192.050993 
L 173.686465 192.27872 
L 176.472626 192.506447 
L 179.258788 192.734174 
L 182.044949 192.961902 
L 184.831111 193.189629 
L 187.617273 193.417356 
L 190.403434 193.645083 
L 193.189596 193.87281 
L 195.975758 194.100538 
L 198.761919 194.328265 
L 201.548081 194.555667 
L 204.334242 194.782745 
L 207.120404 195.009823 
L 209.906566 195.236901 
L 212.692727 195.463978 
L 215.478889 195.691056 
L 218.265051 195.918134 
L 221.051212 196.145212 
L 223.837374 196.372289 
L 226.623535 196.599367 
L 229.409697 196.826445 
L 232.195859 197.053523 
L 234.98202 197.2806 
L 237.768182 197.507678 
L 240.554343 197.734756 
L 243.340505 197.961834 
L 246.126667 198.188912 
L 248.912828 198.415989 
L 251.69899 198.643067 
L 254.485152 198.870145 
L 257.271313 199.097223 
L 260.057475 199.3243 
L 262.843636 199.551378 
L 265.629798 199.778456 
L 268.41596 200.005534 
L 271.202121 200.232611 
L 273.988283 200.459689 
L 276.774444 200.686767 
L 279.560606 200.913845 
L 282.346768 201.140922 
L 285.132929 201.368 
L 287.919091 201.595078 
L 290.705253 201.822156 
L 293.491414 202.049233 
L 296.277576 202.276311 
L 299.063737 202.503389 
L 301.849899 202.730467 
L 304.636061 202.957521 
L 307.422222 203.184521 
L 310.208384 203.411521 
L 312.994545 203.638521 
L 315.780707 203.865521 
L 318.566869 204.092521 
L 321.35303 204.319521 
L 324.139192 204.546521 
L 326.925354 204.773512 
L 329.711515 205.000439 
L 332.497677 205.227244 
L 335.283838 205.454028 
L 338.07 205.680813 
L 338.07 201.660673 
L 338.07 201.660673 
L 335.283838 201.433888 
L 332.497677 201.207103 
L 329.711515 200.980299 
L 326.925354 200.753371 
L 324.139192 200.526381 
L 321.35303 200.299381 
L 318.566869 200.072381 
L 315.780707 199.845381 
L 312.994545 199.618381 
L 310.208384 199.39138 
L 307.422222 199.16438 
L 304.636061 198.93738 
L 301.849899 198.710326 
L 299.063737 198.483249 
L 296.277576 198.256171 
L 293.491414 198.029093 
L 290.705253 197.802015 
L 287.919091 197.574938 
L 285.132929 197.34786 
L 282.346768 197.120782 
L 279.560606 196.893704 
L 276.774444 196.666627 
L 273.988283 196.439549 
L 271.202121 196.212471 
L 268.41596 195.985393 
L 265.629798 195.758316 
L 262.843636 195.531238 
L 260.057475 195.30416 
L 257.271313 195.077082 
L 254.485152 194.850004 
L 251.69899 194.622927 
L 248.912828 194.395849 
L 246.126667 194.168771 
L 243.340505 193.941693 
L 240.554343 193.714616 
L 237.768182 193.487538 
L 234.98202 193.26046 
L 232.195859 193.033382 
L 229.409697 192.806305 
L 226.623535 192.579227 
L 223.837374 192.352149 
L 221.051212 192.125071 
L 218.265051 191.897994 
L 215.478889 191.670916 
L 212.692727 191.443838 
L 209.906566 191.21676 
L 207.120404 190.989683 
L 204.334242 190.762605 
L 201.548081 190.535527 
L 198.761919 190.308125 
L 195.975758 190.080397 
L 193.189596 189.85267 
L 190.403434 189.624943 
L 187.617273 189.397216 
L 184.831111 189.169488 
L 182.044949 188.941761 
L 179.258788 188.714034 
L 176.472626 188.486307 
L 173.686465 188.25858 
L 170.900303 188.030852 
L 168.114141 187.803125 
L 165.32798 187.575398 
L 162.541818 187.347671 
L 159.755657 187.119943 
L 156.969495 186.892216 
L 154.183333 186.664489 
L 151.397172 186.436762 
L 148.61101 186.209035 
L 145.824848 185.981307 
L 143.038687 185.75358 
L 140.252525 185.525853 
L 137.466364 185.298126 
L 134.680202 185.070398 
L 131.89404 184.842671 
L 129.107879 184.614944 
L 126.321717 184.387217 
L 123.535556 184.15949 
L 120.749394 183.931762 
L 117.963232 183.704035 
L 115.177071 183.476308 
L 112.390909 183.248581 
L 109.604747 183.020853 
L 106.818586 182.793126 
L 104.032424 182.565399 
L 101.246263 182.337672 
L 98.460101 182.109945 
L 95.673939 181.882217 
L 92.887778 181.65449 
L 90.101616 181.426763 
L 87.315455 181.199036 
L 84.529293 180.971309 
L 81.743131 180.743581 
L 78.95697 180.515854 
L 76.170808 180.288127 
L 73.384646 180.0604 
L 70.598485 179.832672 
L 67.812323 179.604945 
L 65.026162 179.377218 
L 62.24 179.149491 
z
" style="fill:#c6dbef;"/>
   </g>
   <g id="PolyCollection_5">
    <path clip-path="url(#pc61223f73c)" d="M 62.24 164.334933 
L 62.24 179.149491 
L 65.026162 179.377218 
L 67.812323 179.604945 
L 70.598485 179.832672 
L 73.384646 180.0604 
L 76.170808 180.288127 
L 78.95697 180.515854 
L 81.743131 180.743581 
L 84.529293 180.971309 
L 87.315455 181.199036 
L 90.101616 181.426763 
L 92.887778 181.65449 
L 95.673939 181.882217 
L 98.460101 182.109945 
L 101.246263 182.337672 
L 104.032424 182.565399 
L 106.818586 182.793126 
L 109.604747 183.020853 
L 112.390909 183.248581 
L 115.177071 183.476308 
L 117.963232 183.704035 
L 120.749394 183.931762 
L 123.535556 184.15949 
L 126.321717 184.387217 
L 129.107879 184.614944 
L 131.89404 184.842671 
L 134.680202 185.070398 
L 137.466364 185.298126 
L 140.252525 185.525853 
L 143.038687 185.75358 
L 145.824848 185.981307 
L 148.61101 186.209035 
L 151.397172 186.436762 
L 154.183333 186.664489 
L 156.969495 186.892216 
L 159.755657 187.119943 
L 162.541818 187.347671 
L 165.32798 187.575398 
L 168.114141 187.803125 
L 170.900303 188.030852 
L 173.686465 188.25858 
L 176.472626 188.486307 
L 179.258788 188.714034 
L 182.044949 188.941761 
L 184.831111 189.169488 
L 187.617273 189.397216 
L 190.403434 189.624943 
L 193.189596 189.85267 
L 195.975758 190.080397 
L 198.761919 190.308125 
L 201.548081 190.535527 
L 204.334242 190.762605 
L 207.120404 190.989683 
L 209.906566 191.21676 
L 212.692727 191.443838 
L 215.478889 191.670916 
L 218.265051 191.897994 
L 221.051212 192.125071 
L 223.837374 192.352149 
L 226.623535 192.579227 
L 229.409697 192.806305 
L 232.195859 193.033382 
L 234.98202 193.26046 
L 237.768182 193.487538 
L 240.554343 193.714616 
L 243.340505 193.941693 
L 246.126667 194.168771 
L 248.912828 194.395849 
L 251.69899 194.622927 
L 254.485152 194.850004 
L 257.271313 195.077082 
L 260.057475 195.30416 
L 262.843636 195.531238 
L 265.629798 195.758316 
L 268.41596 195.985393 
L 271.202121 196.212471 
L 273.988283 196.439549 
L 276.774444 196.666627 
L 279.560606 196.893704 
L 282.346768 197.120782 
L 285.132929 197.34786 
L 287.919091 197.574938 
L 290.705253 197.802015 
L 293.491414 198.029093 
L 296.277576 198.256171 
L 299.063737 198.483249 
L 301.849899 198.710326 
L 304.636061 198.93738 
L 307.422222 199.16438 
L 310.208384 199.39138 
L 312.994545 199.618381 
L 315.780707 199.845381 
L 318.566869 200.072381 
L 321.35303 200.299381 
L 324.139192 200.526381 
L 326.925354 200.753371 
L 329.711515 200.980299 
L 332.497677 201.207103 
L 335.283838 201.433888 
L 338.07 201.660673 
L 338.07 186.846115 
L 338.07 186.846115 
L 335.283838 186.61933 
L 332.497677 186.392545 
L 329.711515 186.165741 
L 326.925354 185.938813 
L 324.139192 185.711823 
L 321.35303 185.484823 
L 318.566869 185.257823 
L 315.780707 185.030823 
L 312.994545 184.803822 
L 310.208384 184.576822 
L 307.422222 184.349822 
L 304.636061 184.122822 
L 301.849899 183.895768 
L 299.063737 183.66869 
L 296.277576 183.441613 
L 293.491414 183.214535 
L 290.705253 182.987457 
L 287.919091 182.760379 
L 285.132929 182.533302 
L 282.346768 182.306224 
L 279.560606 182.079146 
L 276.774444 181.852068 
L 273.988283 181.624991 
L 271.202121 181.397913 
L 268.41596 181.170835 
L 265.629798 180.943757 
L 262.843636 180.71668 
L 260.057475 180.489602 
L 257.271313 180.262524 
L 254.485152 180.035446 
L 251.69899 179.808369 
L 248.912828 179.581291 
L 246.126667 179.354213 
L 243.340505 179.127135 
L 240.554343 178.900058 
L 237.768182 178.67298 
L 234.98202 178.445902 
L 232.195859 178.218824 
L 229.409697 177.991746 
L 226.623535 177.764669 
L 223.837374 177.537591 
L 221.051212 177.310513 
L 218.265051 177.083435 
L 215.478889 176.856358 
L 212.692727 176.62928 
L 209.906566 176.402202 
L 207.120404 176.175124 
L 204.334242 175.948047 
L 201.548081 175.720969 
L 198.761919 175.493566 
L 195.975758 175.265839 
L 193.189596 175.038112 
L 190.403434 174.810385 
L 187.617273 174.582657 
L 184.831111 174.35493 
L 182.044949 174.127203 
L 179.258788 173.899476 
L 176.472626 173.671749 
L 173.686465 173.444021 
L 170.900303 173.216294 
L 168.114141 172.988567 
L 165.32798 172.76084 
L 162.541818 172.533113 
L 159.755657 172.305385 
L 156.969495 172.077658 
L 154.183333 171.849931 
L 151.397172 171.622204 
L 148.61101 171.394476 
L 145.824848 171.166749 
L 143.038687 170.939022 
L 140.252525 170.711295 
L 137.466364 170.483568 
L 134.680202 170.25584 
L 131.89404 170.028113 
L 129.107879 169.800386 
L 126.321717 169.572659 
L 123.535556 169.344931 
L 120.749394 169.117204 
L 117.963232 168.889477 
L 115.177071 168.66175 
L 112.390909 168.434023 
L 109.604747 168.206295 
L 106.818586 167.978568 
L 104.032424 167.750841 
L 101.246263 167.523114 
L 98.460101 167.295386 
L 95.673939 167.067659 
L 92.887778 166.839932 
L 90.101616 166.612205 
L 87.315455 166.384478 
L 84.529293 166.15675 
L 81.743131 165.929023 
L 78.95697 165.701296 
L 76.170808 165.473569 
L 73.384646 165.245841 
L 70.598485 165.018114 
L 67.812323 164.790387 
L 65.026162 164.56266 
L 62.24 164.334933 
z
" style="fill:#e6550d;"/>
   </g>
   <g id="PolyCollection_6">
    <path clip-path="url(#pc61223f73c)" d="M 62.24 142.415083 
L 62.24 164.334933 
L 65.026162 164.56266 
L 67.812323 164.790387 
L 70.598485 165.018114 
L 73.384646 165.245841 
L 76.170808 165.473569 
L 78.95697 165.701296 
L 81.743131 165.929023 
L 84.529293 166.15675 
L 87.315455 166.384478 
L 90.101616 166.612205 
L 92.887778 166.839932 
L 95.673939 167.067659 
L 98.460101 167.295386 
L 101.246263 167.523114 
L 104.032424 167.750841 
L 106.818586 167.978568 
L 109.604747 168.206295 
L 112.390909 168.434023 
L 115.177071 168.66175 
L 117.963232 168.889477 
L 120.749394 169.117204 
L 123.535556 169.344931 
L 126.321717 169.572659 
L 129.107879 169.800386 
L 131.89404 170.028113 
L 134.680202 170.25584 
L 137.466364 170.483568 
L 140.252525 170.711295 
L 143.038687 170.939022 
L 145.824848 171.166749 
L 148.61101 171.394476 
L 151.397172 171.622204 
L 154.183333 171.849931 
L 156.969495 172.077658 
L 159.755657 172.305385 
L 162.541818 172.533113 
L 165.32798 172.76084 
L 168.114141 172.988567 
L 170.900303 173.216294 
L 173.686465 173.444021 
L 176.472626 173.671749 
L 179.258788 173.899476 
L 182.044949 174.127203 
L 184.831111 174.35493 
L 187.617273 174.582657 
L 190.403434 174.810385 
L 193.189596 175.038112 
L 195.975758 175.265839 
L 198.761919 175.493566 
L 201.548081 175.720969 
L 204.334242 175.948047 
L 207.120404 176.175124 
L 209.906566 176.402202 
L 212.692727 176.62928 
L 215.478889 176.856358 
L 218.265051 177.083435 
L 221.051212 177.310513 
L 223.837374 177.537591 
L 226.623535 177.764669 
L 229.409697 177.991746 
L 232.195859 178.218824 
L 234.98202 178.445902 
L 237.768182 178.67298 
L 240.554343 178.900058 
L 243.340505 179.127135 
L 246.126667 179.354213 
L 248.912828 179.581291 
L 251.69899 179.808369 
L 254.485152 180.035446 
L 257.271313 180.262524 
L 260.057475 180.489602 
L 262.843636 180.71668 
L 265.629798 180.943757 
L 268.41596 181.170835 
L 271.202121 181.397913 
L 273.988283 181.624991 
L 276.774444 181.852068 
L 279.560606 182.079146 
L 282.346768 182.306224 
L 285.132929 182.533302 
L 287.919091 182.760379 
L 290.705253 182.987457 
L 293.491414 183.214535 
L 296.277576 183.441613 
L 299.063737 183.66869 
L 301.849899 183.895768 
L 304.636061 184.122822 
L 307.422222 184.349822 
L 310.208384 184.576822 
L 312.994545 184.803822 
L 315.780707 185.030823 
L 318.566869 185.257823 
L 321.35303 185.484823 
L 324.139192 185.711823 
L 326.925354 185.938813 
L 329.711515 186.165741 
L 332.497677 186.392545 
L 335.283838 186.61933 
L 338.07 186.846115 
L 338.07 164.926266 
L 338.07 164.926266 
L 335.283838 164.699481 
L 332.497677 164.472696 
L 329.711515 164.245892 
L 326.925354 164.018964 
L 324.139192 163.791974 
L 321.35303 163.564973 
L 318.566869 163.337973 
L 315.780707 163.110973 
L 312.994545 162.883973 
L 310.208384 162.656973 
L 307.422222 162.429973 
L 304.636061 162.202973 
L 301.849899 161.975919 
L 299.063737 161.748841 
L 296.277576 161.521763 
L 293.491414 161.294686 
L 290.705253 161.067608 
L 287.919091 160.84053 
L 285.132929 160.613452 
L 282.346768 160.386375 
L 279.560606 160.159297 
L 276.774444 159.932219 
L 273.988283 159.705141 
L 271.202121 159.478064 
L 268.41596 159.250986 
L 265.629798 159.023908 
L 262.843636 158.79683 
L 260.057475 158.569753 
L 257.271313 158.342675 
L 254.485152 158.115597 
L 251.69899 157.888519 
L 248.912828 157.661441 
L 246.126667 157.434364 
L 243.340505 157.207286 
L 240.554343 156.980208 
L 237.768182 156.75313 
L 234.98202 156.526053 
L 232.195859 156.298975 
L 229.409697 156.071897 
L 226.623535 155.844819 
L 223.837374 155.617742 
L 221.051212 155.390664 
L 218.265051 155.163586 
L 215.478889 154.936508 
L 212.692727 154.709431 
L 209.906566 154.482353 
L 207.120404 154.255275 
L 204.334242 154.028197 
L 201.548081 153.80112 
L 198.761919 153.573717 
L 195.975758 153.34599 
L 193.189596 153.118263 
L 190.403434 152.890535 
L 187.617273 152.662808 
L 184.831111 152.435081 
L 182.044949 152.207354 
L 179.258788 151.979627 
L 176.472626 151.751899 
L 173.686465 151.524172 
L 170.900303 151.296445 
L 168.114141 151.068718 
L 165.32798 150.84099 
L 162.541818 150.613263 
L 159.755657 150.385536 
L 156.969495 150.157809 
L 154.183333 149.930082 
L 151.397172 149.702354 
L 148.61101 149.474627 
L 145.824848 149.2469 
L 143.038687 149.019173 
L 140.252525 148.791445 
L 137.466364 148.563718 
L 134.680202 148.335991 
L 131.89404 148.108264 
L 129.107879 147.880537 
L 126.321717 147.652809 
L 123.535556 147.425082 
L 120.749394 147.197355 
L 117.963232 146.969628 
L 115.177071 146.7419 
L 112.390909 146.514173 
L 109.604747 146.286446 
L 106.818586 146.058719 
L 104.032424 145.830992 
L 101.246263 145.603264 
L 98.460101 145.375537 
L 95.673939 145.14781 
L 92.887778 144.920083 
L 90.101616 144.692355 
L 87.315455 144.464628 
L 84.529293 144.236901 
L 81.743131 144.009174 
L 78.95697 143.781447 
L 76.170808 143.553719 
L 73.384646 143.325992 
L 70.598485 143.098265 
L 67.812323 142.870538 
L 65.026162 142.64281 
L 62.24 142.415083 
z
" style="fill:#fd8d3c;"/>
   </g>
   <g id="PolyCollection_7">
    <path clip-path="url(#pc61223f73c)" d="M 62.24 63.092688 
L 62.24 142.415083 
L 65.026162 142.64281 
L 67.812323 142.870538 
L 70.598485 143.098265 
L 73.384646 143.325992 
L 76.170808 143.553719 
L 78.95697 143.781447 
L 81.743131 144.009174 
L 84.529293 144.236901 
L 87.315455 144.464628 
L 90.101616 144.692355 
L 92.887778 144.920083 
L 95.673939 145.14781 
L 98.460101 145.375537 
L 101.246263 145.603264 
L 104.032424 145.830992 
L 106.818586 146.058719 
L 109.604747 146.286446 
L 112.390909 146.514173 
L 115.177071 146.7419 
L 117.963232 146.969628 
L 120.749394 147.197355 
L 123.535556 147.425082 
L 126.321717 147.652809 
L 129.107879 147.880537 
L 131.89404 148.108264 
L 134.680202 148.335991 
L 137.466364 148.563718 
L 140.252525 148.791445 
L 143.038687 149.019173 
L 145.824848 149.2469 
L 148.61101 149.474627 
L 151.397172 149.702354 
L 154.183333 149.930082 
L 156.969495 150.157809 
L 159.755657 150.385536 
L 162.541818 150.613263 
L 165.32798 150.84099 
L 168.114141 151.068718 
L 170.900303 151.296445 
L 173.686465 151.524172 
L 176.472626 151.751899 
L 179.258788 151.979627 
L 182.044949 152.207354 
L 184.831111 152.435081 
L 187.617273 152.662808 
L 190.403434 152.890535 
L 193.189596 153.118263 
L 195.975758 153.34599 
L 198.761919 153.573717 
L 201.548081 153.80112 
L 204.334242 154.028197 
L 207.120404 154.255275 
L 209.906566 154.482353 
L 212.692727 154.709431 
L 215.478889 154.936508 
L 218.265051 155.163586 
L 221.051212 155.390664 
L 223.837374 155.617742 
L 226.623535 155.844819 
L 229.409697 156.071897 
L 232.195859 156.298975 
L 234.98202 156.526053 
L 237.768182 156.75313 
L 240.554343 156.980208 
L 243.340505 157.207286 
L 246.126667 157.434364 
L 248.912828 157.661441 
L 251.69899 157.888519 
L 254.485152 158.115597 
L 257.271313 158.342675 
L 260.057475 158.569753 
L 262.843636 158.79683 
L 265.629798 159.023908 
L 268.41596 159.250986 
L 271.202121 159.478064 
L 273.988283 159.705141 
L 276.774444 159.932219 
L 279.560606 160.159297 
L 282.346768 160.386375 
L 285.132929 160.613452 
L 287.919091 160.84053 
L 290.705253 161.067608 
L 293.491414 161.294686 
L 296.277576 161.521763 
L 299.063737 161.748841 
L 301.849899 161.975919 
L 304.636061 162.202973 
L 307.422222 162.429973 
L 310.208384 162.656973 
L 312.994545 162.883973 
L 315.780707 163.110973 
L 318.566869 163.337973 
L 321.35303 163.564973 
L 324.139192 163.791974 
L 326.925354 164.018964 
L 329.711515 164.245892 
L 332.497677 164.472696 
L 335.283838 164.699481 
L 338.07 164.926266 
L 338.07 85.60387 
L 338.07 85.60387 
L 335.283838 85.377085 
L 332.497677 85.150301 
L 329.711515 84.923496 
L 326.925354 84.696569 
L 324.139192 84.469578 
L 321.35303 84.242578 
L 318.566869 84.015578 
L 315.780707 83.788578 
L 312.994545 83.561578 
L 310.208384 83.334578 
L 307.422222 83.107578 
L 304.636061 82.880577 
L 301.849899 82.653524 
L 299.063737 82.426446 
L 296.277576 82.199368 
L 293.491414 81.97229 
L 290.705253 81.745213 
L 287.919091 81.518135 
L 285.132929 81.291057 
L 282.346768 81.063979 
L 279.560606 80.836901 
L 276.774444 80.609824 
L 273.988283 80.382746 
L 271.202121 80.155668 
L 268.41596 79.92859 
L 265.629798 79.701513 
L 262.843636 79.474435 
L 260.057475 79.247357 
L 257.271313 79.020279 
L 254.485152 78.793202 
L 251.69899 78.566124 
L 248.912828 78.339046 
L 246.126667 78.111968 
L 243.340505 77.884891 
L 240.554343 77.657813 
L 237.768182 77.430735 
L 234.98202 77.203657 
L 232.195859 76.97658 
L 229.409697 76.749502 
L 226.623535 76.522424 
L 223.837374 76.295346 
L 221.051212 76.068268 
L 218.265051 75.841191 
L 215.478889 75.614113 
L 212.692727 75.387035 
L 209.906566 75.159957 
L 207.120404 74.93288 
L 204.334242 74.705802 
L 201.548081 74.478724 
L 198.761919 74.251322 
L 195.975758 74.023594 
L 193.189596 73.795867 
L 190.403434 73.56814 
L 187.617273 73.340413 
L 184.831111 73.112686 
L 182.044949 72.884958 
L 179.258788 72.657231 
L 176.472626 72.429504 
L 173.686465 72.201777 
L 170.900303 71.974049 
L 168.114141 71.746322 
L 165.32798 71.518595 
L 162.541818 71.290868 
L 159.755657 71.063141 
L 156.969495 70.835413 
L 154.183333 70.607686 
L 151.397172 70.379959 
L 148.61101 70.152232 
L 145.824848 69.924504 
L 143.038687 69.696777 
L 140.252525 69.46905 
L 137.466364 69.241323 
L 134.680202 69.013596 
L 131.89404 68.785868 
L 129.107879 68.558141 
L 126.321717 68.330414 
L 123.535556 68.102687 
L 120.749394 67.87496 
L 117.963232 67.647232 
L 115.177071 67.419505 
L 112.390909 67.191778 
L 109.604747 66.964051 
L 106.818586 66.736323 
L 104.032424 66.508596 
L 101.246263 66.280869 
L 98.460101 66.053142 
L 95.673939 65.825415 
L 92.887778 65.597687 
L 90.101616 65.36996 
L 87.315455 65.142233 
L 84.529293 64.914506 
L 81.743131 64.686778 
L 78.95697 64.459051 
L 76.170808 64.231324 
L 73.384646 64.003597 
L 70.598485 63.77587 
L 67.812323 63.548142 
L 65.026162 63.320415 
L 62.24 63.092688 
z
" style="fill:#fdae6b;"/>
   </g>
   <g id="PolyCollection_8">
    <path clip-path="url(#pc61223f73c)" d="M 62.24 63.092688 
L 62.24 63.092688 
L 65.026162 63.320415 
L 67.812323 63.548142 
L 70.598485 63.77587 
L 73.384646 64.003597 
L 76.170808 64.231324 
L 78.95697 64.459051 
L 81.743131 64.686778 
L 84.529293 64.914506 
L 87.315455 65.142233 
L 90.101616 65.36996 
L 92.887778 65.597687 
L 95.673939 65.825415 
L 98.460101 66.053142 
L 101.246263 66.280869 
L 104.032424 66.508596 
L 106.818586 66.736323 
L 109.604747 66.964051 
L 112.390909 67.191778 
L 115.177071 67.419505 
L 117.963232 67.647232 
L 120.749394 67.87496 
L 123.535556 68.102687 
L 126.321717 68.330414 
L 129.107879 68.558141 
L 131.89404 68.785868 
L 134.680202 69.013596 
L 137.466364 69.241323 
L 140.252525 69.46905 
L 143.038687 69.696777 
L 145.824848 69.924504 
L 148.61101 70.152232 
L 151.397172 70.379959 
L 154.183333 70.607686 
L 156.969495 70.835413 
L 159.755657 71.063141 
L 162.541818 71.290868 
L 165.32798 71.518595 
L 168.114141 71.746322 
L 170.900303 71.974049 
L 173.686465 72.201777 
L 176.472626 72.429504 
L 179.258788 72.657231 
L 182.044949 72.884958 
L 184.831111 73.112686 
L 187.617273 73.340413 
L 190.403434 73.56814 
L 193.189596 73.795867 
L 195.975758 74.023594 
L 198.761919 74.251322 
L 201.548081 74.478724 
L 204.334242 74.705802 
L 207.120404 74.93288 
L 209.906566 75.159957 
L 212.692727 75.387035 
L 215.478889 75.614113 
L 218.265051 75.841191 
L 221.051212 76.068268 
L 223.837374 76.295346 
L 226.623535 76.522424 
L 229.409697 76.749502 
L 232.195859 76.97658 
L 234.98202 77.203657 
L 237.768182 77.430735 
L 240.554343 77.657813 
L 243.340505 77.884891 
L 246.126667 78.111968 
L 248.912828 78.339046 
L 251.69899 78.566124 
L 254.485152 78.793202 
L 257.271313 79.020279 
L 260.057475 79.247357 
L 262.843636 79.474435 
L 265.629798 79.701513 
L 268.41596 79.92859 
L 271.202121 80.155668 
L 273.988283 80.382746 
L 276.774444 80.609824 
L 279.560606 80.836901 
L 282.346768 81.063979 
L 285.132929 81.291057 
L 287.919091 81.518135 
L 290.705253 81.745213 
L 293.491414 81.97229 
L 296.277576 82.199368 
L 299.063737 82.426446 
L 301.849899 82.653524 
L 304.636061 82.880577 
L 307.422222 83.107578 
L 310.208384 83.334578 
L 312.994545 83.561578 
L 315.780707 83.788578 
L 318.566869 84.015578 
L 321.35303 84.242578 
L 324.139192 84.469578 
L 326.925354 84.696569 
L 329.711515 84.923496 
L 332.497677 85.150301 
L 335.283838 85.377085 
L 338.07 85.60387 
L 338.07 85.60387 
L 338.07 85.60387 
L 335.283838 85.377085 
L 332.497677 85.150301 
L 329.711515 84.923496 
L 326.925354 84.696569 
L 324.139192 84.469578 
L 321.35303 84.242578 
L 318.566869 84.015578 
L 315.780707 83.788578 
L 312.994545 83.561578 
L 310.208384 83.334578 
L 307.422222 83.107578 
L 304.636061 82.880577 
L 301.849899 82.653524 
L 299.063737 82.426446 
L 296.277576 82.199368 
L 293.491414 81.97229 
L 290.705253 81.745213 
L 287.919091 81.518135 
L 285.132929 81.291057 
L 282.346768 81.063979 
L 279.560606 80.836901 
L 276.774444 80.609824 
L 273.988283 80.382746 
L 271.202121 80.155668 
L 268.41596 79.92859 
L 265.629798 79.701513 
L 262.843636 79.474435 
L 260.057475 79.247357 
L 257.271313 79.020279 
L 254.485152 78.793202 
L 251.69899 78.566124 
L 248.912828 78.339046 
L 246.126667 78.111968 
L 243.340505 77.884891 
L 240.554343 77.657813 
L 237.768182 77.430735 
L 234.98202 77.203657 
L 232.195859 76.97658 
L 229.409697 76.749502 
L 226.623535 76.522424 
L 223.837374 76.295346 
L 221.051212 76.068268 
L 218.265051 75.841191 
L 215.478889 75.614113 
L 212.692727 75.387035 
L 209.906566 75.159957 
L 207.120404 74.93288 
L 204.334242 74.705802 
L 201.548081 74.478724 
L 198.761919 74.251322 
L 195.975758 74.023594 
L 193.189596 73.795867 
L 190.403434 73.56814 
L 187.617273 73.340413 
L 184.831111 73.112686 
L 182.044949 72.884958 
L 179.258788 72.657231 
L 176.472626 72.429504 
L 173.686465 72.201777 
L 170.900303 71.974049 
L 168.114141 71.746322 
L 165.32798 71.518595 
L 162.541818 71.290868 
L 159.755657 71.063141 
L 156.969495 70.835413 
L 154.183333 70.607686 
L 151.397172 70.379959 
L 148.61101 70.152232 
L 145.824848 69.924504 
L 143.038687 69.696777 
L 140.252525 69.46905 
L 137.466364 69.241323 
L 134.680202 69.013596 
L 131.89404 68.785868 
L 129.107879 68.558141 
L 126.321717 68.330414 
L 123.535556 68.102687 
L 120.749394 67.87496 
L 117.963232 67.647232 
L 115.177071 67.419505 
L 112.390909 67.191778 
L 109.604747 66.964051 
L 106.818586 66.736323 
L 104.032424 66.508596 
L 101.246263 66.280869 
L 98.460101 66.053142 
L 95.673939 65.825415 
L 92.887778 65.597687 
L 90.101616 65.36996 
L 87.315455 65.142233 
L 84.529293 64.914506 
L 81.743131 64.686778 
L 78.95697 64.459051 
L 76.170808 64.231324 
L 73.384646 64.003597 
L 70.598485 63.77587 
L 67.812323 63.548142 
L 65.026162 63.320415 
L 62.24 63.092688 
z
" style="fill:#fdd0a2;"/>
   </g>
   <g id="PolyCollection_9">
    <path clip-path="url(#pc61223f73c)" d="M 62.24 51.82019 
L 62.24 63.092688 
L 65.026162 63.320415 
L 67.812323 63.548142 
L 70.598485 63.77587 
L 73.384646 64.003597 
L 76.170808 64.231324 
L 78.95697 64.459051 
L 81.743131 64.686778 
L 84.529293 64.914506 
L 87.315455 65.142233 
L 90.101616 65.36996 
L 92.887778 65.597687 
L 95.673939 65.825415 
L 98.460101 66.053142 
L 101.246263 66.280869 
L 104.032424 66.508596 
L 106.818586 66.736323 
L 109.604747 66.964051 
L 112.390909 67.191778 
L 115.177071 67.419505 
L 117.963232 67.647232 
L 120.749394 67.87496 
L 123.535556 68.102687 
L 126.321717 68.330414 
L 129.107879 68.558141 
L 131.89404 68.785868 
L 134.680202 69.013596 
L 137.466364 69.241323 
L 140.252525 69.46905 
L 143.038687 69.696777 
L 145.824848 69.924504 
L 148.61101 70.152232 
L 151.397172 70.379959 
L 154.183333 70.607686 
L 156.969495 70.835413 
L 159.755657 71.063141 
L 162.541818 71.290868 
L 165.32798 71.518595 
L 168.114141 71.746322 
L 170.900303 71.974049 
L 173.686465 72.201777 
L 176.472626 72.429504 
L 179.258788 72.657231 
L 182.044949 72.884958 
L 184.831111 73.112686 
L 187.617273 73.340413 
L 190.403434 73.56814 
L 193.189596 73.795867 
L 195.975758 74.023594 
L 198.761919 74.251322 
L 201.548081 74.478724 
L 204.334242 74.705802 
L 207.120404 74.93288 
L 209.906566 75.159957 
L 212.692727 75.387035 
L 215.478889 75.614113 
L 218.265051 75.841191 
L 221.051212 76.068268 
L 223.837374 76.295346 
L 226.623535 76.522424 
L 229.409697 76.749502 
L 232.195859 76.97658 
L 234.98202 77.203657 
L 237.768182 77.430735 
L 240.554343 77.657813 
L 243.340505 77.884891 
L 246.126667 78.111968 
L 248.912828 78.339046 
L 251.69899 78.566124 
L 254.485152 78.793202 
L 257.271313 79.020279 
L 260.057475 79.247357 
L 262.843636 79.474435 
L 265.629798 79.701513 
L 268.41596 79.92859 
L 271.202121 80.155668 
L 273.988283 80.382746 
L 276.774444 80.609824 
L 279.560606 80.836901 
L 282.346768 81.063979 
L 285.132929 81.291057 
L 287.919091 81.518135 
L 290.705253 81.745213 
L 293.491414 81.97229 
L 296.277576 82.199368 
L 299.063737 82.426446 
L 301.849899 82.653524 
L 304.636061 82.880577 
L 307.422222 83.107578 
L 310.208384 83.334578 
L 312.994545 83.561578 
L 315.780707 83.788578 
L 318.566869 84.015578 
L 321.35303 84.242578 
L 324.139192 84.469578 
L 326.925354 84.696569 
L 329.711515 84.923496 
L 332.497677 85.150301 
L 335.283838 85.377085 
L 338.07 85.60387 
L 338.07 51.82019 
L 338.07 51.82019 
L 335.283838 51.82019 
L 332.497677 51.82019 
L 329.711515 51.82019 
L 326.925354 51.82019 
L 324.139192 51.82019 
L 321.35303 51.82019 
L 318.566869 51.82019 
L 315.780707 51.82019 
L 312.994545 51.82019 
L 310.208384 51.82019 
L 307.422222 51.82019 
L 304.636061 51.82019 
L 301.849899 51.82019 
L 299.063737 51.82019 
L 296.277576 51.82019 
L 293.491414 51.82019 
L 290.705253 51.82019 
L 287.919091 51.82019 
L 285.132929 51.82019 
L 282.346768 51.82019 
L 279.560606 51.82019 
L 276.774444 51.82019 
L 273.988283 51.82019 
L 271.202121 51.82019 
L 268.41596 51.82019 
L 265.629798 51.82019 
L 262.843636 51.82019 
L 260.057475 51.82019 
L 257.271313 51.82019 
L 254.485152 51.82019 
L 251.69899 51.82019 
L 248.912828 51.82019 
L 246.126667 51.82019 
L 243.340505 51.82019 
L 240.554343 51.82019 
L 237.768182 51.82019 
L 234.98202 51.82019 
L 232.195859 51.82019 
L 229.409697 51.82019 
L 226.623535 51.82019 
L 223.837374 51.82019 
L 221.051212 51.82019 
L 218.265051 51.82019 
L 215.478889 51.82019 
L 212.692727 51.82019 
L 209.906566 51.82019 
L 207.120404 51.82019 
L 204.334242 51.82019 
L 201.548081 51.82019 
L 198.761919 51.82019 
L 195.975758 51.82019 
L 193.189596 51.82019 
L 190.403434 51.82019 
L 187.617273 51.82019 
L 184.831111 51.82019 
L 182.044949 51.82019 
L 179.258788 51.82019 
L 176.472626 51.82019 
L 173.686465 51.82019 
L 170.900303 51.82019 
L 168.114141 51.82019 
L 165.32798 51.82019 
L 162.541818 51.82019 
L 159.755657 51.82019 
L 156.969495 51.82019 
L 154.183333 51.82019 
L 151.397172 51.82019 
L 148.61101 51.82019 
L 145.824848 51.82019 
L 143.038687 51.82019 
L 140.252525 51.82019 
L 137.466364 51.82019 
L 134.680202 51.82019 
L 131.89404 51.82019 
L 129.107879 51.82019 
L 126.321717 51.82019 
L 123.535556 51.82019 
L 120.749394 51.82019 
L 117.963232 51.82019 
L 115.177071 51.82019 
L 112.390909 51.82019 
L 109.604747 51.82019 
L 106.818586 51.82019 
L 104.032424 51.82019 
L 101.246263 51.82019 
L 98.460101 51.82019 
L 95.673939 51.82019 
L 92.887778 51.82019 
L 90.101616 51.82019 
L 87.315455 51.82019 
L 84.529293 51.82019 
L 81.743131 51.82019 
L 78.95697 51.82019 
L 76.170808 51.82019 
L 73.384646 51.82019 
L 70.598485 51.82019 
L 67.812323 51.82019 
L 65.026162 51.82019 
L 62.24 51.82019 
z
" style="fill:#31a354;"/>
   </g>
   <g id="PolyCollection_10">
    <path clip-path="url(#pc61223f73c)" d="M 62.24 51.82019 
L 62.24 51.82019 
L 65.026162 51.82019 
L 67.812323 51.82019 
L 70.598485 51.82019 
L 73.384646 51.82019 
L 76.170808 51.82019 
L 78.95697 51.82019 
L 81.743131 51.82019 
L 84.529293 51.82019 
L 87.315455 51.82019 
L 90.101616 51.82019 
L 92.887778 51.82019 
L 95.673939 51.82019 
L 98.460101 51.82019 
L 101.246263 51.82019 
L 104.032424 51.82019 
L 106.818586 51.82019 
L 109.604747 51.82019 
L 112.390909 51.82019 
L 115.177071 51.82019 
L 117.963232 51.82019 
L 120.749394 51.82019 
L 123.535556 51.82019 
L 126.321717 51.82019 
L 129.107879 51.82019 
L 131.89404 51.82019 
L 134.680202 51.82019 
L 137.466364 51.82019 
L 140.252525 51.82019 
L 143.038687 51.82019 
L 145.824848 51.82019 
L 148.61101 51.82019 
L 151.397172 51.82019 
L 154.183333 51.82019 
L 156.969495 51.82019 
L 159.755657 51.82019 
L 162.541818 51.82019 
L 165.32798 51.82019 
L 168.114141 51.82019 
L 170.900303 51.82019 
L 173.686465 51.82019 
L 176.472626 51.82019 
L 179.258788 51.82019 
L 182.044949 51.82019 
L 184.831111 51.82019 
L 187.617273 51.82019 
L 190.403434 51.82019 
L 193.189596 51.82019 
L 195.975758 51.82019 
L 198.761919 51.82019 
L 201.548081 51.82019 
L 204.334242 51.82019 
L 207.120404 51.82019 
L 209.906566 51.82019 
L 212.692727 51.82019 
L 215.478889 51.82019 
L 218.265051 51.82019 
L 221.051212 51.82019 
L 223.837374 51.82019 
L 226.623535 51.82019 
L 229.409697 51.82019 
L 232.195859 51.82019 
L 234.98202 51.82019 
L 237.768182 51.82019 
L 240.554343 51.82019 
L 243.340505 51.82019 
L 246.126667 51.82019 
L 248.912828 51.82019 
L 251.69899 51.82019 
L 254.485152 51.82019 
L 257.271313 51.82019 
L 260.057475 51.82019 
L 262.843636 51.82019 
L 265.629798 51.82019 
L 268.41596 51.82019 
L 271.202121 51.82019 
L 273.988283 51.82019 
L 276.774444 51.82019 
L 279.560606 51.82019 
L 282.346768 51.82019 
L 285.132929 51.82019 
L 287.919091 51.82019 
L 290.705253 51.82019 
L 293.491414 51.82019 
L 296.277576 51.82019 
L 299.063737 51.82019 
L 301.849899 51.82019 
L 304.636061 51.82019 
L 307.422222 51.82019 
L 310.208384 51.82019 
L 312.994545 51.82019 
L 315.780707 51.82019 
L 318.566869 51.82019 
L 321.35303 51.82019 
L 324.139192 51.82019 
L 326.925354 51.82019 
L 329.711515 51.82019 
L 332.497677 51.82019 
L 335.283838 51.82019 
L 338.07 51.82019 
L 338.07 51.82019 
L 338.07 51.82019 
L 335.283838 51.82019 
L 332.497677 51.82019 
L 329.711515 51.82019 
L 326.925354 51.82019 
L 324.139192 51.82019 
L 321.35303 51.82019 
L 318.566869 51.82019 
L 315.780707 51.82019 
L 312.994545 51.82019 
L 310.208384 51.82019 
L 307.422222 51.82019 
L 304.636061 51.82019 
L 301.849899 51.82019 
L 299.063737 51.82019 
L 296.277576 51.82019 
L 293.491414 51.82019 
L 290.705253 51.82019 
L 287.919091 51.82019 
L 285.132929 51.82019 
L 282.346768 51.82019 
L 279.560606 51.82019 
L 276.774444 51.82019 
L 273.988283 51.82019 
L 271.202121 51.82019 
L 268.41596 51.82019 
L 265.629798 51.82019 
L 262.843636 51.82019 
L 260.057475 51.82019 
L 257.271313 51.82019 
L 254.485152 51.82019 
L 251.69899 51.82019 
L 248.912828 51.82019 
L 246.126667 51.82019 
L 243.340505 51.82019 
L 240.554343 51.82019 
L 237.768182 51.82019 
L 234.98202 51.82019 
L 232.195859 51.82019 
L 229.409697 51.82019 
L 226.623535 51.82019 
L 223.837374 51.82019 
L 221.051212 51.82019 
L 218.265051 51.82019 
L 215.478889 51.82019 
L 212.692727 51.82019 
L 209.906566 51.82019 
L 207.120404 51.82019 
L 204.334242 51.82019 
L 201.548081 51.82019 
L 198.761919 51.82019 
L 195.975758 51.82019 
L 193.189596 51.82019 
L 190.403434 51.82019 
L 187.617273 51.82019 
L 184.831111 51.82019 
L 182.044949 51.82019 
L 179.258788 51.82019 
L 176.472626 51.82019 
L 173.686465 51.82019 
L 170.900303 51.82019 
L 168.114141 51.82019 
L 165.32798 51.82019 
L 162.541818 51.82019 
L 159.755657 51.82019 
L 156.969495 51.82019 
L 154.183333 51.82019 
L 151.397172 51.82019 
L 148.61101 51.82019 
L 145.824848 51.82019 
L 143.038687 51.82019 
L 140.252525 51.82019 
L 137.466364 51.82019 
L 134.680202 51.82019 
L 131.89404 51.82019 
L 129.107879 51.82019 
L 126.321717 51.82019 
L 123.535556 51.82019 
L 120.749394 51.82019 
L 117.963232 51.82019 
L 115.177071 51.82019 
L 112.390909 51.82019 
L 109.604747 51.82019 
L 106.818586 51.82019 
L 104.032424 51.82019 
L 101.246263 51.82019 
L 98.460101 51.82019 
L 95.673939 51.82019 
L 92.887778 51.82019 
L 90.101616 51.82019 
L 87.315455 51.82019 
L 84.529293 51.82019 
L 81.743131 51.82019 
L 78.95697 51.82019 
L 76.170808 51.82019 
L 73.384646 51.82019 
L 70.598485 51.82019 
L 67.812323 51.82019 
L 65.026162 51.82019 
L 62.24 51.82019 
z
" style="fill:#74c476;"/>
   </g>
   <g id="matplotlib.axis_1">
    <g id="xtick_1">
     <g id="line2d_1">
      <defs>
       <path d="M 0 0 
L 0 3.5 
" id="md3b3f2039c" style="stroke:#000000;stroke-width:0.8;"/>
      </defs>
      <g>
       <use style="stroke:#000000;stroke-width:0.8;" x="62.24" xlink:href="#md3b3f2039c" y="382.624"/>
      </g>
     </g>
     <g id="text_1">
      <!-- 0.0 -->
      <g transform="translate(51.107813 400.261812)scale(0.14 -0.14)">
       <defs>
        <path d="M 2034 4250 
Q 1547 4250 1301 3770 
Q 1056 3291 1056 2328 
Q 1056 1369 1301 889 
Q 1547 409 2034 409 
Q 2525 409 2770 889 
Q 3016 1369 3016 2328 
Q 3016 3291 2770 3770 
Q 2525 4250 2034 4250 
z
M 2034 4750 
Q 2819 4750 3233 4129 
Q 3647 3509 3647 2328 
Q 3647 1150 3233 529 
Q 2819 -91 2034 -91 
Q 1250 -91 836 529 
Q 422 1150 422 2328 
Q 422 3509 836 4129 
Q 1250 4750 2034 4750 
z
" id="DejaVuSans-30" transform="scale(0.015625)"/>
        <path d="M 684 794 
L 1344 794 
L 1344 0 
L 684 0 
L 684 794 
z
" id="DejaVuSans-2e" transform="scale(0.015625)"/>
       </defs>
       <use xlink:href="#DejaVuSans-30"/>
       <use x="63.623047" xlink:href="#DejaVuSans-2e"/>
       <use x="95.410156" xlink:href="#DejaVuSans-30"/>
      </g>
     </g>
    </g>
    <g id="xtick_2">
     <g id="line2d_2">
      <g>
       <use style="stroke:#000000;stroke-width:0.8;" x="131.1975" xlink:href="#md3b3f2039c" y="382.624"/>
      </g>
     </g>
     <g id="text_2">
      <!-- 0.5 -->
      <g transform="translate(120.065312 400.261812)scale(0.14 -0.14)">
       <defs>
        <path d="M 691 4666 
L 3169 4666 
L 3169 4134 
L 1269 4134 
L 1269 2991 
Q 1406 3038 1543 3061 
Q 1681 3084 1819 3084 
Q 2600 3084 3056 2656 
Q 3513 2228 3513 1497 
Q 3513 744 3044 326 
Q 2575 -91 1722 -91 
Q 1428 -91 1123 -41 
Q 819 9 494 109 
L 494 744 
Q 775 591 1075 516 
Q 1375 441 1709 441 
Q 2250 441 2565 725 
Q 2881 1009 2881 1497 
Q 2881 1984 2565 2268 
Q 2250 2553 1709 2553 
Q 1456 2553 1204 2497 
Q 953 2441 691 2322 
L 691 4666 
z
" id="DejaVuSans-35" transform="scale(0.015625)"/>
       </defs>
       <use xlink:href="#DejaVuSans-30"/>
       <use x="63.623047" xlink:href="#DejaVuSans-2e"/>
       <use x="95.410156" xlink:href="#DejaVuSans-35"/>
      </g>
     </g>
    </g>
    <g id="xtick_3">
     <g id="line2d_3">
      <g>
       <use style="stroke:#000000;stroke-width:0.8;" x="200.155" xlink:href="#md3b3f2039c" y="382.624"/>
      </g>
     </g>
     <g id="text_3">
      <!-- 1.0 -->
      <g transform="translate(189.022812 400.261812)scale(0.14 -0.14)">
       <defs>
        <path d="M 794 531 
L 1825 531 
L 1825 4091 
L 703 3866 
L 703 4441 
L 1819 4666 
L 2450 4666 
L 2450 531 
L 3481 531 
L 3481 0 
L 794 0 
L 794 531 
z
" id="DejaVuSans-31" transform="scale(0.015625)"/>
       </defs>
       <use xlink:href="#DejaVuSans-31"/>
       <use x="63.623047" xlink:href="#DejaVuSans-2e"/>
       <use x="95.410156" xlink:href="#DejaVuSans-30"/>
      </g>
     </g>
    </g>
    <g id="xtick_4">
     <g id="line2d_4">
      <g>
       <use style="stroke:#000000;stroke-width:0.8;" x="269.1125" xlink:href="#md3b3f2039c" y="382.624"/>
      </g>
     </g>
     <g id="text_4">
      <!-- 1.5 -->
      <g transform="translate(257.980313 400.261812)scale(0.14 -0.14)">
       <use xlink:href="#DejaVuSans-31"/>
       <use x="63.623047" xlink:href="#DejaVuSans-2e"/>
       <use x="95.410156" xlink:href="#DejaVuSans-35"/>
      </g>
     </g>
    </g>
    <g id="xtick_5">
     <g id="line2d_5">
      <g>
       <use style="stroke:#000000;stroke-width:0.8;" x="338.07" xlink:href="#md3b3f2039c" y="382.624"/>
      </g>
     </g>
     <g id="text_5">
      <!-- 2.0 -->
      <g transform="translate(326.937813 400.261812)scale(0.14 -0.14)">
       <defs>
        <path d="M 1228 531 
L 3431 531 
L 3431 0 
L 469 0 
L 469 531 
Q 828 903 1448 1529 
Q 2069 2156 2228 2338 
Q 2531 2678 2651 2914 
Q 2772 3150 2772 3378 
Q 2772 3750 2511 3984 
Q 2250 4219 1831 4219 
Q 1534 4219 1204 4116 
Q 875 4013 500 3803 
L 500 4441 
Q 881 4594 1212 4672 
Q 1544 4750 1819 4750 
Q 2544 4750 2975 4387 
Q 3406 4025 3406 3419 
Q 3406 3131 3298 2873 
Q 3191 2616 2906 2266 
Q 2828 2175 2409 1742 
Q 1991 1309 1228 531 
z
" id="DejaVuSans-32" transform="scale(0.015625)"/>
       </defs>
       <use xlink:href="#DejaVuSans-32"/>
       <use x="63.623047" xlink:href="#DejaVuSans-2e"/>
       <use x="95.410156" xlink:href="#DejaVuSans-30"/>
      </g>
     </g>
    </g>
    <g id="text_6">
     <!-- C$_C$ -->
     <g transform="translate(191.545 417.811187)scale(0.14 -0.14)">
      <defs>
       <path d="M 4122 4306 
L 4122 3641 
Q 3803 3938 3442 4084 
Q 3081 4231 2675 4231 
Q 1875 4231 1450 3742 
Q 1025 3253 1025 2328 
Q 1025 1406 1450 917 
Q 1875 428 2675 428 
Q 3081 428 3442 575 
Q 3803 722 4122 1019 
L 4122 359 
Q 3791 134 3420 21 
Q 3050 -91 2638 -91 
Q 1578 -91 968 557 
Q 359 1206 359 2328 
Q 359 3453 968 4101 
Q 1578 4750 2638 4750 
Q 3056 4750 3426 4639 
Q 3797 4528 4122 4306 
z
" id="DejaVuSans-43" transform="scale(0.015625)"/>
       <path d="M 4447 4306 
L 4319 3641 
Q 4019 3944 3683 4091 
Q 3347 4238 2956 4238 
Q 2422 4238 2017 3981 
Q 1613 3725 1319 3200 
Q 1131 2863 1032 2486 
Q 934 2109 934 1728 
Q 934 1091 1264 756 
Q 1594 422 2222 422 
Q 2656 422 3056 561 
Q 3456 700 3834 978 
L 3688 231 
Q 3316 72 2936 -9 
Q 2556 -91 2175 -91 
Q 1278 -91 773 396 
Q 269 884 269 1753 
Q 269 2309 461 2846 
Q 653 3384 1013 3828 
Q 1394 4300 1883 4525 
Q 2372 4750 3022 4750 
Q 3422 4750 3780 4639 
Q 4138 4528 4447 4306 
z
" id="DejaVuSans-Oblique-43" transform="scale(0.015625)"/>
      </defs>
      <use transform="translate(0 0.78125)" xlink:href="#DejaVuSans-43"/>
      <use transform="translate(70.78125 -15.625)scale(0.7)" xlink:href="#DejaVuSans-Oblique-43"/>
     </g>
    </g>
   </g>
   <g id="matplotlib.axis_2">
    <g id="ytick_1">
     <g id="line2d_6">
      <defs>
       <path d="M 0 0 
L -3.5 0 
" id="m362839a109" style="stroke:#000000;stroke-width:0.8;"/>
      </defs>
      <g>
       <use style="stroke:#000000;stroke-width:0.8;" x="62.24" xlink:href="#m362839a109" y="382.624"/>
      </g>
     </g>
     <g id="text_7">
      <!-- 0 -->
      <g transform="translate(46.3325 387.942906)scale(0.14 -0.14)">
       <use xlink:href="#DejaVuSans-30"/>
      </g>
     </g>
    </g>
    <g id="ytick_2">
     <g id="line2d_7">
      <g>
       <use style="stroke:#000000;stroke-width:0.8;" x="62.24" xlink:href="#m362839a109" y="322.885534"/>
      </g>
     </g>
     <g id="text_8">
      <!-- 50 -->
      <g transform="translate(37.425 328.20444)scale(0.14 -0.14)">
       <use xlink:href="#DejaVuSans-35"/>
       <use x="63.623047" xlink:href="#DejaVuSans-30"/>
      </g>
     </g>
    </g>
    <g id="ytick_3">
     <g id="line2d_8">
      <g>
       <use style="stroke:#000000;stroke-width:0.8;" x="62.24" xlink:href="#m362839a109" y="263.147068"/>
      </g>
     </g>
     <g id="text_9">
      <!-- 100 -->
      <g transform="translate(28.5175 268.465974)scale(0.14 -0.14)">
       <use xlink:href="#DejaVuSans-31"/>
       <use x="63.623047" xlink:href="#DejaVuSans-30"/>
       <use x="127.246094" xlink:href="#DejaVuSans-30"/>
      </g>
     </g>
    </g>
    <g id="ytick_4">
     <g id="line2d_9">
      <g>
       <use style="stroke:#000000;stroke-width:0.8;" x="62.24" xlink:href="#m362839a109" y="203.408602"/>
      </g>
     </g>
     <g id="text_10">
      <!-- 150 -->
      <g transform="translate(28.5175 208.727508)scale(0.14 -0.14)">
       <use xlink:href="#DejaVuSans-31"/>
       <use x="63.623047" xlink:href="#DejaVuSans-35"/>
       <use x="127.246094" xlink:href="#DejaVuSans-30"/>
      </g>
     </g>
    </g>
    <g id="ytick_5">
     <g id="line2d_10">
      <g>
       <use style="stroke:#000000;stroke-width:0.8;" x="62.24" xlink:href="#m362839a109" y="143.670136"/>
      </g>
     </g>
     <g id="text_11">
      <!-- 200 -->
      <g transform="translate(28.5175 148.989042)scale(0.14 -0.14)">
       <use xlink:href="#DejaVuSans-32"/>
       <use x="63.623047" xlink:href="#DejaVuSans-30"/>
       <use x="127.246094" xlink:href="#DejaVuSans-30"/>
      </g>
     </g>
    </g>
    <g id="ytick_6">
     <g id="line2d_11">
      <g>
       <use style="stroke:#000000;stroke-width:0.8;" x="62.24" xlink:href="#m362839a109" y="83.93167"/>
      </g>
     </g>
     <g id="text_12">
      <!-- 250 -->
      <g transform="translate(28.5175 89.250576)scale(0.14 -0.14)">
       <use xlink:href="#DejaVuSans-32"/>
       <use x="63.623047" xlink:href="#DejaVuSans-35"/>
       <use x="127.246094" xlink:href="#DejaVuSans-30"/>
      </g>
     </g>
    </g>
    <g id="text_13">
     <!-- Energy Generated (TWh) -->
     <g transform="translate(21.605937 296.142469)rotate(-90)scale(0.14 -0.14)">
      <defs>
       <path d="M 628 4666 
L 3578 4666 
L 3578 4134 
L 1259 4134 
L 1259 2753 
L 3481 2753 
L 3481 2222 
L 1259 2222 
L 1259 531 
L 3634 531 
L 3634 0 
L 628 0 
L 628 4666 
z
" id="DejaVuSans-45" transform="scale(0.015625)"/>
       <path d="M 3513 2113 
L 3513 0 
L 2938 0 
L 2938 2094 
Q 2938 2591 2744 2837 
Q 2550 3084 2163 3084 
Q 1697 3084 1428 2787 
Q 1159 2491 1159 1978 
L 1159 0 
L 581 0 
L 581 3500 
L 1159 3500 
L 1159 2956 
Q 1366 3272 1645 3428 
Q 1925 3584 2291 3584 
Q 2894 3584 3203 3211 
Q 3513 2838 3513 2113 
z
" id="DejaVuSans-6e" transform="scale(0.015625)"/>
       <path d="M 3597 1894 
L 3597 1613 
L 953 1613 
Q 991 1019 1311 708 
Q 1631 397 2203 397 
Q 2534 397 2845 478 
Q 3156 559 3463 722 
L 3463 178 
Q 3153 47 2828 -22 
Q 2503 -91 2169 -91 
Q 1331 -91 842 396 
Q 353 884 353 1716 
Q 353 2575 817 3079 
Q 1281 3584 2069 3584 
Q 2775 3584 3186 3129 
Q 3597 2675 3597 1894 
z
M 3022 2063 
Q 3016 2534 2758 2815 
Q 2500 3097 2075 3097 
Q 1594 3097 1305 2825 
Q 1016 2553 972 2059 
L 3022 2063 
z
" id="DejaVuSans-65" transform="scale(0.015625)"/>
       <path d="M 2631 2963 
Q 2534 3019 2420 3045 
Q 2306 3072 2169 3072 
Q 1681 3072 1420 2755 
Q 1159 2438 1159 1844 
L 1159 0 
L 581 0 
L 581 3500 
L 1159 3500 
L 1159 2956 
Q 1341 3275 1631 3429 
Q 1922 3584 2338 3584 
Q 2397 3584 2469 3576 
Q 2541 3569 2628 3553 
L 2631 2963 
z
" id="DejaVuSans-72" transform="scale(0.015625)"/>
       <path d="M 2906 1791 
Q 2906 2416 2648 2759 
Q 2391 3103 1925 3103 
Q 1463 3103 1205 2759 
Q 947 2416 947 1791 
Q 947 1169 1205 825 
Q 1463 481 1925 481 
Q 2391 481 2648 825 
Q 2906 1169 2906 1791 
z
M 3481 434 
Q 3481 -459 3084 -895 
Q 2688 -1331 1869 -1331 
Q 1566 -1331 1297 -1286 
Q 1028 -1241 775 -1147 
L 775 -588 
Q 1028 -725 1275 -790 
Q 1522 -856 1778 -856 
Q 2344 -856 2625 -561 
Q 2906 -266 2906 331 
L 2906 616 
Q 2728 306 2450 153 
Q 2172 0 1784 0 
Q 1141 0 747 490 
Q 353 981 353 1791 
Q 353 2603 747 3093 
Q 1141 3584 1784 3584 
Q 2172 3584 2450 3431 
Q 2728 3278 2906 2969 
L 2906 3500 
L 3481 3500 
L 3481 434 
z
" id="DejaVuSans-67" transform="scale(0.015625)"/>
       <path d="M 2059 -325 
Q 1816 -950 1584 -1140 
Q 1353 -1331 966 -1331 
L 506 -1331 
L 506 -850 
L 844 -850 
Q 1081 -850 1212 -737 
Q 1344 -625 1503 -206 
L 1606 56 
L 191 3500 
L 800 3500 
L 1894 763 
L 2988 3500 
L 3597 3500 
L 2059 -325 
z
" id="DejaVuSans-79" transform="scale(0.015625)"/>
       <path id="DejaVuSans-20" transform="scale(0.015625)"/>
       <path d="M 3809 666 
L 3809 1919 
L 2778 1919 
L 2778 2438 
L 4434 2438 
L 4434 434 
Q 4069 175 3628 42 
Q 3188 -91 2688 -91 
Q 1594 -91 976 548 
Q 359 1188 359 2328 
Q 359 3472 976 4111 
Q 1594 4750 2688 4750 
Q 3144 4750 3555 4637 
Q 3966 4525 4313 4306 
L 4313 3634 
Q 3963 3931 3569 4081 
Q 3175 4231 2741 4231 
Q 1884 4231 1454 3753 
Q 1025 3275 1025 2328 
Q 1025 1384 1454 906 
Q 1884 428 2741 428 
Q 3075 428 3337 486 
Q 3600 544 3809 666 
z
" id="DejaVuSans-47" transform="scale(0.015625)"/>
       <path d="M 2194 1759 
Q 1497 1759 1228 1600 
Q 959 1441 959 1056 
Q 959 750 1161 570 
Q 1363 391 1709 391 
Q 2188 391 2477 730 
Q 2766 1069 2766 1631 
L 2766 1759 
L 2194 1759 
z
M 3341 1997 
L 3341 0 
L 2766 0 
L 2766 531 
Q 2569 213 2275 61 
Q 1981 -91 1556 -91 
Q 1019 -91 701 211 
Q 384 513 384 1019 
Q 384 1609 779 1909 
Q 1175 2209 1959 2209 
L 2766 2209 
L 2766 2266 
Q 2766 2663 2505 2880 
Q 2244 3097 1772 3097 
Q 1472 3097 1187 3025 
Q 903 2953 641 2809 
L 641 3341 
Q 956 3463 1253 3523 
Q 1550 3584 1831 3584 
Q 2591 3584 2966 3190 
Q 3341 2797 3341 1997 
z
" id="DejaVuSans-61" transform="scale(0.015625)"/>
       <path d="M 1172 4494 
L 1172 3500 
L 2356 3500 
L 2356 3053 
L 1172 3053 
L 1172 1153 
Q 1172 725 1289 603 
Q 1406 481 1766 481 
L 2356 481 
L 2356 0 
L 1766 0 
Q 1100 0 847 248 
Q 594 497 594 1153 
L 594 3053 
L 172 3053 
L 172 3500 
L 594 3500 
L 594 4494 
L 1172 4494 
z
" id="DejaVuSans-74" transform="scale(0.015625)"/>
       <path d="M 2906 2969 
L 2906 4863 
L 3481 4863 
L 3481 0 
L 2906 0 
L 2906 525 
Q 2725 213 2448 61 
Q 2172 -91 1784 -91 
Q 1150 -91 751 415 
Q 353 922 353 1747 
Q 353 2572 751 3078 
Q 1150 3584 1784 3584 
Q 2172 3584 2448 3432 
Q 2725 3281 2906 2969 
z
M 947 1747 
Q 947 1113 1208 752 
Q 1469 391 1925 391 
Q 2381 391 2643 752 
Q 2906 1113 2906 1747 
Q 2906 2381 2643 2742 
Q 2381 3103 1925 3103 
Q 1469 3103 1208 2742 
Q 947 2381 947 1747 
z
" id="DejaVuSans-64" transform="scale(0.015625)"/>
       <path d="M 1984 4856 
Q 1566 4138 1362 3434 
Q 1159 2731 1159 2009 
Q 1159 1288 1364 580 
Q 1569 -128 1984 -844 
L 1484 -844 
Q 1016 -109 783 600 
Q 550 1309 550 2009 
Q 550 2706 781 3412 
Q 1013 4119 1484 4856 
L 1984 4856 
z
" id="DejaVuSans-28" transform="scale(0.015625)"/>
       <path d="M -19 4666 
L 3928 4666 
L 3928 4134 
L 2272 4134 
L 2272 0 
L 1638 0 
L 1638 4134 
L -19 4134 
L -19 4666 
z
" id="DejaVuSans-54" transform="scale(0.015625)"/>
       <path d="M 213 4666 
L 850 4666 
L 1831 722 
L 2809 4666 
L 3519 4666 
L 4500 722 
L 5478 4666 
L 6119 4666 
L 4947 0 
L 4153 0 
L 3169 4050 
L 2175 0 
L 1381 0 
L 213 4666 
z
" id="DejaVuSans-57" transform="scale(0.015625)"/>
       <path d="M 3513 2113 
L 3513 0 
L 2938 0 
L 2938 2094 
Q 2938 2591 2744 2837 
Q 2550 3084 2163 3084 
Q 1697 3084 1428 2787 
Q 1159 2491 1159 1978 
L 1159 0 
L 581 0 
L 581 4863 
L 1159 4863 
L 1159 2956 
Q 1366 3272 1645 3428 
Q 1925 3584 2291 3584 
Q 2894 3584 3203 3211 
Q 3513 2838 3513 2113 
z
" id="DejaVuSans-68" transform="scale(0.015625)"/>
       <path d="M 513 4856 
L 1013 4856 
Q 1481 4119 1714 3412 
Q 1947 2706 1947 2009 
Q 1947 1309 1714 600 
Q 1481 -109 1013 -844 
L 513 -844 
Q 928 -128 1133 580 
Q 1338 1288 1338 2009 
Q 1338 2731 1133 3434 
Q 928 4138 513 4856 
z
" id="DejaVuSans-29" transform="scale(0.015625)"/>
      </defs>
      <use xlink:href="#DejaVuSans-45"/>
      <use x="63.183594" xlink:href="#DejaVuSans-6e"/>
      <use x="126.5625" xlink:href="#DejaVuSans-65"/>
      <use x="188.085938" xlink:href="#DejaVuSans-72"/>
      <use x="227.449219" xlink:href="#DejaVuSans-67"/>
      <use x="290.925781" xlink:href="#DejaVuSans-79"/>
      <use x="350.105469" xlink:href="#DejaVuSans-20"/>
      <use x="381.892578" xlink:href="#DejaVuSans-47"/>
      <use x="459.382812" xlink:href="#DejaVuSans-65"/>
      <use x="520.90625" xlink:href="#DejaVuSans-6e"/>
      <use x="584.285156" xlink:href="#DejaVuSans-65"/>
      <use x="645.808594" xlink:href="#DejaVuSans-72"/>
      <use x="686.921875" xlink:href="#DejaVuSans-61"/>
      <use x="748.201172" xlink:href="#DejaVuSans-74"/>
      <use x="787.410156" xlink:href="#DejaVuSans-65"/>
      <use x="848.933594" xlink:href="#DejaVuSans-64"/>
      <use x="912.410156" xlink:href="#DejaVuSans-20"/>
      <use x="944.197266" xlink:href="#DejaVuSans-28"/>
      <use x="983.210938" xlink:href="#DejaVuSans-54"/>
      <use x="1044.294922" xlink:href="#DejaVuSans-57"/>
      <use x="1143.171875" xlink:href="#DejaVuSans-68"/>
      <use x="1206.550781" xlink:href="#DejaVuSans-29"/>
     </g>
    </g>
   </g>
   <g id="patch_3">
    <path d="M 62.24 382.624 
L 62.24 35.28 
" style="fill:none;stroke:#000000;stroke-linecap:square;stroke-linejoin:miter;stroke-width:0.8;"/>
   </g>
   <g id="patch_4">
    <path d="M 338.07 382.624 
L 338.07 35.28 
" style="fill:none;stroke:#000000;stroke-linecap:square;stroke-linejoin:miter;stroke-width:0.8;"/>
   </g>
   <g id="patch_5">
    <path d="M 62.24 382.624 
L 338.07 382.624 
" style="fill:none;stroke:#000000;stroke-linecap:square;stroke-linejoin:miter;stroke-width:0.8;"/>
   </g>
   <g id="patch_6">
    <path d="M 62.24 35.28 
L 338.07 35.28 
" style="fill:none;stroke:#000000;stroke-linecap:square;stroke-linejoin:miter;stroke-width:0.8;"/>
   </g>
   <g id="text_14">
    <!-- Fossil Gas -->
    <g style="fill:#ffffff;" transform="translate(76.0315 263.147068)scale(0.1 -0.1)">
     <defs>
      <path d="M 628 4666 
L 3309 4666 
L 3309 4134 
L 1259 4134 
L 1259 2759 
L 3109 2759 
L 3109 2228 
L 1259 2228 
L 1259 0 
L 628 0 
L 628 4666 
z
" id="DejaVuSans-46" transform="scale(0.015625)"/>
      <path d="M 1959 3097 
Q 1497 3097 1228 2736 
Q 959 2375 959 1747 
Q 959 1119 1226 758 
Q 1494 397 1959 397 
Q 2419 397 2687 759 
Q 2956 1122 2956 1747 
Q 2956 2369 2687 2733 
Q 2419 3097 1959 3097 
z
M 1959 3584 
Q 2709 3584 3137 3096 
Q 3566 2609 3566 1747 
Q 3566 888 3137 398 
Q 2709 -91 1959 -91 
Q 1206 -91 779 398 
Q 353 888 353 1747 
Q 353 2609 779 3096 
Q 1206 3584 1959 3584 
z
" id="DejaVuSans-6f" transform="scale(0.015625)"/>
      <path d="M 2834 3397 
L 2834 2853 
Q 2591 2978 2328 3040 
Q 2066 3103 1784 3103 
Q 1356 3103 1142 2972 
Q 928 2841 928 2578 
Q 928 2378 1081 2264 
Q 1234 2150 1697 2047 
L 1894 2003 
Q 2506 1872 2764 1633 
Q 3022 1394 3022 966 
Q 3022 478 2636 193 
Q 2250 -91 1575 -91 
Q 1294 -91 989 -36 
Q 684 19 347 128 
L 347 722 
Q 666 556 975 473 
Q 1284 391 1588 391 
Q 1994 391 2212 530 
Q 2431 669 2431 922 
Q 2431 1156 2273 1281 
Q 2116 1406 1581 1522 
L 1381 1569 
Q 847 1681 609 1914 
Q 372 2147 372 2553 
Q 372 3047 722 3315 
Q 1072 3584 1716 3584 
Q 2034 3584 2315 3537 
Q 2597 3491 2834 3397 
z
" id="DejaVuSans-73" transform="scale(0.015625)"/>
      <path d="M 603 3500 
L 1178 3500 
L 1178 0 
L 603 0 
L 603 3500 
z
M 603 4863 
L 1178 4863 
L 1178 4134 
L 603 4134 
L 603 4863 
z
" id="DejaVuSans-69" transform="scale(0.015625)"/>
      <path d="M 603 4863 
L 1178 4863 
L 1178 0 
L 603 0 
L 603 4863 
z
" id="DejaVuSans-6c" transform="scale(0.015625)"/>
     </defs>
     <use xlink:href="#DejaVuSans-46"/>
     <use x="53.894531" xlink:href="#DejaVuSans-6f"/>
     <use x="115.076172" xlink:href="#DejaVuSans-73"/>
     <use x="167.175781" xlink:href="#DejaVuSans-73"/>
     <use x="219.275391" xlink:href="#DejaVuSans-69"/>
     <use x="247.058594" xlink:href="#DejaVuSans-6c"/>
     <use x="274.841797" xlink:href="#DejaVuSans-20"/>
     <use x="306.628906" xlink:href="#DejaVuSans-47"/>
     <use x="384.119141" xlink:href="#DejaVuSans-61"/>
     <use x="445.398438" xlink:href="#DejaVuSans-73"/>
    </g>
   </g>
   <g id="text_15">
    <!-- Fossil Hard Coal -->
    <g style="fill:#ffffff;" transform="translate(76.0315 370.676307)scale(0.1 -0.1)">
     <defs>
      <path d="M 628 4666 
L 1259 4666 
L 1259 2753 
L 3553 2753 
L 3553 4666 
L 4184 4666 
L 4184 0 
L 3553 0 
L 3553 2222 
L 1259 2222 
L 1259 0 
L 628 0 
L 628 4666 
z
" id="DejaVuSans-48" transform="scale(0.015625)"/>
     </defs>
     <use xlink:href="#DejaVuSans-46"/>
     <use x="53.894531" xlink:href="#DejaVuSans-6f"/>
     <use x="115.076172" xlink:href="#DejaVuSans-73"/>
     <use x="167.175781" xlink:href="#DejaVuSans-73"/>
     <use x="219.275391" xlink:href="#DejaVuSans-69"/>
     <use x="247.058594" xlink:href="#DejaVuSans-6c"/>
     <use x="274.841797" xlink:href="#DejaVuSans-20"/>
     <use x="306.628906" xlink:href="#DejaVuSans-48"/>
     <use x="381.824219" xlink:href="#DejaVuSans-61"/>
     <use x="443.103516" xlink:href="#DejaVuSans-72"/>
     <use x="482.466797" xlink:href="#DejaVuSans-64"/>
     <use x="545.943359" xlink:href="#DejaVuSans-20"/>
     <use x="577.730469" xlink:href="#DejaVuSans-43"/>
     <use x="647.554688" xlink:href="#DejaVuSans-6f"/>
     <use x="708.736328" xlink:href="#DejaVuSans-61"/>
     <use x="770.015625" xlink:href="#DejaVuSans-6c"/>
    </g>
   </g>
   <g id="text_16">
    <!-- Nuclear -->
    <g style="fill:#ffffff;" transform="translate(76.0315 101.853209)scale(0.1 -0.1)">
     <defs>
      <path d="M 628 4666 
L 1478 4666 
L 3547 763 
L 3547 4666 
L 4159 4666 
L 4159 0 
L 3309 0 
L 1241 3903 
L 1241 0 
L 628 0 
L 628 4666 
z
" id="DejaVuSans-4e" transform="scale(0.015625)"/>
      <path d="M 544 1381 
L 544 3500 
L 1119 3500 
L 1119 1403 
Q 1119 906 1312 657 
Q 1506 409 1894 409 
Q 2359 409 2629 706 
Q 2900 1003 2900 1516 
L 2900 3500 
L 3475 3500 
L 3475 0 
L 2900 0 
L 2900 538 
Q 2691 219 2414 64 
Q 2138 -91 1772 -91 
Q 1169 -91 856 284 
Q 544 659 544 1381 
z
M 1991 3584 
L 1991 3584 
z
" id="DejaVuSans-75" transform="scale(0.015625)"/>
      <path d="M 3122 3366 
L 3122 2828 
Q 2878 2963 2633 3030 
Q 2388 3097 2138 3097 
Q 1578 3097 1268 2742 
Q 959 2388 959 1747 
Q 959 1106 1268 751 
Q 1578 397 2138 397 
Q 2388 397 2633 464 
Q 2878 531 3122 666 
L 3122 134 
Q 2881 22 2623 -34 
Q 2366 -91 2075 -91 
Q 1284 -91 818 406 
Q 353 903 353 1747 
Q 353 2603 823 3093 
Q 1294 3584 2113 3584 
Q 2378 3584 2631 3529 
Q 2884 3475 3122 3366 
z
" id="DejaVuSans-63" transform="scale(0.015625)"/>
     </defs>
     <use xlink:href="#DejaVuSans-4e"/>
     <use x="74.804688" xlink:href="#DejaVuSans-75"/>
     <use x="138.183594" xlink:href="#DejaVuSans-63"/>
     <use x="193.164062" xlink:href="#DejaVuSans-6c"/>
     <use x="220.947266" xlink:href="#DejaVuSans-65"/>
     <use x="282.470703" xlink:href="#DejaVuSans-61"/>
     <use x="343.75" xlink:href="#DejaVuSans-72"/>
    </g>
   </g>
   <g id="text_17">
    <!-- Solar -->
    <g style="fill:#ffffff;" transform="translate(282.904 77.957823)scale(0.1 -0.1)">
     <defs>
      <path d="M 3425 4513 
L 3425 3897 
Q 3066 4069 2747 4153 
Q 2428 4238 2131 4238 
Q 1616 4238 1336 4038 
Q 1056 3838 1056 3469 
Q 1056 3159 1242 3001 
Q 1428 2844 1947 2747 
L 2328 2669 
Q 3034 2534 3370 2195 
Q 3706 1856 3706 1288 
Q 3706 609 3251 259 
Q 2797 -91 1919 -91 
Q 1588 -91 1214 -16 
Q 841 59 441 206 
L 441 856 
Q 825 641 1194 531 
Q 1563 422 1919 422 
Q 2459 422 2753 634 
Q 3047 847 3047 1241 
Q 3047 1584 2836 1778 
Q 2625 1972 2144 2069 
L 1759 2144 
Q 1053 2284 737 2584 
Q 422 2884 422 3419 
Q 422 4038 858 4394 
Q 1294 4750 2059 4750 
Q 2388 4750 2728 4690 
Q 3069 4631 3425 4513 
z
" id="DejaVuSans-53" transform="scale(0.015625)"/>
     </defs>
     <use xlink:href="#DejaVuSans-53"/>
     <use x="63.476562" xlink:href="#DejaVuSans-6f"/>
     <use x="124.658203" xlink:href="#DejaVuSans-6c"/>
     <use x="152.441406" xlink:href="#DejaVuSans-61"/>
     <use x="213.720703" xlink:href="#DejaVuSans-72"/>
    </g>
   </g>
   <g id="patch_7">
    <path d="M 209.946141 242.465051 
Q 200.155 242.361173 200.155 232.466153 
L 200.155 164.712571 
" style="fill:none;stroke:#ffffff;stroke-linecap:round;"/>
    <path d="M 198.155 168.712571 
L 200.155 164.712571 
L 202.155 168.712571 
" style="fill:none;stroke:#ffffff;stroke-linecap:round;"/>
   </g>
   <g id="text_18">
    <!-- Wind Onshore -->
    <g style="fill:#ffffff;" transform="translate(213.9465 245.225528)scale(0.1 -0.1)">
     <defs>
      <path d="M 2522 4238 
Q 1834 4238 1429 3725 
Q 1025 3213 1025 2328 
Q 1025 1447 1429 934 
Q 1834 422 2522 422 
Q 3209 422 3611 934 
Q 4013 1447 4013 2328 
Q 4013 3213 3611 3725 
Q 3209 4238 2522 4238 
z
M 2522 4750 
Q 3503 4750 4090 4092 
Q 4678 3434 4678 2328 
Q 4678 1225 4090 567 
Q 3503 -91 2522 -91 
Q 1538 -91 948 565 
Q 359 1222 359 2328 
Q 359 3434 948 4092 
Q 1538 4750 2522 4750 
z
" id="DejaVuSans-4f" transform="scale(0.015625)"/>
     </defs>
     <use xlink:href="#DejaVuSans-57"/>
     <use x="96.626953" xlink:href="#DejaVuSans-69"/>
     <use x="124.410156" xlink:href="#DejaVuSans-6e"/>
     <use x="187.789062" xlink:href="#DejaVuSans-64"/>
     <use x="251.265625" xlink:href="#DejaVuSans-20"/>
     <use x="283.052734" xlink:href="#DejaVuSans-4f"/>
     <use x="361.763672" xlink:href="#DejaVuSans-6e"/>
     <use x="425.142578" xlink:href="#DejaVuSans-73"/>
     <use x="477.242188" xlink:href="#DejaVuSans-68"/>
     <use x="540.621094" xlink:href="#DejaVuSans-6f"/>
     <use x="601.802734" xlink:href="#DejaVuSans-72"/>
     <use x="640.666016" xlink:href="#DejaVuSans-65"/>
    </g>
   </g>
   <g id="patch_8">
    <path d="M 209.950259 254.413846 
L 203.25925 254.413846 
Q 193.25925 254.413846 193.25925 244.413846 
L 193.25925 182.631666 
" style="fill:none;stroke:#ffffff;stroke-linecap:round;"/>
    <path d="M 191.25925 186.631666 
L 193.25925 182.631666 
L 195.25925 186.631666 
" style="fill:none;stroke:#ffffff;stroke-linecap:round;"/>
   </g>
   <g id="text_19">
    <!-- Wind Offshore -->
    <g style="fill:#ffffff;" transform="translate(213.9465 257.173221)scale(0.1 -0.1)">
     <defs>
      <path d="M 2375 4863 
L 2375 4384 
L 1825 4384 
Q 1516 4384 1395 4259 
Q 1275 4134 1275 3809 
L 1275 3500 
L 2222 3500 
L 2222 3053 
L 1275 3053 
L 1275 0 
L 697 0 
L 697 3053 
L 147 3053 
L 147 3500 
L 697 3500 
L 697 3744 
Q 697 4328 969 4595 
Q 1241 4863 1831 4863 
L 2375 4863 
z
" id="DejaVuSans-66" transform="scale(0.015625)"/>
     </defs>
     <use xlink:href="#DejaVuSans-57"/>
     <use x="96.626953" xlink:href="#DejaVuSans-69"/>
     <use x="124.410156" xlink:href="#DejaVuSans-6e"/>
     <use x="187.789062" xlink:href="#DejaVuSans-64"/>
     <use x="251.265625" xlink:href="#DejaVuSans-20"/>
     <use x="283.052734" xlink:href="#DejaVuSans-4f"/>
     <use x="361.763672" xlink:href="#DejaVuSans-66"/>
     <use x="396.96875" xlink:href="#DejaVuSans-66"/>
     <use x="432.173828" xlink:href="#DejaVuSans-73"/>
     <use x="484.273438" xlink:href="#DejaVuSans-68"/>
     <use x="547.652344" xlink:href="#DejaVuSans-6f"/>
     <use x="608.833984" xlink:href="#DejaVuSans-72"/>
     <use x="647.697266" xlink:href="#DejaVuSans-65"/>
    </g>
   </g>
   <g id="patch_9">
    <path d="M 209.950489 266.361539 
L 196.3635 266.361539 
Q 186.3635 266.361539 186.3635 256.361539 
L 186.3635 190.698493 
" style="fill:none;stroke:#ffffff;stroke-linecap:round;"/>
    <path d="M 184.3635 194.698493 
L 186.3635 190.698493 
L 188.3635 194.698493 
" style="fill:none;stroke:#ffffff;stroke-linecap:round;"/>
   </g>
   <g id="text_20">
    <!-- Hydro Run-of-River -->
    <g style="fill:#ffffff;" transform="translate(213.9465 269.120914)scale(0.1 -0.1)">
     <defs>
      <path d="M 2841 2188 
Q 3044 2119 3236 1894 
Q 3428 1669 3622 1275 
L 4263 0 
L 3584 0 
L 2988 1197 
Q 2756 1666 2539 1819 
Q 2322 1972 1947 1972 
L 1259 1972 
L 1259 0 
L 628 0 
L 628 4666 
L 2053 4666 
Q 2853 4666 3247 4331 
Q 3641 3997 3641 3322 
Q 3641 2881 3436 2590 
Q 3231 2300 2841 2188 
z
M 1259 4147 
L 1259 2491 
L 2053 2491 
Q 2509 2491 2742 2702 
Q 2975 2913 2975 3322 
Q 2975 3731 2742 3939 
Q 2509 4147 2053 4147 
L 1259 4147 
z
" id="DejaVuSans-52" transform="scale(0.015625)"/>
      <path d="M 313 2009 
L 1997 2009 
L 1997 1497 
L 313 1497 
L 313 2009 
z
" id="DejaVuSans-2d" transform="scale(0.015625)"/>
      <path d="M 191 3500 
L 800 3500 
L 1894 563 
L 2988 3500 
L 3597 3500 
L 2284 0 
L 1503 0 
L 191 3500 
z
" id="DejaVuSans-76" transform="scale(0.015625)"/>
     </defs>
     <use xlink:href="#DejaVuSans-48"/>
     <use x="75.195312" xlink:href="#DejaVuSans-79"/>
     <use x="134.375" xlink:href="#DejaVuSans-64"/>
     <use x="197.851562" xlink:href="#DejaVuSans-72"/>
     <use x="236.714844" xlink:href="#DejaVuSans-6f"/>
     <use x="297.896484" xlink:href="#DejaVuSans-20"/>
     <use x="329.683594" xlink:href="#DejaVuSans-52"/>
     <use x="394.666016" xlink:href="#DejaVuSans-75"/>
     <use x="458.044922" xlink:href="#DejaVuSans-6e"/>
     <use x="521.423828" xlink:href="#DejaVuSans-2d"/>
     <use x="559.382812" xlink:href="#DejaVuSans-6f"/>
     <use x="620.564453" xlink:href="#DejaVuSans-66"/>
     <use x="650.269531" xlink:href="#DejaVuSans-2d"/>
     <use x="686.353516" xlink:href="#DejaVuSans-52"/>
     <use x="755.835938" xlink:href="#DejaVuSans-69"/>
     <use x="783.619141" xlink:href="#DejaVuSans-76"/>
     <use x="842.798828" xlink:href="#DejaVuSans-65"/>
     <use x="904.322266" xlink:href="#DejaVuSans-72"/>
    </g>
   </g>
   <g id="patch_10">
    <path d="M 209.945275 278.309233 
L 189.46775 278.309233 
Q 179.46775 278.309233 179.46775 268.309233 
L 179.46775 193.380026 
" style="fill:none;stroke:#ffffff;stroke-linecap:round;"/>
    <path d="M 177.46775 197.380026 
L 179.46775 193.380026 
L 181.46775 197.380026 
" style="fill:none;stroke:#ffffff;stroke-linecap:round;"/>
   </g>
   <g id="text_21">
    <!-- Hydro Pumped Storage -->
    <g style="fill:#ffffff;" transform="translate(213.9465 281.068608)scale(0.1 -0.1)">
     <defs>
      <path d="M 1259 4147 
L 1259 2394 
L 2053 2394 
Q 2494 2394 2734 2622 
Q 2975 2850 2975 3272 
Q 2975 3691 2734 3919 
Q 2494 4147 2053 4147 
L 1259 4147 
z
M 628 4666 
L 2053 4666 
Q 2838 4666 3239 4311 
Q 3641 3956 3641 3272 
Q 3641 2581 3239 2228 
Q 2838 1875 2053 1875 
L 1259 1875 
L 1259 0 
L 628 0 
L 628 4666 
z
" id="DejaVuSans-50" transform="scale(0.015625)"/>
      <path d="M 3328 2828 
Q 3544 3216 3844 3400 
Q 4144 3584 4550 3584 
Q 5097 3584 5394 3201 
Q 5691 2819 5691 2113 
L 5691 0 
L 5113 0 
L 5113 2094 
Q 5113 2597 4934 2840 
Q 4756 3084 4391 3084 
Q 3944 3084 3684 2787 
Q 3425 2491 3425 1978 
L 3425 0 
L 2847 0 
L 2847 2094 
Q 2847 2600 2669 2842 
Q 2491 3084 2119 3084 
Q 1678 3084 1418 2786 
Q 1159 2488 1159 1978 
L 1159 0 
L 581 0 
L 581 3500 
L 1159 3500 
L 1159 2956 
Q 1356 3278 1631 3431 
Q 1906 3584 2284 3584 
Q 2666 3584 2933 3390 
Q 3200 3197 3328 2828 
z
" id="DejaVuSans-6d" transform="scale(0.015625)"/>
      <path d="M 1159 525 
L 1159 -1331 
L 581 -1331 
L 581 3500 
L 1159 3500 
L 1159 2969 
Q 1341 3281 1617 3432 
Q 1894 3584 2278 3584 
Q 2916 3584 3314 3078 
Q 3713 2572 3713 1747 
Q 3713 922 3314 415 
Q 2916 -91 2278 -91 
Q 1894 -91 1617 61 
Q 1341 213 1159 525 
z
M 3116 1747 
Q 3116 2381 2855 2742 
Q 2594 3103 2138 3103 
Q 1681 3103 1420 2742 
Q 1159 2381 1159 1747 
Q 1159 1113 1420 752 
Q 1681 391 2138 391 
Q 2594 391 2855 752 
Q 3116 1113 3116 1747 
z
" id="DejaVuSans-70" transform="scale(0.015625)"/>
     </defs>
     <use xlink:href="#DejaVuSans-48"/>
     <use x="75.195312" xlink:href="#DejaVuSans-79"/>
     <use x="134.375" xlink:href="#DejaVuSans-64"/>
     <use x="197.851562" xlink:href="#DejaVuSans-72"/>
     <use x="236.714844" xlink:href="#DejaVuSans-6f"/>
     <use x="297.896484" xlink:href="#DejaVuSans-20"/>
     <use x="329.683594" xlink:href="#DejaVuSans-50"/>
     <use x="388.236328" xlink:href="#DejaVuSans-75"/>
     <use x="451.615234" xlink:href="#DejaVuSans-6d"/>
     <use x="549.027344" xlink:href="#DejaVuSans-70"/>
     <use x="612.503906" xlink:href="#DejaVuSans-65"/>
     <use x="674.027344" xlink:href="#DejaVuSans-64"/>
     <use x="737.503906" xlink:href="#DejaVuSans-20"/>
     <use x="769.291016" xlink:href="#DejaVuSans-53"/>
     <use x="832.767578" xlink:href="#DejaVuSans-74"/>
     <use x="871.976562" xlink:href="#DejaVuSans-6f"/>
     <use x="933.158203" xlink:href="#DejaVuSans-72"/>
     <use x="974.271484" xlink:href="#DejaVuSans-61"/>
     <use x="1035.550781" xlink:href="#DejaVuSans-67"/>
     <use x="1099.027344" xlink:href="#DejaVuSans-65"/>
    </g>
   </g>
  </g>
  <g id="text_22">
   <!-- a) -->
   <g transform="translate(10.979219 14.957812)scale(0.14 -0.14)">
    <use xlink:href="#DejaVuSans-61"/>
    <use x="61.279297" xlink:href="#DejaVuSans-29"/>
   </g>
  </g>
 </g>
 <defs>
  <clipPath id="pc61223f73c">
   <rect height="347.344" width="275.83" x="62.24" y="35.28"/>
  </clipPath>
 </defs>
</svg>
