<?xml version="1.0" encoding="utf-8" standalone="no"?>
<!DOCTYPE svg PUBLIC "-//W3C//DTD SVG 1.1//EN"
  "http://www.w3.org/Graphics/SVG/1.1/DTD/svg11.dtd">
<svg height="576pt" version="1.1" viewBox="0 0 432 576" width="432pt" xmlns="http://www.w3.org/2000/svg" xmlns:xlink="http://www.w3.org/1999/xlink">
 <metadata>
  <rdf:RDF xmlns:cc="http://creativecommons.org/ns#" xmlns:dc="http://purl.org/dc/elements/1.1/" xmlns:rdf="http://www.w3.org/1999/02/22-rdf-syntax-ns#">
   <cc:Work>
    <dc:type rdf:resource="http://purl.org/dc/dcmitype/StillImage"/>
    <dc:date>2021-06-15T10:41:42.422597</dc:date>
    <dc:format>image/svg+xml</dc:format>
    <dc:creator>
     <cc:Agent>
      <dc:title>Matplotlib v3.4.1, https://matplotlib.org/</dc:title>
     </cc:Agent>
    </dc:creator>
   </cc:Work>
  </rdf:RDF>
 </metadata>
 <defs>
  <style type="text/css">*{stroke-linecap:butt;stroke-linejoin:round;}</style>
 </defs>
 <g id="figure_1">
  <g id="patch_1">
   <path d="M 0 576 
L 432 576 
L 432 0 
L 0 0 
z
" style="fill:#ffffff;"/>
  </g>
  <g id="axes_1">
   <g id="patch_2">
    <path d="M 54 512.64 
L 388.8 512.64 
L 388.8 69.12 
L 54 69.12 
z
" style="fill:#ffffff;"/>
   </g>
   <g id="PolyCollection_1">
    <path clip-path="url(#pc43d056d3f)" d="M 69.218182 370.917367 
L 69.218182 512.64 
L 72.292562 512.64 
L 75.366942 512.64 
L 78.441322 512.64 
L 81.515702 512.64 
L 84.590083 512.64 
L 87.664463 512.64 
L 90.738843 512.64 
L 93.813223 512.64 
L 96.887603 512.64 
L 99.961983 512.64 
L 103.036364 512.64 
L 106.110744 512.64 
L 109.185124 512.64 
L 112.259504 512.64 
L 115.333884 512.64 
L 118.408264 512.64 
L 121.482645 512.64 
L 124.557025 512.64 
L 127.631405 512.64 
L 130.705785 512.64 
L 133.780165 512.64 
L 136.854545 512.64 
L 139.928926 512.64 
L 143.003306 512.64 
L 146.077686 512.64 
L 149.152066 512.64 
L 152.226446 512.64 
L 155.300826 512.64 
L 158.375207 512.64 
L 161.449587 512.64 
L 164.523967 512.64 
L 167.598347 512.64 
L 170.672727 512.64 
L 173.747107 512.64 
L 176.821488 512.64 
L 179.895868 512.64 
L 182.970248 512.64 
L 186.044628 512.64 
L 189.119008 512.64 
L 192.193388 512.64 
L 195.267769 512.64 
L 198.342149 512.64 
L 201.416529 512.64 
L 204.490909 512.64 
L 207.565289 512.64 
L 210.639669 512.64 
L 213.71405 512.64 
L 216.78843 512.64 
L 219.86281 512.64 
L 222.93719 512.64 
L 226.01157 512.64 
L 229.08595 512.64 
L 232.160331 512.64 
L 235.234711 512.64 
L 238.309091 512.64 
L 241.383471 512.64 
L 244.457851 512.64 
L 247.532231 512.64 
L 250.606612 512.64 
L 253.680992 512.64 
L 256.755372 512.64 
L 259.829752 512.64 
L 262.904132 512.64 
L 265.978512 512.64 
L 269.052893 512.64 
L 272.127273 512.64 
L 275.201653 512.64 
L 278.276033 512.64 
L 281.350413 512.64 
L 284.424793 512.64 
L 287.499174 512.64 
L 290.573554 512.64 
L 293.647934 512.64 
L 296.722314 512.64 
L 299.796694 512.64 
L 302.871074 512.64 
L 305.945455 512.64 
L 309.019835 512.64 
L 312.094215 512.64 
L 315.168595 512.64 
L 318.242975 512.64 
L 321.317355 512.64 
L 324.391736 512.64 
L 327.466116 512.64 
L 330.540496 512.64 
L 333.614876 512.64 
L 336.689256 512.64 
L 339.763636 512.64 
L 342.838017 512.64 
L 345.912397 512.64 
L 348.986777 512.64 
L 352.061157 512.64 
L 355.135537 512.64 
L 358.209917 512.64 
L 361.284298 512.64 
L 364.358678 512.64 
L 367.433058 512.64 
L 370.507438 512.64 
L 373.581818 512.64 
L 373.581818 395.478799 
L 373.581818 395.478799 
L 370.507438 395.274111 
L 367.433058 395.068621 
L 364.358678 394.862911 
L 361.284298 394.656548 
L 358.209917 394.449727 
L 355.135537 394.241936 
L 352.061157 394.03369 
L 348.986777 393.825261 
L 345.912397 393.615949 
L 342.838017 393.405706 
L 339.763636 393.195945 
L 336.689256 392.986839 
L 333.614876 392.776493 
L 330.540496 392.56436 
L 327.466116 392.351546 
L 324.391736 392.139931 
L 321.317355 391.928781 
L 318.242975 391.714959 
L 315.168595 391.500233 
L 312.094215 391.28527 
L 309.019835 391.070339 
L 305.945455 390.855335 
L 302.871074 390.640408 
L 299.796694 390.425315 
L 296.722314 390.211337 
L 293.647934 389.998678 
L 290.573554 389.78793 
L 287.499174 389.578698 
L 284.424793 389.370133 
L 281.350413 389.163391 
L 278.276033 388.957952 
L 275.201653 388.753995 
L 272.127273 388.551385 
L 269.052893 388.349301 
L 265.978512 388.147751 
L 262.904132 387.946721 
L 259.829752 387.746829 
L 256.755372 387.54799 
L 253.680992 387.350848 
L 250.606612 387.147201 
L 247.532231 386.944406 
L 244.457851 386.740525 
L 241.383471 386.538748 
L 238.309091 386.341655 
L 235.234711 386.147783 
L 232.160331 385.957071 
L 229.08595 385.768197 
L 226.01157 385.577251 
L 222.93719 385.385775 
L 219.86281 385.194966 
L 216.78843 385.006327 
L 213.71405 384.818437 
L 210.639669 384.631828 
L 207.565289 384.445703 
L 204.490909 384.260247 
L 201.416529 384.076607 
L 198.342149 383.894505 
L 195.267769 383.714924 
L 192.193388 383.536837 
L 189.119008 383.35821 
L 186.044628 383.178189 
L 182.970248 382.9965 
L 179.895868 382.812346 
L 176.821488 382.625263 
L 173.747107 382.435236 
L 170.672727 382.241892 
L 167.598347 382.044817 
L 164.523967 381.8479 
L 161.449587 381.651828 
L 158.375207 381.456307 
L 155.300826 381.259341 
L 152.226446 381.059475 
L 149.152066 380.855332 
L 146.077686 380.645813 
L 143.003306 380.427247 
L 139.928926 380.196771 
L 136.854545 379.950478 
L 133.780165 379.685477 
L 130.705785 379.399163 
L 127.631405 379.085016 
L 124.557025 378.758962 
L 121.482645 378.42181 
L 118.408264 378.071551 
L 115.333884 377.714642 
L 112.259504 377.350424 
L 109.185124 376.97099 
L 106.110744 376.569923 
L 103.036364 376.124542 
L 99.961983 375.662479 
L 96.887603 375.193296 
L 93.813223 374.719877 
L 90.738843 374.244564 
L 87.664463 373.76925 
L 84.590083 373.293936 
L 81.515702 372.818622 
L 78.441322 372.343309 
L 75.366942 371.867995 
L 72.292562 371.392681 
L 69.218182 370.917367 
z
" style="fill:#3182bd;"/>
   </g>
   <g id="PolyCollection_2">
    <path clip-path="url(#pc43d056d3f)" d="M 69.218182 261.609053 
L 69.218182 370.917367 
L 72.292562 371.392681 
L 75.366942 371.867995 
L 78.441322 372.343309 
L 81.515702 372.818622 
L 84.590083 373.293936 
L 87.664463 373.76925 
L 90.738843 374.244564 
L 93.813223 374.719877 
L 96.887603 375.193296 
L 99.961983 375.662479 
L 103.036364 376.124542 
L 106.110744 376.569923 
L 109.185124 376.97099 
L 112.259504 377.350424 
L 115.333884 377.714642 
L 118.408264 378.071551 
L 121.482645 378.42181 
L 124.557025 378.758962 
L 127.631405 379.085016 
L 130.705785 379.399163 
L 133.780165 379.685477 
L 136.854545 379.950478 
L 139.928926 380.196771 
L 143.003306 380.427247 
L 146.077686 380.645813 
L 149.152066 380.855332 
L 152.226446 381.059475 
L 155.300826 381.259341 
L 158.375207 381.456307 
L 161.449587 381.651828 
L 164.523967 381.8479 
L 167.598347 382.044817 
L 170.672727 382.241892 
L 173.747107 382.435236 
L 176.821488 382.625263 
L 179.895868 382.812346 
L 182.970248 382.9965 
L 186.044628 383.178189 
L 189.119008 383.35821 
L 192.193388 383.536837 
L 195.267769 383.714924 
L 198.342149 383.894505 
L 201.416529 384.076607 
L 204.490909 384.260247 
L 207.565289 384.445703 
L 210.639669 384.631828 
L 213.71405 384.818437 
L 216.78843 385.006327 
L 219.86281 385.194966 
L 222.93719 385.385775 
L 226.01157 385.577251 
L 229.08595 385.768197 
L 232.160331 385.957071 
L 235.234711 386.147783 
L 238.309091 386.341655 
L 241.383471 386.538748 
L 244.457851 386.740525 
L 247.532231 386.944406 
L 250.606612 387.147201 
L 253.680992 387.350848 
L 256.755372 387.54799 
L 259.829752 387.746829 
L 262.904132 387.946721 
L 265.978512 388.147751 
L 269.052893 388.349301 
L 272.127273 388.551385 
L 275.201653 388.753995 
L 278.276033 388.957952 
L 281.350413 389.163391 
L 284.424793 389.370133 
L 287.499174 389.578698 
L 290.573554 389.78793 
L 293.647934 389.998678 
L 296.722314 390.211337 
L 299.796694 390.425315 
L 302.871074 390.640408 
L 305.945455 390.855335 
L 309.019835 391.070339 
L 312.094215 391.28527 
L 315.168595 391.500233 
L 318.242975 391.714959 
L 321.317355 391.928781 
L 324.391736 392.139931 
L 327.466116 392.351546 
L 330.540496 392.56436 
L 333.614876 392.776493 
L 336.689256 392.986839 
L 339.763636 393.195945 
L 342.838017 393.405706 
L 345.912397 393.615949 
L 348.986777 393.825261 
L 352.061157 394.03369 
L 355.135537 394.241936 
L 358.209917 394.449727 
L 361.284298 394.656548 
L 364.358678 394.862911 
L 367.433058 395.068621 
L 370.507438 395.274111 
L 373.581818 395.478799 
L 373.581818 307.200338 
L 373.581818 307.200338 
L 370.507438 306.790784 
L 367.433058 306.378687 
L 364.358678 305.96513 
L 361.284298 305.550118 
L 358.209917 305.133975 
L 355.135537 304.71599 
L 352.061157 304.296313 
L 348.986777 303.874847 
L 345.912397 303.450686 
L 342.838017 303.023841 
L 339.763636 302.595362 
L 336.689256 302.165894 
L 333.614876 301.734494 
L 330.540496 301.301102 
L 327.466116 300.865305 
L 324.391736 300.42817 
L 321.317355 299.990202 
L 318.242975 299.550071 
L 315.168595 299.108441 
L 312.094215 298.665198 
L 309.019835 298.220048 
L 305.945455 297.773474 
L 302.871074 297.325752 
L 299.796694 296.876453 
L 296.722314 296.425871 
L 293.647934 295.974174 
L 290.573554 295.521522 
L 287.499174 295.067899 
L 284.424793 294.613107 
L 281.350413 294.157423 
L 278.276033 293.700256 
L 275.201653 293.242382 
L 272.127273 292.783471 
L 269.052893 292.323573 
L 265.978512 291.862868 
L 262.904132 291.401113 
L 259.829752 290.939007 
L 256.755372 290.475797 
L 253.680992 290.011683 
L 250.606612 289.546384 
L 247.532231 289.079639 
L 244.457851 288.61131 
L 241.383471 288.142684 
L 238.309091 287.673981 
L 235.234711 287.204977 
L 232.160331 286.735349 
L 229.08595 286.265263 
L 226.01157 285.794727 
L 222.93719 285.323904 
L 219.86281 284.852766 
L 216.78843 284.381584 
L 213.71405 283.910091 
L 210.639669 283.438369 
L 207.565289 282.966214 
L 204.490909 282.493577 
L 201.416529 282.020837 
L 198.342149 281.547831 
L 195.267769 281.074176 
L 192.193388 280.600396 
L 189.119008 280.126274 
L 186.044628 279.652068 
L 182.970248 279.177816 
L 179.895868 278.703551 
L 176.821488 278.229212 
L 173.747107 277.754831 
L 170.672727 277.28045 
L 167.598347 276.806052 
L 164.523967 276.331642 
L 161.449587 275.857232 
L 158.375207 275.382823 
L 155.300826 274.908376 
L 152.226446 274.433891 
L 149.152066 273.959363 
L 146.077686 273.484829 
L 143.003306 273.010288 
L 139.928926 272.535746 
L 136.854545 272.061149 
L 133.780165 271.586484 
L 130.705785 271.111751 
L 127.631405 270.636984 
L 124.557025 270.162112 
L 121.482645 269.687222 
L 118.408264 269.212302 
L 115.333884 268.737367 
L 112.259504 268.262425 
L 109.185124 267.787476 
L 106.110744 267.312505 
L 103.036364 266.837393 
L 99.961983 266.362176 
L 96.887603 265.886874 
L 93.813223 265.411563 
L 90.738843 264.936249 
L 87.664463 264.460935 
L 84.590083 263.985621 
L 81.515702 263.510308 
L 78.441322 263.034994 
L 75.366942 262.55968 
L 72.292562 262.084366 
L 69.218182 261.609053 
z
" style="fill:#6baed6;"/>
   </g>
   <g id="PolyCollection_3">
    <path clip-path="url(#pc43d056d3f)" d="M 69.218182 257.649456 
L 69.218182 261.609053 
L 72.292562 262.084366 
L 75.366942 262.55968 
L 78.441322 263.034994 
L 81.515702 263.510308 
L 84.590083 263.985621 
L 87.664463 264.460935 
L 90.738843 264.936249 
L 93.813223 265.411563 
L 96.887603 265.886874 
L 99.961983 266.362176 
L 103.036364 266.837393 
L 106.110744 267.312505 
L 109.185124 267.787476 
L 112.259504 268.262425 
L 115.333884 268.737367 
L 118.408264 269.212302 
L 121.482645 269.687222 
L 124.557025 270.162112 
L 127.631405 270.636984 
L 130.705785 271.111751 
L 133.780165 271.586484 
L 136.854545 272.061149 
L 139.928926 272.535746 
L 143.003306 273.010288 
L 146.077686 273.484829 
L 149.152066 273.959363 
L 152.226446 274.433891 
L 155.300826 274.908376 
L 158.375207 275.382823 
L 161.449587 275.857232 
L 164.523967 276.331642 
L 167.598347 276.806052 
L 170.672727 277.28045 
L 173.747107 277.754831 
L 176.821488 278.229212 
L 179.895868 278.703551 
L 182.970248 279.177816 
L 186.044628 279.652068 
L 189.119008 280.126274 
L 192.193388 280.600396 
L 195.267769 281.074176 
L 198.342149 281.547831 
L 201.416529 282.020837 
L 204.490909 282.493577 
L 207.565289 282.966214 
L 210.639669 283.438369 
L 213.71405 283.910091 
L 216.78843 284.381584 
L 219.86281 284.852766 
L 222.93719 285.323904 
L 226.01157 285.794727 
L 229.08595 286.265263 
L 232.160331 286.735349 
L 235.234711 287.204977 
L 238.309091 287.673981 
L 241.383471 288.142684 
L 244.457851 288.61131 
L 247.532231 289.079639 
L 250.606612 289.546384 
L 253.680992 290.011683 
L 256.755372 290.475797 
L 259.829752 290.939007 
L 262.904132 291.401113 
L 265.978512 291.862868 
L 269.052893 292.323573 
L 272.127273 292.783471 
L 275.201653 293.242382 
L 278.276033 293.700256 
L 281.350413 294.157423 
L 284.424793 294.613107 
L 287.499174 295.067899 
L 290.573554 295.521522 
L 293.647934 295.974174 
L 296.722314 296.425871 
L 299.796694 296.876453 
L 302.871074 297.325752 
L 305.945455 297.773474 
L 309.019835 298.220048 
L 312.094215 298.665198 
L 315.168595 299.108441 
L 318.242975 299.550071 
L 321.317355 299.990202 
L 324.391736 300.42817 
L 327.466116 300.865305 
L 330.540496 301.301102 
L 333.614876 301.734494 
L 336.689256 302.165894 
L 339.763636 302.595362 
L 342.838017 303.023841 
L 345.912397 303.450686 
L 348.986777 303.874847 
L 352.061157 304.296313 
L 355.135537 304.71599 
L 358.209917 305.133975 
L 361.284298 305.550118 
L 364.358678 305.96513 
L 367.433058 306.378687 
L 370.507438 306.790784 
L 373.581818 307.200338 
L 373.581818 303.346862 
L 373.581818 303.346862 
L 370.507438 302.933139 
L 367.433058 302.517962 
L 364.358678 302.101645 
L 361.284298 301.683229 
L 358.209917 301.262942 
L 355.135537 300.840674 
L 352.061157 300.416823 
L 348.986777 299.9908 
L 345.912397 299.562762 
L 342.838017 299.133051 
L 339.763636 298.70147 
L 336.689256 298.268527 
L 333.614876 297.833659 
L 330.540496 297.396402 
L 327.466116 296.958361 
L 324.391736 296.519219 
L 321.317355 296.078091 
L 318.242975 295.6354 
L 315.168595 295.190756 
L 312.094215 294.74473 
L 309.019835 294.297831 
L 305.945455 293.849203 
L 302.871074 293.399379 
L 299.796694 292.948123 
L 296.722314 292.495978 
L 293.647934 292.042502 
L 290.573554 291.587787 
L 287.499174 291.132397 
L 284.424793 290.675948 
L 281.350413 290.218282 
L 278.276033 289.759982 
L 275.201653 289.300614 
L 272.127273 288.840442 
L 269.052893 288.379381 
L 265.978512 287.917496 
L 262.904132 287.454984 
L 259.829752 286.990995 
L 256.755372 286.526196 
L 253.680992 286.060401 
L 250.606612 285.593763 
L 247.532231 285.125587 
L 244.457851 284.656953 
L 241.383471 284.188249 
L 238.309091 283.719315 
L 235.234711 283.249537 
L 232.160331 282.779476 
L 229.08595 282.3089 
L 226.01157 281.837999 
L 222.93719 281.366861 
L 219.86281 280.895722 
L 216.78843 280.424088 
L 213.71405 279.952367 
L 210.639669 279.480432 
L 207.565289 279.007752 
L 204.490909 278.535012 
L 201.416529 278.062113 
L 198.342149 277.588618 
L 195.267769 277.114838 
L 192.193388 276.640825 
L 189.119008 276.166677 
L 186.044628 275.692471 
L 182.970248 275.218219 
L 179.895868 274.743954 
L 176.821488 274.269615 
L 173.747107 273.795234 
L 170.672727 273.320853 
L 167.598347 272.846455 
L 164.523967 272.372045 
L 161.449587 271.897635 
L 158.375207 271.423225 
L 155.300826 270.948779 
L 152.226446 270.474294 
L 149.152066 269.999766 
L 146.077686 269.525232 
L 143.003306 269.050691 
L 139.928926 268.576149 
L 136.854545 268.101552 
L 133.780165 267.626887 
L 130.705785 267.152154 
L 127.631405 266.677387 
L 124.557025 266.202515 
L 121.482645 265.727625 
L 118.408264 265.252705 
L 115.333884 264.777769 
L 112.259504 264.302828 
L 109.185124 263.827879 
L 106.110744 263.352908 
L 103.036364 262.877796 
L 99.961983 262.402579 
L 96.887603 261.927277 
L 93.813223 261.451966 
L 90.738843 260.976652 
L 87.664463 260.501338 
L 84.590083 260.026024 
L 81.515702 259.550711 
L 78.441322 259.075397 
L 75.366942 258.600083 
L 72.292562 258.124769 
L 69.218182 257.649456 
z
" style="fill:#9ecae1;"/>
   </g>
   <g id="PolyCollection_4">
    <path clip-path="url(#pc43d056d3f)" d="M 69.218182 251.878892 
L 69.218182 257.649456 
L 72.292562 258.124769 
L 75.366942 258.600083 
L 78.441322 259.075397 
L 81.515702 259.550711 
L 84.590083 260.026024 
L 87.664463 260.501338 
L 90.738843 260.976652 
L 93.813223 261.451966 
L 96.887603 261.927277 
L 99.961983 262.402579 
L 103.036364 262.877796 
L 106.110744 263.352908 
L 109.185124 263.827879 
L 112.259504 264.302828 
L 115.333884 264.777769 
L 118.408264 265.252705 
L 121.482645 265.727625 
L 124.557025 266.202515 
L 127.631405 266.677387 
L 130.705785 267.152154 
L 133.780165 267.626887 
L 136.854545 268.101552 
L 139.928926 268.576149 
L 143.003306 269.050691 
L 146.077686 269.525232 
L 149.152066 269.999766 
L 152.226446 270.474294 
L 155.300826 270.948779 
L 158.375207 271.423225 
L 161.449587 271.897635 
L 164.523967 272.372045 
L 167.598347 272.846455 
L 170.672727 273.320853 
L 173.747107 273.795234 
L 176.821488 274.269615 
L 179.895868 274.743954 
L 182.970248 275.218219 
L 186.044628 275.692471 
L 189.119008 276.166677 
L 192.193388 276.640825 
L 195.267769 277.114838 
L 198.342149 277.588618 
L 201.416529 278.062113 
L 204.490909 278.535012 
L 207.565289 279.007752 
L 210.639669 279.480432 
L 213.71405 279.952367 
L 216.78843 280.424088 
L 219.86281 280.895722 
L 222.93719 281.366861 
L 226.01157 281.837999 
L 229.08595 282.3089 
L 232.160331 282.779476 
L 235.234711 283.249537 
L 238.309091 283.719315 
L 241.383471 284.188249 
L 244.457851 284.656953 
L 247.532231 285.125587 
L 250.606612 285.593763 
L 253.680992 286.060401 
L 256.755372 286.526196 
L 259.829752 286.990995 
L 262.904132 287.454984 
L 265.978512 287.917496 
L 269.052893 288.379381 
L 272.127273 288.840442 
L 275.201653 289.300614 
L 278.276033 289.759982 
L 281.350413 290.218282 
L 284.424793 290.675948 
L 287.499174 291.132397 
L 290.573554 291.587787 
L 293.647934 292.042502 
L 296.722314 292.495978 
L 299.796694 292.948123 
L 302.871074 293.399379 
L 305.945455 293.849203 
L 309.019835 294.297831 
L 312.094215 294.74473 
L 315.168595 295.190756 
L 318.242975 295.6354 
L 321.317355 296.078091 
L 324.391736 296.519219 
L 327.466116 296.958361 
L 330.540496 297.396402 
L 333.614876 297.833659 
L 336.689256 298.268527 
L 339.763636 298.70147 
L 342.838017 299.133051 
L 345.912397 299.562762 
L 348.986777 299.9908 
L 352.061157 300.416823 
L 355.135537 300.840674 
L 358.209917 301.262942 
L 361.284298 301.683229 
L 364.358678 302.101645 
L 367.433058 302.517962 
L 370.507438 302.933139 
L 373.581818 303.346862 
L 373.581818 297.576355 
L 373.581818 297.576355 
L 370.507438 297.162631 
L 367.433058 296.747398 
L 364.358678 296.331081 
L 361.284298 295.912665 
L 358.209917 295.492378 
L 355.135537 295.07011 
L 352.061157 294.646259 
L 348.986777 294.220236 
L 345.912397 293.792199 
L 342.838017 293.362487 
L 339.763636 292.930906 
L 336.689256 292.497963 
L 333.614876 292.063095 
L 330.540496 291.625839 
L 327.466116 291.187797 
L 324.391736 290.748655 
L 321.317355 290.307528 
L 318.242975 289.864836 
L 315.168595 289.420192 
L 312.094215 288.974166 
L 309.019835 288.527267 
L 305.945455 288.078639 
L 302.871074 287.628815 
L 299.796694 287.177559 
L 296.722314 286.725414 
L 293.647934 286.271938 
L 290.573554 285.817223 
L 287.499174 285.361833 
L 284.424793 284.905384 
L 281.350413 284.447718 
L 278.276033 283.989418 
L 275.201653 283.53005 
L 272.127273 283.069878 
L 269.052893 282.608817 
L 265.978512 282.146932 
L 262.904132 281.68442 
L 259.829752 281.220431 
L 256.755372 280.755632 
L 253.680992 280.289837 
L 250.606612 279.823199 
L 247.532231 279.355023 
L 244.457851 278.886389 
L 241.383471 278.417686 
L 238.309091 277.948751 
L 235.234711 277.478974 
L 232.160331 277.008912 
L 229.08595 276.538336 
L 226.01157 276.067436 
L 222.93719 275.596297 
L 219.86281 275.125159 
L 216.78843 274.653525 
L 213.71405 274.181803 
L 210.639669 273.709868 
L 207.565289 273.237188 
L 204.490909 272.764448 
L 201.416529 272.291549 
L 198.342149 271.818054 
L 195.267769 271.344274 
L 192.193388 270.870261 
L 189.119008 270.396113 
L 186.044628 269.921907 
L 182.970248 269.447655 
L 179.895868 268.97339 
L 176.821488 268.499051 
L 173.747107 268.02467 
L 170.672727 267.550289 
L 167.598347 267.075891 
L 164.523967 266.601481 
L 161.449587 266.127071 
L 158.375207 265.652662 
L 155.300826 265.178215 
L 152.226446 264.70373 
L 149.152066 264.229202 
L 146.077686 263.754668 
L 143.003306 263.280127 
L 139.928926 262.805585 
L 136.854545 262.330988 
L 133.780165 261.856323 
L 130.705785 261.38159 
L 127.631405 260.906823 
L 124.557025 260.431951 
L 121.482645 259.957061 
L 118.408264 259.482141 
L 115.333884 259.007206 
L 112.259504 258.532265 
L 109.185124 258.057315 
L 106.110744 257.582344 
L 103.036364 257.107232 
L 99.961983 256.632016 
L 96.887603 256.156713 
L 93.813223 255.681402 
L 90.738843 255.206088 
L 87.664463 254.730774 
L 84.590083 254.25546 
L 81.515702 253.780147 
L 78.441322 253.304833 
L 75.366942 252.829519 
L 72.292562 252.354205 
L 69.218182 251.878892 
z
" style="fill:#c6dbef;"/>
   </g>
   <g id="PolyCollection_5">
    <path clip-path="url(#pc43d056d3f)" d="M 69.218182 230.533117 
L 69.218182 251.878892 
L 72.292562 252.354205 
L 75.366942 252.829519 
L 78.441322 253.304833 
L 81.515702 253.780147 
L 84.590083 254.25546 
L 87.664463 254.730774 
L 90.738843 255.206088 
L 93.813223 255.681402 
L 96.887603 256.156713 
L 99.961983 256.632016 
L 103.036364 257.107232 
L 106.110744 257.582344 
L 109.185124 258.057315 
L 112.259504 258.532265 
L 115.333884 259.007206 
L 118.408264 259.482141 
L 121.482645 259.957061 
L 124.557025 260.431951 
L 127.631405 260.906823 
L 130.705785 261.38159 
L 133.780165 261.856323 
L 136.854545 262.330988 
L 139.928926 262.805585 
L 143.003306 263.280127 
L 146.077686 263.754668 
L 149.152066 264.229202 
L 152.226446 264.70373 
L 155.300826 265.178215 
L 158.375207 265.652662 
L 161.449587 266.127071 
L 164.523967 266.601481 
L 167.598347 267.075891 
L 170.672727 267.550289 
L 173.747107 268.02467 
L 176.821488 268.499051 
L 179.895868 268.97339 
L 182.970248 269.447655 
L 186.044628 269.921907 
L 189.119008 270.396113 
L 192.193388 270.870261 
L 195.267769 271.344274 
L 198.342149 271.818054 
L 201.416529 272.291549 
L 204.490909 272.764448 
L 207.565289 273.237188 
L 210.639669 273.709868 
L 213.71405 274.181803 
L 216.78843 274.653525 
L 219.86281 275.125159 
L 222.93719 275.596297 
L 226.01157 276.067436 
L 229.08595 276.538336 
L 232.160331 277.008912 
L 235.234711 277.478974 
L 238.309091 277.948751 
L 241.383471 278.417686 
L 244.457851 278.886389 
L 247.532231 279.355023 
L 250.606612 279.823199 
L 253.680992 280.289837 
L 256.755372 280.755632 
L 259.829752 281.220431 
L 262.904132 281.68442 
L 265.978512 282.146932 
L 269.052893 282.608817 
L 272.127273 283.069878 
L 275.201653 283.53005 
L 278.276033 283.989418 
L 281.350413 284.447718 
L 284.424793 284.905384 
L 287.499174 285.361833 
L 290.573554 285.817223 
L 293.647934 286.271938 
L 296.722314 286.725414 
L 299.796694 287.177559 
L 302.871074 287.628815 
L 305.945455 288.078639 
L 309.019835 288.527267 
L 312.094215 288.974166 
L 315.168595 289.420192 
L 318.242975 289.864836 
L 321.317355 290.307528 
L 324.391736 290.748655 
L 327.466116 291.187797 
L 330.540496 291.625839 
L 333.614876 292.063095 
L 336.689256 292.497963 
L 339.763636 292.930906 
L 342.838017 293.362487 
L 345.912397 293.792199 
L 348.986777 294.220236 
L 352.061157 294.646259 
L 355.135537 295.07011 
L 358.209917 295.492378 
L 361.284298 295.912665 
L 364.358678 296.331081 
L 367.433058 296.747398 
L 370.507438 297.162631 
L 373.581818 297.576355 
L 373.581818 276.233463 
L 373.581818 276.233463 
L 370.507438 275.819725 
L 367.433058 275.404448 
L 364.358678 274.987857 
L 361.284298 274.56913 
L 358.209917 274.14854 
L 355.135537 273.726002 
L 352.061157 273.302139 
L 348.986777 272.876105 
L 345.912397 272.44806 
L 342.838017 272.018337 
L 339.763636 271.586746 
L 336.689256 271.153792 
L 333.614876 270.718875 
L 330.540496 270.281558 
L 327.466116 269.843471 
L 324.391736 269.404298 
L 321.317355 268.963127 
L 318.242975 268.520389 
L 315.168595 268.075677 
L 312.094215 267.629609 
L 309.019835 267.182662 
L 305.945455 266.733985 
L 302.871074 266.284135 
L 299.796694 265.832868 
L 296.722314 265.380713 
L 293.647934 264.927231 
L 290.573554 264.47249 
L 287.499174 264.01707 
L 284.424793 263.560605 
L 281.350413 263.102933 
L 278.276033 262.644606 
L 275.201653 262.185191 
L 272.127273 261.72498 
L 269.052893 261.263909 
L 265.978512 260.802013 
L 262.904132 260.339499 
L 259.829752 259.87551 
L 256.755372 259.410711 
L 253.680992 258.94491 
L 250.606612 258.478254 
L 247.532231 258.010066 
L 244.457851 257.541415 
L 241.383471 257.072685 
L 238.309091 256.603702 
L 235.234711 256.133815 
L 232.160331 255.663651 
L 229.08595 255.193002 
L 226.01157 254.722022 
L 222.93719 254.250826 
L 219.86281 253.779673 
L 216.78843 253.308 
L 213.71405 252.836234 
L 210.639669 252.364246 
L 207.565289 251.891556 
L 204.490909 251.418816 
L 201.416529 250.945917 
L 198.342149 250.472417 
L 195.267769 249.998629 
L 192.193388 249.524594 
L 189.119008 249.050391 
L 186.044628 248.576153 
L 182.970248 248.1019 
L 179.895868 247.627616 
L 176.821488 247.153277 
L 173.747107 246.678895 
L 170.672727 246.204514 
L 167.598347 245.730116 
L 164.523967 245.255706 
L 161.449587 244.781297 
L 158.375207 244.306887 
L 155.300826 243.832441 
L 152.226446 243.357956 
L 149.152066 242.883427 
L 146.077686 242.408894 
L 143.003306 241.934352 
L 139.928926 241.459811 
L 136.854545 240.985214 
L 133.780165 240.510549 
L 130.705785 240.035815 
L 127.631405 239.561048 
L 124.557025 239.086177 
L 121.482645 238.611287 
L 118.408264 238.136367 
L 115.333884 237.661431 
L 112.259504 237.18649 
L 109.185124 236.711541 
L 106.110744 236.23657 
L 103.036364 235.761458 
L 99.961983 235.286241 
L 96.887603 234.810939 
L 93.813223 234.335627 
L 90.738843 233.860313 
L 87.664463 233.385 
L 84.590083 232.909686 
L 81.515702 232.434372 
L 78.441322 231.959058 
L 75.366942 231.483745 
L 72.292562 231.008431 
L 69.218182 230.533117 
z
" style="fill:#e6550d;"/>
   </g>
   <g id="PolyCollection_6">
    <path clip-path="url(#pc43d056d3f)" d="M 69.218182 204.705355 
L 69.218182 230.533117 
L 72.292562 231.008431 
L 75.366942 231.483745 
L 78.441322 231.959058 
L 81.515702 232.434372 
L 84.590083 232.909686 
L 87.664463 233.385 
L 90.738843 233.860313 
L 93.813223 234.335627 
L 96.887603 234.810939 
L 99.961983 235.286241 
L 103.036364 235.761458 
L 106.110744 236.23657 
L 109.185124 236.711541 
L 112.259504 237.18649 
L 115.333884 237.661431 
L 118.408264 238.136367 
L 121.482645 238.611287 
L 124.557025 239.086177 
L 127.631405 239.561048 
L 130.705785 240.035815 
L 133.780165 240.510549 
L 136.854545 240.985214 
L 139.928926 241.459811 
L 143.003306 241.934352 
L 146.077686 242.408894 
L 149.152066 242.883427 
L 152.226446 243.357956 
L 155.300826 243.832441 
L 158.375207 244.306887 
L 161.449587 244.781297 
L 164.523967 245.255706 
L 167.598347 245.730116 
L 170.672727 246.204514 
L 173.747107 246.678895 
L 176.821488 247.153277 
L 179.895868 247.627616 
L 182.970248 248.1019 
L 186.044628 248.576153 
L 189.119008 249.050391 
L 192.193388 249.524594 
L 195.267769 249.998629 
L 198.342149 250.472417 
L 201.416529 250.945917 
L 204.490909 251.418816 
L 207.565289 251.891556 
L 210.639669 252.364246 
L 213.71405 252.836234 
L 216.78843 253.308 
L 219.86281 253.779673 
L 222.93719 254.250826 
L 226.01157 254.722022 
L 229.08595 255.193002 
L 232.160331 255.663651 
L 235.234711 256.133815 
L 238.309091 256.603702 
L 241.383471 257.072685 
L 244.457851 257.541415 
L 247.532231 258.010066 
L 250.606612 258.478254 
L 253.680992 258.94491 
L 256.755372 259.410711 
L 259.829752 259.87551 
L 262.904132 260.339499 
L 265.978512 260.802013 
L 269.052893 261.263909 
L 272.127273 261.72498 
L 275.201653 262.185191 
L 278.276033 262.644606 
L 281.350413 263.102933 
L 284.424793 263.560605 
L 287.499174 264.01707 
L 290.573554 264.47249 
L 293.647934 264.927231 
L 296.722314 265.380713 
L 299.796694 265.832868 
L 302.871074 266.284135 
L 305.945455 266.733985 
L 309.019835 267.182662 
L 312.094215 267.629609 
L 315.168595 268.075677 
L 318.242975 268.520389 
L 321.317355 268.963127 
L 324.391736 269.404298 
L 327.466116 269.843471 
L 330.540496 270.281558 
L 333.614876 270.718875 
L 336.689256 271.153792 
L 339.763636 271.586746 
L 342.838017 272.018337 
L 345.912397 272.44806 
L 348.986777 272.876105 
L 352.061157 273.302139 
L 355.135537 273.726002 
L 358.209917 274.14854 
L 361.284298 274.56913 
L 364.358678 274.987857 
L 367.433058 275.404448 
L 370.507438 275.819725 
L 373.581818 276.233463 
L 373.581818 250.422494 
L 373.581818 250.422494 
L 370.507438 250.008227 
L 367.433058 249.59257 
L 364.358678 249.175729 
L 361.284298 248.756744 
L 358.209917 248.335936 
L 355.135537 247.913293 
L 352.061157 247.489066 
L 348.986777 247.06268 
L 345.912397 246.634507 
L 342.838017 246.204654 
L 339.763636 245.772933 
L 336.689256 245.339849 
L 333.614876 244.904801 
L 330.540496 244.467349 
L 327.466116 244.029122 
L 324.391736 243.589774 
L 321.317355 243.148424 
L 318.242975 242.705517 
L 315.168595 242.260638 
L 312.094215 241.814373 
L 309.019835 241.36723 
L 305.945455 240.918354 
L 302.871074 240.468277 
L 299.796694 240.016781 
L 296.722314 239.564425 
L 293.647934 239.110738 
L 290.573554 238.65578 
L 287.499174 238.200133 
L 284.424793 237.743427 
L 281.350413 237.285516 
L 278.276033 236.826972 
L 275.201653 236.367343 
L 272.127273 235.906921 
L 269.052893 235.445599 
L 265.978512 234.983452 
L 262.904132 234.520692 
L 259.829752 234.056493 
L 256.755372 233.591483 
L 253.680992 233.125474 
L 250.606612 232.658618 
L 247.532231 232.190219 
L 244.457851 231.721361 
L 241.383471 231.252432 
L 238.309091 230.783242 
L 235.234711 230.313142 
L 232.160331 229.842805 
L 229.08595 229.371942 
L 226.01157 228.900725 
L 222.93719 228.429278 
L 219.86281 227.957819 
L 216.78843 227.485847 
L 213.71405 227.013784 
L 210.639669 226.541502 
L 207.565289 226.068495 
L 204.490909 225.595431 
L 201.416529 225.122218 
L 198.342149 224.648405 
L 195.267769 224.174329 
L 192.193388 223.700029 
L 189.119008 223.225558 
L 186.044628 222.751029 
L 182.970248 222.27651 
L 179.895868 221.801965 
L 176.821488 221.327363 
L 173.747107 220.852744 
L 170.672727 220.378151 
L 167.598347 219.903547 
L 164.523967 219.428939 
L 161.449587 218.954338 
L 158.375207 218.479739 
L 155.300826 218.00514 
L 152.226446 217.530556 
L 149.152066 217.055939 
L 146.077686 216.581324 
L 143.003306 216.106704 
L 139.928926 215.632129 
L 136.854545 215.15751 
L 133.780165 214.68283 
L 130.705785 214.208082 
L 127.631405 213.733302 
L 124.557025 213.258426 
L 121.482645 212.783535 
L 118.408264 212.308613 
L 115.333884 211.833675 
L 112.259504 211.358732 
L 109.185124 210.883781 
L 106.110744 210.408808 
L 103.036364 209.933696 
L 99.961983 209.458479 
L 96.887603 208.983177 
L 93.813223 208.507865 
L 90.738843 208.032552 
L 87.664463 207.557238 
L 84.590083 207.081924 
L 81.515702 206.60661 
L 78.441322 206.131297 
L 75.366942 205.655983 
L 72.292562 205.180669 
L 69.218182 204.705355 
z
" style="fill:#fd8d3c;"/>
   </g>
   <g id="PolyCollection_7">
    <path clip-path="url(#pc43d056d3f)" d="M 69.218182 193.694545 
L 69.218182 204.705355 
L 72.292562 205.180669 
L 75.366942 205.655983 
L 78.441322 206.131297 
L 81.515702 206.60661 
L 84.590083 207.081924 
L 87.664463 207.557238 
L 90.738843 208.032552 
L 93.813223 208.507865 
L 96.887603 208.983177 
L 99.961983 209.458479 
L 103.036364 209.933696 
L 106.110744 210.408808 
L 109.185124 210.883781 
L 112.259504 211.358732 
L 115.333884 211.833675 
L 118.408264 212.308613 
L 121.482645 212.783535 
L 124.557025 213.258426 
L 127.631405 213.733302 
L 130.705785 214.208082 
L 133.780165 214.68283 
L 136.854545 215.15751 
L 139.928926 215.632129 
L 143.003306 216.106704 
L 146.077686 216.581324 
L 149.152066 217.055939 
L 152.226446 217.530556 
L 155.300826 218.00514 
L 158.375207 218.479739 
L 161.449587 218.954338 
L 164.523967 219.428939 
L 167.598347 219.903547 
L 170.672727 220.378151 
L 173.747107 220.852744 
L 176.821488 221.327363 
L 179.895868 221.801965 
L 182.970248 222.27651 
L 186.044628 222.751029 
L 189.119008 223.225558 
L 192.193388 223.700029 
L 195.267769 224.174329 
L 198.342149 224.648405 
L 201.416529 225.122218 
L 204.490909 225.595431 
L 207.565289 226.068495 
L 210.639669 226.541502 
L 213.71405 227.013784 
L 216.78843 227.485847 
L 219.86281 227.957819 
L 222.93719 228.429278 
L 226.01157 228.900725 
L 229.08595 229.371942 
L 232.160331 229.842805 
L 235.234711 230.313142 
L 238.309091 230.783242 
L 241.383471 231.252432 
L 244.457851 231.721361 
L 247.532231 232.190219 
L 250.606612 232.658618 
L 253.680992 233.125474 
L 256.755372 233.591483 
L 259.829752 234.056493 
L 262.904132 234.520692 
L 265.978512 234.983452 
L 269.052893 235.445599 
L 272.127273 235.906921 
L 275.201653 236.367343 
L 278.276033 236.826972 
L 281.350413 237.285516 
L 284.424793 237.743427 
L 287.499174 238.200133 
L 290.573554 238.65578 
L 293.647934 239.110738 
L 296.722314 239.564425 
L 299.796694 240.016781 
L 302.871074 240.468277 
L 305.945455 240.918354 
L 309.019835 241.36723 
L 312.094215 241.814373 
L 315.168595 242.260638 
L 318.242975 242.705517 
L 321.317355 243.148424 
L 324.391736 243.589774 
L 327.466116 244.029122 
L 330.540496 244.467349 
L 333.614876 244.904801 
L 336.689256 245.339849 
L 339.763636 245.772933 
L 342.838017 246.204654 
L 345.912397 246.634507 
L 348.986777 247.06268 
L 352.061157 247.489066 
L 355.135537 247.913293 
L 358.209917 248.335936 
L 361.284298 248.756744 
L 364.358678 249.175729 
L 367.433058 249.59257 
L 370.507438 250.008227 
L 373.581818 250.422494 
L 373.581818 250.422494 
L 373.581818 250.422494 
L 370.507438 249.897167 
L 367.433058 249.370404 
L 364.358678 248.842476 
L 361.284298 248.312407 
L 358.209917 247.780466 
L 355.135537 247.246653 
L 352.061157 246.71132 
L 348.986777 246.173804 
L 345.912397 245.634313 
L 342.838017 245.093327 
L 339.763636 244.550473 
L 336.689256 244.006256 
L 333.614876 243.460075 
L 330.540496 242.911491 
L 327.466116 242.362116 
L 324.391736 241.811619 
L 321.317355 241.25912 
L 318.242975 240.705054 
L 315.168595 240.149011 
L 312.094215 239.591593 
L 309.019835 239.033297 
L 305.945455 238.473267 
L 302.871074 237.912043 
L 299.796694 237.349388 
L 296.722314 236.785844 
L 293.647934 236.220968 
L 290.573554 235.654822 
L 287.499174 235.087983 
L 284.424793 234.520103 
L 281.350413 233.951026 
L 278.276033 233.381287 
L 275.201653 232.810459 
L 272.127273 232.238827 
L 269.052893 231.666296 
L 265.978512 231.09294 
L 262.904132 230.518963 
L 259.829752 229.943536 
L 256.755372 229.367302 
L 253.680992 228.790075 
L 250.606612 228.21199 
L 247.532231 227.632366 
L 244.457851 227.0523 
L 241.383471 226.472145 
L 238.309091 225.89173 
L 235.234711 225.310404 
L 232.160331 224.728809 
L 229.08595 224.146685 
L 226.01157 223.564219 
L 222.93719 222.981511 
L 219.86281 222.398799 
L 216.78843 221.815568 
L 213.71405 221.232256 
L 210.639669 220.648751 
L 207.565289 220.064506 
L 204.490909 219.480206 
L 201.416529 218.89576 
L 198.342149 218.310717 
L 195.267769 217.725386 
L 192.193388 217.139804 
L 189.119008 216.55406 
L 186.044628 215.968264 
L 182.970248 215.382422 
L 179.895868 214.796558 
L 176.821488 214.210624 
L 173.747107 213.624699 
L 170.672727 213.038779 
L 167.598347 212.452843 
L 164.523967 211.86693 
L 161.449587 211.28105 
L 158.375207 210.695171 
L 155.300826 210.109254 
L 152.226446 209.523315 
L 149.152066 208.937365 
L 146.077686 208.351434 
L 143.003306 207.765524 
L 139.928926 207.179623 
L 136.854545 206.59369 
L 133.780165 206.007738 
L 130.705785 205.42173 
L 127.631405 204.835694 
L 124.557025 204.249587 
L 121.482645 203.663471 
L 118.408264 203.077327 
L 115.333884 202.491169 
L 112.259504 201.905006 
L 109.185124 201.318834 
L 106.110744 200.732641 
L 103.036364 200.146309 
L 99.961983 199.559872 
L 96.887603 198.973349 
L 93.813223 198.386817 
L 90.738843 197.800283 
L 87.664463 197.213749 
L 84.590083 196.627215 
L 81.515702 196.040681 
L 78.441322 195.454147 
L 75.366942 194.867613 
L 72.292562 194.281079 
L 69.218182 193.694545 
z
" style="fill:#fdae6b;"/>
   </g>
   <g id="PolyCollection_8">
    <path clip-path="url(#pc43d056d3f)" d="M 69.218182 100.663737 
L 69.218182 193.694545 
L 72.292562 194.281079 
L 75.366942 194.867613 
L 78.441322 195.454147 
L 81.515702 196.040681 
L 84.590083 196.627215 
L 87.664463 197.213749 
L 90.738843 197.800283 
L 93.813223 198.386817 
L 96.887603 198.973349 
L 99.961983 199.559872 
L 103.036364 200.146309 
L 106.110744 200.732641 
L 109.185124 201.318834 
L 112.259504 201.905006 
L 115.333884 202.491169 
L 118.408264 203.077327 
L 121.482645 203.663471 
L 124.557025 204.249587 
L 127.631405 204.835694 
L 130.705785 205.42173 
L 133.780165 206.007738 
L 136.854545 206.59369 
L 139.928926 207.179623 
L 143.003306 207.765524 
L 146.077686 208.351434 
L 149.152066 208.937365 
L 152.226446 209.523315 
L 155.300826 210.109254 
L 158.375207 210.695171 
L 161.449587 211.28105 
L 164.523967 211.86693 
L 167.598347 212.452843 
L 170.672727 213.038779 
L 173.747107 213.624699 
L 176.821488 214.210624 
L 179.895868 214.796558 
L 182.970248 215.382422 
L 186.044628 215.968264 
L 189.119008 216.55406 
L 192.193388 217.139804 
L 195.267769 217.725386 
L 198.342149 218.310717 
L 201.416529 218.89576 
L 204.490909 219.480206 
L 207.565289 220.064506 
L 210.639669 220.648751 
L 213.71405 221.232256 
L 216.78843 221.815568 
L 219.86281 222.398799 
L 222.93719 222.981511 
L 226.01157 223.564219 
L 229.08595 224.146685 
L 232.160331 224.728809 
L 235.234711 225.310404 
L 238.309091 225.89173 
L 241.383471 226.472145 
L 244.457851 227.0523 
L 247.532231 227.632366 
L 250.606612 228.21199 
L 253.680992 228.790075 
L 256.755372 229.367302 
L 259.829752 229.943536 
L 262.904132 230.518963 
L 265.978512 231.09294 
L 269.052893 231.666296 
L 272.127273 232.238827 
L 275.201653 232.810459 
L 278.276033 233.381287 
L 281.350413 233.951026 
L 284.424793 234.520103 
L 287.499174 235.087983 
L 290.573554 235.654822 
L 293.647934 236.220968 
L 296.722314 236.785844 
L 299.796694 237.349388 
L 302.871074 237.912043 
L 305.945455 238.473267 
L 309.019835 239.033297 
L 312.094215 239.591593 
L 315.168595 240.149011 
L 318.242975 240.705054 
L 321.317355 241.25912 
L 324.391736 241.811619 
L 327.466116 242.362116 
L 330.540496 242.911491 
L 333.614876 243.460075 
L 336.689256 244.006256 
L 339.763636 244.550473 
L 342.838017 245.093327 
L 345.912397 245.634313 
L 348.986777 246.173804 
L 352.061157 246.71132 
L 355.135537 247.246653 
L 358.209917 247.780466 
L 361.284298 248.312407 
L 364.358678 248.842476 
L 367.433058 249.370404 
L 370.507438 249.897167 
L 373.581818 250.422494 
L 373.581818 157.391686 
L 373.581818 157.391686 
L 370.507438 156.86636 
L 367.433058 156.339596 
L 364.358678 155.811668 
L 361.284298 155.281599 
L 358.209917 154.749659 
L 355.135537 154.215846 
L 352.061157 153.680512 
L 348.986777 153.142997 
L 345.912397 152.603505 
L 342.838017 152.062519 
L 339.763636 151.519665 
L 336.689256 150.975448 
L 333.614876 150.429268 
L 330.540496 149.880683 
L 327.466116 149.331308 
L 324.391736 148.780812 
L 321.317355 148.228313 
L 318.242975 147.674247 
L 315.168595 147.118204 
L 312.094215 146.560785 
L 309.019835 146.002489 
L 305.945455 145.44246 
L 302.871074 144.881236 
L 299.796694 144.31858 
L 296.722314 143.755036 
L 293.647934 143.19016 
L 290.573554 142.624014 
L 287.499174 142.057175 
L 284.424793 141.489296 
L 281.350413 140.920218 
L 278.276033 140.350479 
L 275.201653 139.779652 
L 272.127273 139.20802 
L 269.052893 138.635489 
L 265.978512 138.062133 
L 262.904132 137.488156 
L 259.829752 136.912728 
L 256.755372 136.336494 
L 253.680992 135.759267 
L 250.606612 135.181182 
L 247.532231 134.601558 
L 244.457851 134.021492 
L 241.383471 133.441337 
L 238.309091 132.860922 
L 235.234711 132.279597 
L 232.160331 131.698001 
L 229.08595 131.115878 
L 226.01157 130.533412 
L 222.93719 129.950703 
L 219.86281 129.367992 
L 216.78843 128.784761 
L 213.71405 128.201448 
L 210.639669 127.617943 
L 207.565289 127.033699 
L 204.490909 126.449398 
L 201.416529 125.864953 
L 198.342149 125.279909 
L 195.267769 124.694578 
L 192.193388 124.108996 
L 189.119008 123.523252 
L 186.044628 122.937456 
L 182.970248 122.351614 
L 179.895868 121.765751 
L 176.821488 121.179816 
L 173.747107 120.593891 
L 170.672727 120.007972 
L 167.598347 119.422035 
L 164.523967 118.836122 
L 161.449587 118.250243 
L 158.375207 117.664363 
L 155.300826 117.078447 
L 152.226446 116.492508 
L 149.152066 115.906557 
L 146.077686 115.320626 
L 143.003306 114.734716 
L 139.928926 114.148815 
L 136.854545 113.562882 
L 133.780165 112.97693 
L 130.705785 112.390922 
L 127.631405 111.804887 
L 124.557025 111.218779 
L 121.482645 110.632663 
L 118.408264 110.046519 
L 115.333884 109.460361 
L 112.259504 108.874198 
L 109.185124 108.288027 
L 106.110744 107.701834 
L 103.036364 107.115501 
L 99.961983 106.529064 
L 96.887603 105.942541 
L 93.813223 105.35601 
L 90.738843 104.769476 
L 87.664463 104.182941 
L 84.590083 103.596407 
L 81.515702 103.009873 
L 78.441322 102.423339 
L 75.366942 101.836805 
L 72.292562 101.250271 
L 69.218182 100.663737 
z
" style="fill:#fdd0a2;"/>
   </g>
   <g id="PolyCollection_9">
    <path clip-path="url(#pc43d056d3f)" d="M 69.218182 90.24 
L 69.218182 100.663737 
L 72.292562 101.250271 
L 75.366942 101.836805 
L 78.441322 102.423339 
L 81.515702 103.009873 
L 84.590083 103.596407 
L 87.664463 104.182941 
L 90.738843 104.769476 
L 93.813223 105.35601 
L 96.887603 105.942541 
L 99.961983 106.529064 
L 103.036364 107.115501 
L 106.110744 107.701834 
L 109.185124 108.288027 
L 112.259504 108.874198 
L 115.333884 109.460361 
L 118.408264 110.046519 
L 121.482645 110.632663 
L 124.557025 111.218779 
L 127.631405 111.804887 
L 130.705785 112.390922 
L 133.780165 112.97693 
L 136.854545 113.562882 
L 139.928926 114.148815 
L 143.003306 114.734716 
L 146.077686 115.320626 
L 149.152066 115.906557 
L 152.226446 116.492508 
L 155.300826 117.078447 
L 158.375207 117.664363 
L 161.449587 118.250243 
L 164.523967 118.836122 
L 167.598347 119.422035 
L 170.672727 120.007972 
L 173.747107 120.593891 
L 176.821488 121.179816 
L 179.895868 121.765751 
L 182.970248 122.351614 
L 186.044628 122.937456 
L 189.119008 123.523252 
L 192.193388 124.108996 
L 195.267769 124.694578 
L 198.342149 125.279909 
L 201.416529 125.864953 
L 204.490909 126.449398 
L 207.565289 127.033699 
L 210.639669 127.617943 
L 213.71405 128.201448 
L 216.78843 128.784761 
L 219.86281 129.367992 
L 222.93719 129.950703 
L 226.01157 130.533412 
L 229.08595 131.115878 
L 232.160331 131.698001 
L 235.234711 132.279597 
L 238.309091 132.860922 
L 241.383471 133.441337 
L 244.457851 134.021492 
L 247.532231 134.601558 
L 250.606612 135.181182 
L 253.680992 135.759267 
L 256.755372 136.336494 
L 259.829752 136.912728 
L 262.904132 137.488156 
L 265.978512 138.062133 
L 269.052893 138.635489 
L 272.127273 139.20802 
L 275.201653 139.779652 
L 278.276033 140.350479 
L 281.350413 140.920218 
L 284.424793 141.489296 
L 287.499174 142.057175 
L 290.573554 142.624014 
L 293.647934 143.19016 
L 296.722314 143.755036 
L 299.796694 144.31858 
L 302.871074 144.881236 
L 305.945455 145.44246 
L 309.019835 146.002489 
L 312.094215 146.560785 
L 315.168595 147.118204 
L 318.242975 147.674247 
L 321.317355 148.228313 
L 324.391736 148.780812 
L 327.466116 149.331308 
L 330.540496 149.880683 
L 333.614876 150.429268 
L 336.689256 150.975448 
L 339.763636 151.519665 
L 342.838017 152.062519 
L 345.912397 152.603505 
L 348.986777 153.142997 
L 352.061157 153.680512 
L 355.135537 154.215846 
L 358.209917 154.749659 
L 361.284298 155.281599 
L 364.358678 155.811668 
L 367.433058 156.339596 
L 370.507438 156.86636 
L 373.581818 157.391686 
L 373.581818 157.391686 
L 373.581818 157.391686 
L 370.507438 156.761069 
L 367.433058 156.129015 
L 364.358678 155.495797 
L 361.284298 154.860438 
L 358.209917 154.223207 
L 355.135537 153.584104 
L 352.061157 152.94348 
L 348.986777 152.300674 
L 345.912397 151.655892 
L 342.838017 151.009616 
L 339.763636 150.361472 
L 336.689256 149.711965 
L 333.614876 149.060494 
L 330.540496 148.406619 
L 327.466116 147.751954 
L 324.391736 147.096167 
L 321.317355 146.438378 
L 318.242975 145.779022 
L 315.168595 145.117689 
L 312.094215 144.454979 
L 309.019835 143.791393 
L 305.945455 143.126074 
L 302.871074 142.459559 
L 299.796694 141.791614 
L 296.722314 141.122779 
L 293.647934 140.452613 
L 290.573554 139.781177 
L 287.499174 139.109048 
L 284.424793 138.435878 
L 281.350413 137.76151 
L 278.276033 137.086481 
L 275.201653 136.410363 
L 272.127273 135.733441 
L 269.052893 135.055619 
L 265.978512 134.376973 
L 262.904132 133.697706 
L 259.829752 133.016988 
L 256.755372 132.335464 
L 253.680992 131.652946 
L 250.606612 130.969571 
L 247.532231 130.284657 
L 244.457851 129.599301 
L 241.383471 128.913855 
L 238.309091 128.22815 
L 235.234711 127.541534 
L 232.160331 126.854649 
L 229.08595 126.167235 
L 226.01157 125.479479 
L 222.93719 124.791479 
L 219.86281 124.103478 
L 216.78843 123.414957 
L 213.71405 122.726354 
L 210.639669 122.037559 
L 207.565289 121.348024 
L 204.490909 120.658433 
L 201.416529 119.968697 
L 198.342149 119.278364 
L 195.267769 118.587742 
L 192.193388 117.89687 
L 189.119008 117.205836 
L 186.044628 116.51475 
L 182.970248 115.823617 
L 179.895868 115.132464 
L 176.821488 114.441239 
L 173.747107 113.750024 
L 170.672727 113.058814 
L 167.598347 112.367587 
L 164.523967 111.676384 
L 161.449587 110.985214 
L 158.375207 110.294044 
L 155.300826 109.602837 
L 152.226446 108.911608 
L 149.152066 108.220367 
L 146.077686 107.529146 
L 143.003306 106.837945 
L 139.928926 106.146755 
L 136.854545 105.455531 
L 133.780165 104.764289 
L 130.705785 104.072991 
L 127.631405 103.381665 
L 124.557025 102.690267 
L 121.482645 101.99886 
L 118.408264 101.307427 
L 115.333884 100.615979 
L 112.259504 99.924525 
L 109.185124 99.233063 
L 106.110744 98.54158 
L 103.036364 97.849957 
L 99.961983 97.15823 
L 96.887603 96.466417 
L 93.813223 95.774595 
L 90.738843 95.08277 
L 87.664463 94.390946 
L 84.590083 93.699122 
L 81.515702 93.007297 
L 78.441322 92.315473 
L 75.366942 91.623649 
L 72.292562 90.931824 
L 69.218182 90.24 
z
" style="fill:#31a354;"/>
   </g>
   <g id="PolyCollection_10">
    <path clip-path="url(#pc43d056d3f)" d="M 69.218182 90.24 
L 69.218182 90.24 
L 72.292562 90.931824 
L 75.366942 91.623649 
L 78.441322 92.315473 
L 81.515702 93.007297 
L 84.590083 93.699122 
L 87.664463 94.390946 
L 90.738843 95.08277 
L 93.813223 95.774595 
L 96.887603 96.466417 
L 99.961983 97.15823 
L 103.036364 97.849957 
L 106.110744 98.54158 
L 109.185124 99.233063 
L 112.259504 99.924525 
L 115.333884 100.615979 
L 118.408264 101.307427 
L 121.482645 101.99886 
L 124.557025 102.690267 
L 127.631405 103.381665 
L 130.705785 104.072991 
L 133.780165 104.764289 
L 136.854545 105.455531 
L 139.928926 106.146755 
L 143.003306 106.837945 
L 146.077686 107.529146 
L 149.152066 108.220367 
L 152.226446 108.911608 
L 155.300826 109.602837 
L 158.375207 110.294044 
L 161.449587 110.985214 
L 164.523967 111.676384 
L 167.598347 112.367587 
L 170.672727 113.058814 
L 173.747107 113.750024 
L 176.821488 114.441239 
L 179.895868 115.132464 
L 182.970248 115.823617 
L 186.044628 116.51475 
L 189.119008 117.205836 
L 192.193388 117.89687 
L 195.267769 118.587742 
L 198.342149 119.278364 
L 201.416529 119.968697 
L 204.490909 120.658433 
L 207.565289 121.348024 
L 210.639669 122.037559 
L 213.71405 122.726354 
L 216.78843 123.414957 
L 219.86281 124.103478 
L 222.93719 124.791479 
L 226.01157 125.479479 
L 229.08595 126.167235 
L 232.160331 126.854649 
L 235.234711 127.541534 
L 238.309091 128.22815 
L 241.383471 128.913855 
L 244.457851 129.599301 
L 247.532231 130.284657 
L 250.606612 130.969571 
L 253.680992 131.652946 
L 256.755372 132.335464 
L 259.829752 133.016988 
L 262.904132 133.697706 
L 265.978512 134.376973 
L 269.052893 135.055619 
L 272.127273 135.733441 
L 275.201653 136.410363 
L 278.276033 137.086481 
L 281.350413 137.76151 
L 284.424793 138.435878 
L 287.499174 139.109048 
L 290.573554 139.781177 
L 293.647934 140.452613 
L 296.722314 141.122779 
L 299.796694 141.791614 
L 302.871074 142.459559 
L 305.945455 143.126074 
L 309.019835 143.791393 
L 312.094215 144.454979 
L 315.168595 145.117689 
L 318.242975 145.779022 
L 321.317355 146.438378 
L 324.391736 147.096167 
L 327.466116 147.751954 
L 330.540496 148.406619 
L 333.614876 149.060494 
L 336.689256 149.711965 
L 339.763636 150.361472 
L 342.838017 151.009616 
L 345.912397 151.655892 
L 348.986777 152.300674 
L 352.061157 152.94348 
L 355.135537 153.584104 
L 358.209917 154.223207 
L 361.284298 154.860438 
L 364.358678 155.495797 
L 367.433058 156.129015 
L 370.507438 156.761069 
L 373.581818 157.391686 
L 373.581818 121.984793 
L 373.581818 121.984793 
L 370.507438 121.664852 
L 367.433058 121.344818 
L 364.358678 121.024612 
L 361.284298 120.704361 
L 358.209917 120.384111 
L 355.135537 120.06386 
L 352.061157 119.743609 
L 348.986777 119.423348 
L 345.912397 119.103076 
L 342.838017 118.782798 
L 339.763636 118.46252 
L 336.689256 118.142243 
L 333.614876 117.821927 
L 330.540496 117.501595 
L 327.466116 117.181258 
L 324.391736 116.860899 
L 321.317355 116.540524 
L 318.242975 116.220146 
L 315.168595 115.899742 
L 312.094215 115.579335 
L 309.019835 115.258923 
L 305.945455 114.938506 
L 302.871074 114.618079 
L 299.796694 114.297651 
L 296.722314 113.977224 
L 293.647934 113.656796 
L 290.573554 113.336337 
L 287.499174 113.015859 
L 284.424793 112.69538 
L 281.350413 112.3749 
L 278.276033 112.054393 
L 275.201653 111.733866 
L 272.127273 111.413338 
L 269.052893 111.092801 
L 265.978512 110.772261 
L 262.904132 110.451722 
L 259.829752 110.131183 
L 256.755372 109.810644 
L 253.680992 109.490099 
L 250.606612 109.169538 
L 247.532231 108.848971 
L 244.457851 108.528393 
L 241.383471 108.207795 
L 238.309091 107.887168 
L 235.234711 107.566474 
L 232.160331 107.24578 
L 229.08595 106.925066 
L 226.01157 106.604315 
L 222.93719 106.283559 
L 219.86281 105.962789 
L 216.78843 105.641994 
L 213.71405 105.321193 
L 210.639669 105.000384 
L 207.565289 104.679575 
L 204.490909 104.358766 
L 201.416529 104.037957 
L 198.342149 103.717143 
L 195.267769 103.396327 
L 192.193388 103.075492 
L 189.119008 102.754621 
L 186.044628 102.43375 
L 182.970248 102.112877 
L 179.895868 101.791989 
L 176.821488 101.4711 
L 173.747107 101.150212 
L 170.672727 100.829323 
L 167.598347 100.508434 
L 164.523967 100.187546 
L 161.449587 99.866657 
L 158.375207 99.545769 
L 155.300826 99.22488 
L 152.226446 98.903991 
L 149.152066 98.583103 
L 146.077686 98.262214 
L 143.003306 97.941326 
L 139.928926 97.620437 
L 136.854545 97.299549 
L 133.780165 96.97866 
L 130.705785 96.657771 
L 127.631405 96.336883 
L 124.557025 96.015994 
L 121.482645 95.695106 
L 118.408264 95.374217 
L 115.333884 95.053329 
L 112.259504 94.73244 
L 109.185124 94.411551 
L 106.110744 94.090663 
L 103.036364 93.769774 
L 99.961983 93.448886 
L 96.887603 93.127997 
L 93.813223 92.807109 
L 90.738843 92.48622 
L 87.664463 92.165331 
L 84.590083 91.844443 
L 81.515702 91.523554 
L 78.441322 91.202666 
L 75.366942 90.881777 
L 72.292562 90.560889 
L 69.218182 90.24 
z
" style="fill:#74c476;"/>
   </g>
   <g id="PolyCollection_11">
    <path clip-path="url(#pc43d056d3f)" d="M 69.218182 90.24 
L 69.218182 90.24 
L 72.292562 90.560889 
L 75.366942 90.881777 
L 78.441322 91.202666 
L 81.515702 91.523554 
L 84.590083 91.844443 
L 87.664463 92.165331 
L 90.738843 92.48622 
L 93.813223 92.807109 
L 96.887603 93.127997 
L 99.961983 93.448886 
L 103.036364 93.769774 
L 106.110744 94.090663 
L 109.185124 94.411551 
L 112.259504 94.73244 
L 115.333884 95.053329 
L 118.408264 95.374217 
L 121.482645 95.695106 
L 124.557025 96.015994 
L 127.631405 96.336883 
L 130.705785 96.657771 
L 133.780165 96.97866 
L 136.854545 97.299549 
L 139.928926 97.620437 
L 143.003306 97.941326 
L 146.077686 98.262214 
L 149.152066 98.583103 
L 152.226446 98.903991 
L 155.300826 99.22488 
L 158.375207 99.545769 
L 161.449587 99.866657 
L 164.523967 100.187546 
L 167.598347 100.508434 
L 170.672727 100.829323 
L 173.747107 101.150212 
L 176.821488 101.4711 
L 179.895868 101.791989 
L 182.970248 102.112877 
L 186.044628 102.43375 
L 189.119008 102.754621 
L 192.193388 103.075492 
L 195.267769 103.396327 
L 198.342149 103.717143 
L 201.416529 104.037957 
L 204.490909 104.358766 
L 207.565289 104.679575 
L 210.639669 105.000384 
L 213.71405 105.321193 
L 216.78843 105.641994 
L 219.86281 105.962789 
L 222.93719 106.283559 
L 226.01157 106.604315 
L 229.08595 106.925066 
L 232.160331 107.24578 
L 235.234711 107.566474 
L 238.309091 107.887168 
L 241.383471 108.207795 
L 244.457851 108.528393 
L 247.532231 108.848971 
L 250.606612 109.169538 
L 253.680992 109.490099 
L 256.755372 109.810644 
L 259.829752 110.131183 
L 262.904132 110.451722 
L 265.978512 110.772261 
L 269.052893 111.092801 
L 272.127273 111.413338 
L 275.201653 111.733866 
L 278.276033 112.054393 
L 281.350413 112.3749 
L 284.424793 112.69538 
L 287.499174 113.015859 
L 290.573554 113.336337 
L 293.647934 113.656796 
L 296.722314 113.977224 
L 299.796694 114.297651 
L 302.871074 114.618079 
L 305.945455 114.938506 
L 309.019835 115.258923 
L 312.094215 115.579335 
L 315.168595 115.899742 
L 318.242975 116.220146 
L 321.317355 116.540524 
L 324.391736 116.860899 
L 327.466116 117.181258 
L 330.540496 117.501595 
L 333.614876 117.821927 
L 336.689256 118.142243 
L 339.763636 118.46252 
L 342.838017 118.782798 
L 345.912397 119.103076 
L 348.986777 119.423348 
L 352.061157 119.743609 
L 355.135537 120.06386 
L 358.209917 120.384111 
L 361.284298 120.704361 
L 364.358678 121.024612 
L 367.433058 121.344818 
L 370.507438 121.664852 
L 373.581818 121.984793 
L 373.581818 90.24 
L 373.581818 90.24 
L 370.507438 90.24 
L 367.433058 90.24 
L 364.358678 90.24 
L 361.284298 90.24 
L 358.209917 90.24 
L 355.135537 90.24 
L 352.061157 90.24 
L 348.986777 90.24 
L 345.912397 90.24 
L 342.838017 90.24 
L 339.763636 90.24 
L 336.689256 90.24 
L 333.614876 90.24 
L 330.540496 90.24 
L 327.466116 90.24 
L 324.391736 90.24 
L 321.317355 90.24 
L 318.242975 90.24 
L 315.168595 90.24 
L 312.094215 90.24 
L 309.019835 90.24 
L 305.945455 90.24 
L 302.871074 90.24 
L 299.796694 90.24 
L 296.722314 90.24 
L 293.647934 90.24 
L 290.573554 90.24 
L 287.499174 90.24 
L 284.424793 90.24 
L 281.350413 90.24 
L 278.276033 90.24 
L 275.201653 90.24 
L 272.127273 90.24 
L 269.052893 90.24 
L 265.978512 90.24 
L 262.904132 90.24 
L 259.829752 90.24 
L 256.755372 90.24 
L 253.680992 90.24 
L 250.606612 90.24 
L 247.532231 90.24 
L 244.457851 90.24 
L 241.383471 90.24 
L 238.309091 90.24 
L 235.234711 90.24 
L 232.160331 90.24 
L 229.08595 90.24 
L 226.01157 90.24 
L 222.93719 90.24 
L 219.86281 90.24 
L 216.78843 90.24 
L 213.71405 90.24 
L 210.639669 90.24 
L 207.565289 90.24 
L 204.490909 90.24 
L 201.416529 90.24 
L 198.342149 90.24 
L 195.267769 90.24 
L 192.193388 90.24 
L 189.119008 90.24 
L 186.044628 90.24 
L 182.970248 90.24 
L 179.895868 90.24 
L 176.821488 90.24 
L 173.747107 90.24 
L 170.672727 90.24 
L 167.598347 90.24 
L 164.523967 90.24 
L 161.449587 90.24 
L 158.375207 90.24 
L 155.300826 90.24 
L 152.226446 90.24 
L 149.152066 90.24 
L 146.077686 90.24 
L 143.003306 90.24 
L 139.928926 90.24 
L 136.854545 90.24 
L 133.780165 90.24 
L 130.705785 90.24 
L 127.631405 90.24 
L 124.557025 90.24 
L 121.482645 90.24 
L 118.408264 90.24 
L 115.333884 90.24 
L 112.259504 90.24 
L 109.185124 90.24 
L 106.110744 90.24 
L 103.036364 90.24 
L 99.961983 90.24 
L 96.887603 90.24 
L 93.813223 90.24 
L 90.738843 90.24 
L 87.664463 90.24 
L 84.590083 90.24 
L 81.515702 90.24 
L 78.441322 90.24 
L 75.366942 90.24 
L 72.292562 90.24 
L 69.218182 90.24 
z
" style="fill:#a1d99b;"/>
   </g>
   <g id="matplotlib.axis_1">
    <g id="xtick_1">
     <g id="line2d_1">
      <defs>
       <path d="M 0 0 
L 0 3.5 
" id="mbdb97164f4" style="stroke:#000000;stroke-width:0.8;"/>
      </defs>
      <g>
       <use style="stroke:#000000;stroke-width:0.8;" x="69.218182" xlink:href="#mbdb97164f4" y="512.64"/>
      </g>
     </g>
     <g id="text_1">
      <!-- 0 -->
      <g transform="translate(66.036932 527.238438)scale(0.1 -0.1)">
       <defs>
        <path d="M 2034 4250 
Q 1547 4250 1301 3770 
Q 1056 3291 1056 2328 
Q 1056 1369 1301 889 
Q 1547 409 2034 409 
Q 2525 409 2770 889 
Q 3016 1369 3016 2328 
Q 3016 3291 2770 3770 
Q 2525 4250 2034 4250 
z
M 2034 4750 
Q 2819 4750 3233 4129 
Q 3647 3509 3647 2328 
Q 3647 1150 3233 529 
Q 2819 -91 2034 -91 
Q 1250 -91 836 529 
Q 422 1150 422 2328 
Q 422 3509 836 4129 
Q 1250 4750 2034 4750 
z
" id="DejaVuSans-30" transform="scale(0.015625)"/>
       </defs>
       <use xlink:href="#DejaVuSans-30"/>
      </g>
     </g>
    </g>
    <g id="xtick_2">
     <g id="line2d_2">
      <g>
       <use style="stroke:#000000;stroke-width:0.8;" x="130.090909" xlink:href="#mbdb97164f4" y="512.64"/>
      </g>
     </g>
     <g id="text_2">
      <!-- 20 -->
      <g transform="translate(123.728409 527.238438)scale(0.1 -0.1)">
       <defs>
        <path d="M 1228 531 
L 3431 531 
L 3431 0 
L 469 0 
L 469 531 
Q 828 903 1448 1529 
Q 2069 2156 2228 2338 
Q 2531 2678 2651 2914 
Q 2772 3150 2772 3378 
Q 2772 3750 2511 3984 
Q 2250 4219 1831 4219 
Q 1534 4219 1204 4116 
Q 875 4013 500 3803 
L 500 4441 
Q 881 4594 1212 4672 
Q 1544 4750 1819 4750 
Q 2544 4750 2975 4387 
Q 3406 4025 3406 3419 
Q 3406 3131 3298 2873 
Q 3191 2616 2906 2266 
Q 2828 2175 2409 1742 
Q 1991 1309 1228 531 
z
" id="DejaVuSans-32" transform="scale(0.015625)"/>
       </defs>
       <use xlink:href="#DejaVuSans-32"/>
       <use x="63.623047" xlink:href="#DejaVuSans-30"/>
      </g>
     </g>
    </g>
    <g id="xtick_3">
     <g id="line2d_3">
      <g>
       <use style="stroke:#000000;stroke-width:0.8;" x="190.963636" xlink:href="#mbdb97164f4" y="512.64"/>
      </g>
     </g>
     <g id="text_3">
      <!-- 40 -->
      <g transform="translate(184.601136 527.238438)scale(0.1 -0.1)">
       <defs>
        <path d="M 2419 4116 
L 825 1625 
L 2419 1625 
L 2419 4116 
z
M 2253 4666 
L 3047 4666 
L 3047 1625 
L 3713 1625 
L 3713 1100 
L 3047 1100 
L 3047 0 
L 2419 0 
L 2419 1100 
L 313 1100 
L 313 1709 
L 2253 4666 
z
" id="DejaVuSans-34" transform="scale(0.015625)"/>
       </defs>
       <use xlink:href="#DejaVuSans-34"/>
       <use x="63.623047" xlink:href="#DejaVuSans-30"/>
      </g>
     </g>
    </g>
    <g id="xtick_4">
     <g id="line2d_4">
      <g>
       <use style="stroke:#000000;stroke-width:0.8;" x="251.836364" xlink:href="#mbdb97164f4" y="512.64"/>
      </g>
     </g>
     <g id="text_4">
      <!-- 60 -->
      <g transform="translate(245.473864 527.238438)scale(0.1 -0.1)">
       <defs>
        <path d="M 2113 2584 
Q 1688 2584 1439 2293 
Q 1191 2003 1191 1497 
Q 1191 994 1439 701 
Q 1688 409 2113 409 
Q 2538 409 2786 701 
Q 3034 994 3034 1497 
Q 3034 2003 2786 2293 
Q 2538 2584 2113 2584 
z
M 3366 4563 
L 3366 3988 
Q 3128 4100 2886 4159 
Q 2644 4219 2406 4219 
Q 1781 4219 1451 3797 
Q 1122 3375 1075 2522 
Q 1259 2794 1537 2939 
Q 1816 3084 2150 3084 
Q 2853 3084 3261 2657 
Q 3669 2231 3669 1497 
Q 3669 778 3244 343 
Q 2819 -91 2113 -91 
Q 1303 -91 875 529 
Q 447 1150 447 2328 
Q 447 3434 972 4092 
Q 1497 4750 2381 4750 
Q 2619 4750 2861 4703 
Q 3103 4656 3366 4563 
z
" id="DejaVuSans-36" transform="scale(0.015625)"/>
       </defs>
       <use xlink:href="#DejaVuSans-36"/>
       <use x="63.623047" xlink:href="#DejaVuSans-30"/>
      </g>
     </g>
    </g>
    <g id="xtick_5">
     <g id="line2d_5">
      <g>
       <use style="stroke:#000000;stroke-width:0.8;" x="312.709091" xlink:href="#mbdb97164f4" y="512.64"/>
      </g>
     </g>
     <g id="text_5">
      <!-- 80 -->
      <g transform="translate(306.346591 527.238438)scale(0.1 -0.1)">
       <defs>
        <path d="M 2034 2216 
Q 1584 2216 1326 1975 
Q 1069 1734 1069 1313 
Q 1069 891 1326 650 
Q 1584 409 2034 409 
Q 2484 409 2743 651 
Q 3003 894 3003 1313 
Q 3003 1734 2745 1975 
Q 2488 2216 2034 2216 
z
M 1403 2484 
Q 997 2584 770 2862 
Q 544 3141 544 3541 
Q 544 4100 942 4425 
Q 1341 4750 2034 4750 
Q 2731 4750 3128 4425 
Q 3525 4100 3525 3541 
Q 3525 3141 3298 2862 
Q 3072 2584 2669 2484 
Q 3125 2378 3379 2068 
Q 3634 1759 3634 1313 
Q 3634 634 3220 271 
Q 2806 -91 2034 -91 
Q 1263 -91 848 271 
Q 434 634 434 1313 
Q 434 1759 690 2068 
Q 947 2378 1403 2484 
z
M 1172 3481 
Q 1172 3119 1398 2916 
Q 1625 2713 2034 2713 
Q 2441 2713 2670 2916 
Q 2900 3119 2900 3481 
Q 2900 3844 2670 4047 
Q 2441 4250 2034 4250 
Q 1625 4250 1398 4047 
Q 1172 3844 1172 3481 
z
" id="DejaVuSans-38" transform="scale(0.015625)"/>
       </defs>
       <use xlink:href="#DejaVuSans-38"/>
       <use x="63.623047" xlink:href="#DejaVuSans-30"/>
      </g>
     </g>
    </g>
    <g id="xtick_6">
     <g id="line2d_6">
      <g>
       <use style="stroke:#000000;stroke-width:0.8;" x="373.581818" xlink:href="#mbdb97164f4" y="512.64"/>
      </g>
     </g>
     <g id="text_6">
      <!-- 100 -->
      <g transform="translate(364.038068 527.238438)scale(0.1 -0.1)">
       <defs>
        <path d="M 794 531 
L 1825 531 
L 1825 4091 
L 703 3866 
L 703 4441 
L 1819 4666 
L 2450 4666 
L 2450 531 
L 3481 531 
L 3481 0 
L 794 0 
L 794 531 
z
" id="DejaVuSans-31" transform="scale(0.015625)"/>
       </defs>
       <use xlink:href="#DejaVuSans-31"/>
       <use x="63.623047" xlink:href="#DejaVuSans-30"/>
       <use x="127.246094" xlink:href="#DejaVuSans-30"/>
      </g>
     </g>
    </g>
    <g id="text_7">
     <!-- Proportion of New Technology in Grid (%) -->
     <g transform="translate(118.632031 540.916563)scale(0.1 -0.1)">
      <defs>
       <path d="M 1259 4147 
L 1259 2394 
L 2053 2394 
Q 2494 2394 2734 2622 
Q 2975 2850 2975 3272 
Q 2975 3691 2734 3919 
Q 2494 4147 2053 4147 
L 1259 4147 
z
M 628 4666 
L 2053 4666 
Q 2838 4666 3239 4311 
Q 3641 3956 3641 3272 
Q 3641 2581 3239 2228 
Q 2838 1875 2053 1875 
L 1259 1875 
L 1259 0 
L 628 0 
L 628 4666 
z
" id="DejaVuSans-50" transform="scale(0.015625)"/>
       <path d="M 2631 2963 
Q 2534 3019 2420 3045 
Q 2306 3072 2169 3072 
Q 1681 3072 1420 2755 
Q 1159 2438 1159 1844 
L 1159 0 
L 581 0 
L 581 3500 
L 1159 3500 
L 1159 2956 
Q 1341 3275 1631 3429 
Q 1922 3584 2338 3584 
Q 2397 3584 2469 3576 
Q 2541 3569 2628 3553 
L 2631 2963 
z
" id="DejaVuSans-72" transform="scale(0.015625)"/>
       <path d="M 1959 3097 
Q 1497 3097 1228 2736 
Q 959 2375 959 1747 
Q 959 1119 1226 758 
Q 1494 397 1959 397 
Q 2419 397 2687 759 
Q 2956 1122 2956 1747 
Q 2956 2369 2687 2733 
Q 2419 3097 1959 3097 
z
M 1959 3584 
Q 2709 3584 3137 3096 
Q 3566 2609 3566 1747 
Q 3566 888 3137 398 
Q 2709 -91 1959 -91 
Q 1206 -91 779 398 
Q 353 888 353 1747 
Q 353 2609 779 3096 
Q 1206 3584 1959 3584 
z
" id="DejaVuSans-6f" transform="scale(0.015625)"/>
       <path d="M 1159 525 
L 1159 -1331 
L 581 -1331 
L 581 3500 
L 1159 3500 
L 1159 2969 
Q 1341 3281 1617 3432 
Q 1894 3584 2278 3584 
Q 2916 3584 3314 3078 
Q 3713 2572 3713 1747 
Q 3713 922 3314 415 
Q 2916 -91 2278 -91 
Q 1894 -91 1617 61 
Q 1341 213 1159 525 
z
M 3116 1747 
Q 3116 2381 2855 2742 
Q 2594 3103 2138 3103 
Q 1681 3103 1420 2742 
Q 1159 2381 1159 1747 
Q 1159 1113 1420 752 
Q 1681 391 2138 391 
Q 2594 391 2855 752 
Q 3116 1113 3116 1747 
z
" id="DejaVuSans-70" transform="scale(0.015625)"/>
       <path d="M 1172 4494 
L 1172 3500 
L 2356 3500 
L 2356 3053 
L 1172 3053 
L 1172 1153 
Q 1172 725 1289 603 
Q 1406 481 1766 481 
L 2356 481 
L 2356 0 
L 1766 0 
Q 1100 0 847 248 
Q 594 497 594 1153 
L 594 3053 
L 172 3053 
L 172 3500 
L 594 3500 
L 594 4494 
L 1172 4494 
z
" id="DejaVuSans-74" transform="scale(0.015625)"/>
       <path d="M 603 3500 
L 1178 3500 
L 1178 0 
L 603 0 
L 603 3500 
z
M 603 4863 
L 1178 4863 
L 1178 4134 
L 603 4134 
L 603 4863 
z
" id="DejaVuSans-69" transform="scale(0.015625)"/>
       <path d="M 3513 2113 
L 3513 0 
L 2938 0 
L 2938 2094 
Q 2938 2591 2744 2837 
Q 2550 3084 2163 3084 
Q 1697 3084 1428 2787 
Q 1159 2491 1159 1978 
L 1159 0 
L 581 0 
L 581 3500 
L 1159 3500 
L 1159 2956 
Q 1366 3272 1645 3428 
Q 1925 3584 2291 3584 
Q 2894 3584 3203 3211 
Q 3513 2838 3513 2113 
z
" id="DejaVuSans-6e" transform="scale(0.015625)"/>
       <path id="DejaVuSans-20" transform="scale(0.015625)"/>
       <path d="M 2375 4863 
L 2375 4384 
L 1825 4384 
Q 1516 4384 1395 4259 
Q 1275 4134 1275 3809 
L 1275 3500 
L 2222 3500 
L 2222 3053 
L 1275 3053 
L 1275 0 
L 697 0 
L 697 3053 
L 147 3053 
L 147 3500 
L 697 3500 
L 697 3744 
Q 697 4328 969 4595 
Q 1241 4863 1831 4863 
L 2375 4863 
z
" id="DejaVuSans-66" transform="scale(0.015625)"/>
       <path d="M 628 4666 
L 1478 4666 
L 3547 763 
L 3547 4666 
L 4159 4666 
L 4159 0 
L 3309 0 
L 1241 3903 
L 1241 0 
L 628 0 
L 628 4666 
z
" id="DejaVuSans-4e" transform="scale(0.015625)"/>
       <path d="M 3597 1894 
L 3597 1613 
L 953 1613 
Q 991 1019 1311 708 
Q 1631 397 2203 397 
Q 2534 397 2845 478 
Q 3156 559 3463 722 
L 3463 178 
Q 3153 47 2828 -22 
Q 2503 -91 2169 -91 
Q 1331 -91 842 396 
Q 353 884 353 1716 
Q 353 2575 817 3079 
Q 1281 3584 2069 3584 
Q 2775 3584 3186 3129 
Q 3597 2675 3597 1894 
z
M 3022 2063 
Q 3016 2534 2758 2815 
Q 2500 3097 2075 3097 
Q 1594 3097 1305 2825 
Q 1016 2553 972 2059 
L 3022 2063 
z
" id="DejaVuSans-65" transform="scale(0.015625)"/>
       <path d="M 269 3500 
L 844 3500 
L 1563 769 
L 2278 3500 
L 2956 3500 
L 3675 769 
L 4391 3500 
L 4966 3500 
L 4050 0 
L 3372 0 
L 2619 2869 
L 1863 0 
L 1184 0 
L 269 3500 
z
" id="DejaVuSans-77" transform="scale(0.015625)"/>
       <path d="M -19 4666 
L 3928 4666 
L 3928 4134 
L 2272 4134 
L 2272 0 
L 1638 0 
L 1638 4134 
L -19 4134 
L -19 4666 
z
" id="DejaVuSans-54" transform="scale(0.015625)"/>
       <path d="M 3122 3366 
L 3122 2828 
Q 2878 2963 2633 3030 
Q 2388 3097 2138 3097 
Q 1578 3097 1268 2742 
Q 959 2388 959 1747 
Q 959 1106 1268 751 
Q 1578 397 2138 397 
Q 2388 397 2633 464 
Q 2878 531 3122 666 
L 3122 134 
Q 2881 22 2623 -34 
Q 2366 -91 2075 -91 
Q 1284 -91 818 406 
Q 353 903 353 1747 
Q 353 2603 823 3093 
Q 1294 3584 2113 3584 
Q 2378 3584 2631 3529 
Q 2884 3475 3122 3366 
z
" id="DejaVuSans-63" transform="scale(0.015625)"/>
       <path d="M 3513 2113 
L 3513 0 
L 2938 0 
L 2938 2094 
Q 2938 2591 2744 2837 
Q 2550 3084 2163 3084 
Q 1697 3084 1428 2787 
Q 1159 2491 1159 1978 
L 1159 0 
L 581 0 
L 581 4863 
L 1159 4863 
L 1159 2956 
Q 1366 3272 1645 3428 
Q 1925 3584 2291 3584 
Q 2894 3584 3203 3211 
Q 3513 2838 3513 2113 
z
" id="DejaVuSans-68" transform="scale(0.015625)"/>
       <path d="M 603 4863 
L 1178 4863 
L 1178 0 
L 603 0 
L 603 4863 
z
" id="DejaVuSans-6c" transform="scale(0.015625)"/>
       <path d="M 2906 1791 
Q 2906 2416 2648 2759 
Q 2391 3103 1925 3103 
Q 1463 3103 1205 2759 
Q 947 2416 947 1791 
Q 947 1169 1205 825 
Q 1463 481 1925 481 
Q 2391 481 2648 825 
Q 2906 1169 2906 1791 
z
M 3481 434 
Q 3481 -459 3084 -895 
Q 2688 -1331 1869 -1331 
Q 1566 -1331 1297 -1286 
Q 1028 -1241 775 -1147 
L 775 -588 
Q 1028 -725 1275 -790 
Q 1522 -856 1778 -856 
Q 2344 -856 2625 -561 
Q 2906 -266 2906 331 
L 2906 616 
Q 2728 306 2450 153 
Q 2172 0 1784 0 
Q 1141 0 747 490 
Q 353 981 353 1791 
Q 353 2603 747 3093 
Q 1141 3584 1784 3584 
Q 2172 3584 2450 3431 
Q 2728 3278 2906 2969 
L 2906 3500 
L 3481 3500 
L 3481 434 
z
" id="DejaVuSans-67" transform="scale(0.015625)"/>
       <path d="M 2059 -325 
Q 1816 -950 1584 -1140 
Q 1353 -1331 966 -1331 
L 506 -1331 
L 506 -850 
L 844 -850 
Q 1081 -850 1212 -737 
Q 1344 -625 1503 -206 
L 1606 56 
L 191 3500 
L 800 3500 
L 1894 763 
L 2988 3500 
L 3597 3500 
L 2059 -325 
z
" id="DejaVuSans-79" transform="scale(0.015625)"/>
       <path d="M 3809 666 
L 3809 1919 
L 2778 1919 
L 2778 2438 
L 4434 2438 
L 4434 434 
Q 4069 175 3628 42 
Q 3188 -91 2688 -91 
Q 1594 -91 976 548 
Q 359 1188 359 2328 
Q 359 3472 976 4111 
Q 1594 4750 2688 4750 
Q 3144 4750 3555 4637 
Q 3966 4525 4313 4306 
L 4313 3634 
Q 3963 3931 3569 4081 
Q 3175 4231 2741 4231 
Q 1884 4231 1454 3753 
Q 1025 3275 1025 2328 
Q 1025 1384 1454 906 
Q 1884 428 2741 428 
Q 3075 428 3337 486 
Q 3600 544 3809 666 
z
" id="DejaVuSans-47" transform="scale(0.015625)"/>
       <path d="M 2906 2969 
L 2906 4863 
L 3481 4863 
L 3481 0 
L 2906 0 
L 2906 525 
Q 2725 213 2448 61 
Q 2172 -91 1784 -91 
Q 1150 -91 751 415 
Q 353 922 353 1747 
Q 353 2572 751 3078 
Q 1150 3584 1784 3584 
Q 2172 3584 2448 3432 
Q 2725 3281 2906 2969 
z
M 947 1747 
Q 947 1113 1208 752 
Q 1469 391 1925 391 
Q 2381 391 2643 752 
Q 2906 1113 2906 1747 
Q 2906 2381 2643 2742 
Q 2381 3103 1925 3103 
Q 1469 3103 1208 2742 
Q 947 2381 947 1747 
z
" id="DejaVuSans-64" transform="scale(0.015625)"/>
       <path d="M 1984 4856 
Q 1566 4138 1362 3434 
Q 1159 2731 1159 2009 
Q 1159 1288 1364 580 
Q 1569 -128 1984 -844 
L 1484 -844 
Q 1016 -109 783 600 
Q 550 1309 550 2009 
Q 550 2706 781 3412 
Q 1013 4119 1484 4856 
L 1984 4856 
z
" id="DejaVuSans-28" transform="scale(0.015625)"/>
       <path d="M 4653 2053 
Q 4381 2053 4226 1822 
Q 4072 1591 4072 1178 
Q 4072 772 4226 539 
Q 4381 306 4653 306 
Q 4919 306 5073 539 
Q 5228 772 5228 1178 
Q 5228 1588 5073 1820 
Q 4919 2053 4653 2053 
z
M 4653 2450 
Q 5147 2450 5437 2106 
Q 5728 1763 5728 1178 
Q 5728 594 5436 251 
Q 5144 -91 4653 -91 
Q 4153 -91 3862 251 
Q 3572 594 3572 1178 
Q 3572 1766 3864 2108 
Q 4156 2450 4653 2450 
z
M 1428 4353 
Q 1159 4353 1004 4120 
Q 850 3888 850 3481 
Q 850 3069 1003 2837 
Q 1156 2606 1428 2606 
Q 1700 2606 1854 2837 
Q 2009 3069 2009 3481 
Q 2009 3884 1853 4118 
Q 1697 4353 1428 4353 
z
M 4250 4750 
L 4750 4750 
L 1831 -91 
L 1331 -91 
L 4250 4750 
z
M 1428 4750 
Q 1922 4750 2215 4408 
Q 2509 4066 2509 3481 
Q 2509 2891 2217 2550 
Q 1925 2209 1428 2209 
Q 931 2209 642 2551 
Q 353 2894 353 3481 
Q 353 4063 643 4406 
Q 934 4750 1428 4750 
z
" id="DejaVuSans-25" transform="scale(0.015625)"/>
       <path d="M 513 4856 
L 1013 4856 
Q 1481 4119 1714 3412 
Q 1947 2706 1947 2009 
Q 1947 1309 1714 600 
Q 1481 -109 1013 -844 
L 513 -844 
Q 928 -128 1133 580 
Q 1338 1288 1338 2009 
Q 1338 2731 1133 3434 
Q 928 4138 513 4856 
z
" id="DejaVuSans-29" transform="scale(0.015625)"/>
      </defs>
      <use xlink:href="#DejaVuSans-50"/>
      <use x="58.552734" xlink:href="#DejaVuSans-72"/>
      <use x="97.416016" xlink:href="#DejaVuSans-6f"/>
      <use x="158.597656" xlink:href="#DejaVuSans-70"/>
      <use x="222.074219" xlink:href="#DejaVuSans-6f"/>
      <use x="283.255859" xlink:href="#DejaVuSans-72"/>
      <use x="324.369141" xlink:href="#DejaVuSans-74"/>
      <use x="363.578125" xlink:href="#DejaVuSans-69"/>
      <use x="391.361328" xlink:href="#DejaVuSans-6f"/>
      <use x="452.542969" xlink:href="#DejaVuSans-6e"/>
      <use x="515.921875" xlink:href="#DejaVuSans-20"/>
      <use x="547.708984" xlink:href="#DejaVuSans-6f"/>
      <use x="608.890625" xlink:href="#DejaVuSans-66"/>
      <use x="644.095703" xlink:href="#DejaVuSans-20"/>
      <use x="675.882812" xlink:href="#DejaVuSans-4e"/>
      <use x="750.6875" xlink:href="#DejaVuSans-65"/>
      <use x="812.210938" xlink:href="#DejaVuSans-77"/>
      <use x="893.998047" xlink:href="#DejaVuSans-20"/>
      <use x="925.785156" xlink:href="#DejaVuSans-54"/>
      <use x="969.869141" xlink:href="#DejaVuSans-65"/>
      <use x="1031.392578" xlink:href="#DejaVuSans-63"/>
      <use x="1086.373047" xlink:href="#DejaVuSans-68"/>
      <use x="1149.751953" xlink:href="#DejaVuSans-6e"/>
      <use x="1213.130859" xlink:href="#DejaVuSans-6f"/>
      <use x="1274.3125" xlink:href="#DejaVuSans-6c"/>
      <use x="1302.095703" xlink:href="#DejaVuSans-6f"/>
      <use x="1363.277344" xlink:href="#DejaVuSans-67"/>
      <use x="1426.753906" xlink:href="#DejaVuSans-79"/>
      <use x="1485.933594" xlink:href="#DejaVuSans-20"/>
      <use x="1517.720703" xlink:href="#DejaVuSans-69"/>
      <use x="1545.503906" xlink:href="#DejaVuSans-6e"/>
      <use x="1608.882812" xlink:href="#DejaVuSans-20"/>
      <use x="1640.669922" xlink:href="#DejaVuSans-47"/>
      <use x="1718.160156" xlink:href="#DejaVuSans-72"/>
      <use x="1759.273438" xlink:href="#DejaVuSans-69"/>
      <use x="1787.056641" xlink:href="#DejaVuSans-64"/>
      <use x="1850.533203" xlink:href="#DejaVuSans-20"/>
      <use x="1882.320312" xlink:href="#DejaVuSans-28"/>
      <use x="1921.333984" xlink:href="#DejaVuSans-25"/>
      <use x="2016.353516" xlink:href="#DejaVuSans-29"/>
     </g>
    </g>
   </g>
   <g id="matplotlib.axis_2">
    <g id="ytick_1">
     <g id="line2d_7">
      <defs>
       <path d="M 0 0 
L -3.5 0 
" id="mc961b1d8bc" style="stroke:#000000;stroke-width:0.8;"/>
      </defs>
      <g>
       <use style="stroke:#000000;stroke-width:0.8;" x="54" xlink:href="#mc961b1d8bc" y="512.64"/>
      </g>
     </g>
     <g id="text_8">
      <!-- 0 -->
      <g transform="translate(40.6375 516.439219)scale(0.1 -0.1)">
       <use xlink:href="#DejaVuSans-30"/>
      </g>
     </g>
    </g>
    <g id="ytick_2">
     <g id="line2d_8">
      <g>
       <use style="stroke:#000000;stroke-width:0.8;" x="54" xlink:href="#mc961b1d8bc" y="440.322522"/>
      </g>
     </g>
     <g id="text_9">
      <!-- 50 -->
      <g transform="translate(34.275 444.121741)scale(0.1 -0.1)">
       <defs>
        <path d="M 691 4666 
L 3169 4666 
L 3169 4134 
L 1269 4134 
L 1269 2991 
Q 1406 3038 1543 3061 
Q 1681 3084 1819 3084 
Q 2600 3084 3056 2656 
Q 3513 2228 3513 1497 
Q 3513 744 3044 326 
Q 2575 -91 1722 -91 
Q 1428 -91 1123 -41 
Q 819 9 494 109 
L 494 744 
Q 775 591 1075 516 
Q 1375 441 1709 441 
Q 2250 441 2565 725 
Q 2881 1009 2881 1497 
Q 2881 1984 2565 2268 
Q 2250 2553 1709 2553 
Q 1456 2553 1204 2497 
Q 953 2441 691 2322 
L 691 4666 
z
" id="DejaVuSans-35" transform="scale(0.015625)"/>
       </defs>
       <use xlink:href="#DejaVuSans-35"/>
       <use x="63.623047" xlink:href="#DejaVuSans-30"/>
      </g>
     </g>
    </g>
    <g id="ytick_3">
     <g id="line2d_9">
      <g>
       <use style="stroke:#000000;stroke-width:0.8;" x="54" xlink:href="#mc961b1d8bc" y="368.005044"/>
      </g>
     </g>
     <g id="text_10">
      <!-- 100 -->
      <g transform="translate(27.9125 371.804263)scale(0.1 -0.1)">
       <use xlink:href="#DejaVuSans-31"/>
       <use x="63.623047" xlink:href="#DejaVuSans-30"/>
       <use x="127.246094" xlink:href="#DejaVuSans-30"/>
      </g>
     </g>
    </g>
    <g id="ytick_4">
     <g id="line2d_10">
      <g>
       <use style="stroke:#000000;stroke-width:0.8;" x="54" xlink:href="#mc961b1d8bc" y="295.687567"/>
      </g>
     </g>
     <g id="text_11">
      <!-- 150 -->
      <g transform="translate(27.9125 299.486785)scale(0.1 -0.1)">
       <use xlink:href="#DejaVuSans-31"/>
       <use x="63.623047" xlink:href="#DejaVuSans-35"/>
       <use x="127.246094" xlink:href="#DejaVuSans-30"/>
      </g>
     </g>
    </g>
    <g id="ytick_5">
     <g id="line2d_11">
      <g>
       <use style="stroke:#000000;stroke-width:0.8;" x="54" xlink:href="#mc961b1d8bc" y="223.370089"/>
      </g>
     </g>
     <g id="text_12">
      <!-- 200 -->
      <g transform="translate(27.9125 227.169308)scale(0.1 -0.1)">
       <use xlink:href="#DejaVuSans-32"/>
       <use x="63.623047" xlink:href="#DejaVuSans-30"/>
       <use x="127.246094" xlink:href="#DejaVuSans-30"/>
      </g>
     </g>
    </g>
    <g id="ytick_6">
     <g id="line2d_12">
      <g>
       <use style="stroke:#000000;stroke-width:0.8;" x="54" xlink:href="#mc961b1d8bc" y="151.052611"/>
      </g>
     </g>
     <g id="text_13">
      <!-- 250 -->
      <g transform="translate(27.9125 154.85183)scale(0.1 -0.1)">
       <use xlink:href="#DejaVuSans-32"/>
       <use x="63.623047" xlink:href="#DejaVuSans-35"/>
       <use x="127.246094" xlink:href="#DejaVuSans-30"/>
      </g>
     </g>
    </g>
    <g id="ytick_7">
     <g id="line2d_13">
      <g>
       <use style="stroke:#000000;stroke-width:0.8;" x="54" xlink:href="#mc961b1d8bc" y="78.735133"/>
      </g>
     </g>
     <g id="text_14">
      <!-- 300 -->
      <g transform="translate(27.9125 82.534352)scale(0.1 -0.1)">
       <defs>
        <path d="M 2597 2516 
Q 3050 2419 3304 2112 
Q 3559 1806 3559 1356 
Q 3559 666 3084 287 
Q 2609 -91 1734 -91 
Q 1441 -91 1130 -33 
Q 819 25 488 141 
L 488 750 
Q 750 597 1062 519 
Q 1375 441 1716 441 
Q 2309 441 2620 675 
Q 2931 909 2931 1356 
Q 2931 1769 2642 2001 
Q 2353 2234 1838 2234 
L 1294 2234 
L 1294 2753 
L 1863 2753 
Q 2328 2753 2575 2939 
Q 2822 3125 2822 3475 
Q 2822 3834 2567 4026 
Q 2313 4219 1838 4219 
Q 1578 4219 1281 4162 
Q 984 4106 628 3988 
L 628 4550 
Q 988 4650 1302 4700 
Q 1616 4750 1894 4750 
Q 2613 4750 3031 4423 
Q 3450 4097 3450 3541 
Q 3450 3153 3228 2886 
Q 3006 2619 2597 2516 
z
" id="DejaVuSans-33" transform="scale(0.015625)"/>
       </defs>
       <use xlink:href="#DejaVuSans-33"/>
       <use x="63.623047" xlink:href="#DejaVuSans-30"/>
       <use x="127.246094" xlink:href="#DejaVuSans-30"/>
      </g>
     </g>
    </g>
    <g id="text_15">
     <!-- Energy Generated (TWh) -->
     <g transform="translate(21.832812 353.158906)rotate(-90)scale(0.1 -0.1)">
      <defs>
       <path d="M 628 4666 
L 3578 4666 
L 3578 4134 
L 1259 4134 
L 1259 2753 
L 3481 2753 
L 3481 2222 
L 1259 2222 
L 1259 531 
L 3634 531 
L 3634 0 
L 628 0 
L 628 4666 
z
" id="DejaVuSans-45" transform="scale(0.015625)"/>
       <path d="M 2194 1759 
Q 1497 1759 1228 1600 
Q 959 1441 959 1056 
Q 959 750 1161 570 
Q 1363 391 1709 391 
Q 2188 391 2477 730 
Q 2766 1069 2766 1631 
L 2766 1759 
L 2194 1759 
z
M 3341 1997 
L 3341 0 
L 2766 0 
L 2766 531 
Q 2569 213 2275 61 
Q 1981 -91 1556 -91 
Q 1019 -91 701 211 
Q 384 513 384 1019 
Q 384 1609 779 1909 
Q 1175 2209 1959 2209 
L 2766 2209 
L 2766 2266 
Q 2766 2663 2505 2880 
Q 2244 3097 1772 3097 
Q 1472 3097 1187 3025 
Q 903 2953 641 2809 
L 641 3341 
Q 956 3463 1253 3523 
Q 1550 3584 1831 3584 
Q 2591 3584 2966 3190 
Q 3341 2797 3341 1997 
z
" id="DejaVuSans-61" transform="scale(0.015625)"/>
       <path d="M 213 4666 
L 850 4666 
L 1831 722 
L 2809 4666 
L 3519 4666 
L 4500 722 
L 5478 4666 
L 6119 4666 
L 4947 0 
L 4153 0 
L 3169 4050 
L 2175 0 
L 1381 0 
L 213 4666 
z
" id="DejaVuSans-57" transform="scale(0.015625)"/>
      </defs>
      <use xlink:href="#DejaVuSans-45"/>
      <use x="63.183594" xlink:href="#DejaVuSans-6e"/>
      <use x="126.5625" xlink:href="#DejaVuSans-65"/>
      <use x="188.085938" xlink:href="#DejaVuSans-72"/>
      <use x="227.449219" xlink:href="#DejaVuSans-67"/>
      <use x="290.925781" xlink:href="#DejaVuSans-79"/>
      <use x="350.105469" xlink:href="#DejaVuSans-20"/>
      <use x="381.892578" xlink:href="#DejaVuSans-47"/>
      <use x="459.382812" xlink:href="#DejaVuSans-65"/>
      <use x="520.90625" xlink:href="#DejaVuSans-6e"/>
      <use x="584.285156" xlink:href="#DejaVuSans-65"/>
      <use x="645.808594" xlink:href="#DejaVuSans-72"/>
      <use x="686.921875" xlink:href="#DejaVuSans-61"/>
      <use x="748.201172" xlink:href="#DejaVuSans-74"/>
      <use x="787.410156" xlink:href="#DejaVuSans-65"/>
      <use x="848.933594" xlink:href="#DejaVuSans-64"/>
      <use x="912.410156" xlink:href="#DejaVuSans-20"/>
      <use x="944.197266" xlink:href="#DejaVuSans-28"/>
      <use x="983.210938" xlink:href="#DejaVuSans-54"/>
      <use x="1044.294922" xlink:href="#DejaVuSans-57"/>
      <use x="1143.171875" xlink:href="#DejaVuSans-68"/>
      <use x="1206.550781" xlink:href="#DejaVuSans-29"/>
     </g>
    </g>
   </g>
   <g id="patch_3">
    <path d="M 54 512.64 
L 54 69.12 
" style="fill:none;stroke:#000000;stroke-linecap:square;stroke-linejoin:miter;stroke-width:0.8;"/>
   </g>
   <g id="patch_4">
    <path d="M 388.8 512.64 
L 388.8 69.12 
" style="fill:none;stroke:#000000;stroke-linecap:square;stroke-linejoin:miter;stroke-width:0.8;"/>
   </g>
   <g id="patch_5">
    <path d="M 54 512.64 
L 388.8 512.64 
" style="fill:none;stroke:#000000;stroke-linecap:square;stroke-linejoin:miter;stroke-width:0.8;"/>
   </g>
   <g id="patch_6">
    <path d="M 54 69.12 
L 388.8 69.12 
" style="fill:none;stroke:#000000;stroke-linecap:square;stroke-linejoin:miter;stroke-width:0.8;"/>
   </g>
  </g>
 </g>
 <defs>
  <clipPath id="pc43d056d3f">
   <rect height="443.52" width="334.8" x="54" y="69.12"/>
  </clipPath>
 </defs>
</svg>
