<?xml version="1.0" encoding="utf-8" standalone="no"?>
<!DOCTYPE svg PUBLIC "-//W3C//DTD SVG 1.1//EN"
  "http://www.w3.org/Graphics/SVG/1.1/DTD/svg11.dtd">
<svg height="576pt" version="1.1" viewBox="0 0 432 576" width="432pt" xmlns="http://www.w3.org/2000/svg" xmlns:xlink="http://www.w3.org/1999/xlink">
 <metadata>
  <rdf:RDF xmlns:cc="http://creativecommons.org/ns#" xmlns:dc="http://purl.org/dc/elements/1.1/" xmlns:rdf="http://www.w3.org/1999/02/22-rdf-syntax-ns#">
   <cc:Work>
    <dc:type rdf:resource="http://purl.org/dc/dcmitype/StillImage"/>
    <dc:date>2021-06-15T10:41:10.829640</dc:date>
    <dc:format>image/svg+xml</dc:format>
    <dc:creator>
     <cc:Agent>
      <dc:title>Matplotlib v3.4.1, https://matplotlib.org/</dc:title>
     </cc:Agent>
    </dc:creator>
   </cc:Work>
  </rdf:RDF>
 </metadata>
 <defs>
  <style type="text/css">*{stroke-linecap:butt;stroke-linejoin:round;}</style>
 </defs>
 <g id="figure_1">
  <g id="patch_1">
   <path d="M 0 576 
L 432 576 
L 432 0 
L 0 0 
z
" style="fill:#ffffff;"/>
  </g>
  <g id="axes_1">
   <g id="patch_2">
    <path d="M 54 512.64 
L 388.8 512.64 
L 388.8 69.12 
L 54 69.12 
z
" style="fill:#ffffff;"/>
   </g>
   <g id="PolyCollection_1">
    <path clip-path="url(#p3e5243bd79)" d="M 69.218182 370.917367 
L 69.218182 512.64 
L 72.292562 512.64 
L 75.366942 512.64 
L 78.441322 512.64 
L 81.515702 512.64 
L 84.590083 512.64 
L 87.664463 512.64 
L 90.738843 512.64 
L 93.813223 512.64 
L 96.887603 512.64 
L 99.961983 512.64 
L 103.036364 512.64 
L 106.110744 512.64 
L 109.185124 512.64 
L 112.259504 512.64 
L 115.333884 512.64 
L 118.408264 512.64 
L 121.482645 512.64 
L 124.557025 512.64 
L 127.631405 512.64 
L 130.705785 512.64 
L 133.780165 512.64 
L 136.854545 512.64 
L 139.928926 512.64 
L 143.003306 512.64 
L 146.077686 512.64 
L 149.152066 512.64 
L 152.226446 512.64 
L 155.300826 512.64 
L 158.375207 512.64 
L 161.449587 512.64 
L 164.523967 512.64 
L 167.598347 512.64 
L 170.672727 512.64 
L 173.747107 512.64 
L 176.821488 512.64 
L 179.895868 512.64 
L 182.970248 512.64 
L 186.044628 512.64 
L 189.119008 512.64 
L 192.193388 512.64 
L 195.267769 512.64 
L 198.342149 512.64 
L 201.416529 512.64 
L 204.490909 512.64 
L 207.565289 512.64 
L 210.639669 512.64 
L 213.71405 512.64 
L 216.78843 512.64 
L 219.86281 512.64 
L 222.93719 512.64 
L 226.01157 512.64 
L 229.08595 512.64 
L 232.160331 512.64 
L 235.234711 512.64 
L 238.309091 512.64 
L 241.383471 512.64 
L 244.457851 512.64 
L 247.532231 512.64 
L 250.606612 512.64 
L 253.680992 512.64 
L 256.755372 512.64 
L 259.829752 512.64 
L 262.904132 512.64 
L 265.978512 512.64 
L 269.052893 512.64 
L 272.127273 512.64 
L 275.201653 512.64 
L 278.276033 512.64 
L 281.350413 512.64 
L 284.424793 512.64 
L 287.499174 512.64 
L 290.573554 512.64 
L 293.647934 512.64 
L 296.722314 512.64 
L 299.796694 512.64 
L 302.871074 512.64 
L 305.945455 512.64 
L 309.019835 512.64 
L 312.094215 512.64 
L 315.168595 512.64 
L 318.242975 512.64 
L 321.317355 512.64 
L 324.391736 512.64 
L 327.466116 512.64 
L 330.540496 512.64 
L 333.614876 512.64 
L 336.689256 512.64 
L 339.763636 512.64 
L 342.838017 512.64 
L 345.912397 512.64 
L 348.986777 512.64 
L 352.061157 512.64 
L 355.135537 512.64 
L 358.209917 512.64 
L 361.284298 512.64 
L 364.358678 512.64 
L 367.433058 512.64 
L 370.507438 512.64 
L 373.581818 512.64 
L 373.581818 374.013912 
L 373.581818 374.013912 
L 370.507438 374.00264 
L 367.433058 373.991145 
L 364.358678 373.979498 
L 361.284298 373.967528 
L 358.209917 373.955376 
L 355.135537 373.942969 
L 352.061157 373.930405 
L 348.986777 373.917666 
L 345.912397 373.904655 
L 342.838017 373.891472 
L 339.763636 373.878158 
L 336.689256 373.864658 
L 333.614876 373.850959 
L 330.540496 373.837002 
L 327.466116 373.822784 
L 324.391736 373.808401 
L 321.317355 373.793794 
L 318.242975 373.778858 
L 315.168595 373.763703 
L 312.094215 373.748328 
L 309.019835 373.732743 
L 305.945455 373.716968 
L 302.871074 373.700898 
L 299.796694 373.684418 
L 296.722314 373.667581 
L 293.647934 373.650417 
L 290.573554 373.6329 
L 287.499174 373.614897 
L 284.424793 373.596517 
L 281.350413 373.577645 
L 278.276033 373.558195 
L 275.201653 373.538277 
L 272.127273 373.517945 
L 269.052893 373.4971 
L 265.978512 373.475698 
L 262.904132 373.453781 
L 259.829752 373.431367 
L 256.755372 373.408376 
L 253.680992 373.384819 
L 250.606612 373.360675 
L 247.532231 373.335882 
L 244.457851 373.31053 
L 241.383471 373.284637 
L 238.309091 373.258064 
L 235.234711 373.230765 
L 232.160331 373.202781 
L 229.08595 373.174146 
L 226.01157 373.144808 
L 222.93719 373.114628 
L 219.86281 373.083599 
L 216.78843 373.051908 
L 213.71405 373.019659 
L 210.639669 372.986678 
L 207.565289 372.952908 
L 204.490909 372.916676 
L 201.416529 372.871238 
L 198.342149 372.825799 
L 195.267769 372.78036 
L 192.193388 372.734921 
L 189.119008 372.689482 
L 186.044628 372.644043 
L 182.970248 372.598604 
L 179.895868 372.553166 
L 176.821488 372.507727 
L 173.747107 372.462288 
L 170.672727 372.416849 
L 167.598347 372.37141 
L 164.523967 372.325971 
L 161.449587 372.280533 
L 158.375207 372.235094 
L 155.300826 372.189655 
L 152.226446 372.144216 
L 149.152066 372.098777 
L 146.077686 372.053338 
L 143.003306 372.0079 
L 139.928926 371.962461 
L 136.854545 371.917022 
L 133.780165 371.871583 
L 130.705785 371.826144 
L 127.631405 371.780705 
L 124.557025 371.735267 
L 121.482645 371.689828 
L 118.408264 371.644389 
L 115.333884 371.59895 
L 112.259504 371.553511 
L 109.185124 371.508072 
L 106.110744 371.462634 
L 103.036364 371.417195 
L 99.961983 371.371756 
L 96.887603 371.326317 
L 93.813223 371.280878 
L 90.738843 371.235439 
L 87.664463 371.19 
L 84.590083 371.144562 
L 81.515702 371.099123 
L 78.441322 371.053684 
L 75.366942 371.008245 
L 72.292562 370.962806 
L 69.218182 370.917367 
z
" style="fill:#3182bd;"/>
   </g>
   <g id="PolyCollection_2">
    <path clip-path="url(#p3e5243bd79)" d="M 69.218182 261.609053 
L 69.218182 370.917367 
L 72.292562 370.962806 
L 75.366942 371.008245 
L 78.441322 371.053684 
L 81.515702 371.099123 
L 84.590083 371.144562 
L 87.664463 371.19 
L 90.738843 371.235439 
L 93.813223 371.280878 
L 96.887603 371.326317 
L 99.961983 371.371756 
L 103.036364 371.417195 
L 106.110744 371.462634 
L 109.185124 371.508072 
L 112.259504 371.553511 
L 115.333884 371.59895 
L 118.408264 371.644389 
L 121.482645 371.689828 
L 124.557025 371.735267 
L 127.631405 371.780705 
L 130.705785 371.826144 
L 133.780165 371.871583 
L 136.854545 371.917022 
L 139.928926 371.962461 
L 143.003306 372.0079 
L 146.077686 372.053338 
L 149.152066 372.098777 
L 152.226446 372.144216 
L 155.300826 372.189655 
L 158.375207 372.235094 
L 161.449587 372.280533 
L 164.523967 372.325971 
L 167.598347 372.37141 
L 170.672727 372.416849 
L 173.747107 372.462288 
L 176.821488 372.507727 
L 179.895868 372.553166 
L 182.970248 372.598604 
L 186.044628 372.644043 
L 189.119008 372.689482 
L 192.193388 372.734921 
L 195.267769 372.78036 
L 198.342149 372.825799 
L 201.416529 372.871238 
L 204.490909 372.916676 
L 207.565289 372.952908 
L 210.639669 372.986678 
L 213.71405 373.019659 
L 216.78843 373.051908 
L 219.86281 373.083599 
L 222.93719 373.114628 
L 226.01157 373.144808 
L 229.08595 373.174146 
L 232.160331 373.202781 
L 235.234711 373.230765 
L 238.309091 373.258064 
L 241.383471 373.284637 
L 244.457851 373.31053 
L 247.532231 373.335882 
L 250.606612 373.360675 
L 253.680992 373.384819 
L 256.755372 373.408376 
L 259.829752 373.431367 
L 262.904132 373.453781 
L 265.978512 373.475698 
L 269.052893 373.4971 
L 272.127273 373.517945 
L 275.201653 373.538277 
L 278.276033 373.558195 
L 281.350413 373.577645 
L 284.424793 373.596517 
L 287.499174 373.614897 
L 290.573554 373.6329 
L 293.647934 373.650417 
L 296.722314 373.667581 
L 299.796694 373.684418 
L 302.871074 373.700898 
L 305.945455 373.716968 
L 309.019835 373.732743 
L 312.094215 373.748328 
L 315.168595 373.763703 
L 318.242975 373.778858 
L 321.317355 373.793794 
L 324.391736 373.808401 
L 327.466116 373.822784 
L 330.540496 373.837002 
L 333.614876 373.850959 
L 336.689256 373.864658 
L 339.763636 373.878158 
L 342.838017 373.891472 
L 345.912397 373.904655 
L 348.986777 373.917666 
L 352.061157 373.930405 
L 355.135537 373.942969 
L 358.209917 373.955376 
L 361.284298 373.967528 
L 364.358678 373.979498 
L 367.433058 373.991145 
L 370.507438 374.00264 
L 373.581818 374.013912 
L 373.581818 266.102853 
L 373.581818 266.102853 
L 370.507438 266.057521 
L 367.433058 266.012188 
L 364.358678 265.966854 
L 361.284298 265.92152 
L 358.209917 265.876186 
L 355.135537 265.830853 
L 352.061157 265.785518 
L 348.986777 265.740183 
L 345.912397 265.694847 
L 342.838017 265.649512 
L 339.763636 265.604177 
L 336.689256 265.558841 
L 333.614876 265.513506 
L 330.540496 265.46817 
L 327.466116 265.422835 
L 324.391736 265.3775 
L 321.317355 265.332164 
L 318.242975 265.286827 
L 315.168595 265.241491 
L 312.094215 265.196154 
L 309.019835 265.150817 
L 305.945455 265.10548 
L 302.871074 265.060144 
L 299.796694 265.014807 
L 296.722314 264.96947 
L 293.647934 264.924133 
L 290.573554 264.878795 
L 287.499174 264.833458 
L 284.424793 264.78812 
L 281.350413 264.742783 
L 278.276033 264.697445 
L 275.201653 264.652104 
L 272.127273 264.60676 
L 269.052893 264.561411 
L 265.978512 264.516053 
L 262.904132 264.470687 
L 259.829752 264.42532 
L 256.755372 264.379951 
L 253.680992 264.33458 
L 250.606612 264.289209 
L 247.532231 264.243838 
L 244.457851 264.198467 
L 241.383471 264.153096 
L 238.309091 264.107725 
L 235.234711 264.062354 
L 232.160331 264.016981 
L 229.08595 263.971593 
L 226.01157 263.926194 
L 222.93719 263.880792 
L 219.86281 263.83539 
L 216.78843 263.789987 
L 213.71405 263.744582 
L 210.639669 263.699177 
L 207.565289 263.653772 
L 204.490909 263.608362 
L 201.416529 263.562923 
L 198.342149 263.517484 
L 195.267769 263.472045 
L 192.193388 263.426606 
L 189.119008 263.381167 
L 186.044628 263.335729 
L 182.970248 263.29029 
L 179.895868 263.244851 
L 176.821488 263.199412 
L 173.747107 263.153973 
L 170.672727 263.108534 
L 167.598347 263.063095 
L 164.523967 263.017657 
L 161.449587 262.972218 
L 158.375207 262.926779 
L 155.300826 262.88134 
L 152.226446 262.835901 
L 149.152066 262.790462 
L 146.077686 262.745024 
L 143.003306 262.699585 
L 139.928926 262.654146 
L 136.854545 262.608707 
L 133.780165 262.563268 
L 130.705785 262.517829 
L 127.631405 262.472391 
L 124.557025 262.426952 
L 121.482645 262.381513 
L 118.408264 262.336074 
L 115.333884 262.290635 
L 112.259504 262.245196 
L 109.185124 262.199758 
L 106.110744 262.154319 
L 103.036364 262.10888 
L 99.961983 262.063441 
L 96.887603 262.018002 
L 93.813223 261.972563 
L 90.738843 261.927125 
L 87.664463 261.881686 
L 84.590083 261.836247 
L 81.515702 261.790808 
L 78.441322 261.745369 
L 75.366942 261.69993 
L 72.292562 261.654491 
L 69.218182 261.609053 
z
" style="fill:#6baed6;"/>
   </g>
   <g id="PolyCollection_3">
    <path clip-path="url(#p3e5243bd79)" d="M 69.218182 257.649456 
L 69.218182 261.609053 
L 72.292562 261.654491 
L 75.366942 261.69993 
L 78.441322 261.745369 
L 81.515702 261.790808 
L 84.590083 261.836247 
L 87.664463 261.881686 
L 90.738843 261.927125 
L 93.813223 261.972563 
L 96.887603 262.018002 
L 99.961983 262.063441 
L 103.036364 262.10888 
L 106.110744 262.154319 
L 109.185124 262.199758 
L 112.259504 262.245196 
L 115.333884 262.290635 
L 118.408264 262.336074 
L 121.482645 262.381513 
L 124.557025 262.426952 
L 127.631405 262.472391 
L 130.705785 262.517829 
L 133.780165 262.563268 
L 136.854545 262.608707 
L 139.928926 262.654146 
L 143.003306 262.699585 
L 146.077686 262.745024 
L 149.152066 262.790462 
L 152.226446 262.835901 
L 155.300826 262.88134 
L 158.375207 262.926779 
L 161.449587 262.972218 
L 164.523967 263.017657 
L 167.598347 263.063095 
L 170.672727 263.108534 
L 173.747107 263.153973 
L 176.821488 263.199412 
L 179.895868 263.244851 
L 182.970248 263.29029 
L 186.044628 263.335729 
L 189.119008 263.381167 
L 192.193388 263.426606 
L 195.267769 263.472045 
L 198.342149 263.517484 
L 201.416529 263.562923 
L 204.490909 263.608362 
L 207.565289 263.653772 
L 210.639669 263.699177 
L 213.71405 263.744582 
L 216.78843 263.789987 
L 219.86281 263.83539 
L 222.93719 263.880792 
L 226.01157 263.926194 
L 229.08595 263.971593 
L 232.160331 264.016981 
L 235.234711 264.062354 
L 238.309091 264.107725 
L 241.383471 264.153096 
L 244.457851 264.198467 
L 247.532231 264.243838 
L 250.606612 264.289209 
L 253.680992 264.33458 
L 256.755372 264.379951 
L 259.829752 264.42532 
L 262.904132 264.470687 
L 265.978512 264.516053 
L 269.052893 264.561411 
L 272.127273 264.60676 
L 275.201653 264.652104 
L 278.276033 264.697445 
L 281.350413 264.742783 
L 284.424793 264.78812 
L 287.499174 264.833458 
L 290.573554 264.878795 
L 293.647934 264.924133 
L 296.722314 264.96947 
L 299.796694 265.014807 
L 302.871074 265.060144 
L 305.945455 265.10548 
L 309.019835 265.150817 
L 312.094215 265.196154 
L 315.168595 265.241491 
L 318.242975 265.286827 
L 321.317355 265.332164 
L 324.391736 265.3775 
L 327.466116 265.422835 
L 330.540496 265.46817 
L 333.614876 265.513506 
L 336.689256 265.558841 
L 339.763636 265.604177 
L 342.838017 265.649512 
L 345.912397 265.694847 
L 348.986777 265.740183 
L 352.061157 265.785518 
L 355.135537 265.830853 
L 358.209917 265.876186 
L 361.284298 265.92152 
L 364.358678 265.966854 
L 367.433058 266.012188 
L 370.507438 266.057521 
L 373.581818 266.102853 
L 373.581818 262.143256 
L 373.581818 262.143256 
L 370.507438 262.097924 
L 367.433058 262.052591 
L 364.358678 262.007257 
L 361.284298 261.961923 
L 358.209917 261.916589 
L 355.135537 261.871256 
L 352.061157 261.825921 
L 348.986777 261.780586 
L 345.912397 261.73525 
L 342.838017 261.689915 
L 339.763636 261.644579 
L 336.689256 261.599244 
L 333.614876 261.553909 
L 330.540496 261.508573 
L 327.466116 261.463238 
L 324.391736 261.417903 
L 321.317355 261.372567 
L 318.242975 261.32723 
L 315.168595 261.281894 
L 312.094215 261.236557 
L 309.019835 261.19122 
L 305.945455 261.145883 
L 302.871074 261.100547 
L 299.796694 261.05521 
L 296.722314 261.009873 
L 293.647934 260.964536 
L 290.573554 260.919198 
L 287.499174 260.873861 
L 284.424793 260.828523 
L 281.350413 260.783185 
L 278.276033 260.737848 
L 275.201653 260.692507 
L 272.127273 260.647163 
L 269.052893 260.601814 
L 265.978512 260.556456 
L 262.904132 260.51109 
L 259.829752 260.465723 
L 256.755372 260.420354 
L 253.680992 260.374983 
L 250.606612 260.329612 
L 247.532231 260.284241 
L 244.457851 260.23887 
L 241.383471 260.193499 
L 238.309091 260.148128 
L 235.234711 260.102757 
L 232.160331 260.057384 
L 229.08595 260.011996 
L 226.01157 259.966597 
L 222.93719 259.921195 
L 219.86281 259.875793 
L 216.78843 259.83039 
L 213.71405 259.784985 
L 210.639669 259.73958 
L 207.565289 259.694175 
L 204.490909 259.648765 
L 201.416529 259.603326 
L 198.342149 259.557887 
L 195.267769 259.512448 
L 192.193388 259.467009 
L 189.119008 259.42157 
L 186.044628 259.376131 
L 182.970248 259.330693 
L 179.895868 259.285254 
L 176.821488 259.239815 
L 173.747107 259.194376 
L 170.672727 259.148937 
L 167.598347 259.103498 
L 164.523967 259.05806 
L 161.449587 259.012621 
L 158.375207 258.967182 
L 155.300826 258.921743 
L 152.226446 258.876304 
L 149.152066 258.830865 
L 146.077686 258.785427 
L 143.003306 258.739988 
L 139.928926 258.694549 
L 136.854545 258.64911 
L 133.780165 258.603671 
L 130.705785 258.558232 
L 127.631405 258.512794 
L 124.557025 258.467355 
L 121.482645 258.421916 
L 118.408264 258.376477 
L 115.333884 258.331038 
L 112.259504 258.285599 
L 109.185124 258.24016 
L 106.110744 258.194722 
L 103.036364 258.149283 
L 99.961983 258.103844 
L 96.887603 258.058405 
L 93.813223 258.012966 
L 90.738843 257.967527 
L 87.664463 257.922089 
L 84.590083 257.87665 
L 81.515702 257.831211 
L 78.441322 257.785772 
L 75.366942 257.740333 
L 72.292562 257.694894 
L 69.218182 257.649456 
z
" style="fill:#9ecae1;"/>
   </g>
   <g id="PolyCollection_4">
    <path clip-path="url(#p3e5243bd79)" d="M 69.218182 251.878892 
L 69.218182 257.649456 
L 72.292562 257.694894 
L 75.366942 257.740333 
L 78.441322 257.785772 
L 81.515702 257.831211 
L 84.590083 257.87665 
L 87.664463 257.922089 
L 90.738843 257.967527 
L 93.813223 258.012966 
L 96.887603 258.058405 
L 99.961983 258.103844 
L 103.036364 258.149283 
L 106.110744 258.194722 
L 109.185124 258.24016 
L 112.259504 258.285599 
L 115.333884 258.331038 
L 118.408264 258.376477 
L 121.482645 258.421916 
L 124.557025 258.467355 
L 127.631405 258.512794 
L 130.705785 258.558232 
L 133.780165 258.603671 
L 136.854545 258.64911 
L 139.928926 258.694549 
L 143.003306 258.739988 
L 146.077686 258.785427 
L 149.152066 258.830865 
L 152.226446 258.876304 
L 155.300826 258.921743 
L 158.375207 258.967182 
L 161.449587 259.012621 
L 164.523967 259.05806 
L 167.598347 259.103498 
L 170.672727 259.148937 
L 173.747107 259.194376 
L 176.821488 259.239815 
L 179.895868 259.285254 
L 182.970248 259.330693 
L 186.044628 259.376131 
L 189.119008 259.42157 
L 192.193388 259.467009 
L 195.267769 259.512448 
L 198.342149 259.557887 
L 201.416529 259.603326 
L 204.490909 259.648765 
L 207.565289 259.694175 
L 210.639669 259.73958 
L 213.71405 259.784985 
L 216.78843 259.83039 
L 219.86281 259.875793 
L 222.93719 259.921195 
L 226.01157 259.966597 
L 229.08595 260.011996 
L 232.160331 260.057384 
L 235.234711 260.102757 
L 238.309091 260.148128 
L 241.383471 260.193499 
L 244.457851 260.23887 
L 247.532231 260.284241 
L 250.606612 260.329612 
L 253.680992 260.374983 
L 256.755372 260.420354 
L 259.829752 260.465723 
L 262.904132 260.51109 
L 265.978512 260.556456 
L 269.052893 260.601814 
L 272.127273 260.647163 
L 275.201653 260.692507 
L 278.276033 260.737848 
L 281.350413 260.783185 
L 284.424793 260.828523 
L 287.499174 260.873861 
L 290.573554 260.919198 
L 293.647934 260.964536 
L 296.722314 261.009873 
L 299.796694 261.05521 
L 302.871074 261.100547 
L 305.945455 261.145883 
L 309.019835 261.19122 
L 312.094215 261.236557 
L 315.168595 261.281894 
L 318.242975 261.32723 
L 321.317355 261.372567 
L 324.391736 261.417903 
L 327.466116 261.463238 
L 330.540496 261.508573 
L 333.614876 261.553909 
L 336.689256 261.599244 
L 339.763636 261.644579 
L 342.838017 261.689915 
L 345.912397 261.73525 
L 348.986777 261.780586 
L 352.061157 261.825921 
L 355.135537 261.871256 
L 358.209917 261.916589 
L 361.284298 261.961923 
L 364.358678 262.007257 
L 367.433058 262.052591 
L 370.507438 262.097924 
L 373.581818 262.143256 
L 373.581818 256.372692 
L 373.581818 256.372692 
L 370.507438 256.32736 
L 367.433058 256.282027 
L 364.358678 256.236693 
L 361.284298 256.191359 
L 358.209917 256.146025 
L 355.135537 256.100692 
L 352.061157 256.055357 
L 348.986777 256.010022 
L 345.912397 255.964686 
L 342.838017 255.919351 
L 339.763636 255.874016 
L 336.689256 255.82868 
L 333.614876 255.783345 
L 330.540496 255.738009 
L 327.466116 255.692674 
L 324.391736 255.647339 
L 321.317355 255.602003 
L 318.242975 255.556666 
L 315.168595 255.51133 
L 312.094215 255.465993 
L 309.019835 255.420656 
L 305.945455 255.375319 
L 302.871074 255.329983 
L 299.796694 255.284646 
L 296.722314 255.239309 
L 293.647934 255.193972 
L 290.573554 255.148635 
L 287.499174 255.103297 
L 284.424793 255.057959 
L 281.350413 255.012622 
L 278.276033 254.967284 
L 275.201653 254.921943 
L 272.127273 254.876599 
L 269.052893 254.83125 
L 265.978512 254.785892 
L 262.904132 254.740526 
L 259.829752 254.695159 
L 256.755372 254.64979 
L 253.680992 254.604419 
L 250.606612 254.559048 
L 247.532231 254.513677 
L 244.457851 254.468306 
L 241.383471 254.422935 
L 238.309091 254.377564 
L 235.234711 254.332193 
L 232.160331 254.28682 
L 229.08595 254.241432 
L 226.01157 254.196033 
L 222.93719 254.150631 
L 219.86281 254.105229 
L 216.78843 254.059826 
L 213.71405 254.014421 
L 210.639669 253.969016 
L 207.565289 253.923611 
L 204.490909 253.878201 
L 201.416529 253.832762 
L 198.342149 253.787323 
L 195.267769 253.741884 
L 192.193388 253.696445 
L 189.119008 253.651006 
L 186.044628 253.605568 
L 182.970248 253.560129 
L 179.895868 253.51469 
L 176.821488 253.469251 
L 173.747107 253.423812 
L 170.672727 253.378373 
L 167.598347 253.332935 
L 164.523967 253.287496 
L 161.449587 253.242057 
L 158.375207 253.196618 
L 155.300826 253.151179 
L 152.226446 253.10574 
L 149.152066 253.060302 
L 146.077686 253.014863 
L 143.003306 252.969424 
L 139.928926 252.923985 
L 136.854545 252.878546 
L 133.780165 252.833107 
L 130.705785 252.787669 
L 127.631405 252.74223 
L 124.557025 252.696791 
L 121.482645 252.651352 
L 118.408264 252.605913 
L 115.333884 252.560474 
L 112.259504 252.515035 
L 109.185124 252.469597 
L 106.110744 252.424158 
L 103.036364 252.378719 
L 99.961983 252.33328 
L 96.887603 252.287841 
L 93.813223 252.242402 
L 90.738843 252.196964 
L 87.664463 252.151525 
L 84.590083 252.106086 
L 81.515702 252.060647 
L 78.441322 252.015208 
L 75.366942 251.969769 
L 72.292562 251.924331 
L 69.218182 251.878892 
z
" style="fill:#c6dbef;"/>
   </g>
   <g id="PolyCollection_5">
    <path clip-path="url(#p3e5243bd79)" d="M 69.218182 230.533117 
L 69.218182 251.878892 
L 72.292562 251.924331 
L 75.366942 251.969769 
L 78.441322 252.015208 
L 81.515702 252.060647 
L 84.590083 252.106086 
L 87.664463 252.151525 
L 90.738843 252.196964 
L 93.813223 252.242402 
L 96.887603 252.287841 
L 99.961983 252.33328 
L 103.036364 252.378719 
L 106.110744 252.424158 
L 109.185124 252.469597 
L 112.259504 252.515035 
L 115.333884 252.560474 
L 118.408264 252.605913 
L 121.482645 252.651352 
L 124.557025 252.696791 
L 127.631405 252.74223 
L 130.705785 252.787669 
L 133.780165 252.833107 
L 136.854545 252.878546 
L 139.928926 252.923985 
L 143.003306 252.969424 
L 146.077686 253.014863 
L 149.152066 253.060302 
L 152.226446 253.10574 
L 155.300826 253.151179 
L 158.375207 253.196618 
L 161.449587 253.242057 
L 164.523967 253.287496 
L 167.598347 253.332935 
L 170.672727 253.378373 
L 173.747107 253.423812 
L 176.821488 253.469251 
L 179.895868 253.51469 
L 182.970248 253.560129 
L 186.044628 253.605568 
L 189.119008 253.651006 
L 192.193388 253.696445 
L 195.267769 253.741884 
L 198.342149 253.787323 
L 201.416529 253.832762 
L 204.490909 253.878201 
L 207.565289 253.923611 
L 210.639669 253.969016 
L 213.71405 254.014421 
L 216.78843 254.059826 
L 219.86281 254.105229 
L 222.93719 254.150631 
L 226.01157 254.196033 
L 229.08595 254.241432 
L 232.160331 254.28682 
L 235.234711 254.332193 
L 238.309091 254.377564 
L 241.383471 254.422935 
L 244.457851 254.468306 
L 247.532231 254.513677 
L 250.606612 254.559048 
L 253.680992 254.604419 
L 256.755372 254.64979 
L 259.829752 254.695159 
L 262.904132 254.740526 
L 265.978512 254.785892 
L 269.052893 254.83125 
L 272.127273 254.876599 
L 275.201653 254.921943 
L 278.276033 254.967284 
L 281.350413 255.012622 
L 284.424793 255.057959 
L 287.499174 255.103297 
L 290.573554 255.148635 
L 293.647934 255.193972 
L 296.722314 255.239309 
L 299.796694 255.284646 
L 302.871074 255.329983 
L 305.945455 255.375319 
L 309.019835 255.420656 
L 312.094215 255.465993 
L 315.168595 255.51133 
L 318.242975 255.556666 
L 321.317355 255.602003 
L 324.391736 255.647339 
L 327.466116 255.692674 
L 330.540496 255.738009 
L 333.614876 255.783345 
L 336.689256 255.82868 
L 339.763636 255.874016 
L 342.838017 255.919351 
L 345.912397 255.964686 
L 348.986777 256.010022 
L 352.061157 256.055357 
L 355.135537 256.100692 
L 358.209917 256.146025 
L 361.284298 256.191359 
L 364.358678 256.236693 
L 367.433058 256.282027 
L 370.507438 256.32736 
L 373.581818 256.372692 
L 373.581818 235.026918 
L 373.581818 235.026918 
L 370.507438 234.981586 
L 367.433058 234.936252 
L 364.358678 234.890918 
L 361.284298 234.845585 
L 358.209917 234.800251 
L 355.135537 234.754917 
L 352.061157 234.709583 
L 348.986777 234.664247 
L 345.912397 234.618912 
L 342.838017 234.573576 
L 339.763636 234.528241 
L 336.689256 234.482906 
L 333.614876 234.43757 
L 330.540496 234.392235 
L 327.466116 234.3469 
L 324.391736 234.301564 
L 321.317355 234.256229 
L 318.242975 234.210892 
L 315.168595 234.165555 
L 312.094215 234.120218 
L 309.019835 234.074882 
L 305.945455 234.029545 
L 302.871074 233.984208 
L 299.796694 233.938871 
L 296.722314 233.893535 
L 293.647934 233.848198 
L 290.573554 233.80286 
L 287.499174 233.757522 
L 284.424793 233.712185 
L 281.350413 233.666847 
L 278.276033 233.621509 
L 275.201653 233.576169 
L 272.127273 233.530824 
L 269.052893 233.485475 
L 265.978512 233.440117 
L 262.904132 233.394751 
L 259.829752 233.349384 
L 256.755372 233.304015 
L 253.680992 233.258644 
L 250.606612 233.213273 
L 247.532231 233.167902 
L 244.457851 233.122531 
L 241.383471 233.077161 
L 238.309091 233.03179 
L 235.234711 232.986419 
L 232.160331 232.941045 
L 229.08595 232.895657 
L 226.01157 232.850258 
L 222.93719 232.804857 
L 219.86281 232.759454 
L 216.78843 232.714051 
L 213.71405 232.668647 
L 210.639669 232.623241 
L 207.565289 232.577836 
L 204.490909 232.532426 
L 201.416529 232.486987 
L 198.342149 232.441548 
L 195.267769 232.39611 
L 192.193388 232.350671 
L 189.119008 232.305232 
L 186.044628 232.259793 
L 182.970248 232.214354 
L 179.895868 232.168915 
L 176.821488 232.123477 
L 173.747107 232.078038 
L 170.672727 232.032599 
L 167.598347 231.98716 
L 164.523967 231.941721 
L 161.449587 231.896282 
L 158.375207 231.850843 
L 155.300826 231.805405 
L 152.226446 231.759966 
L 149.152066 231.714527 
L 146.077686 231.669088 
L 143.003306 231.623649 
L 139.928926 231.57821 
L 136.854545 231.532772 
L 133.780165 231.487333 
L 130.705785 231.441894 
L 127.631405 231.396455 
L 124.557025 231.351016 
L 121.482645 231.305577 
L 118.408264 231.260139 
L 115.333884 231.2147 
L 112.259504 231.169261 
L 109.185124 231.123822 
L 106.110744 231.078383 
L 103.036364 231.032944 
L 99.961983 230.987506 
L 96.887603 230.942067 
L 93.813223 230.896628 
L 90.738843 230.851189 
L 87.664463 230.80575 
L 84.590083 230.760311 
L 81.515702 230.714873 
L 78.441322 230.669434 
L 75.366942 230.623995 
L 72.292562 230.578556 
L 69.218182 230.533117 
z
" style="fill:#e6550d;"/>
   </g>
   <g id="PolyCollection_6">
    <path clip-path="url(#p3e5243bd79)" d="M 69.218182 204.705355 
L 69.218182 230.533117 
L 72.292562 230.578556 
L 75.366942 230.623995 
L 78.441322 230.669434 
L 81.515702 230.714873 
L 84.590083 230.760311 
L 87.664463 230.80575 
L 90.738843 230.851189 
L 93.813223 230.896628 
L 96.887603 230.942067 
L 99.961983 230.987506 
L 103.036364 231.032944 
L 106.110744 231.078383 
L 109.185124 231.123822 
L 112.259504 231.169261 
L 115.333884 231.2147 
L 118.408264 231.260139 
L 121.482645 231.305577 
L 124.557025 231.351016 
L 127.631405 231.396455 
L 130.705785 231.441894 
L 133.780165 231.487333 
L 136.854545 231.532772 
L 139.928926 231.57821 
L 143.003306 231.623649 
L 146.077686 231.669088 
L 149.152066 231.714527 
L 152.226446 231.759966 
L 155.300826 231.805405 
L 158.375207 231.850843 
L 161.449587 231.896282 
L 164.523967 231.941721 
L 167.598347 231.98716 
L 170.672727 232.032599 
L 173.747107 232.078038 
L 176.821488 232.123477 
L 179.895868 232.168915 
L 182.970248 232.214354 
L 186.044628 232.259793 
L 189.119008 232.305232 
L 192.193388 232.350671 
L 195.267769 232.39611 
L 198.342149 232.441548 
L 201.416529 232.486987 
L 204.490909 232.532426 
L 207.565289 232.577836 
L 210.639669 232.623241 
L 213.71405 232.668647 
L 216.78843 232.714051 
L 219.86281 232.759454 
L 222.93719 232.804857 
L 226.01157 232.850258 
L 229.08595 232.895657 
L 232.160331 232.941045 
L 235.234711 232.986419 
L 238.309091 233.03179 
L 241.383471 233.077161 
L 244.457851 233.122531 
L 247.532231 233.167902 
L 250.606612 233.213273 
L 253.680992 233.258644 
L 256.755372 233.304015 
L 259.829752 233.349384 
L 262.904132 233.394751 
L 265.978512 233.440117 
L 269.052893 233.485475 
L 272.127273 233.530824 
L 275.201653 233.576169 
L 278.276033 233.621509 
L 281.350413 233.666847 
L 284.424793 233.712185 
L 287.499174 233.757522 
L 290.573554 233.80286 
L 293.647934 233.848198 
L 296.722314 233.893535 
L 299.796694 233.938871 
L 302.871074 233.984208 
L 305.945455 234.029545 
L 309.019835 234.074882 
L 312.094215 234.120218 
L 315.168595 234.165555 
L 318.242975 234.210892 
L 321.317355 234.256229 
L 324.391736 234.301564 
L 327.466116 234.3469 
L 330.540496 234.392235 
L 333.614876 234.43757 
L 336.689256 234.482906 
L 339.763636 234.528241 
L 342.838017 234.573576 
L 345.912397 234.618912 
L 348.986777 234.664247 
L 352.061157 234.709583 
L 355.135537 234.754917 
L 358.209917 234.800251 
L 361.284298 234.845585 
L 364.358678 234.890918 
L 367.433058 234.936252 
L 370.507438 234.981586 
L 373.581818 235.026918 
L 373.581818 209.199171 
L 373.581818 209.199171 
L 370.507438 209.153839 
L 367.433058 209.108505 
L 364.358678 209.063171 
L 361.284298 209.017837 
L 358.209917 208.972502 
L 355.135537 208.927168 
L 352.061157 208.881833 
L 348.986777 208.836497 
L 345.912397 208.791162 
L 342.838017 208.745826 
L 339.763636 208.70049 
L 336.689256 208.655154 
L 333.614876 208.609819 
L 330.540496 208.564483 
L 327.466116 208.519147 
L 324.391736 208.473811 
L 321.317355 208.428475 
L 318.242975 208.383138 
L 315.168595 208.337801 
L 312.094215 208.292464 
L 309.019835 208.247127 
L 305.945455 208.20179 
L 302.871074 208.156453 
L 299.796694 208.111116 
L 296.722314 208.065778 
L 293.647934 208.020441 
L 290.573554 207.975103 
L 287.499174 207.929765 
L 284.424793 207.884427 
L 281.350413 207.839089 
L 278.276033 207.793751 
L 275.201653 207.74841 
L 272.127273 207.703065 
L 269.052893 207.657716 
L 265.978512 207.612357 
L 262.904132 207.566991 
L 259.829752 207.521623 
L 256.755372 207.476254 
L 253.680992 207.430883 
L 250.606612 207.385512 
L 247.532231 207.340141 
L 244.457851 207.29477 
L 241.383471 207.249399 
L 238.309091 207.204028 
L 235.234711 207.158657 
L 232.160331 207.113284 
L 229.08595 207.067896 
L 226.01157 207.022497 
L 222.93719 206.977095 
L 219.86281 206.931693 
L 216.78843 206.886289 
L 213.71405 206.840885 
L 210.639669 206.79548 
L 207.565289 206.750074 
L 204.490909 206.704664 
L 201.416529 206.659226 
L 198.342149 206.613787 
L 195.267769 206.568348 
L 192.193388 206.522909 
L 189.119008 206.47747 
L 186.044628 206.432031 
L 182.970248 206.386593 
L 179.895868 206.341154 
L 176.821488 206.295715 
L 173.747107 206.250276 
L 170.672727 206.204837 
L 167.598347 206.159398 
L 164.523967 206.113959 
L 161.449587 206.068521 
L 158.375207 206.023082 
L 155.300826 205.977643 
L 152.226446 205.932204 
L 149.152066 205.886765 
L 146.077686 205.841326 
L 143.003306 205.795888 
L 139.928926 205.750449 
L 136.854545 205.70501 
L 133.780165 205.659571 
L 130.705785 205.614132 
L 127.631405 205.568693 
L 124.557025 205.523255 
L 121.482645 205.477816 
L 118.408264 205.432377 
L 115.333884 205.386938 
L 112.259504 205.341499 
L 109.185124 205.29606 
L 106.110744 205.250622 
L 103.036364 205.205183 
L 99.961983 205.159744 
L 96.887603 205.114305 
L 93.813223 205.068866 
L 90.738843 205.023427 
L 87.664463 204.977988 
L 84.590083 204.93255 
L 81.515702 204.887111 
L 78.441322 204.841672 
L 75.366942 204.796233 
L 72.292562 204.750794 
L 69.218182 204.705355 
z
" style="fill:#fd8d3c;"/>
   </g>
   <g id="PolyCollection_7">
    <path clip-path="url(#p3e5243bd79)" d="M 69.218182 193.694545 
L 69.218182 204.705355 
L 72.292562 204.750794 
L 75.366942 204.796233 
L 78.441322 204.841672 
L 81.515702 204.887111 
L 84.590083 204.93255 
L 87.664463 204.977988 
L 90.738843 205.023427 
L 93.813223 205.068866 
L 96.887603 205.114305 
L 99.961983 205.159744 
L 103.036364 205.205183 
L 106.110744 205.250622 
L 109.185124 205.29606 
L 112.259504 205.341499 
L 115.333884 205.386938 
L 118.408264 205.432377 
L 121.482645 205.477816 
L 124.557025 205.523255 
L 127.631405 205.568693 
L 130.705785 205.614132 
L 133.780165 205.659571 
L 136.854545 205.70501 
L 139.928926 205.750449 
L 143.003306 205.795888 
L 146.077686 205.841326 
L 149.152066 205.886765 
L 152.226446 205.932204 
L 155.300826 205.977643 
L 158.375207 206.023082 
L 161.449587 206.068521 
L 164.523967 206.113959 
L 167.598347 206.159398 
L 170.672727 206.204837 
L 173.747107 206.250276 
L 176.821488 206.295715 
L 179.895868 206.341154 
L 182.970248 206.386593 
L 186.044628 206.432031 
L 189.119008 206.47747 
L 192.193388 206.522909 
L 195.267769 206.568348 
L 198.342149 206.613787 
L 201.416529 206.659226 
L 204.490909 206.704664 
L 207.565289 206.750074 
L 210.639669 206.79548 
L 213.71405 206.840885 
L 216.78843 206.886289 
L 219.86281 206.931693 
L 222.93719 206.977095 
L 226.01157 207.022497 
L 229.08595 207.067896 
L 232.160331 207.113284 
L 235.234711 207.158657 
L 238.309091 207.204028 
L 241.383471 207.249399 
L 244.457851 207.29477 
L 247.532231 207.340141 
L 250.606612 207.385512 
L 253.680992 207.430883 
L 256.755372 207.476254 
L 259.829752 207.521623 
L 262.904132 207.566991 
L 265.978512 207.612357 
L 269.052893 207.657716 
L 272.127273 207.703065 
L 275.201653 207.74841 
L 278.276033 207.793751 
L 281.350413 207.839089 
L 284.424793 207.884427 
L 287.499174 207.929765 
L 290.573554 207.975103 
L 293.647934 208.020441 
L 296.722314 208.065778 
L 299.796694 208.111116 
L 302.871074 208.156453 
L 305.945455 208.20179 
L 309.019835 208.247127 
L 312.094215 208.292464 
L 315.168595 208.337801 
L 318.242975 208.383138 
L 321.317355 208.428475 
L 324.391736 208.473811 
L 327.466116 208.519147 
L 330.540496 208.564483 
L 333.614876 208.609819 
L 336.689256 208.655154 
L 339.763636 208.70049 
L 342.838017 208.745826 
L 345.912397 208.791162 
L 348.986777 208.836497 
L 352.061157 208.881833 
L 355.135537 208.927168 
L 358.209917 208.972502 
L 361.284298 209.017837 
L 364.358678 209.063171 
L 367.433058 209.108505 
L 370.507438 209.153839 
L 373.581818 209.199171 
L 373.581818 209.199171 
L 373.581818 209.199171 
L 370.507438 209.042619 
L 367.433058 208.886064 
L 364.358678 208.72951 
L 361.284298 208.572955 
L 358.209917 208.416401 
L 355.135537 208.259846 
L 352.061157 208.103291 
L 348.986777 207.946735 
L 345.912397 207.790179 
L 342.838017 207.633623 
L 339.763636 207.477067 
L 336.689256 207.320511 
L 333.614876 207.163955 
L 330.540496 207.007399 
L 327.466116 206.850843 
L 324.391736 206.694286 
L 321.317355 206.53773 
L 318.242975 206.381173 
L 315.168595 206.224615 
L 312.094215 206.068058 
L 309.019835 205.9115 
L 305.945455 205.754943 
L 302.871074 205.598386 
L 299.796694 205.441828 
L 296.722314 205.285271 
L 293.647934 205.128713 
L 290.573554 204.972155 
L 287.499174 204.815596 
L 284.424793 204.659038 
L 281.350413 204.50248 
L 278.276033 204.345921 
L 275.201653 204.18936 
L 272.127273 204.032795 
L 269.052893 203.876225 
L 265.978512 203.719646 
L 262.904132 203.563059 
L 259.829752 203.406472 
L 256.755372 203.249882 
L 253.680992 203.093291 
L 250.606612 202.9367 
L 247.532231 202.780109 
L 244.457851 202.623517 
L 241.383471 202.466926 
L 238.309091 202.310335 
L 235.234711 202.153743 
L 232.160331 201.99715 
L 229.08595 201.840541 
L 226.01157 201.683922 
L 222.93719 201.5273 
L 219.86281 201.370677 
L 216.78843 201.214054 
L 213.71405 201.057429 
L 210.639669 200.900803 
L 207.565289 200.744178 
L 204.490909 200.587547 
L 201.416529 200.430888 
L 198.342149 200.274229 
L 195.267769 200.11757 
L 192.193388 199.960911 
L 189.119008 199.804252 
L 186.044628 199.647592 
L 182.970248 199.490933 
L 179.895868 199.334274 
L 176.821488 199.177615 
L 173.747107 199.020956 
L 170.672727 198.864297 
L 167.598347 198.707637 
L 164.523967 198.550978 
L 161.449587 198.394319 
L 158.375207 198.23766 
L 155.300826 198.081001 
L 152.226446 197.924342 
L 149.152066 197.767683 
L 146.077686 197.611023 
L 143.003306 197.454364 
L 139.928926 197.297705 
L 136.854545 197.141046 
L 133.780165 196.984387 
L 130.705785 196.827728 
L 127.631405 196.671069 
L 124.557025 196.514409 
L 121.482645 196.35775 
L 118.408264 196.201091 
L 115.333884 196.044432 
L 112.259504 195.887773 
L 109.185124 195.731114 
L 106.110744 195.574455 
L 103.036364 195.417795 
L 99.961983 195.261136 
L 96.887603 195.104477 
L 93.813223 194.947818 
L 90.738843 194.791159 
L 87.664463 194.6345 
L 84.590083 194.47784 
L 81.515702 194.321181 
L 78.441322 194.164522 
L 75.366942 194.007863 
L 72.292562 193.851204 
L 69.218182 193.694545 
z
" style="fill:#fdae6b;"/>
   </g>
   <g id="PolyCollection_8">
    <path clip-path="url(#p3e5243bd79)" d="M 69.218182 100.663737 
L 69.218182 193.694545 
L 72.292562 193.851204 
L 75.366942 194.007863 
L 78.441322 194.164522 
L 81.515702 194.321181 
L 84.590083 194.47784 
L 87.664463 194.6345 
L 90.738843 194.791159 
L 93.813223 194.947818 
L 96.887603 195.104477 
L 99.961983 195.261136 
L 103.036364 195.417795 
L 106.110744 195.574455 
L 109.185124 195.731114 
L 112.259504 195.887773 
L 115.333884 196.044432 
L 118.408264 196.201091 
L 121.482645 196.35775 
L 124.557025 196.514409 
L 127.631405 196.671069 
L 130.705785 196.827728 
L 133.780165 196.984387 
L 136.854545 197.141046 
L 139.928926 197.297705 
L 143.003306 197.454364 
L 146.077686 197.611023 
L 149.152066 197.767683 
L 152.226446 197.924342 
L 155.300826 198.081001 
L 158.375207 198.23766 
L 161.449587 198.394319 
L 164.523967 198.550978 
L 167.598347 198.707637 
L 170.672727 198.864297 
L 173.747107 199.020956 
L 176.821488 199.177615 
L 179.895868 199.334274 
L 182.970248 199.490933 
L 186.044628 199.647592 
L 189.119008 199.804252 
L 192.193388 199.960911 
L 195.267769 200.11757 
L 198.342149 200.274229 
L 201.416529 200.430888 
L 204.490909 200.587547 
L 207.565289 200.744178 
L 210.639669 200.900803 
L 213.71405 201.057429 
L 216.78843 201.214054 
L 219.86281 201.370677 
L 222.93719 201.5273 
L 226.01157 201.683922 
L 229.08595 201.840541 
L 232.160331 201.99715 
L 235.234711 202.153743 
L 238.309091 202.310335 
L 241.383471 202.466926 
L 244.457851 202.623517 
L 247.532231 202.780109 
L 250.606612 202.9367 
L 253.680992 203.093291 
L 256.755372 203.249882 
L 259.829752 203.406472 
L 262.904132 203.563059 
L 265.978512 203.719646 
L 269.052893 203.876225 
L 272.127273 204.032795 
L 275.201653 204.18936 
L 278.276033 204.345921 
L 281.350413 204.50248 
L 284.424793 204.659038 
L 287.499174 204.815596 
L 290.573554 204.972155 
L 293.647934 205.128713 
L 296.722314 205.285271 
L 299.796694 205.441828 
L 302.871074 205.598386 
L 305.945455 205.754943 
L 309.019835 205.9115 
L 312.094215 206.068058 
L 315.168595 206.224615 
L 318.242975 206.381173 
L 321.317355 206.53773 
L 324.391736 206.694286 
L 327.466116 206.850843 
L 330.540496 207.007399 
L 333.614876 207.163955 
L 336.689256 207.320511 
L 339.763636 207.477067 
L 342.838017 207.633623 
L 345.912397 207.790179 
L 348.986777 207.946735 
L 352.061157 208.103291 
L 355.135537 208.259846 
L 358.209917 208.416401 
L 361.284298 208.572955 
L 364.358678 208.72951 
L 367.433058 208.886064 
L 370.507438 209.042619 
L 373.581818 209.199171 
L 373.581818 116.168363 
L 373.581818 116.168363 
L 370.507438 116.011811 
L 367.433058 115.855257 
L 364.358678 115.698702 
L 361.284298 115.542148 
L 358.209917 115.385593 
L 355.135537 115.229039 
L 352.061157 115.072483 
L 348.986777 114.915927 
L 345.912397 114.759371 
L 342.838017 114.602815 
L 339.763636 114.446259 
L 336.689256 114.289703 
L 333.614876 114.133147 
L 330.540496 113.976591 
L 327.466116 113.820035 
L 324.391736 113.663479 
L 321.317355 113.506922 
L 318.242975 113.350365 
L 315.168595 113.193808 
L 312.094215 113.03725 
L 309.019835 112.880693 
L 305.945455 112.724135 
L 302.871074 112.567578 
L 299.796694 112.41102 
L 296.722314 112.254463 
L 293.647934 112.097905 
L 290.573554 111.941347 
L 287.499174 111.784789 
L 284.424793 111.62823 
L 281.350413 111.471672 
L 278.276033 111.315114 
L 275.201653 111.158552 
L 272.127273 111.001987 
L 269.052893 110.845417 
L 265.978512 110.688839 
L 262.904132 110.532252 
L 259.829752 110.375664 
L 256.755372 110.219075 
L 253.680992 110.062483 
L 250.606612 109.905892 
L 247.532231 109.749301 
L 244.457851 109.59271 
L 241.383471 109.436118 
L 238.309091 109.279527 
L 235.234711 109.122936 
L 232.160331 108.966342 
L 229.08595 108.809734 
L 226.01157 108.653114 
L 222.93719 108.496492 
L 219.86281 108.339869 
L 216.78843 108.183246 
L 213.71405 108.026621 
L 210.639669 107.869996 
L 207.565289 107.71337 
L 204.490909 107.55674 
L 201.416529 107.40008 
L 198.342149 107.243421 
L 195.267769 107.086762 
L 192.193388 106.930103 
L 189.119008 106.773444 
L 186.044628 106.616785 
L 182.970248 106.460126 
L 179.895868 106.303466 
L 176.821488 106.146807 
L 173.747107 105.990148 
L 170.672727 105.833489 
L 167.598347 105.67683 
L 164.523967 105.520171 
L 161.449587 105.363512 
L 158.375207 105.206852 
L 155.300826 105.050193 
L 152.226446 104.893534 
L 149.152066 104.736875 
L 146.077686 104.580216 
L 143.003306 104.423557 
L 139.928926 104.266897 
L 136.854545 104.110238 
L 133.780165 103.953579 
L 130.705785 103.79692 
L 127.631405 103.640261 
L 124.557025 103.483602 
L 121.482645 103.326943 
L 118.408264 103.170283 
L 115.333884 103.013624 
L 112.259504 102.856965 
L 109.185124 102.700306 
L 106.110744 102.543647 
L 103.036364 102.386988 
L 99.961983 102.230329 
L 96.887603 102.073669 
L 93.813223 101.91701 
L 90.738843 101.760351 
L 87.664463 101.603692 
L 84.590083 101.447033 
L 81.515702 101.290374 
L 78.441322 101.133715 
L 75.366942 100.977055 
L 72.292562 100.820396 
L 69.218182 100.663737 
z
" style="fill:#fdd0a2;"/>
   </g>
   <g id="PolyCollection_9">
    <path clip-path="url(#p3e5243bd79)" d="M 69.218182 90.24 
L 69.218182 100.663737 
L 72.292562 100.820396 
L 75.366942 100.977055 
L 78.441322 101.133715 
L 81.515702 101.290374 
L 84.590083 101.447033 
L 87.664463 101.603692 
L 90.738843 101.760351 
L 93.813223 101.91701 
L 96.887603 102.073669 
L 99.961983 102.230329 
L 103.036364 102.386988 
L 106.110744 102.543647 
L 109.185124 102.700306 
L 112.259504 102.856965 
L 115.333884 103.013624 
L 118.408264 103.170283 
L 121.482645 103.326943 
L 124.557025 103.483602 
L 127.631405 103.640261 
L 130.705785 103.79692 
L 133.780165 103.953579 
L 136.854545 104.110238 
L 139.928926 104.266897 
L 143.003306 104.423557 
L 146.077686 104.580216 
L 149.152066 104.736875 
L 152.226446 104.893534 
L 155.300826 105.050193 
L 158.375207 105.206852 
L 161.449587 105.363512 
L 164.523967 105.520171 
L 167.598347 105.67683 
L 170.672727 105.833489 
L 173.747107 105.990148 
L 176.821488 106.146807 
L 179.895868 106.303466 
L 182.970248 106.460126 
L 186.044628 106.616785 
L 189.119008 106.773444 
L 192.193388 106.930103 
L 195.267769 107.086762 
L 198.342149 107.243421 
L 201.416529 107.40008 
L 204.490909 107.55674 
L 207.565289 107.71337 
L 210.639669 107.869996 
L 213.71405 108.026621 
L 216.78843 108.183246 
L 219.86281 108.339869 
L 222.93719 108.496492 
L 226.01157 108.653114 
L 229.08595 108.809734 
L 232.160331 108.966342 
L 235.234711 109.122936 
L 238.309091 109.279527 
L 241.383471 109.436118 
L 244.457851 109.59271 
L 247.532231 109.749301 
L 250.606612 109.905892 
L 253.680992 110.062483 
L 256.755372 110.219075 
L 259.829752 110.375664 
L 262.904132 110.532252 
L 265.978512 110.688839 
L 269.052893 110.845417 
L 272.127273 111.001987 
L 275.201653 111.158552 
L 278.276033 111.315114 
L 281.350413 111.471672 
L 284.424793 111.62823 
L 287.499174 111.784789 
L 290.573554 111.941347 
L 293.647934 112.097905 
L 296.722314 112.254463 
L 299.796694 112.41102 
L 302.871074 112.567578 
L 305.945455 112.724135 
L 309.019835 112.880693 
L 312.094215 113.03725 
L 315.168595 113.193808 
L 318.242975 113.350365 
L 321.317355 113.506922 
L 324.391736 113.663479 
L 327.466116 113.820035 
L 330.540496 113.976591 
L 333.614876 114.133147 
L 336.689256 114.289703 
L 339.763636 114.446259 
L 342.838017 114.602815 
L 345.912397 114.759371 
L 348.986777 114.915927 
L 352.061157 115.072483 
L 355.135537 115.229039 
L 358.209917 115.385593 
L 361.284298 115.542148 
L 364.358678 115.698702 
L 367.433058 115.855257 
L 370.507438 116.011811 
L 373.581818 116.168363 
L 373.581818 116.168363 
L 373.581818 116.168363 
L 370.507438 115.906521 
L 367.433058 115.644676 
L 364.358678 115.382831 
L 361.284298 115.120987 
L 358.209917 114.859142 
L 355.135537 114.597297 
L 352.061157 114.335452 
L 348.986777 114.073605 
L 345.912397 113.811759 
L 342.838017 113.549912 
L 339.763636 113.288066 
L 336.689256 113.02622 
L 333.614876 112.764373 
L 330.540496 112.502527 
L 327.466116 112.240681 
L 324.391736 111.978834 
L 321.317355 111.716988 
L 318.242975 111.45514 
L 315.168595 111.193292 
L 312.094215 110.931445 
L 309.019835 110.669597 
L 305.945455 110.407749 
L 302.871074 110.145902 
L 299.796694 109.884054 
L 296.722314 109.622206 
L 293.647934 109.360358 
L 290.573554 109.09851 
L 287.499174 108.836661 
L 284.424793 108.574812 
L 281.350413 108.312964 
L 278.276033 108.051115 
L 275.201653 107.789264 
L 272.127273 107.527408 
L 269.052893 107.265548 
L 265.978512 107.003679 
L 262.904132 106.741802 
L 259.829752 106.479924 
L 256.755372 106.218044 
L 253.680992 105.956163 
L 250.606612 105.694281 
L 247.532231 105.4324 
L 244.457851 105.170518 
L 241.383471 104.908637 
L 238.309091 104.646755 
L 235.234711 104.384873 
L 232.160331 104.122989 
L 229.08595 103.861091 
L 226.01157 103.599181 
L 222.93719 103.337269 
L 219.86281 103.075356 
L 216.78843 102.813442 
L 213.71405 102.551527 
L 210.639669 102.289611 
L 207.565289 102.027695 
L 204.490909 101.765775 
L 201.416529 101.503825 
L 198.342149 101.241876 
L 195.267769 100.979926 
L 192.193388 100.717977 
L 189.119008 100.456028 
L 186.044628 100.194078 
L 182.970248 99.932129 
L 179.895868 99.670179 
L 176.821488 99.40823 
L 173.747107 99.14628 
L 170.672727 98.884331 
L 167.598347 98.622382 
L 164.523967 98.360432 
L 161.449587 98.098483 
L 158.375207 97.836533 
L 155.300826 97.574584 
L 152.226446 97.312634 
L 149.152066 97.050685 
L 146.077686 96.788736 
L 143.003306 96.526786 
L 139.928926 96.264837 
L 136.854545 96.002887 
L 133.780165 95.740938 
L 130.705785 95.478988 
L 127.631405 95.217039 
L 124.557025 94.95509 
L 121.482645 94.69314 
L 118.408264 94.431191 
L 115.333884 94.169241 
L 112.259504 93.907292 
L 109.185124 93.645343 
L 106.110744 93.383393 
L 103.036364 93.121444 
L 99.961983 92.859494 
L 96.887603 92.597545 
L 93.813223 92.335595 
L 90.738843 92.073646 
L 87.664463 91.811697 
L 84.590083 91.549747 
L 81.515702 91.287798 
L 78.441322 91.025848 
L 75.366942 90.763899 
L 72.292562 90.501949 
L 69.218182 90.24 
z
" style="fill:#31a354;"/>
   </g>
   <g id="PolyCollection_10">
    <path clip-path="url(#p3e5243bd79)" d="M 69.218182 90.24 
L 69.218182 90.24 
L 72.292562 90.501949 
L 75.366942 90.763899 
L 78.441322 91.025848 
L 81.515702 91.287798 
L 84.590083 91.549747 
L 87.664463 91.811697 
L 90.738843 92.073646 
L 93.813223 92.335595 
L 96.887603 92.597545 
L 99.961983 92.859494 
L 103.036364 93.121444 
L 106.110744 93.383393 
L 109.185124 93.645343 
L 112.259504 93.907292 
L 115.333884 94.169241 
L 118.408264 94.431191 
L 121.482645 94.69314 
L 124.557025 94.95509 
L 127.631405 95.217039 
L 130.705785 95.478988 
L 133.780165 95.740938 
L 136.854545 96.002887 
L 139.928926 96.264837 
L 143.003306 96.526786 
L 146.077686 96.788736 
L 149.152066 97.050685 
L 152.226446 97.312634 
L 155.300826 97.574584 
L 158.375207 97.836533 
L 161.449587 98.098483 
L 164.523967 98.360432 
L 167.598347 98.622382 
L 170.672727 98.884331 
L 173.747107 99.14628 
L 176.821488 99.40823 
L 179.895868 99.670179 
L 182.970248 99.932129 
L 186.044628 100.194078 
L 189.119008 100.456028 
L 192.193388 100.717977 
L 195.267769 100.979926 
L 198.342149 101.241876 
L 201.416529 101.503825 
L 204.490909 101.765775 
L 207.565289 102.027695 
L 210.639669 102.289611 
L 213.71405 102.551527 
L 216.78843 102.813442 
L 219.86281 103.075356 
L 222.93719 103.337269 
L 226.01157 103.599181 
L 229.08595 103.861091 
L 232.160331 104.122989 
L 235.234711 104.384873 
L 238.309091 104.646755 
L 241.383471 104.908637 
L 244.457851 105.170518 
L 247.532231 105.4324 
L 250.606612 105.694281 
L 253.680992 105.956163 
L 256.755372 106.218044 
L 259.829752 106.479924 
L 262.904132 106.741802 
L 265.978512 107.003679 
L 269.052893 107.265548 
L 272.127273 107.527408 
L 275.201653 107.789264 
L 278.276033 108.051115 
L 281.350413 108.312964 
L 284.424793 108.574812 
L 287.499174 108.836661 
L 290.573554 109.09851 
L 293.647934 109.360358 
L 296.722314 109.622206 
L 299.796694 109.884054 
L 302.871074 110.145902 
L 305.945455 110.407749 
L 309.019835 110.669597 
L 312.094215 110.931445 
L 315.168595 111.193292 
L 318.242975 111.45514 
L 321.317355 111.716988 
L 324.391736 111.978834 
L 327.466116 112.240681 
L 330.540496 112.502527 
L 333.614876 112.764373 
L 336.689256 113.02622 
L 339.763636 113.288066 
L 342.838017 113.549912 
L 345.912397 113.811759 
L 348.986777 114.073605 
L 352.061157 114.335452 
L 355.135537 114.597297 
L 358.209917 114.859142 
L 361.284298 115.120987 
L 364.358678 115.382831 
L 367.433058 115.644676 
L 370.507438 115.906521 
L 373.581818 116.168363 
L 373.581818 102.078189 
L 373.581818 102.078189 
L 370.507438 101.958612 
L 367.433058 101.839034 
L 364.358678 101.719456 
L 361.284298 101.599879 
L 358.209917 101.480301 
L 355.135537 101.360723 
L 352.061157 101.241146 
L 348.986777 101.121568 
L 345.912397 101.00199 
L 342.838017 100.882413 
L 339.763636 100.762835 
L 336.689256 100.643257 
L 333.614876 100.52368 
L 330.540496 100.404102 
L 327.466116 100.284524 
L 324.391736 100.164947 
L 321.317355 100.045369 
L 318.242975 99.925791 
L 315.168595 99.806214 
L 312.094215 99.686636 
L 309.019835 99.567058 
L 305.945455 99.447481 
L 302.871074 99.327903 
L 299.796694 99.208325 
L 296.722314 99.088748 
L 293.647934 98.96917 
L 290.573554 98.849592 
L 287.499174 98.730015 
L 284.424793 98.610437 
L 281.350413 98.490859 
L 278.276033 98.371282 
L 275.201653 98.251704 
L 272.127273 98.132126 
L 269.052893 98.012549 
L 265.978512 97.892971 
L 262.904132 97.773393 
L 259.829752 97.653816 
L 256.755372 97.534238 
L 253.680992 97.41466 
L 250.606612 97.295083 
L 247.532231 97.175505 
L 244.457851 97.055927 
L 241.383471 96.93635 
L 238.309091 96.816772 
L 235.234711 96.697194 
L 232.160331 96.577617 
L 229.08595 96.458039 
L 226.01157 96.338461 
L 222.93719 96.218883 
L 219.86281 96.099306 
L 216.78843 95.979728 
L 213.71405 95.86015 
L 210.639669 95.740573 
L 207.565289 95.620995 
L 204.490909 95.501417 
L 201.416529 95.38184 
L 198.342149 95.262262 
L 195.267769 95.142684 
L 192.193388 95.023107 
L 189.119008 94.903529 
L 186.044628 94.783951 
L 182.970248 94.664374 
L 179.895868 94.544796 
L 176.821488 94.425218 
L 173.747107 94.305641 
L 170.672727 94.186063 
L 167.598347 94.066485 
L 164.523967 93.946908 
L 161.449587 93.82733 
L 158.375207 93.707752 
L 155.300826 93.588175 
L 152.226446 93.468597 
L 149.152066 93.349019 
L 146.077686 93.229442 
L 143.003306 93.109864 
L 139.928926 92.990286 
L 136.854545 92.870709 
L 133.780165 92.751131 
L 130.705785 92.631553 
L 127.631405 92.511976 
L 124.557025 92.392398 
L 121.482645 92.27282 
L 118.408264 92.153243 
L 115.333884 92.033665 
L 112.259504 91.914087 
L 109.185124 91.79451 
L 106.110744 91.674932 
L 103.036364 91.555354 
L 99.961983 91.435777 
L 96.887603 91.316199 
L 93.813223 91.196621 
L 90.738843 91.077044 
L 87.664463 90.957466 
L 84.590083 90.837888 
L 81.515702 90.718311 
L 78.441322 90.598733 
L 75.366942 90.479155 
L 72.292562 90.359578 
L 69.218182 90.24 
z
" style="fill:#74c476;"/>
   </g>
   <g id="PolyCollection_11">
    <path clip-path="url(#p3e5243bd79)" d="M 69.218182 90.24 
L 69.218182 90.24 
L 72.292562 90.359578 
L 75.366942 90.479155 
L 78.441322 90.598733 
L 81.515702 90.718311 
L 84.590083 90.837888 
L 87.664463 90.957466 
L 90.738843 91.077044 
L 93.813223 91.196621 
L 96.887603 91.316199 
L 99.961983 91.435777 
L 103.036364 91.555354 
L 106.110744 91.674932 
L 109.185124 91.79451 
L 112.259504 91.914087 
L 115.333884 92.033665 
L 118.408264 92.153243 
L 121.482645 92.27282 
L 124.557025 92.392398 
L 127.631405 92.511976 
L 130.705785 92.631553 
L 133.780165 92.751131 
L 136.854545 92.870709 
L 139.928926 92.990286 
L 143.003306 93.109864 
L 146.077686 93.229442 
L 149.152066 93.349019 
L 152.226446 93.468597 
L 155.300826 93.588175 
L 158.375207 93.707752 
L 161.449587 93.82733 
L 164.523967 93.946908 
L 167.598347 94.066485 
L 170.672727 94.186063 
L 173.747107 94.305641 
L 176.821488 94.425218 
L 179.895868 94.544796 
L 182.970248 94.664374 
L 186.044628 94.783951 
L 189.119008 94.903529 
L 192.193388 95.023107 
L 195.267769 95.142684 
L 198.342149 95.262262 
L 201.416529 95.38184 
L 204.490909 95.501417 
L 207.565289 95.620995 
L 210.639669 95.740573 
L 213.71405 95.86015 
L 216.78843 95.979728 
L 219.86281 96.099306 
L 222.93719 96.218883 
L 226.01157 96.338461 
L 229.08595 96.458039 
L 232.160331 96.577617 
L 235.234711 96.697194 
L 238.309091 96.816772 
L 241.383471 96.93635 
L 244.457851 97.055927 
L 247.532231 97.175505 
L 250.606612 97.295083 
L 253.680992 97.41466 
L 256.755372 97.534238 
L 259.829752 97.653816 
L 262.904132 97.773393 
L 265.978512 97.892971 
L 269.052893 98.012549 
L 272.127273 98.132126 
L 275.201653 98.251704 
L 278.276033 98.371282 
L 281.350413 98.490859 
L 284.424793 98.610437 
L 287.499174 98.730015 
L 290.573554 98.849592 
L 293.647934 98.96917 
L 296.722314 99.088748 
L 299.796694 99.208325 
L 302.871074 99.327903 
L 305.945455 99.447481 
L 309.019835 99.567058 
L 312.094215 99.686636 
L 315.168595 99.806214 
L 318.242975 99.925791 
L 321.317355 100.045369 
L 324.391736 100.164947 
L 327.466116 100.284524 
L 330.540496 100.404102 
L 333.614876 100.52368 
L 336.689256 100.643257 
L 339.763636 100.762835 
L 342.838017 100.882413 
L 345.912397 101.00199 
L 348.986777 101.121568 
L 352.061157 101.241146 
L 355.135537 101.360723 
L 358.209917 101.480301 
L 361.284298 101.599879 
L 364.358678 101.719456 
L 367.433058 101.839034 
L 370.507438 101.958612 
L 373.581818 102.078189 
L 373.581818 90.24 
L 373.581818 90.24 
L 370.507438 90.24 
L 367.433058 90.24 
L 364.358678 90.24 
L 361.284298 90.24 
L 358.209917 90.24 
L 355.135537 90.24 
L 352.061157 90.24 
L 348.986777 90.24 
L 345.912397 90.24 
L 342.838017 90.24 
L 339.763636 90.24 
L 336.689256 90.24 
L 333.614876 90.24 
L 330.540496 90.24 
L 327.466116 90.24 
L 324.391736 90.24 
L 321.317355 90.24 
L 318.242975 90.24 
L 315.168595 90.24 
L 312.094215 90.24 
L 309.019835 90.24 
L 305.945455 90.24 
L 302.871074 90.24 
L 299.796694 90.24 
L 296.722314 90.24 
L 293.647934 90.24 
L 290.573554 90.24 
L 287.499174 90.24 
L 284.424793 90.24 
L 281.350413 90.24 
L 278.276033 90.24 
L 275.201653 90.24 
L 272.127273 90.24 
L 269.052893 90.24 
L 265.978512 90.24 
L 262.904132 90.24 
L 259.829752 90.24 
L 256.755372 90.24 
L 253.680992 90.24 
L 250.606612 90.24 
L 247.532231 90.24 
L 244.457851 90.24 
L 241.383471 90.24 
L 238.309091 90.24 
L 235.234711 90.24 
L 232.160331 90.24 
L 229.08595 90.24 
L 226.01157 90.24 
L 222.93719 90.24 
L 219.86281 90.24 
L 216.78843 90.24 
L 213.71405 90.24 
L 210.639669 90.24 
L 207.565289 90.24 
L 204.490909 90.24 
L 201.416529 90.24 
L 198.342149 90.24 
L 195.267769 90.24 
L 192.193388 90.24 
L 189.119008 90.24 
L 186.044628 90.24 
L 182.970248 90.24 
L 179.895868 90.24 
L 176.821488 90.24 
L 173.747107 90.24 
L 170.672727 90.24 
L 167.598347 90.24 
L 164.523967 90.24 
L 161.449587 90.24 
L 158.375207 90.24 
L 155.300826 90.24 
L 152.226446 90.24 
L 149.152066 90.24 
L 146.077686 90.24 
L 143.003306 90.24 
L 139.928926 90.24 
L 136.854545 90.24 
L 133.780165 90.24 
L 130.705785 90.24 
L 127.631405 90.24 
L 124.557025 90.24 
L 121.482645 90.24 
L 118.408264 90.24 
L 115.333884 90.24 
L 112.259504 90.24 
L 109.185124 90.24 
L 106.110744 90.24 
L 103.036364 90.24 
L 99.961983 90.24 
L 96.887603 90.24 
L 93.813223 90.24 
L 90.738843 90.24 
L 87.664463 90.24 
L 84.590083 90.24 
L 81.515702 90.24 
L 78.441322 90.24 
L 75.366942 90.24 
L 72.292562 90.24 
L 69.218182 90.24 
z
" style="fill:#a1d99b;"/>
   </g>
   <g id="matplotlib.axis_1">
    <g id="xtick_1">
     <g id="line2d_1">
      <defs>
       <path d="M 0 0 
L 0 3.5 
" id="m4650f3d09b" style="stroke:#000000;stroke-width:0.8;"/>
      </defs>
      <g>
       <use style="stroke:#000000;stroke-width:0.8;" x="69.218182" xlink:href="#m4650f3d09b" y="512.64"/>
      </g>
     </g>
     <g id="text_1">
      <!-- 0 -->
      <g transform="translate(66.036932 527.238438)scale(0.1 -0.1)">
       <defs>
        <path d="M 2034 4250 
Q 1547 4250 1301 3770 
Q 1056 3291 1056 2328 
Q 1056 1369 1301 889 
Q 1547 409 2034 409 
Q 2525 409 2770 889 
Q 3016 1369 3016 2328 
Q 3016 3291 2770 3770 
Q 2525 4250 2034 4250 
z
M 2034 4750 
Q 2819 4750 3233 4129 
Q 3647 3509 3647 2328 
Q 3647 1150 3233 529 
Q 2819 -91 2034 -91 
Q 1250 -91 836 529 
Q 422 1150 422 2328 
Q 422 3509 836 4129 
Q 1250 4750 2034 4750 
z
" id="DejaVuSans-30" transform="scale(0.015625)"/>
       </defs>
       <use xlink:href="#DejaVuSans-30"/>
      </g>
     </g>
    </g>
    <g id="xtick_2">
     <g id="line2d_2">
      <g>
       <use style="stroke:#000000;stroke-width:0.8;" x="130.090909" xlink:href="#m4650f3d09b" y="512.64"/>
      </g>
     </g>
     <g id="text_2">
      <!-- 20 -->
      <g transform="translate(123.728409 527.238438)scale(0.1 -0.1)">
       <defs>
        <path d="M 1228 531 
L 3431 531 
L 3431 0 
L 469 0 
L 469 531 
Q 828 903 1448 1529 
Q 2069 2156 2228 2338 
Q 2531 2678 2651 2914 
Q 2772 3150 2772 3378 
Q 2772 3750 2511 3984 
Q 2250 4219 1831 4219 
Q 1534 4219 1204 4116 
Q 875 4013 500 3803 
L 500 4441 
Q 881 4594 1212 4672 
Q 1544 4750 1819 4750 
Q 2544 4750 2975 4387 
Q 3406 4025 3406 3419 
Q 3406 3131 3298 2873 
Q 3191 2616 2906 2266 
Q 2828 2175 2409 1742 
Q 1991 1309 1228 531 
z
" id="DejaVuSans-32" transform="scale(0.015625)"/>
       </defs>
       <use xlink:href="#DejaVuSans-32"/>
       <use x="63.623047" xlink:href="#DejaVuSans-30"/>
      </g>
     </g>
    </g>
    <g id="xtick_3">
     <g id="line2d_3">
      <g>
       <use style="stroke:#000000;stroke-width:0.8;" x="190.963636" xlink:href="#m4650f3d09b" y="512.64"/>
      </g>
     </g>
     <g id="text_3">
      <!-- 40 -->
      <g transform="translate(184.601136 527.238438)scale(0.1 -0.1)">
       <defs>
        <path d="M 2419 4116 
L 825 1625 
L 2419 1625 
L 2419 4116 
z
M 2253 4666 
L 3047 4666 
L 3047 1625 
L 3713 1625 
L 3713 1100 
L 3047 1100 
L 3047 0 
L 2419 0 
L 2419 1100 
L 313 1100 
L 313 1709 
L 2253 4666 
z
" id="DejaVuSans-34" transform="scale(0.015625)"/>
       </defs>
       <use xlink:href="#DejaVuSans-34"/>
       <use x="63.623047" xlink:href="#DejaVuSans-30"/>
      </g>
     </g>
    </g>
    <g id="xtick_4">
     <g id="line2d_4">
      <g>
       <use style="stroke:#000000;stroke-width:0.8;" x="251.836364" xlink:href="#m4650f3d09b" y="512.64"/>
      </g>
     </g>
     <g id="text_4">
      <!-- 60 -->
      <g transform="translate(245.473864 527.238438)scale(0.1 -0.1)">
       <defs>
        <path d="M 2113 2584 
Q 1688 2584 1439 2293 
Q 1191 2003 1191 1497 
Q 1191 994 1439 701 
Q 1688 409 2113 409 
Q 2538 409 2786 701 
Q 3034 994 3034 1497 
Q 3034 2003 2786 2293 
Q 2538 2584 2113 2584 
z
M 3366 4563 
L 3366 3988 
Q 3128 4100 2886 4159 
Q 2644 4219 2406 4219 
Q 1781 4219 1451 3797 
Q 1122 3375 1075 2522 
Q 1259 2794 1537 2939 
Q 1816 3084 2150 3084 
Q 2853 3084 3261 2657 
Q 3669 2231 3669 1497 
Q 3669 778 3244 343 
Q 2819 -91 2113 -91 
Q 1303 -91 875 529 
Q 447 1150 447 2328 
Q 447 3434 972 4092 
Q 1497 4750 2381 4750 
Q 2619 4750 2861 4703 
Q 3103 4656 3366 4563 
z
" id="DejaVuSans-36" transform="scale(0.015625)"/>
       </defs>
       <use xlink:href="#DejaVuSans-36"/>
       <use x="63.623047" xlink:href="#DejaVuSans-30"/>
      </g>
     </g>
    </g>
    <g id="xtick_5">
     <g id="line2d_5">
      <g>
       <use style="stroke:#000000;stroke-width:0.8;" x="312.709091" xlink:href="#m4650f3d09b" y="512.64"/>
      </g>
     </g>
     <g id="text_5">
      <!-- 80 -->
      <g transform="translate(306.346591 527.238438)scale(0.1 -0.1)">
       <defs>
        <path d="M 2034 2216 
Q 1584 2216 1326 1975 
Q 1069 1734 1069 1313 
Q 1069 891 1326 650 
Q 1584 409 2034 409 
Q 2484 409 2743 651 
Q 3003 894 3003 1313 
Q 3003 1734 2745 1975 
Q 2488 2216 2034 2216 
z
M 1403 2484 
Q 997 2584 770 2862 
Q 544 3141 544 3541 
Q 544 4100 942 4425 
Q 1341 4750 2034 4750 
Q 2731 4750 3128 4425 
Q 3525 4100 3525 3541 
Q 3525 3141 3298 2862 
Q 3072 2584 2669 2484 
Q 3125 2378 3379 2068 
Q 3634 1759 3634 1313 
Q 3634 634 3220 271 
Q 2806 -91 2034 -91 
Q 1263 -91 848 271 
Q 434 634 434 1313 
Q 434 1759 690 2068 
Q 947 2378 1403 2484 
z
M 1172 3481 
Q 1172 3119 1398 2916 
Q 1625 2713 2034 2713 
Q 2441 2713 2670 2916 
Q 2900 3119 2900 3481 
Q 2900 3844 2670 4047 
Q 2441 4250 2034 4250 
Q 1625 4250 1398 4047 
Q 1172 3844 1172 3481 
z
" id="DejaVuSans-38" transform="scale(0.015625)"/>
       </defs>
       <use xlink:href="#DejaVuSans-38"/>
       <use x="63.623047" xlink:href="#DejaVuSans-30"/>
      </g>
     </g>
    </g>
    <g id="xtick_6">
     <g id="line2d_6">
      <g>
       <use style="stroke:#000000;stroke-width:0.8;" x="373.581818" xlink:href="#m4650f3d09b" y="512.64"/>
      </g>
     </g>
     <g id="text_6">
      <!-- 100 -->
      <g transform="translate(364.038068 527.238438)scale(0.1 -0.1)">
       <defs>
        <path d="M 794 531 
L 1825 531 
L 1825 4091 
L 703 3866 
L 703 4441 
L 1819 4666 
L 2450 4666 
L 2450 531 
L 3481 531 
L 3481 0 
L 794 0 
L 794 531 
z
" id="DejaVuSans-31" transform="scale(0.015625)"/>
       </defs>
       <use xlink:href="#DejaVuSans-31"/>
       <use x="63.623047" xlink:href="#DejaVuSans-30"/>
       <use x="127.246094" xlink:href="#DejaVuSans-30"/>
      </g>
     </g>
    </g>
    <g id="text_7">
     <!-- Proportion of New Technology in Grid (%) -->
     <g transform="translate(118.632031 540.916563)scale(0.1 -0.1)">
      <defs>
       <path d="M 1259 4147 
L 1259 2394 
L 2053 2394 
Q 2494 2394 2734 2622 
Q 2975 2850 2975 3272 
Q 2975 3691 2734 3919 
Q 2494 4147 2053 4147 
L 1259 4147 
z
M 628 4666 
L 2053 4666 
Q 2838 4666 3239 4311 
Q 3641 3956 3641 3272 
Q 3641 2581 3239 2228 
Q 2838 1875 2053 1875 
L 1259 1875 
L 1259 0 
L 628 0 
L 628 4666 
z
" id="DejaVuSans-50" transform="scale(0.015625)"/>
       <path d="M 2631 2963 
Q 2534 3019 2420 3045 
Q 2306 3072 2169 3072 
Q 1681 3072 1420 2755 
Q 1159 2438 1159 1844 
L 1159 0 
L 581 0 
L 581 3500 
L 1159 3500 
L 1159 2956 
Q 1341 3275 1631 3429 
Q 1922 3584 2338 3584 
Q 2397 3584 2469 3576 
Q 2541 3569 2628 3553 
L 2631 2963 
z
" id="DejaVuSans-72" transform="scale(0.015625)"/>
       <path d="M 1959 3097 
Q 1497 3097 1228 2736 
Q 959 2375 959 1747 
Q 959 1119 1226 758 
Q 1494 397 1959 397 
Q 2419 397 2687 759 
Q 2956 1122 2956 1747 
Q 2956 2369 2687 2733 
Q 2419 3097 1959 3097 
z
M 1959 3584 
Q 2709 3584 3137 3096 
Q 3566 2609 3566 1747 
Q 3566 888 3137 398 
Q 2709 -91 1959 -91 
Q 1206 -91 779 398 
Q 353 888 353 1747 
Q 353 2609 779 3096 
Q 1206 3584 1959 3584 
z
" id="DejaVuSans-6f" transform="scale(0.015625)"/>
       <path d="M 1159 525 
L 1159 -1331 
L 581 -1331 
L 581 3500 
L 1159 3500 
L 1159 2969 
Q 1341 3281 1617 3432 
Q 1894 3584 2278 3584 
Q 2916 3584 3314 3078 
Q 3713 2572 3713 1747 
Q 3713 922 3314 415 
Q 2916 -91 2278 -91 
Q 1894 -91 1617 61 
Q 1341 213 1159 525 
z
M 3116 1747 
Q 3116 2381 2855 2742 
Q 2594 3103 2138 3103 
Q 1681 3103 1420 2742 
Q 1159 2381 1159 1747 
Q 1159 1113 1420 752 
Q 1681 391 2138 391 
Q 2594 391 2855 752 
Q 3116 1113 3116 1747 
z
" id="DejaVuSans-70" transform="scale(0.015625)"/>
       <path d="M 1172 4494 
L 1172 3500 
L 2356 3500 
L 2356 3053 
L 1172 3053 
L 1172 1153 
Q 1172 725 1289 603 
Q 1406 481 1766 481 
L 2356 481 
L 2356 0 
L 1766 0 
Q 1100 0 847 248 
Q 594 497 594 1153 
L 594 3053 
L 172 3053 
L 172 3500 
L 594 3500 
L 594 4494 
L 1172 4494 
z
" id="DejaVuSans-74" transform="scale(0.015625)"/>
       <path d="M 603 3500 
L 1178 3500 
L 1178 0 
L 603 0 
L 603 3500 
z
M 603 4863 
L 1178 4863 
L 1178 4134 
L 603 4134 
L 603 4863 
z
" id="DejaVuSans-69" transform="scale(0.015625)"/>
       <path d="M 3513 2113 
L 3513 0 
L 2938 0 
L 2938 2094 
Q 2938 2591 2744 2837 
Q 2550 3084 2163 3084 
Q 1697 3084 1428 2787 
Q 1159 2491 1159 1978 
L 1159 0 
L 581 0 
L 581 3500 
L 1159 3500 
L 1159 2956 
Q 1366 3272 1645 3428 
Q 1925 3584 2291 3584 
Q 2894 3584 3203 3211 
Q 3513 2838 3513 2113 
z
" id="DejaVuSans-6e" transform="scale(0.015625)"/>
       <path id="DejaVuSans-20" transform="scale(0.015625)"/>
       <path d="M 2375 4863 
L 2375 4384 
L 1825 4384 
Q 1516 4384 1395 4259 
Q 1275 4134 1275 3809 
L 1275 3500 
L 2222 3500 
L 2222 3053 
L 1275 3053 
L 1275 0 
L 697 0 
L 697 3053 
L 147 3053 
L 147 3500 
L 697 3500 
L 697 3744 
Q 697 4328 969 4595 
Q 1241 4863 1831 4863 
L 2375 4863 
z
" id="DejaVuSans-66" transform="scale(0.015625)"/>
       <path d="M 628 4666 
L 1478 4666 
L 3547 763 
L 3547 4666 
L 4159 4666 
L 4159 0 
L 3309 0 
L 1241 3903 
L 1241 0 
L 628 0 
L 628 4666 
z
" id="DejaVuSans-4e" transform="scale(0.015625)"/>
       <path d="M 3597 1894 
L 3597 1613 
L 953 1613 
Q 991 1019 1311 708 
Q 1631 397 2203 397 
Q 2534 397 2845 478 
Q 3156 559 3463 722 
L 3463 178 
Q 3153 47 2828 -22 
Q 2503 -91 2169 -91 
Q 1331 -91 842 396 
Q 353 884 353 1716 
Q 353 2575 817 3079 
Q 1281 3584 2069 3584 
Q 2775 3584 3186 3129 
Q 3597 2675 3597 1894 
z
M 3022 2063 
Q 3016 2534 2758 2815 
Q 2500 3097 2075 3097 
Q 1594 3097 1305 2825 
Q 1016 2553 972 2059 
L 3022 2063 
z
" id="DejaVuSans-65" transform="scale(0.015625)"/>
       <path d="M 269 3500 
L 844 3500 
L 1563 769 
L 2278 3500 
L 2956 3500 
L 3675 769 
L 4391 3500 
L 4966 3500 
L 4050 0 
L 3372 0 
L 2619 2869 
L 1863 0 
L 1184 0 
L 269 3500 
z
" id="DejaVuSans-77" transform="scale(0.015625)"/>
       <path d="M -19 4666 
L 3928 4666 
L 3928 4134 
L 2272 4134 
L 2272 0 
L 1638 0 
L 1638 4134 
L -19 4134 
L -19 4666 
z
" id="DejaVuSans-54" transform="scale(0.015625)"/>
       <path d="M 3122 3366 
L 3122 2828 
Q 2878 2963 2633 3030 
Q 2388 3097 2138 3097 
Q 1578 3097 1268 2742 
Q 959 2388 959 1747 
Q 959 1106 1268 751 
Q 1578 397 2138 397 
Q 2388 397 2633 464 
Q 2878 531 3122 666 
L 3122 134 
Q 2881 22 2623 -34 
Q 2366 -91 2075 -91 
Q 1284 -91 818 406 
Q 353 903 353 1747 
Q 353 2603 823 3093 
Q 1294 3584 2113 3584 
Q 2378 3584 2631 3529 
Q 2884 3475 3122 3366 
z
" id="DejaVuSans-63" transform="scale(0.015625)"/>
       <path d="M 3513 2113 
L 3513 0 
L 2938 0 
L 2938 2094 
Q 2938 2591 2744 2837 
Q 2550 3084 2163 3084 
Q 1697 3084 1428 2787 
Q 1159 2491 1159 1978 
L 1159 0 
L 581 0 
L 581 4863 
L 1159 4863 
L 1159 2956 
Q 1366 3272 1645 3428 
Q 1925 3584 2291 3584 
Q 2894 3584 3203 3211 
Q 3513 2838 3513 2113 
z
" id="DejaVuSans-68" transform="scale(0.015625)"/>
       <path d="M 603 4863 
L 1178 4863 
L 1178 0 
L 603 0 
L 603 4863 
z
" id="DejaVuSans-6c" transform="scale(0.015625)"/>
       <path d="M 2906 1791 
Q 2906 2416 2648 2759 
Q 2391 3103 1925 3103 
Q 1463 3103 1205 2759 
Q 947 2416 947 1791 
Q 947 1169 1205 825 
Q 1463 481 1925 481 
Q 2391 481 2648 825 
Q 2906 1169 2906 1791 
z
M 3481 434 
Q 3481 -459 3084 -895 
Q 2688 -1331 1869 -1331 
Q 1566 -1331 1297 -1286 
Q 1028 -1241 775 -1147 
L 775 -588 
Q 1028 -725 1275 -790 
Q 1522 -856 1778 -856 
Q 2344 -856 2625 -561 
Q 2906 -266 2906 331 
L 2906 616 
Q 2728 306 2450 153 
Q 2172 0 1784 0 
Q 1141 0 747 490 
Q 353 981 353 1791 
Q 353 2603 747 3093 
Q 1141 3584 1784 3584 
Q 2172 3584 2450 3431 
Q 2728 3278 2906 2969 
L 2906 3500 
L 3481 3500 
L 3481 434 
z
" id="DejaVuSans-67" transform="scale(0.015625)"/>
       <path d="M 2059 -325 
Q 1816 -950 1584 -1140 
Q 1353 -1331 966 -1331 
L 506 -1331 
L 506 -850 
L 844 -850 
Q 1081 -850 1212 -737 
Q 1344 -625 1503 -206 
L 1606 56 
L 191 3500 
L 800 3500 
L 1894 763 
L 2988 3500 
L 3597 3500 
L 2059 -325 
z
" id="DejaVuSans-79" transform="scale(0.015625)"/>
       <path d="M 3809 666 
L 3809 1919 
L 2778 1919 
L 2778 2438 
L 4434 2438 
L 4434 434 
Q 4069 175 3628 42 
Q 3188 -91 2688 -91 
Q 1594 -91 976 548 
Q 359 1188 359 2328 
Q 359 3472 976 4111 
Q 1594 4750 2688 4750 
Q 3144 4750 3555 4637 
Q 3966 4525 4313 4306 
L 4313 3634 
Q 3963 3931 3569 4081 
Q 3175 4231 2741 4231 
Q 1884 4231 1454 3753 
Q 1025 3275 1025 2328 
Q 1025 1384 1454 906 
Q 1884 428 2741 428 
Q 3075 428 3337 486 
Q 3600 544 3809 666 
z
" id="DejaVuSans-47" transform="scale(0.015625)"/>
       <path d="M 2906 2969 
L 2906 4863 
L 3481 4863 
L 3481 0 
L 2906 0 
L 2906 525 
Q 2725 213 2448 61 
Q 2172 -91 1784 -91 
Q 1150 -91 751 415 
Q 353 922 353 1747 
Q 353 2572 751 3078 
Q 1150 3584 1784 3584 
Q 2172 3584 2448 3432 
Q 2725 3281 2906 2969 
z
M 947 1747 
Q 947 1113 1208 752 
Q 1469 391 1925 391 
Q 2381 391 2643 752 
Q 2906 1113 2906 1747 
Q 2906 2381 2643 2742 
Q 2381 3103 1925 3103 
Q 1469 3103 1208 2742 
Q 947 2381 947 1747 
z
" id="DejaVuSans-64" transform="scale(0.015625)"/>
       <path d="M 1984 4856 
Q 1566 4138 1362 3434 
Q 1159 2731 1159 2009 
Q 1159 1288 1364 580 
Q 1569 -128 1984 -844 
L 1484 -844 
Q 1016 -109 783 600 
Q 550 1309 550 2009 
Q 550 2706 781 3412 
Q 1013 4119 1484 4856 
L 1984 4856 
z
" id="DejaVuSans-28" transform="scale(0.015625)"/>
       <path d="M 4653 2053 
Q 4381 2053 4226 1822 
Q 4072 1591 4072 1178 
Q 4072 772 4226 539 
Q 4381 306 4653 306 
Q 4919 306 5073 539 
Q 5228 772 5228 1178 
Q 5228 1588 5073 1820 
Q 4919 2053 4653 2053 
z
M 4653 2450 
Q 5147 2450 5437 2106 
Q 5728 1763 5728 1178 
Q 5728 594 5436 251 
Q 5144 -91 4653 -91 
Q 4153 -91 3862 251 
Q 3572 594 3572 1178 
Q 3572 1766 3864 2108 
Q 4156 2450 4653 2450 
z
M 1428 4353 
Q 1159 4353 1004 4120 
Q 850 3888 850 3481 
Q 850 3069 1003 2837 
Q 1156 2606 1428 2606 
Q 1700 2606 1854 2837 
Q 2009 3069 2009 3481 
Q 2009 3884 1853 4118 
Q 1697 4353 1428 4353 
z
M 4250 4750 
L 4750 4750 
L 1831 -91 
L 1331 -91 
L 4250 4750 
z
M 1428 4750 
Q 1922 4750 2215 4408 
Q 2509 4066 2509 3481 
Q 2509 2891 2217 2550 
Q 1925 2209 1428 2209 
Q 931 2209 642 2551 
Q 353 2894 353 3481 
Q 353 4063 643 4406 
Q 934 4750 1428 4750 
z
" id="DejaVuSans-25" transform="scale(0.015625)"/>
       <path d="M 513 4856 
L 1013 4856 
Q 1481 4119 1714 3412 
Q 1947 2706 1947 2009 
Q 1947 1309 1714 600 
Q 1481 -109 1013 -844 
L 513 -844 
Q 928 -128 1133 580 
Q 1338 1288 1338 2009 
Q 1338 2731 1133 3434 
Q 928 4138 513 4856 
z
" id="DejaVuSans-29" transform="scale(0.015625)"/>
      </defs>
      <use xlink:href="#DejaVuSans-50"/>
      <use x="58.552734" xlink:href="#DejaVuSans-72"/>
      <use x="97.416016" xlink:href="#DejaVuSans-6f"/>
      <use x="158.597656" xlink:href="#DejaVuSans-70"/>
      <use x="222.074219" xlink:href="#DejaVuSans-6f"/>
      <use x="283.255859" xlink:href="#DejaVuSans-72"/>
      <use x="324.369141" xlink:href="#DejaVuSans-74"/>
      <use x="363.578125" xlink:href="#DejaVuSans-69"/>
      <use x="391.361328" xlink:href="#DejaVuSans-6f"/>
      <use x="452.542969" xlink:href="#DejaVuSans-6e"/>
      <use x="515.921875" xlink:href="#DejaVuSans-20"/>
      <use x="547.708984" xlink:href="#DejaVuSans-6f"/>
      <use x="608.890625" xlink:href="#DejaVuSans-66"/>
      <use x="644.095703" xlink:href="#DejaVuSans-20"/>
      <use x="675.882812" xlink:href="#DejaVuSans-4e"/>
      <use x="750.6875" xlink:href="#DejaVuSans-65"/>
      <use x="812.210938" xlink:href="#DejaVuSans-77"/>
      <use x="893.998047" xlink:href="#DejaVuSans-20"/>
      <use x="925.785156" xlink:href="#DejaVuSans-54"/>
      <use x="969.869141" xlink:href="#DejaVuSans-65"/>
      <use x="1031.392578" xlink:href="#DejaVuSans-63"/>
      <use x="1086.373047" xlink:href="#DejaVuSans-68"/>
      <use x="1149.751953" xlink:href="#DejaVuSans-6e"/>
      <use x="1213.130859" xlink:href="#DejaVuSans-6f"/>
      <use x="1274.3125" xlink:href="#DejaVuSans-6c"/>
      <use x="1302.095703" xlink:href="#DejaVuSans-6f"/>
      <use x="1363.277344" xlink:href="#DejaVuSans-67"/>
      <use x="1426.753906" xlink:href="#DejaVuSans-79"/>
      <use x="1485.933594" xlink:href="#DejaVuSans-20"/>
      <use x="1517.720703" xlink:href="#DejaVuSans-69"/>
      <use x="1545.503906" xlink:href="#DejaVuSans-6e"/>
      <use x="1608.882812" xlink:href="#DejaVuSans-20"/>
      <use x="1640.669922" xlink:href="#DejaVuSans-47"/>
      <use x="1718.160156" xlink:href="#DejaVuSans-72"/>
      <use x="1759.273438" xlink:href="#DejaVuSans-69"/>
      <use x="1787.056641" xlink:href="#DejaVuSans-64"/>
      <use x="1850.533203" xlink:href="#DejaVuSans-20"/>
      <use x="1882.320312" xlink:href="#DejaVuSans-28"/>
      <use x="1921.333984" xlink:href="#DejaVuSans-25"/>
      <use x="2016.353516" xlink:href="#DejaVuSans-29"/>
     </g>
    </g>
   </g>
   <g id="matplotlib.axis_2">
    <g id="ytick_1">
     <g id="line2d_7">
      <defs>
       <path d="M 0 0 
L -3.5 0 
" id="mc83cd30c01" style="stroke:#000000;stroke-width:0.8;"/>
      </defs>
      <g>
       <use style="stroke:#000000;stroke-width:0.8;" x="54" xlink:href="#mc83cd30c01" y="512.64"/>
      </g>
     </g>
     <g id="text_8">
      <!-- 0 -->
      <g transform="translate(40.6375 516.439219)scale(0.1 -0.1)">
       <use xlink:href="#DejaVuSans-30"/>
      </g>
     </g>
    </g>
    <g id="ytick_2">
     <g id="line2d_8">
      <g>
       <use style="stroke:#000000;stroke-width:0.8;" x="54" xlink:href="#mc83cd30c01" y="440.322522"/>
      </g>
     </g>
     <g id="text_9">
      <!-- 50 -->
      <g transform="translate(34.275 444.121741)scale(0.1 -0.1)">
       <defs>
        <path d="M 691 4666 
L 3169 4666 
L 3169 4134 
L 1269 4134 
L 1269 2991 
Q 1406 3038 1543 3061 
Q 1681 3084 1819 3084 
Q 2600 3084 3056 2656 
Q 3513 2228 3513 1497 
Q 3513 744 3044 326 
Q 2575 -91 1722 -91 
Q 1428 -91 1123 -41 
Q 819 9 494 109 
L 494 744 
Q 775 591 1075 516 
Q 1375 441 1709 441 
Q 2250 441 2565 725 
Q 2881 1009 2881 1497 
Q 2881 1984 2565 2268 
Q 2250 2553 1709 2553 
Q 1456 2553 1204 2497 
Q 953 2441 691 2322 
L 691 4666 
z
" id="DejaVuSans-35" transform="scale(0.015625)"/>
       </defs>
       <use xlink:href="#DejaVuSans-35"/>
       <use x="63.623047" xlink:href="#DejaVuSans-30"/>
      </g>
     </g>
    </g>
    <g id="ytick_3">
     <g id="line2d_9">
      <g>
       <use style="stroke:#000000;stroke-width:0.8;" x="54" xlink:href="#mc83cd30c01" y="368.005044"/>
      </g>
     </g>
     <g id="text_10">
      <!-- 100 -->
      <g transform="translate(27.9125 371.804263)scale(0.1 -0.1)">
       <use xlink:href="#DejaVuSans-31"/>
       <use x="63.623047" xlink:href="#DejaVuSans-30"/>
       <use x="127.246094" xlink:href="#DejaVuSans-30"/>
      </g>
     </g>
    </g>
    <g id="ytick_4">
     <g id="line2d_10">
      <g>
       <use style="stroke:#000000;stroke-width:0.8;" x="54" xlink:href="#mc83cd30c01" y="295.687567"/>
      </g>
     </g>
     <g id="text_11">
      <!-- 150 -->
      <g transform="translate(27.9125 299.486785)scale(0.1 -0.1)">
       <use xlink:href="#DejaVuSans-31"/>
       <use x="63.623047" xlink:href="#DejaVuSans-35"/>
       <use x="127.246094" xlink:href="#DejaVuSans-30"/>
      </g>
     </g>
    </g>
    <g id="ytick_5">
     <g id="line2d_11">
      <g>
       <use style="stroke:#000000;stroke-width:0.8;" x="54" xlink:href="#mc83cd30c01" y="223.370089"/>
      </g>
     </g>
     <g id="text_12">
      <!-- 200 -->
      <g transform="translate(27.9125 227.169308)scale(0.1 -0.1)">
       <use xlink:href="#DejaVuSans-32"/>
       <use x="63.623047" xlink:href="#DejaVuSans-30"/>
       <use x="127.246094" xlink:href="#DejaVuSans-30"/>
      </g>
     </g>
    </g>
    <g id="ytick_6">
     <g id="line2d_12">
      <g>
       <use style="stroke:#000000;stroke-width:0.8;" x="54" xlink:href="#mc83cd30c01" y="151.052611"/>
      </g>
     </g>
     <g id="text_13">
      <!-- 250 -->
      <g transform="translate(27.9125 154.85183)scale(0.1 -0.1)">
       <use xlink:href="#DejaVuSans-32"/>
       <use x="63.623047" xlink:href="#DejaVuSans-35"/>
       <use x="127.246094" xlink:href="#DejaVuSans-30"/>
      </g>
     </g>
    </g>
    <g id="ytick_7">
     <g id="line2d_13">
      <g>
       <use style="stroke:#000000;stroke-width:0.8;" x="54" xlink:href="#mc83cd30c01" y="78.735133"/>
      </g>
     </g>
     <g id="text_14">
      <!-- 300 -->
      <g transform="translate(27.9125 82.534352)scale(0.1 -0.1)">
       <defs>
        <path d="M 2597 2516 
Q 3050 2419 3304 2112 
Q 3559 1806 3559 1356 
Q 3559 666 3084 287 
Q 2609 -91 1734 -91 
Q 1441 -91 1130 -33 
Q 819 25 488 141 
L 488 750 
Q 750 597 1062 519 
Q 1375 441 1716 441 
Q 2309 441 2620 675 
Q 2931 909 2931 1356 
Q 2931 1769 2642 2001 
Q 2353 2234 1838 2234 
L 1294 2234 
L 1294 2753 
L 1863 2753 
Q 2328 2753 2575 2939 
Q 2822 3125 2822 3475 
Q 2822 3834 2567 4026 
Q 2313 4219 1838 4219 
Q 1578 4219 1281 4162 
Q 984 4106 628 3988 
L 628 4550 
Q 988 4650 1302 4700 
Q 1616 4750 1894 4750 
Q 2613 4750 3031 4423 
Q 3450 4097 3450 3541 
Q 3450 3153 3228 2886 
Q 3006 2619 2597 2516 
z
" id="DejaVuSans-33" transform="scale(0.015625)"/>
       </defs>
       <use xlink:href="#DejaVuSans-33"/>
       <use x="63.623047" xlink:href="#DejaVuSans-30"/>
       <use x="127.246094" xlink:href="#DejaVuSans-30"/>
      </g>
     </g>
    </g>
    <g id="text_15">
     <!-- Energy Generated (TWh) -->
     <g transform="translate(21.832812 353.158906)rotate(-90)scale(0.1 -0.1)">
      <defs>
       <path d="M 628 4666 
L 3578 4666 
L 3578 4134 
L 1259 4134 
L 1259 2753 
L 3481 2753 
L 3481 2222 
L 1259 2222 
L 1259 531 
L 3634 531 
L 3634 0 
L 628 0 
L 628 4666 
z
" id="DejaVuSans-45" transform="scale(0.015625)"/>
       <path d="M 2194 1759 
Q 1497 1759 1228 1600 
Q 959 1441 959 1056 
Q 959 750 1161 570 
Q 1363 391 1709 391 
Q 2188 391 2477 730 
Q 2766 1069 2766 1631 
L 2766 1759 
L 2194 1759 
z
M 3341 1997 
L 3341 0 
L 2766 0 
L 2766 531 
Q 2569 213 2275 61 
Q 1981 -91 1556 -91 
Q 1019 -91 701 211 
Q 384 513 384 1019 
Q 384 1609 779 1909 
Q 1175 2209 1959 2209 
L 2766 2209 
L 2766 2266 
Q 2766 2663 2505 2880 
Q 2244 3097 1772 3097 
Q 1472 3097 1187 3025 
Q 903 2953 641 2809 
L 641 3341 
Q 956 3463 1253 3523 
Q 1550 3584 1831 3584 
Q 2591 3584 2966 3190 
Q 3341 2797 3341 1997 
z
" id="DejaVuSans-61" transform="scale(0.015625)"/>
       <path d="M 213 4666 
L 850 4666 
L 1831 722 
L 2809 4666 
L 3519 4666 
L 4500 722 
L 5478 4666 
L 6119 4666 
L 4947 0 
L 4153 0 
L 3169 4050 
L 2175 0 
L 1381 0 
L 213 4666 
z
" id="DejaVuSans-57" transform="scale(0.015625)"/>
      </defs>
      <use xlink:href="#DejaVuSans-45"/>
      <use x="63.183594" xlink:href="#DejaVuSans-6e"/>
      <use x="126.5625" xlink:href="#DejaVuSans-65"/>
      <use x="188.085938" xlink:href="#DejaVuSans-72"/>
      <use x="227.449219" xlink:href="#DejaVuSans-67"/>
      <use x="290.925781" xlink:href="#DejaVuSans-79"/>
      <use x="350.105469" xlink:href="#DejaVuSans-20"/>
      <use x="381.892578" xlink:href="#DejaVuSans-47"/>
      <use x="459.382812" xlink:href="#DejaVuSans-65"/>
      <use x="520.90625" xlink:href="#DejaVuSans-6e"/>
      <use x="584.285156" xlink:href="#DejaVuSans-65"/>
      <use x="645.808594" xlink:href="#DejaVuSans-72"/>
      <use x="686.921875" xlink:href="#DejaVuSans-61"/>
      <use x="748.201172" xlink:href="#DejaVuSans-74"/>
      <use x="787.410156" xlink:href="#DejaVuSans-65"/>
      <use x="848.933594" xlink:href="#DejaVuSans-64"/>
      <use x="912.410156" xlink:href="#DejaVuSans-20"/>
      <use x="944.197266" xlink:href="#DejaVuSans-28"/>
      <use x="983.210938" xlink:href="#DejaVuSans-54"/>
      <use x="1044.294922" xlink:href="#DejaVuSans-57"/>
      <use x="1143.171875" xlink:href="#DejaVuSans-68"/>
      <use x="1206.550781" xlink:href="#DejaVuSans-29"/>
     </g>
    </g>
   </g>
   <g id="patch_3">
    <path d="M 54 512.64 
L 54 69.12 
" style="fill:none;stroke:#000000;stroke-linecap:square;stroke-linejoin:miter;stroke-width:0.8;"/>
   </g>
   <g id="patch_4">
    <path d="M 388.8 512.64 
L 388.8 69.12 
" style="fill:none;stroke:#000000;stroke-linecap:square;stroke-linejoin:miter;stroke-width:0.8;"/>
   </g>
   <g id="patch_5">
    <path d="M 54 512.64 
L 388.8 512.64 
" style="fill:none;stroke:#000000;stroke-linecap:square;stroke-linejoin:miter;stroke-width:0.8;"/>
   </g>
   <g id="patch_6">
    <path d="M 54 69.12 
L 388.8 69.12 
" style="fill:none;stroke:#000000;stroke-linecap:square;stroke-linejoin:miter;stroke-width:0.8;"/>
   </g>
  </g>
 </g>
 <defs>
  <clipPath id="p3e5243bd79">
   <rect height="443.52" width="334.8" x="54" y="69.12"/>
  </clipPath>
 </defs>
</svg>
