<?xml version="1.0" encoding="utf-8" standalone="no"?>
<!DOCTYPE svg PUBLIC "-//W3C//DTD SVG 1.1//EN"
  "http://www.w3.org/Graphics/SVG/1.1/DTD/svg11.dtd">
<svg height="576pt" version="1.1" viewBox="0 0 432 576" width="432pt" xmlns="http://www.w3.org/2000/svg" xmlns:xlink="http://www.w3.org/1999/xlink">
 <metadata>
  <rdf:RDF xmlns:cc="http://creativecommons.org/ns#" xmlns:dc="http://purl.org/dc/elements/1.1/" xmlns:rdf="http://www.w3.org/1999/02/22-rdf-syntax-ns#">
   <cc:Work>
    <dc:type rdf:resource="http://purl.org/dc/dcmitype/StillImage"/>
    <dc:date>2021-06-15T10:40:26.548014</dc:date>
    <dc:format>image/svg+xml</dc:format>
    <dc:creator>
     <cc:Agent>
      <dc:title>Matplotlib v3.4.1, https://matplotlib.org/</dc:title>
     </cc:Agent>
    </dc:creator>
   </cc:Work>
  </rdf:RDF>
 </metadata>
 <defs>
  <style type="text/css">*{stroke-linecap:butt;stroke-linejoin:round;}</style>
 </defs>
 <g id="figure_1">
  <g id="patch_1">
   <path d="M 0 576 
L 432 576 
L 432 0 
L 0 0 
z
" style="fill:#ffffff;"/>
  </g>
  <g id="axes_1">
   <g id="patch_2">
    <path d="M 54 512.64 
L 388.8 512.64 
L 388.8 69.12 
L 54 69.12 
z
" style="fill:#ffffff;"/>
   </g>
   <g id="PolyCollection_1">
    <path clip-path="url(#pd022a5ef18)" d="M 69.218182 370.917367 
L 69.218182 512.64 
L 72.292562 512.64 
L 75.366942 512.64 
L 78.441322 512.64 
L 81.515702 512.64 
L 84.590083 512.64 
L 87.664463 512.64 
L 90.738843 512.64 
L 93.813223 512.64 
L 96.887603 512.64 
L 99.961983 512.64 
L 103.036364 512.64 
L 106.110744 512.64 
L 109.185124 512.64 
L 112.259504 512.64 
L 115.333884 512.64 
L 118.408264 512.64 
L 121.482645 512.64 
L 124.557025 512.64 
L 127.631405 512.64 
L 130.705785 512.64 
L 133.780165 512.64 
L 136.854545 512.64 
L 139.928926 512.64 
L 143.003306 512.64 
L 146.077686 512.64 
L 149.152066 512.64 
L 152.226446 512.64 
L 155.300826 512.64 
L 158.375207 512.64 
L 161.449587 512.64 
L 164.523967 512.64 
L 167.598347 512.64 
L 170.672727 512.64 
L 173.747107 512.64 
L 176.821488 512.64 
L 179.895868 512.64 
L 182.970248 512.64 
L 186.044628 512.64 
L 189.119008 512.64 
L 192.193388 512.64 
L 195.267769 512.64 
L 198.342149 512.64 
L 201.416529 512.64 
L 204.490909 512.64 
L 207.565289 512.64 
L 210.639669 512.64 
L 213.71405 512.64 
L 216.78843 512.64 
L 219.86281 512.64 
L 222.93719 512.64 
L 226.01157 512.64 
L 229.08595 512.64 
L 232.160331 512.64 
L 235.234711 512.64 
L 238.309091 512.64 
L 241.383471 512.64 
L 244.457851 512.64 
L 247.532231 512.64 
L 250.606612 512.64 
L 253.680992 512.64 
L 256.755372 512.64 
L 259.829752 512.64 
L 262.904132 512.64 
L 265.978512 512.64 
L 269.052893 512.64 
L 272.127273 512.64 
L 275.201653 512.64 
L 278.276033 512.64 
L 281.350413 512.64 
L 284.424793 512.64 
L 287.499174 512.64 
L 290.573554 512.64 
L 293.647934 512.64 
L 296.722314 512.64 
L 299.796694 512.64 
L 302.871074 512.64 
L 305.945455 512.64 
L 309.019835 512.64 
L 312.094215 512.64 
L 315.168595 512.64 
L 318.242975 512.64 
L 321.317355 512.64 
L 324.391736 512.64 
L 327.466116 512.64 
L 330.540496 512.64 
L 333.614876 512.64 
L 336.689256 512.64 
L 339.763636 512.64 
L 342.838017 512.64 
L 345.912397 512.64 
L 348.986777 512.64 
L 352.061157 512.64 
L 355.135537 512.64 
L 358.209917 512.64 
L 361.284298 512.64 
L 364.358678 512.64 
L 367.433058 512.64 
L 370.507438 512.64 
L 373.581818 512.64 
L 373.581818 374.08099 
L 373.581818 374.08099 
L 370.507438 374.049035 
L 367.433058 374.017079 
L 364.358678 373.985123 
L 361.284298 373.953167 
L 358.209917 373.921211 
L 355.135537 373.889256 
L 352.061157 373.8573 
L 348.986777 373.825344 
L 345.912397 373.793388 
L 342.838017 373.761433 
L 339.763636 373.729477 
L 336.689256 373.697521 
L 333.614876 373.665565 
L 330.540496 373.633609 
L 327.466116 373.601654 
L 324.391736 373.569698 
L 321.317355 373.537742 
L 318.242975 373.505786 
L 315.168595 373.47383 
L 312.094215 373.441875 
L 309.019835 373.409919 
L 305.945455 373.377963 
L 302.871074 373.346007 
L 299.796694 373.314052 
L 296.722314 373.282096 
L 293.647934 373.25014 
L 290.573554 373.218184 
L 287.499174 373.186228 
L 284.424793 373.154273 
L 281.350413 373.122317 
L 278.276033 373.090361 
L 275.201653 373.058405 
L 272.127273 373.026449 
L 269.052893 372.994494 
L 265.978512 372.962538 
L 262.904132 372.930582 
L 259.829752 372.898626 
L 256.755372 372.86667 
L 253.680992 372.834715 
L 250.606612 372.802759 
L 247.532231 372.770803 
L 244.457851 372.738847 
L 241.383471 372.706892 
L 238.309091 372.674936 
L 235.234711 372.64298 
L 232.160331 372.611024 
L 229.08595 372.579068 
L 226.01157 372.547113 
L 222.93719 372.515157 
L 219.86281 372.483201 
L 216.78843 372.451245 
L 213.71405 372.419289 
L 210.639669 372.387334 
L 207.565289 372.355378 
L 204.490909 372.323422 
L 201.416529 372.291466 
L 198.342149 372.259511 
L 195.267769 372.227555 
L 192.193388 372.195599 
L 189.119008 372.163643 
L 186.044628 372.131687 
L 182.970248 372.099732 
L 179.895868 372.067776 
L 176.821488 372.03582 
L 173.747107 372.003864 
L 170.672727 371.971908 
L 167.598347 371.939953 
L 164.523967 371.907997 
L 161.449587 371.876041 
L 158.375207 371.844085 
L 155.300826 371.81213 
L 152.226446 371.780174 
L 149.152066 371.748218 
L 146.077686 371.716262 
L 143.003306 371.684306 
L 139.928926 371.652351 
L 136.854545 371.620395 
L 133.780165 371.588439 
L 130.705785 371.556483 
L 127.631405 371.524527 
L 124.557025 371.492572 
L 121.482645 371.460616 
L 118.408264 371.42866 
L 115.333884 371.396704 
L 112.259504 371.364748 
L 109.185124 371.332793 
L 106.110744 371.300837 
L 103.036364 371.268881 
L 99.961983 371.236925 
L 96.887603 371.20497 
L 93.813223 371.173014 
L 90.738843 371.141058 
L 87.664463 371.109102 
L 84.590083 371.077146 
L 81.515702 371.045191 
L 78.441322 371.013235 
L 75.366942 370.981279 
L 72.292562 370.949323 
L 69.218182 370.917367 
z
" style="fill:#3182bd;"/>
   </g>
   <g id="PolyCollection_2">
    <path clip-path="url(#pd022a5ef18)" d="M 69.218182 261.609053 
L 69.218182 370.917367 
L 72.292562 370.949323 
L 75.366942 370.981279 
L 78.441322 371.013235 
L 81.515702 371.045191 
L 84.590083 371.077146 
L 87.664463 371.109102 
L 90.738843 371.141058 
L 93.813223 371.173014 
L 96.887603 371.20497 
L 99.961983 371.236925 
L 103.036364 371.268881 
L 106.110744 371.300837 
L 109.185124 371.332793 
L 112.259504 371.364748 
L 115.333884 371.396704 
L 118.408264 371.42866 
L 121.482645 371.460616 
L 124.557025 371.492572 
L 127.631405 371.524527 
L 130.705785 371.556483 
L 133.780165 371.588439 
L 136.854545 371.620395 
L 139.928926 371.652351 
L 143.003306 371.684306 
L 146.077686 371.716262 
L 149.152066 371.748218 
L 152.226446 371.780174 
L 155.300826 371.81213 
L 158.375207 371.844085 
L 161.449587 371.876041 
L 164.523967 371.907997 
L 167.598347 371.939953 
L 170.672727 371.971908 
L 173.747107 372.003864 
L 176.821488 372.03582 
L 179.895868 372.067776 
L 182.970248 372.099732 
L 186.044628 372.131687 
L 189.119008 372.163643 
L 192.193388 372.195599 
L 195.267769 372.227555 
L 198.342149 372.259511 
L 201.416529 372.291466 
L 204.490909 372.323422 
L 207.565289 372.355378 
L 210.639669 372.387334 
L 213.71405 372.419289 
L 216.78843 372.451245 
L 219.86281 372.483201 
L 222.93719 372.515157 
L 226.01157 372.547113 
L 229.08595 372.579068 
L 232.160331 372.611024 
L 235.234711 372.64298 
L 238.309091 372.674936 
L 241.383471 372.706892 
L 244.457851 372.738847 
L 247.532231 372.770803 
L 250.606612 372.802759 
L 253.680992 372.834715 
L 256.755372 372.86667 
L 259.829752 372.898626 
L 262.904132 372.930582 
L 265.978512 372.962538 
L 269.052893 372.994494 
L 272.127273 373.026449 
L 275.201653 373.058405 
L 278.276033 373.090361 
L 281.350413 373.122317 
L 284.424793 373.154273 
L 287.499174 373.186228 
L 290.573554 373.218184 
L 293.647934 373.25014 
L 296.722314 373.282096 
L 299.796694 373.314052 
L 302.871074 373.346007 
L 305.945455 373.377963 
L 309.019835 373.409919 
L 312.094215 373.441875 
L 315.168595 373.47383 
L 318.242975 373.505786 
L 321.317355 373.537742 
L 324.391736 373.569698 
L 327.466116 373.601654 
L 330.540496 373.633609 
L 333.614876 373.665565 
L 336.689256 373.697521 
L 339.763636 373.729477 
L 342.838017 373.761433 
L 345.912397 373.793388 
L 348.986777 373.825344 
L 352.061157 373.8573 
L 355.135537 373.889256 
L 358.209917 373.921211 
L 361.284298 373.953167 
L 364.358678 373.985123 
L 367.433058 374.017079 
L 370.507438 374.049035 
L 373.581818 374.08099 
L 373.581818 264.772676 
L 373.581818 264.772676 
L 370.507438 264.74072 
L 367.433058 264.708764 
L 364.358678 264.676808 
L 361.284298 264.644852 
L 358.209917 264.612897 
L 355.135537 264.580941 
L 352.061157 264.548985 
L 348.986777 264.517029 
L 345.912397 264.485074 
L 342.838017 264.453118 
L 339.763636 264.421162 
L 336.689256 264.389206 
L 333.614876 264.35725 
L 330.540496 264.325295 
L 327.466116 264.293339 
L 324.391736 264.261383 
L 321.317355 264.229427 
L 318.242975 264.197471 
L 315.168595 264.165516 
L 312.094215 264.13356 
L 309.019835 264.101604 
L 305.945455 264.069648 
L 302.871074 264.037692 
L 299.796694 264.005737 
L 296.722314 263.973781 
L 293.647934 263.941825 
L 290.573554 263.909869 
L 287.499174 263.877914 
L 284.424793 263.845958 
L 281.350413 263.814002 
L 278.276033 263.782046 
L 275.201653 263.75009 
L 272.127273 263.718135 
L 269.052893 263.686179 
L 265.978512 263.654223 
L 262.904132 263.622267 
L 259.829752 263.590311 
L 256.755372 263.558356 
L 253.680992 263.5264 
L 250.606612 263.494444 
L 247.532231 263.462488 
L 244.457851 263.430533 
L 241.383471 263.398577 
L 238.309091 263.366621 
L 235.234711 263.334665 
L 232.160331 263.302709 
L 229.08595 263.270754 
L 226.01157 263.238798 
L 222.93719 263.206842 
L 219.86281 263.174886 
L 216.78843 263.14293 
L 213.71405 263.110975 
L 210.639669 263.079019 
L 207.565289 263.047063 
L 204.490909 263.015107 
L 201.416529 262.983152 
L 198.342149 262.951196 
L 195.267769 262.91924 
L 192.193388 262.887284 
L 189.119008 262.855328 
L 186.044628 262.823373 
L 182.970248 262.791417 
L 179.895868 262.759461 
L 176.821488 262.727505 
L 173.747107 262.695549 
L 170.672727 262.663594 
L 167.598347 262.631638 
L 164.523967 262.599682 
L 161.449587 262.567726 
L 158.375207 262.53577 
L 155.300826 262.503815 
L 152.226446 262.471859 
L 149.152066 262.439903 
L 146.077686 262.407947 
L 143.003306 262.375992 
L 139.928926 262.344036 
L 136.854545 262.31208 
L 133.780165 262.280124 
L 130.705785 262.248168 
L 127.631405 262.216213 
L 124.557025 262.184257 
L 121.482645 262.152301 
L 118.408264 262.120345 
L 115.333884 262.088389 
L 112.259504 262.056434 
L 109.185124 262.024478 
L 106.110744 261.992522 
L 103.036364 261.960566 
L 99.961983 261.928611 
L 96.887603 261.896655 
L 93.813223 261.864699 
L 90.738843 261.832743 
L 87.664463 261.800787 
L 84.590083 261.768832 
L 81.515702 261.736876 
L 78.441322 261.70492 
L 75.366942 261.672964 
L 72.292562 261.641008 
L 69.218182 261.609053 
z
" style="fill:#6baed6;"/>
   </g>
   <g id="PolyCollection_3">
    <path clip-path="url(#pd022a5ef18)" d="M 69.218182 257.649456 
L 69.218182 261.609053 
L 72.292562 261.641008 
L 75.366942 261.672964 
L 78.441322 261.70492 
L 81.515702 261.736876 
L 84.590083 261.768832 
L 87.664463 261.800787 
L 90.738843 261.832743 
L 93.813223 261.864699 
L 96.887603 261.896655 
L 99.961983 261.928611 
L 103.036364 261.960566 
L 106.110744 261.992522 
L 109.185124 262.024478 
L 112.259504 262.056434 
L 115.333884 262.088389 
L 118.408264 262.120345 
L 121.482645 262.152301 
L 124.557025 262.184257 
L 127.631405 262.216213 
L 130.705785 262.248168 
L 133.780165 262.280124 
L 136.854545 262.31208 
L 139.928926 262.344036 
L 143.003306 262.375992 
L 146.077686 262.407947 
L 149.152066 262.439903 
L 152.226446 262.471859 
L 155.300826 262.503815 
L 158.375207 262.53577 
L 161.449587 262.567726 
L 164.523967 262.599682 
L 167.598347 262.631638 
L 170.672727 262.663594 
L 173.747107 262.695549 
L 176.821488 262.727505 
L 179.895868 262.759461 
L 182.970248 262.791417 
L 186.044628 262.823373 
L 189.119008 262.855328 
L 192.193388 262.887284 
L 195.267769 262.91924 
L 198.342149 262.951196 
L 201.416529 262.983152 
L 204.490909 263.015107 
L 207.565289 263.047063 
L 210.639669 263.079019 
L 213.71405 263.110975 
L 216.78843 263.14293 
L 219.86281 263.174886 
L 222.93719 263.206842 
L 226.01157 263.238798 
L 229.08595 263.270754 
L 232.160331 263.302709 
L 235.234711 263.334665 
L 238.309091 263.366621 
L 241.383471 263.398577 
L 244.457851 263.430533 
L 247.532231 263.462488 
L 250.606612 263.494444 
L 253.680992 263.5264 
L 256.755372 263.558356 
L 259.829752 263.590311 
L 262.904132 263.622267 
L 265.978512 263.654223 
L 269.052893 263.686179 
L 272.127273 263.718135 
L 275.201653 263.75009 
L 278.276033 263.782046 
L 281.350413 263.814002 
L 284.424793 263.845958 
L 287.499174 263.877914 
L 290.573554 263.909869 
L 293.647934 263.941825 
L 296.722314 263.973781 
L 299.796694 264.005737 
L 302.871074 264.037692 
L 305.945455 264.069648 
L 309.019835 264.101604 
L 312.094215 264.13356 
L 315.168595 264.165516 
L 318.242975 264.197471 
L 321.317355 264.229427 
L 324.391736 264.261383 
L 327.466116 264.293339 
L 330.540496 264.325295 
L 333.614876 264.35725 
L 336.689256 264.389206 
L 339.763636 264.421162 
L 342.838017 264.453118 
L 345.912397 264.485074 
L 348.986777 264.517029 
L 352.061157 264.548985 
L 355.135537 264.580941 
L 358.209917 264.612897 
L 361.284298 264.644852 
L 364.358678 264.676808 
L 367.433058 264.708764 
L 370.507438 264.74072 
L 373.581818 264.772676 
L 373.581818 260.813079 
L 373.581818 260.813079 
L 370.507438 260.781123 
L 367.433058 260.749167 
L 364.358678 260.717211 
L 361.284298 260.685255 
L 358.209917 260.6533 
L 355.135537 260.621344 
L 352.061157 260.589388 
L 348.986777 260.557432 
L 345.912397 260.525476 
L 342.838017 260.493521 
L 339.763636 260.461565 
L 336.689256 260.429609 
L 333.614876 260.397653 
L 330.540496 260.365698 
L 327.466116 260.333742 
L 324.391736 260.301786 
L 321.317355 260.26983 
L 318.242975 260.237874 
L 315.168595 260.205919 
L 312.094215 260.173963 
L 309.019835 260.142007 
L 305.945455 260.110051 
L 302.871074 260.078095 
L 299.796694 260.04614 
L 296.722314 260.014184 
L 293.647934 259.982228 
L 290.573554 259.950272 
L 287.499174 259.918317 
L 284.424793 259.886361 
L 281.350413 259.854405 
L 278.276033 259.822449 
L 275.201653 259.790493 
L 272.127273 259.758538 
L 269.052893 259.726582 
L 265.978512 259.694626 
L 262.904132 259.66267 
L 259.829752 259.630714 
L 256.755372 259.598759 
L 253.680992 259.566803 
L 250.606612 259.534847 
L 247.532231 259.502891 
L 244.457851 259.470935 
L 241.383471 259.43898 
L 238.309091 259.407024 
L 235.234711 259.375068 
L 232.160331 259.343112 
L 229.08595 259.311157 
L 226.01157 259.279201 
L 222.93719 259.247245 
L 219.86281 259.215289 
L 216.78843 259.183333 
L 213.71405 259.151378 
L 210.639669 259.119422 
L 207.565289 259.087466 
L 204.490909 259.05551 
L 201.416529 259.023554 
L 198.342149 258.991599 
L 195.267769 258.959643 
L 192.193388 258.927687 
L 189.119008 258.895731 
L 186.044628 258.863776 
L 182.970248 258.83182 
L 179.895868 258.799864 
L 176.821488 258.767908 
L 173.747107 258.735952 
L 170.672727 258.703997 
L 167.598347 258.672041 
L 164.523967 258.640085 
L 161.449587 258.608129 
L 158.375207 258.576173 
L 155.300826 258.544218 
L 152.226446 258.512262 
L 149.152066 258.480306 
L 146.077686 258.44835 
L 143.003306 258.416394 
L 139.928926 258.384439 
L 136.854545 258.352483 
L 133.780165 258.320527 
L 130.705785 258.288571 
L 127.631405 258.256616 
L 124.557025 258.22466 
L 121.482645 258.192704 
L 118.408264 258.160748 
L 115.333884 258.128792 
L 112.259504 258.096837 
L 109.185124 258.064881 
L 106.110744 258.032925 
L 103.036364 258.000969 
L 99.961983 257.969013 
L 96.887603 257.937058 
L 93.813223 257.905102 
L 90.738843 257.873146 
L 87.664463 257.84119 
L 84.590083 257.809235 
L 81.515702 257.777279 
L 78.441322 257.745323 
L 75.366942 257.713367 
L 72.292562 257.681411 
L 69.218182 257.649456 
z
" style="fill:#9ecae1;"/>
   </g>
   <g id="PolyCollection_4">
    <path clip-path="url(#pd022a5ef18)" d="M 69.218182 251.878892 
L 69.218182 257.649456 
L 72.292562 257.681411 
L 75.366942 257.713367 
L 78.441322 257.745323 
L 81.515702 257.777279 
L 84.590083 257.809235 
L 87.664463 257.84119 
L 90.738843 257.873146 
L 93.813223 257.905102 
L 96.887603 257.937058 
L 99.961983 257.969013 
L 103.036364 258.000969 
L 106.110744 258.032925 
L 109.185124 258.064881 
L 112.259504 258.096837 
L 115.333884 258.128792 
L 118.408264 258.160748 
L 121.482645 258.192704 
L 124.557025 258.22466 
L 127.631405 258.256616 
L 130.705785 258.288571 
L 133.780165 258.320527 
L 136.854545 258.352483 
L 139.928926 258.384439 
L 143.003306 258.416394 
L 146.077686 258.44835 
L 149.152066 258.480306 
L 152.226446 258.512262 
L 155.300826 258.544218 
L 158.375207 258.576173 
L 161.449587 258.608129 
L 164.523967 258.640085 
L 167.598347 258.672041 
L 170.672727 258.703997 
L 173.747107 258.735952 
L 176.821488 258.767908 
L 179.895868 258.799864 
L 182.970248 258.83182 
L 186.044628 258.863776 
L 189.119008 258.895731 
L 192.193388 258.927687 
L 195.267769 258.959643 
L 198.342149 258.991599 
L 201.416529 259.023554 
L 204.490909 259.05551 
L 207.565289 259.087466 
L 210.639669 259.119422 
L 213.71405 259.151378 
L 216.78843 259.183333 
L 219.86281 259.215289 
L 222.93719 259.247245 
L 226.01157 259.279201 
L 229.08595 259.311157 
L 232.160331 259.343112 
L 235.234711 259.375068 
L 238.309091 259.407024 
L 241.383471 259.43898 
L 244.457851 259.470935 
L 247.532231 259.502891 
L 250.606612 259.534847 
L 253.680992 259.566803 
L 256.755372 259.598759 
L 259.829752 259.630714 
L 262.904132 259.66267 
L 265.978512 259.694626 
L 269.052893 259.726582 
L 272.127273 259.758538 
L 275.201653 259.790493 
L 278.276033 259.822449 
L 281.350413 259.854405 
L 284.424793 259.886361 
L 287.499174 259.918317 
L 290.573554 259.950272 
L 293.647934 259.982228 
L 296.722314 260.014184 
L 299.796694 260.04614 
L 302.871074 260.078095 
L 305.945455 260.110051 
L 309.019835 260.142007 
L 312.094215 260.173963 
L 315.168595 260.205919 
L 318.242975 260.237874 
L 321.317355 260.26983 
L 324.391736 260.301786 
L 327.466116 260.333742 
L 330.540496 260.365698 
L 333.614876 260.397653 
L 336.689256 260.429609 
L 339.763636 260.461565 
L 342.838017 260.493521 
L 345.912397 260.525476 
L 348.986777 260.557432 
L 352.061157 260.589388 
L 355.135537 260.621344 
L 358.209917 260.6533 
L 361.284298 260.685255 
L 364.358678 260.717211 
L 367.433058 260.749167 
L 370.507438 260.781123 
L 373.581818 260.813079 
L 373.581818 255.042515 
L 373.581818 255.042515 
L 370.507438 255.010559 
L 367.433058 254.978603 
L 364.358678 254.946647 
L 361.284298 254.914692 
L 358.209917 254.882736 
L 355.135537 254.85078 
L 352.061157 254.818824 
L 348.986777 254.786868 
L 345.912397 254.754913 
L 342.838017 254.722957 
L 339.763636 254.691001 
L 336.689256 254.659045 
L 333.614876 254.627089 
L 330.540496 254.595134 
L 327.466116 254.563178 
L 324.391736 254.531222 
L 321.317355 254.499266 
L 318.242975 254.467311 
L 315.168595 254.435355 
L 312.094215 254.403399 
L 309.019835 254.371443 
L 305.945455 254.339487 
L 302.871074 254.307532 
L 299.796694 254.275576 
L 296.722314 254.24362 
L 293.647934 254.211664 
L 290.573554 254.179708 
L 287.499174 254.147753 
L 284.424793 254.115797 
L 281.350413 254.083841 
L 278.276033 254.051885 
L 275.201653 254.019929 
L 272.127273 253.987974 
L 269.052893 253.956018 
L 265.978512 253.924062 
L 262.904132 253.892106 
L 259.829752 253.860151 
L 256.755372 253.828195 
L 253.680992 253.796239 
L 250.606612 253.764283 
L 247.532231 253.732327 
L 244.457851 253.700372 
L 241.383471 253.668416 
L 238.309091 253.63646 
L 235.234711 253.604504 
L 232.160331 253.572548 
L 229.08595 253.540593 
L 226.01157 253.508637 
L 222.93719 253.476681 
L 219.86281 253.444725 
L 216.78843 253.41277 
L 213.71405 253.380814 
L 210.639669 253.348858 
L 207.565289 253.316902 
L 204.490909 253.284946 
L 201.416529 253.252991 
L 198.342149 253.221035 
L 195.267769 253.189079 
L 192.193388 253.157123 
L 189.119008 253.125167 
L 186.044628 253.093212 
L 182.970248 253.061256 
L 179.895868 253.0293 
L 176.821488 252.997344 
L 173.747107 252.965389 
L 170.672727 252.933433 
L 167.598347 252.901477 
L 164.523967 252.869521 
L 161.449587 252.837565 
L 158.375207 252.80561 
L 155.300826 252.773654 
L 152.226446 252.741698 
L 149.152066 252.709742 
L 146.077686 252.677786 
L 143.003306 252.645831 
L 139.928926 252.613875 
L 136.854545 252.581919 
L 133.780165 252.549963 
L 130.705785 252.518007 
L 127.631405 252.486052 
L 124.557025 252.454096 
L 121.482645 252.42214 
L 118.408264 252.390184 
L 115.333884 252.358229 
L 112.259504 252.326273 
L 109.185124 252.294317 
L 106.110744 252.262361 
L 103.036364 252.230405 
L 99.961983 252.19845 
L 96.887603 252.166494 
L 93.813223 252.134538 
L 90.738843 252.102582 
L 87.664463 252.070626 
L 84.590083 252.038671 
L 81.515702 252.006715 
L 78.441322 251.974759 
L 75.366942 251.942803 
L 72.292562 251.910848 
L 69.218182 251.878892 
z
" style="fill:#c6dbef;"/>
   </g>
   <g id="PolyCollection_5">
    <path clip-path="url(#pd022a5ef18)" d="M 69.218182 230.533117 
L 69.218182 251.878892 
L 72.292562 251.910848 
L 75.366942 251.942803 
L 78.441322 251.974759 
L 81.515702 252.006715 
L 84.590083 252.038671 
L 87.664463 252.070626 
L 90.738843 252.102582 
L 93.813223 252.134538 
L 96.887603 252.166494 
L 99.961983 252.19845 
L 103.036364 252.230405 
L 106.110744 252.262361 
L 109.185124 252.294317 
L 112.259504 252.326273 
L 115.333884 252.358229 
L 118.408264 252.390184 
L 121.482645 252.42214 
L 124.557025 252.454096 
L 127.631405 252.486052 
L 130.705785 252.518007 
L 133.780165 252.549963 
L 136.854545 252.581919 
L 139.928926 252.613875 
L 143.003306 252.645831 
L 146.077686 252.677786 
L 149.152066 252.709742 
L 152.226446 252.741698 
L 155.300826 252.773654 
L 158.375207 252.80561 
L 161.449587 252.837565 
L 164.523967 252.869521 
L 167.598347 252.901477 
L 170.672727 252.933433 
L 173.747107 252.965389 
L 176.821488 252.997344 
L 179.895868 253.0293 
L 182.970248 253.061256 
L 186.044628 253.093212 
L 189.119008 253.125167 
L 192.193388 253.157123 
L 195.267769 253.189079 
L 198.342149 253.221035 
L 201.416529 253.252991 
L 204.490909 253.284946 
L 207.565289 253.316902 
L 210.639669 253.348858 
L 213.71405 253.380814 
L 216.78843 253.41277 
L 219.86281 253.444725 
L 222.93719 253.476681 
L 226.01157 253.508637 
L 229.08595 253.540593 
L 232.160331 253.572548 
L 235.234711 253.604504 
L 238.309091 253.63646 
L 241.383471 253.668416 
L 244.457851 253.700372 
L 247.532231 253.732327 
L 250.606612 253.764283 
L 253.680992 253.796239 
L 256.755372 253.828195 
L 259.829752 253.860151 
L 262.904132 253.892106 
L 265.978512 253.924062 
L 269.052893 253.956018 
L 272.127273 253.987974 
L 275.201653 254.019929 
L 278.276033 254.051885 
L 281.350413 254.083841 
L 284.424793 254.115797 
L 287.499174 254.147753 
L 290.573554 254.179708 
L 293.647934 254.211664 
L 296.722314 254.24362 
L 299.796694 254.275576 
L 302.871074 254.307532 
L 305.945455 254.339487 
L 309.019835 254.371443 
L 312.094215 254.403399 
L 315.168595 254.435355 
L 318.242975 254.467311 
L 321.317355 254.499266 
L 324.391736 254.531222 
L 327.466116 254.563178 
L 330.540496 254.595134 
L 333.614876 254.627089 
L 336.689256 254.659045 
L 339.763636 254.691001 
L 342.838017 254.722957 
L 345.912397 254.754913 
L 348.986777 254.786868 
L 352.061157 254.818824 
L 355.135537 254.85078 
L 358.209917 254.882736 
L 361.284298 254.914692 
L 364.358678 254.946647 
L 367.433058 254.978603 
L 370.507438 255.010559 
L 373.581818 255.042515 
L 373.581818 233.69674 
L 373.581818 233.69674 
L 370.507438 233.664784 
L 367.433058 233.632829 
L 364.358678 233.600873 
L 361.284298 233.568917 
L 358.209917 233.536961 
L 355.135537 233.505005 
L 352.061157 233.47305 
L 348.986777 233.441094 
L 345.912397 233.409138 
L 342.838017 233.377182 
L 339.763636 233.345226 
L 336.689256 233.313271 
L 333.614876 233.281315 
L 330.540496 233.249359 
L 327.466116 233.217403 
L 324.391736 233.185448 
L 321.317355 233.153492 
L 318.242975 233.121536 
L 315.168595 233.08958 
L 312.094215 233.057624 
L 309.019835 233.025669 
L 305.945455 232.993713 
L 302.871074 232.961757 
L 299.796694 232.929801 
L 296.722314 232.897845 
L 293.647934 232.86589 
L 290.573554 232.833934 
L 287.499174 232.801978 
L 284.424793 232.770022 
L 281.350413 232.738067 
L 278.276033 232.706111 
L 275.201653 232.674155 
L 272.127273 232.642199 
L 269.052893 232.610243 
L 265.978512 232.578288 
L 262.904132 232.546332 
L 259.829752 232.514376 
L 256.755372 232.48242 
L 253.680992 232.450464 
L 250.606612 232.418509 
L 247.532231 232.386553 
L 244.457851 232.354597 
L 241.383471 232.322641 
L 238.309091 232.290685 
L 235.234711 232.25873 
L 232.160331 232.226774 
L 229.08595 232.194818 
L 226.01157 232.162862 
L 222.93719 232.130907 
L 219.86281 232.098951 
L 216.78843 232.066995 
L 213.71405 232.035039 
L 210.639669 232.003083 
L 207.565289 231.971128 
L 204.490909 231.939172 
L 201.416529 231.907216 
L 198.342149 231.87526 
L 195.267769 231.843304 
L 192.193388 231.811349 
L 189.119008 231.779393 
L 186.044628 231.747437 
L 182.970248 231.715481 
L 179.895868 231.683526 
L 176.821488 231.65157 
L 173.747107 231.619614 
L 170.672727 231.587658 
L 167.598347 231.555702 
L 164.523967 231.523747 
L 161.449587 231.491791 
L 158.375207 231.459835 
L 155.300826 231.427879 
L 152.226446 231.395923 
L 149.152066 231.363968 
L 146.077686 231.332012 
L 143.003306 231.300056 
L 139.928926 231.2681 
L 136.854545 231.236144 
L 133.780165 231.204189 
L 130.705785 231.172233 
L 127.631405 231.140277 
L 124.557025 231.108321 
L 121.482645 231.076366 
L 118.408264 231.04441 
L 115.333884 231.012454 
L 112.259504 230.980498 
L 109.185124 230.948542 
L 106.110744 230.916587 
L 103.036364 230.884631 
L 99.961983 230.852675 
L 96.887603 230.820719 
L 93.813223 230.788763 
L 90.738843 230.756808 
L 87.664463 230.724852 
L 84.590083 230.692896 
L 81.515702 230.66094 
L 78.441322 230.628985 
L 75.366942 230.597029 
L 72.292562 230.565073 
L 69.218182 230.533117 
z
" style="fill:#e6550d;"/>
   </g>
   <g id="PolyCollection_6">
    <path clip-path="url(#pd022a5ef18)" d="M 69.218182 204.705355 
L 69.218182 230.533117 
L 72.292562 230.565073 
L 75.366942 230.597029 
L 78.441322 230.628985 
L 81.515702 230.66094 
L 84.590083 230.692896 
L 87.664463 230.724852 
L 90.738843 230.756808 
L 93.813223 230.788763 
L 96.887603 230.820719 
L 99.961983 230.852675 
L 103.036364 230.884631 
L 106.110744 230.916587 
L 109.185124 230.948542 
L 112.259504 230.980498 
L 115.333884 231.012454 
L 118.408264 231.04441 
L 121.482645 231.076366 
L 124.557025 231.108321 
L 127.631405 231.140277 
L 130.705785 231.172233 
L 133.780165 231.204189 
L 136.854545 231.236144 
L 139.928926 231.2681 
L 143.003306 231.300056 
L 146.077686 231.332012 
L 149.152066 231.363968 
L 152.226446 231.395923 
L 155.300826 231.427879 
L 158.375207 231.459835 
L 161.449587 231.491791 
L 164.523967 231.523747 
L 167.598347 231.555702 
L 170.672727 231.587658 
L 173.747107 231.619614 
L 176.821488 231.65157 
L 179.895868 231.683526 
L 182.970248 231.715481 
L 186.044628 231.747437 
L 189.119008 231.779393 
L 192.193388 231.811349 
L 195.267769 231.843304 
L 198.342149 231.87526 
L 201.416529 231.907216 
L 204.490909 231.939172 
L 207.565289 231.971128 
L 210.639669 232.003083 
L 213.71405 232.035039 
L 216.78843 232.066995 
L 219.86281 232.098951 
L 222.93719 232.130907 
L 226.01157 232.162862 
L 229.08595 232.194818 
L 232.160331 232.226774 
L 235.234711 232.25873 
L 238.309091 232.290685 
L 241.383471 232.322641 
L 244.457851 232.354597 
L 247.532231 232.386553 
L 250.606612 232.418509 
L 253.680992 232.450464 
L 256.755372 232.48242 
L 259.829752 232.514376 
L 262.904132 232.546332 
L 265.978512 232.578288 
L 269.052893 232.610243 
L 272.127273 232.642199 
L 275.201653 232.674155 
L 278.276033 232.706111 
L 281.350413 232.738067 
L 284.424793 232.770022 
L 287.499174 232.801978 
L 290.573554 232.833934 
L 293.647934 232.86589 
L 296.722314 232.897845 
L 299.796694 232.929801 
L 302.871074 232.961757 
L 305.945455 232.993713 
L 309.019835 233.025669 
L 312.094215 233.057624 
L 315.168595 233.08958 
L 318.242975 233.121536 
L 321.317355 233.153492 
L 324.391736 233.185448 
L 327.466116 233.217403 
L 330.540496 233.249359 
L 333.614876 233.281315 
L 336.689256 233.313271 
L 339.763636 233.345226 
L 342.838017 233.377182 
L 345.912397 233.409138 
L 348.986777 233.441094 
L 352.061157 233.47305 
L 355.135537 233.505005 
L 358.209917 233.536961 
L 361.284298 233.568917 
L 364.358678 233.600873 
L 367.433058 233.632829 
L 370.507438 233.664784 
L 373.581818 233.69674 
L 373.581818 207.868978 
L 373.581818 207.868978 
L 370.507438 207.837023 
L 367.433058 207.805067 
L 364.358678 207.773111 
L 361.284298 207.741155 
L 358.209917 207.7092 
L 355.135537 207.677244 
L 352.061157 207.645288 
L 348.986777 207.613332 
L 345.912397 207.581376 
L 342.838017 207.549421 
L 339.763636 207.517465 
L 336.689256 207.485509 
L 333.614876 207.453553 
L 330.540496 207.421597 
L 327.466116 207.389642 
L 324.391736 207.357686 
L 321.317355 207.32573 
L 318.242975 207.293774 
L 315.168595 207.261818 
L 312.094215 207.229863 
L 309.019835 207.197907 
L 305.945455 207.165951 
L 302.871074 207.133995 
L 299.796694 207.10204 
L 296.722314 207.070084 
L 293.647934 207.038128 
L 290.573554 207.006172 
L 287.499174 206.974216 
L 284.424793 206.942261 
L 281.350413 206.910305 
L 278.276033 206.878349 
L 275.201653 206.846393 
L 272.127273 206.814437 
L 269.052893 206.782482 
L 265.978512 206.750526 
L 262.904132 206.71857 
L 259.829752 206.686614 
L 256.755372 206.654659 
L 253.680992 206.622703 
L 250.606612 206.590747 
L 247.532231 206.558791 
L 244.457851 206.526835 
L 241.383471 206.49488 
L 238.309091 206.462924 
L 235.234711 206.430968 
L 232.160331 206.399012 
L 229.08595 206.367056 
L 226.01157 206.335101 
L 222.93719 206.303145 
L 219.86281 206.271189 
L 216.78843 206.239233 
L 213.71405 206.207277 
L 210.639669 206.175322 
L 207.565289 206.143366 
L 204.490909 206.11141 
L 201.416529 206.079454 
L 198.342149 206.047499 
L 195.267769 206.015543 
L 192.193388 205.983587 
L 189.119008 205.951631 
L 186.044628 205.919675 
L 182.970248 205.88772 
L 179.895868 205.855764 
L 176.821488 205.823808 
L 173.747107 205.791852 
L 170.672727 205.759896 
L 167.598347 205.727941 
L 164.523967 205.695985 
L 161.449587 205.664029 
L 158.375207 205.632073 
L 155.300826 205.600118 
L 152.226446 205.568162 
L 149.152066 205.536206 
L 146.077686 205.50425 
L 143.003306 205.472294 
L 139.928926 205.440339 
L 136.854545 205.408383 
L 133.780165 205.376427 
L 130.705785 205.344471 
L 127.631405 205.312515 
L 124.557025 205.28056 
L 121.482645 205.248604 
L 118.408264 205.216648 
L 115.333884 205.184692 
L 112.259504 205.152736 
L 109.185124 205.120781 
L 106.110744 205.088825 
L 103.036364 205.056869 
L 99.961983 205.024913 
L 96.887603 204.992958 
L 93.813223 204.961002 
L 90.738843 204.929046 
L 87.664463 204.89709 
L 84.590083 204.865134 
L 81.515702 204.833179 
L 78.441322 204.801223 
L 75.366942 204.769267 
L 72.292562 204.737311 
L 69.218182 204.705355 
z
" style="fill:#fd8d3c;"/>
   </g>
   <g id="PolyCollection_7">
    <path clip-path="url(#pd022a5ef18)" d="M 69.218182 193.694545 
L 69.218182 204.705355 
L 72.292562 204.737311 
L 75.366942 204.769267 
L 78.441322 204.801223 
L 81.515702 204.833179 
L 84.590083 204.865134 
L 87.664463 204.89709 
L 90.738843 204.929046 
L 93.813223 204.961002 
L 96.887603 204.992958 
L 99.961983 205.024913 
L 103.036364 205.056869 
L 106.110744 205.088825 
L 109.185124 205.120781 
L 112.259504 205.152736 
L 115.333884 205.184692 
L 118.408264 205.216648 
L 121.482645 205.248604 
L 124.557025 205.28056 
L 127.631405 205.312515 
L 130.705785 205.344471 
L 133.780165 205.376427 
L 136.854545 205.408383 
L 139.928926 205.440339 
L 143.003306 205.472294 
L 146.077686 205.50425 
L 149.152066 205.536206 
L 152.226446 205.568162 
L 155.300826 205.600118 
L 158.375207 205.632073 
L 161.449587 205.664029 
L 164.523967 205.695985 
L 167.598347 205.727941 
L 170.672727 205.759896 
L 173.747107 205.791852 
L 176.821488 205.823808 
L 179.895868 205.855764 
L 182.970248 205.88772 
L 186.044628 205.919675 
L 189.119008 205.951631 
L 192.193388 205.983587 
L 195.267769 206.015543 
L 198.342149 206.047499 
L 201.416529 206.079454 
L 204.490909 206.11141 
L 207.565289 206.143366 
L 210.639669 206.175322 
L 213.71405 206.207277 
L 216.78843 206.239233 
L 219.86281 206.271189 
L 222.93719 206.303145 
L 226.01157 206.335101 
L 229.08595 206.367056 
L 232.160331 206.399012 
L 235.234711 206.430968 
L 238.309091 206.462924 
L 241.383471 206.49488 
L 244.457851 206.526835 
L 247.532231 206.558791 
L 250.606612 206.590747 
L 253.680992 206.622703 
L 256.755372 206.654659 
L 259.829752 206.686614 
L 262.904132 206.71857 
L 265.978512 206.750526 
L 269.052893 206.782482 
L 272.127273 206.814437 
L 275.201653 206.846393 
L 278.276033 206.878349 
L 281.350413 206.910305 
L 284.424793 206.942261 
L 287.499174 206.974216 
L 290.573554 207.006172 
L 293.647934 207.038128 
L 296.722314 207.070084 
L 299.796694 207.10204 
L 302.871074 207.133995 
L 305.945455 207.165951 
L 309.019835 207.197907 
L 312.094215 207.229863 
L 315.168595 207.261818 
L 318.242975 207.293774 
L 321.317355 207.32573 
L 324.391736 207.357686 
L 327.466116 207.389642 
L 330.540496 207.421597 
L 333.614876 207.453553 
L 336.689256 207.485509 
L 339.763636 207.517465 
L 342.838017 207.549421 
L 345.912397 207.581376 
L 348.986777 207.613332 
L 352.061157 207.645288 
L 355.135537 207.677244 
L 358.209917 207.7092 
L 361.284298 207.741155 
L 364.358678 207.773111 
L 367.433058 207.805067 
L 370.507438 207.837023 
L 373.581818 207.868978 
L 373.581818 207.868978 
L 373.581818 207.868978 
L 370.507438 207.725802 
L 367.433058 207.582626 
L 364.358678 207.43945 
L 361.284298 207.296274 
L 358.209917 207.153098 
L 355.135537 207.009922 
L 352.061157 206.866746 
L 348.986777 206.72357 
L 345.912397 206.580394 
L 342.838017 206.437217 
L 339.763636 206.294041 
L 336.689256 206.150865 
L 333.614876 206.007689 
L 330.540496 205.864513 
L 327.466116 205.721337 
L 324.391736 205.578161 
L 321.317355 205.434985 
L 318.242975 205.291809 
L 315.168595 205.148633 
L 312.094215 205.005456 
L 309.019835 204.86228 
L 305.945455 204.719104 
L 302.871074 204.575928 
L 299.796694 204.432752 
L 296.722314 204.289576 
L 293.647934 204.1464 
L 290.573554 204.003224 
L 287.499174 203.860048 
L 284.424793 203.716872 
L 281.350413 203.573695 
L 278.276033 203.430519 
L 275.201653 203.287343 
L 272.127273 203.144167 
L 269.052893 203.000991 
L 265.978512 202.857815 
L 262.904132 202.714639 
L 259.829752 202.571463 
L 256.755372 202.428287 
L 253.680992 202.285111 
L 250.606612 202.141935 
L 247.532231 201.998758 
L 244.457851 201.855582 
L 241.383471 201.712406 
L 238.309091 201.56923 
L 235.234711 201.426054 
L 232.160331 201.282878 
L 229.08595 201.139702 
L 226.01157 200.996526 
L 222.93719 200.85335 
L 219.86281 200.710174 
L 216.78843 200.566997 
L 213.71405 200.423821 
L 210.639669 200.280645 
L 207.565289 200.137469 
L 204.490909 199.994293 
L 201.416529 199.851117 
L 198.342149 199.707941 
L 195.267769 199.564765 
L 192.193388 199.421589 
L 189.119008 199.278413 
L 186.044628 199.135236 
L 182.970248 198.99206 
L 179.895868 198.848884 
L 176.821488 198.705708 
L 173.747107 198.562532 
L 170.672727 198.419356 
L 167.598347 198.27618 
L 164.523967 198.133004 
L 161.449587 197.989828 
L 158.375207 197.846652 
L 155.300826 197.703475 
L 152.226446 197.560299 
L 149.152066 197.417123 
L 146.077686 197.273947 
L 143.003306 197.130771 
L 139.928926 196.987595 
L 136.854545 196.844419 
L 133.780165 196.701243 
L 130.705785 196.558067 
L 127.631405 196.414891 
L 124.557025 196.271714 
L 121.482645 196.128538 
L 118.408264 195.985362 
L 115.333884 195.842186 
L 112.259504 195.69901 
L 109.185124 195.555834 
L 106.110744 195.412658 
L 103.036364 195.269482 
L 99.961983 195.126306 
L 96.887603 194.98313 
L 93.813223 194.839953 
L 90.738843 194.696777 
L 87.664463 194.553601 
L 84.590083 194.410425 
L 81.515702 194.267249 
L 78.441322 194.124073 
L 75.366942 193.980897 
L 72.292562 193.837721 
L 69.218182 193.694545 
z
" style="fill:#fdae6b;"/>
   </g>
   <g id="PolyCollection_8">
    <path clip-path="url(#pd022a5ef18)" d="M 69.218182 100.663737 
L 69.218182 193.694545 
L 72.292562 193.837721 
L 75.366942 193.980897 
L 78.441322 194.124073 
L 81.515702 194.267249 
L 84.590083 194.410425 
L 87.664463 194.553601 
L 90.738843 194.696777 
L 93.813223 194.839953 
L 96.887603 194.98313 
L 99.961983 195.126306 
L 103.036364 195.269482 
L 106.110744 195.412658 
L 109.185124 195.555834 
L 112.259504 195.69901 
L 115.333884 195.842186 
L 118.408264 195.985362 
L 121.482645 196.128538 
L 124.557025 196.271714 
L 127.631405 196.414891 
L 130.705785 196.558067 
L 133.780165 196.701243 
L 136.854545 196.844419 
L 139.928926 196.987595 
L 143.003306 197.130771 
L 146.077686 197.273947 
L 149.152066 197.417123 
L 152.226446 197.560299 
L 155.300826 197.703475 
L 158.375207 197.846652 
L 161.449587 197.989828 
L 164.523967 198.133004 
L 167.598347 198.27618 
L 170.672727 198.419356 
L 173.747107 198.562532 
L 176.821488 198.705708 
L 179.895868 198.848884 
L 182.970248 198.99206 
L 186.044628 199.135236 
L 189.119008 199.278413 
L 192.193388 199.421589 
L 195.267769 199.564765 
L 198.342149 199.707941 
L 201.416529 199.851117 
L 204.490909 199.994293 
L 207.565289 200.137469 
L 210.639669 200.280645 
L 213.71405 200.423821 
L 216.78843 200.566997 
L 219.86281 200.710174 
L 222.93719 200.85335 
L 226.01157 200.996526 
L 229.08595 201.139702 
L 232.160331 201.282878 
L 235.234711 201.426054 
L 238.309091 201.56923 
L 241.383471 201.712406 
L 244.457851 201.855582 
L 247.532231 201.998758 
L 250.606612 202.141935 
L 253.680992 202.285111 
L 256.755372 202.428287 
L 259.829752 202.571463 
L 262.904132 202.714639 
L 265.978512 202.857815 
L 269.052893 203.000991 
L 272.127273 203.144167 
L 275.201653 203.287343 
L 278.276033 203.430519 
L 281.350413 203.573695 
L 284.424793 203.716872 
L 287.499174 203.860048 
L 290.573554 204.003224 
L 293.647934 204.1464 
L 296.722314 204.289576 
L 299.796694 204.432752 
L 302.871074 204.575928 
L 305.945455 204.719104 
L 309.019835 204.86228 
L 312.094215 205.005456 
L 315.168595 205.148633 
L 318.242975 205.291809 
L 321.317355 205.434985 
L 324.391736 205.578161 
L 327.466116 205.721337 
L 330.540496 205.864513 
L 333.614876 206.007689 
L 336.689256 206.150865 
L 339.763636 206.294041 
L 342.838017 206.437217 
L 345.912397 206.580394 
L 348.986777 206.72357 
L 352.061157 206.866746 
L 355.135537 207.009922 
L 358.209917 207.153098 
L 361.284298 207.296274 
L 364.358678 207.43945 
L 367.433058 207.582626 
L 370.507438 207.725802 
L 373.581818 207.868978 
L 373.581818 114.838171 
L 373.581818 114.838171 
L 370.507438 114.694995 
L 367.433058 114.551819 
L 364.358678 114.408642 
L 361.284298 114.265466 
L 358.209917 114.12229 
L 355.135537 113.979114 
L 352.061157 113.835938 
L 348.986777 113.692762 
L 345.912397 113.549586 
L 342.838017 113.40641 
L 339.763636 113.263234 
L 336.689256 113.120058 
L 333.614876 112.976882 
L 330.540496 112.833705 
L 327.466116 112.690529 
L 324.391736 112.547353 
L 321.317355 112.404177 
L 318.242975 112.261001 
L 315.168595 112.117825 
L 312.094215 111.974649 
L 309.019835 111.831473 
L 305.945455 111.688297 
L 302.871074 111.545121 
L 299.796694 111.401944 
L 296.722314 111.258768 
L 293.647934 111.115592 
L 290.573554 110.972416 
L 287.499174 110.82924 
L 284.424793 110.686064 
L 281.350413 110.542888 
L 278.276033 110.399712 
L 275.201653 110.256536 
L 272.127273 110.11336 
L 269.052893 109.970183 
L 265.978512 109.827007 
L 262.904132 109.683831 
L 259.829752 109.540655 
L 256.755372 109.397479 
L 253.680992 109.254303 
L 250.606612 109.111127 
L 247.532231 108.967951 
L 244.457851 108.824775 
L 241.383471 108.681599 
L 238.309091 108.538422 
L 235.234711 108.395246 
L 232.160331 108.25207 
L 229.08595 108.108894 
L 226.01157 107.965718 
L 222.93719 107.822542 
L 219.86281 107.679366 
L 216.78843 107.53619 
L 213.71405 107.393014 
L 210.639669 107.249838 
L 207.565289 107.106661 
L 204.490909 106.963485 
L 201.416529 106.820309 
L 198.342149 106.677133 
L 195.267769 106.533957 
L 192.193388 106.390781 
L 189.119008 106.247605 
L 186.044628 106.104429 
L 182.970248 105.961253 
L 179.895868 105.818077 
L 176.821488 105.6749 
L 173.747107 105.531724 
L 170.672727 105.388548 
L 167.598347 105.245372 
L 164.523967 105.102196 
L 161.449587 104.95902 
L 158.375207 104.815844 
L 155.300826 104.672668 
L 152.226446 104.529492 
L 149.152066 104.386316 
L 146.077686 104.24314 
L 143.003306 104.099963 
L 139.928926 103.956787 
L 136.854545 103.813611 
L 133.780165 103.670435 
L 130.705785 103.527259 
L 127.631405 103.384083 
L 124.557025 103.240907 
L 121.482645 103.097731 
L 118.408264 102.954555 
L 115.333884 102.811379 
L 112.259504 102.668202 
L 109.185124 102.525026 
L 106.110744 102.38185 
L 103.036364 102.238674 
L 99.961983 102.095498 
L 96.887603 101.952322 
L 93.813223 101.809146 
L 90.738843 101.66597 
L 87.664463 101.522794 
L 84.590083 101.379618 
L 81.515702 101.236441 
L 78.441322 101.093265 
L 75.366942 100.950089 
L 72.292562 100.806913 
L 69.218182 100.663737 
z
" style="fill:#fdd0a2;"/>
   </g>
   <g id="PolyCollection_9">
    <path clip-path="url(#pd022a5ef18)" d="M 69.218182 90.24 
L 69.218182 100.663737 
L 72.292562 100.806913 
L 75.366942 100.950089 
L 78.441322 101.093265 
L 81.515702 101.236441 
L 84.590083 101.379618 
L 87.664463 101.522794 
L 90.738843 101.66597 
L 93.813223 101.809146 
L 96.887603 101.952322 
L 99.961983 102.095498 
L 103.036364 102.238674 
L 106.110744 102.38185 
L 109.185124 102.525026 
L 112.259504 102.668202 
L 115.333884 102.811379 
L 118.408264 102.954555 
L 121.482645 103.097731 
L 124.557025 103.240907 
L 127.631405 103.384083 
L 130.705785 103.527259 
L 133.780165 103.670435 
L 136.854545 103.813611 
L 139.928926 103.956787 
L 143.003306 104.099963 
L 146.077686 104.24314 
L 149.152066 104.386316 
L 152.226446 104.529492 
L 155.300826 104.672668 
L 158.375207 104.815844 
L 161.449587 104.95902 
L 164.523967 105.102196 
L 167.598347 105.245372 
L 170.672727 105.388548 
L 173.747107 105.531724 
L 176.821488 105.6749 
L 179.895868 105.818077 
L 182.970248 105.961253 
L 186.044628 106.104429 
L 189.119008 106.247605 
L 192.193388 106.390781 
L 195.267769 106.533957 
L 198.342149 106.677133 
L 201.416529 106.820309 
L 204.490909 106.963485 
L 207.565289 107.106661 
L 210.639669 107.249838 
L 213.71405 107.393014 
L 216.78843 107.53619 
L 219.86281 107.679366 
L 222.93719 107.822542 
L 226.01157 107.965718 
L 229.08595 108.108894 
L 232.160331 108.25207 
L 235.234711 108.395246 
L 238.309091 108.538422 
L 241.383471 108.681599 
L 244.457851 108.824775 
L 247.532231 108.967951 
L 250.606612 109.111127 
L 253.680992 109.254303 
L 256.755372 109.397479 
L 259.829752 109.540655 
L 262.904132 109.683831 
L 265.978512 109.827007 
L 269.052893 109.970183 
L 272.127273 110.11336 
L 275.201653 110.256536 
L 278.276033 110.399712 
L 281.350413 110.542888 
L 284.424793 110.686064 
L 287.499174 110.82924 
L 290.573554 110.972416 
L 293.647934 111.115592 
L 296.722314 111.258768 
L 299.796694 111.401944 
L 302.871074 111.545121 
L 305.945455 111.688297 
L 309.019835 111.831473 
L 312.094215 111.974649 
L 315.168595 112.117825 
L 318.242975 112.261001 
L 321.317355 112.404177 
L 324.391736 112.547353 
L 327.466116 112.690529 
L 330.540496 112.833705 
L 333.614876 112.976882 
L 336.689256 113.120058 
L 339.763636 113.263234 
L 342.838017 113.40641 
L 345.912397 113.549586 
L 348.986777 113.692762 
L 352.061157 113.835938 
L 355.135537 113.979114 
L 358.209917 114.12229 
L 361.284298 114.265466 
L 364.358678 114.408642 
L 367.433058 114.551819 
L 370.507438 114.694995 
L 373.581818 114.838171 
L 373.581818 114.838171 
L 373.581818 114.838171 
L 370.507438 114.589704 
L 367.433058 114.341238 
L 364.358678 114.092772 
L 361.284298 113.844305 
L 358.209917 113.595839 
L 355.135537 113.347373 
L 352.061157 113.098906 
L 348.986777 112.85044 
L 345.912397 112.601973 
L 342.838017 112.353507 
L 339.763636 112.105041 
L 336.689256 111.856574 
L 333.614876 111.608108 
L 330.540496 111.359642 
L 327.466116 111.111175 
L 324.391736 110.862709 
L 321.317355 110.614242 
L 318.242975 110.365776 
L 315.168595 110.11731 
L 312.094215 109.868843 
L 309.019835 109.620377 
L 305.945455 109.371911 
L 302.871074 109.123444 
L 299.796694 108.874978 
L 296.722314 108.626511 
L 293.647934 108.378045 
L 290.573554 108.129579 
L 287.499174 107.881112 
L 284.424793 107.632646 
L 281.350413 107.38418 
L 278.276033 107.135713 
L 275.201653 106.887247 
L 272.127273 106.638781 
L 269.052893 106.390314 
L 265.978512 106.141848 
L 262.904132 105.893381 
L 259.829752 105.644915 
L 256.755372 105.396449 
L 253.680992 105.147982 
L 250.606612 104.899516 
L 247.532231 104.65105 
L 244.457851 104.402583 
L 241.383471 104.154117 
L 238.309091 103.90565 
L 235.234711 103.657184 
L 232.160331 103.408718 
L 229.08595 103.160251 
L 226.01157 102.911785 
L 222.93719 102.663319 
L 219.86281 102.414852 
L 216.78843 102.166386 
L 213.71405 101.917919 
L 210.639669 101.669453 
L 207.565289 101.420987 
L 204.490909 101.17252 
L 201.416529 100.924054 
L 198.342149 100.675588 
L 195.267769 100.427121 
L 192.193388 100.178655 
L 189.119008 99.930188 
L 186.044628 99.681722 
L 182.970248 99.433256 
L 179.895868 99.184789 
L 176.821488 98.936323 
L 173.747107 98.687857 
L 170.672727 98.43939 
L 167.598347 98.190924 
L 164.523967 97.942458 
L 161.449587 97.693991 
L 158.375207 97.445525 
L 155.300826 97.197058 
L 152.226446 96.948592 
L 149.152066 96.700126 
L 146.077686 96.451659 
L 143.003306 96.203193 
L 139.928926 95.954727 
L 136.854545 95.70626 
L 133.780165 95.457794 
L 130.705785 95.209327 
L 127.631405 94.960861 
L 124.557025 94.712395 
L 121.482645 94.463928 
L 118.408264 94.215462 
L 115.333884 93.966996 
L 112.259504 93.718529 
L 109.185124 93.470063 
L 106.110744 93.221596 
L 103.036364 92.97313 
L 99.961983 92.724664 
L 96.887603 92.476197 
L 93.813223 92.227731 
L 90.738843 91.979265 
L 87.664463 91.730798 
L 84.590083 91.482332 
L 81.515702 91.233865 
L 78.441322 90.985399 
L 75.366942 90.736933 
L 72.292562 90.488466 
L 69.218182 90.24 
z
" style="fill:#31a354;"/>
   </g>
   <g id="PolyCollection_10">
    <path clip-path="url(#pd022a5ef18)" d="M 69.218182 90.24 
L 69.218182 90.24 
L 72.292562 90.488466 
L 75.366942 90.736933 
L 78.441322 90.985399 
L 81.515702 91.233865 
L 84.590083 91.482332 
L 87.664463 91.730798 
L 90.738843 91.979265 
L 93.813223 92.227731 
L 96.887603 92.476197 
L 99.961983 92.724664 
L 103.036364 92.97313 
L 106.110744 93.221596 
L 109.185124 93.470063 
L 112.259504 93.718529 
L 115.333884 93.966996 
L 118.408264 94.215462 
L 121.482645 94.463928 
L 124.557025 94.712395 
L 127.631405 94.960861 
L 130.705785 95.209327 
L 133.780165 95.457794 
L 136.854545 95.70626 
L 139.928926 95.954727 
L 143.003306 96.203193 
L 146.077686 96.451659 
L 149.152066 96.700126 
L 152.226446 96.948592 
L 155.300826 97.197058 
L 158.375207 97.445525 
L 161.449587 97.693991 
L 164.523967 97.942458 
L 167.598347 98.190924 
L 170.672727 98.43939 
L 173.747107 98.687857 
L 176.821488 98.936323 
L 179.895868 99.184789 
L 182.970248 99.433256 
L 186.044628 99.681722 
L 189.119008 99.930188 
L 192.193388 100.178655 
L 195.267769 100.427121 
L 198.342149 100.675588 
L 201.416529 100.924054 
L 204.490909 101.17252 
L 207.565289 101.420987 
L 210.639669 101.669453 
L 213.71405 101.917919 
L 216.78843 102.166386 
L 219.86281 102.414852 
L 222.93719 102.663319 
L 226.01157 102.911785 
L 229.08595 103.160251 
L 232.160331 103.408718 
L 235.234711 103.657184 
L 238.309091 103.90565 
L 241.383471 104.154117 
L 244.457851 104.402583 
L 247.532231 104.65105 
L 250.606612 104.899516 
L 253.680992 105.147982 
L 256.755372 105.396449 
L 259.829752 105.644915 
L 262.904132 105.893381 
L 265.978512 106.141848 
L 269.052893 106.390314 
L 272.127273 106.638781 
L 275.201653 106.887247 
L 278.276033 107.135713 
L 281.350413 107.38418 
L 284.424793 107.632646 
L 287.499174 107.881112 
L 290.573554 108.129579 
L 293.647934 108.378045 
L 296.722314 108.626511 
L 299.796694 108.874978 
L 302.871074 109.123444 
L 305.945455 109.371911 
L 309.019835 109.620377 
L 312.094215 109.868843 
L 315.168595 110.11731 
L 318.242975 110.365776 
L 321.317355 110.614242 
L 324.391736 110.862709 
L 327.466116 111.111175 
L 330.540496 111.359642 
L 333.614876 111.608108 
L 336.689256 111.856574 
L 339.763636 112.105041 
L 342.838017 112.353507 
L 345.912397 112.601973 
L 348.986777 112.85044 
L 352.061157 113.098906 
L 355.135537 113.347373 
L 358.209917 113.595839 
L 361.284298 113.844305 
L 364.358678 114.092772 
L 367.433058 114.341238 
L 370.507438 114.589704 
L 373.581818 114.838171 
L 373.581818 102.455608 
L 373.581818 102.455608 
L 370.507438 102.332218 
L 367.433058 102.208828 
L 364.358678 102.085438 
L 361.284298 101.962048 
L 358.209917 101.838658 
L 355.135537 101.715268 
L 352.061157 101.591878 
L 348.986777 101.468488 
L 345.912397 101.345098 
L 342.838017 101.221708 
L 339.763636 101.098318 
L 336.689256 100.974928 
L 333.614876 100.851538 
L 330.540496 100.728148 
L 327.466116 100.604758 
L 324.391736 100.481368 
L 321.317355 100.357978 
L 318.242975 100.234588 
L 315.168595 100.111198 
L 312.094215 99.987808 
L 309.019835 99.864418 
L 305.945455 99.741028 
L 302.871074 99.617638 
L 299.796694 99.494248 
L 296.722314 99.370858 
L 293.647934 99.247468 
L 290.573554 99.124078 
L 287.499174 99.000688 
L 284.424793 98.877298 
L 281.350413 98.753908 
L 278.276033 98.630518 
L 275.201653 98.507128 
L 272.127273 98.383738 
L 269.052893 98.260348 
L 265.978512 98.136958 
L 262.904132 98.013569 
L 259.829752 97.890179 
L 256.755372 97.766789 
L 253.680992 97.643399 
L 250.606612 97.520009 
L 247.532231 97.396619 
L 244.457851 97.273229 
L 241.383471 97.149839 
L 238.309091 97.026449 
L 235.234711 96.903059 
L 232.160331 96.779669 
L 229.08595 96.656279 
L 226.01157 96.532889 
L 222.93719 96.409499 
L 219.86281 96.286109 
L 216.78843 96.162719 
L 213.71405 96.039329 
L 210.639669 95.915939 
L 207.565289 95.792549 
L 204.490909 95.669159 
L 201.416529 95.545769 
L 198.342149 95.422379 
L 195.267769 95.298989 
L 192.193388 95.175599 
L 189.119008 95.052209 
L 186.044628 94.928819 
L 182.970248 94.805429 
L 179.895868 94.682039 
L 176.821488 94.558649 
L 173.747107 94.435259 
L 170.672727 94.311869 
L 167.598347 94.188479 
L 164.523967 94.065089 
L 161.449587 93.941699 
L 158.375207 93.818309 
L 155.300826 93.694919 
L 152.226446 93.571529 
L 149.152066 93.448139 
L 146.077686 93.324749 
L 143.003306 93.201359 
L 139.928926 93.077969 
L 136.854545 92.954579 
L 133.780165 92.83119 
L 130.705785 92.7078 
L 127.631405 92.58441 
L 124.557025 92.46102 
L 121.482645 92.33763 
L 118.408264 92.21424 
L 115.333884 92.09085 
L 112.259504 91.96746 
L 109.185124 91.84407 
L 106.110744 91.72068 
L 103.036364 91.59729 
L 99.961983 91.4739 
L 96.887603 91.35051 
L 93.813223 91.22712 
L 90.738843 91.10373 
L 87.664463 90.98034 
L 84.590083 90.85695 
L 81.515702 90.73356 
L 78.441322 90.61017 
L 75.366942 90.48678 
L 72.292562 90.36339 
L 69.218182 90.24 
z
" style="fill:#74c476;"/>
   </g>
   <g id="PolyCollection_11">
    <path clip-path="url(#pd022a5ef18)" d="M 69.218182 90.24 
L 69.218182 90.24 
L 72.292562 90.36339 
L 75.366942 90.48678 
L 78.441322 90.61017 
L 81.515702 90.73356 
L 84.590083 90.85695 
L 87.664463 90.98034 
L 90.738843 91.10373 
L 93.813223 91.22712 
L 96.887603 91.35051 
L 99.961983 91.4739 
L 103.036364 91.59729 
L 106.110744 91.72068 
L 109.185124 91.84407 
L 112.259504 91.96746 
L 115.333884 92.09085 
L 118.408264 92.21424 
L 121.482645 92.33763 
L 124.557025 92.46102 
L 127.631405 92.58441 
L 130.705785 92.7078 
L 133.780165 92.83119 
L 136.854545 92.954579 
L 139.928926 93.077969 
L 143.003306 93.201359 
L 146.077686 93.324749 
L 149.152066 93.448139 
L 152.226446 93.571529 
L 155.300826 93.694919 
L 158.375207 93.818309 
L 161.449587 93.941699 
L 164.523967 94.065089 
L 167.598347 94.188479 
L 170.672727 94.311869 
L 173.747107 94.435259 
L 176.821488 94.558649 
L 179.895868 94.682039 
L 182.970248 94.805429 
L 186.044628 94.928819 
L 189.119008 95.052209 
L 192.193388 95.175599 
L 195.267769 95.298989 
L 198.342149 95.422379 
L 201.416529 95.545769 
L 204.490909 95.669159 
L 207.565289 95.792549 
L 210.639669 95.915939 
L 213.71405 96.039329 
L 216.78843 96.162719 
L 219.86281 96.286109 
L 222.93719 96.409499 
L 226.01157 96.532889 
L 229.08595 96.656279 
L 232.160331 96.779669 
L 235.234711 96.903059 
L 238.309091 97.026449 
L 241.383471 97.149839 
L 244.457851 97.273229 
L 247.532231 97.396619 
L 250.606612 97.520009 
L 253.680992 97.643399 
L 256.755372 97.766789 
L 259.829752 97.890179 
L 262.904132 98.013569 
L 265.978512 98.136958 
L 269.052893 98.260348 
L 272.127273 98.383738 
L 275.201653 98.507128 
L 278.276033 98.630518 
L 281.350413 98.753908 
L 284.424793 98.877298 
L 287.499174 99.000688 
L 290.573554 99.124078 
L 293.647934 99.247468 
L 296.722314 99.370858 
L 299.796694 99.494248 
L 302.871074 99.617638 
L 305.945455 99.741028 
L 309.019835 99.864418 
L 312.094215 99.987808 
L 315.168595 100.111198 
L 318.242975 100.234588 
L 321.317355 100.357978 
L 324.391736 100.481368 
L 327.466116 100.604758 
L 330.540496 100.728148 
L 333.614876 100.851538 
L 336.689256 100.974928 
L 339.763636 101.098318 
L 342.838017 101.221708 
L 345.912397 101.345098 
L 348.986777 101.468488 
L 352.061157 101.591878 
L 355.135537 101.715268 
L 358.209917 101.838658 
L 361.284298 101.962048 
L 364.358678 102.085438 
L 367.433058 102.208828 
L 370.507438 102.332218 
L 373.581818 102.455608 
L 373.581818 90.24 
L 373.581818 90.24 
L 370.507438 90.24 
L 367.433058 90.24 
L 364.358678 90.24 
L 361.284298 90.24 
L 358.209917 90.24 
L 355.135537 90.24 
L 352.061157 90.24 
L 348.986777 90.24 
L 345.912397 90.24 
L 342.838017 90.24 
L 339.763636 90.24 
L 336.689256 90.24 
L 333.614876 90.24 
L 330.540496 90.24 
L 327.466116 90.24 
L 324.391736 90.24 
L 321.317355 90.24 
L 318.242975 90.24 
L 315.168595 90.24 
L 312.094215 90.24 
L 309.019835 90.24 
L 305.945455 90.24 
L 302.871074 90.24 
L 299.796694 90.24 
L 296.722314 90.24 
L 293.647934 90.24 
L 290.573554 90.24 
L 287.499174 90.24 
L 284.424793 90.24 
L 281.350413 90.24 
L 278.276033 90.24 
L 275.201653 90.24 
L 272.127273 90.24 
L 269.052893 90.24 
L 265.978512 90.24 
L 262.904132 90.24 
L 259.829752 90.24 
L 256.755372 90.24 
L 253.680992 90.24 
L 250.606612 90.24 
L 247.532231 90.24 
L 244.457851 90.24 
L 241.383471 90.24 
L 238.309091 90.24 
L 235.234711 90.24 
L 232.160331 90.24 
L 229.08595 90.24 
L 226.01157 90.24 
L 222.93719 90.24 
L 219.86281 90.24 
L 216.78843 90.24 
L 213.71405 90.24 
L 210.639669 90.24 
L 207.565289 90.24 
L 204.490909 90.24 
L 201.416529 90.24 
L 198.342149 90.24 
L 195.267769 90.24 
L 192.193388 90.24 
L 189.119008 90.24 
L 186.044628 90.24 
L 182.970248 90.24 
L 179.895868 90.24 
L 176.821488 90.24 
L 173.747107 90.24 
L 170.672727 90.24 
L 167.598347 90.24 
L 164.523967 90.24 
L 161.449587 90.24 
L 158.375207 90.24 
L 155.300826 90.24 
L 152.226446 90.24 
L 149.152066 90.24 
L 146.077686 90.24 
L 143.003306 90.24 
L 139.928926 90.24 
L 136.854545 90.24 
L 133.780165 90.24 
L 130.705785 90.24 
L 127.631405 90.24 
L 124.557025 90.24 
L 121.482645 90.24 
L 118.408264 90.24 
L 115.333884 90.24 
L 112.259504 90.24 
L 109.185124 90.24 
L 106.110744 90.24 
L 103.036364 90.24 
L 99.961983 90.24 
L 96.887603 90.24 
L 93.813223 90.24 
L 90.738843 90.24 
L 87.664463 90.24 
L 84.590083 90.24 
L 81.515702 90.24 
L 78.441322 90.24 
L 75.366942 90.24 
L 72.292562 90.24 
L 69.218182 90.24 
z
" style="fill:#a1d99b;"/>
   </g>
   <g id="matplotlib.axis_1">
    <g id="xtick_1">
     <g id="line2d_1">
      <defs>
       <path d="M 0 0 
L 0 3.5 
" id="m2c21b0ce35" style="stroke:#000000;stroke-width:0.8;"/>
      </defs>
      <g>
       <use style="stroke:#000000;stroke-width:0.8;" x="69.218182" xlink:href="#m2c21b0ce35" y="512.64"/>
      </g>
     </g>
     <g id="text_1">
      <!-- 0 -->
      <g transform="translate(66.036932 527.238438)scale(0.1 -0.1)">
       <defs>
        <path d="M 2034 4250 
Q 1547 4250 1301 3770 
Q 1056 3291 1056 2328 
Q 1056 1369 1301 889 
Q 1547 409 2034 409 
Q 2525 409 2770 889 
Q 3016 1369 3016 2328 
Q 3016 3291 2770 3770 
Q 2525 4250 2034 4250 
z
M 2034 4750 
Q 2819 4750 3233 4129 
Q 3647 3509 3647 2328 
Q 3647 1150 3233 529 
Q 2819 -91 2034 -91 
Q 1250 -91 836 529 
Q 422 1150 422 2328 
Q 422 3509 836 4129 
Q 1250 4750 2034 4750 
z
" id="DejaVuSans-30" transform="scale(0.015625)"/>
       </defs>
       <use xlink:href="#DejaVuSans-30"/>
      </g>
     </g>
    </g>
    <g id="xtick_2">
     <g id="line2d_2">
      <g>
       <use style="stroke:#000000;stroke-width:0.8;" x="130.090909" xlink:href="#m2c21b0ce35" y="512.64"/>
      </g>
     </g>
     <g id="text_2">
      <!-- 20 -->
      <g transform="translate(123.728409 527.238438)scale(0.1 -0.1)">
       <defs>
        <path d="M 1228 531 
L 3431 531 
L 3431 0 
L 469 0 
L 469 531 
Q 828 903 1448 1529 
Q 2069 2156 2228 2338 
Q 2531 2678 2651 2914 
Q 2772 3150 2772 3378 
Q 2772 3750 2511 3984 
Q 2250 4219 1831 4219 
Q 1534 4219 1204 4116 
Q 875 4013 500 3803 
L 500 4441 
Q 881 4594 1212 4672 
Q 1544 4750 1819 4750 
Q 2544 4750 2975 4387 
Q 3406 4025 3406 3419 
Q 3406 3131 3298 2873 
Q 3191 2616 2906 2266 
Q 2828 2175 2409 1742 
Q 1991 1309 1228 531 
z
" id="DejaVuSans-32" transform="scale(0.015625)"/>
       </defs>
       <use xlink:href="#DejaVuSans-32"/>
       <use x="63.623047" xlink:href="#DejaVuSans-30"/>
      </g>
     </g>
    </g>
    <g id="xtick_3">
     <g id="line2d_3">
      <g>
       <use style="stroke:#000000;stroke-width:0.8;" x="190.963636" xlink:href="#m2c21b0ce35" y="512.64"/>
      </g>
     </g>
     <g id="text_3">
      <!-- 40 -->
      <g transform="translate(184.601136 527.238438)scale(0.1 -0.1)">
       <defs>
        <path d="M 2419 4116 
L 825 1625 
L 2419 1625 
L 2419 4116 
z
M 2253 4666 
L 3047 4666 
L 3047 1625 
L 3713 1625 
L 3713 1100 
L 3047 1100 
L 3047 0 
L 2419 0 
L 2419 1100 
L 313 1100 
L 313 1709 
L 2253 4666 
z
" id="DejaVuSans-34" transform="scale(0.015625)"/>
       </defs>
       <use xlink:href="#DejaVuSans-34"/>
       <use x="63.623047" xlink:href="#DejaVuSans-30"/>
      </g>
     </g>
    </g>
    <g id="xtick_4">
     <g id="line2d_4">
      <g>
       <use style="stroke:#000000;stroke-width:0.8;" x="251.836364" xlink:href="#m2c21b0ce35" y="512.64"/>
      </g>
     </g>
     <g id="text_4">
      <!-- 60 -->
      <g transform="translate(245.473864 527.238438)scale(0.1 -0.1)">
       <defs>
        <path d="M 2113 2584 
Q 1688 2584 1439 2293 
Q 1191 2003 1191 1497 
Q 1191 994 1439 701 
Q 1688 409 2113 409 
Q 2538 409 2786 701 
Q 3034 994 3034 1497 
Q 3034 2003 2786 2293 
Q 2538 2584 2113 2584 
z
M 3366 4563 
L 3366 3988 
Q 3128 4100 2886 4159 
Q 2644 4219 2406 4219 
Q 1781 4219 1451 3797 
Q 1122 3375 1075 2522 
Q 1259 2794 1537 2939 
Q 1816 3084 2150 3084 
Q 2853 3084 3261 2657 
Q 3669 2231 3669 1497 
Q 3669 778 3244 343 
Q 2819 -91 2113 -91 
Q 1303 -91 875 529 
Q 447 1150 447 2328 
Q 447 3434 972 4092 
Q 1497 4750 2381 4750 
Q 2619 4750 2861 4703 
Q 3103 4656 3366 4563 
z
" id="DejaVuSans-36" transform="scale(0.015625)"/>
       </defs>
       <use xlink:href="#DejaVuSans-36"/>
       <use x="63.623047" xlink:href="#DejaVuSans-30"/>
      </g>
     </g>
    </g>
    <g id="xtick_5">
     <g id="line2d_5">
      <g>
       <use style="stroke:#000000;stroke-width:0.8;" x="312.709091" xlink:href="#m2c21b0ce35" y="512.64"/>
      </g>
     </g>
     <g id="text_5">
      <!-- 80 -->
      <g transform="translate(306.346591 527.238438)scale(0.1 -0.1)">
       <defs>
        <path d="M 2034 2216 
Q 1584 2216 1326 1975 
Q 1069 1734 1069 1313 
Q 1069 891 1326 650 
Q 1584 409 2034 409 
Q 2484 409 2743 651 
Q 3003 894 3003 1313 
Q 3003 1734 2745 1975 
Q 2488 2216 2034 2216 
z
M 1403 2484 
Q 997 2584 770 2862 
Q 544 3141 544 3541 
Q 544 4100 942 4425 
Q 1341 4750 2034 4750 
Q 2731 4750 3128 4425 
Q 3525 4100 3525 3541 
Q 3525 3141 3298 2862 
Q 3072 2584 2669 2484 
Q 3125 2378 3379 2068 
Q 3634 1759 3634 1313 
Q 3634 634 3220 271 
Q 2806 -91 2034 -91 
Q 1263 -91 848 271 
Q 434 634 434 1313 
Q 434 1759 690 2068 
Q 947 2378 1403 2484 
z
M 1172 3481 
Q 1172 3119 1398 2916 
Q 1625 2713 2034 2713 
Q 2441 2713 2670 2916 
Q 2900 3119 2900 3481 
Q 2900 3844 2670 4047 
Q 2441 4250 2034 4250 
Q 1625 4250 1398 4047 
Q 1172 3844 1172 3481 
z
" id="DejaVuSans-38" transform="scale(0.015625)"/>
       </defs>
       <use xlink:href="#DejaVuSans-38"/>
       <use x="63.623047" xlink:href="#DejaVuSans-30"/>
      </g>
     </g>
    </g>
    <g id="xtick_6">
     <g id="line2d_6">
      <g>
       <use style="stroke:#000000;stroke-width:0.8;" x="373.581818" xlink:href="#m2c21b0ce35" y="512.64"/>
      </g>
     </g>
     <g id="text_6">
      <!-- 100 -->
      <g transform="translate(364.038068 527.238438)scale(0.1 -0.1)">
       <defs>
        <path d="M 794 531 
L 1825 531 
L 1825 4091 
L 703 3866 
L 703 4441 
L 1819 4666 
L 2450 4666 
L 2450 531 
L 3481 531 
L 3481 0 
L 794 0 
L 794 531 
z
" id="DejaVuSans-31" transform="scale(0.015625)"/>
       </defs>
       <use xlink:href="#DejaVuSans-31"/>
       <use x="63.623047" xlink:href="#DejaVuSans-30"/>
       <use x="127.246094" xlink:href="#DejaVuSans-30"/>
      </g>
     </g>
    </g>
    <g id="text_7">
     <!-- Proportion of New Technology in Grid (%) -->
     <g transform="translate(118.632031 540.916563)scale(0.1 -0.1)">
      <defs>
       <path d="M 1259 4147 
L 1259 2394 
L 2053 2394 
Q 2494 2394 2734 2622 
Q 2975 2850 2975 3272 
Q 2975 3691 2734 3919 
Q 2494 4147 2053 4147 
L 1259 4147 
z
M 628 4666 
L 2053 4666 
Q 2838 4666 3239 4311 
Q 3641 3956 3641 3272 
Q 3641 2581 3239 2228 
Q 2838 1875 2053 1875 
L 1259 1875 
L 1259 0 
L 628 0 
L 628 4666 
z
" id="DejaVuSans-50" transform="scale(0.015625)"/>
       <path d="M 2631 2963 
Q 2534 3019 2420 3045 
Q 2306 3072 2169 3072 
Q 1681 3072 1420 2755 
Q 1159 2438 1159 1844 
L 1159 0 
L 581 0 
L 581 3500 
L 1159 3500 
L 1159 2956 
Q 1341 3275 1631 3429 
Q 1922 3584 2338 3584 
Q 2397 3584 2469 3576 
Q 2541 3569 2628 3553 
L 2631 2963 
z
" id="DejaVuSans-72" transform="scale(0.015625)"/>
       <path d="M 1959 3097 
Q 1497 3097 1228 2736 
Q 959 2375 959 1747 
Q 959 1119 1226 758 
Q 1494 397 1959 397 
Q 2419 397 2687 759 
Q 2956 1122 2956 1747 
Q 2956 2369 2687 2733 
Q 2419 3097 1959 3097 
z
M 1959 3584 
Q 2709 3584 3137 3096 
Q 3566 2609 3566 1747 
Q 3566 888 3137 398 
Q 2709 -91 1959 -91 
Q 1206 -91 779 398 
Q 353 888 353 1747 
Q 353 2609 779 3096 
Q 1206 3584 1959 3584 
z
" id="DejaVuSans-6f" transform="scale(0.015625)"/>
       <path d="M 1159 525 
L 1159 -1331 
L 581 -1331 
L 581 3500 
L 1159 3500 
L 1159 2969 
Q 1341 3281 1617 3432 
Q 1894 3584 2278 3584 
Q 2916 3584 3314 3078 
Q 3713 2572 3713 1747 
Q 3713 922 3314 415 
Q 2916 -91 2278 -91 
Q 1894 -91 1617 61 
Q 1341 213 1159 525 
z
M 3116 1747 
Q 3116 2381 2855 2742 
Q 2594 3103 2138 3103 
Q 1681 3103 1420 2742 
Q 1159 2381 1159 1747 
Q 1159 1113 1420 752 
Q 1681 391 2138 391 
Q 2594 391 2855 752 
Q 3116 1113 3116 1747 
z
" id="DejaVuSans-70" transform="scale(0.015625)"/>
       <path d="M 1172 4494 
L 1172 3500 
L 2356 3500 
L 2356 3053 
L 1172 3053 
L 1172 1153 
Q 1172 725 1289 603 
Q 1406 481 1766 481 
L 2356 481 
L 2356 0 
L 1766 0 
Q 1100 0 847 248 
Q 594 497 594 1153 
L 594 3053 
L 172 3053 
L 172 3500 
L 594 3500 
L 594 4494 
L 1172 4494 
z
" id="DejaVuSans-74" transform="scale(0.015625)"/>
       <path d="M 603 3500 
L 1178 3500 
L 1178 0 
L 603 0 
L 603 3500 
z
M 603 4863 
L 1178 4863 
L 1178 4134 
L 603 4134 
L 603 4863 
z
" id="DejaVuSans-69" transform="scale(0.015625)"/>
       <path d="M 3513 2113 
L 3513 0 
L 2938 0 
L 2938 2094 
Q 2938 2591 2744 2837 
Q 2550 3084 2163 3084 
Q 1697 3084 1428 2787 
Q 1159 2491 1159 1978 
L 1159 0 
L 581 0 
L 581 3500 
L 1159 3500 
L 1159 2956 
Q 1366 3272 1645 3428 
Q 1925 3584 2291 3584 
Q 2894 3584 3203 3211 
Q 3513 2838 3513 2113 
z
" id="DejaVuSans-6e" transform="scale(0.015625)"/>
       <path id="DejaVuSans-20" transform="scale(0.015625)"/>
       <path d="M 2375 4863 
L 2375 4384 
L 1825 4384 
Q 1516 4384 1395 4259 
Q 1275 4134 1275 3809 
L 1275 3500 
L 2222 3500 
L 2222 3053 
L 1275 3053 
L 1275 0 
L 697 0 
L 697 3053 
L 147 3053 
L 147 3500 
L 697 3500 
L 697 3744 
Q 697 4328 969 4595 
Q 1241 4863 1831 4863 
L 2375 4863 
z
" id="DejaVuSans-66" transform="scale(0.015625)"/>
       <path d="M 628 4666 
L 1478 4666 
L 3547 763 
L 3547 4666 
L 4159 4666 
L 4159 0 
L 3309 0 
L 1241 3903 
L 1241 0 
L 628 0 
L 628 4666 
z
" id="DejaVuSans-4e" transform="scale(0.015625)"/>
       <path d="M 3597 1894 
L 3597 1613 
L 953 1613 
Q 991 1019 1311 708 
Q 1631 397 2203 397 
Q 2534 397 2845 478 
Q 3156 559 3463 722 
L 3463 178 
Q 3153 47 2828 -22 
Q 2503 -91 2169 -91 
Q 1331 -91 842 396 
Q 353 884 353 1716 
Q 353 2575 817 3079 
Q 1281 3584 2069 3584 
Q 2775 3584 3186 3129 
Q 3597 2675 3597 1894 
z
M 3022 2063 
Q 3016 2534 2758 2815 
Q 2500 3097 2075 3097 
Q 1594 3097 1305 2825 
Q 1016 2553 972 2059 
L 3022 2063 
z
" id="DejaVuSans-65" transform="scale(0.015625)"/>
       <path d="M 269 3500 
L 844 3500 
L 1563 769 
L 2278 3500 
L 2956 3500 
L 3675 769 
L 4391 3500 
L 4966 3500 
L 4050 0 
L 3372 0 
L 2619 2869 
L 1863 0 
L 1184 0 
L 269 3500 
z
" id="DejaVuSans-77" transform="scale(0.015625)"/>
       <path d="M -19 4666 
L 3928 4666 
L 3928 4134 
L 2272 4134 
L 2272 0 
L 1638 0 
L 1638 4134 
L -19 4134 
L -19 4666 
z
" id="DejaVuSans-54" transform="scale(0.015625)"/>
       <path d="M 3122 3366 
L 3122 2828 
Q 2878 2963 2633 3030 
Q 2388 3097 2138 3097 
Q 1578 3097 1268 2742 
Q 959 2388 959 1747 
Q 959 1106 1268 751 
Q 1578 397 2138 397 
Q 2388 397 2633 464 
Q 2878 531 3122 666 
L 3122 134 
Q 2881 22 2623 -34 
Q 2366 -91 2075 -91 
Q 1284 -91 818 406 
Q 353 903 353 1747 
Q 353 2603 823 3093 
Q 1294 3584 2113 3584 
Q 2378 3584 2631 3529 
Q 2884 3475 3122 3366 
z
" id="DejaVuSans-63" transform="scale(0.015625)"/>
       <path d="M 3513 2113 
L 3513 0 
L 2938 0 
L 2938 2094 
Q 2938 2591 2744 2837 
Q 2550 3084 2163 3084 
Q 1697 3084 1428 2787 
Q 1159 2491 1159 1978 
L 1159 0 
L 581 0 
L 581 4863 
L 1159 4863 
L 1159 2956 
Q 1366 3272 1645 3428 
Q 1925 3584 2291 3584 
Q 2894 3584 3203 3211 
Q 3513 2838 3513 2113 
z
" id="DejaVuSans-68" transform="scale(0.015625)"/>
       <path d="M 603 4863 
L 1178 4863 
L 1178 0 
L 603 0 
L 603 4863 
z
" id="DejaVuSans-6c" transform="scale(0.015625)"/>
       <path d="M 2906 1791 
Q 2906 2416 2648 2759 
Q 2391 3103 1925 3103 
Q 1463 3103 1205 2759 
Q 947 2416 947 1791 
Q 947 1169 1205 825 
Q 1463 481 1925 481 
Q 2391 481 2648 825 
Q 2906 1169 2906 1791 
z
M 3481 434 
Q 3481 -459 3084 -895 
Q 2688 -1331 1869 -1331 
Q 1566 -1331 1297 -1286 
Q 1028 -1241 775 -1147 
L 775 -588 
Q 1028 -725 1275 -790 
Q 1522 -856 1778 -856 
Q 2344 -856 2625 -561 
Q 2906 -266 2906 331 
L 2906 616 
Q 2728 306 2450 153 
Q 2172 0 1784 0 
Q 1141 0 747 490 
Q 353 981 353 1791 
Q 353 2603 747 3093 
Q 1141 3584 1784 3584 
Q 2172 3584 2450 3431 
Q 2728 3278 2906 2969 
L 2906 3500 
L 3481 3500 
L 3481 434 
z
" id="DejaVuSans-67" transform="scale(0.015625)"/>
       <path d="M 2059 -325 
Q 1816 -950 1584 -1140 
Q 1353 -1331 966 -1331 
L 506 -1331 
L 506 -850 
L 844 -850 
Q 1081 -850 1212 -737 
Q 1344 -625 1503 -206 
L 1606 56 
L 191 3500 
L 800 3500 
L 1894 763 
L 2988 3500 
L 3597 3500 
L 2059 -325 
z
" id="DejaVuSans-79" transform="scale(0.015625)"/>
       <path d="M 3809 666 
L 3809 1919 
L 2778 1919 
L 2778 2438 
L 4434 2438 
L 4434 434 
Q 4069 175 3628 42 
Q 3188 -91 2688 -91 
Q 1594 -91 976 548 
Q 359 1188 359 2328 
Q 359 3472 976 4111 
Q 1594 4750 2688 4750 
Q 3144 4750 3555 4637 
Q 3966 4525 4313 4306 
L 4313 3634 
Q 3963 3931 3569 4081 
Q 3175 4231 2741 4231 
Q 1884 4231 1454 3753 
Q 1025 3275 1025 2328 
Q 1025 1384 1454 906 
Q 1884 428 2741 428 
Q 3075 428 3337 486 
Q 3600 544 3809 666 
z
" id="DejaVuSans-47" transform="scale(0.015625)"/>
       <path d="M 2906 2969 
L 2906 4863 
L 3481 4863 
L 3481 0 
L 2906 0 
L 2906 525 
Q 2725 213 2448 61 
Q 2172 -91 1784 -91 
Q 1150 -91 751 415 
Q 353 922 353 1747 
Q 353 2572 751 3078 
Q 1150 3584 1784 3584 
Q 2172 3584 2448 3432 
Q 2725 3281 2906 2969 
z
M 947 1747 
Q 947 1113 1208 752 
Q 1469 391 1925 391 
Q 2381 391 2643 752 
Q 2906 1113 2906 1747 
Q 2906 2381 2643 2742 
Q 2381 3103 1925 3103 
Q 1469 3103 1208 2742 
Q 947 2381 947 1747 
z
" id="DejaVuSans-64" transform="scale(0.015625)"/>
       <path d="M 1984 4856 
Q 1566 4138 1362 3434 
Q 1159 2731 1159 2009 
Q 1159 1288 1364 580 
Q 1569 -128 1984 -844 
L 1484 -844 
Q 1016 -109 783 600 
Q 550 1309 550 2009 
Q 550 2706 781 3412 
Q 1013 4119 1484 4856 
L 1984 4856 
z
" id="DejaVuSans-28" transform="scale(0.015625)"/>
       <path d="M 4653 2053 
Q 4381 2053 4226 1822 
Q 4072 1591 4072 1178 
Q 4072 772 4226 539 
Q 4381 306 4653 306 
Q 4919 306 5073 539 
Q 5228 772 5228 1178 
Q 5228 1588 5073 1820 
Q 4919 2053 4653 2053 
z
M 4653 2450 
Q 5147 2450 5437 2106 
Q 5728 1763 5728 1178 
Q 5728 594 5436 251 
Q 5144 -91 4653 -91 
Q 4153 -91 3862 251 
Q 3572 594 3572 1178 
Q 3572 1766 3864 2108 
Q 4156 2450 4653 2450 
z
M 1428 4353 
Q 1159 4353 1004 4120 
Q 850 3888 850 3481 
Q 850 3069 1003 2837 
Q 1156 2606 1428 2606 
Q 1700 2606 1854 2837 
Q 2009 3069 2009 3481 
Q 2009 3884 1853 4118 
Q 1697 4353 1428 4353 
z
M 4250 4750 
L 4750 4750 
L 1831 -91 
L 1331 -91 
L 4250 4750 
z
M 1428 4750 
Q 1922 4750 2215 4408 
Q 2509 4066 2509 3481 
Q 2509 2891 2217 2550 
Q 1925 2209 1428 2209 
Q 931 2209 642 2551 
Q 353 2894 353 3481 
Q 353 4063 643 4406 
Q 934 4750 1428 4750 
z
" id="DejaVuSans-25" transform="scale(0.015625)"/>
       <path d="M 513 4856 
L 1013 4856 
Q 1481 4119 1714 3412 
Q 1947 2706 1947 2009 
Q 1947 1309 1714 600 
Q 1481 -109 1013 -844 
L 513 -844 
Q 928 -128 1133 580 
Q 1338 1288 1338 2009 
Q 1338 2731 1133 3434 
Q 928 4138 513 4856 
z
" id="DejaVuSans-29" transform="scale(0.015625)"/>
      </defs>
      <use xlink:href="#DejaVuSans-50"/>
      <use x="58.552734" xlink:href="#DejaVuSans-72"/>
      <use x="97.416016" xlink:href="#DejaVuSans-6f"/>
      <use x="158.597656" xlink:href="#DejaVuSans-70"/>
      <use x="222.074219" xlink:href="#DejaVuSans-6f"/>
      <use x="283.255859" xlink:href="#DejaVuSans-72"/>
      <use x="324.369141" xlink:href="#DejaVuSans-74"/>
      <use x="363.578125" xlink:href="#DejaVuSans-69"/>
      <use x="391.361328" xlink:href="#DejaVuSans-6f"/>
      <use x="452.542969" xlink:href="#DejaVuSans-6e"/>
      <use x="515.921875" xlink:href="#DejaVuSans-20"/>
      <use x="547.708984" xlink:href="#DejaVuSans-6f"/>
      <use x="608.890625" xlink:href="#DejaVuSans-66"/>
      <use x="644.095703" xlink:href="#DejaVuSans-20"/>
      <use x="675.882812" xlink:href="#DejaVuSans-4e"/>
      <use x="750.6875" xlink:href="#DejaVuSans-65"/>
      <use x="812.210938" xlink:href="#DejaVuSans-77"/>
      <use x="893.998047" xlink:href="#DejaVuSans-20"/>
      <use x="925.785156" xlink:href="#DejaVuSans-54"/>
      <use x="969.869141" xlink:href="#DejaVuSans-65"/>
      <use x="1031.392578" xlink:href="#DejaVuSans-63"/>
      <use x="1086.373047" xlink:href="#DejaVuSans-68"/>
      <use x="1149.751953" xlink:href="#DejaVuSans-6e"/>
      <use x="1213.130859" xlink:href="#DejaVuSans-6f"/>
      <use x="1274.3125" xlink:href="#DejaVuSans-6c"/>
      <use x="1302.095703" xlink:href="#DejaVuSans-6f"/>
      <use x="1363.277344" xlink:href="#DejaVuSans-67"/>
      <use x="1426.753906" xlink:href="#DejaVuSans-79"/>
      <use x="1485.933594" xlink:href="#DejaVuSans-20"/>
      <use x="1517.720703" xlink:href="#DejaVuSans-69"/>
      <use x="1545.503906" xlink:href="#DejaVuSans-6e"/>
      <use x="1608.882812" xlink:href="#DejaVuSans-20"/>
      <use x="1640.669922" xlink:href="#DejaVuSans-47"/>
      <use x="1718.160156" xlink:href="#DejaVuSans-72"/>
      <use x="1759.273438" xlink:href="#DejaVuSans-69"/>
      <use x="1787.056641" xlink:href="#DejaVuSans-64"/>
      <use x="1850.533203" xlink:href="#DejaVuSans-20"/>
      <use x="1882.320312" xlink:href="#DejaVuSans-28"/>
      <use x="1921.333984" xlink:href="#DejaVuSans-25"/>
      <use x="2016.353516" xlink:href="#DejaVuSans-29"/>
     </g>
    </g>
   </g>
   <g id="matplotlib.axis_2">
    <g id="ytick_1">
     <g id="line2d_7">
      <defs>
       <path d="M 0 0 
L -3.5 0 
" id="m2643a93632" style="stroke:#000000;stroke-width:0.8;"/>
      </defs>
      <g>
       <use style="stroke:#000000;stroke-width:0.8;" x="54" xlink:href="#m2643a93632" y="512.64"/>
      </g>
     </g>
     <g id="text_8">
      <!-- 0 -->
      <g transform="translate(40.6375 516.439219)scale(0.1 -0.1)">
       <use xlink:href="#DejaVuSans-30"/>
      </g>
     </g>
    </g>
    <g id="ytick_2">
     <g id="line2d_8">
      <g>
       <use style="stroke:#000000;stroke-width:0.8;" x="54" xlink:href="#m2643a93632" y="440.322522"/>
      </g>
     </g>
     <g id="text_9">
      <!-- 50 -->
      <g transform="translate(34.275 444.121741)scale(0.1 -0.1)">
       <defs>
        <path d="M 691 4666 
L 3169 4666 
L 3169 4134 
L 1269 4134 
L 1269 2991 
Q 1406 3038 1543 3061 
Q 1681 3084 1819 3084 
Q 2600 3084 3056 2656 
Q 3513 2228 3513 1497 
Q 3513 744 3044 326 
Q 2575 -91 1722 -91 
Q 1428 -91 1123 -41 
Q 819 9 494 109 
L 494 744 
Q 775 591 1075 516 
Q 1375 441 1709 441 
Q 2250 441 2565 725 
Q 2881 1009 2881 1497 
Q 2881 1984 2565 2268 
Q 2250 2553 1709 2553 
Q 1456 2553 1204 2497 
Q 953 2441 691 2322 
L 691 4666 
z
" id="DejaVuSans-35" transform="scale(0.015625)"/>
       </defs>
       <use xlink:href="#DejaVuSans-35"/>
       <use x="63.623047" xlink:href="#DejaVuSans-30"/>
      </g>
     </g>
    </g>
    <g id="ytick_3">
     <g id="line2d_9">
      <g>
       <use style="stroke:#000000;stroke-width:0.8;" x="54" xlink:href="#m2643a93632" y="368.005044"/>
      </g>
     </g>
     <g id="text_10">
      <!-- 100 -->
      <g transform="translate(27.9125 371.804263)scale(0.1 -0.1)">
       <use xlink:href="#DejaVuSans-31"/>
       <use x="63.623047" xlink:href="#DejaVuSans-30"/>
       <use x="127.246094" xlink:href="#DejaVuSans-30"/>
      </g>
     </g>
    </g>
    <g id="ytick_4">
     <g id="line2d_10">
      <g>
       <use style="stroke:#000000;stroke-width:0.8;" x="54" xlink:href="#m2643a93632" y="295.687567"/>
      </g>
     </g>
     <g id="text_11">
      <!-- 150 -->
      <g transform="translate(27.9125 299.486785)scale(0.1 -0.1)">
       <use xlink:href="#DejaVuSans-31"/>
       <use x="63.623047" xlink:href="#DejaVuSans-35"/>
       <use x="127.246094" xlink:href="#DejaVuSans-30"/>
      </g>
     </g>
    </g>
    <g id="ytick_5">
     <g id="line2d_11">
      <g>
       <use style="stroke:#000000;stroke-width:0.8;" x="54" xlink:href="#m2643a93632" y="223.370089"/>
      </g>
     </g>
     <g id="text_12">
      <!-- 200 -->
      <g transform="translate(27.9125 227.169308)scale(0.1 -0.1)">
       <use xlink:href="#DejaVuSans-32"/>
       <use x="63.623047" xlink:href="#DejaVuSans-30"/>
       <use x="127.246094" xlink:href="#DejaVuSans-30"/>
      </g>
     </g>
    </g>
    <g id="ytick_6">
     <g id="line2d_12">
      <g>
       <use style="stroke:#000000;stroke-width:0.8;" x="54" xlink:href="#m2643a93632" y="151.052611"/>
      </g>
     </g>
     <g id="text_13">
      <!-- 250 -->
      <g transform="translate(27.9125 154.85183)scale(0.1 -0.1)">
       <use xlink:href="#DejaVuSans-32"/>
       <use x="63.623047" xlink:href="#DejaVuSans-35"/>
       <use x="127.246094" xlink:href="#DejaVuSans-30"/>
      </g>
     </g>
    </g>
    <g id="ytick_7">
     <g id="line2d_13">
      <g>
       <use style="stroke:#000000;stroke-width:0.8;" x="54" xlink:href="#m2643a93632" y="78.735133"/>
      </g>
     </g>
     <g id="text_14">
      <!-- 300 -->
      <g transform="translate(27.9125 82.534352)scale(0.1 -0.1)">
       <defs>
        <path d="M 2597 2516 
Q 3050 2419 3304 2112 
Q 3559 1806 3559 1356 
Q 3559 666 3084 287 
Q 2609 -91 1734 -91 
Q 1441 -91 1130 -33 
Q 819 25 488 141 
L 488 750 
Q 750 597 1062 519 
Q 1375 441 1716 441 
Q 2309 441 2620 675 
Q 2931 909 2931 1356 
Q 2931 1769 2642 2001 
Q 2353 2234 1838 2234 
L 1294 2234 
L 1294 2753 
L 1863 2753 
Q 2328 2753 2575 2939 
Q 2822 3125 2822 3475 
Q 2822 3834 2567 4026 
Q 2313 4219 1838 4219 
Q 1578 4219 1281 4162 
Q 984 4106 628 3988 
L 628 4550 
Q 988 4650 1302 4700 
Q 1616 4750 1894 4750 
Q 2613 4750 3031 4423 
Q 3450 4097 3450 3541 
Q 3450 3153 3228 2886 
Q 3006 2619 2597 2516 
z
" id="DejaVuSans-33" transform="scale(0.015625)"/>
       </defs>
       <use xlink:href="#DejaVuSans-33"/>
       <use x="63.623047" xlink:href="#DejaVuSans-30"/>
       <use x="127.246094" xlink:href="#DejaVuSans-30"/>
      </g>
     </g>
    </g>
    <g id="text_15">
     <!-- Energy Generated (TWh) -->
     <g transform="translate(21.832812 353.158906)rotate(-90)scale(0.1 -0.1)">
      <defs>
       <path d="M 628 4666 
L 3578 4666 
L 3578 4134 
L 1259 4134 
L 1259 2753 
L 3481 2753 
L 3481 2222 
L 1259 2222 
L 1259 531 
L 3634 531 
L 3634 0 
L 628 0 
L 628 4666 
z
" id="DejaVuSans-45" transform="scale(0.015625)"/>
       <path d="M 2194 1759 
Q 1497 1759 1228 1600 
Q 959 1441 959 1056 
Q 959 750 1161 570 
Q 1363 391 1709 391 
Q 2188 391 2477 730 
Q 2766 1069 2766 1631 
L 2766 1759 
L 2194 1759 
z
M 3341 1997 
L 3341 0 
L 2766 0 
L 2766 531 
Q 2569 213 2275 61 
Q 1981 -91 1556 -91 
Q 1019 -91 701 211 
Q 384 513 384 1019 
Q 384 1609 779 1909 
Q 1175 2209 1959 2209 
L 2766 2209 
L 2766 2266 
Q 2766 2663 2505 2880 
Q 2244 3097 1772 3097 
Q 1472 3097 1187 3025 
Q 903 2953 641 2809 
L 641 3341 
Q 956 3463 1253 3523 
Q 1550 3584 1831 3584 
Q 2591 3584 2966 3190 
Q 3341 2797 3341 1997 
z
" id="DejaVuSans-61" transform="scale(0.015625)"/>
       <path d="M 213 4666 
L 850 4666 
L 1831 722 
L 2809 4666 
L 3519 4666 
L 4500 722 
L 5478 4666 
L 6119 4666 
L 4947 0 
L 4153 0 
L 3169 4050 
L 2175 0 
L 1381 0 
L 213 4666 
z
" id="DejaVuSans-57" transform="scale(0.015625)"/>
      </defs>
      <use xlink:href="#DejaVuSans-45"/>
      <use x="63.183594" xlink:href="#DejaVuSans-6e"/>
      <use x="126.5625" xlink:href="#DejaVuSans-65"/>
      <use x="188.085938" xlink:href="#DejaVuSans-72"/>
      <use x="227.449219" xlink:href="#DejaVuSans-67"/>
      <use x="290.925781" xlink:href="#DejaVuSans-79"/>
      <use x="350.105469" xlink:href="#DejaVuSans-20"/>
      <use x="381.892578" xlink:href="#DejaVuSans-47"/>
      <use x="459.382812" xlink:href="#DejaVuSans-65"/>
      <use x="520.90625" xlink:href="#DejaVuSans-6e"/>
      <use x="584.285156" xlink:href="#DejaVuSans-65"/>
      <use x="645.808594" xlink:href="#DejaVuSans-72"/>
      <use x="686.921875" xlink:href="#DejaVuSans-61"/>
      <use x="748.201172" xlink:href="#DejaVuSans-74"/>
      <use x="787.410156" xlink:href="#DejaVuSans-65"/>
      <use x="848.933594" xlink:href="#DejaVuSans-64"/>
      <use x="912.410156" xlink:href="#DejaVuSans-20"/>
      <use x="944.197266" xlink:href="#DejaVuSans-28"/>
      <use x="983.210938" xlink:href="#DejaVuSans-54"/>
      <use x="1044.294922" xlink:href="#DejaVuSans-57"/>
      <use x="1143.171875" xlink:href="#DejaVuSans-68"/>
      <use x="1206.550781" xlink:href="#DejaVuSans-29"/>
     </g>
    </g>
   </g>
   <g id="patch_3">
    <path d="M 54 512.64 
L 54 69.12 
" style="fill:none;stroke:#000000;stroke-linecap:square;stroke-linejoin:miter;stroke-width:0.8;"/>
   </g>
   <g id="patch_4">
    <path d="M 388.8 512.64 
L 388.8 69.12 
" style="fill:none;stroke:#000000;stroke-linecap:square;stroke-linejoin:miter;stroke-width:0.8;"/>
   </g>
   <g id="patch_5">
    <path d="M 54 512.64 
L 388.8 512.64 
" style="fill:none;stroke:#000000;stroke-linecap:square;stroke-linejoin:miter;stroke-width:0.8;"/>
   </g>
   <g id="patch_6">
    <path d="M 54 69.12 
L 388.8 69.12 
" style="fill:none;stroke:#000000;stroke-linecap:square;stroke-linejoin:miter;stroke-width:0.8;"/>
   </g>
  </g>
 </g>
 <defs>
  <clipPath id="pd022a5ef18">
   <rect height="443.52" width="334.8" x="54" y="69.12"/>
  </clipPath>
 </defs>
</svg>
