<?xml version="1.0" encoding="utf-8" standalone="no"?>
<!DOCTYPE svg PUBLIC "-//W3C//DTD SVG 1.1//EN"
  "http://www.w3.org/Graphics/SVG/1.1/DTD/svg11.dtd">
<svg height="864pt" version="1.1" viewBox="0 0 576 864" width="576pt" xmlns="http://www.w3.org/2000/svg" xmlns:xlink="http://www.w3.org/1999/xlink">
 <metadata>
  <rdf:RDF xmlns:cc="http://creativecommons.org/ns#" xmlns:dc="http://purl.org/dc/elements/1.1/" xmlns:rdf="http://www.w3.org/1999/02/22-rdf-syntax-ns#">
   <cc:Work>
    <dc:type rdf:resource="http://purl.org/dc/dcmitype/StillImage"/>
    <dc:date>2021-06-15T16:20:29.657259</dc:date>
    <dc:format>image/svg+xml</dc:format>
    <dc:creator>
     <cc:Agent>
      <dc:title>Matplotlib v3.4.1, https://matplotlib.org/</dc:title>
     </cc:Agent>
    </dc:creator>
   </cc:Work>
  </rdf:RDF>
 </metadata>
 <defs>
  <style type="text/css">*{stroke-linecap:butt;stroke-linejoin:round;}</style>
 </defs>
 <g id="figure_1">
  <g id="patch_1">
   <path d="M 0 864 
L 576 864 
L 576 0 
L 0 0 
z
" style="fill:#ffffff;"/>
  </g>
  <g id="axes_1">
   <g id="patch_2">
    <path d="M 72 768.96 
L 518.4 768.96 
L 518.4 103.68 
L 72 103.68 
z
" style="fill:#ffffff;"/>
   </g>
   <g id="PolyCollection_1">
    <path clip-path="url(#pd875240dea)" d="M 92.290909 477.67721 
L 92.290909 768.96 
L 96.390083 768.96 
L 100.489256 768.96 
L 104.58843 768.96 
L 108.687603 768.96 
L 112.786777 768.96 
L 116.88595 768.96 
L 120.985124 768.96 
L 125.084298 768.96 
L 129.183471 768.96 
L 133.282645 768.96 
L 137.381818 768.96 
L 141.480992 768.96 
L 145.580165 768.96 
L 149.679339 768.96 
L 153.778512 768.96 
L 157.877686 768.96 
L 161.97686 768.96 
L 166.076033 768.96 
L 170.175207 768.96 
L 174.27438 768.96 
L 178.373554 768.96 
L 182.472727 768.96 
L 186.571901 768.96 
L 190.671074 768.96 
L 194.770248 768.96 
L 198.869421 768.96 
L 202.968595 768.96 
L 207.067769 768.96 
L 211.166942 768.96 
L 215.266116 768.96 
L 219.365289 768.96 
L 223.464463 768.96 
L 227.563636 768.96 
L 231.66281 768.96 
L 235.761983 768.96 
L 239.861157 768.96 
L 243.960331 768.96 
L 248.059504 768.96 
L 252.158678 768.96 
L 256.257851 768.96 
L 260.357025 768.96 
L 264.456198 768.96 
L 268.555372 768.96 
L 272.654545 768.96 
L 276.753719 768.96 
L 280.852893 768.96 
L 284.952066 768.96 
L 289.05124 768.96 
L 293.150413 768.96 
L 297.249587 768.96 
L 301.34876 768.96 
L 305.447934 768.96 
L 309.547107 768.96 
L 313.646281 768.96 
L 317.745455 768.96 
L 321.844628 768.96 
L 325.943802 768.96 
L 330.042975 768.96 
L 334.142149 768.96 
L 338.241322 768.96 
L 342.340496 768.96 
L 346.439669 768.96 
L 350.538843 768.96 
L 354.638017 768.96 
L 358.73719 768.96 
L 362.836364 768.96 
L 366.935537 768.96 
L 371.034711 768.96 
L 375.133884 768.96 
L 379.233058 768.96 
L 383.332231 768.96 
L 387.431405 768.96 
L 391.530579 768.96 
L 395.629752 768.96 
L 399.728926 768.96 
L 403.828099 768.96 
L 407.927273 768.96 
L 412.026446 768.96 
L 416.12562 768.96 
L 420.224793 768.96 
L 424.323967 768.96 
L 428.42314 768.96 
L 432.522314 768.96 
L 436.621488 768.96 
L 440.720661 768.96 
L 444.819835 768.96 
L 448.919008 768.96 
L 453.018182 768.96 
L 457.117355 768.96 
L 461.216529 768.96 
L 465.315702 768.96 
L 469.414876 768.96 
L 473.51405 768.96 
L 477.613223 768.96 
L 481.712397 768.96 
L 485.81157 768.96 
L 489.910744 768.96 
L 494.009917 768.96 
L 498.109091 768.96 
L 498.109091 564.605279 
L 498.109091 564.605279 
L 494.009917 564.046802 
L 489.910744 563.484009 
L 485.81157 562.915483 
L 481.712397 562.340771 
L 477.613223 561.759743 
L 473.51405 561.1731 
L 469.414876 560.580436 
L 465.315702 559.982543 
L 461.216529 559.379212 
L 457.117355 558.76971 
L 453.018182 558.152545 
L 448.919008 557.528074 
L 444.819835 556.896567 
L 440.720661 556.257917 
L 436.621488 555.61421 
L 432.522314 554.962895 
L 428.42314 554.306676 
L 424.323967 553.642305 
L 420.224793 552.97119 
L 416.12562 552.290841 
L 412.026446 551.6018 
L 407.927273 550.904323 
L 403.828099 550.198811 
L 399.728926 549.485384 
L 395.629752 548.76514 
L 391.530579 548.040011 
L 387.431405 547.309622 
L 383.332231 546.57269 
L 379.233058 545.831091 
L 375.133884 545.088602 
L 371.034711 544.34131 
L 366.935537 543.586161 
L 362.836364 542.820079 
L 358.73719 542.044744 
L 354.638017 541.262155 
L 350.538843 540.473928 
L 346.439669 539.677545 
L 342.340496 538.872667 
L 338.241322 538.064527 
L 334.142149 537.247274 
L 330.042975 536.424259 
L 325.943802 535.588144 
L 321.844628 534.736953 
L 317.745455 533.879301 
L 313.646281 533.01541 
L 309.547107 532.145587 
L 305.447934 531.268674 
L 301.34876 530.378294 
L 297.249587 529.478021 
L 293.150413 528.571502 
L 289.05124 527.653738 
L 284.952066 526.727112 
L 280.852893 525.792565 
L 276.753719 524.84366 
L 272.654545 523.887319 
L 268.555372 522.928296 
L 264.456198 521.968108 
L 260.357025 521.00065 
L 256.257851 520.028332 
L 252.158678 519.048108 
L 248.059504 518.064814 
L 243.960331 517.078028 
L 239.861157 516.08927 
L 235.761983 515.094962 
L 231.66281 514.09176 
L 227.563636 513.083245 
L 223.464463 512.068292 
L 219.365289 511.057004 
L 215.266116 510.055799 
L 211.166942 509.070784 
L 207.067769 508.096677 
L 202.968595 507.134906 
L 198.869421 506.180597 
L 194.770248 505.235147 
L 190.671074 504.297952 
L 186.571901 503.370722 
L 182.472727 502.446066 
L 178.373554 501.508851 
L 174.27438 500.55573 
L 170.175207 499.563849 
L 166.076033 498.560091 
L 161.97686 497.546 
L 157.877686 496.520505 
L 153.778512 495.500795 
L 149.679339 494.485894 
L 145.580165 493.452338 
L 141.480992 492.382519 
L 137.381818 491.211365 
L 133.282645 490.002 
L 129.183471 488.777582 
L 125.084298 487.546637 
L 120.985124 486.312958 
L 116.88595 485.07928 
L 112.786777 483.845602 
L 108.687603 482.611923 
L 104.58843 481.378245 
L 100.489256 480.144566 
L 96.390083 478.910888 
L 92.290909 477.67721 
z
" style="fill:#3182bd;"/>
   </g>
   <g id="PolyCollection_2">
    <path clip-path="url(#pd875240dea)" d="M 92.290909 445.288463 
L 92.290909 477.67721 
L 96.390083 478.910888 
L 100.489256 480.144566 
L 104.58843 481.378245 
L 108.687603 482.611923 
L 112.786777 483.845602 
L 116.88595 485.07928 
L 120.985124 486.312958 
L 125.084298 487.546637 
L 129.183471 488.777582 
L 133.282645 490.002 
L 137.381818 491.211365 
L 141.480992 492.382519 
L 145.580165 493.452338 
L 149.679339 494.485894 
L 153.778512 495.500795 
L 157.877686 496.520505 
L 161.97686 497.546 
L 166.076033 498.560091 
L 170.175207 499.563849 
L 174.27438 500.55573 
L 178.373554 501.508851 
L 182.472727 502.446066 
L 186.571901 503.370722 
L 190.671074 504.297952 
L 194.770248 505.235147 
L 198.869421 506.180597 
L 202.968595 507.134906 
L 207.067769 508.096677 
L 211.166942 509.070784 
L 215.266116 510.055799 
L 219.365289 511.057004 
L 223.464463 512.068292 
L 227.563636 513.083245 
L 231.66281 514.09176 
L 235.761983 515.094962 
L 239.861157 516.08927 
L 243.960331 517.078028 
L 248.059504 518.064814 
L 252.158678 519.048108 
L 256.257851 520.028332 
L 260.357025 521.00065 
L 264.456198 521.968108 
L 268.555372 522.928296 
L 272.654545 523.887319 
L 276.753719 524.84366 
L 280.852893 525.792565 
L 284.952066 526.727112 
L 289.05124 527.653738 
L 293.150413 528.571502 
L 297.249587 529.478021 
L 301.34876 530.378294 
L 305.447934 531.268674 
L 309.547107 532.145587 
L 313.646281 533.01541 
L 317.745455 533.879301 
L 321.844628 534.736953 
L 325.943802 535.588144 
L 330.042975 536.424259 
L 334.142149 537.247274 
L 338.241322 538.064527 
L 342.340496 538.872667 
L 346.439669 539.677545 
L 350.538843 540.473928 
L 354.638017 541.262155 
L 358.73719 542.044744 
L 362.836364 542.820079 
L 366.935537 543.586161 
L 371.034711 544.34131 
L 375.133884 545.088602 
L 379.233058 545.831091 
L 383.332231 546.57269 
L 387.431405 547.309622 
L 391.530579 548.040011 
L 395.629752 548.76514 
L 399.728926 549.485384 
L 403.828099 550.198811 
L 407.927273 550.904323 
L 412.026446 551.6018 
L 416.12562 552.290841 
L 420.224793 552.97119 
L 424.323967 553.642305 
L 428.42314 554.306676 
L 432.522314 554.962895 
L 436.621488 555.61421 
L 440.720661 556.257917 
L 444.819835 556.896567 
L 448.919008 557.528074 
L 453.018182 558.152545 
L 457.117355 558.76971 
L 461.216529 559.379212 
L 465.315702 559.982543 
L 469.414876 560.580436 
L 473.51405 561.1731 
L 477.613223 561.759743 
L 481.712397 562.340771 
L 485.81157 562.915483 
L 489.910744 563.484009 
L 494.009917 564.046802 
L 498.109091 564.605279 
L 498.109091 543.779448 
L 498.109091 543.779448 
L 494.009917 543.164566 
L 489.910744 542.543637 
L 485.81157 541.916458 
L 481.712397 541.283534 
L 477.613223 540.644109 
L 473.51405 539.9995 
L 469.414876 539.34812 
L 465.315702 538.688895 
L 461.216529 538.022338 
L 457.117355 537.348502 
L 453.018182 536.66556 
L 448.919008 535.974374 
L 444.819835 535.276016 
L 440.720661 534.570797 
L 436.621488 533.859179 
L 432.522314 533.139151 
L 428.42314 532.412984 
L 424.323967 531.679252 
L 420.224793 530.937725 
L 416.12562 530.186396 
L 412.026446 529.426165 
L 407.927273 528.657529 
L 403.828099 527.881846 
L 399.728926 527.097421 
L 395.629752 526.304333 
L 391.530579 525.503977 
L 387.431405 524.695975 
L 383.332231 523.878343 
L 379.233058 523.052208 
L 375.133884 522.221898 
L 371.034711 521.384345 
L 366.935537 520.537235 
L 362.836364 519.679011 
L 358.73719 518.810687 
L 354.638017 517.934704 
L 350.538843 517.051537 
L 346.439669 516.158216 
L 342.340496 515.254649 
L 338.241322 514.344292 
L 334.142149 513.424097 
L 330.042975 512.495625 
L 325.943802 511.554799 
L 321.844628 510.598319 
L 317.745455 509.631505 
L 313.646281 508.654003 
L 309.547107 507.664902 
L 305.447934 506.666183 
L 301.34876 505.656982 
L 297.249587 504.637286 
L 293.150413 503.609246 
L 289.05124 502.568809 
L 284.952066 501.516833 
L 280.852893 500.453468 
L 276.753719 499.375726 
L 272.654545 498.289293 
L 268.555372 497.195672 
L 264.456198 496.09455 
L 260.357025 494.979146 
L 256.257851 493.855924 
L 252.158678 492.722898 
L 248.059504 491.581143 
L 243.960331 490.432678 
L 239.861157 489.276883 
L 235.761983 488.114545 
L 231.66281 486.942139 
L 227.563636 485.760409 
L 223.464463 484.568904 
L 219.365289 483.367595 
L 215.266116 482.162555 
L 211.166942 480.95363 
L 207.067769 479.740527 
L 202.968595 478.523369 
L 198.869421 477.303722 
L 194.770248 476.079497 
L 190.671074 474.853751 
L 186.571901 473.626718 
L 182.472727 472.39899 
L 178.373554 471.170234 
L 174.27438 469.941466 
L 170.175207 468.712434 
L 166.076033 467.483025 
L 161.97686 466.253053 
L 157.877686 465.02184 
L 153.778512 463.789981 
L 149.679339 462.557747 
L 145.580165 461.32513 
L 141.480992 460.092348 
L 137.381818 458.858926 
L 133.282645 457.625247 
L 129.183471 456.391569 
L 125.084298 455.157891 
L 120.985124 453.924212 
L 116.88595 452.690534 
L 112.786777 451.456855 
L 108.687603 450.223177 
L 104.58843 448.989499 
L 100.489256 447.75582 
L 96.390083 446.522142 
L 92.290909 445.288463 
z
" style="fill:#6baed6;"/>
   </g>
   <g id="PolyCollection_3">
    <path clip-path="url(#pd875240dea)" d="M 92.290909 439.908261 
L 92.290909 445.288463 
L 96.390083 446.522142 
L 100.489256 447.75582 
L 104.58843 448.989499 
L 108.687603 450.223177 
L 112.786777 451.456855 
L 116.88595 452.690534 
L 120.985124 453.924212 
L 125.084298 455.157891 
L 129.183471 456.391569 
L 133.282645 457.625247 
L 137.381818 458.858926 
L 141.480992 460.092348 
L 145.580165 461.32513 
L 149.679339 462.557747 
L 153.778512 463.789981 
L 157.877686 465.02184 
L 161.97686 466.253053 
L 166.076033 467.483025 
L 170.175207 468.712434 
L 174.27438 469.941466 
L 178.373554 471.170234 
L 182.472727 472.39899 
L 186.571901 473.626718 
L 190.671074 474.853751 
L 194.770248 476.079497 
L 198.869421 477.303722 
L 202.968595 478.523369 
L 207.067769 479.740527 
L 211.166942 480.95363 
L 215.266116 482.162555 
L 219.365289 483.367595 
L 223.464463 484.568904 
L 227.563636 485.760409 
L 231.66281 486.942139 
L 235.761983 488.114545 
L 239.861157 489.276883 
L 243.960331 490.432678 
L 248.059504 491.581143 
L 252.158678 492.722898 
L 256.257851 493.855924 
L 260.357025 494.979146 
L 264.456198 496.09455 
L 268.555372 497.195672 
L 272.654545 498.289293 
L 276.753719 499.375726 
L 280.852893 500.453468 
L 284.952066 501.516833 
L 289.05124 502.568809 
L 293.150413 503.609246 
L 297.249587 504.637286 
L 301.34876 505.656982 
L 305.447934 506.666183 
L 309.547107 507.664902 
L 313.646281 508.654003 
L 317.745455 509.631505 
L 321.844628 510.598319 
L 325.943802 511.554799 
L 330.042975 512.495625 
L 334.142149 513.424097 
L 338.241322 514.344292 
L 342.340496 515.254649 
L 346.439669 516.158216 
L 350.538843 517.051537 
L 354.638017 517.934704 
L 358.73719 518.810687 
L 362.836364 519.679011 
L 366.935537 520.537235 
L 371.034711 521.384345 
L 375.133884 522.221898 
L 379.233058 523.052208 
L 383.332231 523.878343 
L 387.431405 524.695975 
L 391.530579 525.503977 
L 395.629752 526.304333 
L 399.728926 527.097421 
L 403.828099 527.881846 
L 407.927273 528.657529 
L 412.026446 529.426165 
L 416.12562 530.186396 
L 420.224793 530.937725 
L 424.323967 531.679252 
L 428.42314 532.412984 
L 432.522314 533.139151 
L 436.621488 533.859179 
L 440.720661 534.570797 
L 444.819835 535.276016 
L 448.919008 535.974374 
L 453.018182 536.66556 
L 457.117355 537.348502 
L 461.216529 538.022338 
L 465.315702 538.688895 
L 469.414876 539.34812 
L 473.51405 539.9995 
L 477.613223 540.644109 
L 481.712397 541.283534 
L 485.81157 541.916458 
L 489.910744 542.543637 
L 494.009917 543.164566 
L 498.109091 543.779448 
L 498.109091 538.943548 
L 498.109091 538.943548 
L 494.009917 538.319846 
L 489.910744 537.690787 
L 485.81157 537.055735 
L 481.712397 536.414147 
L 477.613223 535.766421 
L 473.51405 535.112261 
L 469.414876 534.450303 
L 465.315702 533.780365 
L 461.216529 533.103614 
L 457.117355 532.417338 
L 453.018182 531.724072 
L 448.919008 531.023271 
L 444.819835 530.314938 
L 440.720661 529.601152 
L 436.621488 528.879602 
L 432.522314 528.150007 
L 428.42314 527.413102 
L 424.323967 526.668557 
L 420.224793 525.915194 
L 416.12562 525.153798 
L 412.026446 524.384811 
L 407.927273 523.609447 
L 403.828099 522.824984 
L 399.728926 522.032419 
L 395.629752 521.232197 
L 391.530579 520.423599 
L 387.431405 519.605718 
L 383.332231 518.779195 
L 379.233058 517.946731 
L 375.133884 517.109529 
L 371.034711 516.262888 
L 366.935537 515.40445 
L 362.836364 514.536242 
L 358.73719 513.660674 
L 354.638017 512.777729 
L 350.538843 511.885095 
L 346.439669 510.982372 
L 342.340496 510.072667 
L 338.241322 509.153361 
L 334.142149 508.226312 
L 330.042975 507.288734 
L 325.943802 506.334965 
L 321.844628 505.368994 
L 317.745455 504.393784 
L 313.646281 503.407468 
L 309.547107 502.412419 
L 305.447934 501.407634 
L 301.34876 500.391631 
L 297.249587 499.365425 
L 293.150413 498.328006 
L 289.05124 497.280119 
L 284.952066 496.220676 
L 280.852893 495.14859 
L 276.753719 494.066022 
L 272.654545 492.974269 
L 268.555372 491.877069 
L 264.456198 490.766705 
L 260.357025 489.646322 
L 256.257851 488.518225 
L 252.158678 487.380734 
L 248.059504 486.23607 
L 243.960331 485.084741 
L 239.861157 483.92613 
L 235.761983 482.758433 
L 231.66281 481.581918 
L 227.563636 480.396422 
L 223.464463 479.200618 
L 219.365289 477.996792 
L 215.266116 476.790316 
L 211.166942 475.57989 
L 207.067769 474.365294 
L 202.968595 473.14698 
L 198.869421 471.925242 
L 194.770248 470.700198 
L 190.671074 469.473958 
L 186.571901 468.246756 
L 182.472727 467.018787 
L 178.373554 465.790032 
L 174.27438 464.561264 
L 170.175207 463.332231 
L 166.076033 462.102823 
L 161.97686 460.87285 
L 157.877686 459.641637 
L 153.778512 458.409778 
L 149.679339 457.177545 
L 145.580165 455.944927 
L 141.480992 454.712146 
L 137.381818 453.478723 
L 133.282645 452.245045 
L 129.183471 451.011367 
L 125.084298 449.777688 
L 120.985124 448.54401 
L 116.88595 447.310331 
L 112.786777 446.076653 
L 108.687603 444.842975 
L 104.58843 443.609296 
L 100.489256 442.375618 
L 96.390083 441.141939 
L 92.290909 439.908261 
z
" style="fill:#9ecae1;"/>
   </g>
   <g id="PolyCollection_4">
    <path clip-path="url(#pd875240dea)" d="M 92.290909 433.17061 
L 92.290909 439.908261 
L 96.390083 441.141939 
L 100.489256 442.375618 
L 104.58843 443.609296 
L 108.687603 444.842975 
L 112.786777 446.076653 
L 116.88595 447.310331 
L 120.985124 448.54401 
L 125.084298 449.777688 
L 129.183471 451.011367 
L 133.282645 452.245045 
L 137.381818 453.478723 
L 141.480992 454.712146 
L 145.580165 455.944927 
L 149.679339 457.177545 
L 153.778512 458.409778 
L 157.877686 459.641637 
L 161.97686 460.87285 
L 166.076033 462.102823 
L 170.175207 463.332231 
L 174.27438 464.561264 
L 178.373554 465.790032 
L 182.472727 467.018787 
L 186.571901 468.246756 
L 190.671074 469.473958 
L 194.770248 470.700198 
L 198.869421 471.925242 
L 202.968595 473.14698 
L 207.067769 474.365294 
L 211.166942 475.57989 
L 215.266116 476.790316 
L 219.365289 477.996792 
L 223.464463 479.200618 
L 227.563636 480.396422 
L 231.66281 481.581918 
L 235.761983 482.758433 
L 239.861157 483.92613 
L 243.960331 485.084741 
L 248.059504 486.23607 
L 252.158678 487.380734 
L 256.257851 488.518225 
L 260.357025 489.646322 
L 264.456198 490.766705 
L 268.555372 491.877069 
L 272.654545 492.974269 
L 276.753719 494.066022 
L 280.852893 495.14859 
L 284.952066 496.220676 
L 289.05124 497.280119 
L 293.150413 498.328006 
L 297.249587 499.365425 
L 301.34876 500.391631 
L 305.447934 501.407634 
L 309.547107 502.412419 
L 313.646281 503.407468 
L 317.745455 504.393784 
L 321.844628 505.368994 
L 325.943802 506.334965 
L 330.042975 507.288734 
L 334.142149 508.226312 
L 338.241322 509.153361 
L 342.340496 510.072667 
L 346.439669 510.982372 
L 350.538843 511.885095 
L 354.638017 512.777729 
L 358.73719 513.660674 
L 362.836364 514.536242 
L 366.935537 515.40445 
L 371.034711 516.262888 
L 375.133884 517.109529 
L 379.233058 517.946731 
L 383.332231 518.779195 
L 387.431405 519.605718 
L 391.530579 520.423599 
L 395.629752 521.232197 
L 399.728926 522.032419 
L 403.828099 522.824984 
L 407.927273 523.609447 
L 412.026446 524.384811 
L 416.12562 525.153798 
L 420.224793 525.915194 
L 424.323967 526.668557 
L 428.42314 527.413102 
L 432.522314 528.150007 
L 436.621488 528.879602 
L 440.720661 529.601152 
L 444.819835 530.314938 
L 448.919008 531.023271 
L 453.018182 531.724072 
L 457.117355 532.417338 
L 461.216529 533.103614 
L 465.315702 533.780365 
L 469.414876 534.450303 
L 473.51405 535.112261 
L 477.613223 535.766421 
L 481.712397 536.414147 
L 485.81157 537.055735 
L 489.910744 537.690787 
L 494.009917 538.319846 
L 498.109091 538.943548 
L 498.109091 532.238111 
L 498.109091 532.238111 
L 494.009917 531.612552 
L 489.910744 530.981381 
L 485.81157 530.344912 
L 481.712397 529.700992 
L 477.613223 529.050932 
L 473.51405 528.394961 
L 469.414876 527.731288 
L 465.315702 527.060212 
L 461.216529 526.382356 
L 457.117355 525.694067 
L 453.018182 524.998476 
L 448.919008 524.295902 
L 444.819835 523.585976 
L 440.720661 522.871357 
L 436.621488 522.149213 
L 432.522314 521.418946 
L 428.42314 520.681282 
L 424.323967 519.936419 
L 420.224793 519.182778 
L 416.12562 518.42068 
L 412.026446 517.650775 
L 407.927273 516.874794 
L 403.828099 516.089698 
L 399.728926 515.296888 
L 395.629752 514.496402 
L 391.530579 513.687381 
L 387.431405 512.869164 
L 383.332231 512.042211 
L 379.233058 511.209747 
L 375.133884 510.372545 
L 371.034711 509.525525 
L 366.935537 508.666926 
L 362.836364 507.798718 
L 358.73719 506.923086 
L 354.638017 506.040078 
L 350.538843 505.147444 
L 346.439669 504.244721 
L 342.340496 503.335016 
L 338.241322 502.41571 
L 334.142149 501.488661 
L 330.042975 500.551083 
L 325.943802 499.597314 
L 321.844628 498.631343 
L 317.745455 497.656132 
L 313.646281 496.669816 
L 309.547107 495.674768 
L 305.447934 494.669983 
L 301.34876 493.65398 
L 297.249587 492.627774 
L 293.150413 491.590354 
L 289.05124 490.542468 
L 284.952066 489.483025 
L 280.852893 488.410939 
L 276.753719 487.328371 
L 272.654545 486.236618 
L 268.555372 485.139418 
L 264.456198 484.029054 
L 260.357025 482.908671 
L 256.257851 481.780573 
L 252.158678 480.643083 
L 248.059504 479.498419 
L 243.960331 478.34709 
L 239.861157 477.188479 
L 235.761983 476.020782 
L 231.66281 474.844267 
L 227.563636 473.65877 
L 223.464463 472.462967 
L 219.365289 471.259141 
L 215.266116 470.052665 
L 211.166942 468.842239 
L 207.067769 467.627643 
L 202.968595 466.409329 
L 198.869421 465.187591 
L 194.770248 463.962547 
L 190.671074 462.736307 
L 186.571901 461.509105 
L 182.472727 460.281136 
L 178.373554 459.052381 
L 174.27438 457.823613 
L 170.175207 456.59458 
L 166.076033 455.365171 
L 161.97686 454.135199 
L 157.877686 452.903986 
L 153.778512 451.672127 
L 149.679339 450.439893 
L 145.580165 449.207276 
L 141.480992 447.974495 
L 137.381818 446.741072 
L 133.282645 445.507394 
L 129.183471 444.273715 
L 125.084298 443.040037 
L 120.985124 441.806359 
L 116.88595 440.57268 
L 112.786777 439.339002 
L 108.687603 438.105323 
L 104.58843 436.871645 
L 100.489256 435.637967 
L 96.390083 434.404288 
L 92.290909 433.17061 
z
" style="fill:#c6dbef;"/>
   </g>
   <g id="PolyCollection_5">
    <path clip-path="url(#pd875240dea)" d="M 92.290909 400.651457 
L 92.290909 433.17061 
L 96.390083 434.404288 
L 100.489256 435.637967 
L 104.58843 436.871645 
L 108.687603 438.105323 
L 112.786777 439.339002 
L 116.88595 440.57268 
L 120.985124 441.806359 
L 125.084298 443.040037 
L 129.183471 444.273715 
L 133.282645 445.507394 
L 137.381818 446.741072 
L 141.480992 447.974495 
L 145.580165 449.207276 
L 149.679339 450.439893 
L 153.778512 451.672127 
L 157.877686 452.903986 
L 161.97686 454.135199 
L 166.076033 455.365171 
L 170.175207 456.59458 
L 174.27438 457.823613 
L 178.373554 459.052381 
L 182.472727 460.281136 
L 186.571901 461.509105 
L 190.671074 462.736307 
L 194.770248 463.962547 
L 198.869421 465.187591 
L 202.968595 466.409329 
L 207.067769 467.627643 
L 211.166942 468.842239 
L 215.266116 470.052665 
L 219.365289 471.259141 
L 223.464463 472.462967 
L 227.563636 473.65877 
L 231.66281 474.844267 
L 235.761983 476.020782 
L 239.861157 477.188479 
L 243.960331 478.34709 
L 248.059504 479.498419 
L 252.158678 480.643083 
L 256.257851 481.780573 
L 260.357025 482.908671 
L 264.456198 484.029054 
L 268.555372 485.139418 
L 272.654545 486.236618 
L 276.753719 487.328371 
L 280.852893 488.410939 
L 284.952066 489.483025 
L 289.05124 490.542468 
L 293.150413 491.590354 
L 297.249587 492.627774 
L 301.34876 493.65398 
L 305.447934 494.669983 
L 309.547107 495.674768 
L 313.646281 496.669816 
L 317.745455 497.656132 
L 321.844628 498.631343 
L 325.943802 499.597314 
L 330.042975 500.551083 
L 334.142149 501.488661 
L 338.241322 502.41571 
L 342.340496 503.335016 
L 346.439669 504.244721 
L 350.538843 505.147444 
L 354.638017 506.040078 
L 358.73719 506.923086 
L 362.836364 507.798718 
L 366.935537 508.666926 
L 371.034711 509.525525 
L 375.133884 510.372545 
L 379.233058 511.209747 
L 383.332231 512.042211 
L 387.431405 512.869164 
L 391.530579 513.687381 
L 395.629752 514.496402 
L 399.728926 515.296888 
L 403.828099 516.089698 
L 407.927273 516.874794 
L 412.026446 517.650775 
L 416.12562 518.42068 
L 420.224793 519.182778 
L 424.323967 519.936419 
L 428.42314 520.681282 
L 432.522314 521.418946 
L 436.621488 522.149213 
L 440.720661 522.871357 
L 444.819835 523.585976 
L 448.919008 524.295902 
L 453.018182 524.998476 
L 457.117355 525.694067 
L 461.216529 526.382356 
L 465.315702 527.060212 
L 469.414876 527.731288 
L 473.51405 528.394961 
L 477.613223 529.050932 
L 481.712397 529.700992 
L 485.81157 530.344912 
L 489.910744 530.981381 
L 494.009917 531.612552 
L 498.109091 532.238111 
L 498.109091 499.924906 
L 498.109091 499.924906 
L 494.009917 499.287164 
L 489.910744 498.644039 
L 485.81157 497.996018 
L 481.712397 497.342383 
L 477.613223 496.682601 
L 473.51405 496.016626 
L 469.414876 495.343364 
L 465.315702 494.662798 
L 461.216529 493.976266 
L 457.117355 493.280127 
L 453.018182 492.577906 
L 448.919008 491.868313 
L 444.819835 491.150803 
L 440.720661 490.427698 
L 436.621488 489.697813 
L 432.522314 488.961013 
L 428.42314 488.217398 
L 424.323967 487.467141 
L 420.224793 486.709164 
L 416.12562 485.942587 
L 412.026446 485.168413 
L 407.927273 484.38825 
L 403.828099 483.599367 
L 399.728926 482.802739 
L 395.629752 481.99916 
L 391.530579 481.187558 
L 387.431405 480.366735 
L 383.332231 479.537296 
L 379.233058 478.703047 
L 375.133884 477.865002 
L 371.034711 477.017168 
L 366.935537 476.157077 
L 362.836364 475.288043 
L 358.73719 474.412033 
L 354.638017 473.528219 
L 350.538843 472.635251 
L 346.439669 471.732528 
L 342.340496 470.822823 
L 338.241322 469.903517 
L 334.142149 468.976468 
L 330.042975 468.038679 
L 325.943802 467.084588 
L 321.844628 466.118295 
L 317.745455 465.142518 
L 313.646281 464.1558 
L 309.547107 463.16007 
L 305.447934 462.154746 
L 301.34876 461.138394 
L 297.249587 460.112185 
L 293.150413 459.074734 
L 289.05124 458.026342 
L 284.952066 456.966234 
L 280.852893 455.893483 
L 276.753719 454.810436 
L 272.654545 453.718662 
L 268.555372 452.621462 
L 264.456198 451.511098 
L 260.357025 450.390714 
L 256.257851 449.262617 
L 252.158678 448.125126 
L 248.059504 446.980111 
L 243.960331 445.828364 
L 239.861157 444.669336 
L 235.761983 443.501629 
L 231.66281 442.325114 
L 227.563636 441.139618 
L 223.464463 439.943815 
L 219.365289 438.739989 
L 215.266116 437.533512 
L 211.166942 436.323087 
L 207.067769 435.10849 
L 202.968595 433.890176 
L 198.869421 432.668438 
L 194.770248 431.443394 
L 190.671074 430.217154 
L 186.571901 428.989952 
L 182.472727 427.761983 
L 178.373554 426.533228 
L 174.27438 425.30446 
L 170.175207 424.075427 
L 166.076033 422.846019 
L 161.97686 421.616046 
L 157.877686 420.384834 
L 153.778512 419.152974 
L 149.679339 417.920741 
L 145.580165 416.688123 
L 141.480992 415.455342 
L 137.381818 414.22192 
L 133.282645 412.988241 
L 129.183471 411.754563 
L 125.084298 410.520884 
L 120.985124 409.287206 
L 116.88595 408.053528 
L 112.786777 406.819849 
L 108.687603 405.586171 
L 104.58843 404.352492 
L 100.489256 403.118814 
L 96.390083 401.885136 
L 92.290909 400.651457 
z
" style="fill:#e6550d;"/>
   </g>
   <g id="PolyCollection_6">
    <path clip-path="url(#pd875240dea)" d="M 92.290909 345.338553 
L 92.290909 400.651457 
L 96.390083 401.885136 
L 100.489256 403.118814 
L 104.58843 404.352492 
L 108.687603 405.586171 
L 112.786777 406.819849 
L 116.88595 408.053528 
L 120.985124 409.287206 
L 125.084298 410.520884 
L 129.183471 411.754563 
L 133.282645 412.988241 
L 137.381818 414.22192 
L 141.480992 415.455342 
L 145.580165 416.688123 
L 149.679339 417.920741 
L 153.778512 419.152974 
L 157.877686 420.384834 
L 161.97686 421.616046 
L 166.076033 422.846019 
L 170.175207 424.075427 
L 174.27438 425.30446 
L 178.373554 426.533228 
L 182.472727 427.761983 
L 186.571901 428.989952 
L 190.671074 430.217154 
L 194.770248 431.443394 
L 198.869421 432.668438 
L 202.968595 433.890176 
L 207.067769 435.10849 
L 211.166942 436.323087 
L 215.266116 437.533512 
L 219.365289 438.739989 
L 223.464463 439.943815 
L 227.563636 441.139618 
L 231.66281 442.325114 
L 235.761983 443.501629 
L 239.861157 444.669336 
L 243.960331 445.828364 
L 248.059504 446.980111 
L 252.158678 448.125126 
L 256.257851 449.262617 
L 260.357025 450.390714 
L 264.456198 451.511098 
L 268.555372 452.621462 
L 272.654545 453.718662 
L 276.753719 454.810436 
L 280.852893 455.893483 
L 284.952066 456.966234 
L 289.05124 458.026342 
L 293.150413 459.074734 
L 297.249587 460.112185 
L 301.34876 461.138394 
L 305.447934 462.154746 
L 309.547107 463.16007 
L 313.646281 464.1558 
L 317.745455 465.142518 
L 321.844628 466.118295 
L 325.943802 467.084588 
L 330.042975 468.038679 
L 334.142149 468.976468 
L 338.241322 469.903517 
L 342.340496 470.822823 
L 346.439669 471.732528 
L 350.538843 472.635251 
L 354.638017 473.528219 
L 358.73719 474.412033 
L 362.836364 475.288043 
L 366.935537 476.157077 
L 371.034711 477.017168 
L 375.133884 477.865002 
L 379.233058 478.703047 
L 383.332231 479.537296 
L 387.431405 480.366735 
L 391.530579 481.187558 
L 395.629752 481.99916 
L 399.728926 482.802739 
L 403.828099 483.599367 
L 407.927273 484.38825 
L 412.026446 485.168413 
L 416.12562 485.942587 
L 420.224793 486.709164 
L 424.323967 487.467141 
L 428.42314 488.217398 
L 432.522314 488.961013 
L 436.621488 489.697813 
L 440.720661 490.427698 
L 444.819835 491.150803 
L 448.919008 491.868313 
L 453.018182 492.577906 
L 457.117355 493.280127 
L 461.216529 493.976266 
L 465.315702 494.662798 
L 469.414876 495.343364 
L 473.51405 496.016626 
L 477.613223 496.682601 
L 481.712397 497.342383 
L 485.81157 497.996018 
L 489.910744 498.644039 
L 494.009917 499.287164 
L 498.109091 499.924906 
L 498.109091 445.291584 
L 498.109091 445.291584 
L 494.009917 444.625836 
L 489.910744 443.954789 
L 485.81157 443.279549 
L 481.712397 442.598071 
L 477.613223 441.911558 
L 473.51405 441.220785 
L 469.414876 440.524012 
L 465.315702 439.821085 
L 461.216529 439.11227 
L 457.117355 438.393968 
L 453.018182 437.66865 
L 448.919008 436.936506 
L 444.819835 436.197754 
L 440.720661 435.454733 
L 436.621488 434.705048 
L 432.522314 433.947773 
L 428.42314 433.184461 
L 424.323967 432.414736 
L 420.224793 431.637437 
L 416.12562 430.852532 
L 412.026446 430.061088 
L 407.927273 429.264623 
L 403.828099 428.460305 
L 399.728926 427.649501 
L 395.629752 426.832432 
L 391.530579 426.008607 
L 387.431405 425.177575 
L 383.332231 424.338496 
L 379.233058 423.494627 
L 375.133884 422.64693 
L 371.034711 421.789825 
L 366.935537 420.922516 
L 362.836364 420.045582 
L 358.73719 419.161899 
L 354.638017 418.270584 
L 350.538843 417.371071 
L 346.439669 416.462589 
L 342.340496 415.548812 
L 338.241322 414.626044 
L 334.142149 413.696077 
L 330.042975 412.755589 
L 325.943802 411.799141 
L 321.844628 410.830786 
L 317.745455 409.853142 
L 313.646281 408.864684 
L 309.547107 407.867332 
L 305.447934 406.860359 
L 301.34876 405.842374 
L 297.249587 404.814186 
L 293.150413 403.77529 
L 289.05124 402.725742 
L 284.952066 401.664652 
L 280.852893 400.591226 
L 276.753719 399.507389 
L 272.654545 398.414368 
L 268.555372 397.315972 
L 264.456198 396.204717 
L 260.357025 395.083729 
L 256.257851 393.955028 
L 252.158678 392.816933 
L 248.059504 391.671313 
L 243.960331 390.518979 
L 239.861157 389.359408 
L 235.761983 388.190768 
L 231.66281 387.013485 
L 227.563636 385.827611 
L 223.464463 384.631608 
L 219.365289 383.42774 
L 215.266116 382.221222 
L 211.166942 381.010755 
L 207.067769 379.796117 
L 202.968595 378.577761 
L 198.869421 377.355981 
L 194.770248 376.130896 
L 190.671074 374.904614 
L 186.571901 373.677371 
L 182.472727 372.44936 
L 178.373554 371.220564 
L 174.27438 369.991754 
L 170.175207 368.76268 
L 166.076033 367.533229 
L 161.97686 366.303215 
L 157.877686 365.071961 
L 153.778512 363.84007 
L 149.679339 362.607837 
L 145.580165 361.375219 
L 141.480992 360.142438 
L 137.381818 358.909015 
L 133.282645 357.675337 
L 129.183471 356.441659 
L 125.084298 355.20798 
L 120.985124 353.974302 
L 116.88595 352.740624 
L 112.786777 351.506945 
L 108.687603 350.273267 
L 104.58843 349.039588 
L 100.489256 347.80591 
L 96.390083 346.572232 
L 92.290909 345.338553 
z
" style="fill:#fd8d3c;"/>
   </g>
   <g id="PolyCollection_7">
    <path clip-path="url(#pd875240dea)" d="M 92.290909 321.681959 
L 92.290909 345.338553 
L 96.390083 346.572232 
L 100.489256 347.80591 
L 104.58843 349.039588 
L 108.687603 350.273267 
L 112.786777 351.506945 
L 116.88595 352.740624 
L 120.985124 353.974302 
L 125.084298 355.20798 
L 129.183471 356.441659 
L 133.282645 357.675337 
L 137.381818 358.909015 
L 141.480992 360.142438 
L 145.580165 361.375219 
L 149.679339 362.607837 
L 153.778512 363.84007 
L 157.877686 365.071961 
L 161.97686 366.303215 
L 166.076033 367.533229 
L 170.175207 368.76268 
L 174.27438 369.991754 
L 178.373554 371.220564 
L 182.472727 372.44936 
L 186.571901 373.677371 
L 190.671074 374.904614 
L 194.770248 376.130896 
L 198.869421 377.355981 
L 202.968595 378.577761 
L 207.067769 379.796117 
L 211.166942 381.010755 
L 215.266116 382.221222 
L 219.365289 383.42774 
L 223.464463 384.631608 
L 227.563636 385.827611 
L 231.66281 387.013485 
L 235.761983 388.190768 
L 239.861157 389.359408 
L 243.960331 390.518979 
L 248.059504 391.671313 
L 252.158678 392.816933 
L 256.257851 393.955028 
L 260.357025 395.083729 
L 264.456198 396.204717 
L 268.555372 397.315972 
L 272.654545 398.414368 
L 276.753719 399.507389 
L 280.852893 400.591226 
L 284.952066 401.664652 
L 289.05124 402.725742 
L 293.150413 403.77529 
L 297.249587 404.814186 
L 301.34876 405.842374 
L 305.447934 406.860359 
L 309.547107 407.867332 
L 313.646281 408.864684 
L 317.745455 409.853142 
L 321.844628 410.830786 
L 325.943802 411.799141 
L 330.042975 412.755589 
L 334.142149 413.696077 
L 338.241322 414.626044 
L 342.340496 415.548812 
L 346.439669 416.462589 
L 350.538843 417.371071 
L 354.638017 418.270584 
L 358.73719 419.161899 
L 362.836364 420.045582 
L 366.935537 420.922516 
L 371.034711 421.789825 
L 375.133884 422.64693 
L 379.233058 423.494627 
L 383.332231 424.338496 
L 387.431405 425.177575 
L 391.530579 426.008607 
L 395.629752 426.832432 
L 399.728926 427.649501 
L 403.828099 428.460305 
L 407.927273 429.264623 
L 412.026446 430.061088 
L 416.12562 430.852532 
L 420.224793 431.637437 
L 424.323967 432.414736 
L 428.42314 433.184461 
L 432.522314 433.947773 
L 436.621488 434.705048 
L 440.720661 435.454733 
L 444.819835 436.197754 
L 448.919008 436.936506 
L 453.018182 437.66865 
L 457.117355 438.393968 
L 461.216529 439.11227 
L 465.315702 439.821085 
L 469.414876 440.524012 
L 473.51405 441.220785 
L 477.613223 441.911558 
L 481.712397 442.598071 
L 485.81157 443.279549 
L 489.910744 443.954789 
L 494.009917 444.625836 
L 498.109091 445.291584 
L 498.109091 445.291584 
L 498.109091 445.291584 
L 494.009917 444.395988 
L 489.910744 443.494227 
L 485.81157 442.587291 
L 481.712397 441.673764 
L 477.613223 440.754061 
L 473.51405 439.828282 
L 469.414876 438.896365 
L 465.315702 437.958092 
L 461.216529 437.013842 
L 457.117355 436.060241 
L 453.018182 435.099221 
L 448.919008 434.130619 
L 444.819835 433.154676 
L 440.720661 432.174481 
L 436.621488 431.186956 
L 432.522314 430.192199 
L 428.42314 429.191129 
L 424.323967 428.182947 
L 420.224793 427.166344 
L 416.12562 426.14214 
L 412.026446 425.110312 
L 407.927273 424.073064 
L 403.828099 423.028553 
L 399.728926 421.977542 
L 395.629752 420.919651 
L 391.530579 419.854126 
L 387.431405 418.781311 
L 383.332231 417.700437 
L 379.233058 416.614355 
L 375.133884 415.52523 
L 371.034711 414.428092 
L 366.935537 413.319589 
L 362.836364 412.202346 
L 358.73719 411.07798 
L 354.638017 409.946781 
L 350.538843 408.807221 
L 346.439669 407.657832 
L 342.340496 406.502151 
L 338.241322 405.337575 
L 334.142149 404.165879 
L 330.042975 402.984142 
L 325.943802 401.787008 
L 321.844628 400.578289 
L 317.745455 399.360835 
L 313.646281 398.132811 
L 309.547107 396.896219 
L 305.447934 395.649951 
L 301.34876 394.392464 
L 297.249587 393.124797 
L 293.150413 391.845942 
L 289.05124 390.556254 
L 284.952066 389.255351 
L 280.852893 387.942036 
L 276.753719 386.618238 
L 272.654545 385.285257 
L 268.555372 383.946961 
L 264.456198 382.595747 
L 260.357025 381.234753 
L 256.257851 379.866198 
L 252.158678 378.488376 
L 248.059504 377.103245 
L 243.960331 375.711459 
L 239.861157 374.312391 
L 235.761983 372.904238 
L 231.66281 371.487703 
L 227.563636 370.062333 
L 223.464463 368.626656 
L 219.365289 367.182956 
L 215.266116 365.736605 
L 211.166942 364.286306 
L 207.067769 362.831845 
L 202.968595 361.373718 
L 198.869421 359.912621 
L 194.770248 358.448312 
L 190.671074 356.982991 
L 186.571901 355.516792 
L 182.472727 354.049827 
L 178.373554 352.582075 
L 174.27438 351.114311 
L 170.175207 349.646281 
L 166.076033 348.177876 
L 161.97686 346.708907 
L 157.877686 345.238698 
L 153.778512 343.767842 
L 149.679339 342.296619 
L 145.580165 340.825046 
L 141.480992 339.353309 
L 137.381818 337.880931 
L 133.282645 336.408297 
L 129.183471 334.935664 
L 125.084298 333.46303 
L 120.985124 331.990396 
L 116.88595 330.517762 
L 112.786777 329.045128 
L 108.687603 327.572494 
L 104.58843 326.09986 
L 100.489256 324.627226 
L 96.390083 323.154592 
L 92.290909 321.681959 
z
" style="fill:#fdae6b;"/>
   </g>
   <g id="PolyCollection_8">
    <path clip-path="url(#pd875240dea)" d="M 92.290909 194.119233 
L 92.290909 321.681959 
L 96.390083 323.154592 
L 100.489256 324.627226 
L 104.58843 326.09986 
L 108.687603 327.572494 
L 112.786777 329.045128 
L 116.88595 330.517762 
L 120.985124 331.990396 
L 125.084298 333.46303 
L 129.183471 334.935664 
L 133.282645 336.408297 
L 137.381818 337.880931 
L 141.480992 339.353309 
L 145.580165 340.825046 
L 149.679339 342.296619 
L 153.778512 343.767842 
L 157.877686 345.238698 
L 161.97686 346.708907 
L 166.076033 348.177876 
L 170.175207 349.646281 
L 174.27438 351.114311 
L 178.373554 352.582075 
L 182.472727 354.049827 
L 186.571901 355.516792 
L 190.671074 356.982991 
L 194.770248 358.448312 
L 198.869421 359.912621 
L 202.968595 361.373718 
L 207.067769 362.831845 
L 211.166942 364.286306 
L 215.266116 365.736605 
L 219.365289 367.182956 
L 223.464463 368.626656 
L 227.563636 370.062333 
L 231.66281 371.487703 
L 235.761983 372.904238 
L 239.861157 374.312391 
L 243.960331 375.711459 
L 248.059504 377.103245 
L 252.158678 378.488376 
L 256.257851 379.866198 
L 260.357025 381.234753 
L 264.456198 382.595747 
L 268.555372 383.946961 
L 272.654545 385.285257 
L 276.753719 386.618238 
L 280.852893 387.942036 
L 284.952066 389.255351 
L 289.05124 390.556254 
L 293.150413 391.845942 
L 297.249587 393.124797 
L 301.34876 394.392464 
L 305.447934 395.649951 
L 309.547107 396.896219 
L 313.646281 398.132811 
L 317.745455 399.360835 
L 321.844628 400.578289 
L 325.943802 401.787008 
L 330.042975 402.984142 
L 334.142149 404.165879 
L 338.241322 405.337575 
L 342.340496 406.502151 
L 346.439669 407.657832 
L 350.538843 408.807221 
L 354.638017 409.946781 
L 358.73719 411.07798 
L 362.836364 412.202346 
L 366.935537 413.319589 
L 371.034711 414.428092 
L 375.133884 415.52523 
L 379.233058 416.614355 
L 383.332231 417.700437 
L 387.431405 418.781311 
L 391.530579 419.854126 
L 395.629752 420.919651 
L 399.728926 421.977542 
L 403.828099 423.028553 
L 407.927273 424.073064 
L 412.026446 425.110312 
L 416.12562 426.14214 
L 420.224793 427.166344 
L 424.323967 428.182947 
L 428.42314 429.191129 
L 432.522314 430.192199 
L 436.621488 431.186956 
L 440.720661 432.174481 
L 444.819835 433.154676 
L 448.919008 434.130619 
L 453.018182 435.099221 
L 457.117355 436.060241 
L 461.216529 437.013842 
L 465.315702 437.958092 
L 469.414876 438.896365 
L 473.51405 439.828282 
L 477.613223 440.754061 
L 481.712397 441.673764 
L 485.81157 442.587291 
L 489.910744 443.494227 
L 494.009917 444.395988 
L 498.109091 445.291584 
L 498.109091 317.728858 
L 498.109091 317.728858 
L 494.009917 316.833262 
L 489.910744 315.931501 
L 485.81157 315.024566 
L 481.712397 314.111038 
L 477.613223 313.191335 
L 473.51405 312.265556 
L 469.414876 311.33364 
L 465.315702 310.395366 
L 461.216529 309.451116 
L 457.117355 308.497515 
L 453.018182 307.536495 
L 448.919008 306.567893 
L 444.819835 305.59195 
L 440.720661 304.611755 
L 436.621488 303.62423 
L 432.522314 302.629474 
L 428.42314 301.628403 
L 424.323967 300.620221 
L 420.224793 299.603618 
L 416.12562 298.579414 
L 412.026446 297.547586 
L 407.927273 296.510338 
L 403.828099 295.465828 
L 399.728926 294.414816 
L 395.629752 293.356925 
L 391.530579 292.2914 
L 387.431405 291.218585 
L 383.332231 290.137711 
L 379.233058 289.051629 
L 375.133884 287.962504 
L 371.034711 286.865366 
L 366.935537 285.756863 
L 362.836364 284.63962 
L 358.73719 283.515254 
L 354.638017 282.384055 
L 350.538843 281.244495 
L 346.439669 280.095106 
L 342.340496 278.939425 
L 338.241322 277.774849 
L 334.142149 276.603153 
L 330.042975 275.421416 
L 325.943802 274.224282 
L 321.844628 273.015563 
L 317.745455 271.798109 
L 313.646281 270.570085 
L 309.547107 269.333493 
L 305.447934 268.087225 
L 301.34876 266.829739 
L 297.249587 265.562071 
L 293.150413 264.283216 
L 289.05124 262.993528 
L 284.952066 261.692625 
L 280.852893 260.37931 
L 276.753719 259.055513 
L 272.654545 257.722531 
L 268.555372 256.384235 
L 264.456198 255.033021 
L 260.357025 253.672027 
L 256.257851 252.303472 
L 252.158678 250.92565 
L 248.059504 249.540519 
L 243.960331 248.148733 
L 239.861157 246.749666 
L 235.761983 245.341512 
L 231.66281 243.924977 
L 227.563636 242.499607 
L 223.464463 241.06393 
L 219.365289 239.62023 
L 215.266116 238.173879 
L 211.166942 236.72358 
L 207.067769 235.269119 
L 202.968595 233.810993 
L 198.869421 232.349895 
L 194.770248 230.885587 
L 190.671074 229.420265 
L 186.571901 227.954067 
L 182.472727 226.487101 
L 178.373554 225.01935 
L 174.27438 223.551585 
L 170.175207 222.083556 
L 166.076033 220.61515 
L 161.97686 219.146181 
L 157.877686 217.675972 
L 153.778512 216.205116 
L 149.679339 214.733893 
L 145.580165 213.26232 
L 141.480992 211.790583 
L 137.381818 210.318205 
L 133.282645 208.845572 
L 129.183471 207.372938 
L 125.084298 205.900304 
L 120.985124 204.42767 
L 116.88595 202.955036 
L 112.786777 201.482402 
L 108.687603 200.009768 
L 104.58843 198.537134 
L 100.489256 197.0645 
L 96.390083 195.591867 
L 92.290909 194.119233 
z
" style="fill:#fdd0a2;"/>
   </g>
   <g id="PolyCollection_9">
    <path clip-path="url(#pd875240dea)" d="M 92.290909 160.257592 
L 92.290909 194.119233 
L 96.390083 195.591867 
L 100.489256 197.0645 
L 104.58843 198.537134 
L 108.687603 200.009768 
L 112.786777 201.482402 
L 116.88595 202.955036 
L 120.985124 204.42767 
L 125.084298 205.900304 
L 129.183471 207.372938 
L 133.282645 208.845572 
L 137.381818 210.318205 
L 141.480992 211.790583 
L 145.580165 213.26232 
L 149.679339 214.733893 
L 153.778512 216.205116 
L 157.877686 217.675972 
L 161.97686 219.146181 
L 166.076033 220.61515 
L 170.175207 222.083556 
L 174.27438 223.551585 
L 178.373554 225.01935 
L 182.472727 226.487101 
L 186.571901 227.954067 
L 190.671074 229.420265 
L 194.770248 230.885587 
L 198.869421 232.349895 
L 202.968595 233.810993 
L 207.067769 235.269119 
L 211.166942 236.72358 
L 215.266116 238.173879 
L 219.365289 239.62023 
L 223.464463 241.06393 
L 227.563636 242.499607 
L 231.66281 243.924977 
L 235.761983 245.341512 
L 239.861157 246.749666 
L 243.960331 248.148733 
L 248.059504 249.540519 
L 252.158678 250.92565 
L 256.257851 252.303472 
L 260.357025 253.672027 
L 264.456198 255.033021 
L 268.555372 256.384235 
L 272.654545 257.722531 
L 276.753719 259.055513 
L 280.852893 260.37931 
L 284.952066 261.692625 
L 289.05124 262.993528 
L 293.150413 264.283216 
L 297.249587 265.562071 
L 301.34876 266.829739 
L 305.447934 268.087225 
L 309.547107 269.333493 
L 313.646281 270.570085 
L 317.745455 271.798109 
L 321.844628 273.015563 
L 325.943802 274.224282 
L 330.042975 275.421416 
L 334.142149 276.603153 
L 338.241322 277.774849 
L 342.340496 278.939425 
L 346.439669 280.095106 
L 350.538843 281.244495 
L 354.638017 282.384055 
L 358.73719 283.515254 
L 362.836364 284.63962 
L 366.935537 285.756863 
L 371.034711 286.865366 
L 375.133884 287.962504 
L 379.233058 289.051629 
L 383.332231 290.137711 
L 387.431405 291.218585 
L 391.530579 292.2914 
L 395.629752 293.356925 
L 399.728926 294.414816 
L 403.828099 295.465828 
L 407.927273 296.510338 
L 412.026446 297.547586 
L 416.12562 298.579414 
L 420.224793 299.603618 
L 424.323967 300.620221 
L 428.42314 301.628403 
L 432.522314 302.629474 
L 436.621488 303.62423 
L 440.720661 304.611755 
L 444.819835 305.59195 
L 448.919008 306.567893 
L 453.018182 307.536495 
L 457.117355 308.497515 
L 461.216529 309.451116 
L 465.315702 310.395366 
L 469.414876 311.33364 
L 473.51405 312.265556 
L 477.613223 313.191335 
L 481.712397 314.111038 
L 485.81157 315.024566 
L 489.910744 315.931501 
L 494.009917 316.833262 
L 498.109091 317.728858 
L 498.109091 283.867217 
L 498.109091 283.867217 
L 494.009917 282.971621 
L 489.910744 282.069861 
L 485.81157 281.162925 
L 481.712397 280.249397 
L 477.613223 279.329695 
L 473.51405 278.403916 
L 469.414876 277.471999 
L 465.315702 276.533725 
L 461.216529 275.589476 
L 457.117355 274.635874 
L 453.018182 273.674855 
L 448.919008 272.706252 
L 444.819835 271.730309 
L 440.720661 270.750114 
L 436.621488 269.762589 
L 432.522314 268.767833 
L 428.42314 267.766762 
L 424.323967 266.758581 
L 420.224793 265.741977 
L 416.12562 264.717773 
L 412.026446 263.685945 
L 407.927273 262.648697 
L 403.828099 261.604187 
L 399.728926 260.553175 
L 395.629752 259.495284 
L 391.530579 258.429759 
L 387.431405 257.356945 
L 383.332231 256.27607 
L 379.233058 255.189988 
L 375.133884 254.100863 
L 371.034711 253.003725 
L 366.935537 251.895223 
L 362.836364 250.777979 
L 358.73719 249.653613 
L 354.638017 248.522414 
L 350.538843 247.382854 
L 346.439669 246.233466 
L 342.340496 245.077784 
L 338.241322 243.913208 
L 334.142149 242.741512 
L 330.042975 241.559776 
L 325.943802 240.362641 
L 321.844628 239.153922 
L 317.745455 237.936469 
L 313.646281 236.708445 
L 309.547107 235.471852 
L 305.447934 234.225584 
L 301.34876 232.968098 
L 297.249587 231.70043 
L 293.150413 230.421575 
L 289.05124 229.131887 
L 284.952066 227.830984 
L 280.852893 226.517669 
L 276.753719 225.193872 
L 272.654545 223.86089 
L 268.555372 222.522594 
L 264.456198 221.17138 
L 260.357025 219.810386 
L 256.257851 218.441831 
L 252.158678 217.064009 
L 248.059504 215.678878 
L 243.960331 214.287092 
L 239.861157 212.888025 
L 235.761983 211.479871 
L 231.66281 210.063336 
L 227.563636 208.637966 
L 223.464463 207.202289 
L 219.365289 205.758589 
L 215.266116 204.312238 
L 211.166942 202.861939 
L 207.067769 201.407479 
L 202.968595 199.949352 
L 198.869421 198.488254 
L 194.770248 197.023946 
L 190.671074 195.558624 
L 186.571901 194.092426 
L 182.472727 192.62546 
L 178.373554 191.157709 
L 174.27438 189.689944 
L 170.175207 188.221915 
L 166.076033 186.75351 
L 161.97686 185.284541 
L 157.877686 183.814331 
L 153.778512 182.343475 
L 149.679339 180.872252 
L 145.580165 179.40068 
L 141.480992 177.928943 
L 137.381818 176.456565 
L 133.282645 174.983931 
L 129.183471 173.511297 
L 125.084298 172.038663 
L 120.985124 170.566029 
L 116.88595 169.093395 
L 112.786777 167.620761 
L 108.687603 166.148127 
L 104.58843 164.675493 
L 100.489256 163.20286 
L 96.390083 161.730226 
L 92.290909 160.257592 
z
" style="fill:#31a354;"/>
   </g>
   <g id="PolyCollection_10">
    <path clip-path="url(#pd875240dea)" d="M 92.290909 135.36 
L 92.290909 160.257592 
L 96.390083 161.730226 
L 100.489256 163.20286 
L 104.58843 164.675493 
L 108.687603 166.148127 
L 112.786777 167.620761 
L 116.88595 169.093395 
L 120.985124 170.566029 
L 125.084298 172.038663 
L 129.183471 173.511297 
L 133.282645 174.983931 
L 137.381818 176.456565 
L 141.480992 177.928943 
L 145.580165 179.40068 
L 149.679339 180.872252 
L 153.778512 182.343475 
L 157.877686 183.814331 
L 161.97686 185.284541 
L 166.076033 186.75351 
L 170.175207 188.221915 
L 174.27438 189.689944 
L 178.373554 191.157709 
L 182.472727 192.62546 
L 186.571901 194.092426 
L 190.671074 195.558624 
L 194.770248 197.023946 
L 198.869421 198.488254 
L 202.968595 199.949352 
L 207.067769 201.407479 
L 211.166942 202.861939 
L 215.266116 204.312238 
L 219.365289 205.758589 
L 223.464463 207.202289 
L 227.563636 208.637966 
L 231.66281 210.063336 
L 235.761983 211.479871 
L 239.861157 212.888025 
L 243.960331 214.287092 
L 248.059504 215.678878 
L 252.158678 217.064009 
L 256.257851 218.441831 
L 260.357025 219.810386 
L 264.456198 221.17138 
L 268.555372 222.522594 
L 272.654545 223.86089 
L 276.753719 225.193872 
L 280.852893 226.517669 
L 284.952066 227.830984 
L 289.05124 229.131887 
L 293.150413 230.421575 
L 297.249587 231.70043 
L 301.34876 232.968098 
L 305.447934 234.225584 
L 309.547107 235.471852 
L 313.646281 236.708445 
L 317.745455 237.936469 
L 321.844628 239.153922 
L 325.943802 240.362641 
L 330.042975 241.559776 
L 334.142149 242.741512 
L 338.241322 243.913208 
L 342.340496 245.077784 
L 346.439669 246.233466 
L 350.538843 247.382854 
L 354.638017 248.522414 
L 358.73719 249.653613 
L 362.836364 250.777979 
L 366.935537 251.895223 
L 371.034711 253.003725 
L 375.133884 254.100863 
L 379.233058 255.189988 
L 383.332231 256.27607 
L 387.431405 257.356945 
L 391.530579 258.429759 
L 395.629752 259.495284 
L 399.728926 260.553175 
L 403.828099 261.604187 
L 407.927273 262.648697 
L 412.026446 263.685945 
L 416.12562 264.717773 
L 420.224793 265.741977 
L 424.323967 266.758581 
L 428.42314 267.766762 
L 432.522314 268.767833 
L 436.621488 269.762589 
L 440.720661 270.750114 
L 444.819835 271.730309 
L 448.919008 272.706252 
L 453.018182 273.674855 
L 457.117355 274.635874 
L 461.216529 275.589476 
L 465.315702 276.533725 
L 469.414876 277.471999 
L 473.51405 278.403916 
L 477.613223 279.329695 
L 481.712397 280.249397 
L 485.81157 281.162925 
L 489.910744 282.069861 
L 494.009917 282.971621 
L 498.109091 283.867217 
L 498.109091 283.867217 
L 498.109091 283.867217 
L 494.009917 282.72013 
L 489.910744 281.566879 
L 485.81157 280.408452 
L 481.712397 279.243434 
L 477.613223 278.07224 
L 473.51405 276.894971 
L 469.414876 275.711563 
L 465.315702 274.521798 
L 461.216529 273.326058 
L 457.117355 272.120966 
L 453.018182 270.908455 
L 448.919008 269.688362 
L 444.819835 268.460928 
L 440.720661 267.229243 
L 436.621488 265.990227 
L 432.522314 264.74398 
L 428.42314 263.491418 
L 424.323967 262.231746 
L 420.224793 260.963652 
L 416.12562 259.687957 
L 412.026446 258.404638 
L 407.927273 257.115899 
L 403.828099 255.819898 
L 399.728926 254.517395 
L 395.629752 253.208013 
L 391.530579 251.890998 
L 387.431405 250.566692 
L 383.332231 249.234327 
L 379.233058 247.896754 
L 375.133884 246.556138 
L 371.034711 245.207509 
L 366.935537 243.847516 
L 362.836364 242.478782 
L 358.73719 241.102925 
L 354.638017 239.720235 
L 350.538843 238.329185 
L 346.439669 236.928305 
L 342.340496 235.521132 
L 338.241322 234.105066 
L 334.142149 232.681879 
L 330.042975 231.248652 
L 325.943802 229.800026 
L 321.844628 228.339817 
L 317.745455 226.870872 
L 313.646281 225.391357 
L 309.547107 223.903274 
L 305.447934 222.405515 
L 301.34876 220.896538 
L 297.249587 219.377379 
L 293.150413 217.847034 
L 289.05124 216.305855 
L 284.952066 214.753461 
L 280.852893 213.188655 
L 276.753719 211.613367 
L 272.654545 210.028895 
L 268.555372 208.439108 
L 264.456198 206.836403 
L 260.357025 205.223918 
L 256.257851 203.603872 
L 252.158678 201.97456 
L 248.059504 200.337938 
L 243.960331 198.694661 
L 239.861157 197.044103 
L 235.761983 195.384458 
L 231.66281 193.716433 
L 227.563636 192.039571 
L 223.464463 190.352404 
L 219.365289 188.657213 
L 215.266116 186.959371 
L 211.166942 185.257581 
L 207.067769 183.55163 
L 202.968595 181.842012 
L 198.869421 180.129424 
L 194.770248 178.413625 
L 190.671074 176.696813 
L 186.571901 174.979123 
L 182.472727 173.260667 
L 178.373554 171.541424 
L 174.27438 169.822169 
L 170.175207 168.102649 
L 166.076033 166.382753 
L 161.97686 164.662293 
L 157.877686 162.940593 
L 153.778512 161.218246 
L 149.679339 159.495532 
L 145.580165 157.772468 
L 141.480992 156.049241 
L 137.381818 154.325372 
L 133.282645 152.601247 
L 129.183471 150.877122 
L 125.084298 149.152998 
L 120.985124 147.428873 
L 116.88595 145.704748 
L 112.786777 143.980624 
L 108.687603 142.256499 
L 104.58843 140.532374 
L 100.489256 138.808249 
L 96.390083 137.084125 
L 92.290909 135.36 
z
" style="fill:#74c476;"/>
   </g>
   <g id="PolyCollection_11">
    <path clip-path="url(#pd875240dea)" d="M 92.290909 135.36 
L 92.290909 135.36 
L 96.390083 137.084125 
L 100.489256 138.808249 
L 104.58843 140.532374 
L 108.687603 142.256499 
L 112.786777 143.980624 
L 116.88595 145.704748 
L 120.985124 147.428873 
L 125.084298 149.152998 
L 129.183471 150.877122 
L 133.282645 152.601247 
L 137.381818 154.325372 
L 141.480992 156.049241 
L 145.580165 157.772468 
L 149.679339 159.495532 
L 153.778512 161.218246 
L 157.877686 162.940593 
L 161.97686 164.662293 
L 166.076033 166.382753 
L 170.175207 168.102649 
L 174.27438 169.822169 
L 178.373554 171.541424 
L 182.472727 173.260667 
L 186.571901 174.979123 
L 190.671074 176.696813 
L 194.770248 178.413625 
L 198.869421 180.129424 
L 202.968595 181.842012 
L 207.067769 183.55163 
L 211.166942 185.257581 
L 215.266116 186.959371 
L 219.365289 188.657213 
L 223.464463 190.352404 
L 227.563636 192.039571 
L 231.66281 193.716433 
L 235.761983 195.384458 
L 239.861157 197.044103 
L 243.960331 198.694661 
L 248.059504 200.337938 
L 252.158678 201.97456 
L 256.257851 203.603872 
L 260.357025 205.223918 
L 264.456198 206.836403 
L 268.555372 208.439108 
L 272.654545 210.028895 
L 276.753719 211.613367 
L 280.852893 213.188655 
L 284.952066 214.753461 
L 289.05124 216.305855 
L 293.150413 217.847034 
L 297.249587 219.377379 
L 301.34876 220.896538 
L 305.447934 222.405515 
L 309.547107 223.903274 
L 313.646281 225.391357 
L 317.745455 226.870872 
L 321.844628 228.339817 
L 325.943802 229.800026 
L 330.042975 231.248652 
L 334.142149 232.681879 
L 338.241322 234.105066 
L 342.340496 235.521132 
L 346.439669 236.928305 
L 350.538843 238.329185 
L 354.638017 239.720235 
L 358.73719 241.102925 
L 362.836364 242.478782 
L 366.935537 243.847516 
L 371.034711 245.207509 
L 375.133884 246.556138 
L 379.233058 247.896754 
L 383.332231 249.234327 
L 387.431405 250.566692 
L 391.530579 251.890998 
L 395.629752 253.208013 
L 399.728926 254.517395 
L 403.828099 255.819898 
L 407.927273 257.115899 
L 412.026446 258.404638 
L 416.12562 259.687957 
L 420.224793 260.963652 
L 424.323967 262.231746 
L 428.42314 263.491418 
L 432.522314 264.74398 
L 436.621488 265.990227 
L 440.720661 267.229243 
L 444.819835 268.460928 
L 448.919008 269.688362 
L 453.018182 270.908455 
L 457.117355 272.120966 
L 461.216529 273.326058 
L 465.315702 274.521798 
L 469.414876 275.711563 
L 473.51405 276.894971 
L 477.613223 278.07224 
L 481.712397 279.243434 
L 485.81157 280.408452 
L 489.910744 281.566879 
L 494.009917 282.72013 
L 498.109091 283.867217 
L 498.109091 221.039271 
L 498.109091 221.039271 
L 494.009917 220.198267 
L 489.910744 219.355353 
L 485.81157 218.511172 
L 481.712397 217.665295 
L 477.613223 216.817581 
L 473.51405 215.968255 
L 469.414876 215.118236 
L 465.315702 214.267496 
L 461.216529 213.41546 
L 457.117355 212.561901 
L 453.018182 211.706824 
L 448.919008 210.850153 
L 444.819835 209.99198 
L 440.720661 209.133086 
L 436.621488 208.273273 
L 432.522314 207.412738 
L 428.42314 206.551433 
L 424.323967 205.689705 
L 420.224793 204.827671 
L 416.12562 203.964841 
L 412.026446 203.101192 
L 407.927273 202.236962 
L 403.828099 201.372542 
L 399.728926 200.507877 
L 395.629752 199.643025 
L 391.530579 198.77775 
L 387.431405 197.912144 
L 383.332231 197.046102 
L 379.233058 196.18006 
L 375.133884 195.314019 
L 371.034711 194.447598 
L 366.935537 193.580717 
L 362.836364 192.713837 
L 358.73719 191.846892 
L 354.638017 190.979479 
L 350.538843 190.112066 
L 346.439669 189.244653 
L 342.340496 188.37724 
L 338.241322 187.509827 
L 334.142149 186.642414 
L 330.042975 185.77479 
L 325.943802 184.907055 
L 321.844628 184.03932 
L 317.745455 183.171306 
L 313.646281 182.303169 
L 309.547107 181.434753 
L 305.447934 180.566336 
L 301.34876 179.69792 
L 297.249587 178.829503 
L 293.150413 177.961054 
L 289.05124 177.092132 
L 284.952066 176.223051 
L 280.852893 175.353969 
L 276.753719 174.484888 
L 272.654545 173.615807 
L 268.555372 172.746726 
L 264.456198 171.877644 
L 260.357025 171.008563 
L 256.257851 170.139482 
L 252.158678 169.2704 
L 248.059504 168.400968 
L 243.960331 167.531469 
L 239.861157 166.66197 
L 235.761983 165.79247 
L 231.66281 164.922971 
L 227.563636 164.053472 
L 223.464463 163.183973 
L 219.365289 162.314474 
L 215.266116 161.444975 
L 211.166942 160.575476 
L 207.067769 159.705976 
L 202.968595 158.836477 
L 198.869421 157.966978 
L 194.770248 157.097479 
L 190.671074 156.22798 
L 186.571901 155.358481 
L 182.472727 154.488981 
L 178.373554 153.619482 
L 174.27438 152.749983 
L 170.175207 151.880484 
L 166.076033 151.010985 
L 161.97686 150.141486 
L 157.877686 149.271987 
L 153.778512 148.402487 
L 149.679339 147.532988 
L 145.580165 146.663489 
L 141.480992 145.79399 
L 137.381818 144.924491 
L 133.282645 144.054992 
L 129.183471 143.185492 
L 125.084298 142.315993 
L 120.985124 141.446494 
L 116.88595 140.576995 
L 112.786777 139.707496 
L 108.687603 138.837997 
L 104.58843 137.968497 
L 100.489256 137.098998 
L 96.390083 136.229499 
L 92.290909 135.36 
z
" style="fill:#a1d99b;"/>
   </g>
   <g id="PolyCollection_12">
    <path clip-path="url(#pd875240dea)" d="M 92.290909 135.36 
L 92.290909 135.36 
L 96.390083 136.229499 
L 100.489256 137.098998 
L 104.58843 137.968497 
L 108.687603 138.837997 
L 112.786777 139.707496 
L 116.88595 140.576995 
L 120.985124 141.446494 
L 125.084298 142.315993 
L 129.183471 143.185492 
L 133.282645 144.054992 
L 137.381818 144.924491 
L 141.480992 145.79399 
L 145.580165 146.663489 
L 149.679339 147.532988 
L 153.778512 148.402487 
L 157.877686 149.271987 
L 161.97686 150.141486 
L 166.076033 151.010985 
L 170.175207 151.880484 
L 174.27438 152.749983 
L 178.373554 153.619482 
L 182.472727 154.488981 
L 186.571901 155.358481 
L 190.671074 156.22798 
L 194.770248 157.097479 
L 198.869421 157.966978 
L 202.968595 158.836477 
L 207.067769 159.705976 
L 211.166942 160.575476 
L 215.266116 161.444975 
L 219.365289 162.314474 
L 223.464463 163.183973 
L 227.563636 164.053472 
L 231.66281 164.922971 
L 235.761983 165.79247 
L 239.861157 166.66197 
L 243.960331 167.531469 
L 248.059504 168.400968 
L 252.158678 169.2704 
L 256.257851 170.139482 
L 260.357025 171.008563 
L 264.456198 171.877644 
L 268.555372 172.746726 
L 272.654545 173.615807 
L 276.753719 174.484888 
L 280.852893 175.353969 
L 284.952066 176.223051 
L 289.05124 177.092132 
L 293.150413 177.961054 
L 297.249587 178.829503 
L 301.34876 179.69792 
L 305.447934 180.566336 
L 309.547107 181.434753 
L 313.646281 182.303169 
L 317.745455 183.171306 
L 321.844628 184.03932 
L 325.943802 184.907055 
L 330.042975 185.77479 
L 334.142149 186.642414 
L 338.241322 187.509827 
L 342.340496 188.37724 
L 346.439669 189.244653 
L 350.538843 190.112066 
L 354.638017 190.979479 
L 358.73719 191.846892 
L 362.836364 192.713837 
L 366.935537 193.580717 
L 371.034711 194.447598 
L 375.133884 195.314019 
L 379.233058 196.18006 
L 383.332231 197.046102 
L 387.431405 197.912144 
L 391.530579 198.77775 
L 395.629752 199.643025 
L 399.728926 200.507877 
L 403.828099 201.372542 
L 407.927273 202.236962 
L 412.026446 203.101192 
L 416.12562 203.964841 
L 420.224793 204.827671 
L 424.323967 205.689705 
L 428.42314 206.551433 
L 432.522314 207.412738 
L 436.621488 208.273273 
L 440.720661 209.133086 
L 444.819835 209.99198 
L 448.919008 210.850153 
L 453.018182 211.706824 
L 457.117355 212.561901 
L 461.216529 213.41546 
L 465.315702 214.267496 
L 469.414876 215.118236 
L 473.51405 215.968255 
L 477.613223 216.817581 
L 481.712397 217.665295 
L 485.81157 218.511172 
L 489.910744 219.355353 
L 494.009917 220.198267 
L 498.109091 221.039271 
L 498.109091 135.36 
L 498.109091 135.36 
L 494.009917 135.36 
L 489.910744 135.36 
L 485.81157 135.36 
L 481.712397 135.36 
L 477.613223 135.36 
L 473.51405 135.36 
L 469.414876 135.36 
L 465.315702 135.36 
L 461.216529 135.36 
L 457.117355 135.36 
L 453.018182 135.36 
L 448.919008 135.36 
L 444.819835 135.36 
L 440.720661 135.36 
L 436.621488 135.36 
L 432.522314 135.36 
L 428.42314 135.36 
L 424.323967 135.36 
L 420.224793 135.36 
L 416.12562 135.36 
L 412.026446 135.36 
L 407.927273 135.36 
L 403.828099 135.36 
L 399.728926 135.36 
L 395.629752 135.36 
L 391.530579 135.36 
L 387.431405 135.36 
L 383.332231 135.36 
L 379.233058 135.36 
L 375.133884 135.36 
L 371.034711 135.36 
L 366.935537 135.36 
L 362.836364 135.36 
L 358.73719 135.36 
L 354.638017 135.36 
L 350.538843 135.36 
L 346.439669 135.36 
L 342.340496 135.36 
L 338.241322 135.36 
L 334.142149 135.36 
L 330.042975 135.36 
L 325.943802 135.36 
L 321.844628 135.36 
L 317.745455 135.36 
L 313.646281 135.36 
L 309.547107 135.36 
L 305.447934 135.36 
L 301.34876 135.36 
L 297.249587 135.36 
L 293.150413 135.36 
L 289.05124 135.36 
L 284.952066 135.36 
L 280.852893 135.36 
L 276.753719 135.36 
L 272.654545 135.36 
L 268.555372 135.36 
L 264.456198 135.36 
L 260.357025 135.36 
L 256.257851 135.36 
L 252.158678 135.36 
L 248.059504 135.36 
L 243.960331 135.36 
L 239.861157 135.36 
L 235.761983 135.36 
L 231.66281 135.36 
L 227.563636 135.36 
L 223.464463 135.36 
L 219.365289 135.36 
L 215.266116 135.36 
L 211.166942 135.36 
L 207.067769 135.36 
L 202.968595 135.36 
L 198.869421 135.36 
L 194.770248 135.36 
L 190.671074 135.36 
L 186.571901 135.36 
L 182.472727 135.36 
L 178.373554 135.36 
L 174.27438 135.36 
L 170.175207 135.36 
L 166.076033 135.36 
L 161.97686 135.36 
L 157.877686 135.36 
L 153.778512 135.36 
L 149.679339 135.36 
L 145.580165 135.36 
L 141.480992 135.36 
L 137.381818 135.36 
L 133.282645 135.36 
L 129.183471 135.36 
L 125.084298 135.36 
L 120.985124 135.36 
L 116.88595 135.36 
L 112.786777 135.36 
L 108.687603 135.36 
L 104.58843 135.36 
L 100.489256 135.36 
L 96.390083 135.36 
L 92.290909 135.36 
z
" style="fill:#c7e9c0;"/>
   </g>
   <g id="matplotlib.axis_1">
    <g id="xtick_1">
     <g id="line2d_1">
      <defs>
       <path d="M 0 0 
L 0 3.5 
" id="m75611926bb" style="stroke:#000000;stroke-width:0.8;"/>
      </defs>
      <g>
       <use style="stroke:#000000;stroke-width:0.8;" x="92.290909" xlink:href="#m75611926bb" y="768.96"/>
      </g>
     </g>
     <g id="text_1">
      <!-- 0 -->
      <g transform="translate(89.109659 783.558437)scale(0.1 -0.1)">
       <defs>
        <path d="M 2034 4250 
Q 1547 4250 1301 3770 
Q 1056 3291 1056 2328 
Q 1056 1369 1301 889 
Q 1547 409 2034 409 
Q 2525 409 2770 889 
Q 3016 1369 3016 2328 
Q 3016 3291 2770 3770 
Q 2525 4250 2034 4250 
z
M 2034 4750 
Q 2819 4750 3233 4129 
Q 3647 3509 3647 2328 
Q 3647 1150 3233 529 
Q 2819 -91 2034 -91 
Q 1250 -91 836 529 
Q 422 1150 422 2328 
Q 422 3509 836 4129 
Q 1250 4750 2034 4750 
z
" id="DejaVuSans-30" transform="scale(0.015625)"/>
       </defs>
       <use xlink:href="#DejaVuSans-30"/>
      </g>
     </g>
    </g>
    <g id="xtick_2">
     <g id="line2d_2">
      <g>
       <use style="stroke:#000000;stroke-width:0.8;" x="173.454545" xlink:href="#m75611926bb" y="768.96"/>
      </g>
     </g>
     <g id="text_2">
      <!-- 20 -->
      <g transform="translate(167.092045 783.558437)scale(0.1 -0.1)">
       <defs>
        <path d="M 1228 531 
L 3431 531 
L 3431 0 
L 469 0 
L 469 531 
Q 828 903 1448 1529 
Q 2069 2156 2228 2338 
Q 2531 2678 2651 2914 
Q 2772 3150 2772 3378 
Q 2772 3750 2511 3984 
Q 2250 4219 1831 4219 
Q 1534 4219 1204 4116 
Q 875 4013 500 3803 
L 500 4441 
Q 881 4594 1212 4672 
Q 1544 4750 1819 4750 
Q 2544 4750 2975 4387 
Q 3406 4025 3406 3419 
Q 3406 3131 3298 2873 
Q 3191 2616 2906 2266 
Q 2828 2175 2409 1742 
Q 1991 1309 1228 531 
z
" id="DejaVuSans-32" transform="scale(0.015625)"/>
       </defs>
       <use xlink:href="#DejaVuSans-32"/>
       <use x="63.623047" xlink:href="#DejaVuSans-30"/>
      </g>
     </g>
    </g>
    <g id="xtick_3">
     <g id="line2d_3">
      <g>
       <use style="stroke:#000000;stroke-width:0.8;" x="254.618182" xlink:href="#m75611926bb" y="768.96"/>
      </g>
     </g>
     <g id="text_3">
      <!-- 40 -->
      <g transform="translate(248.255682 783.558437)scale(0.1 -0.1)">
       <defs>
        <path d="M 2419 4116 
L 825 1625 
L 2419 1625 
L 2419 4116 
z
M 2253 4666 
L 3047 4666 
L 3047 1625 
L 3713 1625 
L 3713 1100 
L 3047 1100 
L 3047 0 
L 2419 0 
L 2419 1100 
L 313 1100 
L 313 1709 
L 2253 4666 
z
" id="DejaVuSans-34" transform="scale(0.015625)"/>
       </defs>
       <use xlink:href="#DejaVuSans-34"/>
       <use x="63.623047" xlink:href="#DejaVuSans-30"/>
      </g>
     </g>
    </g>
    <g id="xtick_4">
     <g id="line2d_4">
      <g>
       <use style="stroke:#000000;stroke-width:0.8;" x="335.781818" xlink:href="#m75611926bb" y="768.96"/>
      </g>
     </g>
     <g id="text_4">
      <!-- 60 -->
      <g transform="translate(329.419318 783.558437)scale(0.1 -0.1)">
       <defs>
        <path d="M 2113 2584 
Q 1688 2584 1439 2293 
Q 1191 2003 1191 1497 
Q 1191 994 1439 701 
Q 1688 409 2113 409 
Q 2538 409 2786 701 
Q 3034 994 3034 1497 
Q 3034 2003 2786 2293 
Q 2538 2584 2113 2584 
z
M 3366 4563 
L 3366 3988 
Q 3128 4100 2886 4159 
Q 2644 4219 2406 4219 
Q 1781 4219 1451 3797 
Q 1122 3375 1075 2522 
Q 1259 2794 1537 2939 
Q 1816 3084 2150 3084 
Q 2853 3084 3261 2657 
Q 3669 2231 3669 1497 
Q 3669 778 3244 343 
Q 2819 -91 2113 -91 
Q 1303 -91 875 529 
Q 447 1150 447 2328 
Q 447 3434 972 4092 
Q 1497 4750 2381 4750 
Q 2619 4750 2861 4703 
Q 3103 4656 3366 4563 
z
" id="DejaVuSans-36" transform="scale(0.015625)"/>
       </defs>
       <use xlink:href="#DejaVuSans-36"/>
       <use x="63.623047" xlink:href="#DejaVuSans-30"/>
      </g>
     </g>
    </g>
    <g id="xtick_5">
     <g id="line2d_5">
      <g>
       <use style="stroke:#000000;stroke-width:0.8;" x="416.945455" xlink:href="#m75611926bb" y="768.96"/>
      </g>
     </g>
     <g id="text_5">
      <!-- 80 -->
      <g transform="translate(410.582955 783.558437)scale(0.1 -0.1)">
       <defs>
        <path d="M 2034 2216 
Q 1584 2216 1326 1975 
Q 1069 1734 1069 1313 
Q 1069 891 1326 650 
Q 1584 409 2034 409 
Q 2484 409 2743 651 
Q 3003 894 3003 1313 
Q 3003 1734 2745 1975 
Q 2488 2216 2034 2216 
z
M 1403 2484 
Q 997 2584 770 2862 
Q 544 3141 544 3541 
Q 544 4100 942 4425 
Q 1341 4750 2034 4750 
Q 2731 4750 3128 4425 
Q 3525 4100 3525 3541 
Q 3525 3141 3298 2862 
Q 3072 2584 2669 2484 
Q 3125 2378 3379 2068 
Q 3634 1759 3634 1313 
Q 3634 634 3220 271 
Q 2806 -91 2034 -91 
Q 1263 -91 848 271 
Q 434 634 434 1313 
Q 434 1759 690 2068 
Q 947 2378 1403 2484 
z
M 1172 3481 
Q 1172 3119 1398 2916 
Q 1625 2713 2034 2713 
Q 2441 2713 2670 2916 
Q 2900 3119 2900 3481 
Q 2900 3844 2670 4047 
Q 2441 4250 2034 4250 
Q 1625 4250 1398 4047 
Q 1172 3844 1172 3481 
z
" id="DejaVuSans-38" transform="scale(0.015625)"/>
       </defs>
       <use xlink:href="#DejaVuSans-38"/>
       <use x="63.623047" xlink:href="#DejaVuSans-30"/>
      </g>
     </g>
    </g>
    <g id="xtick_6">
     <g id="line2d_6">
      <g>
       <use style="stroke:#000000;stroke-width:0.8;" x="498.109091" xlink:href="#m75611926bb" y="768.96"/>
      </g>
     </g>
     <g id="text_6">
      <!-- 100 -->
      <g transform="translate(488.565341 783.558437)scale(0.1 -0.1)">
       <defs>
        <path d="M 794 531 
L 1825 531 
L 1825 4091 
L 703 3866 
L 703 4441 
L 1819 4666 
L 2450 4666 
L 2450 531 
L 3481 531 
L 3481 0 
L 794 0 
L 794 531 
z
" id="DejaVuSans-31" transform="scale(0.015625)"/>
       </defs>
       <use xlink:href="#DejaVuSans-31"/>
       <use x="63.623047" xlink:href="#DejaVuSans-30"/>
       <use x="127.246094" xlink:href="#DejaVuSans-30"/>
      </g>
     </g>
    </g>
    <g id="text_7">
     <!-- Proportion of New Technology in Grid (%) -->
     <g transform="translate(192.432031 797.236562)scale(0.1 -0.1)">
      <defs>
       <path d="M 1259 4147 
L 1259 2394 
L 2053 2394 
Q 2494 2394 2734 2622 
Q 2975 2850 2975 3272 
Q 2975 3691 2734 3919 
Q 2494 4147 2053 4147 
L 1259 4147 
z
M 628 4666 
L 2053 4666 
Q 2838 4666 3239 4311 
Q 3641 3956 3641 3272 
Q 3641 2581 3239 2228 
Q 2838 1875 2053 1875 
L 1259 1875 
L 1259 0 
L 628 0 
L 628 4666 
z
" id="DejaVuSans-50" transform="scale(0.015625)"/>
       <path d="M 2631 2963 
Q 2534 3019 2420 3045 
Q 2306 3072 2169 3072 
Q 1681 3072 1420 2755 
Q 1159 2438 1159 1844 
L 1159 0 
L 581 0 
L 581 3500 
L 1159 3500 
L 1159 2956 
Q 1341 3275 1631 3429 
Q 1922 3584 2338 3584 
Q 2397 3584 2469 3576 
Q 2541 3569 2628 3553 
L 2631 2963 
z
" id="DejaVuSans-72" transform="scale(0.015625)"/>
       <path d="M 1959 3097 
Q 1497 3097 1228 2736 
Q 959 2375 959 1747 
Q 959 1119 1226 758 
Q 1494 397 1959 397 
Q 2419 397 2687 759 
Q 2956 1122 2956 1747 
Q 2956 2369 2687 2733 
Q 2419 3097 1959 3097 
z
M 1959 3584 
Q 2709 3584 3137 3096 
Q 3566 2609 3566 1747 
Q 3566 888 3137 398 
Q 2709 -91 1959 -91 
Q 1206 -91 779 398 
Q 353 888 353 1747 
Q 353 2609 779 3096 
Q 1206 3584 1959 3584 
z
" id="DejaVuSans-6f" transform="scale(0.015625)"/>
       <path d="M 1159 525 
L 1159 -1331 
L 581 -1331 
L 581 3500 
L 1159 3500 
L 1159 2969 
Q 1341 3281 1617 3432 
Q 1894 3584 2278 3584 
Q 2916 3584 3314 3078 
Q 3713 2572 3713 1747 
Q 3713 922 3314 415 
Q 2916 -91 2278 -91 
Q 1894 -91 1617 61 
Q 1341 213 1159 525 
z
M 3116 1747 
Q 3116 2381 2855 2742 
Q 2594 3103 2138 3103 
Q 1681 3103 1420 2742 
Q 1159 2381 1159 1747 
Q 1159 1113 1420 752 
Q 1681 391 2138 391 
Q 2594 391 2855 752 
Q 3116 1113 3116 1747 
z
" id="DejaVuSans-70" transform="scale(0.015625)"/>
       <path d="M 1172 4494 
L 1172 3500 
L 2356 3500 
L 2356 3053 
L 1172 3053 
L 1172 1153 
Q 1172 725 1289 603 
Q 1406 481 1766 481 
L 2356 481 
L 2356 0 
L 1766 0 
Q 1100 0 847 248 
Q 594 497 594 1153 
L 594 3053 
L 172 3053 
L 172 3500 
L 594 3500 
L 594 4494 
L 1172 4494 
z
" id="DejaVuSans-74" transform="scale(0.015625)"/>
       <path d="M 603 3500 
L 1178 3500 
L 1178 0 
L 603 0 
L 603 3500 
z
M 603 4863 
L 1178 4863 
L 1178 4134 
L 603 4134 
L 603 4863 
z
" id="DejaVuSans-69" transform="scale(0.015625)"/>
       <path d="M 3513 2113 
L 3513 0 
L 2938 0 
L 2938 2094 
Q 2938 2591 2744 2837 
Q 2550 3084 2163 3084 
Q 1697 3084 1428 2787 
Q 1159 2491 1159 1978 
L 1159 0 
L 581 0 
L 581 3500 
L 1159 3500 
L 1159 2956 
Q 1366 3272 1645 3428 
Q 1925 3584 2291 3584 
Q 2894 3584 3203 3211 
Q 3513 2838 3513 2113 
z
" id="DejaVuSans-6e" transform="scale(0.015625)"/>
       <path id="DejaVuSans-20" transform="scale(0.015625)"/>
       <path d="M 2375 4863 
L 2375 4384 
L 1825 4384 
Q 1516 4384 1395 4259 
Q 1275 4134 1275 3809 
L 1275 3500 
L 2222 3500 
L 2222 3053 
L 1275 3053 
L 1275 0 
L 697 0 
L 697 3053 
L 147 3053 
L 147 3500 
L 697 3500 
L 697 3744 
Q 697 4328 969 4595 
Q 1241 4863 1831 4863 
L 2375 4863 
z
" id="DejaVuSans-66" transform="scale(0.015625)"/>
       <path d="M 628 4666 
L 1478 4666 
L 3547 763 
L 3547 4666 
L 4159 4666 
L 4159 0 
L 3309 0 
L 1241 3903 
L 1241 0 
L 628 0 
L 628 4666 
z
" id="DejaVuSans-4e" transform="scale(0.015625)"/>
       <path d="M 3597 1894 
L 3597 1613 
L 953 1613 
Q 991 1019 1311 708 
Q 1631 397 2203 397 
Q 2534 397 2845 478 
Q 3156 559 3463 722 
L 3463 178 
Q 3153 47 2828 -22 
Q 2503 -91 2169 -91 
Q 1331 -91 842 396 
Q 353 884 353 1716 
Q 353 2575 817 3079 
Q 1281 3584 2069 3584 
Q 2775 3584 3186 3129 
Q 3597 2675 3597 1894 
z
M 3022 2063 
Q 3016 2534 2758 2815 
Q 2500 3097 2075 3097 
Q 1594 3097 1305 2825 
Q 1016 2553 972 2059 
L 3022 2063 
z
" id="DejaVuSans-65" transform="scale(0.015625)"/>
       <path d="M 269 3500 
L 844 3500 
L 1563 769 
L 2278 3500 
L 2956 3500 
L 3675 769 
L 4391 3500 
L 4966 3500 
L 4050 0 
L 3372 0 
L 2619 2869 
L 1863 0 
L 1184 0 
L 269 3500 
z
" id="DejaVuSans-77" transform="scale(0.015625)"/>
       <path d="M -19 4666 
L 3928 4666 
L 3928 4134 
L 2272 4134 
L 2272 0 
L 1638 0 
L 1638 4134 
L -19 4134 
L -19 4666 
z
" id="DejaVuSans-54" transform="scale(0.015625)"/>
       <path d="M 3122 3366 
L 3122 2828 
Q 2878 2963 2633 3030 
Q 2388 3097 2138 3097 
Q 1578 3097 1268 2742 
Q 959 2388 959 1747 
Q 959 1106 1268 751 
Q 1578 397 2138 397 
Q 2388 397 2633 464 
Q 2878 531 3122 666 
L 3122 134 
Q 2881 22 2623 -34 
Q 2366 -91 2075 -91 
Q 1284 -91 818 406 
Q 353 903 353 1747 
Q 353 2603 823 3093 
Q 1294 3584 2113 3584 
Q 2378 3584 2631 3529 
Q 2884 3475 3122 3366 
z
" id="DejaVuSans-63" transform="scale(0.015625)"/>
       <path d="M 3513 2113 
L 3513 0 
L 2938 0 
L 2938 2094 
Q 2938 2591 2744 2837 
Q 2550 3084 2163 3084 
Q 1697 3084 1428 2787 
Q 1159 2491 1159 1978 
L 1159 0 
L 581 0 
L 581 4863 
L 1159 4863 
L 1159 2956 
Q 1366 3272 1645 3428 
Q 1925 3584 2291 3584 
Q 2894 3584 3203 3211 
Q 3513 2838 3513 2113 
z
" id="DejaVuSans-68" transform="scale(0.015625)"/>
       <path d="M 603 4863 
L 1178 4863 
L 1178 0 
L 603 0 
L 603 4863 
z
" id="DejaVuSans-6c" transform="scale(0.015625)"/>
       <path d="M 2906 1791 
Q 2906 2416 2648 2759 
Q 2391 3103 1925 3103 
Q 1463 3103 1205 2759 
Q 947 2416 947 1791 
Q 947 1169 1205 825 
Q 1463 481 1925 481 
Q 2391 481 2648 825 
Q 2906 1169 2906 1791 
z
M 3481 434 
Q 3481 -459 3084 -895 
Q 2688 -1331 1869 -1331 
Q 1566 -1331 1297 -1286 
Q 1028 -1241 775 -1147 
L 775 -588 
Q 1028 -725 1275 -790 
Q 1522 -856 1778 -856 
Q 2344 -856 2625 -561 
Q 2906 -266 2906 331 
L 2906 616 
Q 2728 306 2450 153 
Q 2172 0 1784 0 
Q 1141 0 747 490 
Q 353 981 353 1791 
Q 353 2603 747 3093 
Q 1141 3584 1784 3584 
Q 2172 3584 2450 3431 
Q 2728 3278 2906 2969 
L 2906 3500 
L 3481 3500 
L 3481 434 
z
" id="DejaVuSans-67" transform="scale(0.015625)"/>
       <path d="M 2059 -325 
Q 1816 -950 1584 -1140 
Q 1353 -1331 966 -1331 
L 506 -1331 
L 506 -850 
L 844 -850 
Q 1081 -850 1212 -737 
Q 1344 -625 1503 -206 
L 1606 56 
L 191 3500 
L 800 3500 
L 1894 763 
L 2988 3500 
L 3597 3500 
L 2059 -325 
z
" id="DejaVuSans-79" transform="scale(0.015625)"/>
       <path d="M 3809 666 
L 3809 1919 
L 2778 1919 
L 2778 2438 
L 4434 2438 
L 4434 434 
Q 4069 175 3628 42 
Q 3188 -91 2688 -91 
Q 1594 -91 976 548 
Q 359 1188 359 2328 
Q 359 3472 976 4111 
Q 1594 4750 2688 4750 
Q 3144 4750 3555 4637 
Q 3966 4525 4313 4306 
L 4313 3634 
Q 3963 3931 3569 4081 
Q 3175 4231 2741 4231 
Q 1884 4231 1454 3753 
Q 1025 3275 1025 2328 
Q 1025 1384 1454 906 
Q 1884 428 2741 428 
Q 3075 428 3337 486 
Q 3600 544 3809 666 
z
" id="DejaVuSans-47" transform="scale(0.015625)"/>
       <path d="M 2906 2969 
L 2906 4863 
L 3481 4863 
L 3481 0 
L 2906 0 
L 2906 525 
Q 2725 213 2448 61 
Q 2172 -91 1784 -91 
Q 1150 -91 751 415 
Q 353 922 353 1747 
Q 353 2572 751 3078 
Q 1150 3584 1784 3584 
Q 2172 3584 2448 3432 
Q 2725 3281 2906 2969 
z
M 947 1747 
Q 947 1113 1208 752 
Q 1469 391 1925 391 
Q 2381 391 2643 752 
Q 2906 1113 2906 1747 
Q 2906 2381 2643 2742 
Q 2381 3103 1925 3103 
Q 1469 3103 1208 2742 
Q 947 2381 947 1747 
z
" id="DejaVuSans-64" transform="scale(0.015625)"/>
       <path d="M 1984 4856 
Q 1566 4138 1362 3434 
Q 1159 2731 1159 2009 
Q 1159 1288 1364 580 
Q 1569 -128 1984 -844 
L 1484 -844 
Q 1016 -109 783 600 
Q 550 1309 550 2009 
Q 550 2706 781 3412 
Q 1013 4119 1484 4856 
L 1984 4856 
z
" id="DejaVuSans-28" transform="scale(0.015625)"/>
       <path d="M 4653 2053 
Q 4381 2053 4226 1822 
Q 4072 1591 4072 1178 
Q 4072 772 4226 539 
Q 4381 306 4653 306 
Q 4919 306 5073 539 
Q 5228 772 5228 1178 
Q 5228 1588 5073 1820 
Q 4919 2053 4653 2053 
z
M 4653 2450 
Q 5147 2450 5437 2106 
Q 5728 1763 5728 1178 
Q 5728 594 5436 251 
Q 5144 -91 4653 -91 
Q 4153 -91 3862 251 
Q 3572 594 3572 1178 
Q 3572 1766 3864 2108 
Q 4156 2450 4653 2450 
z
M 1428 4353 
Q 1159 4353 1004 4120 
Q 850 3888 850 3481 
Q 850 3069 1003 2837 
Q 1156 2606 1428 2606 
Q 1700 2606 1854 2837 
Q 2009 3069 2009 3481 
Q 2009 3884 1853 4118 
Q 1697 4353 1428 4353 
z
M 4250 4750 
L 4750 4750 
L 1831 -91 
L 1331 -91 
L 4250 4750 
z
M 1428 4750 
Q 1922 4750 2215 4408 
Q 2509 4066 2509 3481 
Q 2509 2891 2217 2550 
Q 1925 2209 1428 2209 
Q 931 2209 642 2551 
Q 353 2894 353 3481 
Q 353 4063 643 4406 
Q 934 4750 1428 4750 
z
" id="DejaVuSans-25" transform="scale(0.015625)"/>
       <path d="M 513 4856 
L 1013 4856 
Q 1481 4119 1714 3412 
Q 1947 2706 1947 2009 
Q 1947 1309 1714 600 
Q 1481 -109 1013 -844 
L 513 -844 
Q 928 -128 1133 580 
Q 1338 1288 1338 2009 
Q 1338 2731 1133 3434 
Q 928 4138 513 4856 
z
" id="DejaVuSans-29" transform="scale(0.015625)"/>
      </defs>
      <use xlink:href="#DejaVuSans-50"/>
      <use x="58.552734" xlink:href="#DejaVuSans-72"/>
      <use x="97.416016" xlink:href="#DejaVuSans-6f"/>
      <use x="158.597656" xlink:href="#DejaVuSans-70"/>
      <use x="222.074219" xlink:href="#DejaVuSans-6f"/>
      <use x="283.255859" xlink:href="#DejaVuSans-72"/>
      <use x="324.369141" xlink:href="#DejaVuSans-74"/>
      <use x="363.578125" xlink:href="#DejaVuSans-69"/>
      <use x="391.361328" xlink:href="#DejaVuSans-6f"/>
      <use x="452.542969" xlink:href="#DejaVuSans-6e"/>
      <use x="515.921875" xlink:href="#DejaVuSans-20"/>
      <use x="547.708984" xlink:href="#DejaVuSans-6f"/>
      <use x="608.890625" xlink:href="#DejaVuSans-66"/>
      <use x="644.095703" xlink:href="#DejaVuSans-20"/>
      <use x="675.882812" xlink:href="#DejaVuSans-4e"/>
      <use x="750.6875" xlink:href="#DejaVuSans-65"/>
      <use x="812.210938" xlink:href="#DejaVuSans-77"/>
      <use x="893.998047" xlink:href="#DejaVuSans-20"/>
      <use x="925.785156" xlink:href="#DejaVuSans-54"/>
      <use x="969.869141" xlink:href="#DejaVuSans-65"/>
      <use x="1031.392578" xlink:href="#DejaVuSans-63"/>
      <use x="1086.373047" xlink:href="#DejaVuSans-68"/>
      <use x="1149.751953" xlink:href="#DejaVuSans-6e"/>
      <use x="1213.130859" xlink:href="#DejaVuSans-6f"/>
      <use x="1274.3125" xlink:href="#DejaVuSans-6c"/>
      <use x="1302.095703" xlink:href="#DejaVuSans-6f"/>
      <use x="1363.277344" xlink:href="#DejaVuSans-67"/>
      <use x="1426.753906" xlink:href="#DejaVuSans-79"/>
      <use x="1485.933594" xlink:href="#DejaVuSans-20"/>
      <use x="1517.720703" xlink:href="#DejaVuSans-69"/>
      <use x="1545.503906" xlink:href="#DejaVuSans-6e"/>
      <use x="1608.882812" xlink:href="#DejaVuSans-20"/>
      <use x="1640.669922" xlink:href="#DejaVuSans-47"/>
      <use x="1718.160156" xlink:href="#DejaVuSans-72"/>
      <use x="1759.273438" xlink:href="#DejaVuSans-69"/>
      <use x="1787.056641" xlink:href="#DejaVuSans-64"/>
      <use x="1850.533203" xlink:href="#DejaVuSans-20"/>
      <use x="1882.320312" xlink:href="#DejaVuSans-28"/>
      <use x="1921.333984" xlink:href="#DejaVuSans-25"/>
      <use x="2016.353516" xlink:href="#DejaVuSans-29"/>
     </g>
    </g>
   </g>
   <g id="matplotlib.axis_2">
    <g id="ytick_1">
     <g id="line2d_7">
      <defs>
       <path d="M 0 0 
L -3.5 0 
" id="m38aa26d6ca" style="stroke:#000000;stroke-width:0.8;"/>
      </defs>
      <g>
       <use style="stroke:#000000;stroke-width:0.8;" x="72" xlink:href="#m38aa26d6ca" y="768.96"/>
      </g>
     </g>
     <g id="text_8">
      <!-- 0 -->
      <g transform="translate(58.6375 772.759219)scale(0.1 -0.1)">
       <use xlink:href="#DejaVuSans-30"/>
      </g>
     </g>
    </g>
    <g id="ytick_2">
     <g id="line2d_8">
      <g>
       <use style="stroke:#000000;stroke-width:0.8;" x="72" xlink:href="#m38aa26d6ca" y="662.941741"/>
      </g>
     </g>
     <g id="text_9">
      <!-- 50 -->
      <g transform="translate(52.275 666.74096)scale(0.1 -0.1)">
       <defs>
        <path d="M 691 4666 
L 3169 4666 
L 3169 4134 
L 1269 4134 
L 1269 2991 
Q 1406 3038 1543 3061 
Q 1681 3084 1819 3084 
Q 2600 3084 3056 2656 
Q 3513 2228 3513 1497 
Q 3513 744 3044 326 
Q 2575 -91 1722 -91 
Q 1428 -91 1123 -41 
Q 819 9 494 109 
L 494 744 
Q 775 591 1075 516 
Q 1375 441 1709 441 
Q 2250 441 2565 725 
Q 2881 1009 2881 1497 
Q 2881 1984 2565 2268 
Q 2250 2553 1709 2553 
Q 1456 2553 1204 2497 
Q 953 2441 691 2322 
L 691 4666 
z
" id="DejaVuSans-35" transform="scale(0.015625)"/>
       </defs>
       <use xlink:href="#DejaVuSans-35"/>
       <use x="63.623047" xlink:href="#DejaVuSans-30"/>
      </g>
     </g>
    </g>
    <g id="ytick_3">
     <g id="line2d_9">
      <g>
       <use style="stroke:#000000;stroke-width:0.8;" x="72" xlink:href="#m38aa26d6ca" y="556.923482"/>
      </g>
     </g>
     <g id="text_10">
      <!-- 100 -->
      <g transform="translate(45.9125 560.722701)scale(0.1 -0.1)">
       <use xlink:href="#DejaVuSans-31"/>
       <use x="63.623047" xlink:href="#DejaVuSans-30"/>
       <use x="127.246094" xlink:href="#DejaVuSans-30"/>
      </g>
     </g>
    </g>
    <g id="ytick_4">
     <g id="line2d_10">
      <g>
       <use style="stroke:#000000;stroke-width:0.8;" x="72" xlink:href="#m38aa26d6ca" y="450.905223"/>
      </g>
     </g>
     <g id="text_11">
      <!-- 150 -->
      <g transform="translate(45.9125 454.704442)scale(0.1 -0.1)">
       <use xlink:href="#DejaVuSans-31"/>
       <use x="63.623047" xlink:href="#DejaVuSans-35"/>
       <use x="127.246094" xlink:href="#DejaVuSans-30"/>
      </g>
     </g>
    </g>
    <g id="ytick_5">
     <g id="line2d_11">
      <g>
       <use style="stroke:#000000;stroke-width:0.8;" x="72" xlink:href="#m38aa26d6ca" y="344.886964"/>
      </g>
     </g>
     <g id="text_12">
      <!-- 200 -->
      <g transform="translate(45.9125 348.686183)scale(0.1 -0.1)">
       <use xlink:href="#DejaVuSans-32"/>
       <use x="63.623047" xlink:href="#DejaVuSans-30"/>
       <use x="127.246094" xlink:href="#DejaVuSans-30"/>
      </g>
     </g>
    </g>
    <g id="ytick_6">
     <g id="line2d_12">
      <g>
       <use style="stroke:#000000;stroke-width:0.8;" x="72" xlink:href="#m38aa26d6ca" y="238.868705"/>
      </g>
     </g>
     <g id="text_13">
      <!-- 250 -->
      <g transform="translate(45.9125 242.667924)scale(0.1 -0.1)">
       <use xlink:href="#DejaVuSans-32"/>
       <use x="63.623047" xlink:href="#DejaVuSans-35"/>
       <use x="127.246094" xlink:href="#DejaVuSans-30"/>
      </g>
     </g>
    </g>
    <g id="ytick_7">
     <g id="line2d_13">
      <g>
       <use style="stroke:#000000;stroke-width:0.8;" x="72" xlink:href="#m38aa26d6ca" y="132.850446"/>
      </g>
     </g>
     <g id="text_14">
      <!-- 300 -->
      <g transform="translate(45.9125 136.649665)scale(0.1 -0.1)">
       <defs>
        <path d="M 2597 2516 
Q 3050 2419 3304 2112 
Q 3559 1806 3559 1356 
Q 3559 666 3084 287 
Q 2609 -91 1734 -91 
Q 1441 -91 1130 -33 
Q 819 25 488 141 
L 488 750 
Q 750 597 1062 519 
Q 1375 441 1716 441 
Q 2309 441 2620 675 
Q 2931 909 2931 1356 
Q 2931 1769 2642 2001 
Q 2353 2234 1838 2234 
L 1294 2234 
L 1294 2753 
L 1863 2753 
Q 2328 2753 2575 2939 
Q 2822 3125 2822 3475 
Q 2822 3834 2567 4026 
Q 2313 4219 1838 4219 
Q 1578 4219 1281 4162 
Q 984 4106 628 3988 
L 628 4550 
Q 988 4650 1302 4700 
Q 1616 4750 1894 4750 
Q 2613 4750 3031 4423 
Q 3450 4097 3450 3541 
Q 3450 3153 3228 2886 
Q 3006 2619 2597 2516 
z
" id="DejaVuSans-33" transform="scale(0.015625)"/>
       </defs>
       <use xlink:href="#DejaVuSans-33"/>
       <use x="63.623047" xlink:href="#DejaVuSans-30"/>
       <use x="127.246094" xlink:href="#DejaVuSans-30"/>
      </g>
     </g>
    </g>
    <g id="text_15">
     <!-- Energy Generated (TWh) -->
     <g transform="translate(39.832812 498.598906)rotate(-90)scale(0.1 -0.1)">
      <defs>
       <path d="M 628 4666 
L 3578 4666 
L 3578 4134 
L 1259 4134 
L 1259 2753 
L 3481 2753 
L 3481 2222 
L 1259 2222 
L 1259 531 
L 3634 531 
L 3634 0 
L 628 0 
L 628 4666 
z
" id="DejaVuSans-45" transform="scale(0.015625)"/>
       <path d="M 2194 1759 
Q 1497 1759 1228 1600 
Q 959 1441 959 1056 
Q 959 750 1161 570 
Q 1363 391 1709 391 
Q 2188 391 2477 730 
Q 2766 1069 2766 1631 
L 2766 1759 
L 2194 1759 
z
M 3341 1997 
L 3341 0 
L 2766 0 
L 2766 531 
Q 2569 213 2275 61 
Q 1981 -91 1556 -91 
Q 1019 -91 701 211 
Q 384 513 384 1019 
Q 384 1609 779 1909 
Q 1175 2209 1959 2209 
L 2766 2209 
L 2766 2266 
Q 2766 2663 2505 2880 
Q 2244 3097 1772 3097 
Q 1472 3097 1187 3025 
Q 903 2953 641 2809 
L 641 3341 
Q 956 3463 1253 3523 
Q 1550 3584 1831 3584 
Q 2591 3584 2966 3190 
Q 3341 2797 3341 1997 
z
" id="DejaVuSans-61" transform="scale(0.015625)"/>
       <path d="M 213 4666 
L 850 4666 
L 1831 722 
L 2809 4666 
L 3519 4666 
L 4500 722 
L 5478 4666 
L 6119 4666 
L 4947 0 
L 4153 0 
L 3169 4050 
L 2175 0 
L 1381 0 
L 213 4666 
z
" id="DejaVuSans-57" transform="scale(0.015625)"/>
      </defs>
      <use xlink:href="#DejaVuSans-45"/>
      <use x="63.183594" xlink:href="#DejaVuSans-6e"/>
      <use x="126.5625" xlink:href="#DejaVuSans-65"/>
      <use x="188.085938" xlink:href="#DejaVuSans-72"/>
      <use x="227.449219" xlink:href="#DejaVuSans-67"/>
      <use x="290.925781" xlink:href="#DejaVuSans-79"/>
      <use x="350.105469" xlink:href="#DejaVuSans-20"/>
      <use x="381.892578" xlink:href="#DejaVuSans-47"/>
      <use x="459.382812" xlink:href="#DejaVuSans-65"/>
      <use x="520.90625" xlink:href="#DejaVuSans-6e"/>
      <use x="584.285156" xlink:href="#DejaVuSans-65"/>
      <use x="645.808594" xlink:href="#DejaVuSans-72"/>
      <use x="686.921875" xlink:href="#DejaVuSans-61"/>
      <use x="748.201172" xlink:href="#DejaVuSans-74"/>
      <use x="787.410156" xlink:href="#DejaVuSans-65"/>
      <use x="848.933594" xlink:href="#DejaVuSans-64"/>
      <use x="912.410156" xlink:href="#DejaVuSans-20"/>
      <use x="944.197266" xlink:href="#DejaVuSans-28"/>
      <use x="983.210938" xlink:href="#DejaVuSans-54"/>
      <use x="1044.294922" xlink:href="#DejaVuSans-57"/>
      <use x="1143.171875" xlink:href="#DejaVuSans-68"/>
      <use x="1206.550781" xlink:href="#DejaVuSans-29"/>
     </g>
    </g>
   </g>
   <g id="patch_3">
    <path d="M 72 768.96 
L 72 103.68 
" style="fill:none;stroke:#000000;stroke-linecap:square;stroke-linejoin:miter;stroke-width:0.8;"/>
   </g>
   <g id="patch_4">
    <path d="M 518.4 768.96 
L 518.4 103.68 
" style="fill:none;stroke:#000000;stroke-linecap:square;stroke-linejoin:miter;stroke-width:0.8;"/>
   </g>
   <g id="patch_5">
    <path d="M 72 768.96 
L 518.4 768.96 
" style="fill:none;stroke:#000000;stroke-linecap:square;stroke-linejoin:miter;stroke-width:0.8;"/>
   </g>
   <g id="patch_6">
    <path d="M 72 103.68 
L 518.4 103.68 
" style="fill:none;stroke:#000000;stroke-linecap:square;stroke-linejoin:miter;stroke-width:0.8;"/>
   </g>
  </g>
 </g>
 <defs>
  <clipPath id="pd875240dea">
   <rect height="665.28" width="446.4" x="72" y="103.68"/>
  </clipPath>
 </defs>
</svg>
