<?xml version="1.0" encoding="utf-8" standalone="no"?>
<!DOCTYPE svg PUBLIC "-//W3C//DTD SVG 1.1//EN"
  "http://www.w3.org/Graphics/SVG/1.1/DTD/svg11.dtd">
<svg height="864pt" version="1.1" viewBox="0 0 576 864" width="576pt" xmlns="http://www.w3.org/2000/svg" xmlns:xlink="http://www.w3.org/1999/xlink">
 <metadata>
  <rdf:RDF xmlns:cc="http://creativecommons.org/ns#" xmlns:dc="http://purl.org/dc/elements/1.1/" xmlns:rdf="http://www.w3.org/1999/02/22-rdf-syntax-ns#">
   <cc:Work>
    <dc:type rdf:resource="http://purl.org/dc/dcmitype/StillImage"/>
    <dc:date>2021-06-15T16:21:25.330864</dc:date>
    <dc:format>image/svg+xml</dc:format>
    <dc:creator>
     <cc:Agent>
      <dc:title>Matplotlib v3.4.1, https://matplotlib.org/</dc:title>
     </cc:Agent>
    </dc:creator>
   </cc:Work>
  </rdf:RDF>
 </metadata>
 <defs>
  <style type="text/css">*{stroke-linecap:butt;stroke-linejoin:round;}</style>
 </defs>
 <g id="figure_1">
  <g id="patch_1">
   <path d="M 0 864 
L 576 864 
L 576 0 
L 0 0 
z
" style="fill:#ffffff;"/>
  </g>
  <g id="axes_1">
   <g id="patch_2">
    <path d="M 72 768.96 
L 518.4 768.96 
L 518.4 103.68 
L 72 103.68 
z
" style="fill:#ffffff;"/>
   </g>
   <g id="PolyCollection_1">
    <path clip-path="url(#pb7b88dcdbe)" d="M 92.290909 477.67721 
L 92.290909 768.96 
L 96.390083 768.96 
L 100.489256 768.96 
L 104.58843 768.96 
L 108.687603 768.96 
L 112.786777 768.96 
L 116.88595 768.96 
L 120.985124 768.96 
L 125.084298 768.96 
L 129.183471 768.96 
L 133.282645 768.96 
L 137.381818 768.96 
L 141.480992 768.96 
L 145.580165 768.96 
L 149.679339 768.96 
L 153.778512 768.96 
L 157.877686 768.96 
L 161.97686 768.96 
L 166.076033 768.96 
L 170.175207 768.96 
L 174.27438 768.96 
L 178.373554 768.96 
L 182.472727 768.96 
L 186.571901 768.96 
L 190.671074 768.96 
L 194.770248 768.96 
L 198.869421 768.96 
L 202.968595 768.96 
L 207.067769 768.96 
L 211.166942 768.96 
L 215.266116 768.96 
L 219.365289 768.96 
L 223.464463 768.96 
L 227.563636 768.96 
L 231.66281 768.96 
L 235.761983 768.96 
L 239.861157 768.96 
L 243.960331 768.96 
L 248.059504 768.96 
L 252.158678 768.96 
L 256.257851 768.96 
L 260.357025 768.96 
L 264.456198 768.96 
L 268.555372 768.96 
L 272.654545 768.96 
L 276.753719 768.96 
L 280.852893 768.96 
L 284.952066 768.96 
L 289.05124 768.96 
L 293.150413 768.96 
L 297.249587 768.96 
L 301.34876 768.96 
L 305.447934 768.96 
L 309.547107 768.96 
L 313.646281 768.96 
L 317.745455 768.96 
L 321.844628 768.96 
L 325.943802 768.96 
L 330.042975 768.96 
L 334.142149 768.96 
L 338.241322 768.96 
L 342.340496 768.96 
L 346.439669 768.96 
L 350.538843 768.96 
L 354.638017 768.96 
L 358.73719 768.96 
L 362.836364 768.96 
L 366.935537 768.96 
L 371.034711 768.96 
L 375.133884 768.96 
L 379.233058 768.96 
L 383.332231 768.96 
L 387.431405 768.96 
L 391.530579 768.96 
L 395.629752 768.96 
L 399.728926 768.96 
L 403.828099 768.96 
L 407.927273 768.96 
L 412.026446 768.96 
L 416.12562 768.96 
L 420.224793 768.96 
L 424.323967 768.96 
L 428.42314 768.96 
L 432.522314 768.96 
L 436.621488 768.96 
L 440.720661 768.96 
L 444.819835 768.96 
L 448.919008 768.96 
L 453.018182 768.96 
L 457.117355 768.96 
L 461.216529 768.96 
L 465.315702 768.96 
L 469.414876 768.96 
L 473.51405 768.96 
L 477.613223 768.96 
L 481.712397 768.96 
L 485.81157 768.96 
L 489.910744 768.96 
L 494.009917 768.96 
L 498.109091 768.96 
L 498.109091 486.982144 
L 498.109091 486.982144 
L 494.009917 486.908093 
L 489.910744 486.834619 
L 485.81157 486.761195 
L 481.712397 486.687344 
L 477.613223 486.61347 
L 473.51405 486.539296 
L 469.414876 486.465057 
L 465.315702 486.390677 
L 461.216529 486.316234 
L 457.117355 486.241659 
L 453.018182 486.167054 
L 448.919008 486.092457 
L 444.819835 486.017676 
L 440.720661 485.94292 
L 436.621488 485.868543 
L 432.522314 485.794647 
L 428.42314 485.720985 
L 424.323967 485.647449 
L 420.224793 485.573706 
L 416.12562 485.50033 
L 412.026446 485.427598 
L 407.927273 485.354927 
L 403.828099 485.281868 
L 399.728926 485.208492 
L 395.629752 485.134823 
L 391.530579 485.060912 
L 387.431405 484.986766 
L 383.332231 484.912304 
L 379.233058 484.837909 
L 375.133884 484.763065 
L 371.034711 484.687484 
L 366.935537 484.610753 
L 362.836364 484.533449 
L 358.73719 484.454905 
L 354.638017 484.375228 
L 350.538843 484.294362 
L 346.439669 484.212314 
L 342.340496 484.128954 
L 338.241322 484.044441 
L 334.142149 483.958949 
L 330.042975 483.872271 
L 325.943802 483.784828 
L 321.844628 483.696722 
L 317.745455 483.606609 
L 313.646281 483.514516 
L 309.547107 483.42129 
L 305.447934 483.326711 
L 301.34876 483.230576 
L 297.249587 483.132842 
L 293.150413 483.033848 
L 289.05124 482.933829 
L 284.952066 482.832861 
L 280.852893 482.730951 
L 276.753719 482.627969 
L 272.654545 482.522802 
L 268.555372 482.412675 
L 264.456198 482.302548 
L 260.357025 482.19242 
L 256.257851 482.082293 
L 252.158678 481.972166 
L 248.059504 481.862039 
L 243.960331 481.751912 
L 239.861157 481.641785 
L 235.761983 481.531658 
L 231.66281 481.421531 
L 227.563636 481.311404 
L 223.464463 481.201277 
L 219.365289 481.09115 
L 215.266116 480.981022 
L 211.166942 480.870895 
L 207.067769 480.760768 
L 202.968595 480.650641 
L 198.869421 480.540514 
L 194.770248 480.430387 
L 190.671074 480.32026 
L 186.571901 480.210133 
L 182.472727 480.100006 
L 178.373554 479.989879 
L 174.27438 479.879751 
L 170.175207 479.769624 
L 166.076033 479.659497 
L 161.97686 479.54937 
L 157.877686 479.439243 
L 153.778512 479.329116 
L 149.679339 479.218989 
L 145.580165 479.108862 
L 141.480992 478.998735 
L 137.381818 478.888608 
L 133.282645 478.778481 
L 129.183471 478.668353 
L 125.084298 478.558226 
L 120.985124 478.448099 
L 116.88595 478.337972 
L 112.786777 478.227845 
L 108.687603 478.117718 
L 104.58843 478.007591 
L 100.489256 477.897464 
L 96.390083 477.787337 
L 92.290909 477.67721 
z
" style="fill:#3182bd;"/>
   </g>
   <g id="PolyCollection_2">
    <path clip-path="url(#pb7b88dcdbe)" d="M 92.290909 445.288463 
L 92.290909 477.67721 
L 96.390083 477.787337 
L 100.489256 477.897464 
L 104.58843 478.007591 
L 108.687603 478.117718 
L 112.786777 478.227845 
L 116.88595 478.337972 
L 120.985124 478.448099 
L 125.084298 478.558226 
L 129.183471 478.668353 
L 133.282645 478.778481 
L 137.381818 478.888608 
L 141.480992 478.998735 
L 145.580165 479.108862 
L 149.679339 479.218989 
L 153.778512 479.329116 
L 157.877686 479.439243 
L 161.97686 479.54937 
L 166.076033 479.659497 
L 170.175207 479.769624 
L 174.27438 479.879751 
L 178.373554 479.989879 
L 182.472727 480.100006 
L 186.571901 480.210133 
L 190.671074 480.32026 
L 194.770248 480.430387 
L 198.869421 480.540514 
L 202.968595 480.650641 
L 207.067769 480.760768 
L 211.166942 480.870895 
L 215.266116 480.981022 
L 219.365289 481.09115 
L 223.464463 481.201277 
L 227.563636 481.311404 
L 231.66281 481.421531 
L 235.761983 481.531658 
L 239.861157 481.641785 
L 243.960331 481.751912 
L 248.059504 481.862039 
L 252.158678 481.972166 
L 256.257851 482.082293 
L 260.357025 482.19242 
L 264.456198 482.302548 
L 268.555372 482.412675 
L 272.654545 482.522802 
L 276.753719 482.627969 
L 280.852893 482.730951 
L 284.952066 482.832861 
L 289.05124 482.933829 
L 293.150413 483.033848 
L 297.249587 483.132842 
L 301.34876 483.230576 
L 305.447934 483.326711 
L 309.547107 483.42129 
L 313.646281 483.514516 
L 317.745455 483.606609 
L 321.844628 483.696722 
L 325.943802 483.784828 
L 330.042975 483.872271 
L 334.142149 483.958949 
L 338.241322 484.044441 
L 342.340496 484.128954 
L 346.439669 484.212314 
L 350.538843 484.294362 
L 354.638017 484.375228 
L 358.73719 484.454905 
L 362.836364 484.533449 
L 366.935537 484.610753 
L 371.034711 484.687484 
L 375.133884 484.763065 
L 379.233058 484.837909 
L 383.332231 484.912304 
L 387.431405 484.986766 
L 391.530579 485.060912 
L 395.629752 485.134823 
L 399.728926 485.208492 
L 403.828099 485.281868 
L 407.927273 485.354927 
L 412.026446 485.427598 
L 416.12562 485.50033 
L 420.224793 485.573706 
L 424.323967 485.647449 
L 428.42314 485.720985 
L 432.522314 485.794647 
L 436.621488 485.868543 
L 440.720661 485.94292 
L 444.819835 486.017676 
L 448.919008 486.092457 
L 453.018182 486.167054 
L 457.117355 486.241659 
L 461.216529 486.316234 
L 465.315702 486.390677 
L 469.414876 486.465057 
L 473.51405 486.539296 
L 477.613223 486.61347 
L 481.712397 486.687344 
L 485.81157 486.761195 
L 489.910744 486.834619 
L 494.009917 486.908093 
L 498.109091 486.982144 
L 498.109091 456.183139 
L 498.109091 456.183139 
L 494.009917 456.07333 
L 489.910744 455.963521 
L 485.81157 455.853713 
L 481.712397 455.743904 
L 477.613223 455.634096 
L 473.51405 455.524287 
L 469.414876 455.414479 
L 465.315702 455.30467 
L 461.216529 455.194762 
L 457.117355 455.084842 
L 453.018182 454.974922 
L 448.919008 454.865002 
L 444.819835 454.755082 
L 440.720661 454.645162 
L 436.621488 454.535242 
L 432.522314 454.425322 
L 428.42314 454.315402 
L 424.323967 454.205482 
L 420.224793 454.095562 
L 416.12562 453.985642 
L 412.026446 453.875722 
L 407.927273 453.765802 
L 403.828099 453.65586 
L 399.728926 453.545907 
L 395.629752 453.435953 
L 391.530579 453.326 
L 387.431405 453.216047 
L 383.332231 453.106094 
L 379.233058 452.99614 
L 375.133884 452.886187 
L 371.034711 452.776234 
L 366.935537 452.666281 
L 362.836364 452.556327 
L 358.73719 452.446355 
L 354.638017 452.336361 
L 350.538843 452.226338 
L 346.439669 452.116283 
L 342.340496 452.006166 
L 338.241322 451.896049 
L 334.142149 451.785933 
L 330.042975 451.675816 
L 325.943802 451.565699 
L 321.844628 451.455581 
L 317.745455 451.345454 
L 313.646281 451.235326 
L 309.547107 451.125199 
L 305.447934 451.015072 
L 301.34876 450.904945 
L 297.249587 450.794818 
L 293.150413 450.684691 
L 289.05124 450.574564 
L 284.952066 450.464437 
L 280.852893 450.35431 
L 276.753719 450.244183 
L 272.654545 450.134056 
L 268.555372 450.023928 
L 264.456198 449.913801 
L 260.357025 449.803674 
L 256.257851 449.693547 
L 252.158678 449.58342 
L 248.059504 449.473293 
L 243.960331 449.363166 
L 239.861157 449.253039 
L 235.761983 449.142912 
L 231.66281 449.032785 
L 227.563636 448.922658 
L 223.464463 448.81253 
L 219.365289 448.702403 
L 215.266116 448.592276 
L 211.166942 448.482149 
L 207.067769 448.372022 
L 202.968595 448.261895 
L 198.869421 448.151768 
L 194.770248 448.041641 
L 190.671074 447.931514 
L 186.571901 447.821387 
L 182.472727 447.71126 
L 178.373554 447.601132 
L 174.27438 447.491005 
L 170.175207 447.380878 
L 166.076033 447.270751 
L 161.97686 447.160624 
L 157.877686 447.050497 
L 153.778512 446.94037 
L 149.679339 446.830243 
L 145.580165 446.720116 
L 141.480992 446.609989 
L 137.381818 446.499861 
L 133.282645 446.389734 
L 129.183471 446.279607 
L 125.084298 446.16948 
L 120.985124 446.059353 
L 116.88595 445.949226 
L 112.786777 445.839099 
L 108.687603 445.728972 
L 104.58843 445.618845 
L 100.489256 445.508718 
L 96.390083 445.398591 
L 92.290909 445.288463 
z
" style="fill:#6baed6;"/>
   </g>
   <g id="PolyCollection_3">
    <path clip-path="url(#pb7b88dcdbe)" d="M 92.290909 439.908261 
L 92.290909 445.288463 
L 96.390083 445.398591 
L 100.489256 445.508718 
L 104.58843 445.618845 
L 108.687603 445.728972 
L 112.786777 445.839099 
L 116.88595 445.949226 
L 120.985124 446.059353 
L 125.084298 446.16948 
L 129.183471 446.279607 
L 133.282645 446.389734 
L 137.381818 446.499861 
L 141.480992 446.609989 
L 145.580165 446.720116 
L 149.679339 446.830243 
L 153.778512 446.94037 
L 157.877686 447.050497 
L 161.97686 447.160624 
L 166.076033 447.270751 
L 170.175207 447.380878 
L 174.27438 447.491005 
L 178.373554 447.601132 
L 182.472727 447.71126 
L 186.571901 447.821387 
L 190.671074 447.931514 
L 194.770248 448.041641 
L 198.869421 448.151768 
L 202.968595 448.261895 
L 207.067769 448.372022 
L 211.166942 448.482149 
L 215.266116 448.592276 
L 219.365289 448.702403 
L 223.464463 448.81253 
L 227.563636 448.922658 
L 231.66281 449.032785 
L 235.761983 449.142912 
L 239.861157 449.253039 
L 243.960331 449.363166 
L 248.059504 449.473293 
L 252.158678 449.58342 
L 256.257851 449.693547 
L 260.357025 449.803674 
L 264.456198 449.913801 
L 268.555372 450.023928 
L 272.654545 450.134056 
L 276.753719 450.244183 
L 280.852893 450.35431 
L 284.952066 450.464437 
L 289.05124 450.574564 
L 293.150413 450.684691 
L 297.249587 450.794818 
L 301.34876 450.904945 
L 305.447934 451.015072 
L 309.547107 451.125199 
L 313.646281 451.235326 
L 317.745455 451.345454 
L 321.844628 451.455581 
L 325.943802 451.565699 
L 330.042975 451.675816 
L 334.142149 451.785933 
L 338.241322 451.896049 
L 342.340496 452.006166 
L 346.439669 452.116283 
L 350.538843 452.226338 
L 354.638017 452.336361 
L 358.73719 452.446355 
L 362.836364 452.556327 
L 366.935537 452.666281 
L 371.034711 452.776234 
L 375.133884 452.886187 
L 379.233058 452.99614 
L 383.332231 453.106094 
L 387.431405 453.216047 
L 391.530579 453.326 
L 395.629752 453.435953 
L 399.728926 453.545907 
L 403.828099 453.65586 
L 407.927273 453.765802 
L 412.026446 453.875722 
L 416.12562 453.985642 
L 420.224793 454.095562 
L 424.323967 454.205482 
L 428.42314 454.315402 
L 432.522314 454.425322 
L 436.621488 454.535242 
L 440.720661 454.645162 
L 444.819835 454.755082 
L 448.919008 454.865002 
L 453.018182 454.974922 
L 457.117355 455.084842 
L 461.216529 455.194762 
L 465.315702 455.30467 
L 469.414876 455.414479 
L 473.51405 455.524287 
L 477.613223 455.634096 
L 481.712397 455.743904 
L 485.81157 455.853713 
L 489.910744 455.963521 
L 494.009917 456.07333 
L 498.109091 456.183139 
L 498.109091 450.802936 
L 498.109091 450.802936 
L 494.009917 450.693128 
L 489.910744 450.583319 
L 485.81157 450.473511 
L 481.712397 450.363702 
L 477.613223 450.253893 
L 473.51405 450.144085 
L 469.414876 450.034276 
L 465.315702 449.924468 
L 461.216529 449.814559 
L 457.117355 449.704639 
L 453.018182 449.594719 
L 448.919008 449.484799 
L 444.819835 449.37488 
L 440.720661 449.26496 
L 436.621488 449.15504 
L 432.522314 449.04512 
L 428.42314 448.9352 
L 424.323967 448.82528 
L 420.224793 448.71536 
L 416.12562 448.60544 
L 412.026446 448.49552 
L 407.927273 448.3856 
L 403.828099 448.275657 
L 399.728926 448.165704 
L 395.629752 448.055751 
L 391.530579 447.945798 
L 387.431405 447.835844 
L 383.332231 447.725891 
L 379.233058 447.615938 
L 375.133884 447.505985 
L 371.034711 447.396031 
L 366.935537 447.286078 
L 362.836364 447.176125 
L 358.73719 447.066152 
L 354.638017 446.956158 
L 350.538843 446.846135 
L 346.439669 446.736081 
L 342.340496 446.625964 
L 338.241322 446.515847 
L 334.142149 446.40573 
L 330.042975 446.295614 
L 325.943802 446.185497 
L 321.844628 446.075378 
L 317.745455 445.965251 
L 313.646281 445.855124 
L 309.547107 445.744997 
L 305.447934 445.63487 
L 301.34876 445.524743 
L 297.249587 445.414616 
L 293.150413 445.304489 
L 289.05124 445.194362 
L 284.952066 445.084234 
L 280.852893 444.974107 
L 276.753719 444.86398 
L 272.654545 444.753853 
L 268.555372 444.643726 
L 264.456198 444.533599 
L 260.357025 444.423472 
L 256.257851 444.313345 
L 252.158678 444.203218 
L 248.059504 444.093091 
L 243.960331 443.982963 
L 239.861157 443.872836 
L 235.761983 443.762709 
L 231.66281 443.652582 
L 227.563636 443.542455 
L 223.464463 443.432328 
L 219.365289 443.322201 
L 215.266116 443.212074 
L 211.166942 443.101947 
L 207.067769 442.99182 
L 202.968595 442.881693 
L 198.869421 442.771565 
L 194.770248 442.661438 
L 190.671074 442.551311 
L 186.571901 442.441184 
L 182.472727 442.331057 
L 178.373554 442.22093 
L 174.27438 442.110803 
L 170.175207 442.000676 
L 166.076033 441.890549 
L 161.97686 441.780422 
L 157.877686 441.670295 
L 153.778512 441.560167 
L 149.679339 441.45004 
L 145.580165 441.339913 
L 141.480992 441.229786 
L 137.381818 441.119659 
L 133.282645 441.009532 
L 129.183471 440.899405 
L 125.084298 440.789278 
L 120.985124 440.679151 
L 116.88595 440.569024 
L 112.786777 440.458897 
L 108.687603 440.348769 
L 104.58843 440.238642 
L 100.489256 440.128515 
L 96.390083 440.018388 
L 92.290909 439.908261 
z
" style="fill:#9ecae1;"/>
   </g>
   <g id="PolyCollection_4">
    <path clip-path="url(#pb7b88dcdbe)" d="M 92.290909 433.17061 
L 92.290909 439.908261 
L 96.390083 440.018388 
L 100.489256 440.128515 
L 104.58843 440.238642 
L 108.687603 440.348769 
L 112.786777 440.458897 
L 116.88595 440.569024 
L 120.985124 440.679151 
L 125.084298 440.789278 
L 129.183471 440.899405 
L 133.282645 441.009532 
L 137.381818 441.119659 
L 141.480992 441.229786 
L 145.580165 441.339913 
L 149.679339 441.45004 
L 153.778512 441.560167 
L 157.877686 441.670295 
L 161.97686 441.780422 
L 166.076033 441.890549 
L 170.175207 442.000676 
L 174.27438 442.110803 
L 178.373554 442.22093 
L 182.472727 442.331057 
L 186.571901 442.441184 
L 190.671074 442.551311 
L 194.770248 442.661438 
L 198.869421 442.771565 
L 202.968595 442.881693 
L 207.067769 442.99182 
L 211.166942 443.101947 
L 215.266116 443.212074 
L 219.365289 443.322201 
L 223.464463 443.432328 
L 227.563636 443.542455 
L 231.66281 443.652582 
L 235.761983 443.762709 
L 239.861157 443.872836 
L 243.960331 443.982963 
L 248.059504 444.093091 
L 252.158678 444.203218 
L 256.257851 444.313345 
L 260.357025 444.423472 
L 264.456198 444.533599 
L 268.555372 444.643726 
L 272.654545 444.753853 
L 276.753719 444.86398 
L 280.852893 444.974107 
L 284.952066 445.084234 
L 289.05124 445.194362 
L 293.150413 445.304489 
L 297.249587 445.414616 
L 301.34876 445.524743 
L 305.447934 445.63487 
L 309.547107 445.744997 
L 313.646281 445.855124 
L 317.745455 445.965251 
L 321.844628 446.075378 
L 325.943802 446.185497 
L 330.042975 446.295614 
L 334.142149 446.40573 
L 338.241322 446.515847 
L 342.340496 446.625964 
L 346.439669 446.736081 
L 350.538843 446.846135 
L 354.638017 446.956158 
L 358.73719 447.066152 
L 362.836364 447.176125 
L 366.935537 447.286078 
L 371.034711 447.396031 
L 375.133884 447.505985 
L 379.233058 447.615938 
L 383.332231 447.725891 
L 387.431405 447.835844 
L 391.530579 447.945798 
L 395.629752 448.055751 
L 399.728926 448.165704 
L 403.828099 448.275657 
L 407.927273 448.3856 
L 412.026446 448.49552 
L 416.12562 448.60544 
L 420.224793 448.71536 
L 424.323967 448.82528 
L 428.42314 448.9352 
L 432.522314 449.04512 
L 436.621488 449.15504 
L 440.720661 449.26496 
L 444.819835 449.37488 
L 448.919008 449.484799 
L 453.018182 449.594719 
L 457.117355 449.704639 
L 461.216529 449.814559 
L 465.315702 449.924468 
L 469.414876 450.034276 
L 473.51405 450.144085 
L 477.613223 450.253893 
L 481.712397 450.363702 
L 485.81157 450.473511 
L 489.910744 450.583319 
L 494.009917 450.693128 
L 498.109091 450.802936 
L 498.109091 444.065285 
L 498.109091 444.065285 
L 494.009917 443.955476 
L 489.910744 443.845668 
L 485.81157 443.735859 
L 481.712397 443.626051 
L 477.613223 443.516242 
L 473.51405 443.406434 
L 469.414876 443.296625 
L 465.315702 443.186817 
L 461.216529 443.076908 
L 457.117355 442.966988 
L 453.018182 442.857068 
L 448.919008 442.747148 
L 444.819835 442.637228 
L 440.720661 442.527308 
L 436.621488 442.417388 
L 432.522314 442.307469 
L 428.42314 442.197549 
L 424.323967 442.087629 
L 420.224793 441.977709 
L 416.12562 441.867789 
L 412.026446 441.757869 
L 407.927273 441.647949 
L 403.828099 441.538006 
L 399.728926 441.428053 
L 395.629752 441.3181 
L 391.530579 441.208146 
L 387.431405 441.098193 
L 383.332231 440.98824 
L 379.233058 440.878287 
L 375.133884 440.768333 
L 371.034711 440.65838 
L 366.935537 440.548427 
L 362.836364 440.438474 
L 358.73719 440.328501 
L 354.638017 440.218507 
L 350.538843 440.108484 
L 346.439669 439.998429 
L 342.340496 439.888313 
L 338.241322 439.778196 
L 334.142149 439.668079 
L 330.042975 439.557962 
L 325.943802 439.447846 
L 321.844628 439.337727 
L 317.745455 439.2276 
L 313.646281 439.117473 
L 309.547107 439.007346 
L 305.447934 438.897219 
L 301.34876 438.787092 
L 297.249587 438.676964 
L 293.150413 438.566837 
L 289.05124 438.45671 
L 284.952066 438.346583 
L 280.852893 438.236456 
L 276.753719 438.126329 
L 272.654545 438.016202 
L 268.555372 437.906075 
L 264.456198 437.795948 
L 260.357025 437.685821 
L 256.257851 437.575694 
L 252.158678 437.465566 
L 248.059504 437.355439 
L 243.960331 437.245312 
L 239.861157 437.135185 
L 235.761983 437.025058 
L 231.66281 436.914931 
L 227.563636 436.804804 
L 223.464463 436.694677 
L 219.365289 436.58455 
L 215.266116 436.474423 
L 211.166942 436.364296 
L 207.067769 436.254168 
L 202.968595 436.144041 
L 198.869421 436.033914 
L 194.770248 435.923787 
L 190.671074 435.81366 
L 186.571901 435.703533 
L 182.472727 435.593406 
L 178.373554 435.483279 
L 174.27438 435.373152 
L 170.175207 435.263025 
L 166.076033 435.152898 
L 161.97686 435.04277 
L 157.877686 434.932643 
L 153.778512 434.822516 
L 149.679339 434.712389 
L 145.580165 434.602262 
L 141.480992 434.492135 
L 137.381818 434.382008 
L 133.282645 434.271881 
L 129.183471 434.161754 
L 125.084298 434.051627 
L 120.985124 433.9415 
L 116.88595 433.831372 
L 112.786777 433.721245 
L 108.687603 433.611118 
L 104.58843 433.500991 
L 100.489256 433.390864 
L 96.390083 433.280737 
L 92.290909 433.17061 
z
" style="fill:#c6dbef;"/>
   </g>
   <g id="PolyCollection_5">
    <path clip-path="url(#pb7b88dcdbe)" d="M 92.290909 400.651457 
L 92.290909 433.17061 
L 96.390083 433.280737 
L 100.489256 433.390864 
L 104.58843 433.500991 
L 108.687603 433.611118 
L 112.786777 433.721245 
L 116.88595 433.831372 
L 120.985124 433.9415 
L 125.084298 434.051627 
L 129.183471 434.161754 
L 133.282645 434.271881 
L 137.381818 434.382008 
L 141.480992 434.492135 
L 145.580165 434.602262 
L 149.679339 434.712389 
L 153.778512 434.822516 
L 157.877686 434.932643 
L 161.97686 435.04277 
L 166.076033 435.152898 
L 170.175207 435.263025 
L 174.27438 435.373152 
L 178.373554 435.483279 
L 182.472727 435.593406 
L 186.571901 435.703533 
L 190.671074 435.81366 
L 194.770248 435.923787 
L 198.869421 436.033914 
L 202.968595 436.144041 
L 207.067769 436.254168 
L 211.166942 436.364296 
L 215.266116 436.474423 
L 219.365289 436.58455 
L 223.464463 436.694677 
L 227.563636 436.804804 
L 231.66281 436.914931 
L 235.761983 437.025058 
L 239.861157 437.135185 
L 243.960331 437.245312 
L 248.059504 437.355439 
L 252.158678 437.465566 
L 256.257851 437.575694 
L 260.357025 437.685821 
L 264.456198 437.795948 
L 268.555372 437.906075 
L 272.654545 438.016202 
L 276.753719 438.126329 
L 280.852893 438.236456 
L 284.952066 438.346583 
L 289.05124 438.45671 
L 293.150413 438.566837 
L 297.249587 438.676964 
L 301.34876 438.787092 
L 305.447934 438.897219 
L 309.547107 439.007346 
L 313.646281 439.117473 
L 317.745455 439.2276 
L 321.844628 439.337727 
L 325.943802 439.447846 
L 330.042975 439.557962 
L 334.142149 439.668079 
L 338.241322 439.778196 
L 342.340496 439.888313 
L 346.439669 439.998429 
L 350.538843 440.108484 
L 354.638017 440.218507 
L 358.73719 440.328501 
L 362.836364 440.438474 
L 366.935537 440.548427 
L 371.034711 440.65838 
L 375.133884 440.768333 
L 379.233058 440.878287 
L 383.332231 440.98824 
L 387.431405 441.098193 
L 391.530579 441.208146 
L 395.629752 441.3181 
L 399.728926 441.428053 
L 403.828099 441.538006 
L 407.927273 441.647949 
L 412.026446 441.757869 
L 416.12562 441.867789 
L 420.224793 441.977709 
L 424.323967 442.087629 
L 428.42314 442.197549 
L 432.522314 442.307469 
L 436.621488 442.417388 
L 440.720661 442.527308 
L 444.819835 442.637228 
L 448.919008 442.747148 
L 453.018182 442.857068 
L 457.117355 442.966988 
L 461.216529 443.076908 
L 465.315702 443.186817 
L 469.414876 443.296625 
L 473.51405 443.406434 
L 477.613223 443.516242 
L 481.712397 443.626051 
L 485.81157 443.735859 
L 489.910744 443.845668 
L 494.009917 443.955476 
L 498.109091 444.065285 
L 498.109091 411.546132 
L 498.109091 411.546132 
L 494.009917 411.436324 
L 489.910744 411.326515 
L 485.81157 411.216707 
L 481.712397 411.106898 
L 477.613223 410.99709 
L 473.51405 410.887281 
L 469.414876 410.777472 
L 465.315702 410.667664 
L 461.216529 410.557755 
L 457.117355 410.447836 
L 453.018182 410.337916 
L 448.919008 410.227996 
L 444.819835 410.118076 
L 440.720661 410.008156 
L 436.621488 409.898236 
L 432.522314 409.788316 
L 428.42314 409.678396 
L 424.323967 409.568476 
L 420.224793 409.458556 
L 416.12562 409.348636 
L 412.026446 409.238716 
L 407.927273 409.128796 
L 403.828099 409.018854 
L 399.728926 408.9089 
L 395.629752 408.798947 
L 391.530579 408.688994 
L 387.431405 408.579041 
L 383.332231 408.469087 
L 379.233058 408.359134 
L 375.133884 408.249181 
L 371.034711 408.139228 
L 366.935537 408.029274 
L 362.836364 407.919321 
L 358.73719 407.809349 
L 354.638017 407.699354 
L 350.538843 407.589331 
L 346.439669 407.479277 
L 342.340496 407.36916 
L 338.241322 407.259043 
L 334.142149 407.148926 
L 330.042975 407.03881 
L 325.943802 406.928693 
L 321.844628 406.818574 
L 317.745455 406.708447 
L 313.646281 406.59832 
L 309.547107 406.488193 
L 305.447934 406.378066 
L 301.34876 406.267939 
L 297.249587 406.157812 
L 293.150413 406.047685 
L 289.05124 405.937558 
L 284.952066 405.827431 
L 280.852893 405.717303 
L 276.753719 405.607176 
L 272.654545 405.497049 
L 268.555372 405.386922 
L 264.456198 405.276795 
L 260.357025 405.166668 
L 256.257851 405.056541 
L 252.158678 404.946414 
L 248.059504 404.836287 
L 243.960331 404.72616 
L 239.861157 404.616033 
L 235.761983 404.505905 
L 231.66281 404.395778 
L 227.563636 404.285651 
L 223.464463 404.175524 
L 219.365289 404.065397 
L 215.266116 403.95527 
L 211.166942 403.845143 
L 207.067769 403.735016 
L 202.968595 403.624889 
L 198.869421 403.514762 
L 194.770248 403.404635 
L 190.671074 403.294507 
L 186.571901 403.18438 
L 182.472727 403.074253 
L 178.373554 402.964126 
L 174.27438 402.853999 
L 170.175207 402.743872 
L 166.076033 402.633745 
L 161.97686 402.523618 
L 157.877686 402.413491 
L 153.778512 402.303364 
L 149.679339 402.193237 
L 145.580165 402.083109 
L 141.480992 401.972982 
L 137.381818 401.862855 
L 133.282645 401.752728 
L 129.183471 401.642601 
L 125.084298 401.532474 
L 120.985124 401.422347 
L 116.88595 401.31222 
L 112.786777 401.202093 
L 108.687603 401.091966 
L 104.58843 400.981839 
L 100.489256 400.871711 
L 96.390083 400.761584 
L 92.290909 400.651457 
z
" style="fill:#e6550d;"/>
   </g>
   <g id="PolyCollection_6">
    <path clip-path="url(#pb7b88dcdbe)" d="M 92.290909 345.338553 
L 92.290909 400.651457 
L 96.390083 400.761584 
L 100.489256 400.871711 
L 104.58843 400.981839 
L 108.687603 401.091966 
L 112.786777 401.202093 
L 116.88595 401.31222 
L 120.985124 401.422347 
L 125.084298 401.532474 
L 129.183471 401.642601 
L 133.282645 401.752728 
L 137.381818 401.862855 
L 141.480992 401.972982 
L 145.580165 402.083109 
L 149.679339 402.193237 
L 153.778512 402.303364 
L 157.877686 402.413491 
L 161.97686 402.523618 
L 166.076033 402.633745 
L 170.175207 402.743872 
L 174.27438 402.853999 
L 178.373554 402.964126 
L 182.472727 403.074253 
L 186.571901 403.18438 
L 190.671074 403.294507 
L 194.770248 403.404635 
L 198.869421 403.514762 
L 202.968595 403.624889 
L 207.067769 403.735016 
L 211.166942 403.845143 
L 215.266116 403.95527 
L 219.365289 404.065397 
L 223.464463 404.175524 
L 227.563636 404.285651 
L 231.66281 404.395778 
L 235.761983 404.505905 
L 239.861157 404.616033 
L 243.960331 404.72616 
L 248.059504 404.836287 
L 252.158678 404.946414 
L 256.257851 405.056541 
L 260.357025 405.166668 
L 264.456198 405.276795 
L 268.555372 405.386922 
L 272.654545 405.497049 
L 276.753719 405.607176 
L 280.852893 405.717303 
L 284.952066 405.827431 
L 289.05124 405.937558 
L 293.150413 406.047685 
L 297.249587 406.157812 
L 301.34876 406.267939 
L 305.447934 406.378066 
L 309.547107 406.488193 
L 313.646281 406.59832 
L 317.745455 406.708447 
L 321.844628 406.818574 
L 325.943802 406.928693 
L 330.042975 407.03881 
L 334.142149 407.148926 
L 338.241322 407.259043 
L 342.340496 407.36916 
L 346.439669 407.479277 
L 350.538843 407.589331 
L 354.638017 407.699354 
L 358.73719 407.809349 
L 362.836364 407.919321 
L 366.935537 408.029274 
L 371.034711 408.139228 
L 375.133884 408.249181 
L 379.233058 408.359134 
L 383.332231 408.469087 
L 387.431405 408.579041 
L 391.530579 408.688994 
L 395.629752 408.798947 
L 399.728926 408.9089 
L 403.828099 409.018854 
L 407.927273 409.128796 
L 412.026446 409.238716 
L 416.12562 409.348636 
L 420.224793 409.458556 
L 424.323967 409.568476 
L 428.42314 409.678396 
L 432.522314 409.788316 
L 436.621488 409.898236 
L 440.720661 410.008156 
L 444.819835 410.118076 
L 448.919008 410.227996 
L 453.018182 410.337916 
L 457.117355 410.447836 
L 461.216529 410.557755 
L 465.315702 410.667664 
L 469.414876 410.777472 
L 473.51405 410.887281 
L 477.613223 410.99709 
L 481.712397 411.106898 
L 485.81157 411.216707 
L 489.910744 411.326515 
L 494.009917 411.436324 
L 498.109091 411.546132 
L 498.109091 356.233528 
L 498.109091 356.233528 
L 494.009917 356.12371 
L 489.910744 356.013892 
L 485.81157 355.904074 
L 481.712397 355.794256 
L 477.613223 355.684438 
L 473.51405 355.57462 
L 469.414876 355.464802 
L 465.315702 355.354984 
L 461.216529 355.245067 
L 457.117355 355.135137 
L 453.018182 355.025208 
L 448.919008 354.915278 
L 444.819835 354.805349 
L 440.720661 354.69542 
L 436.621488 354.58549 
L 432.522314 354.475561 
L 428.42314 354.365632 
L 424.323967 354.255702 
L 420.224793 354.145773 
L 416.12562 354.035843 
L 412.026446 353.925914 
L 407.927273 353.815985 
L 403.828099 353.706033 
L 399.728926 353.59607 
L 395.629752 353.486107 
L 391.530579 353.376145 
L 387.431405 353.266182 
L 383.332231 353.156219 
L 379.233058 353.046257 
L 375.133884 352.936294 
L 371.034711 352.826331 
L 366.935537 352.71637 
L 362.836364 352.606417 
L 358.73719 352.496445 
L 354.638017 352.38645 
L 350.538843 352.276427 
L 346.439669 352.166373 
L 342.340496 352.056256 
L 338.241322 351.946139 
L 334.142149 351.836022 
L 330.042975 351.725906 
L 325.943802 351.615789 
L 321.844628 351.50567 
L 317.745455 351.395543 
L 313.646281 351.285416 
L 309.547107 351.175289 
L 305.447934 351.065162 
L 301.34876 350.955035 
L 297.249587 350.844908 
L 293.150413 350.734781 
L 289.05124 350.624654 
L 284.952066 350.514527 
L 280.852893 350.404399 
L 276.753719 350.294272 
L 272.654545 350.184145 
L 268.555372 350.074018 
L 264.456198 349.963891 
L 260.357025 349.853764 
L 256.257851 349.743637 
L 252.158678 349.63351 
L 248.059504 349.523383 
L 243.960331 349.413256 
L 239.861157 349.303129 
L 235.761983 349.193001 
L 231.66281 349.082874 
L 227.563636 348.972747 
L 223.464463 348.86262 
L 219.365289 348.752493 
L 215.266116 348.642366 
L 211.166942 348.532239 
L 207.067769 348.422112 
L 202.968595 348.311985 
L 198.869421 348.201858 
L 194.770248 348.09173 
L 190.671074 347.981603 
L 186.571901 347.871476 
L 182.472727 347.761349 
L 178.373554 347.651222 
L 174.27438 347.541095 
L 170.175207 347.430968 
L 166.076033 347.320841 
L 161.97686 347.210714 
L 157.877686 347.100587 
L 153.778512 346.99046 
L 149.679339 346.880332 
L 145.580165 346.770205 
L 141.480992 346.660078 
L 137.381818 346.549951 
L 133.282645 346.439824 
L 129.183471 346.329697 
L 125.084298 346.21957 
L 120.985124 346.109443 
L 116.88595 345.999316 
L 112.786777 345.889189 
L 108.687603 345.779062 
L 104.58843 345.668934 
L 100.489256 345.558807 
L 96.390083 345.44868 
L 92.290909 345.338553 
z
" style="fill:#fd8d3c;"/>
   </g>
   <g id="PolyCollection_7">
    <path clip-path="url(#pb7b88dcdbe)" d="M 92.290909 321.681959 
L 92.290909 345.338553 
L 96.390083 345.44868 
L 100.489256 345.558807 
L 104.58843 345.668934 
L 108.687603 345.779062 
L 112.786777 345.889189 
L 116.88595 345.999316 
L 120.985124 346.109443 
L 125.084298 346.21957 
L 129.183471 346.329697 
L 133.282645 346.439824 
L 137.381818 346.549951 
L 141.480992 346.660078 
L 145.580165 346.770205 
L 149.679339 346.880332 
L 153.778512 346.99046 
L 157.877686 347.100587 
L 161.97686 347.210714 
L 166.076033 347.320841 
L 170.175207 347.430968 
L 174.27438 347.541095 
L 178.373554 347.651222 
L 182.472727 347.761349 
L 186.571901 347.871476 
L 190.671074 347.981603 
L 194.770248 348.09173 
L 198.869421 348.201858 
L 202.968595 348.311985 
L 207.067769 348.422112 
L 211.166942 348.532239 
L 215.266116 348.642366 
L 219.365289 348.752493 
L 223.464463 348.86262 
L 227.563636 348.972747 
L 231.66281 349.082874 
L 235.761983 349.193001 
L 239.861157 349.303129 
L 243.960331 349.413256 
L 248.059504 349.523383 
L 252.158678 349.63351 
L 256.257851 349.743637 
L 260.357025 349.853764 
L 264.456198 349.963891 
L 268.555372 350.074018 
L 272.654545 350.184145 
L 276.753719 350.294272 
L 280.852893 350.404399 
L 284.952066 350.514527 
L 289.05124 350.624654 
L 293.150413 350.734781 
L 297.249587 350.844908 
L 301.34876 350.955035 
L 305.447934 351.065162 
L 309.547107 351.175289 
L 313.646281 351.285416 
L 317.745455 351.395543 
L 321.844628 351.50567 
L 325.943802 351.615789 
L 330.042975 351.725906 
L 334.142149 351.836022 
L 338.241322 351.946139 
L 342.340496 352.056256 
L 346.439669 352.166373 
L 350.538843 352.276427 
L 354.638017 352.38645 
L 358.73719 352.496445 
L 362.836364 352.606417 
L 366.935537 352.71637 
L 371.034711 352.826331 
L 375.133884 352.936294 
L 379.233058 353.046257 
L 383.332231 353.156219 
L 387.431405 353.266182 
L 391.530579 353.376145 
L 395.629752 353.486107 
L 399.728926 353.59607 
L 403.828099 353.706033 
L 407.927273 353.815985 
L 412.026446 353.925914 
L 416.12562 354.035843 
L 420.224793 354.145773 
L 424.323967 354.255702 
L 428.42314 354.365632 
L 432.522314 354.475561 
L 436.621488 354.58549 
L 440.720661 354.69542 
L 444.819835 354.805349 
L 448.919008 354.915278 
L 453.018182 355.025208 
L 457.117355 355.135137 
L 461.216529 355.245067 
L 465.315702 355.354984 
L 469.414876 355.464802 
L 473.51405 355.57462 
L 477.613223 355.684438 
L 481.712397 355.794256 
L 485.81157 355.904074 
L 489.910744 356.013892 
L 494.009917 356.12371 
L 498.109091 356.233528 
L 498.109091 356.233528 
L 498.109091 356.233528 
L 494.009917 355.884755 
L 489.910744 355.535982 
L 485.81157 355.18721 
L 481.712397 354.838437 
L 477.613223 354.489664 
L 473.51405 354.140891 
L 469.414876 353.792118 
L 465.315702 353.443345 
L 461.216529 353.094472 
L 457.117355 352.745587 
L 453.018182 352.396703 
L 448.919008 352.047819 
L 444.819835 351.698934 
L 440.720661 351.35005 
L 436.621488 351.001166 
L 432.522314 350.652281 
L 428.42314 350.303397 
L 424.323967 349.954513 
L 420.224793 349.605628 
L 416.12562 349.256744 
L 412.026446 348.90786 
L 407.927273 348.558975 
L 403.828099 348.210068 
L 399.728926 347.86115 
L 395.629752 347.512233 
L 391.530579 347.163315 
L 387.431405 346.814398 
L 383.332231 346.46548 
L 379.233058 346.116562 
L 375.133884 345.767645 
L 371.034711 345.418727 
L 366.935537 345.069809 
L 362.836364 344.720892 
L 358.73719 344.371958 
L 354.638017 344.023008 
L 350.538843 343.674029 
L 346.439669 343.325019 
L 342.340496 342.975947 
L 338.241322 342.626875 
L 334.142149 342.277802 
L 330.042975 341.92873 
L 325.943802 341.579658 
L 321.844628 341.230584 
L 317.745455 340.881501 
L 313.646281 340.532419 
L 309.547107 340.183336 
L 305.447934 339.834253 
L 301.34876 339.485171 
L 297.249587 339.136088 
L 293.150413 338.787006 
L 289.05124 338.437923 
L 284.952066 338.08884 
L 280.852893 337.739758 
L 276.753719 337.390675 
L 272.654545 337.041593 
L 268.555372 336.69251 
L 264.456198 336.343427 
L 260.357025 335.994345 
L 256.257851 335.645262 
L 252.158678 335.29618 
L 248.059504 334.947097 
L 243.960331 334.598014 
L 239.861157 334.248932 
L 235.761983 333.899849 
L 231.66281 333.550767 
L 227.563636 333.201684 
L 223.464463 332.852602 
L 219.365289 332.503519 
L 215.266116 332.154436 
L 211.166942 331.805354 
L 207.067769 331.456271 
L 202.968595 331.107189 
L 198.869421 330.758106 
L 194.770248 330.409023 
L 190.671074 330.059941 
L 186.571901 329.710858 
L 182.472727 329.361776 
L 178.373554 329.012693 
L 174.27438 328.66361 
L 170.175207 328.314528 
L 166.076033 327.965445 
L 161.97686 327.616363 
L 157.877686 327.26728 
L 153.778512 326.918197 
L 149.679339 326.569115 
L 145.580165 326.220032 
L 141.480992 325.87095 
L 137.381818 325.521867 
L 133.282645 325.172784 
L 129.183471 324.823702 
L 125.084298 324.474619 
L 120.985124 324.125537 
L 116.88595 323.776454 
L 112.786777 323.427371 
L 108.687603 323.078289 
L 104.58843 322.729206 
L 100.489256 322.380124 
L 96.390083 322.031041 
L 92.290909 321.681959 
z
" style="fill:#fdae6b;"/>
   </g>
   <g id="PolyCollection_8">
    <path clip-path="url(#pb7b88dcdbe)" d="M 92.290909 194.119233 
L 92.290909 321.681959 
L 96.390083 322.031041 
L 100.489256 322.380124 
L 104.58843 322.729206 
L 108.687603 323.078289 
L 112.786777 323.427371 
L 116.88595 323.776454 
L 120.985124 324.125537 
L 125.084298 324.474619 
L 129.183471 324.823702 
L 133.282645 325.172784 
L 137.381818 325.521867 
L 141.480992 325.87095 
L 145.580165 326.220032 
L 149.679339 326.569115 
L 153.778512 326.918197 
L 157.877686 327.26728 
L 161.97686 327.616363 
L 166.076033 327.965445 
L 170.175207 328.314528 
L 174.27438 328.66361 
L 178.373554 329.012693 
L 182.472727 329.361776 
L 186.571901 329.710858 
L 190.671074 330.059941 
L 194.770248 330.409023 
L 198.869421 330.758106 
L 202.968595 331.107189 
L 207.067769 331.456271 
L 211.166942 331.805354 
L 215.266116 332.154436 
L 219.365289 332.503519 
L 223.464463 332.852602 
L 227.563636 333.201684 
L 231.66281 333.550767 
L 235.761983 333.899849 
L 239.861157 334.248932 
L 243.960331 334.598014 
L 248.059504 334.947097 
L 252.158678 335.29618 
L 256.257851 335.645262 
L 260.357025 335.994345 
L 264.456198 336.343427 
L 268.555372 336.69251 
L 272.654545 337.041593 
L 276.753719 337.390675 
L 280.852893 337.739758 
L 284.952066 338.08884 
L 289.05124 338.437923 
L 293.150413 338.787006 
L 297.249587 339.136088 
L 301.34876 339.485171 
L 305.447934 339.834253 
L 309.547107 340.183336 
L 313.646281 340.532419 
L 317.745455 340.881501 
L 321.844628 341.230584 
L 325.943802 341.579658 
L 330.042975 341.92873 
L 334.142149 342.277802 
L 338.241322 342.626875 
L 342.340496 342.975947 
L 346.439669 343.325019 
L 350.538843 343.674029 
L 354.638017 344.023008 
L 358.73719 344.371958 
L 362.836364 344.720892 
L 366.935537 345.069809 
L 371.034711 345.418727 
L 375.133884 345.767645 
L 379.233058 346.116562 
L 383.332231 346.46548 
L 387.431405 346.814398 
L 391.530579 347.163315 
L 395.629752 347.512233 
L 399.728926 347.86115 
L 403.828099 348.210068 
L 407.927273 348.558975 
L 412.026446 348.90786 
L 416.12562 349.256744 
L 420.224793 349.605628 
L 424.323967 349.954513 
L 428.42314 350.303397 
L 432.522314 350.652281 
L 436.621488 351.001166 
L 440.720661 351.35005 
L 444.819835 351.698934 
L 448.919008 352.047819 
L 453.018182 352.396703 
L 457.117355 352.745587 
L 461.216529 353.094472 
L 465.315702 353.443345 
L 469.414876 353.792118 
L 473.51405 354.140891 
L 477.613223 354.489664 
L 481.712397 354.838437 
L 485.81157 355.18721 
L 489.910744 355.535982 
L 494.009917 355.884755 
L 498.109091 356.233528 
L 498.109091 228.670803 
L 498.109091 228.670803 
L 494.009917 228.32203 
L 489.910744 227.973257 
L 485.81157 227.624484 
L 481.712397 227.275711 
L 477.613223 226.926938 
L 473.51405 226.578165 
L 469.414876 226.229392 
L 465.315702 225.880619 
L 461.216529 225.531746 
L 457.117355 225.182862 
L 453.018182 224.833977 
L 448.919008 224.485093 
L 444.819835 224.136209 
L 440.720661 223.787324 
L 436.621488 223.43844 
L 432.522314 223.089555 
L 428.42314 222.740671 
L 424.323967 222.391787 
L 420.224793 222.042902 
L 416.12562 221.694018 
L 412.026446 221.345134 
L 407.927273 220.996249 
L 403.828099 220.647342 
L 399.728926 220.298425 
L 395.629752 219.949507 
L 391.530579 219.600589 
L 387.431405 219.251672 
L 383.332231 218.902754 
L 379.233058 218.553836 
L 375.133884 218.204919 
L 371.034711 217.856001 
L 366.935537 217.507083 
L 362.836364 217.158166 
L 358.73719 216.809232 
L 354.638017 216.460282 
L 350.538843 216.111304 
L 346.439669 215.762293 
L 342.340496 215.413221 
L 338.241322 215.064149 
L 334.142149 214.715077 
L 330.042975 214.366004 
L 325.943802 214.016932 
L 321.844628 213.667858 
L 317.745455 213.318775 
L 313.646281 212.969693 
L 309.547107 212.62061 
L 305.447934 212.271528 
L 301.34876 211.922445 
L 297.249587 211.573362 
L 293.150413 211.22428 
L 289.05124 210.875197 
L 284.952066 210.526115 
L 280.852893 210.177032 
L 276.753719 209.827949 
L 272.654545 209.478867 
L 268.555372 209.129784 
L 264.456198 208.780702 
L 260.357025 208.431619 
L 256.257851 208.082536 
L 252.158678 207.733454 
L 248.059504 207.384371 
L 243.960331 207.035289 
L 239.861157 206.686206 
L 235.761983 206.337123 
L 231.66281 205.988041 
L 227.563636 205.638958 
L 223.464463 205.289876 
L 219.365289 204.940793 
L 215.266116 204.59171 
L 211.166942 204.242628 
L 207.067769 203.893545 
L 202.968595 203.544463 
L 198.869421 203.19538 
L 194.770248 202.846298 
L 190.671074 202.497215 
L 186.571901 202.148132 
L 182.472727 201.79905 
L 178.373554 201.449967 
L 174.27438 201.100885 
L 170.175207 200.751802 
L 166.076033 200.402719 
L 161.97686 200.053637 
L 157.877686 199.704554 
L 153.778512 199.355472 
L 149.679339 199.006389 
L 145.580165 198.657306 
L 141.480992 198.308224 
L 137.381818 197.959141 
L 133.282645 197.610059 
L 129.183471 197.260976 
L 125.084298 196.911893 
L 120.985124 196.562811 
L 116.88595 196.213728 
L 112.786777 195.864646 
L 108.687603 195.515563 
L 104.58843 195.16648 
L 100.489256 194.817398 
L 96.390083 194.468315 
L 92.290909 194.119233 
z
" style="fill:#fdd0a2;"/>
   </g>
   <g id="PolyCollection_9">
    <path clip-path="url(#pb7b88dcdbe)" d="M 92.290909 160.257592 
L 92.290909 194.119233 
L 96.390083 194.468315 
L 100.489256 194.817398 
L 104.58843 195.16648 
L 108.687603 195.515563 
L 112.786777 195.864646 
L 116.88595 196.213728 
L 120.985124 196.562811 
L 125.084298 196.911893 
L 129.183471 197.260976 
L 133.282645 197.610059 
L 137.381818 197.959141 
L 141.480992 198.308224 
L 145.580165 198.657306 
L 149.679339 199.006389 
L 153.778512 199.355472 
L 157.877686 199.704554 
L 161.97686 200.053637 
L 166.076033 200.402719 
L 170.175207 200.751802 
L 174.27438 201.100885 
L 178.373554 201.449967 
L 182.472727 201.79905 
L 186.571901 202.148132 
L 190.671074 202.497215 
L 194.770248 202.846298 
L 198.869421 203.19538 
L 202.968595 203.544463 
L 207.067769 203.893545 
L 211.166942 204.242628 
L 215.266116 204.59171 
L 219.365289 204.940793 
L 223.464463 205.289876 
L 227.563636 205.638958 
L 231.66281 205.988041 
L 235.761983 206.337123 
L 239.861157 206.686206 
L 243.960331 207.035289 
L 248.059504 207.384371 
L 252.158678 207.733454 
L 256.257851 208.082536 
L 260.357025 208.431619 
L 264.456198 208.780702 
L 268.555372 209.129784 
L 272.654545 209.478867 
L 276.753719 209.827949 
L 280.852893 210.177032 
L 284.952066 210.526115 
L 289.05124 210.875197 
L 293.150413 211.22428 
L 297.249587 211.573362 
L 301.34876 211.922445 
L 305.447934 212.271528 
L 309.547107 212.62061 
L 313.646281 212.969693 
L 317.745455 213.318775 
L 321.844628 213.667858 
L 325.943802 214.016932 
L 330.042975 214.366004 
L 334.142149 214.715077 
L 338.241322 215.064149 
L 342.340496 215.413221 
L 346.439669 215.762293 
L 350.538843 216.111304 
L 354.638017 216.460282 
L 358.73719 216.809232 
L 362.836364 217.158166 
L 366.935537 217.507083 
L 371.034711 217.856001 
L 375.133884 218.204919 
L 379.233058 218.553836 
L 383.332231 218.902754 
L 387.431405 219.251672 
L 391.530579 219.600589 
L 395.629752 219.949507 
L 399.728926 220.298425 
L 403.828099 220.647342 
L 407.927273 220.996249 
L 412.026446 221.345134 
L 416.12562 221.694018 
L 420.224793 222.042902 
L 424.323967 222.391787 
L 428.42314 222.740671 
L 432.522314 223.089555 
L 436.621488 223.43844 
L 440.720661 223.787324 
L 444.819835 224.136209 
L 448.919008 224.485093 
L 453.018182 224.833977 
L 457.117355 225.182862 
L 461.216529 225.531746 
L 465.315702 225.880619 
L 469.414876 226.229392 
L 473.51405 226.578165 
L 477.613223 226.926938 
L 481.712397 227.275711 
L 485.81157 227.624484 
L 489.910744 227.973257 
L 494.009917 228.32203 
L 498.109091 228.670803 
L 498.109091 194.809162 
L 498.109091 194.809162 
L 494.009917 194.460389 
L 489.910744 194.111616 
L 485.81157 193.762843 
L 481.712397 193.41407 
L 477.613223 193.065297 
L 473.51405 192.716524 
L 469.414876 192.367751 
L 465.315702 192.018978 
L 461.216529 191.670105 
L 457.117355 191.321221 
L 453.018182 190.972336 
L 448.919008 190.623452 
L 444.819835 190.274568 
L 440.720661 189.925683 
L 436.621488 189.576799 
L 432.522314 189.227915 
L 428.42314 188.87903 
L 424.323967 188.530146 
L 420.224793 188.181262 
L 416.12562 187.832377 
L 412.026446 187.483493 
L 407.927273 187.134609 
L 403.828099 186.785701 
L 399.728926 186.436784 
L 395.629752 186.087866 
L 391.530579 185.738948 
L 387.431405 185.390031 
L 383.332231 185.041113 
L 379.233058 184.692195 
L 375.133884 184.343278 
L 371.034711 183.99436 
L 366.935537 183.645443 
L 362.836364 183.296525 
L 358.73719 182.947591 
L 354.638017 182.598641 
L 350.538843 182.249663 
L 346.439669 181.900652 
L 342.340496 181.55158 
L 338.241322 181.202508 
L 334.142149 180.853436 
L 330.042975 180.504363 
L 325.943802 180.155291 
L 321.844628 179.806217 
L 317.745455 179.457134 
L 313.646281 179.108052 
L 309.547107 178.758969 
L 305.447934 178.409887 
L 301.34876 178.060804 
L 297.249587 177.711722 
L 293.150413 177.362639 
L 289.05124 177.013556 
L 284.952066 176.664474 
L 280.852893 176.315391 
L 276.753719 175.966309 
L 272.654545 175.617226 
L 268.555372 175.268143 
L 264.456198 174.919061 
L 260.357025 174.569978 
L 256.257851 174.220896 
L 252.158678 173.871813 
L 248.059504 173.52273 
L 243.960331 173.173648 
L 239.861157 172.824565 
L 235.761983 172.475483 
L 231.66281 172.1264 
L 227.563636 171.777317 
L 223.464463 171.428235 
L 219.365289 171.079152 
L 215.266116 170.73007 
L 211.166942 170.380987 
L 207.067769 170.031904 
L 202.968595 169.682822 
L 198.869421 169.333739 
L 194.770248 168.984657 
L 190.671074 168.635574 
L 186.571901 168.286491 
L 182.472727 167.937409 
L 178.373554 167.588326 
L 174.27438 167.239244 
L 170.175207 166.890161 
L 166.076033 166.541078 
L 161.97686 166.191996 
L 157.877686 165.842913 
L 153.778512 165.493831 
L 149.679339 165.144748 
L 145.580165 164.795666 
L 141.480992 164.446583 
L 137.381818 164.0975 
L 133.282645 163.748418 
L 129.183471 163.399335 
L 125.084298 163.050253 
L 120.985124 162.70117 
L 116.88595 162.352087 
L 112.786777 162.003005 
L 108.687603 161.653922 
L 104.58843 161.30484 
L 100.489256 160.955757 
L 96.390083 160.606674 
L 92.290909 160.257592 
z
" style="fill:#31a354;"/>
   </g>
   <g id="PolyCollection_10">
    <path clip-path="url(#pb7b88dcdbe)" d="M 92.290909 135.36 
L 92.290909 160.257592 
L 96.390083 160.606674 
L 100.489256 160.955757 
L 104.58843 161.30484 
L 108.687603 161.653922 
L 112.786777 162.003005 
L 116.88595 162.352087 
L 120.985124 162.70117 
L 125.084298 163.050253 
L 129.183471 163.399335 
L 133.282645 163.748418 
L 137.381818 164.0975 
L 141.480992 164.446583 
L 145.580165 164.795666 
L 149.679339 165.144748 
L 153.778512 165.493831 
L 157.877686 165.842913 
L 161.97686 166.191996 
L 166.076033 166.541078 
L 170.175207 166.890161 
L 174.27438 167.239244 
L 178.373554 167.588326 
L 182.472727 167.937409 
L 186.571901 168.286491 
L 190.671074 168.635574 
L 194.770248 168.984657 
L 198.869421 169.333739 
L 202.968595 169.682822 
L 207.067769 170.031904 
L 211.166942 170.380987 
L 215.266116 170.73007 
L 219.365289 171.079152 
L 223.464463 171.428235 
L 227.563636 171.777317 
L 231.66281 172.1264 
L 235.761983 172.475483 
L 239.861157 172.824565 
L 243.960331 173.173648 
L 248.059504 173.52273 
L 252.158678 173.871813 
L 256.257851 174.220896 
L 260.357025 174.569978 
L 264.456198 174.919061 
L 268.555372 175.268143 
L 272.654545 175.617226 
L 276.753719 175.966309 
L 280.852893 176.315391 
L 284.952066 176.664474 
L 289.05124 177.013556 
L 293.150413 177.362639 
L 297.249587 177.711722 
L 301.34876 178.060804 
L 305.447934 178.409887 
L 309.547107 178.758969 
L 313.646281 179.108052 
L 317.745455 179.457134 
L 321.844628 179.806217 
L 325.943802 180.155291 
L 330.042975 180.504363 
L 334.142149 180.853436 
L 338.241322 181.202508 
L 342.340496 181.55158 
L 346.439669 181.900652 
L 350.538843 182.249663 
L 354.638017 182.598641 
L 358.73719 182.947591 
L 362.836364 183.296525 
L 366.935537 183.645443 
L 371.034711 183.99436 
L 375.133884 184.343278 
L 379.233058 184.692195 
L 383.332231 185.041113 
L 387.431405 185.390031 
L 391.530579 185.738948 
L 395.629752 186.087866 
L 399.728926 186.436784 
L 403.828099 186.785701 
L 407.927273 187.134609 
L 412.026446 187.483493 
L 416.12562 187.832377 
L 420.224793 188.181262 
L 424.323967 188.530146 
L 428.42314 188.87903 
L 432.522314 189.227915 
L 436.621488 189.576799 
L 440.720661 189.925683 
L 444.819835 190.274568 
L 448.919008 190.623452 
L 453.018182 190.972336 
L 457.117355 191.321221 
L 461.216529 191.670105 
L 465.315702 192.018978 
L 469.414876 192.367751 
L 473.51405 192.716524 
L 477.613223 193.065297 
L 481.712397 193.41407 
L 485.81157 193.762843 
L 489.910744 194.111616 
L 494.009917 194.460389 
L 498.109091 194.809162 
L 498.109091 194.809162 
L 498.109091 194.809162 
L 494.009917 194.208898 
L 489.910744 193.608634 
L 485.81157 193.00837 
L 481.712397 192.408107 
L 477.613223 191.807843 
L 473.51405 191.207579 
L 469.414876 190.607315 
L 465.315702 190.007051 
L 461.216529 189.406688 
L 457.117355 188.806312 
L 453.018182 188.205937 
L 448.919008 187.605562 
L 444.819835 187.005187 
L 440.720661 186.404812 
L 436.621488 185.804437 
L 432.522314 185.204061 
L 428.42314 184.603686 
L 424.323967 184.003311 
L 420.224793 183.402936 
L 416.12562 182.802561 
L 412.026446 182.202186 
L 407.927273 181.60181 
L 403.828099 181.001412 
L 399.728926 180.401004 
L 395.629752 179.800595 
L 391.530579 179.200187 
L 387.431405 178.599778 
L 383.332231 177.99937 
L 379.233058 177.398962 
L 375.133884 176.798553 
L 371.034711 176.198145 
L 366.935537 175.597736 
L 362.836364 174.997328 
L 358.73719 174.396903 
L 354.638017 173.796462 
L 350.538843 173.195993 
L 346.439669 172.595492 
L 342.340496 171.994929 
L 338.241322 171.394366 
L 334.142149 170.793803 
L 330.042975 170.19324 
L 325.943802 169.592676 
L 321.844628 168.992112 
L 317.745455 168.391538 
L 313.646281 167.790965 
L 309.547107 167.190391 
L 305.447934 166.589818 
L 301.34876 165.989244 
L 297.249587 165.388671 
L 293.150413 164.788098 
L 289.05124 164.187524 
L 284.952066 163.586951 
L 280.852893 162.986377 
L 276.753719 162.385804 
L 272.654545 161.785231 
L 268.555372 161.184657 
L 264.456198 160.584084 
L 260.357025 159.98351 
L 256.257851 159.382937 
L 252.158678 158.782363 
L 248.059504 158.18179 
L 243.960331 157.581217 
L 239.861157 156.980643 
L 235.761983 156.38007 
L 231.66281 155.779496 
L 227.563636 155.178923 
L 223.464463 154.578349 
L 219.365289 153.977776 
L 215.266116 153.377203 
L 211.166942 152.776629 
L 207.067769 152.176056 
L 202.968595 151.575482 
L 198.869421 150.974909 
L 194.770248 150.374336 
L 190.671074 149.773762 
L 186.571901 149.173189 
L 182.472727 148.572615 
L 178.373554 147.972042 
L 174.27438 147.371468 
L 170.175207 146.770895 
L 166.076033 146.170322 
L 161.97686 145.569748 
L 157.877686 144.969175 
L 153.778512 144.368601 
L 149.679339 143.768028 
L 145.580165 143.167454 
L 141.480992 142.566881 
L 137.381818 141.966308 
L 133.282645 141.365734 
L 129.183471 140.765161 
L 125.084298 140.164587 
L 120.985124 139.564014 
L 116.88595 138.963441 
L 112.786777 138.362867 
L 108.687603 137.762294 
L 104.58843 137.16172 
L 100.489256 136.561147 
L 96.390083 135.960573 
L 92.290909 135.36 
z
" style="fill:#74c476;"/>
   </g>
   <g id="PolyCollection_11">
    <path clip-path="url(#pb7b88dcdbe)" d="M 92.290909 135.36 
L 92.290909 135.36 
L 96.390083 135.960573 
L 100.489256 136.561147 
L 104.58843 137.16172 
L 108.687603 137.762294 
L 112.786777 138.362867 
L 116.88595 138.963441 
L 120.985124 139.564014 
L 125.084298 140.164587 
L 129.183471 140.765161 
L 133.282645 141.365734 
L 137.381818 141.966308 
L 141.480992 142.566881 
L 145.580165 143.167454 
L 149.679339 143.768028 
L 153.778512 144.368601 
L 157.877686 144.969175 
L 161.97686 145.569748 
L 166.076033 146.170322 
L 170.175207 146.770895 
L 174.27438 147.371468 
L 178.373554 147.972042 
L 182.472727 148.572615 
L 186.571901 149.173189 
L 190.671074 149.773762 
L 194.770248 150.374336 
L 198.869421 150.974909 
L 202.968595 151.575482 
L 207.067769 152.176056 
L 211.166942 152.776629 
L 215.266116 153.377203 
L 219.365289 153.977776 
L 223.464463 154.578349 
L 227.563636 155.178923 
L 231.66281 155.779496 
L 235.761983 156.38007 
L 239.861157 156.980643 
L 243.960331 157.581217 
L 248.059504 158.18179 
L 252.158678 158.782363 
L 256.257851 159.382937 
L 260.357025 159.98351 
L 264.456198 160.584084 
L 268.555372 161.184657 
L 272.654545 161.785231 
L 276.753719 162.385804 
L 280.852893 162.986377 
L 284.952066 163.586951 
L 289.05124 164.187524 
L 293.150413 164.788098 
L 297.249587 165.388671 
L 301.34876 165.989244 
L 305.447934 166.589818 
L 309.547107 167.190391 
L 313.646281 167.790965 
L 317.745455 168.391538 
L 321.844628 168.992112 
L 325.943802 169.592676 
L 330.042975 170.19324 
L 334.142149 170.793803 
L 338.241322 171.394366 
L 342.340496 171.994929 
L 346.439669 172.595492 
L 350.538843 173.195993 
L 354.638017 173.796462 
L 358.73719 174.396903 
L 362.836364 174.997328 
L 366.935537 175.597736 
L 371.034711 176.198145 
L 375.133884 176.798553 
L 379.233058 177.398962 
L 383.332231 177.99937 
L 387.431405 178.599778 
L 391.530579 179.200187 
L 395.629752 179.800595 
L 399.728926 180.401004 
L 403.828099 181.001412 
L 407.927273 181.60181 
L 412.026446 182.202186 
L 416.12562 182.802561 
L 420.224793 183.402936 
L 424.323967 184.003311 
L 428.42314 184.603686 
L 432.522314 185.204061 
L 436.621488 185.804437 
L 440.720661 186.404812 
L 444.819835 187.005187 
L 448.919008 187.605562 
L 453.018182 188.205937 
L 457.117355 188.806312 
L 461.216529 189.406688 
L 465.315702 190.007051 
L 469.414876 190.607315 
L 473.51405 191.207579 
L 477.613223 191.807843 
L 481.712397 192.408107 
L 485.81157 193.00837 
L 489.910744 193.608634 
L 494.009917 194.208898 
L 498.109091 194.809162 
L 498.109091 165.184585 
L 498.109091 165.184585 
L 494.009917 164.883327 
L 489.910744 164.582068 
L 485.81157 164.28081 
L 481.712397 163.979551 
L 477.613223 163.678293 
L 473.51405 163.377035 
L 469.414876 163.075776 
L 465.315702 162.774518 
L 461.216529 162.473259 
L 457.117355 162.172001 
L 453.018182 161.870742 
L 448.919008 161.569484 
L 444.819835 161.268226 
L 440.720661 160.966967 
L 436.621488 160.665709 
L 432.522314 160.36445 
L 428.42314 160.063192 
L 424.323967 159.761933 
L 420.224793 159.460675 
L 416.12562 159.159416 
L 412.026446 158.858158 
L 407.927273 158.5569 
L 403.828099 158.255641 
L 399.728926 157.954383 
L 395.629752 157.653124 
L 391.530579 157.351866 
L 387.431405 157.050607 
L 383.332231 156.749349 
L 379.233058 156.448091 
L 375.133884 156.146832 
L 371.034711 155.845574 
L 366.935537 155.544315 
L 362.836364 155.243057 
L 358.73719 154.941798 
L 354.638017 154.64054 
L 350.538843 154.339281 
L 346.439669 154.038023 
L 342.340496 153.736765 
L 338.241322 153.435506 
L 334.142149 153.134248 
L 330.042975 152.832989 
L 325.943802 152.531731 
L 321.844628 152.230472 
L 317.745455 151.929214 
L 313.646281 151.627956 
L 309.547107 151.326697 
L 305.447934 151.025439 
L 301.34876 150.72418 
L 297.249587 150.422922 
L 293.150413 150.121663 
L 289.05124 149.820405 
L 284.952066 149.519146 
L 280.852893 149.217888 
L 276.753719 148.91663 
L 272.654545 148.615371 
L 268.555372 148.314113 
L 264.456198 148.012854 
L 260.357025 147.711596 
L 256.257851 147.410337 
L 252.158678 147.109079 
L 248.059504 146.807821 
L 243.960331 146.506562 
L 239.861157 146.205304 
L 235.761983 145.904045 
L 231.66281 145.602787 
L 227.563636 145.301528 
L 223.464463 145.00027 
L 219.365289 144.699012 
L 215.266116 144.397753 
L 211.166942 144.096495 
L 207.067769 143.795236 
L 202.968595 143.493978 
L 198.869421 143.192719 
L 194.770248 142.891461 
L 190.671074 142.590202 
L 186.571901 142.288944 
L 182.472727 141.987686 
L 178.373554 141.686427 
L 174.27438 141.385169 
L 170.175207 141.08391 
L 166.076033 140.782652 
L 161.97686 140.481393 
L 157.877686 140.180135 
L 153.778512 139.878877 
L 149.679339 139.577618 
L 145.580165 139.27636 
L 141.480992 138.975101 
L 137.381818 138.673843 
L 133.282645 138.372584 
L 129.183471 138.071326 
L 125.084298 137.770067 
L 120.985124 137.468809 
L 116.88595 137.167551 
L 112.786777 136.866292 
L 108.687603 136.565034 
L 104.58843 136.263775 
L 100.489256 135.962517 
L 96.390083 135.661258 
L 92.290909 135.36 
z
" style="fill:#a1d99b;"/>
   </g>
   <g id="PolyCollection_12">
    <path clip-path="url(#pb7b88dcdbe)" d="M 92.290909 135.36 
L 92.290909 135.36 
L 96.390083 135.661258 
L 100.489256 135.962517 
L 104.58843 136.263775 
L 108.687603 136.565034 
L 112.786777 136.866292 
L 116.88595 137.167551 
L 120.985124 137.468809 
L 125.084298 137.770067 
L 129.183471 138.071326 
L 133.282645 138.372584 
L 137.381818 138.673843 
L 141.480992 138.975101 
L 145.580165 139.27636 
L 149.679339 139.577618 
L 153.778512 139.878877 
L 157.877686 140.180135 
L 161.97686 140.481393 
L 166.076033 140.782652 
L 170.175207 141.08391 
L 174.27438 141.385169 
L 178.373554 141.686427 
L 182.472727 141.987686 
L 186.571901 142.288944 
L 190.671074 142.590202 
L 194.770248 142.891461 
L 198.869421 143.192719 
L 202.968595 143.493978 
L 207.067769 143.795236 
L 211.166942 144.096495 
L 215.266116 144.397753 
L 219.365289 144.699012 
L 223.464463 145.00027 
L 227.563636 145.301528 
L 231.66281 145.602787 
L 235.761983 145.904045 
L 239.861157 146.205304 
L 243.960331 146.506562 
L 248.059504 146.807821 
L 252.158678 147.109079 
L 256.257851 147.410337 
L 260.357025 147.711596 
L 264.456198 148.012854 
L 268.555372 148.314113 
L 272.654545 148.615371 
L 276.753719 148.91663 
L 280.852893 149.217888 
L 284.952066 149.519146 
L 289.05124 149.820405 
L 293.150413 150.121663 
L 297.249587 150.422922 
L 301.34876 150.72418 
L 305.447934 151.025439 
L 309.547107 151.326697 
L 313.646281 151.627956 
L 317.745455 151.929214 
L 321.844628 152.230472 
L 325.943802 152.531731 
L 330.042975 152.832989 
L 334.142149 153.134248 
L 338.241322 153.435506 
L 342.340496 153.736765 
L 346.439669 154.038023 
L 350.538843 154.339281 
L 354.638017 154.64054 
L 358.73719 154.941798 
L 362.836364 155.243057 
L 366.935537 155.544315 
L 371.034711 155.845574 
L 375.133884 156.146832 
L 379.233058 156.448091 
L 383.332231 156.749349 
L 387.431405 157.050607 
L 391.530579 157.351866 
L 395.629752 157.653124 
L 399.728926 157.954383 
L 403.828099 158.255641 
L 407.927273 158.5569 
L 412.026446 158.858158 
L 416.12562 159.159416 
L 420.224793 159.460675 
L 424.323967 159.761933 
L 428.42314 160.063192 
L 432.522314 160.36445 
L 436.621488 160.665709 
L 440.720661 160.966967 
L 444.819835 161.268226 
L 448.919008 161.569484 
L 453.018182 161.870742 
L 457.117355 162.172001 
L 461.216529 162.473259 
L 465.315702 162.774518 
L 469.414876 163.075776 
L 473.51405 163.377035 
L 477.613223 163.678293 
L 481.712397 163.979551 
L 485.81157 164.28081 
L 489.910744 164.582068 
L 494.009917 164.883327 
L 498.109091 165.184585 
L 498.109091 135.36 
L 498.109091 135.36 
L 494.009917 135.36 
L 489.910744 135.36 
L 485.81157 135.36 
L 481.712397 135.36 
L 477.613223 135.36 
L 473.51405 135.36 
L 469.414876 135.36 
L 465.315702 135.36 
L 461.216529 135.36 
L 457.117355 135.36 
L 453.018182 135.36 
L 448.919008 135.36 
L 444.819835 135.36 
L 440.720661 135.36 
L 436.621488 135.36 
L 432.522314 135.36 
L 428.42314 135.36 
L 424.323967 135.36 
L 420.224793 135.36 
L 416.12562 135.36 
L 412.026446 135.36 
L 407.927273 135.36 
L 403.828099 135.36 
L 399.728926 135.36 
L 395.629752 135.36 
L 391.530579 135.36 
L 387.431405 135.36 
L 383.332231 135.36 
L 379.233058 135.36 
L 375.133884 135.36 
L 371.034711 135.36 
L 366.935537 135.36 
L 362.836364 135.36 
L 358.73719 135.36 
L 354.638017 135.36 
L 350.538843 135.36 
L 346.439669 135.36 
L 342.340496 135.36 
L 338.241322 135.36 
L 334.142149 135.36 
L 330.042975 135.36 
L 325.943802 135.36 
L 321.844628 135.36 
L 317.745455 135.36 
L 313.646281 135.36 
L 309.547107 135.36 
L 305.447934 135.36 
L 301.34876 135.36 
L 297.249587 135.36 
L 293.150413 135.36 
L 289.05124 135.36 
L 284.952066 135.36 
L 280.852893 135.36 
L 276.753719 135.36 
L 272.654545 135.36 
L 268.555372 135.36 
L 264.456198 135.36 
L 260.357025 135.36 
L 256.257851 135.36 
L 252.158678 135.36 
L 248.059504 135.36 
L 243.960331 135.36 
L 239.861157 135.36 
L 235.761983 135.36 
L 231.66281 135.36 
L 227.563636 135.36 
L 223.464463 135.36 
L 219.365289 135.36 
L 215.266116 135.36 
L 211.166942 135.36 
L 207.067769 135.36 
L 202.968595 135.36 
L 198.869421 135.36 
L 194.770248 135.36 
L 190.671074 135.36 
L 186.571901 135.36 
L 182.472727 135.36 
L 178.373554 135.36 
L 174.27438 135.36 
L 170.175207 135.36 
L 166.076033 135.36 
L 161.97686 135.36 
L 157.877686 135.36 
L 153.778512 135.36 
L 149.679339 135.36 
L 145.580165 135.36 
L 141.480992 135.36 
L 137.381818 135.36 
L 133.282645 135.36 
L 129.183471 135.36 
L 125.084298 135.36 
L 120.985124 135.36 
L 116.88595 135.36 
L 112.786777 135.36 
L 108.687603 135.36 
L 104.58843 135.36 
L 100.489256 135.36 
L 96.390083 135.36 
L 92.290909 135.36 
z
" style="fill:#c7e9c0;"/>
   </g>
   <g id="matplotlib.axis_1">
    <g id="xtick_1">
     <g id="line2d_1">
      <defs>
       <path d="M 0 0 
L 0 3.5 
" id="mb2155cfbad" style="stroke:#000000;stroke-width:0.8;"/>
      </defs>
      <g>
       <use style="stroke:#000000;stroke-width:0.8;" x="92.290909" xlink:href="#mb2155cfbad" y="768.96"/>
      </g>
     </g>
     <g id="text_1">
      <!-- 0 -->
      <g transform="translate(89.109659 783.558437)scale(0.1 -0.1)">
       <defs>
        <path d="M 2034 4250 
Q 1547 4250 1301 3770 
Q 1056 3291 1056 2328 
Q 1056 1369 1301 889 
Q 1547 409 2034 409 
Q 2525 409 2770 889 
Q 3016 1369 3016 2328 
Q 3016 3291 2770 3770 
Q 2525 4250 2034 4250 
z
M 2034 4750 
Q 2819 4750 3233 4129 
Q 3647 3509 3647 2328 
Q 3647 1150 3233 529 
Q 2819 -91 2034 -91 
Q 1250 -91 836 529 
Q 422 1150 422 2328 
Q 422 3509 836 4129 
Q 1250 4750 2034 4750 
z
" id="DejaVuSans-30" transform="scale(0.015625)"/>
       </defs>
       <use xlink:href="#DejaVuSans-30"/>
      </g>
     </g>
    </g>
    <g id="xtick_2">
     <g id="line2d_2">
      <g>
       <use style="stroke:#000000;stroke-width:0.8;" x="173.454545" xlink:href="#mb2155cfbad" y="768.96"/>
      </g>
     </g>
     <g id="text_2">
      <!-- 20 -->
      <g transform="translate(167.092045 783.558437)scale(0.1 -0.1)">
       <defs>
        <path d="M 1228 531 
L 3431 531 
L 3431 0 
L 469 0 
L 469 531 
Q 828 903 1448 1529 
Q 2069 2156 2228 2338 
Q 2531 2678 2651 2914 
Q 2772 3150 2772 3378 
Q 2772 3750 2511 3984 
Q 2250 4219 1831 4219 
Q 1534 4219 1204 4116 
Q 875 4013 500 3803 
L 500 4441 
Q 881 4594 1212 4672 
Q 1544 4750 1819 4750 
Q 2544 4750 2975 4387 
Q 3406 4025 3406 3419 
Q 3406 3131 3298 2873 
Q 3191 2616 2906 2266 
Q 2828 2175 2409 1742 
Q 1991 1309 1228 531 
z
" id="DejaVuSans-32" transform="scale(0.015625)"/>
       </defs>
       <use xlink:href="#DejaVuSans-32"/>
       <use x="63.623047" xlink:href="#DejaVuSans-30"/>
      </g>
     </g>
    </g>
    <g id="xtick_3">
     <g id="line2d_3">
      <g>
       <use style="stroke:#000000;stroke-width:0.8;" x="254.618182" xlink:href="#mb2155cfbad" y="768.96"/>
      </g>
     </g>
     <g id="text_3">
      <!-- 40 -->
      <g transform="translate(248.255682 783.558437)scale(0.1 -0.1)">
       <defs>
        <path d="M 2419 4116 
L 825 1625 
L 2419 1625 
L 2419 4116 
z
M 2253 4666 
L 3047 4666 
L 3047 1625 
L 3713 1625 
L 3713 1100 
L 3047 1100 
L 3047 0 
L 2419 0 
L 2419 1100 
L 313 1100 
L 313 1709 
L 2253 4666 
z
" id="DejaVuSans-34" transform="scale(0.015625)"/>
       </defs>
       <use xlink:href="#DejaVuSans-34"/>
       <use x="63.623047" xlink:href="#DejaVuSans-30"/>
      </g>
     </g>
    </g>
    <g id="xtick_4">
     <g id="line2d_4">
      <g>
       <use style="stroke:#000000;stroke-width:0.8;" x="335.781818" xlink:href="#mb2155cfbad" y="768.96"/>
      </g>
     </g>
     <g id="text_4">
      <!-- 60 -->
      <g transform="translate(329.419318 783.558437)scale(0.1 -0.1)">
       <defs>
        <path d="M 2113 2584 
Q 1688 2584 1439 2293 
Q 1191 2003 1191 1497 
Q 1191 994 1439 701 
Q 1688 409 2113 409 
Q 2538 409 2786 701 
Q 3034 994 3034 1497 
Q 3034 2003 2786 2293 
Q 2538 2584 2113 2584 
z
M 3366 4563 
L 3366 3988 
Q 3128 4100 2886 4159 
Q 2644 4219 2406 4219 
Q 1781 4219 1451 3797 
Q 1122 3375 1075 2522 
Q 1259 2794 1537 2939 
Q 1816 3084 2150 3084 
Q 2853 3084 3261 2657 
Q 3669 2231 3669 1497 
Q 3669 778 3244 343 
Q 2819 -91 2113 -91 
Q 1303 -91 875 529 
Q 447 1150 447 2328 
Q 447 3434 972 4092 
Q 1497 4750 2381 4750 
Q 2619 4750 2861 4703 
Q 3103 4656 3366 4563 
z
" id="DejaVuSans-36" transform="scale(0.015625)"/>
       </defs>
       <use xlink:href="#DejaVuSans-36"/>
       <use x="63.623047" xlink:href="#DejaVuSans-30"/>
      </g>
     </g>
    </g>
    <g id="xtick_5">
     <g id="line2d_5">
      <g>
       <use style="stroke:#000000;stroke-width:0.8;" x="416.945455" xlink:href="#mb2155cfbad" y="768.96"/>
      </g>
     </g>
     <g id="text_5">
      <!-- 80 -->
      <g transform="translate(410.582955 783.558437)scale(0.1 -0.1)">
       <defs>
        <path d="M 2034 2216 
Q 1584 2216 1326 1975 
Q 1069 1734 1069 1313 
Q 1069 891 1326 650 
Q 1584 409 2034 409 
Q 2484 409 2743 651 
Q 3003 894 3003 1313 
Q 3003 1734 2745 1975 
Q 2488 2216 2034 2216 
z
M 1403 2484 
Q 997 2584 770 2862 
Q 544 3141 544 3541 
Q 544 4100 942 4425 
Q 1341 4750 2034 4750 
Q 2731 4750 3128 4425 
Q 3525 4100 3525 3541 
Q 3525 3141 3298 2862 
Q 3072 2584 2669 2484 
Q 3125 2378 3379 2068 
Q 3634 1759 3634 1313 
Q 3634 634 3220 271 
Q 2806 -91 2034 -91 
Q 1263 -91 848 271 
Q 434 634 434 1313 
Q 434 1759 690 2068 
Q 947 2378 1403 2484 
z
M 1172 3481 
Q 1172 3119 1398 2916 
Q 1625 2713 2034 2713 
Q 2441 2713 2670 2916 
Q 2900 3119 2900 3481 
Q 2900 3844 2670 4047 
Q 2441 4250 2034 4250 
Q 1625 4250 1398 4047 
Q 1172 3844 1172 3481 
z
" id="DejaVuSans-38" transform="scale(0.015625)"/>
       </defs>
       <use xlink:href="#DejaVuSans-38"/>
       <use x="63.623047" xlink:href="#DejaVuSans-30"/>
      </g>
     </g>
    </g>
    <g id="xtick_6">
     <g id="line2d_6">
      <g>
       <use style="stroke:#000000;stroke-width:0.8;" x="498.109091" xlink:href="#mb2155cfbad" y="768.96"/>
      </g>
     </g>
     <g id="text_6">
      <!-- 100 -->
      <g transform="translate(488.565341 783.558437)scale(0.1 -0.1)">
       <defs>
        <path d="M 794 531 
L 1825 531 
L 1825 4091 
L 703 3866 
L 703 4441 
L 1819 4666 
L 2450 4666 
L 2450 531 
L 3481 531 
L 3481 0 
L 794 0 
L 794 531 
z
" id="DejaVuSans-31" transform="scale(0.015625)"/>
       </defs>
       <use xlink:href="#DejaVuSans-31"/>
       <use x="63.623047" xlink:href="#DejaVuSans-30"/>
       <use x="127.246094" xlink:href="#DejaVuSans-30"/>
      </g>
     </g>
    </g>
    <g id="text_7">
     <!-- Proportion of New Technology in Grid (%) -->
     <g transform="translate(192.432031 797.236562)scale(0.1 -0.1)">
      <defs>
       <path d="M 1259 4147 
L 1259 2394 
L 2053 2394 
Q 2494 2394 2734 2622 
Q 2975 2850 2975 3272 
Q 2975 3691 2734 3919 
Q 2494 4147 2053 4147 
L 1259 4147 
z
M 628 4666 
L 2053 4666 
Q 2838 4666 3239 4311 
Q 3641 3956 3641 3272 
Q 3641 2581 3239 2228 
Q 2838 1875 2053 1875 
L 1259 1875 
L 1259 0 
L 628 0 
L 628 4666 
z
" id="DejaVuSans-50" transform="scale(0.015625)"/>
       <path d="M 2631 2963 
Q 2534 3019 2420 3045 
Q 2306 3072 2169 3072 
Q 1681 3072 1420 2755 
Q 1159 2438 1159 1844 
L 1159 0 
L 581 0 
L 581 3500 
L 1159 3500 
L 1159 2956 
Q 1341 3275 1631 3429 
Q 1922 3584 2338 3584 
Q 2397 3584 2469 3576 
Q 2541 3569 2628 3553 
L 2631 2963 
z
" id="DejaVuSans-72" transform="scale(0.015625)"/>
       <path d="M 1959 3097 
Q 1497 3097 1228 2736 
Q 959 2375 959 1747 
Q 959 1119 1226 758 
Q 1494 397 1959 397 
Q 2419 397 2687 759 
Q 2956 1122 2956 1747 
Q 2956 2369 2687 2733 
Q 2419 3097 1959 3097 
z
M 1959 3584 
Q 2709 3584 3137 3096 
Q 3566 2609 3566 1747 
Q 3566 888 3137 398 
Q 2709 -91 1959 -91 
Q 1206 -91 779 398 
Q 353 888 353 1747 
Q 353 2609 779 3096 
Q 1206 3584 1959 3584 
z
" id="DejaVuSans-6f" transform="scale(0.015625)"/>
       <path d="M 1159 525 
L 1159 -1331 
L 581 -1331 
L 581 3500 
L 1159 3500 
L 1159 2969 
Q 1341 3281 1617 3432 
Q 1894 3584 2278 3584 
Q 2916 3584 3314 3078 
Q 3713 2572 3713 1747 
Q 3713 922 3314 415 
Q 2916 -91 2278 -91 
Q 1894 -91 1617 61 
Q 1341 213 1159 525 
z
M 3116 1747 
Q 3116 2381 2855 2742 
Q 2594 3103 2138 3103 
Q 1681 3103 1420 2742 
Q 1159 2381 1159 1747 
Q 1159 1113 1420 752 
Q 1681 391 2138 391 
Q 2594 391 2855 752 
Q 3116 1113 3116 1747 
z
" id="DejaVuSans-70" transform="scale(0.015625)"/>
       <path d="M 1172 4494 
L 1172 3500 
L 2356 3500 
L 2356 3053 
L 1172 3053 
L 1172 1153 
Q 1172 725 1289 603 
Q 1406 481 1766 481 
L 2356 481 
L 2356 0 
L 1766 0 
Q 1100 0 847 248 
Q 594 497 594 1153 
L 594 3053 
L 172 3053 
L 172 3500 
L 594 3500 
L 594 4494 
L 1172 4494 
z
" id="DejaVuSans-74" transform="scale(0.015625)"/>
       <path d="M 603 3500 
L 1178 3500 
L 1178 0 
L 603 0 
L 603 3500 
z
M 603 4863 
L 1178 4863 
L 1178 4134 
L 603 4134 
L 603 4863 
z
" id="DejaVuSans-69" transform="scale(0.015625)"/>
       <path d="M 3513 2113 
L 3513 0 
L 2938 0 
L 2938 2094 
Q 2938 2591 2744 2837 
Q 2550 3084 2163 3084 
Q 1697 3084 1428 2787 
Q 1159 2491 1159 1978 
L 1159 0 
L 581 0 
L 581 3500 
L 1159 3500 
L 1159 2956 
Q 1366 3272 1645 3428 
Q 1925 3584 2291 3584 
Q 2894 3584 3203 3211 
Q 3513 2838 3513 2113 
z
" id="DejaVuSans-6e" transform="scale(0.015625)"/>
       <path id="DejaVuSans-20" transform="scale(0.015625)"/>
       <path d="M 2375 4863 
L 2375 4384 
L 1825 4384 
Q 1516 4384 1395 4259 
Q 1275 4134 1275 3809 
L 1275 3500 
L 2222 3500 
L 2222 3053 
L 1275 3053 
L 1275 0 
L 697 0 
L 697 3053 
L 147 3053 
L 147 3500 
L 697 3500 
L 697 3744 
Q 697 4328 969 4595 
Q 1241 4863 1831 4863 
L 2375 4863 
z
" id="DejaVuSans-66" transform="scale(0.015625)"/>
       <path d="M 628 4666 
L 1478 4666 
L 3547 763 
L 3547 4666 
L 4159 4666 
L 4159 0 
L 3309 0 
L 1241 3903 
L 1241 0 
L 628 0 
L 628 4666 
z
" id="DejaVuSans-4e" transform="scale(0.015625)"/>
       <path d="M 3597 1894 
L 3597 1613 
L 953 1613 
Q 991 1019 1311 708 
Q 1631 397 2203 397 
Q 2534 397 2845 478 
Q 3156 559 3463 722 
L 3463 178 
Q 3153 47 2828 -22 
Q 2503 -91 2169 -91 
Q 1331 -91 842 396 
Q 353 884 353 1716 
Q 353 2575 817 3079 
Q 1281 3584 2069 3584 
Q 2775 3584 3186 3129 
Q 3597 2675 3597 1894 
z
M 3022 2063 
Q 3016 2534 2758 2815 
Q 2500 3097 2075 3097 
Q 1594 3097 1305 2825 
Q 1016 2553 972 2059 
L 3022 2063 
z
" id="DejaVuSans-65" transform="scale(0.015625)"/>
       <path d="M 269 3500 
L 844 3500 
L 1563 769 
L 2278 3500 
L 2956 3500 
L 3675 769 
L 4391 3500 
L 4966 3500 
L 4050 0 
L 3372 0 
L 2619 2869 
L 1863 0 
L 1184 0 
L 269 3500 
z
" id="DejaVuSans-77" transform="scale(0.015625)"/>
       <path d="M -19 4666 
L 3928 4666 
L 3928 4134 
L 2272 4134 
L 2272 0 
L 1638 0 
L 1638 4134 
L -19 4134 
L -19 4666 
z
" id="DejaVuSans-54" transform="scale(0.015625)"/>
       <path d="M 3122 3366 
L 3122 2828 
Q 2878 2963 2633 3030 
Q 2388 3097 2138 3097 
Q 1578 3097 1268 2742 
Q 959 2388 959 1747 
Q 959 1106 1268 751 
Q 1578 397 2138 397 
Q 2388 397 2633 464 
Q 2878 531 3122 666 
L 3122 134 
Q 2881 22 2623 -34 
Q 2366 -91 2075 -91 
Q 1284 -91 818 406 
Q 353 903 353 1747 
Q 353 2603 823 3093 
Q 1294 3584 2113 3584 
Q 2378 3584 2631 3529 
Q 2884 3475 3122 3366 
z
" id="DejaVuSans-63" transform="scale(0.015625)"/>
       <path d="M 3513 2113 
L 3513 0 
L 2938 0 
L 2938 2094 
Q 2938 2591 2744 2837 
Q 2550 3084 2163 3084 
Q 1697 3084 1428 2787 
Q 1159 2491 1159 1978 
L 1159 0 
L 581 0 
L 581 4863 
L 1159 4863 
L 1159 2956 
Q 1366 3272 1645 3428 
Q 1925 3584 2291 3584 
Q 2894 3584 3203 3211 
Q 3513 2838 3513 2113 
z
" id="DejaVuSans-68" transform="scale(0.015625)"/>
       <path d="M 603 4863 
L 1178 4863 
L 1178 0 
L 603 0 
L 603 4863 
z
" id="DejaVuSans-6c" transform="scale(0.015625)"/>
       <path d="M 2906 1791 
Q 2906 2416 2648 2759 
Q 2391 3103 1925 3103 
Q 1463 3103 1205 2759 
Q 947 2416 947 1791 
Q 947 1169 1205 825 
Q 1463 481 1925 481 
Q 2391 481 2648 825 
Q 2906 1169 2906 1791 
z
M 3481 434 
Q 3481 -459 3084 -895 
Q 2688 -1331 1869 -1331 
Q 1566 -1331 1297 -1286 
Q 1028 -1241 775 -1147 
L 775 -588 
Q 1028 -725 1275 -790 
Q 1522 -856 1778 -856 
Q 2344 -856 2625 -561 
Q 2906 -266 2906 331 
L 2906 616 
Q 2728 306 2450 153 
Q 2172 0 1784 0 
Q 1141 0 747 490 
Q 353 981 353 1791 
Q 353 2603 747 3093 
Q 1141 3584 1784 3584 
Q 2172 3584 2450 3431 
Q 2728 3278 2906 2969 
L 2906 3500 
L 3481 3500 
L 3481 434 
z
" id="DejaVuSans-67" transform="scale(0.015625)"/>
       <path d="M 2059 -325 
Q 1816 -950 1584 -1140 
Q 1353 -1331 966 -1331 
L 506 -1331 
L 506 -850 
L 844 -850 
Q 1081 -850 1212 -737 
Q 1344 -625 1503 -206 
L 1606 56 
L 191 3500 
L 800 3500 
L 1894 763 
L 2988 3500 
L 3597 3500 
L 2059 -325 
z
" id="DejaVuSans-79" transform="scale(0.015625)"/>
       <path d="M 3809 666 
L 3809 1919 
L 2778 1919 
L 2778 2438 
L 4434 2438 
L 4434 434 
Q 4069 175 3628 42 
Q 3188 -91 2688 -91 
Q 1594 -91 976 548 
Q 359 1188 359 2328 
Q 359 3472 976 4111 
Q 1594 4750 2688 4750 
Q 3144 4750 3555 4637 
Q 3966 4525 4313 4306 
L 4313 3634 
Q 3963 3931 3569 4081 
Q 3175 4231 2741 4231 
Q 1884 4231 1454 3753 
Q 1025 3275 1025 2328 
Q 1025 1384 1454 906 
Q 1884 428 2741 428 
Q 3075 428 3337 486 
Q 3600 544 3809 666 
z
" id="DejaVuSans-47" transform="scale(0.015625)"/>
       <path d="M 2906 2969 
L 2906 4863 
L 3481 4863 
L 3481 0 
L 2906 0 
L 2906 525 
Q 2725 213 2448 61 
Q 2172 -91 1784 -91 
Q 1150 -91 751 415 
Q 353 922 353 1747 
Q 353 2572 751 3078 
Q 1150 3584 1784 3584 
Q 2172 3584 2448 3432 
Q 2725 3281 2906 2969 
z
M 947 1747 
Q 947 1113 1208 752 
Q 1469 391 1925 391 
Q 2381 391 2643 752 
Q 2906 1113 2906 1747 
Q 2906 2381 2643 2742 
Q 2381 3103 1925 3103 
Q 1469 3103 1208 2742 
Q 947 2381 947 1747 
z
" id="DejaVuSans-64" transform="scale(0.015625)"/>
       <path d="M 1984 4856 
Q 1566 4138 1362 3434 
Q 1159 2731 1159 2009 
Q 1159 1288 1364 580 
Q 1569 -128 1984 -844 
L 1484 -844 
Q 1016 -109 783 600 
Q 550 1309 550 2009 
Q 550 2706 781 3412 
Q 1013 4119 1484 4856 
L 1984 4856 
z
" id="DejaVuSans-28" transform="scale(0.015625)"/>
       <path d="M 4653 2053 
Q 4381 2053 4226 1822 
Q 4072 1591 4072 1178 
Q 4072 772 4226 539 
Q 4381 306 4653 306 
Q 4919 306 5073 539 
Q 5228 772 5228 1178 
Q 5228 1588 5073 1820 
Q 4919 2053 4653 2053 
z
M 4653 2450 
Q 5147 2450 5437 2106 
Q 5728 1763 5728 1178 
Q 5728 594 5436 251 
Q 5144 -91 4653 -91 
Q 4153 -91 3862 251 
Q 3572 594 3572 1178 
Q 3572 1766 3864 2108 
Q 4156 2450 4653 2450 
z
M 1428 4353 
Q 1159 4353 1004 4120 
Q 850 3888 850 3481 
Q 850 3069 1003 2837 
Q 1156 2606 1428 2606 
Q 1700 2606 1854 2837 
Q 2009 3069 2009 3481 
Q 2009 3884 1853 4118 
Q 1697 4353 1428 4353 
z
M 4250 4750 
L 4750 4750 
L 1831 -91 
L 1331 -91 
L 4250 4750 
z
M 1428 4750 
Q 1922 4750 2215 4408 
Q 2509 4066 2509 3481 
Q 2509 2891 2217 2550 
Q 1925 2209 1428 2209 
Q 931 2209 642 2551 
Q 353 2894 353 3481 
Q 353 4063 643 4406 
Q 934 4750 1428 4750 
z
" id="DejaVuSans-25" transform="scale(0.015625)"/>
       <path d="M 513 4856 
L 1013 4856 
Q 1481 4119 1714 3412 
Q 1947 2706 1947 2009 
Q 1947 1309 1714 600 
Q 1481 -109 1013 -844 
L 513 -844 
Q 928 -128 1133 580 
Q 1338 1288 1338 2009 
Q 1338 2731 1133 3434 
Q 928 4138 513 4856 
z
" id="DejaVuSans-29" transform="scale(0.015625)"/>
      </defs>
      <use xlink:href="#DejaVuSans-50"/>
      <use x="58.552734" xlink:href="#DejaVuSans-72"/>
      <use x="97.416016" xlink:href="#DejaVuSans-6f"/>
      <use x="158.597656" xlink:href="#DejaVuSans-70"/>
      <use x="222.074219" xlink:href="#DejaVuSans-6f"/>
      <use x="283.255859" xlink:href="#DejaVuSans-72"/>
      <use x="324.369141" xlink:href="#DejaVuSans-74"/>
      <use x="363.578125" xlink:href="#DejaVuSans-69"/>
      <use x="391.361328" xlink:href="#DejaVuSans-6f"/>
      <use x="452.542969" xlink:href="#DejaVuSans-6e"/>
      <use x="515.921875" xlink:href="#DejaVuSans-20"/>
      <use x="547.708984" xlink:href="#DejaVuSans-6f"/>
      <use x="608.890625" xlink:href="#DejaVuSans-66"/>
      <use x="644.095703" xlink:href="#DejaVuSans-20"/>
      <use x="675.882812" xlink:href="#DejaVuSans-4e"/>
      <use x="750.6875" xlink:href="#DejaVuSans-65"/>
      <use x="812.210938" xlink:href="#DejaVuSans-77"/>
      <use x="893.998047" xlink:href="#DejaVuSans-20"/>
      <use x="925.785156" xlink:href="#DejaVuSans-54"/>
      <use x="969.869141" xlink:href="#DejaVuSans-65"/>
      <use x="1031.392578" xlink:href="#DejaVuSans-63"/>
      <use x="1086.373047" xlink:href="#DejaVuSans-68"/>
      <use x="1149.751953" xlink:href="#DejaVuSans-6e"/>
      <use x="1213.130859" xlink:href="#DejaVuSans-6f"/>
      <use x="1274.3125" xlink:href="#DejaVuSans-6c"/>
      <use x="1302.095703" xlink:href="#DejaVuSans-6f"/>
      <use x="1363.277344" xlink:href="#DejaVuSans-67"/>
      <use x="1426.753906" xlink:href="#DejaVuSans-79"/>
      <use x="1485.933594" xlink:href="#DejaVuSans-20"/>
      <use x="1517.720703" xlink:href="#DejaVuSans-69"/>
      <use x="1545.503906" xlink:href="#DejaVuSans-6e"/>
      <use x="1608.882812" xlink:href="#DejaVuSans-20"/>
      <use x="1640.669922" xlink:href="#DejaVuSans-47"/>
      <use x="1718.160156" xlink:href="#DejaVuSans-72"/>
      <use x="1759.273438" xlink:href="#DejaVuSans-69"/>
      <use x="1787.056641" xlink:href="#DejaVuSans-64"/>
      <use x="1850.533203" xlink:href="#DejaVuSans-20"/>
      <use x="1882.320312" xlink:href="#DejaVuSans-28"/>
      <use x="1921.333984" xlink:href="#DejaVuSans-25"/>
      <use x="2016.353516" xlink:href="#DejaVuSans-29"/>
     </g>
    </g>
   </g>
   <g id="matplotlib.axis_2">
    <g id="ytick_1">
     <g id="line2d_7">
      <defs>
       <path d="M 0 0 
L -3.5 0 
" id="m518f926793" style="stroke:#000000;stroke-width:0.8;"/>
      </defs>
      <g>
       <use style="stroke:#000000;stroke-width:0.8;" x="72" xlink:href="#m518f926793" y="768.96"/>
      </g>
     </g>
     <g id="text_8">
      <!-- 0 -->
      <g transform="translate(58.6375 772.759219)scale(0.1 -0.1)">
       <use xlink:href="#DejaVuSans-30"/>
      </g>
     </g>
    </g>
    <g id="ytick_2">
     <g id="line2d_8">
      <g>
       <use style="stroke:#000000;stroke-width:0.8;" x="72" xlink:href="#m518f926793" y="662.941741"/>
      </g>
     </g>
     <g id="text_9">
      <!-- 50 -->
      <g transform="translate(52.275 666.74096)scale(0.1 -0.1)">
       <defs>
        <path d="M 691 4666 
L 3169 4666 
L 3169 4134 
L 1269 4134 
L 1269 2991 
Q 1406 3038 1543 3061 
Q 1681 3084 1819 3084 
Q 2600 3084 3056 2656 
Q 3513 2228 3513 1497 
Q 3513 744 3044 326 
Q 2575 -91 1722 -91 
Q 1428 -91 1123 -41 
Q 819 9 494 109 
L 494 744 
Q 775 591 1075 516 
Q 1375 441 1709 441 
Q 2250 441 2565 725 
Q 2881 1009 2881 1497 
Q 2881 1984 2565 2268 
Q 2250 2553 1709 2553 
Q 1456 2553 1204 2497 
Q 953 2441 691 2322 
L 691 4666 
z
" id="DejaVuSans-35" transform="scale(0.015625)"/>
       </defs>
       <use xlink:href="#DejaVuSans-35"/>
       <use x="63.623047" xlink:href="#DejaVuSans-30"/>
      </g>
     </g>
    </g>
    <g id="ytick_3">
     <g id="line2d_9">
      <g>
       <use style="stroke:#000000;stroke-width:0.8;" x="72" xlink:href="#m518f926793" y="556.923482"/>
      </g>
     </g>
     <g id="text_10">
      <!-- 100 -->
      <g transform="translate(45.9125 560.722701)scale(0.1 -0.1)">
       <use xlink:href="#DejaVuSans-31"/>
       <use x="63.623047" xlink:href="#DejaVuSans-30"/>
       <use x="127.246094" xlink:href="#DejaVuSans-30"/>
      </g>
     </g>
    </g>
    <g id="ytick_4">
     <g id="line2d_10">
      <g>
       <use style="stroke:#000000;stroke-width:0.8;" x="72" xlink:href="#m518f926793" y="450.905223"/>
      </g>
     </g>
     <g id="text_11">
      <!-- 150 -->
      <g transform="translate(45.9125 454.704442)scale(0.1 -0.1)">
       <use xlink:href="#DejaVuSans-31"/>
       <use x="63.623047" xlink:href="#DejaVuSans-35"/>
       <use x="127.246094" xlink:href="#DejaVuSans-30"/>
      </g>
     </g>
    </g>
    <g id="ytick_5">
     <g id="line2d_11">
      <g>
       <use style="stroke:#000000;stroke-width:0.8;" x="72" xlink:href="#m518f926793" y="344.886964"/>
      </g>
     </g>
     <g id="text_12">
      <!-- 200 -->
      <g transform="translate(45.9125 348.686183)scale(0.1 -0.1)">
       <use xlink:href="#DejaVuSans-32"/>
       <use x="63.623047" xlink:href="#DejaVuSans-30"/>
       <use x="127.246094" xlink:href="#DejaVuSans-30"/>
      </g>
     </g>
    </g>
    <g id="ytick_6">
     <g id="line2d_12">
      <g>
       <use style="stroke:#000000;stroke-width:0.8;" x="72" xlink:href="#m518f926793" y="238.868705"/>
      </g>
     </g>
     <g id="text_13">
      <!-- 250 -->
      <g transform="translate(45.9125 242.667924)scale(0.1 -0.1)">
       <use xlink:href="#DejaVuSans-32"/>
       <use x="63.623047" xlink:href="#DejaVuSans-35"/>
       <use x="127.246094" xlink:href="#DejaVuSans-30"/>
      </g>
     </g>
    </g>
    <g id="ytick_7">
     <g id="line2d_13">
      <g>
       <use style="stroke:#000000;stroke-width:0.8;" x="72" xlink:href="#m518f926793" y="132.850446"/>
      </g>
     </g>
     <g id="text_14">
      <!-- 300 -->
      <g transform="translate(45.9125 136.649665)scale(0.1 -0.1)">
       <defs>
        <path d="M 2597 2516 
Q 3050 2419 3304 2112 
Q 3559 1806 3559 1356 
Q 3559 666 3084 287 
Q 2609 -91 1734 -91 
Q 1441 -91 1130 -33 
Q 819 25 488 141 
L 488 750 
Q 750 597 1062 519 
Q 1375 441 1716 441 
Q 2309 441 2620 675 
Q 2931 909 2931 1356 
Q 2931 1769 2642 2001 
Q 2353 2234 1838 2234 
L 1294 2234 
L 1294 2753 
L 1863 2753 
Q 2328 2753 2575 2939 
Q 2822 3125 2822 3475 
Q 2822 3834 2567 4026 
Q 2313 4219 1838 4219 
Q 1578 4219 1281 4162 
Q 984 4106 628 3988 
L 628 4550 
Q 988 4650 1302 4700 
Q 1616 4750 1894 4750 
Q 2613 4750 3031 4423 
Q 3450 4097 3450 3541 
Q 3450 3153 3228 2886 
Q 3006 2619 2597 2516 
z
" id="DejaVuSans-33" transform="scale(0.015625)"/>
       </defs>
       <use xlink:href="#DejaVuSans-33"/>
       <use x="63.623047" xlink:href="#DejaVuSans-30"/>
       <use x="127.246094" xlink:href="#DejaVuSans-30"/>
      </g>
     </g>
    </g>
    <g id="text_15">
     <!-- Energy Generated (TWh) -->
     <g transform="translate(39.832812 498.598906)rotate(-90)scale(0.1 -0.1)">
      <defs>
       <path d="M 628 4666 
L 3578 4666 
L 3578 4134 
L 1259 4134 
L 1259 2753 
L 3481 2753 
L 3481 2222 
L 1259 2222 
L 1259 531 
L 3634 531 
L 3634 0 
L 628 0 
L 628 4666 
z
" id="DejaVuSans-45" transform="scale(0.015625)"/>
       <path d="M 2194 1759 
Q 1497 1759 1228 1600 
Q 959 1441 959 1056 
Q 959 750 1161 570 
Q 1363 391 1709 391 
Q 2188 391 2477 730 
Q 2766 1069 2766 1631 
L 2766 1759 
L 2194 1759 
z
M 3341 1997 
L 3341 0 
L 2766 0 
L 2766 531 
Q 2569 213 2275 61 
Q 1981 -91 1556 -91 
Q 1019 -91 701 211 
Q 384 513 384 1019 
Q 384 1609 779 1909 
Q 1175 2209 1959 2209 
L 2766 2209 
L 2766 2266 
Q 2766 2663 2505 2880 
Q 2244 3097 1772 3097 
Q 1472 3097 1187 3025 
Q 903 2953 641 2809 
L 641 3341 
Q 956 3463 1253 3523 
Q 1550 3584 1831 3584 
Q 2591 3584 2966 3190 
Q 3341 2797 3341 1997 
z
" id="DejaVuSans-61" transform="scale(0.015625)"/>
       <path d="M 213 4666 
L 850 4666 
L 1831 722 
L 2809 4666 
L 3519 4666 
L 4500 722 
L 5478 4666 
L 6119 4666 
L 4947 0 
L 4153 0 
L 3169 4050 
L 2175 0 
L 1381 0 
L 213 4666 
z
" id="DejaVuSans-57" transform="scale(0.015625)"/>
      </defs>
      <use xlink:href="#DejaVuSans-45"/>
      <use x="63.183594" xlink:href="#DejaVuSans-6e"/>
      <use x="126.5625" xlink:href="#DejaVuSans-65"/>
      <use x="188.085938" xlink:href="#DejaVuSans-72"/>
      <use x="227.449219" xlink:href="#DejaVuSans-67"/>
      <use x="290.925781" xlink:href="#DejaVuSans-79"/>
      <use x="350.105469" xlink:href="#DejaVuSans-20"/>
      <use x="381.892578" xlink:href="#DejaVuSans-47"/>
      <use x="459.382812" xlink:href="#DejaVuSans-65"/>
      <use x="520.90625" xlink:href="#DejaVuSans-6e"/>
      <use x="584.285156" xlink:href="#DejaVuSans-65"/>
      <use x="645.808594" xlink:href="#DejaVuSans-72"/>
      <use x="686.921875" xlink:href="#DejaVuSans-61"/>
      <use x="748.201172" xlink:href="#DejaVuSans-74"/>
      <use x="787.410156" xlink:href="#DejaVuSans-65"/>
      <use x="848.933594" xlink:href="#DejaVuSans-64"/>
      <use x="912.410156" xlink:href="#DejaVuSans-20"/>
      <use x="944.197266" xlink:href="#DejaVuSans-28"/>
      <use x="983.210938" xlink:href="#DejaVuSans-54"/>
      <use x="1044.294922" xlink:href="#DejaVuSans-57"/>
      <use x="1143.171875" xlink:href="#DejaVuSans-68"/>
      <use x="1206.550781" xlink:href="#DejaVuSans-29"/>
     </g>
    </g>
   </g>
   <g id="patch_3">
    <path d="M 72 768.96 
L 72 103.68 
" style="fill:none;stroke:#000000;stroke-linecap:square;stroke-linejoin:miter;stroke-width:0.8;"/>
   </g>
   <g id="patch_4">
    <path d="M 518.4 768.96 
L 518.4 103.68 
" style="fill:none;stroke:#000000;stroke-linecap:square;stroke-linejoin:miter;stroke-width:0.8;"/>
   </g>
   <g id="patch_5">
    <path d="M 72 768.96 
L 518.4 768.96 
" style="fill:none;stroke:#000000;stroke-linecap:square;stroke-linejoin:miter;stroke-width:0.8;"/>
   </g>
   <g id="patch_6">
    <path d="M 72 103.68 
L 518.4 103.68 
" style="fill:none;stroke:#000000;stroke-linecap:square;stroke-linejoin:miter;stroke-width:0.8;"/>
   </g>
  </g>
 </g>
 <defs>
  <clipPath id="pb7b88dcdbe">
   <rect height="665.28" width="446.4" x="72" y="103.68"/>
  </clipPath>
 </defs>
</svg>
