<?xml version="1.0" encoding="utf-8" standalone="no"?>
<!DOCTYPE svg PUBLIC "-//W3C//DTD SVG 1.1//EN"
  "http://www.w3.org/Graphics/SVG/1.1/DTD/svg11.dtd">
<svg height="864pt" version="1.1" viewBox="0 0 576 864" width="576pt" xmlns="http://www.w3.org/2000/svg" xmlns:xlink="http://www.w3.org/1999/xlink">
 <metadata>
  <rdf:RDF xmlns:cc="http://creativecommons.org/ns#" xmlns:dc="http://purl.org/dc/elements/1.1/" xmlns:rdf="http://www.w3.org/1999/02/22-rdf-syntax-ns#">
   <cc:Work>
    <dc:type rdf:resource="http://purl.org/dc/dcmitype/StillImage"/>
    <dc:date>2021-06-15T16:22:18.219365</dc:date>
    <dc:format>image/svg+xml</dc:format>
    <dc:creator>
     <cc:Agent>
      <dc:title>Matplotlib v3.4.1, https://matplotlib.org/</dc:title>
     </cc:Agent>
    </dc:creator>
   </cc:Work>
  </rdf:RDF>
 </metadata>
 <defs>
  <style type="text/css">*{stroke-linecap:butt;stroke-linejoin:round;}</style>
 </defs>
 <g id="figure_1">
  <g id="patch_1">
   <path d="M 0 864 
L 576 864 
L 576 0 
L 0 0 
z
" style="fill:#ffffff;"/>
  </g>
  <g id="axes_1">
   <g id="patch_2">
    <path d="M 72 768.96 
L 518.4 768.96 
L 518.4 103.68 
L 72 103.68 
z
" style="fill:#ffffff;"/>
   </g>
   <g id="PolyCollection_1">
    <path clip-path="url(#pa395829500)" d="M 92.290909 477.67721 
L 92.290909 768.96 
L 96.390083 768.96 
L 100.489256 768.96 
L 104.58843 768.96 
L 108.687603 768.96 
L 112.786777 768.96 
L 116.88595 768.96 
L 120.985124 768.96 
L 125.084298 768.96 
L 129.183471 768.96 
L 133.282645 768.96 
L 137.381818 768.96 
L 141.480992 768.96 
L 145.580165 768.96 
L 149.679339 768.96 
L 153.778512 768.96 
L 157.877686 768.96 
L 161.97686 768.96 
L 166.076033 768.96 
L 170.175207 768.96 
L 174.27438 768.96 
L 178.373554 768.96 
L 182.472727 768.96 
L 186.571901 768.96 
L 190.671074 768.96 
L 194.770248 768.96 
L 198.869421 768.96 
L 202.968595 768.96 
L 207.067769 768.96 
L 211.166942 768.96 
L 215.266116 768.96 
L 219.365289 768.96 
L 223.464463 768.96 
L 227.563636 768.96 
L 231.66281 768.96 
L 235.761983 768.96 
L 239.861157 768.96 
L 243.960331 768.96 
L 248.059504 768.96 
L 252.158678 768.96 
L 256.257851 768.96 
L 260.357025 768.96 
L 264.456198 768.96 
L 268.555372 768.96 
L 272.654545 768.96 
L 276.753719 768.96 
L 280.852893 768.96 
L 284.952066 768.96 
L 289.05124 768.96 
L 293.150413 768.96 
L 297.249587 768.96 
L 301.34876 768.96 
L 305.447934 768.96 
L 309.547107 768.96 
L 313.646281 768.96 
L 317.745455 768.96 
L 321.844628 768.96 
L 325.943802 768.96 
L 330.042975 768.96 
L 334.142149 768.96 
L 338.241322 768.96 
L 342.340496 768.96 
L 346.439669 768.96 
L 350.538843 768.96 
L 354.638017 768.96 
L 358.73719 768.96 
L 362.836364 768.96 
L 366.935537 768.96 
L 371.034711 768.96 
L 375.133884 768.96 
L 379.233058 768.96 
L 383.332231 768.96 
L 387.431405 768.96 
L 391.530579 768.96 
L 395.629752 768.96 
L 399.728926 768.96 
L 403.828099 768.96 
L 407.927273 768.96 
L 412.026446 768.96 
L 416.12562 768.96 
L 420.224793 768.96 
L 424.323967 768.96 
L 428.42314 768.96 
L 432.522314 768.96 
L 436.621488 768.96 
L 440.720661 768.96 
L 444.819835 768.96 
L 448.919008 768.96 
L 453.018182 768.96 
L 457.117355 768.96 
L 461.216529 768.96 
L 465.315702 768.96 
L 469.414876 768.96 
L 473.51405 768.96 
L 477.613223 768.96 
L 481.712397 768.96 
L 485.81157 768.96 
L 489.910744 768.96 
L 494.009917 768.96 
L 498.109091 768.96 
L 498.109091 485.968137 
L 498.109091 485.968137 
L 494.009917 485.88439 
L 489.910744 485.800643 
L 485.81157 485.716896 
L 481.712397 485.63315 
L 477.613223 485.549403 
L 473.51405 485.465656 
L 469.414876 485.38191 
L 465.315702 485.298163 
L 461.216529 485.214416 
L 457.117355 485.130669 
L 453.018182 485.046923 
L 448.919008 484.963176 
L 444.819835 484.879429 
L 440.720661 484.795682 
L 436.621488 484.711936 
L 432.522314 484.628189 
L 428.42314 484.544442 
L 424.323967 484.460695 
L 420.224793 484.376949 
L 416.12562 484.293202 
L 412.026446 484.209455 
L 407.927273 484.125708 
L 403.828099 484.041962 
L 399.728926 483.958215 
L 395.629752 483.874468 
L 391.530579 483.790722 
L 387.431405 483.706975 
L 383.332231 483.623228 
L 379.233058 483.539481 
L 375.133884 483.455735 
L 371.034711 483.371988 
L 366.935537 483.288241 
L 362.836364 483.204494 
L 358.73719 483.120748 
L 354.638017 483.037001 
L 350.538843 482.953254 
L 346.439669 482.869507 
L 342.340496 482.785761 
L 338.241322 482.702014 
L 334.142149 482.618267 
L 330.042975 482.53452 
L 325.943802 482.450774 
L 321.844628 482.367027 
L 317.745455 482.28328 
L 313.646281 482.199533 
L 309.547107 482.115787 
L 305.447934 482.03204 
L 301.34876 481.948293 
L 297.249587 481.864547 
L 293.150413 481.7808 
L 289.05124 481.697053 
L 284.952066 481.613306 
L 280.852893 481.52956 
L 276.753719 481.445813 
L 272.654545 481.362066 
L 268.555372 481.278319 
L 264.456198 481.194573 
L 260.357025 481.110826 
L 256.257851 481.027079 
L 252.158678 480.943332 
L 248.059504 480.859586 
L 243.960331 480.775839 
L 239.861157 480.692092 
L 235.761983 480.608345 
L 231.66281 480.524599 
L 227.563636 480.440852 
L 223.464463 480.357105 
L 219.365289 480.273359 
L 215.266116 480.189612 
L 211.166942 480.105865 
L 207.067769 480.022118 
L 202.968595 479.938372 
L 198.869421 479.854625 
L 194.770248 479.770878 
L 190.671074 479.687131 
L 186.571901 479.603385 
L 182.472727 479.519638 
L 178.373554 479.435891 
L 174.27438 479.352144 
L 170.175207 479.268398 
L 166.076033 479.184651 
L 161.97686 479.100904 
L 157.877686 479.017157 
L 153.778512 478.933411 
L 149.679339 478.849664 
L 145.580165 478.765917 
L 141.480992 478.68217 
L 137.381818 478.598424 
L 133.282645 478.514677 
L 129.183471 478.43093 
L 125.084298 478.347184 
L 120.985124 478.263437 
L 116.88595 478.17969 
L 112.786777 478.095943 
L 108.687603 478.012197 
L 104.58843 477.92845 
L 100.489256 477.844703 
L 96.390083 477.760956 
L 92.290909 477.67721 
z
" style="fill:#3182bd;"/>
   </g>
   <g id="PolyCollection_2">
    <path clip-path="url(#pa395829500)" d="M 92.290909 445.288463 
L 92.290909 477.67721 
L 96.390083 477.760956 
L 100.489256 477.844703 
L 104.58843 477.92845 
L 108.687603 478.012197 
L 112.786777 478.095943 
L 116.88595 478.17969 
L 120.985124 478.263437 
L 125.084298 478.347184 
L 129.183471 478.43093 
L 133.282645 478.514677 
L 137.381818 478.598424 
L 141.480992 478.68217 
L 145.580165 478.765917 
L 149.679339 478.849664 
L 153.778512 478.933411 
L 157.877686 479.017157 
L 161.97686 479.100904 
L 166.076033 479.184651 
L 170.175207 479.268398 
L 174.27438 479.352144 
L 178.373554 479.435891 
L 182.472727 479.519638 
L 186.571901 479.603385 
L 190.671074 479.687131 
L 194.770248 479.770878 
L 198.869421 479.854625 
L 202.968595 479.938372 
L 207.067769 480.022118 
L 211.166942 480.105865 
L 215.266116 480.189612 
L 219.365289 480.273359 
L 223.464463 480.357105 
L 227.563636 480.440852 
L 231.66281 480.524599 
L 235.761983 480.608345 
L 239.861157 480.692092 
L 243.960331 480.775839 
L 248.059504 480.859586 
L 252.158678 480.943332 
L 256.257851 481.027079 
L 260.357025 481.110826 
L 264.456198 481.194573 
L 268.555372 481.278319 
L 272.654545 481.362066 
L 276.753719 481.445813 
L 280.852893 481.52956 
L 284.952066 481.613306 
L 289.05124 481.697053 
L 293.150413 481.7808 
L 297.249587 481.864547 
L 301.34876 481.948293 
L 305.447934 482.03204 
L 309.547107 482.115787 
L 313.646281 482.199533 
L 317.745455 482.28328 
L 321.844628 482.367027 
L 325.943802 482.450774 
L 330.042975 482.53452 
L 334.142149 482.618267 
L 338.241322 482.702014 
L 342.340496 482.785761 
L 346.439669 482.869507 
L 350.538843 482.953254 
L 354.638017 483.037001 
L 358.73719 483.120748 
L 362.836364 483.204494 
L 366.935537 483.288241 
L 371.034711 483.371988 
L 375.133884 483.455735 
L 379.233058 483.539481 
L 383.332231 483.623228 
L 387.431405 483.706975 
L 391.530579 483.790722 
L 395.629752 483.874468 
L 399.728926 483.958215 
L 403.828099 484.041962 
L 407.927273 484.125708 
L 412.026446 484.209455 
L 416.12562 484.293202 
L 420.224793 484.376949 
L 424.323967 484.460695 
L 428.42314 484.544442 
L 432.522314 484.628189 
L 436.621488 484.711936 
L 440.720661 484.795682 
L 444.819835 484.879429 
L 448.919008 484.963176 
L 453.018182 485.046923 
L 457.117355 485.130669 
L 461.216529 485.214416 
L 465.315702 485.298163 
L 469.414876 485.38191 
L 473.51405 485.465656 
L 477.613223 485.549403 
L 481.712397 485.63315 
L 485.81157 485.716896 
L 489.910744 485.800643 
L 494.009917 485.88439 
L 498.109091 485.968137 
L 498.109091 453.579391 
L 498.109091 453.579391 
L 494.009917 453.495644 
L 489.910744 453.411897 
L 485.81157 453.32815 
L 481.712397 453.244404 
L 477.613223 453.160657 
L 473.51405 453.07691 
L 469.414876 452.993163 
L 465.315702 452.909417 
L 461.216529 452.82567 
L 457.117355 452.741923 
L 453.018182 452.658176 
L 448.919008 452.57443 
L 444.819835 452.490683 
L 440.720661 452.406936 
L 436.621488 452.323189 
L 432.522314 452.239443 
L 428.42314 452.155696 
L 424.323967 452.071949 
L 420.224793 451.988203 
L 416.12562 451.904456 
L 412.026446 451.820709 
L 407.927273 451.736962 
L 403.828099 451.653216 
L 399.728926 451.569469 
L 395.629752 451.485722 
L 391.530579 451.401975 
L 387.431405 451.318229 
L 383.332231 451.234482 
L 379.233058 451.150735 
L 375.133884 451.066988 
L 371.034711 450.983242 
L 366.935537 450.899495 
L 362.836364 450.815748 
L 358.73719 450.732001 
L 354.638017 450.648255 
L 350.538843 450.564508 
L 346.439669 450.480761 
L 342.340496 450.397014 
L 338.241322 450.313268 
L 334.142149 450.229521 
L 330.042975 450.145774 
L 325.943802 450.062028 
L 321.844628 449.978281 
L 317.745455 449.894534 
L 313.646281 449.810787 
L 309.547107 449.727041 
L 305.447934 449.643294 
L 301.34876 449.559547 
L 297.249587 449.4758 
L 293.150413 449.392054 
L 289.05124 449.308307 
L 284.952066 449.22456 
L 280.852893 449.140813 
L 276.753719 449.057067 
L 272.654545 448.97332 
L 268.555372 448.889573 
L 264.456198 448.805826 
L 260.357025 448.72208 
L 256.257851 448.638333 
L 252.158678 448.554586 
L 248.059504 448.47084 
L 243.960331 448.387093 
L 239.861157 448.303346 
L 235.761983 448.219599 
L 231.66281 448.135853 
L 227.563636 448.052106 
L 223.464463 447.968359 
L 219.365289 447.884612 
L 215.266116 447.800866 
L 211.166942 447.717119 
L 207.067769 447.633372 
L 202.968595 447.549625 
L 198.869421 447.465879 
L 194.770248 447.382132 
L 190.671074 447.298385 
L 186.571901 447.214638 
L 182.472727 447.130892 
L 178.373554 447.047145 
L 174.27438 446.963398 
L 170.175207 446.879651 
L 166.076033 446.795905 
L 161.97686 446.712158 
L 157.877686 446.628411 
L 153.778512 446.544665 
L 149.679339 446.460918 
L 145.580165 446.377171 
L 141.480992 446.293424 
L 137.381818 446.209678 
L 133.282645 446.125931 
L 129.183471 446.042184 
L 125.084298 445.958437 
L 120.985124 445.874691 
L 116.88595 445.790944 
L 112.786777 445.707197 
L 108.687603 445.62345 
L 104.58843 445.539704 
L 100.489256 445.455957 
L 96.390083 445.37221 
L 92.290909 445.288463 
z
" style="fill:#6baed6;"/>
   </g>
   <g id="PolyCollection_3">
    <path clip-path="url(#pa395829500)" d="M 92.290909 439.908261 
L 92.290909 445.288463 
L 96.390083 445.37221 
L 100.489256 445.455957 
L 104.58843 445.539704 
L 108.687603 445.62345 
L 112.786777 445.707197 
L 116.88595 445.790944 
L 120.985124 445.874691 
L 125.084298 445.958437 
L 129.183471 446.042184 
L 133.282645 446.125931 
L 137.381818 446.209678 
L 141.480992 446.293424 
L 145.580165 446.377171 
L 149.679339 446.460918 
L 153.778512 446.544665 
L 157.877686 446.628411 
L 161.97686 446.712158 
L 166.076033 446.795905 
L 170.175207 446.879651 
L 174.27438 446.963398 
L 178.373554 447.047145 
L 182.472727 447.130892 
L 186.571901 447.214638 
L 190.671074 447.298385 
L 194.770248 447.382132 
L 198.869421 447.465879 
L 202.968595 447.549625 
L 207.067769 447.633372 
L 211.166942 447.717119 
L 215.266116 447.800866 
L 219.365289 447.884612 
L 223.464463 447.968359 
L 227.563636 448.052106 
L 231.66281 448.135853 
L 235.761983 448.219599 
L 239.861157 448.303346 
L 243.960331 448.387093 
L 248.059504 448.47084 
L 252.158678 448.554586 
L 256.257851 448.638333 
L 260.357025 448.72208 
L 264.456198 448.805826 
L 268.555372 448.889573 
L 272.654545 448.97332 
L 276.753719 449.057067 
L 280.852893 449.140813 
L 284.952066 449.22456 
L 289.05124 449.308307 
L 293.150413 449.392054 
L 297.249587 449.4758 
L 301.34876 449.559547 
L 305.447934 449.643294 
L 309.547107 449.727041 
L 313.646281 449.810787 
L 317.745455 449.894534 
L 321.844628 449.978281 
L 325.943802 450.062028 
L 330.042975 450.145774 
L 334.142149 450.229521 
L 338.241322 450.313268 
L 342.340496 450.397014 
L 346.439669 450.480761 
L 350.538843 450.564508 
L 354.638017 450.648255 
L 358.73719 450.732001 
L 362.836364 450.815748 
L 366.935537 450.899495 
L 371.034711 450.983242 
L 375.133884 451.066988 
L 379.233058 451.150735 
L 383.332231 451.234482 
L 387.431405 451.318229 
L 391.530579 451.401975 
L 395.629752 451.485722 
L 399.728926 451.569469 
L 403.828099 451.653216 
L 407.927273 451.736962 
L 412.026446 451.820709 
L 416.12562 451.904456 
L 420.224793 451.988203 
L 424.323967 452.071949 
L 428.42314 452.155696 
L 432.522314 452.239443 
L 436.621488 452.323189 
L 440.720661 452.406936 
L 444.819835 452.490683 
L 448.919008 452.57443 
L 453.018182 452.658176 
L 457.117355 452.741923 
L 461.216529 452.82567 
L 465.315702 452.909417 
L 469.414876 452.993163 
L 473.51405 453.07691 
L 477.613223 453.160657 
L 481.712397 453.244404 
L 485.81157 453.32815 
L 489.910744 453.411897 
L 494.009917 453.495644 
L 498.109091 453.579391 
L 498.109091 448.199188 
L 498.109091 448.199188 
L 494.009917 448.115441 
L 489.910744 448.031695 
L 485.81157 447.947948 
L 481.712397 447.864201 
L 477.613223 447.780454 
L 473.51405 447.696708 
L 469.414876 447.612961 
L 465.315702 447.529214 
L 461.216529 447.445467 
L 457.117355 447.361721 
L 453.018182 447.277974 
L 448.919008 447.194227 
L 444.819835 447.110481 
L 440.720661 447.026734 
L 436.621488 446.942987 
L 432.522314 446.85924 
L 428.42314 446.775494 
L 424.323967 446.691747 
L 420.224793 446.608 
L 416.12562 446.524253 
L 412.026446 446.440507 
L 407.927273 446.35676 
L 403.828099 446.273013 
L 399.728926 446.189266 
L 395.629752 446.10552 
L 391.530579 446.021773 
L 387.431405 445.938026 
L 383.332231 445.854279 
L 379.233058 445.770533 
L 375.133884 445.686786 
L 371.034711 445.603039 
L 366.935537 445.519292 
L 362.836364 445.435546 
L 358.73719 445.351799 
L 354.638017 445.268052 
L 350.538843 445.184306 
L 346.439669 445.100559 
L 342.340496 445.016812 
L 338.241322 444.933065 
L 334.142149 444.849319 
L 330.042975 444.765572 
L 325.943802 444.681825 
L 321.844628 444.598078 
L 317.745455 444.514332 
L 313.646281 444.430585 
L 309.547107 444.346838 
L 305.447934 444.263091 
L 301.34876 444.179345 
L 297.249587 444.095598 
L 293.150413 444.011851 
L 289.05124 443.928104 
L 284.952066 443.844358 
L 280.852893 443.760611 
L 276.753719 443.676864 
L 272.654545 443.593118 
L 268.555372 443.509371 
L 264.456198 443.425624 
L 260.357025 443.341877 
L 256.257851 443.258131 
L 252.158678 443.174384 
L 248.059504 443.090637 
L 243.960331 443.00689 
L 239.861157 442.923144 
L 235.761983 442.839397 
L 231.66281 442.75565 
L 227.563636 442.671903 
L 223.464463 442.588157 
L 219.365289 442.50441 
L 215.266116 442.420663 
L 211.166942 442.336916 
L 207.067769 442.25317 
L 202.968595 442.169423 
L 198.869421 442.085676 
L 194.770248 442.00193 
L 190.671074 441.918183 
L 186.571901 441.834436 
L 182.472727 441.750689 
L 178.373554 441.666943 
L 174.27438 441.583196 
L 170.175207 441.499449 
L 166.076033 441.415702 
L 161.97686 441.331956 
L 157.877686 441.248209 
L 153.778512 441.164462 
L 149.679339 441.080715 
L 145.580165 440.996969 
L 141.480992 440.913222 
L 137.381818 440.829475 
L 133.282645 440.745728 
L 129.183471 440.661982 
L 125.084298 440.578235 
L 120.985124 440.494488 
L 116.88595 440.410741 
L 112.786777 440.326995 
L 108.687603 440.243248 
L 104.58843 440.159501 
L 100.489256 440.075755 
L 96.390083 439.992008 
L 92.290909 439.908261 
z
" style="fill:#9ecae1;"/>
   </g>
   <g id="PolyCollection_4">
    <path clip-path="url(#pa395829500)" d="M 92.290909 433.17061 
L 92.290909 439.908261 
L 96.390083 439.992008 
L 100.489256 440.075755 
L 104.58843 440.159501 
L 108.687603 440.243248 
L 112.786777 440.326995 
L 116.88595 440.410741 
L 120.985124 440.494488 
L 125.084298 440.578235 
L 129.183471 440.661982 
L 133.282645 440.745728 
L 137.381818 440.829475 
L 141.480992 440.913222 
L 145.580165 440.996969 
L 149.679339 441.080715 
L 153.778512 441.164462 
L 157.877686 441.248209 
L 161.97686 441.331956 
L 166.076033 441.415702 
L 170.175207 441.499449 
L 174.27438 441.583196 
L 178.373554 441.666943 
L 182.472727 441.750689 
L 186.571901 441.834436 
L 190.671074 441.918183 
L 194.770248 442.00193 
L 198.869421 442.085676 
L 202.968595 442.169423 
L 207.067769 442.25317 
L 211.166942 442.336916 
L 215.266116 442.420663 
L 219.365289 442.50441 
L 223.464463 442.588157 
L 227.563636 442.671903 
L 231.66281 442.75565 
L 235.761983 442.839397 
L 239.861157 442.923144 
L 243.960331 443.00689 
L 248.059504 443.090637 
L 252.158678 443.174384 
L 256.257851 443.258131 
L 260.357025 443.341877 
L 264.456198 443.425624 
L 268.555372 443.509371 
L 272.654545 443.593118 
L 276.753719 443.676864 
L 280.852893 443.760611 
L 284.952066 443.844358 
L 289.05124 443.928104 
L 293.150413 444.011851 
L 297.249587 444.095598 
L 301.34876 444.179345 
L 305.447934 444.263091 
L 309.547107 444.346838 
L 313.646281 444.430585 
L 317.745455 444.514332 
L 321.844628 444.598078 
L 325.943802 444.681825 
L 330.042975 444.765572 
L 334.142149 444.849319 
L 338.241322 444.933065 
L 342.340496 445.016812 
L 346.439669 445.100559 
L 350.538843 445.184306 
L 354.638017 445.268052 
L 358.73719 445.351799 
L 362.836364 445.435546 
L 366.935537 445.519292 
L 371.034711 445.603039 
L 375.133884 445.686786 
L 379.233058 445.770533 
L 383.332231 445.854279 
L 387.431405 445.938026 
L 391.530579 446.021773 
L 395.629752 446.10552 
L 399.728926 446.189266 
L 403.828099 446.273013 
L 407.927273 446.35676 
L 412.026446 446.440507 
L 416.12562 446.524253 
L 420.224793 446.608 
L 424.323967 446.691747 
L 428.42314 446.775494 
L 432.522314 446.85924 
L 436.621488 446.942987 
L 440.720661 447.026734 
L 444.819835 447.110481 
L 448.919008 447.194227 
L 453.018182 447.277974 
L 457.117355 447.361721 
L 461.216529 447.445467 
L 465.315702 447.529214 
L 469.414876 447.612961 
L 473.51405 447.696708 
L 477.613223 447.780454 
L 481.712397 447.864201 
L 485.81157 447.947948 
L 489.910744 448.031695 
L 494.009917 448.115441 
L 498.109091 448.199188 
L 498.109091 441.461537 
L 498.109091 441.461537 
L 494.009917 441.37779 
L 489.910744 441.294043 
L 485.81157 441.210297 
L 481.712397 441.12655 
L 477.613223 441.042803 
L 473.51405 440.959056 
L 469.414876 440.87531 
L 465.315702 440.791563 
L 461.216529 440.707816 
L 457.117355 440.62407 
L 453.018182 440.540323 
L 448.919008 440.456576 
L 444.819835 440.372829 
L 440.720661 440.289083 
L 436.621488 440.205336 
L 432.522314 440.121589 
L 428.42314 440.037842 
L 424.323967 439.954096 
L 420.224793 439.870349 
L 416.12562 439.786602 
L 412.026446 439.702855 
L 407.927273 439.619109 
L 403.828099 439.535362 
L 399.728926 439.451615 
L 395.629752 439.367868 
L 391.530579 439.284122 
L 387.431405 439.200375 
L 383.332231 439.116628 
L 379.233058 439.032882 
L 375.133884 438.949135 
L 371.034711 438.865388 
L 366.935537 438.781641 
L 362.836364 438.697895 
L 358.73719 438.614148 
L 354.638017 438.530401 
L 350.538843 438.446654 
L 346.439669 438.362908 
L 342.340496 438.279161 
L 338.241322 438.195414 
L 334.142149 438.111667 
L 330.042975 438.027921 
L 325.943802 437.944174 
L 321.844628 437.860427 
L 317.745455 437.77668 
L 313.646281 437.692934 
L 309.547107 437.609187 
L 305.447934 437.52544 
L 301.34876 437.441693 
L 297.249587 437.357947 
L 293.150413 437.2742 
L 289.05124 437.190453 
L 284.952066 437.106707 
L 280.852893 437.02296 
L 276.753719 436.939213 
L 272.654545 436.855466 
L 268.555372 436.77172 
L 264.456198 436.687973 
L 260.357025 436.604226 
L 256.257851 436.520479 
L 252.158678 436.436733 
L 248.059504 436.352986 
L 243.960331 436.269239 
L 239.861157 436.185492 
L 235.761983 436.101746 
L 231.66281 436.017999 
L 227.563636 435.934252 
L 223.464463 435.850505 
L 219.365289 435.766759 
L 215.266116 435.683012 
L 211.166942 435.599265 
L 207.067769 435.515519 
L 202.968595 435.431772 
L 198.869421 435.348025 
L 194.770248 435.264278 
L 190.671074 435.180532 
L 186.571901 435.096785 
L 182.472727 435.013038 
L 178.373554 434.929291 
L 174.27438 434.845545 
L 170.175207 434.761798 
L 166.076033 434.678051 
L 161.97686 434.594304 
L 157.877686 434.510558 
L 153.778512 434.426811 
L 149.679339 434.343064 
L 145.580165 434.259317 
L 141.480992 434.175571 
L 137.381818 434.091824 
L 133.282645 434.008077 
L 129.183471 433.924331 
L 125.084298 433.840584 
L 120.985124 433.756837 
L 116.88595 433.67309 
L 112.786777 433.589344 
L 108.687603 433.505597 
L 104.58843 433.42185 
L 100.489256 433.338103 
L 96.390083 433.254357 
L 92.290909 433.17061 
z
" style="fill:#c6dbef;"/>
   </g>
   <g id="PolyCollection_5">
    <path clip-path="url(#pa395829500)" d="M 92.290909 400.651457 
L 92.290909 433.17061 
L 96.390083 433.254357 
L 100.489256 433.338103 
L 104.58843 433.42185 
L 108.687603 433.505597 
L 112.786777 433.589344 
L 116.88595 433.67309 
L 120.985124 433.756837 
L 125.084298 433.840584 
L 129.183471 433.924331 
L 133.282645 434.008077 
L 137.381818 434.091824 
L 141.480992 434.175571 
L 145.580165 434.259317 
L 149.679339 434.343064 
L 153.778512 434.426811 
L 157.877686 434.510558 
L 161.97686 434.594304 
L 166.076033 434.678051 
L 170.175207 434.761798 
L 174.27438 434.845545 
L 178.373554 434.929291 
L 182.472727 435.013038 
L 186.571901 435.096785 
L 190.671074 435.180532 
L 194.770248 435.264278 
L 198.869421 435.348025 
L 202.968595 435.431772 
L 207.067769 435.515519 
L 211.166942 435.599265 
L 215.266116 435.683012 
L 219.365289 435.766759 
L 223.464463 435.850505 
L 227.563636 435.934252 
L 231.66281 436.017999 
L 235.761983 436.101746 
L 239.861157 436.185492 
L 243.960331 436.269239 
L 248.059504 436.352986 
L 252.158678 436.436733 
L 256.257851 436.520479 
L 260.357025 436.604226 
L 264.456198 436.687973 
L 268.555372 436.77172 
L 272.654545 436.855466 
L 276.753719 436.939213 
L 280.852893 437.02296 
L 284.952066 437.106707 
L 289.05124 437.190453 
L 293.150413 437.2742 
L 297.249587 437.357947 
L 301.34876 437.441693 
L 305.447934 437.52544 
L 309.547107 437.609187 
L 313.646281 437.692934 
L 317.745455 437.77668 
L 321.844628 437.860427 
L 325.943802 437.944174 
L 330.042975 438.027921 
L 334.142149 438.111667 
L 338.241322 438.195414 
L 342.340496 438.279161 
L 346.439669 438.362908 
L 350.538843 438.446654 
L 354.638017 438.530401 
L 358.73719 438.614148 
L 362.836364 438.697895 
L 366.935537 438.781641 
L 371.034711 438.865388 
L 375.133884 438.949135 
L 379.233058 439.032882 
L 383.332231 439.116628 
L 387.431405 439.200375 
L 391.530579 439.284122 
L 395.629752 439.367868 
L 399.728926 439.451615 
L 403.828099 439.535362 
L 407.927273 439.619109 
L 412.026446 439.702855 
L 416.12562 439.786602 
L 420.224793 439.870349 
L 424.323967 439.954096 
L 428.42314 440.037842 
L 432.522314 440.121589 
L 436.621488 440.205336 
L 440.720661 440.289083 
L 444.819835 440.372829 
L 448.919008 440.456576 
L 453.018182 440.540323 
L 457.117355 440.62407 
L 461.216529 440.707816 
L 465.315702 440.791563 
L 469.414876 440.87531 
L 473.51405 440.959056 
L 477.613223 441.042803 
L 481.712397 441.12655 
L 485.81157 441.210297 
L 489.910744 441.294043 
L 494.009917 441.37779 
L 498.109091 441.461537 
L 498.109091 408.942384 
L 498.109091 408.942384 
L 494.009917 408.858638 
L 489.910744 408.774891 
L 485.81157 408.691144 
L 481.712397 408.607397 
L 477.613223 408.523651 
L 473.51405 408.439904 
L 469.414876 408.356157 
L 465.315702 408.27241 
L 461.216529 408.188664 
L 457.117355 408.104917 
L 453.018182 408.02117 
L 448.919008 407.937423 
L 444.819835 407.853677 
L 440.720661 407.76993 
L 436.621488 407.686183 
L 432.522314 407.602436 
L 428.42314 407.51869 
L 424.323967 407.434943 
L 420.224793 407.351196 
L 416.12562 407.26745 
L 412.026446 407.183703 
L 407.927273 407.099956 
L 403.828099 407.016209 
L 399.728926 406.932463 
L 395.629752 406.848716 
L 391.530579 406.764969 
L 387.431405 406.681222 
L 383.332231 406.597476 
L 379.233058 406.513729 
L 375.133884 406.429982 
L 371.034711 406.346235 
L 366.935537 406.262489 
L 362.836364 406.178742 
L 358.73719 406.094995 
L 354.638017 406.011248 
L 350.538843 405.927502 
L 346.439669 405.843755 
L 342.340496 405.760008 
L 338.241322 405.676262 
L 334.142149 405.592515 
L 330.042975 405.508768 
L 325.943802 405.425021 
L 321.844628 405.341275 
L 317.745455 405.257528 
L 313.646281 405.173781 
L 309.547107 405.090034 
L 305.447934 405.006288 
L 301.34876 404.922541 
L 297.249587 404.838794 
L 293.150413 404.755047 
L 289.05124 404.671301 
L 284.952066 404.587554 
L 280.852893 404.503807 
L 276.753719 404.42006 
L 272.654545 404.336314 
L 268.555372 404.252567 
L 264.456198 404.16882 
L 260.357025 404.085073 
L 256.257851 404.001327 
L 252.158678 403.91758 
L 248.059504 403.833833 
L 243.960331 403.750087 
L 239.861157 403.66634 
L 235.761983 403.582593 
L 231.66281 403.498846 
L 227.563636 403.4151 
L 223.464463 403.331353 
L 219.365289 403.247606 
L 215.266116 403.163859 
L 211.166942 403.080113 
L 207.067769 402.996366 
L 202.968595 402.912619 
L 198.869421 402.828872 
L 194.770248 402.745126 
L 190.671074 402.661379 
L 186.571901 402.577632 
L 182.472727 402.493885 
L 178.373554 402.410139 
L 174.27438 402.326392 
L 170.175207 402.242645 
L 166.076033 402.158899 
L 161.97686 402.075152 
L 157.877686 401.991405 
L 153.778512 401.907658 
L 149.679339 401.823912 
L 145.580165 401.740165 
L 141.480992 401.656418 
L 137.381818 401.572671 
L 133.282645 401.488925 
L 129.183471 401.405178 
L 125.084298 401.321431 
L 120.985124 401.237684 
L 116.88595 401.153938 
L 112.786777 401.070191 
L 108.687603 400.986444 
L 104.58843 400.902697 
L 100.489256 400.818951 
L 96.390083 400.735204 
L 92.290909 400.651457 
z
" style="fill:#e6550d;"/>
   </g>
   <g id="PolyCollection_6">
    <path clip-path="url(#pa395829500)" d="M 92.290909 345.338553 
L 92.290909 400.651457 
L 96.390083 400.735204 
L 100.489256 400.818951 
L 104.58843 400.902697 
L 108.687603 400.986444 
L 112.786777 401.070191 
L 116.88595 401.153938 
L 120.985124 401.237684 
L 125.084298 401.321431 
L 129.183471 401.405178 
L 133.282645 401.488925 
L 137.381818 401.572671 
L 141.480992 401.656418 
L 145.580165 401.740165 
L 149.679339 401.823912 
L 153.778512 401.907658 
L 157.877686 401.991405 
L 161.97686 402.075152 
L 166.076033 402.158899 
L 170.175207 402.242645 
L 174.27438 402.326392 
L 178.373554 402.410139 
L 182.472727 402.493885 
L 186.571901 402.577632 
L 190.671074 402.661379 
L 194.770248 402.745126 
L 198.869421 402.828872 
L 202.968595 402.912619 
L 207.067769 402.996366 
L 211.166942 403.080113 
L 215.266116 403.163859 
L 219.365289 403.247606 
L 223.464463 403.331353 
L 227.563636 403.4151 
L 231.66281 403.498846 
L 235.761983 403.582593 
L 239.861157 403.66634 
L 243.960331 403.750087 
L 248.059504 403.833833 
L 252.158678 403.91758 
L 256.257851 404.001327 
L 260.357025 404.085073 
L 264.456198 404.16882 
L 268.555372 404.252567 
L 272.654545 404.336314 
L 276.753719 404.42006 
L 280.852893 404.503807 
L 284.952066 404.587554 
L 289.05124 404.671301 
L 293.150413 404.755047 
L 297.249587 404.838794 
L 301.34876 404.922541 
L 305.447934 405.006288 
L 309.547107 405.090034 
L 313.646281 405.173781 
L 317.745455 405.257528 
L 321.844628 405.341275 
L 325.943802 405.425021 
L 330.042975 405.508768 
L 334.142149 405.592515 
L 338.241322 405.676262 
L 342.340496 405.760008 
L 346.439669 405.843755 
L 350.538843 405.927502 
L 354.638017 406.011248 
L 358.73719 406.094995 
L 362.836364 406.178742 
L 366.935537 406.262489 
L 371.034711 406.346235 
L 375.133884 406.429982 
L 379.233058 406.513729 
L 383.332231 406.597476 
L 387.431405 406.681222 
L 391.530579 406.764969 
L 395.629752 406.848716 
L 399.728926 406.932463 
L 403.828099 407.016209 
L 407.927273 407.099956 
L 412.026446 407.183703 
L 416.12562 407.26745 
L 420.224793 407.351196 
L 424.323967 407.434943 
L 428.42314 407.51869 
L 432.522314 407.602436 
L 436.621488 407.686183 
L 440.720661 407.76993 
L 444.819835 407.853677 
L 448.919008 407.937423 
L 453.018182 408.02117 
L 457.117355 408.104917 
L 461.216529 408.188664 
L 465.315702 408.27241 
L 469.414876 408.356157 
L 473.51405 408.439904 
L 477.613223 408.523651 
L 481.712397 408.607397 
L 485.81157 408.691144 
L 489.910744 408.774891 
L 494.009917 408.858638 
L 498.109091 408.942384 
L 498.109091 353.62948 
L 498.109091 353.62948 
L 494.009917 353.545733 
L 489.910744 353.461987 
L 485.81157 353.37824 
L 481.712397 353.294493 
L 477.613223 353.210747 
L 473.51405 353.127 
L 469.414876 353.043253 
L 465.315702 352.959506 
L 461.216529 352.87576 
L 457.117355 352.792013 
L 453.018182 352.708266 
L 448.919008 352.624519 
L 444.819835 352.540773 
L 440.720661 352.457026 
L 436.621488 352.373279 
L 432.522314 352.289532 
L 428.42314 352.205786 
L 424.323967 352.122039 
L 420.224793 352.038292 
L 416.12562 351.954545 
L 412.026446 351.870799 
L 407.927273 351.787052 
L 403.828099 351.703305 
L 399.728926 351.619559 
L 395.629752 351.535812 
L 391.530579 351.452065 
L 387.431405 351.368318 
L 383.332231 351.284572 
L 379.233058 351.200825 
L 375.133884 351.117078 
L 371.034711 351.033331 
L 366.935537 350.949585 
L 362.836364 350.865838 
L 358.73719 350.782091 
L 354.638017 350.698344 
L 350.538843 350.614598 
L 346.439669 350.530851 
L 342.340496 350.447104 
L 338.241322 350.363357 
L 334.142149 350.279611 
L 330.042975 350.195864 
L 325.943802 350.112117 
L 321.844628 350.02837 
L 317.745455 349.944624 
L 313.646281 349.860877 
L 309.547107 349.77713 
L 305.447934 349.693384 
L 301.34876 349.609637 
L 297.249587 349.52589 
L 293.150413 349.442143 
L 289.05124 349.358397 
L 284.952066 349.27465 
L 280.852893 349.190903 
L 276.753719 349.107156 
L 272.654545 349.02341 
L 268.555372 348.939663 
L 264.456198 348.855916 
L 260.357025 348.772169 
L 256.257851 348.688423 
L 252.158678 348.604676 
L 248.059504 348.520929 
L 243.960331 348.437182 
L 239.861157 348.353436 
L 235.761983 348.269689 
L 231.66281 348.185942 
L 227.563636 348.102196 
L 223.464463 348.018449 
L 219.365289 347.934702 
L 215.266116 347.850955 
L 211.166942 347.767209 
L 207.067769 347.683462 
L 202.968595 347.599715 
L 198.869421 347.515968 
L 194.770248 347.432222 
L 190.671074 347.348475 
L 186.571901 347.264728 
L 182.472727 347.180981 
L 178.373554 347.097235 
L 174.27438 347.013488 
L 170.175207 346.929741 
L 166.076033 346.845994 
L 161.97686 346.762248 
L 157.877686 346.678501 
L 153.778512 346.594754 
L 149.679339 346.511008 
L 145.580165 346.427261 
L 141.480992 346.343514 
L 137.381818 346.259767 
L 133.282645 346.176021 
L 129.183471 346.092274 
L 125.084298 346.008527 
L 120.985124 345.92478 
L 116.88595 345.841034 
L 112.786777 345.757287 
L 108.687603 345.67354 
L 104.58843 345.589793 
L 100.489256 345.506047 
L 96.390083 345.4223 
L 92.290909 345.338553 
z
" style="fill:#fd8d3c;"/>
   </g>
   <g id="PolyCollection_7">
    <path clip-path="url(#pa395829500)" d="M 92.290909 321.681959 
L 92.290909 345.338553 
L 96.390083 345.4223 
L 100.489256 345.506047 
L 104.58843 345.589793 
L 108.687603 345.67354 
L 112.786777 345.757287 
L 116.88595 345.841034 
L 120.985124 345.92478 
L 125.084298 346.008527 
L 129.183471 346.092274 
L 133.282645 346.176021 
L 137.381818 346.259767 
L 141.480992 346.343514 
L 145.580165 346.427261 
L 149.679339 346.511008 
L 153.778512 346.594754 
L 157.877686 346.678501 
L 161.97686 346.762248 
L 166.076033 346.845994 
L 170.175207 346.929741 
L 174.27438 347.013488 
L 178.373554 347.097235 
L 182.472727 347.180981 
L 186.571901 347.264728 
L 190.671074 347.348475 
L 194.770248 347.432222 
L 198.869421 347.515968 
L 202.968595 347.599715 
L 207.067769 347.683462 
L 211.166942 347.767209 
L 215.266116 347.850955 
L 219.365289 347.934702 
L 223.464463 348.018449 
L 227.563636 348.102196 
L 231.66281 348.185942 
L 235.761983 348.269689 
L 239.861157 348.353436 
L 243.960331 348.437182 
L 248.059504 348.520929 
L 252.158678 348.604676 
L 256.257851 348.688423 
L 260.357025 348.772169 
L 264.456198 348.855916 
L 268.555372 348.939663 
L 272.654545 349.02341 
L 276.753719 349.107156 
L 280.852893 349.190903 
L 284.952066 349.27465 
L 289.05124 349.358397 
L 293.150413 349.442143 
L 297.249587 349.52589 
L 301.34876 349.609637 
L 305.447934 349.693384 
L 309.547107 349.77713 
L 313.646281 349.860877 
L 317.745455 349.944624 
L 321.844628 350.02837 
L 325.943802 350.112117 
L 330.042975 350.195864 
L 334.142149 350.279611 
L 338.241322 350.363357 
L 342.340496 350.447104 
L 346.439669 350.530851 
L 350.538843 350.614598 
L 354.638017 350.698344 
L 358.73719 350.782091 
L 362.836364 350.865838 
L 366.935537 350.949585 
L 371.034711 351.033331 
L 375.133884 351.117078 
L 379.233058 351.200825 
L 383.332231 351.284572 
L 387.431405 351.368318 
L 391.530579 351.452065 
L 395.629752 351.535812 
L 399.728926 351.619559 
L 403.828099 351.703305 
L 407.927273 351.787052 
L 412.026446 351.870799 
L 416.12562 351.954545 
L 420.224793 352.038292 
L 424.323967 352.122039 
L 428.42314 352.205786 
L 432.522314 352.289532 
L 436.621488 352.373279 
L 440.720661 352.457026 
L 444.819835 352.540773 
L 448.919008 352.624519 
L 453.018182 352.708266 
L 457.117355 352.792013 
L 461.216529 352.87576 
L 465.315702 352.959506 
L 469.414876 353.043253 
L 473.51405 353.127 
L 477.613223 353.210747 
L 481.712397 353.294493 
L 485.81157 353.37824 
L 489.910744 353.461987 
L 494.009917 353.545733 
L 498.109091 353.62948 
L 498.109091 353.62948 
L 498.109091 353.62948 
L 494.009917 353.306778 
L 489.910744 352.984076 
L 485.81157 352.661374 
L 481.712397 352.338671 
L 477.613223 352.015969 
L 473.51405 351.693267 
L 469.414876 351.370565 
L 465.315702 351.047862 
L 461.216529 350.72516 
L 457.117355 350.402458 
L 453.018182 350.079756 
L 448.919008 349.757053 
L 444.819835 349.434351 
L 440.720661 349.111649 
L 436.621488 348.788947 
L 432.522314 348.466244 
L 428.42314 348.143542 
L 424.323967 347.82084 
L 420.224793 347.498138 
L 416.12562 347.175435 
L 412.026446 346.852733 
L 407.927273 346.530031 
L 403.828099 346.207329 
L 399.728926 345.884626 
L 395.629752 345.561924 
L 391.530579 345.239222 
L 387.431405 344.91652 
L 383.332231 344.593818 
L 379.233058 344.271115 
L 375.133884 343.948413 
L 371.034711 343.625711 
L 366.935537 343.303009 
L 362.836364 342.980306 
L 358.73719 342.657604 
L 354.638017 342.334902 
L 350.538843 342.0122 
L 346.439669 341.689497 
L 342.340496 341.366795 
L 338.241322 341.044093 
L 334.142149 340.721391 
L 330.042975 340.398688 
L 325.943802 340.075986 
L 321.844628 339.753284 
L 317.745455 339.430582 
L 313.646281 339.107879 
L 309.547107 338.785177 
L 305.447934 338.462475 
L 301.34876 338.139773 
L 297.249587 337.81707 
L 293.150413 337.494368 
L 289.05124 337.171666 
L 284.952066 336.848964 
L 280.852893 336.526262 
L 276.753719 336.203559 
L 272.654545 335.880857 
L 268.555372 335.558155 
L 264.456198 335.235453 
L 260.357025 334.91275 
L 256.257851 334.590048 
L 252.158678 334.267346 
L 248.059504 333.944644 
L 243.960331 333.621941 
L 239.861157 333.299239 
L 235.761983 332.976537 
L 231.66281 332.653835 
L 227.563636 332.331132 
L 223.464463 332.00843 
L 219.365289 331.685728 
L 215.266116 331.363026 
L 211.166942 331.040323 
L 207.067769 330.717621 
L 202.968595 330.394919 
L 198.869421 330.072217 
L 194.770248 329.749514 
L 190.671074 329.426812 
L 186.571901 329.10411 
L 182.472727 328.781408 
L 178.373554 328.458706 
L 174.27438 328.136003 
L 170.175207 327.813301 
L 166.076033 327.490599 
L 161.97686 327.167897 
L 157.877686 326.845194 
L 153.778512 326.522492 
L 149.679339 326.19979 
L 145.580165 325.877088 
L 141.480992 325.554385 
L 137.381818 325.231683 
L 133.282645 324.908981 
L 129.183471 324.586279 
L 125.084298 324.263576 
L 120.985124 323.940874 
L 116.88595 323.618172 
L 112.786777 323.29547 
L 108.687603 322.972767 
L 104.58843 322.650065 
L 100.489256 322.327363 
L 96.390083 322.004661 
L 92.290909 321.681959 
z
" style="fill:#fdae6b;"/>
   </g>
   <g id="PolyCollection_8">
    <path clip-path="url(#pa395829500)" d="M 92.290909 194.119233 
L 92.290909 321.681959 
L 96.390083 322.004661 
L 100.489256 322.327363 
L 104.58843 322.650065 
L 108.687603 322.972767 
L 112.786777 323.29547 
L 116.88595 323.618172 
L 120.985124 323.940874 
L 125.084298 324.263576 
L 129.183471 324.586279 
L 133.282645 324.908981 
L 137.381818 325.231683 
L 141.480992 325.554385 
L 145.580165 325.877088 
L 149.679339 326.19979 
L 153.778512 326.522492 
L 157.877686 326.845194 
L 161.97686 327.167897 
L 166.076033 327.490599 
L 170.175207 327.813301 
L 174.27438 328.136003 
L 178.373554 328.458706 
L 182.472727 328.781408 
L 186.571901 329.10411 
L 190.671074 329.426812 
L 194.770248 329.749514 
L 198.869421 330.072217 
L 202.968595 330.394919 
L 207.067769 330.717621 
L 211.166942 331.040323 
L 215.266116 331.363026 
L 219.365289 331.685728 
L 223.464463 332.00843 
L 227.563636 332.331132 
L 231.66281 332.653835 
L 235.761983 332.976537 
L 239.861157 333.299239 
L 243.960331 333.621941 
L 248.059504 333.944644 
L 252.158678 334.267346 
L 256.257851 334.590048 
L 260.357025 334.91275 
L 264.456198 335.235453 
L 268.555372 335.558155 
L 272.654545 335.880857 
L 276.753719 336.203559 
L 280.852893 336.526262 
L 284.952066 336.848964 
L 289.05124 337.171666 
L 293.150413 337.494368 
L 297.249587 337.81707 
L 301.34876 338.139773 
L 305.447934 338.462475 
L 309.547107 338.785177 
L 313.646281 339.107879 
L 317.745455 339.430582 
L 321.844628 339.753284 
L 325.943802 340.075986 
L 330.042975 340.398688 
L 334.142149 340.721391 
L 338.241322 341.044093 
L 342.340496 341.366795 
L 346.439669 341.689497 
L 350.538843 342.0122 
L 354.638017 342.334902 
L 358.73719 342.657604 
L 362.836364 342.980306 
L 366.935537 343.303009 
L 371.034711 343.625711 
L 375.133884 343.948413 
L 379.233058 344.271115 
L 383.332231 344.593818 
L 387.431405 344.91652 
L 391.530579 345.239222 
L 395.629752 345.561924 
L 399.728926 345.884626 
L 403.828099 346.207329 
L 407.927273 346.530031 
L 412.026446 346.852733 
L 416.12562 347.175435 
L 420.224793 347.498138 
L 424.323967 347.82084 
L 428.42314 348.143542 
L 432.522314 348.466244 
L 436.621488 348.788947 
L 440.720661 349.111649 
L 444.819835 349.434351 
L 448.919008 349.757053 
L 453.018182 350.079756 
L 457.117355 350.402458 
L 461.216529 350.72516 
L 465.315702 351.047862 
L 469.414876 351.370565 
L 473.51405 351.693267 
L 477.613223 352.015969 
L 481.712397 352.338671 
L 485.81157 352.661374 
L 489.910744 352.984076 
L 494.009917 353.306778 
L 498.109091 353.62948 
L 498.109091 226.066754 
L 498.109091 226.066754 
L 494.009917 225.744052 
L 489.910744 225.42135 
L 485.81157 225.098648 
L 481.712397 224.775945 
L 477.613223 224.453243 
L 473.51405 224.130541 
L 469.414876 223.807839 
L 465.315702 223.485136 
L 461.216529 223.162434 
L 457.117355 222.839732 
L 453.018182 222.51703 
L 448.919008 222.194328 
L 444.819835 221.871625 
L 440.720661 221.548923 
L 436.621488 221.226221 
L 432.522314 220.903519 
L 428.42314 220.580816 
L 424.323967 220.258114 
L 420.224793 219.935412 
L 416.12562 219.61271 
L 412.026446 219.290007 
L 407.927273 218.967305 
L 403.828099 218.644603 
L 399.728926 218.321901 
L 395.629752 217.999198 
L 391.530579 217.676496 
L 387.431405 217.353794 
L 383.332231 217.031092 
L 379.233058 216.708389 
L 375.133884 216.385687 
L 371.034711 216.062985 
L 366.935537 215.740283 
L 362.836364 215.41758 
L 358.73719 215.094878 
L 354.638017 214.772176 
L 350.538843 214.449474 
L 346.439669 214.126772 
L 342.340496 213.804069 
L 338.241322 213.481367 
L 334.142149 213.158665 
L 330.042975 212.835963 
L 325.943802 212.51326 
L 321.844628 212.190558 
L 317.745455 211.867856 
L 313.646281 211.545154 
L 309.547107 211.222451 
L 305.447934 210.899749 
L 301.34876 210.577047 
L 297.249587 210.254345 
L 293.150413 209.931642 
L 289.05124 209.60894 
L 284.952066 209.286238 
L 280.852893 208.963536 
L 276.753719 208.640833 
L 272.654545 208.318131 
L 268.555372 207.995429 
L 264.456198 207.672727 
L 260.357025 207.350024 
L 256.257851 207.027322 
L 252.158678 206.70462 
L 248.059504 206.381918 
L 243.960331 206.059216 
L 239.861157 205.736513 
L 235.761983 205.413811 
L 231.66281 205.091109 
L 227.563636 204.768407 
L 223.464463 204.445704 
L 219.365289 204.123002 
L 215.266116 203.8003 
L 211.166942 203.477598 
L 207.067769 203.154895 
L 202.968595 202.832193 
L 198.869421 202.509491 
L 194.770248 202.186789 
L 190.671074 201.864086 
L 186.571901 201.541384 
L 182.472727 201.218682 
L 178.373554 200.89598 
L 174.27438 200.573277 
L 170.175207 200.250575 
L 166.076033 199.927873 
L 161.97686 199.605171 
L 157.877686 199.282468 
L 153.778512 198.959766 
L 149.679339 198.637064 
L 145.580165 198.314362 
L 141.480992 197.99166 
L 137.381818 197.668957 
L 133.282645 197.346255 
L 129.183471 197.023553 
L 125.084298 196.700851 
L 120.985124 196.378148 
L 116.88595 196.055446 
L 112.786777 195.732744 
L 108.687603 195.410042 
L 104.58843 195.087339 
L 100.489256 194.764637 
L 96.390083 194.441935 
L 92.290909 194.119233 
z
" style="fill:#fdd0a2;"/>
   </g>
   <g id="PolyCollection_9">
    <path clip-path="url(#pa395829500)" d="M 92.290909 160.257592 
L 92.290909 194.119233 
L 96.390083 194.441935 
L 100.489256 194.764637 
L 104.58843 195.087339 
L 108.687603 195.410042 
L 112.786777 195.732744 
L 116.88595 196.055446 
L 120.985124 196.378148 
L 125.084298 196.700851 
L 129.183471 197.023553 
L 133.282645 197.346255 
L 137.381818 197.668957 
L 141.480992 197.99166 
L 145.580165 198.314362 
L 149.679339 198.637064 
L 153.778512 198.959766 
L 157.877686 199.282468 
L 161.97686 199.605171 
L 166.076033 199.927873 
L 170.175207 200.250575 
L 174.27438 200.573277 
L 178.373554 200.89598 
L 182.472727 201.218682 
L 186.571901 201.541384 
L 190.671074 201.864086 
L 194.770248 202.186789 
L 198.869421 202.509491 
L 202.968595 202.832193 
L 207.067769 203.154895 
L 211.166942 203.477598 
L 215.266116 203.8003 
L 219.365289 204.123002 
L 223.464463 204.445704 
L 227.563636 204.768407 
L 231.66281 205.091109 
L 235.761983 205.413811 
L 239.861157 205.736513 
L 243.960331 206.059216 
L 248.059504 206.381918 
L 252.158678 206.70462 
L 256.257851 207.027322 
L 260.357025 207.350024 
L 264.456198 207.672727 
L 268.555372 207.995429 
L 272.654545 208.318131 
L 276.753719 208.640833 
L 280.852893 208.963536 
L 284.952066 209.286238 
L 289.05124 209.60894 
L 293.150413 209.931642 
L 297.249587 210.254345 
L 301.34876 210.577047 
L 305.447934 210.899749 
L 309.547107 211.222451 
L 313.646281 211.545154 
L 317.745455 211.867856 
L 321.844628 212.190558 
L 325.943802 212.51326 
L 330.042975 212.835963 
L 334.142149 213.158665 
L 338.241322 213.481367 
L 342.340496 213.804069 
L 346.439669 214.126772 
L 350.538843 214.449474 
L 354.638017 214.772176 
L 358.73719 215.094878 
L 362.836364 215.41758 
L 366.935537 215.740283 
L 371.034711 216.062985 
L 375.133884 216.385687 
L 379.233058 216.708389 
L 383.332231 217.031092 
L 387.431405 217.353794 
L 391.530579 217.676496 
L 395.629752 217.999198 
L 399.728926 218.321901 
L 403.828099 218.644603 
L 407.927273 218.967305 
L 412.026446 219.290007 
L 416.12562 219.61271 
L 420.224793 219.935412 
L 424.323967 220.258114 
L 428.42314 220.580816 
L 432.522314 220.903519 
L 436.621488 221.226221 
L 440.720661 221.548923 
L 444.819835 221.871625 
L 448.919008 222.194328 
L 453.018182 222.51703 
L 457.117355 222.839732 
L 461.216529 223.162434 
L 465.315702 223.485136 
L 469.414876 223.807839 
L 473.51405 224.130541 
L 477.613223 224.453243 
L 481.712397 224.775945 
L 485.81157 225.098648 
L 489.910744 225.42135 
L 494.009917 225.744052 
L 498.109091 226.066754 
L 498.109091 192.205114 
L 498.109091 192.205114 
L 494.009917 191.882411 
L 489.910744 191.559709 
L 485.81157 191.237007 
L 481.712397 190.914305 
L 477.613223 190.591602 
L 473.51405 190.2689 
L 469.414876 189.946198 
L 465.315702 189.623496 
L 461.216529 189.300793 
L 457.117355 188.978091 
L 453.018182 188.655389 
L 448.919008 188.332687 
L 444.819835 188.009984 
L 440.720661 187.687282 
L 436.621488 187.36458 
L 432.522314 187.041878 
L 428.42314 186.719175 
L 424.323967 186.396473 
L 420.224793 186.073771 
L 416.12562 185.751069 
L 412.026446 185.428366 
L 407.927273 185.105664 
L 403.828099 184.782962 
L 399.728926 184.46026 
L 395.629752 184.137558 
L 391.530579 183.814855 
L 387.431405 183.492153 
L 383.332231 183.169451 
L 379.233058 182.846749 
L 375.133884 182.524046 
L 371.034711 182.201344 
L 366.935537 181.878642 
L 362.836364 181.55594 
L 358.73719 181.233237 
L 354.638017 180.910535 
L 350.538843 180.587833 
L 346.439669 180.265131 
L 342.340496 179.942428 
L 338.241322 179.619726 
L 334.142149 179.297024 
L 330.042975 178.974322 
L 325.943802 178.651619 
L 321.844628 178.328917 
L 317.745455 178.006215 
L 313.646281 177.683513 
L 309.547107 177.36081 
L 305.447934 177.038108 
L 301.34876 176.715406 
L 297.249587 176.392704 
L 293.150413 176.070002 
L 289.05124 175.747299 
L 284.952066 175.424597 
L 280.852893 175.101895 
L 276.753719 174.779193 
L 272.654545 174.45649 
L 268.555372 174.133788 
L 264.456198 173.811086 
L 260.357025 173.488384 
L 256.257851 173.165681 
L 252.158678 172.842979 
L 248.059504 172.520277 
L 243.960331 172.197575 
L 239.861157 171.874872 
L 235.761983 171.55217 
L 231.66281 171.229468 
L 227.563636 170.906766 
L 223.464463 170.584063 
L 219.365289 170.261361 
L 215.266116 169.938659 
L 211.166942 169.615957 
L 207.067769 169.293255 
L 202.968595 168.970552 
L 198.869421 168.64785 
L 194.770248 168.325148 
L 190.671074 168.002446 
L 186.571901 167.679743 
L 182.472727 167.357041 
L 178.373554 167.034339 
L 174.27438 166.711637 
L 170.175207 166.388934 
L 166.076033 166.066232 
L 161.97686 165.74353 
L 157.877686 165.420828 
L 153.778512 165.098125 
L 149.679339 164.775423 
L 145.580165 164.452721 
L 141.480992 164.130019 
L 137.381818 163.807316 
L 133.282645 163.484614 
L 129.183471 163.161912 
L 125.084298 162.83921 
L 120.985124 162.516507 
L 116.88595 162.193805 
L 112.786777 161.871103 
L 108.687603 161.548401 
L 104.58843 161.225699 
L 100.489256 160.902996 
L 96.390083 160.580294 
L 92.290909 160.257592 
z
" style="fill:#31a354;"/>
   </g>
   <g id="PolyCollection_10">
    <path clip-path="url(#pa395829500)" d="M 92.290909 135.36 
L 92.290909 160.257592 
L 96.390083 160.580294 
L 100.489256 160.902996 
L 104.58843 161.225699 
L 108.687603 161.548401 
L 112.786777 161.871103 
L 116.88595 162.193805 
L 120.985124 162.516507 
L 125.084298 162.83921 
L 129.183471 163.161912 
L 133.282645 163.484614 
L 137.381818 163.807316 
L 141.480992 164.130019 
L 145.580165 164.452721 
L 149.679339 164.775423 
L 153.778512 165.098125 
L 157.877686 165.420828 
L 161.97686 165.74353 
L 166.076033 166.066232 
L 170.175207 166.388934 
L 174.27438 166.711637 
L 178.373554 167.034339 
L 182.472727 167.357041 
L 186.571901 167.679743 
L 190.671074 168.002446 
L 194.770248 168.325148 
L 198.869421 168.64785 
L 202.968595 168.970552 
L 207.067769 169.293255 
L 211.166942 169.615957 
L 215.266116 169.938659 
L 219.365289 170.261361 
L 223.464463 170.584063 
L 227.563636 170.906766 
L 231.66281 171.229468 
L 235.761983 171.55217 
L 239.861157 171.874872 
L 243.960331 172.197575 
L 248.059504 172.520277 
L 252.158678 172.842979 
L 256.257851 173.165681 
L 260.357025 173.488384 
L 264.456198 173.811086 
L 268.555372 174.133788 
L 272.654545 174.45649 
L 276.753719 174.779193 
L 280.852893 175.101895 
L 284.952066 175.424597 
L 289.05124 175.747299 
L 293.150413 176.070002 
L 297.249587 176.392704 
L 301.34876 176.715406 
L 305.447934 177.038108 
L 309.547107 177.36081 
L 313.646281 177.683513 
L 317.745455 178.006215 
L 321.844628 178.328917 
L 325.943802 178.651619 
L 330.042975 178.974322 
L 334.142149 179.297024 
L 338.241322 179.619726 
L 342.340496 179.942428 
L 346.439669 180.265131 
L 350.538843 180.587833 
L 354.638017 180.910535 
L 358.73719 181.233237 
L 362.836364 181.55594 
L 366.935537 181.878642 
L 371.034711 182.201344 
L 375.133884 182.524046 
L 379.233058 182.846749 
L 383.332231 183.169451 
L 387.431405 183.492153 
L 391.530579 183.814855 
L 395.629752 184.137558 
L 399.728926 184.46026 
L 403.828099 184.782962 
L 407.927273 185.105664 
L 412.026446 185.428366 
L 416.12562 185.751069 
L 420.224793 186.073771 
L 424.323967 186.396473 
L 428.42314 186.719175 
L 432.522314 187.041878 
L 436.621488 187.36458 
L 440.720661 187.687282 
L 444.819835 188.009984 
L 448.919008 188.332687 
L 453.018182 188.655389 
L 457.117355 188.978091 
L 461.216529 189.300793 
L 465.315702 189.623496 
L 469.414876 189.946198 
L 473.51405 190.2689 
L 477.613223 190.591602 
L 481.712397 190.914305 
L 485.81157 191.237007 
L 489.910744 191.559709 
L 494.009917 191.882411 
L 498.109091 192.205114 
L 498.109091 192.205114 
L 498.109091 192.205114 
L 494.009917 191.63092 
L 489.910744 191.056727 
L 485.81157 190.482534 
L 481.712397 189.908341 
L 477.613223 189.334148 
L 473.51405 188.759955 
L 469.414876 188.185762 
L 465.315702 187.611569 
L 461.216529 187.037376 
L 457.117355 186.463183 
L 453.018182 185.88899 
L 448.919008 185.314797 
L 444.819835 184.740604 
L 440.720661 184.166411 
L 436.621488 183.592218 
L 432.522314 183.018024 
L 428.42314 182.443831 
L 424.323967 181.869638 
L 420.224793 181.295445 
L 416.12562 180.721252 
L 412.026446 180.147059 
L 407.927273 179.572866 
L 403.828099 178.998673 
L 399.728926 178.42448 
L 395.629752 177.850287 
L 391.530579 177.276094 
L 387.431405 176.701901 
L 383.332231 176.127708 
L 379.233058 175.553515 
L 375.133884 174.979322 
L 371.034711 174.405128 
L 366.935537 173.830935 
L 362.836364 173.256742 
L 358.73719 172.682549 
L 354.638017 172.108356 
L 350.538843 171.534163 
L 346.439669 170.95997 
L 342.340496 170.385777 
L 338.241322 169.811584 
L 334.142149 169.237391 
L 330.042975 168.663198 
L 325.943802 168.089005 
L 321.844628 167.514812 
L 317.745455 166.940619 
L 313.646281 166.366426 
L 309.547107 165.792232 
L 305.447934 165.218039 
L 301.34876 164.643846 
L 297.249587 164.069653 
L 293.150413 163.49546 
L 289.05124 162.921267 
L 284.952066 162.347074 
L 280.852893 161.772881 
L 276.753719 161.198688 
L 272.654545 160.624495 
L 268.555372 160.050302 
L 264.456198 159.476109 
L 260.357025 158.901916 
L 256.257851 158.327723 
L 252.158678 157.75353 
L 248.059504 157.179337 
L 243.960331 156.605143 
L 239.861157 156.03095 
L 235.761983 155.456757 
L 231.66281 154.882564 
L 227.563636 154.308371 
L 223.464463 153.734178 
L 219.365289 153.159985 
L 215.266116 152.585792 
L 211.166942 152.011599 
L 207.067769 151.437406 
L 202.968595 150.863213 
L 198.869421 150.28902 
L 194.770248 149.714827 
L 190.671074 149.140634 
L 186.571901 148.566441 
L 182.472727 147.992247 
L 178.373554 147.418054 
L 174.27438 146.843861 
L 170.175207 146.269668 
L 166.076033 145.695475 
L 161.97686 145.121282 
L 157.877686 144.547089 
L 153.778512 143.972896 
L 149.679339 143.398703 
L 145.580165 142.82451 
L 141.480992 142.250317 
L 137.381818 141.676124 
L 133.282645 141.101931 
L 129.183471 140.527738 
L 125.084298 139.953545 
L 120.985124 139.379351 
L 116.88595 138.805158 
L 112.786777 138.230965 
L 108.687603 137.656772 
L 104.58843 137.082579 
L 100.489256 136.508386 
L 96.390083 135.934193 
L 92.290909 135.36 
z
" style="fill:#74c476;"/>
   </g>
   <g id="PolyCollection_11">
    <path clip-path="url(#pa395829500)" d="M 92.290909 135.36 
L 92.290909 135.36 
L 96.390083 135.934193 
L 100.489256 136.508386 
L 104.58843 137.082579 
L 108.687603 137.656772 
L 112.786777 138.230965 
L 116.88595 138.805158 
L 120.985124 139.379351 
L 125.084298 139.953545 
L 129.183471 140.527738 
L 133.282645 141.101931 
L 137.381818 141.676124 
L 141.480992 142.250317 
L 145.580165 142.82451 
L 149.679339 143.398703 
L 153.778512 143.972896 
L 157.877686 144.547089 
L 161.97686 145.121282 
L 166.076033 145.695475 
L 170.175207 146.269668 
L 174.27438 146.843861 
L 178.373554 147.418054 
L 182.472727 147.992247 
L 186.571901 148.566441 
L 190.671074 149.140634 
L 194.770248 149.714827 
L 198.869421 150.28902 
L 202.968595 150.863213 
L 207.067769 151.437406 
L 211.166942 152.011599 
L 215.266116 152.585792 
L 219.365289 153.159985 
L 223.464463 153.734178 
L 227.563636 154.308371 
L 231.66281 154.882564 
L 235.761983 155.456757 
L 239.861157 156.03095 
L 243.960331 156.605143 
L 248.059504 157.179337 
L 252.158678 157.75353 
L 256.257851 158.327723 
L 260.357025 158.901916 
L 264.456198 159.476109 
L 268.555372 160.050302 
L 272.654545 160.624495 
L 276.753719 161.198688 
L 280.852893 161.772881 
L 284.952066 162.347074 
L 289.05124 162.921267 
L 293.150413 163.49546 
L 297.249587 164.069653 
L 301.34876 164.643846 
L 305.447934 165.218039 
L 309.547107 165.792232 
L 313.646281 166.366426 
L 317.745455 166.940619 
L 321.844628 167.514812 
L 325.943802 168.089005 
L 330.042975 168.663198 
L 334.142149 169.237391 
L 338.241322 169.811584 
L 342.340496 170.385777 
L 346.439669 170.95997 
L 350.538843 171.534163 
L 354.638017 172.108356 
L 358.73719 172.682549 
L 362.836364 173.256742 
L 366.935537 173.830935 
L 371.034711 174.405128 
L 375.133884 174.979322 
L 379.233058 175.553515 
L 383.332231 176.127708 
L 387.431405 176.701901 
L 391.530579 177.276094 
L 395.629752 177.850287 
L 399.728926 178.42448 
L 403.828099 178.998673 
L 407.927273 179.572866 
L 412.026446 180.147059 
L 416.12562 180.721252 
L 420.224793 181.295445 
L 424.323967 181.869638 
L 428.42314 182.443831 
L 432.522314 183.018024 
L 436.621488 183.592218 
L 440.720661 184.166411 
L 444.819835 184.740604 
L 448.919008 185.314797 
L 453.018182 185.88899 
L 457.117355 186.463183 
L 461.216529 187.037376 
L 465.315702 187.611569 
L 469.414876 188.185762 
L 473.51405 188.759955 
L 477.613223 189.334148 
L 481.712397 189.908341 
L 485.81157 190.482534 
L 489.910744 191.056727 
L 494.009917 191.63092 
L 498.109091 192.205114 
L 498.109091 164.712257 
L 498.109091 164.712257 
L 494.009917 164.415769 
L 489.910744 164.119282 
L 485.81157 163.822795 
L 481.712397 163.526307 
L 477.613223 163.22982 
L 473.51405 162.933332 
L 469.414876 162.636845 
L 465.315702 162.340357 
L 461.216529 162.04387 
L 457.117355 161.747382 
L 453.018182 161.450895 
L 448.919008 161.154408 
L 444.819835 160.85792 
L 440.720661 160.561433 
L 436.621488 160.264945 
L 432.522314 159.968458 
L 428.42314 159.67197 
L 424.323967 159.375483 
L 420.224793 159.078995 
L 416.12562 158.782508 
L 412.026446 158.486021 
L 407.927273 158.189533 
L 403.828099 157.893046 
L 399.728926 157.596558 
L 395.629752 157.300071 
L 391.530579 157.003583 
L 387.431405 156.707096 
L 383.332231 156.410608 
L 379.233058 156.114121 
L 375.133884 155.817634 
L 371.034711 155.521146 
L 366.935537 155.224659 
L 362.836364 154.928171 
L 358.73719 154.631684 
L 354.638017 154.335196 
L 350.538843 154.038709 
L 346.439669 153.742221 
L 342.340496 153.445734 
L 338.241322 153.149247 
L 334.142149 152.852759 
L 330.042975 152.556272 
L 325.943802 152.259784 
L 321.844628 151.963297 
L 317.745455 151.666809 
L 313.646281 151.370322 
L 309.547107 151.073835 
L 305.447934 150.777347 
L 301.34876 150.48086 
L 297.249587 150.184372 
L 293.150413 149.887885 
L 289.05124 149.591397 
L 284.952066 149.29491 
L 280.852893 148.998422 
L 276.753719 148.701935 
L 272.654545 148.405448 
L 268.555372 148.10896 
L 264.456198 147.812473 
L 260.357025 147.515985 
L 256.257851 147.219498 
L 252.158678 146.92301 
L 248.059504 146.626523 
L 243.960331 146.330035 
L 239.861157 146.033548 
L 235.761983 145.737061 
L 231.66281 145.440573 
L 227.563636 145.144086 
L 223.464463 144.847598 
L 219.365289 144.551111 
L 215.266116 144.254623 
L 211.166942 143.958136 
L 207.067769 143.661648 
L 202.968595 143.365161 
L 198.869421 143.068674 
L 194.770248 142.772186 
L 190.671074 142.475699 
L 186.571901 142.179211 
L 182.472727 141.882724 
L 178.373554 141.586236 
L 174.27438 141.289749 
L 170.175207 140.993261 
L 166.076033 140.696774 
L 161.97686 140.400287 
L 157.877686 140.103799 
L 153.778512 139.807312 
L 149.679339 139.510824 
L 145.580165 139.214337 
L 141.480992 138.917849 
L 137.381818 138.621362 
L 133.282645 138.324874 
L 129.183471 138.028387 
L 125.084298 137.7319 
L 120.985124 137.435412 
L 116.88595 137.138925 
L 112.786777 136.842437 
L 108.687603 136.54595 
L 104.58843 136.249462 
L 100.489256 135.952975 
L 96.390083 135.656487 
L 92.290909 135.36 
z
" style="fill:#a1d99b;"/>
   </g>
   <g id="PolyCollection_12">
    <path clip-path="url(#pa395829500)" d="M 92.290909 135.36 
L 92.290909 135.36 
L 96.390083 135.656487 
L 100.489256 135.952975 
L 104.58843 136.249462 
L 108.687603 136.54595 
L 112.786777 136.842437 
L 116.88595 137.138925 
L 120.985124 137.435412 
L 125.084298 137.7319 
L 129.183471 138.028387 
L 133.282645 138.324874 
L 137.381818 138.621362 
L 141.480992 138.917849 
L 145.580165 139.214337 
L 149.679339 139.510824 
L 153.778512 139.807312 
L 157.877686 140.103799 
L 161.97686 140.400287 
L 166.076033 140.696774 
L 170.175207 140.993261 
L 174.27438 141.289749 
L 178.373554 141.586236 
L 182.472727 141.882724 
L 186.571901 142.179211 
L 190.671074 142.475699 
L 194.770248 142.772186 
L 198.869421 143.068674 
L 202.968595 143.365161 
L 207.067769 143.661648 
L 211.166942 143.958136 
L 215.266116 144.254623 
L 219.365289 144.551111 
L 223.464463 144.847598 
L 227.563636 145.144086 
L 231.66281 145.440573 
L 235.761983 145.737061 
L 239.861157 146.033548 
L 243.960331 146.330035 
L 248.059504 146.626523 
L 252.158678 146.92301 
L 256.257851 147.219498 
L 260.357025 147.515985 
L 264.456198 147.812473 
L 268.555372 148.10896 
L 272.654545 148.405448 
L 276.753719 148.701935 
L 280.852893 148.998422 
L 284.952066 149.29491 
L 289.05124 149.591397 
L 293.150413 149.887885 
L 297.249587 150.184372 
L 301.34876 150.48086 
L 305.447934 150.777347 
L 309.547107 151.073835 
L 313.646281 151.370322 
L 317.745455 151.666809 
L 321.844628 151.963297 
L 325.943802 152.259784 
L 330.042975 152.556272 
L 334.142149 152.852759 
L 338.241322 153.149247 
L 342.340496 153.445734 
L 346.439669 153.742221 
L 350.538843 154.038709 
L 354.638017 154.335196 
L 358.73719 154.631684 
L 362.836364 154.928171 
L 366.935537 155.224659 
L 371.034711 155.521146 
L 375.133884 155.817634 
L 379.233058 156.114121 
L 383.332231 156.410608 
L 387.431405 156.707096 
L 391.530579 157.003583 
L 395.629752 157.300071 
L 399.728926 157.596558 
L 403.828099 157.893046 
L 407.927273 158.189533 
L 412.026446 158.486021 
L 416.12562 158.782508 
L 420.224793 159.078995 
L 424.323967 159.375483 
L 428.42314 159.67197 
L 432.522314 159.968458 
L 436.621488 160.264945 
L 440.720661 160.561433 
L 444.819835 160.85792 
L 448.919008 161.154408 
L 453.018182 161.450895 
L 457.117355 161.747382 
L 461.216529 162.04387 
L 465.315702 162.340357 
L 469.414876 162.636845 
L 473.51405 162.933332 
L 477.613223 163.22982 
L 481.712397 163.526307 
L 485.81157 163.822795 
L 489.910744 164.119282 
L 494.009917 164.415769 
L 498.109091 164.712257 
L 498.109091 135.36 
L 498.109091 135.36 
L 494.009917 135.36 
L 489.910744 135.36 
L 485.81157 135.36 
L 481.712397 135.36 
L 477.613223 135.36 
L 473.51405 135.36 
L 469.414876 135.36 
L 465.315702 135.36 
L 461.216529 135.36 
L 457.117355 135.36 
L 453.018182 135.36 
L 448.919008 135.36 
L 444.819835 135.36 
L 440.720661 135.36 
L 436.621488 135.36 
L 432.522314 135.36 
L 428.42314 135.36 
L 424.323967 135.36 
L 420.224793 135.36 
L 416.12562 135.36 
L 412.026446 135.36 
L 407.927273 135.36 
L 403.828099 135.36 
L 399.728926 135.36 
L 395.629752 135.36 
L 391.530579 135.36 
L 387.431405 135.36 
L 383.332231 135.36 
L 379.233058 135.36 
L 375.133884 135.36 
L 371.034711 135.36 
L 366.935537 135.36 
L 362.836364 135.36 
L 358.73719 135.36 
L 354.638017 135.36 
L 350.538843 135.36 
L 346.439669 135.36 
L 342.340496 135.36 
L 338.241322 135.36 
L 334.142149 135.36 
L 330.042975 135.36 
L 325.943802 135.36 
L 321.844628 135.36 
L 317.745455 135.36 
L 313.646281 135.36 
L 309.547107 135.36 
L 305.447934 135.36 
L 301.34876 135.36 
L 297.249587 135.36 
L 293.150413 135.36 
L 289.05124 135.36 
L 284.952066 135.36 
L 280.852893 135.36 
L 276.753719 135.36 
L 272.654545 135.36 
L 268.555372 135.36 
L 264.456198 135.36 
L 260.357025 135.36 
L 256.257851 135.36 
L 252.158678 135.36 
L 248.059504 135.36 
L 243.960331 135.36 
L 239.861157 135.36 
L 235.761983 135.36 
L 231.66281 135.36 
L 227.563636 135.36 
L 223.464463 135.36 
L 219.365289 135.36 
L 215.266116 135.36 
L 211.166942 135.36 
L 207.067769 135.36 
L 202.968595 135.36 
L 198.869421 135.36 
L 194.770248 135.36 
L 190.671074 135.36 
L 186.571901 135.36 
L 182.472727 135.36 
L 178.373554 135.36 
L 174.27438 135.36 
L 170.175207 135.36 
L 166.076033 135.36 
L 161.97686 135.36 
L 157.877686 135.36 
L 153.778512 135.36 
L 149.679339 135.36 
L 145.580165 135.36 
L 141.480992 135.36 
L 137.381818 135.36 
L 133.282645 135.36 
L 129.183471 135.36 
L 125.084298 135.36 
L 120.985124 135.36 
L 116.88595 135.36 
L 112.786777 135.36 
L 108.687603 135.36 
L 104.58843 135.36 
L 100.489256 135.36 
L 96.390083 135.36 
L 92.290909 135.36 
z
" style="fill:#c7e9c0;"/>
   </g>
   <g id="matplotlib.axis_1">
    <g id="xtick_1">
     <g id="line2d_1">
      <defs>
       <path d="M 0 0 
L 0 3.5 
" id="md3ec729468" style="stroke:#000000;stroke-width:0.8;"/>
      </defs>
      <g>
       <use style="stroke:#000000;stroke-width:0.8;" x="92.290909" xlink:href="#md3ec729468" y="768.96"/>
      </g>
     </g>
     <g id="text_1">
      <!-- 0 -->
      <g transform="translate(89.109659 783.558437)scale(0.1 -0.1)">
       <defs>
        <path d="M 2034 4250 
Q 1547 4250 1301 3770 
Q 1056 3291 1056 2328 
Q 1056 1369 1301 889 
Q 1547 409 2034 409 
Q 2525 409 2770 889 
Q 3016 1369 3016 2328 
Q 3016 3291 2770 3770 
Q 2525 4250 2034 4250 
z
M 2034 4750 
Q 2819 4750 3233 4129 
Q 3647 3509 3647 2328 
Q 3647 1150 3233 529 
Q 2819 -91 2034 -91 
Q 1250 -91 836 529 
Q 422 1150 422 2328 
Q 422 3509 836 4129 
Q 1250 4750 2034 4750 
z
" id="DejaVuSans-30" transform="scale(0.015625)"/>
       </defs>
       <use xlink:href="#DejaVuSans-30"/>
      </g>
     </g>
    </g>
    <g id="xtick_2">
     <g id="line2d_2">
      <g>
       <use style="stroke:#000000;stroke-width:0.8;" x="173.454545" xlink:href="#md3ec729468" y="768.96"/>
      </g>
     </g>
     <g id="text_2">
      <!-- 20 -->
      <g transform="translate(167.092045 783.558437)scale(0.1 -0.1)">
       <defs>
        <path d="M 1228 531 
L 3431 531 
L 3431 0 
L 469 0 
L 469 531 
Q 828 903 1448 1529 
Q 2069 2156 2228 2338 
Q 2531 2678 2651 2914 
Q 2772 3150 2772 3378 
Q 2772 3750 2511 3984 
Q 2250 4219 1831 4219 
Q 1534 4219 1204 4116 
Q 875 4013 500 3803 
L 500 4441 
Q 881 4594 1212 4672 
Q 1544 4750 1819 4750 
Q 2544 4750 2975 4387 
Q 3406 4025 3406 3419 
Q 3406 3131 3298 2873 
Q 3191 2616 2906 2266 
Q 2828 2175 2409 1742 
Q 1991 1309 1228 531 
z
" id="DejaVuSans-32" transform="scale(0.015625)"/>
       </defs>
       <use xlink:href="#DejaVuSans-32"/>
       <use x="63.623047" xlink:href="#DejaVuSans-30"/>
      </g>
     </g>
    </g>
    <g id="xtick_3">
     <g id="line2d_3">
      <g>
       <use style="stroke:#000000;stroke-width:0.8;" x="254.618182" xlink:href="#md3ec729468" y="768.96"/>
      </g>
     </g>
     <g id="text_3">
      <!-- 40 -->
      <g transform="translate(248.255682 783.558437)scale(0.1 -0.1)">
       <defs>
        <path d="M 2419 4116 
L 825 1625 
L 2419 1625 
L 2419 4116 
z
M 2253 4666 
L 3047 4666 
L 3047 1625 
L 3713 1625 
L 3713 1100 
L 3047 1100 
L 3047 0 
L 2419 0 
L 2419 1100 
L 313 1100 
L 313 1709 
L 2253 4666 
z
" id="DejaVuSans-34" transform="scale(0.015625)"/>
       </defs>
       <use xlink:href="#DejaVuSans-34"/>
       <use x="63.623047" xlink:href="#DejaVuSans-30"/>
      </g>
     </g>
    </g>
    <g id="xtick_4">
     <g id="line2d_4">
      <g>
       <use style="stroke:#000000;stroke-width:0.8;" x="335.781818" xlink:href="#md3ec729468" y="768.96"/>
      </g>
     </g>
     <g id="text_4">
      <!-- 60 -->
      <g transform="translate(329.419318 783.558437)scale(0.1 -0.1)">
       <defs>
        <path d="M 2113 2584 
Q 1688 2584 1439 2293 
Q 1191 2003 1191 1497 
Q 1191 994 1439 701 
Q 1688 409 2113 409 
Q 2538 409 2786 701 
Q 3034 994 3034 1497 
Q 3034 2003 2786 2293 
Q 2538 2584 2113 2584 
z
M 3366 4563 
L 3366 3988 
Q 3128 4100 2886 4159 
Q 2644 4219 2406 4219 
Q 1781 4219 1451 3797 
Q 1122 3375 1075 2522 
Q 1259 2794 1537 2939 
Q 1816 3084 2150 3084 
Q 2853 3084 3261 2657 
Q 3669 2231 3669 1497 
Q 3669 778 3244 343 
Q 2819 -91 2113 -91 
Q 1303 -91 875 529 
Q 447 1150 447 2328 
Q 447 3434 972 4092 
Q 1497 4750 2381 4750 
Q 2619 4750 2861 4703 
Q 3103 4656 3366 4563 
z
" id="DejaVuSans-36" transform="scale(0.015625)"/>
       </defs>
       <use xlink:href="#DejaVuSans-36"/>
       <use x="63.623047" xlink:href="#DejaVuSans-30"/>
      </g>
     </g>
    </g>
    <g id="xtick_5">
     <g id="line2d_5">
      <g>
       <use style="stroke:#000000;stroke-width:0.8;" x="416.945455" xlink:href="#md3ec729468" y="768.96"/>
      </g>
     </g>
     <g id="text_5">
      <!-- 80 -->
      <g transform="translate(410.582955 783.558437)scale(0.1 -0.1)">
       <defs>
        <path d="M 2034 2216 
Q 1584 2216 1326 1975 
Q 1069 1734 1069 1313 
Q 1069 891 1326 650 
Q 1584 409 2034 409 
Q 2484 409 2743 651 
Q 3003 894 3003 1313 
Q 3003 1734 2745 1975 
Q 2488 2216 2034 2216 
z
M 1403 2484 
Q 997 2584 770 2862 
Q 544 3141 544 3541 
Q 544 4100 942 4425 
Q 1341 4750 2034 4750 
Q 2731 4750 3128 4425 
Q 3525 4100 3525 3541 
Q 3525 3141 3298 2862 
Q 3072 2584 2669 2484 
Q 3125 2378 3379 2068 
Q 3634 1759 3634 1313 
Q 3634 634 3220 271 
Q 2806 -91 2034 -91 
Q 1263 -91 848 271 
Q 434 634 434 1313 
Q 434 1759 690 2068 
Q 947 2378 1403 2484 
z
M 1172 3481 
Q 1172 3119 1398 2916 
Q 1625 2713 2034 2713 
Q 2441 2713 2670 2916 
Q 2900 3119 2900 3481 
Q 2900 3844 2670 4047 
Q 2441 4250 2034 4250 
Q 1625 4250 1398 4047 
Q 1172 3844 1172 3481 
z
" id="DejaVuSans-38" transform="scale(0.015625)"/>
       </defs>
       <use xlink:href="#DejaVuSans-38"/>
       <use x="63.623047" xlink:href="#DejaVuSans-30"/>
      </g>
     </g>
    </g>
    <g id="xtick_6">
     <g id="line2d_6">
      <g>
       <use style="stroke:#000000;stroke-width:0.8;" x="498.109091" xlink:href="#md3ec729468" y="768.96"/>
      </g>
     </g>
     <g id="text_6">
      <!-- 100 -->
      <g transform="translate(488.565341 783.558437)scale(0.1 -0.1)">
       <defs>
        <path d="M 794 531 
L 1825 531 
L 1825 4091 
L 703 3866 
L 703 4441 
L 1819 4666 
L 2450 4666 
L 2450 531 
L 3481 531 
L 3481 0 
L 794 0 
L 794 531 
z
" id="DejaVuSans-31" transform="scale(0.015625)"/>
       </defs>
       <use xlink:href="#DejaVuSans-31"/>
       <use x="63.623047" xlink:href="#DejaVuSans-30"/>
       <use x="127.246094" xlink:href="#DejaVuSans-30"/>
      </g>
     </g>
    </g>
    <g id="text_7">
     <!-- Proportion of New Technology in Grid (%) -->
     <g transform="translate(192.432031 797.236562)scale(0.1 -0.1)">
      <defs>
       <path d="M 1259 4147 
L 1259 2394 
L 2053 2394 
Q 2494 2394 2734 2622 
Q 2975 2850 2975 3272 
Q 2975 3691 2734 3919 
Q 2494 4147 2053 4147 
L 1259 4147 
z
M 628 4666 
L 2053 4666 
Q 2838 4666 3239 4311 
Q 3641 3956 3641 3272 
Q 3641 2581 3239 2228 
Q 2838 1875 2053 1875 
L 1259 1875 
L 1259 0 
L 628 0 
L 628 4666 
z
" id="DejaVuSans-50" transform="scale(0.015625)"/>
       <path d="M 2631 2963 
Q 2534 3019 2420 3045 
Q 2306 3072 2169 3072 
Q 1681 3072 1420 2755 
Q 1159 2438 1159 1844 
L 1159 0 
L 581 0 
L 581 3500 
L 1159 3500 
L 1159 2956 
Q 1341 3275 1631 3429 
Q 1922 3584 2338 3584 
Q 2397 3584 2469 3576 
Q 2541 3569 2628 3553 
L 2631 2963 
z
" id="DejaVuSans-72" transform="scale(0.015625)"/>
       <path d="M 1959 3097 
Q 1497 3097 1228 2736 
Q 959 2375 959 1747 
Q 959 1119 1226 758 
Q 1494 397 1959 397 
Q 2419 397 2687 759 
Q 2956 1122 2956 1747 
Q 2956 2369 2687 2733 
Q 2419 3097 1959 3097 
z
M 1959 3584 
Q 2709 3584 3137 3096 
Q 3566 2609 3566 1747 
Q 3566 888 3137 398 
Q 2709 -91 1959 -91 
Q 1206 -91 779 398 
Q 353 888 353 1747 
Q 353 2609 779 3096 
Q 1206 3584 1959 3584 
z
" id="DejaVuSans-6f" transform="scale(0.015625)"/>
       <path d="M 1159 525 
L 1159 -1331 
L 581 -1331 
L 581 3500 
L 1159 3500 
L 1159 2969 
Q 1341 3281 1617 3432 
Q 1894 3584 2278 3584 
Q 2916 3584 3314 3078 
Q 3713 2572 3713 1747 
Q 3713 922 3314 415 
Q 2916 -91 2278 -91 
Q 1894 -91 1617 61 
Q 1341 213 1159 525 
z
M 3116 1747 
Q 3116 2381 2855 2742 
Q 2594 3103 2138 3103 
Q 1681 3103 1420 2742 
Q 1159 2381 1159 1747 
Q 1159 1113 1420 752 
Q 1681 391 2138 391 
Q 2594 391 2855 752 
Q 3116 1113 3116 1747 
z
" id="DejaVuSans-70" transform="scale(0.015625)"/>
       <path d="M 1172 4494 
L 1172 3500 
L 2356 3500 
L 2356 3053 
L 1172 3053 
L 1172 1153 
Q 1172 725 1289 603 
Q 1406 481 1766 481 
L 2356 481 
L 2356 0 
L 1766 0 
Q 1100 0 847 248 
Q 594 497 594 1153 
L 594 3053 
L 172 3053 
L 172 3500 
L 594 3500 
L 594 4494 
L 1172 4494 
z
" id="DejaVuSans-74" transform="scale(0.015625)"/>
       <path d="M 603 3500 
L 1178 3500 
L 1178 0 
L 603 0 
L 603 3500 
z
M 603 4863 
L 1178 4863 
L 1178 4134 
L 603 4134 
L 603 4863 
z
" id="DejaVuSans-69" transform="scale(0.015625)"/>
       <path d="M 3513 2113 
L 3513 0 
L 2938 0 
L 2938 2094 
Q 2938 2591 2744 2837 
Q 2550 3084 2163 3084 
Q 1697 3084 1428 2787 
Q 1159 2491 1159 1978 
L 1159 0 
L 581 0 
L 581 3500 
L 1159 3500 
L 1159 2956 
Q 1366 3272 1645 3428 
Q 1925 3584 2291 3584 
Q 2894 3584 3203 3211 
Q 3513 2838 3513 2113 
z
" id="DejaVuSans-6e" transform="scale(0.015625)"/>
       <path id="DejaVuSans-20" transform="scale(0.015625)"/>
       <path d="M 2375 4863 
L 2375 4384 
L 1825 4384 
Q 1516 4384 1395 4259 
Q 1275 4134 1275 3809 
L 1275 3500 
L 2222 3500 
L 2222 3053 
L 1275 3053 
L 1275 0 
L 697 0 
L 697 3053 
L 147 3053 
L 147 3500 
L 697 3500 
L 697 3744 
Q 697 4328 969 4595 
Q 1241 4863 1831 4863 
L 2375 4863 
z
" id="DejaVuSans-66" transform="scale(0.015625)"/>
       <path d="M 628 4666 
L 1478 4666 
L 3547 763 
L 3547 4666 
L 4159 4666 
L 4159 0 
L 3309 0 
L 1241 3903 
L 1241 0 
L 628 0 
L 628 4666 
z
" id="DejaVuSans-4e" transform="scale(0.015625)"/>
       <path d="M 3597 1894 
L 3597 1613 
L 953 1613 
Q 991 1019 1311 708 
Q 1631 397 2203 397 
Q 2534 397 2845 478 
Q 3156 559 3463 722 
L 3463 178 
Q 3153 47 2828 -22 
Q 2503 -91 2169 -91 
Q 1331 -91 842 396 
Q 353 884 353 1716 
Q 353 2575 817 3079 
Q 1281 3584 2069 3584 
Q 2775 3584 3186 3129 
Q 3597 2675 3597 1894 
z
M 3022 2063 
Q 3016 2534 2758 2815 
Q 2500 3097 2075 3097 
Q 1594 3097 1305 2825 
Q 1016 2553 972 2059 
L 3022 2063 
z
" id="DejaVuSans-65" transform="scale(0.015625)"/>
       <path d="M 269 3500 
L 844 3500 
L 1563 769 
L 2278 3500 
L 2956 3500 
L 3675 769 
L 4391 3500 
L 4966 3500 
L 4050 0 
L 3372 0 
L 2619 2869 
L 1863 0 
L 1184 0 
L 269 3500 
z
" id="DejaVuSans-77" transform="scale(0.015625)"/>
       <path d="M -19 4666 
L 3928 4666 
L 3928 4134 
L 2272 4134 
L 2272 0 
L 1638 0 
L 1638 4134 
L -19 4134 
L -19 4666 
z
" id="DejaVuSans-54" transform="scale(0.015625)"/>
       <path d="M 3122 3366 
L 3122 2828 
Q 2878 2963 2633 3030 
Q 2388 3097 2138 3097 
Q 1578 3097 1268 2742 
Q 959 2388 959 1747 
Q 959 1106 1268 751 
Q 1578 397 2138 397 
Q 2388 397 2633 464 
Q 2878 531 3122 666 
L 3122 134 
Q 2881 22 2623 -34 
Q 2366 -91 2075 -91 
Q 1284 -91 818 406 
Q 353 903 353 1747 
Q 353 2603 823 3093 
Q 1294 3584 2113 3584 
Q 2378 3584 2631 3529 
Q 2884 3475 3122 3366 
z
" id="DejaVuSans-63" transform="scale(0.015625)"/>
       <path d="M 3513 2113 
L 3513 0 
L 2938 0 
L 2938 2094 
Q 2938 2591 2744 2837 
Q 2550 3084 2163 3084 
Q 1697 3084 1428 2787 
Q 1159 2491 1159 1978 
L 1159 0 
L 581 0 
L 581 4863 
L 1159 4863 
L 1159 2956 
Q 1366 3272 1645 3428 
Q 1925 3584 2291 3584 
Q 2894 3584 3203 3211 
Q 3513 2838 3513 2113 
z
" id="DejaVuSans-68" transform="scale(0.015625)"/>
       <path d="M 603 4863 
L 1178 4863 
L 1178 0 
L 603 0 
L 603 4863 
z
" id="DejaVuSans-6c" transform="scale(0.015625)"/>
       <path d="M 2906 1791 
Q 2906 2416 2648 2759 
Q 2391 3103 1925 3103 
Q 1463 3103 1205 2759 
Q 947 2416 947 1791 
Q 947 1169 1205 825 
Q 1463 481 1925 481 
Q 2391 481 2648 825 
Q 2906 1169 2906 1791 
z
M 3481 434 
Q 3481 -459 3084 -895 
Q 2688 -1331 1869 -1331 
Q 1566 -1331 1297 -1286 
Q 1028 -1241 775 -1147 
L 775 -588 
Q 1028 -725 1275 -790 
Q 1522 -856 1778 -856 
Q 2344 -856 2625 -561 
Q 2906 -266 2906 331 
L 2906 616 
Q 2728 306 2450 153 
Q 2172 0 1784 0 
Q 1141 0 747 490 
Q 353 981 353 1791 
Q 353 2603 747 3093 
Q 1141 3584 1784 3584 
Q 2172 3584 2450 3431 
Q 2728 3278 2906 2969 
L 2906 3500 
L 3481 3500 
L 3481 434 
z
" id="DejaVuSans-67" transform="scale(0.015625)"/>
       <path d="M 2059 -325 
Q 1816 -950 1584 -1140 
Q 1353 -1331 966 -1331 
L 506 -1331 
L 506 -850 
L 844 -850 
Q 1081 -850 1212 -737 
Q 1344 -625 1503 -206 
L 1606 56 
L 191 3500 
L 800 3500 
L 1894 763 
L 2988 3500 
L 3597 3500 
L 2059 -325 
z
" id="DejaVuSans-79" transform="scale(0.015625)"/>
       <path d="M 3809 666 
L 3809 1919 
L 2778 1919 
L 2778 2438 
L 4434 2438 
L 4434 434 
Q 4069 175 3628 42 
Q 3188 -91 2688 -91 
Q 1594 -91 976 548 
Q 359 1188 359 2328 
Q 359 3472 976 4111 
Q 1594 4750 2688 4750 
Q 3144 4750 3555 4637 
Q 3966 4525 4313 4306 
L 4313 3634 
Q 3963 3931 3569 4081 
Q 3175 4231 2741 4231 
Q 1884 4231 1454 3753 
Q 1025 3275 1025 2328 
Q 1025 1384 1454 906 
Q 1884 428 2741 428 
Q 3075 428 3337 486 
Q 3600 544 3809 666 
z
" id="DejaVuSans-47" transform="scale(0.015625)"/>
       <path d="M 2906 2969 
L 2906 4863 
L 3481 4863 
L 3481 0 
L 2906 0 
L 2906 525 
Q 2725 213 2448 61 
Q 2172 -91 1784 -91 
Q 1150 -91 751 415 
Q 353 922 353 1747 
Q 353 2572 751 3078 
Q 1150 3584 1784 3584 
Q 2172 3584 2448 3432 
Q 2725 3281 2906 2969 
z
M 947 1747 
Q 947 1113 1208 752 
Q 1469 391 1925 391 
Q 2381 391 2643 752 
Q 2906 1113 2906 1747 
Q 2906 2381 2643 2742 
Q 2381 3103 1925 3103 
Q 1469 3103 1208 2742 
Q 947 2381 947 1747 
z
" id="DejaVuSans-64" transform="scale(0.015625)"/>
       <path d="M 1984 4856 
Q 1566 4138 1362 3434 
Q 1159 2731 1159 2009 
Q 1159 1288 1364 580 
Q 1569 -128 1984 -844 
L 1484 -844 
Q 1016 -109 783 600 
Q 550 1309 550 2009 
Q 550 2706 781 3412 
Q 1013 4119 1484 4856 
L 1984 4856 
z
" id="DejaVuSans-28" transform="scale(0.015625)"/>
       <path d="M 4653 2053 
Q 4381 2053 4226 1822 
Q 4072 1591 4072 1178 
Q 4072 772 4226 539 
Q 4381 306 4653 306 
Q 4919 306 5073 539 
Q 5228 772 5228 1178 
Q 5228 1588 5073 1820 
Q 4919 2053 4653 2053 
z
M 4653 2450 
Q 5147 2450 5437 2106 
Q 5728 1763 5728 1178 
Q 5728 594 5436 251 
Q 5144 -91 4653 -91 
Q 4153 -91 3862 251 
Q 3572 594 3572 1178 
Q 3572 1766 3864 2108 
Q 4156 2450 4653 2450 
z
M 1428 4353 
Q 1159 4353 1004 4120 
Q 850 3888 850 3481 
Q 850 3069 1003 2837 
Q 1156 2606 1428 2606 
Q 1700 2606 1854 2837 
Q 2009 3069 2009 3481 
Q 2009 3884 1853 4118 
Q 1697 4353 1428 4353 
z
M 4250 4750 
L 4750 4750 
L 1831 -91 
L 1331 -91 
L 4250 4750 
z
M 1428 4750 
Q 1922 4750 2215 4408 
Q 2509 4066 2509 3481 
Q 2509 2891 2217 2550 
Q 1925 2209 1428 2209 
Q 931 2209 642 2551 
Q 353 2894 353 3481 
Q 353 4063 643 4406 
Q 934 4750 1428 4750 
z
" id="DejaVuSans-25" transform="scale(0.015625)"/>
       <path d="M 513 4856 
L 1013 4856 
Q 1481 4119 1714 3412 
Q 1947 2706 1947 2009 
Q 1947 1309 1714 600 
Q 1481 -109 1013 -844 
L 513 -844 
Q 928 -128 1133 580 
Q 1338 1288 1338 2009 
Q 1338 2731 1133 3434 
Q 928 4138 513 4856 
z
" id="DejaVuSans-29" transform="scale(0.015625)"/>
      </defs>
      <use xlink:href="#DejaVuSans-50"/>
      <use x="58.552734" xlink:href="#DejaVuSans-72"/>
      <use x="97.416016" xlink:href="#DejaVuSans-6f"/>
      <use x="158.597656" xlink:href="#DejaVuSans-70"/>
      <use x="222.074219" xlink:href="#DejaVuSans-6f"/>
      <use x="283.255859" xlink:href="#DejaVuSans-72"/>
      <use x="324.369141" xlink:href="#DejaVuSans-74"/>
      <use x="363.578125" xlink:href="#DejaVuSans-69"/>
      <use x="391.361328" xlink:href="#DejaVuSans-6f"/>
      <use x="452.542969" xlink:href="#DejaVuSans-6e"/>
      <use x="515.921875" xlink:href="#DejaVuSans-20"/>
      <use x="547.708984" xlink:href="#DejaVuSans-6f"/>
      <use x="608.890625" xlink:href="#DejaVuSans-66"/>
      <use x="644.095703" xlink:href="#DejaVuSans-20"/>
      <use x="675.882812" xlink:href="#DejaVuSans-4e"/>
      <use x="750.6875" xlink:href="#DejaVuSans-65"/>
      <use x="812.210938" xlink:href="#DejaVuSans-77"/>
      <use x="893.998047" xlink:href="#DejaVuSans-20"/>
      <use x="925.785156" xlink:href="#DejaVuSans-54"/>
      <use x="969.869141" xlink:href="#DejaVuSans-65"/>
      <use x="1031.392578" xlink:href="#DejaVuSans-63"/>
      <use x="1086.373047" xlink:href="#DejaVuSans-68"/>
      <use x="1149.751953" xlink:href="#DejaVuSans-6e"/>
      <use x="1213.130859" xlink:href="#DejaVuSans-6f"/>
      <use x="1274.3125" xlink:href="#DejaVuSans-6c"/>
      <use x="1302.095703" xlink:href="#DejaVuSans-6f"/>
      <use x="1363.277344" xlink:href="#DejaVuSans-67"/>
      <use x="1426.753906" xlink:href="#DejaVuSans-79"/>
      <use x="1485.933594" xlink:href="#DejaVuSans-20"/>
      <use x="1517.720703" xlink:href="#DejaVuSans-69"/>
      <use x="1545.503906" xlink:href="#DejaVuSans-6e"/>
      <use x="1608.882812" xlink:href="#DejaVuSans-20"/>
      <use x="1640.669922" xlink:href="#DejaVuSans-47"/>
      <use x="1718.160156" xlink:href="#DejaVuSans-72"/>
      <use x="1759.273438" xlink:href="#DejaVuSans-69"/>
      <use x="1787.056641" xlink:href="#DejaVuSans-64"/>
      <use x="1850.533203" xlink:href="#DejaVuSans-20"/>
      <use x="1882.320312" xlink:href="#DejaVuSans-28"/>
      <use x="1921.333984" xlink:href="#DejaVuSans-25"/>
      <use x="2016.353516" xlink:href="#DejaVuSans-29"/>
     </g>
    </g>
   </g>
   <g id="matplotlib.axis_2">
    <g id="ytick_1">
     <g id="line2d_7">
      <defs>
       <path d="M 0 0 
L -3.5 0 
" id="m609ccb75ae" style="stroke:#000000;stroke-width:0.8;"/>
      </defs>
      <g>
       <use style="stroke:#000000;stroke-width:0.8;" x="72" xlink:href="#m609ccb75ae" y="768.96"/>
      </g>
     </g>
     <g id="text_8">
      <!-- 0 -->
      <g transform="translate(58.6375 772.759219)scale(0.1 -0.1)">
       <use xlink:href="#DejaVuSans-30"/>
      </g>
     </g>
    </g>
    <g id="ytick_2">
     <g id="line2d_8">
      <g>
       <use style="stroke:#000000;stroke-width:0.8;" x="72" xlink:href="#m609ccb75ae" y="662.941741"/>
      </g>
     </g>
     <g id="text_9">
      <!-- 50 -->
      <g transform="translate(52.275 666.74096)scale(0.1 -0.1)">
       <defs>
        <path d="M 691 4666 
L 3169 4666 
L 3169 4134 
L 1269 4134 
L 1269 2991 
Q 1406 3038 1543 3061 
Q 1681 3084 1819 3084 
Q 2600 3084 3056 2656 
Q 3513 2228 3513 1497 
Q 3513 744 3044 326 
Q 2575 -91 1722 -91 
Q 1428 -91 1123 -41 
Q 819 9 494 109 
L 494 744 
Q 775 591 1075 516 
Q 1375 441 1709 441 
Q 2250 441 2565 725 
Q 2881 1009 2881 1497 
Q 2881 1984 2565 2268 
Q 2250 2553 1709 2553 
Q 1456 2553 1204 2497 
Q 953 2441 691 2322 
L 691 4666 
z
" id="DejaVuSans-35" transform="scale(0.015625)"/>
       </defs>
       <use xlink:href="#DejaVuSans-35"/>
       <use x="63.623047" xlink:href="#DejaVuSans-30"/>
      </g>
     </g>
    </g>
    <g id="ytick_3">
     <g id="line2d_9">
      <g>
       <use style="stroke:#000000;stroke-width:0.8;" x="72" xlink:href="#m609ccb75ae" y="556.923482"/>
      </g>
     </g>
     <g id="text_10">
      <!-- 100 -->
      <g transform="translate(45.9125 560.722701)scale(0.1 -0.1)">
       <use xlink:href="#DejaVuSans-31"/>
       <use x="63.623047" xlink:href="#DejaVuSans-30"/>
       <use x="127.246094" xlink:href="#DejaVuSans-30"/>
      </g>
     </g>
    </g>
    <g id="ytick_4">
     <g id="line2d_10">
      <g>
       <use style="stroke:#000000;stroke-width:0.8;" x="72" xlink:href="#m609ccb75ae" y="450.905223"/>
      </g>
     </g>
     <g id="text_11">
      <!-- 150 -->
      <g transform="translate(45.9125 454.704442)scale(0.1 -0.1)">
       <use xlink:href="#DejaVuSans-31"/>
       <use x="63.623047" xlink:href="#DejaVuSans-35"/>
       <use x="127.246094" xlink:href="#DejaVuSans-30"/>
      </g>
     </g>
    </g>
    <g id="ytick_5">
     <g id="line2d_11">
      <g>
       <use style="stroke:#000000;stroke-width:0.8;" x="72" xlink:href="#m609ccb75ae" y="344.886964"/>
      </g>
     </g>
     <g id="text_12">
      <!-- 200 -->
      <g transform="translate(45.9125 348.686183)scale(0.1 -0.1)">
       <use xlink:href="#DejaVuSans-32"/>
       <use x="63.623047" xlink:href="#DejaVuSans-30"/>
       <use x="127.246094" xlink:href="#DejaVuSans-30"/>
      </g>
     </g>
    </g>
    <g id="ytick_6">
     <g id="line2d_12">
      <g>
       <use style="stroke:#000000;stroke-width:0.8;" x="72" xlink:href="#m609ccb75ae" y="238.868705"/>
      </g>
     </g>
     <g id="text_13">
      <!-- 250 -->
      <g transform="translate(45.9125 242.667924)scale(0.1 -0.1)">
       <use xlink:href="#DejaVuSans-32"/>
       <use x="63.623047" xlink:href="#DejaVuSans-35"/>
       <use x="127.246094" xlink:href="#DejaVuSans-30"/>
      </g>
     </g>
    </g>
    <g id="ytick_7">
     <g id="line2d_13">
      <g>
       <use style="stroke:#000000;stroke-width:0.8;" x="72" xlink:href="#m609ccb75ae" y="132.850446"/>
      </g>
     </g>
     <g id="text_14">
      <!-- 300 -->
      <g transform="translate(45.9125 136.649665)scale(0.1 -0.1)">
       <defs>
        <path d="M 2597 2516 
Q 3050 2419 3304 2112 
Q 3559 1806 3559 1356 
Q 3559 666 3084 287 
Q 2609 -91 1734 -91 
Q 1441 -91 1130 -33 
Q 819 25 488 141 
L 488 750 
Q 750 597 1062 519 
Q 1375 441 1716 441 
Q 2309 441 2620 675 
Q 2931 909 2931 1356 
Q 2931 1769 2642 2001 
Q 2353 2234 1838 2234 
L 1294 2234 
L 1294 2753 
L 1863 2753 
Q 2328 2753 2575 2939 
Q 2822 3125 2822 3475 
Q 2822 3834 2567 4026 
Q 2313 4219 1838 4219 
Q 1578 4219 1281 4162 
Q 984 4106 628 3988 
L 628 4550 
Q 988 4650 1302 4700 
Q 1616 4750 1894 4750 
Q 2613 4750 3031 4423 
Q 3450 4097 3450 3541 
Q 3450 3153 3228 2886 
Q 3006 2619 2597 2516 
z
" id="DejaVuSans-33" transform="scale(0.015625)"/>
       </defs>
       <use xlink:href="#DejaVuSans-33"/>
       <use x="63.623047" xlink:href="#DejaVuSans-30"/>
       <use x="127.246094" xlink:href="#DejaVuSans-30"/>
      </g>
     </g>
    </g>
    <g id="text_15">
     <!-- Energy Generated (TWh) -->
     <g transform="translate(39.832812 498.598906)rotate(-90)scale(0.1 -0.1)">
      <defs>
       <path d="M 628 4666 
L 3578 4666 
L 3578 4134 
L 1259 4134 
L 1259 2753 
L 3481 2753 
L 3481 2222 
L 1259 2222 
L 1259 531 
L 3634 531 
L 3634 0 
L 628 0 
L 628 4666 
z
" id="DejaVuSans-45" transform="scale(0.015625)"/>
       <path d="M 2194 1759 
Q 1497 1759 1228 1600 
Q 959 1441 959 1056 
Q 959 750 1161 570 
Q 1363 391 1709 391 
Q 2188 391 2477 730 
Q 2766 1069 2766 1631 
L 2766 1759 
L 2194 1759 
z
M 3341 1997 
L 3341 0 
L 2766 0 
L 2766 531 
Q 2569 213 2275 61 
Q 1981 -91 1556 -91 
Q 1019 -91 701 211 
Q 384 513 384 1019 
Q 384 1609 779 1909 
Q 1175 2209 1959 2209 
L 2766 2209 
L 2766 2266 
Q 2766 2663 2505 2880 
Q 2244 3097 1772 3097 
Q 1472 3097 1187 3025 
Q 903 2953 641 2809 
L 641 3341 
Q 956 3463 1253 3523 
Q 1550 3584 1831 3584 
Q 2591 3584 2966 3190 
Q 3341 2797 3341 1997 
z
" id="DejaVuSans-61" transform="scale(0.015625)"/>
       <path d="M 213 4666 
L 850 4666 
L 1831 722 
L 2809 4666 
L 3519 4666 
L 4500 722 
L 5478 4666 
L 6119 4666 
L 4947 0 
L 4153 0 
L 3169 4050 
L 2175 0 
L 1381 0 
L 213 4666 
z
" id="DejaVuSans-57" transform="scale(0.015625)"/>
      </defs>
      <use xlink:href="#DejaVuSans-45"/>
      <use x="63.183594" xlink:href="#DejaVuSans-6e"/>
      <use x="126.5625" xlink:href="#DejaVuSans-65"/>
      <use x="188.085938" xlink:href="#DejaVuSans-72"/>
      <use x="227.449219" xlink:href="#DejaVuSans-67"/>
      <use x="290.925781" xlink:href="#DejaVuSans-79"/>
      <use x="350.105469" xlink:href="#DejaVuSans-20"/>
      <use x="381.892578" xlink:href="#DejaVuSans-47"/>
      <use x="459.382812" xlink:href="#DejaVuSans-65"/>
      <use x="520.90625" xlink:href="#DejaVuSans-6e"/>
      <use x="584.285156" xlink:href="#DejaVuSans-65"/>
      <use x="645.808594" xlink:href="#DejaVuSans-72"/>
      <use x="686.921875" xlink:href="#DejaVuSans-61"/>
      <use x="748.201172" xlink:href="#DejaVuSans-74"/>
      <use x="787.410156" xlink:href="#DejaVuSans-65"/>
      <use x="848.933594" xlink:href="#DejaVuSans-64"/>
      <use x="912.410156" xlink:href="#DejaVuSans-20"/>
      <use x="944.197266" xlink:href="#DejaVuSans-28"/>
      <use x="983.210938" xlink:href="#DejaVuSans-54"/>
      <use x="1044.294922" xlink:href="#DejaVuSans-57"/>
      <use x="1143.171875" xlink:href="#DejaVuSans-68"/>
      <use x="1206.550781" xlink:href="#DejaVuSans-29"/>
     </g>
    </g>
   </g>
   <g id="patch_3">
    <path d="M 72 768.96 
L 72 103.68 
" style="fill:none;stroke:#000000;stroke-linecap:square;stroke-linejoin:miter;stroke-width:0.8;"/>
   </g>
   <g id="patch_4">
    <path d="M 518.4 768.96 
L 518.4 103.68 
" style="fill:none;stroke:#000000;stroke-linecap:square;stroke-linejoin:miter;stroke-width:0.8;"/>
   </g>
   <g id="patch_5">
    <path d="M 72 768.96 
L 518.4 768.96 
" style="fill:none;stroke:#000000;stroke-linecap:square;stroke-linejoin:miter;stroke-width:0.8;"/>
   </g>
   <g id="patch_6">
    <path d="M 72 103.68 
L 518.4 103.68 
" style="fill:none;stroke:#000000;stroke-linecap:square;stroke-linejoin:miter;stroke-width:0.8;"/>
   </g>
  </g>
 </g>
 <defs>
  <clipPath id="pa395829500">
   <rect height="665.28" width="446.4" x="72" y="103.68"/>
  </clipPath>
 </defs>
</svg>
