<?xml version="1.0" encoding="utf-8" standalone="no"?>
<!DOCTYPE svg PUBLIC "-//W3C//DTD SVG 1.1//EN"
  "http://www.w3.org/Graphics/SVG/1.1/DTD/svg11.dtd">
<svg height="864pt" version="1.1" viewBox="0 0 576 864" width="576pt" xmlns="http://www.w3.org/2000/svg" xmlns:xlink="http://www.w3.org/1999/xlink">
 <metadata>
  <rdf:RDF xmlns:cc="http://creativecommons.org/ns#" xmlns:dc="http://purl.org/dc/elements/1.1/" xmlns:rdf="http://www.w3.org/1999/02/22-rdf-syntax-ns#">
   <cc:Work>
    <dc:type rdf:resource="http://purl.org/dc/dcmitype/StillImage"/>
    <dc:date>2021-06-15T16:17:14.067856</dc:date>
    <dc:format>image/svg+xml</dc:format>
    <dc:creator>
     <cc:Agent>
      <dc:title>Matplotlib v3.4.1, https://matplotlib.org/</dc:title>
     </cc:Agent>
    </dc:creator>
   </cc:Work>
  </rdf:RDF>
 </metadata>
 <defs>
  <style type="text/css">*{stroke-linecap:butt;stroke-linejoin:round;}</style>
 </defs>
 <g id="figure_1">
  <g id="patch_1">
   <path d="M 0 864 
L 576 864 
L 576 0 
L 0 0 
z
" style="fill:#ffffff;"/>
  </g>
  <g id="axes_1">
   <g id="patch_2">
    <path d="M 72 768.96 
L 518.4 768.96 
L 518.4 103.68 
L 72 103.68 
z
" style="fill:#ffffff;"/>
   </g>
   <g id="PolyCollection_1">
    <path clip-path="url(#p9ca4fd26e4)" d="M 92.290909 275.040474 
L 92.290909 768.96 
L 96.390083 768.96 
L 100.489256 768.96 
L 104.58843 768.96 
L 108.687603 768.96 
L 112.786777 768.96 
L 116.88595 768.96 
L 120.985124 768.96 
L 125.084298 768.96 
L 129.183471 768.96 
L 133.282645 768.96 
L 137.381818 768.96 
L 141.480992 768.96 
L 145.580165 768.96 
L 149.679339 768.96 
L 153.778512 768.96 
L 157.877686 768.96 
L 161.97686 768.96 
L 166.076033 768.96 
L 170.175207 768.96 
L 174.27438 768.96 
L 178.373554 768.96 
L 182.472727 768.96 
L 186.571901 768.96 
L 190.671074 768.96 
L 194.770248 768.96 
L 198.869421 768.96 
L 202.968595 768.96 
L 207.067769 768.96 
L 211.166942 768.96 
L 215.266116 768.96 
L 219.365289 768.96 
L 223.464463 768.96 
L 227.563636 768.96 
L 231.66281 768.96 
L 235.761983 768.96 
L 239.861157 768.96 
L 243.960331 768.96 
L 248.059504 768.96 
L 252.158678 768.96 
L 256.257851 768.96 
L 260.357025 768.96 
L 264.456198 768.96 
L 268.555372 768.96 
L 272.654545 768.96 
L 276.753719 768.96 
L 280.852893 768.96 
L 284.952066 768.96 
L 289.05124 768.96 
L 293.150413 768.96 
L 297.249587 768.96 
L 301.34876 768.96 
L 305.447934 768.96 
L 309.547107 768.96 
L 313.646281 768.96 
L 317.745455 768.96 
L 321.844628 768.96 
L 325.943802 768.96 
L 330.042975 768.96 
L 334.142149 768.96 
L 338.241322 768.96 
L 342.340496 768.96 
L 346.439669 768.96 
L 350.538843 768.96 
L 354.638017 768.96 
L 358.73719 768.96 
L 362.836364 768.96 
L 366.935537 768.96 
L 371.034711 768.96 
L 375.133884 768.96 
L 379.233058 768.96 
L 383.332231 768.96 
L 387.431405 768.96 
L 391.530579 768.96 
L 395.629752 768.96 
L 399.728926 768.96 
L 403.828099 768.96 
L 407.927273 768.96 
L 412.026446 768.96 
L 416.12562 768.96 
L 420.224793 768.96 
L 424.323967 768.96 
L 428.42314 768.96 
L 432.522314 768.96 
L 436.621488 768.96 
L 440.720661 768.96 
L 444.819835 768.96 
L 448.919008 768.96 
L 453.018182 768.96 
L 457.117355 768.96 
L 461.216529 768.96 
L 465.315702 768.96 
L 469.414876 768.96 
L 473.51405 768.96 
L 477.613223 768.96 
L 481.712397 768.96 
L 485.81157 768.96 
L 489.910744 768.96 
L 494.009917 768.96 
L 498.109091 768.96 
L 498.109091 422.441804 
L 498.109091 422.441804 
L 494.009917 421.494812 
L 489.910744 420.5405 
L 485.81157 419.576468 
L 481.712397 418.601946 
L 477.613223 417.616714 
L 473.51405 416.62196 
L 469.414876 415.616999 
L 465.315702 414.603169 
L 461.216529 413.580119 
L 457.117355 412.546604 
L 453.018182 411.500095 
L 448.919008 410.441199 
L 444.819835 409.370372 
L 440.720661 408.287431 
L 436.621488 407.195917 
L 432.522314 406.091502 
L 428.42314 404.97877 
L 424.323967 403.852218 
L 420.224793 402.714227 
L 416.12562 401.560579 
L 412.026446 400.392193 
L 407.927273 399.209503 
L 403.828099 398.013188 
L 399.728926 396.80345 
L 395.629752 395.582153 
L 391.530579 394.352574 
L 387.431405 393.114076 
L 383.332231 391.864482 
L 379.233058 390.606974 
L 375.133884 389.347958 
L 371.034711 388.080797 
L 366.935537 386.800314 
L 362.836364 385.501292 
L 358.73719 384.186579 
L 354.638017 382.859567 
L 350.538843 381.522994 
L 346.439669 380.17259 
L 342.340496 378.807783 
L 338.241322 377.437444 
L 334.142149 376.051652 
L 330.042975 374.65609 
L 325.943802 373.238316 
L 321.844628 371.794975 
L 317.745455 370.34068 
L 313.646281 368.875807 
L 309.547107 367.400875 
L 305.447934 365.913918 
L 301.34876 364.404128 
L 297.249587 362.877562 
L 293.150413 361.340404 
L 289.05124 359.78418 
L 284.952066 358.212929 
L 280.852893 356.628245 
L 276.753719 355.019214 
L 272.654545 353.397577 
L 268.555372 351.771388 
L 264.456198 350.143227 
L 260.357025 348.502737 
L 256.257851 346.854007 
L 252.158678 345.191871 
L 248.059504 343.524528 
L 243.960331 341.851264 
L 239.861157 340.174657 
L 235.761983 338.488638 
L 231.66281 336.787539 
L 227.563636 335.07743 
L 223.464463 333.356404 
L 219.365289 331.641594 
L 215.266116 329.943881 
L 211.166942 328.273619 
L 207.067769 326.621856 
L 202.968595 324.99101 
L 198.869421 323.372816 
L 194.770248 321.769645 
L 190.671074 320.180471 
L 186.571901 318.608194 
L 182.472727 317.040284 
L 178.373554 315.451076 
L 174.27438 313.834898 
L 170.175207 312.152994 
L 166.076033 310.450952 
L 161.97686 308.731388 
L 157.877686 306.992486 
L 153.778512 305.263395 
L 149.679339 303.542458 
L 145.580165 301.789888 
L 141.480992 299.975828 
L 137.381818 297.989937 
L 133.282645 295.939253 
L 129.183471 293.863044 
L 125.084298 291.775766 
L 120.985124 289.683855 
L 116.88595 287.591943 
L 112.786777 285.500032 
L 108.687603 283.40812 
L 104.58843 281.316209 
L 100.489256 279.224297 
L 96.390083 277.132385 
L 92.290909 275.040474 
z
" style="fill:#3182bd;"/>
   </g>
   <g id="PolyCollection_2">
    <path clip-path="url(#p9ca4fd26e4)" d="M 92.290909 156.025114 
L 92.290909 275.040474 
L 96.390083 277.132385 
L 100.489256 279.224297 
L 104.58843 281.316209 
L 108.687603 283.40812 
L 112.786777 285.500032 
L 116.88595 287.591943 
L 120.985124 289.683855 
L 125.084298 291.775766 
L 129.183471 293.863044 
L 133.282645 295.939253 
L 137.381818 297.989937 
L 141.480992 299.975828 
L 145.580165 301.789888 
L 149.679339 303.542458 
L 153.778512 305.263395 
L 157.877686 306.992486 
L 161.97686 308.731388 
L 166.076033 310.450952 
L 170.175207 312.152994 
L 174.27438 313.834898 
L 178.373554 315.451076 
L 182.472727 317.040284 
L 186.571901 318.608194 
L 190.671074 320.180471 
L 194.770248 321.769645 
L 198.869421 323.372816 
L 202.968595 324.99101 
L 207.067769 326.621856 
L 211.166942 328.273619 
L 215.266116 329.943881 
L 219.365289 331.641594 
L 223.464463 333.356404 
L 227.563636 335.07743 
L 231.66281 336.787539 
L 235.761983 338.488638 
L 239.861157 340.174657 
L 243.960331 341.851264 
L 248.059504 343.524528 
L 252.158678 345.191871 
L 256.257851 346.854007 
L 260.357025 348.502737 
L 264.456198 350.143227 
L 268.555372 351.771388 
L 272.654545 353.397577 
L 276.753719 355.019214 
L 280.852893 356.628245 
L 284.952066 358.212929 
L 289.05124 359.78418 
L 293.150413 361.340404 
L 297.249587 362.877562 
L 301.34876 364.404128 
L 305.447934 365.913918 
L 309.547107 367.400875 
L 313.646281 368.875807 
L 317.745455 370.34068 
L 321.844628 371.794975 
L 325.943802 373.238316 
L 330.042975 374.65609 
L 334.142149 376.051652 
L 338.241322 377.437444 
L 342.340496 378.807783 
L 346.439669 380.17259 
L 350.538843 381.522994 
L 354.638017 382.859567 
L 358.73719 384.186579 
L 362.836364 385.501292 
L 366.935537 386.800314 
L 371.034711 388.080797 
L 375.133884 389.347958 
L 379.233058 390.606974 
L 383.332231 391.864482 
L 387.431405 393.114076 
L 391.530579 394.352574 
L 395.629752 395.582153 
L 399.728926 396.80345 
L 403.828099 398.013188 
L 407.927273 399.209503 
L 412.026446 400.392193 
L 416.12562 401.560579 
L 420.224793 402.714227 
L 424.323967 403.852218 
L 428.42314 404.97877 
L 432.522314 406.091502 
L 436.621488 407.195917 
L 440.720661 408.287431 
L 444.819835 409.370372 
L 448.919008 410.441199 
L 453.018182 411.500095 
L 457.117355 412.546604 
L 461.216529 413.580119 
L 465.315702 414.603169 
L 469.414876 415.616999 
L 473.51405 416.62196 
L 477.613223 417.616714 
L 481.712397 418.601946 
L 485.81157 419.576468 
L 489.910744 420.5405 
L 494.009917 421.494812 
L 498.109091 422.441804 
L 498.109091 345.915416 
L 498.109091 345.915416 
L 494.009917 344.761158 
L 489.910744 343.593219 
L 485.81157 342.413662 
L 481.712397 341.225234 
L 477.613223 340.025417 
L 473.51405 338.817664 
L 469.414876 337.596945 
L 465.315702 336.357745 
L 461.216529 335.102364 
L 457.117355 333.832451 
L 453.018182 332.544238 
L 448.919008 331.240192 
L 444.819835 329.923712 
L 440.720661 328.596159 
L 436.621488 327.2551 
L 432.522314 325.898194 
L 428.42314 324.528432 
L 424.323967 323.147002 
L 420.224793 321.75028 
L 416.12562 320.335812 
L 412.026446 318.905829 
L 407.927273 317.461658 
L 403.828099 316.007491 
L 399.728926 314.536868 
L 395.629752 313.047901 
L 391.530579 311.541893 
L 387.431405 310.018198 
L 383.332231 308.472064 
L 379.233058 306.903921 
L 375.133884 305.322199 
L 371.034711 303.723367 
L 366.935537 302.104964 
L 362.836364 300.467355 
L 358.73719 298.810949 
L 354.638017 297.14075 
L 350.538843 295.455312 
L 346.439669 293.748702 
L 342.340496 292.021252 
L 338.241322 290.275307 
L 334.142149 288.511246 
L 330.042975 286.728175 
L 325.943802 284.925628 
L 321.844628 283.095397 
L 317.745455 281.239975 
L 313.646281 279.357628 
L 309.547107 277.444395 
L 305.447934 275.509856 
L 301.34876 273.563447 
L 297.249587 271.598048 
L 293.150413 269.614353 
L 289.05124 267.607353 
L 284.952066 265.575491 
L 280.852893 263.517456 
L 276.753719 261.435003 
L 272.654545 259.335327 
L 268.555372 257.214549 
L 264.456198 255.068511 
L 260.357025 252.884384 
L 256.257851 250.681139 
L 252.158678 248.457519 
L 248.059504 246.207899 
L 243.960331 243.94053 
L 239.861157 241.650133 
L 235.761983 239.346672 
L 231.66281 237.023817 
L 227.563636 234.677212 
L 223.464463 232.307434 
L 219.365289 229.894372 
L 215.266116 227.447645 
L 211.166942 224.954609 
L 207.067769 222.424632 
L 202.968595 219.855344 
L 198.869421 217.262143 
L 194.770248 214.634587 
L 190.671074 211.98511 
L 186.571901 209.311178 
L 182.472727 206.6296 
L 178.373554 203.969103 
L 174.27438 201.340034 
L 170.175207 198.786696 
L 166.076033 196.255479 
L 161.97686 193.74264 
L 157.877686 191.247811 
L 153.778512 188.739157 
L 149.679339 186.219611 
L 145.580165 183.735573 
L 141.480992 181.322692 
L 137.381818 179.10799 
L 133.282645 176.967964 
L 129.183471 174.857727 
L 125.084298 172.760407 
L 120.985124 170.668496 
L 116.88595 168.576584 
L 112.786777 166.484672 
L 108.687603 164.392761 
L 104.58843 162.300849 
L 100.489256 160.208938 
L 96.390083 158.117026 
L 92.290909 156.025114 
z
" style="fill:#6baed6;"/>
   </g>
   <g id="PolyCollection_3">
    <path clip-path="url(#p9ca4fd26e4)" d="M 92.290909 155.777989 
L 92.290909 156.025114 
L 96.390083 158.117026 
L 100.489256 160.208938 
L 104.58843 162.300849 
L 108.687603 164.392761 
L 112.786777 166.484672 
L 116.88595 168.576584 
L 120.985124 170.668496 
L 125.084298 172.760407 
L 129.183471 174.857727 
L 133.282645 176.967964 
L 137.381818 179.10799 
L 141.480992 181.322692 
L 145.580165 183.735573 
L 149.679339 186.219611 
L 153.778512 188.739157 
L 157.877686 191.247811 
L 161.97686 193.74264 
L 166.076033 196.255479 
L 170.175207 198.786696 
L 174.27438 201.340034 
L 178.373554 203.969103 
L 182.472727 206.6296 
L 186.571901 209.311178 
L 190.671074 211.98511 
L 194.770248 214.634587 
L 198.869421 217.262143 
L 202.968595 219.855344 
L 207.067769 222.424632 
L 211.166942 224.954609 
L 215.266116 227.447645 
L 219.365289 229.894372 
L 223.464463 232.307434 
L 227.563636 234.677212 
L 231.66281 237.023817 
L 235.761983 239.346672 
L 239.861157 241.650133 
L 243.960331 243.94053 
L 248.059504 246.207899 
L 252.158678 248.457519 
L 256.257851 250.681139 
L 260.357025 252.884384 
L 264.456198 255.068511 
L 268.555372 257.214549 
L 272.654545 259.335327 
L 276.753719 261.435003 
L 280.852893 263.517456 
L 284.952066 265.575491 
L 289.05124 267.607353 
L 293.150413 269.614353 
L 297.249587 271.598048 
L 301.34876 273.563447 
L 305.447934 275.509856 
L 309.547107 277.444395 
L 313.646281 279.357628 
L 317.745455 281.239975 
L 321.844628 283.095397 
L 325.943802 284.925628 
L 330.042975 286.728175 
L 334.142149 288.511246 
L 338.241322 290.275307 
L 342.340496 292.021252 
L 346.439669 293.748702 
L 350.538843 295.455312 
L 354.638017 297.14075 
L 358.73719 298.810949 
L 362.836364 300.467355 
L 366.935537 302.104964 
L 371.034711 303.723367 
L 375.133884 305.322199 
L 379.233058 306.903921 
L 383.332231 308.472064 
L 387.431405 310.018198 
L 391.530579 311.541893 
L 395.629752 313.047901 
L 399.728926 314.536868 
L 403.828099 316.007491 
L 407.927273 317.461658 
L 412.026446 318.905829 
L 416.12562 320.335812 
L 420.224793 321.75028 
L 424.323967 323.147002 
L 428.42314 324.528432 
L 432.522314 325.898194 
L 436.621488 327.2551 
L 440.720661 328.596159 
L 444.819835 329.923712 
L 448.919008 331.240192 
L 453.018182 332.544238 
L 457.117355 333.832451 
L 461.216529 335.102364 
L 465.315702 336.357745 
L 469.414876 337.596945 
L 473.51405 338.817664 
L 477.613223 340.025417 
L 481.712397 341.225234 
L 485.81157 342.413662 
L 489.910744 343.593219 
L 494.009917 344.761158 
L 498.109091 345.915416 
L 498.109091 345.693292 
L 498.109091 345.693292 
L 494.009917 344.538628 
L 489.910744 343.370316 
L 485.81157 342.190397 
L 481.712397 341.001572 
L 477.613223 339.801373 
L 473.51405 338.593181 
L 469.414876 337.371977 
L 465.315702 336.132284 
L 461.216529 334.876435 
L 457.117355 333.605951 
L 453.018182 332.317263 
L 448.919008 331.012776 
L 444.819835 329.695838 
L 440.720661 328.367891 
L 436.621488 327.026377 
L 432.522314 325.66903 
L 428.42314 324.298776 
L 424.323967 322.916849 
L 420.224793 321.519583 
L 416.12562 320.104652 
L 412.026446 318.674267 
L 407.927273 317.229788 
L 403.828099 315.775217 
L 399.728926 314.304221 
L 395.629752 312.814926 
L 391.530579 311.308539 
L 387.431405 309.78439 
L 383.332231 308.237848 
L 379.233058 306.669414 
L 375.133884 305.087376 
L 371.034711 303.488126 
L 366.935537 301.869203 
L 362.836364 300.231135 
L 358.73719 298.574396 
L 354.638017 296.903878 
L 350.538843 295.218006 
L 346.439669 293.510963 
L 342.340496 291.783232 
L 338.241322 290.036875 
L 334.142149 288.272499 
L 330.042975 286.489011 
L 325.943802 284.685868 
L 321.844628 282.855201 
L 317.745455 280.999394 
L 313.646281 279.116642 
L 309.547107 277.203136 
L 305.447934 275.268319 
L 301.34876 273.321597 
L 297.249587 271.355899 
L 293.150413 269.371773 
L 289.05124 267.364431 
L 284.952066 265.332226 
L 280.852893 263.27379 
L 276.753719 261.191115 
L 272.654545 259.091195 
L 268.555372 256.970253 
L 264.456198 254.82379 
L 260.357025 252.639435 
L 256.257851 250.435966 
L 252.158678 248.21214 
L 248.059504 245.962387 
L 243.960331 243.694887 
L 239.861157 241.40436 
L 235.761983 239.100653 
L 231.66281 236.77761 
L 227.563636 234.430832 
L 223.464463 232.060855 
L 219.365289 229.647678 
L 215.266116 227.200886 
L 211.166942 224.707781 
L 207.067769 222.177735 
L 202.968595 219.608394 
L 198.869421 217.015097 
L 194.770248 214.387503 
L 190.671074 211.738003 
L 186.571901 209.064064 
L 182.472727 206.382475 
L 178.373554 203.721977 
L 174.27438 201.092908 
L 170.175207 198.53957 
L 166.076033 196.008354 
L 161.97686 193.495515 
L 157.877686 191.000685 
L 153.778512 188.492031 
L 149.679339 185.972486 
L 145.580165 183.488447 
L 141.480992 181.075566 
L 137.381818 178.860865 
L 133.282645 176.720839 
L 129.183471 174.610601 
L 125.084298 172.513282 
L 120.985124 170.42137 
L 116.88595 168.329459 
L 112.786777 166.237547 
L 108.687603 164.145635 
L 104.58843 162.053724 
L 100.489256 159.961812 
L 96.390083 157.869901 
L 92.290909 155.777989 
z
" style="fill:#9ecae1;"/>
   </g>
   <g id="PolyCollection_4">
    <path clip-path="url(#p9ca4fd26e4)" d="M 92.290909 155.520092 
L 92.290909 155.777989 
L 96.390083 157.869901 
L 100.489256 159.961812 
L 104.58843 162.053724 
L 108.687603 164.145635 
L 112.786777 166.237547 
L 116.88595 168.329459 
L 120.985124 170.42137 
L 125.084298 172.513282 
L 129.183471 174.610601 
L 133.282645 176.720839 
L 137.381818 178.860865 
L 141.480992 181.075566 
L 145.580165 183.488447 
L 149.679339 185.972486 
L 153.778512 188.492031 
L 157.877686 191.000685 
L 161.97686 193.495515 
L 166.076033 196.008354 
L 170.175207 198.53957 
L 174.27438 201.092908 
L 178.373554 203.721977 
L 182.472727 206.382475 
L 186.571901 209.064064 
L 190.671074 211.738003 
L 194.770248 214.387503 
L 198.869421 217.015097 
L 202.968595 219.608394 
L 207.067769 222.177735 
L 211.166942 224.707781 
L 215.266116 227.200886 
L 219.365289 229.647678 
L 223.464463 232.060855 
L 227.563636 234.430832 
L 231.66281 236.77761 
L 235.761983 239.100653 
L 239.861157 241.40436 
L 243.960331 243.694887 
L 248.059504 245.962387 
L 252.158678 248.21214 
L 256.257851 250.435966 
L 260.357025 252.639435 
L 264.456198 254.82379 
L 268.555372 256.970253 
L 272.654545 259.091195 
L 276.753719 261.191115 
L 280.852893 263.27379 
L 284.952066 265.332226 
L 289.05124 267.364431 
L 293.150413 269.371773 
L 297.249587 271.355899 
L 301.34876 273.321597 
L 305.447934 275.268319 
L 309.547107 277.203136 
L 313.646281 279.116642 
L 317.745455 280.999394 
L 321.844628 282.855201 
L 325.943802 284.685868 
L 330.042975 286.489011 
L 334.142149 288.272499 
L 338.241322 290.036875 
L 342.340496 291.783232 
L 346.439669 293.510963 
L 350.538843 295.218006 
L 354.638017 296.903878 
L 358.73719 298.574396 
L 362.836364 300.231135 
L 366.935537 301.869203 
L 371.034711 303.488126 
L 375.133884 305.087376 
L 379.233058 306.669414 
L 383.332231 308.237848 
L 387.431405 309.78439 
L 391.530579 311.308539 
L 395.629752 312.814926 
L 399.728926 314.304221 
L 403.828099 315.775217 
L 407.927273 317.229788 
L 412.026446 318.674267 
L 416.12562 320.104652 
L 420.224793 321.519583 
L 424.323967 322.916849 
L 428.42314 324.298776 
L 432.522314 325.66903 
L 436.621488 327.026377 
L 440.720661 328.367891 
L 444.819835 329.695838 
L 448.919008 331.012776 
L 453.018182 332.317263 
L 457.117355 333.605951 
L 461.216529 334.876435 
L 465.315702 336.132284 
L 469.414876 337.371977 
L 473.51405 338.593181 
L 477.613223 339.801373 
L 481.712397 341.001572 
L 485.81157 342.190397 
L 489.910744 343.370316 
L 494.009917 344.538628 
L 498.109091 345.693292 
L 498.109091 345.436628 
L 498.109091 345.436628 
L 494.009917 344.281893 
L 489.910744 343.113501 
L 485.81157 341.933527 
L 481.712397 340.744612 
L 477.613223 339.544324 
L 473.51405 338.336063 
L 469.414876 337.114793 
L 465.315702 335.875057 
L 461.216529 334.619166 
L 457.117355 333.348604 
L 453.018182 332.059828 
L 448.919008 330.755273 
L 444.819835 329.438273 
L 440.720661 328.110295 
L 436.621488 326.768758 
L 432.522314 325.411386 
L 428.42314 324.041102 
L 424.323967 322.659163 
L 420.224793 321.261887 
L 416.12562 319.846929 
L 412.026446 318.416509 
L 407.927273 316.972006 
L 403.828099 315.517411 
L 399.728926 314.046405 
L 395.629752 312.5571 
L 391.530579 311.050697 
L 387.431405 309.526535 
L 383.332231 307.979977 
L 379.233058 306.411543 
L 375.133884 304.829505 
L 371.034711 303.23024 
L 366.935537 301.611311 
L 362.836364 299.973243 
L 358.73719 298.316502 
L 354.638017 296.645981 
L 350.538843 294.960109 
L 346.439669 293.253066 
L 342.340496 291.525335 
L 338.241322 289.778978 
L 334.142149 288.014602 
L 330.042975 286.231114 
L 325.943802 284.427971 
L 321.844628 282.597304 
L 317.745455 280.741497 
L 313.646281 278.858745 
L 309.547107 276.945239 
L 305.447934 275.010422 
L 301.34876 273.0637 
L 297.249587 271.098002 
L 293.150413 269.113876 
L 289.05124 267.106534 
L 284.952066 265.074329 
L 280.852893 263.015893 
L 276.753719 260.933219 
L 272.654545 258.833298 
L 268.555372 256.712356 
L 264.456198 254.565893 
L 260.357025 252.381538 
L 256.257851 250.178069 
L 252.158678 247.954243 
L 248.059504 245.70449 
L 243.960331 243.43699 
L 239.861157 241.146463 
L 235.761983 238.842756 
L 231.66281 236.519713 
L 227.563636 234.172935 
L 223.464463 231.802958 
L 219.365289 229.389781 
L 215.266116 226.942989 
L 211.166942 224.449884 
L 207.067769 221.919838 
L 202.968595 219.350497 
L 198.869421 216.7572 
L 194.770248 214.129606 
L 190.671074 211.480106 
L 186.571901 208.806167 
L 182.472727 206.124578 
L 178.373554 203.46408 
L 174.27438 200.835011 
L 170.175207 198.281673 
L 166.076033 195.750457 
L 161.97686 193.237618 
L 157.877686 190.742788 
L 153.778512 188.234134 
L 149.679339 185.714589 
L 145.580165 183.230551 
L 141.480992 180.817669 
L 137.381818 178.602968 
L 133.282645 176.462942 
L 129.183471 174.352704 
L 125.084298 172.255385 
L 120.985124 170.163473 
L 116.88595 168.071562 
L 112.786777 165.97965 
L 108.687603 163.887738 
L 104.58843 161.795827 
L 100.489256 159.703915 
L 96.390083 157.612004 
L 92.290909 155.520092 
z
" style="fill:#c6dbef;"/>
   </g>
   <g id="PolyCollection_5">
    <path clip-path="url(#p9ca4fd26e4)" d="M 92.290909 154.399831 
L 92.290909 155.520092 
L 96.390083 157.612004 
L 100.489256 159.703915 
L 104.58843 161.795827 
L 108.687603 163.887738 
L 112.786777 165.97965 
L 116.88595 168.071562 
L 120.985124 170.163473 
L 125.084298 172.255385 
L 129.183471 174.352704 
L 133.282645 176.462942 
L 137.381818 178.602968 
L 141.480992 180.817669 
L 145.580165 183.230551 
L 149.679339 185.714589 
L 153.778512 188.234134 
L 157.877686 190.742788 
L 161.97686 193.237618 
L 166.076033 195.750457 
L 170.175207 198.281673 
L 174.27438 200.835011 
L 178.373554 203.46408 
L 182.472727 206.124578 
L 186.571901 208.806167 
L 190.671074 211.480106 
L 194.770248 214.129606 
L 198.869421 216.7572 
L 202.968595 219.350497 
L 207.067769 221.919838 
L 211.166942 224.449884 
L 215.266116 226.942989 
L 219.365289 229.389781 
L 223.464463 231.802958 
L 227.563636 234.172935 
L 231.66281 236.519713 
L 235.761983 238.842756 
L 239.861157 241.146463 
L 243.960331 243.43699 
L 248.059504 245.70449 
L 252.158678 247.954243 
L 256.257851 250.178069 
L 260.357025 252.381538 
L 264.456198 254.565893 
L 268.555372 256.712356 
L 272.654545 258.833298 
L 276.753719 260.933219 
L 280.852893 263.015893 
L 284.952066 265.074329 
L 289.05124 267.106534 
L 293.150413 269.113876 
L 297.249587 271.098002 
L 301.34876 273.0637 
L 305.447934 275.010422 
L 309.547107 276.945239 
L 313.646281 278.858745 
L 317.745455 280.741497 
L 321.844628 282.597304 
L 325.943802 284.427971 
L 330.042975 286.231114 
L 334.142149 288.014602 
L 338.241322 289.778978 
L 342.340496 291.525335 
L 346.439669 293.253066 
L 350.538843 294.960109 
L 354.638017 296.645981 
L 358.73719 298.316502 
L 362.836364 299.973243 
L 366.935537 301.611311 
L 371.034711 303.23024 
L 375.133884 304.829505 
L 379.233058 306.411543 
L 383.332231 307.979977 
L 387.431405 309.526535 
L 391.530579 311.050697 
L 395.629752 312.5571 
L 399.728926 314.046405 
L 403.828099 315.517411 
L 407.927273 316.972006 
L 412.026446 318.416509 
L 416.12562 319.846929 
L 420.224793 321.261887 
L 424.323967 322.659163 
L 428.42314 324.041102 
L 432.522314 325.411386 
L 436.621488 326.768758 
L 440.720661 328.110295 
L 444.819835 329.438273 
L 448.919008 330.755273 
L 453.018182 332.059828 
L 457.117355 333.348604 
L 461.216529 334.619166 
L 465.315702 335.875057 
L 469.414876 337.114793 
L 473.51405 338.336063 
L 477.613223 339.544324 
L 481.712397 340.744612 
L 485.81157 341.933527 
L 489.910744 343.113501 
L 494.009917 344.281893 
L 498.109091 345.436628 
L 498.109091 344.323461 
L 498.109091 344.323461 
L 494.009917 343.168307 
L 489.910744 341.999502 
L 485.81157 340.819131 
L 481.712397 339.629882 
L 477.613223 338.429259 
L 473.51405 337.220653 
L 469.414876 335.999052 
L 465.315702 334.75899 
L 461.216529 333.502799 
L 457.117355 332.231968 
L 453.018182 330.942962 
L 448.919008 329.638166 
L 444.819835 328.320905 
L 440.720661 326.992635 
L 436.621488 325.65083 
L 432.522314 324.293233 
L 428.42314 322.922745 
L 424.323967 321.540619 
L 420.224793 320.143194 
L 416.12562 318.728082 
L 412.026446 317.297515 
L 407.927273 315.852868 
L 403.828099 314.398142 
L 399.728926 312.927005 
L 395.629752 311.437593 
L 391.530579 309.931101 
L 387.431405 308.40685 
L 383.332231 306.860206 
L 379.233058 305.291711 
L 375.133884 303.709643 
L 371.034711 302.11035 
L 366.935537 300.49137 
L 362.836364 298.853274 
L 358.73719 297.196519 
L 354.638017 295.525971 
L 350.538843 293.840087 
L 346.439669 292.133044 
L 342.340496 290.405313 
L 338.241322 288.658957 
L 334.142149 286.894581 
L 330.042975 285.111085 
L 325.943802 283.307931 
L 321.844628 281.477253 
L 317.745455 279.621426 
L 313.646281 277.73866 
L 309.547107 275.825131 
L 305.447934 273.890295 
L 301.34876 271.943562 
L 297.249587 269.977864 
L 293.150413 267.993737 
L 289.05124 265.986376 
L 284.952066 263.954149 
L 280.852893 261.89569 
L 276.753719 259.812999 
L 272.654545 257.713078 
L 268.555372 255.592136 
L 264.456198 253.445673 
L 260.357025 251.261318 
L 256.257851 249.057849 
L 252.158678 246.834023 
L 248.059504 244.584258 
L 243.960331 242.316743 
L 239.861157 240.026202 
L 235.761983 237.722495 
L 231.66281 235.399451 
L 227.563636 233.052673 
L 223.464463 230.682697 
L 219.365289 228.26952 
L 215.266116 225.822727 
L 211.166942 223.329622 
L 207.067769 220.799576 
L 202.968595 218.230236 
L 198.869421 215.636939 
L 194.770248 213.009345 
L 190.671074 210.359845 
L 186.571901 207.685905 
L 182.472727 205.004317 
L 178.373554 202.343819 
L 174.27438 199.71475 
L 170.175207 197.161412 
L 166.076033 194.630195 
L 161.97686 192.117356 
L 157.877686 189.622527 
L 153.778512 187.113873 
L 149.679339 184.594327 
L 145.580165 182.110289 
L 141.480992 179.697408 
L 137.381818 177.482706 
L 133.282645 175.34268 
L 129.183471 173.232443 
L 125.084298 171.135123 
L 120.985124 169.043212 
L 116.88595 166.9513 
L 112.786777 164.859389 
L 108.687603 162.767477 
L 104.58843 160.675565 
L 100.489256 158.583654 
L 96.390083 156.491742 
L 92.290909 154.399831 
z
" style="fill:#e6550d;"/>
   </g>
   <g id="PolyCollection_6">
    <path clip-path="url(#p9ca4fd26e4)" d="M 92.290909 152.494341 
L 92.290909 154.399831 
L 96.390083 156.491742 
L 100.489256 158.583654 
L 104.58843 160.675565 
L 108.687603 162.767477 
L 112.786777 164.859389 
L 116.88595 166.9513 
L 120.985124 169.043212 
L 125.084298 171.135123 
L 129.183471 173.232443 
L 133.282645 175.34268 
L 137.381818 177.482706 
L 141.480992 179.697408 
L 145.580165 182.110289 
L 149.679339 184.594327 
L 153.778512 187.113873 
L 157.877686 189.622527 
L 161.97686 192.117356 
L 166.076033 194.630195 
L 170.175207 197.161412 
L 174.27438 199.71475 
L 178.373554 202.343819 
L 182.472727 205.004317 
L 186.571901 207.685905 
L 190.671074 210.359845 
L 194.770248 213.009345 
L 198.869421 215.636939 
L 202.968595 218.230236 
L 207.067769 220.799576 
L 211.166942 223.329622 
L 215.266116 225.822727 
L 219.365289 228.26952 
L 223.464463 230.682697 
L 227.563636 233.052673 
L 231.66281 235.399451 
L 235.761983 237.722495 
L 239.861157 240.026202 
L 243.960331 242.316743 
L 248.059504 244.584258 
L 252.158678 246.834023 
L 256.257851 249.057849 
L 260.357025 251.261318 
L 264.456198 253.445673 
L 268.555372 255.592136 
L 272.654545 257.713078 
L 276.753719 259.812999 
L 280.852893 261.89569 
L 284.952066 263.954149 
L 289.05124 265.986376 
L 293.150413 267.993737 
L 297.249587 269.977864 
L 301.34876 271.943562 
L 305.447934 273.890295 
L 309.547107 275.825131 
L 313.646281 277.73866 
L 317.745455 279.621426 
L 321.844628 281.477253 
L 325.943802 283.307931 
L 330.042975 285.111085 
L 334.142149 286.894581 
L 338.241322 288.658957 
L 342.340496 290.405313 
L 346.439669 292.133044 
L 350.538843 293.840087 
L 354.638017 295.525971 
L 358.73719 297.196519 
L 362.836364 298.853274 
L 366.935537 300.49137 
L 371.034711 302.11035 
L 375.133884 303.709643 
L 379.233058 305.291711 
L 383.332231 306.860206 
L 387.431405 308.40685 
L 391.530579 309.931101 
L 395.629752 311.437593 
L 399.728926 312.927005 
L 403.828099 314.398142 
L 407.927273 315.852868 
L 412.026446 317.297515 
L 416.12562 318.728082 
L 420.224793 320.143194 
L 424.323967 321.540619 
L 428.42314 322.922745 
L 432.522314 324.293233 
L 436.621488 325.65083 
L 440.720661 326.992635 
L 444.819835 328.320905 
L 448.919008 329.638166 
L 453.018182 330.942962 
L 457.117355 332.231968 
L 461.216529 333.502799 
L 465.315702 334.75899 
L 469.414876 335.999052 
L 473.51405 337.220653 
L 477.613223 338.429259 
L 481.712397 339.629882 
L 485.81157 340.819131 
L 489.910744 341.999502 
L 494.009917 343.168307 
L 498.109091 344.323461 
L 498.109091 342.441383 
L 498.109091 342.441383 
L 494.009917 341.285264 
L 489.910744 340.115497 
L 485.81157 338.934188 
L 481.712397 337.743979 
L 477.613223 336.542436 
L 473.51405 335.332976 
L 469.414876 334.110565 
L 465.315702 332.869732 
L 461.216529 331.612774 
L 457.117355 330.341179 
L 453.018182 329.051378 
L 448.919008 327.745804 
L 444.819835 326.427812 
L 440.720661 325.098855 
L 436.621488 323.756369 
L 432.522314 322.398067 
L 428.42314 321.0269 
L 424.323967 319.644104 
L 420.224793 318.246013 
L 416.12562 316.830269 
L 412.026446 315.399107 
L 407.927273 313.953898 
L 403.828099 312.498641 
L 399.728926 311.027015 
L 395.629752 309.537139 
L 391.530579 308.030226 
L 387.431405 306.505623 
L 383.332231 304.958647 
L 379.233058 303.38982 
L 375.133884 301.80742 
L 371.034711 300.207808 
L 366.935537 298.588579 
L 362.836364 296.950211 
L 358.73719 295.293192 
L 354.638017 293.622385 
L 350.538843 291.936276 
L 346.439669 290.229035 
L 342.340496 288.501163 
L 338.241322 286.754687 
L 334.142149 284.990211 
L 330.042975 283.206622 
L 325.943802 281.403387 
L 321.844628 279.572638 
L 317.745455 277.716747 
L 313.646281 275.833921 
L 309.547107 273.920336 
L 305.447934 271.985443 
L 301.34876 270.038654 
L 297.249587 268.072887 
L 293.150413 266.088711 
L 289.05124 264.081311 
L 284.952066 262.04905 
L 280.852893 259.990567 
L 276.753719 257.907849 
L 272.654545 255.807885 
L 268.555372 253.686901 
L 264.456198 251.540408 
L 260.357025 249.356032 
L 256.257851 247.152542 
L 252.158678 244.928696 
L 248.059504 242.67891 
L 243.960331 240.411375 
L 239.861157 238.120815 
L 235.761983 235.817075 
L 231.66281 233.494005 
L 227.563636 231.147215 
L 223.464463 228.777231 
L 219.365289 226.364053 
L 215.266116 223.917259 
L 211.166942 221.424152 
L 207.067769 218.894105 
L 202.968595 216.324763 
L 198.869421 213.731464 
L 194.770248 211.103869 
L 190.671074 208.454368 
L 186.571901 205.780427 
L 182.472727 203.098837 
L 178.373554 200.438338 
L 174.27438 197.809267 
L 170.175207 195.255928 
L 166.076033 192.72471 
L 161.97686 190.211869 
L 157.877686 187.717038 
L 153.778512 185.208383 
L 149.679339 182.688838 
L 145.580165 180.204799 
L 141.480992 177.791918 
L 137.381818 175.577216 
L 133.282645 173.43719 
L 129.183471 171.326953 
L 125.084298 169.229634 
L 120.985124 167.137722 
L 116.88595 165.045811 
L 112.786777 162.953899 
L 108.687603 160.861987 
L 104.58843 158.770076 
L 100.489256 156.678164 
L 96.390083 154.586253 
L 92.290909 152.494341 
z
" style="fill:#fd8d3c;"/>
   </g>
   <g id="PolyCollection_7">
    <path clip-path="url(#p9ca4fd26e4)" d="M 92.290909 148.691229 
L 92.290909 152.494341 
L 96.390083 154.586253 
L 100.489256 156.678164 
L 104.58843 158.770076 
L 108.687603 160.861987 
L 112.786777 162.953899 
L 116.88595 165.045811 
L 120.985124 167.137722 
L 125.084298 169.229634 
L 129.183471 171.326953 
L 133.282645 173.43719 
L 137.381818 175.577216 
L 141.480992 177.791918 
L 145.580165 180.204799 
L 149.679339 182.688838 
L 153.778512 185.208383 
L 157.877686 187.717038 
L 161.97686 190.211869 
L 166.076033 192.72471 
L 170.175207 195.255928 
L 174.27438 197.809267 
L 178.373554 200.438338 
L 182.472727 203.098837 
L 186.571901 205.780427 
L 190.671074 208.454368 
L 194.770248 211.103869 
L 198.869421 213.731464 
L 202.968595 216.324763 
L 207.067769 218.894105 
L 211.166942 221.424152 
L 215.266116 223.917259 
L 219.365289 226.364053 
L 223.464463 228.777231 
L 227.563636 231.147215 
L 231.66281 233.494005 
L 235.761983 235.817075 
L 239.861157 238.120815 
L 243.960331 240.411375 
L 248.059504 242.67891 
L 252.158678 244.928696 
L 256.257851 247.152542 
L 260.357025 249.356032 
L 264.456198 251.540408 
L 268.555372 253.686901 
L 272.654545 255.807885 
L 276.753719 257.907849 
L 280.852893 259.990567 
L 284.952066 262.04905 
L 289.05124 264.081311 
L 293.150413 266.088711 
L 297.249587 268.072887 
L 301.34876 270.038654 
L 305.447934 271.985443 
L 309.547107 273.920336 
L 313.646281 275.833921 
L 317.745455 277.716747 
L 321.844628 279.572638 
L 325.943802 281.403387 
L 330.042975 283.206622 
L 334.142149 284.990211 
L 338.241322 286.754687 
L 342.340496 288.501163 
L 346.439669 290.229035 
L 350.538843 291.936276 
L 354.638017 293.622385 
L 358.73719 295.293192 
L 362.836364 296.950211 
L 366.935537 298.588579 
L 371.034711 300.207808 
L 375.133884 301.80742 
L 379.233058 303.38982 
L 383.332231 304.958647 
L 387.431405 306.505623 
L 391.530579 308.030226 
L 395.629752 309.537139 
L 399.728926 311.027015 
L 403.828099 312.498641 
L 407.927273 313.953898 
L 412.026446 315.399107 
L 416.12562 316.830269 
L 420.224793 318.246013 
L 424.323967 319.644104 
L 428.42314 321.0269 
L 432.522314 322.398067 
L 436.621488 323.756369 
L 440.720661 325.098855 
L 444.819835 326.427812 
L 448.919008 327.745804 
L 453.018182 329.051378 
L 457.117355 330.341179 
L 461.216529 331.612774 
L 465.315702 332.869732 
L 469.414876 334.110565 
L 473.51405 335.332976 
L 477.613223 336.542436 
L 481.712397 337.743979 
L 485.81157 338.934188 
L 489.910744 340.115497 
L 494.009917 341.285264 
L 498.109091 342.441383 
L 498.109091 342.441383 
L 498.109091 342.441383 
L 494.009917 341.248312 
L 489.910744 340.041456 
L 485.81157 338.822899 
L 481.712397 337.595385 
L 477.613223 336.356353 
L 473.51405 335.109112 
L 469.414876 333.848899 
L 465.315702 332.570231 
L 461.216529 331.275424 
L 457.117355 329.966001 
L 453.018182 328.638308 
L 448.919008 327.294721 
L 444.819835 325.938597 
L 440.720661 324.571511 
L 436.621488 323.190789 
L 432.522314 321.794308 
L 428.42314 320.384919 
L 424.323967 318.963787 
L 420.224793 317.527225 
L 416.12562 316.073011 
L 412.026446 314.603204 
L 407.927273 313.119286 
L 403.828099 311.625415 
L 399.728926 310.115173 
L 395.629752 308.586581 
L 391.530579 307.040812 
L 387.431405 305.477338 
L 383.332231 303.891491 
L 379.233058 302.283725 
L 375.133884 300.662512 
L 371.034711 299.024312 
L 366.935537 297.366307 
L 362.836364 295.689306 
L 358.73719 293.993595 
L 354.638017 292.284223 
L 350.538843 290.559523 
L 346.439669 288.813553 
L 342.340496 287.046792 
L 338.241322 285.261442 
L 334.142149 283.458105 
L 330.042975 281.635732 
L 325.943802 279.793804 
L 321.844628 277.924413 
L 317.745455 276.029969 
L 313.646281 274.10863 
L 309.547107 272.156584 
L 305.447934 270.183221 
L 301.34876 268.197928 
L 297.249587 266.193662 
L 293.150413 264.170909 
L 289.05124 262.124903 
L 284.952066 260.054089 
L 280.852893 257.957041 
L 276.753719 255.835746 
L 272.654545 253.697205 
L 268.555372 251.537655 
L 264.456198 249.352585 
L 260.357025 247.129625 
L 256.257851 244.887575 
L 252.158678 242.62519 
L 248.059504 240.336899 
L 243.960331 238.030869 
L 239.861157 235.701807 
L 235.761983 233.359562 
L 231.66281 230.998029 
L 227.563636 228.612736 
L 223.464463 226.204222 
L 219.365289 223.752487 
L 215.266116 221.267137 
L 211.166942 218.735475 
L 207.067769 216.166872 
L 202.968595 213.558984 
L 198.869421 210.927212 
L 194.770248 208.261159 
L 190.671074 205.573228 
L 186.571901 202.860872 
L 182.472727 200.140867 
L 178.373554 197.441952 
L 174.27438 194.774467 
L 170.175207 192.182712 
L 166.076033 189.613079 
L 161.97686 187.061823 
L 157.877686 184.528577 
L 153.778512 181.981505 
L 149.679339 179.423539 
L 145.580165 176.901086 
L 141.480992 174.449789 
L 137.381818 172.196672 
L 133.282645 170.018231 
L 129.183471 167.869578 
L 125.084298 165.733843 
L 120.985124 163.603517 
L 116.88595 161.47319 
L 112.786777 159.342863 
L 108.687603 157.212536 
L 104.58843 155.082209 
L 100.489256 152.951882 
L 96.390083 150.821555 
L 92.290909 148.691229 
z
" style="fill:#fdae6b;"/>
   </g>
   <g id="PolyCollection_8">
    <path clip-path="url(#p9ca4fd26e4)" d="M 92.290909 142.343698 
L 92.290909 148.691229 
L 96.390083 150.821555 
L 100.489256 152.951882 
L 104.58843 155.082209 
L 108.687603 157.212536 
L 112.786777 159.342863 
L 116.88595 161.47319 
L 120.985124 163.603517 
L 125.084298 165.733843 
L 129.183471 167.869578 
L 133.282645 170.018231 
L 137.381818 172.196672 
L 141.480992 174.449789 
L 145.580165 176.901086 
L 149.679339 179.423539 
L 153.778512 181.981505 
L 157.877686 184.528577 
L 161.97686 187.061823 
L 166.076033 189.613079 
L 170.175207 192.182712 
L 174.27438 194.774467 
L 178.373554 197.441952 
L 182.472727 200.140867 
L 186.571901 202.860872 
L 190.671074 205.573228 
L 194.770248 208.261159 
L 198.869421 210.927212 
L 202.968595 213.558984 
L 207.067769 216.166872 
L 211.166942 218.735475 
L 215.266116 221.267137 
L 219.365289 223.752487 
L 223.464463 226.204222 
L 227.563636 228.612736 
L 231.66281 230.998029 
L 235.761983 233.359562 
L 239.861157 235.701807 
L 243.960331 238.030869 
L 248.059504 240.336899 
L 252.158678 242.62519 
L 256.257851 244.887575 
L 260.357025 247.129625 
L 264.456198 249.352585 
L 268.555372 251.537655 
L 272.654545 253.697205 
L 276.753719 255.835746 
L 280.852893 257.957041 
L 284.952066 260.054089 
L 289.05124 262.124903 
L 293.150413 264.170909 
L 297.249587 266.193662 
L 301.34876 268.197928 
L 305.447934 270.183221 
L 309.547107 272.156584 
L 313.646281 274.10863 
L 317.745455 276.029969 
L 321.844628 277.924413 
L 325.943802 279.793804 
L 330.042975 281.635732 
L 334.142149 283.458105 
L 338.241322 285.261442 
L 342.340496 287.046792 
L 346.439669 288.813553 
L 350.538843 290.559523 
L 354.638017 292.284223 
L 358.73719 293.993595 
L 362.836364 295.689306 
L 366.935537 297.366307 
L 371.034711 299.024312 
L 375.133884 300.662512 
L 379.233058 302.283725 
L 383.332231 303.891491 
L 387.431405 305.477338 
L 391.530579 307.040812 
L 395.629752 308.586581 
L 399.728926 310.115173 
L 403.828099 311.625415 
L 407.927273 313.119286 
L 412.026446 314.603204 
L 416.12562 316.073011 
L 420.224793 317.527225 
L 424.323967 318.963787 
L 428.42314 320.384919 
L 432.522314 321.794308 
L 436.621488 323.190789 
L 440.720661 324.571511 
L 444.819835 325.938597 
L 448.919008 327.294721 
L 453.018182 328.638308 
L 457.117355 329.966001 
L 461.216529 331.275424 
L 465.315702 332.570231 
L 469.414876 333.848899 
L 473.51405 335.109112 
L 477.613223 336.356353 
L 481.712397 337.595385 
L 485.81157 338.822899 
L 489.910744 340.041456 
L 494.009917 341.248312 
L 498.109091 342.441383 
L 498.109091 336.093852 
L 498.109091 336.093852 
L 494.009917 334.900782 
L 489.910744 333.693925 
L 485.81157 332.475368 
L 481.712397 331.247854 
L 477.613223 330.008822 
L 473.51405 328.761582 
L 469.414876 327.501369 
L 465.315702 326.222701 
L 461.216529 324.927894 
L 457.117355 323.618471 
L 453.018182 322.290778 
L 448.919008 320.94719 
L 444.819835 319.591066 
L 440.720661 318.223981 
L 436.621488 316.843259 
L 432.522314 315.446778 
L 428.42314 314.037388 
L 424.323967 312.616257 
L 420.224793 311.179695 
L 416.12562 309.725481 
L 412.026446 308.255674 
L 407.927273 306.771756 
L 403.828099 305.277885 
L 399.728926 303.767642 
L 395.629752 302.23905 
L 391.530579 300.693281 
L 387.431405 299.129808 
L 383.332231 297.54396 
L 379.233058 295.936195 
L 375.133884 294.314982 
L 371.034711 292.676781 
L 366.935537 291.018777 
L 362.836364 289.341776 
L 358.73719 287.646064 
L 354.638017 285.936693 
L 350.538843 284.211993 
L 346.439669 282.466022 
L 342.340496 280.699262 
L 338.241322 278.913912 
L 334.142149 277.110574 
L 330.042975 275.288202 
L 325.943802 273.446273 
L 321.844628 271.576883 
L 317.745455 269.682439 
L 313.646281 267.761099 
L 309.547107 265.809054 
L 305.447934 263.835691 
L 301.34876 261.850398 
L 297.249587 259.846132 
L 293.150413 257.823379 
L 289.05124 255.777373 
L 284.952066 253.706559 
L 280.852893 251.609511 
L 276.753719 249.488216 
L 272.654545 247.349675 
L 268.555372 245.190125 
L 264.456198 243.005055 
L 260.357025 240.782094 
L 256.257851 238.540045 
L 252.158678 236.277659 
L 248.059504 233.989369 
L 243.960331 231.683338 
L 239.861157 229.354277 
L 235.761983 227.012032 
L 231.66281 224.650499 
L 227.563636 222.265206 
L 223.464463 219.856692 
L 219.365289 217.404957 
L 215.266116 214.919607 
L 211.166942 212.387944 
L 207.067769 209.819342 
L 202.968595 207.211454 
L 198.869421 204.579682 
L 194.770248 201.913628 
L 190.671074 199.225698 
L 186.571901 196.513342 
L 182.472727 193.793336 
L 178.373554 191.094422 
L 174.27438 188.426936 
L 170.175207 185.835182 
L 166.076033 183.265549 
L 161.97686 180.714293 
L 157.877686 178.181047 
L 153.778512 175.633975 
L 149.679339 173.076009 
L 145.580165 170.553555 
L 141.480992 168.102259 
L 137.381818 165.849142 
L 133.282645 163.6707 
L 129.183471 161.522048 
L 125.084298 159.386313 
L 120.985124 157.255986 
L 116.88595 155.125659 
L 112.786777 152.995333 
L 108.687603 150.865006 
L 104.58843 148.734679 
L 100.489256 146.604352 
L 96.390083 144.474025 
L 92.290909 142.343698 
z
" style="fill:#fdd0a2;"/>
   </g>
   <g id="PolyCollection_9">
    <path clip-path="url(#p9ca4fd26e4)" d="M 92.290909 139.362619 
L 92.290909 142.343698 
L 96.390083 144.474025 
L 100.489256 146.604352 
L 104.58843 148.734679 
L 108.687603 150.865006 
L 112.786777 152.995333 
L 116.88595 155.125659 
L 120.985124 157.255986 
L 125.084298 159.386313 
L 129.183471 161.522048 
L 133.282645 163.6707 
L 137.381818 165.849142 
L 141.480992 168.102259 
L 145.580165 170.553555 
L 149.679339 173.076009 
L 153.778512 175.633975 
L 157.877686 178.181047 
L 161.97686 180.714293 
L 166.076033 183.265549 
L 170.175207 185.835182 
L 174.27438 188.426936 
L 178.373554 191.094422 
L 182.472727 193.793336 
L 186.571901 196.513342 
L 190.671074 199.225698 
L 194.770248 201.913628 
L 198.869421 204.579682 
L 202.968595 207.211454 
L 207.067769 209.819342 
L 211.166942 212.387944 
L 215.266116 214.919607 
L 219.365289 217.404957 
L 223.464463 219.856692 
L 227.563636 222.265206 
L 231.66281 224.650499 
L 235.761983 227.012032 
L 239.861157 229.354277 
L 243.960331 231.683338 
L 248.059504 233.989369 
L 252.158678 236.277659 
L 256.257851 238.540045 
L 260.357025 240.782094 
L 264.456198 243.005055 
L 268.555372 245.190125 
L 272.654545 247.349675 
L 276.753719 249.488216 
L 280.852893 251.609511 
L 284.952066 253.706559 
L 289.05124 255.777373 
L 293.150413 257.823379 
L 297.249587 259.846132 
L 301.34876 261.850398 
L 305.447934 263.835691 
L 309.547107 265.809054 
L 313.646281 267.761099 
L 317.745455 269.682439 
L 321.844628 271.576883 
L 325.943802 273.446273 
L 330.042975 275.288202 
L 334.142149 277.110574 
L 338.241322 278.913912 
L 342.340496 280.699262 
L 346.439669 282.466022 
L 350.538843 284.211993 
L 354.638017 285.936693 
L 358.73719 287.646064 
L 362.836364 289.341776 
L 366.935537 291.018777 
L 371.034711 292.676781 
L 375.133884 294.314982 
L 379.233058 295.936195 
L 383.332231 297.54396 
L 387.431405 299.129808 
L 391.530579 300.693281 
L 395.629752 302.23905 
L 399.728926 303.767642 
L 403.828099 305.277885 
L 407.927273 306.771756 
L 412.026446 308.255674 
L 416.12562 309.725481 
L 420.224793 311.179695 
L 424.323967 312.616257 
L 428.42314 314.037388 
L 432.522314 315.446778 
L 436.621488 316.843259 
L 440.720661 318.223981 
L 444.819835 319.591066 
L 448.919008 320.94719 
L 453.018182 322.290778 
L 457.117355 323.618471 
L 461.216529 324.927894 
L 465.315702 326.222701 
L 469.414876 327.501369 
L 473.51405 328.761582 
L 477.613223 330.008822 
L 481.712397 331.247854 
L 485.81157 332.475368 
L 489.910744 333.693925 
L 494.009917 334.900782 
L 498.109091 336.093852 
L 498.109091 333.112773 
L 498.109091 333.112773 
L 494.009917 331.919703 
L 489.910744 330.712846 
L 485.81157 329.494289 
L 481.712397 328.266775 
L 477.613223 327.027743 
L 473.51405 325.780503 
L 469.414876 324.52029 
L 465.315702 323.241622 
L 461.216529 321.946815 
L 457.117355 320.637392 
L 453.018182 319.309699 
L 448.919008 317.966111 
L 444.819835 316.609987 
L 440.720661 315.242902 
L 436.621488 313.86218 
L 432.522314 312.465699 
L 428.42314 311.056309 
L 424.323967 309.635178 
L 420.224793 308.198616 
L 416.12562 306.744402 
L 412.026446 305.274595 
L 407.927273 303.790677 
L 403.828099 302.296806 
L 399.728926 300.786563 
L 395.629752 299.257971 
L 391.530579 297.712202 
L 387.431405 296.148729 
L 383.332231 294.562882 
L 379.233058 292.955116 
L 375.133884 291.333903 
L 371.034711 289.695702 
L 366.935537 288.037698 
L 362.836364 286.360697 
L 358.73719 284.664985 
L 354.638017 282.955614 
L 350.538843 281.230914 
L 346.439669 279.484943 
L 342.340496 277.718183 
L 338.241322 275.932833 
L 334.142149 274.129495 
L 330.042975 272.307123 
L 325.943802 270.465194 
L 321.844628 268.595804 
L 317.745455 266.70136 
L 313.646281 264.78002 
L 309.547107 262.827975 
L 305.447934 260.854612 
L 301.34876 258.869319 
L 297.249587 256.865053 
L 293.150413 254.8423 
L 289.05124 252.796294 
L 284.952066 250.72548 
L 280.852893 248.628432 
L 276.753719 246.507137 
L 272.654545 244.368596 
L 268.555372 242.209046 
L 264.456198 240.023976 
L 260.357025 237.801015 
L 256.257851 235.558966 
L 252.158678 233.29658 
L 248.059504 231.00829 
L 243.960331 228.70226 
L 239.861157 226.373198 
L 235.761983 224.030953 
L 231.66281 221.66942 
L 227.563636 219.284127 
L 223.464463 216.875613 
L 219.365289 214.423878 
L 215.266116 211.938528 
L 211.166942 209.406865 
L 207.067769 206.838263 
L 202.968595 204.230375 
L 198.869421 201.598603 
L 194.770248 198.932549 
L 190.671074 196.244619 
L 186.571901 193.532263 
L 182.472727 190.812257 
L 178.373554 188.113343 
L 174.27438 185.445857 
L 170.175207 182.854103 
L 166.076033 180.28447 
L 161.97686 177.733214 
L 157.877686 175.199968 
L 153.778512 172.652896 
L 149.679339 170.09493 
L 145.580165 167.572476 
L 141.480992 165.12118 
L 137.381818 162.868063 
L 133.282645 160.689622 
L 129.183471 158.540969 
L 125.084298 156.405234 
L 120.985124 154.274907 
L 116.88595 152.14458 
L 112.786777 150.014254 
L 108.687603 147.883927 
L 104.58843 145.7536 
L 100.489256 143.623273 
L 96.390083 141.492946 
L 92.290909 139.362619 
z
" style="fill:#31a354;"/>
   </g>
   <g id="PolyCollection_10">
    <path clip-path="url(#p9ca4fd26e4)" d="M 92.290909 135.36 
L 92.290909 139.362619 
L 96.390083 141.492946 
L 100.489256 143.623273 
L 104.58843 145.7536 
L 108.687603 147.883927 
L 112.786777 150.014254 
L 116.88595 152.14458 
L 120.985124 154.274907 
L 125.084298 156.405234 
L 129.183471 158.540969 
L 133.282645 160.689622 
L 137.381818 162.868063 
L 141.480992 165.12118 
L 145.580165 167.572476 
L 149.679339 170.09493 
L 153.778512 172.652896 
L 157.877686 175.199968 
L 161.97686 177.733214 
L 166.076033 180.28447 
L 170.175207 182.854103 
L 174.27438 185.445857 
L 178.373554 188.113343 
L 182.472727 190.812257 
L 186.571901 193.532263 
L 190.671074 196.244619 
L 194.770248 198.932549 
L 198.869421 201.598603 
L 202.968595 204.230375 
L 207.067769 206.838263 
L 211.166942 209.406865 
L 215.266116 211.938528 
L 219.365289 214.423878 
L 223.464463 216.875613 
L 227.563636 219.284127 
L 231.66281 221.66942 
L 235.761983 224.030953 
L 239.861157 226.373198 
L 243.960331 228.70226 
L 248.059504 231.00829 
L 252.158678 233.29658 
L 256.257851 235.558966 
L 260.357025 237.801015 
L 264.456198 240.023976 
L 268.555372 242.209046 
L 272.654545 244.368596 
L 276.753719 246.507137 
L 280.852893 248.628432 
L 284.952066 250.72548 
L 289.05124 252.796294 
L 293.150413 254.8423 
L 297.249587 256.865053 
L 301.34876 258.869319 
L 305.447934 260.854612 
L 309.547107 262.827975 
L 313.646281 264.78002 
L 317.745455 266.70136 
L 321.844628 268.595804 
L 325.943802 270.465194 
L 330.042975 272.307123 
L 334.142149 274.129495 
L 338.241322 275.932833 
L 342.340496 277.718183 
L 346.439669 279.484943 
L 350.538843 281.230914 
L 354.638017 282.955614 
L 358.73719 284.664985 
L 362.836364 286.360697 
L 366.935537 288.037698 
L 371.034711 289.695702 
L 375.133884 291.333903 
L 379.233058 292.955116 
L 383.332231 294.562882 
L 387.431405 296.148729 
L 391.530579 297.712202 
L 395.629752 299.257971 
L 399.728926 300.786563 
L 403.828099 302.296806 
L 407.927273 303.790677 
L 412.026446 305.274595 
L 416.12562 306.744402 
L 420.224793 308.198616 
L 424.323967 309.635178 
L 428.42314 311.056309 
L 432.522314 312.465699 
L 436.621488 313.86218 
L 440.720661 315.242902 
L 444.819835 316.609987 
L 448.919008 317.966111 
L 453.018182 319.309699 
L 457.117355 320.637392 
L 461.216529 321.946815 
L 465.315702 323.241622 
L 469.414876 324.52029 
L 473.51405 325.780503 
L 477.613223 327.027743 
L 481.712397 328.266775 
L 485.81157 329.494289 
L 489.910744 330.712846 
L 494.009917 331.919703 
L 498.109091 333.112773 
L 498.109091 333.112773 
L 498.109091 333.112773 
L 494.009917 331.879273 
L 489.910744 330.631985 
L 485.81157 329.372998 
L 481.712397 328.105053 
L 477.613223 326.825591 
L 473.51405 325.53792 
L 469.414876 324.237277 
L 465.315702 322.918178 
L 461.216529 321.58294 
L 457.117355 320.233087 
L 453.018182 318.864963 
L 448.919008 317.480945 
L 444.819835 316.084391 
L 440.720661 314.676875 
L 436.621488 313.255722 
L 432.522314 311.818811 
L 428.42314 310.368991 
L 424.323967 308.907429 
L 420.224793 307.430436 
L 416.12562 305.935792 
L 412.026446 304.425554 
L 407.927273 302.901206 
L 403.828099 301.366904 
L 399.728926 299.816231 
L 395.629752 298.247209 
L 391.530579 296.661009 
L 387.431405 295.057106 
L 383.332231 293.430828 
L 379.233058 291.782631 
L 375.133884 290.120988 
L 371.034711 288.442357 
L 366.935537 286.743922 
L 362.836364 285.026491 
L 358.73719 283.290348 
L 354.638017 281.540546 
L 350.538843 279.775416 
L 346.439669 277.989015 
L 342.340496 276.181824 
L 338.241322 274.356044 
L 334.142149 272.512275 
L 330.042975 270.649472 
L 325.943802 268.767114 
L 321.844628 266.857292 
L 317.745455 264.922418 
L 313.646281 262.960648 
L 309.547107 260.968172 
L 305.447934 258.954378 
L 301.34876 256.928655 
L 297.249587 254.883959 
L 293.150413 252.820775 
L 289.05124 250.734339 
L 284.952066 248.623094 
L 280.852893 246.485616 
L 276.753719 244.32389 
L 272.654545 242.144919 
L 268.555372 239.944938 
L 264.456198 237.719437 
L 260.357025 235.456046 
L 256.257851 233.173567 
L 252.158678 230.87075 
L 248.059504 228.542029 
L 243.960331 226.195569 
L 239.861157 223.826076 
L 235.761983 221.443401 
L 231.66281 219.041438 
L 227.563636 216.615714 
L 223.464463 214.16677 
L 219.365289 211.674604 
L 215.266116 209.148824 
L 211.166942 206.57673 
L 207.067769 203.967698 
L 202.968595 201.319379 
L 198.869421 198.647176 
L 194.770248 195.940693 
L 190.671074 193.212332 
L 186.571901 190.459545 
L 182.472727 187.699109 
L 178.373554 184.959764 
L 174.27438 182.251848 
L 170.175207 179.619663 
L 166.076033 177.009599 
L 161.97686 174.417913 
L 157.877686 171.844237 
L 153.778512 169.256734 
L 149.679339 166.658338 
L 145.580165 164.095454 
L 141.480992 161.603726 
L 137.381818 159.310179 
L 133.282645 157.091307 
L 129.183471 154.902224 
L 125.084298 152.726059 
L 120.985124 150.555302 
L 116.88595 148.384544 
L 112.786777 146.213787 
L 108.687603 144.043029 
L 104.58843 141.872272 
L 100.489256 139.701515 
L 96.390083 137.530757 
L 92.290909 135.36 
z
" style="fill:#74c476;"/>
   </g>
   <g id="PolyCollection_11">
    <path clip-path="url(#p9ca4fd26e4)" d="M 92.290909 135.36 
L 92.290909 135.36 
L 96.390083 137.530757 
L 100.489256 139.701515 
L 104.58843 141.872272 
L 108.687603 144.043029 
L 112.786777 146.213787 
L 116.88595 148.384544 
L 120.985124 150.555302 
L 125.084298 152.726059 
L 129.183471 154.902224 
L 133.282645 157.091307 
L 137.381818 159.310179 
L 141.480992 161.603726 
L 145.580165 164.095454 
L 149.679339 166.658338 
L 153.778512 169.256734 
L 157.877686 171.844237 
L 161.97686 174.417913 
L 166.076033 177.009599 
L 170.175207 179.619663 
L 174.27438 182.251848 
L 178.373554 184.959764 
L 182.472727 187.699109 
L 186.571901 190.459545 
L 190.671074 193.212332 
L 194.770248 195.940693 
L 198.869421 198.647176 
L 202.968595 201.319379 
L 207.067769 203.967698 
L 211.166942 206.57673 
L 215.266116 209.148824 
L 219.365289 211.674604 
L 223.464463 214.16677 
L 227.563636 216.615714 
L 231.66281 219.041438 
L 235.761983 221.443401 
L 239.861157 223.826076 
L 243.960331 226.195569 
L 248.059504 228.542029 
L 252.158678 230.87075 
L 256.257851 233.173567 
L 260.357025 235.456046 
L 264.456198 237.719437 
L 268.555372 239.944938 
L 272.654545 242.144919 
L 276.753719 244.32389 
L 280.852893 246.485616 
L 284.952066 248.623094 
L 289.05124 250.734339 
L 293.150413 252.820775 
L 297.249587 254.883959 
L 301.34876 256.928655 
L 305.447934 258.954378 
L 309.547107 260.968172 
L 313.646281 262.960648 
L 317.745455 264.922418 
L 321.844628 266.857292 
L 325.943802 268.767114 
L 330.042975 270.649472 
L 334.142149 272.512275 
L 338.241322 274.356044 
L 342.340496 276.181824 
L 346.439669 277.989015 
L 350.538843 279.775416 
L 354.638017 281.540546 
L 358.73719 283.290348 
L 362.836364 285.026491 
L 366.935537 286.743922 
L 371.034711 288.442357 
L 375.133884 290.120988 
L 379.233058 291.782631 
L 383.332231 293.430828 
L 387.431405 295.057106 
L 391.530579 296.661009 
L 395.629752 298.247209 
L 399.728926 299.816231 
L 403.828099 301.366904 
L 407.927273 302.901206 
L 412.026446 304.425554 
L 416.12562 305.935792 
L 420.224793 307.430436 
L 424.323967 308.907429 
L 428.42314 310.368991 
L 432.522314 311.818811 
L 436.621488 313.255722 
L 440.720661 314.676875 
L 444.819835 316.084391 
L 448.919008 317.480945 
L 453.018182 318.864963 
L 457.117355 320.233087 
L 461.216529 321.58294 
L 465.315702 322.918178 
L 469.414876 324.237277 
L 473.51405 325.53792 
L 477.613223 326.825591 
L 481.712397 328.105053 
L 485.81157 329.372998 
L 489.910744 330.631985 
L 494.009917 331.879273 
L 498.109091 333.112773 
L 498.109091 323.012345 
L 498.109091 323.012345 
L 494.009917 321.828051 
L 489.910744 320.630655 
L 485.81157 319.422186 
L 481.712397 318.205548 
L 477.613223 316.978089 
L 473.51405 315.74314 
L 469.414876 314.496093 
L 465.315702 313.231497 
L 461.216529 311.951514 
L 457.117355 310.658175 
L 453.018182 309.347513 
L 448.919008 308.02192 
L 444.819835 306.684729 
L 440.720661 305.337145 
L 436.621488 303.976954 
L 432.522314 302.602051 
L 428.42314 301.21513 
L 424.323967 299.817544 
L 420.224793 298.40583 
L 416.12562 296.977559 
L 412.026446 295.534789 
L 407.927273 294.078686 
L 403.828099 292.613767 
L 399.728926 291.133482 
L 395.629752 289.635924 
L 391.530579 288.122348 
L 387.431405 286.592186 
L 383.332231 285.040876 
L 379.233058 283.468485 
L 375.133884 281.883135 
L 371.034711 280.282026 
L 366.935537 278.662865 
L 362.836364 277.026113 
L 358.73719 275.371786 
L 354.638017 273.704821 
L 350.538843 272.023872 
L 346.439669 270.323233 
L 342.340496 268.602816 
L 338.241322 266.865239 
L 334.142149 265.110819 
L 330.042975 263.338944 
L 325.943802 261.549971 
L 321.844628 259.735398 
L 317.745455 257.897131 
L 313.646281 256.033648 
L 309.547107 254.140792 
L 305.447934 252.228174 
L 301.34876 250.305429 
L 297.249587 248.365348 
L 293.150413 246.408573 
L 289.05124 244.430211 
L 284.952066 242.428818 
L 280.852893 240.403187 
L 276.753719 238.354993 
L 272.654545 236.29103 
L 268.555372 234.206913 
L 264.456198 232.099352 
L 260.357025 229.955473 
L 256.257851 227.793721 
L 252.158678 225.613122 
L 248.059504 223.407736 
L 243.960331 221.185671 
L 239.861157 218.941744 
L 235.761983 216.686095 
L 231.66281 214.412506 
L 227.563636 212.116576 
L 223.464463 209.799083 
L 219.365289 207.439659 
L 215.266116 205.047045 
L 211.166942 202.608753 
L 207.067769 200.134192 
L 202.968595 197.620933 
L 198.869421 195.084268 
L 194.770248 192.513839 
L 190.671074 189.921694 
L 186.571901 187.305266 
L 182.472727 184.681311 
L 178.373554 182.078574 
L 174.27438 179.507267 
L 170.175207 177.011734 
L 166.076033 174.538383 
L 161.97686 172.0835 
L 157.877686 169.646826 
L 153.778512 167.196431 
L 149.679339 164.735199 
L 145.580165 162.309537 
L 141.480992 159.955058 
L 137.381818 157.798862 
L 133.282645 155.717383 
L 129.183471 153.665692 
L 125.084298 151.626919 
L 120.985124 149.593555 
L 116.88595 147.56019 
L 112.786777 145.526825 
L 108.687603 143.49346 
L 104.58843 141.460095 
L 100.489256 139.42673 
L 96.390083 137.393365 
L 92.290909 135.36 
z
" style="fill:#a1d99b;"/>
   </g>
   <g id="PolyCollection_12">
    <path clip-path="url(#p9ca4fd26e4)" d="M 92.290909 135.36 
L 92.290909 135.36 
L 96.390083 137.393365 
L 100.489256 139.42673 
L 104.58843 141.460095 
L 108.687603 143.49346 
L 112.786777 145.526825 
L 116.88595 147.56019 
L 120.985124 149.593555 
L 125.084298 151.626919 
L 129.183471 153.665692 
L 133.282645 155.717383 
L 137.381818 157.798862 
L 141.480992 159.955058 
L 145.580165 162.309537 
L 149.679339 164.735199 
L 153.778512 167.196431 
L 157.877686 169.646826 
L 161.97686 172.0835 
L 166.076033 174.538383 
L 170.175207 177.011734 
L 174.27438 179.507267 
L 178.373554 182.078574 
L 182.472727 184.681311 
L 186.571901 187.305266 
L 190.671074 189.921694 
L 194.770248 192.513839 
L 198.869421 195.084268 
L 202.968595 197.620933 
L 207.067769 200.134192 
L 211.166942 202.608753 
L 215.266116 205.047045 
L 219.365289 207.439659 
L 223.464463 209.799083 
L 227.563636 212.116576 
L 231.66281 214.412506 
L 235.761983 216.686095 
L 239.861157 218.941744 
L 243.960331 221.185671 
L 248.059504 223.407736 
L 252.158678 225.613122 
L 256.257851 227.793721 
L 260.357025 229.955473 
L 264.456198 232.099352 
L 268.555372 234.206913 
L 272.654545 236.29103 
L 276.753719 238.354993 
L 280.852893 240.403187 
L 284.952066 242.428818 
L 289.05124 244.430211 
L 293.150413 246.408573 
L 297.249587 248.365348 
L 301.34876 250.305429 
L 305.447934 252.228174 
L 309.547107 254.140792 
L 313.646281 256.033648 
L 317.745455 257.897131 
L 321.844628 259.735398 
L 325.943802 261.549971 
L 330.042975 263.338944 
L 334.142149 265.110819 
L 338.241322 266.865239 
L 342.340496 268.602816 
L 346.439669 270.323233 
L 350.538843 272.023872 
L 354.638017 273.704821 
L 358.73719 275.371786 
L 362.836364 277.026113 
L 366.935537 278.662865 
L 371.034711 280.282026 
L 375.133884 281.883135 
L 379.233058 283.468485 
L 383.332231 285.040876 
L 387.431405 286.592186 
L 391.530579 288.122348 
L 395.629752 289.635924 
L 399.728926 291.133482 
L 403.828099 292.613767 
L 407.927273 294.078686 
L 412.026446 295.534789 
L 416.12562 296.977559 
L 420.224793 298.40583 
L 424.323967 299.817544 
L 428.42314 301.21513 
L 432.522314 302.602051 
L 436.621488 303.976954 
L 440.720661 305.337145 
L 444.819835 306.684729 
L 448.919008 308.02192 
L 453.018182 309.347513 
L 457.117355 310.658175 
L 461.216529 311.951514 
L 465.315702 313.231497 
L 469.414876 314.496093 
L 473.51405 315.74314 
L 477.613223 316.978089 
L 481.712397 318.205548 
L 485.81157 319.422186 
L 489.910744 320.630655 
L 494.009917 321.828051 
L 498.109091 323.012345 
L 498.109091 309.238262 
L 498.109091 309.238262 
L 494.009917 308.189171 
L 489.910744 307.127284 
L 485.81157 306.054529 
L 481.712397 304.973877 
L 477.613223 303.882699 
L 473.51405 302.78429 
L 469.414876 301.673895 
L 465.315702 300.546067 
L 461.216529 299.40306 
L 457.117355 298.246942 
L 453.018182 297.073745 
L 448.919008 295.885873 
L 444.819835 294.686645 
L 440.720661 293.477139 
L 436.621488 292.255175 
L 432.522314 291.018614 
L 428.42314 289.77016 
L 424.323967 288.511108 
L 420.224793 287.237978 
L 416.12562 285.948418 
L 412.026446 284.644491 
L 407.927273 283.327325 
L 403.828099 282.001373 
L 399.728926 280.660094 
L 395.629752 279.301573 
L 391.530579 277.927101 
L 387.431405 276.536097 
L 383.332231 275.124014 
L 379.233058 273.69085 
L 375.133884 272.244729 
L 371.034711 270.782908 
L 366.935537 269.30311 
L 362.836364 267.805721 
L 358.73719 266.290766 
L 354.638017 264.76325 
L 350.538843 263.221749 
L 346.439669 261.660558 
L 342.340496 260.079589 
L 338.241322 258.48146 
L 334.142149 256.866488 
L 330.042975 255.234096 
L 325.943802 253.584623 
L 321.844628 251.90955 
L 317.745455 250.210827 
L 313.646281 248.486909 
L 309.547107 246.733662 
L 305.447934 244.960653 
L 301.34876 243.177518 
L 297.249587 241.377047 
L 293.150413 239.559887 
L 289.05124 237.721215 
L 284.952066 235.859539 
L 280.852893 233.973624 
L 276.753719 232.065147 
L 272.654545 230.1409 
L 268.555372 228.196499 
L 264.456198 226.228654 
L 260.357025 224.224492 
L 256.257851 222.202456 
L 252.158678 220.161573 
L 248.059504 218.095961 
L 243.960331 216.013679 
L 239.861157 213.909536 
L 235.761983 211.793671 
L 231.66281 209.659865 
L 227.563636 207.503719 
L 223.464463 205.326009 
L 219.365289 203.106368 
L 215.266116 200.853538 
L 211.166942 198.55503 
L 207.067769 196.220252 
L 202.968595 193.846777 
L 198.869421 191.449896 
L 194.770248 189.01925 
L 190.671074 186.566889 
L 186.571901 184.090244 
L 182.472727 181.606073 
L 178.373554 179.143119 
L 174.27438 176.711596 
L 170.175207 174.355847 
L 166.076033 172.022279 
L 161.97686 169.70718 
L 157.877686 167.410289 
L 153.778512 165.099677 
L 149.679339 162.77823 
L 145.580165 160.492351 
L 141.480992 158.277656 
L 137.381818 156.261243 
L 133.282645 154.319547 
L 129.183471 152.40764 
L 125.084298 150.508651 
L 120.985124 148.61507 
L 116.88595 146.721488 
L 112.786777 144.827907 
L 108.687603 142.934326 
L 104.58843 141.040744 
L 100.489256 139.147163 
L 96.390083 137.253581 
L 92.290909 135.36 
z
" style="fill:#c7e9c0;"/>
   </g>
   <g id="matplotlib.axis_1">
    <g id="xtick_1">
     <g id="line2d_1">
      <defs>
       <path d="M 0 0 
L 0 3.5 
" id="ma6d4b584b5" style="stroke:#000000;stroke-width:0.8;"/>
      </defs>
      <g>
       <use style="stroke:#000000;stroke-width:0.8;" x="92.290909" xlink:href="#ma6d4b584b5" y="768.96"/>
      </g>
     </g>
     <g id="text_1">
      <!-- 0 -->
      <g transform="translate(89.109659 783.558437)scale(0.1 -0.1)">
       <defs>
        <path d="M 2034 4250 
Q 1547 4250 1301 3770 
Q 1056 3291 1056 2328 
Q 1056 1369 1301 889 
Q 1547 409 2034 409 
Q 2525 409 2770 889 
Q 3016 1369 3016 2328 
Q 3016 3291 2770 3770 
Q 2525 4250 2034 4250 
z
M 2034 4750 
Q 2819 4750 3233 4129 
Q 3647 3509 3647 2328 
Q 3647 1150 3233 529 
Q 2819 -91 2034 -91 
Q 1250 -91 836 529 
Q 422 1150 422 2328 
Q 422 3509 836 4129 
Q 1250 4750 2034 4750 
z
" id="DejaVuSans-30" transform="scale(0.015625)"/>
       </defs>
       <use xlink:href="#DejaVuSans-30"/>
      </g>
     </g>
    </g>
    <g id="xtick_2">
     <g id="line2d_2">
      <g>
       <use style="stroke:#000000;stroke-width:0.8;" x="173.454545" xlink:href="#ma6d4b584b5" y="768.96"/>
      </g>
     </g>
     <g id="text_2">
      <!-- 20 -->
      <g transform="translate(167.092045 783.558437)scale(0.1 -0.1)">
       <defs>
        <path d="M 1228 531 
L 3431 531 
L 3431 0 
L 469 0 
L 469 531 
Q 828 903 1448 1529 
Q 2069 2156 2228 2338 
Q 2531 2678 2651 2914 
Q 2772 3150 2772 3378 
Q 2772 3750 2511 3984 
Q 2250 4219 1831 4219 
Q 1534 4219 1204 4116 
Q 875 4013 500 3803 
L 500 4441 
Q 881 4594 1212 4672 
Q 1544 4750 1819 4750 
Q 2544 4750 2975 4387 
Q 3406 4025 3406 3419 
Q 3406 3131 3298 2873 
Q 3191 2616 2906 2266 
Q 2828 2175 2409 1742 
Q 1991 1309 1228 531 
z
" id="DejaVuSans-32" transform="scale(0.015625)"/>
       </defs>
       <use xlink:href="#DejaVuSans-32"/>
       <use x="63.623047" xlink:href="#DejaVuSans-30"/>
      </g>
     </g>
    </g>
    <g id="xtick_3">
     <g id="line2d_3">
      <g>
       <use style="stroke:#000000;stroke-width:0.8;" x="254.618182" xlink:href="#ma6d4b584b5" y="768.96"/>
      </g>
     </g>
     <g id="text_3">
      <!-- 40 -->
      <g transform="translate(248.255682 783.558437)scale(0.1 -0.1)">
       <defs>
        <path d="M 2419 4116 
L 825 1625 
L 2419 1625 
L 2419 4116 
z
M 2253 4666 
L 3047 4666 
L 3047 1625 
L 3713 1625 
L 3713 1100 
L 3047 1100 
L 3047 0 
L 2419 0 
L 2419 1100 
L 313 1100 
L 313 1709 
L 2253 4666 
z
" id="DejaVuSans-34" transform="scale(0.015625)"/>
       </defs>
       <use xlink:href="#DejaVuSans-34"/>
       <use x="63.623047" xlink:href="#DejaVuSans-30"/>
      </g>
     </g>
    </g>
    <g id="xtick_4">
     <g id="line2d_4">
      <g>
       <use style="stroke:#000000;stroke-width:0.8;" x="335.781818" xlink:href="#ma6d4b584b5" y="768.96"/>
      </g>
     </g>
     <g id="text_4">
      <!-- 60 -->
      <g transform="translate(329.419318 783.558437)scale(0.1 -0.1)">
       <defs>
        <path d="M 2113 2584 
Q 1688 2584 1439 2293 
Q 1191 2003 1191 1497 
Q 1191 994 1439 701 
Q 1688 409 2113 409 
Q 2538 409 2786 701 
Q 3034 994 3034 1497 
Q 3034 2003 2786 2293 
Q 2538 2584 2113 2584 
z
M 3366 4563 
L 3366 3988 
Q 3128 4100 2886 4159 
Q 2644 4219 2406 4219 
Q 1781 4219 1451 3797 
Q 1122 3375 1075 2522 
Q 1259 2794 1537 2939 
Q 1816 3084 2150 3084 
Q 2853 3084 3261 2657 
Q 3669 2231 3669 1497 
Q 3669 778 3244 343 
Q 2819 -91 2113 -91 
Q 1303 -91 875 529 
Q 447 1150 447 2328 
Q 447 3434 972 4092 
Q 1497 4750 2381 4750 
Q 2619 4750 2861 4703 
Q 3103 4656 3366 4563 
z
" id="DejaVuSans-36" transform="scale(0.015625)"/>
       </defs>
       <use xlink:href="#DejaVuSans-36"/>
       <use x="63.623047" xlink:href="#DejaVuSans-30"/>
      </g>
     </g>
    </g>
    <g id="xtick_5">
     <g id="line2d_5">
      <g>
       <use style="stroke:#000000;stroke-width:0.8;" x="416.945455" xlink:href="#ma6d4b584b5" y="768.96"/>
      </g>
     </g>
     <g id="text_5">
      <!-- 80 -->
      <g transform="translate(410.582955 783.558437)scale(0.1 -0.1)">
       <defs>
        <path d="M 2034 2216 
Q 1584 2216 1326 1975 
Q 1069 1734 1069 1313 
Q 1069 891 1326 650 
Q 1584 409 2034 409 
Q 2484 409 2743 651 
Q 3003 894 3003 1313 
Q 3003 1734 2745 1975 
Q 2488 2216 2034 2216 
z
M 1403 2484 
Q 997 2584 770 2862 
Q 544 3141 544 3541 
Q 544 4100 942 4425 
Q 1341 4750 2034 4750 
Q 2731 4750 3128 4425 
Q 3525 4100 3525 3541 
Q 3525 3141 3298 2862 
Q 3072 2584 2669 2484 
Q 3125 2378 3379 2068 
Q 3634 1759 3634 1313 
Q 3634 634 3220 271 
Q 2806 -91 2034 -91 
Q 1263 -91 848 271 
Q 434 634 434 1313 
Q 434 1759 690 2068 
Q 947 2378 1403 2484 
z
M 1172 3481 
Q 1172 3119 1398 2916 
Q 1625 2713 2034 2713 
Q 2441 2713 2670 2916 
Q 2900 3119 2900 3481 
Q 2900 3844 2670 4047 
Q 2441 4250 2034 4250 
Q 1625 4250 1398 4047 
Q 1172 3844 1172 3481 
z
" id="DejaVuSans-38" transform="scale(0.015625)"/>
       </defs>
       <use xlink:href="#DejaVuSans-38"/>
       <use x="63.623047" xlink:href="#DejaVuSans-30"/>
      </g>
     </g>
    </g>
    <g id="xtick_6">
     <g id="line2d_6">
      <g>
       <use style="stroke:#000000;stroke-width:0.8;" x="498.109091" xlink:href="#ma6d4b584b5" y="768.96"/>
      </g>
     </g>
     <g id="text_6">
      <!-- 100 -->
      <g transform="translate(488.565341 783.558437)scale(0.1 -0.1)">
       <defs>
        <path d="M 794 531 
L 1825 531 
L 1825 4091 
L 703 3866 
L 703 4441 
L 1819 4666 
L 2450 4666 
L 2450 531 
L 3481 531 
L 3481 0 
L 794 0 
L 794 531 
z
" id="DejaVuSans-31" transform="scale(0.015625)"/>
       </defs>
       <use xlink:href="#DejaVuSans-31"/>
       <use x="63.623047" xlink:href="#DejaVuSans-30"/>
       <use x="127.246094" xlink:href="#DejaVuSans-30"/>
      </g>
     </g>
    </g>
    <g id="text_7">
     <!-- Proportion of New Technology in Grid (%) -->
     <g transform="translate(192.432031 797.236562)scale(0.1 -0.1)">
      <defs>
       <path d="M 1259 4147 
L 1259 2394 
L 2053 2394 
Q 2494 2394 2734 2622 
Q 2975 2850 2975 3272 
Q 2975 3691 2734 3919 
Q 2494 4147 2053 4147 
L 1259 4147 
z
M 628 4666 
L 2053 4666 
Q 2838 4666 3239 4311 
Q 3641 3956 3641 3272 
Q 3641 2581 3239 2228 
Q 2838 1875 2053 1875 
L 1259 1875 
L 1259 0 
L 628 0 
L 628 4666 
z
" id="DejaVuSans-50" transform="scale(0.015625)"/>
       <path d="M 2631 2963 
Q 2534 3019 2420 3045 
Q 2306 3072 2169 3072 
Q 1681 3072 1420 2755 
Q 1159 2438 1159 1844 
L 1159 0 
L 581 0 
L 581 3500 
L 1159 3500 
L 1159 2956 
Q 1341 3275 1631 3429 
Q 1922 3584 2338 3584 
Q 2397 3584 2469 3576 
Q 2541 3569 2628 3553 
L 2631 2963 
z
" id="DejaVuSans-72" transform="scale(0.015625)"/>
       <path d="M 1959 3097 
Q 1497 3097 1228 2736 
Q 959 2375 959 1747 
Q 959 1119 1226 758 
Q 1494 397 1959 397 
Q 2419 397 2687 759 
Q 2956 1122 2956 1747 
Q 2956 2369 2687 2733 
Q 2419 3097 1959 3097 
z
M 1959 3584 
Q 2709 3584 3137 3096 
Q 3566 2609 3566 1747 
Q 3566 888 3137 398 
Q 2709 -91 1959 -91 
Q 1206 -91 779 398 
Q 353 888 353 1747 
Q 353 2609 779 3096 
Q 1206 3584 1959 3584 
z
" id="DejaVuSans-6f" transform="scale(0.015625)"/>
       <path d="M 1159 525 
L 1159 -1331 
L 581 -1331 
L 581 3500 
L 1159 3500 
L 1159 2969 
Q 1341 3281 1617 3432 
Q 1894 3584 2278 3584 
Q 2916 3584 3314 3078 
Q 3713 2572 3713 1747 
Q 3713 922 3314 415 
Q 2916 -91 2278 -91 
Q 1894 -91 1617 61 
Q 1341 213 1159 525 
z
M 3116 1747 
Q 3116 2381 2855 2742 
Q 2594 3103 2138 3103 
Q 1681 3103 1420 2742 
Q 1159 2381 1159 1747 
Q 1159 1113 1420 752 
Q 1681 391 2138 391 
Q 2594 391 2855 752 
Q 3116 1113 3116 1747 
z
" id="DejaVuSans-70" transform="scale(0.015625)"/>
       <path d="M 1172 4494 
L 1172 3500 
L 2356 3500 
L 2356 3053 
L 1172 3053 
L 1172 1153 
Q 1172 725 1289 603 
Q 1406 481 1766 481 
L 2356 481 
L 2356 0 
L 1766 0 
Q 1100 0 847 248 
Q 594 497 594 1153 
L 594 3053 
L 172 3053 
L 172 3500 
L 594 3500 
L 594 4494 
L 1172 4494 
z
" id="DejaVuSans-74" transform="scale(0.015625)"/>
       <path d="M 603 3500 
L 1178 3500 
L 1178 0 
L 603 0 
L 603 3500 
z
M 603 4863 
L 1178 4863 
L 1178 4134 
L 603 4134 
L 603 4863 
z
" id="DejaVuSans-69" transform="scale(0.015625)"/>
       <path d="M 3513 2113 
L 3513 0 
L 2938 0 
L 2938 2094 
Q 2938 2591 2744 2837 
Q 2550 3084 2163 3084 
Q 1697 3084 1428 2787 
Q 1159 2491 1159 1978 
L 1159 0 
L 581 0 
L 581 3500 
L 1159 3500 
L 1159 2956 
Q 1366 3272 1645 3428 
Q 1925 3584 2291 3584 
Q 2894 3584 3203 3211 
Q 3513 2838 3513 2113 
z
" id="DejaVuSans-6e" transform="scale(0.015625)"/>
       <path id="DejaVuSans-20" transform="scale(0.015625)"/>
       <path d="M 2375 4863 
L 2375 4384 
L 1825 4384 
Q 1516 4384 1395 4259 
Q 1275 4134 1275 3809 
L 1275 3500 
L 2222 3500 
L 2222 3053 
L 1275 3053 
L 1275 0 
L 697 0 
L 697 3053 
L 147 3053 
L 147 3500 
L 697 3500 
L 697 3744 
Q 697 4328 969 4595 
Q 1241 4863 1831 4863 
L 2375 4863 
z
" id="DejaVuSans-66" transform="scale(0.015625)"/>
       <path d="M 628 4666 
L 1478 4666 
L 3547 763 
L 3547 4666 
L 4159 4666 
L 4159 0 
L 3309 0 
L 1241 3903 
L 1241 0 
L 628 0 
L 628 4666 
z
" id="DejaVuSans-4e" transform="scale(0.015625)"/>
       <path d="M 3597 1894 
L 3597 1613 
L 953 1613 
Q 991 1019 1311 708 
Q 1631 397 2203 397 
Q 2534 397 2845 478 
Q 3156 559 3463 722 
L 3463 178 
Q 3153 47 2828 -22 
Q 2503 -91 2169 -91 
Q 1331 -91 842 396 
Q 353 884 353 1716 
Q 353 2575 817 3079 
Q 1281 3584 2069 3584 
Q 2775 3584 3186 3129 
Q 3597 2675 3597 1894 
z
M 3022 2063 
Q 3016 2534 2758 2815 
Q 2500 3097 2075 3097 
Q 1594 3097 1305 2825 
Q 1016 2553 972 2059 
L 3022 2063 
z
" id="DejaVuSans-65" transform="scale(0.015625)"/>
       <path d="M 269 3500 
L 844 3500 
L 1563 769 
L 2278 3500 
L 2956 3500 
L 3675 769 
L 4391 3500 
L 4966 3500 
L 4050 0 
L 3372 0 
L 2619 2869 
L 1863 0 
L 1184 0 
L 269 3500 
z
" id="DejaVuSans-77" transform="scale(0.015625)"/>
       <path d="M -19 4666 
L 3928 4666 
L 3928 4134 
L 2272 4134 
L 2272 0 
L 1638 0 
L 1638 4134 
L -19 4134 
L -19 4666 
z
" id="DejaVuSans-54" transform="scale(0.015625)"/>
       <path d="M 3122 3366 
L 3122 2828 
Q 2878 2963 2633 3030 
Q 2388 3097 2138 3097 
Q 1578 3097 1268 2742 
Q 959 2388 959 1747 
Q 959 1106 1268 751 
Q 1578 397 2138 397 
Q 2388 397 2633 464 
Q 2878 531 3122 666 
L 3122 134 
Q 2881 22 2623 -34 
Q 2366 -91 2075 -91 
Q 1284 -91 818 406 
Q 353 903 353 1747 
Q 353 2603 823 3093 
Q 1294 3584 2113 3584 
Q 2378 3584 2631 3529 
Q 2884 3475 3122 3366 
z
" id="DejaVuSans-63" transform="scale(0.015625)"/>
       <path d="M 3513 2113 
L 3513 0 
L 2938 0 
L 2938 2094 
Q 2938 2591 2744 2837 
Q 2550 3084 2163 3084 
Q 1697 3084 1428 2787 
Q 1159 2491 1159 1978 
L 1159 0 
L 581 0 
L 581 4863 
L 1159 4863 
L 1159 2956 
Q 1366 3272 1645 3428 
Q 1925 3584 2291 3584 
Q 2894 3584 3203 3211 
Q 3513 2838 3513 2113 
z
" id="DejaVuSans-68" transform="scale(0.015625)"/>
       <path d="M 603 4863 
L 1178 4863 
L 1178 0 
L 603 0 
L 603 4863 
z
" id="DejaVuSans-6c" transform="scale(0.015625)"/>
       <path d="M 2906 1791 
Q 2906 2416 2648 2759 
Q 2391 3103 1925 3103 
Q 1463 3103 1205 2759 
Q 947 2416 947 1791 
Q 947 1169 1205 825 
Q 1463 481 1925 481 
Q 2391 481 2648 825 
Q 2906 1169 2906 1791 
z
M 3481 434 
Q 3481 -459 3084 -895 
Q 2688 -1331 1869 -1331 
Q 1566 -1331 1297 -1286 
Q 1028 -1241 775 -1147 
L 775 -588 
Q 1028 -725 1275 -790 
Q 1522 -856 1778 -856 
Q 2344 -856 2625 -561 
Q 2906 -266 2906 331 
L 2906 616 
Q 2728 306 2450 153 
Q 2172 0 1784 0 
Q 1141 0 747 490 
Q 353 981 353 1791 
Q 353 2603 747 3093 
Q 1141 3584 1784 3584 
Q 2172 3584 2450 3431 
Q 2728 3278 2906 2969 
L 2906 3500 
L 3481 3500 
L 3481 434 
z
" id="DejaVuSans-67" transform="scale(0.015625)"/>
       <path d="M 2059 -325 
Q 1816 -950 1584 -1140 
Q 1353 -1331 966 -1331 
L 506 -1331 
L 506 -850 
L 844 -850 
Q 1081 -850 1212 -737 
Q 1344 -625 1503 -206 
L 1606 56 
L 191 3500 
L 800 3500 
L 1894 763 
L 2988 3500 
L 3597 3500 
L 2059 -325 
z
" id="DejaVuSans-79" transform="scale(0.015625)"/>
       <path d="M 3809 666 
L 3809 1919 
L 2778 1919 
L 2778 2438 
L 4434 2438 
L 4434 434 
Q 4069 175 3628 42 
Q 3188 -91 2688 -91 
Q 1594 -91 976 548 
Q 359 1188 359 2328 
Q 359 3472 976 4111 
Q 1594 4750 2688 4750 
Q 3144 4750 3555 4637 
Q 3966 4525 4313 4306 
L 4313 3634 
Q 3963 3931 3569 4081 
Q 3175 4231 2741 4231 
Q 1884 4231 1454 3753 
Q 1025 3275 1025 2328 
Q 1025 1384 1454 906 
Q 1884 428 2741 428 
Q 3075 428 3337 486 
Q 3600 544 3809 666 
z
" id="DejaVuSans-47" transform="scale(0.015625)"/>
       <path d="M 2906 2969 
L 2906 4863 
L 3481 4863 
L 3481 0 
L 2906 0 
L 2906 525 
Q 2725 213 2448 61 
Q 2172 -91 1784 -91 
Q 1150 -91 751 415 
Q 353 922 353 1747 
Q 353 2572 751 3078 
Q 1150 3584 1784 3584 
Q 2172 3584 2448 3432 
Q 2725 3281 2906 2969 
z
M 947 1747 
Q 947 1113 1208 752 
Q 1469 391 1925 391 
Q 2381 391 2643 752 
Q 2906 1113 2906 1747 
Q 2906 2381 2643 2742 
Q 2381 3103 1925 3103 
Q 1469 3103 1208 2742 
Q 947 2381 947 1747 
z
" id="DejaVuSans-64" transform="scale(0.015625)"/>
       <path d="M 1984 4856 
Q 1566 4138 1362 3434 
Q 1159 2731 1159 2009 
Q 1159 1288 1364 580 
Q 1569 -128 1984 -844 
L 1484 -844 
Q 1016 -109 783 600 
Q 550 1309 550 2009 
Q 550 2706 781 3412 
Q 1013 4119 1484 4856 
L 1984 4856 
z
" id="DejaVuSans-28" transform="scale(0.015625)"/>
       <path d="M 4653 2053 
Q 4381 2053 4226 1822 
Q 4072 1591 4072 1178 
Q 4072 772 4226 539 
Q 4381 306 4653 306 
Q 4919 306 5073 539 
Q 5228 772 5228 1178 
Q 5228 1588 5073 1820 
Q 4919 2053 4653 2053 
z
M 4653 2450 
Q 5147 2450 5437 2106 
Q 5728 1763 5728 1178 
Q 5728 594 5436 251 
Q 5144 -91 4653 -91 
Q 4153 -91 3862 251 
Q 3572 594 3572 1178 
Q 3572 1766 3864 2108 
Q 4156 2450 4653 2450 
z
M 1428 4353 
Q 1159 4353 1004 4120 
Q 850 3888 850 3481 
Q 850 3069 1003 2837 
Q 1156 2606 1428 2606 
Q 1700 2606 1854 2837 
Q 2009 3069 2009 3481 
Q 2009 3884 1853 4118 
Q 1697 4353 1428 4353 
z
M 4250 4750 
L 4750 4750 
L 1831 -91 
L 1331 -91 
L 4250 4750 
z
M 1428 4750 
Q 1922 4750 2215 4408 
Q 2509 4066 2509 3481 
Q 2509 2891 2217 2550 
Q 1925 2209 1428 2209 
Q 931 2209 642 2551 
Q 353 2894 353 3481 
Q 353 4063 643 4406 
Q 934 4750 1428 4750 
z
" id="DejaVuSans-25" transform="scale(0.015625)"/>
       <path d="M 513 4856 
L 1013 4856 
Q 1481 4119 1714 3412 
Q 1947 2706 1947 2009 
Q 1947 1309 1714 600 
Q 1481 -109 1013 -844 
L 513 -844 
Q 928 -128 1133 580 
Q 1338 1288 1338 2009 
Q 1338 2731 1133 3434 
Q 928 4138 513 4856 
z
" id="DejaVuSans-29" transform="scale(0.015625)"/>
      </defs>
      <use xlink:href="#DejaVuSans-50"/>
      <use x="58.552734" xlink:href="#DejaVuSans-72"/>
      <use x="97.416016" xlink:href="#DejaVuSans-6f"/>
      <use x="158.597656" xlink:href="#DejaVuSans-70"/>
      <use x="222.074219" xlink:href="#DejaVuSans-6f"/>
      <use x="283.255859" xlink:href="#DejaVuSans-72"/>
      <use x="324.369141" xlink:href="#DejaVuSans-74"/>
      <use x="363.578125" xlink:href="#DejaVuSans-69"/>
      <use x="391.361328" xlink:href="#DejaVuSans-6f"/>
      <use x="452.542969" xlink:href="#DejaVuSans-6e"/>
      <use x="515.921875" xlink:href="#DejaVuSans-20"/>
      <use x="547.708984" xlink:href="#DejaVuSans-6f"/>
      <use x="608.890625" xlink:href="#DejaVuSans-66"/>
      <use x="644.095703" xlink:href="#DejaVuSans-20"/>
      <use x="675.882812" xlink:href="#DejaVuSans-4e"/>
      <use x="750.6875" xlink:href="#DejaVuSans-65"/>
      <use x="812.210938" xlink:href="#DejaVuSans-77"/>
      <use x="893.998047" xlink:href="#DejaVuSans-20"/>
      <use x="925.785156" xlink:href="#DejaVuSans-54"/>
      <use x="969.869141" xlink:href="#DejaVuSans-65"/>
      <use x="1031.392578" xlink:href="#DejaVuSans-63"/>
      <use x="1086.373047" xlink:href="#DejaVuSans-68"/>
      <use x="1149.751953" xlink:href="#DejaVuSans-6e"/>
      <use x="1213.130859" xlink:href="#DejaVuSans-6f"/>
      <use x="1274.3125" xlink:href="#DejaVuSans-6c"/>
      <use x="1302.095703" xlink:href="#DejaVuSans-6f"/>
      <use x="1363.277344" xlink:href="#DejaVuSans-67"/>
      <use x="1426.753906" xlink:href="#DejaVuSans-79"/>
      <use x="1485.933594" xlink:href="#DejaVuSans-20"/>
      <use x="1517.720703" xlink:href="#DejaVuSans-69"/>
      <use x="1545.503906" xlink:href="#DejaVuSans-6e"/>
      <use x="1608.882812" xlink:href="#DejaVuSans-20"/>
      <use x="1640.669922" xlink:href="#DejaVuSans-47"/>
      <use x="1718.160156" xlink:href="#DejaVuSans-72"/>
      <use x="1759.273438" xlink:href="#DejaVuSans-69"/>
      <use x="1787.056641" xlink:href="#DejaVuSans-64"/>
      <use x="1850.533203" xlink:href="#DejaVuSans-20"/>
      <use x="1882.320312" xlink:href="#DejaVuSans-28"/>
      <use x="1921.333984" xlink:href="#DejaVuSans-25"/>
      <use x="2016.353516" xlink:href="#DejaVuSans-29"/>
     </g>
    </g>
   </g>
   <g id="matplotlib.axis_2">
    <g id="ytick_1">
     <g id="line2d_7">
      <defs>
       <path d="M 0 0 
L -3.5 0 
" id="m64b8520354" style="stroke:#000000;stroke-width:0.8;"/>
      </defs>
      <g>
       <use style="stroke:#000000;stroke-width:0.8;" x="72" xlink:href="#m64b8520354" y="768.96"/>
      </g>
     </g>
     <g id="text_8">
      <!-- 0 -->
      <g transform="translate(58.6375 772.759219)scale(0.1 -0.1)">
       <use xlink:href="#DejaVuSans-30"/>
      </g>
     </g>
    </g>
    <g id="ytick_2">
     <g id="line2d_8">
      <g>
       <use style="stroke:#000000;stroke-width:0.8;" x="72" xlink:href="#m64b8520354" y="687.798829"/>
      </g>
     </g>
     <g id="text_9">
      <!-- 10 -->
      <g transform="translate(52.275 691.598047)scale(0.1 -0.1)">
       <use xlink:href="#DejaVuSans-31"/>
       <use x="63.623047" xlink:href="#DejaVuSans-30"/>
      </g>
     </g>
    </g>
    <g id="ytick_3">
     <g id="line2d_9">
      <g>
       <use style="stroke:#000000;stroke-width:0.8;" x="72" xlink:href="#m64b8520354" y="606.637657"/>
      </g>
     </g>
     <g id="text_10">
      <!-- 20 -->
      <g transform="translate(52.275 610.436876)scale(0.1 -0.1)">
       <use xlink:href="#DejaVuSans-32"/>
       <use x="63.623047" xlink:href="#DejaVuSans-30"/>
      </g>
     </g>
    </g>
    <g id="ytick_4">
     <g id="line2d_10">
      <g>
       <use style="stroke:#000000;stroke-width:0.8;" x="72" xlink:href="#m64b8520354" y="525.476486"/>
      </g>
     </g>
     <g id="text_11">
      <!-- 30 -->
      <g transform="translate(52.275 529.275704)scale(0.1 -0.1)">
       <defs>
        <path d="M 2597 2516 
Q 3050 2419 3304 2112 
Q 3559 1806 3559 1356 
Q 3559 666 3084 287 
Q 2609 -91 1734 -91 
Q 1441 -91 1130 -33 
Q 819 25 488 141 
L 488 750 
Q 750 597 1062 519 
Q 1375 441 1716 441 
Q 2309 441 2620 675 
Q 2931 909 2931 1356 
Q 2931 1769 2642 2001 
Q 2353 2234 1838 2234 
L 1294 2234 
L 1294 2753 
L 1863 2753 
Q 2328 2753 2575 2939 
Q 2822 3125 2822 3475 
Q 2822 3834 2567 4026 
Q 2313 4219 1838 4219 
Q 1578 4219 1281 4162 
Q 984 4106 628 3988 
L 628 4550 
Q 988 4650 1302 4700 
Q 1616 4750 1894 4750 
Q 2613 4750 3031 4423 
Q 3450 4097 3450 3541 
Q 3450 3153 3228 2886 
Q 3006 2619 2597 2516 
z
" id="DejaVuSans-33" transform="scale(0.015625)"/>
       </defs>
       <use xlink:href="#DejaVuSans-33"/>
       <use x="63.623047" xlink:href="#DejaVuSans-30"/>
      </g>
     </g>
    </g>
    <g id="ytick_5">
     <g id="line2d_11">
      <g>
       <use style="stroke:#000000;stroke-width:0.8;" x="72" xlink:href="#m64b8520354" y="444.315314"/>
      </g>
     </g>
     <g id="text_12">
      <!-- 40 -->
      <g transform="translate(52.275 448.114533)scale(0.1 -0.1)">
       <use xlink:href="#DejaVuSans-34"/>
       <use x="63.623047" xlink:href="#DejaVuSans-30"/>
      </g>
     </g>
    </g>
    <g id="ytick_6">
     <g id="line2d_12">
      <g>
       <use style="stroke:#000000;stroke-width:0.8;" x="72" xlink:href="#m64b8520354" y="363.154143"/>
      </g>
     </g>
     <g id="text_13">
      <!-- 50 -->
      <g transform="translate(52.275 366.953362)scale(0.1 -0.1)">
       <defs>
        <path d="M 691 4666 
L 3169 4666 
L 3169 4134 
L 1269 4134 
L 1269 2991 
Q 1406 3038 1543 3061 
Q 1681 3084 1819 3084 
Q 2600 3084 3056 2656 
Q 3513 2228 3513 1497 
Q 3513 744 3044 326 
Q 2575 -91 1722 -91 
Q 1428 -91 1123 -41 
Q 819 9 494 109 
L 494 744 
Q 775 591 1075 516 
Q 1375 441 1709 441 
Q 2250 441 2565 725 
Q 2881 1009 2881 1497 
Q 2881 1984 2565 2268 
Q 2250 2553 1709 2553 
Q 1456 2553 1204 2497 
Q 953 2441 691 2322 
L 691 4666 
z
" id="DejaVuSans-35" transform="scale(0.015625)"/>
       </defs>
       <use xlink:href="#DejaVuSans-35"/>
       <use x="63.623047" xlink:href="#DejaVuSans-30"/>
      </g>
     </g>
    </g>
    <g id="ytick_7">
     <g id="line2d_13">
      <g>
       <use style="stroke:#000000;stroke-width:0.8;" x="72" xlink:href="#m64b8520354" y="281.992971"/>
      </g>
     </g>
     <g id="text_14">
      <!-- 60 -->
      <g transform="translate(52.275 285.79219)scale(0.1 -0.1)">
       <use xlink:href="#DejaVuSans-36"/>
       <use x="63.623047" xlink:href="#DejaVuSans-30"/>
      </g>
     </g>
    </g>
    <g id="ytick_8">
     <g id="line2d_14">
      <g>
       <use style="stroke:#000000;stroke-width:0.8;" x="72" xlink:href="#m64b8520354" y="200.8318"/>
      </g>
     </g>
     <g id="text_15">
      <!-- 70 -->
      <g transform="translate(52.275 204.631019)scale(0.1 -0.1)">
       <defs>
        <path d="M 525 4666 
L 3525 4666 
L 3525 4397 
L 1831 0 
L 1172 0 
L 2766 4134 
L 525 4134 
L 525 4666 
z
" id="DejaVuSans-37" transform="scale(0.015625)"/>
       </defs>
       <use xlink:href="#DejaVuSans-37"/>
       <use x="63.623047" xlink:href="#DejaVuSans-30"/>
      </g>
     </g>
    </g>
    <g id="ytick_9">
     <g id="line2d_15">
      <g>
       <use style="stroke:#000000;stroke-width:0.8;" x="72" xlink:href="#m64b8520354" y="119.670628"/>
      </g>
     </g>
     <g id="text_16">
      <!-- 80 -->
      <g transform="translate(52.275 123.469847)scale(0.1 -0.1)">
       <use xlink:href="#DejaVuSans-38"/>
       <use x="63.623047" xlink:href="#DejaVuSans-30"/>
      </g>
     </g>
    </g>
    <g id="text_17">
     <!-- Carbon Equivalent Emissions (Mt) -->
     <g transform="translate(46.195312 520.635625)rotate(-90)scale(0.1 -0.1)">
      <defs>
       <path d="M 4122 4306 
L 4122 3641 
Q 3803 3938 3442 4084 
Q 3081 4231 2675 4231 
Q 1875 4231 1450 3742 
Q 1025 3253 1025 2328 
Q 1025 1406 1450 917 
Q 1875 428 2675 428 
Q 3081 428 3442 575 
Q 3803 722 4122 1019 
L 4122 359 
Q 3791 134 3420 21 
Q 3050 -91 2638 -91 
Q 1578 -91 968 557 
Q 359 1206 359 2328 
Q 359 3453 968 4101 
Q 1578 4750 2638 4750 
Q 3056 4750 3426 4639 
Q 3797 4528 4122 4306 
z
" id="DejaVuSans-43" transform="scale(0.015625)"/>
       <path d="M 2194 1759 
Q 1497 1759 1228 1600 
Q 959 1441 959 1056 
Q 959 750 1161 570 
Q 1363 391 1709 391 
Q 2188 391 2477 730 
Q 2766 1069 2766 1631 
L 2766 1759 
L 2194 1759 
z
M 3341 1997 
L 3341 0 
L 2766 0 
L 2766 531 
Q 2569 213 2275 61 
Q 1981 -91 1556 -91 
Q 1019 -91 701 211 
Q 384 513 384 1019 
Q 384 1609 779 1909 
Q 1175 2209 1959 2209 
L 2766 2209 
L 2766 2266 
Q 2766 2663 2505 2880 
Q 2244 3097 1772 3097 
Q 1472 3097 1187 3025 
Q 903 2953 641 2809 
L 641 3341 
Q 956 3463 1253 3523 
Q 1550 3584 1831 3584 
Q 2591 3584 2966 3190 
Q 3341 2797 3341 1997 
z
" id="DejaVuSans-61" transform="scale(0.015625)"/>
       <path d="M 3116 1747 
Q 3116 2381 2855 2742 
Q 2594 3103 2138 3103 
Q 1681 3103 1420 2742 
Q 1159 2381 1159 1747 
Q 1159 1113 1420 752 
Q 1681 391 2138 391 
Q 2594 391 2855 752 
Q 3116 1113 3116 1747 
z
M 1159 2969 
Q 1341 3281 1617 3432 
Q 1894 3584 2278 3584 
Q 2916 3584 3314 3078 
Q 3713 2572 3713 1747 
Q 3713 922 3314 415 
Q 2916 -91 2278 -91 
Q 1894 -91 1617 61 
Q 1341 213 1159 525 
L 1159 0 
L 581 0 
L 581 4863 
L 1159 4863 
L 1159 2969 
z
" id="DejaVuSans-62" transform="scale(0.015625)"/>
       <path d="M 628 4666 
L 3578 4666 
L 3578 4134 
L 1259 4134 
L 1259 2753 
L 3481 2753 
L 3481 2222 
L 1259 2222 
L 1259 531 
L 3634 531 
L 3634 0 
L 628 0 
L 628 4666 
z
" id="DejaVuSans-45" transform="scale(0.015625)"/>
       <path d="M 947 1747 
Q 947 1113 1208 752 
Q 1469 391 1925 391 
Q 2381 391 2643 752 
Q 2906 1113 2906 1747 
Q 2906 2381 2643 2742 
Q 2381 3103 1925 3103 
Q 1469 3103 1208 2742 
Q 947 2381 947 1747 
z
M 2906 525 
Q 2725 213 2448 61 
Q 2172 -91 1784 -91 
Q 1150 -91 751 415 
Q 353 922 353 1747 
Q 353 2572 751 3078 
Q 1150 3584 1784 3584 
Q 2172 3584 2448 3432 
Q 2725 3281 2906 2969 
L 2906 3500 
L 3481 3500 
L 3481 -1331 
L 2906 -1331 
L 2906 525 
z
" id="DejaVuSans-71" transform="scale(0.015625)"/>
       <path d="M 544 1381 
L 544 3500 
L 1119 3500 
L 1119 1403 
Q 1119 906 1312 657 
Q 1506 409 1894 409 
Q 2359 409 2629 706 
Q 2900 1003 2900 1516 
L 2900 3500 
L 3475 3500 
L 3475 0 
L 2900 0 
L 2900 538 
Q 2691 219 2414 64 
Q 2138 -91 1772 -91 
Q 1169 -91 856 284 
Q 544 659 544 1381 
z
M 1991 3584 
L 1991 3584 
z
" id="DejaVuSans-75" transform="scale(0.015625)"/>
       <path d="M 191 3500 
L 800 3500 
L 1894 563 
L 2988 3500 
L 3597 3500 
L 2284 0 
L 1503 0 
L 191 3500 
z
" id="DejaVuSans-76" transform="scale(0.015625)"/>
       <path d="M 3328 2828 
Q 3544 3216 3844 3400 
Q 4144 3584 4550 3584 
Q 5097 3584 5394 3201 
Q 5691 2819 5691 2113 
L 5691 0 
L 5113 0 
L 5113 2094 
Q 5113 2597 4934 2840 
Q 4756 3084 4391 3084 
Q 3944 3084 3684 2787 
Q 3425 2491 3425 1978 
L 3425 0 
L 2847 0 
L 2847 2094 
Q 2847 2600 2669 2842 
Q 2491 3084 2119 3084 
Q 1678 3084 1418 2786 
Q 1159 2488 1159 1978 
L 1159 0 
L 581 0 
L 581 3500 
L 1159 3500 
L 1159 2956 
Q 1356 3278 1631 3431 
Q 1906 3584 2284 3584 
Q 2666 3584 2933 3390 
Q 3200 3197 3328 2828 
z
" id="DejaVuSans-6d" transform="scale(0.015625)"/>
       <path d="M 2834 3397 
L 2834 2853 
Q 2591 2978 2328 3040 
Q 2066 3103 1784 3103 
Q 1356 3103 1142 2972 
Q 928 2841 928 2578 
Q 928 2378 1081 2264 
Q 1234 2150 1697 2047 
L 1894 2003 
Q 2506 1872 2764 1633 
Q 3022 1394 3022 966 
Q 3022 478 2636 193 
Q 2250 -91 1575 -91 
Q 1294 -91 989 -36 
Q 684 19 347 128 
L 347 722 
Q 666 556 975 473 
Q 1284 391 1588 391 
Q 1994 391 2212 530 
Q 2431 669 2431 922 
Q 2431 1156 2273 1281 
Q 2116 1406 1581 1522 
L 1381 1569 
Q 847 1681 609 1914 
Q 372 2147 372 2553 
Q 372 3047 722 3315 
Q 1072 3584 1716 3584 
Q 2034 3584 2315 3537 
Q 2597 3491 2834 3397 
z
" id="DejaVuSans-73" transform="scale(0.015625)"/>
       <path d="M 628 4666 
L 1569 4666 
L 2759 1491 
L 3956 4666 
L 4897 4666 
L 4897 0 
L 4281 0 
L 4281 4097 
L 3078 897 
L 2444 897 
L 1241 4097 
L 1241 0 
L 628 0 
L 628 4666 
z
" id="DejaVuSans-4d" transform="scale(0.015625)"/>
      </defs>
      <use xlink:href="#DejaVuSans-43"/>
      <use x="69.824219" xlink:href="#DejaVuSans-61"/>
      <use x="131.103516" xlink:href="#DejaVuSans-72"/>
      <use x="172.216797" xlink:href="#DejaVuSans-62"/>
      <use x="235.693359" xlink:href="#DejaVuSans-6f"/>
      <use x="296.875" xlink:href="#DejaVuSans-6e"/>
      <use x="360.253906" xlink:href="#DejaVuSans-20"/>
      <use x="392.041016" xlink:href="#DejaVuSans-45"/>
      <use x="455.224609" xlink:href="#DejaVuSans-71"/>
      <use x="518.701172" xlink:href="#DejaVuSans-75"/>
      <use x="582.080078" xlink:href="#DejaVuSans-69"/>
      <use x="609.863281" xlink:href="#DejaVuSans-76"/>
      <use x="669.042969" xlink:href="#DejaVuSans-61"/>
      <use x="730.322266" xlink:href="#DejaVuSans-6c"/>
      <use x="758.105469" xlink:href="#DejaVuSans-65"/>
      <use x="819.628906" xlink:href="#DejaVuSans-6e"/>
      <use x="883.007812" xlink:href="#DejaVuSans-74"/>
      <use x="922.216797" xlink:href="#DejaVuSans-20"/>
      <use x="954.003906" xlink:href="#DejaVuSans-45"/>
      <use x="1017.1875" xlink:href="#DejaVuSans-6d"/>
      <use x="1114.599609" xlink:href="#DejaVuSans-69"/>
      <use x="1142.382812" xlink:href="#DejaVuSans-73"/>
      <use x="1194.482422" xlink:href="#DejaVuSans-73"/>
      <use x="1246.582031" xlink:href="#DejaVuSans-69"/>
      <use x="1274.365234" xlink:href="#DejaVuSans-6f"/>
      <use x="1335.546875" xlink:href="#DejaVuSans-6e"/>
      <use x="1398.925781" xlink:href="#DejaVuSans-73"/>
      <use x="1451.025391" xlink:href="#DejaVuSans-20"/>
      <use x="1482.8125" xlink:href="#DejaVuSans-28"/>
      <use x="1521.826172" xlink:href="#DejaVuSans-4d"/>
      <use x="1608.105469" xlink:href="#DejaVuSans-74"/>
      <use x="1647.314453" xlink:href="#DejaVuSans-29"/>
     </g>
    </g>
   </g>
   <g id="patch_3">
    <path d="M 72 768.96 
L 72 103.68 
" style="fill:none;stroke:#000000;stroke-linecap:square;stroke-linejoin:miter;stroke-width:0.8;"/>
   </g>
   <g id="patch_4">
    <path d="M 518.4 768.96 
L 518.4 103.68 
" style="fill:none;stroke:#000000;stroke-linecap:square;stroke-linejoin:miter;stroke-width:0.8;"/>
   </g>
   <g id="patch_5">
    <path d="M 72 768.96 
L 518.4 768.96 
" style="fill:none;stroke:#000000;stroke-linecap:square;stroke-linejoin:miter;stroke-width:0.8;"/>
   </g>
   <g id="patch_6">
    <path d="M 72 103.68 
L 518.4 103.68 
" style="fill:none;stroke:#000000;stroke-linecap:square;stroke-linejoin:miter;stroke-width:0.8;"/>
   </g>
  </g>
 </g>
 <defs>
  <clipPath id="p9ca4fd26e4">
   <rect height="665.28" width="446.4" x="72" y="103.68"/>
  </clipPath>
 </defs>
</svg>
