<?xml version="1.0" encoding="utf-8" standalone="no"?>
<!DOCTYPE svg PUBLIC "-//W3C//DTD SVG 1.1//EN"
  "http://www.w3.org/Graphics/SVG/1.1/DTD/svg11.dtd">
<svg height="864pt" version="1.1" viewBox="0 0 576 864" width="576pt" xmlns="http://www.w3.org/2000/svg" xmlns:xlink="http://www.w3.org/1999/xlink">
 <metadata>
  <rdf:RDF xmlns:cc="http://creativecommons.org/ns#" xmlns:dc="http://purl.org/dc/elements/1.1/" xmlns:rdf="http://www.w3.org/1999/02/22-rdf-syntax-ns#">
   <cc:Work>
    <dc:type rdf:resource="http://purl.org/dc/dcmitype/StillImage"/>
    <dc:date>2021-06-15T16:18:32.219383</dc:date>
    <dc:format>image/svg+xml</dc:format>
    <dc:creator>
     <cc:Agent>
      <dc:title>Matplotlib v3.4.1, https://matplotlib.org/</dc:title>
     </cc:Agent>
    </dc:creator>
   </cc:Work>
  </rdf:RDF>
 </metadata>
 <defs>
  <style type="text/css">*{stroke-linecap:butt;stroke-linejoin:round;}</style>
 </defs>
 <g id="figure_1">
  <g id="patch_1">
   <path d="M 0 864 
L 576 864 
L 576 0 
L 0 0 
z
" style="fill:#ffffff;"/>
  </g>
  <g id="axes_1">
   <g id="patch_2">
    <path d="M 72 768.96 
L 518.4 768.96 
L 518.4 103.68 
L 72 103.68 
z
" style="fill:#ffffff;"/>
   </g>
   <g id="PolyCollection_1">
    <path clip-path="url(#pc6b6ad40b9)" d="M 92.290909 275.040474 
L 92.290909 768.96 
L 96.390083 768.96 
L 100.489256 768.96 
L 104.58843 768.96 
L 108.687603 768.96 
L 112.786777 768.96 
L 116.88595 768.96 
L 120.985124 768.96 
L 125.084298 768.96 
L 129.183471 768.96 
L 133.282645 768.96 
L 137.381818 768.96 
L 141.480992 768.96 
L 145.580165 768.96 
L 149.679339 768.96 
L 153.778512 768.96 
L 157.877686 768.96 
L 161.97686 768.96 
L 166.076033 768.96 
L 170.175207 768.96 
L 174.27438 768.96 
L 178.373554 768.96 
L 182.472727 768.96 
L 186.571901 768.96 
L 190.671074 768.96 
L 194.770248 768.96 
L 198.869421 768.96 
L 202.968595 768.96 
L 207.067769 768.96 
L 211.166942 768.96 
L 215.266116 768.96 
L 219.365289 768.96 
L 223.464463 768.96 
L 227.563636 768.96 
L 231.66281 768.96 
L 235.761983 768.96 
L 239.861157 768.96 
L 243.960331 768.96 
L 248.059504 768.96 
L 252.158678 768.96 
L 256.257851 768.96 
L 260.357025 768.96 
L 264.456198 768.96 
L 268.555372 768.96 
L 272.654545 768.96 
L 276.753719 768.96 
L 280.852893 768.96 
L 284.952066 768.96 
L 289.05124 768.96 
L 293.150413 768.96 
L 297.249587 768.96 
L 301.34876 768.96 
L 305.447934 768.96 
L 309.547107 768.96 
L 313.646281 768.96 
L 317.745455 768.96 
L 321.844628 768.96 
L 325.943802 768.96 
L 330.042975 768.96 
L 334.142149 768.96 
L 338.241322 768.96 
L 342.340496 768.96 
L 346.439669 768.96 
L 350.538843 768.96 
L 354.638017 768.96 
L 358.73719 768.96 
L 362.836364 768.96 
L 366.935537 768.96 
L 371.034711 768.96 
L 375.133884 768.96 
L 379.233058 768.96 
L 383.332231 768.96 
L 387.431405 768.96 
L 391.530579 768.96 
L 395.629752 768.96 
L 399.728926 768.96 
L 403.828099 768.96 
L 407.927273 768.96 
L 412.026446 768.96 
L 416.12562 768.96 
L 420.224793 768.96 
L 424.323967 768.96 
L 428.42314 768.96 
L 432.522314 768.96 
L 436.621488 768.96 
L 440.720661 768.96 
L 444.819835 768.96 
L 448.919008 768.96 
L 453.018182 768.96 
L 457.117355 768.96 
L 461.216529 768.96 
L 465.315702 768.96 
L 469.414876 768.96 
L 473.51405 768.96 
L 477.613223 768.96 
L 481.712397 768.96 
L 485.81157 768.96 
L 489.910744 768.96 
L 494.009917 768.96 
L 498.109091 768.96 
L 498.109091 290.818573 
L 498.109091 290.818573 
L 494.009917 290.693007 
L 489.910744 290.568419 
L 485.81157 290.443916 
L 481.712397 290.31869 
L 477.613223 290.193423 
L 473.51405 290.067649 
L 469.414876 289.941764 
L 465.315702 289.815639 
L 461.216529 289.68941 
L 457.117355 289.562955 
L 453.018182 289.436449 
L 448.919008 289.309957 
L 444.819835 289.183153 
L 440.720661 289.056392 
L 436.621488 288.930273 
L 432.522314 288.804969 
L 428.42314 288.680064 
L 424.323967 288.555371 
L 420.224793 288.430326 
L 416.12562 288.305905 
L 412.026446 288.182575 
L 407.927273 288.05935 
L 403.828099 287.935466 
L 399.728926 287.811044 
L 395.629752 287.686126 
L 391.530579 287.560797 
L 387.431405 287.435069 
L 383.332231 287.308808 
L 379.233058 287.182657 
L 375.133884 287.055747 
L 371.034711 286.927587 
L 366.935537 286.797475 
L 362.836364 286.666394 
L 358.73719 286.53321 
L 354.638017 286.398104 
L 350.538843 286.260981 
L 346.439669 286.121854 
L 342.340496 285.980503 
L 338.241322 285.837198 
L 334.142149 285.692232 
L 330.042975 285.545255 
L 325.943802 285.39698 
L 321.844628 285.247581 
L 317.745455 285.094779 
L 313.646281 284.938619 
L 309.547107 284.780539 
L 305.447934 284.620164 
L 301.34876 284.457151 
L 297.249587 284.291427 
L 293.150413 284.123565 
L 289.05124 283.953967 
L 284.952066 283.782758 
L 280.852893 283.609952 
L 276.753719 283.435328 
L 272.654545 283.256999 
L 268.555372 283.07026 
L 264.456198 282.883521 
L 260.357025 282.696782 
L 256.257851 282.510043 
L 252.158678 282.323303 
L 248.059504 282.136564 
L 243.960331 281.949825 
L 239.861157 281.763086 
L 235.761983 281.576346 
L 231.66281 281.389607 
L 227.563636 281.202868 
L 223.464463 281.016129 
L 219.365289 280.82939 
L 215.266116 280.64265 
L 211.166942 280.455911 
L 207.067769 280.269172 
L 202.968595 280.082433 
L 198.869421 279.895693 
L 194.770248 279.708954 
L 190.671074 279.522215 
L 186.571901 279.335476 
L 182.472727 279.148737 
L 178.373554 278.961997 
L 174.27438 278.775258 
L 170.175207 278.588519 
L 166.076033 278.40178 
L 161.97686 278.21504 
L 157.877686 278.028301 
L 153.778512 277.841562 
L 149.679339 277.654823 
L 145.580165 277.468084 
L 141.480992 277.281344 
L 137.381818 277.094605 
L 133.282645 276.907866 
L 129.183471 276.721127 
L 125.084298 276.534388 
L 120.985124 276.347648 
L 116.88595 276.160909 
L 112.786777 275.97417 
L 108.687603 275.787431 
L 104.58843 275.600691 
L 100.489256 275.413952 
L 96.390083 275.227213 
L 92.290909 275.040474 
z
" style="fill:#3182bd;"/>
   </g>
   <g id="PolyCollection_2">
    <path clip-path="url(#pc6b6ad40b9)" d="M 92.290909 156.025114 
L 92.290909 275.040474 
L 96.390083 275.227213 
L 100.489256 275.413952 
L 104.58843 275.600691 
L 108.687603 275.787431 
L 112.786777 275.97417 
L 116.88595 276.160909 
L 120.985124 276.347648 
L 125.084298 276.534388 
L 129.183471 276.721127 
L 133.282645 276.907866 
L 137.381818 277.094605 
L 141.480992 277.281344 
L 145.580165 277.468084 
L 149.679339 277.654823 
L 153.778512 277.841562 
L 157.877686 278.028301 
L 161.97686 278.21504 
L 166.076033 278.40178 
L 170.175207 278.588519 
L 174.27438 278.775258 
L 178.373554 278.961997 
L 182.472727 279.148737 
L 186.571901 279.335476 
L 190.671074 279.522215 
L 194.770248 279.708954 
L 198.869421 279.895693 
L 202.968595 280.082433 
L 207.067769 280.269172 
L 211.166942 280.455911 
L 215.266116 280.64265 
L 219.365289 280.82939 
L 223.464463 281.016129 
L 227.563636 281.202868 
L 231.66281 281.389607 
L 235.761983 281.576346 
L 239.861157 281.763086 
L 243.960331 281.949825 
L 248.059504 282.136564 
L 252.158678 282.323303 
L 256.257851 282.510043 
L 260.357025 282.696782 
L 264.456198 282.883521 
L 268.555372 283.07026 
L 272.654545 283.256999 
L 276.753719 283.435328 
L 280.852893 283.609952 
L 284.952066 283.782758 
L 289.05124 283.953967 
L 293.150413 284.123565 
L 297.249587 284.291427 
L 301.34876 284.457151 
L 305.447934 284.620164 
L 309.547107 284.780539 
L 313.646281 284.938619 
L 317.745455 285.094779 
L 321.844628 285.247581 
L 325.943802 285.39698 
L 330.042975 285.545255 
L 334.142149 285.692232 
L 338.241322 285.837198 
L 342.340496 285.980503 
L 346.439669 286.121854 
L 350.538843 286.260981 
L 354.638017 286.398104 
L 358.73719 286.53321 
L 362.836364 286.666394 
L 366.935537 286.797475 
L 371.034711 286.927587 
L 375.133884 287.055747 
L 379.233058 287.182657 
L 383.332231 287.308808 
L 387.431405 287.435069 
L 391.530579 287.560797 
L 395.629752 287.686126 
L 399.728926 287.811044 
L 403.828099 287.935466 
L 407.927273 288.05935 
L 412.026446 288.182575 
L 416.12562 288.305905 
L 420.224793 288.430326 
L 424.323967 288.555371 
L 428.42314 288.680064 
L 432.522314 288.804969 
L 436.621488 288.930273 
L 440.720661 289.056392 
L 444.819835 289.183153 
L 448.919008 289.309957 
L 453.018182 289.436449 
L 457.117355 289.562955 
L 461.216529 289.68941 
L 465.315702 289.815639 
L 469.414876 289.941764 
L 473.51405 290.067649 
L 477.613223 290.193423 
L 481.712397 290.31869 
L 485.81157 290.443916 
L 489.910744 290.568419 
L 494.009917 290.693007 
L 498.109091 290.818573 
L 498.109091 177.644859 
L 498.109091 177.644859 
L 494.009917 177.387899 
L 489.910744 177.129797 
L 485.81157 176.871595 
L 481.712397 176.614239 
L 477.613223 176.356929 
L 473.51405 176.100211 
L 469.414876 175.843623 
L 465.315702 175.587314 
L 461.216529 175.330761 
L 457.117355 175.074428 
L 453.018182 174.818155 
L 448.919008 174.561867 
L 444.819835 174.305942 
L 440.720661 174.049967 
L 436.621488 173.793242 
L 432.522314 173.535566 
L 428.42314 173.277426 
L 424.323967 173.019037 
L 420.224793 172.761059 
L 416.12562 172.502353 
L 412.026446 172.242373 
L 407.927273 171.982271 
L 403.828099 171.722855 
L 399.728926 171.464029 
L 395.629752 171.20578 
L 391.530579 170.948012 
L 387.431405 170.690707 
L 383.332231 170.434027 
L 379.233058 170.177217 
L 375.133884 169.921293 
L 371.034711 169.666829 
L 366.935537 169.414642 
L 362.836364 169.163585 
L 358.73719 168.914914 
L 354.638017 168.668405 
L 350.538843 168.424144 
L 346.439669 168.182104 
L 342.340496 167.942433 
L 338.241322 167.705043 
L 334.142149 167.46959 
L 330.042975 167.236486 
L 325.943802 167.004895 
L 321.844628 166.774609 
L 317.745455 166.548263 
L 313.646281 166.325837 
L 309.547107 166.105651 
L 305.447934 165.888144 
L 301.34876 165.673715 
L 297.249587 165.46245 
L 293.150413 165.253681 
L 289.05124 165.046937 
L 284.952066 164.842074 
L 280.852893 164.639074 
L 276.753719 164.438195 
L 272.654545 164.24164 
L 268.555372 164.054901 
L 264.456198 163.868162 
L 260.357025 163.681423 
L 256.257851 163.494683 
L 252.158678 163.307944 
L 248.059504 163.121205 
L 243.960331 162.934466 
L 239.861157 162.747726 
L 235.761983 162.560987 
L 231.66281 162.374248 
L 227.563636 162.187509 
L 223.464463 162.00077 
L 219.365289 161.81403 
L 215.266116 161.627291 
L 211.166942 161.440552 
L 207.067769 161.253813 
L 202.968595 161.067073 
L 198.869421 160.880334 
L 194.770248 160.693595 
L 190.671074 160.506856 
L 186.571901 160.320117 
L 182.472727 160.133377 
L 178.373554 159.946638 
L 174.27438 159.759899 
L 170.175207 159.57316 
L 166.076033 159.38642 
L 161.97686 159.199681 
L 157.877686 159.012942 
L 153.778512 158.826203 
L 149.679339 158.639464 
L 145.580165 158.452724 
L 141.480992 158.265985 
L 137.381818 158.079246 
L 133.282645 157.892507 
L 129.183471 157.705767 
L 125.084298 157.519028 
L 120.985124 157.332289 
L 116.88595 157.14555 
L 112.786777 156.958811 
L 108.687603 156.772071 
L 104.58843 156.585332 
L 100.489256 156.398593 
L 96.390083 156.211854 
L 92.290909 156.025114 
z
" style="fill:#6baed6;"/>
   </g>
   <g id="PolyCollection_3">
    <path clip-path="url(#pc6b6ad40b9)" d="M 92.290909 155.777989 
L 92.290909 156.025114 
L 96.390083 156.211854 
L 100.489256 156.398593 
L 104.58843 156.585332 
L 108.687603 156.772071 
L 112.786777 156.958811 
L 116.88595 157.14555 
L 120.985124 157.332289 
L 125.084298 157.519028 
L 129.183471 157.705767 
L 133.282645 157.892507 
L 137.381818 158.079246 
L 141.480992 158.265985 
L 145.580165 158.452724 
L 149.679339 158.639464 
L 153.778512 158.826203 
L 157.877686 159.012942 
L 161.97686 159.199681 
L 166.076033 159.38642 
L 170.175207 159.57316 
L 174.27438 159.759899 
L 178.373554 159.946638 
L 182.472727 160.133377 
L 186.571901 160.320117 
L 190.671074 160.506856 
L 194.770248 160.693595 
L 198.869421 160.880334 
L 202.968595 161.067073 
L 207.067769 161.253813 
L 211.166942 161.440552 
L 215.266116 161.627291 
L 219.365289 161.81403 
L 223.464463 162.00077 
L 227.563636 162.187509 
L 231.66281 162.374248 
L 235.761983 162.560987 
L 239.861157 162.747726 
L 243.960331 162.934466 
L 248.059504 163.121205 
L 252.158678 163.307944 
L 256.257851 163.494683 
L 260.357025 163.681423 
L 264.456198 163.868162 
L 268.555372 164.054901 
L 272.654545 164.24164 
L 276.753719 164.438195 
L 280.852893 164.639074 
L 284.952066 164.842074 
L 289.05124 165.046937 
L 293.150413 165.253681 
L 297.249587 165.46245 
L 301.34876 165.673715 
L 305.447934 165.888144 
L 309.547107 166.105651 
L 313.646281 166.325837 
L 317.745455 166.548263 
L 321.844628 166.774609 
L 325.943802 167.004895 
L 330.042975 167.236486 
L 334.142149 167.46959 
L 338.241322 167.705043 
L 342.340496 167.942433 
L 346.439669 168.182104 
L 350.538843 168.424144 
L 354.638017 168.668405 
L 358.73719 168.914914 
L 362.836364 169.163585 
L 366.935537 169.414642 
L 371.034711 169.666829 
L 375.133884 169.921293 
L 379.233058 170.177217 
L 383.332231 170.434027 
L 387.431405 170.690707 
L 391.530579 170.948012 
L 395.629752 171.20578 
L 399.728926 171.464029 
L 403.828099 171.722855 
L 407.927273 171.982271 
L 412.026446 172.242373 
L 416.12562 172.502353 
L 420.224793 172.761059 
L 424.323967 173.019037 
L 428.42314 173.277426 
L 432.522314 173.535566 
L 436.621488 173.793242 
L 440.720661 174.049967 
L 444.819835 174.305942 
L 448.919008 174.561867 
L 453.018182 174.818155 
L 457.117355 175.074428 
L 461.216529 175.330761 
L 465.315702 175.587314 
L 469.414876 175.843623 
L 473.51405 176.100211 
L 477.613223 176.356929 
L 481.712397 176.614239 
L 485.81157 176.871595 
L 489.910744 177.129797 
L 494.009917 177.387899 
L 498.109091 177.644859 
L 498.109091 177.397733 
L 498.109091 177.397733 
L 494.009917 177.140773 
L 489.910744 176.882672 
L 485.81157 176.62447 
L 481.712397 176.367113 
L 477.613223 176.109803 
L 473.51405 175.853085 
L 469.414876 175.596497 
L 465.315702 175.340189 
L 461.216529 175.083636 
L 457.117355 174.827303 
L 453.018182 174.57103 
L 448.919008 174.314742 
L 444.819835 174.058816 
L 440.720661 173.802841 
L 436.621488 173.546117 
L 432.522314 173.288441 
L 428.42314 173.0303 
L 424.323967 172.771912 
L 420.224793 172.513933 
L 416.12562 172.255228 
L 412.026446 171.995248 
L 407.927273 171.735146 
L 403.828099 171.47573 
L 399.728926 171.216903 
L 395.629752 170.958655 
L 391.530579 170.700886 
L 387.431405 170.443582 
L 383.332231 170.186901 
L 379.233058 169.930091 
L 375.133884 169.674168 
L 371.034711 169.419703 
L 366.935537 169.167516 
L 362.836364 168.91646 
L 358.73719 168.667789 
L 354.638017 168.42128 
L 350.538843 168.177019 
L 346.439669 167.934979 
L 342.340496 167.695308 
L 338.241322 167.457917 
L 334.142149 167.222465 
L 330.042975 166.98936 
L 325.943802 166.757769 
L 321.844628 166.527484 
L 317.745455 166.301138 
L 313.646281 166.078712 
L 309.547107 165.858526 
L 305.447934 165.641018 
L 301.34876 165.42659 
L 297.249587 165.215324 
L 293.150413 165.006555 
L 289.05124 164.799811 
L 284.952066 164.594948 
L 280.852893 164.391948 
L 276.753719 164.191069 
L 272.654545 163.994515 
L 268.555372 163.807776 
L 264.456198 163.621036 
L 260.357025 163.434297 
L 256.257851 163.247558 
L 252.158678 163.060819 
L 248.059504 162.874079 
L 243.960331 162.68734 
L 239.861157 162.500601 
L 235.761983 162.313862 
L 231.66281 162.127123 
L 227.563636 161.940383 
L 223.464463 161.753644 
L 219.365289 161.566905 
L 215.266116 161.380166 
L 211.166942 161.193426 
L 207.067769 161.006687 
L 202.968595 160.819948 
L 198.869421 160.633209 
L 194.770248 160.44647 
L 190.671074 160.25973 
L 186.571901 160.072991 
L 182.472727 159.886252 
L 178.373554 159.699513 
L 174.27438 159.512773 
L 170.175207 159.326034 
L 166.076033 159.139295 
L 161.97686 158.952556 
L 157.877686 158.765817 
L 153.778512 158.579077 
L 149.679339 158.392338 
L 145.580165 158.205599 
L 141.480992 158.01886 
L 137.381818 157.83212 
L 133.282645 157.645381 
L 129.183471 157.458642 
L 125.084298 157.271903 
L 120.985124 157.085164 
L 116.88595 156.898424 
L 112.786777 156.711685 
L 108.687603 156.524946 
L 104.58843 156.338207 
L 100.489256 156.151467 
L 96.390083 155.964728 
L 92.290909 155.777989 
z
" style="fill:#9ecae1;"/>
   </g>
   <g id="PolyCollection_4">
    <path clip-path="url(#pc6b6ad40b9)" d="M 92.290909 155.520092 
L 92.290909 155.777989 
L 96.390083 155.964728 
L 100.489256 156.151467 
L 104.58843 156.338207 
L 108.687603 156.524946 
L 112.786777 156.711685 
L 116.88595 156.898424 
L 120.985124 157.085164 
L 125.084298 157.271903 
L 129.183471 157.458642 
L 133.282645 157.645381 
L 137.381818 157.83212 
L 141.480992 158.01886 
L 145.580165 158.205599 
L 149.679339 158.392338 
L 153.778512 158.579077 
L 157.877686 158.765817 
L 161.97686 158.952556 
L 166.076033 159.139295 
L 170.175207 159.326034 
L 174.27438 159.512773 
L 178.373554 159.699513 
L 182.472727 159.886252 
L 186.571901 160.072991 
L 190.671074 160.25973 
L 194.770248 160.44647 
L 198.869421 160.633209 
L 202.968595 160.819948 
L 207.067769 161.006687 
L 211.166942 161.193426 
L 215.266116 161.380166 
L 219.365289 161.566905 
L 223.464463 161.753644 
L 227.563636 161.940383 
L 231.66281 162.127123 
L 235.761983 162.313862 
L 239.861157 162.500601 
L 243.960331 162.68734 
L 248.059504 162.874079 
L 252.158678 163.060819 
L 256.257851 163.247558 
L 260.357025 163.434297 
L 264.456198 163.621036 
L 268.555372 163.807776 
L 272.654545 163.994515 
L 276.753719 164.191069 
L 280.852893 164.391948 
L 284.952066 164.594948 
L 289.05124 164.799811 
L 293.150413 165.006555 
L 297.249587 165.215324 
L 301.34876 165.42659 
L 305.447934 165.641018 
L 309.547107 165.858526 
L 313.646281 166.078712 
L 317.745455 166.301138 
L 321.844628 166.527484 
L 325.943802 166.757769 
L 330.042975 166.98936 
L 334.142149 167.222465 
L 338.241322 167.457917 
L 342.340496 167.695308 
L 346.439669 167.934979 
L 350.538843 168.177019 
L 354.638017 168.42128 
L 358.73719 168.667789 
L 362.836364 168.91646 
L 366.935537 169.167516 
L 371.034711 169.419703 
L 375.133884 169.674168 
L 379.233058 169.930091 
L 383.332231 170.186901 
L 387.431405 170.443582 
L 391.530579 170.700886 
L 395.629752 170.958655 
L 399.728926 171.216903 
L 403.828099 171.47573 
L 407.927273 171.735146 
L 412.026446 171.995248 
L 416.12562 172.255228 
L 420.224793 172.513933 
L 424.323967 172.771912 
L 428.42314 173.0303 
L 432.522314 173.288441 
L 436.621488 173.546117 
L 440.720661 173.802841 
L 444.819835 174.058816 
L 448.919008 174.314742 
L 453.018182 174.57103 
L 457.117355 174.827303 
L 461.216529 175.083636 
L 465.315702 175.340189 
L 469.414876 175.596497 
L 473.51405 175.853085 
L 477.613223 176.109803 
L 481.712397 176.367113 
L 485.81157 176.62447 
L 489.910744 176.882672 
L 494.009917 177.140773 
L 498.109091 177.397733 
L 498.109091 177.139836 
L 498.109091 177.139836 
L 494.009917 176.882876 
L 489.910744 176.624775 
L 485.81157 176.366573 
L 481.712397 176.109216 
L 477.613223 175.851907 
L 473.51405 175.595188 
L 469.414876 175.3386 
L 465.315702 175.082292 
L 461.216529 174.825739 
L 457.117355 174.569406 
L 453.018182 174.313133 
L 448.919008 174.056845 
L 444.819835 173.800919 
L 440.720661 173.544944 
L 436.621488 173.28822 
L 432.522314 173.030544 
L 428.42314 172.772403 
L 424.323967 172.514015 
L 420.224793 172.256036 
L 416.12562 171.997331 
L 412.026446 171.737351 
L 407.927273 171.477249 
L 403.828099 171.217833 
L 399.728926 170.959006 
L 395.629752 170.700758 
L 391.530579 170.442989 
L 387.431405 170.185685 
L 383.332231 169.929005 
L 379.233058 169.672195 
L 375.133884 169.416271 
L 371.034711 169.161806 
L 366.935537 168.909619 
L 362.836364 168.658563 
L 358.73719 168.409892 
L 354.638017 168.163383 
L 350.538843 167.919122 
L 346.439669 167.677082 
L 342.340496 167.437411 
L 338.241322 167.20002 
L 334.142149 166.964568 
L 330.042975 166.731463 
L 325.943802 166.499872 
L 321.844628 166.269587 
L 317.745455 166.043241 
L 313.646281 165.820815 
L 309.547107 165.600629 
L 305.447934 165.383122 
L 301.34876 165.168693 
L 297.249587 164.957427 
L 293.150413 164.748658 
L 289.05124 164.541915 
L 284.952066 164.337051 
L 280.852893 164.134051 
L 276.753719 163.933172 
L 272.654545 163.736618 
L 268.555372 163.549879 
L 264.456198 163.363139 
L 260.357025 163.1764 
L 256.257851 162.989661 
L 252.158678 162.802922 
L 248.059504 162.616182 
L 243.960331 162.429443 
L 239.861157 162.242704 
L 235.761983 162.055965 
L 231.66281 161.869226 
L 227.563636 161.682486 
L 223.464463 161.495747 
L 219.365289 161.309008 
L 215.266116 161.122269 
L 211.166942 160.935529 
L 207.067769 160.74879 
L 202.968595 160.562051 
L 198.869421 160.375312 
L 194.770248 160.188573 
L 190.671074 160.001833 
L 186.571901 159.815094 
L 182.472727 159.628355 
L 178.373554 159.441616 
L 174.27438 159.254876 
L 170.175207 159.068137 
L 166.076033 158.881398 
L 161.97686 158.694659 
L 157.877686 158.50792 
L 153.778512 158.32118 
L 149.679339 158.134441 
L 145.580165 157.947702 
L 141.480992 157.760963 
L 137.381818 157.574223 
L 133.282645 157.387484 
L 129.183471 157.200745 
L 125.084298 157.014006 
L 120.985124 156.827267 
L 116.88595 156.640527 
L 112.786777 156.453788 
L 108.687603 156.267049 
L 104.58843 156.08031 
L 100.489256 155.893571 
L 96.390083 155.706831 
L 92.290909 155.520092 
z
" style="fill:#c6dbef;"/>
   </g>
   <g id="PolyCollection_5">
    <path clip-path="url(#pc6b6ad40b9)" d="M 92.290909 154.399831 
L 92.290909 155.520092 
L 96.390083 155.706831 
L 100.489256 155.893571 
L 104.58843 156.08031 
L 108.687603 156.267049 
L 112.786777 156.453788 
L 116.88595 156.640527 
L 120.985124 156.827267 
L 125.084298 157.014006 
L 129.183471 157.200745 
L 133.282645 157.387484 
L 137.381818 157.574223 
L 141.480992 157.760963 
L 145.580165 157.947702 
L 149.679339 158.134441 
L 153.778512 158.32118 
L 157.877686 158.50792 
L 161.97686 158.694659 
L 166.076033 158.881398 
L 170.175207 159.068137 
L 174.27438 159.254876 
L 178.373554 159.441616 
L 182.472727 159.628355 
L 186.571901 159.815094 
L 190.671074 160.001833 
L 194.770248 160.188573 
L 198.869421 160.375312 
L 202.968595 160.562051 
L 207.067769 160.74879 
L 211.166942 160.935529 
L 215.266116 161.122269 
L 219.365289 161.309008 
L 223.464463 161.495747 
L 227.563636 161.682486 
L 231.66281 161.869226 
L 235.761983 162.055965 
L 239.861157 162.242704 
L 243.960331 162.429443 
L 248.059504 162.616182 
L 252.158678 162.802922 
L 256.257851 162.989661 
L 260.357025 163.1764 
L 264.456198 163.363139 
L 268.555372 163.549879 
L 272.654545 163.736618 
L 276.753719 163.933172 
L 280.852893 164.134051 
L 284.952066 164.337051 
L 289.05124 164.541915 
L 293.150413 164.748658 
L 297.249587 164.957427 
L 301.34876 165.168693 
L 305.447934 165.383122 
L 309.547107 165.600629 
L 313.646281 165.820815 
L 317.745455 166.043241 
L 321.844628 166.269587 
L 325.943802 166.499872 
L 330.042975 166.731463 
L 334.142149 166.964568 
L 338.241322 167.20002 
L 342.340496 167.437411 
L 346.439669 167.677082 
L 350.538843 167.919122 
L 354.638017 168.163383 
L 358.73719 168.409892 
L 362.836364 168.658563 
L 366.935537 168.909619 
L 371.034711 169.161806 
L 375.133884 169.416271 
L 379.233058 169.672195 
L 383.332231 169.929005 
L 387.431405 170.185685 
L 391.530579 170.442989 
L 395.629752 170.700758 
L 399.728926 170.959006 
L 403.828099 171.217833 
L 407.927273 171.477249 
L 412.026446 171.737351 
L 416.12562 171.997331 
L 420.224793 172.256036 
L 424.323967 172.514015 
L 428.42314 172.772403 
L 432.522314 173.030544 
L 436.621488 173.28822 
L 440.720661 173.544944 
L 444.819835 173.800919 
L 448.919008 174.056845 
L 453.018182 174.313133 
L 457.117355 174.569406 
L 461.216529 174.825739 
L 465.315702 175.082292 
L 469.414876 175.3386 
L 473.51405 175.595188 
L 477.613223 175.851907 
L 481.712397 176.109216 
L 485.81157 176.366573 
L 489.910744 176.624775 
L 494.009917 176.882876 
L 498.109091 177.139836 
L 498.109091 176.019575 
L 498.109091 176.019575 
L 494.009917 175.762615 
L 489.910744 175.504513 
L 485.81157 175.246312 
L 481.712397 174.988955 
L 477.613223 174.731645 
L 473.51405 174.474927 
L 469.414876 174.218339 
L 465.315702 173.96203 
L 461.216529 173.705478 
L 457.117355 173.449144 
L 453.018182 173.192872 
L 448.919008 172.936583 
L 444.819835 172.680658 
L 440.720661 172.424683 
L 436.621488 172.167958 
L 432.522314 171.910282 
L 428.42314 171.652142 
L 424.323967 171.393753 
L 420.224793 171.135775 
L 416.12562 170.877069 
L 412.026446 170.61709 
L 407.927273 170.356987 
L 403.828099 170.097571 
L 399.728926 169.838745 
L 395.629752 169.580496 
L 391.530579 169.322728 
L 387.431405 169.065424 
L 383.332231 168.808743 
L 379.233058 168.551933 
L 375.133884 168.29601 
L 371.034711 168.041545 
L 366.935537 167.789358 
L 362.836364 167.538302 
L 358.73719 167.28963 
L 354.638017 167.043121 
L 350.538843 166.798861 
L 346.439669 166.556821 
L 342.340496 166.317149 
L 338.241322 166.079759 
L 334.142149 165.844306 
L 330.042975 165.611202 
L 325.943802 165.379611 
L 321.844628 165.149326 
L 317.745455 164.922979 
L 313.646281 164.700553 
L 309.547107 164.480367 
L 305.447934 164.26286 
L 301.34876 164.048431 
L 297.249587 163.837166 
L 293.150413 163.628397 
L 289.05124 163.421653 
L 284.952066 163.21679 
L 280.852893 163.01379 
L 276.753719 162.812911 
L 272.654545 162.616356 
L 268.555372 162.429617 
L 264.456198 162.242878 
L 260.357025 162.056139 
L 256.257851 161.8694 
L 252.158678 161.68266 
L 248.059504 161.495921 
L 243.960331 161.309182 
L 239.861157 161.122443 
L 235.761983 160.935703 
L 231.66281 160.748964 
L 227.563636 160.562225 
L 223.464463 160.375486 
L 219.365289 160.188747 
L 215.266116 160.002007 
L 211.166942 159.815268 
L 207.067769 159.628529 
L 202.968595 159.44179 
L 198.869421 159.25505 
L 194.770248 159.068311 
L 190.671074 158.881572 
L 186.571901 158.694833 
L 182.472727 158.508094 
L 178.373554 158.321354 
L 174.27438 158.134615 
L 170.175207 157.947876 
L 166.076033 157.761137 
L 161.97686 157.574397 
L 157.877686 157.387658 
L 153.778512 157.200919 
L 149.679339 157.01418 
L 145.580165 156.827441 
L 141.480992 156.640701 
L 137.381818 156.453962 
L 133.282645 156.267223 
L 129.183471 156.080484 
L 125.084298 155.893744 
L 120.985124 155.707005 
L 116.88595 155.520266 
L 112.786777 155.333527 
L 108.687603 155.146788 
L 104.58843 154.960048 
L 100.489256 154.773309 
L 96.390083 154.58657 
L 92.290909 154.399831 
z
" style="fill:#e6550d;"/>
   </g>
   <g id="PolyCollection_6">
    <path clip-path="url(#pc6b6ad40b9)" d="M 92.290909 152.494341 
L 92.290909 154.399831 
L 96.390083 154.58657 
L 100.489256 154.773309 
L 104.58843 154.960048 
L 108.687603 155.146788 
L 112.786777 155.333527 
L 116.88595 155.520266 
L 120.985124 155.707005 
L 125.084298 155.893744 
L 129.183471 156.080484 
L 133.282645 156.267223 
L 137.381818 156.453962 
L 141.480992 156.640701 
L 145.580165 156.827441 
L 149.679339 157.01418 
L 153.778512 157.200919 
L 157.877686 157.387658 
L 161.97686 157.574397 
L 166.076033 157.761137 
L 170.175207 157.947876 
L 174.27438 158.134615 
L 178.373554 158.321354 
L 182.472727 158.508094 
L 186.571901 158.694833 
L 190.671074 158.881572 
L 194.770248 159.068311 
L 198.869421 159.25505 
L 202.968595 159.44179 
L 207.067769 159.628529 
L 211.166942 159.815268 
L 215.266116 160.002007 
L 219.365289 160.188747 
L 223.464463 160.375486 
L 227.563636 160.562225 
L 231.66281 160.748964 
L 235.761983 160.935703 
L 239.861157 161.122443 
L 243.960331 161.309182 
L 248.059504 161.495921 
L 252.158678 161.68266 
L 256.257851 161.8694 
L 260.357025 162.056139 
L 264.456198 162.242878 
L 268.555372 162.429617 
L 272.654545 162.616356 
L 276.753719 162.812911 
L 280.852893 163.01379 
L 284.952066 163.21679 
L 289.05124 163.421653 
L 293.150413 163.628397 
L 297.249587 163.837166 
L 301.34876 164.048431 
L 305.447934 164.26286 
L 309.547107 164.480367 
L 313.646281 164.700553 
L 317.745455 164.922979 
L 321.844628 165.149326 
L 325.943802 165.379611 
L 330.042975 165.611202 
L 334.142149 165.844306 
L 338.241322 166.079759 
L 342.340496 166.317149 
L 346.439669 166.556821 
L 350.538843 166.798861 
L 354.638017 167.043121 
L 358.73719 167.28963 
L 362.836364 167.538302 
L 366.935537 167.789358 
L 371.034711 168.041545 
L 375.133884 168.29601 
L 379.233058 168.551933 
L 383.332231 168.808743 
L 387.431405 169.065424 
L 391.530579 169.322728 
L 395.629752 169.580496 
L 399.728926 169.838745 
L 403.828099 170.097571 
L 407.927273 170.356987 
L 412.026446 170.61709 
L 416.12562 170.877069 
L 420.224793 171.135775 
L 424.323967 171.393753 
L 428.42314 171.652142 
L 432.522314 171.910282 
L 436.621488 172.167958 
L 440.720661 172.424683 
L 444.819835 172.680658 
L 448.919008 172.936583 
L 453.018182 173.192872 
L 457.117355 173.449144 
L 461.216529 173.705478 
L 465.315702 173.96203 
L 469.414876 174.218339 
L 473.51405 174.474927 
L 477.613223 174.731645 
L 481.712397 174.988955 
L 485.81157 175.246312 
L 489.910744 175.504513 
L 494.009917 175.762615 
L 498.109091 176.019575 
L 498.109091 174.114096 
L 498.109091 174.114096 
L 494.009917 173.857135 
L 489.910744 173.599033 
L 485.81157 173.340831 
L 481.712397 173.083474 
L 477.613223 172.826164 
L 473.51405 172.569446 
L 469.414876 172.312857 
L 465.315702 172.056548 
L 461.216529 171.799995 
L 457.117355 171.543662 
L 453.018182 171.287389 
L 448.919008 171.0311 
L 444.819835 170.775174 
L 440.720661 170.519199 
L 436.621488 170.262474 
L 432.522314 170.004798 
L 428.42314 169.746657 
L 424.323967 169.488268 
L 420.224793 169.230289 
L 416.12562 168.971584 
L 412.026446 168.711603 
L 407.927273 168.451501 
L 403.828099 168.192084 
L 399.728926 167.933258 
L 395.629752 167.675009 
L 391.530579 167.41724 
L 387.431405 167.159935 
L 383.332231 166.903255 
L 379.233058 166.646444 
L 375.133884 166.39052 
L 371.034711 166.136056 
L 366.935537 165.883868 
L 362.836364 165.632812 
L 358.73719 165.384141 
L 354.638017 165.137632 
L 350.538843 164.893371 
L 346.439669 164.651331 
L 342.340496 164.41166 
L 338.241322 164.174269 
L 334.142149 163.938817 
L 330.042975 163.705712 
L 325.943802 163.474121 
L 321.844628 163.243836 
L 317.745455 163.01749 
L 313.646281 162.795063 
L 309.547107 162.574878 
L 305.447934 162.35737 
L 301.34876 162.142941 
L 297.249587 161.931676 
L 293.150413 161.722907 
L 289.05124 161.516163 
L 284.952066 161.3113 
L 280.852893 161.1083 
L 276.753719 160.907421 
L 272.654545 160.710867 
L 268.555372 160.524127 
L 264.456198 160.337388 
L 260.357025 160.150649 
L 256.257851 159.96391 
L 252.158678 159.777171 
L 248.059504 159.590431 
L 243.960331 159.403692 
L 239.861157 159.216953 
L 235.761983 159.030214 
L 231.66281 158.843474 
L 227.563636 158.656735 
L 223.464463 158.469996 
L 219.365289 158.283257 
L 215.266116 158.096518 
L 211.166942 157.909778 
L 207.067769 157.723039 
L 202.968595 157.5363 
L 198.869421 157.349561 
L 194.770248 157.162821 
L 190.671074 156.976082 
L 186.571901 156.789343 
L 182.472727 156.602604 
L 178.373554 156.415865 
L 174.27438 156.229125 
L 170.175207 156.042386 
L 166.076033 155.855647 
L 161.97686 155.668908 
L 157.877686 155.482168 
L 153.778512 155.295429 
L 149.679339 155.10869 
L 145.580165 154.921951 
L 141.480992 154.735212 
L 137.381818 154.548472 
L 133.282645 154.361733 
L 129.183471 154.174994 
L 125.084298 153.988255 
L 120.985124 153.801515 
L 116.88595 153.614776 
L 112.786777 153.428037 
L 108.687603 153.241298 
L 104.58843 153.054559 
L 100.489256 152.867819 
L 96.390083 152.68108 
L 92.290909 152.494341 
z
" style="fill:#fd8d3c;"/>
   </g>
   <g id="PolyCollection_7">
    <path clip-path="url(#pc6b6ad40b9)" d="M 92.290909 148.691229 
L 92.290909 152.494341 
L 96.390083 152.68108 
L 100.489256 152.867819 
L 104.58843 153.054559 
L 108.687603 153.241298 
L 112.786777 153.428037 
L 116.88595 153.614776 
L 120.985124 153.801515 
L 125.084298 153.988255 
L 129.183471 154.174994 
L 133.282645 154.361733 
L 137.381818 154.548472 
L 141.480992 154.735212 
L 145.580165 154.921951 
L 149.679339 155.10869 
L 153.778512 155.295429 
L 157.877686 155.482168 
L 161.97686 155.668908 
L 166.076033 155.855647 
L 170.175207 156.042386 
L 174.27438 156.229125 
L 178.373554 156.415865 
L 182.472727 156.602604 
L 186.571901 156.789343 
L 190.671074 156.976082 
L 194.770248 157.162821 
L 198.869421 157.349561 
L 202.968595 157.5363 
L 207.067769 157.723039 
L 211.166942 157.909778 
L 215.266116 158.096518 
L 219.365289 158.283257 
L 223.464463 158.469996 
L 227.563636 158.656735 
L 231.66281 158.843474 
L 235.761983 159.030214 
L 239.861157 159.216953 
L 243.960331 159.403692 
L 248.059504 159.590431 
L 252.158678 159.777171 
L 256.257851 159.96391 
L 260.357025 160.150649 
L 264.456198 160.337388 
L 268.555372 160.524127 
L 272.654545 160.710867 
L 276.753719 160.907421 
L 280.852893 161.1083 
L 284.952066 161.3113 
L 289.05124 161.516163 
L 293.150413 161.722907 
L 297.249587 161.931676 
L 301.34876 162.142941 
L 305.447934 162.35737 
L 309.547107 162.574878 
L 313.646281 162.795063 
L 317.745455 163.01749 
L 321.844628 163.243836 
L 325.943802 163.474121 
L 330.042975 163.705712 
L 334.142149 163.938817 
L 338.241322 164.174269 
L 342.340496 164.41166 
L 346.439669 164.651331 
L 350.538843 164.893371 
L 354.638017 165.137632 
L 358.73719 165.384141 
L 362.836364 165.632812 
L 366.935537 165.883868 
L 371.034711 166.136056 
L 375.133884 166.39052 
L 379.233058 166.646444 
L 383.332231 166.903255 
L 387.431405 167.159935 
L 391.530579 167.41724 
L 395.629752 167.675009 
L 399.728926 167.933258 
L 403.828099 168.192084 
L 407.927273 168.451501 
L 412.026446 168.711603 
L 416.12562 168.971584 
L 420.224793 169.230289 
L 424.323967 169.488268 
L 428.42314 169.746657 
L 432.522314 170.004798 
L 436.621488 170.262474 
L 440.720661 170.519199 
L 444.819835 170.775174 
L 448.919008 171.0311 
L 453.018182 171.287389 
L 457.117355 171.543662 
L 461.216529 171.799995 
L 465.315702 172.056548 
L 469.414876 172.312857 
L 473.51405 172.569446 
L 477.613223 172.826164 
L 481.712397 173.083474 
L 485.81157 173.340831 
L 489.910744 173.599033 
L 494.009917 173.857135 
L 498.109091 174.114096 
L 498.109091 174.114096 
L 498.109091 174.114096 
L 494.009917 173.81872 
L 489.910744 173.522203 
L 485.81157 173.225586 
L 481.712397 172.929814 
L 477.613223 172.634088 
L 473.51405 172.338954 
L 469.414876 172.043951 
L 465.315702 171.749227 
L 461.216529 171.454258 
L 457.117355 171.15951 
L 453.018182 170.864821 
L 448.919008 170.570118 
L 444.819835 170.275777 
L 440.720661 169.981386 
L 436.621488 169.686246 
L 432.522314 169.390155 
L 428.42314 169.093599 
L 424.323967 168.796795 
L 420.224793 168.500401 
L 416.12562 168.20328 
L 412.026446 167.904884 
L 407.927273 167.606367 
L 403.828099 167.308535 
L 399.728926 167.011293 
L 395.629752 166.714629 
L 391.530579 166.418445 
L 387.431405 166.122725 
L 383.332231 165.827629 
L 379.233058 165.532404 
L 375.133884 165.238065 
L 371.034711 164.945185 
L 366.935537 164.654582 
L 362.836364 164.365109 
L 358.73719 164.078021 
L 354.638017 163.793097 
L 350.538843 163.510421 
L 346.439669 163.229966 
L 342.340496 162.951879 
L 338.241322 162.676073 
L 334.142149 162.402206 
L 330.042975 162.130686 
L 325.943802 161.860679 
L 321.844628 161.591979 
L 317.745455 161.327217 
L 313.646281 161.066376 
L 309.547107 160.807775 
L 305.447934 160.551852 
L 301.34876 160.299008 
L 297.249587 160.049328 
L 293.150413 159.802143 
L 289.05124 159.556984 
L 284.952066 159.313706 
L 280.852893 159.072291 
L 276.753719 158.832996 
L 272.654545 158.598026 
L 268.555372 158.372872 
L 264.456198 158.147717 
L 260.357025 157.922563 
L 256.257851 157.697408 
L 252.158678 157.472254 
L 248.059504 157.247099 
L 243.960331 157.021945 
L 239.861157 156.79679 
L 235.761983 156.571636 
L 231.66281 156.346481 
L 227.563636 156.121327 
L 223.464463 155.896172 
L 219.365289 155.671018 
L 215.266116 155.445863 
L 211.166942 155.220709 
L 207.067769 154.995554 
L 202.968595 154.7704 
L 198.869421 154.545245 
L 194.770248 154.320091 
L 190.671074 154.094936 
L 186.571901 153.869782 
L 182.472727 153.644627 
L 178.373554 153.419473 
L 174.27438 153.194318 
L 170.175207 152.969164 
L 166.076033 152.744009 
L 161.97686 152.518855 
L 157.877686 152.2937 
L 153.778512 152.068546 
L 149.679339 151.843391 
L 145.580165 151.618237 
L 141.480992 151.393082 
L 137.381818 151.167928 
L 133.282645 150.942774 
L 129.183471 150.717619 
L 125.084298 150.492465 
L 120.985124 150.26731 
L 116.88595 150.042156 
L 112.786777 149.817001 
L 108.687603 149.591847 
L 104.58843 149.366692 
L 100.489256 149.141538 
L 96.390083 148.916383 
L 92.290909 148.691229 
z
" style="fill:#fdae6b;"/>
   </g>
   <g id="PolyCollection_8">
    <path clip-path="url(#pc6b6ad40b9)" d="M 92.290909 142.343698 
L 92.290909 148.691229 
L 96.390083 148.916383 
L 100.489256 149.141538 
L 104.58843 149.366692 
L 108.687603 149.591847 
L 112.786777 149.817001 
L 116.88595 150.042156 
L 120.985124 150.26731 
L 125.084298 150.492465 
L 129.183471 150.717619 
L 133.282645 150.942774 
L 137.381818 151.167928 
L 141.480992 151.393082 
L 145.580165 151.618237 
L 149.679339 151.843391 
L 153.778512 152.068546 
L 157.877686 152.2937 
L 161.97686 152.518855 
L 166.076033 152.744009 
L 170.175207 152.969164 
L 174.27438 153.194318 
L 178.373554 153.419473 
L 182.472727 153.644627 
L 186.571901 153.869782 
L 190.671074 154.094936 
L 194.770248 154.320091 
L 198.869421 154.545245 
L 202.968595 154.7704 
L 207.067769 154.995554 
L 211.166942 155.220709 
L 215.266116 155.445863 
L 219.365289 155.671018 
L 223.464463 155.896172 
L 227.563636 156.121327 
L 231.66281 156.346481 
L 235.761983 156.571636 
L 239.861157 156.79679 
L 243.960331 157.021945 
L 248.059504 157.247099 
L 252.158678 157.472254 
L 256.257851 157.697408 
L 260.357025 157.922563 
L 264.456198 158.147717 
L 268.555372 158.372872 
L 272.654545 158.598026 
L 276.753719 158.832996 
L 280.852893 159.072291 
L 284.952066 159.313706 
L 289.05124 159.556984 
L 293.150413 159.802143 
L 297.249587 160.049328 
L 301.34876 160.299008 
L 305.447934 160.551852 
L 309.547107 160.807775 
L 313.646281 161.066376 
L 317.745455 161.327217 
L 321.844628 161.591979 
L 325.943802 161.860679 
L 330.042975 162.130686 
L 334.142149 162.402206 
L 338.241322 162.676073 
L 342.340496 162.951879 
L 346.439669 163.229966 
L 350.538843 163.510421 
L 354.638017 163.793097 
L 358.73719 164.078021 
L 362.836364 164.365109 
L 366.935537 164.654582 
L 371.034711 164.945185 
L 375.133884 165.238065 
L 379.233058 165.532404 
L 383.332231 165.827629 
L 387.431405 166.122725 
L 391.530579 166.418445 
L 395.629752 166.714629 
L 399.728926 167.011293 
L 403.828099 167.308535 
L 407.927273 167.606367 
L 412.026446 167.904884 
L 416.12562 168.20328 
L 420.224793 168.500401 
L 424.323967 168.796795 
L 428.42314 169.093599 
L 432.522314 169.390155 
L 436.621488 169.686246 
L 440.720661 169.981386 
L 444.819835 170.275777 
L 448.919008 170.570118 
L 453.018182 170.864821 
L 457.117355 171.15951 
L 461.216529 171.454258 
L 465.315702 171.749227 
L 469.414876 172.043951 
L 473.51405 172.338954 
L 477.613223 172.634088 
L 481.712397 172.929814 
L 485.81157 173.225586 
L 489.910744 173.522203 
L 494.009917 173.81872 
L 498.109091 174.114096 
L 498.109091 167.766565 
L 498.109091 167.766565 
L 494.009917 167.47119 
L 489.910744 167.174672 
L 485.81157 166.878055 
L 481.712397 166.582283 
L 477.613223 166.286558 
L 473.51405 165.991424 
L 469.414876 165.69642 
L 465.315702 165.401697 
L 461.216529 165.106728 
L 457.117355 164.81198 
L 453.018182 164.517291 
L 448.919008 164.222587 
L 444.819835 163.928246 
L 440.720661 163.633856 
L 436.621488 163.338716 
L 432.522314 163.042624 
L 428.42314 162.746068 
L 424.323967 162.449264 
L 420.224793 162.15287 
L 416.12562 161.855749 
L 412.026446 161.557354 
L 407.927273 161.258836 
L 403.828099 160.961005 
L 399.728926 160.663763 
L 395.629752 160.367098 
L 391.530579 160.070915 
L 387.431405 159.775195 
L 383.332231 159.480099 
L 379.233058 159.184873 
L 375.133884 158.890534 
L 371.034711 158.597654 
L 366.935537 158.307051 
L 362.836364 158.017578 
L 358.73719 157.730491 
L 354.638017 157.445567 
L 350.538843 157.162891 
L 346.439669 156.882435 
L 342.340496 156.604349 
L 338.241322 156.328543 
L 334.142149 156.054675 
L 330.042975 155.783155 
L 325.943802 155.513149 
L 321.844628 155.244449 
L 317.745455 154.979687 
L 313.646281 154.718846 
L 309.547107 154.460245 
L 305.447934 154.204322 
L 301.34876 153.951478 
L 297.249587 153.701797 
L 293.150413 153.454613 
L 289.05124 153.209454 
L 284.952066 152.966175 
L 280.852893 152.72476 
L 276.753719 152.485466 
L 272.654545 152.250496 
L 268.555372 152.025342 
L 264.456198 151.800187 
L 260.357025 151.575033 
L 256.257851 151.349878 
L 252.158678 151.124724 
L 248.059504 150.899569 
L 243.960331 150.674415 
L 239.861157 150.44926 
L 235.761983 150.224106 
L 231.66281 149.998951 
L 227.563636 149.773797 
L 223.464463 149.548642 
L 219.365289 149.323488 
L 215.266116 149.098333 
L 211.166942 148.873179 
L 207.067769 148.648024 
L 202.968595 148.42287 
L 198.869421 148.197715 
L 194.770248 147.972561 
L 190.671074 147.747406 
L 186.571901 147.522252 
L 182.472727 147.297097 
L 178.373554 147.071943 
L 174.27438 146.846788 
L 170.175207 146.621634 
L 166.076033 146.396479 
L 161.97686 146.171325 
L 157.877686 145.94617 
L 153.778512 145.721016 
L 149.679339 145.495861 
L 145.580165 145.270707 
L 141.480992 145.045552 
L 137.381818 144.820398 
L 133.282645 144.595243 
L 129.183471 144.370089 
L 125.084298 144.144934 
L 120.985124 143.91978 
L 116.88595 143.694625 
L 112.786777 143.469471 
L 108.687603 143.244316 
L 104.58843 143.019162 
L 100.489256 142.794007 
L 96.390083 142.568853 
L 92.290909 142.343698 
z
" style="fill:#fdd0a2;"/>
   </g>
   <g id="PolyCollection_9">
    <path clip-path="url(#pc6b6ad40b9)" d="M 92.290909 139.362619 
L 92.290909 142.343698 
L 96.390083 142.568853 
L 100.489256 142.794007 
L 104.58843 143.019162 
L 108.687603 143.244316 
L 112.786777 143.469471 
L 116.88595 143.694625 
L 120.985124 143.91978 
L 125.084298 144.144934 
L 129.183471 144.370089 
L 133.282645 144.595243 
L 137.381818 144.820398 
L 141.480992 145.045552 
L 145.580165 145.270707 
L 149.679339 145.495861 
L 153.778512 145.721016 
L 157.877686 145.94617 
L 161.97686 146.171325 
L 166.076033 146.396479 
L 170.175207 146.621634 
L 174.27438 146.846788 
L 178.373554 147.071943 
L 182.472727 147.297097 
L 186.571901 147.522252 
L 190.671074 147.747406 
L 194.770248 147.972561 
L 198.869421 148.197715 
L 202.968595 148.42287 
L 207.067769 148.648024 
L 211.166942 148.873179 
L 215.266116 149.098333 
L 219.365289 149.323488 
L 223.464463 149.548642 
L 227.563636 149.773797 
L 231.66281 149.998951 
L 235.761983 150.224106 
L 239.861157 150.44926 
L 243.960331 150.674415 
L 248.059504 150.899569 
L 252.158678 151.124724 
L 256.257851 151.349878 
L 260.357025 151.575033 
L 264.456198 151.800187 
L 268.555372 152.025342 
L 272.654545 152.250496 
L 276.753719 152.485466 
L 280.852893 152.72476 
L 284.952066 152.966175 
L 289.05124 153.209454 
L 293.150413 153.454613 
L 297.249587 153.701797 
L 301.34876 153.951478 
L 305.447934 154.204322 
L 309.547107 154.460245 
L 313.646281 154.718846 
L 317.745455 154.979687 
L 321.844628 155.244449 
L 325.943802 155.513149 
L 330.042975 155.783155 
L 334.142149 156.054675 
L 338.241322 156.328543 
L 342.340496 156.604349 
L 346.439669 156.882435 
L 350.538843 157.162891 
L 354.638017 157.445567 
L 358.73719 157.730491 
L 362.836364 158.017578 
L 366.935537 158.307051 
L 371.034711 158.597654 
L 375.133884 158.890534 
L 379.233058 159.184873 
L 383.332231 159.480099 
L 387.431405 159.775195 
L 391.530579 160.070915 
L 395.629752 160.367098 
L 399.728926 160.663763 
L 403.828099 160.961005 
L 407.927273 161.258836 
L 412.026446 161.557354 
L 416.12562 161.855749 
L 420.224793 162.15287 
L 424.323967 162.449264 
L 428.42314 162.746068 
L 432.522314 163.042624 
L 436.621488 163.338716 
L 440.720661 163.633856 
L 444.819835 163.928246 
L 448.919008 164.222587 
L 453.018182 164.517291 
L 457.117355 164.81198 
L 461.216529 165.106728 
L 465.315702 165.401697 
L 469.414876 165.69642 
L 473.51405 165.991424 
L 477.613223 166.286558 
L 481.712397 166.582283 
L 485.81157 166.878055 
L 489.910744 167.174672 
L 494.009917 167.47119 
L 498.109091 167.766565 
L 498.109091 164.785486 
L 498.109091 164.785486 
L 494.009917 164.490111 
L 489.910744 164.193593 
L 485.81157 163.896976 
L 481.712397 163.601204 
L 477.613223 163.305479 
L 473.51405 163.010345 
L 469.414876 162.715341 
L 465.315702 162.420618 
L 461.216529 162.125649 
L 457.117355 161.830901 
L 453.018182 161.536212 
L 448.919008 161.241508 
L 444.819835 160.947167 
L 440.720661 160.652777 
L 436.621488 160.357637 
L 432.522314 160.061545 
L 428.42314 159.76499 
L 424.323967 159.468185 
L 420.224793 159.171791 
L 416.12562 158.87467 
L 412.026446 158.576275 
L 407.927273 158.277757 
L 403.828099 157.979926 
L 399.728926 157.682684 
L 395.629752 157.38602 
L 391.530579 157.089836 
L 387.431405 156.794116 
L 383.332231 156.49902 
L 379.233058 156.203794 
L 375.133884 155.909455 
L 371.034711 155.616575 
L 366.935537 155.325972 
L 362.836364 155.036499 
L 358.73719 154.749412 
L 354.638017 154.464488 
L 350.538843 154.181812 
L 346.439669 153.901356 
L 342.340496 153.62327 
L 338.241322 153.347464 
L 334.142149 153.073596 
L 330.042975 152.802077 
L 325.943802 152.53207 
L 321.844628 152.26337 
L 317.745455 151.998608 
L 313.646281 151.737767 
L 309.547107 151.479166 
L 305.447934 151.223243 
L 301.34876 150.970399 
L 297.249587 150.720718 
L 293.150413 150.473534 
L 289.05124 150.228375 
L 284.952066 149.985096 
L 280.852893 149.743681 
L 276.753719 149.504387 
L 272.654545 149.269417 
L 268.555372 149.044263 
L 264.456198 148.819108 
L 260.357025 148.593954 
L 256.257851 148.368799 
L 252.158678 148.143645 
L 248.059504 147.91849 
L 243.960331 147.693336 
L 239.861157 147.468181 
L 235.761983 147.243027 
L 231.66281 147.017872 
L 227.563636 146.792718 
L 223.464463 146.567563 
L 219.365289 146.342409 
L 215.266116 146.117254 
L 211.166942 145.8921 
L 207.067769 145.666945 
L 202.968595 145.441791 
L 198.869421 145.216636 
L 194.770248 144.991482 
L 190.671074 144.766327 
L 186.571901 144.541173 
L 182.472727 144.316018 
L 178.373554 144.090864 
L 174.27438 143.865709 
L 170.175207 143.640555 
L 166.076033 143.4154 
L 161.97686 143.190246 
L 157.877686 142.965091 
L 153.778512 142.739937 
L 149.679339 142.514782 
L 145.580165 142.289628 
L 141.480992 142.064473 
L 137.381818 141.839319 
L 133.282645 141.614164 
L 129.183471 141.38901 
L 125.084298 141.163855 
L 120.985124 140.938701 
L 116.88595 140.713546 
L 112.786777 140.488392 
L 108.687603 140.263237 
L 104.58843 140.038083 
L 100.489256 139.812928 
L 96.390083 139.587774 
L 92.290909 139.362619 
z
" style="fill:#31a354;"/>
   </g>
   <g id="PolyCollection_10">
    <path clip-path="url(#pc6b6ad40b9)" d="M 92.290909 135.36 
L 92.290909 139.362619 
L 96.390083 139.587774 
L 100.489256 139.812928 
L 104.58843 140.038083 
L 108.687603 140.263237 
L 112.786777 140.488392 
L 116.88595 140.713546 
L 120.985124 140.938701 
L 125.084298 141.163855 
L 129.183471 141.38901 
L 133.282645 141.614164 
L 137.381818 141.839319 
L 141.480992 142.064473 
L 145.580165 142.289628 
L 149.679339 142.514782 
L 153.778512 142.739937 
L 157.877686 142.965091 
L 161.97686 143.190246 
L 166.076033 143.4154 
L 170.175207 143.640555 
L 174.27438 143.865709 
L 178.373554 144.090864 
L 182.472727 144.316018 
L 186.571901 144.541173 
L 190.671074 144.766327 
L 194.770248 144.991482 
L 198.869421 145.216636 
L 202.968595 145.441791 
L 207.067769 145.666945 
L 211.166942 145.8921 
L 215.266116 146.117254 
L 219.365289 146.342409 
L 223.464463 146.567563 
L 227.563636 146.792718 
L 231.66281 147.017872 
L 235.761983 147.243027 
L 239.861157 147.468181 
L 243.960331 147.693336 
L 248.059504 147.91849 
L 252.158678 148.143645 
L 256.257851 148.368799 
L 260.357025 148.593954 
L 264.456198 148.819108 
L 268.555372 149.044263 
L 272.654545 149.269417 
L 276.753719 149.504387 
L 280.852893 149.743681 
L 284.952066 149.985096 
L 289.05124 150.228375 
L 293.150413 150.473534 
L 297.249587 150.720718 
L 301.34876 150.970399 
L 305.447934 151.223243 
L 309.547107 151.479166 
L 313.646281 151.737767 
L 317.745455 151.998608 
L 321.844628 152.26337 
L 325.943802 152.53207 
L 330.042975 152.802077 
L 334.142149 153.073596 
L 338.241322 153.347464 
L 342.340496 153.62327 
L 346.439669 153.901356 
L 350.538843 154.181812 
L 354.638017 154.464488 
L 358.73719 154.749412 
L 362.836364 155.036499 
L 366.935537 155.325972 
L 371.034711 155.616575 
L 375.133884 155.909455 
L 379.233058 156.203794 
L 383.332231 156.49902 
L 387.431405 156.794116 
L 391.530579 157.089836 
L 395.629752 157.38602 
L 399.728926 157.682684 
L 403.828099 157.979926 
L 407.927273 158.277757 
L 412.026446 158.576275 
L 416.12562 158.87467 
L 420.224793 159.171791 
L 424.323967 159.468185 
L 428.42314 159.76499 
L 432.522314 160.061545 
L 436.621488 160.357637 
L 440.720661 160.652777 
L 444.819835 160.947167 
L 448.919008 161.241508 
L 453.018182 161.536212 
L 457.117355 161.830901 
L 461.216529 162.125649 
L 465.315702 162.420618 
L 469.414876 162.715341 
L 473.51405 163.010345 
L 477.613223 163.305479 
L 481.712397 163.601204 
L 485.81157 163.896976 
L 489.910744 164.193593 
L 494.009917 164.490111 
L 498.109091 164.785486 
L 498.109091 164.785486 
L 498.109091 164.785486 
L 494.009917 164.44968 
L 489.910744 164.112732 
L 485.81157 163.775685 
L 481.712397 163.439482 
L 477.613223 163.103326 
L 473.51405 162.767762 
L 469.414876 162.432328 
L 465.315702 162.097174 
L 461.216529 161.761775 
L 457.117355 161.426596 
L 453.018182 161.091477 
L 448.919008 160.756342 
L 444.819835 160.421571 
L 440.720661 160.08675 
L 436.621488 159.751179 
L 432.522314 159.414657 
L 428.42314 159.077671 
L 424.323967 158.740436 
L 420.224793 158.403612 
L 416.12562 158.06606 
L 412.026446 157.727235 
L 407.927273 157.388286 
L 403.828099 157.050024 
L 399.728926 156.712352 
L 395.629752 156.375257 
L 391.530579 156.038643 
L 387.431405 155.702492 
L 383.332231 155.366966 
L 379.233058 155.03131 
L 375.133884 154.69654 
L 371.034711 154.36323 
L 366.935537 154.032196 
L 362.836364 153.702293 
L 358.73719 153.374775 
L 354.638017 153.04942 
L 350.538843 152.726314 
L 346.439669 152.405428 
L 342.340496 152.086911 
L 338.241322 151.770675 
L 334.142149 151.456376 
L 330.042975 151.144426 
L 325.943802 150.833989 
L 321.844628 150.524858 
L 317.745455 150.219666 
L 313.646281 149.918394 
L 309.547107 149.619363 
L 305.447934 149.32301 
L 301.34876 149.029735 
L 297.249587 148.739624 
L 293.150413 148.452009 
L 289.05124 148.16642 
L 284.952066 147.88271 
L 280.852893 147.600865 
L 276.753719 147.32114 
L 272.654545 147.04574 
L 268.555372 146.780155 
L 264.456198 146.51457 
L 260.357025 146.248985 
L 256.257851 145.9834 
L 252.158678 145.717815 
L 248.059504 145.45223 
L 243.960331 145.186645 
L 239.861157 144.92106 
L 235.761983 144.655475 
L 231.66281 144.38989 
L 227.563636 144.124305 
L 223.464463 143.85872 
L 219.365289 143.593135 
L 215.266116 143.32755 
L 211.166942 143.061965 
L 207.067769 142.79638 
L 202.968595 142.530795 
L 198.869421 142.26521 
L 194.770248 141.999625 
L 190.671074 141.73404 
L 186.571901 141.468455 
L 182.472727 141.20287 
L 178.373554 140.937285 
L 174.27438 140.6717 
L 170.175207 140.406115 
L 166.076033 140.14053 
L 161.97686 139.874945 
L 157.877686 139.60936 
L 153.778512 139.343775 
L 149.679339 139.07819 
L 145.580165 138.812605 
L 141.480992 138.54702 
L 137.381818 138.281435 
L 133.282645 138.01585 
L 129.183471 137.750265 
L 125.084298 137.48468 
L 120.985124 137.219095 
L 116.88595 136.95351 
L 112.786777 136.687925 
L 108.687603 136.42234 
L 104.58843 136.156755 
L 100.489256 135.89117 
L 96.390083 135.625585 
L 92.290909 135.36 
z
" style="fill:#74c476;"/>
   </g>
   <g id="PolyCollection_11">
    <path clip-path="url(#pc6b6ad40b9)" d="M 92.290909 135.36 
L 92.290909 135.36 
L 96.390083 135.625585 
L 100.489256 135.89117 
L 104.58843 136.156755 
L 108.687603 136.42234 
L 112.786777 136.687925 
L 116.88595 136.95351 
L 120.985124 137.219095 
L 125.084298 137.48468 
L 129.183471 137.750265 
L 133.282645 138.01585 
L 137.381818 138.281435 
L 141.480992 138.54702 
L 145.580165 138.812605 
L 149.679339 139.07819 
L 153.778512 139.343775 
L 157.877686 139.60936 
L 161.97686 139.874945 
L 166.076033 140.14053 
L 170.175207 140.406115 
L 174.27438 140.6717 
L 178.373554 140.937285 
L 182.472727 141.20287 
L 186.571901 141.468455 
L 190.671074 141.73404 
L 194.770248 141.999625 
L 198.869421 142.26521 
L 202.968595 142.530795 
L 207.067769 142.79638 
L 211.166942 143.061965 
L 215.266116 143.32755 
L 219.365289 143.593135 
L 223.464463 143.85872 
L 227.563636 144.124305 
L 231.66281 144.38989 
L 235.761983 144.655475 
L 239.861157 144.92106 
L 243.960331 145.186645 
L 248.059504 145.45223 
L 252.158678 145.717815 
L 256.257851 145.9834 
L 260.357025 146.248985 
L 264.456198 146.51457 
L 268.555372 146.780155 
L 272.654545 147.04574 
L 276.753719 147.32114 
L 280.852893 147.600865 
L 284.952066 147.88271 
L 289.05124 148.16642 
L 293.150413 148.452009 
L 297.249587 148.739624 
L 301.34876 149.029735 
L 305.447934 149.32301 
L 309.547107 149.619363 
L 313.646281 149.918394 
L 317.745455 150.219666 
L 321.844628 150.524858 
L 325.943802 150.833989 
L 330.042975 151.144426 
L 334.142149 151.456376 
L 338.241322 151.770675 
L 342.340496 152.086911 
L 346.439669 152.405428 
L 350.538843 152.726314 
L 354.638017 153.04942 
L 358.73719 153.374775 
L 362.836364 153.702293 
L 366.935537 154.032196 
L 371.034711 154.36323 
L 375.133884 154.69654 
L 379.233058 155.03131 
L 383.332231 155.366966 
L 387.431405 155.702492 
L 391.530579 156.038643 
L 395.629752 156.375257 
L 399.728926 156.712352 
L 403.828099 157.050024 
L 407.927273 157.388286 
L 412.026446 157.727235 
L 416.12562 158.06606 
L 420.224793 158.403612 
L 424.323967 158.740436 
L 428.42314 159.077671 
L 432.522314 159.414657 
L 436.621488 159.751179 
L 440.720661 160.08675 
L 444.819835 160.421571 
L 448.919008 160.756342 
L 453.018182 161.091477 
L 457.117355 161.426596 
L 461.216529 161.761775 
L 465.315702 162.097174 
L 469.414876 162.432328 
L 473.51405 162.767762 
L 477.613223 163.103326 
L 481.712397 163.439482 
L 485.81157 163.775685 
L 489.910744 164.112732 
L 494.009917 164.44968 
L 498.109091 164.785486 
L 498.109091 160.022941 
L 498.109091 160.022941 
L 494.009917 159.735204 
L 489.910744 159.446326 
L 485.81157 159.157347 
L 481.712397 158.869214 
L 477.613223 158.581127 
L 473.51405 158.293632 
L 469.414876 158.006267 
L 465.315702 157.719181 
L 461.216529 157.431868 
L 457.117355 157.144776 
L 453.018182 156.857744 
L 448.919008 156.570696 
L 444.819835 156.284012 
L 440.720661 155.997278 
L 436.621488 155.709794 
L 432.522314 155.421359 
L 428.42314 155.13246 
L 424.323967 154.843312 
L 420.224793 154.554575 
L 416.12562 154.26511 
L 412.026446 153.974372 
L 407.927273 153.68351 
L 403.828099 153.393339 
L 399.728926 153.103759 
L 395.629752 152.814756 
L 391.530579 152.526234 
L 387.431405 152.238176 
L 383.332231 151.950742 
L 379.233058 151.663179 
L 375.133884 151.376501 
L 371.034711 151.091283 
L 366.935537 150.808342 
L 362.836364 150.526531 
L 358.73719 150.247108 
L 354.638017 149.969851 
L 350.538843 149.694846 
L 346.439669 149.422068 
L 342.340496 149.151668 
L 338.241322 148.883549 
L 334.142149 148.617368 
L 330.042975 148.353535 
L 325.943802 148.091215 
L 321.844628 147.830202 
L 317.745455 147.573129 
L 313.646281 147.319976 
L 309.547107 147.069063 
L 305.447934 146.820829 
L 301.34876 146.575673 
L 297.249587 146.333681 
L 293.150413 146.094185 
L 289.05124 145.856714 
L 284.952066 145.621124 
L 280.852893 145.387397 
L 276.753719 145.155791 
L 272.654545 144.92851 
L 268.555372 144.711044 
L 264.456198 144.493577 
L 260.357025 144.276111 
L 256.257851 144.058645 
L 252.158678 143.841179 
L 248.059504 143.623713 
L 243.960331 143.406247 
L 239.861157 143.188781 
L 235.761983 142.971314 
L 231.66281 142.753848 
L 227.563636 142.536382 
L 223.464463 142.318916 
L 219.365289 142.10145 
L 215.266116 141.883984 
L 211.166942 141.666518 
L 207.067769 141.449052 
L 202.968595 141.231585 
L 198.869421 141.014119 
L 194.770248 140.796653 
L 190.671074 140.579187 
L 186.571901 140.361721 
L 182.472727 140.144255 
L 178.373554 139.926789 
L 174.27438 139.709323 
L 170.175207 139.491856 
L 166.076033 139.27439 
L 161.97686 139.056924 
L 157.877686 138.839458 
L 153.778512 138.621992 
L 149.679339 138.404526 
L 145.580165 138.18706 
L 141.480992 137.969594 
L 137.381818 137.752127 
L 133.282645 137.534661 
L 129.183471 137.317195 
L 125.084298 137.099729 
L 120.985124 136.882263 
L 116.88595 136.664797 
L 112.786777 136.447331 
L 108.687603 136.229865 
L 104.58843 136.012398 
L 100.489256 135.794932 
L 96.390083 135.577466 
L 92.290909 135.36 
z
" style="fill:#a1d99b;"/>
   </g>
   <g id="PolyCollection_12">
    <path clip-path="url(#pc6b6ad40b9)" d="M 92.290909 135.36 
L 92.290909 135.36 
L 96.390083 135.577466 
L 100.489256 135.794932 
L 104.58843 136.012398 
L 108.687603 136.229865 
L 112.786777 136.447331 
L 116.88595 136.664797 
L 120.985124 136.882263 
L 125.084298 137.099729 
L 129.183471 137.317195 
L 133.282645 137.534661 
L 137.381818 137.752127 
L 141.480992 137.969594 
L 145.580165 138.18706 
L 149.679339 138.404526 
L 153.778512 138.621992 
L 157.877686 138.839458 
L 161.97686 139.056924 
L 166.076033 139.27439 
L 170.175207 139.491856 
L 174.27438 139.709323 
L 178.373554 139.926789 
L 182.472727 140.144255 
L 186.571901 140.361721 
L 190.671074 140.579187 
L 194.770248 140.796653 
L 198.869421 141.014119 
L 202.968595 141.231585 
L 207.067769 141.449052 
L 211.166942 141.666518 
L 215.266116 141.883984 
L 219.365289 142.10145 
L 223.464463 142.318916 
L 227.563636 142.536382 
L 231.66281 142.753848 
L 235.761983 142.971314 
L 239.861157 143.188781 
L 243.960331 143.406247 
L 248.059504 143.623713 
L 252.158678 143.841179 
L 256.257851 144.058645 
L 260.357025 144.276111 
L 264.456198 144.493577 
L 268.555372 144.711044 
L 272.654545 144.92851 
L 276.753719 145.155791 
L 280.852893 145.387397 
L 284.952066 145.621124 
L 289.05124 145.856714 
L 293.150413 146.094185 
L 297.249587 146.333681 
L 301.34876 146.575673 
L 305.447934 146.820829 
L 309.547107 147.069063 
L 313.646281 147.319976 
L 317.745455 147.573129 
L 321.844628 147.830202 
L 325.943802 148.091215 
L 330.042975 148.353535 
L 334.142149 148.617368 
L 338.241322 148.883549 
L 342.340496 149.151668 
L 346.439669 149.422068 
L 350.538843 149.694846 
L 354.638017 149.969851 
L 358.73719 150.247108 
L 362.836364 150.526531 
L 366.935537 150.808342 
L 371.034711 151.091283 
L 375.133884 151.376501 
L 379.233058 151.663179 
L 383.332231 151.950742 
L 387.431405 152.238176 
L 391.530579 152.526234 
L 395.629752 152.814756 
L 399.728926 153.103759 
L 403.828099 153.393339 
L 407.927273 153.68351 
L 412.026446 153.974372 
L 416.12562 154.26511 
L 420.224793 154.554575 
L 424.323967 154.843312 
L 428.42314 155.13246 
L 432.522314 155.421359 
L 436.621488 155.709794 
L 440.720661 155.997278 
L 444.819835 156.284012 
L 448.919008 156.570696 
L 453.018182 156.857744 
L 457.117355 157.144776 
L 461.216529 157.431868 
L 465.315702 157.719181 
L 469.414876 158.006267 
L 473.51405 158.293632 
L 477.613223 158.581127 
L 481.712397 158.869214 
L 485.81157 159.157347 
L 489.910744 159.446326 
L 494.009917 159.735204 
L 498.109091 160.022941 
L 498.109091 155.228242 
L 498.109091 155.228242 
L 494.009917 154.988937 
L 489.910744 154.748489 
L 485.81157 154.507942 
L 481.712397 154.26824 
L 477.613223 154.028584 
L 473.51405 153.789521 
L 469.414876 153.550587 
L 465.315702 153.311933 
L 461.216529 153.07305 
L 457.117355 152.83439 
L 453.018182 152.595789 
L 448.919008 152.357173 
L 444.819835 152.11892 
L 440.720661 151.880617 
L 436.621488 151.641565 
L 432.522314 151.401561 
L 428.42314 151.161093 
L 424.323967 150.920377 
L 420.224793 150.680071 
L 416.12562 150.439037 
L 412.026446 150.19673 
L 407.927273 149.9543 
L 403.828099 149.71256 
L 399.728926 149.471411 
L 395.629752 149.23084 
L 391.530579 148.990749 
L 387.431405 148.751123 
L 383.332231 148.51212 
L 379.233058 148.272987 
L 375.133884 148.034742 
L 371.034711 147.797955 
L 366.935537 147.563445 
L 362.836364 147.330065 
L 358.73719 147.099074 
L 354.638017 146.870247 
L 350.538843 146.643674 
L 346.439669 146.419327 
L 342.340496 146.197359 
L 338.241322 145.977671 
L 334.142149 145.759921 
L 330.042975 145.544519 
L 325.943802 145.330631 
L 321.844628 145.118049 
L 317.745455 144.909407 
L 313.646281 144.704685 
L 309.547107 144.502204 
L 305.447934 144.302401 
L 301.34876 144.105676 
L 297.249587 143.912116 
L 293.150413 143.721051 
L 289.05124 143.532011 
L 284.952066 143.344852 
L 280.852893 143.159557 
L 276.753719 142.976382 
L 272.654545 142.797532 
L 268.555372 142.628498 
L 264.456198 142.459463 
L 260.357025 142.290428 
L 256.257851 142.121393 
L 252.158678 141.952358 
L 248.059504 141.783323 
L 243.960331 141.614289 
L 239.861157 141.445254 
L 235.761983 141.276219 
L 231.66281 141.107184 
L 227.563636 140.938149 
L 223.464463 140.769114 
L 219.365289 140.60008 
L 215.266116 140.431045 
L 211.166942 140.26201 
L 207.067769 140.092975 
L 202.968595 139.92394 
L 198.869421 139.754905 
L 194.770248 139.585871 
L 190.671074 139.416836 
L 186.571901 139.247801 
L 182.472727 139.078766 
L 178.373554 138.909731 
L 174.27438 138.740697 
L 170.175207 138.571662 
L 166.076033 138.402627 
L 161.97686 138.233592 
L 157.877686 138.064557 
L 153.778512 137.895522 
L 149.679339 137.726488 
L 145.580165 137.557453 
L 141.480992 137.388418 
L 137.381818 137.219383 
L 133.282645 137.050348 
L 129.183471 136.881313 
L 125.084298 136.712279 
L 120.985124 136.543244 
L 116.88595 136.374209 
L 112.786777 136.205174 
L 108.687603 136.036139 
L 104.58843 135.867104 
L 100.489256 135.69807 
L 96.390083 135.529035 
L 92.290909 135.36 
z
" style="fill:#c7e9c0;"/>
   </g>
   <g id="matplotlib.axis_1">
    <g id="xtick_1">
     <g id="line2d_1">
      <defs>
       <path d="M 0 0 
L 0 3.5 
" id="m17e9fbcd11" style="stroke:#000000;stroke-width:0.8;"/>
      </defs>
      <g>
       <use style="stroke:#000000;stroke-width:0.8;" x="92.290909" xlink:href="#m17e9fbcd11" y="768.96"/>
      </g>
     </g>
     <g id="text_1">
      <!-- 0 -->
      <g transform="translate(89.109659 783.558437)scale(0.1 -0.1)">
       <defs>
        <path d="M 2034 4250 
Q 1547 4250 1301 3770 
Q 1056 3291 1056 2328 
Q 1056 1369 1301 889 
Q 1547 409 2034 409 
Q 2525 409 2770 889 
Q 3016 1369 3016 2328 
Q 3016 3291 2770 3770 
Q 2525 4250 2034 4250 
z
M 2034 4750 
Q 2819 4750 3233 4129 
Q 3647 3509 3647 2328 
Q 3647 1150 3233 529 
Q 2819 -91 2034 -91 
Q 1250 -91 836 529 
Q 422 1150 422 2328 
Q 422 3509 836 4129 
Q 1250 4750 2034 4750 
z
" id="DejaVuSans-30" transform="scale(0.015625)"/>
       </defs>
       <use xlink:href="#DejaVuSans-30"/>
      </g>
     </g>
    </g>
    <g id="xtick_2">
     <g id="line2d_2">
      <g>
       <use style="stroke:#000000;stroke-width:0.8;" x="173.454545" xlink:href="#m17e9fbcd11" y="768.96"/>
      </g>
     </g>
     <g id="text_2">
      <!-- 20 -->
      <g transform="translate(167.092045 783.558437)scale(0.1 -0.1)">
       <defs>
        <path d="M 1228 531 
L 3431 531 
L 3431 0 
L 469 0 
L 469 531 
Q 828 903 1448 1529 
Q 2069 2156 2228 2338 
Q 2531 2678 2651 2914 
Q 2772 3150 2772 3378 
Q 2772 3750 2511 3984 
Q 2250 4219 1831 4219 
Q 1534 4219 1204 4116 
Q 875 4013 500 3803 
L 500 4441 
Q 881 4594 1212 4672 
Q 1544 4750 1819 4750 
Q 2544 4750 2975 4387 
Q 3406 4025 3406 3419 
Q 3406 3131 3298 2873 
Q 3191 2616 2906 2266 
Q 2828 2175 2409 1742 
Q 1991 1309 1228 531 
z
" id="DejaVuSans-32" transform="scale(0.015625)"/>
       </defs>
       <use xlink:href="#DejaVuSans-32"/>
       <use x="63.623047" xlink:href="#DejaVuSans-30"/>
      </g>
     </g>
    </g>
    <g id="xtick_3">
     <g id="line2d_3">
      <g>
       <use style="stroke:#000000;stroke-width:0.8;" x="254.618182" xlink:href="#m17e9fbcd11" y="768.96"/>
      </g>
     </g>
     <g id="text_3">
      <!-- 40 -->
      <g transform="translate(248.255682 783.558437)scale(0.1 -0.1)">
       <defs>
        <path d="M 2419 4116 
L 825 1625 
L 2419 1625 
L 2419 4116 
z
M 2253 4666 
L 3047 4666 
L 3047 1625 
L 3713 1625 
L 3713 1100 
L 3047 1100 
L 3047 0 
L 2419 0 
L 2419 1100 
L 313 1100 
L 313 1709 
L 2253 4666 
z
" id="DejaVuSans-34" transform="scale(0.015625)"/>
       </defs>
       <use xlink:href="#DejaVuSans-34"/>
       <use x="63.623047" xlink:href="#DejaVuSans-30"/>
      </g>
     </g>
    </g>
    <g id="xtick_4">
     <g id="line2d_4">
      <g>
       <use style="stroke:#000000;stroke-width:0.8;" x="335.781818" xlink:href="#m17e9fbcd11" y="768.96"/>
      </g>
     </g>
     <g id="text_4">
      <!-- 60 -->
      <g transform="translate(329.419318 783.558437)scale(0.1 -0.1)">
       <defs>
        <path d="M 2113 2584 
Q 1688 2584 1439 2293 
Q 1191 2003 1191 1497 
Q 1191 994 1439 701 
Q 1688 409 2113 409 
Q 2538 409 2786 701 
Q 3034 994 3034 1497 
Q 3034 2003 2786 2293 
Q 2538 2584 2113 2584 
z
M 3366 4563 
L 3366 3988 
Q 3128 4100 2886 4159 
Q 2644 4219 2406 4219 
Q 1781 4219 1451 3797 
Q 1122 3375 1075 2522 
Q 1259 2794 1537 2939 
Q 1816 3084 2150 3084 
Q 2853 3084 3261 2657 
Q 3669 2231 3669 1497 
Q 3669 778 3244 343 
Q 2819 -91 2113 -91 
Q 1303 -91 875 529 
Q 447 1150 447 2328 
Q 447 3434 972 4092 
Q 1497 4750 2381 4750 
Q 2619 4750 2861 4703 
Q 3103 4656 3366 4563 
z
" id="DejaVuSans-36" transform="scale(0.015625)"/>
       </defs>
       <use xlink:href="#DejaVuSans-36"/>
       <use x="63.623047" xlink:href="#DejaVuSans-30"/>
      </g>
     </g>
    </g>
    <g id="xtick_5">
     <g id="line2d_5">
      <g>
       <use style="stroke:#000000;stroke-width:0.8;" x="416.945455" xlink:href="#m17e9fbcd11" y="768.96"/>
      </g>
     </g>
     <g id="text_5">
      <!-- 80 -->
      <g transform="translate(410.582955 783.558437)scale(0.1 -0.1)">
       <defs>
        <path d="M 2034 2216 
Q 1584 2216 1326 1975 
Q 1069 1734 1069 1313 
Q 1069 891 1326 650 
Q 1584 409 2034 409 
Q 2484 409 2743 651 
Q 3003 894 3003 1313 
Q 3003 1734 2745 1975 
Q 2488 2216 2034 2216 
z
M 1403 2484 
Q 997 2584 770 2862 
Q 544 3141 544 3541 
Q 544 4100 942 4425 
Q 1341 4750 2034 4750 
Q 2731 4750 3128 4425 
Q 3525 4100 3525 3541 
Q 3525 3141 3298 2862 
Q 3072 2584 2669 2484 
Q 3125 2378 3379 2068 
Q 3634 1759 3634 1313 
Q 3634 634 3220 271 
Q 2806 -91 2034 -91 
Q 1263 -91 848 271 
Q 434 634 434 1313 
Q 434 1759 690 2068 
Q 947 2378 1403 2484 
z
M 1172 3481 
Q 1172 3119 1398 2916 
Q 1625 2713 2034 2713 
Q 2441 2713 2670 2916 
Q 2900 3119 2900 3481 
Q 2900 3844 2670 4047 
Q 2441 4250 2034 4250 
Q 1625 4250 1398 4047 
Q 1172 3844 1172 3481 
z
" id="DejaVuSans-38" transform="scale(0.015625)"/>
       </defs>
       <use xlink:href="#DejaVuSans-38"/>
       <use x="63.623047" xlink:href="#DejaVuSans-30"/>
      </g>
     </g>
    </g>
    <g id="xtick_6">
     <g id="line2d_6">
      <g>
       <use style="stroke:#000000;stroke-width:0.8;" x="498.109091" xlink:href="#m17e9fbcd11" y="768.96"/>
      </g>
     </g>
     <g id="text_6">
      <!-- 100 -->
      <g transform="translate(488.565341 783.558437)scale(0.1 -0.1)">
       <defs>
        <path d="M 794 531 
L 1825 531 
L 1825 4091 
L 703 3866 
L 703 4441 
L 1819 4666 
L 2450 4666 
L 2450 531 
L 3481 531 
L 3481 0 
L 794 0 
L 794 531 
z
" id="DejaVuSans-31" transform="scale(0.015625)"/>
       </defs>
       <use xlink:href="#DejaVuSans-31"/>
       <use x="63.623047" xlink:href="#DejaVuSans-30"/>
       <use x="127.246094" xlink:href="#DejaVuSans-30"/>
      </g>
     </g>
    </g>
    <g id="text_7">
     <!-- Proportion of New Technology in Grid (%) -->
     <g transform="translate(192.432031 797.236562)scale(0.1 -0.1)">
      <defs>
       <path d="M 1259 4147 
L 1259 2394 
L 2053 2394 
Q 2494 2394 2734 2622 
Q 2975 2850 2975 3272 
Q 2975 3691 2734 3919 
Q 2494 4147 2053 4147 
L 1259 4147 
z
M 628 4666 
L 2053 4666 
Q 2838 4666 3239 4311 
Q 3641 3956 3641 3272 
Q 3641 2581 3239 2228 
Q 2838 1875 2053 1875 
L 1259 1875 
L 1259 0 
L 628 0 
L 628 4666 
z
" id="DejaVuSans-50" transform="scale(0.015625)"/>
       <path d="M 2631 2963 
Q 2534 3019 2420 3045 
Q 2306 3072 2169 3072 
Q 1681 3072 1420 2755 
Q 1159 2438 1159 1844 
L 1159 0 
L 581 0 
L 581 3500 
L 1159 3500 
L 1159 2956 
Q 1341 3275 1631 3429 
Q 1922 3584 2338 3584 
Q 2397 3584 2469 3576 
Q 2541 3569 2628 3553 
L 2631 2963 
z
" id="DejaVuSans-72" transform="scale(0.015625)"/>
       <path d="M 1959 3097 
Q 1497 3097 1228 2736 
Q 959 2375 959 1747 
Q 959 1119 1226 758 
Q 1494 397 1959 397 
Q 2419 397 2687 759 
Q 2956 1122 2956 1747 
Q 2956 2369 2687 2733 
Q 2419 3097 1959 3097 
z
M 1959 3584 
Q 2709 3584 3137 3096 
Q 3566 2609 3566 1747 
Q 3566 888 3137 398 
Q 2709 -91 1959 -91 
Q 1206 -91 779 398 
Q 353 888 353 1747 
Q 353 2609 779 3096 
Q 1206 3584 1959 3584 
z
" id="DejaVuSans-6f" transform="scale(0.015625)"/>
       <path d="M 1159 525 
L 1159 -1331 
L 581 -1331 
L 581 3500 
L 1159 3500 
L 1159 2969 
Q 1341 3281 1617 3432 
Q 1894 3584 2278 3584 
Q 2916 3584 3314 3078 
Q 3713 2572 3713 1747 
Q 3713 922 3314 415 
Q 2916 -91 2278 -91 
Q 1894 -91 1617 61 
Q 1341 213 1159 525 
z
M 3116 1747 
Q 3116 2381 2855 2742 
Q 2594 3103 2138 3103 
Q 1681 3103 1420 2742 
Q 1159 2381 1159 1747 
Q 1159 1113 1420 752 
Q 1681 391 2138 391 
Q 2594 391 2855 752 
Q 3116 1113 3116 1747 
z
" id="DejaVuSans-70" transform="scale(0.015625)"/>
       <path d="M 1172 4494 
L 1172 3500 
L 2356 3500 
L 2356 3053 
L 1172 3053 
L 1172 1153 
Q 1172 725 1289 603 
Q 1406 481 1766 481 
L 2356 481 
L 2356 0 
L 1766 0 
Q 1100 0 847 248 
Q 594 497 594 1153 
L 594 3053 
L 172 3053 
L 172 3500 
L 594 3500 
L 594 4494 
L 1172 4494 
z
" id="DejaVuSans-74" transform="scale(0.015625)"/>
       <path d="M 603 3500 
L 1178 3500 
L 1178 0 
L 603 0 
L 603 3500 
z
M 603 4863 
L 1178 4863 
L 1178 4134 
L 603 4134 
L 603 4863 
z
" id="DejaVuSans-69" transform="scale(0.015625)"/>
       <path d="M 3513 2113 
L 3513 0 
L 2938 0 
L 2938 2094 
Q 2938 2591 2744 2837 
Q 2550 3084 2163 3084 
Q 1697 3084 1428 2787 
Q 1159 2491 1159 1978 
L 1159 0 
L 581 0 
L 581 3500 
L 1159 3500 
L 1159 2956 
Q 1366 3272 1645 3428 
Q 1925 3584 2291 3584 
Q 2894 3584 3203 3211 
Q 3513 2838 3513 2113 
z
" id="DejaVuSans-6e" transform="scale(0.015625)"/>
       <path id="DejaVuSans-20" transform="scale(0.015625)"/>
       <path d="M 2375 4863 
L 2375 4384 
L 1825 4384 
Q 1516 4384 1395 4259 
Q 1275 4134 1275 3809 
L 1275 3500 
L 2222 3500 
L 2222 3053 
L 1275 3053 
L 1275 0 
L 697 0 
L 697 3053 
L 147 3053 
L 147 3500 
L 697 3500 
L 697 3744 
Q 697 4328 969 4595 
Q 1241 4863 1831 4863 
L 2375 4863 
z
" id="DejaVuSans-66" transform="scale(0.015625)"/>
       <path d="M 628 4666 
L 1478 4666 
L 3547 763 
L 3547 4666 
L 4159 4666 
L 4159 0 
L 3309 0 
L 1241 3903 
L 1241 0 
L 628 0 
L 628 4666 
z
" id="DejaVuSans-4e" transform="scale(0.015625)"/>
       <path d="M 3597 1894 
L 3597 1613 
L 953 1613 
Q 991 1019 1311 708 
Q 1631 397 2203 397 
Q 2534 397 2845 478 
Q 3156 559 3463 722 
L 3463 178 
Q 3153 47 2828 -22 
Q 2503 -91 2169 -91 
Q 1331 -91 842 396 
Q 353 884 353 1716 
Q 353 2575 817 3079 
Q 1281 3584 2069 3584 
Q 2775 3584 3186 3129 
Q 3597 2675 3597 1894 
z
M 3022 2063 
Q 3016 2534 2758 2815 
Q 2500 3097 2075 3097 
Q 1594 3097 1305 2825 
Q 1016 2553 972 2059 
L 3022 2063 
z
" id="DejaVuSans-65" transform="scale(0.015625)"/>
       <path d="M 269 3500 
L 844 3500 
L 1563 769 
L 2278 3500 
L 2956 3500 
L 3675 769 
L 4391 3500 
L 4966 3500 
L 4050 0 
L 3372 0 
L 2619 2869 
L 1863 0 
L 1184 0 
L 269 3500 
z
" id="DejaVuSans-77" transform="scale(0.015625)"/>
       <path d="M -19 4666 
L 3928 4666 
L 3928 4134 
L 2272 4134 
L 2272 0 
L 1638 0 
L 1638 4134 
L -19 4134 
L -19 4666 
z
" id="DejaVuSans-54" transform="scale(0.015625)"/>
       <path d="M 3122 3366 
L 3122 2828 
Q 2878 2963 2633 3030 
Q 2388 3097 2138 3097 
Q 1578 3097 1268 2742 
Q 959 2388 959 1747 
Q 959 1106 1268 751 
Q 1578 397 2138 397 
Q 2388 397 2633 464 
Q 2878 531 3122 666 
L 3122 134 
Q 2881 22 2623 -34 
Q 2366 -91 2075 -91 
Q 1284 -91 818 406 
Q 353 903 353 1747 
Q 353 2603 823 3093 
Q 1294 3584 2113 3584 
Q 2378 3584 2631 3529 
Q 2884 3475 3122 3366 
z
" id="DejaVuSans-63" transform="scale(0.015625)"/>
       <path d="M 3513 2113 
L 3513 0 
L 2938 0 
L 2938 2094 
Q 2938 2591 2744 2837 
Q 2550 3084 2163 3084 
Q 1697 3084 1428 2787 
Q 1159 2491 1159 1978 
L 1159 0 
L 581 0 
L 581 4863 
L 1159 4863 
L 1159 2956 
Q 1366 3272 1645 3428 
Q 1925 3584 2291 3584 
Q 2894 3584 3203 3211 
Q 3513 2838 3513 2113 
z
" id="DejaVuSans-68" transform="scale(0.015625)"/>
       <path d="M 603 4863 
L 1178 4863 
L 1178 0 
L 603 0 
L 603 4863 
z
" id="DejaVuSans-6c" transform="scale(0.015625)"/>
       <path d="M 2906 1791 
Q 2906 2416 2648 2759 
Q 2391 3103 1925 3103 
Q 1463 3103 1205 2759 
Q 947 2416 947 1791 
Q 947 1169 1205 825 
Q 1463 481 1925 481 
Q 2391 481 2648 825 
Q 2906 1169 2906 1791 
z
M 3481 434 
Q 3481 -459 3084 -895 
Q 2688 -1331 1869 -1331 
Q 1566 -1331 1297 -1286 
Q 1028 -1241 775 -1147 
L 775 -588 
Q 1028 -725 1275 -790 
Q 1522 -856 1778 -856 
Q 2344 -856 2625 -561 
Q 2906 -266 2906 331 
L 2906 616 
Q 2728 306 2450 153 
Q 2172 0 1784 0 
Q 1141 0 747 490 
Q 353 981 353 1791 
Q 353 2603 747 3093 
Q 1141 3584 1784 3584 
Q 2172 3584 2450 3431 
Q 2728 3278 2906 2969 
L 2906 3500 
L 3481 3500 
L 3481 434 
z
" id="DejaVuSans-67" transform="scale(0.015625)"/>
       <path d="M 2059 -325 
Q 1816 -950 1584 -1140 
Q 1353 -1331 966 -1331 
L 506 -1331 
L 506 -850 
L 844 -850 
Q 1081 -850 1212 -737 
Q 1344 -625 1503 -206 
L 1606 56 
L 191 3500 
L 800 3500 
L 1894 763 
L 2988 3500 
L 3597 3500 
L 2059 -325 
z
" id="DejaVuSans-79" transform="scale(0.015625)"/>
       <path d="M 3809 666 
L 3809 1919 
L 2778 1919 
L 2778 2438 
L 4434 2438 
L 4434 434 
Q 4069 175 3628 42 
Q 3188 -91 2688 -91 
Q 1594 -91 976 548 
Q 359 1188 359 2328 
Q 359 3472 976 4111 
Q 1594 4750 2688 4750 
Q 3144 4750 3555 4637 
Q 3966 4525 4313 4306 
L 4313 3634 
Q 3963 3931 3569 4081 
Q 3175 4231 2741 4231 
Q 1884 4231 1454 3753 
Q 1025 3275 1025 2328 
Q 1025 1384 1454 906 
Q 1884 428 2741 428 
Q 3075 428 3337 486 
Q 3600 544 3809 666 
z
" id="DejaVuSans-47" transform="scale(0.015625)"/>
       <path d="M 2906 2969 
L 2906 4863 
L 3481 4863 
L 3481 0 
L 2906 0 
L 2906 525 
Q 2725 213 2448 61 
Q 2172 -91 1784 -91 
Q 1150 -91 751 415 
Q 353 922 353 1747 
Q 353 2572 751 3078 
Q 1150 3584 1784 3584 
Q 2172 3584 2448 3432 
Q 2725 3281 2906 2969 
z
M 947 1747 
Q 947 1113 1208 752 
Q 1469 391 1925 391 
Q 2381 391 2643 752 
Q 2906 1113 2906 1747 
Q 2906 2381 2643 2742 
Q 2381 3103 1925 3103 
Q 1469 3103 1208 2742 
Q 947 2381 947 1747 
z
" id="DejaVuSans-64" transform="scale(0.015625)"/>
       <path d="M 1984 4856 
Q 1566 4138 1362 3434 
Q 1159 2731 1159 2009 
Q 1159 1288 1364 580 
Q 1569 -128 1984 -844 
L 1484 -844 
Q 1016 -109 783 600 
Q 550 1309 550 2009 
Q 550 2706 781 3412 
Q 1013 4119 1484 4856 
L 1984 4856 
z
" id="DejaVuSans-28" transform="scale(0.015625)"/>
       <path d="M 4653 2053 
Q 4381 2053 4226 1822 
Q 4072 1591 4072 1178 
Q 4072 772 4226 539 
Q 4381 306 4653 306 
Q 4919 306 5073 539 
Q 5228 772 5228 1178 
Q 5228 1588 5073 1820 
Q 4919 2053 4653 2053 
z
M 4653 2450 
Q 5147 2450 5437 2106 
Q 5728 1763 5728 1178 
Q 5728 594 5436 251 
Q 5144 -91 4653 -91 
Q 4153 -91 3862 251 
Q 3572 594 3572 1178 
Q 3572 1766 3864 2108 
Q 4156 2450 4653 2450 
z
M 1428 4353 
Q 1159 4353 1004 4120 
Q 850 3888 850 3481 
Q 850 3069 1003 2837 
Q 1156 2606 1428 2606 
Q 1700 2606 1854 2837 
Q 2009 3069 2009 3481 
Q 2009 3884 1853 4118 
Q 1697 4353 1428 4353 
z
M 4250 4750 
L 4750 4750 
L 1831 -91 
L 1331 -91 
L 4250 4750 
z
M 1428 4750 
Q 1922 4750 2215 4408 
Q 2509 4066 2509 3481 
Q 2509 2891 2217 2550 
Q 1925 2209 1428 2209 
Q 931 2209 642 2551 
Q 353 2894 353 3481 
Q 353 4063 643 4406 
Q 934 4750 1428 4750 
z
" id="DejaVuSans-25" transform="scale(0.015625)"/>
       <path d="M 513 4856 
L 1013 4856 
Q 1481 4119 1714 3412 
Q 1947 2706 1947 2009 
Q 1947 1309 1714 600 
Q 1481 -109 1013 -844 
L 513 -844 
Q 928 -128 1133 580 
Q 1338 1288 1338 2009 
Q 1338 2731 1133 3434 
Q 928 4138 513 4856 
z
" id="DejaVuSans-29" transform="scale(0.015625)"/>
      </defs>
      <use xlink:href="#DejaVuSans-50"/>
      <use x="58.552734" xlink:href="#DejaVuSans-72"/>
      <use x="97.416016" xlink:href="#DejaVuSans-6f"/>
      <use x="158.597656" xlink:href="#DejaVuSans-70"/>
      <use x="222.074219" xlink:href="#DejaVuSans-6f"/>
      <use x="283.255859" xlink:href="#DejaVuSans-72"/>
      <use x="324.369141" xlink:href="#DejaVuSans-74"/>
      <use x="363.578125" xlink:href="#DejaVuSans-69"/>
      <use x="391.361328" xlink:href="#DejaVuSans-6f"/>
      <use x="452.542969" xlink:href="#DejaVuSans-6e"/>
      <use x="515.921875" xlink:href="#DejaVuSans-20"/>
      <use x="547.708984" xlink:href="#DejaVuSans-6f"/>
      <use x="608.890625" xlink:href="#DejaVuSans-66"/>
      <use x="644.095703" xlink:href="#DejaVuSans-20"/>
      <use x="675.882812" xlink:href="#DejaVuSans-4e"/>
      <use x="750.6875" xlink:href="#DejaVuSans-65"/>
      <use x="812.210938" xlink:href="#DejaVuSans-77"/>
      <use x="893.998047" xlink:href="#DejaVuSans-20"/>
      <use x="925.785156" xlink:href="#DejaVuSans-54"/>
      <use x="969.869141" xlink:href="#DejaVuSans-65"/>
      <use x="1031.392578" xlink:href="#DejaVuSans-63"/>
      <use x="1086.373047" xlink:href="#DejaVuSans-68"/>
      <use x="1149.751953" xlink:href="#DejaVuSans-6e"/>
      <use x="1213.130859" xlink:href="#DejaVuSans-6f"/>
      <use x="1274.3125" xlink:href="#DejaVuSans-6c"/>
      <use x="1302.095703" xlink:href="#DejaVuSans-6f"/>
      <use x="1363.277344" xlink:href="#DejaVuSans-67"/>
      <use x="1426.753906" xlink:href="#DejaVuSans-79"/>
      <use x="1485.933594" xlink:href="#DejaVuSans-20"/>
      <use x="1517.720703" xlink:href="#DejaVuSans-69"/>
      <use x="1545.503906" xlink:href="#DejaVuSans-6e"/>
      <use x="1608.882812" xlink:href="#DejaVuSans-20"/>
      <use x="1640.669922" xlink:href="#DejaVuSans-47"/>
      <use x="1718.160156" xlink:href="#DejaVuSans-72"/>
      <use x="1759.273438" xlink:href="#DejaVuSans-69"/>
      <use x="1787.056641" xlink:href="#DejaVuSans-64"/>
      <use x="1850.533203" xlink:href="#DejaVuSans-20"/>
      <use x="1882.320312" xlink:href="#DejaVuSans-28"/>
      <use x="1921.333984" xlink:href="#DejaVuSans-25"/>
      <use x="2016.353516" xlink:href="#DejaVuSans-29"/>
     </g>
    </g>
   </g>
   <g id="matplotlib.axis_2">
    <g id="ytick_1">
     <g id="line2d_7">
      <defs>
       <path d="M 0 0 
L -3.5 0 
" id="m1f2e61885d" style="stroke:#000000;stroke-width:0.8;"/>
      </defs>
      <g>
       <use style="stroke:#000000;stroke-width:0.8;" x="72" xlink:href="#m1f2e61885d" y="768.96"/>
      </g>
     </g>
     <g id="text_8">
      <!-- 0 -->
      <g transform="translate(58.6375 772.759219)scale(0.1 -0.1)">
       <use xlink:href="#DejaVuSans-30"/>
      </g>
     </g>
    </g>
    <g id="ytick_2">
     <g id="line2d_8">
      <g>
       <use style="stroke:#000000;stroke-width:0.8;" x="72" xlink:href="#m1f2e61885d" y="687.798829"/>
      </g>
     </g>
     <g id="text_9">
      <!-- 10 -->
      <g transform="translate(52.275 691.598047)scale(0.1 -0.1)">
       <use xlink:href="#DejaVuSans-31"/>
       <use x="63.623047" xlink:href="#DejaVuSans-30"/>
      </g>
     </g>
    </g>
    <g id="ytick_3">
     <g id="line2d_9">
      <g>
       <use style="stroke:#000000;stroke-width:0.8;" x="72" xlink:href="#m1f2e61885d" y="606.637657"/>
      </g>
     </g>
     <g id="text_10">
      <!-- 20 -->
      <g transform="translate(52.275 610.436876)scale(0.1 -0.1)">
       <use xlink:href="#DejaVuSans-32"/>
       <use x="63.623047" xlink:href="#DejaVuSans-30"/>
      </g>
     </g>
    </g>
    <g id="ytick_4">
     <g id="line2d_10">
      <g>
       <use style="stroke:#000000;stroke-width:0.8;" x="72" xlink:href="#m1f2e61885d" y="525.476486"/>
      </g>
     </g>
     <g id="text_11">
      <!-- 30 -->
      <g transform="translate(52.275 529.275704)scale(0.1 -0.1)">
       <defs>
        <path d="M 2597 2516 
Q 3050 2419 3304 2112 
Q 3559 1806 3559 1356 
Q 3559 666 3084 287 
Q 2609 -91 1734 -91 
Q 1441 -91 1130 -33 
Q 819 25 488 141 
L 488 750 
Q 750 597 1062 519 
Q 1375 441 1716 441 
Q 2309 441 2620 675 
Q 2931 909 2931 1356 
Q 2931 1769 2642 2001 
Q 2353 2234 1838 2234 
L 1294 2234 
L 1294 2753 
L 1863 2753 
Q 2328 2753 2575 2939 
Q 2822 3125 2822 3475 
Q 2822 3834 2567 4026 
Q 2313 4219 1838 4219 
Q 1578 4219 1281 4162 
Q 984 4106 628 3988 
L 628 4550 
Q 988 4650 1302 4700 
Q 1616 4750 1894 4750 
Q 2613 4750 3031 4423 
Q 3450 4097 3450 3541 
Q 3450 3153 3228 2886 
Q 3006 2619 2597 2516 
z
" id="DejaVuSans-33" transform="scale(0.015625)"/>
       </defs>
       <use xlink:href="#DejaVuSans-33"/>
       <use x="63.623047" xlink:href="#DejaVuSans-30"/>
      </g>
     </g>
    </g>
    <g id="ytick_5">
     <g id="line2d_11">
      <g>
       <use style="stroke:#000000;stroke-width:0.8;" x="72" xlink:href="#m1f2e61885d" y="444.315314"/>
      </g>
     </g>
     <g id="text_12">
      <!-- 40 -->
      <g transform="translate(52.275 448.114533)scale(0.1 -0.1)">
       <use xlink:href="#DejaVuSans-34"/>
       <use x="63.623047" xlink:href="#DejaVuSans-30"/>
      </g>
     </g>
    </g>
    <g id="ytick_6">
     <g id="line2d_12">
      <g>
       <use style="stroke:#000000;stroke-width:0.8;" x="72" xlink:href="#m1f2e61885d" y="363.154143"/>
      </g>
     </g>
     <g id="text_13">
      <!-- 50 -->
      <g transform="translate(52.275 366.953362)scale(0.1 -0.1)">
       <defs>
        <path d="M 691 4666 
L 3169 4666 
L 3169 4134 
L 1269 4134 
L 1269 2991 
Q 1406 3038 1543 3061 
Q 1681 3084 1819 3084 
Q 2600 3084 3056 2656 
Q 3513 2228 3513 1497 
Q 3513 744 3044 326 
Q 2575 -91 1722 -91 
Q 1428 -91 1123 -41 
Q 819 9 494 109 
L 494 744 
Q 775 591 1075 516 
Q 1375 441 1709 441 
Q 2250 441 2565 725 
Q 2881 1009 2881 1497 
Q 2881 1984 2565 2268 
Q 2250 2553 1709 2553 
Q 1456 2553 1204 2497 
Q 953 2441 691 2322 
L 691 4666 
z
" id="DejaVuSans-35" transform="scale(0.015625)"/>
       </defs>
       <use xlink:href="#DejaVuSans-35"/>
       <use x="63.623047" xlink:href="#DejaVuSans-30"/>
      </g>
     </g>
    </g>
    <g id="ytick_7">
     <g id="line2d_13">
      <g>
       <use style="stroke:#000000;stroke-width:0.8;" x="72" xlink:href="#m1f2e61885d" y="281.992971"/>
      </g>
     </g>
     <g id="text_14">
      <!-- 60 -->
      <g transform="translate(52.275 285.79219)scale(0.1 -0.1)">
       <use xlink:href="#DejaVuSans-36"/>
       <use x="63.623047" xlink:href="#DejaVuSans-30"/>
      </g>
     </g>
    </g>
    <g id="ytick_8">
     <g id="line2d_14">
      <g>
       <use style="stroke:#000000;stroke-width:0.8;" x="72" xlink:href="#m1f2e61885d" y="200.8318"/>
      </g>
     </g>
     <g id="text_15">
      <!-- 70 -->
      <g transform="translate(52.275 204.631019)scale(0.1 -0.1)">
       <defs>
        <path d="M 525 4666 
L 3525 4666 
L 3525 4397 
L 1831 0 
L 1172 0 
L 2766 4134 
L 525 4134 
L 525 4666 
z
" id="DejaVuSans-37" transform="scale(0.015625)"/>
       </defs>
       <use xlink:href="#DejaVuSans-37"/>
       <use x="63.623047" xlink:href="#DejaVuSans-30"/>
      </g>
     </g>
    </g>
    <g id="ytick_9">
     <g id="line2d_15">
      <g>
       <use style="stroke:#000000;stroke-width:0.8;" x="72" xlink:href="#m1f2e61885d" y="119.670628"/>
      </g>
     </g>
     <g id="text_16">
      <!-- 80 -->
      <g transform="translate(52.275 123.469847)scale(0.1 -0.1)">
       <use xlink:href="#DejaVuSans-38"/>
       <use x="63.623047" xlink:href="#DejaVuSans-30"/>
      </g>
     </g>
    </g>
    <g id="text_17">
     <!-- Carbon Equivalent Emissions (Mt) -->
     <g transform="translate(46.195312 520.635625)rotate(-90)scale(0.1 -0.1)">
      <defs>
       <path d="M 4122 4306 
L 4122 3641 
Q 3803 3938 3442 4084 
Q 3081 4231 2675 4231 
Q 1875 4231 1450 3742 
Q 1025 3253 1025 2328 
Q 1025 1406 1450 917 
Q 1875 428 2675 428 
Q 3081 428 3442 575 
Q 3803 722 4122 1019 
L 4122 359 
Q 3791 134 3420 21 
Q 3050 -91 2638 -91 
Q 1578 -91 968 557 
Q 359 1206 359 2328 
Q 359 3453 968 4101 
Q 1578 4750 2638 4750 
Q 3056 4750 3426 4639 
Q 3797 4528 4122 4306 
z
" id="DejaVuSans-43" transform="scale(0.015625)"/>
       <path d="M 2194 1759 
Q 1497 1759 1228 1600 
Q 959 1441 959 1056 
Q 959 750 1161 570 
Q 1363 391 1709 391 
Q 2188 391 2477 730 
Q 2766 1069 2766 1631 
L 2766 1759 
L 2194 1759 
z
M 3341 1997 
L 3341 0 
L 2766 0 
L 2766 531 
Q 2569 213 2275 61 
Q 1981 -91 1556 -91 
Q 1019 -91 701 211 
Q 384 513 384 1019 
Q 384 1609 779 1909 
Q 1175 2209 1959 2209 
L 2766 2209 
L 2766 2266 
Q 2766 2663 2505 2880 
Q 2244 3097 1772 3097 
Q 1472 3097 1187 3025 
Q 903 2953 641 2809 
L 641 3341 
Q 956 3463 1253 3523 
Q 1550 3584 1831 3584 
Q 2591 3584 2966 3190 
Q 3341 2797 3341 1997 
z
" id="DejaVuSans-61" transform="scale(0.015625)"/>
       <path d="M 3116 1747 
Q 3116 2381 2855 2742 
Q 2594 3103 2138 3103 
Q 1681 3103 1420 2742 
Q 1159 2381 1159 1747 
Q 1159 1113 1420 752 
Q 1681 391 2138 391 
Q 2594 391 2855 752 
Q 3116 1113 3116 1747 
z
M 1159 2969 
Q 1341 3281 1617 3432 
Q 1894 3584 2278 3584 
Q 2916 3584 3314 3078 
Q 3713 2572 3713 1747 
Q 3713 922 3314 415 
Q 2916 -91 2278 -91 
Q 1894 -91 1617 61 
Q 1341 213 1159 525 
L 1159 0 
L 581 0 
L 581 4863 
L 1159 4863 
L 1159 2969 
z
" id="DejaVuSans-62" transform="scale(0.015625)"/>
       <path d="M 628 4666 
L 3578 4666 
L 3578 4134 
L 1259 4134 
L 1259 2753 
L 3481 2753 
L 3481 2222 
L 1259 2222 
L 1259 531 
L 3634 531 
L 3634 0 
L 628 0 
L 628 4666 
z
" id="DejaVuSans-45" transform="scale(0.015625)"/>
       <path d="M 947 1747 
Q 947 1113 1208 752 
Q 1469 391 1925 391 
Q 2381 391 2643 752 
Q 2906 1113 2906 1747 
Q 2906 2381 2643 2742 
Q 2381 3103 1925 3103 
Q 1469 3103 1208 2742 
Q 947 2381 947 1747 
z
M 2906 525 
Q 2725 213 2448 61 
Q 2172 -91 1784 -91 
Q 1150 -91 751 415 
Q 353 922 353 1747 
Q 353 2572 751 3078 
Q 1150 3584 1784 3584 
Q 2172 3584 2448 3432 
Q 2725 3281 2906 2969 
L 2906 3500 
L 3481 3500 
L 3481 -1331 
L 2906 -1331 
L 2906 525 
z
" id="DejaVuSans-71" transform="scale(0.015625)"/>
       <path d="M 544 1381 
L 544 3500 
L 1119 3500 
L 1119 1403 
Q 1119 906 1312 657 
Q 1506 409 1894 409 
Q 2359 409 2629 706 
Q 2900 1003 2900 1516 
L 2900 3500 
L 3475 3500 
L 3475 0 
L 2900 0 
L 2900 538 
Q 2691 219 2414 64 
Q 2138 -91 1772 -91 
Q 1169 -91 856 284 
Q 544 659 544 1381 
z
M 1991 3584 
L 1991 3584 
z
" id="DejaVuSans-75" transform="scale(0.015625)"/>
       <path d="M 191 3500 
L 800 3500 
L 1894 563 
L 2988 3500 
L 3597 3500 
L 2284 0 
L 1503 0 
L 191 3500 
z
" id="DejaVuSans-76" transform="scale(0.015625)"/>
       <path d="M 3328 2828 
Q 3544 3216 3844 3400 
Q 4144 3584 4550 3584 
Q 5097 3584 5394 3201 
Q 5691 2819 5691 2113 
L 5691 0 
L 5113 0 
L 5113 2094 
Q 5113 2597 4934 2840 
Q 4756 3084 4391 3084 
Q 3944 3084 3684 2787 
Q 3425 2491 3425 1978 
L 3425 0 
L 2847 0 
L 2847 2094 
Q 2847 2600 2669 2842 
Q 2491 3084 2119 3084 
Q 1678 3084 1418 2786 
Q 1159 2488 1159 1978 
L 1159 0 
L 581 0 
L 581 3500 
L 1159 3500 
L 1159 2956 
Q 1356 3278 1631 3431 
Q 1906 3584 2284 3584 
Q 2666 3584 2933 3390 
Q 3200 3197 3328 2828 
z
" id="DejaVuSans-6d" transform="scale(0.015625)"/>
       <path d="M 2834 3397 
L 2834 2853 
Q 2591 2978 2328 3040 
Q 2066 3103 1784 3103 
Q 1356 3103 1142 2972 
Q 928 2841 928 2578 
Q 928 2378 1081 2264 
Q 1234 2150 1697 2047 
L 1894 2003 
Q 2506 1872 2764 1633 
Q 3022 1394 3022 966 
Q 3022 478 2636 193 
Q 2250 -91 1575 -91 
Q 1294 -91 989 -36 
Q 684 19 347 128 
L 347 722 
Q 666 556 975 473 
Q 1284 391 1588 391 
Q 1994 391 2212 530 
Q 2431 669 2431 922 
Q 2431 1156 2273 1281 
Q 2116 1406 1581 1522 
L 1381 1569 
Q 847 1681 609 1914 
Q 372 2147 372 2553 
Q 372 3047 722 3315 
Q 1072 3584 1716 3584 
Q 2034 3584 2315 3537 
Q 2597 3491 2834 3397 
z
" id="DejaVuSans-73" transform="scale(0.015625)"/>
       <path d="M 628 4666 
L 1569 4666 
L 2759 1491 
L 3956 4666 
L 4897 4666 
L 4897 0 
L 4281 0 
L 4281 4097 
L 3078 897 
L 2444 897 
L 1241 4097 
L 1241 0 
L 628 0 
L 628 4666 
z
" id="DejaVuSans-4d" transform="scale(0.015625)"/>
      </defs>
      <use xlink:href="#DejaVuSans-43"/>
      <use x="69.824219" xlink:href="#DejaVuSans-61"/>
      <use x="131.103516" xlink:href="#DejaVuSans-72"/>
      <use x="172.216797" xlink:href="#DejaVuSans-62"/>
      <use x="235.693359" xlink:href="#DejaVuSans-6f"/>
      <use x="296.875" xlink:href="#DejaVuSans-6e"/>
      <use x="360.253906" xlink:href="#DejaVuSans-20"/>
      <use x="392.041016" xlink:href="#DejaVuSans-45"/>
      <use x="455.224609" xlink:href="#DejaVuSans-71"/>
      <use x="518.701172" xlink:href="#DejaVuSans-75"/>
      <use x="582.080078" xlink:href="#DejaVuSans-69"/>
      <use x="609.863281" xlink:href="#DejaVuSans-76"/>
      <use x="669.042969" xlink:href="#DejaVuSans-61"/>
      <use x="730.322266" xlink:href="#DejaVuSans-6c"/>
      <use x="758.105469" xlink:href="#DejaVuSans-65"/>
      <use x="819.628906" xlink:href="#DejaVuSans-6e"/>
      <use x="883.007812" xlink:href="#DejaVuSans-74"/>
      <use x="922.216797" xlink:href="#DejaVuSans-20"/>
      <use x="954.003906" xlink:href="#DejaVuSans-45"/>
      <use x="1017.1875" xlink:href="#DejaVuSans-6d"/>
      <use x="1114.599609" xlink:href="#DejaVuSans-69"/>
      <use x="1142.382812" xlink:href="#DejaVuSans-73"/>
      <use x="1194.482422" xlink:href="#DejaVuSans-73"/>
      <use x="1246.582031" xlink:href="#DejaVuSans-69"/>
      <use x="1274.365234" xlink:href="#DejaVuSans-6f"/>
      <use x="1335.546875" xlink:href="#DejaVuSans-6e"/>
      <use x="1398.925781" xlink:href="#DejaVuSans-73"/>
      <use x="1451.025391" xlink:href="#DejaVuSans-20"/>
      <use x="1482.8125" xlink:href="#DejaVuSans-28"/>
      <use x="1521.826172" xlink:href="#DejaVuSans-4d"/>
      <use x="1608.105469" xlink:href="#DejaVuSans-74"/>
      <use x="1647.314453" xlink:href="#DejaVuSans-29"/>
     </g>
    </g>
   </g>
   <g id="patch_3">
    <path d="M 72 768.96 
L 72 103.68 
" style="fill:none;stroke:#000000;stroke-linecap:square;stroke-linejoin:miter;stroke-width:0.8;"/>
   </g>
   <g id="patch_4">
    <path d="M 518.4 768.96 
L 518.4 103.68 
" style="fill:none;stroke:#000000;stroke-linecap:square;stroke-linejoin:miter;stroke-width:0.8;"/>
   </g>
   <g id="patch_5">
    <path d="M 72 768.96 
L 518.4 768.96 
" style="fill:none;stroke:#000000;stroke-linecap:square;stroke-linejoin:miter;stroke-width:0.8;"/>
   </g>
   <g id="patch_6">
    <path d="M 72 103.68 
L 518.4 103.68 
" style="fill:none;stroke:#000000;stroke-linecap:square;stroke-linejoin:miter;stroke-width:0.8;"/>
   </g>
  </g>
 </g>
 <defs>
  <clipPath id="pc6b6ad40b9">
   <rect height="665.28" width="446.4" x="72" y="103.68"/>
  </clipPath>
 </defs>
</svg>
