<?xml version="1.0" encoding="utf-8" standalone="no"?>
<!DOCTYPE svg PUBLIC "-//W3C//DTD SVG 1.1//EN"
  "http://www.w3.org/Graphics/SVG/1.1/DTD/svg11.dtd">
<svg height="864pt" version="1.1" viewBox="0 0 576 864" width="576pt" xmlns="http://www.w3.org/2000/svg" xmlns:xlink="http://www.w3.org/1999/xlink">
 <metadata>
  <rdf:RDF xmlns:cc="http://creativecommons.org/ns#" xmlns:dc="http://purl.org/dc/elements/1.1/" xmlns:rdf="http://www.w3.org/1999/02/22-rdf-syntax-ns#">
   <cc:Work>
    <dc:type rdf:resource="http://purl.org/dc/dcmitype/StillImage"/>
    <dc:date>2021-06-15T16:19:24.704139</dc:date>
    <dc:format>image/svg+xml</dc:format>
    <dc:creator>
     <cc:Agent>
      <dc:title>Matplotlib v3.4.1, https://matplotlib.org/</dc:title>
     </cc:Agent>
    </dc:creator>
   </cc:Work>
  </rdf:RDF>
 </metadata>
 <defs>
  <style type="text/css">*{stroke-linecap:butt;stroke-linejoin:round;}</style>
 </defs>
 <g id="figure_1">
  <g id="patch_1">
   <path d="M 0 864 
L 576 864 
L 576 0 
L 0 0 
z
" style="fill:#ffffff;"/>
  </g>
  <g id="axes_1">
   <g id="patch_2">
    <path d="M 72 768.96 
L 518.4 768.96 
L 518.4 103.68 
L 72 103.68 
z
" style="fill:#ffffff;"/>
   </g>
   <g id="PolyCollection_1">
    <path clip-path="url(#p6616814ba5)" d="M 92.290909 275.040474 
L 92.290909 768.96 
L 96.390083 768.96 
L 100.489256 768.96 
L 104.58843 768.96 
L 108.687603 768.96 
L 112.786777 768.96 
L 116.88595 768.96 
L 120.985124 768.96 
L 125.084298 768.96 
L 129.183471 768.96 
L 133.282645 768.96 
L 137.381818 768.96 
L 141.480992 768.96 
L 145.580165 768.96 
L 149.679339 768.96 
L 153.778512 768.96 
L 157.877686 768.96 
L 161.97686 768.96 
L 166.076033 768.96 
L 170.175207 768.96 
L 174.27438 768.96 
L 178.373554 768.96 
L 182.472727 768.96 
L 186.571901 768.96 
L 190.671074 768.96 
L 194.770248 768.96 
L 198.869421 768.96 
L 202.968595 768.96 
L 207.067769 768.96 
L 211.166942 768.96 
L 215.266116 768.96 
L 219.365289 768.96 
L 223.464463 768.96 
L 227.563636 768.96 
L 231.66281 768.96 
L 235.761983 768.96 
L 239.861157 768.96 
L 243.960331 768.96 
L 248.059504 768.96 
L 252.158678 768.96 
L 256.257851 768.96 
L 260.357025 768.96 
L 264.456198 768.96 
L 268.555372 768.96 
L 272.654545 768.96 
L 276.753719 768.96 
L 280.852893 768.96 
L 284.952066 768.96 
L 289.05124 768.96 
L 293.150413 768.96 
L 297.249587 768.96 
L 301.34876 768.96 
L 305.447934 768.96 
L 309.547107 768.96 
L 313.646281 768.96 
L 317.745455 768.96 
L 321.844628 768.96 
L 325.943802 768.96 
L 330.042975 768.96 
L 334.142149 768.96 
L 338.241322 768.96 
L 342.340496 768.96 
L 346.439669 768.96 
L 350.538843 768.96 
L 354.638017 768.96 
L 358.73719 768.96 
L 362.836364 768.96 
L 366.935537 768.96 
L 371.034711 768.96 
L 375.133884 768.96 
L 379.233058 768.96 
L 383.332231 768.96 
L 387.431405 768.96 
L 391.530579 768.96 
L 395.629752 768.96 
L 399.728926 768.96 
L 403.828099 768.96 
L 407.927273 768.96 
L 412.026446 768.96 
L 416.12562 768.96 
L 420.224793 768.96 
L 424.323967 768.96 
L 428.42314 768.96 
L 432.522314 768.96 
L 436.621488 768.96 
L 440.720661 768.96 
L 444.819835 768.96 
L 448.919008 768.96 
L 453.018182 768.96 
L 457.117355 768.96 
L 461.216529 768.96 
L 465.315702 768.96 
L 469.414876 768.96 
L 473.51405 768.96 
L 477.613223 768.96 
L 481.712397 768.96 
L 485.81157 768.96 
L 489.910744 768.96 
L 494.009917 768.96 
L 498.109091 768.96 
L 498.109091 289.099151 
L 498.109091 289.099151 
L 494.009917 288.957144 
L 489.910744 288.815137 
L 485.81157 288.673131 
L 481.712397 288.531124 
L 477.613223 288.389117 
L 473.51405 288.24711 
L 469.414876 288.105103 
L 465.315702 287.963096 
L 461.216529 287.821089 
L 457.117355 287.679083 
L 453.018182 287.537076 
L 448.919008 287.395069 
L 444.819835 287.253062 
L 440.720661 287.111055 
L 436.621488 286.969048 
L 432.522314 286.827042 
L 428.42314 286.685035 
L 424.323967 286.543028 
L 420.224793 286.401021 
L 416.12562 286.259014 
L 412.026446 286.117007 
L 407.927273 285.975001 
L 403.828099 285.832994 
L 399.728926 285.690987 
L 395.629752 285.54898 
L 391.530579 285.406973 
L 387.431405 285.264966 
L 383.332231 285.12296 
L 379.233058 284.980953 
L 375.133884 284.838946 
L 371.034711 284.696939 
L 366.935537 284.554932 
L 362.836364 284.412925 
L 358.73719 284.270918 
L 354.638017 284.128912 
L 350.538843 283.986905 
L 346.439669 283.844898 
L 342.340496 283.702891 
L 338.241322 283.560884 
L 334.142149 283.418877 
L 330.042975 283.276871 
L 325.943802 283.134864 
L 321.844628 282.992857 
L 317.745455 282.85085 
L 313.646281 282.708843 
L 309.547107 282.566836 
L 305.447934 282.42483 
L 301.34876 282.282823 
L 297.249587 282.140816 
L 293.150413 281.998809 
L 289.05124 281.856802 
L 284.952066 281.714795 
L 280.852893 281.572788 
L 276.753719 281.430782 
L 272.654545 281.288775 
L 268.555372 281.146768 
L 264.456198 281.004761 
L 260.357025 280.862754 
L 256.257851 280.720747 
L 252.158678 280.578741 
L 248.059504 280.436734 
L 243.960331 280.294727 
L 239.861157 280.15272 
L 235.761983 280.010713 
L 231.66281 279.868706 
L 227.563636 279.7267 
L 223.464463 279.584693 
L 219.365289 279.442686 
L 215.266116 279.300679 
L 211.166942 279.158672 
L 207.067769 279.016665 
L 202.968595 278.874658 
L 198.869421 278.732652 
L 194.770248 278.590645 
L 190.671074 278.448638 
L 186.571901 278.306631 
L 182.472727 278.164624 
L 178.373554 278.022617 
L 174.27438 277.880611 
L 170.175207 277.738604 
L 166.076033 277.596597 
L 161.97686 277.45459 
L 157.877686 277.312583 
L 153.778512 277.170576 
L 149.679339 277.02857 
L 145.580165 276.886563 
L 141.480992 276.744556 
L 137.381818 276.602549 
L 133.282645 276.460542 
L 129.183471 276.318535 
L 125.084298 276.176528 
L 120.985124 276.034522 
L 116.88595 275.892515 
L 112.786777 275.750508 
L 108.687603 275.608501 
L 104.58843 275.466494 
L 100.489256 275.324487 
L 96.390083 275.182481 
L 92.290909 275.040474 
z
" style="fill:#3182bd;"/>
   </g>
   <g id="PolyCollection_2">
    <path clip-path="url(#p6616814ba5)" d="M 92.290909 156.025114 
L 92.290909 275.040474 
L 96.390083 275.182481 
L 100.489256 275.324487 
L 104.58843 275.466494 
L 108.687603 275.608501 
L 112.786777 275.750508 
L 116.88595 275.892515 
L 120.985124 276.034522 
L 125.084298 276.176528 
L 129.183471 276.318535 
L 133.282645 276.460542 
L 137.381818 276.602549 
L 141.480992 276.744556 
L 145.580165 276.886563 
L 149.679339 277.02857 
L 153.778512 277.170576 
L 157.877686 277.312583 
L 161.97686 277.45459 
L 166.076033 277.596597 
L 170.175207 277.738604 
L 174.27438 277.880611 
L 178.373554 278.022617 
L 182.472727 278.164624 
L 186.571901 278.306631 
L 190.671074 278.448638 
L 194.770248 278.590645 
L 198.869421 278.732652 
L 202.968595 278.874658 
L 207.067769 279.016665 
L 211.166942 279.158672 
L 215.266116 279.300679 
L 219.365289 279.442686 
L 223.464463 279.584693 
L 227.563636 279.7267 
L 231.66281 279.868706 
L 235.761983 280.010713 
L 239.861157 280.15272 
L 243.960331 280.294727 
L 248.059504 280.436734 
L 252.158678 280.578741 
L 256.257851 280.720747 
L 260.357025 280.862754 
L 264.456198 281.004761 
L 268.555372 281.146768 
L 272.654545 281.288775 
L 276.753719 281.430782 
L 280.852893 281.572788 
L 284.952066 281.714795 
L 289.05124 281.856802 
L 293.150413 281.998809 
L 297.249587 282.140816 
L 301.34876 282.282823 
L 305.447934 282.42483 
L 309.547107 282.566836 
L 313.646281 282.708843 
L 317.745455 282.85085 
L 321.844628 282.992857 
L 325.943802 283.134864 
L 330.042975 283.276871 
L 334.142149 283.418877 
L 338.241322 283.560884 
L 342.340496 283.702891 
L 346.439669 283.844898 
L 350.538843 283.986905 
L 354.638017 284.128912 
L 358.73719 284.270918 
L 362.836364 284.412925 
L 366.935537 284.554932 
L 371.034711 284.696939 
L 375.133884 284.838946 
L 379.233058 284.980953 
L 383.332231 285.12296 
L 387.431405 285.264966 
L 391.530579 285.406973 
L 395.629752 285.54898 
L 399.728926 285.690987 
L 403.828099 285.832994 
L 407.927273 285.975001 
L 412.026446 286.117007 
L 416.12562 286.259014 
L 420.224793 286.401021 
L 424.323967 286.543028 
L 428.42314 286.685035 
L 432.522314 286.827042 
L 436.621488 286.969048 
L 440.720661 287.111055 
L 444.819835 287.253062 
L 448.919008 287.395069 
L 453.018182 287.537076 
L 457.117355 287.679083 
L 461.216529 287.821089 
L 465.315702 287.963096 
L 469.414876 288.105103 
L 473.51405 288.24711 
L 477.613223 288.389117 
L 481.712397 288.531124 
L 485.81157 288.673131 
L 489.910744 288.815137 
L 494.009917 288.957144 
L 498.109091 289.099151 
L 498.109091 170.083792 
L 498.109091 170.083792 
L 494.009917 169.941785 
L 489.910744 169.799778 
L 485.81157 169.657771 
L 481.712397 169.515764 
L 477.613223 169.373758 
L 473.51405 169.231751 
L 469.414876 169.089744 
L 465.315702 168.947737 
L 461.216529 168.80573 
L 457.117355 168.663723 
L 453.018182 168.521717 
L 448.919008 168.37971 
L 444.819835 168.237703 
L 440.720661 168.095696 
L 436.621488 167.953689 
L 432.522314 167.811682 
L 428.42314 167.669675 
L 424.323967 167.527669 
L 420.224793 167.385662 
L 416.12562 167.243655 
L 412.026446 167.101648 
L 407.927273 166.959641 
L 403.828099 166.817634 
L 399.728926 166.675628 
L 395.629752 166.533621 
L 391.530579 166.391614 
L 387.431405 166.249607 
L 383.332231 166.1076 
L 379.233058 165.965593 
L 375.133884 165.823587 
L 371.034711 165.68158 
L 366.935537 165.539573 
L 362.836364 165.397566 
L 358.73719 165.255559 
L 354.638017 165.113552 
L 350.538843 164.971545 
L 346.439669 164.829539 
L 342.340496 164.687532 
L 338.241322 164.545525 
L 334.142149 164.403518 
L 330.042975 164.261511 
L 325.943802 164.119504 
L 321.844628 163.977498 
L 317.745455 163.835491 
L 313.646281 163.693484 
L 309.547107 163.551477 
L 305.447934 163.40947 
L 301.34876 163.267463 
L 297.249587 163.125457 
L 293.150413 162.98345 
L 289.05124 162.841443 
L 284.952066 162.699436 
L 280.852893 162.557429 
L 276.753719 162.415422 
L 272.654545 162.273415 
L 268.555372 162.131409 
L 264.456198 161.989402 
L 260.357025 161.847395 
L 256.257851 161.705388 
L 252.158678 161.563381 
L 248.059504 161.421374 
L 243.960331 161.279368 
L 239.861157 161.137361 
L 235.761983 160.995354 
L 231.66281 160.853347 
L 227.563636 160.71134 
L 223.464463 160.569333 
L 219.365289 160.427327 
L 215.266116 160.28532 
L 211.166942 160.143313 
L 207.067769 160.001306 
L 202.968595 159.859299 
L 198.869421 159.717292 
L 194.770248 159.575286 
L 190.671074 159.433279 
L 186.571901 159.291272 
L 182.472727 159.149265 
L 178.373554 159.007258 
L 174.27438 158.865251 
L 170.175207 158.723244 
L 166.076033 158.581238 
L 161.97686 158.439231 
L 157.877686 158.297224 
L 153.778512 158.155217 
L 149.679339 158.01321 
L 145.580165 157.871203 
L 141.480992 157.729197 
L 137.381818 157.58719 
L 133.282645 157.445183 
L 129.183471 157.303176 
L 125.084298 157.161169 
L 120.985124 157.019162 
L 116.88595 156.877156 
L 112.786777 156.735149 
L 108.687603 156.593142 
L 104.58843 156.451135 
L 100.489256 156.309128 
L 96.390083 156.167121 
L 92.290909 156.025114 
z
" style="fill:#6baed6;"/>
   </g>
   <g id="PolyCollection_3">
    <path clip-path="url(#p6616814ba5)" d="M 92.290909 155.777989 
L 92.290909 156.025114 
L 96.390083 156.167121 
L 100.489256 156.309128 
L 104.58843 156.451135 
L 108.687603 156.593142 
L 112.786777 156.735149 
L 116.88595 156.877156 
L 120.985124 157.019162 
L 125.084298 157.161169 
L 129.183471 157.303176 
L 133.282645 157.445183 
L 137.381818 157.58719 
L 141.480992 157.729197 
L 145.580165 157.871203 
L 149.679339 158.01321 
L 153.778512 158.155217 
L 157.877686 158.297224 
L 161.97686 158.439231 
L 166.076033 158.581238 
L 170.175207 158.723244 
L 174.27438 158.865251 
L 178.373554 159.007258 
L 182.472727 159.149265 
L 186.571901 159.291272 
L 190.671074 159.433279 
L 194.770248 159.575286 
L 198.869421 159.717292 
L 202.968595 159.859299 
L 207.067769 160.001306 
L 211.166942 160.143313 
L 215.266116 160.28532 
L 219.365289 160.427327 
L 223.464463 160.569333 
L 227.563636 160.71134 
L 231.66281 160.853347 
L 235.761983 160.995354 
L 239.861157 161.137361 
L 243.960331 161.279368 
L 248.059504 161.421374 
L 252.158678 161.563381 
L 256.257851 161.705388 
L 260.357025 161.847395 
L 264.456198 161.989402 
L 268.555372 162.131409 
L 272.654545 162.273415 
L 276.753719 162.415422 
L 280.852893 162.557429 
L 284.952066 162.699436 
L 289.05124 162.841443 
L 293.150413 162.98345 
L 297.249587 163.125457 
L 301.34876 163.267463 
L 305.447934 163.40947 
L 309.547107 163.551477 
L 313.646281 163.693484 
L 317.745455 163.835491 
L 321.844628 163.977498 
L 325.943802 164.119504 
L 330.042975 164.261511 
L 334.142149 164.403518 
L 338.241322 164.545525 
L 342.340496 164.687532 
L 346.439669 164.829539 
L 350.538843 164.971545 
L 354.638017 165.113552 
L 358.73719 165.255559 
L 362.836364 165.397566 
L 366.935537 165.539573 
L 371.034711 165.68158 
L 375.133884 165.823587 
L 379.233058 165.965593 
L 383.332231 166.1076 
L 387.431405 166.249607 
L 391.530579 166.391614 
L 395.629752 166.533621 
L 399.728926 166.675628 
L 403.828099 166.817634 
L 407.927273 166.959641 
L 412.026446 167.101648 
L 416.12562 167.243655 
L 420.224793 167.385662 
L 424.323967 167.527669 
L 428.42314 167.669675 
L 432.522314 167.811682 
L 436.621488 167.953689 
L 440.720661 168.095696 
L 444.819835 168.237703 
L 448.919008 168.37971 
L 453.018182 168.521717 
L 457.117355 168.663723 
L 461.216529 168.80573 
L 465.315702 168.947737 
L 469.414876 169.089744 
L 473.51405 169.231751 
L 477.613223 169.373758 
L 481.712397 169.515764 
L 485.81157 169.657771 
L 489.910744 169.799778 
L 494.009917 169.941785 
L 498.109091 170.083792 
L 498.109091 169.836666 
L 498.109091 169.836666 
L 494.009917 169.694659 
L 489.910744 169.552653 
L 485.81157 169.410646 
L 481.712397 169.268639 
L 477.613223 169.126632 
L 473.51405 168.984625 
L 469.414876 168.842618 
L 465.315702 168.700612 
L 461.216529 168.558605 
L 457.117355 168.416598 
L 453.018182 168.274591 
L 448.919008 168.132584 
L 444.819835 167.990577 
L 440.720661 167.848571 
L 436.621488 167.706564 
L 432.522314 167.564557 
L 428.42314 167.42255 
L 424.323967 167.280543 
L 420.224793 167.138536 
L 416.12562 166.996529 
L 412.026446 166.854523 
L 407.927273 166.712516 
L 403.828099 166.570509 
L 399.728926 166.428502 
L 395.629752 166.286495 
L 391.530579 166.144488 
L 387.431405 166.002482 
L 383.332231 165.860475 
L 379.233058 165.718468 
L 375.133884 165.576461 
L 371.034711 165.434454 
L 366.935537 165.292447 
L 362.836364 165.150441 
L 358.73719 165.008434 
L 354.638017 164.866427 
L 350.538843 164.72442 
L 346.439669 164.582413 
L 342.340496 164.440406 
L 338.241322 164.298399 
L 334.142149 164.156393 
L 330.042975 164.014386 
L 325.943802 163.872379 
L 321.844628 163.730372 
L 317.745455 163.588365 
L 313.646281 163.446358 
L 309.547107 163.304352 
L 305.447934 163.162345 
L 301.34876 163.020338 
L 297.249587 162.878331 
L 293.150413 162.736324 
L 289.05124 162.594317 
L 284.952066 162.452311 
L 280.852893 162.310304 
L 276.753719 162.168297 
L 272.654545 162.02629 
L 268.555372 161.884283 
L 264.456198 161.742276 
L 260.357025 161.60027 
L 256.257851 161.458263 
L 252.158678 161.316256 
L 248.059504 161.174249 
L 243.960331 161.032242 
L 239.861157 160.890235 
L 235.761983 160.748228 
L 231.66281 160.606222 
L 227.563636 160.464215 
L 223.464463 160.322208 
L 219.365289 160.180201 
L 215.266116 160.038194 
L 211.166942 159.896187 
L 207.067769 159.754181 
L 202.968595 159.612174 
L 198.869421 159.470167 
L 194.770248 159.32816 
L 190.671074 159.186153 
L 186.571901 159.044146 
L 182.472727 158.90214 
L 178.373554 158.760133 
L 174.27438 158.618126 
L 170.175207 158.476119 
L 166.076033 158.334112 
L 161.97686 158.192105 
L 157.877686 158.050098 
L 153.778512 157.908092 
L 149.679339 157.766085 
L 145.580165 157.624078 
L 141.480992 157.482071 
L 137.381818 157.340064 
L 133.282645 157.198057 
L 129.183471 157.056051 
L 125.084298 156.914044 
L 120.985124 156.772037 
L 116.88595 156.63003 
L 112.786777 156.488023 
L 108.687603 156.346016 
L 104.58843 156.20401 
L 100.489256 156.062003 
L 96.390083 155.919996 
L 92.290909 155.777989 
z
" style="fill:#9ecae1;"/>
   </g>
   <g id="PolyCollection_4">
    <path clip-path="url(#p6616814ba5)" d="M 92.290909 155.520092 
L 92.290909 155.777989 
L 96.390083 155.919996 
L 100.489256 156.062003 
L 104.58843 156.20401 
L 108.687603 156.346016 
L 112.786777 156.488023 
L 116.88595 156.63003 
L 120.985124 156.772037 
L 125.084298 156.914044 
L 129.183471 157.056051 
L 133.282645 157.198057 
L 137.381818 157.340064 
L 141.480992 157.482071 
L 145.580165 157.624078 
L 149.679339 157.766085 
L 153.778512 157.908092 
L 157.877686 158.050098 
L 161.97686 158.192105 
L 166.076033 158.334112 
L 170.175207 158.476119 
L 174.27438 158.618126 
L 178.373554 158.760133 
L 182.472727 158.90214 
L 186.571901 159.044146 
L 190.671074 159.186153 
L 194.770248 159.32816 
L 198.869421 159.470167 
L 202.968595 159.612174 
L 207.067769 159.754181 
L 211.166942 159.896187 
L 215.266116 160.038194 
L 219.365289 160.180201 
L 223.464463 160.322208 
L 227.563636 160.464215 
L 231.66281 160.606222 
L 235.761983 160.748228 
L 239.861157 160.890235 
L 243.960331 161.032242 
L 248.059504 161.174249 
L 252.158678 161.316256 
L 256.257851 161.458263 
L 260.357025 161.60027 
L 264.456198 161.742276 
L 268.555372 161.884283 
L 272.654545 162.02629 
L 276.753719 162.168297 
L 280.852893 162.310304 
L 284.952066 162.452311 
L 289.05124 162.594317 
L 293.150413 162.736324 
L 297.249587 162.878331 
L 301.34876 163.020338 
L 305.447934 163.162345 
L 309.547107 163.304352 
L 313.646281 163.446358 
L 317.745455 163.588365 
L 321.844628 163.730372 
L 325.943802 163.872379 
L 330.042975 164.014386 
L 334.142149 164.156393 
L 338.241322 164.298399 
L 342.340496 164.440406 
L 346.439669 164.582413 
L 350.538843 164.72442 
L 354.638017 164.866427 
L 358.73719 165.008434 
L 362.836364 165.150441 
L 366.935537 165.292447 
L 371.034711 165.434454 
L 375.133884 165.576461 
L 379.233058 165.718468 
L 383.332231 165.860475 
L 387.431405 166.002482 
L 391.530579 166.144488 
L 395.629752 166.286495 
L 399.728926 166.428502 
L 403.828099 166.570509 
L 407.927273 166.712516 
L 412.026446 166.854523 
L 416.12562 166.996529 
L 420.224793 167.138536 
L 424.323967 167.280543 
L 428.42314 167.42255 
L 432.522314 167.564557 
L 436.621488 167.706564 
L 440.720661 167.848571 
L 444.819835 167.990577 
L 448.919008 168.132584 
L 453.018182 168.274591 
L 457.117355 168.416598 
L 461.216529 168.558605 
L 465.315702 168.700612 
L 469.414876 168.842618 
L 473.51405 168.984625 
L 477.613223 169.126632 
L 481.712397 169.268639 
L 485.81157 169.410646 
L 489.910744 169.552653 
L 494.009917 169.694659 
L 498.109091 169.836666 
L 498.109091 169.578769 
L 498.109091 169.578769 
L 494.009917 169.436763 
L 489.910744 169.294756 
L 485.81157 169.152749 
L 481.712397 169.010742 
L 477.613223 168.868735 
L 473.51405 168.726728 
L 469.414876 168.584722 
L 465.315702 168.442715 
L 461.216529 168.300708 
L 457.117355 168.158701 
L 453.018182 168.016694 
L 448.919008 167.874687 
L 444.819835 167.73268 
L 440.720661 167.590674 
L 436.621488 167.448667 
L 432.522314 167.30666 
L 428.42314 167.164653 
L 424.323967 167.022646 
L 420.224793 166.880639 
L 416.12562 166.738633 
L 412.026446 166.596626 
L 407.927273 166.454619 
L 403.828099 166.312612 
L 399.728926 166.170605 
L 395.629752 166.028598 
L 391.530579 165.886592 
L 387.431405 165.744585 
L 383.332231 165.602578 
L 379.233058 165.460571 
L 375.133884 165.318564 
L 371.034711 165.176557 
L 366.935537 165.03455 
L 362.836364 164.892544 
L 358.73719 164.750537 
L 354.638017 164.60853 
L 350.538843 164.466523 
L 346.439669 164.324516 
L 342.340496 164.182509 
L 338.241322 164.040503 
L 334.142149 163.898496 
L 330.042975 163.756489 
L 325.943802 163.614482 
L 321.844628 163.472475 
L 317.745455 163.330468 
L 313.646281 163.188462 
L 309.547107 163.046455 
L 305.447934 162.904448 
L 301.34876 162.762441 
L 297.249587 162.620434 
L 293.150413 162.478427 
L 289.05124 162.33642 
L 284.952066 162.194414 
L 280.852893 162.052407 
L 276.753719 161.9104 
L 272.654545 161.768393 
L 268.555372 161.626386 
L 264.456198 161.484379 
L 260.357025 161.342373 
L 256.257851 161.200366 
L 252.158678 161.058359 
L 248.059504 160.916352 
L 243.960331 160.774345 
L 239.861157 160.632338 
L 235.761983 160.490332 
L 231.66281 160.348325 
L 227.563636 160.206318 
L 223.464463 160.064311 
L 219.365289 159.922304 
L 215.266116 159.780297 
L 211.166942 159.63829 
L 207.067769 159.496284 
L 202.968595 159.354277 
L 198.869421 159.21227 
L 194.770248 159.070263 
L 190.671074 158.928256 
L 186.571901 158.786249 
L 182.472727 158.644243 
L 178.373554 158.502236 
L 174.27438 158.360229 
L 170.175207 158.218222 
L 166.076033 158.076215 
L 161.97686 157.934208 
L 157.877686 157.792202 
L 153.778512 157.650195 
L 149.679339 157.508188 
L 145.580165 157.366181 
L 141.480992 157.224174 
L 137.381818 157.082167 
L 133.282645 156.94016 
L 129.183471 156.798154 
L 125.084298 156.656147 
L 120.985124 156.51414 
L 116.88595 156.372133 
L 112.786777 156.230126 
L 108.687603 156.088119 
L 104.58843 155.946113 
L 100.489256 155.804106 
L 96.390083 155.662099 
L 92.290909 155.520092 
z
" style="fill:#c6dbef;"/>
   </g>
   <g id="PolyCollection_5">
    <path clip-path="url(#p6616814ba5)" d="M 92.290909 154.399831 
L 92.290909 155.520092 
L 96.390083 155.662099 
L 100.489256 155.804106 
L 104.58843 155.946113 
L 108.687603 156.088119 
L 112.786777 156.230126 
L 116.88595 156.372133 
L 120.985124 156.51414 
L 125.084298 156.656147 
L 129.183471 156.798154 
L 133.282645 156.94016 
L 137.381818 157.082167 
L 141.480992 157.224174 
L 145.580165 157.366181 
L 149.679339 157.508188 
L 153.778512 157.650195 
L 157.877686 157.792202 
L 161.97686 157.934208 
L 166.076033 158.076215 
L 170.175207 158.218222 
L 174.27438 158.360229 
L 178.373554 158.502236 
L 182.472727 158.644243 
L 186.571901 158.786249 
L 190.671074 158.928256 
L 194.770248 159.070263 
L 198.869421 159.21227 
L 202.968595 159.354277 
L 207.067769 159.496284 
L 211.166942 159.63829 
L 215.266116 159.780297 
L 219.365289 159.922304 
L 223.464463 160.064311 
L 227.563636 160.206318 
L 231.66281 160.348325 
L 235.761983 160.490332 
L 239.861157 160.632338 
L 243.960331 160.774345 
L 248.059504 160.916352 
L 252.158678 161.058359 
L 256.257851 161.200366 
L 260.357025 161.342373 
L 264.456198 161.484379 
L 268.555372 161.626386 
L 272.654545 161.768393 
L 276.753719 161.9104 
L 280.852893 162.052407 
L 284.952066 162.194414 
L 289.05124 162.33642 
L 293.150413 162.478427 
L 297.249587 162.620434 
L 301.34876 162.762441 
L 305.447934 162.904448 
L 309.547107 163.046455 
L 313.646281 163.188462 
L 317.745455 163.330468 
L 321.844628 163.472475 
L 325.943802 163.614482 
L 330.042975 163.756489 
L 334.142149 163.898496 
L 338.241322 164.040503 
L 342.340496 164.182509 
L 346.439669 164.324516 
L 350.538843 164.466523 
L 354.638017 164.60853 
L 358.73719 164.750537 
L 362.836364 164.892544 
L 366.935537 165.03455 
L 371.034711 165.176557 
L 375.133884 165.318564 
L 379.233058 165.460571 
L 383.332231 165.602578 
L 387.431405 165.744585 
L 391.530579 165.886592 
L 395.629752 166.028598 
L 399.728926 166.170605 
L 403.828099 166.312612 
L 407.927273 166.454619 
L 412.026446 166.596626 
L 416.12562 166.738633 
L 420.224793 166.880639 
L 424.323967 167.022646 
L 428.42314 167.164653 
L 432.522314 167.30666 
L 436.621488 167.448667 
L 440.720661 167.590674 
L 444.819835 167.73268 
L 448.919008 167.874687 
L 453.018182 168.016694 
L 457.117355 168.158701 
L 461.216529 168.300708 
L 465.315702 168.442715 
L 469.414876 168.584722 
L 473.51405 168.726728 
L 477.613223 168.868735 
L 481.712397 169.010742 
L 485.81157 169.152749 
L 489.910744 169.294756 
L 494.009917 169.436763 
L 498.109091 169.578769 
L 498.109091 168.458508 
L 498.109091 168.458508 
L 494.009917 168.316501 
L 489.910744 168.174494 
L 485.81157 168.032487 
L 481.712397 167.890481 
L 477.613223 167.748474 
L 473.51405 167.606467 
L 469.414876 167.46446 
L 465.315702 167.322453 
L 461.216529 167.180446 
L 457.117355 167.03844 
L 453.018182 166.896433 
L 448.919008 166.754426 
L 444.819835 166.612419 
L 440.720661 166.470412 
L 436.621488 166.328405 
L 432.522314 166.186399 
L 428.42314 166.044392 
L 424.323967 165.902385 
L 420.224793 165.760378 
L 416.12562 165.618371 
L 412.026446 165.476364 
L 407.927273 165.334357 
L 403.828099 165.192351 
L 399.728926 165.050344 
L 395.629752 164.908337 
L 391.530579 164.76633 
L 387.431405 164.624323 
L 383.332231 164.482316 
L 379.233058 164.34031 
L 375.133884 164.198303 
L 371.034711 164.056296 
L 366.935537 163.914289 
L 362.836364 163.772282 
L 358.73719 163.630275 
L 354.638017 163.488269 
L 350.538843 163.346262 
L 346.439669 163.204255 
L 342.340496 163.062248 
L 338.241322 162.920241 
L 334.142149 162.778234 
L 330.042975 162.636227 
L 325.943802 162.494221 
L 321.844628 162.352214 
L 317.745455 162.210207 
L 313.646281 162.0682 
L 309.547107 161.926193 
L 305.447934 161.784186 
L 301.34876 161.64218 
L 297.249587 161.500173 
L 293.150413 161.358166 
L 289.05124 161.216159 
L 284.952066 161.074152 
L 280.852893 160.932145 
L 276.753719 160.790139 
L 272.654545 160.648132 
L 268.555372 160.506125 
L 264.456198 160.364118 
L 260.357025 160.222111 
L 256.257851 160.080104 
L 252.158678 159.938097 
L 248.059504 159.796091 
L 243.960331 159.654084 
L 239.861157 159.512077 
L 235.761983 159.37007 
L 231.66281 159.228063 
L 227.563636 159.086056 
L 223.464463 158.94405 
L 219.365289 158.802043 
L 215.266116 158.660036 
L 211.166942 158.518029 
L 207.067769 158.376022 
L 202.968595 158.234015 
L 198.869421 158.092009 
L 194.770248 157.950002 
L 190.671074 157.807995 
L 186.571901 157.665988 
L 182.472727 157.523981 
L 178.373554 157.381974 
L 174.27438 157.239967 
L 170.175207 157.097961 
L 166.076033 156.955954 
L 161.97686 156.813947 
L 157.877686 156.67194 
L 153.778512 156.529933 
L 149.679339 156.387926 
L 145.580165 156.24592 
L 141.480992 156.103913 
L 137.381818 155.961906 
L 133.282645 155.819899 
L 129.183471 155.677892 
L 125.084298 155.535885 
L 120.985124 155.393879 
L 116.88595 155.251872 
L 112.786777 155.109865 
L 108.687603 154.967858 
L 104.58843 154.825851 
L 100.489256 154.683844 
L 96.390083 154.541838 
L 92.290909 154.399831 
z
" style="fill:#e6550d;"/>
   </g>
   <g id="PolyCollection_6">
    <path clip-path="url(#p6616814ba5)" d="M 92.290909 152.494341 
L 92.290909 154.399831 
L 96.390083 154.541838 
L 100.489256 154.683844 
L 104.58843 154.825851 
L 108.687603 154.967858 
L 112.786777 155.109865 
L 116.88595 155.251872 
L 120.985124 155.393879 
L 125.084298 155.535885 
L 129.183471 155.677892 
L 133.282645 155.819899 
L 137.381818 155.961906 
L 141.480992 156.103913 
L 145.580165 156.24592 
L 149.679339 156.387926 
L 153.778512 156.529933 
L 157.877686 156.67194 
L 161.97686 156.813947 
L 166.076033 156.955954 
L 170.175207 157.097961 
L 174.27438 157.239967 
L 178.373554 157.381974 
L 182.472727 157.523981 
L 186.571901 157.665988 
L 190.671074 157.807995 
L 194.770248 157.950002 
L 198.869421 158.092009 
L 202.968595 158.234015 
L 207.067769 158.376022 
L 211.166942 158.518029 
L 215.266116 158.660036 
L 219.365289 158.802043 
L 223.464463 158.94405 
L 227.563636 159.086056 
L 231.66281 159.228063 
L 235.761983 159.37007 
L 239.861157 159.512077 
L 243.960331 159.654084 
L 248.059504 159.796091 
L 252.158678 159.938097 
L 256.257851 160.080104 
L 260.357025 160.222111 
L 264.456198 160.364118 
L 268.555372 160.506125 
L 272.654545 160.648132 
L 276.753719 160.790139 
L 280.852893 160.932145 
L 284.952066 161.074152 
L 289.05124 161.216159 
L 293.150413 161.358166 
L 297.249587 161.500173 
L 301.34876 161.64218 
L 305.447934 161.784186 
L 309.547107 161.926193 
L 313.646281 162.0682 
L 317.745455 162.210207 
L 321.844628 162.352214 
L 325.943802 162.494221 
L 330.042975 162.636227 
L 334.142149 162.778234 
L 338.241322 162.920241 
L 342.340496 163.062248 
L 346.439669 163.204255 
L 350.538843 163.346262 
L 354.638017 163.488269 
L 358.73719 163.630275 
L 362.836364 163.772282 
L 366.935537 163.914289 
L 371.034711 164.056296 
L 375.133884 164.198303 
L 379.233058 164.34031 
L 383.332231 164.482316 
L 387.431405 164.624323 
L 391.530579 164.76633 
L 395.629752 164.908337 
L 399.728926 165.050344 
L 403.828099 165.192351 
L 407.927273 165.334357 
L 412.026446 165.476364 
L 416.12562 165.618371 
L 420.224793 165.760378 
L 424.323967 165.902385 
L 428.42314 166.044392 
L 432.522314 166.186399 
L 436.621488 166.328405 
L 440.720661 166.470412 
L 444.819835 166.612419 
L 448.919008 166.754426 
L 453.018182 166.896433 
L 457.117355 167.03844 
L 461.216529 167.180446 
L 465.315702 167.322453 
L 469.414876 167.46446 
L 473.51405 167.606467 
L 477.613223 167.748474 
L 481.712397 167.890481 
L 485.81157 168.032487 
L 489.910744 168.174494 
L 494.009917 168.316501 
L 498.109091 168.458508 
L 498.109091 166.553018 
L 498.109091 166.553018 
L 494.009917 166.411011 
L 489.910744 166.269005 
L 485.81157 166.126998 
L 481.712397 165.984991 
L 477.613223 165.842984 
L 473.51405 165.700977 
L 469.414876 165.55897 
L 465.315702 165.416964 
L 461.216529 165.274957 
L 457.117355 165.13295 
L 453.018182 164.990943 
L 448.919008 164.848936 
L 444.819835 164.706929 
L 440.720661 164.564922 
L 436.621488 164.422916 
L 432.522314 164.280909 
L 428.42314 164.138902 
L 424.323967 163.996895 
L 420.224793 163.854888 
L 416.12562 163.712881 
L 412.026446 163.570875 
L 407.927273 163.428868 
L 403.828099 163.286861 
L 399.728926 163.144854 
L 395.629752 163.002847 
L 391.530579 162.86084 
L 387.431405 162.718834 
L 383.332231 162.576827 
L 379.233058 162.43482 
L 375.133884 162.292813 
L 371.034711 162.150806 
L 366.935537 162.008799 
L 362.836364 161.866792 
L 358.73719 161.724786 
L 354.638017 161.582779 
L 350.538843 161.440772 
L 346.439669 161.298765 
L 342.340496 161.156758 
L 338.241322 161.014751 
L 334.142149 160.872745 
L 330.042975 160.730738 
L 325.943802 160.588731 
L 321.844628 160.446724 
L 317.745455 160.304717 
L 313.646281 160.16271 
L 309.547107 160.020704 
L 305.447934 159.878697 
L 301.34876 159.73669 
L 297.249587 159.594683 
L 293.150413 159.452676 
L 289.05124 159.310669 
L 284.952066 159.168662 
L 280.852893 159.026656 
L 276.753719 158.884649 
L 272.654545 158.742642 
L 268.555372 158.600635 
L 264.456198 158.458628 
L 260.357025 158.316621 
L 256.257851 158.174615 
L 252.158678 158.032608 
L 248.059504 157.890601 
L 243.960331 157.748594 
L 239.861157 157.606587 
L 235.761983 157.46458 
L 231.66281 157.322574 
L 227.563636 157.180567 
L 223.464463 157.03856 
L 219.365289 156.896553 
L 215.266116 156.754546 
L 211.166942 156.612539 
L 207.067769 156.470532 
L 202.968595 156.328526 
L 198.869421 156.186519 
L 194.770248 156.044512 
L 190.671074 155.902505 
L 186.571901 155.760498 
L 182.472727 155.618491 
L 178.373554 155.476485 
L 174.27438 155.334478 
L 170.175207 155.192471 
L 166.076033 155.050464 
L 161.97686 154.908457 
L 157.877686 154.76645 
L 153.778512 154.624444 
L 149.679339 154.482437 
L 145.580165 154.34043 
L 141.480992 154.198423 
L 137.381818 154.056416 
L 133.282645 153.914409 
L 129.183471 153.772403 
L 125.084298 153.630396 
L 120.985124 153.488389 
L 116.88595 153.346382 
L 112.786777 153.204375 
L 108.687603 153.062368 
L 104.58843 152.920361 
L 100.489256 152.778355 
L 96.390083 152.636348 
L 92.290909 152.494341 
z
" style="fill:#fd8d3c;"/>
   </g>
   <g id="PolyCollection_7">
    <path clip-path="url(#p6616814ba5)" d="M 92.290909 148.691229 
L 92.290909 152.494341 
L 96.390083 152.636348 
L 100.489256 152.778355 
L 104.58843 152.920361 
L 108.687603 153.062368 
L 112.786777 153.204375 
L 116.88595 153.346382 
L 120.985124 153.488389 
L 125.084298 153.630396 
L 129.183471 153.772403 
L 133.282645 153.914409 
L 137.381818 154.056416 
L 141.480992 154.198423 
L 145.580165 154.34043 
L 149.679339 154.482437 
L 153.778512 154.624444 
L 157.877686 154.76645 
L 161.97686 154.908457 
L 166.076033 155.050464 
L 170.175207 155.192471 
L 174.27438 155.334478 
L 178.373554 155.476485 
L 182.472727 155.618491 
L 186.571901 155.760498 
L 190.671074 155.902505 
L 194.770248 156.044512 
L 198.869421 156.186519 
L 202.968595 156.328526 
L 207.067769 156.470532 
L 211.166942 156.612539 
L 215.266116 156.754546 
L 219.365289 156.896553 
L 223.464463 157.03856 
L 227.563636 157.180567 
L 231.66281 157.322574 
L 235.761983 157.46458 
L 239.861157 157.606587 
L 243.960331 157.748594 
L 248.059504 157.890601 
L 252.158678 158.032608 
L 256.257851 158.174615 
L 260.357025 158.316621 
L 264.456198 158.458628 
L 268.555372 158.600635 
L 272.654545 158.742642 
L 276.753719 158.884649 
L 280.852893 159.026656 
L 284.952066 159.168662 
L 289.05124 159.310669 
L 293.150413 159.452676 
L 297.249587 159.594683 
L 301.34876 159.73669 
L 305.447934 159.878697 
L 309.547107 160.020704 
L 313.646281 160.16271 
L 317.745455 160.304717 
L 321.844628 160.446724 
L 325.943802 160.588731 
L 330.042975 160.730738 
L 334.142149 160.872745 
L 338.241322 161.014751 
L 342.340496 161.156758 
L 346.439669 161.298765 
L 350.538843 161.440772 
L 354.638017 161.582779 
L 358.73719 161.724786 
L 362.836364 161.866792 
L 366.935537 162.008799 
L 371.034711 162.150806 
L 375.133884 162.292813 
L 379.233058 162.43482 
L 383.332231 162.576827 
L 387.431405 162.718834 
L 391.530579 162.86084 
L 395.629752 163.002847 
L 399.728926 163.144854 
L 403.828099 163.286861 
L 407.927273 163.428868 
L 412.026446 163.570875 
L 416.12562 163.712881 
L 420.224793 163.854888 
L 424.323967 163.996895 
L 428.42314 164.138902 
L 432.522314 164.280909 
L 436.621488 164.422916 
L 440.720661 164.564922 
L 444.819835 164.706929 
L 448.919008 164.848936 
L 453.018182 164.990943 
L 457.117355 165.13295 
L 461.216529 165.274957 
L 465.315702 165.416964 
L 469.414876 165.55897 
L 473.51405 165.700977 
L 477.613223 165.842984 
L 481.712397 165.984991 
L 485.81157 166.126998 
L 489.910744 166.269005 
L 494.009917 166.411011 
L 498.109091 166.553018 
L 498.109091 166.553018 
L 498.109091 166.553018 
L 494.009917 166.372596 
L 489.910744 166.192174 
L 485.81157 166.011752 
L 481.712397 165.83133 
L 477.613223 165.650908 
L 473.51405 165.470486 
L 469.414876 165.290063 
L 465.315702 165.109641 
L 461.216529 164.929219 
L 457.117355 164.748797 
L 453.018182 164.568375 
L 448.919008 164.387953 
L 444.819835 164.207531 
L 440.720661 164.027109 
L 436.621488 163.846686 
L 432.522314 163.666264 
L 428.42314 163.485842 
L 424.323967 163.30542 
L 420.224793 163.124998 
L 416.12562 162.944576 
L 412.026446 162.764154 
L 407.927273 162.583732 
L 403.828099 162.40331 
L 399.728926 162.222887 
L 395.629752 162.042465 
L 391.530579 161.862043 
L 387.431405 161.681621 
L 383.332231 161.501199 
L 379.233058 161.320777 
L 375.133884 161.140355 
L 371.034711 160.959933 
L 366.935537 160.77951 
L 362.836364 160.599088 
L 358.73719 160.418666 
L 354.638017 160.238244 
L 350.538843 160.057822 
L 346.439669 159.8774 
L 342.340496 159.696978 
L 338.241322 159.516556 
L 334.142149 159.336134 
L 330.042975 159.155711 
L 325.943802 158.975289 
L 321.844628 158.794867 
L 317.745455 158.614445 
L 313.646281 158.434023 
L 309.547107 158.253601 
L 305.447934 158.073179 
L 301.34876 157.892757 
L 297.249587 157.712334 
L 293.150413 157.531912 
L 289.05124 157.35149 
L 284.952066 157.171068 
L 280.852893 156.990646 
L 276.753719 156.810224 
L 272.654545 156.629802 
L 268.555372 156.44938 
L 264.456198 156.268958 
L 260.357025 156.088535 
L 256.257851 155.908113 
L 252.158678 155.727691 
L 248.059504 155.547269 
L 243.960331 155.366847 
L 239.861157 155.186425 
L 235.761983 155.006003 
L 231.66281 154.825581 
L 227.563636 154.645158 
L 223.464463 154.464736 
L 219.365289 154.284314 
L 215.266116 154.103892 
L 211.166942 153.92347 
L 207.067769 153.743048 
L 202.968595 153.562626 
L 198.869421 153.382204 
L 194.770248 153.201781 
L 190.671074 153.021359 
L 186.571901 152.840937 
L 182.472727 152.660515 
L 178.373554 152.480093 
L 174.27438 152.299671 
L 170.175207 152.119249 
L 166.076033 151.938827 
L 161.97686 151.758405 
L 157.877686 151.577982 
L 153.778512 151.39756 
L 149.679339 151.217138 
L 145.580165 151.036716 
L 141.480992 150.856294 
L 137.381818 150.675872 
L 133.282645 150.49545 
L 129.183471 150.315028 
L 125.084298 150.134605 
L 120.985124 149.954183 
L 116.88595 149.773761 
L 112.786777 149.593339 
L 108.687603 149.412917 
L 104.58843 149.232495 
L 100.489256 149.052073 
L 96.390083 148.871651 
L 92.290909 148.691229 
z
" style="fill:#fdae6b;"/>
   </g>
   <g id="PolyCollection_8">
    <path clip-path="url(#p6616814ba5)" d="M 92.290909 142.343698 
L 92.290909 148.691229 
L 96.390083 148.871651 
L 100.489256 149.052073 
L 104.58843 149.232495 
L 108.687603 149.412917 
L 112.786777 149.593339 
L 116.88595 149.773761 
L 120.985124 149.954183 
L 125.084298 150.134605 
L 129.183471 150.315028 
L 133.282645 150.49545 
L 137.381818 150.675872 
L 141.480992 150.856294 
L 145.580165 151.036716 
L 149.679339 151.217138 
L 153.778512 151.39756 
L 157.877686 151.577982 
L 161.97686 151.758405 
L 166.076033 151.938827 
L 170.175207 152.119249 
L 174.27438 152.299671 
L 178.373554 152.480093 
L 182.472727 152.660515 
L 186.571901 152.840937 
L 190.671074 153.021359 
L 194.770248 153.201781 
L 198.869421 153.382204 
L 202.968595 153.562626 
L 207.067769 153.743048 
L 211.166942 153.92347 
L 215.266116 154.103892 
L 219.365289 154.284314 
L 223.464463 154.464736 
L 227.563636 154.645158 
L 231.66281 154.825581 
L 235.761983 155.006003 
L 239.861157 155.186425 
L 243.960331 155.366847 
L 248.059504 155.547269 
L 252.158678 155.727691 
L 256.257851 155.908113 
L 260.357025 156.088535 
L 264.456198 156.268958 
L 268.555372 156.44938 
L 272.654545 156.629802 
L 276.753719 156.810224 
L 280.852893 156.990646 
L 284.952066 157.171068 
L 289.05124 157.35149 
L 293.150413 157.531912 
L 297.249587 157.712334 
L 301.34876 157.892757 
L 305.447934 158.073179 
L 309.547107 158.253601 
L 313.646281 158.434023 
L 317.745455 158.614445 
L 321.844628 158.794867 
L 325.943802 158.975289 
L 330.042975 159.155711 
L 334.142149 159.336134 
L 338.241322 159.516556 
L 342.340496 159.696978 
L 346.439669 159.8774 
L 350.538843 160.057822 
L 354.638017 160.238244 
L 358.73719 160.418666 
L 362.836364 160.599088 
L 366.935537 160.77951 
L 371.034711 160.959933 
L 375.133884 161.140355 
L 379.233058 161.320777 
L 383.332231 161.501199 
L 387.431405 161.681621 
L 391.530579 161.862043 
L 395.629752 162.042465 
L 399.728926 162.222887 
L 403.828099 162.40331 
L 407.927273 162.583732 
L 412.026446 162.764154 
L 416.12562 162.944576 
L 420.224793 163.124998 
L 424.323967 163.30542 
L 428.42314 163.485842 
L 432.522314 163.666264 
L 436.621488 163.846686 
L 440.720661 164.027109 
L 444.819835 164.207531 
L 448.919008 164.387953 
L 453.018182 164.568375 
L 457.117355 164.748797 
L 461.216529 164.929219 
L 465.315702 165.109641 
L 469.414876 165.290063 
L 473.51405 165.470486 
L 477.613223 165.650908 
L 481.712397 165.83133 
L 485.81157 166.011752 
L 489.910744 166.192174 
L 494.009917 166.372596 
L 498.109091 166.553018 
L 498.109091 160.205488 
L 498.109091 160.205488 
L 494.009917 160.025066 
L 489.910744 159.844644 
L 485.81157 159.664222 
L 481.712397 159.483799 
L 477.613223 159.303377 
L 473.51405 159.122955 
L 469.414876 158.942533 
L 465.315702 158.762111 
L 461.216529 158.581689 
L 457.117355 158.401267 
L 453.018182 158.220845 
L 448.919008 158.040422 
L 444.819835 157.86 
L 440.720661 157.679578 
L 436.621488 157.499156 
L 432.522314 157.318734 
L 428.42314 157.138312 
L 424.323967 156.95789 
L 420.224793 156.777468 
L 416.12562 156.597046 
L 412.026446 156.416623 
L 407.927273 156.236201 
L 403.828099 156.055779 
L 399.728926 155.875357 
L 395.629752 155.694935 
L 391.530579 155.514513 
L 387.431405 155.334091 
L 383.332231 155.153669 
L 379.233058 154.973246 
L 375.133884 154.792824 
L 371.034711 154.612402 
L 366.935537 154.43198 
L 362.836364 154.251558 
L 358.73719 154.071136 
L 354.638017 153.890714 
L 350.538843 153.710292 
L 346.439669 153.52987 
L 342.340496 153.349447 
L 338.241322 153.169025 
L 334.142149 152.988603 
L 330.042975 152.808181 
L 325.943802 152.627759 
L 321.844628 152.447337 
L 317.745455 152.266915 
L 313.646281 152.086493 
L 309.547107 151.90607 
L 305.447934 151.725648 
L 301.34876 151.545226 
L 297.249587 151.364804 
L 293.150413 151.184382 
L 289.05124 151.00396 
L 284.952066 150.823538 
L 280.852893 150.643116 
L 276.753719 150.462694 
L 272.654545 150.282271 
L 268.555372 150.101849 
L 264.456198 149.921427 
L 260.357025 149.741005 
L 256.257851 149.560583 
L 252.158678 149.380161 
L 248.059504 149.199739 
L 243.960331 149.019317 
L 239.861157 148.838894 
L 235.761983 148.658472 
L 231.66281 148.47805 
L 227.563636 148.297628 
L 223.464463 148.117206 
L 219.365289 147.936784 
L 215.266116 147.756362 
L 211.166942 147.57594 
L 207.067769 147.395517 
L 202.968595 147.215095 
L 198.869421 147.034673 
L 194.770248 146.854251 
L 190.671074 146.673829 
L 186.571901 146.493407 
L 182.472727 146.312985 
L 178.373554 146.132563 
L 174.27438 145.952141 
L 170.175207 145.771718 
L 166.076033 145.591296 
L 161.97686 145.410874 
L 157.877686 145.230452 
L 153.778512 145.05003 
L 149.679339 144.869608 
L 145.580165 144.689186 
L 141.480992 144.508764 
L 137.381818 144.328341 
L 133.282645 144.147919 
L 129.183471 143.967497 
L 125.084298 143.787075 
L 120.985124 143.606653 
L 116.88595 143.426231 
L 112.786777 143.245809 
L 108.687603 143.065387 
L 104.58843 142.884965 
L 100.489256 142.704542 
L 96.390083 142.52412 
L 92.290909 142.343698 
z
" style="fill:#fdd0a2;"/>
   </g>
   <g id="PolyCollection_9">
    <path clip-path="url(#p6616814ba5)" d="M 92.290909 139.362619 
L 92.290909 142.343698 
L 96.390083 142.52412 
L 100.489256 142.704542 
L 104.58843 142.884965 
L 108.687603 143.065387 
L 112.786777 143.245809 
L 116.88595 143.426231 
L 120.985124 143.606653 
L 125.084298 143.787075 
L 129.183471 143.967497 
L 133.282645 144.147919 
L 137.381818 144.328341 
L 141.480992 144.508764 
L 145.580165 144.689186 
L 149.679339 144.869608 
L 153.778512 145.05003 
L 157.877686 145.230452 
L 161.97686 145.410874 
L 166.076033 145.591296 
L 170.175207 145.771718 
L 174.27438 145.952141 
L 178.373554 146.132563 
L 182.472727 146.312985 
L 186.571901 146.493407 
L 190.671074 146.673829 
L 194.770248 146.854251 
L 198.869421 147.034673 
L 202.968595 147.215095 
L 207.067769 147.395517 
L 211.166942 147.57594 
L 215.266116 147.756362 
L 219.365289 147.936784 
L 223.464463 148.117206 
L 227.563636 148.297628 
L 231.66281 148.47805 
L 235.761983 148.658472 
L 239.861157 148.838894 
L 243.960331 149.019317 
L 248.059504 149.199739 
L 252.158678 149.380161 
L 256.257851 149.560583 
L 260.357025 149.741005 
L 264.456198 149.921427 
L 268.555372 150.101849 
L 272.654545 150.282271 
L 276.753719 150.462694 
L 280.852893 150.643116 
L 284.952066 150.823538 
L 289.05124 151.00396 
L 293.150413 151.184382 
L 297.249587 151.364804 
L 301.34876 151.545226 
L 305.447934 151.725648 
L 309.547107 151.90607 
L 313.646281 152.086493 
L 317.745455 152.266915 
L 321.844628 152.447337 
L 325.943802 152.627759 
L 330.042975 152.808181 
L 334.142149 152.988603 
L 338.241322 153.169025 
L 342.340496 153.349447 
L 346.439669 153.52987 
L 350.538843 153.710292 
L 354.638017 153.890714 
L 358.73719 154.071136 
L 362.836364 154.251558 
L 366.935537 154.43198 
L 371.034711 154.612402 
L 375.133884 154.792824 
L 379.233058 154.973246 
L 383.332231 155.153669 
L 387.431405 155.334091 
L 391.530579 155.514513 
L 395.629752 155.694935 
L 399.728926 155.875357 
L 403.828099 156.055779 
L 407.927273 156.236201 
L 412.026446 156.416623 
L 416.12562 156.597046 
L 420.224793 156.777468 
L 424.323967 156.95789 
L 428.42314 157.138312 
L 432.522314 157.318734 
L 436.621488 157.499156 
L 440.720661 157.679578 
L 444.819835 157.86 
L 448.919008 158.040422 
L 453.018182 158.220845 
L 457.117355 158.401267 
L 461.216529 158.581689 
L 465.315702 158.762111 
L 469.414876 158.942533 
L 473.51405 159.122955 
L 477.613223 159.303377 
L 481.712397 159.483799 
L 485.81157 159.664222 
L 489.910744 159.844644 
L 494.009917 160.025066 
L 498.109091 160.205488 
L 498.109091 157.224409 
L 498.109091 157.224409 
L 494.009917 157.043987 
L 489.910744 156.863565 
L 485.81157 156.683143 
L 481.712397 156.50272 
L 477.613223 156.322298 
L 473.51405 156.141876 
L 469.414876 155.961454 
L 465.315702 155.781032 
L 461.216529 155.60061 
L 457.117355 155.420188 
L 453.018182 155.239766 
L 448.919008 155.059344 
L 444.819835 154.878921 
L 440.720661 154.698499 
L 436.621488 154.518077 
L 432.522314 154.337655 
L 428.42314 154.157233 
L 424.323967 153.976811 
L 420.224793 153.796389 
L 416.12562 153.615967 
L 412.026446 153.435544 
L 407.927273 153.255122 
L 403.828099 153.0747 
L 399.728926 152.894278 
L 395.629752 152.713856 
L 391.530579 152.533434 
L 387.431405 152.353012 
L 383.332231 152.17259 
L 379.233058 151.992168 
L 375.133884 151.811745 
L 371.034711 151.631323 
L 366.935537 151.450901 
L 362.836364 151.270479 
L 358.73719 151.090057 
L 354.638017 150.909635 
L 350.538843 150.729213 
L 346.439669 150.548791 
L 342.340496 150.368368 
L 338.241322 150.187946 
L 334.142149 150.007524 
L 330.042975 149.827102 
L 325.943802 149.64668 
L 321.844628 149.466258 
L 317.745455 149.285836 
L 313.646281 149.105414 
L 309.547107 148.924992 
L 305.447934 148.744569 
L 301.34876 148.564147 
L 297.249587 148.383725 
L 293.150413 148.203303 
L 289.05124 148.022881 
L 284.952066 147.842459 
L 280.852893 147.662037 
L 276.753719 147.481615 
L 272.654545 147.301192 
L 268.555372 147.12077 
L 264.456198 146.940348 
L 260.357025 146.759926 
L 256.257851 146.579504 
L 252.158678 146.399082 
L 248.059504 146.21866 
L 243.960331 146.038238 
L 239.861157 145.857815 
L 235.761983 145.677393 
L 231.66281 145.496971 
L 227.563636 145.316549 
L 223.464463 145.136127 
L 219.365289 144.955705 
L 215.266116 144.775283 
L 211.166942 144.594861 
L 207.067769 144.414439 
L 202.968595 144.234016 
L 198.869421 144.053594 
L 194.770248 143.873172 
L 190.671074 143.69275 
L 186.571901 143.512328 
L 182.472727 143.331906 
L 178.373554 143.151484 
L 174.27438 142.971062 
L 170.175207 142.790639 
L 166.076033 142.610217 
L 161.97686 142.429795 
L 157.877686 142.249373 
L 153.778512 142.068951 
L 149.679339 141.888529 
L 145.580165 141.708107 
L 141.480992 141.527685 
L 137.381818 141.347263 
L 133.282645 141.16684 
L 129.183471 140.986418 
L 125.084298 140.805996 
L 120.985124 140.625574 
L 116.88595 140.445152 
L 112.786777 140.26473 
L 108.687603 140.084308 
L 104.58843 139.903886 
L 100.489256 139.723463 
L 96.390083 139.543041 
L 92.290909 139.362619 
z
" style="fill:#31a354;"/>
   </g>
   <g id="PolyCollection_10">
    <path clip-path="url(#p6616814ba5)" d="M 92.290909 135.36 
L 92.290909 139.362619 
L 96.390083 139.543041 
L 100.489256 139.723463 
L 104.58843 139.903886 
L 108.687603 140.084308 
L 112.786777 140.26473 
L 116.88595 140.445152 
L 120.985124 140.625574 
L 125.084298 140.805996 
L 129.183471 140.986418 
L 133.282645 141.16684 
L 137.381818 141.347263 
L 141.480992 141.527685 
L 145.580165 141.708107 
L 149.679339 141.888529 
L 153.778512 142.068951 
L 157.877686 142.249373 
L 161.97686 142.429795 
L 166.076033 142.610217 
L 170.175207 142.790639 
L 174.27438 142.971062 
L 178.373554 143.151484 
L 182.472727 143.331906 
L 186.571901 143.512328 
L 190.671074 143.69275 
L 194.770248 143.873172 
L 198.869421 144.053594 
L 202.968595 144.234016 
L 207.067769 144.414439 
L 211.166942 144.594861 
L 215.266116 144.775283 
L 219.365289 144.955705 
L 223.464463 145.136127 
L 227.563636 145.316549 
L 231.66281 145.496971 
L 235.761983 145.677393 
L 239.861157 145.857815 
L 243.960331 146.038238 
L 248.059504 146.21866 
L 252.158678 146.399082 
L 256.257851 146.579504 
L 260.357025 146.759926 
L 264.456198 146.940348 
L 268.555372 147.12077 
L 272.654545 147.301192 
L 276.753719 147.481615 
L 280.852893 147.662037 
L 284.952066 147.842459 
L 289.05124 148.022881 
L 293.150413 148.203303 
L 297.249587 148.383725 
L 301.34876 148.564147 
L 305.447934 148.744569 
L 309.547107 148.924992 
L 313.646281 149.105414 
L 317.745455 149.285836 
L 321.844628 149.466258 
L 325.943802 149.64668 
L 330.042975 149.827102 
L 334.142149 150.007524 
L 338.241322 150.187946 
L 342.340496 150.368368 
L 346.439669 150.548791 
L 350.538843 150.729213 
L 354.638017 150.909635 
L 358.73719 151.090057 
L 362.836364 151.270479 
L 366.935537 151.450901 
L 371.034711 151.631323 
L 375.133884 151.811745 
L 379.233058 151.992168 
L 383.332231 152.17259 
L 387.431405 152.353012 
L 391.530579 152.533434 
L 395.629752 152.713856 
L 399.728926 152.894278 
L 403.828099 153.0747 
L 407.927273 153.255122 
L 412.026446 153.435544 
L 416.12562 153.615967 
L 420.224793 153.796389 
L 424.323967 153.976811 
L 428.42314 154.157233 
L 432.522314 154.337655 
L 436.621488 154.518077 
L 440.720661 154.698499 
L 444.819835 154.878921 
L 448.919008 155.059344 
L 453.018182 155.239766 
L 457.117355 155.420188 
L 461.216529 155.60061 
L 465.315702 155.781032 
L 469.414876 155.961454 
L 473.51405 156.141876 
L 477.613223 156.322298 
L 481.712397 156.50272 
L 485.81157 156.683143 
L 489.910744 156.863565 
L 494.009917 157.043987 
L 498.109091 157.224409 
L 498.109091 157.224409 
L 498.109091 157.224409 
L 494.009917 157.003556 
L 489.910744 156.782704 
L 485.81157 156.561851 
L 481.712397 156.340998 
L 477.613223 156.120146 
L 473.51405 155.899293 
L 469.414876 155.678441 
L 465.315702 155.457588 
L 461.216529 155.236735 
L 457.117355 155.015883 
L 453.018182 154.79503 
L 448.919008 154.574178 
L 444.819835 154.353325 
L 440.720661 154.132472 
L 436.621488 153.91162 
L 432.522314 153.690767 
L 428.42314 153.469914 
L 424.323967 153.249062 
L 420.224793 153.028209 
L 416.12562 152.807357 
L 412.026446 152.586504 
L 407.927273 152.365651 
L 403.828099 152.144799 
L 399.728926 151.923946 
L 395.629752 151.703094 
L 391.530579 151.482241 
L 387.431405 151.261388 
L 383.332231 151.040536 
L 379.233058 150.819683 
L 375.133884 150.59883 
L 371.034711 150.377978 
L 366.935537 150.157125 
L 362.836364 149.936273 
L 358.73719 149.71542 
L 354.638017 149.494567 
L 350.538843 149.273715 
L 346.439669 149.052862 
L 342.340496 148.83201 
L 338.241322 148.611157 
L 334.142149 148.390304 
L 330.042975 148.169452 
L 325.943802 147.948599 
L 321.844628 147.727746 
L 317.745455 147.506894 
L 313.646281 147.286041 
L 309.547107 147.065189 
L 305.447934 146.844336 
L 301.34876 146.623483 
L 297.249587 146.402631 
L 293.150413 146.181778 
L 289.05124 145.960926 
L 284.952066 145.740073 
L 280.852893 145.51922 
L 276.753719 145.298368 
L 272.654545 145.077515 
L 268.555372 144.856662 
L 264.456198 144.63581 
L 260.357025 144.414957 
L 256.257851 144.194105 
L 252.158678 143.973252 
L 248.059504 143.752399 
L 243.960331 143.531547 
L 239.861157 143.310694 
L 235.761983 143.089842 
L 231.66281 142.868989 
L 227.563636 142.648136 
L 223.464463 142.427284 
L 219.365289 142.206431 
L 215.266116 141.985578 
L 211.166942 141.764726 
L 207.067769 141.543873 
L 202.968595 141.323021 
L 198.869421 141.102168 
L 194.770248 140.881315 
L 190.671074 140.660463 
L 186.571901 140.43961 
L 182.472727 140.218758 
L 178.373554 139.997905 
L 174.27438 139.777052 
L 170.175207 139.5562 
L 166.076033 139.335347 
L 161.97686 139.114494 
L 157.877686 138.893642 
L 153.778512 138.672789 
L 149.679339 138.451937 
L 145.580165 138.231084 
L 141.480992 138.010231 
L 137.381818 137.789379 
L 133.282645 137.568526 
L 129.183471 137.347674 
L 125.084298 137.126821 
L 120.985124 136.905968 
L 116.88595 136.685116 
L 112.786777 136.464263 
L 108.687603 136.24341 
L 104.58843 136.022558 
L 100.489256 135.801705 
L 96.390083 135.580853 
L 92.290909 135.36 
z
" style="fill:#74c476;"/>
   </g>
   <g id="PolyCollection_11">
    <path clip-path="url(#p6616814ba5)" d="M 92.290909 135.36 
L 92.290909 135.36 
L 96.390083 135.580853 
L 100.489256 135.801705 
L 104.58843 136.022558 
L 108.687603 136.24341 
L 112.786777 136.464263 
L 116.88595 136.685116 
L 120.985124 136.905968 
L 125.084298 137.126821 
L 129.183471 137.347674 
L 133.282645 137.568526 
L 137.381818 137.789379 
L 141.480992 138.010231 
L 145.580165 138.231084 
L 149.679339 138.451937 
L 153.778512 138.672789 
L 157.877686 138.893642 
L 161.97686 139.114494 
L 166.076033 139.335347 
L 170.175207 139.5562 
L 174.27438 139.777052 
L 178.373554 139.997905 
L 182.472727 140.218758 
L 186.571901 140.43961 
L 190.671074 140.660463 
L 194.770248 140.881315 
L 198.869421 141.102168 
L 202.968595 141.323021 
L 207.067769 141.543873 
L 211.166942 141.764726 
L 215.266116 141.985578 
L 219.365289 142.206431 
L 223.464463 142.427284 
L 227.563636 142.648136 
L 231.66281 142.868989 
L 235.761983 143.089842 
L 239.861157 143.310694 
L 243.960331 143.531547 
L 248.059504 143.752399 
L 252.158678 143.973252 
L 256.257851 144.194105 
L 260.357025 144.414957 
L 264.456198 144.63581 
L 268.555372 144.856662 
L 272.654545 145.077515 
L 276.753719 145.298368 
L 280.852893 145.51922 
L 284.952066 145.740073 
L 289.05124 145.960926 
L 293.150413 146.181778 
L 297.249587 146.402631 
L 301.34876 146.623483 
L 305.447934 146.844336 
L 309.547107 147.065189 
L 313.646281 147.286041 
L 317.745455 147.506894 
L 321.844628 147.727746 
L 325.943802 147.948599 
L 330.042975 148.169452 
L 334.142149 148.390304 
L 338.241322 148.611157 
L 342.340496 148.83201 
L 346.439669 149.052862 
L 350.538843 149.273715 
L 354.638017 149.494567 
L 358.73719 149.71542 
L 362.836364 149.936273 
L 366.935537 150.157125 
L 371.034711 150.377978 
L 375.133884 150.59883 
L 379.233058 150.819683 
L 383.332231 151.040536 
L 387.431405 151.261388 
L 391.530579 151.482241 
L 395.629752 151.703094 
L 399.728926 151.923946 
L 403.828099 152.144799 
L 407.927273 152.365651 
L 412.026446 152.586504 
L 416.12562 152.807357 
L 420.224793 153.028209 
L 424.323967 153.249062 
L 428.42314 153.469914 
L 432.522314 153.690767 
L 436.621488 153.91162 
L 440.720661 154.132472 
L 444.819835 154.353325 
L 448.919008 154.574178 
L 453.018182 154.79503 
L 457.117355 155.015883 
L 461.216529 155.236735 
L 465.315702 155.457588 
L 469.414876 155.678441 
L 473.51405 155.899293 
L 477.613223 156.120146 
L 481.712397 156.340998 
L 485.81157 156.561851 
L 489.910744 156.782704 
L 494.009917 157.003556 
L 498.109091 157.224409 
L 498.109091 152.804566 
L 498.109091 152.804566 
L 494.009917 152.628359 
L 489.910744 152.452151 
L 485.81157 152.275943 
L 481.712397 152.099735 
L 477.613223 151.923528 
L 473.51405 151.74732 
L 469.414876 151.571112 
L 465.315702 151.394904 
L 461.216529 151.218697 
L 457.117355 151.042489 
L 453.018182 150.866281 
L 448.919008 150.690073 
L 444.819835 150.513866 
L 440.720661 150.337658 
L 436.621488 150.16145 
L 432.522314 149.985243 
L 428.42314 149.809035 
L 424.323967 149.632827 
L 420.224793 149.456619 
L 416.12562 149.280412 
L 412.026446 149.104204 
L 407.927273 148.927996 
L 403.828099 148.751788 
L 399.728926 148.575581 
L 395.629752 148.399373 
L 391.530579 148.223165 
L 387.431405 148.046957 
L 383.332231 147.87075 
L 379.233058 147.694542 
L 375.133884 147.518334 
L 371.034711 147.342126 
L 366.935537 147.165919 
L 362.836364 146.989711 
L 358.73719 146.813503 
L 354.638017 146.637295 
L 350.538843 146.461088 
L 346.439669 146.28488 
L 342.340496 146.108672 
L 338.241322 145.932464 
L 334.142149 145.756257 
L 330.042975 145.580049 
L 325.943802 145.403841 
L 321.844628 145.227634 
L 317.745455 145.051426 
L 313.646281 144.875218 
L 309.547107 144.69901 
L 305.447934 144.522803 
L 301.34876 144.346595 
L 297.249587 144.170387 
L 293.150413 143.994179 
L 289.05124 143.817972 
L 284.952066 143.641764 
L 280.852893 143.465556 
L 276.753719 143.289348 
L 272.654545 143.113141 
L 268.555372 142.936933 
L 264.456198 142.760725 
L 260.357025 142.584517 
L 256.257851 142.40831 
L 252.158678 142.232102 
L 248.059504 142.055894 
L 243.960331 141.879686 
L 239.861157 141.703479 
L 235.761983 141.527271 
L 231.66281 141.351063 
L 227.563636 141.174855 
L 223.464463 140.998648 
L 219.365289 140.82244 
L 215.266116 140.646232 
L 211.166942 140.470024 
L 207.067769 140.293817 
L 202.968595 140.117609 
L 198.869421 139.941401 
L 194.770248 139.765194 
L 190.671074 139.588986 
L 186.571901 139.412778 
L 182.472727 139.23657 
L 178.373554 139.060363 
L 174.27438 138.884155 
L 170.175207 138.707947 
L 166.076033 138.531739 
L 161.97686 138.355532 
L 157.877686 138.179324 
L 153.778512 138.003116 
L 149.679339 137.826908 
L 145.580165 137.650701 
L 141.480992 137.474493 
L 137.381818 137.298285 
L 133.282645 137.122077 
L 129.183471 136.94587 
L 125.084298 136.769662 
L 120.985124 136.593454 
L 116.88595 136.417246 
L 112.786777 136.241039 
L 108.687603 136.064831 
L 104.58843 135.888623 
L 100.489256 135.712415 
L 96.390083 135.536208 
L 92.290909 135.36 
z
" style="fill:#a1d99b;"/>
   </g>
   <g id="PolyCollection_12">
    <path clip-path="url(#p6616814ba5)" d="M 92.290909 135.36 
L 92.290909 135.36 
L 96.390083 135.536208 
L 100.489256 135.712415 
L 104.58843 135.888623 
L 108.687603 136.064831 
L 112.786777 136.241039 
L 116.88595 136.417246 
L 120.985124 136.593454 
L 125.084298 136.769662 
L 129.183471 136.94587 
L 133.282645 137.122077 
L 137.381818 137.298285 
L 141.480992 137.474493 
L 145.580165 137.650701 
L 149.679339 137.826908 
L 153.778512 138.003116 
L 157.877686 138.179324 
L 161.97686 138.355532 
L 166.076033 138.531739 
L 170.175207 138.707947 
L 174.27438 138.884155 
L 178.373554 139.060363 
L 182.472727 139.23657 
L 186.571901 139.412778 
L 190.671074 139.588986 
L 194.770248 139.765194 
L 198.869421 139.941401 
L 202.968595 140.117609 
L 207.067769 140.293817 
L 211.166942 140.470024 
L 215.266116 140.646232 
L 219.365289 140.82244 
L 223.464463 140.998648 
L 227.563636 141.174855 
L 231.66281 141.351063 
L 235.761983 141.527271 
L 239.861157 141.703479 
L 243.960331 141.879686 
L 248.059504 142.055894 
L 252.158678 142.232102 
L 256.257851 142.40831 
L 260.357025 142.584517 
L 264.456198 142.760725 
L 268.555372 142.936933 
L 272.654545 143.113141 
L 276.753719 143.289348 
L 280.852893 143.465556 
L 284.952066 143.641764 
L 289.05124 143.817972 
L 293.150413 143.994179 
L 297.249587 144.170387 
L 301.34876 144.346595 
L 305.447934 144.522803 
L 309.547107 144.69901 
L 313.646281 144.875218 
L 317.745455 145.051426 
L 321.844628 145.227634 
L 325.943802 145.403841 
L 330.042975 145.580049 
L 334.142149 145.756257 
L 338.241322 145.932464 
L 342.340496 146.108672 
L 346.439669 146.28488 
L 350.538843 146.461088 
L 354.638017 146.637295 
L 358.73719 146.813503 
L 362.836364 146.989711 
L 366.935537 147.165919 
L 371.034711 147.342126 
L 375.133884 147.518334 
L 379.233058 147.694542 
L 383.332231 147.87075 
L 387.431405 148.046957 
L 391.530579 148.223165 
L 395.629752 148.399373 
L 399.728926 148.575581 
L 403.828099 148.751788 
L 407.927273 148.927996 
L 412.026446 149.104204 
L 416.12562 149.280412 
L 420.224793 149.456619 
L 424.323967 149.632827 
L 428.42314 149.809035 
L 432.522314 149.985243 
L 436.621488 150.16145 
L 440.720661 150.337658 
L 444.819835 150.513866 
L 448.919008 150.690073 
L 453.018182 150.866281 
L 457.117355 151.042489 
L 461.216529 151.218697 
L 465.315702 151.394904 
L 469.414876 151.571112 
L 473.51405 151.74732 
L 477.613223 151.923528 
L 481.712397 152.099735 
L 485.81157 152.275943 
L 489.910744 152.452151 
L 494.009917 152.628359 
L 498.109091 152.804566 
L 498.109091 148.0858 
L 498.109091 148.0858 
L 494.009917 147.957257 
L 489.910744 147.828714 
L 485.81157 147.70017 
L 481.712397 147.571627 
L 477.613223 147.443083 
L 473.51405 147.31454 
L 469.414876 147.185996 
L 465.315702 147.057453 
L 461.216529 146.92891 
L 457.117355 146.800366 
L 453.018182 146.671823 
L 448.919008 146.543279 
L 444.819835 146.414736 
L 440.720661 146.286192 
L 436.621488 146.157649 
L 432.522314 146.029105 
L 428.42314 145.900562 
L 424.323967 145.772019 
L 420.224793 145.643475 
L 416.12562 145.514932 
L 412.026446 145.386388 
L 407.927273 145.257845 
L 403.828099 145.129301 
L 399.728926 145.000758 
L 395.629752 144.872214 
L 391.530579 144.743671 
L 387.431405 144.615128 
L 383.332231 144.486584 
L 379.233058 144.358041 
L 375.133884 144.229497 
L 371.034711 144.100954 
L 366.935537 143.97241 
L 362.836364 143.843867 
L 358.73719 143.715324 
L 354.638017 143.58678 
L 350.538843 143.458237 
L 346.439669 143.329693 
L 342.340496 143.20115 
L 338.241322 143.072606 
L 334.142149 142.944063 
L 330.042975 142.815519 
L 325.943802 142.686976 
L 321.844628 142.558433 
L 317.745455 142.429889 
L 313.646281 142.301346 
L 309.547107 142.172802 
L 305.447934 142.044259 
L 301.34876 141.915715 
L 297.249587 141.787172 
L 293.150413 141.658629 
L 289.05124 141.530085 
L 284.952066 141.401542 
L 280.852893 141.272998 
L 276.753719 141.144455 
L 272.654545 141.015911 
L 268.555372 140.887368 
L 264.456198 140.758824 
L 260.357025 140.630281 
L 256.257851 140.501738 
L 252.158678 140.373194 
L 248.059504 140.244651 
L 243.960331 140.116107 
L 239.861157 139.987564 
L 235.761983 139.85902 
L 231.66281 139.730477 
L 227.563636 139.601933 
L 223.464463 139.47339 
L 219.365289 139.344847 
L 215.266116 139.216303 
L 211.166942 139.08776 
L 207.067769 138.959216 
L 202.968595 138.830673 
L 198.869421 138.702129 
L 194.770248 138.573586 
L 190.671074 138.445043 
L 186.571901 138.316499 
L 182.472727 138.187956 
L 178.373554 138.059412 
L 174.27438 137.930869 
L 170.175207 137.802325 
L 166.076033 137.673782 
L 161.97686 137.545238 
L 157.877686 137.416695 
L 153.778512 137.288152 
L 149.679339 137.159608 
L 145.580165 137.031065 
L 141.480992 136.902521 
L 137.381818 136.773978 
L 133.282645 136.645434 
L 129.183471 136.516891 
L 125.084298 136.388348 
L 120.985124 136.259804 
L 116.88595 136.131261 
L 112.786777 136.002717 
L 108.687603 135.874174 
L 104.58843 135.74563 
L 100.489256 135.617087 
L 96.390083 135.488543 
L 92.290909 135.36 
z
" style="fill:#c7e9c0;"/>
   </g>
   <g id="matplotlib.axis_1">
    <g id="xtick_1">
     <g id="line2d_1">
      <defs>
       <path d="M 0 0 
L 0 3.5 
" id="m855977d19b" style="stroke:#000000;stroke-width:0.8;"/>
      </defs>
      <g>
       <use style="stroke:#000000;stroke-width:0.8;" x="92.290909" xlink:href="#m855977d19b" y="768.96"/>
      </g>
     </g>
     <g id="text_1">
      <!-- 0 -->
      <g transform="translate(89.109659 783.558437)scale(0.1 -0.1)">
       <defs>
        <path d="M 2034 4250 
Q 1547 4250 1301 3770 
Q 1056 3291 1056 2328 
Q 1056 1369 1301 889 
Q 1547 409 2034 409 
Q 2525 409 2770 889 
Q 3016 1369 3016 2328 
Q 3016 3291 2770 3770 
Q 2525 4250 2034 4250 
z
M 2034 4750 
Q 2819 4750 3233 4129 
Q 3647 3509 3647 2328 
Q 3647 1150 3233 529 
Q 2819 -91 2034 -91 
Q 1250 -91 836 529 
Q 422 1150 422 2328 
Q 422 3509 836 4129 
Q 1250 4750 2034 4750 
z
" id="DejaVuSans-30" transform="scale(0.015625)"/>
       </defs>
       <use xlink:href="#DejaVuSans-30"/>
      </g>
     </g>
    </g>
    <g id="xtick_2">
     <g id="line2d_2">
      <g>
       <use style="stroke:#000000;stroke-width:0.8;" x="173.454545" xlink:href="#m855977d19b" y="768.96"/>
      </g>
     </g>
     <g id="text_2">
      <!-- 20 -->
      <g transform="translate(167.092045 783.558437)scale(0.1 -0.1)">
       <defs>
        <path d="M 1228 531 
L 3431 531 
L 3431 0 
L 469 0 
L 469 531 
Q 828 903 1448 1529 
Q 2069 2156 2228 2338 
Q 2531 2678 2651 2914 
Q 2772 3150 2772 3378 
Q 2772 3750 2511 3984 
Q 2250 4219 1831 4219 
Q 1534 4219 1204 4116 
Q 875 4013 500 3803 
L 500 4441 
Q 881 4594 1212 4672 
Q 1544 4750 1819 4750 
Q 2544 4750 2975 4387 
Q 3406 4025 3406 3419 
Q 3406 3131 3298 2873 
Q 3191 2616 2906 2266 
Q 2828 2175 2409 1742 
Q 1991 1309 1228 531 
z
" id="DejaVuSans-32" transform="scale(0.015625)"/>
       </defs>
       <use xlink:href="#DejaVuSans-32"/>
       <use x="63.623047" xlink:href="#DejaVuSans-30"/>
      </g>
     </g>
    </g>
    <g id="xtick_3">
     <g id="line2d_3">
      <g>
       <use style="stroke:#000000;stroke-width:0.8;" x="254.618182" xlink:href="#m855977d19b" y="768.96"/>
      </g>
     </g>
     <g id="text_3">
      <!-- 40 -->
      <g transform="translate(248.255682 783.558437)scale(0.1 -0.1)">
       <defs>
        <path d="M 2419 4116 
L 825 1625 
L 2419 1625 
L 2419 4116 
z
M 2253 4666 
L 3047 4666 
L 3047 1625 
L 3713 1625 
L 3713 1100 
L 3047 1100 
L 3047 0 
L 2419 0 
L 2419 1100 
L 313 1100 
L 313 1709 
L 2253 4666 
z
" id="DejaVuSans-34" transform="scale(0.015625)"/>
       </defs>
       <use xlink:href="#DejaVuSans-34"/>
       <use x="63.623047" xlink:href="#DejaVuSans-30"/>
      </g>
     </g>
    </g>
    <g id="xtick_4">
     <g id="line2d_4">
      <g>
       <use style="stroke:#000000;stroke-width:0.8;" x="335.781818" xlink:href="#m855977d19b" y="768.96"/>
      </g>
     </g>
     <g id="text_4">
      <!-- 60 -->
      <g transform="translate(329.419318 783.558437)scale(0.1 -0.1)">
       <defs>
        <path d="M 2113 2584 
Q 1688 2584 1439 2293 
Q 1191 2003 1191 1497 
Q 1191 994 1439 701 
Q 1688 409 2113 409 
Q 2538 409 2786 701 
Q 3034 994 3034 1497 
Q 3034 2003 2786 2293 
Q 2538 2584 2113 2584 
z
M 3366 4563 
L 3366 3988 
Q 3128 4100 2886 4159 
Q 2644 4219 2406 4219 
Q 1781 4219 1451 3797 
Q 1122 3375 1075 2522 
Q 1259 2794 1537 2939 
Q 1816 3084 2150 3084 
Q 2853 3084 3261 2657 
Q 3669 2231 3669 1497 
Q 3669 778 3244 343 
Q 2819 -91 2113 -91 
Q 1303 -91 875 529 
Q 447 1150 447 2328 
Q 447 3434 972 4092 
Q 1497 4750 2381 4750 
Q 2619 4750 2861 4703 
Q 3103 4656 3366 4563 
z
" id="DejaVuSans-36" transform="scale(0.015625)"/>
       </defs>
       <use xlink:href="#DejaVuSans-36"/>
       <use x="63.623047" xlink:href="#DejaVuSans-30"/>
      </g>
     </g>
    </g>
    <g id="xtick_5">
     <g id="line2d_5">
      <g>
       <use style="stroke:#000000;stroke-width:0.8;" x="416.945455" xlink:href="#m855977d19b" y="768.96"/>
      </g>
     </g>
     <g id="text_5">
      <!-- 80 -->
      <g transform="translate(410.582955 783.558437)scale(0.1 -0.1)">
       <defs>
        <path d="M 2034 2216 
Q 1584 2216 1326 1975 
Q 1069 1734 1069 1313 
Q 1069 891 1326 650 
Q 1584 409 2034 409 
Q 2484 409 2743 651 
Q 3003 894 3003 1313 
Q 3003 1734 2745 1975 
Q 2488 2216 2034 2216 
z
M 1403 2484 
Q 997 2584 770 2862 
Q 544 3141 544 3541 
Q 544 4100 942 4425 
Q 1341 4750 2034 4750 
Q 2731 4750 3128 4425 
Q 3525 4100 3525 3541 
Q 3525 3141 3298 2862 
Q 3072 2584 2669 2484 
Q 3125 2378 3379 2068 
Q 3634 1759 3634 1313 
Q 3634 634 3220 271 
Q 2806 -91 2034 -91 
Q 1263 -91 848 271 
Q 434 634 434 1313 
Q 434 1759 690 2068 
Q 947 2378 1403 2484 
z
M 1172 3481 
Q 1172 3119 1398 2916 
Q 1625 2713 2034 2713 
Q 2441 2713 2670 2916 
Q 2900 3119 2900 3481 
Q 2900 3844 2670 4047 
Q 2441 4250 2034 4250 
Q 1625 4250 1398 4047 
Q 1172 3844 1172 3481 
z
" id="DejaVuSans-38" transform="scale(0.015625)"/>
       </defs>
       <use xlink:href="#DejaVuSans-38"/>
       <use x="63.623047" xlink:href="#DejaVuSans-30"/>
      </g>
     </g>
    </g>
    <g id="xtick_6">
     <g id="line2d_6">
      <g>
       <use style="stroke:#000000;stroke-width:0.8;" x="498.109091" xlink:href="#m855977d19b" y="768.96"/>
      </g>
     </g>
     <g id="text_6">
      <!-- 100 -->
      <g transform="translate(488.565341 783.558437)scale(0.1 -0.1)">
       <defs>
        <path d="M 794 531 
L 1825 531 
L 1825 4091 
L 703 3866 
L 703 4441 
L 1819 4666 
L 2450 4666 
L 2450 531 
L 3481 531 
L 3481 0 
L 794 0 
L 794 531 
z
" id="DejaVuSans-31" transform="scale(0.015625)"/>
       </defs>
       <use xlink:href="#DejaVuSans-31"/>
       <use x="63.623047" xlink:href="#DejaVuSans-30"/>
       <use x="127.246094" xlink:href="#DejaVuSans-30"/>
      </g>
     </g>
    </g>
    <g id="text_7">
     <!-- Proportion of New Technology in Grid (%) -->
     <g transform="translate(192.432031 797.236562)scale(0.1 -0.1)">
      <defs>
       <path d="M 1259 4147 
L 1259 2394 
L 2053 2394 
Q 2494 2394 2734 2622 
Q 2975 2850 2975 3272 
Q 2975 3691 2734 3919 
Q 2494 4147 2053 4147 
L 1259 4147 
z
M 628 4666 
L 2053 4666 
Q 2838 4666 3239 4311 
Q 3641 3956 3641 3272 
Q 3641 2581 3239 2228 
Q 2838 1875 2053 1875 
L 1259 1875 
L 1259 0 
L 628 0 
L 628 4666 
z
" id="DejaVuSans-50" transform="scale(0.015625)"/>
       <path d="M 2631 2963 
Q 2534 3019 2420 3045 
Q 2306 3072 2169 3072 
Q 1681 3072 1420 2755 
Q 1159 2438 1159 1844 
L 1159 0 
L 581 0 
L 581 3500 
L 1159 3500 
L 1159 2956 
Q 1341 3275 1631 3429 
Q 1922 3584 2338 3584 
Q 2397 3584 2469 3576 
Q 2541 3569 2628 3553 
L 2631 2963 
z
" id="DejaVuSans-72" transform="scale(0.015625)"/>
       <path d="M 1959 3097 
Q 1497 3097 1228 2736 
Q 959 2375 959 1747 
Q 959 1119 1226 758 
Q 1494 397 1959 397 
Q 2419 397 2687 759 
Q 2956 1122 2956 1747 
Q 2956 2369 2687 2733 
Q 2419 3097 1959 3097 
z
M 1959 3584 
Q 2709 3584 3137 3096 
Q 3566 2609 3566 1747 
Q 3566 888 3137 398 
Q 2709 -91 1959 -91 
Q 1206 -91 779 398 
Q 353 888 353 1747 
Q 353 2609 779 3096 
Q 1206 3584 1959 3584 
z
" id="DejaVuSans-6f" transform="scale(0.015625)"/>
       <path d="M 1159 525 
L 1159 -1331 
L 581 -1331 
L 581 3500 
L 1159 3500 
L 1159 2969 
Q 1341 3281 1617 3432 
Q 1894 3584 2278 3584 
Q 2916 3584 3314 3078 
Q 3713 2572 3713 1747 
Q 3713 922 3314 415 
Q 2916 -91 2278 -91 
Q 1894 -91 1617 61 
Q 1341 213 1159 525 
z
M 3116 1747 
Q 3116 2381 2855 2742 
Q 2594 3103 2138 3103 
Q 1681 3103 1420 2742 
Q 1159 2381 1159 1747 
Q 1159 1113 1420 752 
Q 1681 391 2138 391 
Q 2594 391 2855 752 
Q 3116 1113 3116 1747 
z
" id="DejaVuSans-70" transform="scale(0.015625)"/>
       <path d="M 1172 4494 
L 1172 3500 
L 2356 3500 
L 2356 3053 
L 1172 3053 
L 1172 1153 
Q 1172 725 1289 603 
Q 1406 481 1766 481 
L 2356 481 
L 2356 0 
L 1766 0 
Q 1100 0 847 248 
Q 594 497 594 1153 
L 594 3053 
L 172 3053 
L 172 3500 
L 594 3500 
L 594 4494 
L 1172 4494 
z
" id="DejaVuSans-74" transform="scale(0.015625)"/>
       <path d="M 603 3500 
L 1178 3500 
L 1178 0 
L 603 0 
L 603 3500 
z
M 603 4863 
L 1178 4863 
L 1178 4134 
L 603 4134 
L 603 4863 
z
" id="DejaVuSans-69" transform="scale(0.015625)"/>
       <path d="M 3513 2113 
L 3513 0 
L 2938 0 
L 2938 2094 
Q 2938 2591 2744 2837 
Q 2550 3084 2163 3084 
Q 1697 3084 1428 2787 
Q 1159 2491 1159 1978 
L 1159 0 
L 581 0 
L 581 3500 
L 1159 3500 
L 1159 2956 
Q 1366 3272 1645 3428 
Q 1925 3584 2291 3584 
Q 2894 3584 3203 3211 
Q 3513 2838 3513 2113 
z
" id="DejaVuSans-6e" transform="scale(0.015625)"/>
       <path id="DejaVuSans-20" transform="scale(0.015625)"/>
       <path d="M 2375 4863 
L 2375 4384 
L 1825 4384 
Q 1516 4384 1395 4259 
Q 1275 4134 1275 3809 
L 1275 3500 
L 2222 3500 
L 2222 3053 
L 1275 3053 
L 1275 0 
L 697 0 
L 697 3053 
L 147 3053 
L 147 3500 
L 697 3500 
L 697 3744 
Q 697 4328 969 4595 
Q 1241 4863 1831 4863 
L 2375 4863 
z
" id="DejaVuSans-66" transform="scale(0.015625)"/>
       <path d="M 628 4666 
L 1478 4666 
L 3547 763 
L 3547 4666 
L 4159 4666 
L 4159 0 
L 3309 0 
L 1241 3903 
L 1241 0 
L 628 0 
L 628 4666 
z
" id="DejaVuSans-4e" transform="scale(0.015625)"/>
       <path d="M 3597 1894 
L 3597 1613 
L 953 1613 
Q 991 1019 1311 708 
Q 1631 397 2203 397 
Q 2534 397 2845 478 
Q 3156 559 3463 722 
L 3463 178 
Q 3153 47 2828 -22 
Q 2503 -91 2169 -91 
Q 1331 -91 842 396 
Q 353 884 353 1716 
Q 353 2575 817 3079 
Q 1281 3584 2069 3584 
Q 2775 3584 3186 3129 
Q 3597 2675 3597 1894 
z
M 3022 2063 
Q 3016 2534 2758 2815 
Q 2500 3097 2075 3097 
Q 1594 3097 1305 2825 
Q 1016 2553 972 2059 
L 3022 2063 
z
" id="DejaVuSans-65" transform="scale(0.015625)"/>
       <path d="M 269 3500 
L 844 3500 
L 1563 769 
L 2278 3500 
L 2956 3500 
L 3675 769 
L 4391 3500 
L 4966 3500 
L 4050 0 
L 3372 0 
L 2619 2869 
L 1863 0 
L 1184 0 
L 269 3500 
z
" id="DejaVuSans-77" transform="scale(0.015625)"/>
       <path d="M -19 4666 
L 3928 4666 
L 3928 4134 
L 2272 4134 
L 2272 0 
L 1638 0 
L 1638 4134 
L -19 4134 
L -19 4666 
z
" id="DejaVuSans-54" transform="scale(0.015625)"/>
       <path d="M 3122 3366 
L 3122 2828 
Q 2878 2963 2633 3030 
Q 2388 3097 2138 3097 
Q 1578 3097 1268 2742 
Q 959 2388 959 1747 
Q 959 1106 1268 751 
Q 1578 397 2138 397 
Q 2388 397 2633 464 
Q 2878 531 3122 666 
L 3122 134 
Q 2881 22 2623 -34 
Q 2366 -91 2075 -91 
Q 1284 -91 818 406 
Q 353 903 353 1747 
Q 353 2603 823 3093 
Q 1294 3584 2113 3584 
Q 2378 3584 2631 3529 
Q 2884 3475 3122 3366 
z
" id="DejaVuSans-63" transform="scale(0.015625)"/>
       <path d="M 3513 2113 
L 3513 0 
L 2938 0 
L 2938 2094 
Q 2938 2591 2744 2837 
Q 2550 3084 2163 3084 
Q 1697 3084 1428 2787 
Q 1159 2491 1159 1978 
L 1159 0 
L 581 0 
L 581 4863 
L 1159 4863 
L 1159 2956 
Q 1366 3272 1645 3428 
Q 1925 3584 2291 3584 
Q 2894 3584 3203 3211 
Q 3513 2838 3513 2113 
z
" id="DejaVuSans-68" transform="scale(0.015625)"/>
       <path d="M 603 4863 
L 1178 4863 
L 1178 0 
L 603 0 
L 603 4863 
z
" id="DejaVuSans-6c" transform="scale(0.015625)"/>
       <path d="M 2906 1791 
Q 2906 2416 2648 2759 
Q 2391 3103 1925 3103 
Q 1463 3103 1205 2759 
Q 947 2416 947 1791 
Q 947 1169 1205 825 
Q 1463 481 1925 481 
Q 2391 481 2648 825 
Q 2906 1169 2906 1791 
z
M 3481 434 
Q 3481 -459 3084 -895 
Q 2688 -1331 1869 -1331 
Q 1566 -1331 1297 -1286 
Q 1028 -1241 775 -1147 
L 775 -588 
Q 1028 -725 1275 -790 
Q 1522 -856 1778 -856 
Q 2344 -856 2625 -561 
Q 2906 -266 2906 331 
L 2906 616 
Q 2728 306 2450 153 
Q 2172 0 1784 0 
Q 1141 0 747 490 
Q 353 981 353 1791 
Q 353 2603 747 3093 
Q 1141 3584 1784 3584 
Q 2172 3584 2450 3431 
Q 2728 3278 2906 2969 
L 2906 3500 
L 3481 3500 
L 3481 434 
z
" id="DejaVuSans-67" transform="scale(0.015625)"/>
       <path d="M 2059 -325 
Q 1816 -950 1584 -1140 
Q 1353 -1331 966 -1331 
L 506 -1331 
L 506 -850 
L 844 -850 
Q 1081 -850 1212 -737 
Q 1344 -625 1503 -206 
L 1606 56 
L 191 3500 
L 800 3500 
L 1894 763 
L 2988 3500 
L 3597 3500 
L 2059 -325 
z
" id="DejaVuSans-79" transform="scale(0.015625)"/>
       <path d="M 3809 666 
L 3809 1919 
L 2778 1919 
L 2778 2438 
L 4434 2438 
L 4434 434 
Q 4069 175 3628 42 
Q 3188 -91 2688 -91 
Q 1594 -91 976 548 
Q 359 1188 359 2328 
Q 359 3472 976 4111 
Q 1594 4750 2688 4750 
Q 3144 4750 3555 4637 
Q 3966 4525 4313 4306 
L 4313 3634 
Q 3963 3931 3569 4081 
Q 3175 4231 2741 4231 
Q 1884 4231 1454 3753 
Q 1025 3275 1025 2328 
Q 1025 1384 1454 906 
Q 1884 428 2741 428 
Q 3075 428 3337 486 
Q 3600 544 3809 666 
z
" id="DejaVuSans-47" transform="scale(0.015625)"/>
       <path d="M 2906 2969 
L 2906 4863 
L 3481 4863 
L 3481 0 
L 2906 0 
L 2906 525 
Q 2725 213 2448 61 
Q 2172 -91 1784 -91 
Q 1150 -91 751 415 
Q 353 922 353 1747 
Q 353 2572 751 3078 
Q 1150 3584 1784 3584 
Q 2172 3584 2448 3432 
Q 2725 3281 2906 2969 
z
M 947 1747 
Q 947 1113 1208 752 
Q 1469 391 1925 391 
Q 2381 391 2643 752 
Q 2906 1113 2906 1747 
Q 2906 2381 2643 2742 
Q 2381 3103 1925 3103 
Q 1469 3103 1208 2742 
Q 947 2381 947 1747 
z
" id="DejaVuSans-64" transform="scale(0.015625)"/>
       <path d="M 1984 4856 
Q 1566 4138 1362 3434 
Q 1159 2731 1159 2009 
Q 1159 1288 1364 580 
Q 1569 -128 1984 -844 
L 1484 -844 
Q 1016 -109 783 600 
Q 550 1309 550 2009 
Q 550 2706 781 3412 
Q 1013 4119 1484 4856 
L 1984 4856 
z
" id="DejaVuSans-28" transform="scale(0.015625)"/>
       <path d="M 4653 2053 
Q 4381 2053 4226 1822 
Q 4072 1591 4072 1178 
Q 4072 772 4226 539 
Q 4381 306 4653 306 
Q 4919 306 5073 539 
Q 5228 772 5228 1178 
Q 5228 1588 5073 1820 
Q 4919 2053 4653 2053 
z
M 4653 2450 
Q 5147 2450 5437 2106 
Q 5728 1763 5728 1178 
Q 5728 594 5436 251 
Q 5144 -91 4653 -91 
Q 4153 -91 3862 251 
Q 3572 594 3572 1178 
Q 3572 1766 3864 2108 
Q 4156 2450 4653 2450 
z
M 1428 4353 
Q 1159 4353 1004 4120 
Q 850 3888 850 3481 
Q 850 3069 1003 2837 
Q 1156 2606 1428 2606 
Q 1700 2606 1854 2837 
Q 2009 3069 2009 3481 
Q 2009 3884 1853 4118 
Q 1697 4353 1428 4353 
z
M 4250 4750 
L 4750 4750 
L 1831 -91 
L 1331 -91 
L 4250 4750 
z
M 1428 4750 
Q 1922 4750 2215 4408 
Q 2509 4066 2509 3481 
Q 2509 2891 2217 2550 
Q 1925 2209 1428 2209 
Q 931 2209 642 2551 
Q 353 2894 353 3481 
Q 353 4063 643 4406 
Q 934 4750 1428 4750 
z
" id="DejaVuSans-25" transform="scale(0.015625)"/>
       <path d="M 513 4856 
L 1013 4856 
Q 1481 4119 1714 3412 
Q 1947 2706 1947 2009 
Q 1947 1309 1714 600 
Q 1481 -109 1013 -844 
L 513 -844 
Q 928 -128 1133 580 
Q 1338 1288 1338 2009 
Q 1338 2731 1133 3434 
Q 928 4138 513 4856 
z
" id="DejaVuSans-29" transform="scale(0.015625)"/>
      </defs>
      <use xlink:href="#DejaVuSans-50"/>
      <use x="58.552734" xlink:href="#DejaVuSans-72"/>
      <use x="97.416016" xlink:href="#DejaVuSans-6f"/>
      <use x="158.597656" xlink:href="#DejaVuSans-70"/>
      <use x="222.074219" xlink:href="#DejaVuSans-6f"/>
      <use x="283.255859" xlink:href="#DejaVuSans-72"/>
      <use x="324.369141" xlink:href="#DejaVuSans-74"/>
      <use x="363.578125" xlink:href="#DejaVuSans-69"/>
      <use x="391.361328" xlink:href="#DejaVuSans-6f"/>
      <use x="452.542969" xlink:href="#DejaVuSans-6e"/>
      <use x="515.921875" xlink:href="#DejaVuSans-20"/>
      <use x="547.708984" xlink:href="#DejaVuSans-6f"/>
      <use x="608.890625" xlink:href="#DejaVuSans-66"/>
      <use x="644.095703" xlink:href="#DejaVuSans-20"/>
      <use x="675.882812" xlink:href="#DejaVuSans-4e"/>
      <use x="750.6875" xlink:href="#DejaVuSans-65"/>
      <use x="812.210938" xlink:href="#DejaVuSans-77"/>
      <use x="893.998047" xlink:href="#DejaVuSans-20"/>
      <use x="925.785156" xlink:href="#DejaVuSans-54"/>
      <use x="969.869141" xlink:href="#DejaVuSans-65"/>
      <use x="1031.392578" xlink:href="#DejaVuSans-63"/>
      <use x="1086.373047" xlink:href="#DejaVuSans-68"/>
      <use x="1149.751953" xlink:href="#DejaVuSans-6e"/>
      <use x="1213.130859" xlink:href="#DejaVuSans-6f"/>
      <use x="1274.3125" xlink:href="#DejaVuSans-6c"/>
      <use x="1302.095703" xlink:href="#DejaVuSans-6f"/>
      <use x="1363.277344" xlink:href="#DejaVuSans-67"/>
      <use x="1426.753906" xlink:href="#DejaVuSans-79"/>
      <use x="1485.933594" xlink:href="#DejaVuSans-20"/>
      <use x="1517.720703" xlink:href="#DejaVuSans-69"/>
      <use x="1545.503906" xlink:href="#DejaVuSans-6e"/>
      <use x="1608.882812" xlink:href="#DejaVuSans-20"/>
      <use x="1640.669922" xlink:href="#DejaVuSans-47"/>
      <use x="1718.160156" xlink:href="#DejaVuSans-72"/>
      <use x="1759.273438" xlink:href="#DejaVuSans-69"/>
      <use x="1787.056641" xlink:href="#DejaVuSans-64"/>
      <use x="1850.533203" xlink:href="#DejaVuSans-20"/>
      <use x="1882.320312" xlink:href="#DejaVuSans-28"/>
      <use x="1921.333984" xlink:href="#DejaVuSans-25"/>
      <use x="2016.353516" xlink:href="#DejaVuSans-29"/>
     </g>
    </g>
   </g>
   <g id="matplotlib.axis_2">
    <g id="ytick_1">
     <g id="line2d_7">
      <defs>
       <path d="M 0 0 
L -3.5 0 
" id="mc807340034" style="stroke:#000000;stroke-width:0.8;"/>
      </defs>
      <g>
       <use style="stroke:#000000;stroke-width:0.8;" x="72" xlink:href="#mc807340034" y="768.96"/>
      </g>
     </g>
     <g id="text_8">
      <!-- 0 -->
      <g transform="translate(58.6375 772.759219)scale(0.1 -0.1)">
       <use xlink:href="#DejaVuSans-30"/>
      </g>
     </g>
    </g>
    <g id="ytick_2">
     <g id="line2d_8">
      <g>
       <use style="stroke:#000000;stroke-width:0.8;" x="72" xlink:href="#mc807340034" y="687.798829"/>
      </g>
     </g>
     <g id="text_9">
      <!-- 10 -->
      <g transform="translate(52.275 691.598047)scale(0.1 -0.1)">
       <use xlink:href="#DejaVuSans-31"/>
       <use x="63.623047" xlink:href="#DejaVuSans-30"/>
      </g>
     </g>
    </g>
    <g id="ytick_3">
     <g id="line2d_9">
      <g>
       <use style="stroke:#000000;stroke-width:0.8;" x="72" xlink:href="#mc807340034" y="606.637657"/>
      </g>
     </g>
     <g id="text_10">
      <!-- 20 -->
      <g transform="translate(52.275 610.436876)scale(0.1 -0.1)">
       <use xlink:href="#DejaVuSans-32"/>
       <use x="63.623047" xlink:href="#DejaVuSans-30"/>
      </g>
     </g>
    </g>
    <g id="ytick_4">
     <g id="line2d_10">
      <g>
       <use style="stroke:#000000;stroke-width:0.8;" x="72" xlink:href="#mc807340034" y="525.476486"/>
      </g>
     </g>
     <g id="text_11">
      <!-- 30 -->
      <g transform="translate(52.275 529.275704)scale(0.1 -0.1)">
       <defs>
        <path d="M 2597 2516 
Q 3050 2419 3304 2112 
Q 3559 1806 3559 1356 
Q 3559 666 3084 287 
Q 2609 -91 1734 -91 
Q 1441 -91 1130 -33 
Q 819 25 488 141 
L 488 750 
Q 750 597 1062 519 
Q 1375 441 1716 441 
Q 2309 441 2620 675 
Q 2931 909 2931 1356 
Q 2931 1769 2642 2001 
Q 2353 2234 1838 2234 
L 1294 2234 
L 1294 2753 
L 1863 2753 
Q 2328 2753 2575 2939 
Q 2822 3125 2822 3475 
Q 2822 3834 2567 4026 
Q 2313 4219 1838 4219 
Q 1578 4219 1281 4162 
Q 984 4106 628 3988 
L 628 4550 
Q 988 4650 1302 4700 
Q 1616 4750 1894 4750 
Q 2613 4750 3031 4423 
Q 3450 4097 3450 3541 
Q 3450 3153 3228 2886 
Q 3006 2619 2597 2516 
z
" id="DejaVuSans-33" transform="scale(0.015625)"/>
       </defs>
       <use xlink:href="#DejaVuSans-33"/>
       <use x="63.623047" xlink:href="#DejaVuSans-30"/>
      </g>
     </g>
    </g>
    <g id="ytick_5">
     <g id="line2d_11">
      <g>
       <use style="stroke:#000000;stroke-width:0.8;" x="72" xlink:href="#mc807340034" y="444.315314"/>
      </g>
     </g>
     <g id="text_12">
      <!-- 40 -->
      <g transform="translate(52.275 448.114533)scale(0.1 -0.1)">
       <use xlink:href="#DejaVuSans-34"/>
       <use x="63.623047" xlink:href="#DejaVuSans-30"/>
      </g>
     </g>
    </g>
    <g id="ytick_6">
     <g id="line2d_12">
      <g>
       <use style="stroke:#000000;stroke-width:0.8;" x="72" xlink:href="#mc807340034" y="363.154143"/>
      </g>
     </g>
     <g id="text_13">
      <!-- 50 -->
      <g transform="translate(52.275 366.953362)scale(0.1 -0.1)">
       <defs>
        <path d="M 691 4666 
L 3169 4666 
L 3169 4134 
L 1269 4134 
L 1269 2991 
Q 1406 3038 1543 3061 
Q 1681 3084 1819 3084 
Q 2600 3084 3056 2656 
Q 3513 2228 3513 1497 
Q 3513 744 3044 326 
Q 2575 -91 1722 -91 
Q 1428 -91 1123 -41 
Q 819 9 494 109 
L 494 744 
Q 775 591 1075 516 
Q 1375 441 1709 441 
Q 2250 441 2565 725 
Q 2881 1009 2881 1497 
Q 2881 1984 2565 2268 
Q 2250 2553 1709 2553 
Q 1456 2553 1204 2497 
Q 953 2441 691 2322 
L 691 4666 
z
" id="DejaVuSans-35" transform="scale(0.015625)"/>
       </defs>
       <use xlink:href="#DejaVuSans-35"/>
       <use x="63.623047" xlink:href="#DejaVuSans-30"/>
      </g>
     </g>
    </g>
    <g id="ytick_7">
     <g id="line2d_13">
      <g>
       <use style="stroke:#000000;stroke-width:0.8;" x="72" xlink:href="#mc807340034" y="281.992971"/>
      </g>
     </g>
     <g id="text_14">
      <!-- 60 -->
      <g transform="translate(52.275 285.79219)scale(0.1 -0.1)">
       <use xlink:href="#DejaVuSans-36"/>
       <use x="63.623047" xlink:href="#DejaVuSans-30"/>
      </g>
     </g>
    </g>
    <g id="ytick_8">
     <g id="line2d_14">
      <g>
       <use style="stroke:#000000;stroke-width:0.8;" x="72" xlink:href="#mc807340034" y="200.8318"/>
      </g>
     </g>
     <g id="text_15">
      <!-- 70 -->
      <g transform="translate(52.275 204.631019)scale(0.1 -0.1)">
       <defs>
        <path d="M 525 4666 
L 3525 4666 
L 3525 4397 
L 1831 0 
L 1172 0 
L 2766 4134 
L 525 4134 
L 525 4666 
z
" id="DejaVuSans-37" transform="scale(0.015625)"/>
       </defs>
       <use xlink:href="#DejaVuSans-37"/>
       <use x="63.623047" xlink:href="#DejaVuSans-30"/>
      </g>
     </g>
    </g>
    <g id="ytick_9">
     <g id="line2d_15">
      <g>
       <use style="stroke:#000000;stroke-width:0.8;" x="72" xlink:href="#mc807340034" y="119.670628"/>
      </g>
     </g>
     <g id="text_16">
      <!-- 80 -->
      <g transform="translate(52.275 123.469847)scale(0.1 -0.1)">
       <use xlink:href="#DejaVuSans-38"/>
       <use x="63.623047" xlink:href="#DejaVuSans-30"/>
      </g>
     </g>
    </g>
    <g id="text_17">
     <!-- Carbon Equivalent Emissions (Mt) -->
     <g transform="translate(46.195312 520.635625)rotate(-90)scale(0.1 -0.1)">
      <defs>
       <path d="M 4122 4306 
L 4122 3641 
Q 3803 3938 3442 4084 
Q 3081 4231 2675 4231 
Q 1875 4231 1450 3742 
Q 1025 3253 1025 2328 
Q 1025 1406 1450 917 
Q 1875 428 2675 428 
Q 3081 428 3442 575 
Q 3803 722 4122 1019 
L 4122 359 
Q 3791 134 3420 21 
Q 3050 -91 2638 -91 
Q 1578 -91 968 557 
Q 359 1206 359 2328 
Q 359 3453 968 4101 
Q 1578 4750 2638 4750 
Q 3056 4750 3426 4639 
Q 3797 4528 4122 4306 
z
" id="DejaVuSans-43" transform="scale(0.015625)"/>
       <path d="M 2194 1759 
Q 1497 1759 1228 1600 
Q 959 1441 959 1056 
Q 959 750 1161 570 
Q 1363 391 1709 391 
Q 2188 391 2477 730 
Q 2766 1069 2766 1631 
L 2766 1759 
L 2194 1759 
z
M 3341 1997 
L 3341 0 
L 2766 0 
L 2766 531 
Q 2569 213 2275 61 
Q 1981 -91 1556 -91 
Q 1019 -91 701 211 
Q 384 513 384 1019 
Q 384 1609 779 1909 
Q 1175 2209 1959 2209 
L 2766 2209 
L 2766 2266 
Q 2766 2663 2505 2880 
Q 2244 3097 1772 3097 
Q 1472 3097 1187 3025 
Q 903 2953 641 2809 
L 641 3341 
Q 956 3463 1253 3523 
Q 1550 3584 1831 3584 
Q 2591 3584 2966 3190 
Q 3341 2797 3341 1997 
z
" id="DejaVuSans-61" transform="scale(0.015625)"/>
       <path d="M 3116 1747 
Q 3116 2381 2855 2742 
Q 2594 3103 2138 3103 
Q 1681 3103 1420 2742 
Q 1159 2381 1159 1747 
Q 1159 1113 1420 752 
Q 1681 391 2138 391 
Q 2594 391 2855 752 
Q 3116 1113 3116 1747 
z
M 1159 2969 
Q 1341 3281 1617 3432 
Q 1894 3584 2278 3584 
Q 2916 3584 3314 3078 
Q 3713 2572 3713 1747 
Q 3713 922 3314 415 
Q 2916 -91 2278 -91 
Q 1894 -91 1617 61 
Q 1341 213 1159 525 
L 1159 0 
L 581 0 
L 581 4863 
L 1159 4863 
L 1159 2969 
z
" id="DejaVuSans-62" transform="scale(0.015625)"/>
       <path d="M 628 4666 
L 3578 4666 
L 3578 4134 
L 1259 4134 
L 1259 2753 
L 3481 2753 
L 3481 2222 
L 1259 2222 
L 1259 531 
L 3634 531 
L 3634 0 
L 628 0 
L 628 4666 
z
" id="DejaVuSans-45" transform="scale(0.015625)"/>
       <path d="M 947 1747 
Q 947 1113 1208 752 
Q 1469 391 1925 391 
Q 2381 391 2643 752 
Q 2906 1113 2906 1747 
Q 2906 2381 2643 2742 
Q 2381 3103 1925 3103 
Q 1469 3103 1208 2742 
Q 947 2381 947 1747 
z
M 2906 525 
Q 2725 213 2448 61 
Q 2172 -91 1784 -91 
Q 1150 -91 751 415 
Q 353 922 353 1747 
Q 353 2572 751 3078 
Q 1150 3584 1784 3584 
Q 2172 3584 2448 3432 
Q 2725 3281 2906 2969 
L 2906 3500 
L 3481 3500 
L 3481 -1331 
L 2906 -1331 
L 2906 525 
z
" id="DejaVuSans-71" transform="scale(0.015625)"/>
       <path d="M 544 1381 
L 544 3500 
L 1119 3500 
L 1119 1403 
Q 1119 906 1312 657 
Q 1506 409 1894 409 
Q 2359 409 2629 706 
Q 2900 1003 2900 1516 
L 2900 3500 
L 3475 3500 
L 3475 0 
L 2900 0 
L 2900 538 
Q 2691 219 2414 64 
Q 2138 -91 1772 -91 
Q 1169 -91 856 284 
Q 544 659 544 1381 
z
M 1991 3584 
L 1991 3584 
z
" id="DejaVuSans-75" transform="scale(0.015625)"/>
       <path d="M 191 3500 
L 800 3500 
L 1894 563 
L 2988 3500 
L 3597 3500 
L 2284 0 
L 1503 0 
L 191 3500 
z
" id="DejaVuSans-76" transform="scale(0.015625)"/>
       <path d="M 3328 2828 
Q 3544 3216 3844 3400 
Q 4144 3584 4550 3584 
Q 5097 3584 5394 3201 
Q 5691 2819 5691 2113 
L 5691 0 
L 5113 0 
L 5113 2094 
Q 5113 2597 4934 2840 
Q 4756 3084 4391 3084 
Q 3944 3084 3684 2787 
Q 3425 2491 3425 1978 
L 3425 0 
L 2847 0 
L 2847 2094 
Q 2847 2600 2669 2842 
Q 2491 3084 2119 3084 
Q 1678 3084 1418 2786 
Q 1159 2488 1159 1978 
L 1159 0 
L 581 0 
L 581 3500 
L 1159 3500 
L 1159 2956 
Q 1356 3278 1631 3431 
Q 1906 3584 2284 3584 
Q 2666 3584 2933 3390 
Q 3200 3197 3328 2828 
z
" id="DejaVuSans-6d" transform="scale(0.015625)"/>
       <path d="M 2834 3397 
L 2834 2853 
Q 2591 2978 2328 3040 
Q 2066 3103 1784 3103 
Q 1356 3103 1142 2972 
Q 928 2841 928 2578 
Q 928 2378 1081 2264 
Q 1234 2150 1697 2047 
L 1894 2003 
Q 2506 1872 2764 1633 
Q 3022 1394 3022 966 
Q 3022 478 2636 193 
Q 2250 -91 1575 -91 
Q 1294 -91 989 -36 
Q 684 19 347 128 
L 347 722 
Q 666 556 975 473 
Q 1284 391 1588 391 
Q 1994 391 2212 530 
Q 2431 669 2431 922 
Q 2431 1156 2273 1281 
Q 2116 1406 1581 1522 
L 1381 1569 
Q 847 1681 609 1914 
Q 372 2147 372 2553 
Q 372 3047 722 3315 
Q 1072 3584 1716 3584 
Q 2034 3584 2315 3537 
Q 2597 3491 2834 3397 
z
" id="DejaVuSans-73" transform="scale(0.015625)"/>
       <path d="M 628 4666 
L 1569 4666 
L 2759 1491 
L 3956 4666 
L 4897 4666 
L 4897 0 
L 4281 0 
L 4281 4097 
L 3078 897 
L 2444 897 
L 1241 4097 
L 1241 0 
L 628 0 
L 628 4666 
z
" id="DejaVuSans-4d" transform="scale(0.015625)"/>
      </defs>
      <use xlink:href="#DejaVuSans-43"/>
      <use x="69.824219" xlink:href="#DejaVuSans-61"/>
      <use x="131.103516" xlink:href="#DejaVuSans-72"/>
      <use x="172.216797" xlink:href="#DejaVuSans-62"/>
      <use x="235.693359" xlink:href="#DejaVuSans-6f"/>
      <use x="296.875" xlink:href="#DejaVuSans-6e"/>
      <use x="360.253906" xlink:href="#DejaVuSans-20"/>
      <use x="392.041016" xlink:href="#DejaVuSans-45"/>
      <use x="455.224609" xlink:href="#DejaVuSans-71"/>
      <use x="518.701172" xlink:href="#DejaVuSans-75"/>
      <use x="582.080078" xlink:href="#DejaVuSans-69"/>
      <use x="609.863281" xlink:href="#DejaVuSans-76"/>
      <use x="669.042969" xlink:href="#DejaVuSans-61"/>
      <use x="730.322266" xlink:href="#DejaVuSans-6c"/>
      <use x="758.105469" xlink:href="#DejaVuSans-65"/>
      <use x="819.628906" xlink:href="#DejaVuSans-6e"/>
      <use x="883.007812" xlink:href="#DejaVuSans-74"/>
      <use x="922.216797" xlink:href="#DejaVuSans-20"/>
      <use x="954.003906" xlink:href="#DejaVuSans-45"/>
      <use x="1017.1875" xlink:href="#DejaVuSans-6d"/>
      <use x="1114.599609" xlink:href="#DejaVuSans-69"/>
      <use x="1142.382812" xlink:href="#DejaVuSans-73"/>
      <use x="1194.482422" xlink:href="#DejaVuSans-73"/>
      <use x="1246.582031" xlink:href="#DejaVuSans-69"/>
      <use x="1274.365234" xlink:href="#DejaVuSans-6f"/>
      <use x="1335.546875" xlink:href="#DejaVuSans-6e"/>
      <use x="1398.925781" xlink:href="#DejaVuSans-73"/>
      <use x="1451.025391" xlink:href="#DejaVuSans-20"/>
      <use x="1482.8125" xlink:href="#DejaVuSans-28"/>
      <use x="1521.826172" xlink:href="#DejaVuSans-4d"/>
      <use x="1608.105469" xlink:href="#DejaVuSans-74"/>
      <use x="1647.314453" xlink:href="#DejaVuSans-29"/>
     </g>
    </g>
   </g>
   <g id="patch_3">
    <path d="M 72 768.96 
L 72 103.68 
" style="fill:none;stroke:#000000;stroke-linecap:square;stroke-linejoin:miter;stroke-width:0.8;"/>
   </g>
   <g id="patch_4">
    <path d="M 518.4 768.96 
L 518.4 103.68 
" style="fill:none;stroke:#000000;stroke-linecap:square;stroke-linejoin:miter;stroke-width:0.8;"/>
   </g>
   <g id="patch_5">
    <path d="M 72 768.96 
L 518.4 768.96 
" style="fill:none;stroke:#000000;stroke-linecap:square;stroke-linejoin:miter;stroke-width:0.8;"/>
   </g>
   <g id="patch_6">
    <path d="M 72 103.68 
L 518.4 103.68 
" style="fill:none;stroke:#000000;stroke-linecap:square;stroke-linejoin:miter;stroke-width:0.8;"/>
   </g>
  </g>
 </g>
 <defs>
  <clipPath id="p6616814ba5">
   <rect height="665.28" width="446.4" x="72" y="103.68"/>
  </clipPath>
 </defs>
</svg>
