<?xml version="1.0" encoding="utf-8" standalone="no"?>
<!DOCTYPE svg PUBLIC "-//W3C//DTD SVG 1.1//EN"
  "http://www.w3.org/Graphics/SVG/1.1/DTD/svg11.dtd">
<svg height="571.68pt" version="1.1" viewBox="0 0 460.8 571.68" width="460.8pt" xmlns="http://www.w3.org/2000/svg" xmlns:xlink="http://www.w3.org/1999/xlink">
 <metadata>
  <rdf:RDF xmlns:cc="http://creativecommons.org/ns#" xmlns:dc="http://purl.org/dc/elements/1.1/" xmlns:rdf="http://www.w3.org/1999/02/22-rdf-syntax-ns#">
   <cc:Work>
    <dc:type rdf:resource="http://purl.org/dc/dcmitype/StillImage"/>
    <dc:date>2021-06-03T11:07:32.031243</dc:date>
    <dc:format>image/svg+xml</dc:format>
    <dc:creator>
     <cc:Agent>
      <dc:title>Matplotlib v3.4.1, https://matplotlib.org/</dc:title>
     </cc:Agent>
    </dc:creator>
   </cc:Work>
  </rdf:RDF>
 </metadata>
 <defs>
  <style type="text/css">*{stroke-linecap:butt;stroke-linejoin:round;}</style>
 </defs>
 <g id="figure_1">
  <g id="patch_1">
   <path d="M 0 571.68 
L 460.8 571.68 
L 460.8 0 
L 0 0 
z
" style="fill:#ffffff;"/>
  </g>
  <g id="axes_1">
   <g id="patch_2">
    <path d="M 57.6 508.7952 
L 414.72 508.7952 
L 414.72 68.6016 
L 57.6 68.6016 
z
" style="fill:#ffffff;"/>
   </g>
   <g id="PolyCollection_1">
    <path clip-path="url(#pa85f134c33)" d="M 73.832727 411.338379 
L 73.832727 508.7952 
L 77.112066 508.7952 
L 80.391405 508.7952 
L 83.670744 508.7952 
L 86.950083 508.7952 
L 90.229421 508.7952 
L 93.50876 508.7952 
L 96.788099 508.7952 
L 100.067438 508.7952 
L 103.346777 508.7952 
L 106.626116 508.7952 
L 109.905455 508.7952 
L 113.184793 508.7952 
L 116.464132 508.7952 
L 119.743471 508.7952 
L 123.02281 508.7952 
L 126.302149 508.7952 
L 129.581488 508.7952 
L 132.860826 508.7952 
L 136.140165 508.7952 
L 139.419504 508.7952 
L 142.698843 508.7952 
L 145.978182 508.7952 
L 149.257521 508.7952 
L 152.53686 508.7952 
L 155.816198 508.7952 
L 159.095537 508.7952 
L 162.374876 508.7952 
L 165.654215 508.7952 
L 168.933554 508.7952 
L 172.212893 508.7952 
L 175.492231 508.7952 
L 178.77157 508.7952 
L 182.050909 508.7952 
L 185.330248 508.7952 
L 188.609587 508.7952 
L 191.888926 508.7952 
L 195.168264 508.7952 
L 198.447603 508.7952 
L 201.726942 508.7952 
L 205.006281 508.7952 
L 208.28562 508.7952 
L 211.564959 508.7952 
L 214.844298 508.7952 
L 218.123636 508.7952 
L 221.402975 508.7952 
L 224.682314 508.7952 
L 227.961653 508.7952 
L 231.240992 508.7952 
L 234.520331 508.7952 
L 237.799669 508.7952 
L 241.079008 508.7952 
L 244.358347 508.7952 
L 247.637686 508.7952 
L 250.917025 508.7952 
L 254.196364 508.7952 
L 257.475702 508.7952 
L 260.755041 508.7952 
L 264.03438 508.7952 
L 267.313719 508.7952 
L 270.593058 508.7952 
L 273.872397 508.7952 
L 277.151736 508.7952 
L 280.431074 508.7952 
L 283.710413 508.7952 
L 286.989752 508.7952 
L 290.269091 508.7952 
L 293.54843 508.7952 
L 296.827769 508.7952 
L 300.107107 508.7952 
L 303.386446 508.7952 
L 306.665785 508.7952 
L 309.945124 508.7952 
L 313.224463 508.7952 
L 316.503802 508.7952 
L 319.78314 508.7952 
L 323.062479 508.7952 
L 326.341818 508.7952 
L 329.621157 508.7952 
L 332.900496 508.7952 
L 336.179835 508.7952 
L 339.459174 508.7952 
L 342.738512 508.7952 
L 346.017851 508.7952 
L 349.29719 508.7952 
L 352.576529 508.7952 
L 355.855868 508.7952 
L 359.135207 508.7952 
L 362.414545 508.7952 
L 365.693884 508.7952 
L 368.973223 508.7952 
L 372.252562 508.7952 
L 375.531901 508.7952 
L 378.81124 508.7952 
L 382.090579 508.7952 
L 385.369917 508.7952 
L 388.649256 508.7952 
L 391.928595 508.7952 
L 395.207934 508.7952 
L 398.487273 508.7952 
L 398.487273 411.338379 
L 398.487273 411.338379 
L 395.207934 411.338379 
L 391.928595 411.338379 
L 388.649256 411.338379 
L 385.369917 411.338379 
L 382.090579 411.338379 
L 378.81124 411.338379 
L 375.531901 411.338379 
L 372.252562 411.338379 
L 368.973223 411.338379 
L 365.693884 411.338379 
L 362.414545 411.338379 
L 359.135207 411.338379 
L 355.855868 411.338379 
L 352.576529 411.338379 
L 349.29719 411.338379 
L 346.017851 411.338379 
L 342.738512 411.338379 
L 339.459174 411.338379 
L 336.179835 411.338379 
L 332.900496 411.338379 
L 329.621157 411.338379 
L 326.341818 411.338379 
L 323.062479 411.338379 
L 319.78314 411.338379 
L 316.503802 411.338379 
L 313.224463 411.338379 
L 309.945124 411.338379 
L 306.665785 411.338379 
L 303.386446 411.338379 
L 300.107107 411.338379 
L 296.827769 411.338379 
L 293.54843 411.338379 
L 290.269091 411.338379 
L 286.989752 411.338379 
L 283.710413 411.338379 
L 280.431074 411.338379 
L 277.151736 411.338379 
L 273.872397 411.338379 
L 270.593058 411.338379 
L 267.313719 411.338379 
L 264.03438 411.338379 
L 260.755041 411.338379 
L 257.475702 411.338379 
L 254.196364 411.338379 
L 250.917025 411.338379 
L 247.637686 411.338379 
L 244.358347 411.338379 
L 241.079008 411.338379 
L 237.799669 411.338379 
L 234.520331 411.338379 
L 231.240992 411.338379 
L 227.961653 411.338379 
L 224.682314 411.338379 
L 221.402975 411.338379 
L 218.123636 411.338379 
L 214.844298 411.338379 
L 211.564959 411.338379 
L 208.28562 411.338379 
L 205.006281 411.338379 
L 201.726942 411.338379 
L 198.447603 411.338379 
L 195.168264 411.338379 
L 191.888926 411.338379 
L 188.609587 411.338379 
L 185.330248 411.338379 
L 182.050909 411.338379 
L 178.77157 411.338379 
L 175.492231 411.338379 
L 172.212893 411.338379 
L 168.933554 411.338379 
L 165.654215 411.338379 
L 162.374876 411.338379 
L 159.095537 411.338379 
L 155.816198 411.338379 
L 152.53686 411.338379 
L 149.257521 411.338379 
L 145.978182 411.338379 
L 142.698843 411.338379 
L 139.419504 411.338379 
L 136.140165 411.338379 
L 132.860826 411.338379 
L 129.581488 411.338379 
L 126.302149 411.338379 
L 123.02281 411.338379 
L 119.743471 411.338379 
L 116.464132 411.338379 
L 113.184793 411.338379 
L 109.905455 411.338379 
L 106.626116 411.338379 
L 103.346777 411.338379 
L 100.067438 411.338379 
L 96.788099 411.338379 
L 93.50876 411.338379 
L 90.229421 411.338379 
L 86.950083 411.338379 
L 83.670744 411.338379 
L 80.391405 411.338379 
L 77.112066 411.338379 
L 73.832727 411.338379 
z
" style="fill:#1f77b4;"/>
   </g>
   <g id="PolyCollection_2">
    <path clip-path="url(#pa85f134c33)" d="M 73.832727 400.433695 
L 73.832727 411.338379 
L 77.112066 411.338379 
L 80.391405 411.338379 
L 83.670744 411.338379 
L 86.950083 411.338379 
L 90.229421 411.338379 
L 93.50876 411.338379 
L 96.788099 411.338379 
L 100.067438 411.338379 
L 103.346777 411.338379 
L 106.626116 411.338379 
L 109.905455 411.338379 
L 113.184793 411.338379 
L 116.464132 411.338379 
L 119.743471 411.338379 
L 123.02281 411.338379 
L 126.302149 411.338379 
L 129.581488 411.338379 
L 132.860826 411.338379 
L 136.140165 411.338379 
L 139.419504 411.338379 
L 142.698843 411.338379 
L 145.978182 411.338379 
L 149.257521 411.338379 
L 152.53686 411.338379 
L 155.816198 411.338379 
L 159.095537 411.338379 
L 162.374876 411.338379 
L 165.654215 411.338379 
L 168.933554 411.338379 
L 172.212893 411.338379 
L 175.492231 411.338379 
L 178.77157 411.338379 
L 182.050909 411.338379 
L 185.330248 411.338379 
L 188.609587 411.338379 
L 191.888926 411.338379 
L 195.168264 411.338379 
L 198.447603 411.338379 
L 201.726942 411.338379 
L 205.006281 411.338379 
L 208.28562 411.338379 
L 211.564959 411.338379 
L 214.844298 411.338379 
L 218.123636 411.338379 
L 221.402975 411.338379 
L 224.682314 411.338379 
L 227.961653 411.338379 
L 231.240992 411.338379 
L 234.520331 411.338379 
L 237.799669 411.338379 
L 241.079008 411.338379 
L 244.358347 411.338379 
L 247.637686 411.338379 
L 250.917025 411.338379 
L 254.196364 411.338379 
L 257.475702 411.338379 
L 260.755041 411.338379 
L 264.03438 411.338379 
L 267.313719 411.338379 
L 270.593058 411.338379 
L 273.872397 411.338379 
L 277.151736 411.338379 
L 280.431074 411.338379 
L 283.710413 411.338379 
L 286.989752 411.338379 
L 290.269091 411.338379 
L 293.54843 411.338379 
L 296.827769 411.338379 
L 300.107107 411.338379 
L 303.386446 411.338379 
L 306.665785 411.338379 
L 309.945124 411.338379 
L 313.224463 411.338379 
L 316.503802 411.338379 
L 319.78314 411.338379 
L 323.062479 411.338379 
L 326.341818 411.338379 
L 329.621157 411.338379 
L 332.900496 411.338379 
L 336.179835 411.338379 
L 339.459174 411.338379 
L 342.738512 411.338379 
L 346.017851 411.338379 
L 349.29719 411.338379 
L 352.576529 411.338379 
L 355.855868 411.338379 
L 359.135207 411.338379 
L 362.414545 411.338379 
L 365.693884 411.338379 
L 368.973223 411.338379 
L 372.252562 411.338379 
L 375.531901 411.338379 
L 378.81124 411.338379 
L 382.090579 411.338379 
L 385.369917 411.338379 
L 388.649256 411.338379 
L 391.928595 411.338379 
L 395.207934 411.338379 
L 398.487273 411.338379 
L 398.487273 411.338379 
L 398.487273 411.338379 
L 395.207934 411.228231 
L 391.928595 411.118082 
L 388.649256 411.007934 
L 385.369917 410.897786 
L 382.090579 410.787638 
L 378.81124 410.677489 
L 375.531901 410.567341 
L 372.252562 410.457193 
L 368.973223 410.347044 
L 365.693884 410.236896 
L 362.414545 410.126748 
L 359.135207 410.016599 
L 355.855868 409.906451 
L 352.576529 409.796303 
L 349.29719 409.686154 
L 346.017851 409.576006 
L 342.738512 409.465858 
L 339.459174 409.355709 
L 336.179835 409.245561 
L 332.900496 409.135413 
L 329.621157 409.025264 
L 326.341818 408.915116 
L 323.062479 408.804968 
L 319.78314 408.694819 
L 316.503802 408.584671 
L 313.224463 408.474523 
L 309.945124 408.364374 
L 306.665785 408.254226 
L 303.386446 408.144078 
L 300.107107 408.033929 
L 296.827769 407.923781 
L 293.54843 407.813633 
L 290.269091 407.703484 
L 286.989752 407.593336 
L 283.710413 407.483188 
L 280.431074 407.373039 
L 277.151736 407.262891 
L 273.872397 407.152743 
L 270.593058 407.042594 
L 267.313719 406.932446 
L 264.03438 406.822298 
L 260.755041 406.712149 
L 257.475702 406.602001 
L 254.196364 406.491853 
L 250.917025 406.381704 
L 247.637686 406.271556 
L 244.358347 406.161408 
L 241.079008 406.051259 
L 237.799669 405.941111 
L 234.520331 405.830963 
L 231.240992 405.720814 
L 227.961653 405.610666 
L 224.682314 405.500518 
L 221.402975 405.390369 
L 218.123636 405.280221 
L 214.844298 405.170073 
L 211.564959 405.059924 
L 208.28562 404.949776 
L 205.006281 404.839628 
L 201.726942 404.729479 
L 198.447603 404.619331 
L 195.168264 404.509183 
L 191.888926 404.399035 
L 188.609587 404.288886 
L 185.330248 404.178738 
L 182.050909 404.06859 
L 178.77157 403.958441 
L 175.492231 403.848293 
L 172.212893 403.738145 
L 168.933554 403.627996 
L 165.654215 403.517848 
L 162.374876 403.4077 
L 159.095537 403.297551 
L 155.816198 403.187403 
L 152.53686 403.077255 
L 149.257521 402.967106 
L 145.978182 402.856958 
L 142.698843 402.74681 
L 139.419504 402.636661 
L 136.140165 402.526513 
L 132.860826 402.416365 
L 129.581488 402.306216 
L 126.302149 402.196068 
L 123.02281 402.08592 
L 119.743471 401.975771 
L 116.464132 401.865623 
L 113.184793 401.755475 
L 109.905455 401.645326 
L 106.626116 401.535178 
L 103.346777 401.42503 
L 100.067438 401.314881 
L 96.788099 401.204733 
L 93.50876 401.094585 
L 90.229421 400.984436 
L 86.950083 400.874288 
L 83.670744 400.76414 
L 80.391405 400.653991 
L 77.112066 400.543843 
L 73.832727 400.433695 
z
" style="fill:#aec7e8;"/>
   </g>
   <g id="PolyCollection_3">
    <path clip-path="url(#pa85f134c33)" d="M 73.832727 400.433695 
L 73.832727 400.433695 
L 77.112066 400.543843 
L 80.391405 400.653991 
L 83.670744 400.76414 
L 86.950083 400.874288 
L 90.229421 400.984436 
L 93.50876 401.094585 
L 96.788099 401.204733 
L 100.067438 401.314881 
L 103.346777 401.42503 
L 106.626116 401.535178 
L 109.905455 401.645326 
L 113.184793 401.755475 
L 116.464132 401.865623 
L 119.743471 401.975771 
L 123.02281 402.08592 
L 126.302149 402.196068 
L 129.581488 402.306216 
L 132.860826 402.416365 
L 136.140165 402.526513 
L 139.419504 402.636661 
L 142.698843 402.74681 
L 145.978182 402.856958 
L 149.257521 402.967106 
L 152.53686 403.077255 
L 155.816198 403.187403 
L 159.095537 403.297551 
L 162.374876 403.4077 
L 165.654215 403.517848 
L 168.933554 403.627996 
L 172.212893 403.738145 
L 175.492231 403.848293 
L 178.77157 403.958441 
L 182.050909 404.06859 
L 185.330248 404.178738 
L 188.609587 404.288886 
L 191.888926 404.399035 
L 195.168264 404.509183 
L 198.447603 404.619331 
L 201.726942 404.729479 
L 205.006281 404.839628 
L 208.28562 404.949776 
L 211.564959 405.059924 
L 214.844298 405.170073 
L 218.123636 405.280221 
L 221.402975 405.390369 
L 224.682314 405.500518 
L 227.961653 405.610666 
L 231.240992 405.720814 
L 234.520331 405.830963 
L 237.799669 405.941111 
L 241.079008 406.051259 
L 244.358347 406.161408 
L 247.637686 406.271556 
L 250.917025 406.381704 
L 254.196364 406.491853 
L 257.475702 406.602001 
L 260.755041 406.712149 
L 264.03438 406.822298 
L 267.313719 406.932446 
L 270.593058 407.042594 
L 273.872397 407.152743 
L 277.151736 407.262891 
L 280.431074 407.373039 
L 283.710413 407.483188 
L 286.989752 407.593336 
L 290.269091 407.703484 
L 293.54843 407.813633 
L 296.827769 407.923781 
L 300.107107 408.033929 
L 303.386446 408.144078 
L 306.665785 408.254226 
L 309.945124 408.364374 
L 313.224463 408.474523 
L 316.503802 408.584671 
L 319.78314 408.694819 
L 323.062479 408.804968 
L 326.341818 408.915116 
L 329.621157 409.025264 
L 332.900496 409.135413 
L 336.179835 409.245561 
L 339.459174 409.355709 
L 342.738512 409.465858 
L 346.017851 409.576006 
L 349.29719 409.686154 
L 352.576529 409.796303 
L 355.855868 409.906451 
L 359.135207 410.016599 
L 362.414545 410.126748 
L 365.693884 410.236896 
L 368.973223 410.347044 
L 372.252562 410.457193 
L 375.531901 410.567341 
L 378.81124 410.677489 
L 382.090579 410.787638 
L 385.369917 410.897786 
L 388.649256 411.007934 
L 391.928595 411.118082 
L 395.207934 411.228231 
L 398.487273 411.338379 
L 398.487273 379.236122 
L 398.487273 379.236122 
L 395.207934 379.448711 
L 391.928595 379.661414 
L 388.649256 379.874564 
L 385.369917 380.087743 
L 382.090579 380.300996 
L 378.81124 380.514388 
L 375.531901 380.727873 
L 372.252562 380.941492 
L 368.973223 381.155115 
L 365.693884 381.368739 
L 362.414545 381.582374 
L 359.135207 381.796013 
L 355.855868 382.009652 
L 352.576529 382.223302 
L 349.29719 382.436956 
L 346.017851 382.65061 
L 342.738512 382.864263 
L 339.459174 383.077932 
L 336.179835 383.291612 
L 332.900496 383.505293 
L 329.621157 383.718973 
L 326.341818 383.932654 
L 323.062479 384.146335 
L 319.78314 384.360018 
L 316.503802 384.573706 
L 313.224463 384.787394 
L 309.945124 385.001085 
L 306.665785 385.214789 
L 303.386446 385.428492 
L 300.107107 385.642196 
L 296.827769 385.856107 
L 293.54843 386.070106 
L 290.269091 386.284217 
L 286.989752 386.498525 
L 283.710413 386.712833 
L 280.431074 386.927141 
L 277.151736 387.14145 
L 273.872397 387.355758 
L 270.593058 387.570066 
L 267.313719 387.784375 
L 264.03438 387.998695 
L 260.755041 388.213018 
L 257.475702 388.427342 
L 254.196364 388.641665 
L 250.917025 388.855989 
L 247.637686 389.070312 
L 244.358347 389.284636 
L 241.079008 389.498959 
L 237.799669 389.713283 
L 234.520331 389.92761 
L 231.240992 390.14194 
L 227.961653 390.35627 
L 224.682314 390.5706 
L 221.402975 390.78493 
L 218.123636 390.999264 
L 214.844298 391.213613 
L 211.564959 391.427964 
L 208.28562 391.642322 
L 205.006281 391.85668 
L 201.726942 392.071038 
L 198.447603 392.285408 
L 195.168264 392.499796 
L 191.888926 392.714193 
L 188.609587 392.928601 
L 185.330248 393.14301 
L 182.050909 393.357418 
L 178.77157 393.571827 
L 175.492231 393.786235 
L 172.212893 394.00065 
L 168.933554 394.215068 
L 165.654215 394.429487 
L 162.374876 394.643905 
L 159.095537 394.858324 
L 155.816198 395.072744 
L 152.53686 395.287175 
L 149.257521 395.501607 
L 145.978182 395.716038 
L 142.698843 395.930477 
L 139.419504 396.144916 
L 136.140165 396.359355 
L 132.860826 396.573794 
L 129.581488 396.788233 
L 126.302149 397.002672 
L 123.02281 397.217111 
L 119.743471 397.43155 
L 116.464132 397.645988 
L 113.184793 397.860427 
L 109.905455 398.074866 
L 106.626116 398.289305 
L 103.346777 398.503744 
L 100.067438 398.718183 
L 96.788099 398.932622 
L 93.50876 399.147061 
L 90.229421 399.3615 
L 86.950083 399.575939 
L 83.670744 399.790378 
L 80.391405 400.004817 
L 77.112066 400.219256 
L 73.832727 400.433695 
z
" style="fill:#ff7f0e;"/>
   </g>
   <g id="PolyCollection_4">
    <path clip-path="url(#pa85f134c33)" d="M 73.832727 394.372887 
L 73.832727 400.433695 
L 77.112066 400.219256 
L 80.391405 400.004817 
L 83.670744 399.790378 
L 86.950083 399.575939 
L 90.229421 399.3615 
L 93.50876 399.147061 
L 96.788099 398.932622 
L 100.067438 398.718183 
L 103.346777 398.503744 
L 106.626116 398.289305 
L 109.905455 398.074866 
L 113.184793 397.860427 
L 116.464132 397.645988 
L 119.743471 397.43155 
L 123.02281 397.217111 
L 126.302149 397.002672 
L 129.581488 396.788233 
L 132.860826 396.573794 
L 136.140165 396.359355 
L 139.419504 396.144916 
L 142.698843 395.930477 
L 145.978182 395.716038 
L 149.257521 395.501607 
L 152.53686 395.287175 
L 155.816198 395.072744 
L 159.095537 394.858324 
L 162.374876 394.643905 
L 165.654215 394.429487 
L 168.933554 394.215068 
L 172.212893 394.00065 
L 175.492231 393.786235 
L 178.77157 393.571827 
L 182.050909 393.357418 
L 185.330248 393.14301 
L 188.609587 392.928601 
L 191.888926 392.714193 
L 195.168264 392.499796 
L 198.447603 392.285408 
L 201.726942 392.071038 
L 205.006281 391.85668 
L 208.28562 391.642322 
L 211.564959 391.427964 
L 214.844298 391.213613 
L 218.123636 390.999264 
L 221.402975 390.78493 
L 224.682314 390.5706 
L 227.961653 390.35627 
L 231.240992 390.14194 
L 234.520331 389.92761 
L 237.799669 389.713283 
L 241.079008 389.498959 
L 244.358347 389.284636 
L 247.637686 389.070312 
L 250.917025 388.855989 
L 254.196364 388.641665 
L 257.475702 388.427342 
L 260.755041 388.213018 
L 264.03438 387.998695 
L 267.313719 387.784375 
L 270.593058 387.570066 
L 273.872397 387.355758 
L 277.151736 387.14145 
L 280.431074 386.927141 
L 283.710413 386.712833 
L 286.989752 386.498525 
L 290.269091 386.284217 
L 293.54843 386.070106 
L 296.827769 385.856107 
L 300.107107 385.642196 
L 303.386446 385.428492 
L 306.665785 385.214789 
L 309.945124 385.001085 
L 313.224463 384.787394 
L 316.503802 384.573706 
L 319.78314 384.360018 
L 323.062479 384.146335 
L 326.341818 383.932654 
L 329.621157 383.718973 
L 332.900496 383.505293 
L 336.179835 383.291612 
L 339.459174 383.077932 
L 342.738512 382.864263 
L 346.017851 382.65061 
L 349.29719 382.436956 
L 352.576529 382.223302 
L 355.855868 382.009652 
L 359.135207 381.796013 
L 362.414545 381.582374 
L 365.693884 381.368739 
L 368.973223 381.155115 
L 372.252562 380.941492 
L 375.531901 380.727873 
L 378.81124 380.514388 
L 382.090579 380.300996 
L 385.369917 380.087743 
L 388.649256 379.874564 
L 391.928595 379.661414 
L 395.207934 379.448711 
L 398.487273 379.236122 
L 398.487273 373.176581 
L 398.487273 373.176581 
L 395.207934 373.389062 
L 391.928595 373.601664 
L 388.649256 373.814336 
L 385.369917 374.027252 
L 382.090579 374.240418 
L 378.81124 374.453779 
L 375.531901 374.667176 
L 372.252562 374.880783 
L 368.973223 375.094406 
L 365.693884 375.308029 
L 362.414545 375.521664 
L 359.135207 375.735303 
L 355.855868 375.948942 
L 352.576529 376.162593 
L 349.29719 376.376246 
L 346.017851 376.5899 
L 342.738512 376.803554 
L 339.459174 377.017222 
L 336.179835 377.230902 
L 332.900496 377.444583 
L 329.621157 377.658264 
L 326.341818 377.871944 
L 323.062479 378.085625 
L 319.78314 378.299308 
L 316.503802 378.512996 
L 313.224463 378.726684 
L 309.945124 378.940376 
L 306.665785 379.154079 
L 303.386446 379.367783 
L 300.107107 379.581486 
L 296.827769 379.795338 
L 293.54843 380.009337 
L 290.269091 380.223409 
L 286.989752 380.437717 
L 283.710413 380.652025 
L 280.431074 380.866334 
L 277.151736 381.080642 
L 273.872397 381.29495 
L 270.593058 381.509258 
L 267.313719 381.723567 
L 264.03438 381.937887 
L 260.755041 382.152211 
L 257.475702 382.366534 
L 254.196364 382.580857 
L 250.917025 382.795181 
L 247.637686 383.009504 
L 244.358347 383.223828 
L 241.079008 383.438151 
L 237.799669 383.652475 
L 234.520331 383.866802 
L 231.240992 384.081132 
L 227.961653 384.295462 
L 224.682314 384.509792 
L 221.402975 384.724122 
L 218.123636 384.938456 
L 214.844298 385.152805 
L 211.564959 385.367156 
L 208.28562 385.581514 
L 205.006281 385.795872 
L 201.726942 386.01023 
L 198.447603 386.2246 
L 195.168264 386.438988 
L 191.888926 386.653385 
L 188.609587 386.867793 
L 185.330248 387.082202 
L 182.050909 387.29661 
L 178.77157 387.511019 
L 175.492231 387.725427 
L 172.212893 387.939842 
L 168.933554 388.15426 
L 165.654215 388.368679 
L 162.374876 388.583097 
L 159.095537 388.797516 
L 155.816198 389.011936 
L 152.53686 389.226367 
L 149.257521 389.440799 
L 145.978182 389.65523 
L 142.698843 389.869669 
L 139.419504 390.084108 
L 136.140165 390.298547 
L 132.860826 390.512986 
L 129.581488 390.727425 
L 126.302149 390.941864 
L 123.02281 391.156303 
L 119.743471 391.370742 
L 116.464132 391.585181 
L 113.184793 391.799619 
L 109.905455 392.014058 
L 106.626116 392.228497 
L 103.346777 392.442936 
L 100.067438 392.657375 
L 96.788099 392.871814 
L 93.50876 393.086253 
L 90.229421 393.300692 
L 86.950083 393.515131 
L 83.670744 393.72957 
L 80.391405 393.944009 
L 77.112066 394.158448 
L 73.832727 394.372887 
z
" style="fill:#ffbb78;"/>
   </g>
   <g id="PolyCollection_5">
    <path clip-path="url(#pa85f134c33)" d="M 73.832727 382.85619 
L 73.832727 394.372887 
L 77.112066 394.158448 
L 80.391405 393.944009 
L 83.670744 393.72957 
L 86.950083 393.515131 
L 90.229421 393.300692 
L 93.50876 393.086253 
L 96.788099 392.871814 
L 100.067438 392.657375 
L 103.346777 392.442936 
L 106.626116 392.228497 
L 109.905455 392.014058 
L 113.184793 391.799619 
L 116.464132 391.585181 
L 119.743471 391.370742 
L 123.02281 391.156303 
L 126.302149 390.941864 
L 129.581488 390.727425 
L 132.860826 390.512986 
L 136.140165 390.298547 
L 139.419504 390.084108 
L 142.698843 389.869669 
L 145.978182 389.65523 
L 149.257521 389.440799 
L 152.53686 389.226367 
L 155.816198 389.011936 
L 159.095537 388.797516 
L 162.374876 388.583097 
L 165.654215 388.368679 
L 168.933554 388.15426 
L 172.212893 387.939842 
L 175.492231 387.725427 
L 178.77157 387.511019 
L 182.050909 387.29661 
L 185.330248 387.082202 
L 188.609587 386.867793 
L 191.888926 386.653385 
L 195.168264 386.438988 
L 198.447603 386.2246 
L 201.726942 386.01023 
L 205.006281 385.795872 
L 208.28562 385.581514 
L 211.564959 385.367156 
L 214.844298 385.152805 
L 218.123636 384.938456 
L 221.402975 384.724122 
L 224.682314 384.509792 
L 227.961653 384.295462 
L 231.240992 384.081132 
L 234.520331 383.866802 
L 237.799669 383.652475 
L 241.079008 383.438151 
L 244.358347 383.223828 
L 247.637686 383.009504 
L 250.917025 382.795181 
L 254.196364 382.580857 
L 257.475702 382.366534 
L 260.755041 382.152211 
L 264.03438 381.937887 
L 267.313719 381.723567 
L 270.593058 381.509258 
L 273.872397 381.29495 
L 277.151736 381.080642 
L 280.431074 380.866334 
L 283.710413 380.652025 
L 286.989752 380.437717 
L 290.269091 380.223409 
L 293.54843 380.009337 
L 296.827769 379.795338 
L 300.107107 379.581486 
L 303.386446 379.367783 
L 306.665785 379.154079 
L 309.945124 378.940376 
L 313.224463 378.726684 
L 316.503802 378.512996 
L 319.78314 378.299308 
L 323.062479 378.085625 
L 326.341818 377.871944 
L 329.621157 377.658264 
L 332.900496 377.444583 
L 336.179835 377.230902 
L 339.459174 377.017222 
L 342.738512 376.803554 
L 346.017851 376.5899 
L 349.29719 376.376246 
L 352.576529 376.162593 
L 355.855868 375.948942 
L 359.135207 375.735303 
L 362.414545 375.521664 
L 365.693884 375.308029 
L 368.973223 375.094406 
L 372.252562 374.880783 
L 375.531901 374.667176 
L 378.81124 374.453779 
L 382.090579 374.240418 
L 385.369917 374.027252 
L 388.649256 373.814336 
L 391.928595 373.601664 
L 395.207934 373.389062 
L 398.487273 373.176581 
L 398.487273 373.176581 
L 398.487273 373.176581 
L 395.207934 373.273338 
L 391.928595 373.370156 
L 388.649256 373.467028 
L 385.369917 373.564055 
L 382.090579 373.661215 
L 378.81124 373.758518 
L 375.531901 373.855904 
L 372.252562 373.95346 
L 368.973223 374.050987 
L 365.693884 374.14864 
L 362.414545 374.246231 
L 359.135207 374.343629 
L 355.855868 374.441031 
L 352.576529 374.53843 
L 349.29719 374.6358 
L 346.017851 374.733167 
L 342.738512 374.830608 
L 339.459174 374.928117 
L 336.179835 375.025731 
L 332.900496 375.123345 
L 329.621157 375.220934 
L 326.341818 375.318337 
L 323.062479 375.415596 
L 319.78314 375.512758 
L 316.503802 375.610012 
L 313.224463 375.707147 
L 309.945124 375.804211 
L 306.665785 375.901226 
L 303.386446 375.998246 
L 300.107107 376.095525 
L 296.827769 376.193091 
L 293.54843 376.290877 
L 290.269091 376.388734 
L 286.989752 376.486826 
L 283.710413 376.584918 
L 280.431074 376.683009 
L 277.151736 376.780829 
L 273.872397 376.878622 
L 270.593058 376.976107 
L 267.313719 377.073656 
L 264.03438 377.171419 
L 260.755041 377.269186 
L 257.475702 377.367075 
L 254.196364 377.465118 
L 250.917025 377.563162 
L 247.637686 377.661205 
L 244.358347 377.759248 
L 241.079008 377.857286 
L 237.799669 377.955321 
L 234.520331 378.053359 
L 231.240992 378.1514 
L 227.961653 378.249442 
L 224.682314 378.34748 
L 221.402975 378.445515 
L 218.123636 378.543553 
L 214.844298 378.641606 
L 211.564959 378.739662 
L 208.28562 378.837719 
L 205.006281 378.935761 
L 201.726942 379.033804 
L 198.447603 379.131846 
L 195.168264 379.229907 
L 191.888926 379.32797 
L 188.609587 379.426037 
L 185.330248 379.524103 
L 182.050909 379.622163 
L 178.77157 379.720221 
L 175.492231 379.81828 
L 172.212893 379.916344 
L 168.933554 380.014412 
L 165.654215 380.112474 
L 162.374876 380.210532 
L 159.095537 380.30858 
L 155.816198 380.406623 
L 152.53686 380.504671 
L 149.257521 380.602719 
L 145.978182 380.700768 
L 142.698843 380.798823 
L 139.419504 380.896878 
L 136.140165 380.994933 
L 132.860826 381.092987 
L 129.581488 381.191042 
L 126.302149 381.289092 
L 123.02281 381.387101 
L 119.743471 381.485102 
L 116.464132 381.583098 
L 113.184793 381.681094 
L 109.905455 381.779072 
L 106.626116 381.877045 
L 103.346777 381.975011 
L 100.067438 382.07297 
L 96.788099 382.170927 
L 93.50876 382.268876 
L 90.229421 382.366789 
L 86.950083 382.464696 
L 83.670744 382.562591 
L 80.391405 382.660467 
L 77.112066 382.758333 
L 73.832727 382.85619 
z
" style="fill:#2ca02c;"/>
   </g>
   <g id="PolyCollection_6">
    <path clip-path="url(#pa85f134c33)" d="M 73.832727 382.85619 
L 73.832727 382.85619 
L 77.112066 382.758333 
L 80.391405 382.660467 
L 83.670744 382.562591 
L 86.950083 382.464696 
L 90.229421 382.366789 
L 93.50876 382.268876 
L 96.788099 382.170927 
L 100.067438 382.07297 
L 103.346777 381.975011 
L 106.626116 381.877045 
L 109.905455 381.779072 
L 113.184793 381.681094 
L 116.464132 381.583098 
L 119.743471 381.485102 
L 123.02281 381.387101 
L 126.302149 381.289092 
L 129.581488 381.191042 
L 132.860826 381.092987 
L 136.140165 380.994933 
L 139.419504 380.896878 
L 142.698843 380.798823 
L 145.978182 380.700768 
L 149.257521 380.602719 
L 152.53686 380.504671 
L 155.816198 380.406623 
L 159.095537 380.30858 
L 162.374876 380.210532 
L 165.654215 380.112474 
L 168.933554 380.014412 
L 172.212893 379.916344 
L 175.492231 379.81828 
L 178.77157 379.720221 
L 182.050909 379.622163 
L 185.330248 379.524103 
L 188.609587 379.426037 
L 191.888926 379.32797 
L 195.168264 379.229907 
L 198.447603 379.131846 
L 201.726942 379.033804 
L 205.006281 378.935761 
L 208.28562 378.837719 
L 211.564959 378.739662 
L 214.844298 378.641606 
L 218.123636 378.543553 
L 221.402975 378.445515 
L 224.682314 378.34748 
L 227.961653 378.249442 
L 231.240992 378.1514 
L 234.520331 378.053359 
L 237.799669 377.955321 
L 241.079008 377.857286 
L 244.358347 377.759248 
L 247.637686 377.661205 
L 250.917025 377.563162 
L 254.196364 377.465118 
L 257.475702 377.367075 
L 260.755041 377.269186 
L 264.03438 377.171419 
L 267.313719 377.073656 
L 270.593058 376.976107 
L 273.872397 376.878622 
L 277.151736 376.780829 
L 280.431074 376.683009 
L 283.710413 376.584918 
L 286.989752 376.486826 
L 290.269091 376.388734 
L 293.54843 376.290877 
L 296.827769 376.193091 
L 300.107107 376.095525 
L 303.386446 375.998246 
L 306.665785 375.901226 
L 309.945124 375.804211 
L 313.224463 375.707147 
L 316.503802 375.610012 
L 319.78314 375.512758 
L 323.062479 375.415596 
L 326.341818 375.318337 
L 329.621157 375.220934 
L 332.900496 375.123345 
L 336.179835 375.025731 
L 339.459174 374.928117 
L 342.738512 374.830608 
L 346.017851 374.733167 
L 349.29719 374.6358 
L 352.576529 374.53843 
L 355.855868 374.441031 
L 359.135207 374.343629 
L 362.414545 374.246231 
L 365.693884 374.14864 
L 368.973223 374.050987 
L 372.252562 373.95346 
L 375.531901 373.855904 
L 378.81124 373.758518 
L 382.090579 373.661215 
L 385.369917 373.564055 
L 388.649256 373.467028 
L 391.928595 373.370156 
L 395.207934 373.273338 
L 398.487273 373.176581 
L 398.487273 340.866076 
L 398.487273 340.866076 
L 395.207934 341.198401 
L 391.928595 341.533477 
L 388.649256 341.870695 
L 385.369917 342.21051 
L 382.090579 342.552689 
L 378.81124 342.896977 
L 375.531901 343.243434 
L 372.252562 343.591925 
L 368.973223 343.942909 
L 365.693884 344.296313 
L 362.414545 344.652167 
L 359.135207 345.009845 
L 355.855868 345.37028 
L 352.576529 345.733016 
L 349.29719 346.098211 
L 346.017851 346.465773 
L 342.738512 346.8351 
L 339.459174 347.20623 
L 336.179835 347.580285 
L 332.900496 347.95702 
L 329.621157 348.336859 
L 326.341818 348.719108 
L 323.062479 349.103933 
L 319.78314 349.4906 
L 316.503802 349.879368 
L 313.224463 350.270815 
L 309.945124 350.664682 
L 306.665785 351.060373 
L 303.386446 351.459113 
L 300.107107 351.859825 
L 296.827769 352.263013 
L 293.54843 352.668921 
L 290.269091 353.077082 
L 286.989752 353.487621 
L 283.710413 353.90074 
L 280.431074 354.316489 
L 277.151736 354.734303 
L 273.872397 355.15479 
L 270.593058 355.578302 
L 267.313719 356.004391 
L 264.03438 356.432677 
L 260.755041 356.863012 
L 257.475702 357.295218 
L 254.196364 357.730175 
L 250.917025 358.167053 
L 247.637686 358.605197 
L 244.358347 359.044891 
L 241.079008 359.485134 
L 237.799669 359.926503 
L 234.520331 360.369707 
L 231.240992 360.8146 
L 227.961653 361.260663 
L 224.682314 361.70845 
L 221.402975 362.157339 
L 218.123636 362.607171 
L 214.844298 363.058832 
L 211.564959 363.510999 
L 208.28562 363.963402 
L 205.006281 364.416946 
L 201.726942 364.871492 
L 198.447603 365.32684 
L 195.168264 365.782523 
L 191.888926 366.238901 
L 188.609587 366.695647 
L 185.330248 367.15305 
L 182.050909 367.610822 
L 178.77157 368.069074 
L 175.492231 368.528535 
L 172.212893 368.989356 
L 168.933554 369.450772 
L 165.654215 369.912183 
L 162.374876 370.37397 
L 159.095537 370.836238 
L 155.816198 371.298602 
L 152.53686 371.760971 
L 149.257521 372.22334 
L 145.978182 372.685709 
L 142.698843 373.148086 
L 139.419504 373.610461 
L 136.140165 374.072837 
L 132.860826 374.535212 
L 129.581488 374.997588 
L 126.302149 375.459958 
L 123.02281 375.922288 
L 119.743471 376.38461 
L 116.464132 376.846927 
L 113.184793 377.309244 
L 109.905455 377.771543 
L 106.626116 378.233836 
L 103.346777 378.696123 
L 100.067438 379.158403 
L 96.788099 379.620681 
L 93.50876 380.082951 
L 90.229421 380.545185 
L 86.950083 381.007413 
L 83.670744 381.469628 
L 80.391405 381.931825 
L 77.112066 382.394012 
L 73.832727 382.85619 
z
" style="fill:#98df8a;"/>
   </g>
   <g id="PolyCollection_7">
    <path clip-path="url(#pa85f134c33)" d="M 73.832727 360.865761 
L 73.832727 382.85619 
L 77.112066 382.394012 
L 80.391405 381.931825 
L 83.670744 381.469628 
L 86.950083 381.007413 
L 90.229421 380.545185 
L 93.50876 380.082951 
L 96.788099 379.620681 
L 100.067438 379.158403 
L 103.346777 378.696123 
L 106.626116 378.233836 
L 109.905455 377.771543 
L 113.184793 377.309244 
L 116.464132 376.846927 
L 119.743471 376.38461 
L 123.02281 375.922288 
L 126.302149 375.459958 
L 129.581488 374.997588 
L 132.860826 374.535212 
L 136.140165 374.072837 
L 139.419504 373.610461 
L 142.698843 373.148086 
L 145.978182 372.685709 
L 149.257521 372.22334 
L 152.53686 371.760971 
L 155.816198 371.298602 
L 159.095537 370.836238 
L 162.374876 370.37397 
L 165.654215 369.912183 
L 168.933554 369.450772 
L 172.212893 368.989356 
L 175.492231 368.528535 
L 178.77157 368.069074 
L 182.050909 367.610822 
L 185.330248 367.15305 
L 188.609587 366.695647 
L 191.888926 366.238901 
L 195.168264 365.782523 
L 198.447603 365.32684 
L 201.726942 364.871492 
L 205.006281 364.416946 
L 208.28562 363.963402 
L 211.564959 363.510999 
L 214.844298 363.058832 
L 218.123636 362.607171 
L 221.402975 362.157339 
L 224.682314 361.70845 
L 227.961653 361.260663 
L 231.240992 360.8146 
L 234.520331 360.369707 
L 237.799669 359.926503 
L 241.079008 359.485134 
L 244.358347 359.044891 
L 247.637686 358.605197 
L 250.917025 358.167053 
L 254.196364 357.730175 
L 257.475702 357.295218 
L 260.755041 356.863012 
L 264.03438 356.432677 
L 267.313719 356.004391 
L 270.593058 355.578302 
L 273.872397 355.15479 
L 277.151736 354.734303 
L 280.431074 354.316489 
L 283.710413 353.90074 
L 286.989752 353.487621 
L 290.269091 353.077082 
L 293.54843 352.668921 
L 296.827769 352.263013 
L 300.107107 351.859825 
L 303.386446 351.459113 
L 306.665785 351.060373 
L 309.945124 350.664682 
L 313.224463 350.270815 
L 316.503802 349.879368 
L 319.78314 349.4906 
L 323.062479 349.103933 
L 326.341818 348.719108 
L 329.621157 348.336859 
L 332.900496 347.95702 
L 336.179835 347.580285 
L 339.459174 347.20623 
L 342.738512 346.8351 
L 346.017851 346.465773 
L 349.29719 346.098211 
L 352.576529 345.733016 
L 355.855868 345.37028 
L 359.135207 345.009845 
L 362.414545 344.652167 
L 365.693884 344.296313 
L 368.973223 343.942909 
L 372.252562 343.591925 
L 375.531901 343.243434 
L 378.81124 342.896977 
L 382.090579 342.552689 
L 385.369917 342.21051 
L 388.649256 341.870695 
L 391.928595 341.533477 
L 395.207934 341.198401 
L 398.487273 340.866076 
L 398.487273 318.891591 
L 398.487273 318.891591 
L 395.207934 319.223291 
L 391.928595 319.557674 
L 388.649256 319.894128 
L 385.369917 320.232937 
L 382.090579 320.574161 
L 378.81124 320.917336 
L 375.531901 321.262792 
L 372.252562 321.610132 
L 368.973223 321.960107 
L 365.693884 322.312672 
L 362.414545 322.667953 
L 359.135207 323.02506 
L 355.855868 323.384925 
L 352.576529 323.747079 
L 349.29719 324.111739 
L 346.017851 324.47889 
L 342.738512 324.847843 
L 339.459174 325.218853 
L 336.179835 325.592859 
L 332.900496 325.969544 
L 329.621157 326.349334 
L 326.341818 326.731553 
L 323.062479 327.116351 
L 319.78314 327.502988 
L 316.503802 327.891723 
L 313.224463 328.283136 
L 309.945124 328.676964 
L 306.665785 329.072606 
L 303.386446 329.471302 
L 300.107107 329.871971 
L 296.827769 330.274981 
L 293.54843 330.680574 
L 290.269091 331.088351 
L 286.989752 331.49827 
L 283.710413 331.911013 
L 280.431074 332.326459 
L 277.151736 332.744273 
L 273.872397 333.16476 
L 270.593058 333.588272 
L 267.313719 334.01436 
L 264.03438 334.442634 
L 260.755041 334.872954 
L 257.475702 335.305153 
L 254.196364 335.740108 
L 250.917025 336.176986 
L 247.637686 336.61513 
L 244.358347 337.054824 
L 241.079008 337.495066 
L 237.799669 337.936435 
L 234.520331 338.379636 
L 231.240992 338.824522 
L 227.961653 339.270578 
L 224.682314 339.718359 
L 221.402975 340.167242 
L 218.123636 340.617063 
L 214.844298 341.068703 
L 211.564959 341.520849 
L 208.28562 341.973228 
L 205.006281 342.426761 
L 201.726942 342.881303 
L 198.447603 343.33664 
L 195.168264 343.792292 
L 191.888926 344.248632 
L 188.609587 344.705327 
L 185.330248 345.162706 
L 182.050909 345.620477 
L 178.77157 346.07873 
L 175.492231 346.53819 
L 172.212893 346.999005 
L 168.933554 347.460412 
L 165.654215 347.921813 
L 162.374876 348.383592 
L 159.095537 348.84586 
L 155.816198 349.308222 
L 152.53686 349.770578 
L 149.257521 350.232934 
L 145.978182 350.695297 
L 142.698843 351.157666 
L 139.419504 351.620034 
L 136.140165 352.082408 
L 132.860826 352.544784 
L 129.581488 353.007159 
L 126.302149 353.46953 
L 123.02281 353.93186 
L 119.743471 354.394182 
L 116.464132 354.856499 
L 113.184793 355.318816 
L 109.905455 355.781114 
L 106.626116 356.243408 
L 103.346777 356.705695 
L 100.067438 357.167975 
L 96.788099 357.630252 
L 93.50876 358.092523 
L 90.229421 358.554756 
L 86.950083 359.016984 
L 83.670744 359.4792 
L 80.391405 359.941397 
L 77.112066 360.403584 
L 73.832727 360.865761 
z
" style="fill:#d62728;"/>
   </g>
   <g id="PolyCollection_8">
    <path clip-path="url(#pa85f134c33)" d="M 73.832727 333.960869 
L 73.832727 360.865761 
L 77.112066 360.403584 
L 80.391405 359.941397 
L 83.670744 359.4792 
L 86.950083 359.016984 
L 90.229421 358.554756 
L 93.50876 358.092523 
L 96.788099 357.630252 
L 100.067438 357.167975 
L 103.346777 356.705695 
L 106.626116 356.243408 
L 109.905455 355.781114 
L 113.184793 355.318816 
L 116.464132 354.856499 
L 119.743471 354.394182 
L 123.02281 353.93186 
L 126.302149 353.46953 
L 129.581488 353.007159 
L 132.860826 352.544784 
L 136.140165 352.082408 
L 139.419504 351.620034 
L 142.698843 351.157666 
L 145.978182 350.695297 
L 149.257521 350.232934 
L 152.53686 349.770578 
L 155.816198 349.308222 
L 159.095537 348.84586 
L 162.374876 348.383592 
L 165.654215 347.921813 
L 168.933554 347.460412 
L 172.212893 346.999005 
L 175.492231 346.53819 
L 178.77157 346.07873 
L 182.050909 345.620477 
L 185.330248 345.162706 
L 188.609587 344.705327 
L 191.888926 344.248632 
L 195.168264 343.792292 
L 198.447603 343.33664 
L 201.726942 342.881303 
L 205.006281 342.426761 
L 208.28562 341.973228 
L 211.564959 341.520849 
L 214.844298 341.068703 
L 218.123636 340.617063 
L 221.402975 340.167242 
L 224.682314 339.718359 
L 227.961653 339.270578 
L 231.240992 338.824522 
L 234.520331 338.379636 
L 237.799669 337.936435 
L 241.079008 337.495066 
L 244.358347 337.054824 
L 247.637686 336.61513 
L 250.917025 336.176986 
L 254.196364 335.740108 
L 257.475702 335.305153 
L 260.755041 334.872954 
L 264.03438 334.442634 
L 267.313719 334.01436 
L 270.593058 333.588272 
L 273.872397 333.16476 
L 277.151736 332.744273 
L 280.431074 332.326459 
L 283.710413 331.911013 
L 286.989752 331.49827 
L 290.269091 331.088351 
L 293.54843 330.680574 
L 296.827769 330.274981 
L 300.107107 329.871971 
L 303.386446 329.471302 
L 306.665785 329.072606 
L 309.945124 328.676964 
L 313.224463 328.283136 
L 316.503802 327.891723 
L 319.78314 327.502988 
L 323.062479 327.116351 
L 326.341818 326.731553 
L 329.621157 326.349334 
L 332.900496 325.969544 
L 336.179835 325.592859 
L 339.459174 325.218853 
L 342.738512 324.847843 
L 346.017851 324.47889 
L 349.29719 324.111739 
L 352.576529 323.747079 
L 355.855868 323.384925 
L 359.135207 323.02506 
L 362.414545 322.667953 
L 365.693884 322.312672 
L 368.973223 321.960107 
L 372.252562 321.610132 
L 375.531901 321.262792 
L 378.81124 320.917336 
L 382.090579 320.574161 
L 385.369917 320.232937 
L 388.649256 319.894128 
L 391.928595 319.557674 
L 395.207934 319.223291 
L 398.487273 318.891591 
L 398.487273 292.033182 
L 398.487273 292.033182 
L 395.207934 292.362687 
L 391.928595 292.69497 
L 388.649256 293.029525 
L 385.369917 293.366692 
L 382.090579 293.70624 
L 378.81124 294.047973 
L 375.531901 294.391959 
L 372.252562 294.73784 
L 368.973223 295.086329 
L 365.693884 295.437317 
L 362.414545 295.790842 
L 359.135207 296.146384 
L 355.855868 296.504927 
L 352.576529 296.865986 
L 349.29719 297.229709 
L 346.017851 297.595938 
L 342.738512 297.964001 
L 339.459174 298.333935 
L 336.179835 298.706781 
L 332.900496 299.082306 
L 329.621157 299.460961 
L 326.341818 299.842212 
L 323.062479 300.226183 
L 319.78314 300.612143 
L 316.503802 301.000205 
L 313.224463 301.391125 
L 309.945124 301.784702 
L 306.665785 302.180213 
L 303.386446 302.578774 
L 300.107107 302.979306 
L 296.827769 303.382166 
L 293.54843 303.787598 
L 290.269091 304.195213 
L 286.989752 304.604972 
L 283.710413 305.01731 
L 280.431074 305.432279 
L 277.151736 305.849584 
L 273.872397 306.269589 
L 270.593058 306.692928 
L 267.313719 307.118843 
L 264.03438 307.546945 
L 260.755041 307.977092 
L 257.475702 308.409111 
L 254.196364 308.843879 
L 250.917025 309.28057 
L 247.637686 309.718525 
L 244.358347 310.158031 
L 241.079008 310.598092 
L 237.799669 311.039281 
L 234.520331 311.482303 
L 231.240992 311.927009 
L 227.961653 312.372887 
L 224.682314 312.820491 
L 221.402975 313.2692 
L 218.123636 313.71885 
L 214.844298 314.170312 
L 211.564959 314.62228 
L 208.28562 315.074481 
L 205.006281 315.527838 
L 201.726942 315.982197 
L 198.447603 316.437358 
L 195.168264 316.892836 
L 191.888926 317.349006 
L 188.609587 317.805541 
L 185.330248 318.262732 
L 182.050909 318.720299 
L 178.77157 319.178349 
L 175.492231 319.637607 
L 172.212893 320.098219 
L 168.933554 320.559423 
L 165.654215 321.020627 
L 162.374876 321.482211 
L 159.095537 321.944287 
L 155.816198 322.406463 
L 152.53686 322.868639 
L 149.257521 323.330815 
L 145.978182 323.792992 
L 142.698843 324.255168 
L 139.419504 324.717344 
L 136.140165 325.17952 
L 132.860826 325.641697 
L 129.581488 326.103873 
L 126.302149 326.566049 
L 123.02281 327.028225 
L 119.743471 327.490402 
L 116.464132 327.952578 
L 113.184793 328.414754 
L 109.905455 328.87693 
L 106.626116 329.339106 
L 103.346777 329.801283 
L 100.067438 330.263459 
L 96.788099 330.725635 
L 93.50876 331.187811 
L 90.229421 331.649988 
L 86.950083 332.112164 
L 83.670744 332.57434 
L 80.391405 333.036516 
L 77.112066 333.498693 
L 73.832727 333.960869 
z
" style="fill:#ff9896;"/>
   </g>
   <g id="PolyCollection_9">
    <path clip-path="url(#pa85f134c33)" d="M 73.832727 329.813965 
L 73.832727 333.960869 
L 77.112066 333.498693 
L 80.391405 333.036516 
L 83.670744 332.57434 
L 86.950083 332.112164 
L 90.229421 331.649988 
L 93.50876 331.187811 
L 96.788099 330.725635 
L 100.067438 330.263459 
L 103.346777 329.801283 
L 106.626116 329.339106 
L 109.905455 328.87693 
L 113.184793 328.414754 
L 116.464132 327.952578 
L 119.743471 327.490402 
L 123.02281 327.028225 
L 126.302149 326.566049 
L 129.581488 326.103873 
L 132.860826 325.641697 
L 136.140165 325.17952 
L 139.419504 324.717344 
L 142.698843 324.255168 
L 145.978182 323.792992 
L 149.257521 323.330815 
L 152.53686 322.868639 
L 155.816198 322.406463 
L 159.095537 321.944287 
L 162.374876 321.482211 
L 165.654215 321.020627 
L 168.933554 320.559423 
L 172.212893 320.098219 
L 175.492231 319.637607 
L 178.77157 319.178349 
L 182.050909 318.720299 
L 185.330248 318.262732 
L 188.609587 317.805541 
L 191.888926 317.349006 
L 195.168264 316.892836 
L 198.447603 316.437358 
L 201.726942 315.982197 
L 205.006281 315.527838 
L 208.28562 315.074481 
L 211.564959 314.62228 
L 214.844298 314.170312 
L 218.123636 313.71885 
L 221.402975 313.2692 
L 224.682314 312.820491 
L 227.961653 312.372887 
L 231.240992 311.927009 
L 234.520331 311.482303 
L 237.799669 311.039281 
L 241.079008 310.598092 
L 244.358347 310.158031 
L 247.637686 309.718525 
L 250.917025 309.28057 
L 254.196364 308.843879 
L 257.475702 308.409111 
L 260.755041 307.977092 
L 264.03438 307.546945 
L 267.313719 307.118843 
L 270.593058 306.692928 
L 273.872397 306.269589 
L 277.151736 305.849584 
L 280.431074 305.432279 
L 283.710413 305.01731 
L 286.989752 304.604972 
L 290.269091 304.195213 
L 293.54843 303.787598 
L 296.827769 303.382166 
L 300.107107 302.979306 
L 303.386446 302.578774 
L 306.665785 302.180213 
L 309.945124 301.784702 
L 313.224463 301.391125 
L 316.503802 301.000205 
L 319.78314 300.612143 
L 323.062479 300.226183 
L 326.341818 299.842212 
L 329.621157 299.460961 
L 332.900496 299.082306 
L 336.179835 298.706781 
L 339.459174 298.333935 
L 342.738512 297.964001 
L 346.017851 297.595938 
L 349.29719 297.229709 
L 352.576529 296.865986 
L 355.855868 296.504927 
L 359.135207 296.146384 
L 362.414545 295.790842 
L 365.693884 295.437317 
L 368.973223 295.086329 
L 372.252562 294.73784 
L 375.531901 294.391959 
L 378.81124 294.047973 
L 382.090579 293.70624 
L 385.369917 293.366692 
L 388.649256 293.029525 
L 391.928595 292.69497 
L 395.207934 292.362687 
L 398.487273 292.033182 
L 398.487273 288.13334 
L 398.487273 288.13334 
L 395.207934 288.457927 
L 391.928595 288.784277 
L 388.649256 289.113138 
L 385.369917 289.4445 
L 382.090579 289.778035 
L 378.81124 290.114494 
L 375.531901 290.453221 
L 372.252562 290.793647 
L 368.973223 291.136235 
L 365.693884 291.481924 
L 362.414545 291.830434 
L 359.135207 292.181254 
L 355.855868 292.534536 
L 352.576529 292.890318 
L 349.29719 293.248966 
L 346.017851 293.609566 
L 342.738512 293.972869 
L 339.459174 294.33809 
L 336.179835 294.705211 
L 332.900496 295.075305 
L 329.621157 295.448164 
L 326.341818 295.823586 
L 323.062479 296.20231 
L 319.78314 296.583864 
L 316.503802 296.967418 
L 313.224463 297.352662 
L 309.945124 297.740398 
L 306.665785 298.1312 
L 303.386446 298.524957 
L 300.107107 298.92133 
L 296.827769 299.319914 
L 293.54843 299.721081 
L 290.269091 300.124074 
L 286.989752 300.530553 
L 283.710413 300.939363 
L 280.431074 301.349923 
L 277.151736 301.763695 
L 273.872397 302.179513 
L 270.593058 302.59765 
L 267.313719 303.018869 
L 264.03438 303.44266 
L 260.755041 303.869435 
L 257.475702 304.298839 
L 254.196364 304.730599 
L 250.917025 305.164728 
L 247.637686 305.600679 
L 244.358347 306.037916 
L 241.079008 306.476832 
L 237.799669 306.91644 
L 234.520331 307.357018 
L 231.240992 307.799274 
L 227.961653 308.243543 
L 224.682314 308.689226 
L 221.402975 309.136042 
L 218.123636 309.584113 
L 214.844298 310.033528 
L 211.564959 310.484404 
L 208.28562 310.936325 
L 205.006281 311.388557 
L 201.726942 311.841893 
L 198.447603 312.296328 
L 195.168264 312.751351 
L 191.888926 313.206938 
L 188.609587 313.663074 
L 185.330248 314.119725 
L 182.050909 314.576962 
L 178.77157 315.03453 
L 175.492231 315.492815 
L 172.212893 315.952159 
L 168.933554 316.413187 
L 165.654215 316.874391 
L 162.374876 317.335704 
L 159.095537 317.797383 
L 155.816198 318.259559 
L 152.53686 318.721735 
L 149.257521 319.183912 
L 145.978182 319.646088 
L 142.698843 320.108264 
L 139.419504 320.57044 
L 136.140165 321.032616 
L 132.860826 321.494793 
L 129.581488 321.956969 
L 126.302149 322.419145 
L 123.02281 322.881321 
L 119.743471 323.343498 
L 116.464132 323.805674 
L 113.184793 324.26785 
L 109.905455 324.730026 
L 106.626116 325.192203 
L 103.346777 325.654379 
L 100.067438 326.116555 
L 96.788099 326.578731 
L 93.50876 327.040907 
L 90.229421 327.503084 
L 86.950083 327.96526 
L 83.670744 328.427436 
L 80.391405 328.889612 
L 77.112066 329.351789 
L 73.832727 329.813965 
z
" style="fill:#9467bd;"/>
   </g>
   <g id="PolyCollection_10">
    <path clip-path="url(#pa85f134c33)" d="M 73.832727 215.493957 
L 73.832727 329.813965 
L 77.112066 329.351789 
L 80.391405 328.889612 
L 83.670744 328.427436 
L 86.950083 327.96526 
L 90.229421 327.503084 
L 93.50876 327.040907 
L 96.788099 326.578731 
L 100.067438 326.116555 
L 103.346777 325.654379 
L 106.626116 325.192203 
L 109.905455 324.730026 
L 113.184793 324.26785 
L 116.464132 323.805674 
L 119.743471 323.343498 
L 123.02281 322.881321 
L 126.302149 322.419145 
L 129.581488 321.956969 
L 132.860826 321.494793 
L 136.140165 321.032616 
L 139.419504 320.57044 
L 142.698843 320.108264 
L 145.978182 319.646088 
L 149.257521 319.183912 
L 152.53686 318.721735 
L 155.816198 318.259559 
L 159.095537 317.797383 
L 162.374876 317.335704 
L 165.654215 316.874391 
L 168.933554 316.413187 
L 172.212893 315.952159 
L 175.492231 315.492815 
L 178.77157 315.03453 
L 182.050909 314.576962 
L 185.330248 314.119725 
L 188.609587 313.663074 
L 191.888926 313.206938 
L 195.168264 312.751351 
L 198.447603 312.296328 
L 201.726942 311.841893 
L 205.006281 311.388557 
L 208.28562 310.936325 
L 211.564959 310.484404 
L 214.844298 310.033528 
L 218.123636 309.584113 
L 221.402975 309.136042 
L 224.682314 308.689226 
L 227.961653 308.243543 
L 231.240992 307.799274 
L 234.520331 307.357018 
L 237.799669 306.91644 
L 241.079008 306.476832 
L 244.358347 306.037916 
L 247.637686 305.600679 
L 250.917025 305.164728 
L 254.196364 304.730599 
L 257.475702 304.298839 
L 260.755041 303.869435 
L 264.03438 303.44266 
L 267.313719 303.018869 
L 270.593058 302.59765 
L 273.872397 302.179513 
L 277.151736 301.763695 
L 280.431074 301.349923 
L 283.710413 300.939363 
L 286.989752 300.530553 
L 290.269091 300.124074 
L 293.54843 299.721081 
L 296.827769 299.319914 
L 300.107107 298.92133 
L 303.386446 298.524957 
L 306.665785 298.1312 
L 309.945124 297.740398 
L 313.224463 297.352662 
L 316.503802 296.967418 
L 319.78314 296.583864 
L 323.062479 296.20231 
L 326.341818 295.823586 
L 329.621157 295.448164 
L 332.900496 295.075305 
L 336.179835 294.705211 
L 339.459174 294.33809 
L 342.738512 293.972869 
L 346.017851 293.609566 
L 349.29719 293.248966 
L 352.576529 292.890318 
L 355.855868 292.534536 
L 359.135207 292.181254 
L 362.414545 291.830434 
L 365.693884 291.481924 
L 368.973223 291.136235 
L 372.252562 290.793647 
L 375.531901 290.453221 
L 378.81124 290.114494 
L 382.090579 289.778035 
L 385.369917 289.4445 
L 388.649256 289.113138 
L 391.928595 288.784277 
L 395.207934 288.457927 
L 398.487273 288.13334 
L 398.487273 203.460618 
L 398.487273 203.460618 
L 395.207934 203.634528 
L 391.928595 203.808514 
L 388.649256 203.983434 
L 385.369917 204.159744 
L 382.090579 204.336284 
L 378.81124 204.51342 
L 375.531901 204.691312 
L 372.252562 204.868939 
L 368.973223 205.047188 
L 365.693884 205.22626 
L 362.414545 205.406107 
L 359.135207 205.586439 
L 355.855868 205.766844 
L 352.576529 205.947785 
L 349.29719 206.12943 
L 346.017851 206.31093 
L 342.738512 206.49344 
L 339.459174 206.675963 
L 336.179835 206.857867 
L 332.900496 207.039681 
L 329.621157 207.222046 
L 326.341818 207.405038 
L 323.062479 207.589156 
L 319.78314 207.774134 
L 316.503802 207.958538 
L 313.224463 208.142149 
L 309.945124 208.325672 
L 306.665785 208.509575 
L 303.386446 208.693873 
L 300.107107 208.877617 
L 296.827769 209.061322 
L 293.54843 209.244843 
L 290.269091 209.427342 
L 286.989752 209.610157 
L 283.710413 209.792137 
L 280.431074 209.972477 
L 277.151736 210.153029 
L 273.872397 210.333202 
L 270.593058 210.512741 
L 267.313719 210.692819 
L 264.03438 210.873134 
L 260.755041 211.052945 
L 257.475702 211.232407 
L 254.196364 211.410646 
L 250.917025 211.58808 
L 247.637686 211.76336 
L 244.358347 211.936193 
L 241.079008 212.107523 
L 237.799669 212.276762 
L 234.520331 212.443696 
L 231.240992 212.609484 
L 227.961653 212.77393 
L 224.682314 212.936324 
L 221.402975 213.096067 
L 218.123636 213.251893 
L 214.844298 213.403962 
L 211.564959 213.552698 
L 208.28562 213.697699 
L 205.006281 213.838083 
L 201.726942 213.974644 
L 198.447603 214.107621 
L 195.168264 214.235519 
L 191.888926 214.359312 
L 188.609587 214.477581 
L 185.330248 214.590151 
L 182.050909 214.696926 
L 178.77157 214.797566 
L 175.492231 214.891979 
L 172.212893 214.980215 
L 168.933554 215.062176 
L 165.654215 215.137971 
L 162.374876 215.206484 
L 159.095537 215.268358 
L 155.816198 215.323559 
L 152.53686 215.371325 
L 149.257521 215.410646 
L 145.978182 215.44486 
L 142.698843 215.474193 
L 139.419504 215.497554 
L 136.140165 215.515908 
L 132.860826 215.529753 
L 129.581488 215.540495 
L 126.302149 215.548584 
L 123.02281 215.553121 
L 119.743471 215.555454 
L 116.464132 215.5565 
L 113.184793 215.555886 
L 109.905455 215.554112 
L 106.626116 215.550763 
L 103.346777 215.546674 
L 100.067438 215.541255 
L 96.788099 215.535471 
L 93.50876 215.52954 
L 90.229421 215.52361 
L 86.950083 215.517679 
L 83.670744 215.511749 
L 80.391405 215.505818 
L 77.112066 215.499887 
L 73.832727 215.493957 
z
" style="fill:#c5b0d5;"/>
   </g>
   <g id="PolyCollection_11">
    <path clip-path="url(#pa85f134c33)" d="M 73.832727 89.5632 
L 73.832727 215.493957 
L 77.112066 215.499887 
L 80.391405 215.505818 
L 83.670744 215.511749 
L 86.950083 215.517679 
L 90.229421 215.52361 
L 93.50876 215.52954 
L 96.788099 215.535471 
L 100.067438 215.541255 
L 103.346777 215.546674 
L 106.626116 215.550763 
L 109.905455 215.554112 
L 113.184793 215.555886 
L 116.464132 215.5565 
L 119.743471 215.555454 
L 123.02281 215.553121 
L 126.302149 215.548584 
L 129.581488 215.540495 
L 132.860826 215.529753 
L 136.140165 215.515908 
L 139.419504 215.497554 
L 142.698843 215.474193 
L 145.978182 215.44486 
L 149.257521 215.410646 
L 152.53686 215.371325 
L 155.816198 215.323559 
L 159.095537 215.268358 
L 162.374876 215.206484 
L 165.654215 215.137971 
L 168.933554 215.062176 
L 172.212893 214.980215 
L 175.492231 214.891979 
L 178.77157 214.797566 
L 182.050909 214.696926 
L 185.330248 214.590151 
L 188.609587 214.477581 
L 191.888926 214.359312 
L 195.168264 214.235519 
L 198.447603 214.107621 
L 201.726942 213.974644 
L 205.006281 213.838083 
L 208.28562 213.697699 
L 211.564959 213.552698 
L 214.844298 213.403962 
L 218.123636 213.251893 
L 221.402975 213.096067 
L 224.682314 212.936324 
L 227.961653 212.77393 
L 231.240992 212.609484 
L 234.520331 212.443696 
L 237.799669 212.276762 
L 241.079008 212.107523 
L 244.358347 211.936193 
L 247.637686 211.76336 
L 250.917025 211.58808 
L 254.196364 211.410646 
L 257.475702 211.232407 
L 260.755041 211.052945 
L 264.03438 210.873134 
L 267.313719 210.692819 
L 270.593058 210.512741 
L 273.872397 210.333202 
L 277.151736 210.153029 
L 280.431074 209.972477 
L 283.710413 209.792137 
L 286.989752 209.610157 
L 290.269091 209.427342 
L 293.54843 209.244843 
L 296.827769 209.061322 
L 300.107107 208.877617 
L 303.386446 208.693873 
L 306.665785 208.509575 
L 309.945124 208.325672 
L 313.224463 208.142149 
L 316.503802 207.958538 
L 319.78314 207.774134 
L 323.062479 207.589156 
L 326.341818 207.405038 
L 329.621157 207.222046 
L 332.900496 207.039681 
L 336.179835 206.857867 
L 339.459174 206.675963 
L 342.738512 206.49344 
L 346.017851 206.31093 
L 349.29719 206.12943 
L 352.576529 205.947785 
L 355.855868 205.766844 
L 359.135207 205.586439 
L 362.414545 205.406107 
L 365.693884 205.22626 
L 368.973223 205.047188 
L 372.252562 204.868939 
L 375.531901 204.691312 
L 378.81124 204.51342 
L 382.090579 204.336284 
L 385.369917 204.159744 
L 388.649256 203.983434 
L 391.928595 203.808514 
L 395.207934 203.634528 
L 398.487273 203.460618 
L 398.487273 89.5632 
L 398.487273 89.5632 
L 395.207934 89.5632 
L 391.928595 89.5632 
L 388.649256 89.5632 
L 385.369917 89.5632 
L 382.090579 89.5632 
L 378.81124 89.5632 
L 375.531901 89.5632 
L 372.252562 89.5632 
L 368.973223 89.5632 
L 365.693884 89.5632 
L 362.414545 89.5632 
L 359.135207 89.5632 
L 355.855868 89.5632 
L 352.576529 89.5632 
L 349.29719 89.5632 
L 346.017851 89.5632 
L 342.738512 89.5632 
L 339.459174 89.5632 
L 336.179835 89.5632 
L 332.900496 89.5632 
L 329.621157 89.5632 
L 326.341818 89.5632 
L 323.062479 89.5632 
L 319.78314 89.5632 
L 316.503802 89.5632 
L 313.224463 89.5632 
L 309.945124 89.5632 
L 306.665785 89.5632 
L 303.386446 89.5632 
L 300.107107 89.5632 
L 296.827769 89.5632 
L 293.54843 89.5632 
L 290.269091 89.5632 
L 286.989752 89.5632 
L 283.710413 89.5632 
L 280.431074 89.5632 
L 277.151736 89.5632 
L 273.872397 89.5632 
L 270.593058 89.5632 
L 267.313719 89.5632 
L 264.03438 89.5632 
L 260.755041 89.5632 
L 257.475702 89.5632 
L 254.196364 89.5632 
L 250.917025 89.5632 
L 247.637686 89.5632 
L 244.358347 89.5632 
L 241.079008 89.5632 
L 237.799669 89.5632 
L 234.520331 89.5632 
L 231.240992 89.5632 
L 227.961653 89.5632 
L 224.682314 89.5632 
L 221.402975 89.5632 
L 218.123636 89.5632 
L 214.844298 89.5632 
L 211.564959 89.5632 
L 208.28562 89.5632 
L 205.006281 89.5632 
L 201.726942 89.5632 
L 198.447603 89.5632 
L 195.168264 89.5632 
L 191.888926 89.5632 
L 188.609587 89.5632 
L 185.330248 89.5632 
L 182.050909 89.5632 
L 178.77157 89.5632 
L 175.492231 89.5632 
L 172.212893 89.5632 
L 168.933554 89.5632 
L 165.654215 89.5632 
L 162.374876 89.5632 
L 159.095537 89.5632 
L 155.816198 89.5632 
L 152.53686 89.5632 
L 149.257521 89.5632 
L 145.978182 89.5632 
L 142.698843 89.5632 
L 139.419504 89.5632 
L 136.140165 89.5632 
L 132.860826 89.5632 
L 129.581488 89.5632 
L 126.302149 89.5632 
L 123.02281 89.5632 
L 119.743471 89.5632 
L 116.464132 89.5632 
L 113.184793 89.5632 
L 109.905455 89.5632 
L 106.626116 89.5632 
L 103.346777 89.5632 
L 100.067438 89.5632 
L 96.788099 89.5632 
L 93.50876 89.5632 
L 90.229421 89.5632 
L 86.950083 89.5632 
L 83.670744 89.5632 
L 80.391405 89.5632 
L 77.112066 89.5632 
L 73.832727 89.5632 
z
" style="fill:#8c564b;"/>
   </g>
   <g id="matplotlib.axis_1">
    <g id="xtick_1">
     <g id="line2d_1">
      <defs>
       <path d="M 0 0 
L 0 3.5 
" id="md45d9be116" style="stroke:#000000;stroke-width:0.8;"/>
      </defs>
      <g>
       <use style="stroke:#000000;stroke-width:0.8;" x="73.832727" xlink:href="#md45d9be116" y="508.7952"/>
      </g>
     </g>
     <g id="text_1">
      <!-- 0 -->
      <g transform="translate(70.651477 523.393638)scale(0.1 -0.1)">
       <defs>
        <path d="M 2034 4250 
Q 1547 4250 1301 3770 
Q 1056 3291 1056 2328 
Q 1056 1369 1301 889 
Q 1547 409 2034 409 
Q 2525 409 2770 889 
Q 3016 1369 3016 2328 
Q 3016 3291 2770 3770 
Q 2525 4250 2034 4250 
z
M 2034 4750 
Q 2819 4750 3233 4129 
Q 3647 3509 3647 2328 
Q 3647 1150 3233 529 
Q 2819 -91 2034 -91 
Q 1250 -91 836 529 
Q 422 1150 422 2328 
Q 422 3509 836 4129 
Q 1250 4750 2034 4750 
z
" id="DejaVuSans-30" transform="scale(0.015625)"/>
       </defs>
       <use xlink:href="#DejaVuSans-30"/>
      </g>
     </g>
    </g>
    <g id="xtick_2">
     <g id="line2d_2">
      <g>
       <use style="stroke:#000000;stroke-width:0.8;" x="138.763636" xlink:href="#md45d9be116" y="508.7952"/>
      </g>
     </g>
     <g id="text_2">
      <!-- 20 -->
      <g transform="translate(132.401136 523.393638)scale(0.1 -0.1)">
       <defs>
        <path d="M 1228 531 
L 3431 531 
L 3431 0 
L 469 0 
L 469 531 
Q 828 903 1448 1529 
Q 2069 2156 2228 2338 
Q 2531 2678 2651 2914 
Q 2772 3150 2772 3378 
Q 2772 3750 2511 3984 
Q 2250 4219 1831 4219 
Q 1534 4219 1204 4116 
Q 875 4013 500 3803 
L 500 4441 
Q 881 4594 1212 4672 
Q 1544 4750 1819 4750 
Q 2544 4750 2975 4387 
Q 3406 4025 3406 3419 
Q 3406 3131 3298 2873 
Q 3191 2616 2906 2266 
Q 2828 2175 2409 1742 
Q 1991 1309 1228 531 
z
" id="DejaVuSans-32" transform="scale(0.015625)"/>
       </defs>
       <use xlink:href="#DejaVuSans-32"/>
       <use x="63.623047" xlink:href="#DejaVuSans-30"/>
      </g>
     </g>
    </g>
    <g id="xtick_3">
     <g id="line2d_3">
      <g>
       <use style="stroke:#000000;stroke-width:0.8;" x="203.694545" xlink:href="#md45d9be116" y="508.7952"/>
      </g>
     </g>
     <g id="text_3">
      <!-- 40 -->
      <g transform="translate(197.332045 523.393638)scale(0.1 -0.1)">
       <defs>
        <path d="M 2419 4116 
L 825 1625 
L 2419 1625 
L 2419 4116 
z
M 2253 4666 
L 3047 4666 
L 3047 1625 
L 3713 1625 
L 3713 1100 
L 3047 1100 
L 3047 0 
L 2419 0 
L 2419 1100 
L 313 1100 
L 313 1709 
L 2253 4666 
z
" id="DejaVuSans-34" transform="scale(0.015625)"/>
       </defs>
       <use xlink:href="#DejaVuSans-34"/>
       <use x="63.623047" xlink:href="#DejaVuSans-30"/>
      </g>
     </g>
    </g>
    <g id="xtick_4">
     <g id="line2d_4">
      <g>
       <use style="stroke:#000000;stroke-width:0.8;" x="268.625455" xlink:href="#md45d9be116" y="508.7952"/>
      </g>
     </g>
     <g id="text_4">
      <!-- 60 -->
      <g transform="translate(262.262955 523.393638)scale(0.1 -0.1)">
       <defs>
        <path d="M 2113 2584 
Q 1688 2584 1439 2293 
Q 1191 2003 1191 1497 
Q 1191 994 1439 701 
Q 1688 409 2113 409 
Q 2538 409 2786 701 
Q 3034 994 3034 1497 
Q 3034 2003 2786 2293 
Q 2538 2584 2113 2584 
z
M 3366 4563 
L 3366 3988 
Q 3128 4100 2886 4159 
Q 2644 4219 2406 4219 
Q 1781 4219 1451 3797 
Q 1122 3375 1075 2522 
Q 1259 2794 1537 2939 
Q 1816 3084 2150 3084 
Q 2853 3084 3261 2657 
Q 3669 2231 3669 1497 
Q 3669 778 3244 343 
Q 2819 -91 2113 -91 
Q 1303 -91 875 529 
Q 447 1150 447 2328 
Q 447 3434 972 4092 
Q 1497 4750 2381 4750 
Q 2619 4750 2861 4703 
Q 3103 4656 3366 4563 
z
" id="DejaVuSans-36" transform="scale(0.015625)"/>
       </defs>
       <use xlink:href="#DejaVuSans-36"/>
       <use x="63.623047" xlink:href="#DejaVuSans-30"/>
      </g>
     </g>
    </g>
    <g id="xtick_5">
     <g id="line2d_5">
      <g>
       <use style="stroke:#000000;stroke-width:0.8;" x="333.556364" xlink:href="#md45d9be116" y="508.7952"/>
      </g>
     </g>
     <g id="text_5">
      <!-- 80 -->
      <g transform="translate(327.193864 523.393638)scale(0.1 -0.1)">
       <defs>
        <path d="M 2034 2216 
Q 1584 2216 1326 1975 
Q 1069 1734 1069 1313 
Q 1069 891 1326 650 
Q 1584 409 2034 409 
Q 2484 409 2743 651 
Q 3003 894 3003 1313 
Q 3003 1734 2745 1975 
Q 2488 2216 2034 2216 
z
M 1403 2484 
Q 997 2584 770 2862 
Q 544 3141 544 3541 
Q 544 4100 942 4425 
Q 1341 4750 2034 4750 
Q 2731 4750 3128 4425 
Q 3525 4100 3525 3541 
Q 3525 3141 3298 2862 
Q 3072 2584 2669 2484 
Q 3125 2378 3379 2068 
Q 3634 1759 3634 1313 
Q 3634 634 3220 271 
Q 2806 -91 2034 -91 
Q 1263 -91 848 271 
Q 434 634 434 1313 
Q 434 1759 690 2068 
Q 947 2378 1403 2484 
z
M 1172 3481 
Q 1172 3119 1398 2916 
Q 1625 2713 2034 2713 
Q 2441 2713 2670 2916 
Q 2900 3119 2900 3481 
Q 2900 3844 2670 4047 
Q 2441 4250 2034 4250 
Q 1625 4250 1398 4047 
Q 1172 3844 1172 3481 
z
" id="DejaVuSans-38" transform="scale(0.015625)"/>
       </defs>
       <use xlink:href="#DejaVuSans-38"/>
       <use x="63.623047" xlink:href="#DejaVuSans-30"/>
      </g>
     </g>
    </g>
    <g id="xtick_6">
     <g id="line2d_6">
      <g>
       <use style="stroke:#000000;stroke-width:0.8;" x="398.487273" xlink:href="#md45d9be116" y="508.7952"/>
      </g>
     </g>
     <g id="text_6">
      <!-- 100 -->
      <g transform="translate(388.943523 523.393638)scale(0.1 -0.1)">
       <defs>
        <path d="M 794 531 
L 1825 531 
L 1825 4091 
L 703 3866 
L 703 4441 
L 1819 4666 
L 2450 4666 
L 2450 531 
L 3481 531 
L 3481 0 
L 794 0 
L 794 531 
z
" id="DejaVuSans-31" transform="scale(0.015625)"/>
       </defs>
       <use xlink:href="#DejaVuSans-31"/>
       <use x="63.623047" xlink:href="#DejaVuSans-30"/>
       <use x="127.246094" xlink:href="#DejaVuSans-30"/>
      </g>
     </g>
    </g>
    <g id="text_7">
     <!-- Proportion of New Technology in Grid -->
     <g transform="translate(143.633437 537.071763)scale(0.1 -0.1)">
      <defs>
       <path d="M 1259 4147 
L 1259 2394 
L 2053 2394 
Q 2494 2394 2734 2622 
Q 2975 2850 2975 3272 
Q 2975 3691 2734 3919 
Q 2494 4147 2053 4147 
L 1259 4147 
z
M 628 4666 
L 2053 4666 
Q 2838 4666 3239 4311 
Q 3641 3956 3641 3272 
Q 3641 2581 3239 2228 
Q 2838 1875 2053 1875 
L 1259 1875 
L 1259 0 
L 628 0 
L 628 4666 
z
" id="DejaVuSans-50" transform="scale(0.015625)"/>
       <path d="M 2631 2963 
Q 2534 3019 2420 3045 
Q 2306 3072 2169 3072 
Q 1681 3072 1420 2755 
Q 1159 2438 1159 1844 
L 1159 0 
L 581 0 
L 581 3500 
L 1159 3500 
L 1159 2956 
Q 1341 3275 1631 3429 
Q 1922 3584 2338 3584 
Q 2397 3584 2469 3576 
Q 2541 3569 2628 3553 
L 2631 2963 
z
" id="DejaVuSans-72" transform="scale(0.015625)"/>
       <path d="M 1959 3097 
Q 1497 3097 1228 2736 
Q 959 2375 959 1747 
Q 959 1119 1226 758 
Q 1494 397 1959 397 
Q 2419 397 2687 759 
Q 2956 1122 2956 1747 
Q 2956 2369 2687 2733 
Q 2419 3097 1959 3097 
z
M 1959 3584 
Q 2709 3584 3137 3096 
Q 3566 2609 3566 1747 
Q 3566 888 3137 398 
Q 2709 -91 1959 -91 
Q 1206 -91 779 398 
Q 353 888 353 1747 
Q 353 2609 779 3096 
Q 1206 3584 1959 3584 
z
" id="DejaVuSans-6f" transform="scale(0.015625)"/>
       <path d="M 1159 525 
L 1159 -1331 
L 581 -1331 
L 581 3500 
L 1159 3500 
L 1159 2969 
Q 1341 3281 1617 3432 
Q 1894 3584 2278 3584 
Q 2916 3584 3314 3078 
Q 3713 2572 3713 1747 
Q 3713 922 3314 415 
Q 2916 -91 2278 -91 
Q 1894 -91 1617 61 
Q 1341 213 1159 525 
z
M 3116 1747 
Q 3116 2381 2855 2742 
Q 2594 3103 2138 3103 
Q 1681 3103 1420 2742 
Q 1159 2381 1159 1747 
Q 1159 1113 1420 752 
Q 1681 391 2138 391 
Q 2594 391 2855 752 
Q 3116 1113 3116 1747 
z
" id="DejaVuSans-70" transform="scale(0.015625)"/>
       <path d="M 1172 4494 
L 1172 3500 
L 2356 3500 
L 2356 3053 
L 1172 3053 
L 1172 1153 
Q 1172 725 1289 603 
Q 1406 481 1766 481 
L 2356 481 
L 2356 0 
L 1766 0 
Q 1100 0 847 248 
Q 594 497 594 1153 
L 594 3053 
L 172 3053 
L 172 3500 
L 594 3500 
L 594 4494 
L 1172 4494 
z
" id="DejaVuSans-74" transform="scale(0.015625)"/>
       <path d="M 603 3500 
L 1178 3500 
L 1178 0 
L 603 0 
L 603 3500 
z
M 603 4863 
L 1178 4863 
L 1178 4134 
L 603 4134 
L 603 4863 
z
" id="DejaVuSans-69" transform="scale(0.015625)"/>
       <path d="M 3513 2113 
L 3513 0 
L 2938 0 
L 2938 2094 
Q 2938 2591 2744 2837 
Q 2550 3084 2163 3084 
Q 1697 3084 1428 2787 
Q 1159 2491 1159 1978 
L 1159 0 
L 581 0 
L 581 3500 
L 1159 3500 
L 1159 2956 
Q 1366 3272 1645 3428 
Q 1925 3584 2291 3584 
Q 2894 3584 3203 3211 
Q 3513 2838 3513 2113 
z
" id="DejaVuSans-6e" transform="scale(0.015625)"/>
       <path id="DejaVuSans-20" transform="scale(0.015625)"/>
       <path d="M 2375 4863 
L 2375 4384 
L 1825 4384 
Q 1516 4384 1395 4259 
Q 1275 4134 1275 3809 
L 1275 3500 
L 2222 3500 
L 2222 3053 
L 1275 3053 
L 1275 0 
L 697 0 
L 697 3053 
L 147 3053 
L 147 3500 
L 697 3500 
L 697 3744 
Q 697 4328 969 4595 
Q 1241 4863 1831 4863 
L 2375 4863 
z
" id="DejaVuSans-66" transform="scale(0.015625)"/>
       <path d="M 628 4666 
L 1478 4666 
L 3547 763 
L 3547 4666 
L 4159 4666 
L 4159 0 
L 3309 0 
L 1241 3903 
L 1241 0 
L 628 0 
L 628 4666 
z
" id="DejaVuSans-4e" transform="scale(0.015625)"/>
       <path d="M 3597 1894 
L 3597 1613 
L 953 1613 
Q 991 1019 1311 708 
Q 1631 397 2203 397 
Q 2534 397 2845 478 
Q 3156 559 3463 722 
L 3463 178 
Q 3153 47 2828 -22 
Q 2503 -91 2169 -91 
Q 1331 -91 842 396 
Q 353 884 353 1716 
Q 353 2575 817 3079 
Q 1281 3584 2069 3584 
Q 2775 3584 3186 3129 
Q 3597 2675 3597 1894 
z
M 3022 2063 
Q 3016 2534 2758 2815 
Q 2500 3097 2075 3097 
Q 1594 3097 1305 2825 
Q 1016 2553 972 2059 
L 3022 2063 
z
" id="DejaVuSans-65" transform="scale(0.015625)"/>
       <path d="M 269 3500 
L 844 3500 
L 1563 769 
L 2278 3500 
L 2956 3500 
L 3675 769 
L 4391 3500 
L 4966 3500 
L 4050 0 
L 3372 0 
L 2619 2869 
L 1863 0 
L 1184 0 
L 269 3500 
z
" id="DejaVuSans-77" transform="scale(0.015625)"/>
       <path d="M -19 4666 
L 3928 4666 
L 3928 4134 
L 2272 4134 
L 2272 0 
L 1638 0 
L 1638 4134 
L -19 4134 
L -19 4666 
z
" id="DejaVuSans-54" transform="scale(0.015625)"/>
       <path d="M 3122 3366 
L 3122 2828 
Q 2878 2963 2633 3030 
Q 2388 3097 2138 3097 
Q 1578 3097 1268 2742 
Q 959 2388 959 1747 
Q 959 1106 1268 751 
Q 1578 397 2138 397 
Q 2388 397 2633 464 
Q 2878 531 3122 666 
L 3122 134 
Q 2881 22 2623 -34 
Q 2366 -91 2075 -91 
Q 1284 -91 818 406 
Q 353 903 353 1747 
Q 353 2603 823 3093 
Q 1294 3584 2113 3584 
Q 2378 3584 2631 3529 
Q 2884 3475 3122 3366 
z
" id="DejaVuSans-63" transform="scale(0.015625)"/>
       <path d="M 3513 2113 
L 3513 0 
L 2938 0 
L 2938 2094 
Q 2938 2591 2744 2837 
Q 2550 3084 2163 3084 
Q 1697 3084 1428 2787 
Q 1159 2491 1159 1978 
L 1159 0 
L 581 0 
L 581 4863 
L 1159 4863 
L 1159 2956 
Q 1366 3272 1645 3428 
Q 1925 3584 2291 3584 
Q 2894 3584 3203 3211 
Q 3513 2838 3513 2113 
z
" id="DejaVuSans-68" transform="scale(0.015625)"/>
       <path d="M 603 4863 
L 1178 4863 
L 1178 0 
L 603 0 
L 603 4863 
z
" id="DejaVuSans-6c" transform="scale(0.015625)"/>
       <path d="M 2906 1791 
Q 2906 2416 2648 2759 
Q 2391 3103 1925 3103 
Q 1463 3103 1205 2759 
Q 947 2416 947 1791 
Q 947 1169 1205 825 
Q 1463 481 1925 481 
Q 2391 481 2648 825 
Q 2906 1169 2906 1791 
z
M 3481 434 
Q 3481 -459 3084 -895 
Q 2688 -1331 1869 -1331 
Q 1566 -1331 1297 -1286 
Q 1028 -1241 775 -1147 
L 775 -588 
Q 1028 -725 1275 -790 
Q 1522 -856 1778 -856 
Q 2344 -856 2625 -561 
Q 2906 -266 2906 331 
L 2906 616 
Q 2728 306 2450 153 
Q 2172 0 1784 0 
Q 1141 0 747 490 
Q 353 981 353 1791 
Q 353 2603 747 3093 
Q 1141 3584 1784 3584 
Q 2172 3584 2450 3431 
Q 2728 3278 2906 2969 
L 2906 3500 
L 3481 3500 
L 3481 434 
z
" id="DejaVuSans-67" transform="scale(0.015625)"/>
       <path d="M 2059 -325 
Q 1816 -950 1584 -1140 
Q 1353 -1331 966 -1331 
L 506 -1331 
L 506 -850 
L 844 -850 
Q 1081 -850 1212 -737 
Q 1344 -625 1503 -206 
L 1606 56 
L 191 3500 
L 800 3500 
L 1894 763 
L 2988 3500 
L 3597 3500 
L 2059 -325 
z
" id="DejaVuSans-79" transform="scale(0.015625)"/>
       <path d="M 3809 666 
L 3809 1919 
L 2778 1919 
L 2778 2438 
L 4434 2438 
L 4434 434 
Q 4069 175 3628 42 
Q 3188 -91 2688 -91 
Q 1594 -91 976 548 
Q 359 1188 359 2328 
Q 359 3472 976 4111 
Q 1594 4750 2688 4750 
Q 3144 4750 3555 4637 
Q 3966 4525 4313 4306 
L 4313 3634 
Q 3963 3931 3569 4081 
Q 3175 4231 2741 4231 
Q 1884 4231 1454 3753 
Q 1025 3275 1025 2328 
Q 1025 1384 1454 906 
Q 1884 428 2741 428 
Q 3075 428 3337 486 
Q 3600 544 3809 666 
z
" id="DejaVuSans-47" transform="scale(0.015625)"/>
       <path d="M 2906 2969 
L 2906 4863 
L 3481 4863 
L 3481 0 
L 2906 0 
L 2906 525 
Q 2725 213 2448 61 
Q 2172 -91 1784 -91 
Q 1150 -91 751 415 
Q 353 922 353 1747 
Q 353 2572 751 3078 
Q 1150 3584 1784 3584 
Q 2172 3584 2448 3432 
Q 2725 3281 2906 2969 
z
M 947 1747 
Q 947 1113 1208 752 
Q 1469 391 1925 391 
Q 2381 391 2643 752 
Q 2906 1113 2906 1747 
Q 2906 2381 2643 2742 
Q 2381 3103 1925 3103 
Q 1469 3103 1208 2742 
Q 947 2381 947 1747 
z
" id="DejaVuSans-64" transform="scale(0.015625)"/>
      </defs>
      <use xlink:href="#DejaVuSans-50"/>
      <use x="58.552734" xlink:href="#DejaVuSans-72"/>
      <use x="97.416016" xlink:href="#DejaVuSans-6f"/>
      <use x="158.597656" xlink:href="#DejaVuSans-70"/>
      <use x="222.074219" xlink:href="#DejaVuSans-6f"/>
      <use x="283.255859" xlink:href="#DejaVuSans-72"/>
      <use x="324.369141" xlink:href="#DejaVuSans-74"/>
      <use x="363.578125" xlink:href="#DejaVuSans-69"/>
      <use x="391.361328" xlink:href="#DejaVuSans-6f"/>
      <use x="452.542969" xlink:href="#DejaVuSans-6e"/>
      <use x="515.921875" xlink:href="#DejaVuSans-20"/>
      <use x="547.708984" xlink:href="#DejaVuSans-6f"/>
      <use x="608.890625" xlink:href="#DejaVuSans-66"/>
      <use x="644.095703" xlink:href="#DejaVuSans-20"/>
      <use x="675.882812" xlink:href="#DejaVuSans-4e"/>
      <use x="750.6875" xlink:href="#DejaVuSans-65"/>
      <use x="812.210938" xlink:href="#DejaVuSans-77"/>
      <use x="893.998047" xlink:href="#DejaVuSans-20"/>
      <use x="925.785156" xlink:href="#DejaVuSans-54"/>
      <use x="969.869141" xlink:href="#DejaVuSans-65"/>
      <use x="1031.392578" xlink:href="#DejaVuSans-63"/>
      <use x="1086.373047" xlink:href="#DejaVuSans-68"/>
      <use x="1149.751953" xlink:href="#DejaVuSans-6e"/>
      <use x="1213.130859" xlink:href="#DejaVuSans-6f"/>
      <use x="1274.3125" xlink:href="#DejaVuSans-6c"/>
      <use x="1302.095703" xlink:href="#DejaVuSans-6f"/>
      <use x="1363.277344" xlink:href="#DejaVuSans-67"/>
      <use x="1426.753906" xlink:href="#DejaVuSans-79"/>
      <use x="1485.933594" xlink:href="#DejaVuSans-20"/>
      <use x="1517.720703" xlink:href="#DejaVuSans-69"/>
      <use x="1545.503906" xlink:href="#DejaVuSans-6e"/>
      <use x="1608.882812" xlink:href="#DejaVuSans-20"/>
      <use x="1640.669922" xlink:href="#DejaVuSans-47"/>
      <use x="1718.160156" xlink:href="#DejaVuSans-72"/>
      <use x="1759.273438" xlink:href="#DejaVuSans-69"/>
      <use x="1787.056641" xlink:href="#DejaVuSans-64"/>
     </g>
    </g>
   </g>
   <g id="matplotlib.axis_2">
    <g id="ytick_1">
     <g id="line2d_7">
      <defs>
       <path d="M 0 0 
L -3.5 0 
" id="m30f42d33ac" style="stroke:#000000;stroke-width:0.8;"/>
      </defs>
      <g>
       <use style="stroke:#000000;stroke-width:0.8;" x="57.6" xlink:href="#m30f42d33ac" y="508.7952"/>
      </g>
     </g>
     <g id="text_8">
      <!-- 0 -->
      <g transform="translate(44.2375 512.594419)scale(0.1 -0.1)">
       <use xlink:href="#DejaVuSans-30"/>
      </g>
     </g>
    </g>
    <g id="ytick_2">
     <g id="line2d_8">
      <g>
       <use style="stroke:#000000;stroke-width:0.8;" x="57.6" xlink:href="#m30f42d33ac" y="433.256011"/>
      </g>
     </g>
     <g id="text_9">
      <!-- 50 -->
      <g transform="translate(37.875 437.055229)scale(0.1 -0.1)">
       <defs>
        <path d="M 691 4666 
L 3169 4666 
L 3169 4134 
L 1269 4134 
L 1269 2991 
Q 1406 3038 1543 3061 
Q 1681 3084 1819 3084 
Q 2600 3084 3056 2656 
Q 3513 2228 3513 1497 
Q 3513 744 3044 326 
Q 2575 -91 1722 -91 
Q 1428 -91 1123 -41 
Q 819 9 494 109 
L 494 744 
Q 775 591 1075 516 
Q 1375 441 1709 441 
Q 2250 441 2565 725 
Q 2881 1009 2881 1497 
Q 2881 1984 2565 2268 
Q 2250 2553 1709 2553 
Q 1456 2553 1204 2497 
Q 953 2441 691 2322 
L 691 4666 
z
" id="DejaVuSans-35" transform="scale(0.015625)"/>
       </defs>
       <use xlink:href="#DejaVuSans-35"/>
       <use x="63.623047" xlink:href="#DejaVuSans-30"/>
      </g>
     </g>
    </g>
    <g id="ytick_3">
     <g id="line2d_9">
      <g>
       <use style="stroke:#000000;stroke-width:0.8;" x="57.6" xlink:href="#m30f42d33ac" y="357.716821"/>
      </g>
     </g>
     <g id="text_10">
      <!-- 100 -->
      <g transform="translate(31.5125 361.51604)scale(0.1 -0.1)">
       <use xlink:href="#DejaVuSans-31"/>
       <use x="63.623047" xlink:href="#DejaVuSans-30"/>
       <use x="127.246094" xlink:href="#DejaVuSans-30"/>
      </g>
     </g>
    </g>
    <g id="ytick_4">
     <g id="line2d_10">
      <g>
       <use style="stroke:#000000;stroke-width:0.8;" x="57.6" xlink:href="#m30f42d33ac" y="282.177632"/>
      </g>
     </g>
     <g id="text_11">
      <!-- 150 -->
      <g transform="translate(31.5125 285.976851)scale(0.1 -0.1)">
       <use xlink:href="#DejaVuSans-31"/>
       <use x="63.623047" xlink:href="#DejaVuSans-35"/>
       <use x="127.246094" xlink:href="#DejaVuSans-30"/>
      </g>
     </g>
    </g>
    <g id="ytick_5">
     <g id="line2d_11">
      <g>
       <use style="stroke:#000000;stroke-width:0.8;" x="57.6" xlink:href="#m30f42d33ac" y="206.638443"/>
      </g>
     </g>
     <g id="text_12">
      <!-- 200 -->
      <g transform="translate(31.5125 210.437662)scale(0.1 -0.1)">
       <use xlink:href="#DejaVuSans-32"/>
       <use x="63.623047" xlink:href="#DejaVuSans-30"/>
       <use x="127.246094" xlink:href="#DejaVuSans-30"/>
      </g>
     </g>
    </g>
    <g id="ytick_6">
     <g id="line2d_12">
      <g>
       <use style="stroke:#000000;stroke-width:0.8;" x="57.6" xlink:href="#m30f42d33ac" y="131.099254"/>
      </g>
     </g>
     <g id="text_13">
      <!-- 250 -->
      <g transform="translate(31.5125 134.898472)scale(0.1 -0.1)">
       <use xlink:href="#DejaVuSans-32"/>
       <use x="63.623047" xlink:href="#DejaVuSans-35"/>
       <use x="127.246094" xlink:href="#DejaVuSans-30"/>
      </g>
     </g>
    </g>
    <g id="text_14">
     <!-- Total Energy Generated (TWh) -->
     <g transform="translate(25.432812 364.242931)rotate(-90)scale(0.1 -0.1)">
      <defs>
       <path d="M 2194 1759 
Q 1497 1759 1228 1600 
Q 959 1441 959 1056 
Q 959 750 1161 570 
Q 1363 391 1709 391 
Q 2188 391 2477 730 
Q 2766 1069 2766 1631 
L 2766 1759 
L 2194 1759 
z
M 3341 1997 
L 3341 0 
L 2766 0 
L 2766 531 
Q 2569 213 2275 61 
Q 1981 -91 1556 -91 
Q 1019 -91 701 211 
Q 384 513 384 1019 
Q 384 1609 779 1909 
Q 1175 2209 1959 2209 
L 2766 2209 
L 2766 2266 
Q 2766 2663 2505 2880 
Q 2244 3097 1772 3097 
Q 1472 3097 1187 3025 
Q 903 2953 641 2809 
L 641 3341 
Q 956 3463 1253 3523 
Q 1550 3584 1831 3584 
Q 2591 3584 2966 3190 
Q 3341 2797 3341 1997 
z
" id="DejaVuSans-61" transform="scale(0.015625)"/>
       <path d="M 628 4666 
L 3578 4666 
L 3578 4134 
L 1259 4134 
L 1259 2753 
L 3481 2753 
L 3481 2222 
L 1259 2222 
L 1259 531 
L 3634 531 
L 3634 0 
L 628 0 
L 628 4666 
z
" id="DejaVuSans-45" transform="scale(0.015625)"/>
       <path d="M 1984 4856 
Q 1566 4138 1362 3434 
Q 1159 2731 1159 2009 
Q 1159 1288 1364 580 
Q 1569 -128 1984 -844 
L 1484 -844 
Q 1016 -109 783 600 
Q 550 1309 550 2009 
Q 550 2706 781 3412 
Q 1013 4119 1484 4856 
L 1984 4856 
z
" id="DejaVuSans-28" transform="scale(0.015625)"/>
       <path d="M 213 4666 
L 850 4666 
L 1831 722 
L 2809 4666 
L 3519 4666 
L 4500 722 
L 5478 4666 
L 6119 4666 
L 4947 0 
L 4153 0 
L 3169 4050 
L 2175 0 
L 1381 0 
L 213 4666 
z
" id="DejaVuSans-57" transform="scale(0.015625)"/>
       <path d="M 513 4856 
L 1013 4856 
Q 1481 4119 1714 3412 
Q 1947 2706 1947 2009 
Q 1947 1309 1714 600 
Q 1481 -109 1013 -844 
L 513 -844 
Q 928 -128 1133 580 
Q 1338 1288 1338 2009 
Q 1338 2731 1133 3434 
Q 928 4138 513 4856 
z
" id="DejaVuSans-29" transform="scale(0.015625)"/>
      </defs>
      <use xlink:href="#DejaVuSans-54"/>
      <use x="44.083984" xlink:href="#DejaVuSans-6f"/>
      <use x="105.265625" xlink:href="#DejaVuSans-74"/>
      <use x="144.474609" xlink:href="#DejaVuSans-61"/>
      <use x="205.753906" xlink:href="#DejaVuSans-6c"/>
      <use x="233.537109" xlink:href="#DejaVuSans-20"/>
      <use x="265.324219" xlink:href="#DejaVuSans-45"/>
      <use x="328.507812" xlink:href="#DejaVuSans-6e"/>
      <use x="391.886719" xlink:href="#DejaVuSans-65"/>
      <use x="453.410156" xlink:href="#DejaVuSans-72"/>
      <use x="492.773438" xlink:href="#DejaVuSans-67"/>
      <use x="556.25" xlink:href="#DejaVuSans-79"/>
      <use x="615.429688" xlink:href="#DejaVuSans-20"/>
      <use x="647.216797" xlink:href="#DejaVuSans-47"/>
      <use x="724.707031" xlink:href="#DejaVuSans-65"/>
      <use x="786.230469" xlink:href="#DejaVuSans-6e"/>
      <use x="849.609375" xlink:href="#DejaVuSans-65"/>
      <use x="911.132812" xlink:href="#DejaVuSans-72"/>
      <use x="952.246094" xlink:href="#DejaVuSans-61"/>
      <use x="1013.525391" xlink:href="#DejaVuSans-74"/>
      <use x="1052.734375" xlink:href="#DejaVuSans-65"/>
      <use x="1114.257812" xlink:href="#DejaVuSans-64"/>
      <use x="1177.734375" xlink:href="#DejaVuSans-20"/>
      <use x="1209.521484" xlink:href="#DejaVuSans-28"/>
      <use x="1248.535156" xlink:href="#DejaVuSans-54"/>
      <use x="1309.619141" xlink:href="#DejaVuSans-57"/>
      <use x="1408.496094" xlink:href="#DejaVuSans-68"/>
      <use x="1471.875" xlink:href="#DejaVuSans-29"/>
     </g>
    </g>
   </g>
   <g id="patch_3">
    <path d="M 57.6 508.7952 
L 57.6 68.6016 
" style="fill:none;stroke:#000000;stroke-linecap:square;stroke-linejoin:miter;stroke-width:0.8;"/>
   </g>
   <g id="patch_4">
    <path d="M 414.72 508.7952 
L 414.72 68.6016 
" style="fill:none;stroke:#000000;stroke-linecap:square;stroke-linejoin:miter;stroke-width:0.8;"/>
   </g>
   <g id="patch_5">
    <path d="M 57.6 508.7952 
L 414.72 508.7952 
" style="fill:none;stroke:#000000;stroke-linecap:square;stroke-linejoin:miter;stroke-width:0.8;"/>
   </g>
   <g id="patch_6">
    <path d="M 57.6 68.6016 
L 414.72 68.6016 
" style="fill:none;stroke:#000000;stroke-linecap:square;stroke-linejoin:miter;stroke-width:0.8;"/>
   </g>
  </g>
 </g>
 <defs>
  <clipPath id="pa85f134c33">
   <rect height="440.1936" width="357.12" x="57.6" y="68.6016"/>
  </clipPath>
 </defs>
</svg>
