<?xml version="1.0" encoding="utf-8" standalone="no"?>
<!DOCTYPE svg PUBLIC "-//W3C//DTD SVG 1.1//EN"
  "http://www.w3.org/Graphics/SVG/1.1/DTD/svg11.dtd">
<svg height="991.44pt" version="1.1" viewBox="0 0 1843.2 991.44" width="1843.2pt" xmlns="http://www.w3.org/2000/svg" xmlns:xlink="http://www.w3.org/1999/xlink">
 <metadata>
  <rdf:RDF xmlns:cc="http://creativecommons.org/ns#" xmlns:dc="http://purl.org/dc/elements/1.1/" xmlns:rdf="http://www.w3.org/1999/02/22-rdf-syntax-ns#">
   <cc:Work>
    <dc:type rdf:resource="http://purl.org/dc/dcmitype/StillImage"/>
    <dc:date>2021-04-26T11:11:28.317227</dc:date>
    <dc:format>image/svg+xml</dc:format>
    <dc:creator>
     <cc:Agent>
      <dc:title>Matplotlib v3.4.1, https://matplotlib.org/</dc:title>
     </cc:Agent>
    </dc:creator>
   </cc:Work>
  </rdf:RDF>
 </metadata>
 <defs>
  <style type="text/css">*{stroke-linecap:butt;stroke-linejoin:round;}</style>
 </defs>
 <g id="figure_1">
  <g id="patch_1">
   <path d="M 0 991.44 
L 1843.2 991.44 
L 1843.2 0 
L 0 0 
z
" style="fill:#ffffff;"/>
  </g>
  <g id="axes_1">
   <g id="patch_2">
    <path d="M 230.4 882.3816 
L 1658.88 882.3816 
L 1658.88 118.9728 
L 230.4 118.9728 
z
" style="fill:#ffffff;"/>
   </g>
   <g id="patch_3">
    <path clip-path="url(#pf91a161b49)" d="M 295.330909 882.3816 
L 308.317091 882.3816 
L 308.317091 182.687923 
L 295.330909 182.687923 
z
" style="fill:#1f77b4;"/>
   </g>
   <g id="patch_4">
    <path clip-path="url(#pf91a161b49)" d="M 308.317091 882.3816 
L 321.303273 882.3816 
L 321.303273 319.499535 
L 308.317091 319.499535 
z
" style="fill:#1f77b4;"/>
   </g>
   <g id="patch_5">
    <path clip-path="url(#pf91a161b49)" d="M 321.303273 882.3816 
L 334.289455 882.3816 
L 334.289455 213.959148 
L 321.303273 213.959148 
z
" style="fill:#1f77b4;"/>
   </g>
   <g id="patch_6">
    <path clip-path="url(#pf91a161b49)" d="M 334.289455 882.3816 
L 347.275636 882.3816 
L 347.275636 215.9136 
L 334.289455 215.9136 
z
" style="fill:#1f77b4;"/>
   </g>
   <g id="patch_7">
    <path clip-path="url(#pf91a161b49)" d="M 347.275636 882.3816 
L 360.261818 882.3816 
L 360.261818 155.3256 
L 347.275636 155.3256 
z
" style="fill:#1f77b4;"/>
   </g>
   <g id="patch_8">
    <path clip-path="url(#pf91a161b49)" d="M 360.261818 882.3816 
L 373.248 882.3816 
L 373.248 284.319406 
L 360.261818 284.319406 
z
" style="fill:#1f77b4;"/>
   </g>
   <g id="patch_9">
    <path clip-path="url(#pf91a161b49)" d="M 373.248 882.3816 
L 386.234182 882.3816 
L 386.234182 354.679665 
L 373.248 354.679665 
z
" style="fill:#1f77b4;"/>
   </g>
   <g id="patch_10">
    <path clip-path="url(#pf91a161b49)" d="M 386.234182 882.3816 
L 399.220364 882.3816 
L 399.220364 405.495406 
L 386.234182 405.495406 
z
" style="fill:#1f77b4;"/>
   </g>
   <g id="patch_11">
    <path clip-path="url(#pf91a161b49)" d="M 399.220364 882.3816 
L 412.206545 882.3816 
L 412.206545 364.451923 
L 399.220364 364.451923 
z
" style="fill:#1f77b4;"/>
   </g>
   <g id="patch_12">
    <path clip-path="url(#pf91a161b49)" d="M 412.206545 882.3816 
L 425.192727 882.3816 
L 425.192727 397.6776 
L 412.206545 397.6776 
z
" style="fill:#1f77b4;"/>
   </g>
   <g id="patch_13">
    <path clip-path="url(#pf91a161b49)" d="M 425.192727 882.3816 
L 438.178909 882.3816 
L 438.178909 507.12689 
L 425.192727 507.12689 
z
" style="fill:#1f77b4;"/>
   </g>
   <g id="patch_14">
    <path clip-path="url(#pf91a161b49)" d="M 438.178909 882.3816 
L 451.165091 882.3816 
L 451.165091 550.124826 
L 438.178909 550.124826 
z
" style="fill:#1f77b4;"/>
   </g>
   <g id="patch_15">
    <path clip-path="url(#pf91a161b49)" d="M 451.165091 882.3816 
L 464.151273 882.3816 
L 464.151273 550.124826 
L 451.165091 550.124826 
z
" style="fill:#1f77b4;"/>
   </g>
   <g id="patch_16">
    <path clip-path="url(#pf91a161b49)" d="M 464.151273 882.3816 
L 477.137455 882.3816 
L 477.137455 554.033729 
L 464.151273 554.033729 
z
" style="fill:#1f77b4;"/>
   </g>
   <g id="patch_17">
    <path clip-path="url(#pf91a161b49)" d="M 477.137455 882.3816 
L 490.123636 882.3816 
L 490.123636 712.34431 
L 477.137455 712.34431 
z
" style="fill:#1f77b4;"/>
   </g>
   <g id="patch_18">
    <path clip-path="url(#pf91a161b49)" d="M 490.123636 882.3816 
L 503.109818 882.3816 
L 503.109818 667.391923 
L 490.123636 667.391923 
z
" style="fill:#1f77b4;"/>
   </g>
   <g id="patch_19">
    <path clip-path="url(#pf91a161b49)" d="M 503.109818 882.3816 
L 516.096 882.3816 
L 516.096 620.485084 
L 503.109818 620.485084 
z
" style="fill:#1f77b4;"/>
   </g>
   <g id="patch_20">
    <path clip-path="url(#pf91a161b49)" d="M 516.096 882.3816 
L 529.082182 882.3816 
L 529.082182 620.485084 
L 516.096 620.485084 
z
" style="fill:#1f77b4;"/>
   </g>
   <g id="patch_21">
    <path clip-path="url(#pf91a161b49)" d="M 529.082182 882.3816 
L 542.068364 882.3816 
L 542.068364 671.300826 
L 529.082182 671.300826 
z
" style="fill:#1f77b4;"/>
   </g>
   <g id="patch_22">
    <path clip-path="url(#pf91a161b49)" d="M 542.068364 882.3816 
L 555.054545 882.3816 
L 555.054545 710.389858 
L 542.068364 710.389858 
z
" style="fill:#1f77b4;"/>
   </g>
   <g id="patch_23">
    <path clip-path="url(#pf91a161b49)" d="M 555.054545 882.3816 
L 568.040727 882.3816 
L 568.040727 632.211794 
L 555.054545 632.211794 
z
" style="fill:#1f77b4;"/>
   </g>
   <g id="patch_24">
    <path clip-path="url(#pf91a161b49)" d="M 568.040727 882.3816 
L 581.026909 882.3816 
L 581.026909 667.391923 
L 568.040727 667.391923 
z
" style="fill:#1f77b4;"/>
   </g>
   <g id="patch_25">
    <path clip-path="url(#pf91a161b49)" d="M 581.026909 882.3816 
L 594.013091 882.3816 
L 594.013091 698.663148 
L 581.026909 698.663148 
z
" style="fill:#1f77b4;"/>
   </g>
   <g id="patch_26">
    <path clip-path="url(#pf91a161b49)" d="M 594.013091 882.3816 
L 606.999273 882.3816 
L 606.999273 694.754245 
L 594.013091 694.754245 
z
" style="fill:#1f77b4;"/>
   </g>
   <g id="patch_27">
    <path clip-path="url(#pf91a161b49)" d="M 606.999273 882.3816 
L 619.985455 882.3816 
L 619.985455 741.661084 
L 606.999273 741.661084 
z
" style="fill:#1f77b4;"/>
   </g>
   <g id="patch_28">
    <path clip-path="url(#pf91a161b49)" d="M 619.985455 882.3816 
L 632.971636 882.3816 
L 632.971636 675.209729 
L 619.985455 675.209729 
z
" style="fill:#1f77b4;"/>
   </g>
   <g id="patch_29">
    <path clip-path="url(#pf91a161b49)" d="M 632.971636 882.3816 
L 645.957818 882.3816 
L 645.957818 722.116568 
L 632.971636 722.116568 
z
" style="fill:#1f77b4;"/>
   </g>
   <g id="patch_30">
    <path clip-path="url(#pf91a161b49)" d="M 645.957818 882.3816 
L 658.944 882.3816 
L 658.944 726.025471 
L 645.957818 726.025471 
z
" style="fill:#1f77b4;"/>
   </g>
   <g id="patch_31">
    <path clip-path="url(#pf91a161b49)" d="M 658.944 882.3816 
L 671.930182 882.3816 
L 671.930182 718.207665 
L 658.944 718.207665 
z
" style="fill:#1f77b4;"/>
   </g>
   <g id="patch_32">
    <path clip-path="url(#pf91a161b49)" d="M 671.930182 882.3816 
L 684.916364 882.3816 
L 684.916364 726.025471 
L 671.930182 726.025471 
z
" style="fill:#1f77b4;"/>
   </g>
   <g id="patch_33">
    <path clip-path="url(#pf91a161b49)" d="M 684.916364 882.3816 
L 697.902545 882.3816 
L 697.902545 712.34431 
L 684.916364 712.34431 
z
" style="fill:#1f77b4;"/>
   </g>
   <g id="patch_34">
    <path clip-path="url(#pf91a161b49)" d="M 697.902545 882.3816 
L 710.888727 882.3816 
L 710.888727 714.298761 
L 697.902545 714.298761 
z
" style="fill:#1f77b4;"/>
   </g>
   <g id="patch_35">
    <path clip-path="url(#pf91a161b49)" d="M 710.888727 882.3816 
L 723.874909 882.3816 
L 723.874909 702.572052 
L 710.888727 702.572052 
z
" style="fill:#1f77b4;"/>
   </g>
   <g id="patch_36">
    <path clip-path="url(#pf91a161b49)" d="M 723.874909 882.3816 
L 736.861091 882.3816 
L 736.861091 753.387794 
L 723.874909 753.387794 
z
" style="fill:#1f77b4;"/>
   </g>
   <g id="patch_37">
    <path clip-path="url(#pf91a161b49)" d="M 736.861091 882.3816 
L 749.847273 882.3816 
L 749.847273 774.886761 
L 736.861091 774.886761 
z
" style="fill:#1f77b4;"/>
   </g>
   <g id="patch_38">
    <path clip-path="url(#pf91a161b49)" d="M 749.847273 882.3816 
L 762.833455 882.3816 
L 762.833455 800.294632 
L 749.847273 800.294632 
z
" style="fill:#1f77b4;"/>
   </g>
   <g id="patch_39">
    <path clip-path="url(#pf91a161b49)" d="M 762.833455 882.3816 
L 775.819636 882.3816 
L 775.819636 761.2056 
L 762.833455 761.2056 
z
" style="fill:#1f77b4;"/>
   </g>
   <g id="patch_40">
    <path clip-path="url(#pf91a161b49)" d="M 775.819636 882.3816 
L 788.805818 882.3816 
L 788.805818 710.389858 
L 775.819636 710.389858 
z
" style="fill:#1f77b4;"/>
   </g>
   <g id="patch_41">
    <path clip-path="url(#pf91a161b49)" d="M 788.805818 882.3816 
L 801.792 882.3816 
L 801.792 761.2056 
L 788.805818 761.2056 
z
" style="fill:#1f77b4;"/>
   </g>
   <g id="patch_42">
    <path clip-path="url(#pf91a161b49)" d="M 801.792 882.3816 
L 814.778182 882.3816 
L 814.778182 757.296697 
L 801.792 757.296697 
z
" style="fill:#1f77b4;"/>
   </g>
   <g id="patch_43">
    <path clip-path="url(#pf91a161b49)" d="M 814.778182 882.3816 
L 827.764364 882.3816 
L 827.764364 757.296697 
L 814.778182 757.296697 
z
" style="fill:#1f77b4;"/>
   </g>
   <g id="patch_44">
    <path clip-path="url(#pf91a161b49)" d="M 827.764364 882.3816 
L 840.750545 882.3816 
L 840.750545 757.296697 
L 827.764364 757.296697 
z
" style="fill:#1f77b4;"/>
   </g>
   <g id="patch_45">
    <path clip-path="url(#pf91a161b49)" d="M 840.750545 882.3816 
L 853.736727 882.3816 
L 853.736727 757.296697 
L 840.750545 757.296697 
z
" style="fill:#1f77b4;"/>
   </g>
   <g id="patch_46">
    <path clip-path="url(#pf91a161b49)" d="M 853.736727 882.3816 
L 866.722909 882.3816 
L 866.722909 757.296697 
L 853.736727 757.296697 
z
" style="fill:#1f77b4;"/>
   </g>
   <g id="patch_47">
    <path clip-path="url(#pf91a161b49)" d="M 866.722909 882.3816 
L 879.709091 882.3816 
L 879.709091 745.569987 
L 866.722909 745.569987 
z
" style="fill:#1f77b4;"/>
   </g>
   <g id="patch_48">
    <path clip-path="url(#pf91a161b49)" d="M 879.709091 882.3816 
L 892.695273 882.3816 
L 892.695273 749.47889 
L 879.709091 749.47889 
z
" style="fill:#1f77b4;"/>
   </g>
   <g id="patch_49">
    <path clip-path="url(#pf91a161b49)" d="M 892.695273 882.3816 
L 905.681455 882.3816 
L 905.681455 749.47889 
L 892.695273 749.47889 
z
" style="fill:#1f77b4;"/>
   </g>
   <g id="patch_50">
    <path clip-path="url(#pf91a161b49)" d="M 905.681455 882.3816 
L 918.667636 882.3816 
L 918.667636 737.752181 
L 905.681455 737.752181 
z
" style="fill:#1f77b4;"/>
   </g>
   <g id="patch_51">
    <path clip-path="url(#pf91a161b49)" d="M 918.667636 882.3816 
L 931.653818 882.3816 
L 931.653818 757.296697 
L 918.667636 757.296697 
z
" style="fill:#1f77b4;"/>
   </g>
   <g id="patch_52">
    <path clip-path="url(#pf91a161b49)" d="M 931.653818 882.3816 
L 944.64 882.3816 
L 944.64 767.068955 
L 931.653818 767.068955 
z
" style="fill:#1f77b4;"/>
   </g>
   <g id="patch_53">
    <path clip-path="url(#pf91a161b49)" d="M 944.64 882.3816 
L 957.626182 882.3816 
L 957.626182 792.476826 
L 944.64 792.476826 
z
" style="fill:#1f77b4;"/>
   </g>
   <g id="patch_54">
    <path clip-path="url(#pf91a161b49)" d="M 957.626182 882.3816 
L 970.612364 882.3816 
L 970.612364 749.47889 
L 957.626182 749.47889 
z
" style="fill:#1f77b4;"/>
   </g>
   <g id="patch_55">
    <path clip-path="url(#pf91a161b49)" d="M 970.612364 882.3816 
L 983.598545 882.3816 
L 983.598545 796.385729 
L 970.612364 796.385729 
z
" style="fill:#1f77b4;"/>
   </g>
   <g id="patch_56">
    <path clip-path="url(#pf91a161b49)" d="M 983.598545 882.3816 
L 996.584727 882.3816 
L 996.584727 769.023406 
L 983.598545 769.023406 
z
" style="fill:#1f77b4;"/>
   </g>
   <g id="patch_57">
    <path clip-path="url(#pf91a161b49)" d="M 996.584727 882.3816 
L 1009.570909 882.3816 
L 1009.570909 835.474761 
L 996.584727 835.474761 
z
" style="fill:#1f77b4;"/>
   </g>
   <g id="patch_58">
    <path clip-path="url(#pf91a161b49)" d="M 1009.570909 882.3816 
L 1022.557091 882.3816 
L 1022.557091 819.839148 
L 1009.570909 819.839148 
z
" style="fill:#1f77b4;"/>
   </g>
   <g id="patch_59">
    <path clip-path="url(#pf91a161b49)" d="M 1022.557091 882.3816 
L 1035.543273 882.3816 
L 1035.543273 788.567923 
L 1022.557091 788.567923 
z
" style="fill:#1f77b4;"/>
   </g>
   <g id="patch_60">
    <path clip-path="url(#pf91a161b49)" d="M 1035.543273 882.3816 
L 1048.529455 882.3816 
L 1048.529455 796.385729 
L 1035.543273 796.385729 
z
" style="fill:#1f77b4;"/>
   </g>
   <g id="patch_61">
    <path clip-path="url(#pf91a161b49)" d="M 1048.529455 882.3816 
L 1061.515636 882.3816 
L 1061.515636 815.930245 
L 1048.529455 815.930245 
z
" style="fill:#1f77b4;"/>
   </g>
   <g id="patch_62">
    <path clip-path="url(#pf91a161b49)" d="M 1061.515636 882.3816 
L 1074.501818 882.3816 
L 1074.501818 772.93231 
L 1061.515636 772.93231 
z
" style="fill:#1f77b4;"/>
   </g>
   <g id="patch_63">
    <path clip-path="url(#pf91a161b49)" d="M 1074.501818 882.3816 
L 1087.488 882.3816 
L 1087.488 784.659019 
L 1074.501818 784.659019 
z
" style="fill:#1f77b4;"/>
   </g>
   <g id="patch_64">
    <path clip-path="url(#pf91a161b49)" d="M 1087.488 882.3816 
L 1100.474182 882.3816 
L 1100.474182 796.385729 
L 1087.488 796.385729 
z
" style="fill:#1f77b4;"/>
   </g>
   <g id="patch_65">
    <path clip-path="url(#pf91a161b49)" d="M 1100.474182 882.3816 
L 1113.460364 882.3816 
L 1113.460364 769.023406 
L 1100.474182 769.023406 
z
" style="fill:#1f77b4;"/>
   </g>
   <g id="patch_66">
    <path clip-path="url(#pf91a161b49)" d="M 1113.460364 882.3816 
L 1126.446545 882.3816 
L 1126.446545 772.93231 
L 1113.460364 772.93231 
z
" style="fill:#1f77b4;"/>
   </g>
   <g id="patch_67">
    <path clip-path="url(#pf91a161b49)" d="M 1126.446545 882.3816 
L 1139.432727 882.3816 
L 1139.432727 741.661084 
L 1126.446545 741.661084 
z
" style="fill:#1f77b4;"/>
   </g>
   <g id="patch_68">
    <path clip-path="url(#pf91a161b49)" d="M 1139.432727 882.3816 
L 1152.418909 882.3816 
L 1152.418909 776.841213 
L 1139.432727 776.841213 
z
" style="fill:#1f77b4;"/>
   </g>
   <g id="patch_69">
    <path clip-path="url(#pf91a161b49)" d="M 1152.418909 882.3816 
L 1165.405091 882.3816 
L 1165.405091 796.385729 
L 1152.418909 796.385729 
z
" style="fill:#1f77b4;"/>
   </g>
   <g id="patch_70">
    <path clip-path="url(#pf91a161b49)" d="M 1165.405091 882.3816 
L 1178.391273 882.3816 
L 1178.391273 780.750116 
L 1165.405091 780.750116 
z
" style="fill:#1f77b4;"/>
   </g>
   <g id="patch_71">
    <path clip-path="url(#pf91a161b49)" d="M 1178.391273 882.3816 
L 1191.377455 882.3816 
L 1191.377455 788.567923 
L 1178.391273 788.567923 
z
" style="fill:#1f77b4;"/>
   </g>
   <g id="patch_72">
    <path clip-path="url(#pf91a161b49)" d="M 1191.377455 882.3816 
L 1204.363636 882.3816 
L 1204.363636 815.930245 
L 1191.377455 815.930245 
z
" style="fill:#1f77b4;"/>
   </g>
   <g id="patch_73">
    <path clip-path="url(#pf91a161b49)" d="M 1204.363636 882.3816 
L 1217.349818 882.3816 
L 1217.349818 823.748052 
L 1204.363636 823.748052 
z
" style="fill:#1f77b4;"/>
   </g>
   <g id="patch_74">
    <path clip-path="url(#pf91a161b49)" d="M 1217.349818 882.3816 
L 1230.336 882.3816 
L 1230.336 788.567923 
L 1217.349818 788.567923 
z
" style="fill:#1f77b4;"/>
   </g>
   <g id="patch_75">
    <path clip-path="url(#pf91a161b49)" d="M 1230.336 882.3816 
L 1243.322182 882.3816 
L 1243.322182 835.474761 
L 1230.336 835.474761 
z
" style="fill:#1f77b4;"/>
   </g>
   <g id="patch_76">
    <path clip-path="url(#pf91a161b49)" d="M 1243.322182 882.3816 
L 1256.308364 882.3816 
L 1256.308364 819.839148 
L 1243.322182 819.839148 
z
" style="fill:#1f77b4;"/>
   </g>
   <g id="patch_77">
    <path clip-path="url(#pf91a161b49)" d="M 1256.308364 882.3816 
L 1269.294545 882.3816 
L 1269.294545 831.565858 
L 1256.308364 831.565858 
z
" style="fill:#1f77b4;"/>
   </g>
   <g id="patch_78">
    <path clip-path="url(#pf91a161b49)" d="M 1269.294545 882.3816 
L 1282.280727 882.3816 
L 1282.280727 815.930245 
L 1269.294545 815.930245 
z
" style="fill:#1f77b4;"/>
   </g>
   <g id="patch_79">
    <path clip-path="url(#pf91a161b49)" d="M 1282.280727 882.3816 
L 1295.266909 882.3816 
L 1295.266909 835.474761 
L 1282.280727 835.474761 
z
" style="fill:#1f77b4;"/>
   </g>
   <g id="patch_80">
    <path clip-path="url(#pf91a161b49)" d="M 1295.266909 882.3816 
L 1308.253091 882.3816 
L 1308.253091 827.656955 
L 1295.266909 827.656955 
z
" style="fill:#1f77b4;"/>
   </g>
   <g id="patch_81">
    <path clip-path="url(#pf91a161b49)" d="M 1308.253091 882.3816 
L 1321.239273 882.3816 
L 1321.239273 823.748052 
L 1308.253091 823.748052 
z
" style="fill:#1f77b4;"/>
   </g>
   <g id="patch_82">
    <path clip-path="url(#pf91a161b49)" d="M 1321.239273 882.3816 
L 1334.225455 882.3816 
L 1334.225455 800.294632 
L 1321.239273 800.294632 
z
" style="fill:#1f77b4;"/>
   </g>
   <g id="patch_83">
    <path clip-path="url(#pf91a161b49)" d="M 1334.225455 882.3816 
L 1347.211636 882.3816 
L 1347.211636 796.385729 
L 1334.225455 796.385729 
z
" style="fill:#1f77b4;"/>
   </g>
   <g id="patch_84">
    <path clip-path="url(#pf91a161b49)" d="M 1347.211636 882.3816 
L 1360.197818 882.3816 
L 1360.197818 808.112439 
L 1347.211636 808.112439 
z
" style="fill:#1f77b4;"/>
   </g>
   <g id="patch_85">
    <path clip-path="url(#pf91a161b49)" d="M 1360.197818 882.3816 
L 1373.184 882.3816 
L 1373.184 839.383665 
L 1360.197818 839.383665 
z
" style="fill:#1f77b4;"/>
   </g>
   <g id="patch_86">
    <path clip-path="url(#pf91a161b49)" d="M 1373.184 882.3816 
L 1386.170182 882.3816 
L 1386.170182 827.656955 
L 1373.184 827.656955 
z
" style="fill:#1f77b4;"/>
   </g>
   <g id="patch_87">
    <path clip-path="url(#pf91a161b49)" d="M 1386.170182 882.3816 
L 1399.156364 882.3816 
L 1399.156364 819.839148 
L 1386.170182 819.839148 
z
" style="fill:#1f77b4;"/>
   </g>
   <g id="patch_88">
    <path clip-path="url(#pf91a161b49)" d="M 1399.156364 882.3816 
L 1412.142545 882.3816 
L 1412.142545 855.019277 
L 1399.156364 855.019277 
z
" style="fill:#1f77b4;"/>
   </g>
   <g id="patch_89">
    <path clip-path="url(#pf91a161b49)" d="M 1412.142545 882.3816 
L 1425.128727 882.3816 
L 1425.128727 851.110374 
L 1412.142545 851.110374 
z
" style="fill:#1f77b4;"/>
   </g>
   <g id="patch_90">
    <path clip-path="url(#pf91a161b49)" d="M 1425.128727 882.3816 
L 1438.114909 882.3816 
L 1438.114909 858.928181 
L 1425.128727 858.928181 
z
" style="fill:#1f77b4;"/>
   </g>
   <g id="patch_91">
    <path clip-path="url(#pf91a161b49)" d="M 1438.114909 882.3816 
L 1451.101091 882.3816 
L 1451.101091 866.745987 
L 1438.114909 866.745987 
z
" style="fill:#1f77b4;"/>
   </g>
   <g id="patch_92">
    <path clip-path="url(#pf91a161b49)" d="M 1451.101091 882.3816 
L 1464.087273 882.3816 
L 1464.087273 843.292568 
L 1451.101091 843.292568 
z
" style="fill:#1f77b4;"/>
   </g>
   <g id="patch_93">
    <path clip-path="url(#pf91a161b49)" d="M 1464.087273 882.3816 
L 1477.073455 882.3816 
L 1477.073455 827.656955 
L 1464.087273 827.656955 
z
" style="fill:#1f77b4;"/>
   </g>
   <g id="patch_94">
    <path clip-path="url(#pf91a161b49)" d="M 1477.073455 882.3816 
L 1490.059636 882.3816 
L 1490.059636 839.383665 
L 1477.073455 839.383665 
z
" style="fill:#1f77b4;"/>
   </g>
   <g id="patch_95">
    <path clip-path="url(#pf91a161b49)" d="M 1490.059636 882.3816 
L 1503.045818 882.3816 
L 1503.045818 835.474761 
L 1490.059636 835.474761 
z
" style="fill:#1f77b4;"/>
   </g>
   <g id="patch_96">
    <path clip-path="url(#pf91a161b49)" d="M 1503.045818 882.3816 
L 1516.032 882.3816 
L 1516.032 855.019277 
L 1503.045818 855.019277 
z
" style="fill:#1f77b4;"/>
   </g>
   <g id="patch_97">
    <path clip-path="url(#pf91a161b49)" d="M 1516.032 882.3816 
L 1529.018182 882.3816 
L 1529.018182 866.745987 
L 1516.032 866.745987 
z
" style="fill:#1f77b4;"/>
   </g>
   <g id="patch_98">
    <path clip-path="url(#pf91a161b49)" d="M 1529.018182 882.3816 
L 1542.004364 882.3816 
L 1542.004364 858.928181 
L 1529.018182 858.928181 
z
" style="fill:#1f77b4;"/>
   </g>
   <g id="patch_99">
    <path clip-path="url(#pf91a161b49)" d="M 1542.004364 882.3816 
L 1554.990545 882.3816 
L 1554.990545 862.837084 
L 1542.004364 862.837084 
z
" style="fill:#1f77b4;"/>
   </g>
   <g id="patch_100">
    <path clip-path="url(#pf91a161b49)" d="M 1554.990545 882.3816 
L 1567.976727 882.3816 
L 1567.976727 870.65489 
L 1554.990545 870.65489 
z
" style="fill:#1f77b4;"/>
   </g>
   <g id="patch_101">
    <path clip-path="url(#pf91a161b49)" d="M 1567.976727 882.3816 
L 1580.962909 882.3816 
L 1580.962909 878.472697 
L 1567.976727 878.472697 
z
" style="fill:#1f77b4;"/>
   </g>
   <g id="patch_102">
    <path clip-path="url(#pf91a161b49)" d="M 1580.962909 882.3816 
L 1593.949091 882.3816 
L 1593.949091 878.472697 
L 1580.962909 878.472697 
z
" style="fill:#1f77b4;"/>
   </g>
   <g id="matplotlib.axis_1">
    <g id="xtick_1">
     <g id="line2d_1">
      <defs>
       <path d="M 0 0 
L 0 3.5 
" id="m1148c3ede9" style="stroke:#000000;stroke-width:0.8;"/>
      </defs>
      <g>
       <use style="stroke:#000000;stroke-width:0.8;" x="294.321263" xlink:href="#m1148c3ede9" y="882.3816"/>
      </g>
     </g>
     <g id="text_1">
      <!-- 0 -->
      <g transform="translate(291.140013 896.980037)scale(0.1 -0.1)">
       <defs>
        <path d="M 2034 4250 
Q 1547 4250 1301 3770 
Q 1056 3291 1056 2328 
Q 1056 1369 1301 889 
Q 1547 409 2034 409 
Q 2525 409 2770 889 
Q 3016 1369 3016 2328 
Q 3016 3291 2770 3770 
Q 2525 4250 2034 4250 
z
M 2034 4750 
Q 2819 4750 3233 4129 
Q 3647 3509 3647 2328 
Q 3647 1150 3233 529 
Q 2819 -91 2034 -91 
Q 1250 -91 836 529 
Q 422 1150 422 2328 
Q 422 3509 836 4129 
Q 1250 4750 2034 4750 
z
" id="DejaVuSans-30" transform="scale(0.015625)"/>
       </defs>
       <use xlink:href="#DejaVuSans-30"/>
      </g>
     </g>
    </g>
    <g id="xtick_2">
     <g id="line2d_2">
      <g>
       <use style="stroke:#000000;stroke-width:0.8;" x="531.884958" xlink:href="#m1148c3ede9" y="882.3816"/>
      </g>
     </g>
     <g id="text_2">
      <!-- 200 -->
      <g transform="translate(522.341208 896.980037)scale(0.1 -0.1)">
       <defs>
        <path d="M 1228 531 
L 3431 531 
L 3431 0 
L 469 0 
L 469 531 
Q 828 903 1448 1529 
Q 2069 2156 2228 2338 
Q 2531 2678 2651 2914 
Q 2772 3150 2772 3378 
Q 2772 3750 2511 3984 
Q 2250 4219 1831 4219 
Q 1534 4219 1204 4116 
Q 875 4013 500 3803 
L 500 4441 
Q 881 4594 1212 4672 
Q 1544 4750 1819 4750 
Q 2544 4750 2975 4387 
Q 3406 4025 3406 3419 
Q 3406 3131 3298 2873 
Q 3191 2616 2906 2266 
Q 2828 2175 2409 1742 
Q 1991 1309 1228 531 
z
" id="DejaVuSans-32" transform="scale(0.015625)"/>
       </defs>
       <use xlink:href="#DejaVuSans-32"/>
       <use x="63.623047" xlink:href="#DejaVuSans-30"/>
       <use x="127.246094" xlink:href="#DejaVuSans-30"/>
      </g>
     </g>
    </g>
    <g id="xtick_3">
     <g id="line2d_3">
      <g>
       <use style="stroke:#000000;stroke-width:0.8;" x="769.448653" xlink:href="#m1148c3ede9" y="882.3816"/>
      </g>
     </g>
     <g id="text_3">
      <!-- 400 -->
      <g transform="translate(759.904903 896.980037)scale(0.1 -0.1)">
       <defs>
        <path d="M 2419 4116 
L 825 1625 
L 2419 1625 
L 2419 4116 
z
M 2253 4666 
L 3047 4666 
L 3047 1625 
L 3713 1625 
L 3713 1100 
L 3047 1100 
L 3047 0 
L 2419 0 
L 2419 1100 
L 313 1100 
L 313 1709 
L 2253 4666 
z
" id="DejaVuSans-34" transform="scale(0.015625)"/>
       </defs>
       <use xlink:href="#DejaVuSans-34"/>
       <use x="63.623047" xlink:href="#DejaVuSans-30"/>
       <use x="127.246094" xlink:href="#DejaVuSans-30"/>
      </g>
     </g>
    </g>
    <g id="xtick_4">
     <g id="line2d_4">
      <g>
       <use style="stroke:#000000;stroke-width:0.8;" x="1007.012348" xlink:href="#m1148c3ede9" y="882.3816"/>
      </g>
     </g>
     <g id="text_4">
      <!-- 600 -->
      <g transform="translate(997.468598 896.980037)scale(0.1 -0.1)">
       <defs>
        <path d="M 2113 2584 
Q 1688 2584 1439 2293 
Q 1191 2003 1191 1497 
Q 1191 994 1439 701 
Q 1688 409 2113 409 
Q 2538 409 2786 701 
Q 3034 994 3034 1497 
Q 3034 2003 2786 2293 
Q 2538 2584 2113 2584 
z
M 3366 4563 
L 3366 3988 
Q 3128 4100 2886 4159 
Q 2644 4219 2406 4219 
Q 1781 4219 1451 3797 
Q 1122 3375 1075 2522 
Q 1259 2794 1537 2939 
Q 1816 3084 2150 3084 
Q 2853 3084 3261 2657 
Q 3669 2231 3669 1497 
Q 3669 778 3244 343 
Q 2819 -91 2113 -91 
Q 1303 -91 875 529 
Q 447 1150 447 2328 
Q 447 3434 972 4092 
Q 1497 4750 2381 4750 
Q 2619 4750 2861 4703 
Q 3103 4656 3366 4563 
z
" id="DejaVuSans-36" transform="scale(0.015625)"/>
       </defs>
       <use xlink:href="#DejaVuSans-36"/>
       <use x="63.623047" xlink:href="#DejaVuSans-30"/>
       <use x="127.246094" xlink:href="#DejaVuSans-30"/>
      </g>
     </g>
    </g>
    <g id="xtick_5">
     <g id="line2d_5">
      <g>
       <use style="stroke:#000000;stroke-width:0.8;" x="1244.576043" xlink:href="#m1148c3ede9" y="882.3816"/>
      </g>
     </g>
     <g id="text_5">
      <!-- 800 -->
      <g transform="translate(1235.032293 896.980037)scale(0.1 -0.1)">
       <defs>
        <path d="M 2034 2216 
Q 1584 2216 1326 1975 
Q 1069 1734 1069 1313 
Q 1069 891 1326 650 
Q 1584 409 2034 409 
Q 2484 409 2743 651 
Q 3003 894 3003 1313 
Q 3003 1734 2745 1975 
Q 2488 2216 2034 2216 
z
M 1403 2484 
Q 997 2584 770 2862 
Q 544 3141 544 3541 
Q 544 4100 942 4425 
Q 1341 4750 2034 4750 
Q 2731 4750 3128 4425 
Q 3525 4100 3525 3541 
Q 3525 3141 3298 2862 
Q 3072 2584 2669 2484 
Q 3125 2378 3379 2068 
Q 3634 1759 3634 1313 
Q 3634 634 3220 271 
Q 2806 -91 2034 -91 
Q 1263 -91 848 271 
Q 434 634 434 1313 
Q 434 1759 690 2068 
Q 947 2378 1403 2484 
z
M 1172 3481 
Q 1172 3119 1398 2916 
Q 1625 2713 2034 2713 
Q 2441 2713 2670 2916 
Q 2900 3119 2900 3481 
Q 2900 3844 2670 4047 
Q 2441 4250 2034 4250 
Q 1625 4250 1398 4047 
Q 1172 3844 1172 3481 
z
" id="DejaVuSans-38" transform="scale(0.015625)"/>
       </defs>
       <use xlink:href="#DejaVuSans-38"/>
       <use x="63.623047" xlink:href="#DejaVuSans-30"/>
       <use x="127.246094" xlink:href="#DejaVuSans-30"/>
      </g>
     </g>
    </g>
    <g id="xtick_6">
     <g id="line2d_6">
      <g>
       <use style="stroke:#000000;stroke-width:0.8;" x="1482.139738" xlink:href="#m1148c3ede9" y="882.3816"/>
      </g>
     </g>
     <g id="text_6">
      <!-- 1000 -->
      <g transform="translate(1469.414738 896.980037)scale(0.1 -0.1)">
       <defs>
        <path d="M 794 531 
L 1825 531 
L 1825 4091 
L 703 3866 
L 703 4441 
L 1819 4666 
L 2450 4666 
L 2450 531 
L 3481 531 
L 3481 0 
L 794 0 
L 794 531 
z
" id="DejaVuSans-31" transform="scale(0.015625)"/>
       </defs>
       <use xlink:href="#DejaVuSans-31"/>
       <use x="63.623047" xlink:href="#DejaVuSans-30"/>
       <use x="127.246094" xlink:href="#DejaVuSans-30"/>
       <use x="190.869141" xlink:href="#DejaVuSans-30"/>
      </g>
     </g>
    </g>
    <g id="text_7">
     <!-- Irradiance (W/$m^2$) -->
     <g transform="translate(899.74 911.480037)scale(0.1 -0.1)">
      <defs>
       <path d="M 628 4666 
L 1259 4666 
L 1259 0 
L 628 0 
L 628 4666 
z
" id="DejaVuSans-49" transform="scale(0.015625)"/>
       <path d="M 2631 2963 
Q 2534 3019 2420 3045 
Q 2306 3072 2169 3072 
Q 1681 3072 1420 2755 
Q 1159 2438 1159 1844 
L 1159 0 
L 581 0 
L 581 3500 
L 1159 3500 
L 1159 2956 
Q 1341 3275 1631 3429 
Q 1922 3584 2338 3584 
Q 2397 3584 2469 3576 
Q 2541 3569 2628 3553 
L 2631 2963 
z
" id="DejaVuSans-72" transform="scale(0.015625)"/>
       <path d="M 2194 1759 
Q 1497 1759 1228 1600 
Q 959 1441 959 1056 
Q 959 750 1161 570 
Q 1363 391 1709 391 
Q 2188 391 2477 730 
Q 2766 1069 2766 1631 
L 2766 1759 
L 2194 1759 
z
M 3341 1997 
L 3341 0 
L 2766 0 
L 2766 531 
Q 2569 213 2275 61 
Q 1981 -91 1556 -91 
Q 1019 -91 701 211 
Q 384 513 384 1019 
Q 384 1609 779 1909 
Q 1175 2209 1959 2209 
L 2766 2209 
L 2766 2266 
Q 2766 2663 2505 2880 
Q 2244 3097 1772 3097 
Q 1472 3097 1187 3025 
Q 903 2953 641 2809 
L 641 3341 
Q 956 3463 1253 3523 
Q 1550 3584 1831 3584 
Q 2591 3584 2966 3190 
Q 3341 2797 3341 1997 
z
" id="DejaVuSans-61" transform="scale(0.015625)"/>
       <path d="M 2906 2969 
L 2906 4863 
L 3481 4863 
L 3481 0 
L 2906 0 
L 2906 525 
Q 2725 213 2448 61 
Q 2172 -91 1784 -91 
Q 1150 -91 751 415 
Q 353 922 353 1747 
Q 353 2572 751 3078 
Q 1150 3584 1784 3584 
Q 2172 3584 2448 3432 
Q 2725 3281 2906 2969 
z
M 947 1747 
Q 947 1113 1208 752 
Q 1469 391 1925 391 
Q 2381 391 2643 752 
Q 2906 1113 2906 1747 
Q 2906 2381 2643 2742 
Q 2381 3103 1925 3103 
Q 1469 3103 1208 2742 
Q 947 2381 947 1747 
z
" id="DejaVuSans-64" transform="scale(0.015625)"/>
       <path d="M 603 3500 
L 1178 3500 
L 1178 0 
L 603 0 
L 603 3500 
z
M 603 4863 
L 1178 4863 
L 1178 4134 
L 603 4134 
L 603 4863 
z
" id="DejaVuSans-69" transform="scale(0.015625)"/>
       <path d="M 3513 2113 
L 3513 0 
L 2938 0 
L 2938 2094 
Q 2938 2591 2744 2837 
Q 2550 3084 2163 3084 
Q 1697 3084 1428 2787 
Q 1159 2491 1159 1978 
L 1159 0 
L 581 0 
L 581 3500 
L 1159 3500 
L 1159 2956 
Q 1366 3272 1645 3428 
Q 1925 3584 2291 3584 
Q 2894 3584 3203 3211 
Q 3513 2838 3513 2113 
z
" id="DejaVuSans-6e" transform="scale(0.015625)"/>
       <path d="M 3122 3366 
L 3122 2828 
Q 2878 2963 2633 3030 
Q 2388 3097 2138 3097 
Q 1578 3097 1268 2742 
Q 959 2388 959 1747 
Q 959 1106 1268 751 
Q 1578 397 2138 397 
Q 2388 397 2633 464 
Q 2878 531 3122 666 
L 3122 134 
Q 2881 22 2623 -34 
Q 2366 -91 2075 -91 
Q 1284 -91 818 406 
Q 353 903 353 1747 
Q 353 2603 823 3093 
Q 1294 3584 2113 3584 
Q 2378 3584 2631 3529 
Q 2884 3475 3122 3366 
z
" id="DejaVuSans-63" transform="scale(0.015625)"/>
       <path d="M 3597 1894 
L 3597 1613 
L 953 1613 
Q 991 1019 1311 708 
Q 1631 397 2203 397 
Q 2534 397 2845 478 
Q 3156 559 3463 722 
L 3463 178 
Q 3153 47 2828 -22 
Q 2503 -91 2169 -91 
Q 1331 -91 842 396 
Q 353 884 353 1716 
Q 353 2575 817 3079 
Q 1281 3584 2069 3584 
Q 2775 3584 3186 3129 
Q 3597 2675 3597 1894 
z
M 3022 2063 
Q 3016 2534 2758 2815 
Q 2500 3097 2075 3097 
Q 1594 3097 1305 2825 
Q 1016 2553 972 2059 
L 3022 2063 
z
" id="DejaVuSans-65" transform="scale(0.015625)"/>
       <path id="DejaVuSans-20" transform="scale(0.015625)"/>
       <path d="M 1984 4856 
Q 1566 4138 1362 3434 
Q 1159 2731 1159 2009 
Q 1159 1288 1364 580 
Q 1569 -128 1984 -844 
L 1484 -844 
Q 1016 -109 783 600 
Q 550 1309 550 2009 
Q 550 2706 781 3412 
Q 1013 4119 1484 4856 
L 1984 4856 
z
" id="DejaVuSans-28" transform="scale(0.015625)"/>
       <path d="M 213 4666 
L 850 4666 
L 1831 722 
L 2809 4666 
L 3519 4666 
L 4500 722 
L 5478 4666 
L 6119 4666 
L 4947 0 
L 4153 0 
L 3169 4050 
L 2175 0 
L 1381 0 
L 213 4666 
z
" id="DejaVuSans-57" transform="scale(0.015625)"/>
       <path d="M 1625 4666 
L 2156 4666 
L 531 -594 
L 0 -594 
L 1625 4666 
z
" id="DejaVuSans-2f" transform="scale(0.015625)"/>
       <path d="M 5747 2113 
L 5338 0 
L 4763 0 
L 5166 2094 
Q 5191 2228 5203 2325 
Q 5216 2422 5216 2491 
Q 5216 2772 5059 2928 
Q 4903 3084 4622 3084 
Q 4203 3084 3875 2770 
Q 3547 2456 3450 1953 
L 3066 0 
L 2491 0 
L 2900 2094 
Q 2925 2209 2937 2307 
Q 2950 2406 2950 2484 
Q 2950 2769 2794 2926 
Q 2638 3084 2363 3084 
Q 1938 3084 1609 2770 
Q 1281 2456 1184 1953 
L 800 0 
L 225 0 
L 909 3500 
L 1484 3500 
L 1375 2956 
Q 1609 3263 1923 3423 
Q 2238 3584 2597 3584 
Q 2978 3584 3223 3384 
Q 3469 3184 3519 2828 
Q 3781 3197 4126 3390 
Q 4472 3584 4856 3584 
Q 5306 3584 5551 3325 
Q 5797 3066 5797 2591 
Q 5797 2488 5784 2364 
Q 5772 2241 5747 2113 
z
" id="DejaVuSans-Oblique-6d" transform="scale(0.015625)"/>
       <path d="M 513 4856 
L 1013 4856 
Q 1481 4119 1714 3412 
Q 1947 2706 1947 2009 
Q 1947 1309 1714 600 
Q 1481 -109 1013 -844 
L 513 -844 
Q 928 -128 1133 580 
Q 1338 1288 1338 2009 
Q 1338 2731 1133 3434 
Q 928 4138 513 4856 
z
" id="DejaVuSans-29" transform="scale(0.015625)"/>
      </defs>
      <use transform="translate(0 0.765625)" xlink:href="#DejaVuSans-49"/>
      <use transform="translate(29.492188 0.765625)" xlink:href="#DejaVuSans-72"/>
      <use transform="translate(70.605469 0.765625)" xlink:href="#DejaVuSans-72"/>
      <use transform="translate(111.71875 0.765625)" xlink:href="#DejaVuSans-61"/>
      <use transform="translate(172.998047 0.765625)" xlink:href="#DejaVuSans-64"/>
      <use transform="translate(236.474609 0.765625)" xlink:href="#DejaVuSans-69"/>
      <use transform="translate(264.257812 0.765625)" xlink:href="#DejaVuSans-61"/>
      <use transform="translate(325.537109 0.765625)" xlink:href="#DejaVuSans-6e"/>
      <use transform="translate(388.916016 0.765625)" xlink:href="#DejaVuSans-63"/>
      <use transform="translate(443.896484 0.765625)" xlink:href="#DejaVuSans-65"/>
      <use transform="translate(505.419922 0.765625)" xlink:href="#DejaVuSans-20"/>
      <use transform="translate(537.207031 0.765625)" xlink:href="#DejaVuSans-28"/>
      <use transform="translate(576.220703 0.765625)" xlink:href="#DejaVuSans-57"/>
      <use transform="translate(675.097656 0.765625)" xlink:href="#DejaVuSans-2f"/>
      <use transform="translate(708.789062 0.765625)" xlink:href="#DejaVuSans-Oblique-6d"/>
      <use transform="translate(810.851068 39.046875)scale(0.7)" xlink:href="#DejaVuSans-32"/>
      <use transform="translate(858.121576 0.765625)" xlink:href="#DejaVuSans-29"/>
     </g>
    </g>
   </g>
   <g id="matplotlib.axis_2">
    <g id="ytick_1">
     <g id="line2d_7">
      <defs>
       <path d="M 0 0 
L -3.5 0 
" id="m2548ce47c0" style="stroke:#000000;stroke-width:0.8;"/>
      </defs>
      <g>
       <use style="stroke:#000000;stroke-width:0.8;" x="230.4" xlink:href="#m2548ce47c0" y="882.3816"/>
      </g>
     </g>
     <g id="text_8">
      <!-- 0 -->
      <g transform="translate(217.0375 886.180819)scale(0.1 -0.1)">
       <use xlink:href="#DejaVuSans-30"/>
      </g>
     </g>
    </g>
    <g id="ytick_2">
     <g id="line2d_8">
      <g>
       <use style="stroke:#000000;stroke-width:0.8;" x="230.4" xlink:href="#m2548ce47c0" y="784.659019"/>
      </g>
     </g>
     <g id="text_9">
      <!-- 50 -->
      <g transform="translate(210.675 788.458238)scale(0.1 -0.1)">
       <defs>
        <path d="M 691 4666 
L 3169 4666 
L 3169 4134 
L 1269 4134 
L 1269 2991 
Q 1406 3038 1543 3061 
Q 1681 3084 1819 3084 
Q 2600 3084 3056 2656 
Q 3513 2228 3513 1497 
Q 3513 744 3044 326 
Q 2575 -91 1722 -91 
Q 1428 -91 1123 -41 
Q 819 9 494 109 
L 494 744 
Q 775 591 1075 516 
Q 1375 441 1709 441 
Q 2250 441 2565 725 
Q 2881 1009 2881 1497 
Q 2881 1984 2565 2268 
Q 2250 2553 1709 2553 
Q 1456 2553 1204 2497 
Q 953 2441 691 2322 
L 691 4666 
z
" id="DejaVuSans-35" transform="scale(0.015625)"/>
       </defs>
       <use xlink:href="#DejaVuSans-35"/>
       <use x="63.623047" xlink:href="#DejaVuSans-30"/>
      </g>
     </g>
    </g>
    <g id="ytick_3">
     <g id="line2d_9">
      <g>
       <use style="stroke:#000000;stroke-width:0.8;" x="230.4" xlink:href="#m2548ce47c0" y="686.936439"/>
      </g>
     </g>
     <g id="text_10">
      <!-- 100 -->
      <g transform="translate(204.3125 690.735657)scale(0.1 -0.1)">
       <use xlink:href="#DejaVuSans-31"/>
       <use x="63.623047" xlink:href="#DejaVuSans-30"/>
       <use x="127.246094" xlink:href="#DejaVuSans-30"/>
      </g>
     </g>
    </g>
    <g id="ytick_4">
     <g id="line2d_10">
      <g>
       <use style="stroke:#000000;stroke-width:0.8;" x="230.4" xlink:href="#m2548ce47c0" y="589.213858"/>
      </g>
     </g>
     <g id="text_11">
      <!-- 150 -->
      <g transform="translate(204.3125 593.013077)scale(0.1 -0.1)">
       <use xlink:href="#DejaVuSans-31"/>
       <use x="63.623047" xlink:href="#DejaVuSans-35"/>
       <use x="127.246094" xlink:href="#DejaVuSans-30"/>
      </g>
     </g>
    </g>
    <g id="ytick_5">
     <g id="line2d_11">
      <g>
       <use style="stroke:#000000;stroke-width:0.8;" x="230.4" xlink:href="#m2548ce47c0" y="491.491277"/>
      </g>
     </g>
     <g id="text_12">
      <!-- 200 -->
      <g transform="translate(204.3125 495.290496)scale(0.1 -0.1)">
       <use xlink:href="#DejaVuSans-32"/>
       <use x="63.623047" xlink:href="#DejaVuSans-30"/>
       <use x="127.246094" xlink:href="#DejaVuSans-30"/>
      </g>
     </g>
    </g>
    <g id="ytick_6">
     <g id="line2d_12">
      <g>
       <use style="stroke:#000000;stroke-width:0.8;" x="230.4" xlink:href="#m2548ce47c0" y="393.768697"/>
      </g>
     </g>
     <g id="text_13">
      <!-- 250 -->
      <g transform="translate(204.3125 397.567916)scale(0.1 -0.1)">
       <use xlink:href="#DejaVuSans-32"/>
       <use x="63.623047" xlink:href="#DejaVuSans-35"/>
       <use x="127.246094" xlink:href="#DejaVuSans-30"/>
      </g>
     </g>
    </g>
    <g id="ytick_7">
     <g id="line2d_13">
      <g>
       <use style="stroke:#000000;stroke-width:0.8;" x="230.4" xlink:href="#m2548ce47c0" y="296.046116"/>
      </g>
     </g>
     <g id="text_14">
      <!-- 300 -->
      <g transform="translate(204.3125 299.845335)scale(0.1 -0.1)">
       <defs>
        <path d="M 2597 2516 
Q 3050 2419 3304 2112 
Q 3559 1806 3559 1356 
Q 3559 666 3084 287 
Q 2609 -91 1734 -91 
Q 1441 -91 1130 -33 
Q 819 25 488 141 
L 488 750 
Q 750 597 1062 519 
Q 1375 441 1716 441 
Q 2309 441 2620 675 
Q 2931 909 2931 1356 
Q 2931 1769 2642 2001 
Q 2353 2234 1838 2234 
L 1294 2234 
L 1294 2753 
L 1863 2753 
Q 2328 2753 2575 2939 
Q 2822 3125 2822 3475 
Q 2822 3834 2567 4026 
Q 2313 4219 1838 4219 
Q 1578 4219 1281 4162 
Q 984 4106 628 3988 
L 628 4550 
Q 988 4650 1302 4700 
Q 1616 4750 1894 4750 
Q 2613 4750 3031 4423 
Q 3450 4097 3450 3541 
Q 3450 3153 3228 2886 
Q 3006 2619 2597 2516 
z
" id="DejaVuSans-33" transform="scale(0.015625)"/>
       </defs>
       <use xlink:href="#DejaVuSans-33"/>
       <use x="63.623047" xlink:href="#DejaVuSans-30"/>
       <use x="127.246094" xlink:href="#DejaVuSans-30"/>
      </g>
     </g>
    </g>
    <g id="ytick_8">
     <g id="line2d_14">
      <g>
       <use style="stroke:#000000;stroke-width:0.8;" x="230.4" xlink:href="#m2548ce47c0" y="198.323535"/>
      </g>
     </g>
     <g id="text_15">
      <!-- 350 -->
      <g transform="translate(204.3125 202.122754)scale(0.1 -0.1)">
       <use xlink:href="#DejaVuSans-33"/>
       <use x="63.623047" xlink:href="#DejaVuSans-35"/>
       <use x="127.246094" xlink:href="#DejaVuSans-30"/>
      </g>
     </g>
    </g>
    <g id="text_16">
     <!-- Frequency -->
     <g transform="translate(198.232812 526.506887)rotate(-90)scale(0.1 -0.1)">
      <defs>
       <path d="M 628 4666 
L 3309 4666 
L 3309 4134 
L 1259 4134 
L 1259 2759 
L 3109 2759 
L 3109 2228 
L 1259 2228 
L 1259 0 
L 628 0 
L 628 4666 
z
" id="DejaVuSans-46" transform="scale(0.015625)"/>
       <path d="M 947 1747 
Q 947 1113 1208 752 
Q 1469 391 1925 391 
Q 2381 391 2643 752 
Q 2906 1113 2906 1747 
Q 2906 2381 2643 2742 
Q 2381 3103 1925 3103 
Q 1469 3103 1208 2742 
Q 947 2381 947 1747 
z
M 2906 525 
Q 2725 213 2448 61 
Q 2172 -91 1784 -91 
Q 1150 -91 751 415 
Q 353 922 353 1747 
Q 353 2572 751 3078 
Q 1150 3584 1784 3584 
Q 2172 3584 2448 3432 
Q 2725 3281 2906 2969 
L 2906 3500 
L 3481 3500 
L 3481 -1331 
L 2906 -1331 
L 2906 525 
z
" id="DejaVuSans-71" transform="scale(0.015625)"/>
       <path d="M 544 1381 
L 544 3500 
L 1119 3500 
L 1119 1403 
Q 1119 906 1312 657 
Q 1506 409 1894 409 
Q 2359 409 2629 706 
Q 2900 1003 2900 1516 
L 2900 3500 
L 3475 3500 
L 3475 0 
L 2900 0 
L 2900 538 
Q 2691 219 2414 64 
Q 2138 -91 1772 -91 
Q 1169 -91 856 284 
Q 544 659 544 1381 
z
M 1991 3584 
L 1991 3584 
z
" id="DejaVuSans-75" transform="scale(0.015625)"/>
       <path d="M 2059 -325 
Q 1816 -950 1584 -1140 
Q 1353 -1331 966 -1331 
L 506 -1331 
L 506 -850 
L 844 -850 
Q 1081 -850 1212 -737 
Q 1344 -625 1503 -206 
L 1606 56 
L 191 3500 
L 800 3500 
L 1894 763 
L 2988 3500 
L 3597 3500 
L 2059 -325 
z
" id="DejaVuSans-79" transform="scale(0.015625)"/>
      </defs>
      <use xlink:href="#DejaVuSans-46"/>
      <use x="50.269531" xlink:href="#DejaVuSans-72"/>
      <use x="89.132812" xlink:href="#DejaVuSans-65"/>
      <use x="150.65625" xlink:href="#DejaVuSans-71"/>
      <use x="214.132812" xlink:href="#DejaVuSans-75"/>
      <use x="277.511719" xlink:href="#DejaVuSans-65"/>
      <use x="339.035156" xlink:href="#DejaVuSans-6e"/>
      <use x="402.414062" xlink:href="#DejaVuSans-63"/>
      <use x="457.394531" xlink:href="#DejaVuSans-79"/>
     </g>
    </g>
   </g>
   <g id="patch_103">
    <path d="M 230.4 882.3816 
L 230.4 118.9728 
" style="fill:none;stroke:#000000;stroke-linecap:square;stroke-linejoin:miter;stroke-width:0.8;"/>
   </g>
   <g id="patch_104">
    <path d="M 1658.88 882.3816 
L 1658.88 118.9728 
" style="fill:none;stroke:#000000;stroke-linecap:square;stroke-linejoin:miter;stroke-width:0.8;"/>
   </g>
   <g id="patch_105">
    <path d="M 230.4 882.3816 
L 1658.88 882.3816 
" style="fill:none;stroke:#000000;stroke-linecap:square;stroke-linejoin:miter;stroke-width:0.8;"/>
   </g>
   <g id="patch_106">
    <path d="M 230.4 118.9728 
L 1658.88 118.9728 
" style="fill:none;stroke:#000000;stroke-linecap:square;stroke-linejoin:miter;stroke-width:0.8;"/>
   </g>
   <g id="legend_1">
    <g id="patch_107">
     <path d="M 1647.88 131.9728 
L 1651.88 131.9728 
Q 1653.88 131.9728 1653.88 129.9728 
L 1653.88 125.9728 
Q 1653.88 123.9728 1651.88 123.9728 
L 1647.88 123.9728 
Q 1645.88 123.9728 1645.88 125.9728 
L 1645.88 129.9728 
Q 1645.88 131.9728 1647.88 131.9728 
z
" style="fill:#ffffff;opacity:0.8;stroke:#cccccc;stroke-linejoin:miter;"/>
    </g>
   </g>
  </g>
 </g>
 <defs>
  <clipPath id="pf91a161b49">
   <rect height="763.4088" width="1428.48" x="230.4" y="118.9728"/>
  </clipPath>
 </defs>
</svg>
