<?xml version="1.0" encoding="utf-8" standalone="no"?>
<!DOCTYPE svg PUBLIC "-//W3C//DTD SVG 1.1//EN"
  "http://www.w3.org/Graphics/SVG/1.1/DTD/svg11.dtd">
<svg height="345.6pt" version="1.1" viewBox="0 0 460.8 345.6" width="460.8pt" xmlns="http://www.w3.org/2000/svg" xmlns:xlink="http://www.w3.org/1999/xlink">
 <metadata>
  <rdf:RDF xmlns:cc="http://creativecommons.org/ns#" xmlns:dc="http://purl.org/dc/elements/1.1/" xmlns:rdf="http://www.w3.org/1999/02/22-rdf-syntax-ns#">
   <cc:Work>
    <dc:type rdf:resource="http://purl.org/dc/dcmitype/StillImage"/>
    <dc:date>2021-06-04T11:38:18.133547</dc:date>
    <dc:format>image/svg+xml</dc:format>
    <dc:creator>
     <cc:Agent>
      <dc:title>Matplotlib v3.4.1, https://matplotlib.org/</dc:title>
     </cc:Agent>
    </dc:creator>
   </cc:Work>
  </rdf:RDF>
 </metadata>
 <defs>
  <style type="text/css">*{stroke-linecap:butt;stroke-linejoin:round;}</style>
 </defs>
 <g id="figure_1">
  <g id="patch_1">
   <path d="M 0 345.6 
L 460.8 345.6 
L 460.8 0 
L 0 0 
z
" style="fill:#ffffff;"/>
  </g>
  <g id="axes_1">
   <g id="patch_2">
    <path d="M 57.6 307.584 
L 414.72 307.584 
L 414.72 41.472 
L 57.6 41.472 
z
" style="fill:#ffffff;"/>
   </g>
   <g id="PolyCollection_1">
    <path clip-path="url(#padf11d36e3)" d="M 73.832727 259.030588 
L 73.832727 307.584 
L 87.948142 307.584 
L 102.063557 307.584 
L 116.178972 307.584 
L 130.294387 307.584 
L 144.409802 307.584 
L 158.525217 307.584 
L 172.640632 307.584 
L 186.756047 307.584 
L 200.871462 307.584 
L 214.986877 307.584 
L 229.102292 307.584 
L 243.217708 307.584 
L 257.333123 307.584 
L 271.448538 307.584 
L 285.563953 307.584 
L 299.679368 307.584 
L 313.794783 307.584 
L 327.910198 307.584 
L 342.025613 307.584 
L 356.141028 307.584 
L 370.256443 307.584 
L 384.371858 307.584 
L 398.487273 307.584 
L 398.487273 259.073345 
L 398.487273 259.073345 
L 384.371858 259.045672 
L 370.256443 258.95712 
L 356.141028 258.934113 
L 342.025613 258.887992 
L 327.910198 258.865962 
L 313.794783 258.990544 
L 299.679368 259.021364 
L 285.563953 259.004869 
L 271.448538 258.980343 
L 257.333123 258.887341 
L 243.217708 258.862273 
L 229.102292 258.94974 
L 214.986877 259.042525 
L 200.871462 258.779797 
L 186.756047 258.818756 
L 172.640632 258.788153 
L 158.525217 258.761782 
L 144.409802 258.814198 
L 130.294387 258.956034 
L 116.178972 259.040138 
L 102.063557 259.014744 
L 87.948142 259.002481 
L 73.832727 259.030588 
z
" style="fill:#1f77b4;"/>
   </g>
   <g id="PolyCollection_2">
    <path clip-path="url(#padf11d36e3)" d="M 73.832727 259.030588 
L 73.832727 259.030588 
L 87.948142 259.002481 
L 102.063557 259.014744 
L 116.178972 259.040138 
L 130.294387 258.956034 
L 144.409802 258.814198 
L 158.525217 258.761782 
L 172.640632 258.788153 
L 186.756047 258.818756 
L 200.871462 258.779797 
L 214.986877 259.042525 
L 229.102292 258.94974 
L 243.217708 258.862273 
L 257.333123 258.887341 
L 271.448538 258.980343 
L 285.563953 259.004869 
L 299.679368 259.021364 
L 313.794783 258.990544 
L 327.910198 258.865962 
L 342.025613 258.887992 
L 356.141028 258.934113 
L 370.256443 258.95712 
L 384.371858 259.045672 
L 398.487273 259.073345 
L 398.487273 259.073345 
L 398.487273 259.073345 
L 384.371858 259.045672 
L 370.256443 258.95712 
L 356.141028 258.934113 
L 342.025613 258.887992 
L 327.910198 258.865962 
L 313.794783 258.990544 
L 299.679368 259.021364 
L 285.563953 259.004869 
L 271.448538 258.980343 
L 257.333123 258.887341 
L 243.217708 258.862273 
L 229.102292 258.94974 
L 214.986877 259.042525 
L 200.871462 258.779797 
L 186.756047 258.818756 
L 172.640632 258.788153 
L 158.525217 258.761782 
L 144.409802 258.814198 
L 130.294387 258.956034 
L 116.178972 259.040138 
L 102.063557 259.014744 
L 87.948142 259.002481 
L 73.832727 259.030588 
z
" style="fill:#aec7e8;"/>
   </g>
   <g id="PolyCollection_3">
    <path clip-path="url(#padf11d36e3)" d="M 73.832727 259.030588 
L 73.832727 259.030588 
L 87.948142 259.002481 
L 102.063557 259.014744 
L 116.178972 259.040138 
L 130.294387 258.956034 
L 144.409802 258.814198 
L 158.525217 258.761782 
L 172.640632 258.788153 
L 186.756047 258.818756 
L 200.871462 258.779797 
L 214.986877 259.042525 
L 229.102292 258.94974 
L 243.217708 258.862273 
L 257.333123 258.887341 
L 271.448538 258.980343 
L 285.563953 259.004869 
L 299.679368 259.021364 
L 313.794783 258.990544 
L 327.910198 258.865962 
L 342.025613 258.887992 
L 356.141028 258.934113 
L 370.256443 258.95712 
L 384.371858 259.045672 
L 398.487273 259.073345 
L 398.487273 259.073345 
L 398.487273 259.073345 
L 384.371858 259.045672 
L 370.256443 258.95712 
L 356.141028 258.934113 
L 342.025613 234.901548 
L 327.910198 218.171787 
L 313.794783 216.635764 
L 299.679368 215.40217 
L 285.563953 221.80517 
L 271.448538 211.523066 
L 257.333123 209.863039 
L 243.217708 211.010026 
L 229.102292 212.032842 
L 214.986877 212.581812 
L 200.871462 220.188923 
L 186.756047 221.207867 
L 172.640632 230.45166 
L 158.525217 237.115159 
L 144.409802 252.685379 
L 130.294387 258.948015 
L 116.178972 259.040138 
L 102.063557 259.014744 
L 87.948142 259.002481 
L 73.832727 259.030588 
z
" style="fill:#ff7f0e;"/>
   </g>
   <g id="PolyCollection_4">
    <path clip-path="url(#padf11d36e3)" d="M 73.832727 256.984649 
L 73.832727 259.030588 
L 87.948142 259.002481 
L 102.063557 259.014744 
L 116.178972 259.040138 
L 130.294387 258.948015 
L 144.409802 252.685379 
L 158.525217 237.115159 
L 172.640632 230.45166 
L 186.756047 221.207867 
L 200.871462 220.188923 
L 214.986877 212.581812 
L 229.102292 212.032842 
L 243.217708 211.010026 
L 257.333123 209.863039 
L 271.448538 211.523066 
L 285.563953 221.80517 
L 299.679368 215.40217 
L 313.794783 216.635764 
L 327.910198 218.171787 
L 342.025613 234.901548 
L 356.141028 258.934113 
L 370.256443 258.95712 
L 384.371858 259.045672 
L 398.487273 259.073345 
L 398.487273 256.772817 
L 398.487273 256.772817 
L 384.371858 256.55545 
L 370.256443 256.232927 
L 356.141028 255.763576 
L 342.025613 231.492591 
L 327.910198 214.394185 
L 313.794783 213.237008 
L 299.679368 212.779444 
L 285.563953 219.311258 
L 271.448538 208.942772 
L 257.333123 206.782574 
L 243.217708 207.747138 
L 229.102292 208.607389 
L 214.986877 208.978603 
L 200.871462 217.071669 
L 186.756047 218.685849 
L 172.640632 228.370886 
L 158.525217 235.322399 
L 144.409802 250.959467 
L 130.294387 257.255419 
L 116.178972 257.323885 
L 102.063557 257.281128 
L 87.948142 257.123447 
L 73.832727 256.984649 
z
" style="fill:#ffbb78;"/>
   </g>
   <g id="PolyCollection_5">
    <path clip-path="url(#padf11d36e3)" d="M 73.832727 256.984649 
L 73.832727 256.984649 
L 87.948142 257.123447 
L 102.063557 257.281128 
L 116.178972 257.323885 
L 130.294387 257.255419 
L 144.409802 250.959467 
L 158.525217 235.322399 
L 172.640632 228.370886 
L 186.756047 218.685849 
L 200.871462 217.071669 
L 214.986877 208.978603 
L 229.102292 208.607389 
L 243.217708 207.747138 
L 257.333123 206.782574 
L 271.448538 208.942772 
L 285.563953 219.311258 
L 299.679368 212.779444 
L 313.794783 213.237008 
L 327.910198 214.394185 
L 342.025613 231.492591 
L 356.141028 255.763576 
L 370.256443 256.232927 
L 384.371858 256.55545 
L 398.487273 256.772817 
L 398.487273 256.772817 
L 398.487273 256.772817 
L 384.371858 256.55545 
L 370.256443 256.232927 
L 356.141028 255.763576 
L 342.025613 231.492591 
L 327.910198 214.394185 
L 313.794783 213.237008 
L 299.679368 212.779444 
L 285.563953 219.311258 
L 271.448538 208.942772 
L 257.333123 206.782574 
L 243.217708 207.747138 
L 229.102292 208.607389 
L 214.986877 208.978603 
L 200.871462 217.071669 
L 186.756047 218.685849 
L 172.640632 228.370886 
L 158.525217 235.322399 
L 144.409802 250.959467 
L 130.294387 257.255419 
L 116.178972 257.323885 
L 102.063557 257.281128 
L 87.948142 257.123447 
L 73.832727 256.984649 
z
" style="fill:#2ca02c;"/>
   </g>
   <g id="PolyCollection_6">
    <path clip-path="url(#padf11d36e3)" d="M 73.832727 256.984649 
L 73.832727 256.984649 
L 87.948142 257.123447 
L 102.063557 257.281128 
L 116.178972 257.323885 
L 130.294387 257.255419 
L 144.409802 250.959467 
L 158.525217 235.322399 
L 172.640632 228.370886 
L 186.756047 218.685849 
L 200.871462 217.071669 
L 214.986877 208.978603 
L 229.102292 208.607389 
L 243.217708 207.747138 
L 257.333123 206.782574 
L 271.448538 208.942772 
L 285.563953 219.311258 
L 299.679368 212.779444 
L 313.794783 213.237008 
L 327.910198 214.394185 
L 342.025613 231.492591 
L 356.141028 255.763576 
L 370.256443 256.232927 
L 384.371858 256.55545 
L 398.487273 256.772817 
L 398.487273 256.772817 
L 398.487273 256.772817 
L 384.371858 256.55545 
L 370.256443 256.232927 
L 356.141028 255.763576 
L 342.025613 130.030303 
L 327.910198 119.37005 
L 313.794783 135.833064 
L 299.679368 149.338846 
L 285.563953 167.682978 
L 271.448538 157.38309 
L 257.333123 158.005386 
L 243.217708 160.737177 
L 229.102292 165.866743 
L 214.986877 173.628536 
L 200.871462 191.136505 
L 186.756047 198.664759 
L 172.640632 218.608949 
L 158.525217 232.326914 
L 144.409802 250.93261 
L 130.294387 257.255419 
L 116.178972 257.323885 
L 102.063557 257.281128 
L 87.948142 257.123447 
L 73.832727 256.984649 
z
" style="fill:#98df8a;"/>
   </g>
   <g id="PolyCollection_7">
    <path clip-path="url(#padf11d36e3)" d="M 73.832727 247.276484 
L 73.832727 256.984649 
L 87.948142 257.123447 
L 102.063557 257.281128 
L 116.178972 257.323885 
L 130.294387 257.255419 
L 144.409802 250.93261 
L 158.525217 232.326914 
L 172.640632 218.608949 
L 186.756047 198.664759 
L 200.871462 191.136505 
L 214.986877 173.628536 
L 229.102292 165.866743 
L 243.217708 160.737177 
L 257.333123 158.005386 
L 271.448538 157.38309 
L 285.563953 167.682978 
L 299.679368 149.338846 
L 313.794783 135.833064 
L 327.910198 119.37005 
L 342.025613 130.030303 
L 356.141028 255.763576 
L 370.256443 256.232927 
L 384.371858 256.55545 
L 398.487273 256.772817 
L 398.487273 247.049316 
L 398.487273 247.049316 
L 384.371858 246.674236 
L 370.256443 246.200614 
L 356.141028 245.674448 
L 342.025613 119.878844 
L 327.910198 109.125912 
L 313.794783 125.717152 
L 299.679368 139.455838 
L 285.563953 158.486925 
L 271.448538 148.810163 
L 257.333123 149.890928 
L 243.217708 153.089997 
L 229.102292 158.408929 
L 214.986877 166.235096 
L 200.871462 183.650402 
L 186.756047 190.980529 
L 172.640632 210.911314 
L 158.525217 224.371856 
L 144.409802 242.866948 
L 130.294387 248.823718 
L 116.178972 248.313821 
L 102.063557 247.849096 
L 87.948142 247.74397 
L 73.832727 247.276484 
z
" style="fill:#d62728;"/>
   </g>
   <g id="PolyCollection_8">
    <path clip-path="url(#padf11d36e3)" d="M 73.832727 237.380351 
L 73.832727 247.276484 
L 87.948142 247.74397 
L 102.063557 247.849096 
L 116.178972 248.313821 
L 130.294387 248.823718 
L 144.409802 242.866948 
L 158.525217 224.371856 
L 172.640632 210.911314 
L 186.756047 190.980529 
L 200.871462 183.650402 
L 214.986877 166.235096 
L 229.102292 158.408929 
L 243.217708 153.089997 
L 257.333123 149.890928 
L 271.448538 148.810163 
L 285.563953 158.486925 
L 299.679368 139.455838 
L 313.794783 125.717152 
L 327.910198 109.125912 
L 342.025613 119.878844 
L 356.141028 245.674448 
L 370.256443 246.200614 
L 384.371858 246.674236 
L 398.487273 247.049316 
L 398.487273 237.007654 
L 398.487273 237.007654 
L 384.371858 236.394443 
L 370.256443 235.457337 
L 356.141028 233.994412 
L 342.025613 107.461434 
L 327.910198 96.081512 
L 313.794783 112.027951 
L 299.679368 125.510296 
L 285.563953 144.699375 
L 271.448538 135.497153 
L 257.333123 137.06195 
L 243.217708 140.959779 
L 229.102292 147.082485 
L 214.986877 155.530305 
L 200.871462 173.638545 
L 186.756047 181.212778 
L 172.640632 201.261886 
L 158.525217 214.915967 
L 144.409802 233.363093 
L 130.294387 239.28994 
L 116.178972 238.614373 
L 102.063557 238.16195 
L 87.948142 237.952658 
L 73.832727 237.380351 
z
" style="fill:#ff9896;"/>
   </g>
   <g id="PolyCollection_9">
    <path clip-path="url(#padf11d36e3)" d="M 73.832727 237.213663 
L 73.832727 237.380351 
L 87.948142 237.952658 
L 102.063557 238.16195 
L 116.178972 238.614373 
L 130.294387 239.28994 
L 144.409802 233.363093 
L 158.525217 214.915967 
L 172.640632 201.261886 
L 186.756047 181.212778 
L 200.871462 173.638545 
L 214.986877 155.530305 
L 229.102292 147.082485 
L 243.217708 140.959779 
L 257.333123 137.06195 
L 271.448538 135.497153 
L 285.563953 144.699375 
L 299.679368 125.510296 
L 313.794783 112.027951 
L 327.910198 96.081512 
L 342.025613 107.461434 
L 356.141028 233.994412 
L 370.256443 235.457337 
L 384.371858 236.394443 
L 398.487273 237.007654 
L 398.487273 235.567369 
L 398.487273 235.567369 
L 384.371858 233.101603 
L 370.256443 232.0066 
L 356.141028 230.422891 
L 342.025613 105.880181 
L 327.910198 94.16927 
L 313.794783 109.478453 
L 299.679368 123.408361 
L 285.563953 142.503353 
L 271.448538 133.54324 
L 257.333123 134.66397 
L 243.217708 137.980455 
L 229.102292 144.10023 
L 214.986877 152.349869 
L 200.871462 170.922057 
L 186.756047 179.244865 
L 172.640632 201.036598 
L 158.525217 214.911735 
L 144.409802 233.363093 
L 130.294387 239.28994 
L 116.178972 238.614373 
L 102.063557 238.14578 
L 87.948142 237.839471 
L 73.832727 237.213663 
z
" style="fill:#9467bd;"/>
   </g>
   <g id="PolyCollection_10">
    <path clip-path="url(#padf11d36e3)" d="M 73.832727 202.109641 
L 73.832727 237.213663 
L 87.948142 237.839471 
L 102.063557 238.14578 
L 116.178972 238.614373 
L 130.294387 239.28994 
L 144.409802 233.363093 
L 158.525217 214.911735 
L 172.640632 201.036598 
L 186.756047 179.244865 
L 200.871462 170.922057 
L 214.986877 152.349869 
L 229.102292 144.10023 
L 243.217708 137.980455 
L 257.333123 134.66397 
L 271.448538 133.54324 
L 285.563953 142.503353 
L 299.679368 123.408361 
L 313.794783 109.478453 
L 327.910198 94.16927 
L 342.025613 105.880181 
L 356.141028 230.422891 
L 370.256443 232.0066 
L 384.371858 233.101603 
L 398.487273 235.567369 
L 398.487273 195.576014 
L 398.487273 195.576014 
L 384.371858 190.451819 
L 370.256443 188.997721 
L 356.141028 185.965588 
L 342.025613 105.855821 
L 327.910198 94.16927 
L 313.794783 109.478453 
L 299.679368 120.41296 
L 285.563953 129.094317 
L 271.448538 117.700933 
L 257.333123 115.01713 
L 243.217708 120.36491 
L 229.102292 126.733478 
L 214.986877 133.03532 
L 200.871462 153.154004 
L 186.756047 166.865048 
L 172.640632 189.006704 
L 158.525217 204.171656 
L 144.409802 209.262349 
L 130.294387 209.642297 
L 116.178972 208.694922 
L 102.063557 206.827173 
L 87.948142 205.406249 
L 73.832727 202.109641 
z
" style="fill:#c5b0d5;"/>
   </g>
   <g id="PolyCollection_11">
    <path clip-path="url(#padf11d36e3)" d="M 73.832727 154.796402 
L 73.832727 202.109641 
L 87.948142 205.406249 
L 102.063557 206.827173 
L 116.178972 208.694922 
L 130.294387 209.642297 
L 144.409802 209.262349 
L 158.525217 204.171656 
L 172.640632 189.006704 
L 186.756047 166.865048 
L 200.871462 153.154004 
L 214.986877 133.03532 
L 229.102292 126.733478 
L 243.217708 120.36491 
L 257.333123 115.01713 
L 271.448538 117.700933 
L 285.563953 129.094317 
L 299.679368 120.41296 
L 313.794783 109.478453 
L 327.910198 94.16927 
L 342.025613 105.855821 
L 356.141028 185.965588 
L 370.256443 188.997721 
L 384.371858 190.451819 
L 398.487273 195.576014 
L 398.487273 134.441376 
L 398.487273 134.441376 
L 384.371858 117.521536 
L 370.256443 111.879813 
L 356.141028 100.209089 
L 342.025613 87.049015 
L 327.910198 74.896855 
L 313.794783 69.025005 
L 299.679368 67.490528 
L 285.563953 63.121929 
L 271.448538 57.773363 
L 257.333123 54.144 
L 243.217708 55.683783 
L 229.102292 61.72975 
L 214.986877 69.679603 
L 200.871462 82.815628 
L 186.756047 105.812518 
L 172.640632 141.486143 
L 158.525217 166.755001 
L 144.409802 172.840128 
L 130.294387 172.608233 
L 116.178972 171.228732 
L 102.063557 167.592858 
L 87.948142 164.116229 
L 73.832727 154.796402 
z
" style="fill:#8c564b;"/>
   </g>
   <g id="matplotlib.axis_1">
    <g id="xtick_1">
     <g id="line2d_1">
      <defs>
       <path d="M 0 0 
L 0 3.5 
" id="m6cf90bf48f" style="stroke:#000000;stroke-width:0.8;"/>
      </defs>
      <g>
       <use style="stroke:#000000;stroke-width:0.8;" x="73.832727" xlink:href="#m6cf90bf48f" y="307.584"/>
      </g>
     </g>
     <g id="text_1">
      <!-- 0 -->
      <g transform="translate(70.651477 322.182437)scale(0.1 -0.1)">
       <defs>
        <path d="M 2034 4250 
Q 1547 4250 1301 3770 
Q 1056 3291 1056 2328 
Q 1056 1369 1301 889 
Q 1547 409 2034 409 
Q 2525 409 2770 889 
Q 3016 1369 3016 2328 
Q 3016 3291 2770 3770 
Q 2525 4250 2034 4250 
z
M 2034 4750 
Q 2819 4750 3233 4129 
Q 3647 3509 3647 2328 
Q 3647 1150 3233 529 
Q 2819 -91 2034 -91 
Q 1250 -91 836 529 
Q 422 1150 422 2328 
Q 422 3509 836 4129 
Q 1250 4750 2034 4750 
z
" id="DejaVuSans-30" transform="scale(0.015625)"/>
       </defs>
       <use xlink:href="#DejaVuSans-30"/>
      </g>
     </g>
    </g>
    <g id="xtick_2">
     <g id="line2d_2">
      <g>
       <use style="stroke:#000000;stroke-width:0.8;" x="144.409802" xlink:href="#m6cf90bf48f" y="307.584"/>
      </g>
     </g>
     <g id="text_2">
      <!-- 5 -->
      <g transform="translate(141.228552 322.182437)scale(0.1 -0.1)">
       <defs>
        <path d="M 691 4666 
L 3169 4666 
L 3169 4134 
L 1269 4134 
L 1269 2991 
Q 1406 3038 1543 3061 
Q 1681 3084 1819 3084 
Q 2600 3084 3056 2656 
Q 3513 2228 3513 1497 
Q 3513 744 3044 326 
Q 2575 -91 1722 -91 
Q 1428 -91 1123 -41 
Q 819 9 494 109 
L 494 744 
Q 775 591 1075 516 
Q 1375 441 1709 441 
Q 2250 441 2565 725 
Q 2881 1009 2881 1497 
Q 2881 1984 2565 2268 
Q 2250 2553 1709 2553 
Q 1456 2553 1204 2497 
Q 953 2441 691 2322 
L 691 4666 
z
" id="DejaVuSans-35" transform="scale(0.015625)"/>
       </defs>
       <use xlink:href="#DejaVuSans-35"/>
      </g>
     </g>
    </g>
    <g id="xtick_3">
     <g id="line2d_3">
      <g>
       <use style="stroke:#000000;stroke-width:0.8;" x="214.986877" xlink:href="#m6cf90bf48f" y="307.584"/>
      </g>
     </g>
     <g id="text_3">
      <!-- 10 -->
      <g transform="translate(208.624377 322.182437)scale(0.1 -0.1)">
       <defs>
        <path d="M 794 531 
L 1825 531 
L 1825 4091 
L 703 3866 
L 703 4441 
L 1819 4666 
L 2450 4666 
L 2450 531 
L 3481 531 
L 3481 0 
L 794 0 
L 794 531 
z
" id="DejaVuSans-31" transform="scale(0.015625)"/>
       </defs>
       <use xlink:href="#DejaVuSans-31"/>
       <use x="63.623047" xlink:href="#DejaVuSans-30"/>
      </g>
     </g>
    </g>
    <g id="xtick_4">
     <g id="line2d_4">
      <g>
       <use style="stroke:#000000;stroke-width:0.8;" x="285.563953" xlink:href="#m6cf90bf48f" y="307.584"/>
      </g>
     </g>
     <g id="text_4">
      <!-- 15 -->
      <g transform="translate(279.201453 322.182437)scale(0.1 -0.1)">
       <use xlink:href="#DejaVuSans-31"/>
       <use x="63.623047" xlink:href="#DejaVuSans-35"/>
      </g>
     </g>
    </g>
    <g id="xtick_5">
     <g id="line2d_5">
      <g>
       <use style="stroke:#000000;stroke-width:0.8;" x="356.141028" xlink:href="#m6cf90bf48f" y="307.584"/>
      </g>
     </g>
     <g id="text_5">
      <!-- 20 -->
      <g transform="translate(349.778528 322.182437)scale(0.1 -0.1)">
       <defs>
        <path d="M 1228 531 
L 3431 531 
L 3431 0 
L 469 0 
L 469 531 
Q 828 903 1448 1529 
Q 2069 2156 2228 2338 
Q 2531 2678 2651 2914 
Q 2772 3150 2772 3378 
Q 2772 3750 2511 3984 
Q 2250 4219 1831 4219 
Q 1534 4219 1204 4116 
Q 875 4013 500 3803 
L 500 4441 
Q 881 4594 1212 4672 
Q 1544 4750 1819 4750 
Q 2544 4750 2975 4387 
Q 3406 4025 3406 3419 
Q 3406 3131 3298 2873 
Q 3191 2616 2906 2266 
Q 2828 2175 2409 1742 
Q 1991 1309 1228 531 
z
" id="DejaVuSans-32" transform="scale(0.015625)"/>
       </defs>
       <use xlink:href="#DejaVuSans-32"/>
       <use x="63.623047" xlink:href="#DejaVuSans-30"/>
      </g>
     </g>
    </g>
    <g id="text_6">
     <!-- Hour of the Day -->
     <g transform="translate(196.450625 335.860562)scale(0.1 -0.1)">
      <defs>
       <path d="M 628 4666 
L 1259 4666 
L 1259 2753 
L 3553 2753 
L 3553 4666 
L 4184 4666 
L 4184 0 
L 3553 0 
L 3553 2222 
L 1259 2222 
L 1259 0 
L 628 0 
L 628 4666 
z
" id="DejaVuSans-48" transform="scale(0.015625)"/>
       <path d="M 1959 3097 
Q 1497 3097 1228 2736 
Q 959 2375 959 1747 
Q 959 1119 1226 758 
Q 1494 397 1959 397 
Q 2419 397 2687 759 
Q 2956 1122 2956 1747 
Q 2956 2369 2687 2733 
Q 2419 3097 1959 3097 
z
M 1959 3584 
Q 2709 3584 3137 3096 
Q 3566 2609 3566 1747 
Q 3566 888 3137 398 
Q 2709 -91 1959 -91 
Q 1206 -91 779 398 
Q 353 888 353 1747 
Q 353 2609 779 3096 
Q 1206 3584 1959 3584 
z
" id="DejaVuSans-6f" transform="scale(0.015625)"/>
       <path d="M 544 1381 
L 544 3500 
L 1119 3500 
L 1119 1403 
Q 1119 906 1312 657 
Q 1506 409 1894 409 
Q 2359 409 2629 706 
Q 2900 1003 2900 1516 
L 2900 3500 
L 3475 3500 
L 3475 0 
L 2900 0 
L 2900 538 
Q 2691 219 2414 64 
Q 2138 -91 1772 -91 
Q 1169 -91 856 284 
Q 544 659 544 1381 
z
M 1991 3584 
L 1991 3584 
z
" id="DejaVuSans-75" transform="scale(0.015625)"/>
       <path d="M 2631 2963 
Q 2534 3019 2420 3045 
Q 2306 3072 2169 3072 
Q 1681 3072 1420 2755 
Q 1159 2438 1159 1844 
L 1159 0 
L 581 0 
L 581 3500 
L 1159 3500 
L 1159 2956 
Q 1341 3275 1631 3429 
Q 1922 3584 2338 3584 
Q 2397 3584 2469 3576 
Q 2541 3569 2628 3553 
L 2631 2963 
z
" id="DejaVuSans-72" transform="scale(0.015625)"/>
       <path id="DejaVuSans-20" transform="scale(0.015625)"/>
       <path d="M 2375 4863 
L 2375 4384 
L 1825 4384 
Q 1516 4384 1395 4259 
Q 1275 4134 1275 3809 
L 1275 3500 
L 2222 3500 
L 2222 3053 
L 1275 3053 
L 1275 0 
L 697 0 
L 697 3053 
L 147 3053 
L 147 3500 
L 697 3500 
L 697 3744 
Q 697 4328 969 4595 
Q 1241 4863 1831 4863 
L 2375 4863 
z
" id="DejaVuSans-66" transform="scale(0.015625)"/>
       <path d="M 1172 4494 
L 1172 3500 
L 2356 3500 
L 2356 3053 
L 1172 3053 
L 1172 1153 
Q 1172 725 1289 603 
Q 1406 481 1766 481 
L 2356 481 
L 2356 0 
L 1766 0 
Q 1100 0 847 248 
Q 594 497 594 1153 
L 594 3053 
L 172 3053 
L 172 3500 
L 594 3500 
L 594 4494 
L 1172 4494 
z
" id="DejaVuSans-74" transform="scale(0.015625)"/>
       <path d="M 3513 2113 
L 3513 0 
L 2938 0 
L 2938 2094 
Q 2938 2591 2744 2837 
Q 2550 3084 2163 3084 
Q 1697 3084 1428 2787 
Q 1159 2491 1159 1978 
L 1159 0 
L 581 0 
L 581 4863 
L 1159 4863 
L 1159 2956 
Q 1366 3272 1645 3428 
Q 1925 3584 2291 3584 
Q 2894 3584 3203 3211 
Q 3513 2838 3513 2113 
z
" id="DejaVuSans-68" transform="scale(0.015625)"/>
       <path d="M 3597 1894 
L 3597 1613 
L 953 1613 
Q 991 1019 1311 708 
Q 1631 397 2203 397 
Q 2534 397 2845 478 
Q 3156 559 3463 722 
L 3463 178 
Q 3153 47 2828 -22 
Q 2503 -91 2169 -91 
Q 1331 -91 842 396 
Q 353 884 353 1716 
Q 353 2575 817 3079 
Q 1281 3584 2069 3584 
Q 2775 3584 3186 3129 
Q 3597 2675 3597 1894 
z
M 3022 2063 
Q 3016 2534 2758 2815 
Q 2500 3097 2075 3097 
Q 1594 3097 1305 2825 
Q 1016 2553 972 2059 
L 3022 2063 
z
" id="DejaVuSans-65" transform="scale(0.015625)"/>
       <path d="M 1259 4147 
L 1259 519 
L 2022 519 
Q 2988 519 3436 956 
Q 3884 1394 3884 2338 
Q 3884 3275 3436 3711 
Q 2988 4147 2022 4147 
L 1259 4147 
z
M 628 4666 
L 1925 4666 
Q 3281 4666 3915 4102 
Q 4550 3538 4550 2338 
Q 4550 1131 3912 565 
Q 3275 0 1925 0 
L 628 0 
L 628 4666 
z
" id="DejaVuSans-44" transform="scale(0.015625)"/>
       <path d="M 2194 1759 
Q 1497 1759 1228 1600 
Q 959 1441 959 1056 
Q 959 750 1161 570 
Q 1363 391 1709 391 
Q 2188 391 2477 730 
Q 2766 1069 2766 1631 
L 2766 1759 
L 2194 1759 
z
M 3341 1997 
L 3341 0 
L 2766 0 
L 2766 531 
Q 2569 213 2275 61 
Q 1981 -91 1556 -91 
Q 1019 -91 701 211 
Q 384 513 384 1019 
Q 384 1609 779 1909 
Q 1175 2209 1959 2209 
L 2766 2209 
L 2766 2266 
Q 2766 2663 2505 2880 
Q 2244 3097 1772 3097 
Q 1472 3097 1187 3025 
Q 903 2953 641 2809 
L 641 3341 
Q 956 3463 1253 3523 
Q 1550 3584 1831 3584 
Q 2591 3584 2966 3190 
Q 3341 2797 3341 1997 
z
" id="DejaVuSans-61" transform="scale(0.015625)"/>
       <path d="M 2059 -325 
Q 1816 -950 1584 -1140 
Q 1353 -1331 966 -1331 
L 506 -1331 
L 506 -850 
L 844 -850 
Q 1081 -850 1212 -737 
Q 1344 -625 1503 -206 
L 1606 56 
L 191 3500 
L 800 3500 
L 1894 763 
L 2988 3500 
L 3597 3500 
L 2059 -325 
z
" id="DejaVuSans-79" transform="scale(0.015625)"/>
      </defs>
      <use xlink:href="#DejaVuSans-48"/>
      <use x="75.195312" xlink:href="#DejaVuSans-6f"/>
      <use x="136.376953" xlink:href="#DejaVuSans-75"/>
      <use x="199.755859" xlink:href="#DejaVuSans-72"/>
      <use x="240.869141" xlink:href="#DejaVuSans-20"/>
      <use x="272.65625" xlink:href="#DejaVuSans-6f"/>
      <use x="333.837891" xlink:href="#DejaVuSans-66"/>
      <use x="369.042969" xlink:href="#DejaVuSans-20"/>
      <use x="400.830078" xlink:href="#DejaVuSans-74"/>
      <use x="440.039062" xlink:href="#DejaVuSans-68"/>
      <use x="503.417969" xlink:href="#DejaVuSans-65"/>
      <use x="564.941406" xlink:href="#DejaVuSans-20"/>
      <use x="596.728516" xlink:href="#DejaVuSans-44"/>
      <use x="673.730469" xlink:href="#DejaVuSans-61"/>
      <use x="735.009766" xlink:href="#DejaVuSans-79"/>
     </g>
    </g>
   </g>
   <g id="matplotlib.axis_2">
    <g id="ytick_1">
     <g id="line2d_6">
      <defs>
       <path d="M 0 0 
L -3.5 0 
" id="m05ca861934" style="stroke:#000000;stroke-width:0.8;"/>
      </defs>
      <g>
       <use style="stroke:#000000;stroke-width:0.8;" x="57.6" xlink:href="#m05ca861934" y="307.584"/>
      </g>
     </g>
     <g id="text_7">
      <!-- 0 -->
      <g transform="translate(44.2375 311.383219)scale(0.1 -0.1)">
       <use xlink:href="#DejaVuSans-30"/>
      </g>
     </g>
    </g>
    <g id="ytick_2">
     <g id="line2d_7">
      <g>
       <use style="stroke:#000000;stroke-width:0.8;" x="57.6" xlink:href="#m05ca861934" y="273.942619"/>
      </g>
     </g>
     <g id="text_8">
      <!-- 5000 -->
      <g transform="translate(25.15 277.741837)scale(0.1 -0.1)">
       <use xlink:href="#DejaVuSans-35"/>
       <use x="63.623047" xlink:href="#DejaVuSans-30"/>
       <use x="127.246094" xlink:href="#DejaVuSans-30"/>
       <use x="190.869141" xlink:href="#DejaVuSans-30"/>
      </g>
     </g>
    </g>
    <g id="ytick_3">
     <g id="line2d_8">
      <g>
       <use style="stroke:#000000;stroke-width:0.8;" x="57.6" xlink:href="#m05ca861934" y="240.301237"/>
      </g>
     </g>
     <g id="text_9">
      <!-- 10000 -->
      <g transform="translate(18.7875 244.100456)scale(0.1 -0.1)">
       <use xlink:href="#DejaVuSans-31"/>
       <use x="63.623047" xlink:href="#DejaVuSans-30"/>
       <use x="127.246094" xlink:href="#DejaVuSans-30"/>
       <use x="190.869141" xlink:href="#DejaVuSans-30"/>
       <use x="254.492188" xlink:href="#DejaVuSans-30"/>
      </g>
     </g>
    </g>
    <g id="ytick_4">
     <g id="line2d_9">
      <g>
       <use style="stroke:#000000;stroke-width:0.8;" x="57.6" xlink:href="#m05ca861934" y="206.659856"/>
      </g>
     </g>
     <g id="text_10">
      <!-- 15000 -->
      <g transform="translate(18.7875 210.459075)scale(0.1 -0.1)">
       <use xlink:href="#DejaVuSans-31"/>
       <use x="63.623047" xlink:href="#DejaVuSans-35"/>
       <use x="127.246094" xlink:href="#DejaVuSans-30"/>
       <use x="190.869141" xlink:href="#DejaVuSans-30"/>
       <use x="254.492188" xlink:href="#DejaVuSans-30"/>
      </g>
     </g>
    </g>
    <g id="ytick_5">
     <g id="line2d_10">
      <g>
       <use style="stroke:#000000;stroke-width:0.8;" x="57.6" xlink:href="#m05ca861934" y="173.018474"/>
      </g>
     </g>
     <g id="text_11">
      <!-- 20000 -->
      <g transform="translate(18.7875 176.817693)scale(0.1 -0.1)">
       <use xlink:href="#DejaVuSans-32"/>
       <use x="63.623047" xlink:href="#DejaVuSans-30"/>
       <use x="127.246094" xlink:href="#DejaVuSans-30"/>
       <use x="190.869141" xlink:href="#DejaVuSans-30"/>
       <use x="254.492188" xlink:href="#DejaVuSans-30"/>
      </g>
     </g>
    </g>
    <g id="ytick_6">
     <g id="line2d_11">
      <g>
       <use style="stroke:#000000;stroke-width:0.8;" x="57.6" xlink:href="#m05ca861934" y="139.377093"/>
      </g>
     </g>
     <g id="text_12">
      <!-- 25000 -->
      <g transform="translate(18.7875 143.176312)scale(0.1 -0.1)">
       <use xlink:href="#DejaVuSans-32"/>
       <use x="63.623047" xlink:href="#DejaVuSans-35"/>
       <use x="127.246094" xlink:href="#DejaVuSans-30"/>
       <use x="190.869141" xlink:href="#DejaVuSans-30"/>
       <use x="254.492188" xlink:href="#DejaVuSans-30"/>
      </g>
     </g>
    </g>
    <g id="ytick_7">
     <g id="line2d_12">
      <g>
       <use style="stroke:#000000;stroke-width:0.8;" x="57.6" xlink:href="#m05ca861934" y="105.735712"/>
      </g>
     </g>
     <g id="text_13">
      <!-- 30000 -->
      <g transform="translate(18.7875 109.53493)scale(0.1 -0.1)">
       <defs>
        <path d="M 2597 2516 
Q 3050 2419 3304 2112 
Q 3559 1806 3559 1356 
Q 3559 666 3084 287 
Q 2609 -91 1734 -91 
Q 1441 -91 1130 -33 
Q 819 25 488 141 
L 488 750 
Q 750 597 1062 519 
Q 1375 441 1716 441 
Q 2309 441 2620 675 
Q 2931 909 2931 1356 
Q 2931 1769 2642 2001 
Q 2353 2234 1838 2234 
L 1294 2234 
L 1294 2753 
L 1863 2753 
Q 2328 2753 2575 2939 
Q 2822 3125 2822 3475 
Q 2822 3834 2567 4026 
Q 2313 4219 1838 4219 
Q 1578 4219 1281 4162 
Q 984 4106 628 3988 
L 628 4550 
Q 988 4650 1302 4700 
Q 1616 4750 1894 4750 
Q 2613 4750 3031 4423 
Q 3450 4097 3450 3541 
Q 3450 3153 3228 2886 
Q 3006 2619 2597 2516 
z
" id="DejaVuSans-33" transform="scale(0.015625)"/>
       </defs>
       <use xlink:href="#DejaVuSans-33"/>
       <use x="63.623047" xlink:href="#DejaVuSans-30"/>
       <use x="127.246094" xlink:href="#DejaVuSans-30"/>
       <use x="190.869141" xlink:href="#DejaVuSans-30"/>
       <use x="254.492188" xlink:href="#DejaVuSans-30"/>
      </g>
     </g>
    </g>
    <g id="ytick_8">
     <g id="line2d_13">
      <g>
       <use style="stroke:#000000;stroke-width:0.8;" x="57.6" xlink:href="#m05ca861934" y="72.09433"/>
      </g>
     </g>
     <g id="text_14">
      <!-- 35000 -->
      <g transform="translate(18.7875 75.893549)scale(0.1 -0.1)">
       <use xlink:href="#DejaVuSans-33"/>
       <use x="63.623047" xlink:href="#DejaVuSans-35"/>
       <use x="127.246094" xlink:href="#DejaVuSans-30"/>
       <use x="190.869141" xlink:href="#DejaVuSans-30"/>
       <use x="254.492188" xlink:href="#DejaVuSans-30"/>
      </g>
     </g>
    </g>
    <g id="text_15">
     <!-- Mean Power Generation (MW) -->
     <g transform="translate(12.707812 249.085031)rotate(-90)scale(0.1 -0.1)">
      <defs>
       <path d="M 628 4666 
L 1569 4666 
L 2759 1491 
L 3956 4666 
L 4897 4666 
L 4897 0 
L 4281 0 
L 4281 4097 
L 3078 897 
L 2444 897 
L 1241 4097 
L 1241 0 
L 628 0 
L 628 4666 
z
" id="DejaVuSans-4d" transform="scale(0.015625)"/>
       <path d="M 3513 2113 
L 3513 0 
L 2938 0 
L 2938 2094 
Q 2938 2591 2744 2837 
Q 2550 3084 2163 3084 
Q 1697 3084 1428 2787 
Q 1159 2491 1159 1978 
L 1159 0 
L 581 0 
L 581 3500 
L 1159 3500 
L 1159 2956 
Q 1366 3272 1645 3428 
Q 1925 3584 2291 3584 
Q 2894 3584 3203 3211 
Q 3513 2838 3513 2113 
z
" id="DejaVuSans-6e" transform="scale(0.015625)"/>
       <path d="M 1259 4147 
L 1259 2394 
L 2053 2394 
Q 2494 2394 2734 2622 
Q 2975 2850 2975 3272 
Q 2975 3691 2734 3919 
Q 2494 4147 2053 4147 
L 1259 4147 
z
M 628 4666 
L 2053 4666 
Q 2838 4666 3239 4311 
Q 3641 3956 3641 3272 
Q 3641 2581 3239 2228 
Q 2838 1875 2053 1875 
L 1259 1875 
L 1259 0 
L 628 0 
L 628 4666 
z
" id="DejaVuSans-50" transform="scale(0.015625)"/>
       <path d="M 269 3500 
L 844 3500 
L 1563 769 
L 2278 3500 
L 2956 3500 
L 3675 769 
L 4391 3500 
L 4966 3500 
L 4050 0 
L 3372 0 
L 2619 2869 
L 1863 0 
L 1184 0 
L 269 3500 
z
" id="DejaVuSans-77" transform="scale(0.015625)"/>
       <path d="M 3809 666 
L 3809 1919 
L 2778 1919 
L 2778 2438 
L 4434 2438 
L 4434 434 
Q 4069 175 3628 42 
Q 3188 -91 2688 -91 
Q 1594 -91 976 548 
Q 359 1188 359 2328 
Q 359 3472 976 4111 
Q 1594 4750 2688 4750 
Q 3144 4750 3555 4637 
Q 3966 4525 4313 4306 
L 4313 3634 
Q 3963 3931 3569 4081 
Q 3175 4231 2741 4231 
Q 1884 4231 1454 3753 
Q 1025 3275 1025 2328 
Q 1025 1384 1454 906 
Q 1884 428 2741 428 
Q 3075 428 3337 486 
Q 3600 544 3809 666 
z
" id="DejaVuSans-47" transform="scale(0.015625)"/>
       <path d="M 603 3500 
L 1178 3500 
L 1178 0 
L 603 0 
L 603 3500 
z
M 603 4863 
L 1178 4863 
L 1178 4134 
L 603 4134 
L 603 4863 
z
" id="DejaVuSans-69" transform="scale(0.015625)"/>
       <path d="M 1984 4856 
Q 1566 4138 1362 3434 
Q 1159 2731 1159 2009 
Q 1159 1288 1364 580 
Q 1569 -128 1984 -844 
L 1484 -844 
Q 1016 -109 783 600 
Q 550 1309 550 2009 
Q 550 2706 781 3412 
Q 1013 4119 1484 4856 
L 1984 4856 
z
" id="DejaVuSans-28" transform="scale(0.015625)"/>
       <path d="M 213 4666 
L 850 4666 
L 1831 722 
L 2809 4666 
L 3519 4666 
L 4500 722 
L 5478 4666 
L 6119 4666 
L 4947 0 
L 4153 0 
L 3169 4050 
L 2175 0 
L 1381 0 
L 213 4666 
z
" id="DejaVuSans-57" transform="scale(0.015625)"/>
       <path d="M 513 4856 
L 1013 4856 
Q 1481 4119 1714 3412 
Q 1947 2706 1947 2009 
Q 1947 1309 1714 600 
Q 1481 -109 1013 -844 
L 513 -844 
Q 928 -128 1133 580 
Q 1338 1288 1338 2009 
Q 1338 2731 1133 3434 
Q 928 4138 513 4856 
z
" id="DejaVuSans-29" transform="scale(0.015625)"/>
      </defs>
      <use xlink:href="#DejaVuSans-4d"/>
      <use x="86.279297" xlink:href="#DejaVuSans-65"/>
      <use x="147.802734" xlink:href="#DejaVuSans-61"/>
      <use x="209.082031" xlink:href="#DejaVuSans-6e"/>
      <use x="272.460938" xlink:href="#DejaVuSans-20"/>
      <use x="304.248047" xlink:href="#DejaVuSans-50"/>
      <use x="360.925781" xlink:href="#DejaVuSans-6f"/>
      <use x="422.107422" xlink:href="#DejaVuSans-77"/>
      <use x="503.894531" xlink:href="#DejaVuSans-65"/>
      <use x="565.417969" xlink:href="#DejaVuSans-72"/>
      <use x="606.53125" xlink:href="#DejaVuSans-20"/>
      <use x="638.318359" xlink:href="#DejaVuSans-47"/>
      <use x="715.808594" xlink:href="#DejaVuSans-65"/>
      <use x="777.332031" xlink:href="#DejaVuSans-6e"/>
      <use x="840.710938" xlink:href="#DejaVuSans-65"/>
      <use x="902.234375" xlink:href="#DejaVuSans-72"/>
      <use x="943.347656" xlink:href="#DejaVuSans-61"/>
      <use x="1004.626953" xlink:href="#DejaVuSans-74"/>
      <use x="1043.835938" xlink:href="#DejaVuSans-69"/>
      <use x="1071.619141" xlink:href="#DejaVuSans-6f"/>
      <use x="1132.800781" xlink:href="#DejaVuSans-6e"/>
      <use x="1196.179688" xlink:href="#DejaVuSans-20"/>
      <use x="1227.966797" xlink:href="#DejaVuSans-28"/>
      <use x="1266.980469" xlink:href="#DejaVuSans-4d"/>
      <use x="1353.259766" xlink:href="#DejaVuSans-57"/>
      <use x="1452.136719" xlink:href="#DejaVuSans-29"/>
     </g>
    </g>
   </g>
   <g id="patch_3">
    <path d="M 57.6 307.584 
L 57.6 41.472 
" style="fill:none;stroke:#000000;stroke-linecap:square;stroke-linejoin:miter;stroke-width:0.8;"/>
   </g>
   <g id="patch_4">
    <path d="M 414.72 307.584 
L 414.72 41.472 
" style="fill:none;stroke:#000000;stroke-linecap:square;stroke-linejoin:miter;stroke-width:0.8;"/>
   </g>
   <g id="patch_5">
    <path d="M 57.6 307.584 
L 414.72 307.584 
" style="fill:none;stroke:#000000;stroke-linecap:square;stroke-linejoin:miter;stroke-width:0.8;"/>
   </g>
   <g id="patch_6">
    <path d="M 57.6 41.472 
L 414.72 41.472 
" style="fill:none;stroke:#000000;stroke-linecap:square;stroke-linejoin:miter;stroke-width:0.8;"/>
   </g>
  </g>
 </g>
 <defs>
  <clipPath id="padf11d36e3">
   <rect height="266.112" width="357.12" x="57.6" y="41.472"/>
  </clipPath>
 </defs>
</svg>
