<?xml version="1.0" encoding="utf-8" standalone="no"?>
<!DOCTYPE svg PUBLIC "-//W3C//DTD SVG 1.1//EN"
  "http://www.w3.org/Graphics/SVG/1.1/DTD/svg11.dtd">
<svg height="676.8pt" version="1.1" viewBox="0 0 460.8 676.8" width="460.8pt" xmlns="http://www.w3.org/2000/svg" xmlns:xlink="http://www.w3.org/1999/xlink">
 <metadata>
  <rdf:RDF xmlns:cc="http://creativecommons.org/ns#" xmlns:dc="http://purl.org/dc/elements/1.1/" xmlns:rdf="http://www.w3.org/1999/02/22-rdf-syntax-ns#">
   <cc:Work>
    <dc:type rdf:resource="http://purl.org/dc/dcmitype/StillImage"/>
    <dc:date>2021-06-03T11:11:22.170098</dc:date>
    <dc:format>image/svg+xml</dc:format>
    <dc:creator>
     <cc:Agent>
      <dc:title>Matplotlib v3.4.1, https://matplotlib.org/</dc:title>
     </cc:Agent>
    </dc:creator>
   </cc:Work>
  </rdf:RDF>
 </metadata>
 <defs>
  <style type="text/css">*{stroke-linecap:butt;stroke-linejoin:round;}</style>
 </defs>
 <g id="figure_1">
  <g id="patch_1">
   <path d="M 0 676.8 
L 460.8 676.8 
L 460.8 0 
L 0 0 
z
" style="fill:#ffffff;"/>
  </g>
  <g id="axes_1">
   <g id="patch_2">
    <path d="M 57.6 602.352 
L 414.72 602.352 
L 414.72 81.216 
L 57.6 81.216 
z
" style="fill:#ffffff;"/>
   </g>
   <g id="PolyCollection_1">
    <path clip-path="url(#p1d39bed271)" d="M 73.832727 486.974907 
L 73.832727 602.352 
L 77.112066 602.352 
L 80.391405 602.352 
L 83.670744 602.352 
L 86.950083 602.352 
L 90.229421 602.352 
L 93.50876 602.352 
L 96.788099 602.352 
L 100.067438 602.352 
L 103.346777 602.352 
L 106.626116 602.352 
L 109.905455 602.352 
L 113.184793 602.352 
L 116.464132 602.352 
L 119.743471 602.352 
L 123.02281 602.352 
L 126.302149 602.352 
L 129.581488 602.352 
L 132.860826 602.352 
L 136.140165 602.352 
L 139.419504 602.352 
L 142.698843 602.352 
L 145.978182 602.352 
L 149.257521 602.352 
L 152.53686 602.352 
L 155.816198 602.352 
L 159.095537 602.352 
L 162.374876 602.352 
L 165.654215 602.352 
L 168.933554 602.352 
L 172.212893 602.352 
L 175.492231 602.352 
L 178.77157 602.352 
L 182.050909 602.352 
L 185.330248 602.352 
L 188.609587 602.352 
L 191.888926 602.352 
L 195.168264 602.352 
L 198.447603 602.352 
L 201.726942 602.352 
L 205.006281 602.352 
L 208.28562 602.352 
L 211.564959 602.352 
L 214.844298 602.352 
L 218.123636 602.352 
L 221.402975 602.352 
L 224.682314 602.352 
L 227.961653 602.352 
L 231.240992 602.352 
L 234.520331 602.352 
L 237.799669 602.352 
L 241.079008 602.352 
L 244.358347 602.352 
L 247.637686 602.352 
L 250.917025 602.352 
L 254.196364 602.352 
L 257.475702 602.352 
L 260.755041 602.352 
L 264.03438 602.352 
L 267.313719 602.352 
L 270.593058 602.352 
L 273.872397 602.352 
L 277.151736 602.352 
L 280.431074 602.352 
L 283.710413 602.352 
L 286.989752 602.352 
L 290.269091 602.352 
L 293.54843 602.352 
L 296.827769 602.352 
L 300.107107 602.352 
L 303.386446 602.352 
L 306.665785 602.352 
L 309.945124 602.352 
L 313.224463 602.352 
L 316.503802 602.352 
L 319.78314 602.352 
L 323.062479 602.352 
L 326.341818 602.352 
L 329.621157 602.352 
L 332.900496 602.352 
L 336.179835 602.352 
L 339.459174 602.352 
L 342.738512 602.352 
L 346.017851 602.352 
L 349.29719 602.352 
L 352.576529 602.352 
L 355.855868 602.352 
L 359.135207 602.352 
L 362.414545 602.352 
L 365.693884 602.352 
L 368.973223 602.352 
L 372.252562 602.352 
L 375.531901 602.352 
L 378.81124 602.352 
L 382.090579 602.352 
L 385.369917 602.352 
L 388.649256 602.352 
L 391.928595 602.352 
L 395.207934 602.352 
L 398.487273 602.352 
L 398.487273 486.974907 
L 398.487273 486.974907 
L 395.207934 486.974907 
L 391.928595 486.974907 
L 388.649256 486.974907 
L 385.369917 486.974907 
L 382.090579 486.974907 
L 378.81124 486.974907 
L 375.531901 486.974907 
L 372.252562 486.974907 
L 368.973223 486.974907 
L 365.693884 486.974907 
L 362.414545 486.974907 
L 359.135207 486.974907 
L 355.855868 486.974907 
L 352.576529 486.974907 
L 349.29719 486.974907 
L 346.017851 486.974907 
L 342.738512 486.974907 
L 339.459174 486.974907 
L 336.179835 486.974907 
L 332.900496 486.974907 
L 329.621157 486.974907 
L 326.341818 486.974907 
L 323.062479 486.974907 
L 319.78314 486.974907 
L 316.503802 486.974907 
L 313.224463 486.974907 
L 309.945124 486.974907 
L 306.665785 486.974907 
L 303.386446 486.974907 
L 300.107107 486.974907 
L 296.827769 486.974907 
L 293.54843 486.974907 
L 290.269091 486.974907 
L 286.989752 486.974907 
L 283.710413 486.974907 
L 280.431074 486.974907 
L 277.151736 486.974907 
L 273.872397 486.974907 
L 270.593058 486.974907 
L 267.313719 486.974907 
L 264.03438 486.974907 
L 260.755041 486.974907 
L 257.475702 486.974907 
L 254.196364 486.974907 
L 250.917025 486.974907 
L 247.637686 486.974907 
L 244.358347 486.974907 
L 241.079008 486.974907 
L 237.799669 486.974907 
L 234.520331 486.974907 
L 231.240992 486.974907 
L 227.961653 486.974907 
L 224.682314 486.974907 
L 221.402975 486.974907 
L 218.123636 486.974907 
L 214.844298 486.974907 
L 211.564959 486.974907 
L 208.28562 486.974907 
L 205.006281 486.974907 
L 201.726942 486.974907 
L 198.447603 486.974907 
L 195.168264 486.974907 
L 191.888926 486.974907 
L 188.609587 486.974907 
L 185.330248 486.974907 
L 182.050909 486.974907 
L 178.77157 486.974907 
L 175.492231 486.974907 
L 172.212893 486.974907 
L 168.933554 486.974907 
L 165.654215 486.974907 
L 162.374876 486.974907 
L 159.095537 486.974907 
L 155.816198 486.974907 
L 152.53686 486.974907 
L 149.257521 486.974907 
L 145.978182 486.974907 
L 142.698843 486.974907 
L 139.419504 486.974907 
L 136.140165 486.974907 
L 132.860826 486.974907 
L 129.581488 486.974907 
L 126.302149 486.974907 
L 123.02281 486.974907 
L 119.743471 486.974907 
L 116.464132 486.974907 
L 113.184793 486.974907 
L 109.905455 486.974907 
L 106.626116 486.974907 
L 103.346777 486.974907 
L 100.067438 486.974907 
L 96.788099 486.974907 
L 93.50876 486.974907 
L 90.229421 486.974907 
L 86.950083 486.974907 
L 83.670744 486.974907 
L 80.391405 486.974907 
L 77.112066 486.974907 
L 73.832727 486.974907 
z
" style="fill:#1f77b4;"/>
   </g>
   <g id="PolyCollection_2">
    <path clip-path="url(#p1d39bed271)" d="M 73.832727 474.065079 
L 73.832727 486.974907 
L 77.112066 486.974907 
L 80.391405 486.974907 
L 83.670744 486.974907 
L 86.950083 486.974907 
L 90.229421 486.974907 
L 93.50876 486.974907 
L 96.788099 486.974907 
L 100.067438 486.974907 
L 103.346777 486.974907 
L 106.626116 486.974907 
L 109.905455 486.974907 
L 113.184793 486.974907 
L 116.464132 486.974907 
L 119.743471 486.974907 
L 123.02281 486.974907 
L 126.302149 486.974907 
L 129.581488 486.974907 
L 132.860826 486.974907 
L 136.140165 486.974907 
L 139.419504 486.974907 
L 142.698843 486.974907 
L 145.978182 486.974907 
L 149.257521 486.974907 
L 152.53686 486.974907 
L 155.816198 486.974907 
L 159.095537 486.974907 
L 162.374876 486.974907 
L 165.654215 486.974907 
L 168.933554 486.974907 
L 172.212893 486.974907 
L 175.492231 486.974907 
L 178.77157 486.974907 
L 182.050909 486.974907 
L 185.330248 486.974907 
L 188.609587 486.974907 
L 191.888926 486.974907 
L 195.168264 486.974907 
L 198.447603 486.974907 
L 201.726942 486.974907 
L 205.006281 486.974907 
L 208.28562 486.974907 
L 211.564959 486.974907 
L 214.844298 486.974907 
L 218.123636 486.974907 
L 221.402975 486.974907 
L 224.682314 486.974907 
L 227.961653 486.974907 
L 231.240992 486.974907 
L 234.520331 486.974907 
L 237.799669 486.974907 
L 241.079008 486.974907 
L 244.358347 486.974907 
L 247.637686 486.974907 
L 250.917025 486.974907 
L 254.196364 486.974907 
L 257.475702 486.974907 
L 260.755041 486.974907 
L 264.03438 486.974907 
L 267.313719 486.974907 
L 270.593058 486.974907 
L 273.872397 486.974907 
L 277.151736 486.974907 
L 280.431074 486.974907 
L 283.710413 486.974907 
L 286.989752 486.974907 
L 290.269091 486.974907 
L 293.54843 486.974907 
L 296.827769 486.974907 
L 300.107107 486.974907 
L 303.386446 486.974907 
L 306.665785 486.974907 
L 309.945124 486.974907 
L 313.224463 486.974907 
L 316.503802 486.974907 
L 319.78314 486.974907 
L 323.062479 486.974907 
L 326.341818 486.974907 
L 329.621157 486.974907 
L 332.900496 486.974907 
L 336.179835 486.974907 
L 339.459174 486.974907 
L 342.738512 486.974907 
L 346.017851 486.974907 
L 349.29719 486.974907 
L 352.576529 486.974907 
L 355.855868 486.974907 
L 359.135207 486.974907 
L 362.414545 486.974907 
L 365.693884 486.974907 
L 368.973223 486.974907 
L 372.252562 486.974907 
L 375.531901 486.974907 
L 378.81124 486.974907 
L 382.090579 486.974907 
L 385.369917 486.974907 
L 388.649256 486.974907 
L 391.928595 486.974907 
L 395.207934 486.974907 
L 398.487273 486.974907 
L 398.487273 486.974907 
L 398.487273 486.974907 
L 395.207934 486.844505 
L 391.928595 486.714103 
L 388.649256 486.5837 
L 385.369917 486.453298 
L 382.090579 486.322896 
L 378.81124 486.192493 
L 375.531901 486.062091 
L 372.252562 485.931689 
L 368.973223 485.801287 
L 365.693884 485.670884 
L 362.414545 485.540482 
L 359.135207 485.41008 
L 355.855868 485.279677 
L 352.576529 485.149275 
L 349.29719 485.018873 
L 346.017851 484.88847 
L 342.738512 484.758068 
L 339.459174 484.627666 
L 336.179835 484.497264 
L 332.900496 484.366861 
L 329.621157 484.236459 
L 326.341818 484.106057 
L 323.062479 483.975654 
L 319.78314 483.845252 
L 316.503802 483.71485 
L 313.224463 483.584447 
L 309.945124 483.454045 
L 306.665785 483.323643 
L 303.386446 483.193241 
L 300.107107 483.062838 
L 296.827769 482.932436 
L 293.54843 482.802034 
L 290.269091 482.671631 
L 286.989752 482.541229 
L 283.710413 482.410827 
L 280.431074 482.280424 
L 277.151736 482.150022 
L 273.872397 482.01962 
L 270.593058 481.889218 
L 267.313719 481.758815 
L 264.03438 481.628413 
L 260.755041 481.498011 
L 257.475702 481.367608 
L 254.196364 481.237206 
L 250.917025 481.106804 
L 247.637686 480.976401 
L 244.358347 480.845999 
L 241.079008 480.715597 
L 237.799669 480.585194 
L 234.520331 480.454792 
L 231.240992 480.32439 
L 227.961653 480.193988 
L 224.682314 480.063585 
L 221.402975 479.933183 
L 218.123636 479.802781 
L 214.844298 479.672378 
L 211.564959 479.541976 
L 208.28562 479.411574 
L 205.006281 479.281171 
L 201.726942 479.150769 
L 198.447603 479.020367 
L 195.168264 478.889965 
L 191.888926 478.759562 
L 188.609587 478.62916 
L 185.330248 478.498758 
L 182.050909 478.368355 
L 178.77157 478.237953 
L 175.492231 478.107551 
L 172.212893 477.977148 
L 168.933554 477.846746 
L 165.654215 477.716344 
L 162.374876 477.585942 
L 159.095537 477.455539 
L 155.816198 477.325137 
L 152.53686 477.194735 
L 149.257521 477.064332 
L 145.978182 476.93393 
L 142.698843 476.803528 
L 139.419504 476.673125 
L 136.140165 476.542723 
L 132.860826 476.412321 
L 129.581488 476.281919 
L 126.302149 476.151516 
L 123.02281 476.021114 
L 119.743471 475.890712 
L 116.464132 475.760309 
L 113.184793 475.629907 
L 109.905455 475.499505 
L 106.626116 475.369102 
L 103.346777 475.2387 
L 100.067438 475.108298 
L 96.788099 474.977896 
L 93.50876 474.847493 
L 90.229421 474.717091 
L 86.950083 474.586689 
L 83.670744 474.456286 
L 80.391405 474.325884 
L 77.112066 474.195482 
L 73.832727 474.065079 
z
" style="fill:#aec7e8;"/>
   </g>
   <g id="PolyCollection_3">
    <path clip-path="url(#p1d39bed271)" d="M 73.832727 474.065079 
L 73.832727 474.065079 
L 77.112066 474.195482 
L 80.391405 474.325884 
L 83.670744 474.456286 
L 86.950083 474.586689 
L 90.229421 474.717091 
L 93.50876 474.847493 
L 96.788099 474.977896 
L 100.067438 475.108298 
L 103.346777 475.2387 
L 106.626116 475.369102 
L 109.905455 475.499505 
L 113.184793 475.629907 
L 116.464132 475.760309 
L 119.743471 475.890712 
L 123.02281 476.021114 
L 126.302149 476.151516 
L 129.581488 476.281919 
L 132.860826 476.412321 
L 136.140165 476.542723 
L 139.419504 476.673125 
L 142.698843 476.803528 
L 145.978182 476.93393 
L 149.257521 477.064332 
L 152.53686 477.194735 
L 155.816198 477.325137 
L 159.095537 477.455539 
L 162.374876 477.585942 
L 165.654215 477.716344 
L 168.933554 477.846746 
L 172.212893 477.977148 
L 175.492231 478.107551 
L 178.77157 478.237953 
L 182.050909 478.368355 
L 185.330248 478.498758 
L 188.609587 478.62916 
L 191.888926 478.759562 
L 195.168264 478.889965 
L 198.447603 479.020367 
L 201.726942 479.150769 
L 205.006281 479.281171 
L 208.28562 479.411574 
L 211.564959 479.541976 
L 214.844298 479.672378 
L 218.123636 479.802781 
L 221.402975 479.933183 
L 224.682314 480.063585 
L 227.961653 480.193988 
L 231.240992 480.32439 
L 234.520331 480.454792 
L 237.799669 480.585194 
L 241.079008 480.715597 
L 244.358347 480.845999 
L 247.637686 480.976401 
L 250.917025 481.106804 
L 254.196364 481.237206 
L 257.475702 481.367608 
L 260.755041 481.498011 
L 264.03438 481.628413 
L 267.313719 481.758815 
L 270.593058 481.889218 
L 273.872397 482.01962 
L 277.151736 482.150022 
L 280.431074 482.280424 
L 283.710413 482.410827 
L 286.989752 482.541229 
L 290.269091 482.671631 
L 293.54843 482.802034 
L 296.827769 482.932436 
L 300.107107 483.062838 
L 303.386446 483.193241 
L 306.665785 483.323643 
L 309.945124 483.454045 
L 313.224463 483.584447 
L 316.503802 483.71485 
L 319.78314 483.845252 
L 323.062479 483.975654 
L 326.341818 484.106057 
L 329.621157 484.236459 
L 332.900496 484.366861 
L 336.179835 484.497264 
L 339.459174 484.627666 
L 342.738512 484.758068 
L 346.017851 484.88847 
L 349.29719 485.018873 
L 352.576529 485.149275 
L 355.855868 485.279677 
L 359.135207 485.41008 
L 362.414545 485.540482 
L 365.693884 485.670884 
L 368.973223 485.801287 
L 372.252562 485.931689 
L 375.531901 486.062091 
L 378.81124 486.192493 
L 382.090579 486.322896 
L 385.369917 486.453298 
L 388.649256 486.5837 
L 391.928595 486.714103 
L 395.207934 486.844505 
L 398.487273 486.974907 
L 398.487273 472.11154 
L 398.487273 472.11154 
L 395.207934 472.131273 
L 391.928595 472.151005 
L 388.649256 472.170738 
L 385.369917 472.190471 
L 382.090579 472.210204 
L 378.81124 472.229936 
L 375.531901 472.249669 
L 372.252562 472.269402 
L 368.973223 472.289134 
L 365.693884 472.308867 
L 362.414545 472.3286 
L 359.135207 472.348333 
L 355.855868 472.368065 
L 352.576529 472.387798 
L 349.29719 472.407531 
L 346.017851 472.427264 
L 342.738512 472.446996 
L 339.459174 472.466729 
L 336.179835 472.486462 
L 332.900496 472.506194 
L 329.621157 472.525927 
L 326.341818 472.54566 
L 323.062479 472.565393 
L 319.78314 472.585125 
L 316.503802 472.604858 
L 313.224463 472.624591 
L 309.945124 472.644323 
L 306.665785 472.664056 
L 303.386446 472.683789 
L 300.107107 472.703522 
L 296.827769 472.723254 
L 293.54843 472.742987 
L 290.269091 472.76272 
L 286.989752 472.782453 
L 283.710413 472.802185 
L 280.431074 472.821918 
L 277.151736 472.841651 
L 273.872397 472.861383 
L 270.593058 472.881116 
L 267.313719 472.900849 
L 264.03438 472.920582 
L 260.755041 472.940314 
L 257.475702 472.960047 
L 254.196364 472.97978 
L 250.917025 472.999512 
L 247.637686 473.019245 
L 244.358347 473.038978 
L 241.079008 473.058711 
L 237.799669 473.078443 
L 234.520331 473.098176 
L 231.240992 473.117909 
L 227.961653 473.137641 
L 224.682314 473.157374 
L 221.402975 473.177107 
L 218.123636 473.19684 
L 214.844298 473.216572 
L 211.564959 473.236305 
L 208.28562 473.256038 
L 205.006281 473.275771 
L 201.726942 473.295503 
L 198.447603 473.315236 
L 195.168264 473.334969 
L 191.888926 473.354701 
L 188.609587 473.374434 
L 185.330248 473.394167 
L 182.050909 473.4139 
L 178.77157 473.433632 
L 175.492231 473.453365 
L 172.212893 473.473098 
L 168.933554 473.49283 
L 165.654215 473.512563 
L 162.374876 473.532296 
L 159.095537 473.552029 
L 155.816198 473.571761 
L 152.53686 473.591494 
L 149.257521 473.611227 
L 145.978182 473.63096 
L 142.698843 473.650692 
L 139.419504 473.670425 
L 136.140165 473.690158 
L 132.860826 473.70989 
L 129.581488 473.729623 
L 126.302149 473.749356 
L 123.02281 473.769089 
L 119.743471 473.788821 
L 116.464132 473.808554 
L 113.184793 473.828287 
L 109.905455 473.848019 
L 106.626116 473.867752 
L 103.346777 473.887485 
L 100.067438 473.907218 
L 96.788099 473.92695 
L 93.50876 473.946683 
L 90.229421 473.966416 
L 86.950083 473.986149 
L 83.670744 474.005881 
L 80.391405 474.025614 
L 77.112066 474.045347 
L 73.832727 474.065079 
z
" style="fill:#ff7f0e;"/>
   </g>
   <g id="PolyCollection_4">
    <path clip-path="url(#p1d39bed271)" d="M 73.832727 466.889816 
L 73.832727 474.065079 
L 77.112066 474.045347 
L 80.391405 474.025614 
L 83.670744 474.005881 
L 86.950083 473.986149 
L 90.229421 473.966416 
L 93.50876 473.946683 
L 96.788099 473.92695 
L 100.067438 473.907218 
L 103.346777 473.887485 
L 106.626116 473.867752 
L 109.905455 473.848019 
L 113.184793 473.828287 
L 116.464132 473.808554 
L 119.743471 473.788821 
L 123.02281 473.769089 
L 126.302149 473.749356 
L 129.581488 473.729623 
L 132.860826 473.70989 
L 136.140165 473.690158 
L 139.419504 473.670425 
L 142.698843 473.650692 
L 145.978182 473.63096 
L 149.257521 473.611227 
L 152.53686 473.591494 
L 155.816198 473.571761 
L 159.095537 473.552029 
L 162.374876 473.532296 
L 165.654215 473.512563 
L 168.933554 473.49283 
L 172.212893 473.473098 
L 175.492231 473.453365 
L 178.77157 473.433632 
L 182.050909 473.4139 
L 185.330248 473.394167 
L 188.609587 473.374434 
L 191.888926 473.354701 
L 195.168264 473.334969 
L 198.447603 473.315236 
L 201.726942 473.295503 
L 205.006281 473.275771 
L 208.28562 473.256038 
L 211.564959 473.236305 
L 214.844298 473.216572 
L 218.123636 473.19684 
L 221.402975 473.177107 
L 224.682314 473.157374 
L 227.961653 473.137641 
L 231.240992 473.117909 
L 234.520331 473.098176 
L 237.799669 473.078443 
L 241.079008 473.058711 
L 244.358347 473.038978 
L 247.637686 473.019245 
L 250.917025 472.999512 
L 254.196364 472.97978 
L 257.475702 472.960047 
L 260.755041 472.940314 
L 264.03438 472.920582 
L 267.313719 472.900849 
L 270.593058 472.881116 
L 273.872397 472.861383 
L 277.151736 472.841651 
L 280.431074 472.821918 
L 283.710413 472.802185 
L 286.989752 472.782453 
L 290.269091 472.76272 
L 293.54843 472.742987 
L 296.827769 472.723254 
L 300.107107 472.703522 
L 303.386446 472.683789 
L 306.665785 472.664056 
L 309.945124 472.644323 
L 313.224463 472.624591 
L 316.503802 472.604858 
L 319.78314 472.585125 
L 323.062479 472.565393 
L 326.341818 472.54566 
L 329.621157 472.525927 
L 332.900496 472.506194 
L 336.179835 472.486462 
L 339.459174 472.466729 
L 342.738512 472.446996 
L 346.017851 472.427264 
L 349.29719 472.407531 
L 352.576529 472.387798 
L 355.855868 472.368065 
L 359.135207 472.348333 
L 362.414545 472.3286 
L 365.693884 472.308867 
L 368.973223 472.289134 
L 372.252562 472.269402 
L 375.531901 472.249669 
L 378.81124 472.229936 
L 382.090579 472.210204 
L 385.369917 472.190471 
L 388.649256 472.170738 
L 391.928595 472.151005 
L 395.207934 472.131273 
L 398.487273 472.11154 
L 398.487273 464.936276 
L 398.487273 464.936276 
L 395.207934 464.956009 
L 391.928595 464.975742 
L 388.649256 464.995474 
L 385.369917 465.015207 
L 382.090579 465.03494 
L 378.81124 465.054673 
L 375.531901 465.074405 
L 372.252562 465.094138 
L 368.973223 465.113871 
L 365.693884 465.133603 
L 362.414545 465.153336 
L 359.135207 465.173069 
L 355.855868 465.192802 
L 352.576529 465.212534 
L 349.29719 465.232267 
L 346.017851 465.252 
L 342.738512 465.271732 
L 339.459174 465.291465 
L 336.179835 465.311198 
L 332.900496 465.330931 
L 329.621157 465.350663 
L 326.341818 465.370396 
L 323.062479 465.390129 
L 319.78314 465.409862 
L 316.503802 465.429594 
L 313.224463 465.449327 
L 309.945124 465.46906 
L 306.665785 465.488792 
L 303.386446 465.508525 
L 300.107107 465.528258 
L 296.827769 465.547991 
L 293.54843 465.567723 
L 290.269091 465.587456 
L 286.989752 465.607189 
L 283.710413 465.626921 
L 280.431074 465.646654 
L 277.151736 465.666387 
L 273.872397 465.68612 
L 270.593058 465.705852 
L 267.313719 465.725585 
L 264.03438 465.745318 
L 260.755041 465.76505 
L 257.475702 465.784783 
L 254.196364 465.804516 
L 250.917025 465.824249 
L 247.637686 465.843981 
L 244.358347 465.863714 
L 241.079008 465.883447 
L 237.799669 465.90318 
L 234.520331 465.922912 
L 231.240992 465.942645 
L 227.961653 465.962378 
L 224.682314 465.98211 
L 221.402975 466.001843 
L 218.123636 466.021576 
L 214.844298 466.041309 
L 211.564959 466.061041 
L 208.28562 466.080774 
L 205.006281 466.100507 
L 201.726942 466.120239 
L 198.447603 466.139972 
L 195.168264 466.159705 
L 191.888926 466.179438 
L 188.609587 466.19917 
L 185.330248 466.218903 
L 182.050909 466.238636 
L 178.77157 466.258369 
L 175.492231 466.278101 
L 172.212893 466.297834 
L 168.933554 466.317567 
L 165.654215 466.337299 
L 162.374876 466.357032 
L 159.095537 466.376765 
L 155.816198 466.396498 
L 152.53686 466.41623 
L 149.257521 466.435963 
L 145.978182 466.455696 
L 142.698843 466.475428 
L 139.419504 466.495161 
L 136.140165 466.514894 
L 132.860826 466.534627 
L 129.581488 466.554359 
L 126.302149 466.574092 
L 123.02281 466.593825 
L 119.743471 466.613558 
L 116.464132 466.63329 
L 113.184793 466.653023 
L 109.905455 466.672756 
L 106.626116 466.692488 
L 103.346777 466.712221 
L 100.067438 466.731954 
L 96.788099 466.751687 
L 93.50876 466.771419 
L 90.229421 466.791152 
L 86.950083 466.810885 
L 83.670744 466.830617 
L 80.391405 466.85035 
L 77.112066 466.870083 
L 73.832727 466.889816 
z
" style="fill:#ffbb78;"/>
   </g>
   <g id="PolyCollection_5">
    <path clip-path="url(#p1d39bed271)" d="M 73.832727 453.255439 
L 73.832727 466.889816 
L 77.112066 466.870083 
L 80.391405 466.85035 
L 83.670744 466.830617 
L 86.950083 466.810885 
L 90.229421 466.791152 
L 93.50876 466.771419 
L 96.788099 466.751687 
L 100.067438 466.731954 
L 103.346777 466.712221 
L 106.626116 466.692488 
L 109.905455 466.672756 
L 113.184793 466.653023 
L 116.464132 466.63329 
L 119.743471 466.613558 
L 123.02281 466.593825 
L 126.302149 466.574092 
L 129.581488 466.554359 
L 132.860826 466.534627 
L 136.140165 466.514894 
L 139.419504 466.495161 
L 142.698843 466.475428 
L 145.978182 466.455696 
L 149.257521 466.435963 
L 152.53686 466.41623 
L 155.816198 466.396498 
L 159.095537 466.376765 
L 162.374876 466.357032 
L 165.654215 466.337299 
L 168.933554 466.317567 
L 172.212893 466.297834 
L 175.492231 466.278101 
L 178.77157 466.258369 
L 182.050909 466.238636 
L 185.330248 466.218903 
L 188.609587 466.19917 
L 191.888926 466.179438 
L 195.168264 466.159705 
L 198.447603 466.139972 
L 201.726942 466.120239 
L 205.006281 466.100507 
L 208.28562 466.080774 
L 211.564959 466.061041 
L 214.844298 466.041309 
L 218.123636 466.021576 
L 221.402975 466.001843 
L 224.682314 465.98211 
L 227.961653 465.962378 
L 231.240992 465.942645 
L 234.520331 465.922912 
L 237.799669 465.90318 
L 241.079008 465.883447 
L 244.358347 465.863714 
L 247.637686 465.843981 
L 250.917025 465.824249 
L 254.196364 465.804516 
L 257.475702 465.784783 
L 260.755041 465.76505 
L 264.03438 465.745318 
L 267.313719 465.725585 
L 270.593058 465.705852 
L 273.872397 465.68612 
L 277.151736 465.666387 
L 280.431074 465.646654 
L 283.710413 465.626921 
L 286.989752 465.607189 
L 290.269091 465.587456 
L 293.54843 465.567723 
L 296.827769 465.547991 
L 300.107107 465.528258 
L 303.386446 465.508525 
L 306.665785 465.488792 
L 309.945124 465.46906 
L 313.224463 465.449327 
L 316.503802 465.429594 
L 319.78314 465.409862 
L 323.062479 465.390129 
L 326.341818 465.370396 
L 329.621157 465.350663 
L 332.900496 465.330931 
L 336.179835 465.311198 
L 339.459174 465.291465 
L 342.738512 465.271732 
L 346.017851 465.252 
L 349.29719 465.232267 
L 352.576529 465.212534 
L 355.855868 465.192802 
L 359.135207 465.173069 
L 362.414545 465.153336 
L 365.693884 465.133603 
L 368.973223 465.113871 
L 372.252562 465.094138 
L 375.531901 465.074405 
L 378.81124 465.054673 
L 382.090579 465.03494 
L 385.369917 465.015207 
L 388.649256 464.995474 
L 391.928595 464.975742 
L 395.207934 464.956009 
L 398.487273 464.936276 
L 398.487273 464.936276 
L 398.487273 464.936276 
L 395.207934 464.818289 
L 391.928595 464.700301 
L 388.649256 464.582314 
L 385.369917 464.464326 
L 382.090579 464.346338 
L 378.81124 464.22835 
L 375.531901 464.110363 
L 372.252562 463.992375 
L 368.973223 463.874387 
L 365.693884 463.756399 
L 362.414545 463.638411 
L 359.135207 463.520424 
L 355.855868 463.402436 
L 352.576529 463.284448 
L 349.29719 463.16646 
L 346.017851 463.048472 
L 342.738512 462.930485 
L 339.459174 462.812497 
L 336.179835 462.694509 
L 332.900496 462.576521 
L 329.621157 462.458533 
L 326.341818 462.340546 
L 323.062479 462.222558 
L 319.78314 462.10457 
L 316.503802 461.986582 
L 313.224463 461.868594 
L 309.945124 461.750607 
L 306.665785 461.632619 
L 303.386446 461.514631 
L 300.107107 461.396643 
L 296.827769 461.278655 
L 293.54843 461.160668 
L 290.269091 461.04268 
L 286.989752 460.924692 
L 283.710413 460.806704 
L 280.431074 460.688716 
L 277.151736 460.570729 
L 273.872397 460.452741 
L 270.593058 460.334753 
L 267.313719 460.216765 
L 264.03438 460.098777 
L 260.755041 459.980789 
L 257.475702 459.862802 
L 254.196364 459.744814 
L 250.917025 459.626826 
L 247.637686 459.508838 
L 244.358347 459.39085 
L 241.079008 459.272863 
L 237.799669 459.154875 
L 234.520331 459.036887 
L 231.240992 458.918899 
L 227.961653 458.800911 
L 224.682314 458.682924 
L 221.402975 458.564936 
L 218.123636 458.446948 
L 214.844298 458.32896 
L 211.564959 458.210972 
L 208.28562 458.092985 
L 205.006281 457.974997 
L 201.726942 457.857009 
L 198.447603 457.739021 
L 195.168264 457.621033 
L 191.888926 457.503045 
L 188.609587 457.385057 
L 185.330248 457.267069 
L 182.050909 457.14908 
L 178.77157 457.031092 
L 175.492231 456.913104 
L 172.212893 456.795116 
L 168.933554 456.677127 
L 165.654215 456.559139 
L 162.374876 456.441151 
L 159.095537 456.323163 
L 155.816198 456.205174 
L 152.53686 456.087186 
L 149.257521 455.969198 
L 145.978182 455.85121 
L 142.698843 455.733222 
L 139.419504 455.615233 
L 136.140165 455.497245 
L 132.860826 455.379257 
L 129.581488 455.261269 
L 126.302149 455.14328 
L 123.02281 455.025292 
L 119.743471 454.907303 
L 116.464132 454.789314 
L 113.184793 454.671325 
L 109.905455 454.553336 
L 106.626116 454.435346 
L 103.346777 454.317357 
L 100.067438 454.199368 
L 96.788099 454.081377 
L 93.50876 453.963386 
L 90.229421 453.845395 
L 86.950083 453.727404 
L 83.670744 453.609413 
L 80.391405 453.491421 
L 77.112066 453.37343 
L 73.832727 453.255439 
z
" style="fill:#2ca02c;"/>
   </g>
   <g id="PolyCollection_6">
    <path clip-path="url(#p1d39bed271)" d="M 73.832727 453.255439 
L 73.832727 453.255439 
L 77.112066 453.37343 
L 80.391405 453.491421 
L 83.670744 453.609413 
L 86.950083 453.727404 
L 90.229421 453.845395 
L 93.50876 453.963386 
L 96.788099 454.081377 
L 100.067438 454.199368 
L 103.346777 454.317357 
L 106.626116 454.435346 
L 109.905455 454.553336 
L 113.184793 454.671325 
L 116.464132 454.789314 
L 119.743471 454.907303 
L 123.02281 455.025292 
L 126.302149 455.14328 
L 129.581488 455.261269 
L 132.860826 455.379257 
L 136.140165 455.497245 
L 139.419504 455.615233 
L 142.698843 455.733222 
L 145.978182 455.85121 
L 149.257521 455.969198 
L 152.53686 456.087186 
L 155.816198 456.205174 
L 159.095537 456.323163 
L 162.374876 456.441151 
L 165.654215 456.559139 
L 168.933554 456.677127 
L 172.212893 456.795116 
L 175.492231 456.913104 
L 178.77157 457.031092 
L 182.050909 457.14908 
L 185.330248 457.267069 
L 188.609587 457.385057 
L 191.888926 457.503045 
L 195.168264 457.621033 
L 198.447603 457.739021 
L 201.726942 457.857009 
L 205.006281 457.974997 
L 208.28562 458.092985 
L 211.564959 458.210972 
L 214.844298 458.32896 
L 218.123636 458.446948 
L 221.402975 458.564936 
L 224.682314 458.682924 
L 227.961653 458.800911 
L 231.240992 458.918899 
L 234.520331 459.036887 
L 237.799669 459.154875 
L 241.079008 459.272863 
L 244.358347 459.39085 
L 247.637686 459.508838 
L 250.917025 459.626826 
L 254.196364 459.744814 
L 257.475702 459.862802 
L 260.755041 459.980789 
L 264.03438 460.098777 
L 267.313719 460.216765 
L 270.593058 460.334753 
L 273.872397 460.452741 
L 277.151736 460.570729 
L 280.431074 460.688716 
L 283.710413 460.806704 
L 286.989752 460.924692 
L 290.269091 461.04268 
L 293.54843 461.160668 
L 296.827769 461.278655 
L 300.107107 461.396643 
L 303.386446 461.514631 
L 306.665785 461.632619 
L 309.945124 461.750607 
L 313.224463 461.868594 
L 316.503802 461.986582 
L 319.78314 462.10457 
L 323.062479 462.222558 
L 326.341818 462.340546 
L 329.621157 462.458533 
L 332.900496 462.576521 
L 336.179835 462.694509 
L 339.459174 462.812497 
L 342.738512 462.930485 
L 346.017851 463.048472 
L 349.29719 463.16646 
L 352.576529 463.284448 
L 355.855868 463.402436 
L 359.135207 463.520424 
L 362.414545 463.638411 
L 365.693884 463.756399 
L 368.973223 463.874387 
L 372.252562 463.992375 
L 375.531901 464.110363 
L 378.81124 464.22835 
L 382.090579 464.346338 
L 385.369917 464.464326 
L 388.649256 464.582314 
L 391.928595 464.700301 
L 395.207934 464.818289 
L 398.487273 464.936276 
L 398.487273 449.839813 
L 398.487273 449.839813 
L 395.207934 449.874315 
L 391.928595 449.908817 
L 388.649256 449.943319 
L 385.369917 449.977821 
L 382.090579 450.012322 
L 378.81124 450.046824 
L 375.531901 450.081326 
L 372.252562 450.115828 
L 368.973223 450.150329 
L 365.693884 450.184831 
L 362.414545 450.219333 
L 359.135207 450.253834 
L 355.855868 450.288336 
L 352.576529 450.322838 
L 349.29719 450.35734 
L 346.017851 450.391841 
L 342.738512 450.426343 
L 339.459174 450.460845 
L 336.179835 450.495347 
L 332.900496 450.529848 
L 329.621157 450.56435 
L 326.341818 450.598852 
L 323.062479 450.633353 
L 319.78314 450.667855 
L 316.503802 450.702357 
L 313.224463 450.736859 
L 309.945124 450.77136 
L 306.665785 450.805862 
L 303.386446 450.840364 
L 300.107107 450.874866 
L 296.827769 450.909367 
L 293.54843 450.943869 
L 290.269091 450.978371 
L 286.989752 451.012872 
L 283.710413 451.047374 
L 280.431074 451.081876 
L 277.151736 451.116378 
L 273.872397 451.150879 
L 270.593058 451.185381 
L 267.313719 451.219883 
L 264.03438 451.254384 
L 260.755041 451.288886 
L 257.475702 451.323388 
L 254.196364 451.35789 
L 250.917025 451.392391 
L 247.637686 451.426893 
L 244.358347 451.461395 
L 241.079008 451.495897 
L 237.799669 451.530398 
L 234.520331 451.5649 
L 231.240992 451.599402 
L 227.961653 451.633903 
L 224.682314 451.668405 
L 221.402975 451.702907 
L 218.123636 451.737409 
L 214.844298 451.77191 
L 211.564959 451.806412 
L 208.28562 451.840914 
L 205.006281 451.875416 
L 201.726942 451.909917 
L 198.447603 451.944419 
L 195.168264 451.978921 
L 191.888926 452.013422 
L 188.609587 452.047923 
L 185.330248 452.082425 
L 182.050909 452.116926 
L 178.77157 452.151427 
L 175.492231 452.185928 
L 172.212893 452.22043 
L 168.933554 452.254931 
L 165.654215 452.289432 
L 162.374876 452.323934 
L 159.095537 452.358435 
L 155.816198 452.392936 
L 152.53686 452.427437 
L 149.257521 452.461939 
L 145.978182 452.49644 
L 142.698843 452.530941 
L 139.419504 452.565443 
L 136.140165 452.599944 
L 132.860826 452.634445 
L 129.581488 452.668947 
L 126.302149 452.703448 
L 123.02281 452.737949 
L 119.743471 452.77245 
L 116.464132 452.80695 
L 113.184793 452.84145 
L 109.905455 452.875951 
L 106.626116 452.910451 
L 103.346777 452.944951 
L 100.067438 452.979451 
L 96.788099 453.013951 
L 93.50876 453.048449 
L 90.229421 453.082947 
L 86.950083 453.117446 
L 83.670744 453.151944 
L 80.391405 453.186442 
L 77.112066 453.220941 
L 73.832727 453.255439 
z
" style="fill:#98df8a;"/>
   </g>
   <g id="PolyCollection_7">
    <path clip-path="url(#p1d39bed271)" d="M 73.832727 427.22143 
L 73.832727 453.255439 
L 77.112066 453.220941 
L 80.391405 453.186442 
L 83.670744 453.151944 
L 86.950083 453.117446 
L 90.229421 453.082947 
L 93.50876 453.048449 
L 96.788099 453.013951 
L 100.067438 452.979451 
L 103.346777 452.944951 
L 106.626116 452.910451 
L 109.905455 452.875951 
L 113.184793 452.84145 
L 116.464132 452.80695 
L 119.743471 452.77245 
L 123.02281 452.737949 
L 126.302149 452.703448 
L 129.581488 452.668947 
L 132.860826 452.634445 
L 136.140165 452.599944 
L 139.419504 452.565443 
L 142.698843 452.530941 
L 145.978182 452.49644 
L 149.257521 452.461939 
L 152.53686 452.427437 
L 155.816198 452.392936 
L 159.095537 452.358435 
L 162.374876 452.323934 
L 165.654215 452.289432 
L 168.933554 452.254931 
L 172.212893 452.22043 
L 175.492231 452.185928 
L 178.77157 452.151427 
L 182.050909 452.116926 
L 185.330248 452.082425 
L 188.609587 452.047923 
L 191.888926 452.013422 
L 195.168264 451.978921 
L 198.447603 451.944419 
L 201.726942 451.909917 
L 205.006281 451.875416 
L 208.28562 451.840914 
L 211.564959 451.806412 
L 214.844298 451.77191 
L 218.123636 451.737409 
L 221.402975 451.702907 
L 224.682314 451.668405 
L 227.961653 451.633903 
L 231.240992 451.599402 
L 234.520331 451.5649 
L 237.799669 451.530398 
L 241.079008 451.495897 
L 244.358347 451.461395 
L 247.637686 451.426893 
L 250.917025 451.392391 
L 254.196364 451.35789 
L 257.475702 451.323388 
L 260.755041 451.288886 
L 264.03438 451.254384 
L 267.313719 451.219883 
L 270.593058 451.185381 
L 273.872397 451.150879 
L 277.151736 451.116378 
L 280.431074 451.081876 
L 283.710413 451.047374 
L 286.989752 451.012872 
L 290.269091 450.978371 
L 293.54843 450.943869 
L 296.827769 450.909367 
L 300.107107 450.874866 
L 303.386446 450.840364 
L 306.665785 450.805862 
L 309.945124 450.77136 
L 313.224463 450.736859 
L 316.503802 450.702357 
L 319.78314 450.667855 
L 323.062479 450.633353 
L 326.341818 450.598852 
L 329.621157 450.56435 
L 332.900496 450.529848 
L 336.179835 450.495347 
L 339.459174 450.460845 
L 342.738512 450.426343 
L 346.017851 450.391841 
L 349.29719 450.35734 
L 352.576529 450.322838 
L 355.855868 450.288336 
L 359.135207 450.253834 
L 362.414545 450.219333 
L 365.693884 450.184831 
L 368.973223 450.150329 
L 372.252562 450.115828 
L 375.531901 450.081326 
L 378.81124 450.046824 
L 382.090579 450.012322 
L 385.369917 449.977821 
L 388.649256 449.943319 
L 391.928595 449.908817 
L 395.207934 449.874315 
L 398.487273 449.839813 
L 398.487273 423.805804 
L 398.487273 423.805804 
L 395.207934 423.840306 
L 391.928595 423.874808 
L 388.649256 423.90931 
L 385.369917 423.943812 
L 382.090579 423.978314 
L 378.81124 424.012816 
L 375.531901 424.047317 
L 372.252562 424.081819 
L 368.973223 424.116321 
L 365.693884 424.150823 
L 362.414545 424.185324 
L 359.135207 424.219826 
L 355.855868 424.254328 
L 352.576529 424.288829 
L 349.29719 424.323331 
L 346.017851 424.357833 
L 342.738512 424.392335 
L 339.459174 424.426836 
L 336.179835 424.461338 
L 332.900496 424.49584 
L 329.621157 424.530341 
L 326.341818 424.564843 
L 323.062479 424.599345 
L 319.78314 424.633847 
L 316.503802 424.668348 
L 313.224463 424.70285 
L 309.945124 424.737352 
L 306.665785 424.771854 
L 303.386446 424.806355 
L 300.107107 424.840857 
L 296.827769 424.875359 
L 293.54843 424.90986 
L 290.269091 424.944362 
L 286.989752 424.978864 
L 283.710413 425.013366 
L 280.431074 425.047867 
L 277.151736 425.082369 
L 273.872397 425.116871 
L 270.593058 425.151373 
L 267.313719 425.185874 
L 264.03438 425.220376 
L 260.755041 425.254878 
L 257.475702 425.289379 
L 254.196364 425.323881 
L 250.917025 425.358383 
L 247.637686 425.392885 
L 244.358347 425.427386 
L 241.079008 425.461888 
L 237.799669 425.49639 
L 234.520331 425.530892 
L 231.240992 425.565393 
L 227.961653 425.599895 
L 224.682314 425.634397 
L 221.402975 425.668898 
L 218.123636 425.7034 
L 214.844298 425.737902 
L 211.564959 425.772404 
L 208.28562 425.806905 
L 205.006281 425.841407 
L 201.726942 425.875909 
L 198.447603 425.910411 
L 195.168264 425.944912 
L 191.888926 425.979414 
L 188.609587 426.013915 
L 185.330248 426.048416 
L 182.050909 426.082917 
L 178.77157 426.117419 
L 175.492231 426.15192 
L 172.212893 426.186421 
L 168.933554 426.220923 
L 165.654215 426.255424 
L 162.374876 426.289925 
L 159.095537 426.324426 
L 155.816198 426.358928 
L 152.53686 426.393429 
L 149.257521 426.42793 
L 145.978182 426.462432 
L 142.698843 426.496933 
L 139.419504 426.531434 
L 136.140165 426.565935 
L 132.860826 426.600437 
L 129.581488 426.634938 
L 126.302149 426.669439 
L 123.02281 426.703941 
L 119.743471 426.738442 
L 116.464132 426.772942 
L 113.184793 426.807442 
L 109.905455 426.841942 
L 106.626116 426.876442 
L 103.346777 426.910943 
L 100.067438 426.945443 
L 96.788099 426.979942 
L 93.50876 427.014441 
L 90.229421 427.048939 
L 86.950083 427.083437 
L 83.670744 427.117936 
L 80.391405 427.152434 
L 77.112066 427.186932 
L 73.832727 427.22143 
z
" style="fill:#d62728;"/>
   </g>
   <g id="PolyCollection_8">
    <path clip-path="url(#p1d39bed271)" d="M 73.832727 395.36929 
L 73.832727 427.22143 
L 77.112066 427.186932 
L 80.391405 427.152434 
L 83.670744 427.117936 
L 86.950083 427.083437 
L 90.229421 427.048939 
L 93.50876 427.014441 
L 96.788099 426.979942 
L 100.067438 426.945443 
L 103.346777 426.910943 
L 106.626116 426.876442 
L 109.905455 426.841942 
L 113.184793 426.807442 
L 116.464132 426.772942 
L 119.743471 426.738442 
L 123.02281 426.703941 
L 126.302149 426.669439 
L 129.581488 426.634938 
L 132.860826 426.600437 
L 136.140165 426.565935 
L 139.419504 426.531434 
L 142.698843 426.496933 
L 145.978182 426.462432 
L 149.257521 426.42793 
L 152.53686 426.393429 
L 155.816198 426.358928 
L 159.095537 426.324426 
L 162.374876 426.289925 
L 165.654215 426.255424 
L 168.933554 426.220923 
L 172.212893 426.186421 
L 175.492231 426.15192 
L 178.77157 426.117419 
L 182.050909 426.082917 
L 185.330248 426.048416 
L 188.609587 426.013915 
L 191.888926 425.979414 
L 195.168264 425.944912 
L 198.447603 425.910411 
L 201.726942 425.875909 
L 205.006281 425.841407 
L 208.28562 425.806905 
L 211.564959 425.772404 
L 214.844298 425.737902 
L 218.123636 425.7034 
L 221.402975 425.668898 
L 224.682314 425.634397 
L 227.961653 425.599895 
L 231.240992 425.565393 
L 234.520331 425.530892 
L 237.799669 425.49639 
L 241.079008 425.461888 
L 244.358347 425.427386 
L 247.637686 425.392885 
L 250.917025 425.358383 
L 254.196364 425.323881 
L 257.475702 425.289379 
L 260.755041 425.254878 
L 264.03438 425.220376 
L 267.313719 425.185874 
L 270.593058 425.151373 
L 273.872397 425.116871 
L 277.151736 425.082369 
L 280.431074 425.047867 
L 283.710413 425.013366 
L 286.989752 424.978864 
L 290.269091 424.944362 
L 293.54843 424.90986 
L 296.827769 424.875359 
L 300.107107 424.840857 
L 303.386446 424.806355 
L 306.665785 424.771854 
L 309.945124 424.737352 
L 313.224463 424.70285 
L 316.503802 424.668348 
L 319.78314 424.633847 
L 323.062479 424.599345 
L 326.341818 424.564843 
L 329.621157 424.530341 
L 332.900496 424.49584 
L 336.179835 424.461338 
L 339.459174 424.426836 
L 342.738512 424.392335 
L 346.017851 424.357833 
L 349.29719 424.323331 
L 352.576529 424.288829 
L 355.855868 424.254328 
L 359.135207 424.219826 
L 362.414545 424.185324 
L 365.693884 424.150823 
L 368.973223 424.116321 
L 372.252562 424.081819 
L 375.531901 424.047317 
L 378.81124 424.012816 
L 382.090579 423.978314 
L 385.369917 423.943812 
L 388.649256 423.90931 
L 391.928595 423.874808 
L 395.207934 423.840306 
L 398.487273 423.805804 
L 398.487273 391.953962 
L 398.487273 391.953962 
L 395.207934 391.98846 
L 391.928595 392.022959 
L 388.649256 392.057457 
L 385.369917 392.091955 
L 382.090579 392.126453 
L 378.81124 392.160952 
L 375.531901 392.19545 
L 372.252562 392.229948 
L 368.973223 392.264447 
L 365.693884 392.298945 
L 362.414545 392.333443 
L 359.135207 392.367941 
L 355.855868 392.40244 
L 352.576529 392.436938 
L 349.29719 392.471436 
L 346.017851 392.505934 
L 342.738512 392.540433 
L 339.459174 392.574931 
L 336.179835 392.609429 
L 332.900496 392.643927 
L 329.621157 392.678426 
L 326.341818 392.712924 
L 323.062479 392.747422 
L 319.78314 392.781921 
L 316.503802 392.816419 
L 313.224463 392.850917 
L 309.945124 392.885415 
L 306.665785 392.919914 
L 303.386446 392.954412 
L 300.107107 392.98891 
L 296.827769 393.023408 
L 293.54843 393.057907 
L 290.269091 393.092405 
L 286.989752 393.126903 
L 283.710413 393.161401 
L 280.431074 393.1959 
L 277.151736 393.230398 
L 273.872397 393.264896 
L 270.593058 393.299395 
L 267.313719 393.333893 
L 264.03438 393.368391 
L 260.755041 393.402889 
L 257.475702 393.437388 
L 254.196364 393.471886 
L 250.917025 393.506384 
L 247.637686 393.540882 
L 244.358347 393.575381 
L 241.079008 393.609879 
L 237.799669 393.644377 
L 234.520331 393.678875 
L 231.240992 393.713374 
L 227.961653 393.747872 
L 224.682314 393.78237 
L 221.402975 393.816869 
L 218.123636 393.851367 
L 214.844298 393.885865 
L 211.564959 393.920363 
L 208.28562 393.954862 
L 205.006281 393.98936 
L 201.726942 394.023858 
L 198.447603 394.058356 
L 195.168264 394.092855 
L 191.888926 394.127353 
L 188.609587 394.161851 
L 185.330248 394.196349 
L 182.050909 394.230848 
L 178.77157 394.265346 
L 175.492231 394.299844 
L 172.212893 394.334343 
L 168.933554 394.368841 
L 165.654215 394.403339 
L 162.374876 394.437837 
L 159.095537 394.472336 
L 155.816198 394.506834 
L 152.53686 394.541332 
L 149.257521 394.57583 
L 145.978182 394.610329 
L 142.698843 394.644827 
L 139.419504 394.679325 
L 136.140165 394.713823 
L 132.860826 394.748322 
L 129.581488 394.78282 
L 126.302149 394.817318 
L 123.02281 394.851816 
L 119.743471 394.886315 
L 116.464132 394.920813 
L 113.184793 394.955311 
L 109.905455 394.98981 
L 106.626116 395.024308 
L 103.346777 395.058806 
L 100.067438 395.093304 
L 96.788099 395.127803 
L 93.50876 395.162301 
L 90.229421 395.196799 
L 86.950083 395.231297 
L 83.670744 395.265796 
L 80.391405 395.300294 
L 77.112066 395.334792 
L 73.832727 395.36929 
z
" style="fill:#ff9896;"/>
   </g>
   <g id="PolyCollection_9">
    <path clip-path="url(#p1d39bed271)" d="M 73.832727 390.459858 
L 73.832727 395.36929 
L 77.112066 395.334792 
L 80.391405 395.300294 
L 83.670744 395.265796 
L 86.950083 395.231297 
L 90.229421 395.196799 
L 93.50876 395.162301 
L 96.788099 395.127803 
L 100.067438 395.093304 
L 103.346777 395.058806 
L 106.626116 395.024308 
L 109.905455 394.98981 
L 113.184793 394.955311 
L 116.464132 394.920813 
L 119.743471 394.886315 
L 123.02281 394.851816 
L 126.302149 394.817318 
L 129.581488 394.78282 
L 132.860826 394.748322 
L 136.140165 394.713823 
L 139.419504 394.679325 
L 142.698843 394.644827 
L 145.978182 394.610329 
L 149.257521 394.57583 
L 152.53686 394.541332 
L 155.816198 394.506834 
L 159.095537 394.472336 
L 162.374876 394.437837 
L 165.654215 394.403339 
L 168.933554 394.368841 
L 172.212893 394.334343 
L 175.492231 394.299844 
L 178.77157 394.265346 
L 182.050909 394.230848 
L 185.330248 394.196349 
L 188.609587 394.161851 
L 191.888926 394.127353 
L 195.168264 394.092855 
L 198.447603 394.058356 
L 201.726942 394.023858 
L 205.006281 393.98936 
L 208.28562 393.954862 
L 211.564959 393.920363 
L 214.844298 393.885865 
L 218.123636 393.851367 
L 221.402975 393.816869 
L 224.682314 393.78237 
L 227.961653 393.747872 
L 231.240992 393.713374 
L 234.520331 393.678875 
L 237.799669 393.644377 
L 241.079008 393.609879 
L 244.358347 393.575381 
L 247.637686 393.540882 
L 250.917025 393.506384 
L 254.196364 393.471886 
L 257.475702 393.437388 
L 260.755041 393.402889 
L 264.03438 393.368391 
L 267.313719 393.333893 
L 270.593058 393.299395 
L 273.872397 393.264896 
L 277.151736 393.230398 
L 280.431074 393.1959 
L 283.710413 393.161401 
L 286.989752 393.126903 
L 290.269091 393.092405 
L 293.54843 393.057907 
L 296.827769 393.023408 
L 300.107107 392.98891 
L 303.386446 392.954412 
L 306.665785 392.919914 
L 309.945124 392.885415 
L 313.224463 392.850917 
L 316.503802 392.816419 
L 319.78314 392.781921 
L 323.062479 392.747422 
L 326.341818 392.712924 
L 329.621157 392.678426 
L 332.900496 392.643927 
L 336.179835 392.609429 
L 339.459174 392.574931 
L 342.738512 392.540433 
L 346.017851 392.505934 
L 349.29719 392.471436 
L 352.576529 392.436938 
L 355.855868 392.40244 
L 359.135207 392.367941 
L 362.414545 392.333443 
L 365.693884 392.298945 
L 368.973223 392.264447 
L 372.252562 392.229948 
L 375.531901 392.19545 
L 378.81124 392.160952 
L 382.090579 392.126453 
L 385.369917 392.091955 
L 388.649256 392.057457 
L 391.928595 392.022959 
L 395.207934 391.98846 
L 398.487273 391.953962 
L 398.487273 387.044529 
L 398.487273 387.044529 
L 395.207934 387.079028 
L 391.928595 387.113526 
L 388.649256 387.148024 
L 385.369917 387.182522 
L 382.090579 387.217021 
L 378.81124 387.251519 
L 375.531901 387.286017 
L 372.252562 387.320515 
L 368.973223 387.355014 
L 365.693884 387.389512 
L 362.414545 387.42401 
L 359.135207 387.458508 
L 355.855868 387.493007 
L 352.576529 387.527505 
L 349.29719 387.562003 
L 346.017851 387.596501 
L 342.738512 387.631 
L 339.459174 387.665498 
L 336.179835 387.699996 
L 332.900496 387.734495 
L 329.621157 387.768993 
L 326.341818 387.803491 
L 323.062479 387.837989 
L 319.78314 387.872488 
L 316.503802 387.906986 
L 313.224463 387.941484 
L 309.945124 387.975982 
L 306.665785 388.010481 
L 303.386446 388.044979 
L 300.107107 388.079477 
L 296.827769 388.113975 
L 293.54843 388.148474 
L 290.269091 388.182972 
L 286.989752 388.21747 
L 283.710413 388.251969 
L 280.431074 388.286467 
L 277.151736 388.320965 
L 273.872397 388.355463 
L 270.593058 388.389962 
L 267.313719 388.42446 
L 264.03438 388.458958 
L 260.755041 388.493456 
L 257.475702 388.527955 
L 254.196364 388.562453 
L 250.917025 388.596951 
L 247.637686 388.631449 
L 244.358347 388.665948 
L 241.079008 388.700446 
L 237.799669 388.734944 
L 234.520331 388.769443 
L 231.240992 388.803941 
L 227.961653 388.838439 
L 224.682314 388.872937 
L 221.402975 388.907436 
L 218.123636 388.941934 
L 214.844298 388.976432 
L 211.564959 389.01093 
L 208.28562 389.045429 
L 205.006281 389.079927 
L 201.726942 389.114425 
L 198.447603 389.148923 
L 195.168264 389.183422 
L 191.888926 389.21792 
L 188.609587 389.252418 
L 185.330248 389.286917 
L 182.050909 389.321415 
L 178.77157 389.355913 
L 175.492231 389.390411 
L 172.212893 389.42491 
L 168.933554 389.459408 
L 165.654215 389.493906 
L 162.374876 389.528404 
L 159.095537 389.562903 
L 155.816198 389.597401 
L 152.53686 389.631899 
L 149.257521 389.666397 
L 145.978182 389.700896 
L 142.698843 389.735394 
L 139.419504 389.769892 
L 136.140165 389.804391 
L 132.860826 389.838889 
L 129.581488 389.873387 
L 126.302149 389.907885 
L 123.02281 389.942384 
L 119.743471 389.976882 
L 116.464132 390.01138 
L 113.184793 390.045878 
L 109.905455 390.080377 
L 106.626116 390.114875 
L 103.346777 390.149373 
L 100.067438 390.183871 
L 96.788099 390.21837 
L 93.50876 390.252868 
L 90.229421 390.287366 
L 86.950083 390.321865 
L 83.670744 390.356363 
L 80.391405 390.390861 
L 77.112066 390.425359 
L 73.832727 390.459858 
z
" style="fill:#9467bd;"/>
   </g>
   <g id="PolyCollection_10">
    <path clip-path="url(#p1d39bed271)" d="M 73.832727 255.11879 
L 73.832727 390.459858 
L 77.112066 390.425359 
L 80.391405 390.390861 
L 83.670744 390.356363 
L 86.950083 390.321865 
L 90.229421 390.287366 
L 93.50876 390.252868 
L 96.788099 390.21837 
L 100.067438 390.183871 
L 103.346777 390.149373 
L 106.626116 390.114875 
L 109.905455 390.080377 
L 113.184793 390.045878 
L 116.464132 390.01138 
L 119.743471 389.976882 
L 123.02281 389.942384 
L 126.302149 389.907885 
L 129.581488 389.873387 
L 132.860826 389.838889 
L 136.140165 389.804391 
L 139.419504 389.769892 
L 142.698843 389.735394 
L 145.978182 389.700896 
L 149.257521 389.666397 
L 152.53686 389.631899 
L 155.816198 389.597401 
L 159.095537 389.562903 
L 162.374876 389.528404 
L 165.654215 389.493906 
L 168.933554 389.459408 
L 172.212893 389.42491 
L 175.492231 389.390411 
L 178.77157 389.355913 
L 182.050909 389.321415 
L 185.330248 389.286917 
L 188.609587 389.252418 
L 191.888926 389.21792 
L 195.168264 389.183422 
L 198.447603 389.148923 
L 201.726942 389.114425 
L 205.006281 389.079927 
L 208.28562 389.045429 
L 211.564959 389.01093 
L 214.844298 388.976432 
L 218.123636 388.941934 
L 221.402975 388.907436 
L 224.682314 388.872937 
L 227.961653 388.838439 
L 231.240992 388.803941 
L 234.520331 388.769443 
L 237.799669 388.734944 
L 241.079008 388.700446 
L 244.358347 388.665948 
L 247.637686 388.631449 
L 250.917025 388.596951 
L 254.196364 388.562453 
L 257.475702 388.527955 
L 260.755041 388.493456 
L 264.03438 388.458958 
L 267.313719 388.42446 
L 270.593058 388.389962 
L 273.872397 388.355463 
L 277.151736 388.320965 
L 280.431074 388.286467 
L 283.710413 388.251969 
L 286.989752 388.21747 
L 290.269091 388.182972 
L 293.54843 388.148474 
L 296.827769 388.113975 
L 300.107107 388.079477 
L 303.386446 388.044979 
L 306.665785 388.010481 
L 309.945124 387.975982 
L 313.224463 387.941484 
L 316.503802 387.906986 
L 319.78314 387.872488 
L 323.062479 387.837989 
L 326.341818 387.803491 
L 329.621157 387.768993 
L 332.900496 387.734495 
L 336.179835 387.699996 
L 339.459174 387.665498 
L 342.738512 387.631 
L 346.017851 387.596501 
L 349.29719 387.562003 
L 352.576529 387.527505 
L 355.855868 387.493007 
L 359.135207 387.458508 
L 362.414545 387.42401 
L 365.693884 387.389512 
L 368.973223 387.355014 
L 372.252562 387.320515 
L 375.531901 387.286017 
L 378.81124 387.251519 
L 382.090579 387.217021 
L 385.369917 387.182522 
L 388.649256 387.148024 
L 391.928595 387.113526 
L 395.207934 387.079028 
L 398.487273 387.044529 
L 398.487273 255.760871 
L 398.487273 255.760871 
L 395.207934 255.754385 
L 391.928595 255.747899 
L 388.649256 255.741414 
L 385.369917 255.734928 
L 382.090579 255.728442 
L 378.81124 255.721957 
L 375.531901 255.715471 
L 372.252562 255.708985 
L 368.973223 255.7025 
L 365.693884 255.696014 
L 362.414545 255.689528 
L 359.135207 255.683043 
L 355.855868 255.676557 
L 352.576529 255.670071 
L 349.29719 255.663586 
L 346.017851 255.6571 
L 342.738512 255.650614 
L 339.459174 255.644129 
L 336.179835 255.637643 
L 332.900496 255.631157 
L 329.621157 255.624672 
L 326.341818 255.618186 
L 323.062479 255.6117 
L 319.78314 255.605215 
L 316.503802 255.598729 
L 313.224463 255.592243 
L 309.945124 255.585758 
L 306.665785 255.579272 
L 303.386446 255.572786 
L 300.107107 255.566301 
L 296.827769 255.559815 
L 293.54843 255.553329 
L 290.269091 255.546844 
L 286.989752 255.540358 
L 283.710413 255.533872 
L 280.431074 255.527387 
L 277.151736 255.520901 
L 273.872397 255.514415 
L 270.593058 255.50793 
L 267.313719 255.501444 
L 264.03438 255.494958 
L 260.755041 255.488473 
L 257.475702 255.481987 
L 254.196364 255.475501 
L 250.917025 255.469016 
L 247.637686 255.46253 
L 244.358347 255.456044 
L 241.079008 255.449559 
L 237.799669 255.443073 
L 234.520331 255.436587 
L 231.240992 255.430102 
L 227.961653 255.423616 
L 224.682314 255.41713 
L 221.402975 255.410645 
L 218.123636 255.404159 
L 214.844298 255.397673 
L 211.564959 255.391188 
L 208.28562 255.384702 
L 205.006281 255.378216 
L 201.726942 255.371731 
L 198.447603 255.365245 
L 195.168264 255.35876 
L 191.888926 255.352274 
L 188.609587 255.345788 
L 185.330248 255.339303 
L 182.050909 255.332817 
L 178.77157 255.326331 
L 175.492231 255.319846 
L 172.212893 255.31336 
L 168.933554 255.306874 
L 165.654215 255.300389 
L 162.374876 255.293903 
L 159.095537 255.287417 
L 155.816198 255.280932 
L 152.53686 255.274446 
L 149.257521 255.26796 
L 145.978182 255.261475 
L 142.698843 255.254989 
L 139.419504 255.248503 
L 136.140165 255.242018 
L 132.860826 255.235532 
L 129.581488 255.229046 
L 126.302149 255.222561 
L 123.02281 255.216075 
L 119.743471 255.209589 
L 116.464132 255.203104 
L 113.184793 255.196618 
L 109.905455 255.190132 
L 106.626116 255.183647 
L 103.346777 255.177161 
L 100.067438 255.170675 
L 96.788099 255.16419 
L 93.50876 255.157704 
L 90.229421 255.151218 
L 86.950083 255.144733 
L 83.670744 255.138247 
L 80.391405 255.131761 
L 77.112066 255.125276 
L 73.832727 255.11879 
z
" style="fill:#c5b0d5;"/>
   </g>
   <g id="PolyCollection_11">
    <path clip-path="url(#p1d39bed271)" d="M 73.832727 106.032 
L 73.832727 255.11879 
L 77.112066 255.125276 
L 80.391405 255.131761 
L 83.670744 255.138247 
L 86.950083 255.144733 
L 90.229421 255.151218 
L 93.50876 255.157704 
L 96.788099 255.16419 
L 100.067438 255.170675 
L 103.346777 255.177161 
L 106.626116 255.183647 
L 109.905455 255.190132 
L 113.184793 255.196618 
L 116.464132 255.203104 
L 119.743471 255.209589 
L 123.02281 255.216075 
L 126.302149 255.222561 
L 129.581488 255.229046 
L 132.860826 255.235532 
L 136.140165 255.242018 
L 139.419504 255.248503 
L 142.698843 255.254989 
L 145.978182 255.261475 
L 149.257521 255.26796 
L 152.53686 255.274446 
L 155.816198 255.280932 
L 159.095537 255.287417 
L 162.374876 255.293903 
L 165.654215 255.300389 
L 168.933554 255.306874 
L 172.212893 255.31336 
L 175.492231 255.319846 
L 178.77157 255.326331 
L 182.050909 255.332817 
L 185.330248 255.339303 
L 188.609587 255.345788 
L 191.888926 255.352274 
L 195.168264 255.35876 
L 198.447603 255.365245 
L 201.726942 255.371731 
L 205.006281 255.378216 
L 208.28562 255.384702 
L 211.564959 255.391188 
L 214.844298 255.397673 
L 218.123636 255.404159 
L 221.402975 255.410645 
L 224.682314 255.41713 
L 227.961653 255.423616 
L 231.240992 255.430102 
L 234.520331 255.436587 
L 237.799669 255.443073 
L 241.079008 255.449559 
L 244.358347 255.456044 
L 247.637686 255.46253 
L 250.917025 255.469016 
L 254.196364 255.475501 
L 257.475702 255.481987 
L 260.755041 255.488473 
L 264.03438 255.494958 
L 267.313719 255.501444 
L 270.593058 255.50793 
L 273.872397 255.514415 
L 277.151736 255.520901 
L 280.431074 255.527387 
L 283.710413 255.533872 
L 286.989752 255.540358 
L 290.269091 255.546844 
L 293.54843 255.553329 
L 296.827769 255.559815 
L 300.107107 255.566301 
L 303.386446 255.572786 
L 306.665785 255.579272 
L 309.945124 255.585758 
L 313.224463 255.592243 
L 316.503802 255.598729 
L 319.78314 255.605215 
L 323.062479 255.6117 
L 326.341818 255.618186 
L 329.621157 255.624672 
L 332.900496 255.631157 
L 336.179835 255.637643 
L 339.459174 255.644129 
L 342.738512 255.650614 
L 346.017851 255.6571 
L 349.29719 255.663586 
L 352.576529 255.670071 
L 355.855868 255.676557 
L 359.135207 255.683043 
L 362.414545 255.689528 
L 365.693884 255.696014 
L 368.973223 255.7025 
L 372.252562 255.708985 
L 375.531901 255.715471 
L 378.81124 255.721957 
L 382.090579 255.728442 
L 385.369917 255.734928 
L 388.649256 255.741414 
L 391.928595 255.747899 
L 395.207934 255.754385 
L 398.487273 255.760871 
L 398.487273 106.032 
L 398.487273 106.032 
L 395.207934 106.032 
L 391.928595 106.032 
L 388.649256 106.032 
L 385.369917 106.032 
L 382.090579 106.032 
L 378.81124 106.032 
L 375.531901 106.032 
L 372.252562 106.032 
L 368.973223 106.032 
L 365.693884 106.032 
L 362.414545 106.032 
L 359.135207 106.032 
L 355.855868 106.032 
L 352.576529 106.032 
L 349.29719 106.032 
L 346.017851 106.032 
L 342.738512 106.032 
L 339.459174 106.032 
L 336.179835 106.032 
L 332.900496 106.032 
L 329.621157 106.032 
L 326.341818 106.032 
L 323.062479 106.032 
L 319.78314 106.032 
L 316.503802 106.032 
L 313.224463 106.032 
L 309.945124 106.032 
L 306.665785 106.032 
L 303.386446 106.032 
L 300.107107 106.032 
L 296.827769 106.032 
L 293.54843 106.032 
L 290.269091 106.032 
L 286.989752 106.032 
L 283.710413 106.032 
L 280.431074 106.032 
L 277.151736 106.032 
L 273.872397 106.032 
L 270.593058 106.032 
L 267.313719 106.032 
L 264.03438 106.032 
L 260.755041 106.032 
L 257.475702 106.032 
L 254.196364 106.032 
L 250.917025 106.032 
L 247.637686 106.032 
L 244.358347 106.032 
L 241.079008 106.032 
L 237.799669 106.032 
L 234.520331 106.032 
L 231.240992 106.032 
L 227.961653 106.032 
L 224.682314 106.032 
L 221.402975 106.032 
L 218.123636 106.032 
L 214.844298 106.032 
L 211.564959 106.032 
L 208.28562 106.032 
L 205.006281 106.032 
L 201.726942 106.032 
L 198.447603 106.032 
L 195.168264 106.032 
L 191.888926 106.032 
L 188.609587 106.032 
L 185.330248 106.032 
L 182.050909 106.032 
L 178.77157 106.032 
L 175.492231 106.032 
L 172.212893 106.032 
L 168.933554 106.032 
L 165.654215 106.032 
L 162.374876 106.032 
L 159.095537 106.032 
L 155.816198 106.032 
L 152.53686 106.032 
L 149.257521 106.032 
L 145.978182 106.032 
L 142.698843 106.032 
L 139.419504 106.032 
L 136.140165 106.032 
L 132.860826 106.032 
L 129.581488 106.032 
L 126.302149 106.032 
L 123.02281 106.032 
L 119.743471 106.032 
L 116.464132 106.032 
L 113.184793 106.032 
L 109.905455 106.032 
L 106.626116 106.032 
L 103.346777 106.032 
L 100.067438 106.032 
L 96.788099 106.032 
L 93.50876 106.032 
L 90.229421 106.032 
L 86.950083 106.032 
L 83.670744 106.032 
L 80.391405 106.032 
L 77.112066 106.032 
L 73.832727 106.032 
z
" style="fill:#8c564b;"/>
   </g>
   <g id="matplotlib.axis_1">
    <g id="xtick_1">
     <g id="line2d_1">
      <defs>
       <path d="M 0 0 
L 0 3.5 
" id="ma8abc0002a" style="stroke:#000000;stroke-width:0.8;"/>
      </defs>
      <g>
       <use style="stroke:#000000;stroke-width:0.8;" x="73.832727" xlink:href="#ma8abc0002a" y="602.352"/>
      </g>
     </g>
     <g id="text_1">
      <!-- 0 -->
      <g transform="translate(70.651477 616.950438)scale(0.1 -0.1)">
       <defs>
        <path d="M 2034 4250 
Q 1547 4250 1301 3770 
Q 1056 3291 1056 2328 
Q 1056 1369 1301 889 
Q 1547 409 2034 409 
Q 2525 409 2770 889 
Q 3016 1369 3016 2328 
Q 3016 3291 2770 3770 
Q 2525 4250 2034 4250 
z
M 2034 4750 
Q 2819 4750 3233 4129 
Q 3647 3509 3647 2328 
Q 3647 1150 3233 529 
Q 2819 -91 2034 -91 
Q 1250 -91 836 529 
Q 422 1150 422 2328 
Q 422 3509 836 4129 
Q 1250 4750 2034 4750 
z
" id="DejaVuSans-30" transform="scale(0.015625)"/>
       </defs>
       <use xlink:href="#DejaVuSans-30"/>
      </g>
     </g>
    </g>
    <g id="xtick_2">
     <g id="line2d_2">
      <g>
       <use style="stroke:#000000;stroke-width:0.8;" x="138.763636" xlink:href="#ma8abc0002a" y="602.352"/>
      </g>
     </g>
     <g id="text_2">
      <!-- 20 -->
      <g transform="translate(132.401136 616.950438)scale(0.1 -0.1)">
       <defs>
        <path d="M 1228 531 
L 3431 531 
L 3431 0 
L 469 0 
L 469 531 
Q 828 903 1448 1529 
Q 2069 2156 2228 2338 
Q 2531 2678 2651 2914 
Q 2772 3150 2772 3378 
Q 2772 3750 2511 3984 
Q 2250 4219 1831 4219 
Q 1534 4219 1204 4116 
Q 875 4013 500 3803 
L 500 4441 
Q 881 4594 1212 4672 
Q 1544 4750 1819 4750 
Q 2544 4750 2975 4387 
Q 3406 4025 3406 3419 
Q 3406 3131 3298 2873 
Q 3191 2616 2906 2266 
Q 2828 2175 2409 1742 
Q 1991 1309 1228 531 
z
" id="DejaVuSans-32" transform="scale(0.015625)"/>
       </defs>
       <use xlink:href="#DejaVuSans-32"/>
       <use x="63.623047" xlink:href="#DejaVuSans-30"/>
      </g>
     </g>
    </g>
    <g id="xtick_3">
     <g id="line2d_3">
      <g>
       <use style="stroke:#000000;stroke-width:0.8;" x="203.694545" xlink:href="#ma8abc0002a" y="602.352"/>
      </g>
     </g>
     <g id="text_3">
      <!-- 40 -->
      <g transform="translate(197.332045 616.950438)scale(0.1 -0.1)">
       <defs>
        <path d="M 2419 4116 
L 825 1625 
L 2419 1625 
L 2419 4116 
z
M 2253 4666 
L 3047 4666 
L 3047 1625 
L 3713 1625 
L 3713 1100 
L 3047 1100 
L 3047 0 
L 2419 0 
L 2419 1100 
L 313 1100 
L 313 1709 
L 2253 4666 
z
" id="DejaVuSans-34" transform="scale(0.015625)"/>
       </defs>
       <use xlink:href="#DejaVuSans-34"/>
       <use x="63.623047" xlink:href="#DejaVuSans-30"/>
      </g>
     </g>
    </g>
    <g id="xtick_4">
     <g id="line2d_4">
      <g>
       <use style="stroke:#000000;stroke-width:0.8;" x="268.625455" xlink:href="#ma8abc0002a" y="602.352"/>
      </g>
     </g>
     <g id="text_4">
      <!-- 60 -->
      <g transform="translate(262.262955 616.950438)scale(0.1 -0.1)">
       <defs>
        <path d="M 2113 2584 
Q 1688 2584 1439 2293 
Q 1191 2003 1191 1497 
Q 1191 994 1439 701 
Q 1688 409 2113 409 
Q 2538 409 2786 701 
Q 3034 994 3034 1497 
Q 3034 2003 2786 2293 
Q 2538 2584 2113 2584 
z
M 3366 4563 
L 3366 3988 
Q 3128 4100 2886 4159 
Q 2644 4219 2406 4219 
Q 1781 4219 1451 3797 
Q 1122 3375 1075 2522 
Q 1259 2794 1537 2939 
Q 1816 3084 2150 3084 
Q 2853 3084 3261 2657 
Q 3669 2231 3669 1497 
Q 3669 778 3244 343 
Q 2819 -91 2113 -91 
Q 1303 -91 875 529 
Q 447 1150 447 2328 
Q 447 3434 972 4092 
Q 1497 4750 2381 4750 
Q 2619 4750 2861 4703 
Q 3103 4656 3366 4563 
z
" id="DejaVuSans-36" transform="scale(0.015625)"/>
       </defs>
       <use xlink:href="#DejaVuSans-36"/>
       <use x="63.623047" xlink:href="#DejaVuSans-30"/>
      </g>
     </g>
    </g>
    <g id="xtick_5">
     <g id="line2d_5">
      <g>
       <use style="stroke:#000000;stroke-width:0.8;" x="333.556364" xlink:href="#ma8abc0002a" y="602.352"/>
      </g>
     </g>
     <g id="text_5">
      <!-- 80 -->
      <g transform="translate(327.193864 616.950438)scale(0.1 -0.1)">
       <defs>
        <path d="M 2034 2216 
Q 1584 2216 1326 1975 
Q 1069 1734 1069 1313 
Q 1069 891 1326 650 
Q 1584 409 2034 409 
Q 2484 409 2743 651 
Q 3003 894 3003 1313 
Q 3003 1734 2745 1975 
Q 2488 2216 2034 2216 
z
M 1403 2484 
Q 997 2584 770 2862 
Q 544 3141 544 3541 
Q 544 4100 942 4425 
Q 1341 4750 2034 4750 
Q 2731 4750 3128 4425 
Q 3525 4100 3525 3541 
Q 3525 3141 3298 2862 
Q 3072 2584 2669 2484 
Q 3125 2378 3379 2068 
Q 3634 1759 3634 1313 
Q 3634 634 3220 271 
Q 2806 -91 2034 -91 
Q 1263 -91 848 271 
Q 434 634 434 1313 
Q 434 1759 690 2068 
Q 947 2378 1403 2484 
z
M 1172 3481 
Q 1172 3119 1398 2916 
Q 1625 2713 2034 2713 
Q 2441 2713 2670 2916 
Q 2900 3119 2900 3481 
Q 2900 3844 2670 4047 
Q 2441 4250 2034 4250 
Q 1625 4250 1398 4047 
Q 1172 3844 1172 3481 
z
" id="DejaVuSans-38" transform="scale(0.015625)"/>
       </defs>
       <use xlink:href="#DejaVuSans-38"/>
       <use x="63.623047" xlink:href="#DejaVuSans-30"/>
      </g>
     </g>
    </g>
    <g id="xtick_6">
     <g id="line2d_6">
      <g>
       <use style="stroke:#000000;stroke-width:0.8;" x="398.487273" xlink:href="#ma8abc0002a" y="602.352"/>
      </g>
     </g>
     <g id="text_6">
      <!-- 100 -->
      <g transform="translate(388.943523 616.950438)scale(0.1 -0.1)">
       <defs>
        <path d="M 794 531 
L 1825 531 
L 1825 4091 
L 703 3866 
L 703 4441 
L 1819 4666 
L 2450 4666 
L 2450 531 
L 3481 531 
L 3481 0 
L 794 0 
L 794 531 
z
" id="DejaVuSans-31" transform="scale(0.015625)"/>
       </defs>
       <use xlink:href="#DejaVuSans-31"/>
       <use x="63.623047" xlink:href="#DejaVuSans-30"/>
       <use x="127.246094" xlink:href="#DejaVuSans-30"/>
      </g>
     </g>
    </g>
    <g id="text_7">
     <!-- Proportion of New Technology in Grid -->
     <g transform="translate(143.633437 630.628563)scale(0.1 -0.1)">
      <defs>
       <path d="M 1259 4147 
L 1259 2394 
L 2053 2394 
Q 2494 2394 2734 2622 
Q 2975 2850 2975 3272 
Q 2975 3691 2734 3919 
Q 2494 4147 2053 4147 
L 1259 4147 
z
M 628 4666 
L 2053 4666 
Q 2838 4666 3239 4311 
Q 3641 3956 3641 3272 
Q 3641 2581 3239 2228 
Q 2838 1875 2053 1875 
L 1259 1875 
L 1259 0 
L 628 0 
L 628 4666 
z
" id="DejaVuSans-50" transform="scale(0.015625)"/>
       <path d="M 2631 2963 
Q 2534 3019 2420 3045 
Q 2306 3072 2169 3072 
Q 1681 3072 1420 2755 
Q 1159 2438 1159 1844 
L 1159 0 
L 581 0 
L 581 3500 
L 1159 3500 
L 1159 2956 
Q 1341 3275 1631 3429 
Q 1922 3584 2338 3584 
Q 2397 3584 2469 3576 
Q 2541 3569 2628 3553 
L 2631 2963 
z
" id="DejaVuSans-72" transform="scale(0.015625)"/>
       <path d="M 1959 3097 
Q 1497 3097 1228 2736 
Q 959 2375 959 1747 
Q 959 1119 1226 758 
Q 1494 397 1959 397 
Q 2419 397 2687 759 
Q 2956 1122 2956 1747 
Q 2956 2369 2687 2733 
Q 2419 3097 1959 3097 
z
M 1959 3584 
Q 2709 3584 3137 3096 
Q 3566 2609 3566 1747 
Q 3566 888 3137 398 
Q 2709 -91 1959 -91 
Q 1206 -91 779 398 
Q 353 888 353 1747 
Q 353 2609 779 3096 
Q 1206 3584 1959 3584 
z
" id="DejaVuSans-6f" transform="scale(0.015625)"/>
       <path d="M 1159 525 
L 1159 -1331 
L 581 -1331 
L 581 3500 
L 1159 3500 
L 1159 2969 
Q 1341 3281 1617 3432 
Q 1894 3584 2278 3584 
Q 2916 3584 3314 3078 
Q 3713 2572 3713 1747 
Q 3713 922 3314 415 
Q 2916 -91 2278 -91 
Q 1894 -91 1617 61 
Q 1341 213 1159 525 
z
M 3116 1747 
Q 3116 2381 2855 2742 
Q 2594 3103 2138 3103 
Q 1681 3103 1420 2742 
Q 1159 2381 1159 1747 
Q 1159 1113 1420 752 
Q 1681 391 2138 391 
Q 2594 391 2855 752 
Q 3116 1113 3116 1747 
z
" id="DejaVuSans-70" transform="scale(0.015625)"/>
       <path d="M 1172 4494 
L 1172 3500 
L 2356 3500 
L 2356 3053 
L 1172 3053 
L 1172 1153 
Q 1172 725 1289 603 
Q 1406 481 1766 481 
L 2356 481 
L 2356 0 
L 1766 0 
Q 1100 0 847 248 
Q 594 497 594 1153 
L 594 3053 
L 172 3053 
L 172 3500 
L 594 3500 
L 594 4494 
L 1172 4494 
z
" id="DejaVuSans-74" transform="scale(0.015625)"/>
       <path d="M 603 3500 
L 1178 3500 
L 1178 0 
L 603 0 
L 603 3500 
z
M 603 4863 
L 1178 4863 
L 1178 4134 
L 603 4134 
L 603 4863 
z
" id="DejaVuSans-69" transform="scale(0.015625)"/>
       <path d="M 3513 2113 
L 3513 0 
L 2938 0 
L 2938 2094 
Q 2938 2591 2744 2837 
Q 2550 3084 2163 3084 
Q 1697 3084 1428 2787 
Q 1159 2491 1159 1978 
L 1159 0 
L 581 0 
L 581 3500 
L 1159 3500 
L 1159 2956 
Q 1366 3272 1645 3428 
Q 1925 3584 2291 3584 
Q 2894 3584 3203 3211 
Q 3513 2838 3513 2113 
z
" id="DejaVuSans-6e" transform="scale(0.015625)"/>
       <path id="DejaVuSans-20" transform="scale(0.015625)"/>
       <path d="M 2375 4863 
L 2375 4384 
L 1825 4384 
Q 1516 4384 1395 4259 
Q 1275 4134 1275 3809 
L 1275 3500 
L 2222 3500 
L 2222 3053 
L 1275 3053 
L 1275 0 
L 697 0 
L 697 3053 
L 147 3053 
L 147 3500 
L 697 3500 
L 697 3744 
Q 697 4328 969 4595 
Q 1241 4863 1831 4863 
L 2375 4863 
z
" id="DejaVuSans-66" transform="scale(0.015625)"/>
       <path d="M 628 4666 
L 1478 4666 
L 3547 763 
L 3547 4666 
L 4159 4666 
L 4159 0 
L 3309 0 
L 1241 3903 
L 1241 0 
L 628 0 
L 628 4666 
z
" id="DejaVuSans-4e" transform="scale(0.015625)"/>
       <path d="M 3597 1894 
L 3597 1613 
L 953 1613 
Q 991 1019 1311 708 
Q 1631 397 2203 397 
Q 2534 397 2845 478 
Q 3156 559 3463 722 
L 3463 178 
Q 3153 47 2828 -22 
Q 2503 -91 2169 -91 
Q 1331 -91 842 396 
Q 353 884 353 1716 
Q 353 2575 817 3079 
Q 1281 3584 2069 3584 
Q 2775 3584 3186 3129 
Q 3597 2675 3597 1894 
z
M 3022 2063 
Q 3016 2534 2758 2815 
Q 2500 3097 2075 3097 
Q 1594 3097 1305 2825 
Q 1016 2553 972 2059 
L 3022 2063 
z
" id="DejaVuSans-65" transform="scale(0.015625)"/>
       <path d="M 269 3500 
L 844 3500 
L 1563 769 
L 2278 3500 
L 2956 3500 
L 3675 769 
L 4391 3500 
L 4966 3500 
L 4050 0 
L 3372 0 
L 2619 2869 
L 1863 0 
L 1184 0 
L 269 3500 
z
" id="DejaVuSans-77" transform="scale(0.015625)"/>
       <path d="M -19 4666 
L 3928 4666 
L 3928 4134 
L 2272 4134 
L 2272 0 
L 1638 0 
L 1638 4134 
L -19 4134 
L -19 4666 
z
" id="DejaVuSans-54" transform="scale(0.015625)"/>
       <path d="M 3122 3366 
L 3122 2828 
Q 2878 2963 2633 3030 
Q 2388 3097 2138 3097 
Q 1578 3097 1268 2742 
Q 959 2388 959 1747 
Q 959 1106 1268 751 
Q 1578 397 2138 397 
Q 2388 397 2633 464 
Q 2878 531 3122 666 
L 3122 134 
Q 2881 22 2623 -34 
Q 2366 -91 2075 -91 
Q 1284 -91 818 406 
Q 353 903 353 1747 
Q 353 2603 823 3093 
Q 1294 3584 2113 3584 
Q 2378 3584 2631 3529 
Q 2884 3475 3122 3366 
z
" id="DejaVuSans-63" transform="scale(0.015625)"/>
       <path d="M 3513 2113 
L 3513 0 
L 2938 0 
L 2938 2094 
Q 2938 2591 2744 2837 
Q 2550 3084 2163 3084 
Q 1697 3084 1428 2787 
Q 1159 2491 1159 1978 
L 1159 0 
L 581 0 
L 581 4863 
L 1159 4863 
L 1159 2956 
Q 1366 3272 1645 3428 
Q 1925 3584 2291 3584 
Q 2894 3584 3203 3211 
Q 3513 2838 3513 2113 
z
" id="DejaVuSans-68" transform="scale(0.015625)"/>
       <path d="M 603 4863 
L 1178 4863 
L 1178 0 
L 603 0 
L 603 4863 
z
" id="DejaVuSans-6c" transform="scale(0.015625)"/>
       <path d="M 2906 1791 
Q 2906 2416 2648 2759 
Q 2391 3103 1925 3103 
Q 1463 3103 1205 2759 
Q 947 2416 947 1791 
Q 947 1169 1205 825 
Q 1463 481 1925 481 
Q 2391 481 2648 825 
Q 2906 1169 2906 1791 
z
M 3481 434 
Q 3481 -459 3084 -895 
Q 2688 -1331 1869 -1331 
Q 1566 -1331 1297 -1286 
Q 1028 -1241 775 -1147 
L 775 -588 
Q 1028 -725 1275 -790 
Q 1522 -856 1778 -856 
Q 2344 -856 2625 -561 
Q 2906 -266 2906 331 
L 2906 616 
Q 2728 306 2450 153 
Q 2172 0 1784 0 
Q 1141 0 747 490 
Q 353 981 353 1791 
Q 353 2603 747 3093 
Q 1141 3584 1784 3584 
Q 2172 3584 2450 3431 
Q 2728 3278 2906 2969 
L 2906 3500 
L 3481 3500 
L 3481 434 
z
" id="DejaVuSans-67" transform="scale(0.015625)"/>
       <path d="M 2059 -325 
Q 1816 -950 1584 -1140 
Q 1353 -1331 966 -1331 
L 506 -1331 
L 506 -850 
L 844 -850 
Q 1081 -850 1212 -737 
Q 1344 -625 1503 -206 
L 1606 56 
L 191 3500 
L 800 3500 
L 1894 763 
L 2988 3500 
L 3597 3500 
L 2059 -325 
z
" id="DejaVuSans-79" transform="scale(0.015625)"/>
       <path d="M 3809 666 
L 3809 1919 
L 2778 1919 
L 2778 2438 
L 4434 2438 
L 4434 434 
Q 4069 175 3628 42 
Q 3188 -91 2688 -91 
Q 1594 -91 976 548 
Q 359 1188 359 2328 
Q 359 3472 976 4111 
Q 1594 4750 2688 4750 
Q 3144 4750 3555 4637 
Q 3966 4525 4313 4306 
L 4313 3634 
Q 3963 3931 3569 4081 
Q 3175 4231 2741 4231 
Q 1884 4231 1454 3753 
Q 1025 3275 1025 2328 
Q 1025 1384 1454 906 
Q 1884 428 2741 428 
Q 3075 428 3337 486 
Q 3600 544 3809 666 
z
" id="DejaVuSans-47" transform="scale(0.015625)"/>
       <path d="M 2906 2969 
L 2906 4863 
L 3481 4863 
L 3481 0 
L 2906 0 
L 2906 525 
Q 2725 213 2448 61 
Q 2172 -91 1784 -91 
Q 1150 -91 751 415 
Q 353 922 353 1747 
Q 353 2572 751 3078 
Q 1150 3584 1784 3584 
Q 2172 3584 2448 3432 
Q 2725 3281 2906 2969 
z
M 947 1747 
Q 947 1113 1208 752 
Q 1469 391 1925 391 
Q 2381 391 2643 752 
Q 2906 1113 2906 1747 
Q 2906 2381 2643 2742 
Q 2381 3103 1925 3103 
Q 1469 3103 1208 2742 
Q 947 2381 947 1747 
z
" id="DejaVuSans-64" transform="scale(0.015625)"/>
      </defs>
      <use xlink:href="#DejaVuSans-50"/>
      <use x="58.552734" xlink:href="#DejaVuSans-72"/>
      <use x="97.416016" xlink:href="#DejaVuSans-6f"/>
      <use x="158.597656" xlink:href="#DejaVuSans-70"/>
      <use x="222.074219" xlink:href="#DejaVuSans-6f"/>
      <use x="283.255859" xlink:href="#DejaVuSans-72"/>
      <use x="324.369141" xlink:href="#DejaVuSans-74"/>
      <use x="363.578125" xlink:href="#DejaVuSans-69"/>
      <use x="391.361328" xlink:href="#DejaVuSans-6f"/>
      <use x="452.542969" xlink:href="#DejaVuSans-6e"/>
      <use x="515.921875" xlink:href="#DejaVuSans-20"/>
      <use x="547.708984" xlink:href="#DejaVuSans-6f"/>
      <use x="608.890625" xlink:href="#DejaVuSans-66"/>
      <use x="644.095703" xlink:href="#DejaVuSans-20"/>
      <use x="675.882812" xlink:href="#DejaVuSans-4e"/>
      <use x="750.6875" xlink:href="#DejaVuSans-65"/>
      <use x="812.210938" xlink:href="#DejaVuSans-77"/>
      <use x="893.998047" xlink:href="#DejaVuSans-20"/>
      <use x="925.785156" xlink:href="#DejaVuSans-54"/>
      <use x="969.869141" xlink:href="#DejaVuSans-65"/>
      <use x="1031.392578" xlink:href="#DejaVuSans-63"/>
      <use x="1086.373047" xlink:href="#DejaVuSans-68"/>
      <use x="1149.751953" xlink:href="#DejaVuSans-6e"/>
      <use x="1213.130859" xlink:href="#DejaVuSans-6f"/>
      <use x="1274.3125" xlink:href="#DejaVuSans-6c"/>
      <use x="1302.095703" xlink:href="#DejaVuSans-6f"/>
      <use x="1363.277344" xlink:href="#DejaVuSans-67"/>
      <use x="1426.753906" xlink:href="#DejaVuSans-79"/>
      <use x="1485.933594" xlink:href="#DejaVuSans-20"/>
      <use x="1517.720703" xlink:href="#DejaVuSans-69"/>
      <use x="1545.503906" xlink:href="#DejaVuSans-6e"/>
      <use x="1608.882812" xlink:href="#DejaVuSans-20"/>
      <use x="1640.669922" xlink:href="#DejaVuSans-47"/>
      <use x="1718.160156" xlink:href="#DejaVuSans-72"/>
      <use x="1759.273438" xlink:href="#DejaVuSans-69"/>
      <use x="1787.056641" xlink:href="#DejaVuSans-64"/>
     </g>
    </g>
   </g>
   <g id="matplotlib.axis_2">
    <g id="ytick_1">
     <g id="line2d_7">
      <defs>
       <path d="M 0 0 
L -3.5 0 
" id="m96a513c81a" style="stroke:#000000;stroke-width:0.8;"/>
      </defs>
      <g>
       <use style="stroke:#000000;stroke-width:0.8;" x="57.6" xlink:href="#m96a513c81a" y="602.352"/>
      </g>
     </g>
     <g id="text_8">
      <!-- 0 -->
      <g transform="translate(44.2375 606.151219)scale(0.1 -0.1)">
       <use xlink:href="#DejaVuSans-30"/>
      </g>
     </g>
    </g>
    <g id="ytick_2">
     <g id="line2d_8">
      <g>
       <use style="stroke:#000000;stroke-width:0.8;" x="57.6" xlink:href="#m96a513c81a" y="512.922733"/>
      </g>
     </g>
     <g id="text_9">
      <!-- 50 -->
      <g transform="translate(37.875 516.721952)scale(0.1 -0.1)">
       <defs>
        <path d="M 691 4666 
L 3169 4666 
L 3169 4134 
L 1269 4134 
L 1269 2991 
Q 1406 3038 1543 3061 
Q 1681 3084 1819 3084 
Q 2600 3084 3056 2656 
Q 3513 2228 3513 1497 
Q 3513 744 3044 326 
Q 2575 -91 1722 -91 
Q 1428 -91 1123 -41 
Q 819 9 494 109 
L 494 744 
Q 775 591 1075 516 
Q 1375 441 1709 441 
Q 2250 441 2565 725 
Q 2881 1009 2881 1497 
Q 2881 1984 2565 2268 
Q 2250 2553 1709 2553 
Q 1456 2553 1204 2497 
Q 953 2441 691 2322 
L 691 4666 
z
" id="DejaVuSans-35" transform="scale(0.015625)"/>
       </defs>
       <use xlink:href="#DejaVuSans-35"/>
       <use x="63.623047" xlink:href="#DejaVuSans-30"/>
      </g>
     </g>
    </g>
    <g id="ytick_3">
     <g id="line2d_9">
      <g>
       <use style="stroke:#000000;stroke-width:0.8;" x="57.6" xlink:href="#m96a513c81a" y="423.493466"/>
      </g>
     </g>
     <g id="text_10">
      <!-- 100 -->
      <g transform="translate(31.5125 427.292685)scale(0.1 -0.1)">
       <use xlink:href="#DejaVuSans-31"/>
       <use x="63.623047" xlink:href="#DejaVuSans-30"/>
       <use x="127.246094" xlink:href="#DejaVuSans-30"/>
      </g>
     </g>
    </g>
    <g id="ytick_4">
     <g id="line2d_10">
      <g>
       <use style="stroke:#000000;stroke-width:0.8;" x="57.6" xlink:href="#m96a513c81a" y="334.064199"/>
      </g>
     </g>
     <g id="text_11">
      <!-- 150 -->
      <g transform="translate(31.5125 337.863418)scale(0.1 -0.1)">
       <use xlink:href="#DejaVuSans-31"/>
       <use x="63.623047" xlink:href="#DejaVuSans-35"/>
       <use x="127.246094" xlink:href="#DejaVuSans-30"/>
      </g>
     </g>
    </g>
    <g id="ytick_5">
     <g id="line2d_11">
      <g>
       <use style="stroke:#000000;stroke-width:0.8;" x="57.6" xlink:href="#m96a513c81a" y="244.634932"/>
      </g>
     </g>
     <g id="text_12">
      <!-- 200 -->
      <g transform="translate(31.5125 248.434151)scale(0.1 -0.1)">
       <use xlink:href="#DejaVuSans-32"/>
       <use x="63.623047" xlink:href="#DejaVuSans-30"/>
       <use x="127.246094" xlink:href="#DejaVuSans-30"/>
      </g>
     </g>
    </g>
    <g id="ytick_6">
     <g id="line2d_12">
      <g>
       <use style="stroke:#000000;stroke-width:0.8;" x="57.6" xlink:href="#m96a513c81a" y="155.205665"/>
      </g>
     </g>
     <g id="text_13">
      <!-- 250 -->
      <g transform="translate(31.5125 159.004884)scale(0.1 -0.1)">
       <use xlink:href="#DejaVuSans-32"/>
       <use x="63.623047" xlink:href="#DejaVuSans-35"/>
       <use x="127.246094" xlink:href="#DejaVuSans-30"/>
      </g>
     </g>
    </g>
    <g id="text_14">
     <!-- Total Energy Generated (TWh) -->
     <g transform="translate(25.432812 417.328531)rotate(-90)scale(0.1 -0.1)">
      <defs>
       <path d="M 2194 1759 
Q 1497 1759 1228 1600 
Q 959 1441 959 1056 
Q 959 750 1161 570 
Q 1363 391 1709 391 
Q 2188 391 2477 730 
Q 2766 1069 2766 1631 
L 2766 1759 
L 2194 1759 
z
M 3341 1997 
L 3341 0 
L 2766 0 
L 2766 531 
Q 2569 213 2275 61 
Q 1981 -91 1556 -91 
Q 1019 -91 701 211 
Q 384 513 384 1019 
Q 384 1609 779 1909 
Q 1175 2209 1959 2209 
L 2766 2209 
L 2766 2266 
Q 2766 2663 2505 2880 
Q 2244 3097 1772 3097 
Q 1472 3097 1187 3025 
Q 903 2953 641 2809 
L 641 3341 
Q 956 3463 1253 3523 
Q 1550 3584 1831 3584 
Q 2591 3584 2966 3190 
Q 3341 2797 3341 1997 
z
" id="DejaVuSans-61" transform="scale(0.015625)"/>
       <path d="M 628 4666 
L 3578 4666 
L 3578 4134 
L 1259 4134 
L 1259 2753 
L 3481 2753 
L 3481 2222 
L 1259 2222 
L 1259 531 
L 3634 531 
L 3634 0 
L 628 0 
L 628 4666 
z
" id="DejaVuSans-45" transform="scale(0.015625)"/>
       <path d="M 1984 4856 
Q 1566 4138 1362 3434 
Q 1159 2731 1159 2009 
Q 1159 1288 1364 580 
Q 1569 -128 1984 -844 
L 1484 -844 
Q 1016 -109 783 600 
Q 550 1309 550 2009 
Q 550 2706 781 3412 
Q 1013 4119 1484 4856 
L 1984 4856 
z
" id="DejaVuSans-28" transform="scale(0.015625)"/>
       <path d="M 213 4666 
L 850 4666 
L 1831 722 
L 2809 4666 
L 3519 4666 
L 4500 722 
L 5478 4666 
L 6119 4666 
L 4947 0 
L 4153 0 
L 3169 4050 
L 2175 0 
L 1381 0 
L 213 4666 
z
" id="DejaVuSans-57" transform="scale(0.015625)"/>
       <path d="M 513 4856 
L 1013 4856 
Q 1481 4119 1714 3412 
Q 1947 2706 1947 2009 
Q 1947 1309 1714 600 
Q 1481 -109 1013 -844 
L 513 -844 
Q 928 -128 1133 580 
Q 1338 1288 1338 2009 
Q 1338 2731 1133 3434 
Q 928 4138 513 4856 
z
" id="DejaVuSans-29" transform="scale(0.015625)"/>
      </defs>
      <use xlink:href="#DejaVuSans-54"/>
      <use x="44.083984" xlink:href="#DejaVuSans-6f"/>
      <use x="105.265625" xlink:href="#DejaVuSans-74"/>
      <use x="144.474609" xlink:href="#DejaVuSans-61"/>
      <use x="205.753906" xlink:href="#DejaVuSans-6c"/>
      <use x="233.537109" xlink:href="#DejaVuSans-20"/>
      <use x="265.324219" xlink:href="#DejaVuSans-45"/>
      <use x="328.507812" xlink:href="#DejaVuSans-6e"/>
      <use x="391.886719" xlink:href="#DejaVuSans-65"/>
      <use x="453.410156" xlink:href="#DejaVuSans-72"/>
      <use x="492.773438" xlink:href="#DejaVuSans-67"/>
      <use x="556.25" xlink:href="#DejaVuSans-79"/>
      <use x="615.429688" xlink:href="#DejaVuSans-20"/>
      <use x="647.216797" xlink:href="#DejaVuSans-47"/>
      <use x="724.707031" xlink:href="#DejaVuSans-65"/>
      <use x="786.230469" xlink:href="#DejaVuSans-6e"/>
      <use x="849.609375" xlink:href="#DejaVuSans-65"/>
      <use x="911.132812" xlink:href="#DejaVuSans-72"/>
      <use x="952.246094" xlink:href="#DejaVuSans-61"/>
      <use x="1013.525391" xlink:href="#DejaVuSans-74"/>
      <use x="1052.734375" xlink:href="#DejaVuSans-65"/>
      <use x="1114.257812" xlink:href="#DejaVuSans-64"/>
      <use x="1177.734375" xlink:href="#DejaVuSans-20"/>
      <use x="1209.521484" xlink:href="#DejaVuSans-28"/>
      <use x="1248.535156" xlink:href="#DejaVuSans-54"/>
      <use x="1309.619141" xlink:href="#DejaVuSans-57"/>
      <use x="1408.496094" xlink:href="#DejaVuSans-68"/>
      <use x="1471.875" xlink:href="#DejaVuSans-29"/>
     </g>
    </g>
   </g>
   <g id="patch_3">
    <path d="M 57.6 602.352 
L 57.6 81.216 
" style="fill:none;stroke:#000000;stroke-linecap:square;stroke-linejoin:miter;stroke-width:0.8;"/>
   </g>
   <g id="patch_4">
    <path d="M 414.72 602.352 
L 414.72 81.216 
" style="fill:none;stroke:#000000;stroke-linecap:square;stroke-linejoin:miter;stroke-width:0.8;"/>
   </g>
   <g id="patch_5">
    <path d="M 57.6 602.352 
L 414.72 602.352 
" style="fill:none;stroke:#000000;stroke-linecap:square;stroke-linejoin:miter;stroke-width:0.8;"/>
   </g>
   <g id="patch_6">
    <path d="M 57.6 81.216 
L 414.72 81.216 
" style="fill:none;stroke:#000000;stroke-linecap:square;stroke-linejoin:miter;stroke-width:0.8;"/>
   </g>
  </g>
 </g>
 <defs>
  <clipPath id="p1d39bed271">
   <rect height="521.136" width="357.12" x="57.6" y="81.216"/>
  </clipPath>
 </defs>
</svg>
