<?xml version="1.0" encoding="utf-8" standalone="no"?>
<!DOCTYPE svg PUBLIC "-//W3C//DTD SVG 1.1//EN"
  "http://www.w3.org/Graphics/SVG/1.1/DTD/svg11.dtd">
<svg height="432pt" version="1.1" viewBox="0 0 288 432" width="288pt" xmlns="http://www.w3.org/2000/svg" xmlns:xlink="http://www.w3.org/1999/xlink">
 <metadata>
  <rdf:RDF xmlns:cc="http://creativecommons.org/ns#" xmlns:dc="http://purl.org/dc/elements/1.1/" xmlns:rdf="http://www.w3.org/1999/02/22-rdf-syntax-ns#">
   <cc:Work>
    <dc:type rdf:resource="http://purl.org/dc/dcmitype/StillImage"/>
    <dc:date>2022-02-16T12:45:13.749761</dc:date>
    <dc:format>image/svg+xml</dc:format>
    <dc:creator>
     <cc:Agent>
      <dc:title>Matplotlib v3.4.1, https://matplotlib.org/</dc:title>
     </cc:Agent>
    </dc:creator>
   </cc:Work>
  </rdf:RDF>
 </metadata>
 <defs>
  <style type="text/css">*{stroke-linecap:butt;stroke-linejoin:round;}</style>
 </defs>
 <g id="figure_1">
  <g id="patch_1">
   <path d="M 0 432 
L 288 432 
L 288 0 
L 0 0 
z
" style="fill:#ffffff;"/>
  </g>
  <g id="axes_1">
   <g id="patch_2">
    <path d="M 45.56 389.992 
L 269.265 389.992 
L 269.265 10.8 
L 45.56 10.8 
z
" style="fill:#ffffff;"/>
   </g>
   <g id="PolyCollection_1">
    <path clip-path="url(#p7a8ca165d9)" d="M 45.56 389.992 
L 45.56 389.992 
L 47.819646 389.992 
L 50.079293 389.992 
L 52.338939 389.992 
L 54.598586 389.992 
L 56.858232 389.992 
L 59.117879 389.992 
L 61.377525 389.992 
L 63.637172 389.992 
L 65.896818 389.992 
L 68.156465 389.992 
L 70.416111 389.992 
L 72.675758 389.992 
L 74.935404 389.992 
L 77.195051 389.992 
L 79.454697 389.992 
L 81.714343 389.992 
L 83.97399 389.992 
L 86.233636 389.992 
L 88.493283 389.992 
L 90.752929 389.992 
L 93.012576 389.992 
L 95.272222 389.992 
L 97.531869 389.992 
L 99.791515 389.992 
L 102.051162 389.992 
L 104.310808 389.992 
L 106.570455 389.992 
L 108.830101 389.992 
L 111.089747 389.992 
L 113.349394 389.992 
L 115.60904 389.992 
L 117.868687 389.992 
L 120.128333 389.992 
L 122.38798 389.992 
L 124.647626 389.992 
L 126.907273 389.992 
L 129.166919 389.992 
L 131.426566 389.992 
L 133.686212 389.992 
L 135.945859 389.992 
L 138.205505 389.992 
L 140.465152 389.992 
L 142.724798 389.992 
L 144.984444 389.992 
L 147.244091 389.992 
L 149.503737 389.992 
L 151.763384 389.992 
L 154.02303 389.992 
L 156.282677 389.992 
L 158.542323 389.992 
L 160.80197 389.992 
L 163.061616 389.992 
L 165.321263 389.992 
L 167.580909 389.992 
L 169.840556 389.992 
L 172.100202 389.992 
L 174.359848 389.992 
L 176.619495 389.992 
L 178.879141 389.992 
L 181.138788 389.992 
L 183.398434 389.992 
L 185.658081 389.992 
L 187.917727 389.992 
L 190.177374 389.992 
L 192.43702 389.992 
L 194.696667 389.992 
L 196.956313 389.992 
L 199.21596 389.992 
L 201.475606 389.992 
L 203.735253 389.992 
L 205.994899 389.992 
L 208.254545 389.992 
L 210.514192 389.992 
L 212.773838 389.992 
L 215.033485 389.992 
L 217.293131 389.992 
L 219.552778 389.992 
L 221.812424 389.992 
L 224.072071 389.992 
L 226.331717 389.992 
L 228.591364 389.992 
L 230.85101 389.992 
L 233.110657 389.992 
L 235.370303 389.992 
L 237.629949 389.992 
L 239.889596 389.992 
L 242.149242 389.992 
L 244.408889 389.992 
L 246.668535 389.992 
L 248.928182 389.992 
L 251.187828 389.992 
L 253.447475 389.992 
L 255.707121 389.992 
L 257.966768 389.992 
L 260.226414 389.992 
L 262.486061 389.992 
L 264.745707 389.992 
L 267.005354 389.992 
L 269.265 389.992 
L 269.265 197.609503 
L 269.265 197.609503 
L 267.005354 199.348108 
L 264.745707 201.091481 
L 262.486061 202.842747 
L 260.226414 204.596083 
L 257.966768 206.355171 
L 255.707121 208.115865 
L 253.447475 209.880312 
L 251.187828 211.645525 
L 248.928182 213.411512 
L 246.668535 215.176789 
L 244.408889 216.944602 
L 242.149242 218.714467 
L 239.889596 220.489611 
L 237.629949 222.268377 
L 235.370303 224.05074 
L 233.110657 225.83532 
L 230.85101 227.624281 
L 228.591364 229.412632 
L 226.331717 231.202806 
L 224.072071 232.993541 
L 221.812424 234.785301 
L 219.552778 236.5759 
L 217.293131 238.369634 
L 215.033485 240.162373 
L 212.773838 241.95496 
L 210.514192 243.746823 
L 208.254545 245.538143 
L 205.994899 247.329355 
L 203.735253 249.121052 
L 201.475606 250.911617 
L 199.21596 252.701486 
L 196.956313 254.490701 
L 194.696667 256.276529 
L 192.43702 258.056788 
L 190.177374 259.833117 
L 187.917727 261.606442 
L 185.658081 263.376293 
L 183.398434 265.142304 
L 181.138788 266.905431 
L 178.879141 268.664741 
L 176.619495 270.420898 
L 174.359848 272.172357 
L 172.100202 273.92056 
L 169.840556 275.664809 
L 167.580909 277.405156 
L 165.321263 279.13915 
L 163.061616 280.868452 
L 160.80197 282.592597 
L 158.542323 284.310463 
L 156.282677 286.018361 
L 154.02303 287.719738 
L 151.763384 289.414048 
L 149.503737 291.10522 
L 147.244091 292.791143 
L 144.984444 294.472264 
L 142.724798 296.147136 
L 140.465152 297.817481 
L 138.205505 299.479823 
L 135.945859 301.12652 
L 133.686212 302.764668 
L 131.426566 304.390372 
L 129.166919 306.006566 
L 126.907273 307.611597 
L 124.647626 309.204898 
L 122.38798 310.790455 
L 120.128333 312.377835 
L 117.868687 313.956601 
L 115.60904 315.543734 
L 113.349394 317.126768 
L 111.089747 318.70045 
L 108.830101 320.27165 
L 106.570455 321.819157 
L 104.310808 323.374278 
L 102.051162 324.941794 
L 99.791515 326.510886 
L 97.531869 328.075364 
L 95.272222 329.657676 
L 93.012576 331.290548 
L 90.752929 333.015125 
L 88.493283 334.914134 
L 86.233636 337.10579 
L 83.97399 339.726482 
L 81.714343 342.855832 
L 79.454697 346.338729 
L 77.195051 349.924051 
L 74.935404 353.485805 
L 72.675758 356.974544 
L 70.416111 360.362434 
L 68.156465 363.640429 
L 65.896818 366.803639 
L 63.637172 369.850481 
L 61.377525 372.780287 
L 59.117879 375.59247 
L 56.858232 378.287012 
L 54.598586 380.863752 
L 52.338939 383.322655 
L 50.079293 385.663693 
L 47.819646 387.886819 
L 45.56 389.992 
z
" style="fill:#1f77b4;"/>
   </g>
   <g id="PolyCollection_2">
    <path clip-path="url(#p7a8ca165d9)" d="M 45.56 389.992 
L 45.56 389.992 
L 47.819646 387.886819 
L 50.079293 385.663693 
L 52.338939 383.322655 
L 54.598586 380.863752 
L 56.858232 378.287012 
L 59.117879 375.59247 
L 61.377525 372.780287 
L 63.637172 369.850481 
L 65.896818 366.803639 
L 68.156465 363.640429 
L 70.416111 360.362434 
L 72.675758 356.974544 
L 74.935404 353.485805 
L 77.195051 349.924051 
L 79.454697 346.338729 
L 81.714343 342.855832 
L 83.97399 339.726482 
L 86.233636 337.10579 
L 88.493283 334.914134 
L 90.752929 333.015125 
L 93.012576 331.290548 
L 95.272222 329.657676 
L 97.531869 328.075364 
L 99.791515 326.510886 
L 102.051162 324.941794 
L 104.310808 323.374278 
L 106.570455 321.819157 
L 108.830101 320.27165 
L 111.089747 318.70045 
L 113.349394 317.126768 
L 115.60904 315.543734 
L 117.868687 313.956601 
L 120.128333 312.377835 
L 122.38798 310.790455 
L 124.647626 309.204898 
L 126.907273 307.611597 
L 129.166919 306.006566 
L 131.426566 304.390372 
L 133.686212 302.764668 
L 135.945859 301.12652 
L 138.205505 299.479823 
L 140.465152 297.817481 
L 142.724798 296.147136 
L 144.984444 294.472264 
L 147.244091 292.791143 
L 149.503737 291.10522 
L 151.763384 289.414048 
L 154.02303 287.719738 
L 156.282677 286.018361 
L 158.542323 284.310463 
L 160.80197 282.592597 
L 163.061616 280.868452 
L 165.321263 279.13915 
L 167.580909 277.405156 
L 169.840556 275.664809 
L 172.100202 273.92056 
L 174.359848 272.172357 
L 176.619495 270.420898 
L 178.879141 268.664741 
L 181.138788 266.905431 
L 183.398434 265.142304 
L 185.658081 263.376293 
L 187.917727 261.606442 
L 190.177374 259.833117 
L 192.43702 258.056788 
L 194.696667 256.276529 
L 196.956313 254.490701 
L 199.21596 252.701486 
L 201.475606 250.911617 
L 203.735253 249.121052 
L 205.994899 247.329355 
L 208.254545 245.538143 
L 210.514192 243.746823 
L 212.773838 241.95496 
L 215.033485 240.162373 
L 217.293131 238.369634 
L 219.552778 236.5759 
L 221.812424 234.785301 
L 224.072071 232.993541 
L 226.331717 231.202806 
L 228.591364 229.412632 
L 230.85101 227.624281 
L 233.110657 225.83532 
L 235.370303 224.05074 
L 237.629949 222.268377 
L 239.889596 220.489611 
L 242.149242 218.714467 
L 244.408889 216.944602 
L 246.668535 215.176789 
L 248.928182 213.411512 
L 251.187828 211.645525 
L 253.447475 209.880312 
L 255.707121 208.115865 
L 257.966768 206.355171 
L 260.226414 204.596083 
L 262.486061 202.842747 
L 264.745707 201.091481 
L 267.005354 199.348108 
L 269.265 197.609503 
L 269.265 28.856762 
L 269.265 28.856762 
L 267.005354 31.054754 
L 264.745707 33.267854 
L 262.486061 35.495529 
L 260.226414 37.736411 
L 257.966768 39.995236 
L 255.707121 42.271751 
L 253.447475 44.564439 
L 251.187828 46.874317 
L 248.928182 49.199258 
L 246.668535 51.538431 
L 244.408889 53.891588 
L 242.149242 56.260403 
L 239.889596 58.645931 
L 237.629949 61.04664 
L 235.370303 63.465159 
L 233.110657 65.897939 
L 230.85101 68.345824 
L 228.591364 70.808226 
L 226.331717 73.287265 
L 224.072071 75.781868 
L 221.812424 78.294688 
L 219.552778 80.823736 
L 217.293131 83.365102 
L 215.033485 85.922878 
L 212.773838 88.498214 
L 210.514192 91.092528 
L 208.254545 93.70118 
L 205.994899 96.329945 
L 203.735253 98.980479 
L 201.475606 101.651347 
L 199.21596 104.346258 
L 196.956313 107.06284 
L 194.696667 109.804091 
L 192.43702 112.569709 
L 190.177374 115.356564 
L 187.917727 118.166961 
L 185.658081 121.001602 
L 183.398434 123.863281 
L 181.138788 126.748589 
L 178.879141 129.662218 
L 176.619495 132.604276 
L 174.359848 135.580713 
L 172.100202 138.589307 
L 169.840556 141.632679 
L 167.580909 144.71335 
L 165.321263 147.837209 
L 163.061616 151.005881 
L 160.80197 154.217968 
L 158.542323 157.477602 
L 156.282677 160.791061 
L 154.02303 164.155522 
L 151.763384 167.579021 
L 149.503737 171.060002 
L 147.244091 174.606438 
L 144.984444 178.228985 
L 142.724798 181.943244 
L 140.465152 185.748215 
L 138.205505 189.654926 
L 135.945859 193.655318 
L 133.686212 197.793085 
L 131.426566 202.070078 
L 129.166919 206.491729 
L 126.907273 211.076922 
L 124.647626 215.849353 
L 122.38798 220.839602 
L 120.128333 226.066928 
L 117.868687 231.544453 
L 115.60904 237.269756 
L 113.349394 243.283661 
L 111.089747 249.610501 
L 108.830101 256.24126 
L 106.570455 263.198275 
L 104.310808 270.427148 
L 102.051162 277.885301 
L 99.791515 285.537194 
L 97.531869 293.354638 
L 95.272222 301.211425 
L 93.012576 308.983965 
L 90.752929 316.523873 
L 88.493283 323.685277 
L 86.233636 330.292698 
L 83.97399 336.162084 
L 81.714343 341.181716 
L 79.454697 345.531925 
L 77.195051 349.505781 
L 74.935404 353.250324 
L 72.675758 356.823262 
L 70.416111 360.257075 
L 68.156465 363.562323 
L 65.896818 366.744712 
L 63.637172 369.806088 
L 61.377525 372.747233 
L 59.117879 375.568832 
L 56.858232 378.270904 
L 54.598586 380.853638 
L 52.338939 383.317074 
L 50.079293 385.661247 
L 47.819646 387.886209 
L 45.56 389.992 
z
" style="fill:#ff7f0e;"/>
   </g>
   <g id="matplotlib.axis_1">
    <g id="xtick_1">
     <g id="line2d_1">
      <defs>
       <path d="M 0 0 
L 0 3.5 
" id="ma3bd5649b6" style="stroke:#000000;stroke-width:0.8;"/>
      </defs>
      <g>
       <use style="stroke:#000000;stroke-width:0.8;" x="45.56" xlink:href="#ma3bd5649b6" y="389.992"/>
      </g>
     </g>
     <g id="text_1">
      <!-- 0.0 -->
      <g transform="translate(37.608438 404.590438)scale(0.1 -0.1)">
       <defs>
        <path d="M 2034 4250 
Q 1547 4250 1301 3770 
Q 1056 3291 1056 2328 
Q 1056 1369 1301 889 
Q 1547 409 2034 409 
Q 2525 409 2770 889 
Q 3016 1369 3016 2328 
Q 3016 3291 2770 3770 
Q 2525 4250 2034 4250 
z
M 2034 4750 
Q 2819 4750 3233 4129 
Q 3647 3509 3647 2328 
Q 3647 1150 3233 529 
Q 2819 -91 2034 -91 
Q 1250 -91 836 529 
Q 422 1150 422 2328 
Q 422 3509 836 4129 
Q 1250 4750 2034 4750 
z
" id="DejaVuSans-30" transform="scale(0.015625)"/>
        <path d="M 684 794 
L 1344 794 
L 1344 0 
L 684 0 
L 684 794 
z
" id="DejaVuSans-2e" transform="scale(0.015625)"/>
       </defs>
       <use xlink:href="#DejaVuSans-30"/>
       <use x="63.623047" xlink:href="#DejaVuSans-2e"/>
       <use x="95.410156" xlink:href="#DejaVuSans-30"/>
      </g>
     </g>
    </g>
    <g id="xtick_2">
     <g id="line2d_2">
      <g>
       <use style="stroke:#000000;stroke-width:0.8;" x="101.48625" xlink:href="#ma3bd5649b6" y="389.992"/>
      </g>
     </g>
     <g id="text_2">
      <!-- 0.5 -->
      <g transform="translate(93.534688 404.590438)scale(0.1 -0.1)">
       <defs>
        <path d="M 691 4666 
L 3169 4666 
L 3169 4134 
L 1269 4134 
L 1269 2991 
Q 1406 3038 1543 3061 
Q 1681 3084 1819 3084 
Q 2600 3084 3056 2656 
Q 3513 2228 3513 1497 
Q 3513 744 3044 326 
Q 2575 -91 1722 -91 
Q 1428 -91 1123 -41 
Q 819 9 494 109 
L 494 744 
Q 775 591 1075 516 
Q 1375 441 1709 441 
Q 2250 441 2565 725 
Q 2881 1009 2881 1497 
Q 2881 1984 2565 2268 
Q 2250 2553 1709 2553 
Q 1456 2553 1204 2497 
Q 953 2441 691 2322 
L 691 4666 
z
" id="DejaVuSans-35" transform="scale(0.015625)"/>
       </defs>
       <use xlink:href="#DejaVuSans-30"/>
       <use x="63.623047" xlink:href="#DejaVuSans-2e"/>
       <use x="95.410156" xlink:href="#DejaVuSans-35"/>
      </g>
     </g>
    </g>
    <g id="xtick_3">
     <g id="line2d_3">
      <g>
       <use style="stroke:#000000;stroke-width:0.8;" x="157.4125" xlink:href="#ma3bd5649b6" y="389.992"/>
      </g>
     </g>
     <g id="text_3">
      <!-- 1.0 -->
      <g transform="translate(149.460938 404.590438)scale(0.1 -0.1)">
       <defs>
        <path d="M 794 531 
L 1825 531 
L 1825 4091 
L 703 3866 
L 703 4441 
L 1819 4666 
L 2450 4666 
L 2450 531 
L 3481 531 
L 3481 0 
L 794 0 
L 794 531 
z
" id="DejaVuSans-31" transform="scale(0.015625)"/>
       </defs>
       <use xlink:href="#DejaVuSans-31"/>
       <use x="63.623047" xlink:href="#DejaVuSans-2e"/>
       <use x="95.410156" xlink:href="#DejaVuSans-30"/>
      </g>
     </g>
    </g>
    <g id="xtick_4">
     <g id="line2d_4">
      <g>
       <use style="stroke:#000000;stroke-width:0.8;" x="213.33875" xlink:href="#ma3bd5649b6" y="389.992"/>
      </g>
     </g>
     <g id="text_4">
      <!-- 1.5 -->
      <g transform="translate(205.387188 404.590438)scale(0.1 -0.1)">
       <use xlink:href="#DejaVuSans-31"/>
       <use x="63.623047" xlink:href="#DejaVuSans-2e"/>
       <use x="95.410156" xlink:href="#DejaVuSans-35"/>
      </g>
     </g>
    </g>
    <g id="xtick_5">
     <g id="line2d_5">
      <g>
       <use style="stroke:#000000;stroke-width:0.8;" x="269.265" xlink:href="#ma3bd5649b6" y="389.992"/>
      </g>
     </g>
     <g id="text_5">
      <!-- 2.0 -->
      <g transform="translate(261.313438 404.590438)scale(0.1 -0.1)">
       <defs>
        <path d="M 1228 531 
L 3431 531 
L 3431 0 
L 469 0 
L 469 531 
Q 828 903 1448 1529 
Q 2069 2156 2228 2338 
Q 2531 2678 2651 2914 
Q 2772 3150 2772 3378 
Q 2772 3750 2511 3984 
Q 2250 4219 1831 4219 
Q 1534 4219 1204 4116 
Q 875 4013 500 3803 
L 500 4441 
Q 881 4594 1212 4672 
Q 1544 4750 1819 4750 
Q 2544 4750 2975 4387 
Q 3406 4025 3406 3419 
Q 3406 3131 3298 2873 
Q 3191 2616 2906 2266 
Q 2828 2175 2409 1742 
Q 1991 1309 1228 531 
z
" id="DejaVuSans-32" transform="scale(0.015625)"/>
       </defs>
       <use xlink:href="#DejaVuSans-32"/>
       <use x="63.623047" xlink:href="#DejaVuSans-2e"/>
       <use x="95.410156" xlink:href="#DejaVuSans-30"/>
      </g>
     </g>
    </g>
    <g id="text_6">
     <!-- C$_S$ -->
     <g transform="translate(151.5125 418.268563)scale(0.1 -0.1)">
      <defs>
       <path d="M 4122 4306 
L 4122 3641 
Q 3803 3938 3442 4084 
Q 3081 4231 2675 4231 
Q 1875 4231 1450 3742 
Q 1025 3253 1025 2328 
Q 1025 1406 1450 917 
Q 1875 428 2675 428 
Q 3081 428 3442 575 
Q 3803 722 4122 1019 
L 4122 359 
Q 3791 134 3420 21 
Q 3050 -91 2638 -91 
Q 1578 -91 968 557 
Q 359 1206 359 2328 
Q 359 3453 968 4101 
Q 1578 4750 2638 4750 
Q 3056 4750 3426 4639 
Q 3797 4528 4122 4306 
z
" id="DejaVuSans-43" transform="scale(0.015625)"/>
       <path d="M 3859 4513 
L 3738 3897 
Q 3422 4066 3111 4152 
Q 2800 4238 2509 4238 
Q 1944 4238 1609 3991 
Q 1275 3744 1275 3334 
Q 1275 3109 1398 2989 
Q 1522 2869 2034 2731 
L 2413 2638 
Q 3053 2472 3303 2217 
Q 3553 1963 3553 1503 
Q 3553 797 2998 353 
Q 2444 -91 1538 -91 
Q 1166 -91 791 -17 
Q 416 56 38 206 
L 166 856 
Q 513 641 861 531 
Q 1209 422 1556 422 
Q 2147 422 2503 684 
Q 2859 947 2859 1369 
Q 2859 1650 2717 1795 
Q 2575 1941 2106 2059 
L 1728 2156 
Q 1081 2325 845 2545 
Q 609 2766 609 3163 
Q 609 3859 1145 4304 
Q 1681 4750 2541 4750 
Q 2875 4750 3203 4690 
Q 3531 4631 3859 4513 
z
" id="DejaVuSans-Oblique-53" transform="scale(0.015625)"/>
      </defs>
      <use transform="translate(0 0.78125)" xlink:href="#DejaVuSans-43"/>
      <use transform="translate(70.78125 -15.625)scale(0.7)" xlink:href="#DejaVuSans-Oblique-53"/>
     </g>
    </g>
   </g>
   <g id="matplotlib.axis_2">
    <g id="ytick_1">
     <g id="line2d_6">
      <defs>
       <path d="M 0 0 
L -3.5 0 
" id="mc6b8cb0804" style="stroke:#000000;stroke-width:0.8;"/>
      </defs>
      <g>
       <use style="stroke:#000000;stroke-width:0.8;" x="45.56" xlink:href="#mc6b8cb0804" y="389.992"/>
      </g>
     </g>
     <g id="text_7">
      <!-- 0 -->
      <g transform="translate(32.1975 393.791219)scale(0.1 -0.1)">
       <use xlink:href="#DejaVuSans-30"/>
      </g>
     </g>
    </g>
    <g id="ytick_2">
     <g id="line2d_7">
      <g>
       <use style="stroke:#000000;stroke-width:0.8;" x="45.56" xlink:href="#mc6b8cb0804" y="316.302232"/>
      </g>
     </g>
     <g id="text_8">
      <!-- 5 -->
      <g transform="translate(32.1975 320.10145)scale(0.1 -0.1)">
       <use xlink:href="#DejaVuSans-35"/>
      </g>
     </g>
    </g>
    <g id="ytick_3">
     <g id="line2d_8">
      <g>
       <use style="stroke:#000000;stroke-width:0.8;" x="45.56" xlink:href="#mc6b8cb0804" y="242.612463"/>
      </g>
     </g>
     <g id="text_9">
      <!-- 10 -->
      <g transform="translate(25.835 246.411682)scale(0.1 -0.1)">
       <use xlink:href="#DejaVuSans-31"/>
       <use x="63.623047" xlink:href="#DejaVuSans-30"/>
      </g>
     </g>
    </g>
    <g id="ytick_4">
     <g id="line2d_9">
      <g>
       <use style="stroke:#000000;stroke-width:0.8;" x="45.56" xlink:href="#mc6b8cb0804" y="168.922695"/>
      </g>
     </g>
     <g id="text_10">
      <!-- 15 -->
      <g transform="translate(25.835 172.721914)scale(0.1 -0.1)">
       <use xlink:href="#DejaVuSans-31"/>
       <use x="63.623047" xlink:href="#DejaVuSans-35"/>
      </g>
     </g>
    </g>
    <g id="ytick_5">
     <g id="line2d_10">
      <g>
       <use style="stroke:#000000;stroke-width:0.8;" x="45.56" xlink:href="#mc6b8cb0804" y="95.232927"/>
      </g>
     </g>
     <g id="text_11">
      <!-- 20 -->
      <g transform="translate(25.835 99.032146)scale(0.1 -0.1)">
       <use xlink:href="#DejaVuSans-32"/>
       <use x="63.623047" xlink:href="#DejaVuSans-30"/>
      </g>
     </g>
    </g>
    <g id="ytick_6">
     <g id="line2d_11">
      <g>
       <use style="stroke:#000000;stroke-width:0.8;" x="45.56" xlink:href="#mc6b8cb0804" y="21.543159"/>
      </g>
     </g>
     <g id="text_12">
      <!-- 25 -->
      <g transform="translate(25.835 25.342377)scale(0.1 -0.1)">
       <use xlink:href="#DejaVuSans-32"/>
       <use x="63.623047" xlink:href="#DejaVuSans-35"/>
      </g>
     </g>
    </g>
    <g id="text_13">
     <!-- CO$_2$e Emissions Savings (Mt) -->
     <g transform="translate(19.735 272.646)rotate(-90)scale(0.1 -0.1)">
      <defs>
       <path d="M 2522 4238 
Q 1834 4238 1429 3725 
Q 1025 3213 1025 2328 
Q 1025 1447 1429 934 
Q 1834 422 2522 422 
Q 3209 422 3611 934 
Q 4013 1447 4013 2328 
Q 4013 3213 3611 3725 
Q 3209 4238 2522 4238 
z
M 2522 4750 
Q 3503 4750 4090 4092 
Q 4678 3434 4678 2328 
Q 4678 1225 4090 567 
Q 3503 -91 2522 -91 
Q 1538 -91 948 565 
Q 359 1222 359 2328 
Q 359 3434 948 4092 
Q 1538 4750 2522 4750 
z
" id="DejaVuSans-4f" transform="scale(0.015625)"/>
       <path d="M 3597 1894 
L 3597 1613 
L 953 1613 
Q 991 1019 1311 708 
Q 1631 397 2203 397 
Q 2534 397 2845 478 
Q 3156 559 3463 722 
L 3463 178 
Q 3153 47 2828 -22 
Q 2503 -91 2169 -91 
Q 1331 -91 842 396 
Q 353 884 353 1716 
Q 353 2575 817 3079 
Q 1281 3584 2069 3584 
Q 2775 3584 3186 3129 
Q 3597 2675 3597 1894 
z
M 3022 2063 
Q 3016 2534 2758 2815 
Q 2500 3097 2075 3097 
Q 1594 3097 1305 2825 
Q 1016 2553 972 2059 
L 3022 2063 
z
" id="DejaVuSans-65" transform="scale(0.015625)"/>
       <path id="DejaVuSans-20" transform="scale(0.015625)"/>
       <path d="M 628 4666 
L 3578 4666 
L 3578 4134 
L 1259 4134 
L 1259 2753 
L 3481 2753 
L 3481 2222 
L 1259 2222 
L 1259 531 
L 3634 531 
L 3634 0 
L 628 0 
L 628 4666 
z
" id="DejaVuSans-45" transform="scale(0.015625)"/>
       <path d="M 3328 2828 
Q 3544 3216 3844 3400 
Q 4144 3584 4550 3584 
Q 5097 3584 5394 3201 
Q 5691 2819 5691 2113 
L 5691 0 
L 5113 0 
L 5113 2094 
Q 5113 2597 4934 2840 
Q 4756 3084 4391 3084 
Q 3944 3084 3684 2787 
Q 3425 2491 3425 1978 
L 3425 0 
L 2847 0 
L 2847 2094 
Q 2847 2600 2669 2842 
Q 2491 3084 2119 3084 
Q 1678 3084 1418 2786 
Q 1159 2488 1159 1978 
L 1159 0 
L 581 0 
L 581 3500 
L 1159 3500 
L 1159 2956 
Q 1356 3278 1631 3431 
Q 1906 3584 2284 3584 
Q 2666 3584 2933 3390 
Q 3200 3197 3328 2828 
z
" id="DejaVuSans-6d" transform="scale(0.015625)"/>
       <path d="M 603 3500 
L 1178 3500 
L 1178 0 
L 603 0 
L 603 3500 
z
M 603 4863 
L 1178 4863 
L 1178 4134 
L 603 4134 
L 603 4863 
z
" id="DejaVuSans-69" transform="scale(0.015625)"/>
       <path d="M 2834 3397 
L 2834 2853 
Q 2591 2978 2328 3040 
Q 2066 3103 1784 3103 
Q 1356 3103 1142 2972 
Q 928 2841 928 2578 
Q 928 2378 1081 2264 
Q 1234 2150 1697 2047 
L 1894 2003 
Q 2506 1872 2764 1633 
Q 3022 1394 3022 966 
Q 3022 478 2636 193 
Q 2250 -91 1575 -91 
Q 1294 -91 989 -36 
Q 684 19 347 128 
L 347 722 
Q 666 556 975 473 
Q 1284 391 1588 391 
Q 1994 391 2212 530 
Q 2431 669 2431 922 
Q 2431 1156 2273 1281 
Q 2116 1406 1581 1522 
L 1381 1569 
Q 847 1681 609 1914 
Q 372 2147 372 2553 
Q 372 3047 722 3315 
Q 1072 3584 1716 3584 
Q 2034 3584 2315 3537 
Q 2597 3491 2834 3397 
z
" id="DejaVuSans-73" transform="scale(0.015625)"/>
       <path d="M 1959 3097 
Q 1497 3097 1228 2736 
Q 959 2375 959 1747 
Q 959 1119 1226 758 
Q 1494 397 1959 397 
Q 2419 397 2687 759 
Q 2956 1122 2956 1747 
Q 2956 2369 2687 2733 
Q 2419 3097 1959 3097 
z
M 1959 3584 
Q 2709 3584 3137 3096 
Q 3566 2609 3566 1747 
Q 3566 888 3137 398 
Q 2709 -91 1959 -91 
Q 1206 -91 779 398 
Q 353 888 353 1747 
Q 353 2609 779 3096 
Q 1206 3584 1959 3584 
z
" id="DejaVuSans-6f" transform="scale(0.015625)"/>
       <path d="M 3513 2113 
L 3513 0 
L 2938 0 
L 2938 2094 
Q 2938 2591 2744 2837 
Q 2550 3084 2163 3084 
Q 1697 3084 1428 2787 
Q 1159 2491 1159 1978 
L 1159 0 
L 581 0 
L 581 3500 
L 1159 3500 
L 1159 2956 
Q 1366 3272 1645 3428 
Q 1925 3584 2291 3584 
Q 2894 3584 3203 3211 
Q 3513 2838 3513 2113 
z
" id="DejaVuSans-6e" transform="scale(0.015625)"/>
       <path d="M 3425 4513 
L 3425 3897 
Q 3066 4069 2747 4153 
Q 2428 4238 2131 4238 
Q 1616 4238 1336 4038 
Q 1056 3838 1056 3469 
Q 1056 3159 1242 3001 
Q 1428 2844 1947 2747 
L 2328 2669 
Q 3034 2534 3370 2195 
Q 3706 1856 3706 1288 
Q 3706 609 3251 259 
Q 2797 -91 1919 -91 
Q 1588 -91 1214 -16 
Q 841 59 441 206 
L 441 856 
Q 825 641 1194 531 
Q 1563 422 1919 422 
Q 2459 422 2753 634 
Q 3047 847 3047 1241 
Q 3047 1584 2836 1778 
Q 2625 1972 2144 2069 
L 1759 2144 
Q 1053 2284 737 2584 
Q 422 2884 422 3419 
Q 422 4038 858 4394 
Q 1294 4750 2059 4750 
Q 2388 4750 2728 4690 
Q 3069 4631 3425 4513 
z
" id="DejaVuSans-53" transform="scale(0.015625)"/>
       <path d="M 2194 1759 
Q 1497 1759 1228 1600 
Q 959 1441 959 1056 
Q 959 750 1161 570 
Q 1363 391 1709 391 
Q 2188 391 2477 730 
Q 2766 1069 2766 1631 
L 2766 1759 
L 2194 1759 
z
M 3341 1997 
L 3341 0 
L 2766 0 
L 2766 531 
Q 2569 213 2275 61 
Q 1981 -91 1556 -91 
Q 1019 -91 701 211 
Q 384 513 384 1019 
Q 384 1609 779 1909 
Q 1175 2209 1959 2209 
L 2766 2209 
L 2766 2266 
Q 2766 2663 2505 2880 
Q 2244 3097 1772 3097 
Q 1472 3097 1187 3025 
Q 903 2953 641 2809 
L 641 3341 
Q 956 3463 1253 3523 
Q 1550 3584 1831 3584 
Q 2591 3584 2966 3190 
Q 3341 2797 3341 1997 
z
" id="DejaVuSans-61" transform="scale(0.015625)"/>
       <path d="M 191 3500 
L 800 3500 
L 1894 563 
L 2988 3500 
L 3597 3500 
L 2284 0 
L 1503 0 
L 191 3500 
z
" id="DejaVuSans-76" transform="scale(0.015625)"/>
       <path d="M 2906 1791 
Q 2906 2416 2648 2759 
Q 2391 3103 1925 3103 
Q 1463 3103 1205 2759 
Q 947 2416 947 1791 
Q 947 1169 1205 825 
Q 1463 481 1925 481 
Q 2391 481 2648 825 
Q 2906 1169 2906 1791 
z
M 3481 434 
Q 3481 -459 3084 -895 
Q 2688 -1331 1869 -1331 
Q 1566 -1331 1297 -1286 
Q 1028 -1241 775 -1147 
L 775 -588 
Q 1028 -725 1275 -790 
Q 1522 -856 1778 -856 
Q 2344 -856 2625 -561 
Q 2906 -266 2906 331 
L 2906 616 
Q 2728 306 2450 153 
Q 2172 0 1784 0 
Q 1141 0 747 490 
Q 353 981 353 1791 
Q 353 2603 747 3093 
Q 1141 3584 1784 3584 
Q 2172 3584 2450 3431 
Q 2728 3278 2906 2969 
L 2906 3500 
L 3481 3500 
L 3481 434 
z
" id="DejaVuSans-67" transform="scale(0.015625)"/>
       <path d="M 1984 4856 
Q 1566 4138 1362 3434 
Q 1159 2731 1159 2009 
Q 1159 1288 1364 580 
Q 1569 -128 1984 -844 
L 1484 -844 
Q 1016 -109 783 600 
Q 550 1309 550 2009 
Q 550 2706 781 3412 
Q 1013 4119 1484 4856 
L 1984 4856 
z
" id="DejaVuSans-28" transform="scale(0.015625)"/>
       <path d="M 628 4666 
L 1569 4666 
L 2759 1491 
L 3956 4666 
L 4897 4666 
L 4897 0 
L 4281 0 
L 4281 4097 
L 3078 897 
L 2444 897 
L 1241 4097 
L 1241 0 
L 628 0 
L 628 4666 
z
" id="DejaVuSans-4d" transform="scale(0.015625)"/>
       <path d="M 1172 4494 
L 1172 3500 
L 2356 3500 
L 2356 3053 
L 1172 3053 
L 1172 1153 
Q 1172 725 1289 603 
Q 1406 481 1766 481 
L 2356 481 
L 2356 0 
L 1766 0 
Q 1100 0 847 248 
Q 594 497 594 1153 
L 594 3053 
L 172 3053 
L 172 3500 
L 594 3500 
L 594 4494 
L 1172 4494 
z
" id="DejaVuSans-74" transform="scale(0.015625)"/>
       <path d="M 513 4856 
L 1013 4856 
Q 1481 4119 1714 3412 
Q 1947 2706 1947 2009 
Q 1947 1309 1714 600 
Q 1481 -109 1013 -844 
L 513 -844 
Q 928 -128 1133 580 
Q 1338 1288 1338 2009 
Q 1338 2731 1133 3434 
Q 928 4138 513 4856 
z
" id="DejaVuSans-29" transform="scale(0.015625)"/>
      </defs>
      <use transform="translate(0 0.015625)" xlink:href="#DejaVuSans-43"/>
      <use transform="translate(69.824219 0.015625)" xlink:href="#DejaVuSans-4f"/>
      <use transform="translate(149.492188 -16.390625)scale(0.7)" xlink:href="#DejaVuSans-32"/>
      <use transform="translate(196.762695 0.015625)" xlink:href="#DejaVuSans-65"/>
      <use transform="translate(258.286133 0.015625)" xlink:href="#DejaVuSans-20"/>
      <use transform="translate(290.073242 0.015625)" xlink:href="#DejaVuSans-45"/>
      <use transform="translate(353.256836 0.015625)" xlink:href="#DejaVuSans-6d"/>
      <use transform="translate(450.668945 0.015625)" xlink:href="#DejaVuSans-69"/>
      <use transform="translate(478.452148 0.015625)" xlink:href="#DejaVuSans-73"/>
      <use transform="translate(530.551758 0.015625)" xlink:href="#DejaVuSans-73"/>
      <use transform="translate(582.651367 0.015625)" xlink:href="#DejaVuSans-69"/>
      <use transform="translate(610.43457 0.015625)" xlink:href="#DejaVuSans-6f"/>
      <use transform="translate(671.616211 0.015625)" xlink:href="#DejaVuSans-6e"/>
      <use transform="translate(734.995117 0.015625)" xlink:href="#DejaVuSans-73"/>
      <use transform="translate(787.094727 0.015625)" xlink:href="#DejaVuSans-20"/>
      <use transform="translate(818.881836 0.015625)" xlink:href="#DejaVuSans-53"/>
      <use transform="translate(882.358398 0.015625)" xlink:href="#DejaVuSans-61"/>
      <use transform="translate(943.637695 0.015625)" xlink:href="#DejaVuSans-76"/>
      <use transform="translate(1002.817383 0.015625)" xlink:href="#DejaVuSans-69"/>
      <use transform="translate(1030.600586 0.015625)" xlink:href="#DejaVuSans-6e"/>
      <use transform="translate(1093.979492 0.015625)" xlink:href="#DejaVuSans-67"/>
      <use transform="translate(1157.456055 0.015625)" xlink:href="#DejaVuSans-73"/>
      <use transform="translate(1209.555664 0.015625)" xlink:href="#DejaVuSans-20"/>
      <use transform="translate(1241.342773 0.015625)" xlink:href="#DejaVuSans-28"/>
      <use transform="translate(1280.356445 0.015625)" xlink:href="#DejaVuSans-4d"/>
      <use transform="translate(1366.635742 0.015625)" xlink:href="#DejaVuSans-74"/>
      <use transform="translate(1405.844727 0.015625)" xlink:href="#DejaVuSans-29"/>
     </g>
    </g>
   </g>
   <g id="patch_3">
    <path d="M 45.56 389.992 
L 45.56 10.8 
" style="fill:none;stroke:#000000;stroke-linecap:square;stroke-linejoin:miter;stroke-width:0.8;"/>
   </g>
   <g id="patch_4">
    <path d="M 269.265 389.992 
L 269.265 10.8 
" style="fill:none;stroke:#000000;stroke-linecap:square;stroke-linejoin:miter;stroke-width:0.8;"/>
   </g>
   <g id="patch_5">
    <path d="M 45.56 389.992 
L 269.265 389.992 
" style="fill:none;stroke:#000000;stroke-linecap:square;stroke-linejoin:miter;stroke-width:0.8;"/>
   </g>
   <g id="patch_6">
    <path d="M 45.56 10.8 
L 269.265 10.8 
" style="fill:none;stroke:#000000;stroke-linecap:square;stroke-linejoin:miter;stroke-width:0.8;"/>
   </g>
  </g>
 </g>
 <defs>
  <clipPath id="p7a8ca165d9">
   <rect height="379.192" width="223.705" x="45.56" y="10.8"/>
  </clipPath>
 </defs>
</svg>
