<?xml version="1.0" encoding="utf-8" standalone="no"?>
<!DOCTYPE svg PUBLIC "-//W3C//DTD SVG 1.1//EN"
  "http://www.w3.org/Graphics/SVG/1.1/DTD/svg11.dtd">
<svg height="432pt" version="1.1" viewBox="0 0 288 432" width="288pt" xmlns="http://www.w3.org/2000/svg" xmlns:xlink="http://www.w3.org/1999/xlink">
 <metadata>
  <rdf:RDF xmlns:cc="http://creativecommons.org/ns#" xmlns:dc="http://purl.org/dc/elements/1.1/" xmlns:rdf="http://www.w3.org/1999/02/22-rdf-syntax-ns#">
   <cc:Work>
    <dc:type rdf:resource="http://purl.org/dc/dcmitype/StillImage"/>
    <dc:date>2021-09-13T15:16:58.648277</dc:date>
    <dc:format>image/svg+xml</dc:format>
    <dc:creator>
     <cc:Agent>
      <dc:title>Matplotlib v3.4.1, https://matplotlib.org/</dc:title>
     </cc:Agent>
    </dc:creator>
   </cc:Work>
  </rdf:RDF>
 </metadata>
 <defs>
  <style type="text/css">*{stroke-linecap:butt;stroke-linejoin:round;}</style>
 </defs>
 <g id="figure_1">
  <g id="patch_1">
   <path d="M 0 432 
L 288 432 
L 288 0 
L 0 0 
z
" style="fill:#ffffff;"/>
  </g>
  <g id="axes_1">
   <g id="patch_2">
    <path d="M 45.59 389.992 
L 269.265 389.992 
L 269.265 10.8 
L 45.59 10.8 
z
" style="fill:#ffffff;"/>
   </g>
   <g id="PolyCollection_1">
    <path clip-path="url(#p2be93af39c)" d="M 45.59 389.992 
L 45.59 389.992 
L 47.849343 389.992 
L 50.108687 389.992 
L 52.36803 389.992 
L 54.627374 389.992 
L 56.886717 389.992 
L 59.146061 389.992 
L 61.405404 389.992 
L 63.664747 389.992 
L 65.924091 389.992 
L 68.183434 389.992 
L 70.442778 389.992 
L 72.702121 389.992 
L 74.961465 389.992 
L 77.220808 389.992 
L 79.480152 389.992 
L 81.739495 389.992 
L 83.998838 389.992 
L 86.258182 389.992 
L 88.517525 389.992 
L 90.776869 389.992 
L 93.036212 389.992 
L 95.295556 389.992 
L 97.554899 389.992 
L 99.814242 389.992 
L 102.073586 389.992 
L 104.332929 389.992 
L 106.592273 389.992 
L 108.851616 389.992 
L 111.11096 389.992 
L 113.370303 389.992 
L 115.629646 389.992 
L 117.88899 389.992 
L 120.148333 389.992 
L 122.407677 389.992 
L 124.66702 389.992 
L 126.926364 389.992 
L 129.185707 389.992 
L 131.445051 389.992 
L 133.704394 389.992 
L 135.963737 389.992 
L 138.223081 389.992 
L 140.482424 389.992 
L 142.741768 389.992 
L 145.001111 389.992 
L 147.260455 389.992 
L 149.519798 389.992 
L 151.779141 389.992 
L 154.038485 389.992 
L 156.297828 389.992 
L 158.557172 389.992 
L 160.816515 389.992 
L 163.075859 389.992 
L 165.335202 389.992 
L 167.594545 389.992 
L 169.853889 389.992 
L 172.113232 389.992 
L 174.372576 389.992 
L 176.631919 389.992 
L 178.891263 389.992 
L 181.150606 389.992 
L 183.409949 389.992 
L 185.669293 389.992 
L 187.928636 389.992 
L 190.18798 389.992 
L 192.447323 389.992 
L 194.706667 389.992 
L 196.96601 389.992 
L 199.225354 389.992 
L 201.484697 389.992 
L 203.74404 389.992 
L 206.003384 389.992 
L 208.262727 389.992 
L 210.522071 389.992 
L 212.781414 389.992 
L 215.040758 389.992 
L 217.300101 389.992 
L 219.559444 389.992 
L 221.818788 389.992 
L 224.078131 389.992 
L 226.337475 389.992 
L 228.596818 389.992 
L 230.856162 389.992 
L 233.115505 389.992 
L 235.374848 389.992 
L 237.634192 389.992 
L 239.893535 389.992 
L 242.152879 389.992 
L 244.412222 389.992 
L 246.671566 389.992 
L 248.930909 389.992 
L 251.190253 389.992 
L 253.449596 389.992 
L 255.708939 389.992 
L 257.968283 389.992 
L 260.227626 389.992 
L 262.48697 389.992 
L 264.746313 389.992 
L 267.005657 389.992 
L 269.265 389.992 
L 269.265 131.961848 
L 269.265 131.961848 
L 267.005657 132.962211 
L 264.746313 133.986609 
L 262.48697 135.035177 
L 260.227626 136.110735 
L 257.968283 137.213172 
L 255.708939 138.344417 
L 253.449596 139.501365 
L 251.190253 140.685392 
L 248.930909 141.900024 
L 246.671566 143.141877 
L 244.412222 144.414213 
L 242.152879 145.713721 
L 239.893535 147.04218 
L 237.634192 148.398297 
L 235.374848 149.789597 
L 233.115505 151.208992 
L 230.856162 152.661504 
L 228.596818 154.152152 
L 226.337475 155.676791 
L 224.078131 157.235454 
L 221.818788 158.825622 
L 219.559444 160.452102 
L 217.300101 162.119473 
L 215.040758 163.826289 
L 212.781414 165.574436 
L 210.522071 167.36383 
L 208.262727 169.194191 
L 206.003384 171.060344 
L 203.74404 172.959781 
L 201.484697 174.889285 
L 199.225354 176.852228 
L 196.96601 178.85174 
L 194.706667 180.8882 
L 192.447323 182.96222 
L 190.18798 185.074371 
L 187.928636 187.22606 
L 185.669293 189.42117 
L 183.409949 191.665948 
L 181.150606 193.957905 
L 178.891263 196.298002 
L 176.631919 198.673281 
L 174.372576 201.084044 
L 172.113232 203.534141 
L 169.853889 206.017934 
L 167.594545 208.537638 
L 165.335202 211.093318 
L 163.075859 213.694216 
L 160.816515 216.336975 
L 158.557172 219.024554 
L 156.297828 221.758736 
L 154.038485 224.550863 
L 151.779141 227.400414 
L 149.519798 230.291341 
L 147.260455 233.223214 
L 145.001111 236.198201 
L 142.741768 239.20952 
L 140.482424 242.26545 
L 138.223081 245.364145 
L 135.963737 248.490956 
L 133.704394 251.634347 
L 131.445051 254.814687 
L 129.185707 258.042408 
L 126.926364 261.292279 
L 124.66702 264.579937 
L 122.407677 267.909043 
L 120.148333 271.250122 
L 117.88899 274.623598 
L 115.629646 277.998716 
L 113.370303 281.378308 
L 111.11096 284.759267 
L 108.851616 288.172524 
L 106.592273 291.58615 
L 104.332929 294.979837 
L 102.073586 298.36734 
L 99.814242 301.783653 
L 97.554899 305.204716 
L 95.295556 308.644215 
L 93.036212 312.113447 
L 90.776869 315.524769 
L 88.517525 318.913408 
L 86.258182 322.274543 
L 83.998838 325.572558 
L 81.739495 328.866479 
L 79.480152 332.137274 
L 77.220808 335.342858 
L 74.961465 338.550003 
L 72.702121 341.766434 
L 70.442778 344.863796 
L 68.183434 347.847895 
L 65.924091 350.942665 
L 63.664747 354.413736 
L 61.405404 358.230197 
L 59.146061 362.234715 
L 56.886717 366.544188 
L 54.627374 371.188223 
L 52.36803 375.888231 
L 50.108687 380.589487 
L 47.849343 385.290744 
L 45.59 389.992 
z
" style="fill:#1f77b4;"/>
   </g>
   <g id="PolyCollection_2">
    <path clip-path="url(#p2be93af39c)" d="M 45.59 389.992 
L 45.59 389.992 
L 47.849343 385.290744 
L 50.108687 380.589487 
L 52.36803 375.888231 
L 54.627374 371.188223 
L 56.886717 366.544188 
L 59.146061 362.234715 
L 61.405404 358.230197 
L 63.664747 354.413736 
L 65.924091 350.942665 
L 68.183434 347.847895 
L 70.442778 344.863796 
L 72.702121 341.766434 
L 74.961465 338.550003 
L 77.220808 335.342858 
L 79.480152 332.137274 
L 81.739495 328.866479 
L 83.998838 325.572558 
L 86.258182 322.274543 
L 88.517525 318.913408 
L 90.776869 315.524769 
L 93.036212 312.113447 
L 95.295556 308.644215 
L 97.554899 305.204716 
L 99.814242 301.783653 
L 102.073586 298.36734 
L 104.332929 294.979837 
L 106.592273 291.58615 
L 108.851616 288.172524 
L 111.11096 284.759267 
L 113.370303 281.378308 
L 115.629646 277.998716 
L 117.88899 274.623598 
L 120.148333 271.250122 
L 122.407677 267.909043 
L 124.66702 264.579937 
L 126.926364 261.292279 
L 129.185707 258.042408 
L 131.445051 254.814687 
L 133.704394 251.634347 
L 135.963737 248.490956 
L 138.223081 245.364145 
L 140.482424 242.26545 
L 142.741768 239.20952 
L 145.001111 236.198201 
L 147.260455 233.223214 
L 149.519798 230.291341 
L 151.779141 227.400414 
L 154.038485 224.550863 
L 156.297828 221.758736 
L 158.557172 219.024554 
L 160.816515 216.336975 
L 163.075859 213.694216 
L 165.335202 211.093318 
L 167.594545 208.537638 
L 169.853889 206.017934 
L 172.113232 203.534141 
L 174.372576 201.084044 
L 176.631919 198.673281 
L 178.891263 196.298002 
L 181.150606 193.957905 
L 183.409949 191.665948 
L 185.669293 189.42117 
L 187.928636 187.22606 
L 190.18798 185.074371 
L 192.447323 182.96222 
L 194.706667 180.8882 
L 196.96601 178.85174 
L 199.225354 176.852228 
L 201.484697 174.889285 
L 203.74404 172.959781 
L 206.003384 171.060344 
L 208.262727 169.194191 
L 210.522071 167.36383 
L 212.781414 165.574436 
L 215.040758 163.826289 
L 217.300101 162.119473 
L 219.559444 160.452102 
L 221.818788 158.825622 
L 224.078131 157.235454 
L 226.337475 155.676791 
L 228.596818 154.152152 
L 230.856162 152.661504 
L 233.115505 151.208992 
L 235.374848 149.789597 
L 237.634192 148.398297 
L 239.893535 147.04218 
L 242.152879 145.713721 
L 244.412222 144.414213 
L 246.671566 143.141877 
L 248.930909 141.900024 
L 251.190253 140.685392 
L 253.449596 139.501365 
L 255.708939 138.344417 
L 257.968283 137.213172 
L 260.227626 136.110735 
L 262.48697 135.035177 
L 264.746313 133.986609 
L 267.005657 132.962211 
L 269.265 131.961848 
L 269.265 28.856762 
L 269.265 28.856762 
L 267.005657 29.974917 
L 264.746313 31.120239 
L 262.48697 32.293899 
L 260.227626 33.49742 
L 257.968283 34.730473 
L 255.708939 35.994648 
L 253.449596 37.286923 
L 251.190253 38.610027 
L 248.930909 39.966837 
L 246.671566 41.353824 
L 244.412222 42.775329 
L 242.152879 44.229567 
L 239.893535 45.717502 
L 237.634192 47.240426 
L 235.374848 48.804425 
L 233.115505 50.404327 
L 230.856162 52.044807 
L 228.596818 53.730116 
L 226.337475 55.455725 
L 224.078131 57.224424 
L 221.818788 59.034499 
L 219.559444 60.889188 
L 217.300101 62.791752 
L 215.040758 64.742424 
L 212.781414 66.746183 
L 210.522071 68.7991 
L 208.262727 70.90424 
L 206.003384 73.059332 
L 203.74404 75.262535 
L 201.484697 77.505146 
L 199.225354 79.79002 
L 196.96601 82.123227 
L 194.706667 84.506762 
L 192.447323 86.943349 
L 190.18798 89.431282 
L 187.928636 91.972755 
L 185.669293 94.574402 
L 183.409949 97.244182 
L 181.150606 99.983857 
L 178.891263 102.793815 
L 176.631919 105.668194 
L 174.372576 108.612473 
L 172.113232 111.628513 
L 169.853889 114.707832 
L 167.594545 117.854503 
L 165.335202 121.073927 
L 163.075859 124.362061 
L 160.816515 127.730105 
L 158.557172 131.176064 
L 156.297828 134.702715 
L 154.038485 138.308938 
L 151.779141 142.002581 
L 149.519798 145.767352 
L 147.260455 149.594895 
L 145.001111 153.51182 
L 142.741768 157.511953 
L 140.482424 161.59222 
L 138.223081 165.747714 
L 135.963737 169.987059 
L 133.704394 174.328821 
L 131.445051 178.755984 
L 129.185707 183.258553 
L 126.926364 187.868514 
L 124.66702 192.551492 
L 122.407677 197.316472 
L 120.148333 202.199503 
L 117.88899 207.176022 
L 115.629646 212.263152 
L 113.370303 217.447119 
L 111.11096 222.729509 
L 108.851616 228.069989 
L 106.592273 233.501636 
L 104.332929 239.031611 
L 102.073586 244.65431 
L 99.814242 250.344496 
L 97.554899 256.112071 
L 95.295556 261.925792 
L 93.036212 267.776657 
L 90.776869 273.758544 
L 88.517525 279.828623 
L 86.258182 285.968631 
L 83.998838 292.202469 
L 81.739495 298.460063 
L 79.480152 304.769511 
L 77.220808 311.174923 
L 74.961465 317.593366 
L 72.702121 324.020537 
L 70.442778 330.592482 
L 68.183434 337.297735 
L 65.924091 343.87383 
L 63.664747 350.010765 
L 61.405404 355.744616 
L 59.146061 361.258995 
L 56.886717 366.41748 
L 54.627374 371.185517 
L 52.36803 375.888231 
L 50.108687 380.589487 
L 47.849343 385.290744 
L 45.59 389.992 
z
" style="fill:#ff7f0e;"/>
   </g>
   <g id="matplotlib.axis_1">
    <g id="xtick_1">
     <g id="line2d_1">
      <defs>
       <path d="M 0 0 
L 0 3.5 
" id="m49a740c8c8" style="stroke:#000000;stroke-width:0.8;"/>
      </defs>
      <g>
       <use style="stroke:#000000;stroke-width:0.8;" x="45.59" xlink:href="#m49a740c8c8" y="389.992"/>
      </g>
     </g>
     <g id="text_1">
      <!-- 0.0 -->
      <g transform="translate(37.638438 404.590438)scale(0.1 -0.1)">
       <defs>
        <path d="M 2034 4250 
Q 1547 4250 1301 3770 
Q 1056 3291 1056 2328 
Q 1056 1369 1301 889 
Q 1547 409 2034 409 
Q 2525 409 2770 889 
Q 3016 1369 3016 2328 
Q 3016 3291 2770 3770 
Q 2525 4250 2034 4250 
z
M 2034 4750 
Q 2819 4750 3233 4129 
Q 3647 3509 3647 2328 
Q 3647 1150 3233 529 
Q 2819 -91 2034 -91 
Q 1250 -91 836 529 
Q 422 1150 422 2328 
Q 422 3509 836 4129 
Q 1250 4750 2034 4750 
z
" id="DejaVuSans-30" transform="scale(0.015625)"/>
        <path d="M 684 794 
L 1344 794 
L 1344 0 
L 684 0 
L 684 794 
z
" id="DejaVuSans-2e" transform="scale(0.015625)"/>
       </defs>
       <use xlink:href="#DejaVuSans-30"/>
       <use x="63.623047" xlink:href="#DejaVuSans-2e"/>
       <use x="95.410156" xlink:href="#DejaVuSans-30"/>
      </g>
     </g>
    </g>
    <g id="xtick_2">
     <g id="line2d_2">
      <g>
       <use style="stroke:#000000;stroke-width:0.8;" x="101.50875" xlink:href="#m49a740c8c8" y="389.992"/>
      </g>
     </g>
     <g id="text_2">
      <!-- 0.5 -->
      <g transform="translate(93.557188 404.590438)scale(0.1 -0.1)">
       <defs>
        <path d="M 691 4666 
L 3169 4666 
L 3169 4134 
L 1269 4134 
L 1269 2991 
Q 1406 3038 1543 3061 
Q 1681 3084 1819 3084 
Q 2600 3084 3056 2656 
Q 3513 2228 3513 1497 
Q 3513 744 3044 326 
Q 2575 -91 1722 -91 
Q 1428 -91 1123 -41 
Q 819 9 494 109 
L 494 744 
Q 775 591 1075 516 
Q 1375 441 1709 441 
Q 2250 441 2565 725 
Q 2881 1009 2881 1497 
Q 2881 1984 2565 2268 
Q 2250 2553 1709 2553 
Q 1456 2553 1204 2497 
Q 953 2441 691 2322 
L 691 4666 
z
" id="DejaVuSans-35" transform="scale(0.015625)"/>
       </defs>
       <use xlink:href="#DejaVuSans-30"/>
       <use x="63.623047" xlink:href="#DejaVuSans-2e"/>
       <use x="95.410156" xlink:href="#DejaVuSans-35"/>
      </g>
     </g>
    </g>
    <g id="xtick_3">
     <g id="line2d_3">
      <g>
       <use style="stroke:#000000;stroke-width:0.8;" x="157.4275" xlink:href="#m49a740c8c8" y="389.992"/>
      </g>
     </g>
     <g id="text_3">
      <!-- 1.0 -->
      <g transform="translate(149.475938 404.590438)scale(0.1 -0.1)">
       <defs>
        <path d="M 794 531 
L 1825 531 
L 1825 4091 
L 703 3866 
L 703 4441 
L 1819 4666 
L 2450 4666 
L 2450 531 
L 3481 531 
L 3481 0 
L 794 0 
L 794 531 
z
" id="DejaVuSans-31" transform="scale(0.015625)"/>
       </defs>
       <use xlink:href="#DejaVuSans-31"/>
       <use x="63.623047" xlink:href="#DejaVuSans-2e"/>
       <use x="95.410156" xlink:href="#DejaVuSans-30"/>
      </g>
     </g>
    </g>
    <g id="xtick_4">
     <g id="line2d_4">
      <g>
       <use style="stroke:#000000;stroke-width:0.8;" x="213.34625" xlink:href="#m49a740c8c8" y="389.992"/>
      </g>
     </g>
     <g id="text_4">
      <!-- 1.5 -->
      <g transform="translate(205.394688 404.590438)scale(0.1 -0.1)">
       <use xlink:href="#DejaVuSans-31"/>
       <use x="63.623047" xlink:href="#DejaVuSans-2e"/>
       <use x="95.410156" xlink:href="#DejaVuSans-35"/>
      </g>
     </g>
    </g>
    <g id="xtick_5">
     <g id="line2d_5">
      <g>
       <use style="stroke:#000000;stroke-width:0.8;" x="269.265" xlink:href="#m49a740c8c8" y="389.992"/>
      </g>
     </g>
     <g id="text_5">
      <!-- 2.0 -->
      <g transform="translate(261.313437 404.590438)scale(0.1 -0.1)">
       <defs>
        <path d="M 1228 531 
L 3431 531 
L 3431 0 
L 469 0 
L 469 531 
Q 828 903 1448 1529 
Q 2069 2156 2228 2338 
Q 2531 2678 2651 2914 
Q 2772 3150 2772 3378 
Q 2772 3750 2511 3984 
Q 2250 4219 1831 4219 
Q 1534 4219 1204 4116 
Q 875 4013 500 3803 
L 500 4441 
Q 881 4594 1212 4672 
Q 1544 4750 1819 4750 
Q 2544 4750 2975 4387 
Q 3406 4025 3406 3419 
Q 3406 3131 3298 2873 
Q 3191 2616 2906 2266 
Q 2828 2175 2409 1742 
Q 1991 1309 1228 531 
z
" id="DejaVuSans-32" transform="scale(0.015625)"/>
       </defs>
       <use xlink:href="#DejaVuSans-32"/>
       <use x="63.623047" xlink:href="#DejaVuSans-2e"/>
       <use x="95.410156" xlink:href="#DejaVuSans-30"/>
      </g>
     </g>
    </g>
    <g id="text_6">
     <!-- C$_S$ -->
     <g transform="translate(151.5275 418.268563)scale(0.1 -0.1)">
      <defs>
       <path d="M 4122 4306 
L 4122 3641 
Q 3803 3938 3442 4084 
Q 3081 4231 2675 4231 
Q 1875 4231 1450 3742 
Q 1025 3253 1025 2328 
Q 1025 1406 1450 917 
Q 1875 428 2675 428 
Q 3081 428 3442 575 
Q 3803 722 4122 1019 
L 4122 359 
Q 3791 134 3420 21 
Q 3050 -91 2638 -91 
Q 1578 -91 968 557 
Q 359 1206 359 2328 
Q 359 3453 968 4101 
Q 1578 4750 2638 4750 
Q 3056 4750 3426 4639 
Q 3797 4528 4122 4306 
z
" id="DejaVuSans-43" transform="scale(0.015625)"/>
       <path d="M 3859 4513 
L 3738 3897 
Q 3422 4066 3111 4152 
Q 2800 4238 2509 4238 
Q 1944 4238 1609 3991 
Q 1275 3744 1275 3334 
Q 1275 3109 1398 2989 
Q 1522 2869 2034 2731 
L 2413 2638 
Q 3053 2472 3303 2217 
Q 3553 1963 3553 1503 
Q 3553 797 2998 353 
Q 2444 -91 1538 -91 
Q 1166 -91 791 -17 
Q 416 56 38 206 
L 166 856 
Q 513 641 861 531 
Q 1209 422 1556 422 
Q 2147 422 2503 684 
Q 2859 947 2859 1369 
Q 2859 1650 2717 1795 
Q 2575 1941 2106 2059 
L 1728 2156 
Q 1081 2325 845 2545 
Q 609 2766 609 3163 
Q 609 3859 1145 4304 
Q 1681 4750 2541 4750 
Q 2875 4750 3203 4690 
Q 3531 4631 3859 4513 
z
" id="DejaVuSans-Oblique-53" transform="scale(0.015625)"/>
      </defs>
      <use transform="translate(0 0.78125)" xlink:href="#DejaVuSans-43"/>
      <use transform="translate(70.78125 -15.625)scale(0.7)" xlink:href="#DejaVuSans-Oblique-53"/>
     </g>
    </g>
   </g>
   <g id="matplotlib.axis_2">
    <g id="ytick_1">
     <g id="line2d_6">
      <defs>
       <path d="M 0 0 
L -3.5 0 
" id="m9ba96d6abe" style="stroke:#000000;stroke-width:0.8;"/>
      </defs>
      <g>
       <use style="stroke:#000000;stroke-width:0.8;" x="45.59" xlink:href="#m9ba96d6abe" y="389.992"/>
      </g>
     </g>
     <g id="text_7">
      <!-- 0 -->
      <g transform="translate(32.2275 393.791219)scale(0.1 -0.1)">
       <use xlink:href="#DejaVuSans-30"/>
      </g>
     </g>
    </g>
    <g id="ytick_2">
     <g id="line2d_7">
      <g>
       <use style="stroke:#000000;stroke-width:0.8;" x="45.59" xlink:href="#m9ba96d6abe" y="306.679704"/>
      </g>
     </g>
     <g id="text_8">
      <!-- 10 -->
      <g transform="translate(25.865 310.478922)scale(0.1 -0.1)">
       <use xlink:href="#DejaVuSans-31"/>
       <use x="63.623047" xlink:href="#DejaVuSans-30"/>
      </g>
     </g>
    </g>
    <g id="ytick_3">
     <g id="line2d_8">
      <g>
       <use style="stroke:#000000;stroke-width:0.8;" x="45.59" xlink:href="#m9ba96d6abe" y="223.367407"/>
      </g>
     </g>
     <g id="text_9">
      <!-- 20 -->
      <g transform="translate(25.865 227.166626)scale(0.1 -0.1)">
       <use xlink:href="#DejaVuSans-32"/>
       <use x="63.623047" xlink:href="#DejaVuSans-30"/>
      </g>
     </g>
    </g>
    <g id="ytick_4">
     <g id="line2d_9">
      <g>
       <use style="stroke:#000000;stroke-width:0.8;" x="45.59" xlink:href="#m9ba96d6abe" y="140.055111"/>
      </g>
     </g>
     <g id="text_10">
      <!-- 30 -->
      <g transform="translate(25.865 143.854329)scale(0.1 -0.1)">
       <defs>
        <path d="M 2597 2516 
Q 3050 2419 3304 2112 
Q 3559 1806 3559 1356 
Q 3559 666 3084 287 
Q 2609 -91 1734 -91 
Q 1441 -91 1130 -33 
Q 819 25 488 141 
L 488 750 
Q 750 597 1062 519 
Q 1375 441 1716 441 
Q 2309 441 2620 675 
Q 2931 909 2931 1356 
Q 2931 1769 2642 2001 
Q 2353 2234 1838 2234 
L 1294 2234 
L 1294 2753 
L 1863 2753 
Q 2328 2753 2575 2939 
Q 2822 3125 2822 3475 
Q 2822 3834 2567 4026 
Q 2313 4219 1838 4219 
Q 1578 4219 1281 4162 
Q 984 4106 628 3988 
L 628 4550 
Q 988 4650 1302 4700 
Q 1616 4750 1894 4750 
Q 2613 4750 3031 4423 
Q 3450 4097 3450 3541 
Q 3450 3153 3228 2886 
Q 3006 2619 2597 2516 
z
" id="DejaVuSans-33" transform="scale(0.015625)"/>
       </defs>
       <use xlink:href="#DejaVuSans-33"/>
       <use x="63.623047" xlink:href="#DejaVuSans-30"/>
      </g>
     </g>
    </g>
    <g id="ytick_5">
     <g id="line2d_10">
      <g>
       <use style="stroke:#000000;stroke-width:0.8;" x="45.59" xlink:href="#m9ba96d6abe" y="56.742814"/>
      </g>
     </g>
     <g id="text_11">
      <!-- 40 -->
      <g transform="translate(25.865 60.542033)scale(0.1 -0.1)">
       <defs>
        <path d="M 2419 4116 
L 825 1625 
L 2419 1625 
L 2419 4116 
z
M 2253 4666 
L 3047 4666 
L 3047 1625 
L 3713 1625 
L 3713 1100 
L 3047 1100 
L 3047 0 
L 2419 0 
L 2419 1100 
L 313 1100 
L 313 1709 
L 2253 4666 
z
" id="DejaVuSans-34" transform="scale(0.015625)"/>
       </defs>
       <use xlink:href="#DejaVuSans-34"/>
       <use x="63.623047" xlink:href="#DejaVuSans-30"/>
      </g>
     </g>
    </g>
    <g id="text_12">
     <!-- CO$_2$e Emissions Savings (Mt) -->
     <g transform="translate(19.765 272.646)rotate(-90)scale(0.1 -0.1)">
      <defs>
       <path d="M 2522 4238 
Q 1834 4238 1429 3725 
Q 1025 3213 1025 2328 
Q 1025 1447 1429 934 
Q 1834 422 2522 422 
Q 3209 422 3611 934 
Q 4013 1447 4013 2328 
Q 4013 3213 3611 3725 
Q 3209 4238 2522 4238 
z
M 2522 4750 
Q 3503 4750 4090 4092 
Q 4678 3434 4678 2328 
Q 4678 1225 4090 567 
Q 3503 -91 2522 -91 
Q 1538 -91 948 565 
Q 359 1222 359 2328 
Q 359 3434 948 4092 
Q 1538 4750 2522 4750 
z
" id="DejaVuSans-4f" transform="scale(0.015625)"/>
       <path d="M 3597 1894 
L 3597 1613 
L 953 1613 
Q 991 1019 1311 708 
Q 1631 397 2203 397 
Q 2534 397 2845 478 
Q 3156 559 3463 722 
L 3463 178 
Q 3153 47 2828 -22 
Q 2503 -91 2169 -91 
Q 1331 -91 842 396 
Q 353 884 353 1716 
Q 353 2575 817 3079 
Q 1281 3584 2069 3584 
Q 2775 3584 3186 3129 
Q 3597 2675 3597 1894 
z
M 3022 2063 
Q 3016 2534 2758 2815 
Q 2500 3097 2075 3097 
Q 1594 3097 1305 2825 
Q 1016 2553 972 2059 
L 3022 2063 
z
" id="DejaVuSans-65" transform="scale(0.015625)"/>
       <path id="DejaVuSans-20" transform="scale(0.015625)"/>
       <path d="M 628 4666 
L 3578 4666 
L 3578 4134 
L 1259 4134 
L 1259 2753 
L 3481 2753 
L 3481 2222 
L 1259 2222 
L 1259 531 
L 3634 531 
L 3634 0 
L 628 0 
L 628 4666 
z
" id="DejaVuSans-45" transform="scale(0.015625)"/>
       <path d="M 3328 2828 
Q 3544 3216 3844 3400 
Q 4144 3584 4550 3584 
Q 5097 3584 5394 3201 
Q 5691 2819 5691 2113 
L 5691 0 
L 5113 0 
L 5113 2094 
Q 5113 2597 4934 2840 
Q 4756 3084 4391 3084 
Q 3944 3084 3684 2787 
Q 3425 2491 3425 1978 
L 3425 0 
L 2847 0 
L 2847 2094 
Q 2847 2600 2669 2842 
Q 2491 3084 2119 3084 
Q 1678 3084 1418 2786 
Q 1159 2488 1159 1978 
L 1159 0 
L 581 0 
L 581 3500 
L 1159 3500 
L 1159 2956 
Q 1356 3278 1631 3431 
Q 1906 3584 2284 3584 
Q 2666 3584 2933 3390 
Q 3200 3197 3328 2828 
z
" id="DejaVuSans-6d" transform="scale(0.015625)"/>
       <path d="M 603 3500 
L 1178 3500 
L 1178 0 
L 603 0 
L 603 3500 
z
M 603 4863 
L 1178 4863 
L 1178 4134 
L 603 4134 
L 603 4863 
z
" id="DejaVuSans-69" transform="scale(0.015625)"/>
       <path d="M 2834 3397 
L 2834 2853 
Q 2591 2978 2328 3040 
Q 2066 3103 1784 3103 
Q 1356 3103 1142 2972 
Q 928 2841 928 2578 
Q 928 2378 1081 2264 
Q 1234 2150 1697 2047 
L 1894 2003 
Q 2506 1872 2764 1633 
Q 3022 1394 3022 966 
Q 3022 478 2636 193 
Q 2250 -91 1575 -91 
Q 1294 -91 989 -36 
Q 684 19 347 128 
L 347 722 
Q 666 556 975 473 
Q 1284 391 1588 391 
Q 1994 391 2212 530 
Q 2431 669 2431 922 
Q 2431 1156 2273 1281 
Q 2116 1406 1581 1522 
L 1381 1569 
Q 847 1681 609 1914 
Q 372 2147 372 2553 
Q 372 3047 722 3315 
Q 1072 3584 1716 3584 
Q 2034 3584 2315 3537 
Q 2597 3491 2834 3397 
z
" id="DejaVuSans-73" transform="scale(0.015625)"/>
       <path d="M 1959 3097 
Q 1497 3097 1228 2736 
Q 959 2375 959 1747 
Q 959 1119 1226 758 
Q 1494 397 1959 397 
Q 2419 397 2687 759 
Q 2956 1122 2956 1747 
Q 2956 2369 2687 2733 
Q 2419 3097 1959 3097 
z
M 1959 3584 
Q 2709 3584 3137 3096 
Q 3566 2609 3566 1747 
Q 3566 888 3137 398 
Q 2709 -91 1959 -91 
Q 1206 -91 779 398 
Q 353 888 353 1747 
Q 353 2609 779 3096 
Q 1206 3584 1959 3584 
z
" id="DejaVuSans-6f" transform="scale(0.015625)"/>
       <path d="M 3513 2113 
L 3513 0 
L 2938 0 
L 2938 2094 
Q 2938 2591 2744 2837 
Q 2550 3084 2163 3084 
Q 1697 3084 1428 2787 
Q 1159 2491 1159 1978 
L 1159 0 
L 581 0 
L 581 3500 
L 1159 3500 
L 1159 2956 
Q 1366 3272 1645 3428 
Q 1925 3584 2291 3584 
Q 2894 3584 3203 3211 
Q 3513 2838 3513 2113 
z
" id="DejaVuSans-6e" transform="scale(0.015625)"/>
       <path d="M 3425 4513 
L 3425 3897 
Q 3066 4069 2747 4153 
Q 2428 4238 2131 4238 
Q 1616 4238 1336 4038 
Q 1056 3838 1056 3469 
Q 1056 3159 1242 3001 
Q 1428 2844 1947 2747 
L 2328 2669 
Q 3034 2534 3370 2195 
Q 3706 1856 3706 1288 
Q 3706 609 3251 259 
Q 2797 -91 1919 -91 
Q 1588 -91 1214 -16 
Q 841 59 441 206 
L 441 856 
Q 825 641 1194 531 
Q 1563 422 1919 422 
Q 2459 422 2753 634 
Q 3047 847 3047 1241 
Q 3047 1584 2836 1778 
Q 2625 1972 2144 2069 
L 1759 2144 
Q 1053 2284 737 2584 
Q 422 2884 422 3419 
Q 422 4038 858 4394 
Q 1294 4750 2059 4750 
Q 2388 4750 2728 4690 
Q 3069 4631 3425 4513 
z
" id="DejaVuSans-53" transform="scale(0.015625)"/>
       <path d="M 2194 1759 
Q 1497 1759 1228 1600 
Q 959 1441 959 1056 
Q 959 750 1161 570 
Q 1363 391 1709 391 
Q 2188 391 2477 730 
Q 2766 1069 2766 1631 
L 2766 1759 
L 2194 1759 
z
M 3341 1997 
L 3341 0 
L 2766 0 
L 2766 531 
Q 2569 213 2275 61 
Q 1981 -91 1556 -91 
Q 1019 -91 701 211 
Q 384 513 384 1019 
Q 384 1609 779 1909 
Q 1175 2209 1959 2209 
L 2766 2209 
L 2766 2266 
Q 2766 2663 2505 2880 
Q 2244 3097 1772 3097 
Q 1472 3097 1187 3025 
Q 903 2953 641 2809 
L 641 3341 
Q 956 3463 1253 3523 
Q 1550 3584 1831 3584 
Q 2591 3584 2966 3190 
Q 3341 2797 3341 1997 
z
" id="DejaVuSans-61" transform="scale(0.015625)"/>
       <path d="M 191 3500 
L 800 3500 
L 1894 563 
L 2988 3500 
L 3597 3500 
L 2284 0 
L 1503 0 
L 191 3500 
z
" id="DejaVuSans-76" transform="scale(0.015625)"/>
       <path d="M 2906 1791 
Q 2906 2416 2648 2759 
Q 2391 3103 1925 3103 
Q 1463 3103 1205 2759 
Q 947 2416 947 1791 
Q 947 1169 1205 825 
Q 1463 481 1925 481 
Q 2391 481 2648 825 
Q 2906 1169 2906 1791 
z
M 3481 434 
Q 3481 -459 3084 -895 
Q 2688 -1331 1869 -1331 
Q 1566 -1331 1297 -1286 
Q 1028 -1241 775 -1147 
L 775 -588 
Q 1028 -725 1275 -790 
Q 1522 -856 1778 -856 
Q 2344 -856 2625 -561 
Q 2906 -266 2906 331 
L 2906 616 
Q 2728 306 2450 153 
Q 2172 0 1784 0 
Q 1141 0 747 490 
Q 353 981 353 1791 
Q 353 2603 747 3093 
Q 1141 3584 1784 3584 
Q 2172 3584 2450 3431 
Q 2728 3278 2906 2969 
L 2906 3500 
L 3481 3500 
L 3481 434 
z
" id="DejaVuSans-67" transform="scale(0.015625)"/>
       <path d="M 1984 4856 
Q 1566 4138 1362 3434 
Q 1159 2731 1159 2009 
Q 1159 1288 1364 580 
Q 1569 -128 1984 -844 
L 1484 -844 
Q 1016 -109 783 600 
Q 550 1309 550 2009 
Q 550 2706 781 3412 
Q 1013 4119 1484 4856 
L 1984 4856 
z
" id="DejaVuSans-28" transform="scale(0.015625)"/>
       <path d="M 628 4666 
L 1569 4666 
L 2759 1491 
L 3956 4666 
L 4897 4666 
L 4897 0 
L 4281 0 
L 4281 4097 
L 3078 897 
L 2444 897 
L 1241 4097 
L 1241 0 
L 628 0 
L 628 4666 
z
" id="DejaVuSans-4d" transform="scale(0.015625)"/>
       <path d="M 1172 4494 
L 1172 3500 
L 2356 3500 
L 2356 3053 
L 1172 3053 
L 1172 1153 
Q 1172 725 1289 603 
Q 1406 481 1766 481 
L 2356 481 
L 2356 0 
L 1766 0 
Q 1100 0 847 248 
Q 594 497 594 1153 
L 594 3053 
L 172 3053 
L 172 3500 
L 594 3500 
L 594 4494 
L 1172 4494 
z
" id="DejaVuSans-74" transform="scale(0.015625)"/>
       <path d="M 513 4856 
L 1013 4856 
Q 1481 4119 1714 3412 
Q 1947 2706 1947 2009 
Q 1947 1309 1714 600 
Q 1481 -109 1013 -844 
L 513 -844 
Q 928 -128 1133 580 
Q 1338 1288 1338 2009 
Q 1338 2731 1133 3434 
Q 928 4138 513 4856 
z
" id="DejaVuSans-29" transform="scale(0.015625)"/>
      </defs>
      <use transform="translate(0 0.015625)" xlink:href="#DejaVuSans-43"/>
      <use transform="translate(69.824219 0.015625)" xlink:href="#DejaVuSans-4f"/>
      <use transform="translate(149.492188 -16.390625)scale(0.7)" xlink:href="#DejaVuSans-32"/>
      <use transform="translate(196.762695 0.015625)" xlink:href="#DejaVuSans-65"/>
      <use transform="translate(258.286133 0.015625)" xlink:href="#DejaVuSans-20"/>
      <use transform="translate(290.073242 0.015625)" xlink:href="#DejaVuSans-45"/>
      <use transform="translate(353.256836 0.015625)" xlink:href="#DejaVuSans-6d"/>
      <use transform="translate(450.668945 0.015625)" xlink:href="#DejaVuSans-69"/>
      <use transform="translate(478.452148 0.015625)" xlink:href="#DejaVuSans-73"/>
      <use transform="translate(530.551758 0.015625)" xlink:href="#DejaVuSans-73"/>
      <use transform="translate(582.651367 0.015625)" xlink:href="#DejaVuSans-69"/>
      <use transform="translate(610.43457 0.015625)" xlink:href="#DejaVuSans-6f"/>
      <use transform="translate(671.616211 0.015625)" xlink:href="#DejaVuSans-6e"/>
      <use transform="translate(734.995117 0.015625)" xlink:href="#DejaVuSans-73"/>
      <use transform="translate(787.094727 0.015625)" xlink:href="#DejaVuSans-20"/>
      <use transform="translate(818.881836 0.015625)" xlink:href="#DejaVuSans-53"/>
      <use transform="translate(882.358398 0.015625)" xlink:href="#DejaVuSans-61"/>
      <use transform="translate(943.637695 0.015625)" xlink:href="#DejaVuSans-76"/>
      <use transform="translate(1002.817383 0.015625)" xlink:href="#DejaVuSans-69"/>
      <use transform="translate(1030.600586 0.015625)" xlink:href="#DejaVuSans-6e"/>
      <use transform="translate(1093.979492 0.015625)" xlink:href="#DejaVuSans-67"/>
      <use transform="translate(1157.456055 0.015625)" xlink:href="#DejaVuSans-73"/>
      <use transform="translate(1209.555664 0.015625)" xlink:href="#DejaVuSans-20"/>
      <use transform="translate(1241.342773 0.015625)" xlink:href="#DejaVuSans-28"/>
      <use transform="translate(1280.356445 0.015625)" xlink:href="#DejaVuSans-4d"/>
      <use transform="translate(1366.635742 0.015625)" xlink:href="#DejaVuSans-74"/>
      <use transform="translate(1405.844727 0.015625)" xlink:href="#DejaVuSans-29"/>
     </g>
    </g>
   </g>
   <g id="patch_3">
    <path d="M 45.59 389.992 
L 45.59 10.8 
" style="fill:none;stroke:#000000;stroke-linecap:square;stroke-linejoin:miter;stroke-width:0.8;"/>
   </g>
   <g id="patch_4">
    <path d="M 269.265 389.992 
L 269.265 10.8 
" style="fill:none;stroke:#000000;stroke-linecap:square;stroke-linejoin:miter;stroke-width:0.8;"/>
   </g>
   <g id="patch_5">
    <path d="M 45.59 389.992 
L 269.265 389.992 
" style="fill:none;stroke:#000000;stroke-linecap:square;stroke-linejoin:miter;stroke-width:0.8;"/>
   </g>
   <g id="patch_6">
    <path d="M 45.59 10.8 
L 269.265 10.8 
" style="fill:none;stroke:#000000;stroke-linecap:square;stroke-linejoin:miter;stroke-width:0.8;"/>
   </g>
  </g>
 </g>
 <defs>
  <clipPath id="p2be93af39c">
   <rect height="379.192" width="223.675" x="45.59" y="10.8"/>
  </clipPath>
 </defs>
</svg>
