<?xml version="1.0" encoding="utf-8" standalone="no"?>
<!DOCTYPE svg PUBLIC "-//W3C//DTD SVG 1.1//EN"
  "http://www.w3.org/Graphics/SVG/1.1/DTD/svg11.dtd">
<svg height="432pt" version="1.1" viewBox="0 0 288 432" width="288pt" xmlns="http://www.w3.org/2000/svg" xmlns:xlink="http://www.w3.org/1999/xlink">
 <metadata>
  <rdf:RDF xmlns:cc="http://creativecommons.org/ns#" xmlns:dc="http://purl.org/dc/elements/1.1/" xmlns:rdf="http://www.w3.org/1999/02/22-rdf-syntax-ns#">
   <cc:Work>
    <dc:type rdf:resource="http://purl.org/dc/dcmitype/StillImage"/>
    <dc:date>2021-10-21T14:27:32.448791</dc:date>
    <dc:format>image/svg+xml</dc:format>
    <dc:creator>
     <cc:Agent>
      <dc:title>Matplotlib v3.4.1, https://matplotlib.org/</dc:title>
     </cc:Agent>
    </dc:creator>
   </cc:Work>
  </rdf:RDF>
 </metadata>
 <defs>
  <style type="text/css">*{stroke-linecap:butt;stroke-linejoin:round;}</style>
 </defs>
 <g id="figure_1">
  <g id="patch_1">
   <path d="M 0 432 
L 288 432 
L 288 0 
L 0 0 
z
" style="fill:#ffffff;"/>
  </g>
  <g id="axes_1">
   <g id="patch_2">
    <path d="M 45.56 390.04 
L 269.265 390.04 
L 269.265 10.8 
L 45.56 10.8 
z
" style="fill:#ffffff;"/>
   </g>
   <g id="PolyCollection_1">
    <path clip-path="url(#p18a39624eb)" d="M 45.56 390.04 
L 45.56 390.04 
L 47.819646 390.04 
L 50.079293 390.04 
L 52.338939 390.04 
L 54.598586 390.04 
L 56.858232 390.04 
L 59.117879 390.04 
L 61.377525 390.04 
L 63.637172 390.04 
L 65.896818 390.04 
L 68.156465 390.04 
L 70.416111 390.04 
L 72.675758 390.04 
L 74.935404 390.04 
L 77.195051 390.04 
L 79.454697 390.04 
L 81.714343 390.04 
L 83.97399 390.04 
L 86.233636 390.04 
L 88.493283 390.04 
L 90.752929 390.04 
L 93.012576 390.04 
L 95.272222 390.04 
L 97.531869 390.04 
L 99.791515 390.04 
L 102.051162 390.04 
L 104.310808 390.04 
L 106.570455 390.04 
L 108.830101 390.04 
L 111.089747 390.04 
L 113.349394 390.04 
L 115.60904 390.04 
L 117.868687 390.04 
L 120.128333 390.04 
L 122.38798 390.04 
L 124.647626 390.04 
L 126.907273 390.04 
L 129.166919 390.04 
L 131.426566 390.04 
L 133.686212 390.04 
L 135.945859 390.04 
L 138.205505 390.04 
L 140.465152 390.04 
L 142.724798 390.04 
L 144.984444 390.04 
L 147.244091 390.04 
L 149.503737 390.04 
L 151.763384 390.04 
L 154.02303 390.04 
L 156.282677 390.04 
L 158.542323 390.04 
L 160.80197 390.04 
L 163.061616 390.04 
L 165.321263 390.04 
L 167.580909 390.04 
L 169.840556 390.04 
L 172.100202 390.04 
L 174.359848 390.04 
L 176.619495 390.04 
L 178.879141 390.04 
L 181.138788 390.04 
L 183.398434 390.04 
L 185.658081 390.04 
L 187.917727 390.04 
L 190.177374 390.04 
L 192.43702 390.04 
L 194.696667 390.04 
L 196.956313 390.04 
L 199.21596 390.04 
L 201.475606 390.04 
L 203.735253 390.04 
L 205.994899 390.04 
L 208.254545 390.04 
L 210.514192 390.04 
L 212.773838 390.04 
L 215.033485 390.04 
L 217.293131 390.04 
L 219.552778 390.04 
L 221.812424 390.04 
L 224.072071 390.04 
L 226.331717 390.04 
L 228.591364 390.04 
L 230.85101 390.04 
L 233.110657 390.04 
L 235.370303 390.04 
L 237.629949 390.04 
L 239.889596 390.04 
L 242.149242 390.04 
L 244.408889 390.04 
L 246.668535 390.04 
L 248.928182 390.04 
L 251.187828 390.04 
L 253.447475 390.04 
L 255.707121 390.04 
L 257.966768 390.04 
L 260.226414 390.04 
L 262.486061 390.04 
L 264.745707 390.04 
L 267.005354 390.04 
L 269.265 390.04 
L 269.265 156.063909 
L 269.265 156.063909 
L 267.005354 158.372697 
L 264.745707 160.682345 
L 262.486061 162.989568 
L 260.226414 165.292284 
L 257.966768 167.589952 
L 255.707121 169.881737 
L 253.447475 172.166251 
L 251.187828 174.447122 
L 248.928182 176.72608 
L 246.668535 178.995493 
L 244.408889 181.250708 
L 242.149242 183.500257 
L 239.889596 185.74562 
L 237.629949 187.979656 
L 235.370303 190.206507 
L 233.110657 192.424604 
L 230.85101 194.627745 
L 228.591364 196.820814 
L 226.331717 198.996605 
L 224.072071 201.152857 
L 221.812424 203.286552 
L 219.552778 205.398738 
L 217.293131 207.485073 
L 215.033485 209.545297 
L 212.773838 211.581331 
L 210.514192 213.588345 
L 208.254545 215.556218 
L 205.994899 217.481957 
L 203.735253 219.367518 
L 201.475606 221.217873 
L 199.21596 223.026665 
L 196.956313 224.787247 
L 194.696667 226.495662 
L 192.43702 228.151395 
L 190.177374 229.746153 
L 187.917727 231.2651 
L 185.658081 232.693718 
L 183.398434 234.036778 
L 181.138788 235.291341 
L 178.879141 236.445506 
L 176.619495 237.507695 
L 174.359848 238.480281 
L 172.100202 239.367533 
L 169.840556 240.158887 
L 167.580909 240.860127 
L 165.321263 241.453756 
L 163.061616 241.936663 
L 160.80197 242.329213 
L 158.542323 242.639655 
L 156.282677 244.240506 
L 154.02303 247.216005 
L 151.763384 250.191505 
L 149.503737 253.167005 
L 147.244091 256.142505 
L 144.984444 259.118005 
L 142.724798 262.093505 
L 140.465152 265.069005 
L 138.205505 268.044505 
L 135.945859 271.020005 
L 133.686212 273.995504 
L 131.426566 276.971004 
L 129.166919 279.946504 
L 126.907273 282.922004 
L 124.647626 285.897504 
L 122.38798 288.873004 
L 120.128333 291.848504 
L 117.868687 294.824004 
L 115.60904 297.799504 
L 113.349394 300.775003 
L 111.089747 303.750503 
L 108.830101 306.726003 
L 106.570455 309.701503 
L 104.310808 312.677003 
L 102.051162 315.652503 
L 99.791515 318.628003 
L 97.531869 321.603503 
L 95.272222 324.579002 
L 93.012576 327.554502 
L 90.752929 330.530002 
L 88.493283 333.505502 
L 86.233636 336.481002 
L 83.97399 339.456502 
L 81.714343 342.432002 
L 79.454697 345.407502 
L 77.195051 348.383002 
L 74.935404 351.358501 
L 72.675758 354.334001 
L 70.416111 357.309501 
L 68.156465 360.285001 
L 65.896818 363.260501 
L 63.637172 366.236001 
L 61.377525 369.211501 
L 59.117879 372.187001 
L 56.858232 375.162501 
L 54.598586 378.138 
L 52.338939 381.1135 
L 50.079293 384.089 
L 47.819646 387.0645 
L 45.56 390.04 
z
" style="fill:#1f77b4;"/>
   </g>
   <g id="PolyCollection_2">
    <path clip-path="url(#p18a39624eb)" d="M 45.56 390.04 
L 45.56 390.04 
L 47.819646 387.0645 
L 50.079293 384.089 
L 52.338939 381.1135 
L 54.598586 378.138 
L 56.858232 375.162501 
L 59.117879 372.187001 
L 61.377525 369.211501 
L 63.637172 366.236001 
L 65.896818 363.260501 
L 68.156465 360.285001 
L 70.416111 357.309501 
L 72.675758 354.334001 
L 74.935404 351.358501 
L 77.195051 348.383002 
L 79.454697 345.407502 
L 81.714343 342.432002 
L 83.97399 339.456502 
L 86.233636 336.481002 
L 88.493283 333.505502 
L 90.752929 330.530002 
L 93.012576 327.554502 
L 95.272222 324.579002 
L 97.531869 321.603503 
L 99.791515 318.628003 
L 102.051162 315.652503 
L 104.310808 312.677003 
L 106.570455 309.701503 
L 108.830101 306.726003 
L 111.089747 303.750503 
L 113.349394 300.775003 
L 115.60904 297.799504 
L 117.868687 294.824004 
L 120.128333 291.848504 
L 122.38798 288.873004 
L 124.647626 285.897504 
L 126.907273 282.922004 
L 129.166919 279.946504 
L 131.426566 276.971004 
L 133.686212 273.995504 
L 135.945859 271.020005 
L 138.205505 268.044505 
L 140.465152 265.069005 
L 142.724798 262.093505 
L 144.984444 259.118005 
L 147.244091 256.142505 
L 149.503737 253.167005 
L 151.763384 250.191505 
L 154.02303 247.216005 
L 156.282677 244.240506 
L 158.542323 242.639655 
L 160.80197 242.329213 
L 163.061616 241.936663 
L 165.321263 241.453756 
L 167.580909 240.860127 
L 169.840556 240.158887 
L 172.100202 239.367533 
L 174.359848 238.480281 
L 176.619495 237.507695 
L 178.879141 236.445506 
L 181.138788 235.291341 
L 183.398434 234.036778 
L 185.658081 232.693718 
L 187.917727 231.2651 
L 190.177374 229.746153 
L 192.43702 228.151395 
L 194.696667 226.495662 
L 196.956313 224.787247 
L 199.21596 223.026665 
L 201.475606 221.217873 
L 203.735253 219.367518 
L 205.994899 217.481957 
L 208.254545 215.556218 
L 210.514192 213.588345 
L 212.773838 211.581331 
L 215.033485 209.545297 
L 217.293131 207.485073 
L 219.552778 205.398738 
L 221.812424 203.286552 
L 224.072071 201.152857 
L 226.331717 198.996605 
L 228.591364 196.820814 
L 230.85101 194.627745 
L 233.110657 192.424604 
L 235.370303 190.206507 
L 237.629949 187.979656 
L 239.889596 185.74562 
L 242.149242 183.500257 
L 244.408889 181.250708 
L 246.668535 178.995493 
L 248.928182 176.72608 
L 251.187828 174.447122 
L 253.447475 172.166251 
L 255.707121 169.881737 
L 257.966768 167.589952 
L 260.226414 165.292284 
L 262.486061 162.989568 
L 264.745707 160.682345 
L 267.005354 158.372697 
L 269.265 156.063909 
L 269.265 28.859048 
L 269.265 28.859048 
L 267.005354 32.273105 
L 264.745707 35.715193 
L 262.486061 39.184302 
L 260.226414 42.68217 
L 257.966768 46.204853 
L 255.707121 49.747236 
L 253.447475 53.312856 
L 251.187828 56.904924 
L 248.928182 60.519364 
L 246.668535 64.157688 
L 244.408889 67.819848 
L 242.149242 71.502212 
L 239.889596 75.203652 
L 237.629949 78.92721 
L 235.370303 82.677547 
L 233.110657 86.449946 
L 230.85101 90.245934 
L 228.591364 94.064608 
L 226.331717 97.908695 
L 224.072071 101.782356 
L 221.812424 105.690175 
L 219.552778 109.627902 
L 217.293131 113.602147 
L 215.033485 117.60957 
L 212.773838 121.646863 
L 210.514192 125.719782 
L 208.254545 129.841576 
L 205.994899 134.015197 
L 203.735253 138.236662 
L 201.475606 142.504225 
L 199.21596 146.821106 
L 196.956313 151.194251 
L 194.696667 155.629912 
L 192.43702 160.127636 
L 190.177374 164.696519 
L 187.917727 169.353877 
L 185.658081 174.116653 
L 183.398434 178.979279 
L 181.138788 183.945185 
L 178.879141 189.028259 
L 176.619495 194.218674 
L 174.359848 199.513658 
L 172.100202 204.908232 
L 169.840556 210.414722 
L 167.580909 216.02638 
L 165.321263 221.763623 
L 163.061616 227.630084 
L 160.80197 233.601996 
L 158.542323 239.669732 
L 156.282677 244.240506 
L 154.02303 247.216005 
L 151.763384 250.191505 
L 149.503737 253.167005 
L 147.244091 256.142505 
L 144.984444 259.118005 
L 142.724798 262.093505 
L 140.465152 265.069005 
L 138.205505 268.044505 
L 135.945859 271.020005 
L 133.686212 273.995504 
L 131.426566 276.971004 
L 129.166919 279.946504 
L 126.907273 282.922004 
L 124.647626 285.897504 
L 122.38798 288.873004 
L 120.128333 291.848504 
L 117.868687 294.824004 
L 115.60904 297.799504 
L 113.349394 300.775003 
L 111.089747 303.750503 
L 108.830101 306.726003 
L 106.570455 309.701503 
L 104.310808 312.677003 
L 102.051162 315.652503 
L 99.791515 318.628003 
L 97.531869 321.603503 
L 95.272222 324.579002 
L 93.012576 327.554502 
L 90.752929 330.530002 
L 88.493283 333.505502 
L 86.233636 336.481002 
L 83.97399 339.456502 
L 81.714343 342.432002 
L 79.454697 345.407502 
L 77.195051 348.383002 
L 74.935404 351.358501 
L 72.675758 354.334001 
L 70.416111 357.309501 
L 68.156465 360.285001 
L 65.896818 363.260501 
L 63.637172 366.236001 
L 61.377525 369.211501 
L 59.117879 372.187001 
L 56.858232 375.162501 
L 54.598586 378.138 
L 52.338939 381.1135 
L 50.079293 384.089 
L 47.819646 387.0645 
L 45.56 390.04 
z
" style="fill:#ff7f0e;"/>
   </g>
   <g id="matplotlib.axis_1">
    <g id="xtick_1">
     <g id="line2d_1">
      <defs>
       <path d="M 0 0 
L 0 3.5 
" id="m0ca66d65ed" style="stroke:#000000;stroke-width:0.8;"/>
      </defs>
      <g>
       <use style="stroke:#000000;stroke-width:0.8;" x="45.56" xlink:href="#m0ca66d65ed" y="390.04"/>
      </g>
     </g>
     <g id="text_1">
      <!-- 0.0 -->
      <g transform="translate(37.608438 404.638438)scale(0.1 -0.1)">
       <defs>
        <path d="M 2034 4250 
Q 1547 4250 1301 3770 
Q 1056 3291 1056 2328 
Q 1056 1369 1301 889 
Q 1547 409 2034 409 
Q 2525 409 2770 889 
Q 3016 1369 3016 2328 
Q 3016 3291 2770 3770 
Q 2525 4250 2034 4250 
z
M 2034 4750 
Q 2819 4750 3233 4129 
Q 3647 3509 3647 2328 
Q 3647 1150 3233 529 
Q 2819 -91 2034 -91 
Q 1250 -91 836 529 
Q 422 1150 422 2328 
Q 422 3509 836 4129 
Q 1250 4750 2034 4750 
z
" id="DejaVuSans-30" transform="scale(0.015625)"/>
        <path d="M 684 794 
L 1344 794 
L 1344 0 
L 684 0 
L 684 794 
z
" id="DejaVuSans-2e" transform="scale(0.015625)"/>
       </defs>
       <use xlink:href="#DejaVuSans-30"/>
       <use x="63.623047" xlink:href="#DejaVuSans-2e"/>
       <use x="95.410156" xlink:href="#DejaVuSans-30"/>
      </g>
     </g>
    </g>
    <g id="xtick_2">
     <g id="line2d_2">
      <g>
       <use style="stroke:#000000;stroke-width:0.8;" x="101.48625" xlink:href="#m0ca66d65ed" y="390.04"/>
      </g>
     </g>
     <g id="text_2">
      <!-- 0.5 -->
      <g transform="translate(93.534688 404.638438)scale(0.1 -0.1)">
       <defs>
        <path d="M 691 4666 
L 3169 4666 
L 3169 4134 
L 1269 4134 
L 1269 2991 
Q 1406 3038 1543 3061 
Q 1681 3084 1819 3084 
Q 2600 3084 3056 2656 
Q 3513 2228 3513 1497 
Q 3513 744 3044 326 
Q 2575 -91 1722 -91 
Q 1428 -91 1123 -41 
Q 819 9 494 109 
L 494 744 
Q 775 591 1075 516 
Q 1375 441 1709 441 
Q 2250 441 2565 725 
Q 2881 1009 2881 1497 
Q 2881 1984 2565 2268 
Q 2250 2553 1709 2553 
Q 1456 2553 1204 2497 
Q 953 2441 691 2322 
L 691 4666 
z
" id="DejaVuSans-35" transform="scale(0.015625)"/>
       </defs>
       <use xlink:href="#DejaVuSans-30"/>
       <use x="63.623047" xlink:href="#DejaVuSans-2e"/>
       <use x="95.410156" xlink:href="#DejaVuSans-35"/>
      </g>
     </g>
    </g>
    <g id="xtick_3">
     <g id="line2d_3">
      <g>
       <use style="stroke:#000000;stroke-width:0.8;" x="157.4125" xlink:href="#m0ca66d65ed" y="390.04"/>
      </g>
     </g>
     <g id="text_3">
      <!-- 1.0 -->
      <g transform="translate(149.460938 404.638438)scale(0.1 -0.1)">
       <defs>
        <path d="M 794 531 
L 1825 531 
L 1825 4091 
L 703 3866 
L 703 4441 
L 1819 4666 
L 2450 4666 
L 2450 531 
L 3481 531 
L 3481 0 
L 794 0 
L 794 531 
z
" id="DejaVuSans-31" transform="scale(0.015625)"/>
       </defs>
       <use xlink:href="#DejaVuSans-31"/>
       <use x="63.623047" xlink:href="#DejaVuSans-2e"/>
       <use x="95.410156" xlink:href="#DejaVuSans-30"/>
      </g>
     </g>
    </g>
    <g id="xtick_4">
     <g id="line2d_4">
      <g>
       <use style="stroke:#000000;stroke-width:0.8;" x="213.33875" xlink:href="#m0ca66d65ed" y="390.04"/>
      </g>
     </g>
     <g id="text_4">
      <!-- 1.5 -->
      <g transform="translate(205.387188 404.638438)scale(0.1 -0.1)">
       <use xlink:href="#DejaVuSans-31"/>
       <use x="63.623047" xlink:href="#DejaVuSans-2e"/>
       <use x="95.410156" xlink:href="#DejaVuSans-35"/>
      </g>
     </g>
    </g>
    <g id="xtick_5">
     <g id="line2d_5">
      <g>
       <use style="stroke:#000000;stroke-width:0.8;" x="269.265" xlink:href="#m0ca66d65ed" y="390.04"/>
      </g>
     </g>
     <g id="text_5">
      <!-- 2.0 -->
      <g transform="translate(261.313438 404.638438)scale(0.1 -0.1)">
       <defs>
        <path d="M 1228 531 
L 3431 531 
L 3431 0 
L 469 0 
L 469 531 
Q 828 903 1448 1529 
Q 2069 2156 2228 2338 
Q 2531 2678 2651 2914 
Q 2772 3150 2772 3378 
Q 2772 3750 2511 3984 
Q 2250 4219 1831 4219 
Q 1534 4219 1204 4116 
Q 875 4013 500 3803 
L 500 4441 
Q 881 4594 1212 4672 
Q 1544 4750 1819 4750 
Q 2544 4750 2975 4387 
Q 3406 4025 3406 3419 
Q 3406 3131 3298 2873 
Q 3191 2616 2906 2266 
Q 2828 2175 2409 1742 
Q 1991 1309 1228 531 
z
" id="DejaVuSans-32" transform="scale(0.015625)"/>
       </defs>
       <use xlink:href="#DejaVuSans-32"/>
       <use x="63.623047" xlink:href="#DejaVuSans-2e"/>
       <use x="95.410156" xlink:href="#DejaVuSans-30"/>
      </g>
     </g>
    </g>
    <g id="text_6">
     <!-- Additional Solar Capacity -->
     <g transform="translate(94.539844 418.316562)scale(0.1 -0.1)">
      <defs>
       <path d="M 2188 4044 
L 1331 1722 
L 3047 1722 
L 2188 4044 
z
M 1831 4666 
L 2547 4666 
L 4325 0 
L 3669 0 
L 3244 1197 
L 1141 1197 
L 716 0 
L 50 0 
L 1831 4666 
z
" id="DejaVuSans-41" transform="scale(0.015625)"/>
       <path d="M 2906 2969 
L 2906 4863 
L 3481 4863 
L 3481 0 
L 2906 0 
L 2906 525 
Q 2725 213 2448 61 
Q 2172 -91 1784 -91 
Q 1150 -91 751 415 
Q 353 922 353 1747 
Q 353 2572 751 3078 
Q 1150 3584 1784 3584 
Q 2172 3584 2448 3432 
Q 2725 3281 2906 2969 
z
M 947 1747 
Q 947 1113 1208 752 
Q 1469 391 1925 391 
Q 2381 391 2643 752 
Q 2906 1113 2906 1747 
Q 2906 2381 2643 2742 
Q 2381 3103 1925 3103 
Q 1469 3103 1208 2742 
Q 947 2381 947 1747 
z
" id="DejaVuSans-64" transform="scale(0.015625)"/>
       <path d="M 603 3500 
L 1178 3500 
L 1178 0 
L 603 0 
L 603 3500 
z
M 603 4863 
L 1178 4863 
L 1178 4134 
L 603 4134 
L 603 4863 
z
" id="DejaVuSans-69" transform="scale(0.015625)"/>
       <path d="M 1172 4494 
L 1172 3500 
L 2356 3500 
L 2356 3053 
L 1172 3053 
L 1172 1153 
Q 1172 725 1289 603 
Q 1406 481 1766 481 
L 2356 481 
L 2356 0 
L 1766 0 
Q 1100 0 847 248 
Q 594 497 594 1153 
L 594 3053 
L 172 3053 
L 172 3500 
L 594 3500 
L 594 4494 
L 1172 4494 
z
" id="DejaVuSans-74" transform="scale(0.015625)"/>
       <path d="M 1959 3097 
Q 1497 3097 1228 2736 
Q 959 2375 959 1747 
Q 959 1119 1226 758 
Q 1494 397 1959 397 
Q 2419 397 2687 759 
Q 2956 1122 2956 1747 
Q 2956 2369 2687 2733 
Q 2419 3097 1959 3097 
z
M 1959 3584 
Q 2709 3584 3137 3096 
Q 3566 2609 3566 1747 
Q 3566 888 3137 398 
Q 2709 -91 1959 -91 
Q 1206 -91 779 398 
Q 353 888 353 1747 
Q 353 2609 779 3096 
Q 1206 3584 1959 3584 
z
" id="DejaVuSans-6f" transform="scale(0.015625)"/>
       <path d="M 3513 2113 
L 3513 0 
L 2938 0 
L 2938 2094 
Q 2938 2591 2744 2837 
Q 2550 3084 2163 3084 
Q 1697 3084 1428 2787 
Q 1159 2491 1159 1978 
L 1159 0 
L 581 0 
L 581 3500 
L 1159 3500 
L 1159 2956 
Q 1366 3272 1645 3428 
Q 1925 3584 2291 3584 
Q 2894 3584 3203 3211 
Q 3513 2838 3513 2113 
z
" id="DejaVuSans-6e" transform="scale(0.015625)"/>
       <path d="M 2194 1759 
Q 1497 1759 1228 1600 
Q 959 1441 959 1056 
Q 959 750 1161 570 
Q 1363 391 1709 391 
Q 2188 391 2477 730 
Q 2766 1069 2766 1631 
L 2766 1759 
L 2194 1759 
z
M 3341 1997 
L 3341 0 
L 2766 0 
L 2766 531 
Q 2569 213 2275 61 
Q 1981 -91 1556 -91 
Q 1019 -91 701 211 
Q 384 513 384 1019 
Q 384 1609 779 1909 
Q 1175 2209 1959 2209 
L 2766 2209 
L 2766 2266 
Q 2766 2663 2505 2880 
Q 2244 3097 1772 3097 
Q 1472 3097 1187 3025 
Q 903 2953 641 2809 
L 641 3341 
Q 956 3463 1253 3523 
Q 1550 3584 1831 3584 
Q 2591 3584 2966 3190 
Q 3341 2797 3341 1997 
z
" id="DejaVuSans-61" transform="scale(0.015625)"/>
       <path d="M 603 4863 
L 1178 4863 
L 1178 0 
L 603 0 
L 603 4863 
z
" id="DejaVuSans-6c" transform="scale(0.015625)"/>
       <path id="DejaVuSans-20" transform="scale(0.015625)"/>
       <path d="M 3425 4513 
L 3425 3897 
Q 3066 4069 2747 4153 
Q 2428 4238 2131 4238 
Q 1616 4238 1336 4038 
Q 1056 3838 1056 3469 
Q 1056 3159 1242 3001 
Q 1428 2844 1947 2747 
L 2328 2669 
Q 3034 2534 3370 2195 
Q 3706 1856 3706 1288 
Q 3706 609 3251 259 
Q 2797 -91 1919 -91 
Q 1588 -91 1214 -16 
Q 841 59 441 206 
L 441 856 
Q 825 641 1194 531 
Q 1563 422 1919 422 
Q 2459 422 2753 634 
Q 3047 847 3047 1241 
Q 3047 1584 2836 1778 
Q 2625 1972 2144 2069 
L 1759 2144 
Q 1053 2284 737 2584 
Q 422 2884 422 3419 
Q 422 4038 858 4394 
Q 1294 4750 2059 4750 
Q 2388 4750 2728 4690 
Q 3069 4631 3425 4513 
z
" id="DejaVuSans-53" transform="scale(0.015625)"/>
       <path d="M 2631 2963 
Q 2534 3019 2420 3045 
Q 2306 3072 2169 3072 
Q 1681 3072 1420 2755 
Q 1159 2438 1159 1844 
L 1159 0 
L 581 0 
L 581 3500 
L 1159 3500 
L 1159 2956 
Q 1341 3275 1631 3429 
Q 1922 3584 2338 3584 
Q 2397 3584 2469 3576 
Q 2541 3569 2628 3553 
L 2631 2963 
z
" id="DejaVuSans-72" transform="scale(0.015625)"/>
       <path d="M 4122 4306 
L 4122 3641 
Q 3803 3938 3442 4084 
Q 3081 4231 2675 4231 
Q 1875 4231 1450 3742 
Q 1025 3253 1025 2328 
Q 1025 1406 1450 917 
Q 1875 428 2675 428 
Q 3081 428 3442 575 
Q 3803 722 4122 1019 
L 4122 359 
Q 3791 134 3420 21 
Q 3050 -91 2638 -91 
Q 1578 -91 968 557 
Q 359 1206 359 2328 
Q 359 3453 968 4101 
Q 1578 4750 2638 4750 
Q 3056 4750 3426 4639 
Q 3797 4528 4122 4306 
z
" id="DejaVuSans-43" transform="scale(0.015625)"/>
       <path d="M 1159 525 
L 1159 -1331 
L 581 -1331 
L 581 3500 
L 1159 3500 
L 1159 2969 
Q 1341 3281 1617 3432 
Q 1894 3584 2278 3584 
Q 2916 3584 3314 3078 
Q 3713 2572 3713 1747 
Q 3713 922 3314 415 
Q 2916 -91 2278 -91 
Q 1894 -91 1617 61 
Q 1341 213 1159 525 
z
M 3116 1747 
Q 3116 2381 2855 2742 
Q 2594 3103 2138 3103 
Q 1681 3103 1420 2742 
Q 1159 2381 1159 1747 
Q 1159 1113 1420 752 
Q 1681 391 2138 391 
Q 2594 391 2855 752 
Q 3116 1113 3116 1747 
z
" id="DejaVuSans-70" transform="scale(0.015625)"/>
       <path d="M 3122 3366 
L 3122 2828 
Q 2878 2963 2633 3030 
Q 2388 3097 2138 3097 
Q 1578 3097 1268 2742 
Q 959 2388 959 1747 
Q 959 1106 1268 751 
Q 1578 397 2138 397 
Q 2388 397 2633 464 
Q 2878 531 3122 666 
L 3122 134 
Q 2881 22 2623 -34 
Q 2366 -91 2075 -91 
Q 1284 -91 818 406 
Q 353 903 353 1747 
Q 353 2603 823 3093 
Q 1294 3584 2113 3584 
Q 2378 3584 2631 3529 
Q 2884 3475 3122 3366 
z
" id="DejaVuSans-63" transform="scale(0.015625)"/>
       <path d="M 2059 -325 
Q 1816 -950 1584 -1140 
Q 1353 -1331 966 -1331 
L 506 -1331 
L 506 -850 
L 844 -850 
Q 1081 -850 1212 -737 
Q 1344 -625 1503 -206 
L 1606 56 
L 191 3500 
L 800 3500 
L 1894 763 
L 2988 3500 
L 3597 3500 
L 2059 -325 
z
" id="DejaVuSans-79" transform="scale(0.015625)"/>
      </defs>
      <use xlink:href="#DejaVuSans-41"/>
      <use x="66.658203" xlink:href="#DejaVuSans-64"/>
      <use x="130.134766" xlink:href="#DejaVuSans-64"/>
      <use x="193.611328" xlink:href="#DejaVuSans-69"/>
      <use x="221.394531" xlink:href="#DejaVuSans-74"/>
      <use x="260.603516" xlink:href="#DejaVuSans-69"/>
      <use x="288.386719" xlink:href="#DejaVuSans-6f"/>
      <use x="349.568359" xlink:href="#DejaVuSans-6e"/>
      <use x="412.947266" xlink:href="#DejaVuSans-61"/>
      <use x="474.226562" xlink:href="#DejaVuSans-6c"/>
      <use x="502.009766" xlink:href="#DejaVuSans-20"/>
      <use x="533.796875" xlink:href="#DejaVuSans-53"/>
      <use x="597.273438" xlink:href="#DejaVuSans-6f"/>
      <use x="658.455078" xlink:href="#DejaVuSans-6c"/>
      <use x="686.238281" xlink:href="#DejaVuSans-61"/>
      <use x="747.517578" xlink:href="#DejaVuSans-72"/>
      <use x="788.630859" xlink:href="#DejaVuSans-20"/>
      <use x="820.417969" xlink:href="#DejaVuSans-43"/>
      <use x="890.242188" xlink:href="#DejaVuSans-61"/>
      <use x="951.521484" xlink:href="#DejaVuSans-70"/>
      <use x="1014.998047" xlink:href="#DejaVuSans-61"/>
      <use x="1076.277344" xlink:href="#DejaVuSans-63"/>
      <use x="1131.257812" xlink:href="#DejaVuSans-69"/>
      <use x="1159.041016" xlink:href="#DejaVuSans-74"/>
      <use x="1198.25" xlink:href="#DejaVuSans-79"/>
     </g>
    </g>
   </g>
   <g id="matplotlib.axis_2">
    <g id="ytick_1">
     <g id="line2d_6">
      <defs>
       <path d="M 0 0 
L -3.5 0 
" id="m92b9169f1e" style="stroke:#000000;stroke-width:0.8;"/>
      </defs>
      <g>
       <use style="stroke:#000000;stroke-width:0.8;" x="45.56" xlink:href="#m92b9169f1e" y="390.04"/>
      </g>
     </g>
     <g id="text_7">
      <!-- 0 -->
      <g transform="translate(32.1975 393.839219)scale(0.1 -0.1)">
       <use xlink:href="#DejaVuSans-30"/>
      </g>
     </g>
    </g>
    <g id="ytick_2">
     <g id="line2d_7">
      <g>
       <use style="stroke:#000000;stroke-width:0.8;" x="45.56" xlink:href="#m92b9169f1e" y="305.937582"/>
      </g>
     </g>
     <g id="text_8">
      <!-- 5 -->
      <g transform="translate(32.1975 309.7368)scale(0.1 -0.1)">
       <use xlink:href="#DejaVuSans-35"/>
      </g>
     </g>
    </g>
    <g id="ytick_3">
     <g id="line2d_8">
      <g>
       <use style="stroke:#000000;stroke-width:0.8;" x="45.56" xlink:href="#m92b9169f1e" y="221.835163"/>
      </g>
     </g>
     <g id="text_9">
      <!-- 10 -->
      <g transform="translate(25.835 225.634382)scale(0.1 -0.1)">
       <use xlink:href="#DejaVuSans-31"/>
       <use x="63.623047" xlink:href="#DejaVuSans-30"/>
      </g>
     </g>
    </g>
    <g id="ytick_4">
     <g id="line2d_9">
      <g>
       <use style="stroke:#000000;stroke-width:0.8;" x="45.56" xlink:href="#m92b9169f1e" y="137.732745"/>
      </g>
     </g>
     <g id="text_10">
      <!-- 15 -->
      <g transform="translate(25.835 141.531964)scale(0.1 -0.1)">
       <use xlink:href="#DejaVuSans-31"/>
       <use x="63.623047" xlink:href="#DejaVuSans-35"/>
      </g>
     </g>
    </g>
    <g id="ytick_5">
     <g id="line2d_10">
      <g>
       <use style="stroke:#000000;stroke-width:0.8;" x="45.56" xlink:href="#m92b9169f1e" y="53.630327"/>
      </g>
     </g>
     <g id="text_11">
      <!-- 20 -->
      <g transform="translate(25.835 57.429545)scale(0.1 -0.1)">
       <use xlink:href="#DejaVuSans-32"/>
       <use x="63.623047" xlink:href="#DejaVuSans-30"/>
      </g>
     </g>
    </g>
    <g id="text_12">
     <!-- CO$_2$e Emissions Savings (Mt) -->
     <g transform="translate(19.735 272.67)rotate(-90)scale(0.1 -0.1)">
      <defs>
       <path d="M 2522 4238 
Q 1834 4238 1429 3725 
Q 1025 3213 1025 2328 
Q 1025 1447 1429 934 
Q 1834 422 2522 422 
Q 3209 422 3611 934 
Q 4013 1447 4013 2328 
Q 4013 3213 3611 3725 
Q 3209 4238 2522 4238 
z
M 2522 4750 
Q 3503 4750 4090 4092 
Q 4678 3434 4678 2328 
Q 4678 1225 4090 567 
Q 3503 -91 2522 -91 
Q 1538 -91 948 565 
Q 359 1222 359 2328 
Q 359 3434 948 4092 
Q 1538 4750 2522 4750 
z
" id="DejaVuSans-4f" transform="scale(0.015625)"/>
       <path d="M 3597 1894 
L 3597 1613 
L 953 1613 
Q 991 1019 1311 708 
Q 1631 397 2203 397 
Q 2534 397 2845 478 
Q 3156 559 3463 722 
L 3463 178 
Q 3153 47 2828 -22 
Q 2503 -91 2169 -91 
Q 1331 -91 842 396 
Q 353 884 353 1716 
Q 353 2575 817 3079 
Q 1281 3584 2069 3584 
Q 2775 3584 3186 3129 
Q 3597 2675 3597 1894 
z
M 3022 2063 
Q 3016 2534 2758 2815 
Q 2500 3097 2075 3097 
Q 1594 3097 1305 2825 
Q 1016 2553 972 2059 
L 3022 2063 
z
" id="DejaVuSans-65" transform="scale(0.015625)"/>
       <path d="M 628 4666 
L 3578 4666 
L 3578 4134 
L 1259 4134 
L 1259 2753 
L 3481 2753 
L 3481 2222 
L 1259 2222 
L 1259 531 
L 3634 531 
L 3634 0 
L 628 0 
L 628 4666 
z
" id="DejaVuSans-45" transform="scale(0.015625)"/>
       <path d="M 3328 2828 
Q 3544 3216 3844 3400 
Q 4144 3584 4550 3584 
Q 5097 3584 5394 3201 
Q 5691 2819 5691 2113 
L 5691 0 
L 5113 0 
L 5113 2094 
Q 5113 2597 4934 2840 
Q 4756 3084 4391 3084 
Q 3944 3084 3684 2787 
Q 3425 2491 3425 1978 
L 3425 0 
L 2847 0 
L 2847 2094 
Q 2847 2600 2669 2842 
Q 2491 3084 2119 3084 
Q 1678 3084 1418 2786 
Q 1159 2488 1159 1978 
L 1159 0 
L 581 0 
L 581 3500 
L 1159 3500 
L 1159 2956 
Q 1356 3278 1631 3431 
Q 1906 3584 2284 3584 
Q 2666 3584 2933 3390 
Q 3200 3197 3328 2828 
z
" id="DejaVuSans-6d" transform="scale(0.015625)"/>
       <path d="M 2834 3397 
L 2834 2853 
Q 2591 2978 2328 3040 
Q 2066 3103 1784 3103 
Q 1356 3103 1142 2972 
Q 928 2841 928 2578 
Q 928 2378 1081 2264 
Q 1234 2150 1697 2047 
L 1894 2003 
Q 2506 1872 2764 1633 
Q 3022 1394 3022 966 
Q 3022 478 2636 193 
Q 2250 -91 1575 -91 
Q 1294 -91 989 -36 
Q 684 19 347 128 
L 347 722 
Q 666 556 975 473 
Q 1284 391 1588 391 
Q 1994 391 2212 530 
Q 2431 669 2431 922 
Q 2431 1156 2273 1281 
Q 2116 1406 1581 1522 
L 1381 1569 
Q 847 1681 609 1914 
Q 372 2147 372 2553 
Q 372 3047 722 3315 
Q 1072 3584 1716 3584 
Q 2034 3584 2315 3537 
Q 2597 3491 2834 3397 
z
" id="DejaVuSans-73" transform="scale(0.015625)"/>
       <path d="M 191 3500 
L 800 3500 
L 1894 563 
L 2988 3500 
L 3597 3500 
L 2284 0 
L 1503 0 
L 191 3500 
z
" id="DejaVuSans-76" transform="scale(0.015625)"/>
       <path d="M 2906 1791 
Q 2906 2416 2648 2759 
Q 2391 3103 1925 3103 
Q 1463 3103 1205 2759 
Q 947 2416 947 1791 
Q 947 1169 1205 825 
Q 1463 481 1925 481 
Q 2391 481 2648 825 
Q 2906 1169 2906 1791 
z
M 3481 434 
Q 3481 -459 3084 -895 
Q 2688 -1331 1869 -1331 
Q 1566 -1331 1297 -1286 
Q 1028 -1241 775 -1147 
L 775 -588 
Q 1028 -725 1275 -790 
Q 1522 -856 1778 -856 
Q 2344 -856 2625 -561 
Q 2906 -266 2906 331 
L 2906 616 
Q 2728 306 2450 153 
Q 2172 0 1784 0 
Q 1141 0 747 490 
Q 353 981 353 1791 
Q 353 2603 747 3093 
Q 1141 3584 1784 3584 
Q 2172 3584 2450 3431 
Q 2728 3278 2906 2969 
L 2906 3500 
L 3481 3500 
L 3481 434 
z
" id="DejaVuSans-67" transform="scale(0.015625)"/>
       <path d="M 1984 4856 
Q 1566 4138 1362 3434 
Q 1159 2731 1159 2009 
Q 1159 1288 1364 580 
Q 1569 -128 1984 -844 
L 1484 -844 
Q 1016 -109 783 600 
Q 550 1309 550 2009 
Q 550 2706 781 3412 
Q 1013 4119 1484 4856 
L 1984 4856 
z
" id="DejaVuSans-28" transform="scale(0.015625)"/>
       <path d="M 628 4666 
L 1569 4666 
L 2759 1491 
L 3956 4666 
L 4897 4666 
L 4897 0 
L 4281 0 
L 4281 4097 
L 3078 897 
L 2444 897 
L 1241 4097 
L 1241 0 
L 628 0 
L 628 4666 
z
" id="DejaVuSans-4d" transform="scale(0.015625)"/>
       <path d="M 513 4856 
L 1013 4856 
Q 1481 4119 1714 3412 
Q 1947 2706 1947 2009 
Q 1947 1309 1714 600 
Q 1481 -109 1013 -844 
L 513 -844 
Q 928 -128 1133 580 
Q 1338 1288 1338 2009 
Q 1338 2731 1133 3434 
Q 928 4138 513 4856 
z
" id="DejaVuSans-29" transform="scale(0.015625)"/>
      </defs>
      <use transform="translate(0 0.015625)" xlink:href="#DejaVuSans-43"/>
      <use transform="translate(69.824219 0.015625)" xlink:href="#DejaVuSans-4f"/>
      <use transform="translate(149.492188 -16.390625)scale(0.7)" xlink:href="#DejaVuSans-32"/>
      <use transform="translate(196.762695 0.015625)" xlink:href="#DejaVuSans-65"/>
      <use transform="translate(258.286133 0.015625)" xlink:href="#DejaVuSans-20"/>
      <use transform="translate(290.073242 0.015625)" xlink:href="#DejaVuSans-45"/>
      <use transform="translate(353.256836 0.015625)" xlink:href="#DejaVuSans-6d"/>
      <use transform="translate(450.668945 0.015625)" xlink:href="#DejaVuSans-69"/>
      <use transform="translate(478.452148 0.015625)" xlink:href="#DejaVuSans-73"/>
      <use transform="translate(530.551758 0.015625)" xlink:href="#DejaVuSans-73"/>
      <use transform="translate(582.651367 0.015625)" xlink:href="#DejaVuSans-69"/>
      <use transform="translate(610.43457 0.015625)" xlink:href="#DejaVuSans-6f"/>
      <use transform="translate(671.616211 0.015625)" xlink:href="#DejaVuSans-6e"/>
      <use transform="translate(734.995117 0.015625)" xlink:href="#DejaVuSans-73"/>
      <use transform="translate(787.094727 0.015625)" xlink:href="#DejaVuSans-20"/>
      <use transform="translate(818.881836 0.015625)" xlink:href="#DejaVuSans-53"/>
      <use transform="translate(882.358398 0.015625)" xlink:href="#DejaVuSans-61"/>
      <use transform="translate(943.637695 0.015625)" xlink:href="#DejaVuSans-76"/>
      <use transform="translate(1002.817383 0.015625)" xlink:href="#DejaVuSans-69"/>
      <use transform="translate(1030.600586 0.015625)" xlink:href="#DejaVuSans-6e"/>
      <use transform="translate(1093.979492 0.015625)" xlink:href="#DejaVuSans-67"/>
      <use transform="translate(1157.456055 0.015625)" xlink:href="#DejaVuSans-73"/>
      <use transform="translate(1209.555664 0.015625)" xlink:href="#DejaVuSans-20"/>
      <use transform="translate(1241.342773 0.015625)" xlink:href="#DejaVuSans-28"/>
      <use transform="translate(1280.356445 0.015625)" xlink:href="#DejaVuSans-4d"/>
      <use transform="translate(1366.635742 0.015625)" xlink:href="#DejaVuSans-74"/>
      <use transform="translate(1405.844727 0.015625)" xlink:href="#DejaVuSans-29"/>
     </g>
    </g>
   </g>
   <g id="patch_3">
    <path d="M 45.56 390.04 
L 45.56 10.8 
" style="fill:none;stroke:#000000;stroke-linecap:square;stroke-linejoin:miter;stroke-width:0.8;"/>
   </g>
   <g id="patch_4">
    <path d="M 269.265 390.04 
L 269.265 10.8 
" style="fill:none;stroke:#000000;stroke-linecap:square;stroke-linejoin:miter;stroke-width:0.8;"/>
   </g>
   <g id="patch_5">
    <path d="M 45.56 390.04 
L 269.265 390.04 
" style="fill:none;stroke:#000000;stroke-linecap:square;stroke-linejoin:miter;stroke-width:0.8;"/>
   </g>
   <g id="patch_6">
    <path d="M 45.56 10.8 
L 269.265 10.8 
" style="fill:none;stroke:#000000;stroke-linecap:square;stroke-linejoin:miter;stroke-width:0.8;"/>
   </g>
  </g>
 </g>
 <defs>
  <clipPath id="p18a39624eb">
   <rect height="379.24" width="223.705" x="45.56" y="10.8"/>
  </clipPath>
 </defs>
</svg>
