<?xml version="1.0" encoding="utf-8" standalone="no"?>
<!DOCTYPE svg PUBLIC "-//W3C//DTD SVG 1.1//EN"
  "http://www.w3.org/Graphics/SVG/1.1/DTD/svg11.dtd">
<svg height="345.6pt" version="1.1" viewBox="0 0 460.8 345.6" width="460.8pt" xmlns="http://www.w3.org/2000/svg" xmlns:xlink="http://www.w3.org/1999/xlink">
 <metadata>
  <rdf:RDF xmlns:cc="http://creativecommons.org/ns#" xmlns:dc="http://purl.org/dc/elements/1.1/" xmlns:rdf="http://www.w3.org/1999/02/22-rdf-syntax-ns#">
   <cc:Work>
    <dc:type rdf:resource="http://purl.org/dc/dcmitype/StillImage"/>
    <dc:date>2021-08-20T10:21:11.166710</dc:date>
    <dc:format>image/svg+xml</dc:format>
    <dc:creator>
     <cc:Agent>
      <dc:title>Matplotlib v3.4.1, https://matplotlib.org/</dc:title>
     </cc:Agent>
    </dc:creator>
   </cc:Work>
  </rdf:RDF>
 </metadata>
 <defs>
  <style type="text/css">*{stroke-linecap:butt;stroke-linejoin:round;}</style>
 </defs>
 <g id="figure_1">
  <g id="patch_1">
   <path d="M 0 345.6 
L 460.8 345.6 
L 460.8 0 
L 0 0 
z
" style="fill:#ffffff;"/>
  </g>
  <g id="axes_1">
   <g id="patch_2">
    <path d="M 57.6 307.584 
L 414.72 307.584 
L 414.72 41.472 
L 57.6 41.472 
z
" style="fill:#ffffff;"/>
   </g>
   <g id="matplotlib.axis_1">
    <g id="xtick_1">
     <g id="line2d_1">
      <defs>
       <path d="M 0 0 
L 0 3.5 
" id="m5977b80093" style="stroke:#000000;stroke-width:0.8;"/>
      </defs>
      <g>
       <use style="stroke:#000000;stroke-width:0.8;" x="85.85697" xlink:href="#m5977b80093" y="307.584"/>
      </g>
     </g>
     <g id="text_1">
      <!-- 2 -->
      <g transform="translate(82.67572 322.182437)scale(0.1 -0.1)">
       <defs>
        <path d="M 1228 531 
L 3431 531 
L 3431 0 
L 469 0 
L 469 531 
Q 828 903 1448 1529 
Q 2069 2156 2228 2338 
Q 2531 2678 2651 2914 
Q 2772 3150 2772 3378 
Q 2772 3750 2511 3984 
Q 2250 4219 1831 4219 
Q 1534 4219 1204 4116 
Q 875 4013 500 3803 
L 500 4441 
Q 881 4594 1212 4672 
Q 1544 4750 1819 4750 
Q 2544 4750 2975 4387 
Q 3406 4025 3406 3419 
Q 3406 3131 3298 2873 
Q 3191 2616 2906 2266 
Q 2828 2175 2409 1742 
Q 1991 1309 1228 531 
z
" id="DejaVuSans-32" transform="scale(0.015625)"/>
       </defs>
       <use xlink:href="#DejaVuSans-32"/>
      </g>
     </g>
    </g>
    <g id="xtick_2">
     <g id="line2d_2">
      <g>
       <use style="stroke:#000000;stroke-width:0.8;" x="133.953939" xlink:href="#m5977b80093" y="307.584"/>
      </g>
     </g>
     <g id="text_2">
      <!-- 4 -->
      <g transform="translate(130.772689 322.182437)scale(0.1 -0.1)">
       <defs>
        <path d="M 2419 4116 
L 825 1625 
L 2419 1625 
L 2419 4116 
z
M 2253 4666 
L 3047 4666 
L 3047 1625 
L 3713 1625 
L 3713 1100 
L 3047 1100 
L 3047 0 
L 2419 0 
L 2419 1100 
L 313 1100 
L 313 1709 
L 2253 4666 
z
" id="DejaVuSans-34" transform="scale(0.015625)"/>
       </defs>
       <use xlink:href="#DejaVuSans-34"/>
      </g>
     </g>
    </g>
    <g id="xtick_3">
     <g id="line2d_3">
      <g>
       <use style="stroke:#000000;stroke-width:0.8;" x="182.050909" xlink:href="#m5977b80093" y="307.584"/>
      </g>
     </g>
     <g id="text_3">
      <!-- 6 -->
      <g transform="translate(178.869659 322.182437)scale(0.1 -0.1)">
       <defs>
        <path d="M 2113 2584 
Q 1688 2584 1439 2293 
Q 1191 2003 1191 1497 
Q 1191 994 1439 701 
Q 1688 409 2113 409 
Q 2538 409 2786 701 
Q 3034 994 3034 1497 
Q 3034 2003 2786 2293 
Q 2538 2584 2113 2584 
z
M 3366 4563 
L 3366 3988 
Q 3128 4100 2886 4159 
Q 2644 4219 2406 4219 
Q 1781 4219 1451 3797 
Q 1122 3375 1075 2522 
Q 1259 2794 1537 2939 
Q 1816 3084 2150 3084 
Q 2853 3084 3261 2657 
Q 3669 2231 3669 1497 
Q 3669 778 3244 343 
Q 2819 -91 2113 -91 
Q 1303 -91 875 529 
Q 447 1150 447 2328 
Q 447 3434 972 4092 
Q 1497 4750 2381 4750 
Q 2619 4750 2861 4703 
Q 3103 4656 3366 4563 
z
" id="DejaVuSans-36" transform="scale(0.015625)"/>
       </defs>
       <use xlink:href="#DejaVuSans-36"/>
      </g>
     </g>
    </g>
    <g id="xtick_4">
     <g id="line2d_4">
      <g>
       <use style="stroke:#000000;stroke-width:0.8;" x="230.147879" xlink:href="#m5977b80093" y="307.584"/>
      </g>
     </g>
     <g id="text_4">
      <!-- 8 -->
      <g transform="translate(226.966629 322.182437)scale(0.1 -0.1)">
       <defs>
        <path d="M 2034 2216 
Q 1584 2216 1326 1975 
Q 1069 1734 1069 1313 
Q 1069 891 1326 650 
Q 1584 409 2034 409 
Q 2484 409 2743 651 
Q 3003 894 3003 1313 
Q 3003 1734 2745 1975 
Q 2488 2216 2034 2216 
z
M 1403 2484 
Q 997 2584 770 2862 
Q 544 3141 544 3541 
Q 544 4100 942 4425 
Q 1341 4750 2034 4750 
Q 2731 4750 3128 4425 
Q 3525 4100 3525 3541 
Q 3525 3141 3298 2862 
Q 3072 2584 2669 2484 
Q 3125 2378 3379 2068 
Q 3634 1759 3634 1313 
Q 3634 634 3220 271 
Q 2806 -91 2034 -91 
Q 1263 -91 848 271 
Q 434 634 434 1313 
Q 434 1759 690 2068 
Q 947 2378 1403 2484 
z
M 1172 3481 
Q 1172 3119 1398 2916 
Q 1625 2713 2034 2713 
Q 2441 2713 2670 2916 
Q 2900 3119 2900 3481 
Q 2900 3844 2670 4047 
Q 2441 4250 2034 4250 
Q 1625 4250 1398 4047 
Q 1172 3844 1172 3481 
z
" id="DejaVuSans-38" transform="scale(0.015625)"/>
       </defs>
       <use xlink:href="#DejaVuSans-38"/>
      </g>
     </g>
    </g>
    <g id="xtick_5">
     <g id="line2d_5">
      <g>
       <use style="stroke:#000000;stroke-width:0.8;" x="278.244848" xlink:href="#m5977b80093" y="307.584"/>
      </g>
     </g>
     <g id="text_5">
      <!-- 10 -->
      <g transform="translate(271.882348 322.182437)scale(0.1 -0.1)">
       <defs>
        <path d="M 794 531 
L 1825 531 
L 1825 4091 
L 703 3866 
L 703 4441 
L 1819 4666 
L 2450 4666 
L 2450 531 
L 3481 531 
L 3481 0 
L 794 0 
L 794 531 
z
" id="DejaVuSans-31" transform="scale(0.015625)"/>
        <path d="M 2034 4250 
Q 1547 4250 1301 3770 
Q 1056 3291 1056 2328 
Q 1056 1369 1301 889 
Q 1547 409 2034 409 
Q 2525 409 2770 889 
Q 3016 1369 3016 2328 
Q 3016 3291 2770 3770 
Q 2525 4250 2034 4250 
z
M 2034 4750 
Q 2819 4750 3233 4129 
Q 3647 3509 3647 2328 
Q 3647 1150 3233 529 
Q 2819 -91 2034 -91 
Q 1250 -91 836 529 
Q 422 1150 422 2328 
Q 422 3509 836 4129 
Q 1250 4750 2034 4750 
z
" id="DejaVuSans-30" transform="scale(0.015625)"/>
       </defs>
       <use xlink:href="#DejaVuSans-31"/>
       <use x="63.623047" xlink:href="#DejaVuSans-30"/>
      </g>
     </g>
    </g>
    <g id="xtick_6">
     <g id="line2d_6">
      <g>
       <use style="stroke:#000000;stroke-width:0.8;" x="326.341818" xlink:href="#m5977b80093" y="307.584"/>
      </g>
     </g>
     <g id="text_6">
      <!-- 12 -->
      <g transform="translate(319.979318 322.182437)scale(0.1 -0.1)">
       <use xlink:href="#DejaVuSans-31"/>
       <use x="63.623047" xlink:href="#DejaVuSans-32"/>
      </g>
     </g>
    </g>
    <g id="xtick_7">
     <g id="line2d_7">
      <g>
       <use style="stroke:#000000;stroke-width:0.8;" x="374.438788" xlink:href="#m5977b80093" y="307.584"/>
      </g>
     </g>
     <g id="text_7">
      <!-- 14 -->
      <g transform="translate(368.076288 322.182437)scale(0.1 -0.1)">
       <use xlink:href="#DejaVuSans-31"/>
       <use x="63.623047" xlink:href="#DejaVuSans-34"/>
      </g>
     </g>
    </g>
    <g id="text_8">
     <!-- PV Capacity -->
     <g transform="translate(206.284219 335.860562)scale(0.1 -0.1)">
      <defs>
       <path d="M 1259 4147 
L 1259 2394 
L 2053 2394 
Q 2494 2394 2734 2622 
Q 2975 2850 2975 3272 
Q 2975 3691 2734 3919 
Q 2494 4147 2053 4147 
L 1259 4147 
z
M 628 4666 
L 2053 4666 
Q 2838 4666 3239 4311 
Q 3641 3956 3641 3272 
Q 3641 2581 3239 2228 
Q 2838 1875 2053 1875 
L 1259 1875 
L 1259 0 
L 628 0 
L 628 4666 
z
" id="DejaVuSans-50" transform="scale(0.015625)"/>
       <path d="M 1831 0 
L 50 4666 
L 709 4666 
L 2188 738 
L 3669 4666 
L 4325 4666 
L 2547 0 
L 1831 0 
z
" id="DejaVuSans-56" transform="scale(0.015625)"/>
       <path id="DejaVuSans-20" transform="scale(0.015625)"/>
       <path d="M 4122 4306 
L 4122 3641 
Q 3803 3938 3442 4084 
Q 3081 4231 2675 4231 
Q 1875 4231 1450 3742 
Q 1025 3253 1025 2328 
Q 1025 1406 1450 917 
Q 1875 428 2675 428 
Q 3081 428 3442 575 
Q 3803 722 4122 1019 
L 4122 359 
Q 3791 134 3420 21 
Q 3050 -91 2638 -91 
Q 1578 -91 968 557 
Q 359 1206 359 2328 
Q 359 3453 968 4101 
Q 1578 4750 2638 4750 
Q 3056 4750 3426 4639 
Q 3797 4528 4122 4306 
z
" id="DejaVuSans-43" transform="scale(0.015625)"/>
       <path d="M 2194 1759 
Q 1497 1759 1228 1600 
Q 959 1441 959 1056 
Q 959 750 1161 570 
Q 1363 391 1709 391 
Q 2188 391 2477 730 
Q 2766 1069 2766 1631 
L 2766 1759 
L 2194 1759 
z
M 3341 1997 
L 3341 0 
L 2766 0 
L 2766 531 
Q 2569 213 2275 61 
Q 1981 -91 1556 -91 
Q 1019 -91 701 211 
Q 384 513 384 1019 
Q 384 1609 779 1909 
Q 1175 2209 1959 2209 
L 2766 2209 
L 2766 2266 
Q 2766 2663 2505 2880 
Q 2244 3097 1772 3097 
Q 1472 3097 1187 3025 
Q 903 2953 641 2809 
L 641 3341 
Q 956 3463 1253 3523 
Q 1550 3584 1831 3584 
Q 2591 3584 2966 3190 
Q 3341 2797 3341 1997 
z
" id="DejaVuSans-61" transform="scale(0.015625)"/>
       <path d="M 1159 525 
L 1159 -1331 
L 581 -1331 
L 581 3500 
L 1159 3500 
L 1159 2969 
Q 1341 3281 1617 3432 
Q 1894 3584 2278 3584 
Q 2916 3584 3314 3078 
Q 3713 2572 3713 1747 
Q 3713 922 3314 415 
Q 2916 -91 2278 -91 
Q 1894 -91 1617 61 
Q 1341 213 1159 525 
z
M 3116 1747 
Q 3116 2381 2855 2742 
Q 2594 3103 2138 3103 
Q 1681 3103 1420 2742 
Q 1159 2381 1159 1747 
Q 1159 1113 1420 752 
Q 1681 391 2138 391 
Q 2594 391 2855 752 
Q 3116 1113 3116 1747 
z
" id="DejaVuSans-70" transform="scale(0.015625)"/>
       <path d="M 3122 3366 
L 3122 2828 
Q 2878 2963 2633 3030 
Q 2388 3097 2138 3097 
Q 1578 3097 1268 2742 
Q 959 2388 959 1747 
Q 959 1106 1268 751 
Q 1578 397 2138 397 
Q 2388 397 2633 464 
Q 2878 531 3122 666 
L 3122 134 
Q 2881 22 2623 -34 
Q 2366 -91 2075 -91 
Q 1284 -91 818 406 
Q 353 903 353 1747 
Q 353 2603 823 3093 
Q 1294 3584 2113 3584 
Q 2378 3584 2631 3529 
Q 2884 3475 3122 3366 
z
" id="DejaVuSans-63" transform="scale(0.015625)"/>
       <path d="M 603 3500 
L 1178 3500 
L 1178 0 
L 603 0 
L 603 3500 
z
M 603 4863 
L 1178 4863 
L 1178 4134 
L 603 4134 
L 603 4863 
z
" id="DejaVuSans-69" transform="scale(0.015625)"/>
       <path d="M 1172 4494 
L 1172 3500 
L 2356 3500 
L 2356 3053 
L 1172 3053 
L 1172 1153 
Q 1172 725 1289 603 
Q 1406 481 1766 481 
L 2356 481 
L 2356 0 
L 1766 0 
Q 1100 0 847 248 
Q 594 497 594 1153 
L 594 3053 
L 172 3053 
L 172 3500 
L 594 3500 
L 594 4494 
L 1172 4494 
z
" id="DejaVuSans-74" transform="scale(0.015625)"/>
       <path d="M 2059 -325 
Q 1816 -950 1584 -1140 
Q 1353 -1331 966 -1331 
L 506 -1331 
L 506 -850 
L 844 -850 
Q 1081 -850 1212 -737 
Q 1344 -625 1503 -206 
L 1606 56 
L 191 3500 
L 800 3500 
L 1894 763 
L 2988 3500 
L 3597 3500 
L 2059 -325 
z
" id="DejaVuSans-79" transform="scale(0.015625)"/>
      </defs>
      <use xlink:href="#DejaVuSans-50"/>
      <use x="60.302734" xlink:href="#DejaVuSans-56"/>
      <use x="128.710938" xlink:href="#DejaVuSans-20"/>
      <use x="160.498047" xlink:href="#DejaVuSans-43"/>
      <use x="230.322266" xlink:href="#DejaVuSans-61"/>
      <use x="291.601562" xlink:href="#DejaVuSans-70"/>
      <use x="355.078125" xlink:href="#DejaVuSans-61"/>
      <use x="416.357422" xlink:href="#DejaVuSans-63"/>
      <use x="471.337891" xlink:href="#DejaVuSans-69"/>
      <use x="499.121094" xlink:href="#DejaVuSans-74"/>
      <use x="538.330078" xlink:href="#DejaVuSans-79"/>
     </g>
    </g>
   </g>
   <g id="matplotlib.axis_2">
    <g id="ytick_1">
     <g id="line2d_8">
      <defs>
       <path d="M 0 0 
L -3.5 0 
" id="mc16d54bb3c" style="stroke:#000000;stroke-width:0.8;"/>
      </defs>
      <g>
       <use style="stroke:#000000;stroke-width:0.8;" x="57.6" xlink:href="#mc16d54bb3c" y="295.488"/>
      </g>
     </g>
     <g id="text_9">
      <!-- 0 -->
      <g transform="translate(44.2375 299.287219)scale(0.1 -0.1)">
       <use xlink:href="#DejaVuSans-30"/>
      </g>
     </g>
    </g>
    <g id="ytick_2">
     <g id="line2d_9">
      <g>
       <use style="stroke:#000000;stroke-width:0.8;" x="57.6" xlink:href="#mc16d54bb3c" y="245.063427"/>
      </g>
     </g>
     <g id="text_10">
      <!-- 10 -->
      <g transform="translate(37.875 248.862646)scale(0.1 -0.1)">
       <use xlink:href="#DejaVuSans-31"/>
       <use x="63.623047" xlink:href="#DejaVuSans-30"/>
      </g>
     </g>
    </g>
    <g id="ytick_3">
     <g id="line2d_10">
      <g>
       <use style="stroke:#000000;stroke-width:0.8;" x="57.6" xlink:href="#mc16d54bb3c" y="194.638854"/>
      </g>
     </g>
     <g id="text_11">
      <!-- 20 -->
      <g transform="translate(37.875 198.438073)scale(0.1 -0.1)">
       <use xlink:href="#DejaVuSans-32"/>
       <use x="63.623047" xlink:href="#DejaVuSans-30"/>
      </g>
     </g>
    </g>
    <g id="ytick_4">
     <g id="line2d_11">
      <g>
       <use style="stroke:#000000;stroke-width:0.8;" x="57.6" xlink:href="#mc16d54bb3c" y="144.214281"/>
      </g>
     </g>
     <g id="text_12">
      <!-- 30 -->
      <g transform="translate(37.875 148.0135)scale(0.1 -0.1)">
       <defs>
        <path d="M 2597 2516 
Q 3050 2419 3304 2112 
Q 3559 1806 3559 1356 
Q 3559 666 3084 287 
Q 2609 -91 1734 -91 
Q 1441 -91 1130 -33 
Q 819 25 488 141 
L 488 750 
Q 750 597 1062 519 
Q 1375 441 1716 441 
Q 2309 441 2620 675 
Q 2931 909 2931 1356 
Q 2931 1769 2642 2001 
Q 2353 2234 1838 2234 
L 1294 2234 
L 1294 2753 
L 1863 2753 
Q 2328 2753 2575 2939 
Q 2822 3125 2822 3475 
Q 2822 3834 2567 4026 
Q 2313 4219 1838 4219 
Q 1578 4219 1281 4162 
Q 984 4106 628 3988 
L 628 4550 
Q 988 4650 1302 4700 
Q 1616 4750 1894 4750 
Q 2613 4750 3031 4423 
Q 3450 4097 3450 3541 
Q 3450 3153 3228 2886 
Q 3006 2619 2597 2516 
z
" id="DejaVuSans-33" transform="scale(0.015625)"/>
       </defs>
       <use xlink:href="#DejaVuSans-33"/>
       <use x="63.623047" xlink:href="#DejaVuSans-30"/>
      </g>
     </g>
    </g>
    <g id="ytick_5">
     <g id="line2d_12">
      <g>
       <use style="stroke:#000000;stroke-width:0.8;" x="57.6" xlink:href="#mc16d54bb3c" y="93.789708"/>
      </g>
     </g>
     <g id="text_13">
      <!-- 40 -->
      <g transform="translate(37.875 97.588927)scale(0.1 -0.1)">
       <use xlink:href="#DejaVuSans-34"/>
       <use x="63.623047" xlink:href="#DejaVuSans-30"/>
      </g>
     </g>
    </g>
    <g id="ytick_6">
     <g id="line2d_13">
      <g>
       <use style="stroke:#000000;stroke-width:0.8;" x="57.6" xlink:href="#mc16d54bb3c" y="43.365135"/>
      </g>
     </g>
     <g id="text_14">
      <!-- 50 -->
      <g transform="translate(37.875 47.164354)scale(0.1 -0.1)">
       <defs>
        <path d="M 691 4666 
L 3169 4666 
L 3169 4134 
L 1269 4134 
L 1269 2991 
Q 1406 3038 1543 3061 
Q 1681 3084 1819 3084 
Q 2600 3084 3056 2656 
Q 3513 2228 3513 1497 
Q 3513 744 3044 326 
Q 2575 -91 1722 -91 
Q 1428 -91 1123 -41 
Q 819 9 494 109 
L 494 744 
Q 775 591 1075 516 
Q 1375 441 1709 441 
Q 2250 441 2565 725 
Q 2881 1009 2881 1497 
Q 2881 1984 2565 2268 
Q 2250 2553 1709 2553 
Q 1456 2553 1204 2497 
Q 953 2441 691 2322 
L 691 4666 
z
" id="DejaVuSans-35" transform="scale(0.015625)"/>
       </defs>
       <use xlink:href="#DejaVuSans-35"/>
       <use x="63.623047" xlink:href="#DejaVuSans-30"/>
      </g>
     </g>
    </g>
    <g id="text_15">
     <!-- Additional Carbon Equivalent Emissions Savings (Mt) -->
     <g transform="translate(31.795312 306.656906)rotate(-90)scale(0.1 -0.1)">
      <defs>
       <path d="M 2188 4044 
L 1331 1722 
L 3047 1722 
L 2188 4044 
z
M 1831 4666 
L 2547 4666 
L 4325 0 
L 3669 0 
L 3244 1197 
L 1141 1197 
L 716 0 
L 50 0 
L 1831 4666 
z
" id="DejaVuSans-41" transform="scale(0.015625)"/>
       <path d="M 2906 2969 
L 2906 4863 
L 3481 4863 
L 3481 0 
L 2906 0 
L 2906 525 
Q 2725 213 2448 61 
Q 2172 -91 1784 -91 
Q 1150 -91 751 415 
Q 353 922 353 1747 
Q 353 2572 751 3078 
Q 1150 3584 1784 3584 
Q 2172 3584 2448 3432 
Q 2725 3281 2906 2969 
z
M 947 1747 
Q 947 1113 1208 752 
Q 1469 391 1925 391 
Q 2381 391 2643 752 
Q 2906 1113 2906 1747 
Q 2906 2381 2643 2742 
Q 2381 3103 1925 3103 
Q 1469 3103 1208 2742 
Q 947 2381 947 1747 
z
" id="DejaVuSans-64" transform="scale(0.015625)"/>
       <path d="M 1959 3097 
Q 1497 3097 1228 2736 
Q 959 2375 959 1747 
Q 959 1119 1226 758 
Q 1494 397 1959 397 
Q 2419 397 2687 759 
Q 2956 1122 2956 1747 
Q 2956 2369 2687 2733 
Q 2419 3097 1959 3097 
z
M 1959 3584 
Q 2709 3584 3137 3096 
Q 3566 2609 3566 1747 
Q 3566 888 3137 398 
Q 2709 -91 1959 -91 
Q 1206 -91 779 398 
Q 353 888 353 1747 
Q 353 2609 779 3096 
Q 1206 3584 1959 3584 
z
" id="DejaVuSans-6f" transform="scale(0.015625)"/>
       <path d="M 3513 2113 
L 3513 0 
L 2938 0 
L 2938 2094 
Q 2938 2591 2744 2837 
Q 2550 3084 2163 3084 
Q 1697 3084 1428 2787 
Q 1159 2491 1159 1978 
L 1159 0 
L 581 0 
L 581 3500 
L 1159 3500 
L 1159 2956 
Q 1366 3272 1645 3428 
Q 1925 3584 2291 3584 
Q 2894 3584 3203 3211 
Q 3513 2838 3513 2113 
z
" id="DejaVuSans-6e" transform="scale(0.015625)"/>
       <path d="M 603 4863 
L 1178 4863 
L 1178 0 
L 603 0 
L 603 4863 
z
" id="DejaVuSans-6c" transform="scale(0.015625)"/>
       <path d="M 2631 2963 
Q 2534 3019 2420 3045 
Q 2306 3072 2169 3072 
Q 1681 3072 1420 2755 
Q 1159 2438 1159 1844 
L 1159 0 
L 581 0 
L 581 3500 
L 1159 3500 
L 1159 2956 
Q 1341 3275 1631 3429 
Q 1922 3584 2338 3584 
Q 2397 3584 2469 3576 
Q 2541 3569 2628 3553 
L 2631 2963 
z
" id="DejaVuSans-72" transform="scale(0.015625)"/>
       <path d="M 3116 1747 
Q 3116 2381 2855 2742 
Q 2594 3103 2138 3103 
Q 1681 3103 1420 2742 
Q 1159 2381 1159 1747 
Q 1159 1113 1420 752 
Q 1681 391 2138 391 
Q 2594 391 2855 752 
Q 3116 1113 3116 1747 
z
M 1159 2969 
Q 1341 3281 1617 3432 
Q 1894 3584 2278 3584 
Q 2916 3584 3314 3078 
Q 3713 2572 3713 1747 
Q 3713 922 3314 415 
Q 2916 -91 2278 -91 
Q 1894 -91 1617 61 
Q 1341 213 1159 525 
L 1159 0 
L 581 0 
L 581 4863 
L 1159 4863 
L 1159 2969 
z
" id="DejaVuSans-62" transform="scale(0.015625)"/>
       <path d="M 628 4666 
L 3578 4666 
L 3578 4134 
L 1259 4134 
L 1259 2753 
L 3481 2753 
L 3481 2222 
L 1259 2222 
L 1259 531 
L 3634 531 
L 3634 0 
L 628 0 
L 628 4666 
z
" id="DejaVuSans-45" transform="scale(0.015625)"/>
       <path d="M 947 1747 
Q 947 1113 1208 752 
Q 1469 391 1925 391 
Q 2381 391 2643 752 
Q 2906 1113 2906 1747 
Q 2906 2381 2643 2742 
Q 2381 3103 1925 3103 
Q 1469 3103 1208 2742 
Q 947 2381 947 1747 
z
M 2906 525 
Q 2725 213 2448 61 
Q 2172 -91 1784 -91 
Q 1150 -91 751 415 
Q 353 922 353 1747 
Q 353 2572 751 3078 
Q 1150 3584 1784 3584 
Q 2172 3584 2448 3432 
Q 2725 3281 2906 2969 
L 2906 3500 
L 3481 3500 
L 3481 -1331 
L 2906 -1331 
L 2906 525 
z
" id="DejaVuSans-71" transform="scale(0.015625)"/>
       <path d="M 544 1381 
L 544 3500 
L 1119 3500 
L 1119 1403 
Q 1119 906 1312 657 
Q 1506 409 1894 409 
Q 2359 409 2629 706 
Q 2900 1003 2900 1516 
L 2900 3500 
L 3475 3500 
L 3475 0 
L 2900 0 
L 2900 538 
Q 2691 219 2414 64 
Q 2138 -91 1772 -91 
Q 1169 -91 856 284 
Q 544 659 544 1381 
z
M 1991 3584 
L 1991 3584 
z
" id="DejaVuSans-75" transform="scale(0.015625)"/>
       <path d="M 191 3500 
L 800 3500 
L 1894 563 
L 2988 3500 
L 3597 3500 
L 2284 0 
L 1503 0 
L 191 3500 
z
" id="DejaVuSans-76" transform="scale(0.015625)"/>
       <path d="M 3597 1894 
L 3597 1613 
L 953 1613 
Q 991 1019 1311 708 
Q 1631 397 2203 397 
Q 2534 397 2845 478 
Q 3156 559 3463 722 
L 3463 178 
Q 3153 47 2828 -22 
Q 2503 -91 2169 -91 
Q 1331 -91 842 396 
Q 353 884 353 1716 
Q 353 2575 817 3079 
Q 1281 3584 2069 3584 
Q 2775 3584 3186 3129 
Q 3597 2675 3597 1894 
z
M 3022 2063 
Q 3016 2534 2758 2815 
Q 2500 3097 2075 3097 
Q 1594 3097 1305 2825 
Q 1016 2553 972 2059 
L 3022 2063 
z
" id="DejaVuSans-65" transform="scale(0.015625)"/>
       <path d="M 3328 2828 
Q 3544 3216 3844 3400 
Q 4144 3584 4550 3584 
Q 5097 3584 5394 3201 
Q 5691 2819 5691 2113 
L 5691 0 
L 5113 0 
L 5113 2094 
Q 5113 2597 4934 2840 
Q 4756 3084 4391 3084 
Q 3944 3084 3684 2787 
Q 3425 2491 3425 1978 
L 3425 0 
L 2847 0 
L 2847 2094 
Q 2847 2600 2669 2842 
Q 2491 3084 2119 3084 
Q 1678 3084 1418 2786 
Q 1159 2488 1159 1978 
L 1159 0 
L 581 0 
L 581 3500 
L 1159 3500 
L 1159 2956 
Q 1356 3278 1631 3431 
Q 1906 3584 2284 3584 
Q 2666 3584 2933 3390 
Q 3200 3197 3328 2828 
z
" id="DejaVuSans-6d" transform="scale(0.015625)"/>
       <path d="M 2834 3397 
L 2834 2853 
Q 2591 2978 2328 3040 
Q 2066 3103 1784 3103 
Q 1356 3103 1142 2972 
Q 928 2841 928 2578 
Q 928 2378 1081 2264 
Q 1234 2150 1697 2047 
L 1894 2003 
Q 2506 1872 2764 1633 
Q 3022 1394 3022 966 
Q 3022 478 2636 193 
Q 2250 -91 1575 -91 
Q 1294 -91 989 -36 
Q 684 19 347 128 
L 347 722 
Q 666 556 975 473 
Q 1284 391 1588 391 
Q 1994 391 2212 530 
Q 2431 669 2431 922 
Q 2431 1156 2273 1281 
Q 2116 1406 1581 1522 
L 1381 1569 
Q 847 1681 609 1914 
Q 372 2147 372 2553 
Q 372 3047 722 3315 
Q 1072 3584 1716 3584 
Q 2034 3584 2315 3537 
Q 2597 3491 2834 3397 
z
" id="DejaVuSans-73" transform="scale(0.015625)"/>
       <path d="M 3425 4513 
L 3425 3897 
Q 3066 4069 2747 4153 
Q 2428 4238 2131 4238 
Q 1616 4238 1336 4038 
Q 1056 3838 1056 3469 
Q 1056 3159 1242 3001 
Q 1428 2844 1947 2747 
L 2328 2669 
Q 3034 2534 3370 2195 
Q 3706 1856 3706 1288 
Q 3706 609 3251 259 
Q 2797 -91 1919 -91 
Q 1588 -91 1214 -16 
Q 841 59 441 206 
L 441 856 
Q 825 641 1194 531 
Q 1563 422 1919 422 
Q 2459 422 2753 634 
Q 3047 847 3047 1241 
Q 3047 1584 2836 1778 
Q 2625 1972 2144 2069 
L 1759 2144 
Q 1053 2284 737 2584 
Q 422 2884 422 3419 
Q 422 4038 858 4394 
Q 1294 4750 2059 4750 
Q 2388 4750 2728 4690 
Q 3069 4631 3425 4513 
z
" id="DejaVuSans-53" transform="scale(0.015625)"/>
       <path d="M 2906 1791 
Q 2906 2416 2648 2759 
Q 2391 3103 1925 3103 
Q 1463 3103 1205 2759 
Q 947 2416 947 1791 
Q 947 1169 1205 825 
Q 1463 481 1925 481 
Q 2391 481 2648 825 
Q 2906 1169 2906 1791 
z
M 3481 434 
Q 3481 -459 3084 -895 
Q 2688 -1331 1869 -1331 
Q 1566 -1331 1297 -1286 
Q 1028 -1241 775 -1147 
L 775 -588 
Q 1028 -725 1275 -790 
Q 1522 -856 1778 -856 
Q 2344 -856 2625 -561 
Q 2906 -266 2906 331 
L 2906 616 
Q 2728 306 2450 153 
Q 2172 0 1784 0 
Q 1141 0 747 490 
Q 353 981 353 1791 
Q 353 2603 747 3093 
Q 1141 3584 1784 3584 
Q 2172 3584 2450 3431 
Q 2728 3278 2906 2969 
L 2906 3500 
L 3481 3500 
L 3481 434 
z
" id="DejaVuSans-67" transform="scale(0.015625)"/>
       <path d="M 1984 4856 
Q 1566 4138 1362 3434 
Q 1159 2731 1159 2009 
Q 1159 1288 1364 580 
Q 1569 -128 1984 -844 
L 1484 -844 
Q 1016 -109 783 600 
Q 550 1309 550 2009 
Q 550 2706 781 3412 
Q 1013 4119 1484 4856 
L 1984 4856 
z
" id="DejaVuSans-28" transform="scale(0.015625)"/>
       <path d="M 628 4666 
L 1569 4666 
L 2759 1491 
L 3956 4666 
L 4897 4666 
L 4897 0 
L 4281 0 
L 4281 4097 
L 3078 897 
L 2444 897 
L 1241 4097 
L 1241 0 
L 628 0 
L 628 4666 
z
" id="DejaVuSans-4d" transform="scale(0.015625)"/>
       <path d="M 513 4856 
L 1013 4856 
Q 1481 4119 1714 3412 
Q 1947 2706 1947 2009 
Q 1947 1309 1714 600 
Q 1481 -109 1013 -844 
L 513 -844 
Q 928 -128 1133 580 
Q 1338 1288 1338 2009 
Q 1338 2731 1133 3434 
Q 928 4138 513 4856 
z
" id="DejaVuSans-29" transform="scale(0.015625)"/>
      </defs>
      <use xlink:href="#DejaVuSans-41"/>
      <use x="66.658203" xlink:href="#DejaVuSans-64"/>
      <use x="130.134766" xlink:href="#DejaVuSans-64"/>
      <use x="193.611328" xlink:href="#DejaVuSans-69"/>
      <use x="221.394531" xlink:href="#DejaVuSans-74"/>
      <use x="260.603516" xlink:href="#DejaVuSans-69"/>
      <use x="288.386719" xlink:href="#DejaVuSans-6f"/>
      <use x="349.568359" xlink:href="#DejaVuSans-6e"/>
      <use x="412.947266" xlink:href="#DejaVuSans-61"/>
      <use x="474.226562" xlink:href="#DejaVuSans-6c"/>
      <use x="502.009766" xlink:href="#DejaVuSans-20"/>
      <use x="533.796875" xlink:href="#DejaVuSans-43"/>
      <use x="603.621094" xlink:href="#DejaVuSans-61"/>
      <use x="664.900391" xlink:href="#DejaVuSans-72"/>
      <use x="706.013672" xlink:href="#DejaVuSans-62"/>
      <use x="769.490234" xlink:href="#DejaVuSans-6f"/>
      <use x="830.671875" xlink:href="#DejaVuSans-6e"/>
      <use x="894.050781" xlink:href="#DejaVuSans-20"/>
      <use x="925.837891" xlink:href="#DejaVuSans-45"/>
      <use x="989.021484" xlink:href="#DejaVuSans-71"/>
      <use x="1052.498047" xlink:href="#DejaVuSans-75"/>
      <use x="1115.876953" xlink:href="#DejaVuSans-69"/>
      <use x="1143.660156" xlink:href="#DejaVuSans-76"/>
      <use x="1202.839844" xlink:href="#DejaVuSans-61"/>
      <use x="1264.119141" xlink:href="#DejaVuSans-6c"/>
      <use x="1291.902344" xlink:href="#DejaVuSans-65"/>
      <use x="1353.425781" xlink:href="#DejaVuSans-6e"/>
      <use x="1416.804688" xlink:href="#DejaVuSans-74"/>
      <use x="1456.013672" xlink:href="#DejaVuSans-20"/>
      <use x="1487.800781" xlink:href="#DejaVuSans-45"/>
      <use x="1550.984375" xlink:href="#DejaVuSans-6d"/>
      <use x="1648.396484" xlink:href="#DejaVuSans-69"/>
      <use x="1676.179688" xlink:href="#DejaVuSans-73"/>
      <use x="1728.279297" xlink:href="#DejaVuSans-73"/>
      <use x="1780.378906" xlink:href="#DejaVuSans-69"/>
      <use x="1808.162109" xlink:href="#DejaVuSans-6f"/>
      <use x="1869.34375" xlink:href="#DejaVuSans-6e"/>
      <use x="1932.722656" xlink:href="#DejaVuSans-73"/>
      <use x="1984.822266" xlink:href="#DejaVuSans-20"/>
      <use x="2016.609375" xlink:href="#DejaVuSans-53"/>
      <use x="2080.085938" xlink:href="#DejaVuSans-61"/>
      <use x="2141.365234" xlink:href="#DejaVuSans-76"/>
      <use x="2200.544922" xlink:href="#DejaVuSans-69"/>
      <use x="2228.328125" xlink:href="#DejaVuSans-6e"/>
      <use x="2291.707031" xlink:href="#DejaVuSans-67"/>
      <use x="2355.183594" xlink:href="#DejaVuSans-73"/>
      <use x="2407.283203" xlink:href="#DejaVuSans-20"/>
      <use x="2439.070312" xlink:href="#DejaVuSans-28"/>
      <use x="2478.083984" xlink:href="#DejaVuSans-4d"/>
      <use x="2564.363281" xlink:href="#DejaVuSans-74"/>
      <use x="2603.572266" xlink:href="#DejaVuSans-29"/>
     </g>
    </g>
   </g>
   <g id="line2d_14">
    <path clip-path="url(#p3ae94fb02e)" d="M 73.832727 295.488 
L 76.261867 280.751122 
L 78.691007 260.864265 
L 81.120147 241.809003 
L 83.549287 224.45508 
L 85.978427 208.916421 
L 88.407567 195.113762 
L 90.836706 182.959855 
L 93.265846 172.220348 
L 95.694986 162.675721 
L 98.124126 154.258052 
L 100.553266 146.776907 
L 102.982406 140.106768 
L 105.411546 134.258546 
L 107.840686 129.108801 
L 110.269826 124.562571 
L 112.698965 120.611478 
L 115.128105 117.159717 
L 117.557245 114.162558 
L 119.986385 111.542567 
L 122.415525 109.249034 
L 124.844665 107.21401 
L 127.273805 105.414043 
L 129.702945 103.818211 
L 132.132084 102.374503 
L 134.561224 101.053092 
L 136.990364 99.851175 
L 139.419504 98.754207 
L 141.848644 97.730745 
L 144.277784 96.789911 
L 146.706924 95.927103 
L 149.136064 95.131201 
L 151.565204 94.389042 
L 153.994343 93.698401 
L 156.423483 93.047747 
L 158.852623 92.440073 
L 161.281763 91.86068 
L 163.710903 91.310688 
L 166.140043 90.789506 
L 168.569183 90.293497 
L 170.998323 89.824362 
L 173.427463 89.379729 
L 175.856602 88.953569 
L 178.285742 88.545165 
L 180.714882 88.155086 
L 183.144022 87.781713 
L 185.573162 87.42479 
L 188.002302 87.080131 
L 190.431442 86.750519 
L 192.860582 86.434183 
L 195.289721 86.125633 
L 197.718861 85.825587 
L 200.148001 85.534029 
L 202.577141 85.252272 
L 205.006281 84.980261 
L 207.435421 84.719415 
L 209.864561 84.464634 
L 212.293701 84.214734 
L 214.722841 83.972459 
L 217.15198 83.736924 
L 219.58112 83.507796 
L 222.01026 83.284173 
L 224.4394 83.064735 
L 226.86854 82.851564 
L 229.29768 82.644076 
L 231.72682 82.441022 
L 234.15596 82.241191 
L 236.585099 82.045216 
L 239.014239 81.854523 
L 241.443379 81.66936 
L 243.872519 81.488685 
L 246.301659 81.313881 
L 248.730799 81.141569 
L 251.159939 80.972277 
L 253.589079 80.80591 
L 256.018219 80.642893 
L 258.447358 80.482727 
L 260.876498 80.326032 
L 263.305638 80.171198 
L 265.734778 80.019157 
L 268.163918 79.869271 
L 270.593058 79.721194 
L 273.022198 79.574941 
L 275.451338 79.432562 
L 277.880478 79.292846 
L 280.309617 79.155476 
L 282.738757 79.021319 
L 285.167897 78.88918 
L 287.597037 78.758822 
L 290.026177 78.631685 
L 292.455317 78.506308 
L 294.884457 78.382497 
L 297.313597 78.259492 
L 299.742736 78.138579 
L 302.171876 78.019437 
L 304.601016 77.902305 
L 307.030156 77.786801 
L 309.459296 77.672274 
L 311.888436 77.558959 
L 314.317576 77.447606 
" style="fill:none;stroke:#1f77b4;stroke-linecap:square;stroke-width:1.5;"/>
   </g>
   <g id="line2d_15">
    <path clip-path="url(#p3ae94fb02e)" d="M 73.832727 295.488 
L 76.261867 290.751833 
L 78.691007 285.867669 
L 81.120147 280.255789 
L 83.549287 274.219462 
L 85.978427 267.023541 
L 88.407567 258.082408 
L 90.836706 249.476849 
L 93.265846 241.759221 
L 95.694986 234.726042 
L 98.124126 228.149922 
L 100.553266 221.898935 
L 102.982406 215.892069 
L 105.411546 210.08522 
L 107.840686 204.483554 
L 110.269826 199.094279 
L 112.698965 193.907871 
L 115.128105 188.926101 
L 117.557245 184.173641 
L 119.986385 179.646056 
L 122.415525 175.345503 
L 124.844665 171.242113 
L 127.273805 167.349672 
L 129.702945 163.667499 
L 132.132084 160.198259 
L 134.561224 156.907275 
L 136.990364 153.801025 
L 139.419504 150.873523 
L 141.848644 148.102816 
L 144.277784 145.483908 
L 146.706924 142.998331 
L 149.136064 140.641582 
L 151.565204 138.40298 
L 153.994343 136.275288 
L 156.423483 134.237884 
L 158.852623 132.300353 
L 161.281763 130.456337 
L 163.710903 128.704326 
L 166.140043 127.031456 
L 168.569183 125.434173 
L 170.998323 123.913702 
L 173.427463 122.453828 
L 175.856602 121.066649 
L 178.285742 119.728472 
L 180.714882 118.446489 
L 183.144022 117.220024 
L 185.573162 116.044758 
L 188.002302 114.917231 
L 190.431442 113.837838 
L 192.860582 112.80261 
L 195.289721 111.808333 
L 197.718861 110.846126 
L 200.148001 109.918464 
L 202.577141 109.024967 
L 205.006281 108.167232 
L 207.435421 107.344399 
L 209.864561 106.55101 
L 212.293701 105.785212 
L 214.722841 105.049581 
L 217.15198 104.345298 
L 219.58112 103.663317 
L 222.01026 103.003929 
L 224.4394 102.364483 
L 226.86854 101.744857 
L 229.29768 101.145424 
L 231.72682 100.566828 
L 234.15596 100.007083 
L 236.585099 99.466246 
L 239.014239 98.940881 
L 241.443379 98.428268 
L 243.872519 97.93092 
L 246.301659 97.451402 
L 248.730799 96.985696 
L 251.159939 96.533926 
L 253.589079 96.093631 
L 256.018219 95.664678 
L 258.447358 95.248921 
L 260.876498 94.844389 
L 263.305638 94.452578 
L 265.734778 94.073065 
L 268.163918 93.701698 
L 270.593058 93.338386 
L 273.022198 92.986978 
L 275.451338 92.646087 
L 277.880478 92.31296 
L 280.309617 91.985254 
L 282.738757 91.663611 
L 285.167897 91.349296 
L 287.597037 91.044735 
L 290.026177 90.748332 
L 292.455317 90.458995 
L 294.884457 90.175755 
L 297.313597 89.899036 
L 299.742736 89.62691 
L 302.171876 89.359147 
L 304.601016 89.096308 
L 307.030156 88.838539 
L 309.459296 88.584905 
L 311.888436 88.335817 
L 314.317576 88.092259 
" style="fill:none;stroke:#ff7f0e;stroke-linecap:square;stroke-width:1.5;"/>
   </g>
   <g id="line2d_16">
    <path clip-path="url(#p3ae94fb02e)" d="M 158.002424 295.488 
L 160.431564 287.600953 
L 162.860704 280.860923 
L 165.289844 275.014047 
L 167.718984 269.916753 
L 170.148124 265.473684 
L 172.577264 261.597351 
L 175.006403 258.188684 
L 177.435543 255.179172 
L 179.864683 252.547102 
L 182.293823 250.20588 
L 184.722963 248.10533 
L 187.152103 246.229458 
L 189.581243 244.564876 
L 192.010383 243.065845 
L 194.439522 241.712604 
L 196.868662 240.474364 
L 199.297802 239.346228 
L 201.726942 238.31084 
L 204.156082 237.360633 
L 206.585222 236.480651 
L 209.014362 235.653475 
L 211.443502 234.875489 
L 213.872642 234.142747 
L 216.301781 233.454507 
L 218.730921 232.80744 
L 221.160061 232.19419 
L 223.589201 231.613364 
L 226.018341 231.057834 
L 228.447481 230.529386 
L 230.876621 230.030792 
L 233.305761 229.56159 
L 235.734901 229.115271 
L 238.16404 228.682318 
L 240.59318 228.264983 
L 243.02232 227.864155 
L 245.45146 227.48083 
L 247.8806 227.112776 
L 250.30974 226.758223 
L 252.73888 226.416719 
L 255.16802 226.085231 
L 257.597159 225.765426 
L 260.026299 225.458085 
L 262.455439 225.161048 
L 264.884579 224.874916 
L 267.313719 224.596843 
L 269.742859 224.326573 
L 272.171999 224.061398 
L 274.601139 223.803594 
L 277.030279 223.552896 
L 279.459418 223.308324 
L 281.888558 223.070591 
L 284.317698 222.842463 
L 286.746838 222.620062 
L 289.175978 222.401684 
L 291.605118 222.188807 
L 294.034258 221.982438 
L 296.463398 221.781035 
L 298.892537 221.583987 
L 301.321677 221.39118 
L 303.750817 221.203392 
L 306.179957 221.019496 
L 308.609097 220.840102 
L 311.038237 220.664152 
L 313.467377 220.49363 
L 315.896517 220.328299 
L 318.325657 220.166208 
L 320.754796 220.005925 
L 323.183936 219.848303 
L 325.613076 219.693785 
L 328.042216 219.542168 
L 330.471356 219.392493 
L 332.900496 219.244422 
L 335.329636 219.099926 
L 337.758776 218.958271 
L 340.187916 218.819263 
L 342.617055 218.683323 
L 345.046195 218.549122 
L 347.475335 218.415955 
L 349.904475 218.283896 
L 352.333615 218.154904 
L 354.762755 218.027512 
L 357.191895 217.901984 
L 359.621035 217.778327 
L 362.050174 217.655839 
L 364.479314 217.535702 
L 366.908454 217.417313 
L 369.337594 217.300177 
L 371.766734 217.184133 
L 374.195874 217.070188 
L 376.625014 216.957419 
L 379.054154 216.845223 
L 381.483294 216.735107 
L 383.912433 216.625766 
L 386.341573 216.517639 
L 388.770713 216.410947 
L 391.199853 216.305266 
L 393.628993 216.201202 
L 396.058133 216.098369 
L 398.487273 215.997052 
" style="fill:none;stroke:#2ca02c;stroke-linecap:square;stroke-width:1.5;"/>
   </g>
   <g id="line2d_17">
    <path clip-path="url(#p3ae94fb02e)" d="M 158.002424 295.488 
L 160.431564 292.872231 
L 162.860704 290.377517 
L 165.289844 288.011352 
L 167.718984 285.754948 
L 170.148124 283.598489 
L 172.577264 281.533185 
L 175.006403 279.550366 
L 177.435543 277.649459 
L 179.864683 275.819913 
L 182.293823 274.064626 
L 184.722963 272.384341 
L 187.152103 270.768148 
L 189.581243 269.205515 
L 192.010383 267.70436 
L 194.439522 266.271022 
L 196.868662 264.897826 
L 199.297802 263.573566 
L 201.726942 262.300324 
L 204.156082 261.073559 
L 206.585222 259.88795 
L 209.014362 258.744525 
L 211.443502 257.643588 
L 213.872642 256.576858 
L 216.301781 255.544084 
L 218.730921 254.550427 
L 221.160061 253.591036 
L 223.589201 252.660394 
L 226.018341 251.758094 
L 228.447481 250.891219 
L 230.876621 250.047855 
L 233.305761 249.229668 
L 235.734901 248.440498 
L 238.16404 247.675591 
L 240.59318 246.935128 
L 243.02232 246.215238 
L 245.45146 245.517664 
L 247.8806 244.843034 
L 250.30974 244.187291 
L 252.73888 243.54967 
L 255.16802 242.928613 
L 257.597159 242.323679 
L 260.026299 241.737722 
L 262.455439 241.167857 
L 264.884579 240.615824 
L 267.313719 240.077814 
L 269.742859 239.553474 
L 272.171999 239.044877 
L 274.601139 238.55174 
L 277.030279 238.075082 
L 279.459418 237.615077 
L 281.888558 237.168527 
L 284.317698 236.732387 
L 286.746838 236.310502 
L 289.175978 235.903048 
L 291.605118 235.505065 
L 294.034258 235.11853 
L 296.463398 234.741072 
L 298.892537 234.373514 
L 301.321677 234.013861 
L 303.750817 233.660235 
L 306.179957 233.314695 
L 308.609097 232.9799 
L 311.038237 232.652225 
L 313.467377 232.329694 
L 315.896517 232.014814 
L 318.325657 231.70757 
L 320.754796 231.406039 
L 323.183936 231.109659 
L 325.613076 230.819204 
L 328.042216 230.533724 
L 330.471356 230.254032 
L 332.900496 229.978918 
L 335.329636 229.70872 
L 337.758776 229.442287 
L 340.187916 229.182507 
L 342.617055 228.928289 
L 345.046195 228.678044 
L 347.475335 228.431035 
L 349.904475 228.189529 
L 352.333615 227.952159 
L 354.762755 227.719164 
L 357.191895 227.490157 
L 359.621035 227.263859 
L 362.050174 227.040285 
L 364.479314 226.820244 
L 366.908454 226.602714 
L 369.337594 226.387822 
L 371.766734 226.175973 
L 374.195874 225.966894 
L 376.625014 225.76125 
L 379.054154 225.558907 
L 381.483294 225.359781 
L 383.912433 225.164474 
L 386.341573 224.971876 
L 388.770713 224.782505 
L 391.199853 224.59605 
L 393.628993 224.412089 
L 396.058133 224.230988 
L 398.487273 224.052613 
" style="fill:none;stroke:#d62728;stroke-linecap:square;stroke-width:1.5;"/>
   </g>
   <g id="line2d_18">
    <path clip-path="url(#p3ae94fb02e)" d="M 73.832727 295.488 
L 76.261867 291.450855 
L 78.691007 287.41371 
L 81.120147 283.376565 
L 83.549287 279.33942 
L 85.978427 275.302275 
L 88.407567 271.265131 
L 90.836706 267.227986 
L 93.265846 263.190841 
L 95.694986 259.153696 
L 98.124126 255.116551 
L 100.553266 251.079406 
L 102.982406 247.042261 
L 105.411546 243.005116 
L 107.840686 238.967971 
L 110.269826 234.930826 
L 112.698965 230.893681 
L 115.128105 226.856537 
L 117.557245 222.819392 
L 119.986385 218.782247 
L 122.415525 213.799964 
L 124.844665 205.53467 
L 127.273805 198.102478 
L 129.702945 191.45558 
L 132.132084 185.357077 
L 134.561224 179.627192 
L 136.990364 174.165759 
L 139.419504 168.911559 
L 141.848644 163.823352 
L 144.277784 158.902908 
L 146.706924 154.164253 
L 149.136064 149.619173 
L 151.565204 145.28069 
L 153.994343 141.134268 
L 156.423483 137.173613 
L 158.852623 133.392057 
L 161.281763 129.803565 
L 163.710903 126.414333 
L 166.140043 123.209595 
L 168.569183 120.180285 
L 170.998323 117.309372 
L 173.427463 114.577061 
L 175.856602 111.978952 
L 178.285742 109.502956 
L 180.714882 107.14803 
L 183.144022 104.901462 
L 185.573162 102.757378 
L 188.002302 100.704835 
L 190.431442 98.745503 
L 192.860582 96.875557 
L 195.289721 95.083147 
L 197.718861 93.366197 
L 200.148001 91.725572 
L 202.577141 90.161363 
L 205.006281 88.658134 
L 207.435421 87.21509 
L 209.864561 85.827042 
L 212.293701 84.492346 
L 214.722841 83.200017 
L 217.15198 81.956145 
L 219.58112 80.753358 
L 222.01026 79.59026 
L 224.4394 78.467183 
L 226.86854 77.382934 
L 229.29768 76.337443 
L 231.72682 75.328632 
L 234.15596 74.35641 
L 236.585099 73.416214 
L 239.014239 72.508872 
L 241.443379 71.627425 
L 243.872519 70.773811 
L 246.301659 69.946607 
L 248.730799 69.143569 
L 251.159939 68.363435 
L 253.589079 67.608049 
L 256.018219 66.872065 
L 258.447358 66.156215 
L 260.876498 65.457594 
L 263.305638 64.774645 
L 265.734778 64.109512 
L 268.163918 63.460177 
L 270.593058 62.826462 
L 273.022198 62.206365 
L 275.451338 61.59988 
L 277.880478 61.007985 
L 280.309617 60.429278 
L 282.738757 59.863928 
L 285.167897 59.31331 
L 287.597037 58.776409 
L 290.026177 58.251457 
L 292.455317 57.737534 
L 294.884457 57.233222 
L 297.313597 56.740645 
L 299.742736 56.258616 
L 302.171876 55.788632 
L 304.601016 55.327681 
L 307.030156 54.874595 
L 309.459296 54.429831 
L 311.888436 53.995259 
L 314.317576 53.568 
" style="fill:none;stroke:#9467bd;stroke-linecap:square;stroke-width:1.5;"/>
   </g>
   <g id="line2d_19">
    <path clip-path="url(#p3ae94fb02e)" d="M 158.002424 295.488 
L 160.431564 291.450855 
L 162.860704 287.41371 
L 165.289844 283.376565 
L 167.718984 279.33942 
L 170.148124 275.302275 
L 172.577264 271.265131 
L 175.006403 267.227986 
L 177.435543 263.190841 
L 179.864683 259.153696 
L 182.293823 255.116551 
L 184.722963 251.079406 
L 187.152103 247.042261 
L 189.581243 243.005116 
L 192.010383 238.967971 
L 194.439522 234.930826 
L 196.868662 230.893681 
L 199.297802 226.856537 
L 201.726942 222.819392 
L 204.156082 218.782247 
L 206.585222 213.799964 
L 209.014362 205.53467 
L 211.443502 198.102478 
L 213.872642 191.45558 
L 216.301781 185.357077 
L 218.730921 179.627192 
L 221.160061 174.165759 
L 223.589201 168.911559 
L 226.018341 163.823352 
L 228.447481 158.902908 
L 230.876621 154.164253 
L 233.305761 149.619173 
L 235.734901 145.28069 
L 238.16404 141.134268 
L 240.59318 137.173613 
L 243.02232 133.392057 
L 245.45146 129.803565 
L 247.8806 126.414333 
L 250.30974 123.209595 
L 252.73888 120.180285 
L 255.16802 117.309372 
L 257.597159 114.577061 
L 260.026299 111.978952 
L 262.455439 109.502956 
L 264.884579 107.14803 
L 267.313719 104.901462 
L 269.742859 102.757378 
L 272.171999 100.704835 
L 274.601139 98.745503 
L 277.030279 96.875557 
L 279.459418 95.083147 
L 281.888558 93.366197 
L 284.317698 91.725572 
L 286.746838 90.161363 
L 289.175978 88.658134 
L 291.605118 87.21509 
L 294.034258 85.827042 
L 296.463398 84.492346 
L 298.892537 83.200017 
L 301.321677 81.956145 
L 303.750817 80.753358 
L 306.179957 79.59026 
L 308.609097 78.467183 
L 311.038237 77.382934 
L 313.467377 76.337443 
L 315.896517 75.328632 
L 318.325657 74.35641 
L 320.754796 73.416214 
L 323.183936 72.508872 
L 325.613076 71.627425 
L 328.042216 70.773811 
L 330.471356 69.946607 
L 332.900496 69.143569 
L 335.329636 68.363435 
L 337.758776 67.608049 
L 340.187916 66.872065 
L 342.617055 66.156215 
L 345.046195 65.457594 
L 347.475335 64.774645 
L 349.904475 64.109512 
L 352.333615 63.460177 
L 354.762755 62.826462 
L 357.191895 62.206365 
L 359.621035 61.59988 
L 362.050174 61.007985 
L 364.479314 60.429278 
L 366.908454 59.863928 
L 369.337594 59.31331 
L 371.766734 58.776409 
L 374.195874 58.251457 
L 376.625014 57.737534 
L 379.054154 57.233222 
L 381.483294 56.740645 
L 383.912433 56.258616 
L 386.341573 55.788632 
L 388.770713 55.327681 
L 391.199853 54.874595 
L 393.628993 54.429831 
L 396.058133 53.995259 
L 398.487273 53.568 
" style="fill:none;stroke:#8c564b;stroke-linecap:square;stroke-width:1.5;"/>
   </g>
   <g id="patch_3">
    <path d="M 57.6 307.584 
L 57.6 41.472 
" style="fill:none;stroke:#000000;stroke-linecap:square;stroke-linejoin:miter;stroke-width:0.8;"/>
   </g>
   <g id="patch_4">
    <path d="M 414.72 307.584 
L 414.72 41.472 
" style="fill:none;stroke:#000000;stroke-linecap:square;stroke-linejoin:miter;stroke-width:0.8;"/>
   </g>
   <g id="patch_5">
    <path d="M 57.6 307.584 
L 414.72 307.584 
" style="fill:none;stroke:#000000;stroke-linecap:square;stroke-linejoin:miter;stroke-width:0.8;"/>
   </g>
   <g id="patch_6">
    <path d="M 57.6 41.472 
L 414.72 41.472 
" style="fill:none;stroke:#000000;stroke-linecap:square;stroke-linejoin:miter;stroke-width:0.8;"/>
   </g>
  </g>
 </g>
 <defs>
  <clipPath id="p3ae94fb02e">
   <rect height="266.112" width="357.12" x="57.6" y="41.472"/>
  </clipPath>
 </defs>
</svg>
