<?xml version="1.0" encoding="utf-8" standalone="no"?>
<!DOCTYPE svg PUBLIC "-//W3C//DTD SVG 1.1//EN"
  "http://www.w3.org/Graphics/SVG/1.1/DTD/svg11.dtd">
<svg height="400.56pt" version="1.1" viewBox="0 0 432 400.56" width="432pt" xmlns="http://www.w3.org/2000/svg" xmlns:xlink="http://www.w3.org/1999/xlink">
 <metadata>
  <rdf:RDF xmlns:cc="http://creativecommons.org/ns#" xmlns:dc="http://purl.org/dc/elements/1.1/" xmlns:rdf="http://www.w3.org/1999/02/22-rdf-syntax-ns#">
   <cc:Work>
    <dc:type rdf:resource="http://purl.org/dc/dcmitype/StillImage"/>
    <dc:date>2021-08-17T11:04:33.617709</dc:date>
    <dc:format>image/svg+xml</dc:format>
    <dc:creator>
     <cc:Agent>
      <dc:title>Matplotlib v3.4.1, https://matplotlib.org/</dc:title>
     </cc:Agent>
    </dc:creator>
   </cc:Work>
  </rdf:RDF>
 </metadata>
 <defs>
  <style type="text/css">*{stroke-linecap:butt;stroke-linejoin:round;}</style>
 </defs>
 <g id="figure_1">
  <g id="patch_1">
   <path d="M 0 400.56 
L 432 400.56 
L 432 0 
L 0 0 
z
" style="fill:#ffffff;"/>
  </g>
  <g id="axes_1">
   <g id="patch_2">
    <path d="M 63.71 361.653756 
L 421.2 361.653756 
L 421.2 10.014 
L 63.71 10.014 
z
" style="fill:#ffffff;"/>
   </g>
   <g id="PolyCollection_1">
    <path clip-path="url(#p931dd48068)" d="M 63.71 293.301987 
L 63.71 361.653756 
L 71.31617 361.653756 
L 78.92234 361.653756 
L 86.528511 361.653756 
L 94.134681 361.653756 
L 101.740851 361.653756 
L 109.347021 361.653756 
L 116.953191 361.653756 
L 124.559362 361.653756 
L 132.165532 361.653756 
L 139.771702 361.653756 
L 147.377872 361.653756 
L 154.984043 361.653756 
L 162.590213 361.653756 
L 170.196383 361.653756 
L 177.802553 361.653756 
L 185.408723 361.653756 
L 193.014894 361.653756 
L 200.621064 361.653756 
L 208.227234 361.653756 
L 215.833404 361.653756 
L 223.439574 361.653756 
L 231.045745 361.653756 
L 238.651915 361.653756 
L 246.258085 361.653756 
L 253.864255 361.653756 
L 261.470426 361.653756 
L 269.076596 361.653756 
L 276.682766 361.653756 
L 284.288936 361.653756 
L 291.895106 361.653756 
L 299.501277 361.653756 
L 307.107447 361.653756 
L 314.713617 361.653756 
L 322.319787 361.653756 
L 329.925957 361.653756 
L 337.532128 361.653756 
L 345.138298 361.653756 
L 352.744468 361.653756 
L 360.350638 361.653756 
L 367.956809 361.653756 
L 375.562979 361.653756 
L 383.169149 361.653756 
L 390.775319 361.653756 
L 398.381489 361.653756 
L 405.98766 361.653756 
L 413.59383 361.653756 
L 421.2 361.653756 
L 421.2 291.083624 
L 421.2 291.083624 
L 413.59383 286.194783 
L 405.98766 274.85642 
L 398.381489 266.843253 
L 390.775319 259.301863 
L 383.169149 258.26409 
L 375.562979 257.102027 
L 367.956809 256.607434 
L 360.350638 254.031742 
L 352.744468 251.938209 
L 345.138298 245.427172 
L 337.532128 238.354389 
L 329.925957 229.598971 
L 322.319787 223.153073 
L 314.713617 217.677264 
L 307.107447 214.164509 
L 299.501277 209.116731 
L 291.895106 204.841541 
L 284.288936 201.297744 
L 276.682766 197.79789 
L 269.076596 193.572852 
L 261.470426 190.212844 
L 253.864255 186.883187 
L 246.258085 190.535036 
L 238.651915 190.543695 
L 231.045745 193.316826 
L 223.439574 195.921123 
L 215.833404 201.797944 
L 208.227234 205.020641 
L 200.621064 209.970937 
L 193.014894 216.859284 
L 185.408723 226.265814 
L 177.802553 238.86997 
L 170.196383 251.194458 
L 162.590213 267.677565 
L 154.984043 280.631804 
L 147.377872 291.669691 
L 139.771702 295.430074 
L 132.165532 297.432574 
L 124.559362 296.697287 
L 116.953191 296.07119 
L 109.347021 296.245613 
L 101.740851 296.718491 
L 94.134681 295.969273 
L 86.528511 294.738695 
L 78.92234 295.400405 
L 71.31617 295.285766 
L 63.71 293.301987 
z
" style="fill:#3182bd;"/>
   </g>
   <g id="PolyCollection_2">
    <path clip-path="url(#p931dd48068)" d="M 63.71 288.779114 
L 63.71 293.301987 
L 71.31617 295.285766 
L 78.92234 295.400405 
L 86.528511 294.738695 
L 94.134681 295.969273 
L 101.740851 296.718491 
L 109.347021 296.245613 
L 116.953191 296.07119 
L 124.559362 296.697287 
L 132.165532 297.432574 
L 139.771702 295.430074 
L 147.377872 291.669691 
L 154.984043 280.631804 
L 162.590213 267.677565 
L 170.196383 251.194458 
L 177.802553 238.86997 
L 185.408723 226.265814 
L 193.014894 216.859284 
L 200.621064 209.970937 
L 208.227234 205.020641 
L 215.833404 201.797944 
L 223.439574 195.921123 
L 231.045745 193.316826 
L 238.651915 190.543695 
L 246.258085 190.535036 
L 253.864255 186.883187 
L 261.470426 190.212844 
L 269.076596 193.572852 
L 276.682766 197.79789 
L 284.288936 201.297744 
L 291.895106 204.841541 
L 299.501277 209.116731 
L 307.107447 214.164509 
L 314.713617 217.677264 
L 322.319787 223.153073 
L 329.925957 229.598971 
L 337.532128 238.354389 
L 345.138298 245.427172 
L 352.744468 251.938209 
L 360.350638 254.031742 
L 367.956809 256.607434 
L 375.562979 257.102027 
L 383.169149 258.26409 
L 390.775319 259.301863 
L 398.381489 266.843253 
L 405.98766 274.85642 
L 413.59383 286.194783 
L 421.2 291.083624 
L 421.2 286.476367 
L 421.2 286.476367 
L 413.59383 281.156645 
L 405.98766 269.508609 
L 398.381489 259.819848 
L 390.775319 251.645342 
L 383.169149 250.477063 
L 375.562979 249.445062 
L 367.956809 248.983774 
L 360.350638 245.86524 
L 352.744468 243.185113 
L 345.138298 235.967098 
L 337.532128 228.894452 
L 329.925957 220.145509 
L 322.319787 213.751596 
L 314.713617 208.426497 
L 307.107447 205.339994 
L 299.501277 200.600817 
L 291.895106 196.513958 
L 284.288936 193.065695 
L 276.682766 189.556264 
L 269.076596 185.171169 
L 261.470426 181.68553 
L 253.864255 178.100054 
L 246.258085 182.061988 
L 238.651915 182.037244 
L 231.045745 184.836254 
L 223.439574 187.634843 
L 215.833404 193.395804 
L 208.227234 196.274102 
L 200.621064 201.046997 
L 193.014894 207.670306 
L 185.408723 216.827856 
L 177.802553 229.566534 
L 170.196383 242.619036 
L 162.590213 259.968555 
L 154.984043 274.509695 
L 147.377872 286.367252 
L 139.771702 290.453512 
L 132.165532 292.585053 
L 124.559362 291.868444 
L 116.953191 291.391202 
L 109.347021 291.622623 
L 101.740851 292.164358 
L 94.134681 291.39348 
L 86.528511 290.228309 
L 78.92234 290.752564 
L 71.31617 290.699044 
L 63.71 288.779114 
z
" style="fill:#6baed6;"/>
   </g>
   <g id="PolyCollection_3">
    <path clip-path="url(#p931dd48068)" d="M 63.71 288.758616 
L 63.71 288.779114 
L 71.31617 290.699044 
L 78.92234 290.752564 
L 86.528511 290.228309 
L 94.134681 291.39348 
L 101.740851 292.164358 
L 109.347021 291.622623 
L 116.953191 291.391202 
L 124.559362 291.868444 
L 132.165532 292.585053 
L 139.771702 290.453512 
L 147.377872 286.367252 
L 154.984043 274.509695 
L 162.590213 259.968555 
L 170.196383 242.619036 
L 177.802553 229.566534 
L 185.408723 216.827856 
L 193.014894 207.670306 
L 200.621064 201.046997 
L 208.227234 196.274102 
L 215.833404 193.395804 
L 223.439574 187.634843 
L 231.045745 184.836254 
L 238.651915 182.037244 
L 246.258085 182.061988 
L 253.864255 178.100054 
L 261.470426 181.68553 
L 269.076596 185.171169 
L 276.682766 189.556264 
L 284.288936 193.065695 
L 291.895106 196.513958 
L 299.501277 200.600817 
L 307.107447 205.339994 
L 314.713617 208.426497 
L 322.319787 213.751596 
L 329.925957 220.145509 
L 337.532128 228.894452 
L 345.138298 235.967098 
L 352.744468 243.185113 
L 360.350638 245.86524 
L 367.956809 248.983774 
L 375.562979 249.445062 
L 383.169149 250.477063 
L 390.775319 251.645342 
L 398.381489 259.819848 
L 405.98766 269.508609 
L 413.59383 281.156645 
L 421.2 286.476367 
L 421.2 286.372853 
L 421.2 286.372853 
L 413.59383 280.934707 
L 405.98766 269.196701 
L 398.381489 257.401648 
L 390.775319 248.186452 
L 383.169149 246.916796 
L 375.562979 245.841246 
L 367.956809 245.886125 
L 360.350638 241.902775 
L 352.744468 239.270756 
L 345.138298 232.743819 
L 337.532128 225.083336 
L 329.925957 216.105295 
L 322.319787 209.183327 
L 314.713617 204.475204 
L 307.107447 201.944952 
L 299.501277 197.731399 
L 291.895106 193.889871 
L 284.288936 190.567237 
L 276.682766 186.908693 
L 269.076596 182.531805 
L 261.470426 178.81292 
L 253.864255 175.141487 
L 246.258085 179.261654 
L 238.651915 178.961825 
L 231.045745 181.912343 
L 223.439574 184.437237 
L 215.833404 190.350595 
L 208.227234 192.948108 
L 200.621064 197.519547 
L 193.014894 204.037533 
L 185.408723 213.797012 
L 177.802553 227.191427 
L 170.196383 240.623097 
L 162.590213 259.027814 
L 154.984043 274.397973 
L 147.377872 286.355852 
L 139.771702 290.453512 
L 132.165532 292.585053 
L 124.559362 291.868444 
L 116.953191 291.363842 
L 109.347021 291.622623 
L 101.740851 292.164358 
L 94.134681 291.39348 
L 86.528511 290.228309 
L 78.92234 290.752564 
L 71.31617 290.681373 
L 63.71 288.758616 
z
" style="fill:#9ecae1;"/>
   </g>
   <g id="PolyCollection_4">
    <path clip-path="url(#p931dd48068)" d="M 63.71 287.794528 
L 63.71 288.758616 
L 71.31617 290.681373 
L 78.92234 290.752564 
L 86.528511 290.228309 
L 94.134681 291.39348 
L 101.740851 292.164358 
L 109.347021 291.622623 
L 116.953191 291.363842 
L 124.559362 291.868444 
L 132.165532 292.585053 
L 139.771702 290.453512 
L 147.377872 286.355852 
L 154.984043 274.397973 
L 162.590213 259.027814 
L 170.196383 240.623097 
L 177.802553 227.191427 
L 185.408723 213.797012 
L 193.014894 204.037533 
L 200.621064 197.519547 
L 208.227234 192.948108 
L 215.833404 190.350595 
L 223.439574 184.437237 
L 231.045745 181.912343 
L 238.651915 178.961825 
L 246.258085 179.261654 
L 253.864255 175.141487 
L 261.470426 178.81292 
L 269.076596 182.531805 
L 276.682766 186.908693 
L 284.288936 190.567237 
L 291.895106 193.889871 
L 299.501277 197.731399 
L 307.107447 201.944952 
L 314.713617 204.475204 
L 322.319787 209.183327 
L 329.925957 216.105295 
L 337.532128 225.083336 
L 345.138298 232.743819 
L 352.744468 239.270756 
L 360.350638 241.902775 
L 367.956809 245.886125 
L 375.562979 245.841246 
L 383.169149 246.916796 
L 390.775319 248.186452 
L 398.381489 257.401648 
L 405.98766 269.196701 
L 413.59383 280.934707 
L 421.2 286.372853 
L 421.2 285.361888 
L 421.2 285.361888 
L 413.59383 279.830671 
L 405.98766 267.953856 
L 398.381489 255.724457 
L 390.775319 246.147778 
L 383.169149 244.684874 
L 375.562979 243.513563 
L 367.956809 242.767044 
L 360.350638 238.68132 
L 352.744468 235.904748 
L 345.138298 229.200424 
L 337.532128 221.296015 
L 329.925957 212.319533 
L 322.319787 205.491958 
L 314.713617 200.984021 
L 307.107447 199.487376 
L 299.501277 195.652924 
L 291.895106 192.039626 
L 284.288936 188.808878 
L 276.682766 185.258863 
L 269.076596 180.892008 
L 261.470426 177.03632 
L 253.864255 173.261146 
L 246.258085 176.696962 
L 238.651915 176.264321 
L 231.045745 179.127628 
L 223.439574 181.597631 
L 215.833404 187.180213 
L 208.227234 189.730301 
L 200.621064 194.28825 
L 193.014894 200.947864 
L 185.408723 211.648539 
L 177.802553 225.222393 
L 170.196383 238.761224 
L 162.590213 257.470097 
L 154.984043 273.660611 
L 147.377872 285.712655 
L 139.771702 289.902656 
L 132.165532 292.041494 
L 124.559362 291.360225 
L 116.953191 290.846731 
L 109.347021 291.094112 
L 101.740851 291.631971 
L 94.134681 290.844221 
L 86.528511 289.675112 
L 78.92234 290.15816 
L 71.31617 290.054905 
L 63.71 287.794528 
z
" style="fill:#c6dbef;"/>
   </g>
   <g id="PolyCollection_5">
    <path clip-path="url(#p931dd48068)" d="M 63.71 279.771227 
L 63.71 287.794528 
L 71.31617 290.054905 
L 78.92234 290.15816 
L 86.528511 289.675112 
L 94.134681 290.844221 
L 101.740851 291.631971 
L 109.347021 291.094112 
L 116.953191 290.846731 
L 124.559362 291.360225 
L 132.165532 292.041494 
L 139.771702 289.902656 
L 147.377872 285.712655 
L 154.984043 273.660611 
L 162.590213 257.470097 
L 170.196383 238.761224 
L 177.802553 225.222393 
L 185.408723 211.648539 
L 193.014894 200.947864 
L 200.621064 194.28825 
L 208.227234 189.730301 
L 215.833404 187.180213 
L 223.439574 181.597631 
L 231.045745 179.127628 
L 238.651915 176.264321 
L 246.258085 176.696962 
L 253.864255 173.261146 
L 261.470426 177.03632 
L 269.076596 180.892008 
L 276.682766 185.258863 
L 284.288936 188.808878 
L 291.895106 192.039626 
L 299.501277 195.652924 
L 307.107447 199.487376 
L 314.713617 200.984021 
L 322.319787 205.491958 
L 329.925957 212.319533 
L 337.532128 221.296015 
L 345.138298 229.200424 
L 352.744468 235.904748 
L 360.350638 238.68132 
L 367.956809 242.767044 
L 375.562979 243.513563 
L 383.169149 244.684874 
L 390.775319 246.147778 
L 398.381489 255.724457 
L 405.98766 267.953856 
L 413.59383 279.830671 
L 421.2 285.361888 
L 421.2 277.774617 
L 421.2 277.774617 
L 413.59383 272.188235 
L 405.98766 260.193741 
L 398.381489 248.045945 
L 390.775319 238.689307 
L 383.169149 236.998303 
L 375.562979 235.864654 
L 367.956809 235.171716 
L 360.350638 231.301445 
L 352.744468 228.427663 
L 345.138298 221.471695 
L 337.532128 213.845061 
L 329.925957 204.656034 
L 322.319787 197.904476 
L 314.713617 193.684927 
L 307.107447 191.943538 
L 299.501277 188.409613 
L 291.895106 185.047557 
L 284.288936 181.941288 
L 276.682766 178.79812 
L 269.076596 174.304284 
L 261.470426 170.607944 
L 253.864255 166.843989 
L 246.258085 170.302396 
L 238.651915 169.752481 
L 231.045745 172.784439 
L 223.439574 175.750305 
L 215.833404 180.728081 
L 208.227234 183.35959 
L 200.621064 187.831151 
L 193.014894 194.552849 
L 185.408723 205.052066 
L 177.802553 218.457147 
L 170.196383 231.814162 
L 162.590213 250.197585 
L 154.984043 266.297637 
L 147.377872 278.422721 
L 139.771702 282.576153 
L 132.165532 284.66957 
L 124.559362 283.826337 
L 116.953191 283.444428 
L 109.347021 283.67287 
L 101.740851 283.941564 
L 94.134681 283.085556 
L 86.528511 282.151137 
L 78.92234 282.3557 
L 71.31617 282.233322 
L 63.71 279.771227 
z
" style="fill:#e6550d;"/>
   </g>
   <g id="PolyCollection_6">
    <path clip-path="url(#p931dd48068)" d="M 63.71 268.870702 
L 63.71 279.771227 
L 71.31617 282.233322 
L 78.92234 282.3557 
L 86.528511 282.151137 
L 94.134681 283.085556 
L 101.740851 283.941564 
L 109.347021 283.67287 
L 116.953191 283.444428 
L 124.559362 283.826337 
L 132.165532 284.66957 
L 139.771702 282.576153 
L 147.377872 278.422721 
L 154.984043 266.297637 
L 162.590213 250.197585 
L 170.196383 231.814162 
L 177.802553 218.457147 
L 185.408723 205.052066 
L 193.014894 194.552849 
L 200.621064 187.831151 
L 208.227234 183.35959 
L 215.833404 180.728081 
L 223.439574 175.750305 
L 231.045745 172.784439 
L 238.651915 169.752481 
L 246.258085 170.302396 
L 253.864255 166.843989 
L 261.470426 170.607944 
L 269.076596 174.304284 
L 276.682766 178.79812 
L 284.288936 181.941288 
L 291.895106 185.047557 
L 299.501277 188.409613 
L 307.107447 191.943538 
L 314.713617 193.684927 
L 322.319787 197.904476 
L 329.925957 204.656034 
L 337.532128 213.845061 
L 345.138298 221.471695 
L 352.744468 228.427663 
L 360.350638 231.301445 
L 367.956809 235.171716 
L 375.562979 235.864654 
L 383.169149 236.998303 
L 390.775319 238.689307 
L 398.381489 248.045945 
L 405.98766 260.193741 
L 413.59383 272.188235 
L 421.2 277.774617 
L 421.2 267.097722 
L 421.2 267.097722 
L 413.59383 261.101023 
L 405.98766 249.18633 
L 398.381489 237.186577 
L 390.775319 227.929328 
L 383.169149 225.770606 
L 375.562979 224.640931 
L 367.956809 223.391785 
L 360.350638 219.166033 
L 352.744468 215.450691 
L 345.138298 208.329779 
L 337.532128 200.302174 
L 329.925957 190.11642 
L 322.319787 183.402426 
L 314.713617 178.838361 
L 307.107447 177.036267 
L 299.501277 173.403263 
L 291.895106 170.170349 
L 284.288936 167.055483 
L 276.682766 164.846602 
L 269.076596 159.850318 
L 261.470426 156.83821 
L 253.864255 153.307189 
L 246.258085 157.282061 
L 238.651915 156.83729 
L 231.045745 160.463696 
L 223.439574 163.795427 
L 215.833404 168.794004 
L 208.227234 171.525156 
L 200.621064 176.160383 
L 193.014894 183.235995 
L 185.408723 194.231249 
L 177.802553 207.921491 
L 170.196383 221.666417 
L 162.590213 240.104419 
L 154.984043 256.250387 
L 147.377872 268.358902 
L 139.771702 272.372539 
L 132.165532 274.450004 
L 124.559362 273.355676 
L 116.953191 273.125217 
L 109.347021 273.182159 
L 101.740851 273.497316 
L 94.134681 272.524259 
L 86.528511 271.831805 
L 78.92234 271.715654 
L 71.31617 271.587057 
L 63.71 268.870702 
z
" style="fill:#fd8d3c;"/>
   </g>
   <g id="PolyCollection_7">
    <path clip-path="url(#p931dd48068)" d="M 63.71 268.870702 
L 63.71 268.870702 
L 71.31617 271.587057 
L 78.92234 271.715654 
L 86.528511 271.831805 
L 94.134681 272.524259 
L 101.740851 273.497316 
L 109.347021 273.182159 
L 116.953191 273.125217 
L 124.559362 273.355676 
L 132.165532 274.450004 
L 139.771702 272.372539 
L 147.377872 268.358902 
L 154.984043 256.250387 
L 162.590213 240.104419 
L 170.196383 221.666417 
L 177.802553 207.921491 
L 185.408723 194.231249 
L 193.014894 183.235995 
L 200.621064 176.160383 
L 208.227234 171.525156 
L 215.833404 168.794004 
L 223.439574 163.795427 
L 231.045745 160.463696 
L 238.651915 156.83729 
L 246.258085 157.282061 
L 253.864255 153.307189 
L 261.470426 156.83821 
L 269.076596 159.850318 
L 276.682766 164.846602 
L 284.288936 167.055483 
L 291.895106 170.170349 
L 299.501277 173.403263 
L 307.107447 177.036267 
L 314.713617 178.838361 
L 322.319787 183.402426 
L 329.925957 190.11642 
L 337.532128 200.302174 
L 345.138298 208.329779 
L 352.744468 215.450691 
L 360.350638 219.166033 
L 367.956809 223.391785 
L 375.562979 224.640931 
L 383.169149 225.770606 
L 390.775319 227.929328 
L 398.381489 237.186577 
L 405.98766 249.18633 
L 413.59383 261.101023 
L 421.2 267.097722 
L 421.2 267.097722 
L 421.2 267.097722 
L 413.59383 261.101023 
L 405.98766 249.18633 
L 398.381489 237.186577 
L 390.775319 227.916369 
L 383.169149 225.7445 
L 375.562979 224.241584 
L 367.956809 222.814026 
L 360.350638 217.909736 
L 352.744468 213.189129 
L 345.138298 204.77373 
L 337.532128 195.51837 
L 329.925957 183.748182 
L 322.319787 175.746084 
L 314.713617 169.675489 
L 307.107447 166.674677 
L 299.501277 161.228129 
L 291.895106 156.592996 
L 284.288936 152.435928 
L 276.682766 149.591147 
L 269.076596 143.995899 
L 261.470426 140.511483 
L 253.864255 136.917305 
L 246.258085 141.028181 
L 238.651915 140.884601 
L 231.045745 145.041571 
L 223.439574 148.864314 
L 215.833404 154.725077 
L 208.227234 158.596016 
L 200.621064 164.757191 
L 193.014894 173.273403 
L 185.408723 185.941059 
L 177.802553 201.38225 
L 170.196383 216.913579 
L 162.590213 236.744452 
L 154.984043 254.031462 
L 147.377872 267.1107 
L 139.771702 271.786343 
L 132.165532 274.210031 
L 124.559362 273.317372 
L 116.953191 273.125217 
L 109.347021 273.182159 
L 101.740851 273.497316 
L 94.134681 272.524259 
L 86.528511 271.831805 
L 78.92234 271.715654 
L 71.31617 271.587057 
L 63.71 268.870702 
z
" style="fill:#fdae6b;"/>
   </g>
   <g id="PolyCollection_8">
    <path clip-path="url(#p931dd48068)" d="M 63.71 212.499118 
L 63.71 268.870702 
L 71.31617 271.587057 
L 78.92234 271.715654 
L 86.528511 271.831805 
L 94.134681 272.524259 
L 101.740851 273.497316 
L 109.347021 273.182159 
L 116.953191 273.125217 
L 124.559362 273.317372 
L 132.165532 274.210031 
L 139.771702 271.786343 
L 147.377872 267.1107 
L 154.984043 254.031462 
L 162.590213 236.744452 
L 170.196383 216.913579 
L 177.802553 201.38225 
L 185.408723 185.941059 
L 193.014894 173.273403 
L 200.621064 164.757191 
L 208.227234 158.596016 
L 215.833404 154.725077 
L 223.439574 148.864314 
L 231.045745 145.041571 
L 238.651915 140.884601 
L 246.258085 141.028181 
L 253.864255 136.917305 
L 261.470426 140.511483 
L 269.076596 143.995899 
L 276.682766 149.591147 
L 284.288936 152.435928 
L 291.895106 156.592996 
L 299.501277 161.228129 
L 307.107447 166.674677 
L 314.713617 169.675489 
L 322.319787 175.746084 
L 329.925957 183.748182 
L 337.532128 195.51837 
L 345.138298 204.77373 
L 352.744468 213.189129 
L 360.350638 217.909736 
L 367.956809 222.814026 
L 375.562979 224.241584 
L 383.169149 225.7445 
L 390.775319 227.916369 
L 398.381489 237.186577 
L 405.98766 249.18633 
L 413.59383 261.101023 
L 421.2 267.097722 
L 421.2 210.521049 
L 421.2 210.521049 
L 413.59383 204.530825 
L 405.98766 192.624477 
L 398.381489 180.650032 
L 390.775319 171.520047 
L 383.169149 169.340197 
L 375.562979 167.957438 
L 367.956809 166.592581 
L 360.350638 161.727964 
L 352.744468 156.871011 
L 345.138298 148.380143 
L 337.532128 139.177179 
L 329.925957 127.213461 
L 322.319787 119.269048 
L 314.713617 113.116144 
L 307.107447 110.240422 
L 299.501277 104.760213 
L 291.895106 100.190745 
L 284.288936 96.004721 
L 276.682766 93.177724 
L 269.076596 87.512707 
L 261.470426 83.937089 
L 253.864255 80.293891 
L 246.258085 85.380848 
L 238.651915 85.220282 
L 231.045745 89.39743 
L 223.439574 93.868416 
L 215.833404 100.134082 
L 208.227234 103.391009 
L 200.621064 108.385135 
L 193.014894 116.85428 
L 185.408723 129.489331 
L 177.802553 144.996643 
L 170.196383 160.518397 
L 162.590213 180.346533 
L 154.984043 197.644031 
L 147.377872 210.780498 
L 139.771702 215.504478 
L 132.165532 217.914257 
L 124.559362 217.013846 
L 116.953191 216.908332 
L 109.347021 217.019767 
L 101.740851 217.230043 
L 94.134681 216.195197 
L 86.528511 215.573781 
L 78.92234 215.39708 
L 71.31617 215.352829 
L 63.71 212.499118 
z
" style="fill:#fdd0a2;"/>
   </g>
   <g id="PolyCollection_9">
    <path clip-path="url(#p931dd48068)" d="M 63.71 212.499118 
L 63.71 212.499118 
L 71.31617 215.352829 
L 78.92234 215.39708 
L 86.528511 215.573781 
L 94.134681 216.195197 
L 101.740851 217.230043 
L 109.347021 217.019767 
L 116.953191 216.908332 
L 124.559362 217.013846 
L 132.165532 217.914257 
L 139.771702 215.504478 
L 147.377872 210.780498 
L 154.984043 197.644031 
L 162.590213 180.346533 
L 170.196383 160.518397 
L 177.802553 144.996643 
L 185.408723 129.489331 
L 193.014894 116.85428 
L 200.621064 108.385135 
L 208.227234 103.391009 
L 215.833404 100.134082 
L 223.439574 93.868416 
L 231.045745 89.39743 
L 238.651915 85.220282 
L 246.258085 85.380848 
L 253.864255 80.293891 
L 261.470426 83.937089 
L 269.076596 87.512707 
L 276.682766 93.177724 
L 284.288936 96.004721 
L 291.895106 100.190745 
L 299.501277 104.760213 
L 307.107447 110.240422 
L 314.713617 113.116144 
L 322.319787 119.269048 
L 329.925957 127.213461 
L 337.532128 139.177179 
L 345.138298 148.380143 
L 352.744468 156.871011 
L 360.350638 161.727964 
L 367.956809 166.592581 
L 375.562979 167.957438 
L 383.169149 169.340197 
L 390.775319 171.520047 
L 398.381489 180.650032 
L 405.98766 192.624477 
L 413.59383 204.530825 
L 421.2 210.521049 
L 421.2 210.521049 
L 421.2 210.521049 
L 413.59383 204.530825 
L 405.98766 192.624477 
L 398.381489 180.650032 
L 390.775319 171.519943 
L 383.169149 169.328357 
L 375.562979 167.803775 
L 367.956809 165.956658 
L 360.350638 160.22873 
L 352.744468 154.197219 
L 345.138298 144.303563 
L 337.532128 133.527769 
L 329.925957 119.741801 
L 322.319787 109.915223 
L 314.713617 102.012396 
L 307.107447 97.425967 
L 299.501277 90.321921 
L 291.895106 84.476776 
L 284.288936 79.38786 
L 276.682766 75.934994 
L 269.076596 69.748991 
L 261.470426 65.654666 
L 253.864255 61.558882 
L 246.258085 66.914882 
L 238.651915 67.104301 
L 231.045745 71.915297 
L 223.439574 77.154729 
L 215.833404 84.581995 
L 208.227234 89.374522 
L 200.621064 96.290448 
L 193.014894 106.417441 
L 185.408723 120.932377 
L 177.802553 138.370533 
L 170.196383 155.733981 
L 162.590213 177.183789 
L 154.984043 195.819323 
L 147.377872 209.987435 
L 139.771702 215.303012 
L 132.165532 217.895819 
L 124.559362 217.013451 
L 116.953191 216.908325 
L 109.347021 217.019767 
L 101.740851 217.230043 
L 94.134681 216.195197 
L 86.528511 215.573781 
L 78.92234 215.39708 
L 71.31617 215.352829 
L 63.71 212.499118 
z
" style="fill:#31a354;"/>
   </g>
   <g id="PolyCollection_10">
    <path clip-path="url(#p931dd48068)" d="M 63.71 212.499118 
L 63.71 212.499118 
L 71.31617 215.352829 
L 78.92234 215.39708 
L 86.528511 215.573781 
L 94.134681 216.195197 
L 101.740851 217.230043 
L 109.347021 217.019767 
L 116.953191 216.908325 
L 124.559362 217.013451 
L 132.165532 217.895819 
L 139.771702 215.303012 
L 147.377872 209.987435 
L 154.984043 195.819323 
L 162.590213 177.183789 
L 170.196383 155.733981 
L 177.802553 138.370533 
L 185.408723 120.932377 
L 193.014894 106.417441 
L 200.621064 96.290448 
L 208.227234 89.374522 
L 215.833404 84.581995 
L 223.439574 77.154729 
L 231.045745 71.915297 
L 238.651915 67.104301 
L 246.258085 66.914882 
L 253.864255 61.558882 
L 261.470426 65.654666 
L 269.076596 69.748991 
L 276.682766 75.934994 
L 284.288936 79.38786 
L 291.895106 84.476776 
L 299.501277 90.321921 
L 307.107447 97.425967 
L 314.713617 102.012396 
L 322.319787 109.915223 
L 329.925957 119.741801 
L 337.532128 133.527769 
L 345.138298 144.303563 
L 352.744468 154.197219 
L 360.350638 160.22873 
L 367.956809 165.956658 
L 375.562979 167.803775 
L 383.169149 169.328357 
L 390.775319 171.519943 
L 398.381489 180.650032 
L 405.98766 192.624477 
L 413.59383 204.530825 
L 421.2 210.521049 
L 421.2 210.521049 
L 421.2 210.521049 
L 413.59383 204.530825 
L 405.98766 192.624477 
L 398.381489 180.650032 
L 390.775319 171.477921 
L 383.169149 169.243697 
L 375.562979 166.515537 
L 367.956809 164.108373 
L 360.350638 156.622312 
L 352.744468 148.469925 
L 345.138298 137.567198 
L 337.532128 126.273342 
L 329.925957 111.819387 
L 322.319787 100.989188 
L 314.713617 91.951698 
L 307.107447 86.278974 
L 299.501277 77.734257 
L 291.895106 70.553832 
L 284.288936 64.471226 
L 276.682766 59.97363 
L 269.076596 53.89722 
L 261.470426 49.313341 
L 253.864255 45.313583 
L 246.258085 49.892633 
L 238.651915 50.747042 
L 231.045745 55.949292 
L 223.439574 61.903551 
L 215.833404 70.054552 
L 208.227234 76.256124 
L 200.621064 84.700865 
L 193.014894 96.282607 
L 185.408723 112.212014 
L 177.802553 130.945435 
L 170.196383 149.871086 
L 162.590213 172.7573 
L 154.984043 192.442599 
L 147.377872 207.558903 
L 139.771702 213.799922 
L 132.165532 217.20163 
L 124.559362 216.891955 
L 116.953191 216.908325 
L 109.347021 217.019767 
L 101.740851 217.230043 
L 94.134681 216.195197 
L 86.528511 215.573781 
L 78.92234 215.39708 
L 71.31617 215.352829 
L 63.71 212.499118 
z
" style="fill:#74c476;"/>
   </g>
   <g id="PolyCollection_11">
    <path clip-path="url(#p931dd48068)" d="M 63.71 212.499118 
L 63.71 212.499118 
L 71.31617 215.352829 
L 78.92234 215.39708 
L 86.528511 215.573781 
L 94.134681 216.195197 
L 101.740851 217.230043 
L 109.347021 217.019767 
L 116.953191 216.908325 
L 124.559362 216.891955 
L 132.165532 217.20163 
L 139.771702 213.799922 
L 147.377872 207.558903 
L 154.984043 192.442599 
L 162.590213 172.7573 
L 170.196383 149.871086 
L 177.802553 130.945435 
L 185.408723 112.212014 
L 193.014894 96.282607 
L 200.621064 84.700865 
L 208.227234 76.256124 
L 215.833404 70.054552 
L 223.439574 61.903551 
L 231.045745 55.949292 
L 238.651915 50.747042 
L 246.258085 49.892633 
L 253.864255 45.313583 
L 261.470426 49.313341 
L 269.076596 53.89722 
L 276.682766 59.97363 
L 284.288936 64.471226 
L 291.895106 70.553832 
L 299.501277 77.734257 
L 307.107447 86.278974 
L 314.713617 91.951698 
L 322.319787 100.989188 
L 329.925957 111.819387 
L 337.532128 126.273342 
L 345.138298 137.567198 
L 352.744468 148.469925 
L 360.350638 156.622312 
L 367.956809 164.108373 
L 375.562979 166.515537 
L 383.169149 169.243697 
L 390.775319 171.477921 
L 398.381489 180.650032 
L 405.98766 192.624477 
L 413.59383 204.530825 
L 421.2 210.521049 
L 421.2 210.521049 
L 421.2 210.521049 
L 413.59383 204.530825 
L 405.98766 192.624477 
L 398.381489 180.650032 
L 390.775319 171.477584 
L 383.169149 169.205301 
L 375.562979 166.022039 
L 367.956809 162.078715 
L 360.350638 152.34897 
L 352.744468 141.733979 
L 345.138298 129.969224 
L 337.532128 117.806206 
L 329.925957 102.57715 
L 322.319787 90.089914 
L 314.713617 79.778665 
L 307.107447 72.461022 
L 299.501277 62.73974 
L 291.895106 54.430699 
L 284.288936 47.494448 
L 276.682766 41.945102 
L 269.076596 36.153001 
L 261.470426 31.051401 
L 253.864255 26.75875 
L 246.258085 30.569079 
L 238.651915 32.185461 
L 231.045745 37.84903 
L 223.439574 44.812859 
L 215.833404 53.975471 
L 208.227234 62.023324 
L 200.621064 72.412882 
L 193.014894 85.681937 
L 185.408723 103.227681 
L 177.802553 123.456673 
L 170.196383 144.048062 
L 162.590213 168.61037 
L 154.984043 189.606401 
L 147.377872 206.01794 
L 139.771702 213.291292 
L 132.165532 217.149055 
L 124.559362 216.890707 
L 116.953191 216.9083 
L 109.347021 217.019767 
L 101.740851 217.230043 
L 94.134681 216.195197 
L 86.528511 215.573781 
L 78.92234 215.39708 
L 71.31617 215.352829 
L 63.71 212.499118 
z
" style="fill:#a1d99b;"/>
   </g>
   <g id="matplotlib.axis_1">
    <g id="xtick_1">
     <g id="line2d_1">
      <defs>
       <path d="M 0 0 
L 0 3.5 
" id="mb61cac2c24" style="stroke:#000000;stroke-width:0.8;"/>
      </defs>
      <g>
       <use style="stroke:#000000;stroke-width:0.8;" x="63.71" xlink:href="#mb61cac2c24" y="361.653756"/>
      </g>
     </g>
     <g id="text_1">
      <!-- 0:00:00 -->
      <g transform="translate(44.435 376.252193)scale(0.1 -0.1)">
       <defs>
        <path d="M 2034 4250 
Q 1547 4250 1301 3770 
Q 1056 3291 1056 2328 
Q 1056 1369 1301 889 
Q 1547 409 2034 409 
Q 2525 409 2770 889 
Q 3016 1369 3016 2328 
Q 3016 3291 2770 3770 
Q 2525 4250 2034 4250 
z
M 2034 4750 
Q 2819 4750 3233 4129 
Q 3647 3509 3647 2328 
Q 3647 1150 3233 529 
Q 2819 -91 2034 -91 
Q 1250 -91 836 529 
Q 422 1150 422 2328 
Q 422 3509 836 4129 
Q 1250 4750 2034 4750 
z
" id="DejaVuSans-30" transform="scale(0.015625)"/>
        <path d="M 750 794 
L 1409 794 
L 1409 0 
L 750 0 
L 750 794 
z
M 750 3309 
L 1409 3309 
L 1409 2516 
L 750 2516 
L 750 3309 
z
" id="DejaVuSans-3a" transform="scale(0.015625)"/>
       </defs>
       <use xlink:href="#DejaVuSans-30"/>
       <use x="63.623047" xlink:href="#DejaVuSans-3a"/>
       <use x="97.314453" xlink:href="#DejaVuSans-30"/>
       <use x="160.9375" xlink:href="#DejaVuSans-30"/>
       <use x="224.560547" xlink:href="#DejaVuSans-3a"/>
       <use x="258.251953" xlink:href="#DejaVuSans-30"/>
       <use x="321.875" xlink:href="#DejaVuSans-30"/>
      </g>
     </g>
    </g>
    <g id="xtick_2">
     <g id="line2d_2">
      <g>
       <use style="stroke:#000000;stroke-width:0.8;" x="124.559362" xlink:href="#mb61cac2c24" y="361.653756"/>
      </g>
     </g>
     <g id="text_2">
      <!-- 4:00:00 -->
      <g transform="translate(105.284362 376.252193)scale(0.1 -0.1)">
       <defs>
        <path d="M 2419 4116 
L 825 1625 
L 2419 1625 
L 2419 4116 
z
M 2253 4666 
L 3047 4666 
L 3047 1625 
L 3713 1625 
L 3713 1100 
L 3047 1100 
L 3047 0 
L 2419 0 
L 2419 1100 
L 313 1100 
L 313 1709 
L 2253 4666 
z
" id="DejaVuSans-34" transform="scale(0.015625)"/>
       </defs>
       <use xlink:href="#DejaVuSans-34"/>
       <use x="63.623047" xlink:href="#DejaVuSans-3a"/>
       <use x="97.314453" xlink:href="#DejaVuSans-30"/>
       <use x="160.9375" xlink:href="#DejaVuSans-30"/>
       <use x="224.560547" xlink:href="#DejaVuSans-3a"/>
       <use x="258.251953" xlink:href="#DejaVuSans-30"/>
       <use x="321.875" xlink:href="#DejaVuSans-30"/>
      </g>
     </g>
    </g>
    <g id="xtick_3">
     <g id="line2d_3">
      <g>
       <use style="stroke:#000000;stroke-width:0.8;" x="185.408723" xlink:href="#mb61cac2c24" y="361.653756"/>
      </g>
     </g>
     <g id="text_3">
      <!-- 8:00:00 -->
      <g transform="translate(166.133723 376.252193)scale(0.1 -0.1)">
       <defs>
        <path d="M 2034 2216 
Q 1584 2216 1326 1975 
Q 1069 1734 1069 1313 
Q 1069 891 1326 650 
Q 1584 409 2034 409 
Q 2484 409 2743 651 
Q 3003 894 3003 1313 
Q 3003 1734 2745 1975 
Q 2488 2216 2034 2216 
z
M 1403 2484 
Q 997 2584 770 2862 
Q 544 3141 544 3541 
Q 544 4100 942 4425 
Q 1341 4750 2034 4750 
Q 2731 4750 3128 4425 
Q 3525 4100 3525 3541 
Q 3525 3141 3298 2862 
Q 3072 2584 2669 2484 
Q 3125 2378 3379 2068 
Q 3634 1759 3634 1313 
Q 3634 634 3220 271 
Q 2806 -91 2034 -91 
Q 1263 -91 848 271 
Q 434 634 434 1313 
Q 434 1759 690 2068 
Q 947 2378 1403 2484 
z
M 1172 3481 
Q 1172 3119 1398 2916 
Q 1625 2713 2034 2713 
Q 2441 2713 2670 2916 
Q 2900 3119 2900 3481 
Q 2900 3844 2670 4047 
Q 2441 4250 2034 4250 
Q 1625 4250 1398 4047 
Q 1172 3844 1172 3481 
z
" id="DejaVuSans-38" transform="scale(0.015625)"/>
       </defs>
       <use xlink:href="#DejaVuSans-38"/>
       <use x="63.623047" xlink:href="#DejaVuSans-3a"/>
       <use x="97.314453" xlink:href="#DejaVuSans-30"/>
       <use x="160.9375" xlink:href="#DejaVuSans-30"/>
       <use x="224.560547" xlink:href="#DejaVuSans-3a"/>
       <use x="258.251953" xlink:href="#DejaVuSans-30"/>
       <use x="321.875" xlink:href="#DejaVuSans-30"/>
      </g>
     </g>
    </g>
    <g id="xtick_4">
     <g id="line2d_4">
      <g>
       <use style="stroke:#000000;stroke-width:0.8;" x="246.258085" xlink:href="#mb61cac2c24" y="361.653756"/>
      </g>
     </g>
     <g id="text_4">
      <!-- 12:00:00 -->
      <g transform="translate(223.801835 376.252193)scale(0.1 -0.1)">
       <defs>
        <path d="M 794 531 
L 1825 531 
L 1825 4091 
L 703 3866 
L 703 4441 
L 1819 4666 
L 2450 4666 
L 2450 531 
L 3481 531 
L 3481 0 
L 794 0 
L 794 531 
z
" id="DejaVuSans-31" transform="scale(0.015625)"/>
        <path d="M 1228 531 
L 3431 531 
L 3431 0 
L 469 0 
L 469 531 
Q 828 903 1448 1529 
Q 2069 2156 2228 2338 
Q 2531 2678 2651 2914 
Q 2772 3150 2772 3378 
Q 2772 3750 2511 3984 
Q 2250 4219 1831 4219 
Q 1534 4219 1204 4116 
Q 875 4013 500 3803 
L 500 4441 
Q 881 4594 1212 4672 
Q 1544 4750 1819 4750 
Q 2544 4750 2975 4387 
Q 3406 4025 3406 3419 
Q 3406 3131 3298 2873 
Q 3191 2616 2906 2266 
Q 2828 2175 2409 1742 
Q 1991 1309 1228 531 
z
" id="DejaVuSans-32" transform="scale(0.015625)"/>
       </defs>
       <use xlink:href="#DejaVuSans-31"/>
       <use x="63.623047" xlink:href="#DejaVuSans-32"/>
       <use x="127.246094" xlink:href="#DejaVuSans-3a"/>
       <use x="160.9375" xlink:href="#DejaVuSans-30"/>
       <use x="224.560547" xlink:href="#DejaVuSans-30"/>
       <use x="288.183594" xlink:href="#DejaVuSans-3a"/>
       <use x="321.875" xlink:href="#DejaVuSans-30"/>
       <use x="385.498047" xlink:href="#DejaVuSans-30"/>
      </g>
     </g>
    </g>
    <g id="xtick_5">
     <g id="line2d_5">
      <g>
       <use style="stroke:#000000;stroke-width:0.8;" x="307.107447" xlink:href="#mb61cac2c24" y="361.653756"/>
      </g>
     </g>
     <g id="text_5">
      <!-- 16:00:00 -->
      <g transform="translate(284.651197 376.252193)scale(0.1 -0.1)">
       <defs>
        <path d="M 2113 2584 
Q 1688 2584 1439 2293 
Q 1191 2003 1191 1497 
Q 1191 994 1439 701 
Q 1688 409 2113 409 
Q 2538 409 2786 701 
Q 3034 994 3034 1497 
Q 3034 2003 2786 2293 
Q 2538 2584 2113 2584 
z
M 3366 4563 
L 3366 3988 
Q 3128 4100 2886 4159 
Q 2644 4219 2406 4219 
Q 1781 4219 1451 3797 
Q 1122 3375 1075 2522 
Q 1259 2794 1537 2939 
Q 1816 3084 2150 3084 
Q 2853 3084 3261 2657 
Q 3669 2231 3669 1497 
Q 3669 778 3244 343 
Q 2819 -91 2113 -91 
Q 1303 -91 875 529 
Q 447 1150 447 2328 
Q 447 3434 972 4092 
Q 1497 4750 2381 4750 
Q 2619 4750 2861 4703 
Q 3103 4656 3366 4563 
z
" id="DejaVuSans-36" transform="scale(0.015625)"/>
       </defs>
       <use xlink:href="#DejaVuSans-31"/>
       <use x="63.623047" xlink:href="#DejaVuSans-36"/>
       <use x="127.246094" xlink:href="#DejaVuSans-3a"/>
       <use x="160.9375" xlink:href="#DejaVuSans-30"/>
       <use x="224.560547" xlink:href="#DejaVuSans-30"/>
       <use x="288.183594" xlink:href="#DejaVuSans-3a"/>
       <use x="321.875" xlink:href="#DejaVuSans-30"/>
       <use x="385.498047" xlink:href="#DejaVuSans-30"/>
      </g>
     </g>
    </g>
    <g id="xtick_6">
     <g id="line2d_6">
      <g>
       <use style="stroke:#000000;stroke-width:0.8;" x="367.956809" xlink:href="#mb61cac2c24" y="361.653756"/>
      </g>
     </g>
     <g id="text_6">
      <!-- 20:00:00 -->
      <g transform="translate(345.500559 376.252193)scale(0.1 -0.1)">
       <use xlink:href="#DejaVuSans-32"/>
       <use x="63.623047" xlink:href="#DejaVuSans-30"/>
       <use x="127.246094" xlink:href="#DejaVuSans-3a"/>
       <use x="160.9375" xlink:href="#DejaVuSans-30"/>
       <use x="224.560547" xlink:href="#DejaVuSans-30"/>
       <use x="288.183594" xlink:href="#DejaVuSans-3a"/>
       <use x="321.875" xlink:href="#DejaVuSans-30"/>
       <use x="385.498047" xlink:href="#DejaVuSans-30"/>
      </g>
     </g>
    </g>
    <g id="text_7">
     <!-- Time of Day -->
     <g transform="translate(212.350313 389.930318)scale(0.1 -0.1)">
      <defs>
       <path d="M -19 4666 
L 3928 4666 
L 3928 4134 
L 2272 4134 
L 2272 0 
L 1638 0 
L 1638 4134 
L -19 4134 
L -19 4666 
z
" id="DejaVuSans-54" transform="scale(0.015625)"/>
       <path d="M 603 3500 
L 1178 3500 
L 1178 0 
L 603 0 
L 603 3500 
z
M 603 4863 
L 1178 4863 
L 1178 4134 
L 603 4134 
L 603 4863 
z
" id="DejaVuSans-69" transform="scale(0.015625)"/>
       <path d="M 3328 2828 
Q 3544 3216 3844 3400 
Q 4144 3584 4550 3584 
Q 5097 3584 5394 3201 
Q 5691 2819 5691 2113 
L 5691 0 
L 5113 0 
L 5113 2094 
Q 5113 2597 4934 2840 
Q 4756 3084 4391 3084 
Q 3944 3084 3684 2787 
Q 3425 2491 3425 1978 
L 3425 0 
L 2847 0 
L 2847 2094 
Q 2847 2600 2669 2842 
Q 2491 3084 2119 3084 
Q 1678 3084 1418 2786 
Q 1159 2488 1159 1978 
L 1159 0 
L 581 0 
L 581 3500 
L 1159 3500 
L 1159 2956 
Q 1356 3278 1631 3431 
Q 1906 3584 2284 3584 
Q 2666 3584 2933 3390 
Q 3200 3197 3328 2828 
z
" id="DejaVuSans-6d" transform="scale(0.015625)"/>
       <path d="M 3597 1894 
L 3597 1613 
L 953 1613 
Q 991 1019 1311 708 
Q 1631 397 2203 397 
Q 2534 397 2845 478 
Q 3156 559 3463 722 
L 3463 178 
Q 3153 47 2828 -22 
Q 2503 -91 2169 -91 
Q 1331 -91 842 396 
Q 353 884 353 1716 
Q 353 2575 817 3079 
Q 1281 3584 2069 3584 
Q 2775 3584 3186 3129 
Q 3597 2675 3597 1894 
z
M 3022 2063 
Q 3016 2534 2758 2815 
Q 2500 3097 2075 3097 
Q 1594 3097 1305 2825 
Q 1016 2553 972 2059 
L 3022 2063 
z
" id="DejaVuSans-65" transform="scale(0.015625)"/>
       <path id="DejaVuSans-20" transform="scale(0.015625)"/>
       <path d="M 1959 3097 
Q 1497 3097 1228 2736 
Q 959 2375 959 1747 
Q 959 1119 1226 758 
Q 1494 397 1959 397 
Q 2419 397 2687 759 
Q 2956 1122 2956 1747 
Q 2956 2369 2687 2733 
Q 2419 3097 1959 3097 
z
M 1959 3584 
Q 2709 3584 3137 3096 
Q 3566 2609 3566 1747 
Q 3566 888 3137 398 
Q 2709 -91 1959 -91 
Q 1206 -91 779 398 
Q 353 888 353 1747 
Q 353 2609 779 3096 
Q 1206 3584 1959 3584 
z
" id="DejaVuSans-6f" transform="scale(0.015625)"/>
       <path d="M 2375 4863 
L 2375 4384 
L 1825 4384 
Q 1516 4384 1395 4259 
Q 1275 4134 1275 3809 
L 1275 3500 
L 2222 3500 
L 2222 3053 
L 1275 3053 
L 1275 0 
L 697 0 
L 697 3053 
L 147 3053 
L 147 3500 
L 697 3500 
L 697 3744 
Q 697 4328 969 4595 
Q 1241 4863 1831 4863 
L 2375 4863 
z
" id="DejaVuSans-66" transform="scale(0.015625)"/>
       <path d="M 1259 4147 
L 1259 519 
L 2022 519 
Q 2988 519 3436 956 
Q 3884 1394 3884 2338 
Q 3884 3275 3436 3711 
Q 2988 4147 2022 4147 
L 1259 4147 
z
M 628 4666 
L 1925 4666 
Q 3281 4666 3915 4102 
Q 4550 3538 4550 2338 
Q 4550 1131 3912 565 
Q 3275 0 1925 0 
L 628 0 
L 628 4666 
z
" id="DejaVuSans-44" transform="scale(0.015625)"/>
       <path d="M 2194 1759 
Q 1497 1759 1228 1600 
Q 959 1441 959 1056 
Q 959 750 1161 570 
Q 1363 391 1709 391 
Q 2188 391 2477 730 
Q 2766 1069 2766 1631 
L 2766 1759 
L 2194 1759 
z
M 3341 1997 
L 3341 0 
L 2766 0 
L 2766 531 
Q 2569 213 2275 61 
Q 1981 -91 1556 -91 
Q 1019 -91 701 211 
Q 384 513 384 1019 
Q 384 1609 779 1909 
Q 1175 2209 1959 2209 
L 2766 2209 
L 2766 2266 
Q 2766 2663 2505 2880 
Q 2244 3097 1772 3097 
Q 1472 3097 1187 3025 
Q 903 2953 641 2809 
L 641 3341 
Q 956 3463 1253 3523 
Q 1550 3584 1831 3584 
Q 2591 3584 2966 3190 
Q 3341 2797 3341 1997 
z
" id="DejaVuSans-61" transform="scale(0.015625)"/>
       <path d="M 2059 -325 
Q 1816 -950 1584 -1140 
Q 1353 -1331 966 -1331 
L 506 -1331 
L 506 -850 
L 844 -850 
Q 1081 -850 1212 -737 
Q 1344 -625 1503 -206 
L 1606 56 
L 191 3500 
L 800 3500 
L 1894 763 
L 2988 3500 
L 3597 3500 
L 2059 -325 
z
" id="DejaVuSans-79" transform="scale(0.015625)"/>
      </defs>
      <use xlink:href="#DejaVuSans-54"/>
      <use x="57.958984" xlink:href="#DejaVuSans-69"/>
      <use x="85.742188" xlink:href="#DejaVuSans-6d"/>
      <use x="183.154297" xlink:href="#DejaVuSans-65"/>
      <use x="244.677734" xlink:href="#DejaVuSans-20"/>
      <use x="276.464844" xlink:href="#DejaVuSans-6f"/>
      <use x="337.646484" xlink:href="#DejaVuSans-66"/>
      <use x="372.851562" xlink:href="#DejaVuSans-20"/>
      <use x="404.638672" xlink:href="#DejaVuSans-44"/>
      <use x="481.640625" xlink:href="#DejaVuSans-61"/>
      <use x="542.919922" xlink:href="#DejaVuSans-79"/>
     </g>
    </g>
   </g>
   <g id="matplotlib.axis_2">
    <g id="ytick_1">
     <g id="line2d_7">
      <defs>
       <path d="M 0 0 
L -3.5 0 
" id="mcf1024c587" style="stroke:#000000;stroke-width:0.8;"/>
      </defs>
      <g>
       <use style="stroke:#000000;stroke-width:0.8;" x="63.71" xlink:href="#mcf1024c587" y="361.653756"/>
      </g>
     </g>
     <g id="text_8">
      <!-- 0 -->
      <g transform="translate(50.3475 365.452974)scale(0.1 -0.1)">
       <use xlink:href="#DejaVuSans-30"/>
      </g>
     </g>
    </g>
    <g id="ytick_2">
     <g id="line2d_8">
      <g>
       <use style="stroke:#000000;stroke-width:0.8;" x="63.71" xlink:href="#mcf1024c587" y="290.972815"/>
      </g>
     </g>
     <g id="text_9">
      <!-- 10000 -->
      <g transform="translate(24.8975 294.772033)scale(0.1 -0.1)">
       <use xlink:href="#DejaVuSans-31"/>
       <use x="63.623047" xlink:href="#DejaVuSans-30"/>
       <use x="127.246094" xlink:href="#DejaVuSans-30"/>
       <use x="190.869141" xlink:href="#DejaVuSans-30"/>
       <use x="254.492188" xlink:href="#DejaVuSans-30"/>
      </g>
     </g>
    </g>
    <g id="ytick_3">
     <g id="line2d_9">
      <g>
       <use style="stroke:#000000;stroke-width:0.8;" x="63.71" xlink:href="#mcf1024c587" y="220.291874"/>
      </g>
     </g>
     <g id="text_10">
      <!-- 20000 -->
      <g transform="translate(24.8975 224.091092)scale(0.1 -0.1)">
       <use xlink:href="#DejaVuSans-32"/>
       <use x="63.623047" xlink:href="#DejaVuSans-30"/>
       <use x="127.246094" xlink:href="#DejaVuSans-30"/>
       <use x="190.869141" xlink:href="#DejaVuSans-30"/>
       <use x="254.492188" xlink:href="#DejaVuSans-30"/>
      </g>
     </g>
    </g>
    <g id="ytick_4">
     <g id="line2d_10">
      <g>
       <use style="stroke:#000000;stroke-width:0.8;" x="63.71" xlink:href="#mcf1024c587" y="149.610933"/>
      </g>
     </g>
     <g id="text_11">
      <!-- 30000 -->
      <g transform="translate(24.8975 153.410151)scale(0.1 -0.1)">
       <defs>
        <path d="M 2597 2516 
Q 3050 2419 3304 2112 
Q 3559 1806 3559 1356 
Q 3559 666 3084 287 
Q 2609 -91 1734 -91 
Q 1441 -91 1130 -33 
Q 819 25 488 141 
L 488 750 
Q 750 597 1062 519 
Q 1375 441 1716 441 
Q 2309 441 2620 675 
Q 2931 909 2931 1356 
Q 2931 1769 2642 2001 
Q 2353 2234 1838 2234 
L 1294 2234 
L 1294 2753 
L 1863 2753 
Q 2328 2753 2575 2939 
Q 2822 3125 2822 3475 
Q 2822 3834 2567 4026 
Q 2313 4219 1838 4219 
Q 1578 4219 1281 4162 
Q 984 4106 628 3988 
L 628 4550 
Q 988 4650 1302 4700 
Q 1616 4750 1894 4750 
Q 2613 4750 3031 4423 
Q 3450 4097 3450 3541 
Q 3450 3153 3228 2886 
Q 3006 2619 2597 2516 
z
" id="DejaVuSans-33" transform="scale(0.015625)"/>
       </defs>
       <use xlink:href="#DejaVuSans-33"/>
       <use x="63.623047" xlink:href="#DejaVuSans-30"/>
       <use x="127.246094" xlink:href="#DejaVuSans-30"/>
       <use x="190.869141" xlink:href="#DejaVuSans-30"/>
       <use x="254.492188" xlink:href="#DejaVuSans-30"/>
      </g>
     </g>
    </g>
    <g id="ytick_5">
     <g id="line2d_11">
      <g>
       <use style="stroke:#000000;stroke-width:0.8;" x="63.71" xlink:href="#mcf1024c587" y="78.929991"/>
      </g>
     </g>
     <g id="text_12">
      <!-- 40000 -->
      <g transform="translate(24.8975 82.72921)scale(0.1 -0.1)">
       <use xlink:href="#DejaVuSans-34"/>
       <use x="63.623047" xlink:href="#DejaVuSans-30"/>
       <use x="127.246094" xlink:href="#DejaVuSans-30"/>
       <use x="190.869141" xlink:href="#DejaVuSans-30"/>
       <use x="254.492188" xlink:href="#DejaVuSans-30"/>
      </g>
     </g>
    </g>
    <g id="text_13">
     <!-- Generation (MW) -->
     <g transform="translate(18.817812 228.475284)rotate(-90)scale(0.1 -0.1)">
      <defs>
       <path d="M 3809 666 
L 3809 1919 
L 2778 1919 
L 2778 2438 
L 4434 2438 
L 4434 434 
Q 4069 175 3628 42 
Q 3188 -91 2688 -91 
Q 1594 -91 976 548 
Q 359 1188 359 2328 
Q 359 3472 976 4111 
Q 1594 4750 2688 4750 
Q 3144 4750 3555 4637 
Q 3966 4525 4313 4306 
L 4313 3634 
Q 3963 3931 3569 4081 
Q 3175 4231 2741 4231 
Q 1884 4231 1454 3753 
Q 1025 3275 1025 2328 
Q 1025 1384 1454 906 
Q 1884 428 2741 428 
Q 3075 428 3337 486 
Q 3600 544 3809 666 
z
" id="DejaVuSans-47" transform="scale(0.015625)"/>
       <path d="M 3513 2113 
L 3513 0 
L 2938 0 
L 2938 2094 
Q 2938 2591 2744 2837 
Q 2550 3084 2163 3084 
Q 1697 3084 1428 2787 
Q 1159 2491 1159 1978 
L 1159 0 
L 581 0 
L 581 3500 
L 1159 3500 
L 1159 2956 
Q 1366 3272 1645 3428 
Q 1925 3584 2291 3584 
Q 2894 3584 3203 3211 
Q 3513 2838 3513 2113 
z
" id="DejaVuSans-6e" transform="scale(0.015625)"/>
       <path d="M 2631 2963 
Q 2534 3019 2420 3045 
Q 2306 3072 2169 3072 
Q 1681 3072 1420 2755 
Q 1159 2438 1159 1844 
L 1159 0 
L 581 0 
L 581 3500 
L 1159 3500 
L 1159 2956 
Q 1341 3275 1631 3429 
Q 1922 3584 2338 3584 
Q 2397 3584 2469 3576 
Q 2541 3569 2628 3553 
L 2631 2963 
z
" id="DejaVuSans-72" transform="scale(0.015625)"/>
       <path d="M 1172 4494 
L 1172 3500 
L 2356 3500 
L 2356 3053 
L 1172 3053 
L 1172 1153 
Q 1172 725 1289 603 
Q 1406 481 1766 481 
L 2356 481 
L 2356 0 
L 1766 0 
Q 1100 0 847 248 
Q 594 497 594 1153 
L 594 3053 
L 172 3053 
L 172 3500 
L 594 3500 
L 594 4494 
L 1172 4494 
z
" id="DejaVuSans-74" transform="scale(0.015625)"/>
       <path d="M 1984 4856 
Q 1566 4138 1362 3434 
Q 1159 2731 1159 2009 
Q 1159 1288 1364 580 
Q 1569 -128 1984 -844 
L 1484 -844 
Q 1016 -109 783 600 
Q 550 1309 550 2009 
Q 550 2706 781 3412 
Q 1013 4119 1484 4856 
L 1984 4856 
z
" id="DejaVuSans-28" transform="scale(0.015625)"/>
       <path d="M 628 4666 
L 1569 4666 
L 2759 1491 
L 3956 4666 
L 4897 4666 
L 4897 0 
L 4281 0 
L 4281 4097 
L 3078 897 
L 2444 897 
L 1241 4097 
L 1241 0 
L 628 0 
L 628 4666 
z
" id="DejaVuSans-4d" transform="scale(0.015625)"/>
       <path d="M 213 4666 
L 850 4666 
L 1831 722 
L 2809 4666 
L 3519 4666 
L 4500 722 
L 5478 4666 
L 6119 4666 
L 4947 0 
L 4153 0 
L 3169 4050 
L 2175 0 
L 1381 0 
L 213 4666 
z
" id="DejaVuSans-57" transform="scale(0.015625)"/>
       <path d="M 513 4856 
L 1013 4856 
Q 1481 4119 1714 3412 
Q 1947 2706 1947 2009 
Q 1947 1309 1714 600 
Q 1481 -109 1013 -844 
L 513 -844 
Q 928 -128 1133 580 
Q 1338 1288 1338 2009 
Q 1338 2731 1133 3434 
Q 928 4138 513 4856 
z
" id="DejaVuSans-29" transform="scale(0.015625)"/>
      </defs>
      <use xlink:href="#DejaVuSans-47"/>
      <use x="77.490234" xlink:href="#DejaVuSans-65"/>
      <use x="139.013672" xlink:href="#DejaVuSans-6e"/>
      <use x="202.392578" xlink:href="#DejaVuSans-65"/>
      <use x="263.916016" xlink:href="#DejaVuSans-72"/>
      <use x="305.029297" xlink:href="#DejaVuSans-61"/>
      <use x="366.308594" xlink:href="#DejaVuSans-74"/>
      <use x="405.517578" xlink:href="#DejaVuSans-69"/>
      <use x="433.300781" xlink:href="#DejaVuSans-6f"/>
      <use x="494.482422" xlink:href="#DejaVuSans-6e"/>
      <use x="557.861328" xlink:href="#DejaVuSans-20"/>
      <use x="589.648438" xlink:href="#DejaVuSans-28"/>
      <use x="628.662109" xlink:href="#DejaVuSans-4d"/>
      <use x="714.941406" xlink:href="#DejaVuSans-57"/>
      <use x="813.818359" xlink:href="#DejaVuSans-29"/>
     </g>
    </g>
   </g>
   <g id="patch_3">
    <path d="M 63.71 361.653756 
L 63.71 10.014 
" style="fill:none;stroke:#000000;stroke-linecap:square;stroke-linejoin:miter;stroke-width:0.8;"/>
   </g>
   <g id="patch_4">
    <path d="M 421.2 361.653756 
L 421.2 10.014 
" style="fill:none;stroke:#000000;stroke-linecap:square;stroke-linejoin:miter;stroke-width:0.8;"/>
   </g>
   <g id="patch_5">
    <path d="M 63.71 361.653756 
L 421.2 361.653756 
" style="fill:none;stroke:#000000;stroke-linecap:square;stroke-linejoin:miter;stroke-width:0.8;"/>
   </g>
   <g id="patch_6">
    <path d="M 63.71 10.014 
L 421.2 10.014 
" style="fill:none;stroke:#000000;stroke-linecap:square;stroke-linejoin:miter;stroke-width:0.8;"/>
   </g>
  </g>
 </g>
 <defs>
  <clipPath id="p931dd48068">
   <rect height="351.639756" width="357.49" x="63.71" y="10.014"/>
  </clipPath>
 </defs>
</svg>
