<?xml version="1.0" encoding="utf-8" standalone="no"?>
<!DOCTYPE svg PUBLIC "-//W3C//DTD SVG 1.1//EN"
  "http://www.w3.org/Graphics/SVG/1.1/DTD/svg11.dtd">
<svg height="432pt" version="1.1" viewBox="0 0 360 432" width="360pt" xmlns="http://www.w3.org/2000/svg" xmlns:xlink="http://www.w3.org/1999/xlink">
 <metadata>
  <rdf:RDF xmlns:cc="http://creativecommons.org/ns#" xmlns:dc="http://purl.org/dc/elements/1.1/" xmlns:rdf="http://www.w3.org/1999/02/22-rdf-syntax-ns#">
   <cc:Work>
    <dc:type rdf:resource="http://purl.org/dc/dcmitype/StillImage"/>
    <dc:date>2022-02-16T14:39:47.834406</dc:date>
    <dc:format>image/svg+xml</dc:format>
    <dc:creator>
     <cc:Agent>
      <dc:title>Matplotlib v3.4.1, https://matplotlib.org/</dc:title>
     </cc:Agent>
    </dc:creator>
   </cc:Work>
  </rdf:RDF>
 </metadata>
 <defs>
  <style type="text/css">*{stroke-linecap:butt;stroke-linejoin:round;}</style>
 </defs>
 <g id="figure_1">
  <g id="patch_1">
   <path d="M 0 432 
L 360 432 
L 360 0 
L 0 0 
z
" style="fill:none;"/>
  </g>
  <g id="axes_1">
   <g id="patch_2">
    <path d="M 62.24 382.624 
L 338.07 382.624 
L 338.07 35.28 
L 62.24 35.28 
z
" style="fill:none;"/>
   </g>
   <g id="PolyCollection_1">
    <path clip-path="url(#pc8f71424f8)" d="M 62.24 349.341426 
L 62.24 382.624 
L 92.887778 382.624 
L 123.535556 382.624 
L 154.183333 382.624 
L 184.831111 382.624 
L 215.478889 382.624 
L 246.126667 382.624 
L 276.774444 382.624 
L 307.422222 382.624 
L 338.07 382.624 
L 338.07 363.591807 
L 338.07 363.591807 
L 307.422222 363.110491 
L 276.774444 362.493969 
L 246.126667 361.710339 
L 215.478889 360.659813 
L 184.831111 359.157628 
L 154.183333 356.629979 
L 123.535556 351.743579 
L 92.887778 349.350323 
L 62.24 349.341426 
z
" style="fill:#3182bd;"/>
   </g>
   <g id="PolyCollection_2">
    <path clip-path="url(#pc8f71424f8)" d="M 62.24 186.767377 
L 62.24 349.341426 
L 92.887778 349.350323 
L 123.535556 351.743579 
L 154.183333 356.629979 
L 184.831111 359.157628 
L 215.478889 360.659813 
L 246.126667 361.710339 
L 276.774444 362.493969 
L 307.422222 363.110491 
L 338.07 363.591807 
L 338.07 236.223111 
L 338.07 236.223111 
L 307.422222 232.203537 
L 276.774444 227.994553 
L 246.126667 223.605774 
L 215.478889 219.007258 
L 184.831111 214.063371 
L 154.183333 208.259062 
L 123.535556 200.210509 
L 92.887778 192.198385 
L 62.24 186.767377 
z
" style="fill:#6baed6;"/>
   </g>
   <g id="PolyCollection_3">
    <path clip-path="url(#pc8f71424f8)" d="M 62.24 183.169631 
L 62.24 186.767377 
L 92.887778 192.198385 
L 123.535556 200.210509 
L 154.183333 208.259062 
L 184.831111 214.063371 
L 215.478889 219.007258 
L 246.126667 223.605774 
L 276.774444 227.994553 
L 307.422222 232.203537 
L 338.07 236.223111 
L 338.07 219.997382 
L 338.07 219.997382 
L 307.422222 215.988306 
L 276.774444 211.922601 
L 246.126667 207.838548 
L 215.478889 203.742061 
L 184.831111 199.635358 
L 154.183333 195.524325 
L 123.535556 191.40751 
L 92.887778 187.288571 
L 62.24 183.169631 
z
" style="fill:#9ecae1;"/>
   </g>
   <g id="PolyCollection_4">
    <path clip-path="url(#pc8f71424f8)" d="M 62.24 179.149491 
L 62.24 183.169631 
L 92.887778 187.288571 
L 123.535556 191.40751 
L 154.183333 195.524325 
L 184.831111 199.635358 
L 215.478889 203.742061 
L 246.126667 207.838548 
L 276.774444 211.922601 
L 307.422222 215.988306 
L 338.07 219.997382 
L 338.07 215.977241 
L 338.07 215.977241 
L 307.422222 211.968166 
L 276.774444 207.90246 
L 246.126667 203.818408 
L 215.478889 199.721921 
L 184.831111 195.615218 
L 154.183333 191.504185 
L 123.535556 187.38737 
L 92.887778 183.26843 
L 62.24 179.149491 
z
" style="fill:#c6dbef;"/>
   </g>
   <g id="PolyCollection_5">
    <path clip-path="url(#pc8f71424f8)" d="M 62.24 164.334933 
L 62.24 179.149491 
L 92.887778 183.26843 
L 123.535556 187.38737 
L 154.183333 191.504185 
L 184.831111 195.615218 
L 215.478889 199.721921 
L 246.126667 203.818408 
L 276.774444 207.90246 
L 307.422222 211.968166 
L 338.07 215.977241 
L 338.07 201.162683 
L 338.07 201.162683 
L 307.422222 197.153608 
L 276.774444 193.087902 
L 246.126667 189.00385 
L 215.478889 184.907363 
L 184.831111 180.800659 
L 154.183333 176.689627 
L 123.535556 172.572812 
L 92.887778 168.453872 
L 62.24 164.334933 
z
" style="fill:#e6550d;"/>
   </g>
   <g id="PolyCollection_6">
    <path clip-path="url(#pc8f71424f8)" d="M 62.24 142.415083 
L 62.24 164.334933 
L 92.887778 168.453872 
L 123.535556 172.572812 
L 154.183333 176.689627 
L 184.831111 180.800659 
L 215.478889 184.907363 
L 246.126667 189.00385 
L 276.774444 193.087902 
L 307.422222 197.153608 
L 338.07 201.162683 
L 338.07 179.242834 
L 338.07 179.242834 
L 307.422222 175.233758 
L 276.774444 171.168053 
L 246.126667 167.084 
L 215.478889 162.987514 
L 184.831111 158.88081 
L 154.183333 154.769778 
L 123.535556 150.652962 
L 92.887778 146.534023 
L 62.24 142.415083 
z
" style="fill:#fd8d3c;"/>
   </g>
   <g id="PolyCollection_7">
    <path clip-path="url(#pc8f71424f8)" d="M 62.24 63.092688 
L 62.24 142.415083 
L 92.887778 146.534023 
L 123.535556 150.652962 
L 154.183333 154.769778 
L 184.831111 158.88081 
L 215.478889 162.987514 
L 246.126667 167.084 
L 276.774444 171.168053 
L 307.422222 175.233758 
L 338.07 179.242834 
L 338.07 99.920438 
L 338.07 99.920438 
L 307.422222 95.911363 
L 276.774444 91.845658 
L 246.126667 87.761605 
L 215.478889 83.665118 
L 184.831111 79.558415 
L 154.183333 75.447382 
L 123.535556 71.330567 
L 92.887778 67.211627 
L 62.24 63.092688 
z
" style="fill:#fdae6b;"/>
   </g>
   <g id="PolyCollection_8">
    <path clip-path="url(#pc8f71424f8)" d="M 62.24 63.092688 
L 62.24 63.092688 
L 92.887778 67.211627 
L 123.535556 71.330567 
L 154.183333 75.447382 
L 184.831111 79.558415 
L 215.478889 83.665118 
L 246.126667 87.761605 
L 276.774444 91.845658 
L 307.422222 95.911363 
L 338.07 99.920438 
L 338.07 99.920438 
L 338.07 99.920438 
L 307.422222 95.911363 
L 276.774444 91.845658 
L 246.126667 87.761605 
L 215.478889 83.665118 
L 184.831111 79.558415 
L 154.183333 75.447382 
L 123.535556 71.330567 
L 92.887778 67.211627 
L 62.24 63.092688 
z
" style="fill:#fdd0a2;"/>
   </g>
   <g id="PolyCollection_9">
    <path clip-path="url(#pc8f71424f8)" d="M 62.24 51.82019 
L 62.24 63.092688 
L 92.887778 67.211627 
L 123.535556 71.330567 
L 154.183333 75.447382 
L 184.831111 79.558415 
L 215.478889 83.665118 
L 246.126667 87.761605 
L 276.774444 91.845658 
L 307.422222 95.911363 
L 338.07 99.920438 
L 338.07 88.647941 
L 338.07 88.647941 
L 307.422222 84.638865 
L 276.774444 80.57316 
L 246.126667 76.489108 
L 215.478889 72.392621 
L 184.831111 68.285917 
L 154.183333 64.174885 
L 123.535556 60.05807 
L 92.887778 55.93913 
L 62.24 51.82019 
z
" style="fill:#31a354;"/>
   </g>
   <g id="PolyCollection_10">
    <path clip-path="url(#pc8f71424f8)" d="M 62.24 51.82019 
L 62.24 51.82019 
L 92.887778 55.93913 
L 123.535556 60.05807 
L 154.183333 64.174885 
L 184.831111 68.285917 
L 215.478889 72.392621 
L 246.126667 76.489108 
L 276.774444 80.57316 
L 307.422222 84.638865 
L 338.07 88.647941 
L 338.07 51.82019 
L 338.07 51.82019 
L 307.422222 51.82019 
L 276.774444 51.82019 
L 246.126667 51.82019 
L 215.478889 51.82019 
L 184.831111 51.82019 
L 154.183333 51.82019 
L 123.535556 51.82019 
L 92.887778 51.82019 
L 62.24 51.82019 
z
" style="fill:#74c476;"/>
   </g>
   <g id="PolyCollection_11">
    <path clip-path="url(#pc8f71424f8)" d="M 62.24 51.82019 
L 62.24 51.82019 
L 92.887778 51.82019 
L 123.535556 51.82019 
L 154.183333 51.82019 
L 184.831111 51.82019 
L 215.478889 51.82019 
L 246.126667 51.82019 
L 276.774444 51.82019 
L 307.422222 51.82019 
L 338.07 51.82019 
L 338.07 51.82019 
L 338.07 51.82019 
L 307.422222 51.82019 
L 276.774444 51.82019 
L 246.126667 51.82019 
L 215.478889 51.82019 
L 184.831111 51.82019 
L 154.183333 51.82019 
L 123.535556 51.82019 
L 92.887778 51.82019 
L 62.24 51.82019 
z
" style="fill:#a1d99b;"/>
   </g>
   <g id="matplotlib.axis_1">
    <g id="xtick_1">
     <g id="line2d_1">
      <defs>
       <path d="M 0 0 
L 0 3.5 
" id="me065890913" style="stroke:#000000;stroke-width:0.8;"/>
      </defs>
      <g>
       <use style="stroke:#000000;stroke-width:0.8;" x="62.24" xlink:href="#me065890913" y="382.624"/>
      </g>
     </g>
     <g id="text_1">
      <!-- 0.0 -->
      <g transform="translate(51.107813 400.261812)scale(0.14 -0.14)">
       <defs>
        <path d="M 2034 4250 
Q 1547 4250 1301 3770 
Q 1056 3291 1056 2328 
Q 1056 1369 1301 889 
Q 1547 409 2034 409 
Q 2525 409 2770 889 
Q 3016 1369 3016 2328 
Q 3016 3291 2770 3770 
Q 2525 4250 2034 4250 
z
M 2034 4750 
Q 2819 4750 3233 4129 
Q 3647 3509 3647 2328 
Q 3647 1150 3233 529 
Q 2819 -91 2034 -91 
Q 1250 -91 836 529 
Q 422 1150 422 2328 
Q 422 3509 836 4129 
Q 1250 4750 2034 4750 
z
" id="DejaVuSans-30" transform="scale(0.015625)"/>
        <path d="M 684 794 
L 1344 794 
L 1344 0 
L 684 0 
L 684 794 
z
" id="DejaVuSans-2e" transform="scale(0.015625)"/>
       </defs>
       <use xlink:href="#DejaVuSans-30"/>
       <use x="63.623047" xlink:href="#DejaVuSans-2e"/>
       <use x="95.410156" xlink:href="#DejaVuSans-30"/>
      </g>
     </g>
    </g>
    <g id="xtick_2">
     <g id="line2d_2">
      <g>
       <use style="stroke:#000000;stroke-width:0.8;" x="131.1975" xlink:href="#me065890913" y="382.624"/>
      </g>
     </g>
     <g id="text_2">
      <!-- 0.5 -->
      <g transform="translate(120.065312 400.261812)scale(0.14 -0.14)">
       <defs>
        <path d="M 691 4666 
L 3169 4666 
L 3169 4134 
L 1269 4134 
L 1269 2991 
Q 1406 3038 1543 3061 
Q 1681 3084 1819 3084 
Q 2600 3084 3056 2656 
Q 3513 2228 3513 1497 
Q 3513 744 3044 326 
Q 2575 -91 1722 -91 
Q 1428 -91 1123 -41 
Q 819 9 494 109 
L 494 744 
Q 775 591 1075 516 
Q 1375 441 1709 441 
Q 2250 441 2565 725 
Q 2881 1009 2881 1497 
Q 2881 1984 2565 2268 
Q 2250 2553 1709 2553 
Q 1456 2553 1204 2497 
Q 953 2441 691 2322 
L 691 4666 
z
" id="DejaVuSans-35" transform="scale(0.015625)"/>
       </defs>
       <use xlink:href="#DejaVuSans-30"/>
       <use x="63.623047" xlink:href="#DejaVuSans-2e"/>
       <use x="95.410156" xlink:href="#DejaVuSans-35"/>
      </g>
     </g>
    </g>
    <g id="xtick_3">
     <g id="line2d_3">
      <g>
       <use style="stroke:#000000;stroke-width:0.8;" x="200.155" xlink:href="#me065890913" y="382.624"/>
      </g>
     </g>
     <g id="text_3">
      <!-- 1.0 -->
      <g transform="translate(189.022812 400.261812)scale(0.14 -0.14)">
       <defs>
        <path d="M 794 531 
L 1825 531 
L 1825 4091 
L 703 3866 
L 703 4441 
L 1819 4666 
L 2450 4666 
L 2450 531 
L 3481 531 
L 3481 0 
L 794 0 
L 794 531 
z
" id="DejaVuSans-31" transform="scale(0.015625)"/>
       </defs>
       <use xlink:href="#DejaVuSans-31"/>
       <use x="63.623047" xlink:href="#DejaVuSans-2e"/>
       <use x="95.410156" xlink:href="#DejaVuSans-30"/>
      </g>
     </g>
    </g>
    <g id="xtick_4">
     <g id="line2d_4">
      <g>
       <use style="stroke:#000000;stroke-width:0.8;" x="269.1125" xlink:href="#me065890913" y="382.624"/>
      </g>
     </g>
     <g id="text_4">
      <!-- 1.5 -->
      <g transform="translate(257.980313 400.261812)scale(0.14 -0.14)">
       <use xlink:href="#DejaVuSans-31"/>
       <use x="63.623047" xlink:href="#DejaVuSans-2e"/>
       <use x="95.410156" xlink:href="#DejaVuSans-35"/>
      </g>
     </g>
    </g>
    <g id="xtick_5">
     <g id="line2d_5">
      <g>
       <use style="stroke:#000000;stroke-width:0.8;" x="338.07" xlink:href="#me065890913" y="382.624"/>
      </g>
     </g>
     <g id="text_5">
      <!-- 2.0 -->
      <g transform="translate(326.937813 400.261812)scale(0.14 -0.14)">
       <defs>
        <path d="M 1228 531 
L 3431 531 
L 3431 0 
L 469 0 
L 469 531 
Q 828 903 1448 1529 
Q 2069 2156 2228 2338 
Q 2531 2678 2651 2914 
Q 2772 3150 2772 3378 
Q 2772 3750 2511 3984 
Q 2250 4219 1831 4219 
Q 1534 4219 1204 4116 
Q 875 4013 500 3803 
L 500 4441 
Q 881 4594 1212 4672 
Q 1544 4750 1819 4750 
Q 2544 4750 2975 4387 
Q 3406 4025 3406 3419 
Q 3406 3131 3298 2873 
Q 3191 2616 2906 2266 
Q 2828 2175 2409 1742 
Q 1991 1309 1228 531 
z
" id="DejaVuSans-32" transform="scale(0.015625)"/>
       </defs>
       <use xlink:href="#DejaVuSans-32"/>
       <use x="63.623047" xlink:href="#DejaVuSans-2e"/>
       <use x="95.410156" xlink:href="#DejaVuSans-30"/>
      </g>
     </g>
    </g>
    <g id="text_6">
     <!-- C$_S$ -->
     <g transform="translate(191.895 417.811187)scale(0.14 -0.14)">
      <defs>
       <path d="M 4122 4306 
L 4122 3641 
Q 3803 3938 3442 4084 
Q 3081 4231 2675 4231 
Q 1875 4231 1450 3742 
Q 1025 3253 1025 2328 
Q 1025 1406 1450 917 
Q 1875 428 2675 428 
Q 3081 428 3442 575 
Q 3803 722 4122 1019 
L 4122 359 
Q 3791 134 3420 21 
Q 3050 -91 2638 -91 
Q 1578 -91 968 557 
Q 359 1206 359 2328 
Q 359 3453 968 4101 
Q 1578 4750 2638 4750 
Q 3056 4750 3426 4639 
Q 3797 4528 4122 4306 
z
" id="DejaVuSans-43" transform="scale(0.015625)"/>
       <path d="M 3859 4513 
L 3738 3897 
Q 3422 4066 3111 4152 
Q 2800 4238 2509 4238 
Q 1944 4238 1609 3991 
Q 1275 3744 1275 3334 
Q 1275 3109 1398 2989 
Q 1522 2869 2034 2731 
L 2413 2638 
Q 3053 2472 3303 2217 
Q 3553 1963 3553 1503 
Q 3553 797 2998 353 
Q 2444 -91 1538 -91 
Q 1166 -91 791 -17 
Q 416 56 38 206 
L 166 856 
Q 513 641 861 531 
Q 1209 422 1556 422 
Q 2147 422 2503 684 
Q 2859 947 2859 1369 
Q 2859 1650 2717 1795 
Q 2575 1941 2106 2059 
L 1728 2156 
Q 1081 2325 845 2545 
Q 609 2766 609 3163 
Q 609 3859 1145 4304 
Q 1681 4750 2541 4750 
Q 2875 4750 3203 4690 
Q 3531 4631 3859 4513 
z
" id="DejaVuSans-Oblique-53" transform="scale(0.015625)"/>
      </defs>
      <use transform="translate(0 0.78125)" xlink:href="#DejaVuSans-43"/>
      <use transform="translate(70.78125 -15.625)scale(0.7)" xlink:href="#DejaVuSans-Oblique-53"/>
     </g>
    </g>
   </g>
   <g id="matplotlib.axis_2">
    <g id="ytick_1">
     <g id="line2d_6">
      <defs>
       <path d="M 0 0 
L -3.5 0 
" id="m543f9567ba" style="stroke:#000000;stroke-width:0.8;"/>
      </defs>
      <g>
       <use style="stroke:#000000;stroke-width:0.8;" x="62.24" xlink:href="#m543f9567ba" y="382.624"/>
      </g>
     </g>
     <g id="text_7">
      <!-- 0 -->
      <g transform="translate(46.3325 387.942906)scale(0.14 -0.14)">
       <use xlink:href="#DejaVuSans-30"/>
      </g>
     </g>
    </g>
    <g id="ytick_2">
     <g id="line2d_7">
      <g>
       <use style="stroke:#000000;stroke-width:0.8;" x="62.24" xlink:href="#m543f9567ba" y="322.885534"/>
      </g>
     </g>
     <g id="text_8">
      <!-- 50 -->
      <g transform="translate(37.425 328.20444)scale(0.14 -0.14)">
       <use xlink:href="#DejaVuSans-35"/>
       <use x="63.623047" xlink:href="#DejaVuSans-30"/>
      </g>
     </g>
    </g>
    <g id="ytick_3">
     <g id="line2d_8">
      <g>
       <use style="stroke:#000000;stroke-width:0.8;" x="62.24" xlink:href="#m543f9567ba" y="263.147068"/>
      </g>
     </g>
     <g id="text_9">
      <!-- 100 -->
      <g transform="translate(28.5175 268.465974)scale(0.14 -0.14)">
       <use xlink:href="#DejaVuSans-31"/>
       <use x="63.623047" xlink:href="#DejaVuSans-30"/>
       <use x="127.246094" xlink:href="#DejaVuSans-30"/>
      </g>
     </g>
    </g>
    <g id="ytick_4">
     <g id="line2d_9">
      <g>
       <use style="stroke:#000000;stroke-width:0.8;" x="62.24" xlink:href="#m543f9567ba" y="203.408602"/>
      </g>
     </g>
     <g id="text_10">
      <!-- 150 -->
      <g transform="translate(28.5175 208.727508)scale(0.14 -0.14)">
       <use xlink:href="#DejaVuSans-31"/>
       <use x="63.623047" xlink:href="#DejaVuSans-35"/>
       <use x="127.246094" xlink:href="#DejaVuSans-30"/>
      </g>
     </g>
    </g>
    <g id="ytick_5">
     <g id="line2d_10">
      <g>
       <use style="stroke:#000000;stroke-width:0.8;" x="62.24" xlink:href="#m543f9567ba" y="143.670136"/>
      </g>
     </g>
     <g id="text_11">
      <!-- 200 -->
      <g transform="translate(28.5175 148.989042)scale(0.14 -0.14)">
       <use xlink:href="#DejaVuSans-32"/>
       <use x="63.623047" xlink:href="#DejaVuSans-30"/>
       <use x="127.246094" xlink:href="#DejaVuSans-30"/>
      </g>
     </g>
    </g>
    <g id="ytick_6">
     <g id="line2d_11">
      <g>
       <use style="stroke:#000000;stroke-width:0.8;" x="62.24" xlink:href="#m543f9567ba" y="83.93167"/>
      </g>
     </g>
     <g id="text_12">
      <!-- 250 -->
      <g transform="translate(28.5175 89.250576)scale(0.14 -0.14)">
       <use xlink:href="#DejaVuSans-32"/>
       <use x="63.623047" xlink:href="#DejaVuSans-35"/>
       <use x="127.246094" xlink:href="#DejaVuSans-30"/>
      </g>
     </g>
    </g>
    <g id="text_13">
     <!-- Energy Generated (TWh) -->
     <g transform="translate(21.605937 296.142469)rotate(-90)scale(0.14 -0.14)">
      <defs>
       <path d="M 628 4666 
L 3578 4666 
L 3578 4134 
L 1259 4134 
L 1259 2753 
L 3481 2753 
L 3481 2222 
L 1259 2222 
L 1259 531 
L 3634 531 
L 3634 0 
L 628 0 
L 628 4666 
z
" id="DejaVuSans-45" transform="scale(0.015625)"/>
       <path d="M 3513 2113 
L 3513 0 
L 2938 0 
L 2938 2094 
Q 2938 2591 2744 2837 
Q 2550 3084 2163 3084 
Q 1697 3084 1428 2787 
Q 1159 2491 1159 1978 
L 1159 0 
L 581 0 
L 581 3500 
L 1159 3500 
L 1159 2956 
Q 1366 3272 1645 3428 
Q 1925 3584 2291 3584 
Q 2894 3584 3203 3211 
Q 3513 2838 3513 2113 
z
" id="DejaVuSans-6e" transform="scale(0.015625)"/>
       <path d="M 3597 1894 
L 3597 1613 
L 953 1613 
Q 991 1019 1311 708 
Q 1631 397 2203 397 
Q 2534 397 2845 478 
Q 3156 559 3463 722 
L 3463 178 
Q 3153 47 2828 -22 
Q 2503 -91 2169 -91 
Q 1331 -91 842 396 
Q 353 884 353 1716 
Q 353 2575 817 3079 
Q 1281 3584 2069 3584 
Q 2775 3584 3186 3129 
Q 3597 2675 3597 1894 
z
M 3022 2063 
Q 3016 2534 2758 2815 
Q 2500 3097 2075 3097 
Q 1594 3097 1305 2825 
Q 1016 2553 972 2059 
L 3022 2063 
z
" id="DejaVuSans-65" transform="scale(0.015625)"/>
       <path d="M 2631 2963 
Q 2534 3019 2420 3045 
Q 2306 3072 2169 3072 
Q 1681 3072 1420 2755 
Q 1159 2438 1159 1844 
L 1159 0 
L 581 0 
L 581 3500 
L 1159 3500 
L 1159 2956 
Q 1341 3275 1631 3429 
Q 1922 3584 2338 3584 
Q 2397 3584 2469 3576 
Q 2541 3569 2628 3553 
L 2631 2963 
z
" id="DejaVuSans-72" transform="scale(0.015625)"/>
       <path d="M 2906 1791 
Q 2906 2416 2648 2759 
Q 2391 3103 1925 3103 
Q 1463 3103 1205 2759 
Q 947 2416 947 1791 
Q 947 1169 1205 825 
Q 1463 481 1925 481 
Q 2391 481 2648 825 
Q 2906 1169 2906 1791 
z
M 3481 434 
Q 3481 -459 3084 -895 
Q 2688 -1331 1869 -1331 
Q 1566 -1331 1297 -1286 
Q 1028 -1241 775 -1147 
L 775 -588 
Q 1028 -725 1275 -790 
Q 1522 -856 1778 -856 
Q 2344 -856 2625 -561 
Q 2906 -266 2906 331 
L 2906 616 
Q 2728 306 2450 153 
Q 2172 0 1784 0 
Q 1141 0 747 490 
Q 353 981 353 1791 
Q 353 2603 747 3093 
Q 1141 3584 1784 3584 
Q 2172 3584 2450 3431 
Q 2728 3278 2906 2969 
L 2906 3500 
L 3481 3500 
L 3481 434 
z
" id="DejaVuSans-67" transform="scale(0.015625)"/>
       <path d="M 2059 -325 
Q 1816 -950 1584 -1140 
Q 1353 -1331 966 -1331 
L 506 -1331 
L 506 -850 
L 844 -850 
Q 1081 -850 1212 -737 
Q 1344 -625 1503 -206 
L 1606 56 
L 191 3500 
L 800 3500 
L 1894 763 
L 2988 3500 
L 3597 3500 
L 2059 -325 
z
" id="DejaVuSans-79" transform="scale(0.015625)"/>
       <path id="DejaVuSans-20" transform="scale(0.015625)"/>
       <path d="M 3809 666 
L 3809 1919 
L 2778 1919 
L 2778 2438 
L 4434 2438 
L 4434 434 
Q 4069 175 3628 42 
Q 3188 -91 2688 -91 
Q 1594 -91 976 548 
Q 359 1188 359 2328 
Q 359 3472 976 4111 
Q 1594 4750 2688 4750 
Q 3144 4750 3555 4637 
Q 3966 4525 4313 4306 
L 4313 3634 
Q 3963 3931 3569 4081 
Q 3175 4231 2741 4231 
Q 1884 4231 1454 3753 
Q 1025 3275 1025 2328 
Q 1025 1384 1454 906 
Q 1884 428 2741 428 
Q 3075 428 3337 486 
Q 3600 544 3809 666 
z
" id="DejaVuSans-47" transform="scale(0.015625)"/>
       <path d="M 2194 1759 
Q 1497 1759 1228 1600 
Q 959 1441 959 1056 
Q 959 750 1161 570 
Q 1363 391 1709 391 
Q 2188 391 2477 730 
Q 2766 1069 2766 1631 
L 2766 1759 
L 2194 1759 
z
M 3341 1997 
L 3341 0 
L 2766 0 
L 2766 531 
Q 2569 213 2275 61 
Q 1981 -91 1556 -91 
Q 1019 -91 701 211 
Q 384 513 384 1019 
Q 384 1609 779 1909 
Q 1175 2209 1959 2209 
L 2766 2209 
L 2766 2266 
Q 2766 2663 2505 2880 
Q 2244 3097 1772 3097 
Q 1472 3097 1187 3025 
Q 903 2953 641 2809 
L 641 3341 
Q 956 3463 1253 3523 
Q 1550 3584 1831 3584 
Q 2591 3584 2966 3190 
Q 3341 2797 3341 1997 
z
" id="DejaVuSans-61" transform="scale(0.015625)"/>
       <path d="M 1172 4494 
L 1172 3500 
L 2356 3500 
L 2356 3053 
L 1172 3053 
L 1172 1153 
Q 1172 725 1289 603 
Q 1406 481 1766 481 
L 2356 481 
L 2356 0 
L 1766 0 
Q 1100 0 847 248 
Q 594 497 594 1153 
L 594 3053 
L 172 3053 
L 172 3500 
L 594 3500 
L 594 4494 
L 1172 4494 
z
" id="DejaVuSans-74" transform="scale(0.015625)"/>
       <path d="M 2906 2969 
L 2906 4863 
L 3481 4863 
L 3481 0 
L 2906 0 
L 2906 525 
Q 2725 213 2448 61 
Q 2172 -91 1784 -91 
Q 1150 -91 751 415 
Q 353 922 353 1747 
Q 353 2572 751 3078 
Q 1150 3584 1784 3584 
Q 2172 3584 2448 3432 
Q 2725 3281 2906 2969 
z
M 947 1747 
Q 947 1113 1208 752 
Q 1469 391 1925 391 
Q 2381 391 2643 752 
Q 2906 1113 2906 1747 
Q 2906 2381 2643 2742 
Q 2381 3103 1925 3103 
Q 1469 3103 1208 2742 
Q 947 2381 947 1747 
z
" id="DejaVuSans-64" transform="scale(0.015625)"/>
       <path d="M 1984 4856 
Q 1566 4138 1362 3434 
Q 1159 2731 1159 2009 
Q 1159 1288 1364 580 
Q 1569 -128 1984 -844 
L 1484 -844 
Q 1016 -109 783 600 
Q 550 1309 550 2009 
Q 550 2706 781 3412 
Q 1013 4119 1484 4856 
L 1984 4856 
z
" id="DejaVuSans-28" transform="scale(0.015625)"/>
       <path d="M -19 4666 
L 3928 4666 
L 3928 4134 
L 2272 4134 
L 2272 0 
L 1638 0 
L 1638 4134 
L -19 4134 
L -19 4666 
z
" id="DejaVuSans-54" transform="scale(0.015625)"/>
       <path d="M 213 4666 
L 850 4666 
L 1831 722 
L 2809 4666 
L 3519 4666 
L 4500 722 
L 5478 4666 
L 6119 4666 
L 4947 0 
L 4153 0 
L 3169 4050 
L 2175 0 
L 1381 0 
L 213 4666 
z
" id="DejaVuSans-57" transform="scale(0.015625)"/>
       <path d="M 3513 2113 
L 3513 0 
L 2938 0 
L 2938 2094 
Q 2938 2591 2744 2837 
Q 2550 3084 2163 3084 
Q 1697 3084 1428 2787 
Q 1159 2491 1159 1978 
L 1159 0 
L 581 0 
L 581 4863 
L 1159 4863 
L 1159 2956 
Q 1366 3272 1645 3428 
Q 1925 3584 2291 3584 
Q 2894 3584 3203 3211 
Q 3513 2838 3513 2113 
z
" id="DejaVuSans-68" transform="scale(0.015625)"/>
       <path d="M 513 4856 
L 1013 4856 
Q 1481 4119 1714 3412 
Q 1947 2706 1947 2009 
Q 1947 1309 1714 600 
Q 1481 -109 1013 -844 
L 513 -844 
Q 928 -128 1133 580 
Q 1338 1288 1338 2009 
Q 1338 2731 1133 3434 
Q 928 4138 513 4856 
z
" id="DejaVuSans-29" transform="scale(0.015625)"/>
      </defs>
      <use xlink:href="#DejaVuSans-45"/>
      <use x="63.183594" xlink:href="#DejaVuSans-6e"/>
      <use x="126.5625" xlink:href="#DejaVuSans-65"/>
      <use x="188.085938" xlink:href="#DejaVuSans-72"/>
      <use x="227.449219" xlink:href="#DejaVuSans-67"/>
      <use x="290.925781" xlink:href="#DejaVuSans-79"/>
      <use x="350.105469" xlink:href="#DejaVuSans-20"/>
      <use x="381.892578" xlink:href="#DejaVuSans-47"/>
      <use x="459.382812" xlink:href="#DejaVuSans-65"/>
      <use x="520.90625" xlink:href="#DejaVuSans-6e"/>
      <use x="584.285156" xlink:href="#DejaVuSans-65"/>
      <use x="645.808594" xlink:href="#DejaVuSans-72"/>
      <use x="686.921875" xlink:href="#DejaVuSans-61"/>
      <use x="748.201172" xlink:href="#DejaVuSans-74"/>
      <use x="787.410156" xlink:href="#DejaVuSans-65"/>
      <use x="848.933594" xlink:href="#DejaVuSans-64"/>
      <use x="912.410156" xlink:href="#DejaVuSans-20"/>
      <use x="944.197266" xlink:href="#DejaVuSans-28"/>
      <use x="983.210938" xlink:href="#DejaVuSans-54"/>
      <use x="1044.294922" xlink:href="#DejaVuSans-57"/>
      <use x="1143.171875" xlink:href="#DejaVuSans-68"/>
      <use x="1206.550781" xlink:href="#DejaVuSans-29"/>
     </g>
    </g>
   </g>
   <g id="patch_3">
    <path d="M 62.24 382.624 
L 62.24 35.28 
" style="fill:none;stroke:#000000;stroke-linecap:square;stroke-linejoin:miter;stroke-width:0.8;"/>
   </g>
   <g id="patch_4">
    <path d="M 338.07 382.624 
L 338.07 35.28 
" style="fill:none;stroke:#000000;stroke-linecap:square;stroke-linejoin:miter;stroke-width:0.8;"/>
   </g>
   <g id="patch_5">
    <path d="M 62.24 382.624 
L 338.07 382.624 
" style="fill:none;stroke:#000000;stroke-linecap:square;stroke-linejoin:miter;stroke-width:0.8;"/>
   </g>
   <g id="patch_6">
    <path d="M 62.24 35.28 
L 338.07 35.28 
" style="fill:none;stroke:#000000;stroke-linecap:square;stroke-linejoin:miter;stroke-width:0.8;"/>
   </g>
  </g>
  <g id="text_14">
   <!-- b) -->
   <g transform="translate(10.825 14.957812)scale(0.14 -0.14)">
    <defs>
     <path d="M 3116 1747 
Q 3116 2381 2855 2742 
Q 2594 3103 2138 3103 
Q 1681 3103 1420 2742 
Q 1159 2381 1159 1747 
Q 1159 1113 1420 752 
Q 1681 391 2138 391 
Q 2594 391 2855 752 
Q 3116 1113 3116 1747 
z
M 1159 2969 
Q 1341 3281 1617 3432 
Q 1894 3584 2278 3584 
Q 2916 3584 3314 3078 
Q 3713 2572 3713 1747 
Q 3713 922 3314 415 
Q 2916 -91 2278 -91 
Q 1894 -91 1617 61 
Q 1341 213 1159 525 
L 1159 0 
L 581 0 
L 581 4863 
L 1159 4863 
L 1159 2969 
z
" id="DejaVuSans-62" transform="scale(0.015625)"/>
    </defs>
    <use xlink:href="#DejaVuSans-62"/>
    <use x="63.476562" xlink:href="#DejaVuSans-29"/>
   </g>
  </g>
 </g>
 <defs>
  <clipPath id="pc8f71424f8">
   <rect height="347.344" width="275.83" x="62.24" y="35.28"/>
  </clipPath>
 </defs>
</svg>
