<?xml version="1.0" encoding="utf-8" standalone="no"?>
<!DOCTYPE svg PUBLIC "-//W3C//DTD SVG 1.1//EN"
  "http://www.w3.org/Graphics/SVG/1.1/DTD/svg11.dtd">
<svg height="432pt" version="1.1" viewBox="0 0 360 432" width="360pt" xmlns="http://www.w3.org/2000/svg" xmlns:xlink="http://www.w3.org/1999/xlink">
 <metadata>
  <rdf:RDF xmlns:cc="http://creativecommons.org/ns#" xmlns:dc="http://purl.org/dc/elements/1.1/" xmlns:rdf="http://www.w3.org/1999/02/22-rdf-syntax-ns#">
   <cc:Work>
    <dc:type rdf:resource="http://purl.org/dc/dcmitype/StillImage"/>
    <dc:date>2021-11-02T14:17:33.841510</dc:date>
    <dc:format>image/svg+xml</dc:format>
    <dc:creator>
     <cc:Agent>
      <dc:title>Matplotlib v3.4.1, https://matplotlib.org/</dc:title>
     </cc:Agent>
    </dc:creator>
   </cc:Work>
  </rdf:RDF>
 </metadata>
 <defs>
  <style type="text/css">*{stroke-linecap:butt;stroke-linejoin:round;}</style>
 </defs>
 <g id="figure_1">
  <g id="patch_1">
   <path d="M 0 432 
L 360 432 
L 360 0 
L 0 0 
z
" style="fill:#ffffff;"/>
  </g>
  <g id="axes_1">
   <g id="patch_2">
    <path d="M 62.24 382.624 
L 338.07 382.624 
L 338.07 35.28 
L 62.24 35.28 
z
" style="fill:#ffffff;"/>
   </g>
   <g id="PolyCollection_1">
    <path clip-path="url(#p17dd2df72e)" d="M 62.24 351.686269 
L 62.24 382.624 
L 92.887778 382.624 
L 123.535556 382.624 
L 154.183333 382.624 
L 184.831111 382.624 
L 215.478889 382.624 
L 246.126667 382.624 
L 276.774444 382.624 
L 307.422222 382.624 
L 338.07 382.624 
L 338.07 365.27132 
L 338.07 365.27132 
L 307.422222 364.951285 
L 276.774444 364.561923 
L 246.126667 364.056436 
L 215.478889 363.323747 
L 184.831111 362.249508 
L 154.183333 360.471658 
L 123.535556 356.828748 
L 92.887778 353.027357 
L 62.24 351.686269 
z
" style="fill:#3182bd;"/>
   </g>
   <g id="PolyCollection_2">
    <path clip-path="url(#p17dd2df72e)" d="M 62.24 188.824246 
L 62.24 351.686269 
L 92.887778 353.027357 
L 123.535556 356.828748 
L 154.183333 360.471658 
L 184.831111 362.249508 
L 215.478889 363.323747 
L 246.126667 364.056436 
L 276.774444 364.561923 
L 307.422222 364.951285 
L 338.07 365.27132 
L 338.07 274.592638 
L 338.07 274.592638 
L 307.422222 271.724396 
L 276.774444 268.188924 
L 246.126667 263.538095 
L 215.478889 257.360114 
L 184.831111 248.77929 
L 154.183333 237.335742 
L 123.535556 223.463205 
L 92.887778 206.891848 
L 62.24 188.824246 
z
" style="fill:#6baed6;"/>
   </g>
   <g id="PolyCollection_3">
    <path clip-path="url(#p17dd2df72e)" d="M 62.24 188.824246 
L 62.24 188.824246 
L 92.887778 206.891848 
L 123.535556 223.463205 
L 154.183333 237.335742 
L 184.831111 248.77929 
L 215.478889 257.360114 
L 246.126667 263.538095 
L 276.774444 268.188924 
L 307.422222 271.724396 
L 338.07 274.592638 
L 338.07 274.592638 
L 338.07 274.592638 
L 307.422222 271.724396 
L 276.774444 268.188924 
L 246.126667 263.538095 
L 215.478889 257.360114 
L 184.831111 248.77929 
L 154.183333 237.335742 
L 123.535556 223.463205 
L 92.887778 206.891848 
L 62.24 188.824246 
z
" style="fill:#9ecae1;"/>
   </g>
   <g id="PolyCollection_4">
    <path clip-path="url(#p17dd2df72e)" d="M 62.24 188.824246 
L 62.24 188.824246 
L 92.887778 206.891848 
L 123.535556 223.463205 
L 154.183333 237.335742 
L 184.831111 248.77929 
L 215.478889 257.360114 
L 246.126667 263.538095 
L 276.774444 268.188924 
L 307.422222 271.724396 
L 338.07 274.592638 
L 338.07 274.592638 
L 338.07 274.592638 
L 307.422222 271.724396 
L 276.774444 268.188924 
L 246.126667 263.538095 
L 215.478889 257.360114 
L 184.831111 248.77929 
L 154.183333 237.335742 
L 123.535556 223.463205 
L 92.887778 206.891848 
L 62.24 188.824246 
z
" style="fill:#c6dbef;"/>
   </g>
   <g id="PolyCollection_5">
    <path clip-path="url(#p17dd2df72e)" d="M 62.24 188.824246 
L 62.24 188.824246 
L 92.887778 206.891848 
L 123.535556 223.463205 
L 154.183333 237.335742 
L 184.831111 248.77929 
L 215.478889 257.360114 
L 246.126667 263.538095 
L 276.774444 268.188924 
L 307.422222 271.724396 
L 338.07 274.592638 
L 338.07 274.592638 
L 338.07 274.592638 
L 307.422222 271.724396 
L 276.774444 268.188924 
L 246.126667 263.538095 
L 215.478889 257.360114 
L 184.831111 248.77929 
L 154.183333 237.335742 
L 123.535556 223.463205 
L 92.887778 206.891848 
L 62.24 188.824246 
z
" style="fill:#e6550d;"/>
   </g>
   <g id="PolyCollection_6">
    <path clip-path="url(#p17dd2df72e)" d="M 62.24 188.824246 
L 62.24 188.824246 
L 92.887778 206.891848 
L 123.535556 223.463205 
L 154.183333 237.335742 
L 184.831111 248.77929 
L 215.478889 257.360114 
L 246.126667 263.538095 
L 276.774444 268.188924 
L 307.422222 271.724396 
L 338.07 274.592638 
L 338.07 274.592638 
L 338.07 274.592638 
L 307.422222 271.724396 
L 276.774444 268.188924 
L 246.126667 263.538095 
L 215.478889 257.360114 
L 184.831111 248.77929 
L 154.183333 237.335742 
L 123.535556 223.463205 
L 92.887778 206.891848 
L 62.24 188.824246 
z
" style="fill:#fd8d3c;"/>
   </g>
   <g id="PolyCollection_7">
    <path clip-path="url(#p17dd2df72e)" d="M 62.24 185.478363 
L 62.24 188.824246 
L 92.887778 206.891848 
L 123.535556 223.463205 
L 154.183333 237.335742 
L 184.831111 248.77929 
L 215.478889 257.360114 
L 246.126667 263.538095 
L 276.774444 268.188924 
L 307.422222 271.724396 
L 338.07 274.592638 
L 338.07 272.315119 
L 338.07 272.315119 
L 307.422222 269.357265 
L 276.774444 265.703271 
L 246.126667 260.90207 
L 215.478889 254.549539 
L 184.831111 245.766228 
L 154.183333 234.166631 
L 123.535556 220.184577 
L 92.887778 203.548342 
L 62.24 185.478363 
z
" style="fill:#fdae6b;"/>
   </g>
   <g id="PolyCollection_8">
    <path clip-path="url(#p17dd2df72e)" d="M 62.24 181.753756 
L 62.24 185.478363 
L 92.887778 203.548342 
L 123.535556 220.184577 
L 154.183333 234.166631 
L 184.831111 245.766228 
L 215.478889 254.549539 
L 246.126667 260.90207 
L 276.774444 265.703271 
L 307.422222 269.357265 
L 338.07 272.315119 
L 338.07 268.805823 
L 338.07 268.805823 
L 307.422222 265.799469 
L 276.774444 262.112769 
L 246.126667 257.276878 
L 215.478889 250.88905 
L 184.831111 242.072041 
L 154.183333 230.449302 
L 123.535556 216.460194 
L 92.887778 199.823735 
L 62.24 181.753756 
z
" style="fill:#fdd0a2;"/>
   </g>
   <g id="PolyCollection_9">
    <path clip-path="url(#p17dd2df72e)" d="M 62.24 167.987445 
L 62.24 181.753756 
L 92.887778 199.823735 
L 123.535556 216.460194 
L 154.183333 230.449302 
L 184.831111 242.072041 
L 215.478889 250.88905 
L 246.126667 257.276878 
L 276.774444 262.112769 
L 307.422222 265.799469 
L 338.07 268.805823 
L 338.07 255.789688 
L 338.07 255.789688 
L 307.422222 252.622785 
L 276.774444 248.80886 
L 246.126667 243.862225 
L 215.478889 237.355775 
L 184.831111 228.423135 
L 154.183333 216.712057 
L 123.535556 202.694864 
L 92.887778 186.057424 
L 62.24 167.987445 
z
" style="fill:#31a354;"/>
   </g>
   <g id="PolyCollection_10">
    <path clip-path="url(#p17dd2df72e)" d="M 62.24 147.640973 
L 62.24 167.987445 
L 92.887778 186.057424 
L 123.535556 202.694864 
L 154.183333 216.712057 
L 184.831111 228.423135 
L 215.478889 237.355775 
L 246.126667 243.862225 
L 276.774444 248.80886 
L 307.422222 252.622785 
L 338.07 255.789688 
L 338.07 237.113101 
L 338.07 237.113101 
L 307.422222 233.537598 
L 276.774444 229.442054 
L 246.126667 224.256005 
L 215.478889 217.536744 
L 184.831111 208.373577 
L 154.183333 196.470228 
L 123.535556 182.353446 
L 92.887778 165.710952 
L 62.24 147.640973 
z
" style="fill:#74c476;"/>
   </g>
   <g id="PolyCollection_11">
    <path clip-path="url(#p17dd2df72e)" d="M 62.24 73.846311 
L 62.24 147.640973 
L 92.887778 165.710952 
L 123.535556 182.353446 
L 154.183333 196.470228 
L 184.831111 208.373577 
L 215.478889 217.536744 
L 246.126667 224.256005 
L 276.774444 229.442054 
L 307.422222 233.537598 
L 338.07 237.113101 
L 338.07 163.31844 
L 338.07 163.31844 
L 307.422222 159.742936 
L 276.774444 155.647392 
L 246.126667 150.461344 
L 215.478889 143.742083 
L 184.831111 134.578915 
L 154.183333 122.675567 
L 123.535556 108.558785 
L 92.887778 91.91629 
L 62.24 73.846311 
z
" style="fill:#a1d99b;"/>
   </g>
   <g id="PolyCollection_12">
    <path clip-path="url(#p17dd2df72e)" d="M 62.24 73.846311 
L 62.24 73.846311 
L 92.887778 91.91629 
L 123.535556 108.558785 
L 154.183333 122.675567 
L 184.831111 134.578915 
L 215.478889 143.742083 
L 246.126667 150.461344 
L 276.774444 155.647392 
L 307.422222 159.742936 
L 338.07 163.31844 
L 338.07 163.31844 
L 338.07 163.31844 
L 307.422222 159.742936 
L 276.774444 155.647392 
L 246.126667 150.461344 
L 215.478889 143.742083 
L 184.831111 134.578915 
L 154.183333 122.675567 
L 123.535556 108.558785 
L 92.887778 91.91629 
L 62.24 73.846311 
z
" style="fill:#c7e9c0;"/>
   </g>
   <g id="PolyCollection_13">
    <path clip-path="url(#p17dd2df72e)" d="M 62.24 63.337623 
L 62.24 73.846311 
L 92.887778 91.91629 
L 123.535556 108.558785 
L 154.183333 122.675567 
L 184.831111 134.578915 
L 215.478889 143.742083 
L 246.126667 150.461344 
L 276.774444 155.647392 
L 307.422222 159.742936 
L 338.07 163.31844 
L 338.07 156.651343 
L 338.07 156.651343 
L 307.422222 152.101822 
L 276.774444 147.194805 
L 246.126667 141.473219 
L 215.478889 134.342098 
L 184.831111 124.779677 
L 154.183333 112.499147 
L 123.535556 98.079555 
L 92.887778 81.407602 
L 62.24 63.337623 
z
" style="fill:#756bb1;"/>
   </g>
   <g id="PolyCollection_14">
    <path clip-path="url(#p17dd2df72e)" d="M 62.24 51.82019 
L 62.24 63.337623 
L 92.887778 81.407602 
L 123.535556 98.079555 
L 154.183333 112.499147 
L 184.831111 124.779677 
L 215.478889 134.342098 
L 246.126667 141.473219 
L 276.774444 147.194805 
L 307.422222 152.101822 
L 338.07 156.651343 
L 338.07 145.133911 
L 338.07 145.133911 
L 307.422222 140.584389 
L 276.774444 135.677372 
L 246.126667 129.955786 
L 215.478889 122.824665 
L 184.831111 113.262244 
L 154.183333 100.981714 
L 123.535556 86.562123 
L 92.887778 69.890169 
L 62.24 51.82019 
z
" style="fill:#9e9ac8;"/>
   </g>
   <g id="PolyCollection_15">
    <path clip-path="url(#p17dd2df72e)" d="M 62.24 51.82019 
L 62.24 51.82019 
L 92.887778 69.890169 
L 123.535556 86.562123 
L 154.183333 100.981714 
L 184.831111 113.262244 
L 215.478889 122.824665 
L 246.126667 129.955786 
L 276.774444 135.677372 
L 307.422222 140.584389 
L 338.07 145.133911 
L 338.07 124.435393 
L 338.07 124.435393 
L 307.422222 118.281747 
L 276.774444 111.678606 
L 246.126667 104.644758 
L 215.478889 97.084516 
L 184.831111 88.898059 
L 154.183333 80.073459 
L 123.535556 70.717533 
L 92.887778 61.268906 
L 62.24 51.82019 
z
" style="fill:#bcbddc;"/>
   </g>
   <g id="PolyCollection_16">
    <path clip-path="url(#p17dd2df72e)" d="M 62.24 51.82019 
L 62.24 51.82019 
L 92.887778 61.268906 
L 123.535556 70.717533 
L 154.183333 80.073459 
L 184.831111 88.898059 
L 215.478889 97.084516 
L 246.126667 104.644758 
L 276.774444 111.678606 
L 307.422222 118.281747 
L 338.07 124.435393 
L 338.07 51.82019 
L 338.07 51.82019 
L 307.422222 51.82019 
L 276.774444 51.82019 
L 246.126667 51.82019 
L 215.478889 51.82019 
L 184.831111 51.82019 
L 154.183333 51.82019 
L 123.535556 51.82019 
L 92.887778 51.82019 
L 62.24 51.82019 
z
" style="fill:#dadaeb;"/>
   </g>
   <g id="matplotlib.axis_1">
    <g id="xtick_1">
     <g id="line2d_1">
      <defs>
       <path d="M 0 0 
L 0 3.5 
" id="m2bca611dcf" style="stroke:#000000;stroke-width:0.8;"/>
      </defs>
      <g>
       <use style="stroke:#000000;stroke-width:0.8;" x="62.24" xlink:href="#m2bca611dcf" y="382.624"/>
      </g>
     </g>
     <g id="text_1">
      <!-- 0.0 -->
      <g transform="translate(51.107813 400.261812)scale(0.14 -0.14)">
       <defs>
        <path d="M 2034 4250 
Q 1547 4250 1301 3770 
Q 1056 3291 1056 2328 
Q 1056 1369 1301 889 
Q 1547 409 2034 409 
Q 2525 409 2770 889 
Q 3016 1369 3016 2328 
Q 3016 3291 2770 3770 
Q 2525 4250 2034 4250 
z
M 2034 4750 
Q 2819 4750 3233 4129 
Q 3647 3509 3647 2328 
Q 3647 1150 3233 529 
Q 2819 -91 2034 -91 
Q 1250 -91 836 529 
Q 422 1150 422 2328 
Q 422 3509 836 4129 
Q 1250 4750 2034 4750 
z
" id="DejaVuSans-30" transform="scale(0.015625)"/>
        <path d="M 684 794 
L 1344 794 
L 1344 0 
L 684 0 
L 684 794 
z
" id="DejaVuSans-2e" transform="scale(0.015625)"/>
       </defs>
       <use xlink:href="#DejaVuSans-30"/>
       <use x="63.623047" xlink:href="#DejaVuSans-2e"/>
       <use x="95.410156" xlink:href="#DejaVuSans-30"/>
      </g>
     </g>
    </g>
    <g id="xtick_2">
     <g id="line2d_2">
      <g>
       <use style="stroke:#000000;stroke-width:0.8;" x="131.1975" xlink:href="#m2bca611dcf" y="382.624"/>
      </g>
     </g>
     <g id="text_2">
      <!-- 0.5 -->
      <g transform="translate(120.065312 400.261812)scale(0.14 -0.14)">
       <defs>
        <path d="M 691 4666 
L 3169 4666 
L 3169 4134 
L 1269 4134 
L 1269 2991 
Q 1406 3038 1543 3061 
Q 1681 3084 1819 3084 
Q 2600 3084 3056 2656 
Q 3513 2228 3513 1497 
Q 3513 744 3044 326 
Q 2575 -91 1722 -91 
Q 1428 -91 1123 -41 
Q 819 9 494 109 
L 494 744 
Q 775 591 1075 516 
Q 1375 441 1709 441 
Q 2250 441 2565 725 
Q 2881 1009 2881 1497 
Q 2881 1984 2565 2268 
Q 2250 2553 1709 2553 
Q 1456 2553 1204 2497 
Q 953 2441 691 2322 
L 691 4666 
z
" id="DejaVuSans-35" transform="scale(0.015625)"/>
       </defs>
       <use xlink:href="#DejaVuSans-30"/>
       <use x="63.623047" xlink:href="#DejaVuSans-2e"/>
       <use x="95.410156" xlink:href="#DejaVuSans-35"/>
      </g>
     </g>
    </g>
    <g id="xtick_3">
     <g id="line2d_3">
      <g>
       <use style="stroke:#000000;stroke-width:0.8;" x="200.155" xlink:href="#m2bca611dcf" y="382.624"/>
      </g>
     </g>
     <g id="text_3">
      <!-- 1.0 -->
      <g transform="translate(189.022812 400.261812)scale(0.14 -0.14)">
       <defs>
        <path d="M 794 531 
L 1825 531 
L 1825 4091 
L 703 3866 
L 703 4441 
L 1819 4666 
L 2450 4666 
L 2450 531 
L 3481 531 
L 3481 0 
L 794 0 
L 794 531 
z
" id="DejaVuSans-31" transform="scale(0.015625)"/>
       </defs>
       <use xlink:href="#DejaVuSans-31"/>
       <use x="63.623047" xlink:href="#DejaVuSans-2e"/>
       <use x="95.410156" xlink:href="#DejaVuSans-30"/>
      </g>
     </g>
    </g>
    <g id="xtick_4">
     <g id="line2d_4">
      <g>
       <use style="stroke:#000000;stroke-width:0.8;" x="269.1125" xlink:href="#m2bca611dcf" y="382.624"/>
      </g>
     </g>
     <g id="text_4">
      <!-- 1.5 -->
      <g transform="translate(257.980313 400.261812)scale(0.14 -0.14)">
       <use xlink:href="#DejaVuSans-31"/>
       <use x="63.623047" xlink:href="#DejaVuSans-2e"/>
       <use x="95.410156" xlink:href="#DejaVuSans-35"/>
      </g>
     </g>
    </g>
    <g id="xtick_5">
     <g id="line2d_5">
      <g>
       <use style="stroke:#000000;stroke-width:0.8;" x="338.07" xlink:href="#m2bca611dcf" y="382.624"/>
      </g>
     </g>
     <g id="text_5">
      <!-- 2.0 -->
      <g transform="translate(326.937813 400.261812)scale(0.14 -0.14)">
       <defs>
        <path d="M 1228 531 
L 3431 531 
L 3431 0 
L 469 0 
L 469 531 
Q 828 903 1448 1529 
Q 2069 2156 2228 2338 
Q 2531 2678 2651 2914 
Q 2772 3150 2772 3378 
Q 2772 3750 2511 3984 
Q 2250 4219 1831 4219 
Q 1534 4219 1204 4116 
Q 875 4013 500 3803 
L 500 4441 
Q 881 4594 1212 4672 
Q 1544 4750 1819 4750 
Q 2544 4750 2975 4387 
Q 3406 4025 3406 3419 
Q 3406 3131 3298 2873 
Q 3191 2616 2906 2266 
Q 2828 2175 2409 1742 
Q 1991 1309 1228 531 
z
" id="DejaVuSans-32" transform="scale(0.015625)"/>
       </defs>
       <use xlink:href="#DejaVuSans-32"/>
       <use x="63.623047" xlink:href="#DejaVuSans-2e"/>
       <use x="95.410156" xlink:href="#DejaVuSans-30"/>
      </g>
     </g>
    </g>
    <g id="text_6">
     <!-- C$_S$ -->
     <g transform="translate(191.895 417.811187)scale(0.14 -0.14)">
      <defs>
       <path d="M 4122 4306 
L 4122 3641 
Q 3803 3938 3442 4084 
Q 3081 4231 2675 4231 
Q 1875 4231 1450 3742 
Q 1025 3253 1025 2328 
Q 1025 1406 1450 917 
Q 1875 428 2675 428 
Q 3081 428 3442 575 
Q 3803 722 4122 1019 
L 4122 359 
Q 3791 134 3420 21 
Q 3050 -91 2638 -91 
Q 1578 -91 968 557 
Q 359 1206 359 2328 
Q 359 3453 968 4101 
Q 1578 4750 2638 4750 
Q 3056 4750 3426 4639 
Q 3797 4528 4122 4306 
z
" id="DejaVuSans-43" transform="scale(0.015625)"/>
       <path d="M 3859 4513 
L 3738 3897 
Q 3422 4066 3111 4152 
Q 2800 4238 2509 4238 
Q 1944 4238 1609 3991 
Q 1275 3744 1275 3334 
Q 1275 3109 1398 2989 
Q 1522 2869 2034 2731 
L 2413 2638 
Q 3053 2472 3303 2217 
Q 3553 1963 3553 1503 
Q 3553 797 2998 353 
Q 2444 -91 1538 -91 
Q 1166 -91 791 -17 
Q 416 56 38 206 
L 166 856 
Q 513 641 861 531 
Q 1209 422 1556 422 
Q 2147 422 2503 684 
Q 2859 947 2859 1369 
Q 2859 1650 2717 1795 
Q 2575 1941 2106 2059 
L 1728 2156 
Q 1081 2325 845 2545 
Q 609 2766 609 3163 
Q 609 3859 1145 4304 
Q 1681 4750 2541 4750 
Q 2875 4750 3203 4690 
Q 3531 4631 3859 4513 
z
" id="DejaVuSans-Oblique-53" transform="scale(0.015625)"/>
      </defs>
      <use transform="translate(0 0.78125)" xlink:href="#DejaVuSans-43"/>
      <use transform="translate(70.78125 -15.625)scale(0.7)" xlink:href="#DejaVuSans-Oblique-53"/>
     </g>
    </g>
   </g>
   <g id="matplotlib.axis_2">
    <g id="ytick_1">
     <g id="line2d_6">
      <defs>
       <path d="M 0 0 
L -3.5 0 
" id="m76c3116ef9" style="stroke:#000000;stroke-width:0.8;"/>
      </defs>
      <g>
       <use style="stroke:#000000;stroke-width:0.8;" x="62.24" xlink:href="#m76c3116ef9" y="382.624"/>
      </g>
     </g>
     <g id="text_7">
      <!-- 0 -->
      <g transform="translate(46.3325 387.942906)scale(0.14 -0.14)">
       <use xlink:href="#DejaVuSans-30"/>
      </g>
     </g>
    </g>
    <g id="ytick_2">
     <g id="line2d_7">
      <g>
       <use style="stroke:#000000;stroke-width:0.8;" x="62.24" xlink:href="#m76c3116ef9" y="326.907339"/>
      </g>
     </g>
     <g id="text_8">
      <!-- 50 -->
      <g transform="translate(37.425 332.226245)scale(0.14 -0.14)">
       <use xlink:href="#DejaVuSans-35"/>
       <use x="63.623047" xlink:href="#DejaVuSans-30"/>
      </g>
     </g>
    </g>
    <g id="ytick_3">
     <g id="line2d_8">
      <g>
       <use style="stroke:#000000;stroke-width:0.8;" x="62.24" xlink:href="#m76c3116ef9" y="271.190677"/>
      </g>
     </g>
     <g id="text_9">
      <!-- 100 -->
      <g transform="translate(28.5175 276.509583)scale(0.14 -0.14)">
       <use xlink:href="#DejaVuSans-31"/>
       <use x="63.623047" xlink:href="#DejaVuSans-30"/>
       <use x="127.246094" xlink:href="#DejaVuSans-30"/>
      </g>
     </g>
    </g>
    <g id="ytick_4">
     <g id="line2d_9">
      <g>
       <use style="stroke:#000000;stroke-width:0.8;" x="62.24" xlink:href="#m76c3116ef9" y="215.474016"/>
      </g>
     </g>
     <g id="text_10">
      <!-- 150 -->
      <g transform="translate(28.5175 220.792922)scale(0.14 -0.14)">
       <use xlink:href="#DejaVuSans-31"/>
       <use x="63.623047" xlink:href="#DejaVuSans-35"/>
       <use x="127.246094" xlink:href="#DejaVuSans-30"/>
      </g>
     </g>
    </g>
    <g id="ytick_5">
     <g id="line2d_10">
      <g>
       <use style="stroke:#000000;stroke-width:0.8;" x="62.24" xlink:href="#m76c3116ef9" y="159.757354"/>
      </g>
     </g>
     <g id="text_11">
      <!-- 200 -->
      <g transform="translate(28.5175 165.076261)scale(0.14 -0.14)">
       <use xlink:href="#DejaVuSans-32"/>
       <use x="63.623047" xlink:href="#DejaVuSans-30"/>
       <use x="127.246094" xlink:href="#DejaVuSans-30"/>
      </g>
     </g>
    </g>
    <g id="ytick_6">
     <g id="line2d_11">
      <g>
       <use style="stroke:#000000;stroke-width:0.8;" x="62.24" xlink:href="#m76c3116ef9" y="104.040693"/>
      </g>
     </g>
     <g id="text_12">
      <!-- 250 -->
      <g transform="translate(28.5175 109.359599)scale(0.14 -0.14)">
       <use xlink:href="#DejaVuSans-32"/>
       <use x="63.623047" xlink:href="#DejaVuSans-35"/>
       <use x="127.246094" xlink:href="#DejaVuSans-30"/>
      </g>
     </g>
    </g>
    <g id="ytick_7">
     <g id="line2d_12">
      <g>
       <use style="stroke:#000000;stroke-width:0.8;" x="62.24" xlink:href="#m76c3116ef9" y="48.324032"/>
      </g>
     </g>
     <g id="text_13">
      <!-- 300 -->
      <g transform="translate(28.5175 53.642938)scale(0.14 -0.14)">
       <defs>
        <path d="M 2597 2516 
Q 3050 2419 3304 2112 
Q 3559 1806 3559 1356 
Q 3559 666 3084 287 
Q 2609 -91 1734 -91 
Q 1441 -91 1130 -33 
Q 819 25 488 141 
L 488 750 
Q 750 597 1062 519 
Q 1375 441 1716 441 
Q 2309 441 2620 675 
Q 2931 909 2931 1356 
Q 2931 1769 2642 2001 
Q 2353 2234 1838 2234 
L 1294 2234 
L 1294 2753 
L 1863 2753 
Q 2328 2753 2575 2939 
Q 2822 3125 2822 3475 
Q 2822 3834 2567 4026 
Q 2313 4219 1838 4219 
Q 1578 4219 1281 4162 
Q 984 4106 628 3988 
L 628 4550 
Q 988 4650 1302 4700 
Q 1616 4750 1894 4750 
Q 2613 4750 3031 4423 
Q 3450 4097 3450 3541 
Q 3450 3153 3228 2886 
Q 3006 2619 2597 2516 
z
" id="DejaVuSans-33" transform="scale(0.015625)"/>
       </defs>
       <use xlink:href="#DejaVuSans-33"/>
       <use x="63.623047" xlink:href="#DejaVuSans-30"/>
       <use x="127.246094" xlink:href="#DejaVuSans-30"/>
      </g>
     </g>
    </g>
    <g id="text_14">
     <!-- Energy Generated (TWh) -->
     <g transform="translate(21.605937 296.142469)rotate(-90)scale(0.14 -0.14)">
      <defs>
       <path d="M 628 4666 
L 3578 4666 
L 3578 4134 
L 1259 4134 
L 1259 2753 
L 3481 2753 
L 3481 2222 
L 1259 2222 
L 1259 531 
L 3634 531 
L 3634 0 
L 628 0 
L 628 4666 
z
" id="DejaVuSans-45" transform="scale(0.015625)"/>
       <path d="M 3513 2113 
L 3513 0 
L 2938 0 
L 2938 2094 
Q 2938 2591 2744 2837 
Q 2550 3084 2163 3084 
Q 1697 3084 1428 2787 
Q 1159 2491 1159 1978 
L 1159 0 
L 581 0 
L 581 3500 
L 1159 3500 
L 1159 2956 
Q 1366 3272 1645 3428 
Q 1925 3584 2291 3584 
Q 2894 3584 3203 3211 
Q 3513 2838 3513 2113 
z
" id="DejaVuSans-6e" transform="scale(0.015625)"/>
       <path d="M 3597 1894 
L 3597 1613 
L 953 1613 
Q 991 1019 1311 708 
Q 1631 397 2203 397 
Q 2534 397 2845 478 
Q 3156 559 3463 722 
L 3463 178 
Q 3153 47 2828 -22 
Q 2503 -91 2169 -91 
Q 1331 -91 842 396 
Q 353 884 353 1716 
Q 353 2575 817 3079 
Q 1281 3584 2069 3584 
Q 2775 3584 3186 3129 
Q 3597 2675 3597 1894 
z
M 3022 2063 
Q 3016 2534 2758 2815 
Q 2500 3097 2075 3097 
Q 1594 3097 1305 2825 
Q 1016 2553 972 2059 
L 3022 2063 
z
" id="DejaVuSans-65" transform="scale(0.015625)"/>
       <path d="M 2631 2963 
Q 2534 3019 2420 3045 
Q 2306 3072 2169 3072 
Q 1681 3072 1420 2755 
Q 1159 2438 1159 1844 
L 1159 0 
L 581 0 
L 581 3500 
L 1159 3500 
L 1159 2956 
Q 1341 3275 1631 3429 
Q 1922 3584 2338 3584 
Q 2397 3584 2469 3576 
Q 2541 3569 2628 3553 
L 2631 2963 
z
" id="DejaVuSans-72" transform="scale(0.015625)"/>
       <path d="M 2906 1791 
Q 2906 2416 2648 2759 
Q 2391 3103 1925 3103 
Q 1463 3103 1205 2759 
Q 947 2416 947 1791 
Q 947 1169 1205 825 
Q 1463 481 1925 481 
Q 2391 481 2648 825 
Q 2906 1169 2906 1791 
z
M 3481 434 
Q 3481 -459 3084 -895 
Q 2688 -1331 1869 -1331 
Q 1566 -1331 1297 -1286 
Q 1028 -1241 775 -1147 
L 775 -588 
Q 1028 -725 1275 -790 
Q 1522 -856 1778 -856 
Q 2344 -856 2625 -561 
Q 2906 -266 2906 331 
L 2906 616 
Q 2728 306 2450 153 
Q 2172 0 1784 0 
Q 1141 0 747 490 
Q 353 981 353 1791 
Q 353 2603 747 3093 
Q 1141 3584 1784 3584 
Q 2172 3584 2450 3431 
Q 2728 3278 2906 2969 
L 2906 3500 
L 3481 3500 
L 3481 434 
z
" id="DejaVuSans-67" transform="scale(0.015625)"/>
       <path d="M 2059 -325 
Q 1816 -950 1584 -1140 
Q 1353 -1331 966 -1331 
L 506 -1331 
L 506 -850 
L 844 -850 
Q 1081 -850 1212 -737 
Q 1344 -625 1503 -206 
L 1606 56 
L 191 3500 
L 800 3500 
L 1894 763 
L 2988 3500 
L 3597 3500 
L 2059 -325 
z
" id="DejaVuSans-79" transform="scale(0.015625)"/>
       <path id="DejaVuSans-20" transform="scale(0.015625)"/>
       <path d="M 3809 666 
L 3809 1919 
L 2778 1919 
L 2778 2438 
L 4434 2438 
L 4434 434 
Q 4069 175 3628 42 
Q 3188 -91 2688 -91 
Q 1594 -91 976 548 
Q 359 1188 359 2328 
Q 359 3472 976 4111 
Q 1594 4750 2688 4750 
Q 3144 4750 3555 4637 
Q 3966 4525 4313 4306 
L 4313 3634 
Q 3963 3931 3569 4081 
Q 3175 4231 2741 4231 
Q 1884 4231 1454 3753 
Q 1025 3275 1025 2328 
Q 1025 1384 1454 906 
Q 1884 428 2741 428 
Q 3075 428 3337 486 
Q 3600 544 3809 666 
z
" id="DejaVuSans-47" transform="scale(0.015625)"/>
       <path d="M 2194 1759 
Q 1497 1759 1228 1600 
Q 959 1441 959 1056 
Q 959 750 1161 570 
Q 1363 391 1709 391 
Q 2188 391 2477 730 
Q 2766 1069 2766 1631 
L 2766 1759 
L 2194 1759 
z
M 3341 1997 
L 3341 0 
L 2766 0 
L 2766 531 
Q 2569 213 2275 61 
Q 1981 -91 1556 -91 
Q 1019 -91 701 211 
Q 384 513 384 1019 
Q 384 1609 779 1909 
Q 1175 2209 1959 2209 
L 2766 2209 
L 2766 2266 
Q 2766 2663 2505 2880 
Q 2244 3097 1772 3097 
Q 1472 3097 1187 3025 
Q 903 2953 641 2809 
L 641 3341 
Q 956 3463 1253 3523 
Q 1550 3584 1831 3584 
Q 2591 3584 2966 3190 
Q 3341 2797 3341 1997 
z
" id="DejaVuSans-61" transform="scale(0.015625)"/>
       <path d="M 1172 4494 
L 1172 3500 
L 2356 3500 
L 2356 3053 
L 1172 3053 
L 1172 1153 
Q 1172 725 1289 603 
Q 1406 481 1766 481 
L 2356 481 
L 2356 0 
L 1766 0 
Q 1100 0 847 248 
Q 594 497 594 1153 
L 594 3053 
L 172 3053 
L 172 3500 
L 594 3500 
L 594 4494 
L 1172 4494 
z
" id="DejaVuSans-74" transform="scale(0.015625)"/>
       <path d="M 2906 2969 
L 2906 4863 
L 3481 4863 
L 3481 0 
L 2906 0 
L 2906 525 
Q 2725 213 2448 61 
Q 2172 -91 1784 -91 
Q 1150 -91 751 415 
Q 353 922 353 1747 
Q 353 2572 751 3078 
Q 1150 3584 1784 3584 
Q 2172 3584 2448 3432 
Q 2725 3281 2906 2969 
z
M 947 1747 
Q 947 1113 1208 752 
Q 1469 391 1925 391 
Q 2381 391 2643 752 
Q 2906 1113 2906 1747 
Q 2906 2381 2643 2742 
Q 2381 3103 1925 3103 
Q 1469 3103 1208 2742 
Q 947 2381 947 1747 
z
" id="DejaVuSans-64" transform="scale(0.015625)"/>
       <path d="M 1984 4856 
Q 1566 4138 1362 3434 
Q 1159 2731 1159 2009 
Q 1159 1288 1364 580 
Q 1569 -128 1984 -844 
L 1484 -844 
Q 1016 -109 783 600 
Q 550 1309 550 2009 
Q 550 2706 781 3412 
Q 1013 4119 1484 4856 
L 1984 4856 
z
" id="DejaVuSans-28" transform="scale(0.015625)"/>
       <path d="M -19 4666 
L 3928 4666 
L 3928 4134 
L 2272 4134 
L 2272 0 
L 1638 0 
L 1638 4134 
L -19 4134 
L -19 4666 
z
" id="DejaVuSans-54" transform="scale(0.015625)"/>
       <path d="M 213 4666 
L 850 4666 
L 1831 722 
L 2809 4666 
L 3519 4666 
L 4500 722 
L 5478 4666 
L 6119 4666 
L 4947 0 
L 4153 0 
L 3169 4050 
L 2175 0 
L 1381 0 
L 213 4666 
z
" id="DejaVuSans-57" transform="scale(0.015625)"/>
       <path d="M 3513 2113 
L 3513 0 
L 2938 0 
L 2938 2094 
Q 2938 2591 2744 2837 
Q 2550 3084 2163 3084 
Q 1697 3084 1428 2787 
Q 1159 2491 1159 1978 
L 1159 0 
L 581 0 
L 581 4863 
L 1159 4863 
L 1159 2956 
Q 1366 3272 1645 3428 
Q 1925 3584 2291 3584 
Q 2894 3584 3203 3211 
Q 3513 2838 3513 2113 
z
" id="DejaVuSans-68" transform="scale(0.015625)"/>
       <path d="M 513 4856 
L 1013 4856 
Q 1481 4119 1714 3412 
Q 1947 2706 1947 2009 
Q 1947 1309 1714 600 
Q 1481 -109 1013 -844 
L 513 -844 
Q 928 -128 1133 580 
Q 1338 1288 1338 2009 
Q 1338 2731 1133 3434 
Q 928 4138 513 4856 
z
" id="DejaVuSans-29" transform="scale(0.015625)"/>
      </defs>
      <use xlink:href="#DejaVuSans-45"/>
      <use x="63.183594" xlink:href="#DejaVuSans-6e"/>
      <use x="126.5625" xlink:href="#DejaVuSans-65"/>
      <use x="188.085938" xlink:href="#DejaVuSans-72"/>
      <use x="227.449219" xlink:href="#DejaVuSans-67"/>
      <use x="290.925781" xlink:href="#DejaVuSans-79"/>
      <use x="350.105469" xlink:href="#DejaVuSans-20"/>
      <use x="381.892578" xlink:href="#DejaVuSans-47"/>
      <use x="459.382812" xlink:href="#DejaVuSans-65"/>
      <use x="520.90625" xlink:href="#DejaVuSans-6e"/>
      <use x="584.285156" xlink:href="#DejaVuSans-65"/>
      <use x="645.808594" xlink:href="#DejaVuSans-72"/>
      <use x="686.921875" xlink:href="#DejaVuSans-61"/>
      <use x="748.201172" xlink:href="#DejaVuSans-74"/>
      <use x="787.410156" xlink:href="#DejaVuSans-65"/>
      <use x="848.933594" xlink:href="#DejaVuSans-64"/>
      <use x="912.410156" xlink:href="#DejaVuSans-20"/>
      <use x="944.197266" xlink:href="#DejaVuSans-28"/>
      <use x="983.210938" xlink:href="#DejaVuSans-54"/>
      <use x="1044.294922" xlink:href="#DejaVuSans-57"/>
      <use x="1143.171875" xlink:href="#DejaVuSans-68"/>
      <use x="1206.550781" xlink:href="#DejaVuSans-29"/>
     </g>
    </g>
   </g>
   <g id="patch_3">
    <path d="M 62.24 382.624 
L 62.24 35.28 
" style="fill:none;stroke:#000000;stroke-linecap:square;stroke-linejoin:miter;stroke-width:0.8;"/>
   </g>
   <g id="patch_4">
    <path d="M 338.07 382.624 
L 338.07 35.28 
" style="fill:none;stroke:#000000;stroke-linecap:square;stroke-linejoin:miter;stroke-width:0.8;"/>
   </g>
   <g id="patch_5">
    <path d="M 62.24 382.624 
L 338.07 382.624 
" style="fill:none;stroke:#000000;stroke-linecap:square;stroke-linejoin:miter;stroke-width:0.8;"/>
   </g>
   <g id="patch_6">
    <path d="M 62.24 35.28 
L 338.07 35.28 
" style="fill:none;stroke:#000000;stroke-linecap:square;stroke-linejoin:miter;stroke-width:0.8;"/>
   </g>
   <g id="text_15">
    <!-- Fossil Hard Coal -->
    <g style="fill:#ffffff;" transform="translate(76.0315 374.266501)scale(0.1 -0.1)">
     <defs>
      <path d="M 628 4666 
L 3309 4666 
L 3309 4134 
L 1259 4134 
L 1259 2759 
L 3109 2759 
L 3109 2228 
L 1259 2228 
L 1259 0 
L 628 0 
L 628 4666 
z
" id="DejaVuSans-46" transform="scale(0.015625)"/>
      <path d="M 1959 3097 
Q 1497 3097 1228 2736 
Q 959 2375 959 1747 
Q 959 1119 1226 758 
Q 1494 397 1959 397 
Q 2419 397 2687 759 
Q 2956 1122 2956 1747 
Q 2956 2369 2687 2733 
Q 2419 3097 1959 3097 
z
M 1959 3584 
Q 2709 3584 3137 3096 
Q 3566 2609 3566 1747 
Q 3566 888 3137 398 
Q 2709 -91 1959 -91 
Q 1206 -91 779 398 
Q 353 888 353 1747 
Q 353 2609 779 3096 
Q 1206 3584 1959 3584 
z
" id="DejaVuSans-6f" transform="scale(0.015625)"/>
      <path d="M 2834 3397 
L 2834 2853 
Q 2591 2978 2328 3040 
Q 2066 3103 1784 3103 
Q 1356 3103 1142 2972 
Q 928 2841 928 2578 
Q 928 2378 1081 2264 
Q 1234 2150 1697 2047 
L 1894 2003 
Q 2506 1872 2764 1633 
Q 3022 1394 3022 966 
Q 3022 478 2636 193 
Q 2250 -91 1575 -91 
Q 1294 -91 989 -36 
Q 684 19 347 128 
L 347 722 
Q 666 556 975 473 
Q 1284 391 1588 391 
Q 1994 391 2212 530 
Q 2431 669 2431 922 
Q 2431 1156 2273 1281 
Q 2116 1406 1581 1522 
L 1381 1569 
Q 847 1681 609 1914 
Q 372 2147 372 2553 
Q 372 3047 722 3315 
Q 1072 3584 1716 3584 
Q 2034 3584 2315 3537 
Q 2597 3491 2834 3397 
z
" id="DejaVuSans-73" transform="scale(0.015625)"/>
      <path d="M 603 3500 
L 1178 3500 
L 1178 0 
L 603 0 
L 603 3500 
z
M 603 4863 
L 1178 4863 
L 1178 4134 
L 603 4134 
L 603 4863 
z
" id="DejaVuSans-69" transform="scale(0.015625)"/>
      <path d="M 603 4863 
L 1178 4863 
L 1178 0 
L 603 0 
L 603 4863 
z
" id="DejaVuSans-6c" transform="scale(0.015625)"/>
      <path d="M 628 4666 
L 1259 4666 
L 1259 2753 
L 3553 2753 
L 3553 4666 
L 4184 4666 
L 4184 0 
L 3553 0 
L 3553 2222 
L 1259 2222 
L 1259 0 
L 628 0 
L 628 4666 
z
" id="DejaVuSans-48" transform="scale(0.015625)"/>
     </defs>
     <use xlink:href="#DejaVuSans-46"/>
     <use x="53.894531" xlink:href="#DejaVuSans-6f"/>
     <use x="115.076172" xlink:href="#DejaVuSans-73"/>
     <use x="167.175781" xlink:href="#DejaVuSans-73"/>
     <use x="219.275391" xlink:href="#DejaVuSans-69"/>
     <use x="247.058594" xlink:href="#DejaVuSans-6c"/>
     <use x="274.841797" xlink:href="#DejaVuSans-20"/>
     <use x="306.628906" xlink:href="#DejaVuSans-48"/>
     <use x="381.824219" xlink:href="#DejaVuSans-61"/>
     <use x="443.103516" xlink:href="#DejaVuSans-72"/>
     <use x="482.466797" xlink:href="#DejaVuSans-64"/>
     <use x="545.943359" xlink:href="#DejaVuSans-20"/>
     <use x="577.730469" xlink:href="#DejaVuSans-43"/>
     <use x="647.554688" xlink:href="#DejaVuSans-6f"/>
     <use x="708.736328" xlink:href="#DejaVuSans-61"/>
     <use x="770.015625" xlink:href="#DejaVuSans-6c"/>
    </g>
   </g>
   <g id="text_16">
    <!-- Fossil Gas -->
    <g style="fill:#ffffff;" transform="translate(76.0315 299.049008)scale(0.1 -0.1)">
     <use xlink:href="#DejaVuSans-46"/>
     <use x="53.894531" xlink:href="#DejaVuSans-6f"/>
     <use x="115.076172" xlink:href="#DejaVuSans-73"/>
     <use x="167.175781" xlink:href="#DejaVuSans-73"/>
     <use x="219.275391" xlink:href="#DejaVuSans-69"/>
     <use x="247.058594" xlink:href="#DejaVuSans-6c"/>
     <use x="274.841797" xlink:href="#DejaVuSans-20"/>
     <use x="306.628906" xlink:href="#DejaVuSans-47"/>
     <use x="384.119141" xlink:href="#DejaVuSans-61"/>
     <use x="445.398438" xlink:href="#DejaVuSans-73"/>
    </g>
   </g>
   <g id="text_17">
    <!-- Nuclear -->
    <g style="fill:#ffffff;" transform="translate(76.0315 131.899024)scale(0.1 -0.1)">
     <defs>
      <path d="M 628 4666 
L 1478 4666 
L 3547 763 
L 3547 4666 
L 4159 4666 
L 4159 0 
L 3309 0 
L 1241 3903 
L 1241 0 
L 628 0 
L 628 4666 
z
" id="DejaVuSans-4e" transform="scale(0.015625)"/>
      <path d="M 544 1381 
L 544 3500 
L 1119 3500 
L 1119 1403 
Q 1119 906 1312 657 
Q 1506 409 1894 409 
Q 2359 409 2629 706 
Q 2900 1003 2900 1516 
L 2900 3500 
L 3475 3500 
L 3475 0 
L 2900 0 
L 2900 538 
Q 2691 219 2414 64 
Q 2138 -91 1772 -91 
Q 1169 -91 856 284 
Q 544 659 544 1381 
z
M 1991 3584 
L 1991 3584 
z
" id="DejaVuSans-75" transform="scale(0.015625)"/>
      <path d="M 3122 3366 
L 3122 2828 
Q 2878 2963 2633 3030 
Q 2388 3097 2138 3097 
Q 1578 3097 1268 2742 
Q 959 2388 959 1747 
Q 959 1106 1268 751 
Q 1578 397 2138 397 
Q 2388 397 2633 464 
Q 2878 531 3122 666 
L 3122 134 
Q 2881 22 2623 -34 
Q 2366 -91 2075 -91 
Q 1284 -91 818 406 
Q 353 903 353 1747 
Q 353 2603 823 3093 
Q 1294 3584 2113 3584 
Q 2378 3584 2631 3529 
Q 2884 3475 3122 3366 
z
" id="DejaVuSans-63" transform="scale(0.015625)"/>
     </defs>
     <use xlink:href="#DejaVuSans-4e"/>
     <use x="74.804688" xlink:href="#DejaVuSans-75"/>
     <use x="138.183594" xlink:href="#DejaVuSans-63"/>
     <use x="193.164062" xlink:href="#DejaVuSans-6c"/>
     <use x="220.947266" xlink:href="#DejaVuSans-65"/>
     <use x="282.470703" xlink:href="#DejaVuSans-61"/>
     <use x="343.75" xlink:href="#DejaVuSans-72"/>
    </g>
   </g>
   <g id="text_18">
    <!-- SolarBTMNT -->
    <g style="fill:#ffffff;" transform="translate(269.1125 81.754028)scale(0.1 -0.1)">
     <defs>
      <path d="M 3425 4513 
L 3425 3897 
Q 3066 4069 2747 4153 
Q 2428 4238 2131 4238 
Q 1616 4238 1336 4038 
Q 1056 3838 1056 3469 
Q 1056 3159 1242 3001 
Q 1428 2844 1947 2747 
L 2328 2669 
Q 3034 2534 3370 2195 
Q 3706 1856 3706 1288 
Q 3706 609 3251 259 
Q 2797 -91 1919 -91 
Q 1588 -91 1214 -16 
Q 841 59 441 206 
L 441 856 
Q 825 641 1194 531 
Q 1563 422 1919 422 
Q 2459 422 2753 634 
Q 3047 847 3047 1241 
Q 3047 1584 2836 1778 
Q 2625 1972 2144 2069 
L 1759 2144 
Q 1053 2284 737 2584 
Q 422 2884 422 3419 
Q 422 4038 858 4394 
Q 1294 4750 2059 4750 
Q 2388 4750 2728 4690 
Q 3069 4631 3425 4513 
z
" id="DejaVuSans-53" transform="scale(0.015625)"/>
      <path d="M 1259 2228 
L 1259 519 
L 2272 519 
Q 2781 519 3026 730 
Q 3272 941 3272 1375 
Q 3272 1813 3026 2020 
Q 2781 2228 2272 2228 
L 1259 2228 
z
M 1259 4147 
L 1259 2741 
L 2194 2741 
Q 2656 2741 2882 2914 
Q 3109 3088 3109 3444 
Q 3109 3797 2882 3972 
Q 2656 4147 2194 4147 
L 1259 4147 
z
M 628 4666 
L 2241 4666 
Q 2963 4666 3353 4366 
Q 3744 4066 3744 3513 
Q 3744 3084 3544 2831 
Q 3344 2578 2956 2516 
Q 3422 2416 3680 2098 
Q 3938 1781 3938 1306 
Q 3938 681 3513 340 
Q 3088 0 2303 0 
L 628 0 
L 628 4666 
z
" id="DejaVuSans-42" transform="scale(0.015625)"/>
      <path d="M 628 4666 
L 1569 4666 
L 2759 1491 
L 3956 4666 
L 4897 4666 
L 4897 0 
L 4281 0 
L 4281 4097 
L 3078 897 
L 2444 897 
L 1241 4097 
L 1241 0 
L 628 0 
L 628 4666 
z
" id="DejaVuSans-4d" transform="scale(0.015625)"/>
     </defs>
     <use xlink:href="#DejaVuSans-53"/>
     <use x="63.476562" xlink:href="#DejaVuSans-6f"/>
     <use x="124.658203" xlink:href="#DejaVuSans-6c"/>
     <use x="152.441406" xlink:href="#DejaVuSans-61"/>
     <use x="213.720703" xlink:href="#DejaVuSans-72"/>
     <use x="254.833984" xlink:href="#DejaVuSans-42"/>
     <use x="323.4375" xlink:href="#DejaVuSans-54"/>
     <use x="384.521484" xlink:href="#DejaVuSans-4d"/>
     <use x="470.800781" xlink:href="#DejaVuSans-4e"/>
     <use x="545.605469" xlink:href="#DejaVuSans-54"/>
    </g>
   </g>
   <g id="text_19">
    <!-- SolarNT -->
    <g style="fill:#ffffff;" transform="translate(269.1125 129.391774)scale(0.1 -0.1)">
     <use xlink:href="#DejaVuSans-53"/>
     <use x="63.476562" xlink:href="#DejaVuSans-6f"/>
     <use x="124.658203" xlink:href="#DejaVuSans-6c"/>
     <use x="152.441406" xlink:href="#DejaVuSans-61"/>
     <use x="213.720703" xlink:href="#DejaVuSans-72"/>
     <use x="254.833984" xlink:href="#DejaVuSans-4e"/>
     <use x="329.638672" xlink:href="#DejaVuSans-54"/>
    </g>
   </g>
   <g id="patch_7">
    <path d="M 265.116482 179.284644 
L 251.5295 179.284644 
Q 241.5295 179.284644 241.5295 169.284644 
L 241.5295 135.020511 
" style="fill:none;stroke:#ffffff;stroke-linecap:round;"/>
    <path d="M 239.5295 139.020511 
L 241.5295 135.020511 
L 243.5295 139.020511 
" style="fill:none;stroke:#ffffff;stroke-linecap:round;"/>
   </g>
   <g id="text_20">
    <!-- SolarBTM -->
    <g style="fill:#ffffff;" transform="translate(269.1125 182.044019)scale(0.1 -0.1)">
     <use xlink:href="#DejaVuSans-53"/>
     <use x="63.476562" xlink:href="#DejaVuSans-6f"/>
     <use x="124.658203" xlink:href="#DejaVuSans-6c"/>
     <use x="152.441406" xlink:href="#DejaVuSans-61"/>
     <use x="213.720703" xlink:href="#DejaVuSans-72"/>
     <use x="254.833984" xlink:href="#DejaVuSans-42"/>
     <use x="323.4375" xlink:href="#DejaVuSans-54"/>
     <use x="384.521484" xlink:href="#DejaVuSans-4d"/>
    </g>
   </g>
   <g id="patch_8">
    <path d="M 265.110582 190.427976 
L 244.63375 190.427976 
Q 234.63375 190.427976 234.63375 180.427976 
L 234.63375 143.654601 
" style="fill:none;stroke:#ffffff;stroke-linecap:round;"/>
    <path d="M 232.63375 147.654601 
L 234.63375 143.654601 
L 236.63375 147.654601 
" style="fill:none;stroke:#ffffff;stroke-linecap:round;"/>
   </g>
   <g id="text_21">
    <!-- Solar -->
    <g style="fill:#ffffff;" transform="translate(269.1125 193.187351)scale(0.1 -0.1)">
     <use xlink:href="#DejaVuSans-53"/>
     <use x="63.476562" xlink:href="#DejaVuSans-6f"/>
     <use x="124.658203" xlink:href="#DejaVuSans-6c"/>
     <use x="152.441406" xlink:href="#DejaVuSans-61"/>
     <use x="213.720703" xlink:href="#DejaVuSans-72"/>
    </g>
   </g>
   <g id="patch_9">
    <path d="M 209.946141 301.860197 
Q 200.155 301.756319 200.155 291.861299 
L 200.155 224.164914 
" style="fill:none;stroke:#ffffff;stroke-linecap:round;"/>
    <path d="M 198.155 228.164914 
L 200.155 224.164914 
L 202.155 228.164914 
" style="fill:none;stroke:#ffffff;stroke-linecap:round;"/>
   </g>
   <g id="text_22">
    <!-- Wind Onshore -->
    <g style="fill:#ffffff;" transform="translate(213.9465 304.620674)scale(0.1 -0.1)">
     <defs>
      <path d="M 2522 4238 
Q 1834 4238 1429 3725 
Q 1025 3213 1025 2328 
Q 1025 1447 1429 934 
Q 1834 422 2522 422 
Q 3209 422 3611 934 
Q 4013 1447 4013 2328 
Q 4013 3213 3611 3725 
Q 3209 4238 2522 4238 
z
M 2522 4750 
Q 3503 4750 4090 4092 
Q 4678 3434 4678 2328 
Q 4678 1225 4090 567 
Q 3503 -91 2522 -91 
Q 1538 -91 948 565 
Q 359 1222 359 2328 
Q 359 3434 948 4092 
Q 1538 4750 2522 4750 
z
" id="DejaVuSans-4f" transform="scale(0.015625)"/>
     </defs>
     <use xlink:href="#DejaVuSans-57"/>
     <use x="96.626953" xlink:href="#DejaVuSans-69"/>
     <use x="124.410156" xlink:href="#DejaVuSans-6e"/>
     <use x="187.789062" xlink:href="#DejaVuSans-64"/>
     <use x="251.265625" xlink:href="#DejaVuSans-20"/>
     <use x="283.052734" xlink:href="#DejaVuSans-4f"/>
     <use x="361.763672" xlink:href="#DejaVuSans-6e"/>
     <use x="425.142578" xlink:href="#DejaVuSans-73"/>
     <use x="477.242188" xlink:href="#DejaVuSans-68"/>
     <use x="540.621094" xlink:href="#DejaVuSans-6f"/>
     <use x="601.802734" xlink:href="#DejaVuSans-72"/>
     <use x="640.666016" xlink:href="#DejaVuSans-65"/>
    </g>
   </g>
   <g id="patch_10">
    <path d="M 209.950259 313.004631 
L 203.25925 313.004631 
Q 193.25925 313.004631 193.25925 303.004631 
L 193.25925 235.308246 
" style="fill:none;stroke:#ffffff;stroke-linecap:round;"/>
    <path d="M 191.25925 239.308246 
L 193.25925 235.308246 
L 195.25925 239.308246 
" style="fill:none;stroke:#ffffff;stroke-linecap:round;"/>
   </g>
   <g id="text_23">
    <!-- Wind Offshore -->
    <g style="fill:#ffffff;" transform="translate(213.9465 315.764006)scale(0.1 -0.1)">
     <defs>
      <path d="M 2375 4863 
L 2375 4384 
L 1825 4384 
Q 1516 4384 1395 4259 
Q 1275 4134 1275 3809 
L 1275 3500 
L 2222 3500 
L 2222 3053 
L 1275 3053 
L 1275 0 
L 697 0 
L 697 3053 
L 147 3053 
L 147 3500 
L 697 3500 
L 697 3744 
Q 697 4328 969 4595 
Q 1241 4863 1831 4863 
L 2375 4863 
z
" id="DejaVuSans-66" transform="scale(0.015625)"/>
     </defs>
     <use xlink:href="#DejaVuSans-57"/>
     <use x="96.626953" xlink:href="#DejaVuSans-69"/>
     <use x="124.410156" xlink:href="#DejaVuSans-6e"/>
     <use x="187.789062" xlink:href="#DejaVuSans-64"/>
     <use x="251.265625" xlink:href="#DejaVuSans-20"/>
     <use x="283.052734" xlink:href="#DejaVuSans-4f"/>
     <use x="361.763672" xlink:href="#DejaVuSans-66"/>
     <use x="396.96875" xlink:href="#DejaVuSans-66"/>
     <use x="432.173828" xlink:href="#DejaVuSans-73"/>
     <use x="484.273438" xlink:href="#DejaVuSans-68"/>
     <use x="547.652344" xlink:href="#DejaVuSans-6f"/>
     <use x="608.833984" xlink:href="#DejaVuSans-72"/>
     <use x="647.697266" xlink:href="#DejaVuSans-65"/>
    </g>
   </g>
   <g id="patch_11">
    <path d="M 209.950489 324.147964 
L 196.3635 324.147964 
Q 186.3635 324.147964 186.3635 314.147964 
L 186.3635 242.832387 
" style="fill:none;stroke:#ffffff;stroke-linecap:round;"/>
    <path d="M 184.3635 246.832387 
L 186.3635 242.832387 
L 188.3635 246.832387 
" style="fill:none;stroke:#ffffff;stroke-linecap:round;"/>
   </g>
   <g id="text_24">
    <!-- Hydro Run-of-River -->
    <g style="fill:#ffffff;" transform="translate(213.9465 326.907339)scale(0.1 -0.1)">
     <defs>
      <path d="M 2841 2188 
Q 3044 2119 3236 1894 
Q 3428 1669 3622 1275 
L 4263 0 
L 3584 0 
L 2988 1197 
Q 2756 1666 2539 1819 
Q 2322 1972 1947 1972 
L 1259 1972 
L 1259 0 
L 628 0 
L 628 4666 
L 2053 4666 
Q 2853 4666 3247 4331 
Q 3641 3997 3641 3322 
Q 3641 2881 3436 2590 
Q 3231 2300 2841 2188 
z
M 1259 4147 
L 1259 2491 
L 2053 2491 
Q 2509 2491 2742 2702 
Q 2975 2913 2975 3322 
Q 2975 3731 2742 3939 
Q 2509 4147 2053 4147 
L 1259 4147 
z
" id="DejaVuSans-52" transform="scale(0.015625)"/>
      <path d="M 313 2009 
L 1997 2009 
L 1997 1497 
L 313 1497 
L 313 2009 
z
" id="DejaVuSans-2d" transform="scale(0.015625)"/>
      <path d="M 191 3500 
L 800 3500 
L 1894 563 
L 2988 3500 
L 3597 3500 
L 2284 0 
L 1503 0 
L 191 3500 
z
" id="DejaVuSans-76" transform="scale(0.015625)"/>
     </defs>
     <use xlink:href="#DejaVuSans-48"/>
     <use x="75.195312" xlink:href="#DejaVuSans-79"/>
     <use x="134.375" xlink:href="#DejaVuSans-64"/>
     <use x="197.851562" xlink:href="#DejaVuSans-72"/>
     <use x="236.714844" xlink:href="#DejaVuSans-6f"/>
     <use x="297.896484" xlink:href="#DejaVuSans-20"/>
     <use x="329.683594" xlink:href="#DejaVuSans-52"/>
     <use x="394.666016" xlink:href="#DejaVuSans-75"/>
     <use x="458.044922" xlink:href="#DejaVuSans-6e"/>
     <use x="521.423828" xlink:href="#DejaVuSans-2d"/>
     <use x="559.382812" xlink:href="#DejaVuSans-6f"/>
     <use x="620.564453" xlink:href="#DejaVuSans-66"/>
     <use x="650.269531" xlink:href="#DejaVuSans-2d"/>
     <use x="686.353516" xlink:href="#DejaVuSans-52"/>
     <use x="755.835938" xlink:href="#DejaVuSans-69"/>
     <use x="783.619141" xlink:href="#DejaVuSans-76"/>
     <use x="842.798828" xlink:href="#DejaVuSans-65"/>
     <use x="904.322266" xlink:href="#DejaVuSans-72"/>
    </g>
   </g>
   <g id="patch_12">
    <path d="M 209.945275 335.291296 
L 189.46775 335.291296 
Q 179.46775 335.291296 179.46775 325.291296 
L 179.46775 243.663684 
" style="fill:none;stroke:#ffffff;stroke-linecap:round;"/>
    <path d="M 177.46775 247.663684 
L 179.46775 243.663684 
L 181.46775 247.663684 
" style="fill:none;stroke:#ffffff;stroke-linecap:round;"/>
   </g>
   <g id="text_25">
    <!-- Hydro Pumped Storage -->
    <g style="fill:#ffffff;" transform="translate(213.9465 338.050671)scale(0.1 -0.1)">
     <defs>
      <path d="M 1259 4147 
L 1259 2394 
L 2053 2394 
Q 2494 2394 2734 2622 
Q 2975 2850 2975 3272 
Q 2975 3691 2734 3919 
Q 2494 4147 2053 4147 
L 1259 4147 
z
M 628 4666 
L 2053 4666 
Q 2838 4666 3239 4311 
Q 3641 3956 3641 3272 
Q 3641 2581 3239 2228 
Q 2838 1875 2053 1875 
L 1259 1875 
L 1259 0 
L 628 0 
L 628 4666 
z
" id="DejaVuSans-50" transform="scale(0.015625)"/>
      <path d="M 3328 2828 
Q 3544 3216 3844 3400 
Q 4144 3584 4550 3584 
Q 5097 3584 5394 3201 
Q 5691 2819 5691 2113 
L 5691 0 
L 5113 0 
L 5113 2094 
Q 5113 2597 4934 2840 
Q 4756 3084 4391 3084 
Q 3944 3084 3684 2787 
Q 3425 2491 3425 1978 
L 3425 0 
L 2847 0 
L 2847 2094 
Q 2847 2600 2669 2842 
Q 2491 3084 2119 3084 
Q 1678 3084 1418 2786 
Q 1159 2488 1159 1978 
L 1159 0 
L 581 0 
L 581 3500 
L 1159 3500 
L 1159 2956 
Q 1356 3278 1631 3431 
Q 1906 3584 2284 3584 
Q 2666 3584 2933 3390 
Q 3200 3197 3328 2828 
z
" id="DejaVuSans-6d" transform="scale(0.015625)"/>
      <path d="M 1159 525 
L 1159 -1331 
L 581 -1331 
L 581 3500 
L 1159 3500 
L 1159 2969 
Q 1341 3281 1617 3432 
Q 1894 3584 2278 3584 
Q 2916 3584 3314 3078 
Q 3713 2572 3713 1747 
Q 3713 922 3314 415 
Q 2916 -91 2278 -91 
Q 1894 -91 1617 61 
Q 1341 213 1159 525 
z
M 3116 1747 
Q 3116 2381 2855 2742 
Q 2594 3103 2138 3103 
Q 1681 3103 1420 2742 
Q 1159 2381 1159 1747 
Q 1159 1113 1420 752 
Q 1681 391 2138 391 
Q 2594 391 2855 752 
Q 3116 1113 3116 1747 
z
" id="DejaVuSans-70" transform="scale(0.015625)"/>
     </defs>
     <use xlink:href="#DejaVuSans-48"/>
     <use x="75.195312" xlink:href="#DejaVuSans-79"/>
     <use x="134.375" xlink:href="#DejaVuSans-64"/>
     <use x="197.851562" xlink:href="#DejaVuSans-72"/>
     <use x="236.714844" xlink:href="#DejaVuSans-6f"/>
     <use x="297.896484" xlink:href="#DejaVuSans-20"/>
     <use x="329.683594" xlink:href="#DejaVuSans-50"/>
     <use x="388.236328" xlink:href="#DejaVuSans-75"/>
     <use x="451.615234" xlink:href="#DejaVuSans-6d"/>
     <use x="549.027344" xlink:href="#DejaVuSans-70"/>
     <use x="612.503906" xlink:href="#DejaVuSans-65"/>
     <use x="674.027344" xlink:href="#DejaVuSans-64"/>
     <use x="737.503906" xlink:href="#DejaVuSans-20"/>
     <use x="769.291016" xlink:href="#DejaVuSans-53"/>
     <use x="832.767578" xlink:href="#DejaVuSans-74"/>
     <use x="871.976562" xlink:href="#DejaVuSans-6f"/>
     <use x="933.158203" xlink:href="#DejaVuSans-72"/>
     <use x="974.271484" xlink:href="#DejaVuSans-61"/>
     <use x="1035.550781" xlink:href="#DejaVuSans-67"/>
     <use x="1099.027344" xlink:href="#DejaVuSans-65"/>
    </g>
   </g>
  </g>
  <g id="text_26">
   <!-- b) -->
   <g transform="translate(10.825 14.957812)scale(0.14 -0.14)">
    <defs>
     <path d="M 3116 1747 
Q 3116 2381 2855 2742 
Q 2594 3103 2138 3103 
Q 1681 3103 1420 2742 
Q 1159 2381 1159 1747 
Q 1159 1113 1420 752 
Q 1681 391 2138 391 
Q 2594 391 2855 752 
Q 3116 1113 3116 1747 
z
M 1159 2969 
Q 1341 3281 1617 3432 
Q 1894 3584 2278 3584 
Q 2916 3584 3314 3078 
Q 3713 2572 3713 1747 
Q 3713 922 3314 415 
Q 2916 -91 2278 -91 
Q 1894 -91 1617 61 
Q 1341 213 1159 525 
L 1159 0 
L 581 0 
L 581 4863 
L 1159 4863 
L 1159 2969 
z
" id="DejaVuSans-62" transform="scale(0.015625)"/>
    </defs>
    <use xlink:href="#DejaVuSans-62"/>
    <use x="63.476562" xlink:href="#DejaVuSans-29"/>
   </g>
  </g>
 </g>
 <defs>
  <clipPath id="p17dd2df72e">
   <rect height="347.344" width="275.83" x="62.24" y="35.28"/>
  </clipPath>
 </defs>
</svg>
