<?xml version="1.0" encoding="utf-8" standalone="no"?>
<!DOCTYPE svg PUBLIC "-//W3C//DTD SVG 1.1//EN"
  "http://www.w3.org/Graphics/SVG/1.1/DTD/svg11.dtd">
<svg height="864pt" version="1.1" viewBox="0 0 605.52 864" width="605.52pt" xmlns="http://www.w3.org/2000/svg" xmlns:xlink="http://www.w3.org/1999/xlink">
 <metadata>
  <rdf:RDF xmlns:cc="http://creativecommons.org/ns#" xmlns:dc="http://purl.org/dc/elements/1.1/" xmlns:rdf="http://www.w3.org/1999/02/22-rdf-syntax-ns#">
   <cc:Work>
    <dc:type rdf:resource="http://purl.org/dc/dcmitype/StillImage"/>
    <dc:date>2021-06-21T10:30:30.704197</dc:date>
    <dc:format>image/svg+xml</dc:format>
    <dc:creator>
     <cc:Agent>
      <dc:title>Matplotlib v3.4.1, https://matplotlib.org/</dc:title>
     </cc:Agent>
    </dc:creator>
   </cc:Work>
  </rdf:RDF>
 </metadata>
 <defs>
  <style type="text/css">*{stroke-linecap:butt;stroke-linejoin:round;}</style>
 </defs>
 <g id="figure_1">
  <g id="patch_1">
   <path d="M 0 864 
L 605.52 864 
L 605.52 0 
L 0 0 
z
" style="fill:#ffffff;"/>
  </g>
  <g id="axes_1">
   <g id="patch_2">
    <path d="M 75.69 768.96 
L 544.968 768.96 
L 544.968 103.68 
L 75.69 103.68 
z
" style="fill:#ffffff;"/>
   </g>
   <g id="PolyCollection_1">
    <path clip-path="url(#p1362820d7a)" d="M 97.020818 457.015002 
L 97.020818 768.96 
L 101.330074 768.96 
L 105.639331 768.96 
L 109.948587 768.96 
L 114.257843 768.96 
L 118.567099 768.96 
L 122.876355 768.96 
L 127.185612 768.96 
L 131.494868 768.96 
L 135.804124 768.96 
L 140.11338 768.96 
L 144.422636 768.96 
L 148.731893 768.96 
L 153.041149 768.96 
L 157.350405 768.96 
L 161.659661 768.96 
L 165.968917 768.96 
L 170.278174 768.96 
L 174.58743 768.96 
L 178.896686 768.96 
L 183.205942 768.96 
L 187.515198 768.96 
L 191.824455 768.96 
L 196.133711 768.96 
L 200.442967 768.96 
L 204.752223 768.96 
L 209.061479 768.96 
L 213.370736 768.96 
L 217.679992 768.96 
L 221.989248 768.96 
L 226.298504 768.96 
L 230.60776 768.96 
L 234.917017 768.96 
L 239.226273 768.96 
L 243.535529 768.96 
L 247.844785 768.96 
L 252.154041 768.96 
L 256.463298 768.96 
L 260.772554 768.96 
L 265.08181 768.96 
L 269.391066 768.96 
L 273.700322 768.96 
L 278.009579 768.96 
L 282.318835 768.96 
L 286.628091 768.96 
L 290.937347 768.96 
L 295.246603 768.96 
L 299.55586 768.96 
L 303.865116 768.96 
L 308.174372 768.96 
L 312.483628 768.96 
L 316.792884 768.96 
L 321.10214 768.96 
L 325.411397 768.96 
L 329.720653 768.96 
L 334.029909 768.96 
L 338.339165 768.96 
L 342.648421 768.96 
L 346.957678 768.96 
L 351.266934 768.96 
L 355.57619 768.96 
L 359.885446 768.96 
L 364.194702 768.96 
L 368.503959 768.96 
L 372.813215 768.96 
L 377.122471 768.96 
L 381.431727 768.96 
L 385.740983 768.96 
L 390.05024 768.96 
L 394.359496 768.96 
L 398.668752 768.96 
L 402.978008 768.96 
L 407.287264 768.96 
L 411.596521 768.96 
L 415.905777 768.96 
L 420.215033 768.96 
L 424.524289 768.96 
L 428.833545 768.96 
L 433.142802 768.96 
L 437.452058 768.96 
L 441.761314 768.96 
L 446.07057 768.96 
L 450.379826 768.96 
L 454.689083 768.96 
L 458.998339 768.96 
L 463.307595 768.96 
L 467.616851 768.96 
L 471.926107 768.96 
L 476.235364 768.96 
L 480.54462 768.96 
L 484.853876 768.96 
L 489.163132 768.96 
L 493.472388 768.96 
L 497.781645 768.96 
L 502.090901 768.96 
L 506.400157 768.96 
L 510.709413 768.96 
L 515.018669 768.96 
L 519.327926 768.96 
L 523.637182 768.96 
L 523.637182 532.270924 
L 523.637182 532.270924 
L 519.327926 531.610969 
L 515.018669 530.946864 
L 510.709413 530.279033 
L 506.400157 529.605488 
L 502.090901 528.926381 
L 497.781645 528.244405 
L 493.472388 527.55749 
L 489.163132 526.866188 
L 484.853876 526.17299 
L 480.54462 525.476507 
L 476.235364 524.777571 
L 471.926107 524.075892 
L 467.616851 523.369791 
L 463.307595 522.656582 
L 458.998339 521.938225 
L 454.689083 521.216396 
L 450.379826 520.48986 
L 446.07057 519.754562 
L 441.761314 519.017147 
L 437.452058 518.27554 
L 433.142802 517.528324 
L 428.833545 516.775762 
L 424.524289 516.019544 
L 420.215033 515.262768 
L 415.905777 514.507186 
L 411.596521 513.751699 
L 407.287264 512.99518 
L 402.978008 512.240223 
L 398.668752 511.48991 
L 394.359496 510.741601 
L 390.05024 509.993564 
L 385.740983 509.243835 
L 381.431727 508.489597 
L 377.122471 507.73208 
L 372.813215 506.971871 
L 368.503959 506.211407 
L 364.194702 505.453964 
L 359.885446 504.696978 
L 355.57619 503.943063 
L 351.266934 503.184547 
L 346.957678 502.430529 
L 342.648421 501.674119 
L 338.339165 500.916546 
L 334.029909 500.160258 
L 329.720653 499.40898 
L 325.411397 498.663534 
L 321.10214 497.920593 
L 316.792884 497.174204 
L 312.483628 496.424764 
L 308.174372 495.677598 
L 303.865116 494.933984 
L 299.55586 494.197309 
L 295.246603 493.464932 
L 290.937347 492.733765 
L 286.628091 492.007016 
L 282.318835 491.288225 
L 278.009579 490.579106 
L 273.700322 489.875801 
L 269.391066 489.176129 
L 265.08181 488.478038 
L 260.772554 487.779457 
L 256.463298 487.083999 
L 252.154041 486.39503 
L 247.844785 485.711932 
L 243.535529 485.029846 
L 239.226273 484.347785 
L 234.917017 483.66515 
L 230.60776 482.99695 
L 226.298504 482.347572 
L 221.989248 481.71191 
L 217.679992 481.084798 
L 213.370736 480.466879 
L 209.061479 479.854803 
L 204.752223 479.243092 
L 200.442967 478.624995 
L 196.133711 477.99498 
L 191.824455 477.342963 
L 187.515198 476.657862 
L 183.205942 475.933944 
L 178.896686 475.163596 
L 174.58743 474.377263 
L 170.278174 473.576596 
L 165.968917 472.752258 
L 161.659661 471.91885 
L 157.350405 471.081766 
L 153.041149 470.215868 
L 148.731893 469.314289 
L 144.422636 468.341408 
L 140.11338 467.33798 
L 135.804124 466.317772 
L 131.494868 465.287799 
L 127.185612 464.2537 
L 122.876355 463.2196 
L 118.567099 462.1855 
L 114.257843 461.1514 
L 109.948587 460.117301 
L 105.639331 459.083201 
L 101.330074 458.049101 
L 97.020818 457.015002 
z
" style="fill:#3182bd;"/>
   </g>
   <g id="PolyCollection_2">
    <path clip-path="url(#p1362820d7a)" d="M 97.020818 397.76941 
L 97.020818 457.015002 
L 101.330074 458.049101 
L 105.639331 459.083201 
L 109.948587 460.117301 
L 114.257843 461.1514 
L 118.567099 462.1855 
L 122.876355 463.2196 
L 127.185612 464.2537 
L 131.494868 465.287799 
L 135.804124 466.317772 
L 140.11338 467.33798 
L 144.422636 468.341408 
L 148.731893 469.314289 
L 153.041149 470.215868 
L 157.350405 471.081766 
L 161.659661 471.91885 
L 165.968917 472.752258 
L 170.278174 473.576596 
L 174.58743 474.377263 
L 178.896686 475.163596 
L 183.205942 475.933944 
L 187.515198 476.657862 
L 191.824455 477.342963 
L 196.133711 477.99498 
L 200.442967 478.624995 
L 204.752223 479.243092 
L 209.061479 479.854803 
L 213.370736 480.466879 
L 217.679992 481.084798 
L 221.989248 481.71191 
L 226.298504 482.347572 
L 230.60776 482.99695 
L 234.917017 483.66515 
L 239.226273 484.347785 
L 243.535529 485.029846 
L 247.844785 485.711932 
L 252.154041 486.39503 
L 256.463298 487.083999 
L 260.772554 487.779457 
L 265.08181 488.478038 
L 269.391066 489.176129 
L 273.700322 489.875801 
L 278.009579 490.579106 
L 282.318835 491.288225 
L 286.628091 492.007016 
L 290.937347 492.733765 
L 295.246603 493.464932 
L 299.55586 494.197309 
L 303.865116 494.933984 
L 308.174372 495.677598 
L 312.483628 496.424764 
L 316.792884 497.174204 
L 321.10214 497.920593 
L 325.411397 498.663534 
L 329.720653 499.40898 
L 334.029909 500.160258 
L 338.339165 500.916546 
L 342.648421 501.674119 
L 346.957678 502.430529 
L 351.266934 503.184547 
L 355.57619 503.943063 
L 359.885446 504.696978 
L 364.194702 505.453964 
L 368.503959 506.211407 
L 372.813215 506.971871 
L 377.122471 507.73208 
L 381.431727 508.489597 
L 385.740983 509.243835 
L 390.05024 509.993564 
L 394.359496 510.741601 
L 398.668752 511.48991 
L 402.978008 512.240223 
L 407.287264 512.99518 
L 411.596521 513.751699 
L 415.905777 514.507186 
L 420.215033 515.262768 
L 424.524289 516.019544 
L 428.833545 516.775762 
L 433.142802 517.528324 
L 437.452058 518.27554 
L 441.761314 519.017147 
L 446.07057 519.754562 
L 450.379826 520.48986 
L 454.689083 521.216396 
L 458.998339 521.938225 
L 463.307595 522.656582 
L 467.616851 523.369791 
L 471.926107 524.075892 
L 476.235364 524.777571 
L 480.54462 525.476507 
L 484.853876 526.17299 
L 489.163132 526.866188 
L 493.472388 527.55749 
L 497.781645 528.244405 
L 502.090901 528.926381 
L 506.400157 529.605488 
L 510.709413 530.279033 
L 515.018669 530.946864 
L 519.327926 531.610969 
L 523.637182 532.270924 
L 523.637182 493.085072 
L 523.637182 493.085072 
L 519.327926 492.32001 
L 515.018669 491.548481 
L 510.709413 490.771776 
L 506.400157 489.989196 
L 502.090901 489.200102 
L 497.781645 488.406884 
L 493.472388 487.608154 
L 489.163132 486.802842 
L 484.853876 485.991842 
L 480.54462 485.174481 
L 476.235364 484.352753 
L 471.926107 483.524892 
L 467.616851 482.690772 
L 463.307595 481.850524 
L 458.998339 481.003071 
L 454.689083 480.149248 
L 450.379826 479.288988 
L 446.07057 478.422064 
L 441.761314 477.550206 
L 437.452058 476.67119 
L 433.142802 475.786006 
L 428.833545 474.894376 
L 424.524289 473.996964 
L 420.215033 473.09627 
L 415.905777 472.191724 
L 411.596521 471.282826 
L 407.287264 470.368681 
L 402.978008 469.45136 
L 398.668752 468.53176 
L 394.359496 467.608589 
L 390.05024 466.681135 
L 385.740983 465.747996 
L 381.431727 464.808537 
L 377.122471 463.863863 
L 372.813215 462.913692 
L 368.503959 461.959344 
L 364.194702 461.001966 
L 359.885446 460.040093 
L 355.57619 459.073615 
L 351.266934 458.104466 
L 346.957678 457.131592 
L 342.648421 456.154554 
L 338.339165 455.171963 
L 334.029909 454.1842 
L 329.720653 453.193914 
L 325.411397 452.200405 
L 321.10214 451.203448 
L 316.792884 450.2042 
L 312.483628 449.200916 
L 308.174372 448.195105 
L 303.865116 447.18696 
L 299.55586 446.176759 
L 295.246603 445.164696 
L 290.937347 444.149887 
L 286.628091 443.133572 
L 282.318835 442.114549 
L 278.009579 441.094752 
L 273.700322 440.073533 
L 269.391066 439.051513 
L 265.08181 438.028176 
L 260.772554 437.002959 
L 256.463298 435.97722 
L 252.154041 434.951426 
L 247.844785 433.925306 
L 243.535529 432.898245 
L 239.226273 431.869361 
L 234.917017 430.839671 
L 230.60776 429.809409 
L 226.298504 428.779148 
L 221.989248 427.748264 
L 217.679992 426.716388 
L 213.370736 425.684105 
L 209.061479 424.651214 
L 204.752223 423.618221 
L 200.442967 422.585228 
L 196.133711 421.551928 
L 191.824455 420.518403 
L 187.515198 419.484763 
L 183.205942 418.451122 
L 178.896686 417.417304 
L 174.58743 416.383204 
L 170.278174 415.349104 
L 165.968917 414.315005 
L 161.659661 413.280905 
L 157.350405 412.246805 
L 153.041149 411.212706 
L 148.731893 410.178606 
L 144.422636 409.144506 
L 140.11338 408.110407 
L 135.804124 407.076307 
L 131.494868 406.042207 
L 127.185612 405.008107 
L 122.876355 403.974008 
L 118.567099 402.939908 
L 114.257843 401.905808 
L 109.948587 400.871709 
L 105.639331 399.837609 
L 101.330074 398.803509 
L 97.020818 397.76941 
z
" style="fill:#6baed6;"/>
   </g>
   <g id="PolyCollection_3">
    <path clip-path="url(#p1362820d7a)" d="M 97.020818 391.362948 
L 97.020818 397.76941 
L 101.330074 398.803509 
L 105.639331 399.837609 
L 109.948587 400.871709 
L 114.257843 401.905808 
L 118.567099 402.939908 
L 122.876355 403.974008 
L 127.185612 405.008107 
L 131.494868 406.042207 
L 135.804124 407.076307 
L 140.11338 408.110407 
L 144.422636 409.144506 
L 148.731893 410.178606 
L 153.041149 411.212706 
L 157.350405 412.246805 
L 161.659661 413.280905 
L 165.968917 414.315005 
L 170.278174 415.349104 
L 174.58743 416.383204 
L 178.896686 417.417304 
L 183.205942 418.451122 
L 187.515198 419.484763 
L 191.824455 420.518403 
L 196.133711 421.551928 
L 200.442967 422.585228 
L 204.752223 423.618221 
L 209.061479 424.651214 
L 213.370736 425.684105 
L 217.679992 426.716388 
L 221.989248 427.748264 
L 226.298504 428.779148 
L 230.60776 429.809409 
L 234.917017 430.839671 
L 239.226273 431.869361 
L 243.535529 432.898245 
L 247.844785 433.925306 
L 252.154041 434.951426 
L 256.463298 435.97722 
L 260.772554 437.002959 
L 265.08181 438.028176 
L 269.391066 439.051513 
L 273.700322 440.073533 
L 278.009579 441.094752 
L 282.318835 442.114549 
L 286.628091 443.133572 
L 290.937347 444.149887 
L 295.246603 445.164696 
L 299.55586 446.176759 
L 303.865116 447.18696 
L 308.174372 448.195105 
L 312.483628 449.200916 
L 316.792884 450.2042 
L 321.10214 451.203448 
L 325.411397 452.200405 
L 329.720653 453.193914 
L 334.029909 454.1842 
L 338.339165 455.171963 
L 342.648421 456.154554 
L 346.957678 457.131592 
L 351.266934 458.104466 
L 355.57619 459.073615 
L 359.885446 460.040093 
L 364.194702 461.001966 
L 368.503959 461.959344 
L 372.813215 462.913692 
L 377.122471 463.863863 
L 381.431727 464.808537 
L 385.740983 465.747996 
L 390.05024 466.681135 
L 394.359496 467.608589 
L 398.668752 468.53176 
L 402.978008 469.45136 
L 407.287264 470.368681 
L 411.596521 471.282826 
L 415.905777 472.191724 
L 420.215033 473.09627 
L 424.524289 473.996964 
L 428.833545 474.894376 
L 433.142802 475.786006 
L 437.452058 476.67119 
L 441.761314 477.550206 
L 446.07057 478.422064 
L 450.379826 479.288988 
L 454.689083 480.149248 
L 458.998339 481.003071 
L 463.307595 481.850524 
L 467.616851 482.690772 
L 471.926107 483.524892 
L 476.235364 484.352753 
L 480.54462 485.174481 
L 484.853876 485.991842 
L 489.163132 486.802842 
L 493.472388 487.608154 
L 497.781645 488.406884 
L 502.090901 489.200102 
L 506.400157 489.989196 
L 510.709413 490.771776 
L 515.018669 491.548481 
L 519.327926 492.32001 
L 523.637182 493.085072 
L 523.637182 487.043881 
L 523.637182 487.043881 
L 519.327926 486.267669 
L 515.018669 485.485684 
L 510.709413 484.69762 
L 506.400157 483.905091 
L 502.090901 483.108042 
L 497.781645 482.30476 
L 493.472388 481.495768 
L 489.163132 480.681464 
L 484.853876 479.860693 
L 480.54462 479.03399 
L 476.235364 478.20158 
L 471.926107 477.363437 
L 467.616851 476.519092 
L 463.307595 475.668464 
L 458.998339 474.811511 
L 454.689083 473.948262 
L 450.379826 473.078995 
L 446.07057 472.203989 
L 441.761314 471.321734 
L 437.452058 470.433868 
L 433.142802 469.539961 
L 428.833545 468.641075 
L 424.524289 467.738975 
L 420.215033 466.832769 
L 415.905777 465.921873 
L 411.596521 465.006692 
L 407.287264 464.088739 
L 402.978008 463.167833 
L 398.668752 462.243225 
L 394.359496 461.312994 
L 390.05024 460.378304 
L 385.740983 459.437803 
L 381.431727 458.491347 
L 377.122471 457.54029 
L 372.813215 456.585127 
L 368.503959 455.626922 
L 364.194702 454.664902 
L 359.885446 453.697774 
L 355.57619 452.727975 
L 351.266934 451.753985 
L 346.957678 450.775336 
L 342.648421 449.792244 
L 338.339165 448.804776 
L 334.029909 447.814345 
L 329.720653 446.820557 
L 325.411397 445.824527 
L 321.10214 444.825123 
L 316.792884 443.821738 
L 312.483628 442.815983 
L 308.174372 441.808347 
L 303.865116 440.798249 
L 299.55586 439.786486 
L 295.246603 438.772146 
L 290.937347 437.755804 
L 286.628091 436.737247 
L 282.318835 435.717282 
L 278.009579 434.696219 
L 273.700322 433.674397 
L 269.391066 432.651501 
L 265.08181 431.626842 
L 260.772554 430.601191 
L 256.463298 429.575377 
L 252.154041 428.549257 
L 247.844785 427.522783 
L 243.535529 426.494695 
L 239.226273 425.46524 
L 234.917017 424.434979 
L 230.60776 423.404718 
L 226.298504 422.374134 
L 221.989248 421.342514 
L 217.679992 420.310329 
L 213.370736 419.277643 
L 209.061479 418.244752 
L 204.752223 417.211759 
L 200.442967 416.178766 
L 196.133711 415.145466 
L 191.824455 414.111941 
L 187.515198 413.078301 
L 183.205942 412.04466 
L 178.896686 411.010842 
L 174.58743 409.976742 
L 170.278174 408.942642 
L 165.968917 407.908543 
L 161.659661 406.874443 
L 157.350405 405.840343 
L 153.041149 404.806244 
L 148.731893 403.772144 
L 144.422636 402.738044 
L 140.11338 401.703944 
L 135.804124 400.669845 
L 131.494868 399.635745 
L 127.185612 398.601645 
L 122.876355 397.567546 
L 118.567099 396.533446 
L 114.257843 395.499346 
L 109.948587 394.465247 
L 105.639331 393.431147 
L 101.330074 392.397047 
L 97.020818 391.362948 
z
" style="fill:#9ecae1;"/>
   </g>
   <g id="PolyCollection_4">
    <path clip-path="url(#p1362820d7a)" d="M 97.020818 384.229461 
L 97.020818 391.362948 
L 101.330074 392.397047 
L 105.639331 393.431147 
L 109.948587 394.465247 
L 114.257843 395.499346 
L 118.567099 396.533446 
L 122.876355 397.567546 
L 127.185612 398.601645 
L 131.494868 399.635745 
L 135.804124 400.669845 
L 140.11338 401.703944 
L 144.422636 402.738044 
L 148.731893 403.772144 
L 153.041149 404.806244 
L 157.350405 405.840343 
L 161.659661 406.874443 
L 165.968917 407.908543 
L 170.278174 408.942642 
L 174.58743 409.976742 
L 178.896686 411.010842 
L 183.205942 412.04466 
L 187.515198 413.078301 
L 191.824455 414.111941 
L 196.133711 415.145466 
L 200.442967 416.178766 
L 204.752223 417.211759 
L 209.061479 418.244752 
L 213.370736 419.277643 
L 217.679992 420.310329 
L 221.989248 421.342514 
L 226.298504 422.374134 
L 230.60776 423.404718 
L 234.917017 424.434979 
L 239.226273 425.46524 
L 243.535529 426.494695 
L 247.844785 427.522783 
L 252.154041 428.549257 
L 256.463298 429.575377 
L 260.772554 430.601191 
L 265.08181 431.626842 
L 269.391066 432.651501 
L 273.700322 433.674397 
L 278.009579 434.696219 
L 282.318835 435.717282 
L 286.628091 436.737247 
L 290.937347 437.755804 
L 295.246603 438.772146 
L 299.55586 439.786486 
L 303.865116 440.798249 
L 308.174372 441.808347 
L 312.483628 442.815983 
L 316.792884 443.821738 
L 321.10214 444.825123 
L 325.411397 445.824527 
L 329.720653 446.820557 
L 334.029909 447.814345 
L 338.339165 448.804776 
L 342.648421 449.792244 
L 346.957678 450.775336 
L 351.266934 451.753985 
L 355.57619 452.727975 
L 359.885446 453.697774 
L 364.194702 454.664902 
L 368.503959 455.626922 
L 372.813215 456.585127 
L 377.122471 457.54029 
L 381.431727 458.491347 
L 385.740983 459.437803 
L 390.05024 460.378304 
L 394.359496 461.312994 
L 398.668752 462.243225 
L 402.978008 463.167833 
L 407.287264 464.088739 
L 411.596521 465.006692 
L 415.905777 465.921873 
L 420.215033 466.832769 
L 424.524289 467.738975 
L 428.833545 468.641075 
L 433.142802 469.539961 
L 437.452058 470.433868 
L 441.761314 471.321734 
L 446.07057 472.203989 
L 450.379826 473.078995 
L 454.689083 473.948262 
L 458.998339 474.811511 
L 463.307595 475.668464 
L 467.616851 476.519092 
L 471.926107 477.363437 
L 476.235364 478.20158 
L 480.54462 479.03399 
L 484.853876 479.860693 
L 489.163132 480.681464 
L 493.472388 481.495768 
L 497.781645 482.30476 
L 502.090901 483.108042 
L 506.400157 483.905091 
L 510.709413 484.69762 
L 515.018669 485.485684 
L 519.327926 486.267669 
L 523.637182 487.043881 
L 523.637182 479.914015 
L 523.637182 479.914015 
L 519.327926 479.137447 
L 515.018669 478.35507 
L 510.709413 477.566525 
L 506.400157 476.773787 
L 502.090901 475.976738 
L 497.781645 475.173456 
L 493.472388 474.3641 
L 489.163132 473.549467 
L 484.853876 472.728367 
L 480.54462 471.901605 
L 476.235364 471.069194 
L 471.926107 470.231052 
L 467.616851 469.386707 
L 463.307595 468.535408 
L 458.998339 467.6781 
L 454.689083 466.814776 
L 450.379826 465.945509 
L 446.07057 465.070502 
L 441.761314 464.188248 
L 437.452058 463.300381 
L 433.142802 462.406474 
L 428.833545 461.507588 
L 424.524289 460.605488 
L 420.215033 459.699282 
L 415.905777 458.788387 
L 411.596521 457.873206 
L 407.287264 456.955252 
L 402.978008 456.034347 
L 398.668752 455.109738 
L 394.359496 454.179507 
L 390.05024 453.244817 
L 385.740983 452.304317 
L 381.431727 451.35786 
L 377.122471 450.406803 
L 372.813215 449.451641 
L 368.503959 448.493435 
L 364.194702 447.531416 
L 359.885446 446.564287 
L 355.57619 445.594488 
L 351.266934 444.620498 
L 346.957678 443.64185 
L 342.648421 442.658757 
L 338.339165 441.671289 
L 334.029909 440.680858 
L 329.720653 439.68707 
L 325.411397 438.69104 
L 321.10214 437.691637 
L 316.792884 436.688251 
L 312.483628 435.682496 
L 308.174372 434.67486 
L 303.865116 433.664763 
L 299.55586 432.652999 
L 295.246603 431.63866 
L 290.937347 430.622317 
L 286.628091 429.603761 
L 282.318835 428.583796 
L 278.009579 427.562733 
L 273.700322 426.54091 
L 269.391066 425.518014 
L 265.08181 424.493355 
L 260.772554 423.467705 
L 256.463298 422.441891 
L 252.154041 421.415771 
L 247.844785 420.389296 
L 243.535529 419.361209 
L 239.226273 418.331754 
L 234.917017 417.301493 
L 230.60776 416.271232 
L 226.298504 415.240647 
L 221.989248 414.209028 
L 217.679992 413.176842 
L 213.370736 412.144156 
L 209.061479 411.111265 
L 204.752223 410.078272 
L 200.442967 409.04528 
L 196.133711 408.01198 
L 191.824455 406.978454 
L 187.515198 405.944814 
L 183.205942 404.911174 
L 178.896686 403.877355 
L 174.58743 402.843255 
L 170.278174 401.809156 
L 165.968917 400.775056 
L 161.659661 399.740956 
L 157.350405 398.706857 
L 153.041149 397.672757 
L 148.731893 396.638657 
L 144.422636 395.604558 
L 140.11338 394.570458 
L 135.804124 393.536358 
L 131.494868 392.502259 
L 127.185612 391.468159 
L 122.876355 390.434059 
L 118.567099 389.399959 
L 114.257843 388.36586 
L 109.948587 387.33176 
L 105.639331 386.29766 
L 101.330074 385.263561 
L 97.020818 384.229461 
z
" style="fill:#c6dbef;"/>
   </g>
   <g id="PolyCollection_5">
    <path clip-path="url(#p1362820d7a)" d="M 97.020818 357.866529 
L 97.020818 384.229461 
L 101.330074 385.263561 
L 105.639331 386.29766 
L 109.948587 387.33176 
L 114.257843 388.36586 
L 118.567099 389.399959 
L 122.876355 390.434059 
L 127.185612 391.468159 
L 131.494868 392.502259 
L 135.804124 393.536358 
L 140.11338 394.570458 
L 144.422636 395.604558 
L 148.731893 396.638657 
L 153.041149 397.672757 
L 157.350405 398.706857 
L 161.659661 399.740956 
L 165.968917 400.775056 
L 170.278174 401.809156 
L 174.58743 402.843255 
L 178.896686 403.877355 
L 183.205942 404.911174 
L 187.515198 405.944814 
L 191.824455 406.978454 
L 196.133711 408.01198 
L 200.442967 409.04528 
L 204.752223 410.078272 
L 209.061479 411.111265 
L 213.370736 412.144156 
L 217.679992 413.176842 
L 221.989248 414.209028 
L 226.298504 415.240647 
L 230.60776 416.271232 
L 234.917017 417.301493 
L 239.226273 418.331754 
L 243.535529 419.361209 
L 247.844785 420.389296 
L 252.154041 421.415771 
L 256.463298 422.441891 
L 260.772554 423.467705 
L 265.08181 424.493355 
L 269.391066 425.518014 
L 273.700322 426.54091 
L 278.009579 427.562733 
L 282.318835 428.583796 
L 286.628091 429.603761 
L 290.937347 430.622317 
L 295.246603 431.63866 
L 299.55586 432.652999 
L 303.865116 433.664763 
L 308.174372 434.67486 
L 312.483628 435.682496 
L 316.792884 436.688251 
L 321.10214 437.691637 
L 325.411397 438.69104 
L 329.720653 439.68707 
L 334.029909 440.680858 
L 338.339165 441.671289 
L 342.648421 442.658757 
L 346.957678 443.64185 
L 351.266934 444.620498 
L 355.57619 445.594488 
L 359.885446 446.564287 
L 364.194702 447.531416 
L 368.503959 448.493435 
L 372.813215 449.451641 
L 377.122471 450.406803 
L 381.431727 451.35786 
L 385.740983 452.304317 
L 390.05024 453.244817 
L 394.359496 454.179507 
L 398.668752 455.109738 
L 402.978008 456.034347 
L 407.287264 456.955252 
L 411.596521 457.873206 
L 415.905777 458.788387 
L 420.215033 459.699282 
L 424.524289 460.605488 
L 428.833545 461.507588 
L 433.142802 462.406474 
L 437.452058 463.300381 
L 441.761314 464.188248 
L 446.07057 465.070502 
L 450.379826 465.945509 
L 454.689083 466.814776 
L 458.998339 467.6781 
L 463.307595 468.535408 
L 467.616851 469.386707 
L 471.926107 470.231052 
L 476.235364 471.069194 
L 480.54462 471.901605 
L 484.853876 472.728367 
L 489.163132 473.549467 
L 493.472388 474.3641 
L 497.781645 475.173456 
L 502.090901 475.976738 
L 506.400157 476.773787 
L 510.709413 477.566525 
L 515.018669 478.35507 
L 519.327926 479.137447 
L 523.637182 479.914015 
L 523.637182 453.583381 
L 523.637182 453.583381 
L 519.327926 452.804698 
L 515.018669 452.020668 
L 510.709413 451.230504 
L 506.400157 450.436075 
L 502.090901 449.637126 
L 497.781645 448.831944 
L 493.472388 448.020666 
L 489.163132 447.203914 
L 484.853876 446.381361 
L 480.54462 445.553638 
L 476.235364 444.720408 
L 471.926107 443.881446 
L 467.616851 443.036282 
L 463.307595 442.184105 
L 458.998339 441.325813 
L 454.689083 440.461378 
L 450.379826 439.590822 
L 446.07057 438.714452 
L 441.761314 437.830834 
L 437.452058 436.94174 
L 433.142802 436.047047 
L 428.833545 435.147571 
L 424.524289 434.244881 
L 420.215033 433.338085 
L 415.905777 432.426605 
L 411.596521 431.511188 
L 407.287264 430.592998 
L 402.978008 429.671857 
L 398.668752 428.747012 
L 394.359496 427.816575 
L 390.05024 426.881885 
L 385.740983 425.941384 
L 381.431727 424.994928 
L 377.122471 424.043871 
L 372.813215 423.088708 
L 368.503959 422.130503 
L 364.194702 421.168483 
L 359.885446 420.201355 
L 355.57619 419.231556 
L 351.266934 418.257566 
L 346.957678 417.278917 
L 342.648421 416.295825 
L 338.339165 415.308357 
L 334.029909 414.317926 
L 329.720653 413.324138 
L 325.411397 412.328108 
L 321.10214 411.328704 
L 316.792884 410.325319 
L 312.483628 409.319564 
L 308.174372 408.311928 
L 303.865116 407.30183 
L 299.55586 406.290067 
L 295.246603 405.275727 
L 290.937347 404.259385 
L 286.628091 403.240829 
L 282.318835 402.220863 
L 278.009579 401.1998 
L 273.700322 400.177978 
L 269.391066 399.155082 
L 265.08181 398.130423 
L 260.772554 397.104772 
L 256.463298 396.078958 
L 252.154041 395.052838 
L 247.844785 394.026364 
L 243.535529 392.998276 
L 239.226273 391.968822 
L 234.917017 390.93856 
L 230.60776 389.908299 
L 226.298504 388.877715 
L 221.989248 387.846095 
L 217.679992 386.81391 
L 213.370736 385.781224 
L 209.061479 384.748333 
L 204.752223 383.71534 
L 200.442967 382.682347 
L 196.133711 381.649047 
L 191.824455 380.615522 
L 187.515198 379.581882 
L 183.205942 378.548241 
L 178.896686 377.514423 
L 174.58743 376.480323 
L 170.278174 375.446223 
L 165.968917 374.412124 
L 161.659661 373.378024 
L 157.350405 372.343924 
L 153.041149 371.309825 
L 148.731893 370.275725 
L 144.422636 369.241625 
L 140.11338 368.207526 
L 135.804124 367.173426 
L 131.494868 366.139326 
L 127.185612 365.105226 
L 122.876355 364.071127 
L 118.567099 363.037027 
L 114.257843 362.002927 
L 109.948587 360.968828 
L 105.639331 359.934728 
L 101.330074 358.900628 
L 97.020818 357.866529 
z
" style="fill:#e6550d;"/>
   </g>
   <g id="PolyCollection_6">
    <path clip-path="url(#p1362820d7a)" d="M 97.020818 318.899447 
L 97.020818 357.866529 
L 101.330074 358.900628 
L 105.639331 359.934728 
L 109.948587 360.968828 
L 114.257843 362.002927 
L 118.567099 363.037027 
L 122.876355 364.071127 
L 127.185612 365.105226 
L 131.494868 366.139326 
L 135.804124 367.173426 
L 140.11338 368.207526 
L 144.422636 369.241625 
L 148.731893 370.275725 
L 153.041149 371.309825 
L 157.350405 372.343924 
L 161.659661 373.378024 
L 165.968917 374.412124 
L 170.278174 375.446223 
L 174.58743 376.480323 
L 178.896686 377.514423 
L 183.205942 378.548241 
L 187.515198 379.581882 
L 191.824455 380.615522 
L 196.133711 381.649047 
L 200.442967 382.682347 
L 204.752223 383.71534 
L 209.061479 384.748333 
L 213.370736 385.781224 
L 217.679992 386.81391 
L 221.989248 387.846095 
L 226.298504 388.877715 
L 230.60776 389.908299 
L 234.917017 390.93856 
L 239.226273 391.968822 
L 243.535529 392.998276 
L 247.844785 394.026364 
L 252.154041 395.052838 
L 256.463298 396.078958 
L 260.772554 397.104772 
L 265.08181 398.130423 
L 269.391066 399.155082 
L 273.700322 400.177978 
L 278.009579 401.1998 
L 282.318835 402.220863 
L 286.628091 403.240829 
L 290.937347 404.259385 
L 295.246603 405.275727 
L 299.55586 406.290067 
L 303.865116 407.30183 
L 308.174372 408.311928 
L 312.483628 409.319564 
L 316.792884 410.325319 
L 321.10214 411.328704 
L 325.411397 412.328108 
L 329.720653 413.324138 
L 334.029909 414.317926 
L 338.339165 415.308357 
L 342.648421 416.295825 
L 346.957678 417.278917 
L 351.266934 418.257566 
L 355.57619 419.231556 
L 359.885446 420.201355 
L 364.194702 421.168483 
L 368.503959 422.130503 
L 372.813215 423.088708 
L 377.122471 424.043871 
L 381.431727 424.994928 
L 385.740983 425.941384 
L 390.05024 426.881885 
L 394.359496 427.816575 
L 398.668752 428.747012 
L 402.978008 429.671857 
L 407.287264 430.592998 
L 411.596521 431.511188 
L 415.905777 432.426605 
L 420.215033 433.338085 
L 424.524289 434.244881 
L 428.833545 435.147571 
L 433.142802 436.047047 
L 437.452058 436.94174 
L 441.761314 437.830834 
L 446.07057 438.714452 
L 450.379826 439.590822 
L 454.689083 440.461378 
L 458.998339 441.325813 
L 463.307595 442.184105 
L 467.616851 443.036282 
L 471.926107 443.881446 
L 476.235364 444.720408 
L 480.54462 445.553638 
L 484.853876 446.381361 
L 489.163132 447.203914 
L 493.472388 448.020666 
L 497.781645 448.831944 
L 502.090901 449.637126 
L 506.400157 450.436075 
L 510.709413 451.230504 
L 515.018669 452.020668 
L 519.327926 452.804698 
L 523.637182 453.583381 
L 523.637182 414.696306 
L 523.637182 414.696306 
L 519.327926 413.914807 
L 515.018669 413.127279 
L 510.709413 412.333572 
L 506.400157 411.535655 
L 502.090901 410.733563 
L 497.781645 409.925463 
L 493.472388 409.111266 
L 489.163132 408.291544 
L 484.853876 407.46608 
L 480.54462 406.634799 
L 476.235364 405.79803 
L 471.926107 404.95585 
L 467.616851 404.108181 
L 463.307595 403.253626 
L 458.998339 402.393183 
L 454.689083 401.526608 
L 450.379826 400.653852 
L 446.07057 399.775283 
L 441.761314 398.889466 
L 437.452058 397.998191 
L 433.142802 397.101312 
L 428.833545 396.200142 
L 424.524289 395.296156 
L 420.215033 394.388096 
L 415.905777 393.475347 
L 411.596521 392.558312 
L 407.287264 391.638505 
L 402.978008 390.715972 
L 398.668752 389.789816 
L 394.359496 388.858036 
L 390.05024 387.922 
L 385.740983 386.980396 
L 381.431727 386.032959 
L 377.122471 385.080983 
L 372.813215 384.125115 
L 368.503959 383.16632 
L 364.194702 382.20371 
L 359.885446 381.235991 
L 355.57619 380.265602 
L 351.266934 379.291172 
L 346.957678 378.312287 
L 342.648421 377.328959 
L 338.339165 376.341275 
L 334.029909 375.350844 
L 329.720653 374.357057 
L 325.411397 373.361026 
L 321.10214 372.361623 
L 316.792884 371.358237 
L 312.483628 370.352482 
L 308.174372 369.344846 
L 303.865116 368.334749 
L 299.55586 367.322986 
L 295.246603 366.308646 
L 290.937347 365.292303 
L 286.628091 364.273747 
L 282.318835 363.253782 
L 278.009579 362.232719 
L 273.700322 361.210896 
L 269.391066 360.188 
L 265.08181 359.163341 
L 260.772554 358.137691 
L 256.463298 357.111877 
L 252.154041 356.085757 
L 247.844785 355.059282 
L 243.535529 354.031195 
L 239.226273 353.00174 
L 234.917017 351.971479 
L 230.60776 350.941218 
L 226.298504 349.910633 
L 221.989248 348.879014 
L 217.679992 347.846828 
L 213.370736 346.814142 
L 209.061479 345.781251 
L 204.752223 344.748258 
L 200.442967 343.715266 
L 196.133711 342.681966 
L 191.824455 341.64844 
L 187.515198 340.6148 
L 183.205942 339.58116 
L 178.896686 338.547341 
L 174.58743 337.513241 
L 170.278174 336.479142 
L 165.968917 335.445042 
L 161.659661 334.410942 
L 157.350405 333.376843 
L 153.041149 332.342743 
L 148.731893 331.308643 
L 144.422636 330.274544 
L 140.11338 329.240444 
L 135.804124 328.206344 
L 131.494868 327.172245 
L 127.185612 326.138145 
L 122.876355 325.104045 
L 118.567099 324.069946 
L 114.257843 323.035846 
L 109.948587 322.001746 
L 105.639331 320.967646 
L 101.330074 319.933547 
L 97.020818 318.899447 
z
" style="fill:#fd8d3c;"/>
   </g>
   <g id="PolyCollection_7">
    <path clip-path="url(#p1362820d7a)" d="M 97.020818 298.778149 
L 97.020818 318.899447 
L 101.330074 319.933547 
L 105.639331 320.967646 
L 109.948587 322.001746 
L 114.257843 323.035846 
L 118.567099 324.069946 
L 122.876355 325.104045 
L 127.185612 326.138145 
L 131.494868 327.172245 
L 135.804124 328.206344 
L 140.11338 329.240444 
L 144.422636 330.274544 
L 148.731893 331.308643 
L 153.041149 332.342743 
L 157.350405 333.376843 
L 161.659661 334.410942 
L 165.968917 335.445042 
L 170.278174 336.479142 
L 174.58743 337.513241 
L 178.896686 338.547341 
L 183.205942 339.58116 
L 187.515198 340.6148 
L 191.824455 341.64844 
L 196.133711 342.681966 
L 200.442967 343.715266 
L 204.752223 344.748258 
L 209.061479 345.781251 
L 213.370736 346.814142 
L 217.679992 347.846828 
L 221.989248 348.879014 
L 226.298504 349.910633 
L 230.60776 350.941218 
L 234.917017 351.971479 
L 239.226273 353.00174 
L 243.535529 354.031195 
L 247.844785 355.059282 
L 252.154041 356.085757 
L 256.463298 357.111877 
L 260.772554 358.137691 
L 265.08181 359.163341 
L 269.391066 360.188 
L 273.700322 361.210896 
L 278.009579 362.232719 
L 282.318835 363.253782 
L 286.628091 364.273747 
L 290.937347 365.292303 
L 295.246603 366.308646 
L 299.55586 367.322986 
L 303.865116 368.334749 
L 308.174372 369.344846 
L 312.483628 370.352482 
L 316.792884 371.358237 
L 321.10214 372.361623 
L 325.411397 373.361026 
L 329.720653 374.357057 
L 334.029909 375.350844 
L 338.339165 376.341275 
L 342.648421 377.328959 
L 346.957678 378.312287 
L 351.266934 379.291172 
L 355.57619 380.265602 
L 359.885446 381.235991 
L 364.194702 382.20371 
L 368.503959 383.16632 
L 372.813215 384.125115 
L 377.122471 385.080983 
L 381.431727 386.032959 
L 385.740983 386.980396 
L 390.05024 387.922 
L 394.359496 388.858036 
L 398.668752 389.789816 
L 402.978008 390.715972 
L 407.287264 391.638505 
L 411.596521 392.558312 
L 415.905777 393.475347 
L 420.215033 394.388096 
L 424.524289 395.296156 
L 428.833545 396.200142 
L 433.142802 397.101312 
L 437.452058 397.998191 
L 441.761314 398.889466 
L 446.07057 399.775283 
L 450.379826 400.653852 
L 454.689083 401.526608 
L 458.998339 402.393183 
L 463.307595 403.253626 
L 467.616851 404.108181 
L 471.926107 404.95585 
L 476.235364 405.79803 
L 480.54462 406.634799 
L 484.853876 407.46608 
L 489.163132 408.291544 
L 493.472388 409.111266 
L 497.781645 409.925463 
L 502.090901 410.733563 
L 506.400157 411.535655 
L 510.709413 412.333572 
L 515.018669 413.127279 
L 519.327926 413.914807 
L 523.637182 414.696306 
L 523.637182 414.696306 
L 523.637182 414.696306 
L 519.327926 413.712573 
L 515.018669 412.722812 
L 510.709413 411.726674 
L 506.400157 410.726311 
L 502.090901 409.721679 
L 497.781645 408.711074 
L 493.472388 407.694474 
L 489.163132 406.672225 
L 484.853876 405.6437 
L 480.54462 404.609798 
L 476.235364 403.570196 
L 471.926107 402.525034 
L 467.616851 401.473789 
L 463.307595 400.415994 
L 458.998339 399.35233 
L 454.689083 398.282372 
L 450.379826 397.206639 
L 446.07057 396.125187 
L 441.761314 395.036487 
L 437.452058 393.942176 
L 433.142802 392.841842 
L 428.833545 391.736597 
L 424.524289 390.628344 
L 420.215033 389.516452 
L 415.905777 388.400219 
L 411.596521 387.280097 
L 407.287264 386.157281 
L 402.978008 385.031514 
L 398.668752 383.902043 
L 394.359496 382.76695 
L 390.05024 381.627431 
L 385.740983 380.482338 
L 381.431727 379.33129 
L 377.122471 378.175709 
L 372.813215 377.016355 
L 368.503959 375.853959 
L 364.194702 374.687748 
L 359.885446 373.516428 
L 355.57619 372.342507 
L 351.266934 371.164617 
L 346.957678 369.982069 
L 342.648421 368.795186 
L 338.339165 367.603963 
L 334.029909 366.409777 
L 329.720653 365.212488 
L 325.411397 364.01302 
L 321.10214 362.810179 
L 316.792884 361.603356 
L 312.483628 360.394163 
L 308.174372 359.183089 
L 303.865116 357.969554 
L 299.55586 356.754353 
L 295.246603 355.536638 
L 290.937347 354.31705 
L 286.628091 353.095248 
L 282.318835 351.872037 
L 278.009579 350.647729 
L 273.700322 349.422661 
L 269.391066 348.196519 
L 265.08181 346.968615 
L 260.772554 345.739719 
L 256.463298 344.51066 
L 252.154041 343.281294 
L 247.844785 342.051575 
L 243.535529 340.820242 
L 239.226273 339.587541 
L 234.917017 338.354035 
L 230.60776 337.120528 
L 226.298504 335.886698 
L 221.989248 334.651833 
L 217.679992 333.416402 
L 213.370736 332.180471 
L 209.061479 330.944335 
L 204.752223 329.708096 
L 200.442967 328.471858 
L 196.133711 327.235313 
L 191.824455 325.998542 
L 187.515198 324.761656 
L 183.205942 323.524771 
L 178.896686 322.287706 
L 174.58743 321.050361 
L 170.278174 319.813016 
L 165.968917 318.575671 
L 161.659661 317.338326 
L 157.350405 316.100981 
L 153.041149 314.863636 
L 148.731893 313.626291 
L 144.422636 312.388946 
L 140.11338 311.1516 
L 135.804124 309.914255 
L 131.494868 308.67691 
L 127.185612 307.439565 
L 122.876355 306.20222 
L 118.567099 304.964875 
L 114.257843 303.72753 
L 109.948587 302.490185 
L 105.639331 301.252839 
L 101.330074 300.015494 
L 97.020818 298.778149 
z
" style="fill:#fdae6b;"/>
   </g>
   <g id="PolyCollection_8">
    <path clip-path="url(#p1362820d7a)" d="M 97.020818 157.41469 
L 97.020818 298.778149 
L 101.330074 300.015494 
L 105.639331 301.252839 
L 109.948587 302.490185 
L 114.257843 303.72753 
L 118.567099 304.964875 
L 122.876355 306.20222 
L 127.185612 307.439565 
L 131.494868 308.67691 
L 135.804124 309.914255 
L 140.11338 311.1516 
L 144.422636 312.388946 
L 148.731893 313.626291 
L 153.041149 314.863636 
L 157.350405 316.100981 
L 161.659661 317.338326 
L 165.968917 318.575671 
L 170.278174 319.813016 
L 174.58743 321.050361 
L 178.896686 322.287706 
L 183.205942 323.524771 
L 187.515198 324.761656 
L 191.824455 325.998542 
L 196.133711 327.235313 
L 200.442967 328.471858 
L 204.752223 329.708096 
L 209.061479 330.944335 
L 213.370736 332.180471 
L 217.679992 333.416402 
L 221.989248 334.651833 
L 226.298504 335.886698 
L 230.60776 337.120528 
L 234.917017 338.354035 
L 239.226273 339.587541 
L 243.535529 340.820242 
L 247.844785 342.051575 
L 252.154041 343.281294 
L 256.463298 344.51066 
L 260.772554 345.739719 
L 265.08181 346.968615 
L 269.391066 348.196519 
L 273.700322 349.422661 
L 278.009579 350.647729 
L 282.318835 351.872037 
L 286.628091 353.095248 
L 290.937347 354.31705 
L 295.246603 355.536638 
L 299.55586 356.754353 
L 303.865116 357.969554 
L 308.174372 359.183089 
L 312.483628 360.394163 
L 316.792884 361.603356 
L 321.10214 362.810179 
L 325.411397 364.01302 
L 329.720653 365.212488 
L 334.029909 366.409777 
L 338.339165 367.603963 
L 342.648421 368.795186 
L 346.957678 369.982069 
L 351.266934 371.164617 
L 355.57619 372.342507 
L 359.885446 373.516428 
L 364.194702 374.687748 
L 368.503959 375.853959 
L 372.813215 377.016355 
L 377.122471 378.175709 
L 381.431727 379.33129 
L 385.740983 380.482338 
L 390.05024 381.627431 
L 394.359496 382.76695 
L 398.668752 383.902043 
L 402.978008 385.031514 
L 407.287264 386.157281 
L 411.596521 387.280097 
L 415.905777 388.400219 
L 420.215033 389.516452 
L 424.524289 390.628344 
L 428.833545 391.736597 
L 433.142802 392.841842 
L 437.452058 393.942176 
L 441.761314 395.036487 
L 446.07057 396.125187 
L 450.379826 397.206639 
L 454.689083 398.282372 
L 458.998339 399.35233 
L 463.307595 400.415994 
L 467.616851 401.473789 
L 471.926107 402.525034 
L 476.235364 403.570196 
L 480.54462 404.609798 
L 484.853876 405.6437 
L 489.163132 406.672225 
L 493.472388 407.694474 
L 497.781645 408.711074 
L 502.090901 409.721679 
L 506.400157 410.726311 
L 510.709413 411.726674 
L 515.018669 412.722812 
L 519.327926 413.712573 
L 523.637182 414.696306 
L 523.637182 273.332846 
L 523.637182 273.332846 
L 519.327926 272.349113 
L 515.018669 271.359352 
L 510.709413 270.363215 
L 506.400157 269.362852 
L 502.090901 268.358219 
L 497.781645 267.347615 
L 493.472388 266.331015 
L 489.163132 265.308766 
L 484.853876 264.280241 
L 480.54462 263.246339 
L 476.235364 262.206737 
L 471.926107 261.161574 
L 467.616851 260.11033 
L 463.307595 259.052534 
L 458.998339 257.988871 
L 454.689083 256.918912 
L 450.379826 255.843179 
L 446.07057 254.761727 
L 441.761314 253.673028 
L 437.452058 252.578716 
L 433.142802 251.478383 
L 428.833545 250.373138 
L 424.524289 249.264884 
L 420.215033 248.152993 
L 415.905777 247.036759 
L 411.596521 245.916637 
L 407.287264 244.793822 
L 402.978008 243.668055 
L 398.668752 242.538584 
L 394.359496 241.403491 
L 390.05024 240.263971 
L 385.740983 239.118879 
L 381.431727 237.96783 
L 377.122471 236.81225 
L 372.813215 235.652896 
L 368.503959 234.490499 
L 364.194702 233.324289 
L 359.885446 232.152969 
L 355.57619 230.979048 
L 351.266934 229.801157 
L 346.957678 228.618609 
L 342.648421 227.431726 
L 338.339165 226.240503 
L 334.029909 225.046318 
L 329.720653 223.849029 
L 325.411397 222.649561 
L 321.10214 221.44672 
L 316.792884 220.239897 
L 312.483628 219.030704 
L 308.174372 217.81963 
L 303.865116 216.606095 
L 299.55586 215.390894 
L 295.246603 214.173179 
L 290.937347 212.953591 
L 286.628091 211.731789 
L 282.318835 210.508578 
L 278.009579 209.28427 
L 273.700322 208.059202 
L 269.391066 206.83306 
L 265.08181 205.605156 
L 260.772554 204.37626 
L 256.463298 203.147201 
L 252.154041 201.917835 
L 247.844785 200.688115 
L 243.535529 199.456782 
L 239.226273 198.224082 
L 234.917017 196.990575 
L 230.60776 195.757069 
L 226.298504 194.523239 
L 221.989248 193.288374 
L 217.679992 192.052943 
L 213.370736 190.817012 
L 209.061479 189.580875 
L 204.752223 188.344637 
L 200.442967 187.108399 
L 196.133711 185.871853 
L 191.824455 184.635083 
L 187.515198 183.398197 
L 183.205942 182.161311 
L 178.896686 180.924247 
L 174.58743 179.686902 
L 170.278174 178.449557 
L 165.968917 177.212212 
L 161.659661 175.974867 
L 157.350405 174.737521 
L 153.041149 173.500176 
L 148.731893 172.262831 
L 144.422636 171.025486 
L 140.11338 169.788141 
L 135.804124 168.550796 
L 131.494868 167.313451 
L 127.185612 166.076106 
L 122.876355 164.838761 
L 118.567099 163.601415 
L 114.257843 162.36407 
L 109.948587 161.126725 
L 105.639331 159.88938 
L 101.330074 158.652035 
L 97.020818 157.41469 
z
" style="fill:#fdd0a2;"/>
   </g>
   <g id="PolyCollection_9">
    <path clip-path="url(#p1362820d7a)" d="M 97.020818 135.36 
L 97.020818 157.41469 
L 101.330074 158.652035 
L 105.639331 159.88938 
L 109.948587 161.126725 
L 114.257843 162.36407 
L 118.567099 163.601415 
L 122.876355 164.838761 
L 127.185612 166.076106 
L 131.494868 167.313451 
L 135.804124 168.550796 
L 140.11338 169.788141 
L 144.422636 171.025486 
L 148.731893 172.262831 
L 153.041149 173.500176 
L 157.350405 174.737521 
L 161.659661 175.974867 
L 165.968917 177.212212 
L 170.278174 178.449557 
L 174.58743 179.686902 
L 178.896686 180.924247 
L 183.205942 182.161311 
L 187.515198 183.398197 
L 191.824455 184.635083 
L 196.133711 185.871853 
L 200.442967 187.108399 
L 204.752223 188.344637 
L 209.061479 189.580875 
L 213.370736 190.817012 
L 217.679992 192.052943 
L 221.989248 193.288374 
L 226.298504 194.523239 
L 230.60776 195.757069 
L 234.917017 196.990575 
L 239.226273 198.224082 
L 243.535529 199.456782 
L 247.844785 200.688115 
L 252.154041 201.917835 
L 256.463298 203.147201 
L 260.772554 204.37626 
L 265.08181 205.605156 
L 269.391066 206.83306 
L 273.700322 208.059202 
L 278.009579 209.28427 
L 282.318835 210.508578 
L 286.628091 211.731789 
L 290.937347 212.953591 
L 295.246603 214.173179 
L 299.55586 215.390894 
L 303.865116 216.606095 
L 308.174372 217.81963 
L 312.483628 219.030704 
L 316.792884 220.239897 
L 321.10214 221.44672 
L 325.411397 222.649561 
L 329.720653 223.849029 
L 334.029909 225.046318 
L 338.339165 226.240503 
L 342.648421 227.431726 
L 346.957678 228.618609 
L 351.266934 229.801157 
L 355.57619 230.979048 
L 359.885446 232.152969 
L 364.194702 233.324289 
L 368.503959 234.490499 
L 372.813215 235.652896 
L 377.122471 236.81225 
L 381.431727 237.96783 
L 385.740983 239.118879 
L 390.05024 240.263971 
L 394.359496 241.403491 
L 398.668752 242.538584 
L 402.978008 243.668055 
L 407.287264 244.793822 
L 411.596521 245.916637 
L 415.905777 247.036759 
L 420.215033 248.152993 
L 424.524289 249.264884 
L 428.833545 250.373138 
L 433.142802 251.478383 
L 437.452058 252.578716 
L 441.761314 253.673028 
L 446.07057 254.761727 
L 450.379826 255.843179 
L 454.689083 256.918912 
L 458.998339 257.988871 
L 463.307595 259.052534 
L 467.616851 260.11033 
L 471.926107 261.161574 
L 476.235364 262.206737 
L 480.54462 263.246339 
L 484.853876 264.280241 
L 489.163132 265.308766 
L 493.472388 266.331015 
L 497.781645 267.347615 
L 502.090901 268.358219 
L 506.400157 269.362852 
L 510.709413 270.363215 
L 515.018669 271.359352 
L 519.327926 272.349113 
L 523.637182 273.332846 
L 523.637182 273.332846 
L 523.637182 273.332846 
L 519.327926 272.126339 
L 515.018669 270.913803 
L 510.709413 269.694891 
L 506.400157 268.471753 
L 502.090901 267.244346 
L 497.781645 266.010967 
L 493.472388 264.771592 
L 489.163132 263.526568 
L 484.853876 262.275269 
L 480.54462 261.018592 
L 476.235364 259.756216 
L 471.926107 258.488279 
L 467.616851 257.214259 
L 463.307595 255.933689 
L 458.998339 254.647251 
L 454.689083 253.354518 
L 450.379826 252.05601 
L 446.07057 250.751784 
L 441.761314 249.44031 
L 437.452058 248.123223 
L 433.142802 246.800115 
L 428.833545 245.472095 
L 424.524289 244.141068 
L 420.215033 242.806401 
L 415.905777 241.467393 
L 411.596521 240.124497 
L 407.287264 238.778907 
L 402.978008 237.430364 
L 398.668752 236.078119 
L 394.359496 234.720251 
L 390.05024 233.357957 
L 385.740983 231.99009 
L 381.431727 230.616267 
L 377.122471 229.237912 
L 372.813215 227.855783 
L 368.503959 226.470612 
L 364.194702 225.081627 
L 359.885446 223.687532 
L 355.57619 222.290836 
L 351.266934 220.890172 
L 346.957678 219.484849 
L 342.648421 218.075191 
L 338.339165 216.661194 
L 334.029909 215.244233 
L 329.720653 213.82417 
L 325.411397 212.401927 
L 321.10214 210.976311 
L 316.792884 209.546714 
L 312.483628 208.114746 
L 308.174372 206.680898 
L 303.865116 205.244588 
L 299.55586 203.806612 
L 295.246603 202.366122 
L 290.937347 200.92376 
L 286.628091 199.479183 
L 282.318835 198.033198 
L 278.009579 196.586115 
L 273.700322 195.138273 
L 269.391066 193.689356 
L 265.08181 192.238677 
L 260.772554 190.787007 
L 256.463298 189.335173 
L 252.154041 187.883032 
L 247.844785 186.430538 
L 243.535529 184.97643 
L 239.226273 183.520955 
L 234.917017 182.064674 
L 230.60776 180.608393 
L 226.298504 179.151788 
L 221.989248 177.694149 
L 217.679992 176.235943 
L 213.370736 174.777237 
L 209.061479 173.318326 
L 204.752223 171.859313 
L 200.442967 170.4003 
L 196.133711 168.94098 
L 191.824455 167.481435 
L 187.515198 166.021775 
L 183.205942 164.562114 
L 178.896686 163.102276 
L 174.58743 161.642156 
L 170.278174 160.182036 
L 165.968917 158.721916 
L 161.659661 157.261796 
L 157.350405 155.801677 
L 153.041149 154.341557 
L 148.731893 152.881437 
L 144.422636 151.421317 
L 140.11338 149.961198 
L 135.804124 148.501078 
L 131.494868 147.040958 
L 127.185612 145.580838 
L 122.876355 144.120719 
L 118.567099 142.660599 
L 114.257843 141.200479 
L 109.948587 139.740359 
L 105.639331 138.28024 
L 101.330074 136.82012 
L 97.020818 135.36 
z
" style="fill:#31a354;"/>
   </g>
   <g id="PolyCollection_10">
    <path clip-path="url(#p1362820d7a)" d="M 97.020818 135.36 
L 97.020818 135.36 
L 101.330074 136.82012 
L 105.639331 138.28024 
L 109.948587 139.740359 
L 114.257843 141.200479 
L 118.567099 142.660599 
L 122.876355 144.120719 
L 127.185612 145.580838 
L 131.494868 147.040958 
L 135.804124 148.501078 
L 140.11338 149.961198 
L 144.422636 151.421317 
L 148.731893 152.881437 
L 153.041149 154.341557 
L 157.350405 155.801677 
L 161.659661 157.261796 
L 165.968917 158.721916 
L 170.278174 160.182036 
L 174.58743 161.642156 
L 178.896686 163.102276 
L 183.205942 164.562114 
L 187.515198 166.021775 
L 191.824455 167.481435 
L 196.133711 168.94098 
L 200.442967 170.4003 
L 204.752223 171.859313 
L 209.061479 173.318326 
L 213.370736 174.777237 
L 217.679992 176.235943 
L 221.989248 177.694149 
L 226.298504 179.151788 
L 230.60776 180.608393 
L 234.917017 182.064674 
L 239.226273 183.520955 
L 243.535529 184.97643 
L 247.844785 186.430538 
L 252.154041 187.883032 
L 256.463298 189.335173 
L 260.772554 190.787007 
L 265.08181 192.238677 
L 269.391066 193.689356 
L 273.700322 195.138273 
L 278.009579 196.586115 
L 282.318835 198.033198 
L 286.628091 199.479183 
L 290.937347 200.92376 
L 295.246603 202.366122 
L 299.55586 203.806612 
L 303.865116 205.244588 
L 308.174372 206.680898 
L 312.483628 208.114746 
L 316.792884 209.546714 
L 321.10214 210.976311 
L 325.411397 212.401927 
L 329.720653 213.82417 
L 334.029909 215.244233 
L 338.339165 216.661194 
L 342.648421 218.075191 
L 346.957678 219.484849 
L 351.266934 220.890172 
L 355.57619 222.290836 
L 359.885446 223.687532 
L 364.194702 225.081627 
L 368.503959 226.470612 
L 372.813215 227.855783 
L 377.122471 229.237912 
L 381.431727 230.616267 
L 385.740983 231.99009 
L 390.05024 233.357957 
L 394.359496 234.720251 
L 398.668752 236.078119 
L 402.978008 237.430364 
L 407.287264 238.778907 
L 411.596521 240.124497 
L 415.905777 241.467393 
L 420.215033 242.806401 
L 424.524289 244.141068 
L 428.833545 245.472095 
L 433.142802 246.800115 
L 437.452058 248.123223 
L 441.761314 249.44031 
L 446.07057 250.751784 
L 450.379826 252.05601 
L 454.689083 253.354518 
L 458.998339 254.647251 
L 463.307595 255.933689 
L 467.616851 257.214259 
L 471.926107 258.488279 
L 476.235364 259.756216 
L 480.54462 261.018592 
L 484.853876 262.275269 
L 489.163132 263.526568 
L 493.472388 264.771592 
L 497.781645 266.010967 
L 502.090901 267.244346 
L 506.400157 268.471753 
L 510.709413 269.694891 
L 515.018669 270.913803 
L 519.327926 272.126339 
L 523.637182 273.332846 
L 523.637182 208.442636 
L 523.637182 208.442636 
L 519.327926 207.706817 
L 515.018669 206.970573 
L 510.709413 206.233922 
L 506.400157 205.497271 
L 502.090901 204.76062 
L 497.781645 204.023969 
L 493.472388 203.286931 
L 489.163132 202.549553 
L 484.853876 201.812174 
L 480.54462 201.074795 
L 476.235364 200.337417 
L 471.926107 199.600038 
L 467.616851 198.86266 
L 463.307595 198.124552 
L 458.998339 197.386375 
L 454.689083 196.648198 
L 450.379826 195.909859 
L 446.07057 195.171446 
L 441.761314 194.433033 
L 437.452058 193.69462 
L 433.142802 192.956207 
L 428.833545 192.217794 
L 424.524289 191.479381 
L 420.215033 190.740968 
L 415.905777 190.002556 
L 411.596521 189.264143 
L 407.287264 188.52573 
L 402.978008 187.787317 
L 398.668752 187.048904 
L 394.359496 186.310491 
L 390.05024 185.572078 
L 385.740983 184.833665 
L 381.431727 184.095252 
L 377.122471 183.356839 
L 372.813215 182.618426 
L 368.503959 181.880013 
L 364.194702 181.141601 
L 359.885446 180.403188 
L 355.57619 179.664775 
L 351.266934 178.926362 
L 346.957678 178.187949 
L 342.648421 177.449536 
L 338.339165 176.711123 
L 334.029909 175.97271 
L 329.720653 175.234297 
L 325.411397 174.495884 
L 321.10214 173.757471 
L 316.792884 173.019059 
L 312.483628 172.280646 
L 308.174372 171.542233 
L 303.865116 170.80382 
L 299.55586 170.065407 
L 295.246603 169.326994 
L 290.937347 168.588581 
L 286.628091 167.850168 
L 282.318835 167.111755 
L 278.009579 166.373342 
L 273.700322 165.634929 
L 269.391066 164.896517 
L 265.08181 164.158104 
L 260.772554 163.419691 
L 256.463298 162.681278 
L 252.154041 161.942865 
L 247.844785 161.204452 
L 243.535529 160.466039 
L 239.226273 159.727626 
L 234.917017 158.989213 
L 230.60776 158.2508 
L 226.298504 157.512387 
L 221.989248 156.773974 
L 217.679992 156.035562 
L 213.370736 155.297149 
L 209.061479 154.558736 
L 204.752223 153.820323 
L 200.442967 153.08191 
L 196.133711 152.343497 
L 191.824455 151.605084 
L 187.515198 150.866671 
L 183.205942 150.128258 
L 178.896686 149.389845 
L 174.58743 148.651432 
L 170.278174 147.91302 
L 165.968917 147.174607 
L 161.659661 146.436194 
L 157.350405 145.697781 
L 153.041149 144.959368 
L 148.731893 144.220955 
L 144.422636 143.482542 
L 140.11338 142.744129 
L 135.804124 142.005716 
L 131.494868 141.267303 
L 127.185612 140.52889 
L 122.876355 139.790477 
L 118.567099 139.052065 
L 114.257843 138.313652 
L 109.948587 137.575239 
L 105.639331 136.836826 
L 101.330074 136.098413 
L 97.020818 135.36 
z
" style="fill:#74c476;"/>
   </g>
   <g id="PolyCollection_11">
    <path clip-path="url(#p1362820d7a)" d="M 97.020818 135.36 
L 97.020818 135.36 
L 101.330074 136.098413 
L 105.639331 136.836826 
L 109.948587 137.575239 
L 114.257843 138.313652 
L 118.567099 139.052065 
L 122.876355 139.790477 
L 127.185612 140.52889 
L 131.494868 141.267303 
L 135.804124 142.005716 
L 140.11338 142.744129 
L 144.422636 143.482542 
L 148.731893 144.220955 
L 153.041149 144.959368 
L 157.350405 145.697781 
L 161.659661 146.436194 
L 165.968917 147.174607 
L 170.278174 147.91302 
L 174.58743 148.651432 
L 178.896686 149.389845 
L 183.205942 150.128258 
L 187.515198 150.866671 
L 191.824455 151.605084 
L 196.133711 152.343497 
L 200.442967 153.08191 
L 204.752223 153.820323 
L 209.061479 154.558736 
L 213.370736 155.297149 
L 217.679992 156.035562 
L 221.989248 156.773974 
L 226.298504 157.512387 
L 230.60776 158.2508 
L 234.917017 158.989213 
L 239.226273 159.727626 
L 243.535529 160.466039 
L 247.844785 161.204452 
L 252.154041 161.942865 
L 256.463298 162.681278 
L 260.772554 163.419691 
L 265.08181 164.158104 
L 269.391066 164.896517 
L 273.700322 165.634929 
L 278.009579 166.373342 
L 282.318835 167.111755 
L 286.628091 167.850168 
L 290.937347 168.588581 
L 295.246603 169.326994 
L 299.55586 170.065407 
L 303.865116 170.80382 
L 308.174372 171.542233 
L 312.483628 172.280646 
L 316.792884 173.019059 
L 321.10214 173.757471 
L 325.411397 174.495884 
L 329.720653 175.234297 
L 334.029909 175.97271 
L 338.339165 176.711123 
L 342.648421 177.449536 
L 346.957678 178.187949 
L 351.266934 178.926362 
L 355.57619 179.664775 
L 359.885446 180.403188 
L 364.194702 181.141601 
L 368.503959 181.880013 
L 372.813215 182.618426 
L 377.122471 183.356839 
L 381.431727 184.095252 
L 385.740983 184.833665 
L 390.05024 185.572078 
L 394.359496 186.310491 
L 398.668752 187.048904 
L 402.978008 187.787317 
L 407.287264 188.52573 
L 411.596521 189.264143 
L 415.905777 190.002556 
L 420.215033 190.740968 
L 424.524289 191.479381 
L 428.833545 192.217794 
L 433.142802 192.956207 
L 437.452058 193.69462 
L 441.761314 194.433033 
L 446.07057 195.171446 
L 450.379826 195.909859 
L 454.689083 196.648198 
L 458.998339 197.386375 
L 463.307595 198.124552 
L 467.616851 198.86266 
L 471.926107 199.600038 
L 476.235364 200.337417 
L 480.54462 201.074795 
L 484.853876 201.812174 
L 489.163132 202.549553 
L 493.472388 203.286931 
L 497.781645 204.023969 
L 502.090901 204.76062 
L 506.400157 205.497271 
L 510.709413 206.233922 
L 515.018669 206.970573 
L 519.327926 207.706817 
L 523.637182 208.442636 
L 523.637182 135.36 
L 523.637182 135.36 
L 519.327926 135.36 
L 515.018669 135.36 
L 510.709413 135.36 
L 506.400157 135.36 
L 502.090901 135.36 
L 497.781645 135.36 
L 493.472388 135.36 
L 489.163132 135.36 
L 484.853876 135.36 
L 480.54462 135.36 
L 476.235364 135.36 
L 471.926107 135.36 
L 467.616851 135.36 
L 463.307595 135.36 
L 458.998339 135.36 
L 454.689083 135.36 
L 450.379826 135.36 
L 446.07057 135.36 
L 441.761314 135.36 
L 437.452058 135.36 
L 433.142802 135.36 
L 428.833545 135.36 
L 424.524289 135.36 
L 420.215033 135.36 
L 415.905777 135.36 
L 411.596521 135.36 
L 407.287264 135.36 
L 402.978008 135.36 
L 398.668752 135.36 
L 394.359496 135.36 
L 390.05024 135.36 
L 385.740983 135.36 
L 381.431727 135.36 
L 377.122471 135.36 
L 372.813215 135.36 
L 368.503959 135.36 
L 364.194702 135.36 
L 359.885446 135.36 
L 355.57619 135.36 
L 351.266934 135.36 
L 346.957678 135.36 
L 342.648421 135.36 
L 338.339165 135.36 
L 334.029909 135.36 
L 329.720653 135.36 
L 325.411397 135.36 
L 321.10214 135.36 
L 316.792884 135.36 
L 312.483628 135.36 
L 308.174372 135.36 
L 303.865116 135.36 
L 299.55586 135.36 
L 295.246603 135.36 
L 290.937347 135.36 
L 286.628091 135.36 
L 282.318835 135.36 
L 278.009579 135.36 
L 273.700322 135.36 
L 269.391066 135.36 
L 265.08181 135.36 
L 260.772554 135.36 
L 256.463298 135.36 
L 252.154041 135.36 
L 247.844785 135.36 
L 243.535529 135.36 
L 239.226273 135.36 
L 234.917017 135.36 
L 230.60776 135.36 
L 226.298504 135.36 
L 221.989248 135.36 
L 217.679992 135.36 
L 213.370736 135.36 
L 209.061479 135.36 
L 204.752223 135.36 
L 200.442967 135.36 
L 196.133711 135.36 
L 191.824455 135.36 
L 187.515198 135.36 
L 183.205942 135.36 
L 178.896686 135.36 
L 174.58743 135.36 
L 170.278174 135.36 
L 165.968917 135.36 
L 161.659661 135.36 
L 157.350405 135.36 
L 153.041149 135.36 
L 148.731893 135.36 
L 144.422636 135.36 
L 140.11338 135.36 
L 135.804124 135.36 
L 131.494868 135.36 
L 127.185612 135.36 
L 122.876355 135.36 
L 118.567099 135.36 
L 114.257843 135.36 
L 109.948587 135.36 
L 105.639331 135.36 
L 101.330074 135.36 
L 97.020818 135.36 
z
" style="fill:#a1d99b;"/>
   </g>
   <g id="matplotlib.axis_1">
    <g id="xtick_1">
     <g id="line2d_1">
      <defs>
       <path d="M 0 0 
L 0 3.5 
" id="m64a76375a9" style="stroke:#000000;stroke-width:0.8;"/>
      </defs>
      <g>
       <use style="stroke:#000000;stroke-width:0.8;" x="97.020818" xlink:href="#m64a76375a9" y="768.96"/>
      </g>
     </g>
     <g id="text_1">
      <!-- 0 -->
      <g transform="translate(90.022068 792.676563)scale(0.22 -0.22)">
       <defs>
        <path d="M 2034 4250 
Q 1547 4250 1301 3770 
Q 1056 3291 1056 2328 
Q 1056 1369 1301 889 
Q 1547 409 2034 409 
Q 2525 409 2770 889 
Q 3016 1369 3016 2328 
Q 3016 3291 2770 3770 
Q 2525 4250 2034 4250 
z
M 2034 4750 
Q 2819 4750 3233 4129 
Q 3647 3509 3647 2328 
Q 3647 1150 3233 529 
Q 2819 -91 2034 -91 
Q 1250 -91 836 529 
Q 422 1150 422 2328 
Q 422 3509 836 4129 
Q 1250 4750 2034 4750 
z
" id="DejaVuSans-30" transform="scale(0.015625)"/>
       </defs>
       <use xlink:href="#DejaVuSans-30"/>
      </g>
     </g>
    </g>
    <g id="xtick_2">
     <g id="line2d_2">
      <g>
       <use style="stroke:#000000;stroke-width:0.8;" x="182.344091" xlink:href="#m64a76375a9" y="768.96"/>
      </g>
     </g>
     <g id="text_2">
      <!-- 20 -->
      <g transform="translate(168.346591 792.676563)scale(0.22 -0.22)">
       <defs>
        <path d="M 1228 531 
L 3431 531 
L 3431 0 
L 469 0 
L 469 531 
Q 828 903 1448 1529 
Q 2069 2156 2228 2338 
Q 2531 2678 2651 2914 
Q 2772 3150 2772 3378 
Q 2772 3750 2511 3984 
Q 2250 4219 1831 4219 
Q 1534 4219 1204 4116 
Q 875 4013 500 3803 
L 500 4441 
Q 881 4594 1212 4672 
Q 1544 4750 1819 4750 
Q 2544 4750 2975 4387 
Q 3406 4025 3406 3419 
Q 3406 3131 3298 2873 
Q 3191 2616 2906 2266 
Q 2828 2175 2409 1742 
Q 1991 1309 1228 531 
z
" id="DejaVuSans-32" transform="scale(0.015625)"/>
       </defs>
       <use xlink:href="#DejaVuSans-32"/>
       <use x="63.623047" xlink:href="#DejaVuSans-30"/>
      </g>
     </g>
    </g>
    <g id="xtick_3">
     <g id="line2d_3">
      <g>
       <use style="stroke:#000000;stroke-width:0.8;" x="267.667364" xlink:href="#m64a76375a9" y="768.96"/>
      </g>
     </g>
     <g id="text_3">
      <!-- 40 -->
      <g transform="translate(253.669864 792.676563)scale(0.22 -0.22)">
       <defs>
        <path d="M 2419 4116 
L 825 1625 
L 2419 1625 
L 2419 4116 
z
M 2253 4666 
L 3047 4666 
L 3047 1625 
L 3713 1625 
L 3713 1100 
L 3047 1100 
L 3047 0 
L 2419 0 
L 2419 1100 
L 313 1100 
L 313 1709 
L 2253 4666 
z
" id="DejaVuSans-34" transform="scale(0.015625)"/>
       </defs>
       <use xlink:href="#DejaVuSans-34"/>
       <use x="63.623047" xlink:href="#DejaVuSans-30"/>
      </g>
     </g>
    </g>
    <g id="xtick_4">
     <g id="line2d_4">
      <g>
       <use style="stroke:#000000;stroke-width:0.8;" x="352.990636" xlink:href="#m64a76375a9" y="768.96"/>
      </g>
     </g>
     <g id="text_4">
      <!-- 60 -->
      <g transform="translate(338.993136 792.676563)scale(0.22 -0.22)">
       <defs>
        <path d="M 2113 2584 
Q 1688 2584 1439 2293 
Q 1191 2003 1191 1497 
Q 1191 994 1439 701 
Q 1688 409 2113 409 
Q 2538 409 2786 701 
Q 3034 994 3034 1497 
Q 3034 2003 2786 2293 
Q 2538 2584 2113 2584 
z
M 3366 4563 
L 3366 3988 
Q 3128 4100 2886 4159 
Q 2644 4219 2406 4219 
Q 1781 4219 1451 3797 
Q 1122 3375 1075 2522 
Q 1259 2794 1537 2939 
Q 1816 3084 2150 3084 
Q 2853 3084 3261 2657 
Q 3669 2231 3669 1497 
Q 3669 778 3244 343 
Q 2819 -91 2113 -91 
Q 1303 -91 875 529 
Q 447 1150 447 2328 
Q 447 3434 972 4092 
Q 1497 4750 2381 4750 
Q 2619 4750 2861 4703 
Q 3103 4656 3366 4563 
z
" id="DejaVuSans-36" transform="scale(0.015625)"/>
       </defs>
       <use xlink:href="#DejaVuSans-36"/>
       <use x="63.623047" xlink:href="#DejaVuSans-30"/>
      </g>
     </g>
    </g>
    <g id="xtick_5">
     <g id="line2d_5">
      <g>
       <use style="stroke:#000000;stroke-width:0.8;" x="438.313909" xlink:href="#m64a76375a9" y="768.96"/>
      </g>
     </g>
     <g id="text_5">
      <!-- 80 -->
      <g transform="translate(424.316409 792.676563)scale(0.22 -0.22)">
       <defs>
        <path d="M 2034 2216 
Q 1584 2216 1326 1975 
Q 1069 1734 1069 1313 
Q 1069 891 1326 650 
Q 1584 409 2034 409 
Q 2484 409 2743 651 
Q 3003 894 3003 1313 
Q 3003 1734 2745 1975 
Q 2488 2216 2034 2216 
z
M 1403 2484 
Q 997 2584 770 2862 
Q 544 3141 544 3541 
Q 544 4100 942 4425 
Q 1341 4750 2034 4750 
Q 2731 4750 3128 4425 
Q 3525 4100 3525 3541 
Q 3525 3141 3298 2862 
Q 3072 2584 2669 2484 
Q 3125 2378 3379 2068 
Q 3634 1759 3634 1313 
Q 3634 634 3220 271 
Q 2806 -91 2034 -91 
Q 1263 -91 848 271 
Q 434 634 434 1313 
Q 434 1759 690 2068 
Q 947 2378 1403 2484 
z
M 1172 3481 
Q 1172 3119 1398 2916 
Q 1625 2713 2034 2713 
Q 2441 2713 2670 2916 
Q 2900 3119 2900 3481 
Q 2900 3844 2670 4047 
Q 2441 4250 2034 4250 
Q 1625 4250 1398 4047 
Q 1172 3844 1172 3481 
z
" id="DejaVuSans-38" transform="scale(0.015625)"/>
       </defs>
       <use xlink:href="#DejaVuSans-38"/>
       <use x="63.623047" xlink:href="#DejaVuSans-30"/>
      </g>
     </g>
    </g>
    <g id="xtick_6">
     <g id="line2d_6">
      <g>
       <use style="stroke:#000000;stroke-width:0.8;" x="523.637182" xlink:href="#m64a76375a9" y="768.96"/>
      </g>
     </g>
     <g id="text_6">
      <!-- 100 -->
      <g transform="translate(502.640932 792.676563)scale(0.22 -0.22)">
       <defs>
        <path d="M 794 531 
L 1825 531 
L 1825 4091 
L 703 3866 
L 703 4441 
L 1819 4666 
L 2450 4666 
L 2450 531 
L 3481 531 
L 3481 0 
L 794 0 
L 794 531 
z
" id="DejaVuSans-31" transform="scale(0.015625)"/>
       </defs>
       <use xlink:href="#DejaVuSans-31"/>
       <use x="63.623047" xlink:href="#DejaVuSans-30"/>
       <use x="127.246094" xlink:href="#DejaVuSans-30"/>
      </g>
     </g>
    </g>
    <g id="text_7">
     <!-- Proportion of DAPV in Grid (%) -->
     <g transform="translate(143.388531 817.968438)scale(0.22 -0.22)">
      <defs>
       <path d="M 1259 4147 
L 1259 2394 
L 2053 2394 
Q 2494 2394 2734 2622 
Q 2975 2850 2975 3272 
Q 2975 3691 2734 3919 
Q 2494 4147 2053 4147 
L 1259 4147 
z
M 628 4666 
L 2053 4666 
Q 2838 4666 3239 4311 
Q 3641 3956 3641 3272 
Q 3641 2581 3239 2228 
Q 2838 1875 2053 1875 
L 1259 1875 
L 1259 0 
L 628 0 
L 628 4666 
z
" id="DejaVuSans-50" transform="scale(0.015625)"/>
       <path d="M 2631 2963 
Q 2534 3019 2420 3045 
Q 2306 3072 2169 3072 
Q 1681 3072 1420 2755 
Q 1159 2438 1159 1844 
L 1159 0 
L 581 0 
L 581 3500 
L 1159 3500 
L 1159 2956 
Q 1341 3275 1631 3429 
Q 1922 3584 2338 3584 
Q 2397 3584 2469 3576 
Q 2541 3569 2628 3553 
L 2631 2963 
z
" id="DejaVuSans-72" transform="scale(0.015625)"/>
       <path d="M 1959 3097 
Q 1497 3097 1228 2736 
Q 959 2375 959 1747 
Q 959 1119 1226 758 
Q 1494 397 1959 397 
Q 2419 397 2687 759 
Q 2956 1122 2956 1747 
Q 2956 2369 2687 2733 
Q 2419 3097 1959 3097 
z
M 1959 3584 
Q 2709 3584 3137 3096 
Q 3566 2609 3566 1747 
Q 3566 888 3137 398 
Q 2709 -91 1959 -91 
Q 1206 -91 779 398 
Q 353 888 353 1747 
Q 353 2609 779 3096 
Q 1206 3584 1959 3584 
z
" id="DejaVuSans-6f" transform="scale(0.015625)"/>
       <path d="M 1159 525 
L 1159 -1331 
L 581 -1331 
L 581 3500 
L 1159 3500 
L 1159 2969 
Q 1341 3281 1617 3432 
Q 1894 3584 2278 3584 
Q 2916 3584 3314 3078 
Q 3713 2572 3713 1747 
Q 3713 922 3314 415 
Q 2916 -91 2278 -91 
Q 1894 -91 1617 61 
Q 1341 213 1159 525 
z
M 3116 1747 
Q 3116 2381 2855 2742 
Q 2594 3103 2138 3103 
Q 1681 3103 1420 2742 
Q 1159 2381 1159 1747 
Q 1159 1113 1420 752 
Q 1681 391 2138 391 
Q 2594 391 2855 752 
Q 3116 1113 3116 1747 
z
" id="DejaVuSans-70" transform="scale(0.015625)"/>
       <path d="M 1172 4494 
L 1172 3500 
L 2356 3500 
L 2356 3053 
L 1172 3053 
L 1172 1153 
Q 1172 725 1289 603 
Q 1406 481 1766 481 
L 2356 481 
L 2356 0 
L 1766 0 
Q 1100 0 847 248 
Q 594 497 594 1153 
L 594 3053 
L 172 3053 
L 172 3500 
L 594 3500 
L 594 4494 
L 1172 4494 
z
" id="DejaVuSans-74" transform="scale(0.015625)"/>
       <path d="M 603 3500 
L 1178 3500 
L 1178 0 
L 603 0 
L 603 3500 
z
M 603 4863 
L 1178 4863 
L 1178 4134 
L 603 4134 
L 603 4863 
z
" id="DejaVuSans-69" transform="scale(0.015625)"/>
       <path d="M 3513 2113 
L 3513 0 
L 2938 0 
L 2938 2094 
Q 2938 2591 2744 2837 
Q 2550 3084 2163 3084 
Q 1697 3084 1428 2787 
Q 1159 2491 1159 1978 
L 1159 0 
L 581 0 
L 581 3500 
L 1159 3500 
L 1159 2956 
Q 1366 3272 1645 3428 
Q 1925 3584 2291 3584 
Q 2894 3584 3203 3211 
Q 3513 2838 3513 2113 
z
" id="DejaVuSans-6e" transform="scale(0.015625)"/>
       <path id="DejaVuSans-20" transform="scale(0.015625)"/>
       <path d="M 2375 4863 
L 2375 4384 
L 1825 4384 
Q 1516 4384 1395 4259 
Q 1275 4134 1275 3809 
L 1275 3500 
L 2222 3500 
L 2222 3053 
L 1275 3053 
L 1275 0 
L 697 0 
L 697 3053 
L 147 3053 
L 147 3500 
L 697 3500 
L 697 3744 
Q 697 4328 969 4595 
Q 1241 4863 1831 4863 
L 2375 4863 
z
" id="DejaVuSans-66" transform="scale(0.015625)"/>
       <path d="M 1259 4147 
L 1259 519 
L 2022 519 
Q 2988 519 3436 956 
Q 3884 1394 3884 2338 
Q 3884 3275 3436 3711 
Q 2988 4147 2022 4147 
L 1259 4147 
z
M 628 4666 
L 1925 4666 
Q 3281 4666 3915 4102 
Q 4550 3538 4550 2338 
Q 4550 1131 3912 565 
Q 3275 0 1925 0 
L 628 0 
L 628 4666 
z
" id="DejaVuSans-44" transform="scale(0.015625)"/>
       <path d="M 2188 4044 
L 1331 1722 
L 3047 1722 
L 2188 4044 
z
M 1831 4666 
L 2547 4666 
L 4325 0 
L 3669 0 
L 3244 1197 
L 1141 1197 
L 716 0 
L 50 0 
L 1831 4666 
z
" id="DejaVuSans-41" transform="scale(0.015625)"/>
       <path d="M 1831 0 
L 50 4666 
L 709 4666 
L 2188 738 
L 3669 4666 
L 4325 4666 
L 2547 0 
L 1831 0 
z
" id="DejaVuSans-56" transform="scale(0.015625)"/>
       <path d="M 3809 666 
L 3809 1919 
L 2778 1919 
L 2778 2438 
L 4434 2438 
L 4434 434 
Q 4069 175 3628 42 
Q 3188 -91 2688 -91 
Q 1594 -91 976 548 
Q 359 1188 359 2328 
Q 359 3472 976 4111 
Q 1594 4750 2688 4750 
Q 3144 4750 3555 4637 
Q 3966 4525 4313 4306 
L 4313 3634 
Q 3963 3931 3569 4081 
Q 3175 4231 2741 4231 
Q 1884 4231 1454 3753 
Q 1025 3275 1025 2328 
Q 1025 1384 1454 906 
Q 1884 428 2741 428 
Q 3075 428 3337 486 
Q 3600 544 3809 666 
z
" id="DejaVuSans-47" transform="scale(0.015625)"/>
       <path d="M 2906 2969 
L 2906 4863 
L 3481 4863 
L 3481 0 
L 2906 0 
L 2906 525 
Q 2725 213 2448 61 
Q 2172 -91 1784 -91 
Q 1150 -91 751 415 
Q 353 922 353 1747 
Q 353 2572 751 3078 
Q 1150 3584 1784 3584 
Q 2172 3584 2448 3432 
Q 2725 3281 2906 2969 
z
M 947 1747 
Q 947 1113 1208 752 
Q 1469 391 1925 391 
Q 2381 391 2643 752 
Q 2906 1113 2906 1747 
Q 2906 2381 2643 2742 
Q 2381 3103 1925 3103 
Q 1469 3103 1208 2742 
Q 947 2381 947 1747 
z
" id="DejaVuSans-64" transform="scale(0.015625)"/>
       <path d="M 1984 4856 
Q 1566 4138 1362 3434 
Q 1159 2731 1159 2009 
Q 1159 1288 1364 580 
Q 1569 -128 1984 -844 
L 1484 -844 
Q 1016 -109 783 600 
Q 550 1309 550 2009 
Q 550 2706 781 3412 
Q 1013 4119 1484 4856 
L 1984 4856 
z
" id="DejaVuSans-28" transform="scale(0.015625)"/>
       <path d="M 4653 2053 
Q 4381 2053 4226 1822 
Q 4072 1591 4072 1178 
Q 4072 772 4226 539 
Q 4381 306 4653 306 
Q 4919 306 5073 539 
Q 5228 772 5228 1178 
Q 5228 1588 5073 1820 
Q 4919 2053 4653 2053 
z
M 4653 2450 
Q 5147 2450 5437 2106 
Q 5728 1763 5728 1178 
Q 5728 594 5436 251 
Q 5144 -91 4653 -91 
Q 4153 -91 3862 251 
Q 3572 594 3572 1178 
Q 3572 1766 3864 2108 
Q 4156 2450 4653 2450 
z
M 1428 4353 
Q 1159 4353 1004 4120 
Q 850 3888 850 3481 
Q 850 3069 1003 2837 
Q 1156 2606 1428 2606 
Q 1700 2606 1854 2837 
Q 2009 3069 2009 3481 
Q 2009 3884 1853 4118 
Q 1697 4353 1428 4353 
z
M 4250 4750 
L 4750 4750 
L 1831 -91 
L 1331 -91 
L 4250 4750 
z
M 1428 4750 
Q 1922 4750 2215 4408 
Q 2509 4066 2509 3481 
Q 2509 2891 2217 2550 
Q 1925 2209 1428 2209 
Q 931 2209 642 2551 
Q 353 2894 353 3481 
Q 353 4063 643 4406 
Q 934 4750 1428 4750 
z
" id="DejaVuSans-25" transform="scale(0.015625)"/>
       <path d="M 513 4856 
L 1013 4856 
Q 1481 4119 1714 3412 
Q 1947 2706 1947 2009 
Q 1947 1309 1714 600 
Q 1481 -109 1013 -844 
L 513 -844 
Q 928 -128 1133 580 
Q 1338 1288 1338 2009 
Q 1338 2731 1133 3434 
Q 928 4138 513 4856 
z
" id="DejaVuSans-29" transform="scale(0.015625)"/>
      </defs>
      <use xlink:href="#DejaVuSans-50"/>
      <use x="58.552734" xlink:href="#DejaVuSans-72"/>
      <use x="97.416016" xlink:href="#DejaVuSans-6f"/>
      <use x="158.597656" xlink:href="#DejaVuSans-70"/>
      <use x="222.074219" xlink:href="#DejaVuSans-6f"/>
      <use x="283.255859" xlink:href="#DejaVuSans-72"/>
      <use x="324.369141" xlink:href="#DejaVuSans-74"/>
      <use x="363.578125" xlink:href="#DejaVuSans-69"/>
      <use x="391.361328" xlink:href="#DejaVuSans-6f"/>
      <use x="452.542969" xlink:href="#DejaVuSans-6e"/>
      <use x="515.921875" xlink:href="#DejaVuSans-20"/>
      <use x="547.708984" xlink:href="#DejaVuSans-6f"/>
      <use x="608.890625" xlink:href="#DejaVuSans-66"/>
      <use x="644.095703" xlink:href="#DejaVuSans-20"/>
      <use x="675.882812" xlink:href="#DejaVuSans-44"/>
      <use x="751.134766" xlink:href="#DejaVuSans-41"/>
      <use x="819.542969" xlink:href="#DejaVuSans-50"/>
      <use x="879.845703" xlink:href="#DejaVuSans-56"/>
      <use x="948.253906" xlink:href="#DejaVuSans-20"/>
      <use x="980.041016" xlink:href="#DejaVuSans-69"/>
      <use x="1007.824219" xlink:href="#DejaVuSans-6e"/>
      <use x="1071.203125" xlink:href="#DejaVuSans-20"/>
      <use x="1102.990234" xlink:href="#DejaVuSans-47"/>
      <use x="1180.480469" xlink:href="#DejaVuSans-72"/>
      <use x="1221.59375" xlink:href="#DejaVuSans-69"/>
      <use x="1249.376953" xlink:href="#DejaVuSans-64"/>
      <use x="1312.853516" xlink:href="#DejaVuSans-20"/>
      <use x="1344.640625" xlink:href="#DejaVuSans-28"/>
      <use x="1383.654297" xlink:href="#DejaVuSans-25"/>
      <use x="1478.673828" xlink:href="#DejaVuSans-29"/>
     </g>
    </g>
   </g>
   <g id="matplotlib.axis_2">
    <g id="ytick_1">
     <g id="line2d_7">
      <defs>
       <path d="M 0 0 
L -3.5 0 
" id="md070a91c52" style="stroke:#000000;stroke-width:0.8;"/>
      </defs>
      <g>
       <use style="stroke:#000000;stroke-width:0.8;" x="75.69" xlink:href="#md070a91c52" y="768.96"/>
      </g>
     </g>
     <g id="text_8">
      <!-- 0 -->
      <g transform="translate(54.6925 777.318281)scale(0.22 -0.22)">
       <use xlink:href="#DejaVuSans-30"/>
      </g>
     </g>
    </g>
    <g id="ytick_2">
     <g id="line2d_8">
      <g>
       <use style="stroke:#000000;stroke-width:0.8;" x="75.69" xlink:href="#md070a91c52" y="662.277647"/>
      </g>
     </g>
     <g id="text_9">
      <!-- 50 -->
      <g transform="translate(40.695 670.635928)scale(0.22 -0.22)">
       <defs>
        <path d="M 691 4666 
L 3169 4666 
L 3169 4134 
L 1269 4134 
L 1269 2991 
Q 1406 3038 1543 3061 
Q 1681 3084 1819 3084 
Q 2600 3084 3056 2656 
Q 3513 2228 3513 1497 
Q 3513 744 3044 326 
Q 2575 -91 1722 -91 
Q 1428 -91 1123 -41 
Q 819 9 494 109 
L 494 744 
Q 775 591 1075 516 
Q 1375 441 1709 441 
Q 2250 441 2565 725 
Q 2881 1009 2881 1497 
Q 2881 1984 2565 2268 
Q 2250 2553 1709 2553 
Q 1456 2553 1204 2497 
Q 953 2441 691 2322 
L 691 4666 
z
" id="DejaVuSans-35" transform="scale(0.015625)"/>
       </defs>
       <use xlink:href="#DejaVuSans-35"/>
       <use x="63.623047" xlink:href="#DejaVuSans-30"/>
      </g>
     </g>
    </g>
    <g id="ytick_3">
     <g id="line2d_9">
      <g>
       <use style="stroke:#000000;stroke-width:0.8;" x="75.69" xlink:href="#md070a91c52" y="555.595293"/>
      </g>
     </g>
     <g id="text_10">
      <!-- 100 -->
      <g transform="translate(26.6975 563.953574)scale(0.22 -0.22)">
       <use xlink:href="#DejaVuSans-31"/>
       <use x="63.623047" xlink:href="#DejaVuSans-30"/>
       <use x="127.246094" xlink:href="#DejaVuSans-30"/>
      </g>
     </g>
    </g>
    <g id="ytick_4">
     <g id="line2d_10">
      <g>
       <use style="stroke:#000000;stroke-width:0.8;" x="75.69" xlink:href="#md070a91c52" y="448.91294"/>
      </g>
     </g>
     <g id="text_11">
      <!-- 150 -->
      <g transform="translate(26.6975 457.271221)scale(0.22 -0.22)">
       <use xlink:href="#DejaVuSans-31"/>
       <use x="63.623047" xlink:href="#DejaVuSans-35"/>
       <use x="127.246094" xlink:href="#DejaVuSans-30"/>
      </g>
     </g>
    </g>
    <g id="ytick_5">
     <g id="line2d_11">
      <g>
       <use style="stroke:#000000;stroke-width:0.8;" x="75.69" xlink:href="#md070a91c52" y="342.230586"/>
      </g>
     </g>
     <g id="text_12">
      <!-- 200 -->
      <g transform="translate(26.6975 350.588868)scale(0.22 -0.22)">
       <use xlink:href="#DejaVuSans-32"/>
       <use x="63.623047" xlink:href="#DejaVuSans-30"/>
       <use x="127.246094" xlink:href="#DejaVuSans-30"/>
      </g>
     </g>
    </g>
    <g id="ytick_6">
     <g id="line2d_12">
      <g>
       <use style="stroke:#000000;stroke-width:0.8;" x="75.69" xlink:href="#md070a91c52" y="235.548233"/>
      </g>
     </g>
     <g id="text_13">
      <!-- 250 -->
      <g transform="translate(26.6975 243.906514)scale(0.22 -0.22)">
       <use xlink:href="#DejaVuSans-32"/>
       <use x="63.623047" xlink:href="#DejaVuSans-35"/>
       <use x="127.246094" xlink:href="#DejaVuSans-30"/>
      </g>
     </g>
    </g>
    <g id="ytick_7">
     <g id="line2d_13">
      <g>
       <use style="stroke:#000000;stroke-width:0.8;" x="75.69" xlink:href="#md070a91c52" y="128.865879"/>
      </g>
     </g>
     <g id="text_14">
      <!-- 300 -->
      <g transform="translate(26.6975 137.224161)scale(0.22 -0.22)">
       <defs>
        <path d="M 2597 2516 
Q 3050 2419 3304 2112 
Q 3559 1806 3559 1356 
Q 3559 666 3084 287 
Q 2609 -91 1734 -91 
Q 1441 -91 1130 -33 
Q 819 25 488 141 
L 488 750 
Q 750 597 1062 519 
Q 1375 441 1716 441 
Q 2309 441 2620 675 
Q 2931 909 2931 1356 
Q 2931 1769 2642 2001 
Q 2353 2234 1838 2234 
L 1294 2234 
L 1294 2753 
L 1863 2753 
Q 2328 2753 2575 2939 
Q 2822 3125 2822 3475 
Q 2822 3834 2567 4026 
Q 2313 4219 1838 4219 
Q 1578 4219 1281 4162 
Q 984 4106 628 3988 
L 628 4550 
Q 988 4650 1302 4700 
Q 1616 4750 1894 4750 
Q 2613 4750 3031 4423 
Q 3450 4097 3450 3541 
Q 3450 3153 3228 2886 
Q 3006 2619 2597 2516 
z
" id="DejaVuSans-33" transform="scale(0.015625)"/>
       </defs>
       <use xlink:href="#DejaVuSans-33"/>
       <use x="63.623047" xlink:href="#DejaVuSans-30"/>
       <use x="127.246094" xlink:href="#DejaVuSans-30"/>
      </g>
     </g>
    </g>
    <g id="text_15">
     <!-- Energy Generated (TWh) -->
     <g transform="translate(18.122187 573.333594)rotate(-90)scale(0.22 -0.22)">
      <defs>
       <path d="M 628 4666 
L 3578 4666 
L 3578 4134 
L 1259 4134 
L 1259 2753 
L 3481 2753 
L 3481 2222 
L 1259 2222 
L 1259 531 
L 3634 531 
L 3634 0 
L 628 0 
L 628 4666 
z
" id="DejaVuSans-45" transform="scale(0.015625)"/>
       <path d="M 3597 1894 
L 3597 1613 
L 953 1613 
Q 991 1019 1311 708 
Q 1631 397 2203 397 
Q 2534 397 2845 478 
Q 3156 559 3463 722 
L 3463 178 
Q 3153 47 2828 -22 
Q 2503 -91 2169 -91 
Q 1331 -91 842 396 
Q 353 884 353 1716 
Q 353 2575 817 3079 
Q 1281 3584 2069 3584 
Q 2775 3584 3186 3129 
Q 3597 2675 3597 1894 
z
M 3022 2063 
Q 3016 2534 2758 2815 
Q 2500 3097 2075 3097 
Q 1594 3097 1305 2825 
Q 1016 2553 972 2059 
L 3022 2063 
z
" id="DejaVuSans-65" transform="scale(0.015625)"/>
       <path d="M 2906 1791 
Q 2906 2416 2648 2759 
Q 2391 3103 1925 3103 
Q 1463 3103 1205 2759 
Q 947 2416 947 1791 
Q 947 1169 1205 825 
Q 1463 481 1925 481 
Q 2391 481 2648 825 
Q 2906 1169 2906 1791 
z
M 3481 434 
Q 3481 -459 3084 -895 
Q 2688 -1331 1869 -1331 
Q 1566 -1331 1297 -1286 
Q 1028 -1241 775 -1147 
L 775 -588 
Q 1028 -725 1275 -790 
Q 1522 -856 1778 -856 
Q 2344 -856 2625 -561 
Q 2906 -266 2906 331 
L 2906 616 
Q 2728 306 2450 153 
Q 2172 0 1784 0 
Q 1141 0 747 490 
Q 353 981 353 1791 
Q 353 2603 747 3093 
Q 1141 3584 1784 3584 
Q 2172 3584 2450 3431 
Q 2728 3278 2906 2969 
L 2906 3500 
L 3481 3500 
L 3481 434 
z
" id="DejaVuSans-67" transform="scale(0.015625)"/>
       <path d="M 2059 -325 
Q 1816 -950 1584 -1140 
Q 1353 -1331 966 -1331 
L 506 -1331 
L 506 -850 
L 844 -850 
Q 1081 -850 1212 -737 
Q 1344 -625 1503 -206 
L 1606 56 
L 191 3500 
L 800 3500 
L 1894 763 
L 2988 3500 
L 3597 3500 
L 2059 -325 
z
" id="DejaVuSans-79" transform="scale(0.015625)"/>
       <path d="M 2194 1759 
Q 1497 1759 1228 1600 
Q 959 1441 959 1056 
Q 959 750 1161 570 
Q 1363 391 1709 391 
Q 2188 391 2477 730 
Q 2766 1069 2766 1631 
L 2766 1759 
L 2194 1759 
z
M 3341 1997 
L 3341 0 
L 2766 0 
L 2766 531 
Q 2569 213 2275 61 
Q 1981 -91 1556 -91 
Q 1019 -91 701 211 
Q 384 513 384 1019 
Q 384 1609 779 1909 
Q 1175 2209 1959 2209 
L 2766 2209 
L 2766 2266 
Q 2766 2663 2505 2880 
Q 2244 3097 1772 3097 
Q 1472 3097 1187 3025 
Q 903 2953 641 2809 
L 641 3341 
Q 956 3463 1253 3523 
Q 1550 3584 1831 3584 
Q 2591 3584 2966 3190 
Q 3341 2797 3341 1997 
z
" id="DejaVuSans-61" transform="scale(0.015625)"/>
       <path d="M -19 4666 
L 3928 4666 
L 3928 4134 
L 2272 4134 
L 2272 0 
L 1638 0 
L 1638 4134 
L -19 4134 
L -19 4666 
z
" id="DejaVuSans-54" transform="scale(0.015625)"/>
       <path d="M 213 4666 
L 850 4666 
L 1831 722 
L 2809 4666 
L 3519 4666 
L 4500 722 
L 5478 4666 
L 6119 4666 
L 4947 0 
L 4153 0 
L 3169 4050 
L 2175 0 
L 1381 0 
L 213 4666 
z
" id="DejaVuSans-57" transform="scale(0.015625)"/>
       <path d="M 3513 2113 
L 3513 0 
L 2938 0 
L 2938 2094 
Q 2938 2591 2744 2837 
Q 2550 3084 2163 3084 
Q 1697 3084 1428 2787 
Q 1159 2491 1159 1978 
L 1159 0 
L 581 0 
L 581 4863 
L 1159 4863 
L 1159 2956 
Q 1366 3272 1645 3428 
Q 1925 3584 2291 3584 
Q 2894 3584 3203 3211 
Q 3513 2838 3513 2113 
z
" id="DejaVuSans-68" transform="scale(0.015625)"/>
      </defs>
      <use xlink:href="#DejaVuSans-45"/>
      <use x="63.183594" xlink:href="#DejaVuSans-6e"/>
      <use x="126.5625" xlink:href="#DejaVuSans-65"/>
      <use x="188.085938" xlink:href="#DejaVuSans-72"/>
      <use x="227.449219" xlink:href="#DejaVuSans-67"/>
      <use x="290.925781" xlink:href="#DejaVuSans-79"/>
      <use x="350.105469" xlink:href="#DejaVuSans-20"/>
      <use x="381.892578" xlink:href="#DejaVuSans-47"/>
      <use x="459.382812" xlink:href="#DejaVuSans-65"/>
      <use x="520.90625" xlink:href="#DejaVuSans-6e"/>
      <use x="584.285156" xlink:href="#DejaVuSans-65"/>
      <use x="645.808594" xlink:href="#DejaVuSans-72"/>
      <use x="686.921875" xlink:href="#DejaVuSans-61"/>
      <use x="748.201172" xlink:href="#DejaVuSans-74"/>
      <use x="787.410156" xlink:href="#DejaVuSans-65"/>
      <use x="848.933594" xlink:href="#DejaVuSans-64"/>
      <use x="912.410156" xlink:href="#DejaVuSans-20"/>
      <use x="944.197266" xlink:href="#DejaVuSans-28"/>
      <use x="983.210938" xlink:href="#DejaVuSans-54"/>
      <use x="1044.294922" xlink:href="#DejaVuSans-57"/>
      <use x="1143.171875" xlink:href="#DejaVuSans-68"/>
      <use x="1206.550781" xlink:href="#DejaVuSans-29"/>
     </g>
    </g>
   </g>
   <g id="patch_3">
    <path d="M 75.69 768.96 
L 75.69 103.68 
" style="fill:none;stroke:#000000;stroke-linecap:square;stroke-linejoin:miter;stroke-width:0.8;"/>
   </g>
   <g id="patch_4">
    <path d="M 544.968 768.96 
L 544.968 103.68 
" style="fill:none;stroke:#000000;stroke-linecap:square;stroke-linejoin:miter;stroke-width:0.8;"/>
   </g>
   <g id="patch_5">
    <path d="M 75.69 768.96 
L 544.968 768.96 
" style="fill:none;stroke:#000000;stroke-linecap:square;stroke-linejoin:miter;stroke-width:0.8;"/>
   </g>
   <g id="patch_6">
    <path d="M 75.69 103.68 
L 544.968 103.68 
" style="fill:none;stroke:#000000;stroke-linecap:square;stroke-linejoin:miter;stroke-width:0.8;"/>
   </g>
  </g>
 </g>
 <defs>
  <clipPath id="p1362820d7a">
   <rect height="665.28" width="469.278" x="75.69" y="103.68"/>
  </clipPath>
 </defs>
</svg>
