<?xml version="1.0" encoding="utf-8" standalone="no"?>
<!DOCTYPE svg PUBLIC "-//W3C//DTD SVG 1.1//EN"
  "http://www.w3.org/Graphics/SVG/1.1/DTD/svg11.dtd">
<svg height="864pt" version="1.1" viewBox="0 0 673.92 864" width="673.92pt" xmlns="http://www.w3.org/2000/svg" xmlns:xlink="http://www.w3.org/1999/xlink">
 <metadata>
  <rdf:RDF xmlns:cc="http://creativecommons.org/ns#" xmlns:dc="http://purl.org/dc/elements/1.1/" xmlns:rdf="http://www.w3.org/1999/02/22-rdf-syntax-ns#">
   <cc:Work>
    <dc:type rdf:resource="http://purl.org/dc/dcmitype/StillImage"/>
    <dc:date>2021-06-21T10:59:24.079109</dc:date>
    <dc:format>image/svg+xml</dc:format>
    <dc:creator>
     <cc:Agent>
      <dc:title>Matplotlib v3.4.1, https://matplotlib.org/</dc:title>
     </cc:Agent>
    </dc:creator>
   </cc:Work>
  </rdf:RDF>
 </metadata>
 <defs>
  <style type="text/css">*{stroke-linecap:butt;stroke-linejoin:round;}</style>
 </defs>
 <g id="figure_1">
  <g id="patch_1">
   <path d="M 0 864 
L 673.92 864 
L 673.92 0 
L 0 0 
z
" style="fill:#ffffff;"/>
  </g>
  <g id="axes_1">
   <g id="patch_2">
    <path d="M 84.24 768.96 
L 606.528 768.96 
L 606.528 103.68 
L 84.24 103.68 
z
" style="fill:#ffffff;"/>
   </g>
   <g id="PolyCollection_1">
    <path clip-path="url(#ped648e9140)" d="M 107.980364 457.015002 
L 107.980364 768.96 
L 112.776397 768.96 
L 117.57243 768.96 
L 122.368463 768.96 
L 127.164496 768.96 
L 131.960529 768.96 
L 136.756562 768.96 
L 141.552595 768.96 
L 146.348628 768.96 
L 151.144661 768.96 
L 155.940694 768.96 
L 160.736727 768.96 
L 165.53276 768.96 
L 170.328793 768.96 
L 175.124826 768.96 
L 179.92086 768.96 
L 184.716893 768.96 
L 189.512926 768.96 
L 194.308959 768.96 
L 199.104992 768.96 
L 203.901025 768.96 
L 208.697058 768.96 
L 213.493091 768.96 
L 218.289124 768.96 
L 223.085157 768.96 
L 227.88119 768.96 
L 232.677223 768.96 
L 237.473256 768.96 
L 242.269289 768.96 
L 247.065322 768.96 
L 251.861355 768.96 
L 256.657388 768.96 
L 261.453421 768.96 
L 266.249455 768.96 
L 271.045488 768.96 
L 275.841521 768.96 
L 280.637554 768.96 
L 285.433587 768.96 
L 290.22962 768.96 
L 295.025653 768.96 
L 299.821686 768.96 
L 304.617719 768.96 
L 309.413752 768.96 
L 314.209785 768.96 
L 319.005818 768.96 
L 323.801851 768.96 
L 328.597884 768.96 
L 333.393917 768.96 
L 338.18995 768.96 
L 342.985983 768.96 
L 347.782017 768.96 
L 352.57805 768.96 
L 357.374083 768.96 
L 362.170116 768.96 
L 366.966149 768.96 
L 371.762182 768.96 
L 376.558215 768.96 
L 381.354248 768.96 
L 386.150281 768.96 
L 390.946314 768.96 
L 395.742347 768.96 
L 400.53838 768.96 
L 405.334413 768.96 
L 410.130446 768.96 
L 414.926479 768.96 
L 419.722512 768.96 
L 424.518545 768.96 
L 429.314579 768.96 
L 434.110612 768.96 
L 438.906645 768.96 
L 443.702678 768.96 
L 448.498711 768.96 
L 453.294744 768.96 
L 458.090777 768.96 
L 462.88681 768.96 
L 467.682843 768.96 
L 472.478876 768.96 
L 477.274909 768.96 
L 482.070942 768.96 
L 486.866975 768.96 
L 491.663008 768.96 
L 496.459041 768.96 
L 501.255074 768.96 
L 506.051107 768.96 
L 510.84714 768.96 
L 515.643174 768.96 
L 520.439207 768.96 
L 525.23524 768.96 
L 530.031273 768.96 
L 534.827306 768.96 
L 539.623339 768.96 
L 544.419372 768.96 
L 549.215405 768.96 
L 554.011438 768.96 
L 558.807471 768.96 
L 563.603504 768.96 
L 568.399537 768.96 
L 573.19557 768.96 
L 577.991603 768.96 
L 582.787636 768.96 
L 582.787636 532.270924 
L 582.787636 532.270924 
L 577.991603 531.610969 
L 573.19557 530.946864 
L 568.399537 530.279033 
L 563.603504 529.605488 
L 558.807471 528.926381 
L 554.011438 528.244405 
L 549.215405 527.55749 
L 544.419372 526.866188 
L 539.623339 526.17299 
L 534.827306 525.476507 
L 530.031273 524.777571 
L 525.23524 524.075892 
L 520.439207 523.369791 
L 515.643174 522.656582 
L 510.84714 521.938225 
L 506.051107 521.216396 
L 501.255074 520.48986 
L 496.459041 519.754562 
L 491.663008 519.017147 
L 486.866975 518.27554 
L 482.070942 517.528324 
L 477.274909 516.775762 
L 472.478876 516.019544 
L 467.682843 515.262768 
L 462.88681 514.507186 
L 458.090777 513.751699 
L 453.294744 512.99518 
L 448.498711 512.240223 
L 443.702678 511.48991 
L 438.906645 510.741601 
L 434.110612 509.993564 
L 429.314579 509.243835 
L 424.518545 508.489597 
L 419.722512 507.73208 
L 414.926479 506.971871 
L 410.130446 506.211407 
L 405.334413 505.453964 
L 400.53838 504.696978 
L 395.742347 503.943063 
L 390.946314 503.184547 
L 386.150281 502.430529 
L 381.354248 501.674119 
L 376.558215 500.916546 
L 371.762182 500.160258 
L 366.966149 499.40898 
L 362.170116 498.663534 
L 357.374083 497.920593 
L 352.57805 497.174204 
L 347.782017 496.424764 
L 342.985983 495.677598 
L 338.18995 494.933984 
L 333.393917 494.197309 
L 328.597884 493.464932 
L 323.801851 492.733765 
L 319.005818 492.007016 
L 314.209785 491.288225 
L 309.413752 490.579106 
L 304.617719 489.875801 
L 299.821686 489.176129 
L 295.025653 488.478038 
L 290.22962 487.779457 
L 285.433587 487.083999 
L 280.637554 486.39503 
L 275.841521 485.711932 
L 271.045488 485.029846 
L 266.249455 484.347785 
L 261.453421 483.66515 
L 256.657388 482.99695 
L 251.861355 482.347572 
L 247.065322 481.71191 
L 242.269289 481.084798 
L 237.473256 480.466879 
L 232.677223 479.854803 
L 227.88119 479.243092 
L 223.085157 478.624995 
L 218.289124 477.99498 
L 213.493091 477.342963 
L 208.697058 476.657862 
L 203.901025 475.933944 
L 199.104992 475.163596 
L 194.308959 474.377263 
L 189.512926 473.576596 
L 184.716893 472.752258 
L 179.92086 471.91885 
L 175.124826 471.081766 
L 170.328793 470.215868 
L 165.53276 469.314289 
L 160.736727 468.341408 
L 155.940694 467.33798 
L 151.144661 466.317772 
L 146.348628 465.287799 
L 141.552595 464.2537 
L 136.756562 463.2196 
L 131.960529 462.1855 
L 127.164496 461.1514 
L 122.368463 460.117301 
L 117.57243 459.083201 
L 112.776397 458.049101 
L 107.980364 457.015002 
z
" style="fill:#3182bd;"/>
   </g>
   <g id="PolyCollection_2">
    <path clip-path="url(#ped648e9140)" d="M 107.980364 397.76941 
L 107.980364 457.015002 
L 112.776397 458.049101 
L 117.57243 459.083201 
L 122.368463 460.117301 
L 127.164496 461.1514 
L 131.960529 462.1855 
L 136.756562 463.2196 
L 141.552595 464.2537 
L 146.348628 465.287799 
L 151.144661 466.317772 
L 155.940694 467.33798 
L 160.736727 468.341408 
L 165.53276 469.314289 
L 170.328793 470.215868 
L 175.124826 471.081766 
L 179.92086 471.91885 
L 184.716893 472.752258 
L 189.512926 473.576596 
L 194.308959 474.377263 
L 199.104992 475.163596 
L 203.901025 475.933944 
L 208.697058 476.657862 
L 213.493091 477.342963 
L 218.289124 477.99498 
L 223.085157 478.624995 
L 227.88119 479.243092 
L 232.677223 479.854803 
L 237.473256 480.466879 
L 242.269289 481.084798 
L 247.065322 481.71191 
L 251.861355 482.347572 
L 256.657388 482.99695 
L 261.453421 483.66515 
L 266.249455 484.347785 
L 271.045488 485.029846 
L 275.841521 485.711932 
L 280.637554 486.39503 
L 285.433587 487.083999 
L 290.22962 487.779457 
L 295.025653 488.478038 
L 299.821686 489.176129 
L 304.617719 489.875801 
L 309.413752 490.579106 
L 314.209785 491.288225 
L 319.005818 492.007016 
L 323.801851 492.733765 
L 328.597884 493.464932 
L 333.393917 494.197309 
L 338.18995 494.933984 
L 342.985983 495.677598 
L 347.782017 496.424764 
L 352.57805 497.174204 
L 357.374083 497.920593 
L 362.170116 498.663534 
L 366.966149 499.40898 
L 371.762182 500.160258 
L 376.558215 500.916546 
L 381.354248 501.674119 
L 386.150281 502.430529 
L 390.946314 503.184547 
L 395.742347 503.943063 
L 400.53838 504.696978 
L 405.334413 505.453964 
L 410.130446 506.211407 
L 414.926479 506.971871 
L 419.722512 507.73208 
L 424.518545 508.489597 
L 429.314579 509.243835 
L 434.110612 509.993564 
L 438.906645 510.741601 
L 443.702678 511.48991 
L 448.498711 512.240223 
L 453.294744 512.99518 
L 458.090777 513.751699 
L 462.88681 514.507186 
L 467.682843 515.262768 
L 472.478876 516.019544 
L 477.274909 516.775762 
L 482.070942 517.528324 
L 486.866975 518.27554 
L 491.663008 519.017147 
L 496.459041 519.754562 
L 501.255074 520.48986 
L 506.051107 521.216396 
L 510.84714 521.938225 
L 515.643174 522.656582 
L 520.439207 523.369791 
L 525.23524 524.075892 
L 530.031273 524.777571 
L 534.827306 525.476507 
L 539.623339 526.17299 
L 544.419372 526.866188 
L 549.215405 527.55749 
L 554.011438 528.244405 
L 558.807471 528.926381 
L 563.603504 529.605488 
L 568.399537 530.279033 
L 573.19557 530.946864 
L 577.991603 531.610969 
L 582.787636 532.270924 
L 582.787636 493.085072 
L 582.787636 493.085072 
L 577.991603 492.32001 
L 573.19557 491.548481 
L 568.399537 490.771776 
L 563.603504 489.989196 
L 558.807471 489.200102 
L 554.011438 488.406884 
L 549.215405 487.608154 
L 544.419372 486.802842 
L 539.623339 485.991842 
L 534.827306 485.174481 
L 530.031273 484.352753 
L 525.23524 483.524892 
L 520.439207 482.690772 
L 515.643174 481.850524 
L 510.84714 481.003071 
L 506.051107 480.149248 
L 501.255074 479.288988 
L 496.459041 478.422064 
L 491.663008 477.550206 
L 486.866975 476.67119 
L 482.070942 475.786006 
L 477.274909 474.894376 
L 472.478876 473.996964 
L 467.682843 473.09627 
L 462.88681 472.191724 
L 458.090777 471.282826 
L 453.294744 470.368681 
L 448.498711 469.45136 
L 443.702678 468.53176 
L 438.906645 467.608589 
L 434.110612 466.681135 
L 429.314579 465.747996 
L 424.518545 464.808537 
L 419.722512 463.863863 
L 414.926479 462.913692 
L 410.130446 461.959344 
L 405.334413 461.001966 
L 400.53838 460.040093 
L 395.742347 459.073615 
L 390.946314 458.104466 
L 386.150281 457.131592 
L 381.354248 456.154554 
L 376.558215 455.171963 
L 371.762182 454.1842 
L 366.966149 453.193914 
L 362.170116 452.200405 
L 357.374083 451.203448 
L 352.57805 450.2042 
L 347.782017 449.200916 
L 342.985983 448.195105 
L 338.18995 447.18696 
L 333.393917 446.176759 
L 328.597884 445.164696 
L 323.801851 444.149887 
L 319.005818 443.133572 
L 314.209785 442.114549 
L 309.413752 441.094752 
L 304.617719 440.073533 
L 299.821686 439.051513 
L 295.025653 438.028176 
L 290.22962 437.002959 
L 285.433587 435.97722 
L 280.637554 434.951426 
L 275.841521 433.925306 
L 271.045488 432.898245 
L 266.249455 431.869361 
L 261.453421 430.839671 
L 256.657388 429.809409 
L 251.861355 428.779148 
L 247.065322 427.748264 
L 242.269289 426.716388 
L 237.473256 425.684105 
L 232.677223 424.651214 
L 227.88119 423.618221 
L 223.085157 422.585228 
L 218.289124 421.551928 
L 213.493091 420.518403 
L 208.697058 419.484763 
L 203.901025 418.451122 
L 199.104992 417.417304 
L 194.308959 416.383204 
L 189.512926 415.349104 
L 184.716893 414.315005 
L 179.92086 413.280905 
L 175.124826 412.246805 
L 170.328793 411.212706 
L 165.53276 410.178606 
L 160.736727 409.144506 
L 155.940694 408.110407 
L 151.144661 407.076307 
L 146.348628 406.042207 
L 141.552595 405.008107 
L 136.756562 403.974008 
L 131.960529 402.939908 
L 127.164496 401.905808 
L 122.368463 400.871709 
L 117.57243 399.837609 
L 112.776397 398.803509 
L 107.980364 397.76941 
z
" style="fill:#6baed6;"/>
   </g>
   <g id="PolyCollection_3">
    <path clip-path="url(#ped648e9140)" d="M 107.980364 391.362948 
L 107.980364 397.76941 
L 112.776397 398.803509 
L 117.57243 399.837609 
L 122.368463 400.871709 
L 127.164496 401.905808 
L 131.960529 402.939908 
L 136.756562 403.974008 
L 141.552595 405.008107 
L 146.348628 406.042207 
L 151.144661 407.076307 
L 155.940694 408.110407 
L 160.736727 409.144506 
L 165.53276 410.178606 
L 170.328793 411.212706 
L 175.124826 412.246805 
L 179.92086 413.280905 
L 184.716893 414.315005 
L 189.512926 415.349104 
L 194.308959 416.383204 
L 199.104992 417.417304 
L 203.901025 418.451122 
L 208.697058 419.484763 
L 213.493091 420.518403 
L 218.289124 421.551928 
L 223.085157 422.585228 
L 227.88119 423.618221 
L 232.677223 424.651214 
L 237.473256 425.684105 
L 242.269289 426.716388 
L 247.065322 427.748264 
L 251.861355 428.779148 
L 256.657388 429.809409 
L 261.453421 430.839671 
L 266.249455 431.869361 
L 271.045488 432.898245 
L 275.841521 433.925306 
L 280.637554 434.951426 
L 285.433587 435.97722 
L 290.22962 437.002959 
L 295.025653 438.028176 
L 299.821686 439.051513 
L 304.617719 440.073533 
L 309.413752 441.094752 
L 314.209785 442.114549 
L 319.005818 443.133572 
L 323.801851 444.149887 
L 328.597884 445.164696 
L 333.393917 446.176759 
L 338.18995 447.18696 
L 342.985983 448.195105 
L 347.782017 449.200916 
L 352.57805 450.2042 
L 357.374083 451.203448 
L 362.170116 452.200405 
L 366.966149 453.193914 
L 371.762182 454.1842 
L 376.558215 455.171963 
L 381.354248 456.154554 
L 386.150281 457.131592 
L 390.946314 458.104466 
L 395.742347 459.073615 
L 400.53838 460.040093 
L 405.334413 461.001966 
L 410.130446 461.959344 
L 414.926479 462.913692 
L 419.722512 463.863863 
L 424.518545 464.808537 
L 429.314579 465.747996 
L 434.110612 466.681135 
L 438.906645 467.608589 
L 443.702678 468.53176 
L 448.498711 469.45136 
L 453.294744 470.368681 
L 458.090777 471.282826 
L 462.88681 472.191724 
L 467.682843 473.09627 
L 472.478876 473.996964 
L 477.274909 474.894376 
L 482.070942 475.786006 
L 486.866975 476.67119 
L 491.663008 477.550206 
L 496.459041 478.422064 
L 501.255074 479.288988 
L 506.051107 480.149248 
L 510.84714 481.003071 
L 515.643174 481.850524 
L 520.439207 482.690772 
L 525.23524 483.524892 
L 530.031273 484.352753 
L 534.827306 485.174481 
L 539.623339 485.991842 
L 544.419372 486.802842 
L 549.215405 487.608154 
L 554.011438 488.406884 
L 558.807471 489.200102 
L 563.603504 489.989196 
L 568.399537 490.771776 
L 573.19557 491.548481 
L 577.991603 492.32001 
L 582.787636 493.085072 
L 582.787636 487.043881 
L 582.787636 487.043881 
L 577.991603 486.267669 
L 573.19557 485.485684 
L 568.399537 484.69762 
L 563.603504 483.905091 
L 558.807471 483.108042 
L 554.011438 482.30476 
L 549.215405 481.495768 
L 544.419372 480.681464 
L 539.623339 479.860693 
L 534.827306 479.03399 
L 530.031273 478.20158 
L 525.23524 477.363437 
L 520.439207 476.519092 
L 515.643174 475.668464 
L 510.84714 474.811511 
L 506.051107 473.948262 
L 501.255074 473.078995 
L 496.459041 472.203989 
L 491.663008 471.321734 
L 486.866975 470.433868 
L 482.070942 469.539961 
L 477.274909 468.641075 
L 472.478876 467.738975 
L 467.682843 466.832769 
L 462.88681 465.921873 
L 458.090777 465.006692 
L 453.294744 464.088739 
L 448.498711 463.167833 
L 443.702678 462.243225 
L 438.906645 461.312994 
L 434.110612 460.378304 
L 429.314579 459.437803 
L 424.518545 458.491347 
L 419.722512 457.54029 
L 414.926479 456.585127 
L 410.130446 455.626922 
L 405.334413 454.664902 
L 400.53838 453.697774 
L 395.742347 452.727975 
L 390.946314 451.753985 
L 386.150281 450.775336 
L 381.354248 449.792244 
L 376.558215 448.804776 
L 371.762182 447.814345 
L 366.966149 446.820557 
L 362.170116 445.824527 
L 357.374083 444.825123 
L 352.57805 443.821738 
L 347.782017 442.815983 
L 342.985983 441.808347 
L 338.18995 440.798249 
L 333.393917 439.786486 
L 328.597884 438.772146 
L 323.801851 437.755804 
L 319.005818 436.737247 
L 314.209785 435.717282 
L 309.413752 434.696219 
L 304.617719 433.674397 
L 299.821686 432.651501 
L 295.025653 431.626842 
L 290.22962 430.601191 
L 285.433587 429.575377 
L 280.637554 428.549257 
L 275.841521 427.522783 
L 271.045488 426.494695 
L 266.249455 425.46524 
L 261.453421 424.434979 
L 256.657388 423.404718 
L 251.861355 422.374134 
L 247.065322 421.342514 
L 242.269289 420.310329 
L 237.473256 419.277643 
L 232.677223 418.244752 
L 227.88119 417.211759 
L 223.085157 416.178766 
L 218.289124 415.145466 
L 213.493091 414.111941 
L 208.697058 413.078301 
L 203.901025 412.04466 
L 199.104992 411.010842 
L 194.308959 409.976742 
L 189.512926 408.942642 
L 184.716893 407.908543 
L 179.92086 406.874443 
L 175.124826 405.840343 
L 170.328793 404.806244 
L 165.53276 403.772144 
L 160.736727 402.738044 
L 155.940694 401.703944 
L 151.144661 400.669845 
L 146.348628 399.635745 
L 141.552595 398.601645 
L 136.756562 397.567546 
L 131.960529 396.533446 
L 127.164496 395.499346 
L 122.368463 394.465247 
L 117.57243 393.431147 
L 112.776397 392.397047 
L 107.980364 391.362948 
z
" style="fill:#9ecae1;"/>
   </g>
   <g id="PolyCollection_4">
    <path clip-path="url(#ped648e9140)" d="M 107.980364 384.229461 
L 107.980364 391.362948 
L 112.776397 392.397047 
L 117.57243 393.431147 
L 122.368463 394.465247 
L 127.164496 395.499346 
L 131.960529 396.533446 
L 136.756562 397.567546 
L 141.552595 398.601645 
L 146.348628 399.635745 
L 151.144661 400.669845 
L 155.940694 401.703944 
L 160.736727 402.738044 
L 165.53276 403.772144 
L 170.328793 404.806244 
L 175.124826 405.840343 
L 179.92086 406.874443 
L 184.716893 407.908543 
L 189.512926 408.942642 
L 194.308959 409.976742 
L 199.104992 411.010842 
L 203.901025 412.04466 
L 208.697058 413.078301 
L 213.493091 414.111941 
L 218.289124 415.145466 
L 223.085157 416.178766 
L 227.88119 417.211759 
L 232.677223 418.244752 
L 237.473256 419.277643 
L 242.269289 420.310329 
L 247.065322 421.342514 
L 251.861355 422.374134 
L 256.657388 423.404718 
L 261.453421 424.434979 
L 266.249455 425.46524 
L 271.045488 426.494695 
L 275.841521 427.522783 
L 280.637554 428.549257 
L 285.433587 429.575377 
L 290.22962 430.601191 
L 295.025653 431.626842 
L 299.821686 432.651501 
L 304.617719 433.674397 
L 309.413752 434.696219 
L 314.209785 435.717282 
L 319.005818 436.737247 
L 323.801851 437.755804 
L 328.597884 438.772146 
L 333.393917 439.786486 
L 338.18995 440.798249 
L 342.985983 441.808347 
L 347.782017 442.815983 
L 352.57805 443.821738 
L 357.374083 444.825123 
L 362.170116 445.824527 
L 366.966149 446.820557 
L 371.762182 447.814345 
L 376.558215 448.804776 
L 381.354248 449.792244 
L 386.150281 450.775336 
L 390.946314 451.753985 
L 395.742347 452.727975 
L 400.53838 453.697774 
L 405.334413 454.664902 
L 410.130446 455.626922 
L 414.926479 456.585127 
L 419.722512 457.54029 
L 424.518545 458.491347 
L 429.314579 459.437803 
L 434.110612 460.378304 
L 438.906645 461.312994 
L 443.702678 462.243225 
L 448.498711 463.167833 
L 453.294744 464.088739 
L 458.090777 465.006692 
L 462.88681 465.921873 
L 467.682843 466.832769 
L 472.478876 467.738975 
L 477.274909 468.641075 
L 482.070942 469.539961 
L 486.866975 470.433868 
L 491.663008 471.321734 
L 496.459041 472.203989 
L 501.255074 473.078995 
L 506.051107 473.948262 
L 510.84714 474.811511 
L 515.643174 475.668464 
L 520.439207 476.519092 
L 525.23524 477.363437 
L 530.031273 478.20158 
L 534.827306 479.03399 
L 539.623339 479.860693 
L 544.419372 480.681464 
L 549.215405 481.495768 
L 554.011438 482.30476 
L 558.807471 483.108042 
L 563.603504 483.905091 
L 568.399537 484.69762 
L 573.19557 485.485684 
L 577.991603 486.267669 
L 582.787636 487.043881 
L 582.787636 479.914015 
L 582.787636 479.914015 
L 577.991603 479.137447 
L 573.19557 478.35507 
L 568.399537 477.566525 
L 563.603504 476.773787 
L 558.807471 475.976738 
L 554.011438 475.173456 
L 549.215405 474.3641 
L 544.419372 473.549467 
L 539.623339 472.728367 
L 534.827306 471.901605 
L 530.031273 471.069194 
L 525.23524 470.231052 
L 520.439207 469.386707 
L 515.643174 468.535408 
L 510.84714 467.6781 
L 506.051107 466.814776 
L 501.255074 465.945509 
L 496.459041 465.070502 
L 491.663008 464.188248 
L 486.866975 463.300381 
L 482.070942 462.406474 
L 477.274909 461.507588 
L 472.478876 460.605488 
L 467.682843 459.699282 
L 462.88681 458.788387 
L 458.090777 457.873206 
L 453.294744 456.955252 
L 448.498711 456.034347 
L 443.702678 455.109738 
L 438.906645 454.179507 
L 434.110612 453.244817 
L 429.314579 452.304317 
L 424.518545 451.35786 
L 419.722512 450.406803 
L 414.926479 449.451641 
L 410.130446 448.493435 
L 405.334413 447.531416 
L 400.53838 446.564287 
L 395.742347 445.594488 
L 390.946314 444.620498 
L 386.150281 443.64185 
L 381.354248 442.658757 
L 376.558215 441.671289 
L 371.762182 440.680858 
L 366.966149 439.68707 
L 362.170116 438.69104 
L 357.374083 437.691637 
L 352.57805 436.688251 
L 347.782017 435.682496 
L 342.985983 434.67486 
L 338.18995 433.664763 
L 333.393917 432.652999 
L 328.597884 431.63866 
L 323.801851 430.622317 
L 319.005818 429.603761 
L 314.209785 428.583796 
L 309.413752 427.562733 
L 304.617719 426.54091 
L 299.821686 425.518014 
L 295.025653 424.493355 
L 290.22962 423.467705 
L 285.433587 422.441891 
L 280.637554 421.415771 
L 275.841521 420.389296 
L 271.045488 419.361209 
L 266.249455 418.331754 
L 261.453421 417.301493 
L 256.657388 416.271232 
L 251.861355 415.240647 
L 247.065322 414.209028 
L 242.269289 413.176842 
L 237.473256 412.144156 
L 232.677223 411.111265 
L 227.88119 410.078272 
L 223.085157 409.04528 
L 218.289124 408.01198 
L 213.493091 406.978454 
L 208.697058 405.944814 
L 203.901025 404.911174 
L 199.104992 403.877355 
L 194.308959 402.843255 
L 189.512926 401.809156 
L 184.716893 400.775056 
L 179.92086 399.740956 
L 175.124826 398.706857 
L 170.328793 397.672757 
L 165.53276 396.638657 
L 160.736727 395.604558 
L 155.940694 394.570458 
L 151.144661 393.536358 
L 146.348628 392.502259 
L 141.552595 391.468159 
L 136.756562 390.434059 
L 131.960529 389.399959 
L 127.164496 388.36586 
L 122.368463 387.33176 
L 117.57243 386.29766 
L 112.776397 385.263561 
L 107.980364 384.229461 
z
" style="fill:#c6dbef;"/>
   </g>
   <g id="PolyCollection_5">
    <path clip-path="url(#ped648e9140)" d="M 107.980364 357.866529 
L 107.980364 384.229461 
L 112.776397 385.263561 
L 117.57243 386.29766 
L 122.368463 387.33176 
L 127.164496 388.36586 
L 131.960529 389.399959 
L 136.756562 390.434059 
L 141.552595 391.468159 
L 146.348628 392.502259 
L 151.144661 393.536358 
L 155.940694 394.570458 
L 160.736727 395.604558 
L 165.53276 396.638657 
L 170.328793 397.672757 
L 175.124826 398.706857 
L 179.92086 399.740956 
L 184.716893 400.775056 
L 189.512926 401.809156 
L 194.308959 402.843255 
L 199.104992 403.877355 
L 203.901025 404.911174 
L 208.697058 405.944814 
L 213.493091 406.978454 
L 218.289124 408.01198 
L 223.085157 409.04528 
L 227.88119 410.078272 
L 232.677223 411.111265 
L 237.473256 412.144156 
L 242.269289 413.176842 
L 247.065322 414.209028 
L 251.861355 415.240647 
L 256.657388 416.271232 
L 261.453421 417.301493 
L 266.249455 418.331754 
L 271.045488 419.361209 
L 275.841521 420.389296 
L 280.637554 421.415771 
L 285.433587 422.441891 
L 290.22962 423.467705 
L 295.025653 424.493355 
L 299.821686 425.518014 
L 304.617719 426.54091 
L 309.413752 427.562733 
L 314.209785 428.583796 
L 319.005818 429.603761 
L 323.801851 430.622317 
L 328.597884 431.63866 
L 333.393917 432.652999 
L 338.18995 433.664763 
L 342.985983 434.67486 
L 347.782017 435.682496 
L 352.57805 436.688251 
L 357.374083 437.691637 
L 362.170116 438.69104 
L 366.966149 439.68707 
L 371.762182 440.680858 
L 376.558215 441.671289 
L 381.354248 442.658757 
L 386.150281 443.64185 
L 390.946314 444.620498 
L 395.742347 445.594488 
L 400.53838 446.564287 
L 405.334413 447.531416 
L 410.130446 448.493435 
L 414.926479 449.451641 
L 419.722512 450.406803 
L 424.518545 451.35786 
L 429.314579 452.304317 
L 434.110612 453.244817 
L 438.906645 454.179507 
L 443.702678 455.109738 
L 448.498711 456.034347 
L 453.294744 456.955252 
L 458.090777 457.873206 
L 462.88681 458.788387 
L 467.682843 459.699282 
L 472.478876 460.605488 
L 477.274909 461.507588 
L 482.070942 462.406474 
L 486.866975 463.300381 
L 491.663008 464.188248 
L 496.459041 465.070502 
L 501.255074 465.945509 
L 506.051107 466.814776 
L 510.84714 467.6781 
L 515.643174 468.535408 
L 520.439207 469.386707 
L 525.23524 470.231052 
L 530.031273 471.069194 
L 534.827306 471.901605 
L 539.623339 472.728367 
L 544.419372 473.549467 
L 549.215405 474.3641 
L 554.011438 475.173456 
L 558.807471 475.976738 
L 563.603504 476.773787 
L 568.399537 477.566525 
L 573.19557 478.35507 
L 577.991603 479.137447 
L 582.787636 479.914015 
L 582.787636 453.583381 
L 582.787636 453.583381 
L 577.991603 452.804698 
L 573.19557 452.020668 
L 568.399537 451.230504 
L 563.603504 450.436075 
L 558.807471 449.637126 
L 554.011438 448.831944 
L 549.215405 448.020666 
L 544.419372 447.203914 
L 539.623339 446.381361 
L 534.827306 445.553638 
L 530.031273 444.720408 
L 525.23524 443.881446 
L 520.439207 443.036282 
L 515.643174 442.184105 
L 510.84714 441.325813 
L 506.051107 440.461378 
L 501.255074 439.590822 
L 496.459041 438.714452 
L 491.663008 437.830834 
L 486.866975 436.94174 
L 482.070942 436.047047 
L 477.274909 435.147571 
L 472.478876 434.244881 
L 467.682843 433.338085 
L 462.88681 432.426605 
L 458.090777 431.511188 
L 453.294744 430.592998 
L 448.498711 429.671857 
L 443.702678 428.747012 
L 438.906645 427.816575 
L 434.110612 426.881885 
L 429.314579 425.941384 
L 424.518545 424.994928 
L 419.722512 424.043871 
L 414.926479 423.088708 
L 410.130446 422.130503 
L 405.334413 421.168483 
L 400.53838 420.201355 
L 395.742347 419.231556 
L 390.946314 418.257566 
L 386.150281 417.278917 
L 381.354248 416.295825 
L 376.558215 415.308357 
L 371.762182 414.317926 
L 366.966149 413.324138 
L 362.170116 412.328108 
L 357.374083 411.328704 
L 352.57805 410.325319 
L 347.782017 409.319564 
L 342.985983 408.311928 
L 338.18995 407.30183 
L 333.393917 406.290067 
L 328.597884 405.275727 
L 323.801851 404.259385 
L 319.005818 403.240829 
L 314.209785 402.220863 
L 309.413752 401.1998 
L 304.617719 400.177978 
L 299.821686 399.155082 
L 295.025653 398.130423 
L 290.22962 397.104772 
L 285.433587 396.078958 
L 280.637554 395.052838 
L 275.841521 394.026364 
L 271.045488 392.998276 
L 266.249455 391.968822 
L 261.453421 390.93856 
L 256.657388 389.908299 
L 251.861355 388.877715 
L 247.065322 387.846095 
L 242.269289 386.81391 
L 237.473256 385.781224 
L 232.677223 384.748333 
L 227.88119 383.71534 
L 223.085157 382.682347 
L 218.289124 381.649047 
L 213.493091 380.615522 
L 208.697058 379.581882 
L 203.901025 378.548241 
L 199.104992 377.514423 
L 194.308959 376.480323 
L 189.512926 375.446223 
L 184.716893 374.412124 
L 179.92086 373.378024 
L 175.124826 372.343924 
L 170.328793 371.309825 
L 165.53276 370.275725 
L 160.736727 369.241625 
L 155.940694 368.207526 
L 151.144661 367.173426 
L 146.348628 366.139326 
L 141.552595 365.105226 
L 136.756562 364.071127 
L 131.960529 363.037027 
L 127.164496 362.002927 
L 122.368463 360.968828 
L 117.57243 359.934728 
L 112.776397 358.900628 
L 107.980364 357.866529 
z
" style="fill:#e6550d;"/>
   </g>
   <g id="PolyCollection_6">
    <path clip-path="url(#ped648e9140)" d="M 107.980364 318.899447 
L 107.980364 357.866529 
L 112.776397 358.900628 
L 117.57243 359.934728 
L 122.368463 360.968828 
L 127.164496 362.002927 
L 131.960529 363.037027 
L 136.756562 364.071127 
L 141.552595 365.105226 
L 146.348628 366.139326 
L 151.144661 367.173426 
L 155.940694 368.207526 
L 160.736727 369.241625 
L 165.53276 370.275725 
L 170.328793 371.309825 
L 175.124826 372.343924 
L 179.92086 373.378024 
L 184.716893 374.412124 
L 189.512926 375.446223 
L 194.308959 376.480323 
L 199.104992 377.514423 
L 203.901025 378.548241 
L 208.697058 379.581882 
L 213.493091 380.615522 
L 218.289124 381.649047 
L 223.085157 382.682347 
L 227.88119 383.71534 
L 232.677223 384.748333 
L 237.473256 385.781224 
L 242.269289 386.81391 
L 247.065322 387.846095 
L 251.861355 388.877715 
L 256.657388 389.908299 
L 261.453421 390.93856 
L 266.249455 391.968822 
L 271.045488 392.998276 
L 275.841521 394.026364 
L 280.637554 395.052838 
L 285.433587 396.078958 
L 290.22962 397.104772 
L 295.025653 398.130423 
L 299.821686 399.155082 
L 304.617719 400.177978 
L 309.413752 401.1998 
L 314.209785 402.220863 
L 319.005818 403.240829 
L 323.801851 404.259385 
L 328.597884 405.275727 
L 333.393917 406.290067 
L 338.18995 407.30183 
L 342.985983 408.311928 
L 347.782017 409.319564 
L 352.57805 410.325319 
L 357.374083 411.328704 
L 362.170116 412.328108 
L 366.966149 413.324138 
L 371.762182 414.317926 
L 376.558215 415.308357 
L 381.354248 416.295825 
L 386.150281 417.278917 
L 390.946314 418.257566 
L 395.742347 419.231556 
L 400.53838 420.201355 
L 405.334413 421.168483 
L 410.130446 422.130503 
L 414.926479 423.088708 
L 419.722512 424.043871 
L 424.518545 424.994928 
L 429.314579 425.941384 
L 434.110612 426.881885 
L 438.906645 427.816575 
L 443.702678 428.747012 
L 448.498711 429.671857 
L 453.294744 430.592998 
L 458.090777 431.511188 
L 462.88681 432.426605 
L 467.682843 433.338085 
L 472.478876 434.244881 
L 477.274909 435.147571 
L 482.070942 436.047047 
L 486.866975 436.94174 
L 491.663008 437.830834 
L 496.459041 438.714452 
L 501.255074 439.590822 
L 506.051107 440.461378 
L 510.84714 441.325813 
L 515.643174 442.184105 
L 520.439207 443.036282 
L 525.23524 443.881446 
L 530.031273 444.720408 
L 534.827306 445.553638 
L 539.623339 446.381361 
L 544.419372 447.203914 
L 549.215405 448.020666 
L 554.011438 448.831944 
L 558.807471 449.637126 
L 563.603504 450.436075 
L 568.399537 451.230504 
L 573.19557 452.020668 
L 577.991603 452.804698 
L 582.787636 453.583381 
L 582.787636 414.696306 
L 582.787636 414.696306 
L 577.991603 413.914807 
L 573.19557 413.127279 
L 568.399537 412.333572 
L 563.603504 411.535655 
L 558.807471 410.733563 
L 554.011438 409.925463 
L 549.215405 409.111266 
L 544.419372 408.291544 
L 539.623339 407.46608 
L 534.827306 406.634799 
L 530.031273 405.79803 
L 525.23524 404.95585 
L 520.439207 404.108181 
L 515.643174 403.253626 
L 510.84714 402.393183 
L 506.051107 401.526608 
L 501.255074 400.653852 
L 496.459041 399.775283 
L 491.663008 398.889466 
L 486.866975 397.998191 
L 482.070942 397.101312 
L 477.274909 396.200142 
L 472.478876 395.296156 
L 467.682843 394.388096 
L 462.88681 393.475347 
L 458.090777 392.558312 
L 453.294744 391.638505 
L 448.498711 390.715972 
L 443.702678 389.789816 
L 438.906645 388.858036 
L 434.110612 387.922 
L 429.314579 386.980396 
L 424.518545 386.032959 
L 419.722512 385.080983 
L 414.926479 384.125115 
L 410.130446 383.16632 
L 405.334413 382.20371 
L 400.53838 381.235991 
L 395.742347 380.265602 
L 390.946314 379.291172 
L 386.150281 378.312287 
L 381.354248 377.328959 
L 376.558215 376.341275 
L 371.762182 375.350844 
L 366.966149 374.357057 
L 362.170116 373.361026 
L 357.374083 372.361623 
L 352.57805 371.358237 
L 347.782017 370.352482 
L 342.985983 369.344846 
L 338.18995 368.334749 
L 333.393917 367.322986 
L 328.597884 366.308646 
L 323.801851 365.292303 
L 319.005818 364.273747 
L 314.209785 363.253782 
L 309.413752 362.232719 
L 304.617719 361.210896 
L 299.821686 360.188 
L 295.025653 359.163341 
L 290.22962 358.137691 
L 285.433587 357.111877 
L 280.637554 356.085757 
L 275.841521 355.059282 
L 271.045488 354.031195 
L 266.249455 353.00174 
L 261.453421 351.971479 
L 256.657388 350.941218 
L 251.861355 349.910633 
L 247.065322 348.879014 
L 242.269289 347.846828 
L 237.473256 346.814142 
L 232.677223 345.781251 
L 227.88119 344.748258 
L 223.085157 343.715266 
L 218.289124 342.681966 
L 213.493091 341.64844 
L 208.697058 340.6148 
L 203.901025 339.58116 
L 199.104992 338.547341 
L 194.308959 337.513241 
L 189.512926 336.479142 
L 184.716893 335.445042 
L 179.92086 334.410942 
L 175.124826 333.376843 
L 170.328793 332.342743 
L 165.53276 331.308643 
L 160.736727 330.274544 
L 155.940694 329.240444 
L 151.144661 328.206344 
L 146.348628 327.172245 
L 141.552595 326.138145 
L 136.756562 325.104045 
L 131.960529 324.069946 
L 127.164496 323.035846 
L 122.368463 322.001746 
L 117.57243 320.967646 
L 112.776397 319.933547 
L 107.980364 318.899447 
z
" style="fill:#fd8d3c;"/>
   </g>
   <g id="PolyCollection_7">
    <path clip-path="url(#ped648e9140)" d="M 107.980364 298.778149 
L 107.980364 318.899447 
L 112.776397 319.933547 
L 117.57243 320.967646 
L 122.368463 322.001746 
L 127.164496 323.035846 
L 131.960529 324.069946 
L 136.756562 325.104045 
L 141.552595 326.138145 
L 146.348628 327.172245 
L 151.144661 328.206344 
L 155.940694 329.240444 
L 160.736727 330.274544 
L 165.53276 331.308643 
L 170.328793 332.342743 
L 175.124826 333.376843 
L 179.92086 334.410942 
L 184.716893 335.445042 
L 189.512926 336.479142 
L 194.308959 337.513241 
L 199.104992 338.547341 
L 203.901025 339.58116 
L 208.697058 340.6148 
L 213.493091 341.64844 
L 218.289124 342.681966 
L 223.085157 343.715266 
L 227.88119 344.748258 
L 232.677223 345.781251 
L 237.473256 346.814142 
L 242.269289 347.846828 
L 247.065322 348.879014 
L 251.861355 349.910633 
L 256.657388 350.941218 
L 261.453421 351.971479 
L 266.249455 353.00174 
L 271.045488 354.031195 
L 275.841521 355.059282 
L 280.637554 356.085757 
L 285.433587 357.111877 
L 290.22962 358.137691 
L 295.025653 359.163341 
L 299.821686 360.188 
L 304.617719 361.210896 
L 309.413752 362.232719 
L 314.209785 363.253782 
L 319.005818 364.273747 
L 323.801851 365.292303 
L 328.597884 366.308646 
L 333.393917 367.322986 
L 338.18995 368.334749 
L 342.985983 369.344846 
L 347.782017 370.352482 
L 352.57805 371.358237 
L 357.374083 372.361623 
L 362.170116 373.361026 
L 366.966149 374.357057 
L 371.762182 375.350844 
L 376.558215 376.341275 
L 381.354248 377.328959 
L 386.150281 378.312287 
L 390.946314 379.291172 
L 395.742347 380.265602 
L 400.53838 381.235991 
L 405.334413 382.20371 
L 410.130446 383.16632 
L 414.926479 384.125115 
L 419.722512 385.080983 
L 424.518545 386.032959 
L 429.314579 386.980396 
L 434.110612 387.922 
L 438.906645 388.858036 
L 443.702678 389.789816 
L 448.498711 390.715972 
L 453.294744 391.638505 
L 458.090777 392.558312 
L 462.88681 393.475347 
L 467.682843 394.388096 
L 472.478876 395.296156 
L 477.274909 396.200142 
L 482.070942 397.101312 
L 486.866975 397.998191 
L 491.663008 398.889466 
L 496.459041 399.775283 
L 501.255074 400.653852 
L 506.051107 401.526608 
L 510.84714 402.393183 
L 515.643174 403.253626 
L 520.439207 404.108181 
L 525.23524 404.95585 
L 530.031273 405.79803 
L 534.827306 406.634799 
L 539.623339 407.46608 
L 544.419372 408.291544 
L 549.215405 409.111266 
L 554.011438 409.925463 
L 558.807471 410.733563 
L 563.603504 411.535655 
L 568.399537 412.333572 
L 573.19557 413.127279 
L 577.991603 413.914807 
L 582.787636 414.696306 
L 582.787636 414.696306 
L 582.787636 414.696306 
L 577.991603 413.712573 
L 573.19557 412.722812 
L 568.399537 411.726674 
L 563.603504 410.726311 
L 558.807471 409.721679 
L 554.011438 408.711074 
L 549.215405 407.694474 
L 544.419372 406.672225 
L 539.623339 405.6437 
L 534.827306 404.609798 
L 530.031273 403.570196 
L 525.23524 402.525034 
L 520.439207 401.473789 
L 515.643174 400.415994 
L 510.84714 399.35233 
L 506.051107 398.282372 
L 501.255074 397.206639 
L 496.459041 396.125187 
L 491.663008 395.036487 
L 486.866975 393.942176 
L 482.070942 392.841842 
L 477.274909 391.736597 
L 472.478876 390.628344 
L 467.682843 389.516452 
L 462.88681 388.400219 
L 458.090777 387.280097 
L 453.294744 386.157281 
L 448.498711 385.031514 
L 443.702678 383.902043 
L 438.906645 382.76695 
L 434.110612 381.627431 
L 429.314579 380.482338 
L 424.518545 379.33129 
L 419.722512 378.175709 
L 414.926479 377.016355 
L 410.130446 375.853959 
L 405.334413 374.687748 
L 400.53838 373.516428 
L 395.742347 372.342507 
L 390.946314 371.164617 
L 386.150281 369.982069 
L 381.354248 368.795186 
L 376.558215 367.603963 
L 371.762182 366.409777 
L 366.966149 365.212488 
L 362.170116 364.01302 
L 357.374083 362.810179 
L 352.57805 361.603356 
L 347.782017 360.394163 
L 342.985983 359.183089 
L 338.18995 357.969554 
L 333.393917 356.754353 
L 328.597884 355.536638 
L 323.801851 354.31705 
L 319.005818 353.095248 
L 314.209785 351.872037 
L 309.413752 350.647729 
L 304.617719 349.422661 
L 299.821686 348.196519 
L 295.025653 346.968615 
L 290.22962 345.739719 
L 285.433587 344.51066 
L 280.637554 343.281294 
L 275.841521 342.051575 
L 271.045488 340.820242 
L 266.249455 339.587541 
L 261.453421 338.354035 
L 256.657388 337.120528 
L 251.861355 335.886698 
L 247.065322 334.651833 
L 242.269289 333.416402 
L 237.473256 332.180471 
L 232.677223 330.944335 
L 227.88119 329.708096 
L 223.085157 328.471858 
L 218.289124 327.235313 
L 213.493091 325.998542 
L 208.697058 324.761656 
L 203.901025 323.524771 
L 199.104992 322.287706 
L 194.308959 321.050361 
L 189.512926 319.813016 
L 184.716893 318.575671 
L 179.92086 317.338326 
L 175.124826 316.100981 
L 170.328793 314.863636 
L 165.53276 313.626291 
L 160.736727 312.388946 
L 155.940694 311.1516 
L 151.144661 309.914255 
L 146.348628 308.67691 
L 141.552595 307.439565 
L 136.756562 306.20222 
L 131.960529 304.964875 
L 127.164496 303.72753 
L 122.368463 302.490185 
L 117.57243 301.252839 
L 112.776397 300.015494 
L 107.980364 298.778149 
z
" style="fill:#fdae6b;"/>
   </g>
   <g id="PolyCollection_8">
    <path clip-path="url(#ped648e9140)" d="M 107.980364 157.41469 
L 107.980364 298.778149 
L 112.776397 300.015494 
L 117.57243 301.252839 
L 122.368463 302.490185 
L 127.164496 303.72753 
L 131.960529 304.964875 
L 136.756562 306.20222 
L 141.552595 307.439565 
L 146.348628 308.67691 
L 151.144661 309.914255 
L 155.940694 311.1516 
L 160.736727 312.388946 
L 165.53276 313.626291 
L 170.328793 314.863636 
L 175.124826 316.100981 
L 179.92086 317.338326 
L 184.716893 318.575671 
L 189.512926 319.813016 
L 194.308959 321.050361 
L 199.104992 322.287706 
L 203.901025 323.524771 
L 208.697058 324.761656 
L 213.493091 325.998542 
L 218.289124 327.235313 
L 223.085157 328.471858 
L 227.88119 329.708096 
L 232.677223 330.944335 
L 237.473256 332.180471 
L 242.269289 333.416402 
L 247.065322 334.651833 
L 251.861355 335.886698 
L 256.657388 337.120528 
L 261.453421 338.354035 
L 266.249455 339.587541 
L 271.045488 340.820242 
L 275.841521 342.051575 
L 280.637554 343.281294 
L 285.433587 344.51066 
L 290.22962 345.739719 
L 295.025653 346.968615 
L 299.821686 348.196519 
L 304.617719 349.422661 
L 309.413752 350.647729 
L 314.209785 351.872037 
L 319.005818 353.095248 
L 323.801851 354.31705 
L 328.597884 355.536638 
L 333.393917 356.754353 
L 338.18995 357.969554 
L 342.985983 359.183089 
L 347.782017 360.394163 
L 352.57805 361.603356 
L 357.374083 362.810179 
L 362.170116 364.01302 
L 366.966149 365.212488 
L 371.762182 366.409777 
L 376.558215 367.603963 
L 381.354248 368.795186 
L 386.150281 369.982069 
L 390.946314 371.164617 
L 395.742347 372.342507 
L 400.53838 373.516428 
L 405.334413 374.687748 
L 410.130446 375.853959 
L 414.926479 377.016355 
L 419.722512 378.175709 
L 424.518545 379.33129 
L 429.314579 380.482338 
L 434.110612 381.627431 
L 438.906645 382.76695 
L 443.702678 383.902043 
L 448.498711 385.031514 
L 453.294744 386.157281 
L 458.090777 387.280097 
L 462.88681 388.400219 
L 467.682843 389.516452 
L 472.478876 390.628344 
L 477.274909 391.736597 
L 482.070942 392.841842 
L 486.866975 393.942176 
L 491.663008 395.036487 
L 496.459041 396.125187 
L 501.255074 397.206639 
L 506.051107 398.282372 
L 510.84714 399.35233 
L 515.643174 400.415994 
L 520.439207 401.473789 
L 525.23524 402.525034 
L 530.031273 403.570196 
L 534.827306 404.609798 
L 539.623339 405.6437 
L 544.419372 406.672225 
L 549.215405 407.694474 
L 554.011438 408.711074 
L 558.807471 409.721679 
L 563.603504 410.726311 
L 568.399537 411.726674 
L 573.19557 412.722812 
L 577.991603 413.712573 
L 582.787636 414.696306 
L 582.787636 273.332846 
L 582.787636 273.332846 
L 577.991603 272.349113 
L 573.19557 271.359352 
L 568.399537 270.363215 
L 563.603504 269.362852 
L 558.807471 268.358219 
L 554.011438 267.347615 
L 549.215405 266.331015 
L 544.419372 265.308766 
L 539.623339 264.280241 
L 534.827306 263.246339 
L 530.031273 262.206737 
L 525.23524 261.161574 
L 520.439207 260.11033 
L 515.643174 259.052534 
L 510.84714 257.988871 
L 506.051107 256.918912 
L 501.255074 255.843179 
L 496.459041 254.761727 
L 491.663008 253.673028 
L 486.866975 252.578716 
L 482.070942 251.478383 
L 477.274909 250.373138 
L 472.478876 249.264884 
L 467.682843 248.152993 
L 462.88681 247.036759 
L 458.090777 245.916637 
L 453.294744 244.793822 
L 448.498711 243.668055 
L 443.702678 242.538584 
L 438.906645 241.403491 
L 434.110612 240.263971 
L 429.314579 239.118879 
L 424.518545 237.96783 
L 419.722512 236.81225 
L 414.926479 235.652896 
L 410.130446 234.490499 
L 405.334413 233.324289 
L 400.53838 232.152969 
L 395.742347 230.979048 
L 390.946314 229.801157 
L 386.150281 228.618609 
L 381.354248 227.431726 
L 376.558215 226.240503 
L 371.762182 225.046318 
L 366.966149 223.849029 
L 362.170116 222.649561 
L 357.374083 221.44672 
L 352.57805 220.239897 
L 347.782017 219.030704 
L 342.985983 217.81963 
L 338.18995 216.606095 
L 333.393917 215.390894 
L 328.597884 214.173179 
L 323.801851 212.953591 
L 319.005818 211.731789 
L 314.209785 210.508578 
L 309.413752 209.28427 
L 304.617719 208.059202 
L 299.821686 206.83306 
L 295.025653 205.605156 
L 290.22962 204.37626 
L 285.433587 203.147201 
L 280.637554 201.917835 
L 275.841521 200.688115 
L 271.045488 199.456782 
L 266.249455 198.224082 
L 261.453421 196.990575 
L 256.657388 195.757069 
L 251.861355 194.523239 
L 247.065322 193.288374 
L 242.269289 192.052943 
L 237.473256 190.817012 
L 232.677223 189.580875 
L 227.88119 188.344637 
L 223.085157 187.108399 
L 218.289124 185.871853 
L 213.493091 184.635083 
L 208.697058 183.398197 
L 203.901025 182.161311 
L 199.104992 180.924247 
L 194.308959 179.686902 
L 189.512926 178.449557 
L 184.716893 177.212212 
L 179.92086 175.974867 
L 175.124826 174.737521 
L 170.328793 173.500176 
L 165.53276 172.262831 
L 160.736727 171.025486 
L 155.940694 169.788141 
L 151.144661 168.550796 
L 146.348628 167.313451 
L 141.552595 166.076106 
L 136.756562 164.838761 
L 131.960529 163.601415 
L 127.164496 162.36407 
L 122.368463 161.126725 
L 117.57243 159.88938 
L 112.776397 158.652035 
L 107.980364 157.41469 
z
" style="fill:#fdd0a2;"/>
   </g>
   <g id="PolyCollection_9">
    <path clip-path="url(#ped648e9140)" d="M 107.980364 135.36 
L 107.980364 157.41469 
L 112.776397 158.652035 
L 117.57243 159.88938 
L 122.368463 161.126725 
L 127.164496 162.36407 
L 131.960529 163.601415 
L 136.756562 164.838761 
L 141.552595 166.076106 
L 146.348628 167.313451 
L 151.144661 168.550796 
L 155.940694 169.788141 
L 160.736727 171.025486 
L 165.53276 172.262831 
L 170.328793 173.500176 
L 175.124826 174.737521 
L 179.92086 175.974867 
L 184.716893 177.212212 
L 189.512926 178.449557 
L 194.308959 179.686902 
L 199.104992 180.924247 
L 203.901025 182.161311 
L 208.697058 183.398197 
L 213.493091 184.635083 
L 218.289124 185.871853 
L 223.085157 187.108399 
L 227.88119 188.344637 
L 232.677223 189.580875 
L 237.473256 190.817012 
L 242.269289 192.052943 
L 247.065322 193.288374 
L 251.861355 194.523239 
L 256.657388 195.757069 
L 261.453421 196.990575 
L 266.249455 198.224082 
L 271.045488 199.456782 
L 275.841521 200.688115 
L 280.637554 201.917835 
L 285.433587 203.147201 
L 290.22962 204.37626 
L 295.025653 205.605156 
L 299.821686 206.83306 
L 304.617719 208.059202 
L 309.413752 209.28427 
L 314.209785 210.508578 
L 319.005818 211.731789 
L 323.801851 212.953591 
L 328.597884 214.173179 
L 333.393917 215.390894 
L 338.18995 216.606095 
L 342.985983 217.81963 
L 347.782017 219.030704 
L 352.57805 220.239897 
L 357.374083 221.44672 
L 362.170116 222.649561 
L 366.966149 223.849029 
L 371.762182 225.046318 
L 376.558215 226.240503 
L 381.354248 227.431726 
L 386.150281 228.618609 
L 390.946314 229.801157 
L 395.742347 230.979048 
L 400.53838 232.152969 
L 405.334413 233.324289 
L 410.130446 234.490499 
L 414.926479 235.652896 
L 419.722512 236.81225 
L 424.518545 237.96783 
L 429.314579 239.118879 
L 434.110612 240.263971 
L 438.906645 241.403491 
L 443.702678 242.538584 
L 448.498711 243.668055 
L 453.294744 244.793822 
L 458.090777 245.916637 
L 462.88681 247.036759 
L 467.682843 248.152993 
L 472.478876 249.264884 
L 477.274909 250.373138 
L 482.070942 251.478383 
L 486.866975 252.578716 
L 491.663008 253.673028 
L 496.459041 254.761727 
L 501.255074 255.843179 
L 506.051107 256.918912 
L 510.84714 257.988871 
L 515.643174 259.052534 
L 520.439207 260.11033 
L 525.23524 261.161574 
L 530.031273 262.206737 
L 534.827306 263.246339 
L 539.623339 264.280241 
L 544.419372 265.308766 
L 549.215405 266.331015 
L 554.011438 267.347615 
L 558.807471 268.358219 
L 563.603504 269.362852 
L 568.399537 270.363215 
L 573.19557 271.359352 
L 577.991603 272.349113 
L 582.787636 273.332846 
L 582.787636 273.332846 
L 582.787636 273.332846 
L 577.991603 272.126339 
L 573.19557 270.913803 
L 568.399537 269.694891 
L 563.603504 268.471753 
L 558.807471 267.244346 
L 554.011438 266.010967 
L 549.215405 264.771592 
L 544.419372 263.526568 
L 539.623339 262.275269 
L 534.827306 261.018592 
L 530.031273 259.756216 
L 525.23524 258.488279 
L 520.439207 257.214259 
L 515.643174 255.933689 
L 510.84714 254.647251 
L 506.051107 253.354518 
L 501.255074 252.05601 
L 496.459041 250.751784 
L 491.663008 249.44031 
L 486.866975 248.123223 
L 482.070942 246.800115 
L 477.274909 245.472095 
L 472.478876 244.141068 
L 467.682843 242.806401 
L 462.88681 241.467393 
L 458.090777 240.124497 
L 453.294744 238.778907 
L 448.498711 237.430364 
L 443.702678 236.078119 
L 438.906645 234.720251 
L 434.110612 233.357957 
L 429.314579 231.99009 
L 424.518545 230.616267 
L 419.722512 229.237912 
L 414.926479 227.855783 
L 410.130446 226.470612 
L 405.334413 225.081627 
L 400.53838 223.687532 
L 395.742347 222.290836 
L 390.946314 220.890172 
L 386.150281 219.484849 
L 381.354248 218.075191 
L 376.558215 216.661194 
L 371.762182 215.244233 
L 366.966149 213.82417 
L 362.170116 212.401927 
L 357.374083 210.976311 
L 352.57805 209.546714 
L 347.782017 208.114746 
L 342.985983 206.680898 
L 338.18995 205.244588 
L 333.393917 203.806612 
L 328.597884 202.366122 
L 323.801851 200.92376 
L 319.005818 199.479183 
L 314.209785 198.033198 
L 309.413752 196.586115 
L 304.617719 195.138273 
L 299.821686 193.689356 
L 295.025653 192.238677 
L 290.22962 190.787007 
L 285.433587 189.335173 
L 280.637554 187.883032 
L 275.841521 186.430538 
L 271.045488 184.97643 
L 266.249455 183.520955 
L 261.453421 182.064674 
L 256.657388 180.608393 
L 251.861355 179.151788 
L 247.065322 177.694149 
L 242.269289 176.235943 
L 237.473256 174.777237 
L 232.677223 173.318326 
L 227.88119 171.859313 
L 223.085157 170.4003 
L 218.289124 168.94098 
L 213.493091 167.481435 
L 208.697058 166.021775 
L 203.901025 164.562114 
L 199.104992 163.102276 
L 194.308959 161.642156 
L 189.512926 160.182036 
L 184.716893 158.721916 
L 179.92086 157.261796 
L 175.124826 155.801677 
L 170.328793 154.341557 
L 165.53276 152.881437 
L 160.736727 151.421317 
L 155.940694 149.961198 
L 151.144661 148.501078 
L 146.348628 147.040958 
L 141.552595 145.580838 
L 136.756562 144.120719 
L 131.960529 142.660599 
L 127.164496 141.200479 
L 122.368463 139.740359 
L 117.57243 138.28024 
L 112.776397 136.82012 
L 107.980364 135.36 
z
" style="fill:#31a354;"/>
   </g>
   <g id="PolyCollection_10">
    <path clip-path="url(#ped648e9140)" d="M 107.980364 135.36 
L 107.980364 135.36 
L 112.776397 136.82012 
L 117.57243 138.28024 
L 122.368463 139.740359 
L 127.164496 141.200479 
L 131.960529 142.660599 
L 136.756562 144.120719 
L 141.552595 145.580838 
L 146.348628 147.040958 
L 151.144661 148.501078 
L 155.940694 149.961198 
L 160.736727 151.421317 
L 165.53276 152.881437 
L 170.328793 154.341557 
L 175.124826 155.801677 
L 179.92086 157.261796 
L 184.716893 158.721916 
L 189.512926 160.182036 
L 194.308959 161.642156 
L 199.104992 163.102276 
L 203.901025 164.562114 
L 208.697058 166.021775 
L 213.493091 167.481435 
L 218.289124 168.94098 
L 223.085157 170.4003 
L 227.88119 171.859313 
L 232.677223 173.318326 
L 237.473256 174.777237 
L 242.269289 176.235943 
L 247.065322 177.694149 
L 251.861355 179.151788 
L 256.657388 180.608393 
L 261.453421 182.064674 
L 266.249455 183.520955 
L 271.045488 184.97643 
L 275.841521 186.430538 
L 280.637554 187.883032 
L 285.433587 189.335173 
L 290.22962 190.787007 
L 295.025653 192.238677 
L 299.821686 193.689356 
L 304.617719 195.138273 
L 309.413752 196.586115 
L 314.209785 198.033198 
L 319.005818 199.479183 
L 323.801851 200.92376 
L 328.597884 202.366122 
L 333.393917 203.806612 
L 338.18995 205.244588 
L 342.985983 206.680898 
L 347.782017 208.114746 
L 352.57805 209.546714 
L 357.374083 210.976311 
L 362.170116 212.401927 
L 366.966149 213.82417 
L 371.762182 215.244233 
L 376.558215 216.661194 
L 381.354248 218.075191 
L 386.150281 219.484849 
L 390.946314 220.890172 
L 395.742347 222.290836 
L 400.53838 223.687532 
L 405.334413 225.081627 
L 410.130446 226.470612 
L 414.926479 227.855783 
L 419.722512 229.237912 
L 424.518545 230.616267 
L 429.314579 231.99009 
L 434.110612 233.357957 
L 438.906645 234.720251 
L 443.702678 236.078119 
L 448.498711 237.430364 
L 453.294744 238.778907 
L 458.090777 240.124497 
L 462.88681 241.467393 
L 467.682843 242.806401 
L 472.478876 244.141068 
L 477.274909 245.472095 
L 482.070942 246.800115 
L 486.866975 248.123223 
L 491.663008 249.44031 
L 496.459041 250.751784 
L 501.255074 252.05601 
L 506.051107 253.354518 
L 510.84714 254.647251 
L 515.643174 255.933689 
L 520.439207 257.214259 
L 525.23524 258.488279 
L 530.031273 259.756216 
L 534.827306 261.018592 
L 539.623339 262.275269 
L 544.419372 263.526568 
L 549.215405 264.771592 
L 554.011438 266.010967 
L 558.807471 267.244346 
L 563.603504 268.471753 
L 568.399537 269.694891 
L 573.19557 270.913803 
L 577.991603 272.126339 
L 582.787636 273.332846 
L 582.787636 208.442636 
L 582.787636 208.442636 
L 577.991603 207.706817 
L 573.19557 206.970573 
L 568.399537 206.233922 
L 563.603504 205.497271 
L 558.807471 204.76062 
L 554.011438 204.023969 
L 549.215405 203.286931 
L 544.419372 202.549553 
L 539.623339 201.812174 
L 534.827306 201.074795 
L 530.031273 200.337417 
L 525.23524 199.600038 
L 520.439207 198.86266 
L 515.643174 198.124552 
L 510.84714 197.386375 
L 506.051107 196.648198 
L 501.255074 195.909859 
L 496.459041 195.171446 
L 491.663008 194.433033 
L 486.866975 193.69462 
L 482.070942 192.956207 
L 477.274909 192.217794 
L 472.478876 191.479381 
L 467.682843 190.740968 
L 462.88681 190.002556 
L 458.090777 189.264143 
L 453.294744 188.52573 
L 448.498711 187.787317 
L 443.702678 187.048904 
L 438.906645 186.310491 
L 434.110612 185.572078 
L 429.314579 184.833665 
L 424.518545 184.095252 
L 419.722512 183.356839 
L 414.926479 182.618426 
L 410.130446 181.880013 
L 405.334413 181.141601 
L 400.53838 180.403188 
L 395.742347 179.664775 
L 390.946314 178.926362 
L 386.150281 178.187949 
L 381.354248 177.449536 
L 376.558215 176.711123 
L 371.762182 175.97271 
L 366.966149 175.234297 
L 362.170116 174.495884 
L 357.374083 173.757471 
L 352.57805 173.019059 
L 347.782017 172.280646 
L 342.985983 171.542233 
L 338.18995 170.80382 
L 333.393917 170.065407 
L 328.597884 169.326994 
L 323.801851 168.588581 
L 319.005818 167.850168 
L 314.209785 167.111755 
L 309.413752 166.373342 
L 304.617719 165.634929 
L 299.821686 164.896517 
L 295.025653 164.158104 
L 290.22962 163.419691 
L 285.433587 162.681278 
L 280.637554 161.942865 
L 275.841521 161.204452 
L 271.045488 160.466039 
L 266.249455 159.727626 
L 261.453421 158.989213 
L 256.657388 158.2508 
L 251.861355 157.512387 
L 247.065322 156.773974 
L 242.269289 156.035562 
L 237.473256 155.297149 
L 232.677223 154.558736 
L 227.88119 153.820323 
L 223.085157 153.08191 
L 218.289124 152.343497 
L 213.493091 151.605084 
L 208.697058 150.866671 
L 203.901025 150.128258 
L 199.104992 149.389845 
L 194.308959 148.651432 
L 189.512926 147.91302 
L 184.716893 147.174607 
L 179.92086 146.436194 
L 175.124826 145.697781 
L 170.328793 144.959368 
L 165.53276 144.220955 
L 160.736727 143.482542 
L 155.940694 142.744129 
L 151.144661 142.005716 
L 146.348628 141.267303 
L 141.552595 140.52889 
L 136.756562 139.790477 
L 131.960529 139.052065 
L 127.164496 138.313652 
L 122.368463 137.575239 
L 117.57243 136.836826 
L 112.776397 136.098413 
L 107.980364 135.36 
z
" style="fill:#74c476;"/>
   </g>
   <g id="PolyCollection_11">
    <path clip-path="url(#ped648e9140)" d="M 107.980364 135.36 
L 107.980364 135.36 
L 112.776397 136.098413 
L 117.57243 136.836826 
L 122.368463 137.575239 
L 127.164496 138.313652 
L 131.960529 139.052065 
L 136.756562 139.790477 
L 141.552595 140.52889 
L 146.348628 141.267303 
L 151.144661 142.005716 
L 155.940694 142.744129 
L 160.736727 143.482542 
L 165.53276 144.220955 
L 170.328793 144.959368 
L 175.124826 145.697781 
L 179.92086 146.436194 
L 184.716893 147.174607 
L 189.512926 147.91302 
L 194.308959 148.651432 
L 199.104992 149.389845 
L 203.901025 150.128258 
L 208.697058 150.866671 
L 213.493091 151.605084 
L 218.289124 152.343497 
L 223.085157 153.08191 
L 227.88119 153.820323 
L 232.677223 154.558736 
L 237.473256 155.297149 
L 242.269289 156.035562 
L 247.065322 156.773974 
L 251.861355 157.512387 
L 256.657388 158.2508 
L 261.453421 158.989213 
L 266.249455 159.727626 
L 271.045488 160.466039 
L 275.841521 161.204452 
L 280.637554 161.942865 
L 285.433587 162.681278 
L 290.22962 163.419691 
L 295.025653 164.158104 
L 299.821686 164.896517 
L 304.617719 165.634929 
L 309.413752 166.373342 
L 314.209785 167.111755 
L 319.005818 167.850168 
L 323.801851 168.588581 
L 328.597884 169.326994 
L 333.393917 170.065407 
L 338.18995 170.80382 
L 342.985983 171.542233 
L 347.782017 172.280646 
L 352.57805 173.019059 
L 357.374083 173.757471 
L 362.170116 174.495884 
L 366.966149 175.234297 
L 371.762182 175.97271 
L 376.558215 176.711123 
L 381.354248 177.449536 
L 386.150281 178.187949 
L 390.946314 178.926362 
L 395.742347 179.664775 
L 400.53838 180.403188 
L 405.334413 181.141601 
L 410.130446 181.880013 
L 414.926479 182.618426 
L 419.722512 183.356839 
L 424.518545 184.095252 
L 429.314579 184.833665 
L 434.110612 185.572078 
L 438.906645 186.310491 
L 443.702678 187.048904 
L 448.498711 187.787317 
L 453.294744 188.52573 
L 458.090777 189.264143 
L 462.88681 190.002556 
L 467.682843 190.740968 
L 472.478876 191.479381 
L 477.274909 192.217794 
L 482.070942 192.956207 
L 486.866975 193.69462 
L 491.663008 194.433033 
L 496.459041 195.171446 
L 501.255074 195.909859 
L 506.051107 196.648198 
L 510.84714 197.386375 
L 515.643174 198.124552 
L 520.439207 198.86266 
L 525.23524 199.600038 
L 530.031273 200.337417 
L 534.827306 201.074795 
L 539.623339 201.812174 
L 544.419372 202.549553 
L 549.215405 203.286931 
L 554.011438 204.023969 
L 558.807471 204.76062 
L 563.603504 205.497271 
L 568.399537 206.233922 
L 573.19557 206.970573 
L 577.991603 207.706817 
L 582.787636 208.442636 
L 582.787636 135.36 
L 582.787636 135.36 
L 577.991603 135.36 
L 573.19557 135.36 
L 568.399537 135.36 
L 563.603504 135.36 
L 558.807471 135.36 
L 554.011438 135.36 
L 549.215405 135.36 
L 544.419372 135.36 
L 539.623339 135.36 
L 534.827306 135.36 
L 530.031273 135.36 
L 525.23524 135.36 
L 520.439207 135.36 
L 515.643174 135.36 
L 510.84714 135.36 
L 506.051107 135.36 
L 501.255074 135.36 
L 496.459041 135.36 
L 491.663008 135.36 
L 486.866975 135.36 
L 482.070942 135.36 
L 477.274909 135.36 
L 472.478876 135.36 
L 467.682843 135.36 
L 462.88681 135.36 
L 458.090777 135.36 
L 453.294744 135.36 
L 448.498711 135.36 
L 443.702678 135.36 
L 438.906645 135.36 
L 434.110612 135.36 
L 429.314579 135.36 
L 424.518545 135.36 
L 419.722512 135.36 
L 414.926479 135.36 
L 410.130446 135.36 
L 405.334413 135.36 
L 400.53838 135.36 
L 395.742347 135.36 
L 390.946314 135.36 
L 386.150281 135.36 
L 381.354248 135.36 
L 376.558215 135.36 
L 371.762182 135.36 
L 366.966149 135.36 
L 362.170116 135.36 
L 357.374083 135.36 
L 352.57805 135.36 
L 347.782017 135.36 
L 342.985983 135.36 
L 338.18995 135.36 
L 333.393917 135.36 
L 328.597884 135.36 
L 323.801851 135.36 
L 319.005818 135.36 
L 314.209785 135.36 
L 309.413752 135.36 
L 304.617719 135.36 
L 299.821686 135.36 
L 295.025653 135.36 
L 290.22962 135.36 
L 285.433587 135.36 
L 280.637554 135.36 
L 275.841521 135.36 
L 271.045488 135.36 
L 266.249455 135.36 
L 261.453421 135.36 
L 256.657388 135.36 
L 251.861355 135.36 
L 247.065322 135.36 
L 242.269289 135.36 
L 237.473256 135.36 
L 232.677223 135.36 
L 227.88119 135.36 
L 223.085157 135.36 
L 218.289124 135.36 
L 213.493091 135.36 
L 208.697058 135.36 
L 203.901025 135.36 
L 199.104992 135.36 
L 194.308959 135.36 
L 189.512926 135.36 
L 184.716893 135.36 
L 179.92086 135.36 
L 175.124826 135.36 
L 170.328793 135.36 
L 165.53276 135.36 
L 160.736727 135.36 
L 155.940694 135.36 
L 151.144661 135.36 
L 146.348628 135.36 
L 141.552595 135.36 
L 136.756562 135.36 
L 131.960529 135.36 
L 127.164496 135.36 
L 122.368463 135.36 
L 117.57243 135.36 
L 112.776397 135.36 
L 107.980364 135.36 
z
" style="fill:#a1d99b;"/>
   </g>
   <g id="matplotlib.axis_1">
    <g id="xtick_1">
     <g id="line2d_1">
      <defs>
       <path d="M 0 0 
L 0 3.5 
" id="m29f5432903" style="stroke:#000000;stroke-width:0.8;"/>
      </defs>
      <g>
       <use style="stroke:#000000;stroke-width:0.8;" x="107.980364" xlink:href="#m29f5432903" y="768.96"/>
      </g>
     </g>
     <g id="text_1">
      <!-- 0 -->
      <g transform="translate(100.345364 794.19625)scale(0.24 -0.24)">
       <defs>
        <path d="M 2034 4250 
Q 1547 4250 1301 3770 
Q 1056 3291 1056 2328 
Q 1056 1369 1301 889 
Q 1547 409 2034 409 
Q 2525 409 2770 889 
Q 3016 1369 3016 2328 
Q 3016 3291 2770 3770 
Q 2525 4250 2034 4250 
z
M 2034 4750 
Q 2819 4750 3233 4129 
Q 3647 3509 3647 2328 
Q 3647 1150 3233 529 
Q 2819 -91 2034 -91 
Q 1250 -91 836 529 
Q 422 1150 422 2328 
Q 422 3509 836 4129 
Q 1250 4750 2034 4750 
z
" id="DejaVuSans-30" transform="scale(0.015625)"/>
       </defs>
       <use xlink:href="#DejaVuSans-30"/>
      </g>
     </g>
    </g>
    <g id="xtick_2">
     <g id="line2d_2">
      <g>
       <use style="stroke:#000000;stroke-width:0.8;" x="202.941818" xlink:href="#m29f5432903" y="768.96"/>
      </g>
     </g>
     <g id="text_2">
      <!-- 20 -->
      <g transform="translate(187.671818 794.19625)scale(0.24 -0.24)">
       <defs>
        <path d="M 1228 531 
L 3431 531 
L 3431 0 
L 469 0 
L 469 531 
Q 828 903 1448 1529 
Q 2069 2156 2228 2338 
Q 2531 2678 2651 2914 
Q 2772 3150 2772 3378 
Q 2772 3750 2511 3984 
Q 2250 4219 1831 4219 
Q 1534 4219 1204 4116 
Q 875 4013 500 3803 
L 500 4441 
Q 881 4594 1212 4672 
Q 1544 4750 1819 4750 
Q 2544 4750 2975 4387 
Q 3406 4025 3406 3419 
Q 3406 3131 3298 2873 
Q 3191 2616 2906 2266 
Q 2828 2175 2409 1742 
Q 1991 1309 1228 531 
z
" id="DejaVuSans-32" transform="scale(0.015625)"/>
       </defs>
       <use xlink:href="#DejaVuSans-32"/>
       <use x="63.623047" xlink:href="#DejaVuSans-30"/>
      </g>
     </g>
    </g>
    <g id="xtick_3">
     <g id="line2d_3">
      <g>
       <use style="stroke:#000000;stroke-width:0.8;" x="297.903273" xlink:href="#m29f5432903" y="768.96"/>
      </g>
     </g>
     <g id="text_3">
      <!-- 40 -->
      <g transform="translate(282.633273 794.19625)scale(0.24 -0.24)">
       <defs>
        <path d="M 2419 4116 
L 825 1625 
L 2419 1625 
L 2419 4116 
z
M 2253 4666 
L 3047 4666 
L 3047 1625 
L 3713 1625 
L 3713 1100 
L 3047 1100 
L 3047 0 
L 2419 0 
L 2419 1100 
L 313 1100 
L 313 1709 
L 2253 4666 
z
" id="DejaVuSans-34" transform="scale(0.015625)"/>
       </defs>
       <use xlink:href="#DejaVuSans-34"/>
       <use x="63.623047" xlink:href="#DejaVuSans-30"/>
      </g>
     </g>
    </g>
    <g id="xtick_4">
     <g id="line2d_4">
      <g>
       <use style="stroke:#000000;stroke-width:0.8;" x="392.864727" xlink:href="#m29f5432903" y="768.96"/>
      </g>
     </g>
     <g id="text_4">
      <!-- 60 -->
      <g transform="translate(377.594727 794.19625)scale(0.24 -0.24)">
       <defs>
        <path d="M 2113 2584 
Q 1688 2584 1439 2293 
Q 1191 2003 1191 1497 
Q 1191 994 1439 701 
Q 1688 409 2113 409 
Q 2538 409 2786 701 
Q 3034 994 3034 1497 
Q 3034 2003 2786 2293 
Q 2538 2584 2113 2584 
z
M 3366 4563 
L 3366 3988 
Q 3128 4100 2886 4159 
Q 2644 4219 2406 4219 
Q 1781 4219 1451 3797 
Q 1122 3375 1075 2522 
Q 1259 2794 1537 2939 
Q 1816 3084 2150 3084 
Q 2853 3084 3261 2657 
Q 3669 2231 3669 1497 
Q 3669 778 3244 343 
Q 2819 -91 2113 -91 
Q 1303 -91 875 529 
Q 447 1150 447 2328 
Q 447 3434 972 4092 
Q 1497 4750 2381 4750 
Q 2619 4750 2861 4703 
Q 3103 4656 3366 4563 
z
" id="DejaVuSans-36" transform="scale(0.015625)"/>
       </defs>
       <use xlink:href="#DejaVuSans-36"/>
       <use x="63.623047" xlink:href="#DejaVuSans-30"/>
      </g>
     </g>
    </g>
    <g id="xtick_5">
     <g id="line2d_5">
      <g>
       <use style="stroke:#000000;stroke-width:0.8;" x="487.826182" xlink:href="#m29f5432903" y="768.96"/>
      </g>
     </g>
     <g id="text_5">
      <!-- 80 -->
      <g transform="translate(472.556182 794.19625)scale(0.24 -0.24)">
       <defs>
        <path d="M 2034 2216 
Q 1584 2216 1326 1975 
Q 1069 1734 1069 1313 
Q 1069 891 1326 650 
Q 1584 409 2034 409 
Q 2484 409 2743 651 
Q 3003 894 3003 1313 
Q 3003 1734 2745 1975 
Q 2488 2216 2034 2216 
z
M 1403 2484 
Q 997 2584 770 2862 
Q 544 3141 544 3541 
Q 544 4100 942 4425 
Q 1341 4750 2034 4750 
Q 2731 4750 3128 4425 
Q 3525 4100 3525 3541 
Q 3525 3141 3298 2862 
Q 3072 2584 2669 2484 
Q 3125 2378 3379 2068 
Q 3634 1759 3634 1313 
Q 3634 634 3220 271 
Q 2806 -91 2034 -91 
Q 1263 -91 848 271 
Q 434 634 434 1313 
Q 434 1759 690 2068 
Q 947 2378 1403 2484 
z
M 1172 3481 
Q 1172 3119 1398 2916 
Q 1625 2713 2034 2713 
Q 2441 2713 2670 2916 
Q 2900 3119 2900 3481 
Q 2900 3844 2670 4047 
Q 2441 4250 2034 4250 
Q 1625 4250 1398 4047 
Q 1172 3844 1172 3481 
z
" id="DejaVuSans-38" transform="scale(0.015625)"/>
       </defs>
       <use xlink:href="#DejaVuSans-38"/>
       <use x="63.623047" xlink:href="#DejaVuSans-30"/>
      </g>
     </g>
    </g>
    <g id="xtick_6">
     <g id="line2d_6">
      <g>
       <use style="stroke:#000000;stroke-width:0.8;" x="582.787636" xlink:href="#m29f5432903" y="768.96"/>
      </g>
     </g>
     <g id="text_6">
      <!-- 100 -->
      <g transform="translate(559.882636 794.19625)scale(0.24 -0.24)">
       <defs>
        <path d="M 794 531 
L 1825 531 
L 1825 4091 
L 703 3866 
L 703 4441 
L 1819 4666 
L 2450 4666 
L 2450 531 
L 3481 531 
L 3481 0 
L 794 0 
L 794 531 
z
" id="DejaVuSans-31" transform="scale(0.015625)"/>
       </defs>
       <use xlink:href="#DejaVuSans-31"/>
       <use x="63.623047" xlink:href="#DejaVuSans-30"/>
       <use x="127.246094" xlink:href="#DejaVuSans-30"/>
      </g>
     </g>
    </g>
    <g id="text_7">
     <!-- Proportion of DAPV in Grid (%) -->
     <g transform="translate(163.267125 821.42375)scale(0.24 -0.24)">
      <defs>
       <path d="M 1259 4147 
L 1259 2394 
L 2053 2394 
Q 2494 2394 2734 2622 
Q 2975 2850 2975 3272 
Q 2975 3691 2734 3919 
Q 2494 4147 2053 4147 
L 1259 4147 
z
M 628 4666 
L 2053 4666 
Q 2838 4666 3239 4311 
Q 3641 3956 3641 3272 
Q 3641 2581 3239 2228 
Q 2838 1875 2053 1875 
L 1259 1875 
L 1259 0 
L 628 0 
L 628 4666 
z
" id="DejaVuSans-50" transform="scale(0.015625)"/>
       <path d="M 2631 2963 
Q 2534 3019 2420 3045 
Q 2306 3072 2169 3072 
Q 1681 3072 1420 2755 
Q 1159 2438 1159 1844 
L 1159 0 
L 581 0 
L 581 3500 
L 1159 3500 
L 1159 2956 
Q 1341 3275 1631 3429 
Q 1922 3584 2338 3584 
Q 2397 3584 2469 3576 
Q 2541 3569 2628 3553 
L 2631 2963 
z
" id="DejaVuSans-72" transform="scale(0.015625)"/>
       <path d="M 1959 3097 
Q 1497 3097 1228 2736 
Q 959 2375 959 1747 
Q 959 1119 1226 758 
Q 1494 397 1959 397 
Q 2419 397 2687 759 
Q 2956 1122 2956 1747 
Q 2956 2369 2687 2733 
Q 2419 3097 1959 3097 
z
M 1959 3584 
Q 2709 3584 3137 3096 
Q 3566 2609 3566 1747 
Q 3566 888 3137 398 
Q 2709 -91 1959 -91 
Q 1206 -91 779 398 
Q 353 888 353 1747 
Q 353 2609 779 3096 
Q 1206 3584 1959 3584 
z
" id="DejaVuSans-6f" transform="scale(0.015625)"/>
       <path d="M 1159 525 
L 1159 -1331 
L 581 -1331 
L 581 3500 
L 1159 3500 
L 1159 2969 
Q 1341 3281 1617 3432 
Q 1894 3584 2278 3584 
Q 2916 3584 3314 3078 
Q 3713 2572 3713 1747 
Q 3713 922 3314 415 
Q 2916 -91 2278 -91 
Q 1894 -91 1617 61 
Q 1341 213 1159 525 
z
M 3116 1747 
Q 3116 2381 2855 2742 
Q 2594 3103 2138 3103 
Q 1681 3103 1420 2742 
Q 1159 2381 1159 1747 
Q 1159 1113 1420 752 
Q 1681 391 2138 391 
Q 2594 391 2855 752 
Q 3116 1113 3116 1747 
z
" id="DejaVuSans-70" transform="scale(0.015625)"/>
       <path d="M 1172 4494 
L 1172 3500 
L 2356 3500 
L 2356 3053 
L 1172 3053 
L 1172 1153 
Q 1172 725 1289 603 
Q 1406 481 1766 481 
L 2356 481 
L 2356 0 
L 1766 0 
Q 1100 0 847 248 
Q 594 497 594 1153 
L 594 3053 
L 172 3053 
L 172 3500 
L 594 3500 
L 594 4494 
L 1172 4494 
z
" id="DejaVuSans-74" transform="scale(0.015625)"/>
       <path d="M 603 3500 
L 1178 3500 
L 1178 0 
L 603 0 
L 603 3500 
z
M 603 4863 
L 1178 4863 
L 1178 4134 
L 603 4134 
L 603 4863 
z
" id="DejaVuSans-69" transform="scale(0.015625)"/>
       <path d="M 3513 2113 
L 3513 0 
L 2938 0 
L 2938 2094 
Q 2938 2591 2744 2837 
Q 2550 3084 2163 3084 
Q 1697 3084 1428 2787 
Q 1159 2491 1159 1978 
L 1159 0 
L 581 0 
L 581 3500 
L 1159 3500 
L 1159 2956 
Q 1366 3272 1645 3428 
Q 1925 3584 2291 3584 
Q 2894 3584 3203 3211 
Q 3513 2838 3513 2113 
z
" id="DejaVuSans-6e" transform="scale(0.015625)"/>
       <path id="DejaVuSans-20" transform="scale(0.015625)"/>
       <path d="M 2375 4863 
L 2375 4384 
L 1825 4384 
Q 1516 4384 1395 4259 
Q 1275 4134 1275 3809 
L 1275 3500 
L 2222 3500 
L 2222 3053 
L 1275 3053 
L 1275 0 
L 697 0 
L 697 3053 
L 147 3053 
L 147 3500 
L 697 3500 
L 697 3744 
Q 697 4328 969 4595 
Q 1241 4863 1831 4863 
L 2375 4863 
z
" id="DejaVuSans-66" transform="scale(0.015625)"/>
       <path d="M 1259 4147 
L 1259 519 
L 2022 519 
Q 2988 519 3436 956 
Q 3884 1394 3884 2338 
Q 3884 3275 3436 3711 
Q 2988 4147 2022 4147 
L 1259 4147 
z
M 628 4666 
L 1925 4666 
Q 3281 4666 3915 4102 
Q 4550 3538 4550 2338 
Q 4550 1131 3912 565 
Q 3275 0 1925 0 
L 628 0 
L 628 4666 
z
" id="DejaVuSans-44" transform="scale(0.015625)"/>
       <path d="M 2188 4044 
L 1331 1722 
L 3047 1722 
L 2188 4044 
z
M 1831 4666 
L 2547 4666 
L 4325 0 
L 3669 0 
L 3244 1197 
L 1141 1197 
L 716 0 
L 50 0 
L 1831 4666 
z
" id="DejaVuSans-41" transform="scale(0.015625)"/>
       <path d="M 1831 0 
L 50 4666 
L 709 4666 
L 2188 738 
L 3669 4666 
L 4325 4666 
L 2547 0 
L 1831 0 
z
" id="DejaVuSans-56" transform="scale(0.015625)"/>
       <path d="M 3809 666 
L 3809 1919 
L 2778 1919 
L 2778 2438 
L 4434 2438 
L 4434 434 
Q 4069 175 3628 42 
Q 3188 -91 2688 -91 
Q 1594 -91 976 548 
Q 359 1188 359 2328 
Q 359 3472 976 4111 
Q 1594 4750 2688 4750 
Q 3144 4750 3555 4637 
Q 3966 4525 4313 4306 
L 4313 3634 
Q 3963 3931 3569 4081 
Q 3175 4231 2741 4231 
Q 1884 4231 1454 3753 
Q 1025 3275 1025 2328 
Q 1025 1384 1454 906 
Q 1884 428 2741 428 
Q 3075 428 3337 486 
Q 3600 544 3809 666 
z
" id="DejaVuSans-47" transform="scale(0.015625)"/>
       <path d="M 2906 2969 
L 2906 4863 
L 3481 4863 
L 3481 0 
L 2906 0 
L 2906 525 
Q 2725 213 2448 61 
Q 2172 -91 1784 -91 
Q 1150 -91 751 415 
Q 353 922 353 1747 
Q 353 2572 751 3078 
Q 1150 3584 1784 3584 
Q 2172 3584 2448 3432 
Q 2725 3281 2906 2969 
z
M 947 1747 
Q 947 1113 1208 752 
Q 1469 391 1925 391 
Q 2381 391 2643 752 
Q 2906 1113 2906 1747 
Q 2906 2381 2643 2742 
Q 2381 3103 1925 3103 
Q 1469 3103 1208 2742 
Q 947 2381 947 1747 
z
" id="DejaVuSans-64" transform="scale(0.015625)"/>
       <path d="M 1984 4856 
Q 1566 4138 1362 3434 
Q 1159 2731 1159 2009 
Q 1159 1288 1364 580 
Q 1569 -128 1984 -844 
L 1484 -844 
Q 1016 -109 783 600 
Q 550 1309 550 2009 
Q 550 2706 781 3412 
Q 1013 4119 1484 4856 
L 1984 4856 
z
" id="DejaVuSans-28" transform="scale(0.015625)"/>
       <path d="M 4653 2053 
Q 4381 2053 4226 1822 
Q 4072 1591 4072 1178 
Q 4072 772 4226 539 
Q 4381 306 4653 306 
Q 4919 306 5073 539 
Q 5228 772 5228 1178 
Q 5228 1588 5073 1820 
Q 4919 2053 4653 2053 
z
M 4653 2450 
Q 5147 2450 5437 2106 
Q 5728 1763 5728 1178 
Q 5728 594 5436 251 
Q 5144 -91 4653 -91 
Q 4153 -91 3862 251 
Q 3572 594 3572 1178 
Q 3572 1766 3864 2108 
Q 4156 2450 4653 2450 
z
M 1428 4353 
Q 1159 4353 1004 4120 
Q 850 3888 850 3481 
Q 850 3069 1003 2837 
Q 1156 2606 1428 2606 
Q 1700 2606 1854 2837 
Q 2009 3069 2009 3481 
Q 2009 3884 1853 4118 
Q 1697 4353 1428 4353 
z
M 4250 4750 
L 4750 4750 
L 1831 -91 
L 1331 -91 
L 4250 4750 
z
M 1428 4750 
Q 1922 4750 2215 4408 
Q 2509 4066 2509 3481 
Q 2509 2891 2217 2550 
Q 1925 2209 1428 2209 
Q 931 2209 642 2551 
Q 353 2894 353 3481 
Q 353 4063 643 4406 
Q 934 4750 1428 4750 
z
" id="DejaVuSans-25" transform="scale(0.015625)"/>
       <path d="M 513 4856 
L 1013 4856 
Q 1481 4119 1714 3412 
Q 1947 2706 1947 2009 
Q 1947 1309 1714 600 
Q 1481 -109 1013 -844 
L 513 -844 
Q 928 -128 1133 580 
Q 1338 1288 1338 2009 
Q 1338 2731 1133 3434 
Q 928 4138 513 4856 
z
" id="DejaVuSans-29" transform="scale(0.015625)"/>
      </defs>
      <use xlink:href="#DejaVuSans-50"/>
      <use x="58.552734" xlink:href="#DejaVuSans-72"/>
      <use x="97.416016" xlink:href="#DejaVuSans-6f"/>
      <use x="158.597656" xlink:href="#DejaVuSans-70"/>
      <use x="222.074219" xlink:href="#DejaVuSans-6f"/>
      <use x="283.255859" xlink:href="#DejaVuSans-72"/>
      <use x="324.369141" xlink:href="#DejaVuSans-74"/>
      <use x="363.578125" xlink:href="#DejaVuSans-69"/>
      <use x="391.361328" xlink:href="#DejaVuSans-6f"/>
      <use x="452.542969" xlink:href="#DejaVuSans-6e"/>
      <use x="515.921875" xlink:href="#DejaVuSans-20"/>
      <use x="547.708984" xlink:href="#DejaVuSans-6f"/>
      <use x="608.890625" xlink:href="#DejaVuSans-66"/>
      <use x="644.095703" xlink:href="#DejaVuSans-20"/>
      <use x="675.882812" xlink:href="#DejaVuSans-44"/>
      <use x="751.134766" xlink:href="#DejaVuSans-41"/>
      <use x="819.542969" xlink:href="#DejaVuSans-50"/>
      <use x="879.845703" xlink:href="#DejaVuSans-56"/>
      <use x="948.253906" xlink:href="#DejaVuSans-20"/>
      <use x="980.041016" xlink:href="#DejaVuSans-69"/>
      <use x="1007.824219" xlink:href="#DejaVuSans-6e"/>
      <use x="1071.203125" xlink:href="#DejaVuSans-20"/>
      <use x="1102.990234" xlink:href="#DejaVuSans-47"/>
      <use x="1180.480469" xlink:href="#DejaVuSans-72"/>
      <use x="1221.59375" xlink:href="#DejaVuSans-69"/>
      <use x="1249.376953" xlink:href="#DejaVuSans-64"/>
      <use x="1312.853516" xlink:href="#DejaVuSans-20"/>
      <use x="1344.640625" xlink:href="#DejaVuSans-28"/>
      <use x="1383.654297" xlink:href="#DejaVuSans-25"/>
      <use x="1478.673828" xlink:href="#DejaVuSans-29"/>
     </g>
    </g>
   </g>
   <g id="matplotlib.axis_2">
    <g id="ytick_1">
     <g id="line2d_7">
      <defs>
       <path d="M 0 0 
L -3.5 0 
" id="ma1b52adc26" style="stroke:#000000;stroke-width:0.8;"/>
      </defs>
      <g>
       <use style="stroke:#000000;stroke-width:0.8;" x="84.24" xlink:href="#ma1b52adc26" y="768.96"/>
      </g>
     </g>
     <g id="text_8">
      <!-- 0 -->
      <g transform="translate(61.97 778.078125)scale(0.24 -0.24)">
       <use xlink:href="#DejaVuSans-30"/>
      </g>
     </g>
    </g>
    <g id="ytick_2">
     <g id="line2d_8">
      <g>
       <use style="stroke:#000000;stroke-width:0.8;" x="84.24" xlink:href="#ma1b52adc26" y="662.277647"/>
      </g>
     </g>
     <g id="text_9">
      <!-- 50 -->
      <g transform="translate(46.7 671.395772)scale(0.24 -0.24)">
       <defs>
        <path d="M 691 4666 
L 3169 4666 
L 3169 4134 
L 1269 4134 
L 1269 2991 
Q 1406 3038 1543 3061 
Q 1681 3084 1819 3084 
Q 2600 3084 3056 2656 
Q 3513 2228 3513 1497 
Q 3513 744 3044 326 
Q 2575 -91 1722 -91 
Q 1428 -91 1123 -41 
Q 819 9 494 109 
L 494 744 
Q 775 591 1075 516 
Q 1375 441 1709 441 
Q 2250 441 2565 725 
Q 2881 1009 2881 1497 
Q 2881 1984 2565 2268 
Q 2250 2553 1709 2553 
Q 1456 2553 1204 2497 
Q 953 2441 691 2322 
L 691 4666 
z
" id="DejaVuSans-35" transform="scale(0.015625)"/>
       </defs>
       <use xlink:href="#DejaVuSans-35"/>
       <use x="63.623047" xlink:href="#DejaVuSans-30"/>
      </g>
     </g>
    </g>
    <g id="ytick_3">
     <g id="line2d_9">
      <g>
       <use style="stroke:#000000;stroke-width:0.8;" x="84.24" xlink:href="#ma1b52adc26" y="555.595293"/>
      </g>
     </g>
     <g id="text_10">
      <!-- 100 -->
      <g transform="translate(31.43 564.713418)scale(0.24 -0.24)">
       <use xlink:href="#DejaVuSans-31"/>
       <use x="63.623047" xlink:href="#DejaVuSans-30"/>
       <use x="127.246094" xlink:href="#DejaVuSans-30"/>
      </g>
     </g>
    </g>
    <g id="ytick_4">
     <g id="line2d_10">
      <g>
       <use style="stroke:#000000;stroke-width:0.8;" x="84.24" xlink:href="#ma1b52adc26" y="448.91294"/>
      </g>
     </g>
     <g id="text_11">
      <!-- 150 -->
      <g transform="translate(31.43 458.031065)scale(0.24 -0.24)">
       <use xlink:href="#DejaVuSans-31"/>
       <use x="63.623047" xlink:href="#DejaVuSans-35"/>
       <use x="127.246094" xlink:href="#DejaVuSans-30"/>
      </g>
     </g>
    </g>
    <g id="ytick_5">
     <g id="line2d_11">
      <g>
       <use style="stroke:#000000;stroke-width:0.8;" x="84.24" xlink:href="#ma1b52adc26" y="342.230586"/>
      </g>
     </g>
     <g id="text_12">
      <!-- 200 -->
      <g transform="translate(31.43 351.348711)scale(0.24 -0.24)">
       <use xlink:href="#DejaVuSans-32"/>
       <use x="63.623047" xlink:href="#DejaVuSans-30"/>
       <use x="127.246094" xlink:href="#DejaVuSans-30"/>
      </g>
     </g>
    </g>
    <g id="ytick_6">
     <g id="line2d_12">
      <g>
       <use style="stroke:#000000;stroke-width:0.8;" x="84.24" xlink:href="#ma1b52adc26" y="235.548233"/>
      </g>
     </g>
     <g id="text_13">
      <!-- 250 -->
      <g transform="translate(31.43 244.666358)scale(0.24 -0.24)">
       <use xlink:href="#DejaVuSans-32"/>
       <use x="63.623047" xlink:href="#DejaVuSans-35"/>
       <use x="127.246094" xlink:href="#DejaVuSans-30"/>
      </g>
     </g>
    </g>
    <g id="ytick_7">
     <g id="line2d_13">
      <g>
       <use style="stroke:#000000;stroke-width:0.8;" x="84.24" xlink:href="#ma1b52adc26" y="128.865879"/>
      </g>
     </g>
     <g id="text_14">
      <!-- 300 -->
      <g transform="translate(31.43 137.984004)scale(0.24 -0.24)">
       <defs>
        <path d="M 2597 2516 
Q 3050 2419 3304 2112 
Q 3559 1806 3559 1356 
Q 3559 666 3084 287 
Q 2609 -91 1734 -91 
Q 1441 -91 1130 -33 
Q 819 25 488 141 
L 488 750 
Q 750 597 1062 519 
Q 1375 441 1716 441 
Q 2309 441 2620 675 
Q 2931 909 2931 1356 
Q 2931 1769 2642 2001 
Q 2353 2234 1838 2234 
L 1294 2234 
L 1294 2753 
L 1863 2753 
Q 2328 2753 2575 2939 
Q 2822 3125 2822 3475 
Q 2822 3834 2567 4026 
Q 2313 4219 1838 4219 
Q 1578 4219 1281 4162 
Q 984 4106 628 3988 
L 628 4550 
Q 988 4650 1302 4700 
Q 1616 4750 1894 4750 
Q 2613 4750 3031 4423 
Q 3450 4097 3450 3541 
Q 3450 3153 3228 2886 
Q 3006 2619 2597 2516 
z
" id="DejaVuSans-33" transform="scale(0.015625)"/>
       </defs>
       <use xlink:href="#DejaVuSans-33"/>
       <use x="63.623047" xlink:href="#DejaVuSans-30"/>
       <use x="127.246094" xlink:href="#DejaVuSans-30"/>
      </g>
     </g>
    </g>
    <g id="text_15">
     <!-- Energy Generated (TWh) -->
     <g transform="translate(22.43875 585.789375)rotate(-90)scale(0.24 -0.24)">
      <defs>
       <path d="M 628 4666 
L 3578 4666 
L 3578 4134 
L 1259 4134 
L 1259 2753 
L 3481 2753 
L 3481 2222 
L 1259 2222 
L 1259 531 
L 3634 531 
L 3634 0 
L 628 0 
L 628 4666 
z
" id="DejaVuSans-45" transform="scale(0.015625)"/>
       <path d="M 3597 1894 
L 3597 1613 
L 953 1613 
Q 991 1019 1311 708 
Q 1631 397 2203 397 
Q 2534 397 2845 478 
Q 3156 559 3463 722 
L 3463 178 
Q 3153 47 2828 -22 
Q 2503 -91 2169 -91 
Q 1331 -91 842 396 
Q 353 884 353 1716 
Q 353 2575 817 3079 
Q 1281 3584 2069 3584 
Q 2775 3584 3186 3129 
Q 3597 2675 3597 1894 
z
M 3022 2063 
Q 3016 2534 2758 2815 
Q 2500 3097 2075 3097 
Q 1594 3097 1305 2825 
Q 1016 2553 972 2059 
L 3022 2063 
z
" id="DejaVuSans-65" transform="scale(0.015625)"/>
       <path d="M 2906 1791 
Q 2906 2416 2648 2759 
Q 2391 3103 1925 3103 
Q 1463 3103 1205 2759 
Q 947 2416 947 1791 
Q 947 1169 1205 825 
Q 1463 481 1925 481 
Q 2391 481 2648 825 
Q 2906 1169 2906 1791 
z
M 3481 434 
Q 3481 -459 3084 -895 
Q 2688 -1331 1869 -1331 
Q 1566 -1331 1297 -1286 
Q 1028 -1241 775 -1147 
L 775 -588 
Q 1028 -725 1275 -790 
Q 1522 -856 1778 -856 
Q 2344 -856 2625 -561 
Q 2906 -266 2906 331 
L 2906 616 
Q 2728 306 2450 153 
Q 2172 0 1784 0 
Q 1141 0 747 490 
Q 353 981 353 1791 
Q 353 2603 747 3093 
Q 1141 3584 1784 3584 
Q 2172 3584 2450 3431 
Q 2728 3278 2906 2969 
L 2906 3500 
L 3481 3500 
L 3481 434 
z
" id="DejaVuSans-67" transform="scale(0.015625)"/>
       <path d="M 2059 -325 
Q 1816 -950 1584 -1140 
Q 1353 -1331 966 -1331 
L 506 -1331 
L 506 -850 
L 844 -850 
Q 1081 -850 1212 -737 
Q 1344 -625 1503 -206 
L 1606 56 
L 191 3500 
L 800 3500 
L 1894 763 
L 2988 3500 
L 3597 3500 
L 2059 -325 
z
" id="DejaVuSans-79" transform="scale(0.015625)"/>
       <path d="M 2194 1759 
Q 1497 1759 1228 1600 
Q 959 1441 959 1056 
Q 959 750 1161 570 
Q 1363 391 1709 391 
Q 2188 391 2477 730 
Q 2766 1069 2766 1631 
L 2766 1759 
L 2194 1759 
z
M 3341 1997 
L 3341 0 
L 2766 0 
L 2766 531 
Q 2569 213 2275 61 
Q 1981 -91 1556 -91 
Q 1019 -91 701 211 
Q 384 513 384 1019 
Q 384 1609 779 1909 
Q 1175 2209 1959 2209 
L 2766 2209 
L 2766 2266 
Q 2766 2663 2505 2880 
Q 2244 3097 1772 3097 
Q 1472 3097 1187 3025 
Q 903 2953 641 2809 
L 641 3341 
Q 956 3463 1253 3523 
Q 1550 3584 1831 3584 
Q 2591 3584 2966 3190 
Q 3341 2797 3341 1997 
z
" id="DejaVuSans-61" transform="scale(0.015625)"/>
       <path d="M -19 4666 
L 3928 4666 
L 3928 4134 
L 2272 4134 
L 2272 0 
L 1638 0 
L 1638 4134 
L -19 4134 
L -19 4666 
z
" id="DejaVuSans-54" transform="scale(0.015625)"/>
       <path d="M 213 4666 
L 850 4666 
L 1831 722 
L 2809 4666 
L 3519 4666 
L 4500 722 
L 5478 4666 
L 6119 4666 
L 4947 0 
L 4153 0 
L 3169 4050 
L 2175 0 
L 1381 0 
L 213 4666 
z
" id="DejaVuSans-57" transform="scale(0.015625)"/>
       <path d="M 3513 2113 
L 3513 0 
L 2938 0 
L 2938 2094 
Q 2938 2591 2744 2837 
Q 2550 3084 2163 3084 
Q 1697 3084 1428 2787 
Q 1159 2491 1159 1978 
L 1159 0 
L 581 0 
L 581 4863 
L 1159 4863 
L 1159 2956 
Q 1366 3272 1645 3428 
Q 1925 3584 2291 3584 
Q 2894 3584 3203 3211 
Q 3513 2838 3513 2113 
z
" id="DejaVuSans-68" transform="scale(0.015625)"/>
      </defs>
      <use xlink:href="#DejaVuSans-45"/>
      <use x="63.183594" xlink:href="#DejaVuSans-6e"/>
      <use x="126.5625" xlink:href="#DejaVuSans-65"/>
      <use x="188.085938" xlink:href="#DejaVuSans-72"/>
      <use x="227.449219" xlink:href="#DejaVuSans-67"/>
      <use x="290.925781" xlink:href="#DejaVuSans-79"/>
      <use x="350.105469" xlink:href="#DejaVuSans-20"/>
      <use x="381.892578" xlink:href="#DejaVuSans-47"/>
      <use x="459.382812" xlink:href="#DejaVuSans-65"/>
      <use x="520.90625" xlink:href="#DejaVuSans-6e"/>
      <use x="584.285156" xlink:href="#DejaVuSans-65"/>
      <use x="645.808594" xlink:href="#DejaVuSans-72"/>
      <use x="686.921875" xlink:href="#DejaVuSans-61"/>
      <use x="748.201172" xlink:href="#DejaVuSans-74"/>
      <use x="787.410156" xlink:href="#DejaVuSans-65"/>
      <use x="848.933594" xlink:href="#DejaVuSans-64"/>
      <use x="912.410156" xlink:href="#DejaVuSans-20"/>
      <use x="944.197266" xlink:href="#DejaVuSans-28"/>
      <use x="983.210938" xlink:href="#DejaVuSans-54"/>
      <use x="1044.294922" xlink:href="#DejaVuSans-57"/>
      <use x="1143.171875" xlink:href="#DejaVuSans-68"/>
      <use x="1206.550781" xlink:href="#DejaVuSans-29"/>
     </g>
    </g>
   </g>
   <g id="patch_3">
    <path d="M 84.24 768.96 
L 84.24 103.68 
" style="fill:none;stroke:#000000;stroke-linecap:square;stroke-linejoin:miter;stroke-width:0.8;"/>
   </g>
   <g id="patch_4">
    <path d="M 606.528 768.96 
L 606.528 103.68 
" style="fill:none;stroke:#000000;stroke-linecap:square;stroke-linejoin:miter;stroke-width:0.8;"/>
   </g>
   <g id="patch_5">
    <path d="M 84.24 768.96 
L 606.528 768.96 
" style="fill:none;stroke:#000000;stroke-linecap:square;stroke-linejoin:miter;stroke-width:0.8;"/>
   </g>
   <g id="patch_6">
    <path d="M 84.24 103.68 
L 606.528 103.68 
" style="fill:none;stroke:#000000;stroke-linecap:square;stroke-linejoin:miter;stroke-width:0.8;"/>
   </g>
  </g>
 </g>
 <defs>
  <clipPath id="ped648e9140">
   <rect height="665.28" width="522.288" x="84.24" y="103.68"/>
  </clipPath>
 </defs>
</svg>
