<?xml version="1.0" encoding="utf-8" standalone="no"?>
<!DOCTYPE svg PUBLIC "-//W3C//DTD SVG 1.1//EN"
  "http://www.w3.org/Graphics/SVG/1.1/DTD/svg11.dtd">
<svg height="576pt" version="1.1" viewBox="0 0 432 576" width="432pt" xmlns="http://www.w3.org/2000/svg" xmlns:xlink="http://www.w3.org/1999/xlink">
 <metadata>
  <rdf:RDF xmlns:cc="http://creativecommons.org/ns#" xmlns:dc="http://purl.org/dc/elements/1.1/" xmlns:rdf="http://www.w3.org/1999/02/22-rdf-syntax-ns#">
   <cc:Work>
    <dc:type rdf:resource="http://purl.org/dc/dcmitype/StillImage"/>
    <dc:date>2021-06-15T11:14:58.268166</dc:date>
    <dc:format>image/svg+xml</dc:format>
    <dc:creator>
     <cc:Agent>
      <dc:title>Matplotlib v3.4.1, https://matplotlib.org/</dc:title>
     </cc:Agent>
    </dc:creator>
   </cc:Work>
  </rdf:RDF>
 </metadata>
 <defs>
  <style type="text/css">*{stroke-linecap:butt;stroke-linejoin:round;}</style>
 </defs>
 <g id="figure_1">
  <g id="patch_1">
   <path d="M 0 576 
L 432 576 
L 432 0 
L 0 0 
z
" style="fill:#ffffff;"/>
  </g>
  <g id="axes_1">
   <g id="patch_2">
    <path d="M 54 512.64 
L 388.8 512.64 
L 388.8 69.12 
L 54 69.12 
z
" style="fill:#ffffff;"/>
   </g>
   <g id="PolyCollection_1">
    <path clip-path="url(#pa3e583a5c4)" d="M 69.218182 304.676668 
L 69.218182 512.64 
L 72.292562 512.64 
L 75.366942 512.64 
L 78.441322 512.64 
L 81.515702 512.64 
L 84.590083 512.64 
L 87.664463 512.64 
L 90.738843 512.64 
L 93.813223 512.64 
L 96.887603 512.64 
L 99.961983 512.64 
L 103.036364 512.64 
L 106.110744 512.64 
L 109.185124 512.64 
L 112.259504 512.64 
L 115.333884 512.64 
L 118.408264 512.64 
L 121.482645 512.64 
L 124.557025 512.64 
L 127.631405 512.64 
L 130.705785 512.64 
L 133.780165 512.64 
L 136.854545 512.64 
L 139.928926 512.64 
L 143.003306 512.64 
L 146.077686 512.64 
L 149.152066 512.64 
L 152.226446 512.64 
L 155.300826 512.64 
L 158.375207 512.64 
L 161.449587 512.64 
L 164.523967 512.64 
L 167.598347 512.64 
L 170.672727 512.64 
L 173.747107 512.64 
L 176.821488 512.64 
L 179.895868 512.64 
L 182.970248 512.64 
L 186.044628 512.64 
L 189.119008 512.64 
L 192.193388 512.64 
L 195.267769 512.64 
L 198.342149 512.64 
L 201.416529 512.64 
L 204.490909 512.64 
L 207.565289 512.64 
L 210.639669 512.64 
L 213.71405 512.64 
L 216.78843 512.64 
L 219.86281 512.64 
L 222.93719 512.64 
L 226.01157 512.64 
L 229.08595 512.64 
L 232.160331 512.64 
L 235.234711 512.64 
L 238.309091 512.64 
L 241.383471 512.64 
L 244.457851 512.64 
L 247.532231 512.64 
L 250.606612 512.64 
L 253.680992 512.64 
L 256.755372 512.64 
L 259.829752 512.64 
L 262.904132 512.64 
L 265.978512 512.64 
L 269.052893 512.64 
L 272.127273 512.64 
L 275.201653 512.64 
L 278.276033 512.64 
L 281.350413 512.64 
L 284.424793 512.64 
L 287.499174 512.64 
L 290.573554 512.64 
L 293.647934 512.64 
L 296.722314 512.64 
L 299.796694 512.64 
L 302.871074 512.64 
L 305.945455 512.64 
L 309.019835 512.64 
L 312.094215 512.64 
L 315.168595 512.64 
L 318.242975 512.64 
L 321.317355 512.64 
L 324.391736 512.64 
L 327.466116 512.64 
L 330.540496 512.64 
L 333.614876 512.64 
L 336.689256 512.64 
L 339.763636 512.64 
L 342.838017 512.64 
L 345.912397 512.64 
L 348.986777 512.64 
L 352.061157 512.64 
L 355.135537 512.64 
L 358.209917 512.64 
L 361.284298 512.64 
L 364.358678 512.64 
L 367.433058 512.64 
L 370.507438 512.64 
L 373.581818 512.64 
L 373.581818 354.847282 
L 373.581818 354.847282 
L 370.507438 354.407313 
L 367.433058 353.964576 
L 364.358678 353.519356 
L 361.284298 353.070325 
L 358.209917 352.617587 
L 355.135537 352.162936 
L 352.061157 351.704993 
L 348.986777 351.244125 
L 345.912397 350.781993 
L 342.838017 350.317671 
L 339.763636 349.851714 
L 336.689256 349.383928 
L 333.614876 348.913194 
L 330.540496 348.437721 
L 327.466116 347.958816 
L 324.391736 347.477597 
L 321.317355 346.99324 
L 318.242975 346.503042 
L 315.168595 346.011431 
L 312.094215 345.517027 
L 309.019835 345.018883 
L 305.945455 344.517175 
L 302.871074 344.013029 
L 299.796694 343.508512 
L 296.722314 343.004791 
L 293.647934 342.501132 
L 290.573554 341.996787 
L 287.499174 341.493482 
L 284.424793 340.993274 
L 281.350413 340.494401 
L 278.276033 339.995709 
L 275.201653 339.49589 
L 272.127273 338.993064 
L 269.052893 338.488053 
L 265.978512 337.981247 
L 262.904132 337.474271 
L 259.829752 336.96931 
L 256.755372 336.464652 
L 253.680992 335.962042 
L 250.606612 335.456365 
L 247.532231 334.953686 
L 244.457851 334.449413 
L 241.383471 333.944364 
L 238.309091 333.440172 
L 235.234711 332.93932 
L 232.160331 332.442356 
L 229.08595 331.947062 
L 226.01157 331.449469 
L 222.93719 330.949843 
L 219.86281 330.451732 
L 216.78843 329.95599 
L 213.71405 329.464873 
L 210.639669 328.976621 
L 207.565289 328.489177 
L 204.490909 328.004677 
L 201.416529 327.525484 
L 198.342149 327.052738 
L 195.267769 326.583867 
L 192.193388 326.117419 
L 189.119008 325.652025 
L 186.044628 325.186305 
L 182.970248 324.722666 
L 179.895868 324.263353 
L 176.821488 323.807955 
L 173.747107 323.353231 
L 170.672727 322.898523 
L 167.598347 322.443433 
L 164.523967 321.997966 
L 161.449587 321.565048 
L 158.375207 321.141273 
L 155.300826 320.723199 
L 152.226446 320.311253 
L 149.152066 319.903202 
L 146.077686 319.495395 
L 143.003306 319.08333 
L 139.928926 318.66332 
L 136.854545 318.228642 
L 133.780165 317.771908 
L 130.705785 317.289296 
L 127.631405 316.77573 
L 124.557025 316.251509 
L 121.482645 315.717731 
L 118.408264 315.168172 
L 115.333884 314.612566 
L 112.259504 314.054511 
L 109.185124 313.477245 
L 106.110744 312.876193 
L 103.036364 312.227605 
L 99.961983 311.558653 
L 96.887603 310.878515 
L 93.813223 310.191866 
L 90.738843 309.502466 
L 87.664463 308.813067 
L 84.590083 308.123667 
L 81.515702 307.434267 
L 78.441322 306.744867 
L 75.366942 306.055467 
L 72.292562 305.366068 
L 69.218182 304.676668 
z
" style="fill:#3182bd;"/>
   </g>
   <g id="PolyCollection_2">
    <path clip-path="url(#pa3e583a5c4)" d="M 69.218182 265.179606 
L 69.218182 304.676668 
L 72.292562 305.366068 
L 75.366942 306.055467 
L 78.441322 306.744867 
L 81.515702 307.434267 
L 84.590083 308.123667 
L 87.664463 308.813067 
L 90.738843 309.502466 
L 93.813223 310.191866 
L 96.887603 310.878515 
L 99.961983 311.558653 
L 103.036364 312.227605 
L 106.110744 312.876193 
L 109.185124 313.477245 
L 112.259504 314.054511 
L 115.333884 314.612566 
L 118.408264 315.168172 
L 121.482645 315.717731 
L 124.557025 316.251509 
L 127.631405 316.77573 
L 130.705785 317.289296 
L 133.780165 317.771908 
L 136.854545 318.228642 
L 139.928926 318.66332 
L 143.003306 319.08333 
L 146.077686 319.495395 
L 149.152066 319.903202 
L 152.226446 320.311253 
L 155.300826 320.723199 
L 158.375207 321.141273 
L 161.449587 321.565048 
L 164.523967 321.997966 
L 167.598347 322.443433 
L 170.672727 322.898523 
L 173.747107 323.353231 
L 176.821488 323.807955 
L 179.895868 324.263353 
L 182.970248 324.722666 
L 186.044628 325.186305 
L 189.119008 325.652025 
L 192.193388 326.117419 
L 195.267769 326.583867 
L 198.342149 327.052738 
L 201.416529 327.525484 
L 204.490909 328.004677 
L 207.565289 328.489177 
L 210.639669 328.976621 
L 213.71405 329.464873 
L 216.78843 329.95599 
L 219.86281 330.451732 
L 222.93719 330.949843 
L 226.01157 331.449469 
L 229.08595 331.947062 
L 232.160331 332.442356 
L 235.234711 332.93932 
L 238.309091 333.440172 
L 241.383471 333.944364 
L 244.457851 334.449413 
L 247.532231 334.953686 
L 250.606612 335.456365 
L 253.680992 335.962042 
L 256.755372 336.464652 
L 259.829752 336.96931 
L 262.904132 337.474271 
L 265.978512 337.981247 
L 269.052893 338.488053 
L 272.127273 338.993064 
L 275.201653 339.49589 
L 278.276033 339.995709 
L 281.350413 340.494401 
L 284.424793 340.993274 
L 287.499174 341.493482 
L 290.573554 341.996787 
L 293.647934 342.501132 
L 296.722314 343.004791 
L 299.796694 343.508512 
L 302.871074 344.013029 
L 305.945455 344.517175 
L 309.019835 345.018883 
L 312.094215 345.517027 
L 315.168595 346.011431 
L 318.242975 346.503042 
L 321.317355 346.99324 
L 324.391736 347.477597 
L 327.466116 347.958816 
L 330.540496 348.437721 
L 333.614876 348.913194 
L 336.689256 349.383928 
L 339.763636 349.851714 
L 342.838017 350.317671 
L 345.912397 350.781993 
L 348.986777 351.244125 
L 352.061157 351.704993 
L 355.135537 352.162936 
L 358.209917 352.617587 
L 361.284298 353.070325 
L 364.358678 353.519356 
L 367.433058 353.964576 
L 370.507438 354.407313 
L 373.581818 354.847282 
L 373.581818 328.723381 
L 373.581818 328.723381 
L 370.507438 328.21334 
L 367.433058 327.698987 
L 364.358678 327.181184 
L 361.284298 326.659464 
L 358.209917 326.133401 
L 355.135537 325.604589 
L 352.061157 325.072103 
L 348.986777 324.535228 
L 345.912397 323.994561 
L 342.838017 323.449654 
L 339.763636 322.901836 
L 336.689256 322.349928 
L 333.614876 321.793848 
L 330.540496 321.233682 
L 327.466116 320.668714 
L 324.391736 320.099498 
L 321.317355 319.525992 
L 318.242975 318.948042 
L 315.168595 318.366804 
L 312.094215 317.780793 
L 309.019835 317.190671 
L 305.945455 316.596251 
L 302.871074 315.997976 
L 299.796694 315.397513 
L 296.722314 314.794483 
L 293.647934 314.188551 
L 290.573554 313.579121 
L 287.499174 312.967573 
L 284.424793 312.354507 
L 281.350413 311.739059 
L 278.276033 311.120757 
L 275.201653 310.498664 
L 272.127273 309.872358 
L 269.052893 309.242576 
L 265.978512 308.609128 
L 262.904132 307.972896 
L 259.829752 307.334644 
L 256.755372 306.693395 
L 253.680992 306.049077 
L 250.606612 305.402978 
L 247.532231 304.754394 
L 244.457851 304.103036 
L 241.383471 303.447976 
L 238.309091 302.789467 
L 235.234711 302.129276 
L 232.160331 301.466937 
L 229.08595 300.802299 
L 226.01157 300.136133 
L 222.93719 299.467277 
L 219.86281 298.796736 
L 216.78843 298.12464 
L 213.71405 297.451173 
L 210.639669 296.776464 
L 207.565289 296.099925 
L 204.490909 295.422382 
L 201.416529 294.743033 
L 198.342149 294.063168 
L 195.267769 293.382355 
L 192.193388 292.701009 
L 189.119008 292.018784 
L 186.044628 291.335306 
L 182.970248 290.65148 
L 179.895868 289.967618 
L 176.821488 289.283537 
L 173.747107 288.59883 
L 170.672727 287.912907 
L 167.598347 287.226447 
L 164.523967 286.539606 
L 161.449587 285.852766 
L 158.375207 285.16551 
L 155.300826 284.477592 
L 152.226446 283.789403 
L 149.152066 283.100809 
L 146.077686 282.412147 
L 143.003306 281.723486 
L 139.928926 281.034619 
L 136.854545 280.345602 
L 133.780165 279.656508 
L 130.705785 278.967415 
L 127.631405 278.278202 
L 124.557025 277.588803 
L 121.482645 276.899403 
L 118.408264 276.210003 
L 115.333884 275.520603 
L 112.259504 274.831204 
L 109.185124 274.141804 
L 106.110744 273.452404 
L 103.036364 272.763004 
L 99.961983 272.073604 
L 96.887603 271.384205 
L 93.813223 270.694805 
L 90.738843 270.005405 
L 87.664463 269.316005 
L 84.590083 268.626605 
L 81.515702 267.937206 
L 78.441322 267.247806 
L 75.366942 266.558406 
L 72.292562 265.869006 
L 69.218182 265.179606 
z
" style="fill:#6baed6;"/>
   </g>
   <g id="PolyCollection_3">
    <path clip-path="url(#pa3e583a5c4)" d="M 69.218182 260.908632 
L 69.218182 265.179606 
L 72.292562 265.869006 
L 75.366942 266.558406 
L 78.441322 267.247806 
L 81.515702 267.937206 
L 84.590083 268.626605 
L 87.664463 269.316005 
L 90.738843 270.005405 
L 93.813223 270.694805 
L 96.887603 271.384205 
L 99.961983 272.073604 
L 103.036364 272.763004 
L 106.110744 273.452404 
L 109.185124 274.141804 
L 112.259504 274.831204 
L 115.333884 275.520603 
L 118.408264 276.210003 
L 121.482645 276.899403 
L 124.557025 277.588803 
L 127.631405 278.278202 
L 130.705785 278.967415 
L 133.780165 279.656508 
L 136.854545 280.345602 
L 139.928926 281.034619 
L 143.003306 281.723486 
L 146.077686 282.412147 
L 149.152066 283.100809 
L 152.226446 283.789403 
L 155.300826 284.477592 
L 158.375207 285.16551 
L 161.449587 285.852766 
L 164.523967 286.539606 
L 167.598347 287.226447 
L 170.672727 287.912907 
L 173.747107 288.59883 
L 176.821488 289.283537 
L 179.895868 289.967618 
L 182.970248 290.65148 
L 186.044628 291.335306 
L 189.119008 292.018784 
L 192.193388 292.701009 
L 195.267769 293.382355 
L 198.342149 294.063168 
L 201.416529 294.743033 
L 204.490909 295.422382 
L 207.565289 296.099925 
L 210.639669 296.776464 
L 213.71405 297.451173 
L 216.78843 298.12464 
L 219.86281 298.796736 
L 222.93719 299.467277 
L 226.01157 300.136133 
L 229.08595 300.802299 
L 232.160331 301.466937 
L 235.234711 302.129276 
L 238.309091 302.789467 
L 241.383471 303.447976 
L 244.457851 304.103036 
L 247.532231 304.754394 
L 250.606612 305.402978 
L 253.680992 306.049077 
L 256.755372 306.693395 
L 259.829752 307.334644 
L 262.904132 307.972896 
L 265.978512 308.609128 
L 269.052893 309.242576 
L 272.127273 309.872358 
L 275.201653 310.498664 
L 278.276033 311.120757 
L 281.350413 311.739059 
L 284.424793 312.354507 
L 287.499174 312.967573 
L 290.573554 313.579121 
L 293.647934 314.188551 
L 296.722314 314.794483 
L 299.796694 315.397513 
L 302.871074 315.997976 
L 305.945455 316.596251 
L 309.019835 317.190671 
L 312.094215 317.780793 
L 315.168595 318.366804 
L 318.242975 318.948042 
L 321.317355 319.525992 
L 324.391736 320.099498 
L 327.466116 320.668714 
L 330.540496 321.233682 
L 333.614876 321.793848 
L 336.689256 322.349928 
L 339.763636 322.901836 
L 342.838017 323.449654 
L 345.912397 323.994561 
L 348.986777 324.535228 
L 352.061157 325.072103 
L 355.135537 325.604589 
L 358.209917 326.133401 
L 361.284298 326.659464 
L 364.358678 327.181184 
L 367.433058 327.698987 
L 370.507438 328.21334 
L 373.581818 328.723381 
L 373.581818 324.695921 
L 373.581818 324.695921 
L 370.507438 324.178446 
L 367.433058 323.657123 
L 364.358678 323.131747 
L 361.284298 322.603394 
L 358.209917 322.072028 
L 355.135537 321.536507 
L 352.061157 320.997179 
L 348.986777 320.454309 
L 345.912397 319.907129 
L 342.838017 319.355994 
L 339.763636 318.801053 
L 336.689256 318.242291 
L 333.614876 317.679395 
L 330.540496 317.11231 
L 327.466116 316.541007 
L 324.391736 315.965508 
L 321.317355 315.385997 
L 318.242975 314.802659 
L 315.168595 314.21449 
L 312.094215 313.622578 
L 309.019835 313.02664 
L 305.945455 312.427383 
L 302.871074 311.825983 
L 299.796694 311.221846 
L 296.722314 310.614582 
L 293.647934 310.004462 
L 290.573554 309.392493 
L 287.499174 308.778556 
L 284.424793 308.16215 
L 281.350413 307.541996 
L 278.276033 306.918869 
L 275.201653 306.291869 
L 272.127273 305.660898 
L 269.052893 305.02686 
L 265.978512 304.390085 
L 262.904132 303.751281 
L 259.829752 303.109935 
L 256.755372 302.465182 
L 253.680992 301.81865 
L 250.606612 301.169323 
L 247.532231 300.516891 
L 244.457851 299.861496 
L 241.383471 299.203184 
L 238.309091 298.542896 
L 235.234711 297.880371 
L 232.160331 297.216351 
L 229.08595 296.550082 
L 226.01157 295.881159 
L 222.93719 295.210655 
L 219.86281 294.538898 
L 216.78843 293.8655 
L 213.71405 293.190991 
L 210.639669 292.514764 
L 207.565289 291.837203 
L 204.490909 291.158165 
L 201.416529 290.478188 
L 198.342149 289.79748 
L 195.267769 289.116265 
L 192.193388 288.434334 
L 189.119008 287.751228 
L 186.044628 287.067461 
L 182.970248 286.383585 
L 179.895868 285.699505 
L 176.821488 285.015189 
L 173.747107 284.329797 
L 170.672727 283.643494 
L 167.598347 282.956653 
L 164.523967 282.269812 
L 161.449587 281.582756 
L 158.375207 280.89501 
L 155.300826 280.206886 
L 152.226446 279.518428 
L 149.152066 278.829834 
L 146.077686 278.141173 
L 143.003306 277.452511 
L 139.928926 276.763644 
L 136.854545 276.074627 
L 133.780165 275.385534 
L 130.705785 274.69644 
L 127.631405 274.007228 
L 124.557025 273.317828 
L 121.482645 272.628428 
L 118.408264 271.939028 
L 115.333884 271.249629 
L 112.259504 270.560229 
L 109.185124 269.870829 
L 106.110744 269.181429 
L 103.036364 268.492029 
L 99.961983 267.80263 
L 96.887603 267.11323 
L 93.813223 266.42383 
L 90.738843 265.73443 
L 87.664463 265.04503 
L 84.590083 264.355631 
L 81.515702 263.666231 
L 78.441322 262.976831 
L 75.366942 262.287431 
L 72.292562 261.598032 
L 69.218182 260.908632 
z
" style="fill:#9ecae1;"/>
   </g>
   <g id="PolyCollection_4">
    <path clip-path="url(#pa3e583a5c4)" d="M 69.218182 256.152974 
L 69.218182 260.908632 
L 72.292562 261.598032 
L 75.366942 262.287431 
L 78.441322 262.976831 
L 81.515702 263.666231 
L 84.590083 264.355631 
L 87.664463 265.04503 
L 90.738843 265.73443 
L 93.813223 266.42383 
L 96.887603 267.11323 
L 99.961983 267.80263 
L 103.036364 268.492029 
L 106.110744 269.181429 
L 109.185124 269.870829 
L 112.259504 270.560229 
L 115.333884 271.249629 
L 118.408264 271.939028 
L 121.482645 272.628428 
L 124.557025 273.317828 
L 127.631405 274.007228 
L 130.705785 274.69644 
L 133.780165 275.385534 
L 136.854545 276.074627 
L 139.928926 276.763644 
L 143.003306 277.452511 
L 146.077686 278.141173 
L 149.152066 278.829834 
L 152.226446 279.518428 
L 155.300826 280.206886 
L 158.375207 280.89501 
L 161.449587 281.582756 
L 164.523967 282.269812 
L 167.598347 282.956653 
L 170.672727 283.643494 
L 173.747107 284.329797 
L 176.821488 285.015189 
L 179.895868 285.699505 
L 182.970248 286.383585 
L 186.044628 287.067461 
L 189.119008 287.751228 
L 192.193388 288.434334 
L 195.267769 289.116265 
L 198.342149 289.79748 
L 201.416529 290.478188 
L 204.490909 291.158165 
L 207.565289 291.837203 
L 210.639669 292.514764 
L 213.71405 293.190991 
L 216.78843 293.8655 
L 219.86281 294.538898 
L 222.93719 295.210655 
L 226.01157 295.881159 
L 229.08595 296.550082 
L 232.160331 297.216351 
L 235.234711 297.880371 
L 238.309091 298.542896 
L 241.383471 299.203184 
L 244.457851 299.861496 
L 247.532231 300.516891 
L 250.606612 301.169323 
L 253.680992 301.81865 
L 256.755372 302.465182 
L 259.829752 303.109935 
L 262.904132 303.751281 
L 265.978512 304.390085 
L 269.052893 305.02686 
L 272.127273 305.660898 
L 275.201653 306.291869 
L 278.276033 306.918869 
L 281.350413 307.541996 
L 284.424793 308.16215 
L 287.499174 308.778556 
L 290.573554 309.392493 
L 293.647934 310.004462 
L 296.722314 310.614582 
L 299.796694 311.221846 
L 302.871074 311.825983 
L 305.945455 312.427383 
L 309.019835 313.02664 
L 312.094215 313.622578 
L 315.168595 314.21449 
L 318.242975 314.802659 
L 321.317355 315.385997 
L 324.391736 315.965508 
L 327.466116 316.541007 
L 330.540496 317.11231 
L 333.614876 317.679395 
L 336.689256 318.242291 
L 339.763636 318.801053 
L 342.838017 319.355994 
L 345.912397 319.907129 
L 348.986777 320.454309 
L 352.061157 320.997179 
L 355.135537 321.536507 
L 358.209917 322.072028 
L 361.284298 322.603394 
L 364.358678 323.131747 
L 367.433058 323.657123 
L 370.507438 324.178446 
L 373.581818 324.695921 
L 373.581818 319.942676 
L 373.581818 319.942676 
L 370.507438 319.424965 
L 367.433058 318.90338 
L 364.358678 318.377683 
L 361.284298 317.849192 
L 358.209917 317.317825 
L 355.135537 316.782304 
L 352.061157 316.242733 
L 348.986777 315.699644 
L 345.912397 315.152245 
L 342.838017 314.60107 
L 339.763636 314.046129 
L 336.689256 313.487368 
L 333.614876 312.924471 
L 330.540496 312.356939 
L 327.466116 311.7854 
L 324.391736 311.20985 
L 321.317355 310.630339 
L 318.242975 310.047001 
L 315.168595 309.458832 
L 312.094215 308.866921 
L 309.019835 308.270983 
L 305.945455 307.671725 
L 302.871074 307.070326 
L 299.796694 306.466188 
L 296.722314 305.858924 
L 293.647934 305.248804 
L 290.573554 304.636835 
L 287.499174 304.022898 
L 284.424793 303.406492 
L 281.350413 302.786338 
L 278.276033 302.163211 
L 275.201653 301.536211 
L 272.127273 300.90524 
L 269.052893 300.271202 
L 265.978512 299.634427 
L 262.904132 298.995623 
L 259.829752 298.354277 
L 256.755372 297.709525 
L 253.680992 297.062992 
L 250.606612 296.413665 
L 247.532231 295.761233 
L 244.457851 295.105838 
L 241.383471 294.447526 
L 238.309091 293.787239 
L 235.234711 293.124714 
L 232.160331 292.460693 
L 229.08595 291.794424 
L 226.01157 291.125501 
L 222.93719 290.454998 
L 219.86281 289.78324 
L 216.78843 289.109842 
L 213.71405 288.435333 
L 210.639669 287.759107 
L 207.565289 287.081545 
L 204.490909 286.402507 
L 201.416529 285.72253 
L 198.342149 285.041822 
L 195.267769 284.360607 
L 192.193388 283.678676 
L 189.119008 282.99557 
L 186.044628 282.311803 
L 182.970248 281.627927 
L 179.895868 280.943847 
L 176.821488 280.259531 
L 173.747107 279.574139 
L 170.672727 278.887836 
L 167.598347 278.200995 
L 164.523967 277.514154 
L 161.449587 276.827098 
L 158.375207 276.139352 
L 155.300826 275.451228 
L 152.226446 274.762771 
L 149.152066 274.074177 
L 146.077686 273.385515 
L 143.003306 272.696853 
L 139.928926 272.007986 
L 136.854545 271.318969 
L 133.780165 270.629876 
L 130.705785 269.940782 
L 127.631405 269.25157 
L 124.557025 268.56217 
L 121.482645 267.87277 
L 118.408264 267.183371 
L 115.333884 266.493971 
L 112.259504 265.804571 
L 109.185124 265.115171 
L 106.110744 264.425772 
L 103.036364 263.736372 
L 99.961983 263.046972 
L 96.887603 262.357572 
L 93.813223 261.668172 
L 90.738843 260.978773 
L 87.664463 260.289373 
L 84.590083 259.599973 
L 81.515702 258.910573 
L 78.441322 258.221173 
L 75.366942 257.531774 
L 72.292562 256.842374 
L 69.218182 256.152974 
z
" style="fill:#c6dbef;"/>
   </g>
   <g id="PolyCollection_5">
    <path clip-path="url(#pa3e583a5c4)" d="M 69.218182 238.577686 
L 69.218182 256.152974 
L 72.292562 256.842374 
L 75.366942 257.531774 
L 78.441322 258.221173 
L 81.515702 258.910573 
L 84.590083 259.599973 
L 87.664463 260.289373 
L 90.738843 260.978773 
L 93.813223 261.668172 
L 96.887603 262.357572 
L 99.961983 263.046972 
L 103.036364 263.736372 
L 106.110744 264.425772 
L 109.185124 265.115171 
L 112.259504 265.804571 
L 115.333884 266.493971 
L 118.408264 267.183371 
L 121.482645 267.87277 
L 124.557025 268.56217 
L 127.631405 269.25157 
L 130.705785 269.940782 
L 133.780165 270.629876 
L 136.854545 271.318969 
L 139.928926 272.007986 
L 143.003306 272.696853 
L 146.077686 273.385515 
L 149.152066 274.074177 
L 152.226446 274.762771 
L 155.300826 275.451228 
L 158.375207 276.139352 
L 161.449587 276.827098 
L 164.523967 277.514154 
L 167.598347 278.200995 
L 170.672727 278.887836 
L 173.747107 279.574139 
L 176.821488 280.259531 
L 179.895868 280.943847 
L 182.970248 281.627927 
L 186.044628 282.311803 
L 189.119008 282.99557 
L 192.193388 283.678676 
L 195.267769 284.360607 
L 198.342149 285.041822 
L 201.416529 285.72253 
L 204.490909 286.402507 
L 207.565289 287.081545 
L 210.639669 287.759107 
L 213.71405 288.435333 
L 216.78843 289.109842 
L 219.86281 289.78324 
L 222.93719 290.454998 
L 226.01157 291.125501 
L 229.08595 291.794424 
L 232.160331 292.460693 
L 235.234711 293.124714 
L 238.309091 293.787239 
L 241.383471 294.447526 
L 244.457851 295.105838 
L 247.532231 295.761233 
L 250.606612 296.413665 
L 253.680992 297.062992 
L 256.755372 297.709525 
L 259.829752 298.354277 
L 262.904132 298.995623 
L 265.978512 299.634427 
L 269.052893 300.271202 
L 272.127273 300.90524 
L 275.201653 301.536211 
L 278.276033 302.163211 
L 281.350413 302.786338 
L 284.424793 303.406492 
L 287.499174 304.022898 
L 290.573554 304.636835 
L 293.647934 305.248804 
L 296.722314 305.858924 
L 299.796694 306.466188 
L 302.871074 307.070326 
L 305.945455 307.671725 
L 309.019835 308.270983 
L 312.094215 308.866921 
L 315.168595 309.458832 
L 318.242975 310.047001 
L 321.317355 310.630339 
L 324.391736 311.20985 
L 327.466116 311.7854 
L 330.540496 312.356939 
L 333.614876 312.924471 
L 336.689256 313.487368 
L 339.763636 314.046129 
L 342.838017 314.60107 
L 345.912397 315.152245 
L 348.986777 315.699644 
L 352.061157 316.242733 
L 355.135537 316.782304 
L 358.209917 317.317825 
L 361.284298 317.849192 
L 364.358678 318.377683 
L 367.433058 318.90338 
L 370.507438 319.424965 
L 373.581818 319.942676 
L 373.581818 302.388921 
L 373.581818 302.388921 
L 370.507438 301.869799 
L 367.433058 301.347112 
L 364.358678 300.820336 
L 361.284298 300.290717 
L 358.209917 299.758084 
L 355.135537 299.221296 
L 352.061157 298.680444 
L 348.986777 298.135943 
L 345.912397 297.587574 
L 342.838017 297.035759 
L 339.763636 296.480272 
L 336.689256 295.920964 
L 333.614876 295.357521 
L 330.540496 294.789403 
L 327.466116 294.217209 
L 324.391736 293.640918 
L 321.317355 293.060548 
L 318.242975 292.476301 
L 315.168595 291.887223 
L 312.094215 291.294493 
L 309.019835 290.698031 
L 305.945455 290.098381 
L 302.871074 289.496587 
L 299.796694 288.892056 
L 296.722314 288.284403 
L 293.647934 287.674125 
L 290.573554 287.061999 
L 287.499174 286.447904 
L 284.424793 285.831341 
L 281.350413 285.21105 
L 278.276033 284.587923 
L 275.201653 283.960923 
L 272.127273 283.329952 
L 269.052893 282.695914 
L 265.978512 282.059139 
L 262.904132 281.420335 
L 259.829752 280.778989 
L 256.755372 280.134236 
L 253.680992 279.487704 
L 250.606612 278.838377 
L 247.532231 278.185945 
L 244.457851 277.53055 
L 241.383471 276.872238 
L 238.309091 276.21195 
L 235.234711 275.549425 
L 232.160331 274.885405 
L 229.08595 274.219136 
L 226.01157 273.550213 
L 222.93719 272.879709 
L 219.86281 272.207952 
L 216.78843 271.534554 
L 213.71405 270.860045 
L 210.639669 270.183818 
L 207.565289 269.506257 
L 204.490909 268.827219 
L 201.416529 268.147242 
L 198.342149 267.466534 
L 195.267769 266.785319 
L 192.193388 266.103388 
L 189.119008 265.420282 
L 186.044628 264.736515 
L 182.970248 264.052639 
L 179.895868 263.368559 
L 176.821488 262.684243 
L 173.747107 261.998851 
L 170.672727 261.312548 
L 167.598347 260.625707 
L 164.523967 259.938866 
L 161.449587 259.25181 
L 158.375207 258.564064 
L 155.300826 257.87594 
L 152.226446 257.187482 
L 149.152066 256.498889 
L 146.077686 255.810227 
L 143.003306 255.121565 
L 139.928926 254.432698 
L 136.854545 253.743681 
L 133.780165 253.054588 
L 130.705785 252.365494 
L 127.631405 251.676282 
L 124.557025 250.986882 
L 121.482645 250.297482 
L 118.408264 249.608082 
L 115.333884 248.918683 
L 112.259504 248.229283 
L 109.185124 247.539883 
L 106.110744 246.850483 
L 103.036364 246.161083 
L 99.961983 245.471684 
L 96.887603 244.782284 
L 93.813223 244.092884 
L 90.738843 243.403484 
L 87.664463 242.714085 
L 84.590083 242.024685 
L 81.515702 241.335285 
L 78.441322 240.645885 
L 75.366942 239.956485 
L 72.292562 239.267086 
L 69.218182 238.577686 
z
" style="fill:#e6550d;"/>
   </g>
   <g id="PolyCollection_6">
    <path clip-path="url(#pa3e583a5c4)" d="M 69.218182 212.599631 
L 69.218182 238.577686 
L 72.292562 239.267086 
L 75.366942 239.956485 
L 78.441322 240.645885 
L 81.515702 241.335285 
L 84.590083 242.024685 
L 87.664463 242.714085 
L 90.738843 243.403484 
L 93.813223 244.092884 
L 96.887603 244.782284 
L 99.961983 245.471684 
L 103.036364 246.161083 
L 106.110744 246.850483 
L 109.185124 247.539883 
L 112.259504 248.229283 
L 115.333884 248.918683 
L 118.408264 249.608082 
L 121.482645 250.297482 
L 124.557025 250.986882 
L 127.631405 251.676282 
L 130.705785 252.365494 
L 133.780165 253.054588 
L 136.854545 253.743681 
L 139.928926 254.432698 
L 143.003306 255.121565 
L 146.077686 255.810227 
L 149.152066 256.498889 
L 152.226446 257.187482 
L 155.300826 257.87594 
L 158.375207 258.564064 
L 161.449587 259.25181 
L 164.523967 259.938866 
L 167.598347 260.625707 
L 170.672727 261.312548 
L 173.747107 261.998851 
L 176.821488 262.684243 
L 179.895868 263.368559 
L 182.970248 264.052639 
L 186.044628 264.736515 
L 189.119008 265.420282 
L 192.193388 266.103388 
L 195.267769 266.785319 
L 198.342149 267.466534 
L 201.416529 268.147242 
L 204.490909 268.827219 
L 207.565289 269.506257 
L 210.639669 270.183818 
L 213.71405 270.860045 
L 216.78843 271.534554 
L 219.86281 272.207952 
L 222.93719 272.879709 
L 226.01157 273.550213 
L 229.08595 274.219136 
L 232.160331 274.885405 
L 235.234711 275.549425 
L 238.309091 276.21195 
L 241.383471 276.872238 
L 244.457851 277.53055 
L 247.532231 278.185945 
L 250.606612 278.838377 
L 253.680992 279.487704 
L 256.755372 280.134236 
L 259.829752 280.778989 
L 262.904132 281.420335 
L 265.978512 282.059139 
L 269.052893 282.695914 
L 272.127273 283.329952 
L 275.201653 283.960923 
L 278.276033 284.587923 
L 281.350413 285.21105 
L 284.424793 285.831341 
L 287.499174 286.447904 
L 290.573554 287.061999 
L 293.647934 287.674125 
L 296.722314 288.284403 
L 299.796694 288.892056 
L 302.871074 289.496587 
L 305.945455 290.098381 
L 309.019835 290.698031 
L 312.094215 291.294493 
L 315.168595 291.887223 
L 318.242975 292.476301 
L 321.317355 293.060548 
L 324.391736 293.640918 
L 327.466116 294.217209 
L 330.540496 294.789403 
L 333.614876 295.357521 
L 336.689256 295.920964 
L 339.763636 296.480272 
L 342.838017 297.035759 
L 345.912397 297.587574 
L 348.986777 298.135943 
L 352.061157 298.680444 
L 355.135537 299.221296 
L 358.209917 299.758084 
L 361.284298 300.290717 
L 364.358678 300.820336 
L 367.433058 301.347112 
L 370.507438 301.869799 
L 373.581818 302.388921 
L 373.581818 276.464204 
L 373.581818 276.464204 
L 370.507438 275.943204 
L 367.433058 275.418186 
L 364.358678 274.889048 
L 361.284298 274.357103 
L 358.209917 273.822375 
L 355.135537 273.283642 
L 352.061157 272.740844 
L 348.986777 272.194363 
L 345.912397 271.644054 
L 342.838017 271.089866 
L 339.763636 270.53202 
L 336.689256 269.970566 
L 333.614876 269.405454 
L 330.540496 268.835751 
L 327.466116 268.262122 
L 324.391736 267.684405 
L 321.317355 267.102568 
L 318.242975 266.516855 
L 315.168595 265.92631 
L 312.094215 265.332127 
L 309.019835 264.734208 
L 305.945455 264.133428 
L 302.871074 263.53077 
L 299.796694 262.925397 
L 296.722314 262.316898 
L 293.647934 261.705542 
L 290.573554 261.092337 
L 287.499174 260.477315 
L 284.424793 259.859877 
L 281.350413 259.238691 
L 278.276033 258.614667 
L 275.201653 257.986931 
L 272.127273 257.355306 
L 269.052893 256.720655 
L 265.978512 256.08341 
L 262.904132 255.444213 
L 259.829752 254.802473 
L 256.755372 254.157328 
L 253.680992 253.510402 
L 250.606612 252.860781 
L 247.532231 252.208192 
L 244.457851 251.552639 
L 241.383471 250.894183 
L 238.309091 250.233896 
L 235.234711 249.571371 
L 232.160331 248.907351 
L 229.08595 248.241082 
L 226.01157 247.572158 
L 222.93719 246.901655 
L 219.86281 246.229897 
L 216.78843 245.556499 
L 213.71405 244.88199 
L 210.639669 244.205764 
L 207.565289 243.528202 
L 204.490909 242.849165 
L 201.416529 242.169188 
L 198.342149 241.488479 
L 195.267769 240.807264 
L 192.193388 240.125333 
L 189.119008 239.442228 
L 186.044628 238.758461 
L 182.970248 238.074585 
L 179.895868 237.390504 
L 176.821488 236.706188 
L 173.747107 236.020797 
L 170.672727 235.334493 
L 167.598347 234.647653 
L 164.523967 233.960812 
L 161.449587 233.273755 
L 158.375207 232.586009 
L 155.300826 231.897885 
L 152.226446 231.209428 
L 149.152066 230.520834 
L 146.077686 229.832172 
L 143.003306 229.14351 
L 139.928926 228.454644 
L 136.854545 227.765627 
L 133.780165 227.076533 
L 130.705785 226.38744 
L 127.631405 225.698227 
L 124.557025 225.008828 
L 121.482645 224.319428 
L 118.408264 223.630028 
L 115.333884 222.940628 
L 112.259504 222.251228 
L 109.185124 221.561829 
L 106.110744 220.872429 
L 103.036364 220.183029 
L 99.961983 219.493629 
L 96.887603 218.80423 
L 93.813223 218.11483 
L 90.738843 217.42543 
L 87.664463 216.73603 
L 84.590083 216.04663 
L 81.515702 215.357231 
L 78.441322 214.667831 
L 75.366942 213.978431 
L 72.292562 213.289031 
L 69.218182 212.599631 
z
" style="fill:#fd8d3c;"/>
   </g>
   <g id="PolyCollection_7">
    <path clip-path="url(#pa3e583a5c4)" d="M 69.218182 199.185433 
L 69.218182 212.599631 
L 72.292562 213.289031 
L 75.366942 213.978431 
L 78.441322 214.667831 
L 81.515702 215.357231 
L 84.590083 216.04663 
L 87.664463 216.73603 
L 90.738843 217.42543 
L 93.813223 218.11483 
L 96.887603 218.80423 
L 99.961983 219.493629 
L 103.036364 220.183029 
L 106.110744 220.872429 
L 109.185124 221.561829 
L 112.259504 222.251228 
L 115.333884 222.940628 
L 118.408264 223.630028 
L 121.482645 224.319428 
L 124.557025 225.008828 
L 127.631405 225.698227 
L 130.705785 226.38744 
L 133.780165 227.076533 
L 136.854545 227.765627 
L 139.928926 228.454644 
L 143.003306 229.14351 
L 146.077686 229.832172 
L 149.152066 230.520834 
L 152.226446 231.209428 
L 155.300826 231.897885 
L 158.375207 232.586009 
L 161.449587 233.273755 
L 164.523967 233.960812 
L 167.598347 234.647653 
L 170.672727 235.334493 
L 173.747107 236.020797 
L 176.821488 236.706188 
L 179.895868 237.390504 
L 182.970248 238.074585 
L 186.044628 238.758461 
L 189.119008 239.442228 
L 192.193388 240.125333 
L 195.267769 240.807264 
L 198.342149 241.488479 
L 201.416529 242.169188 
L 204.490909 242.849165 
L 207.565289 243.528202 
L 210.639669 244.205764 
L 213.71405 244.88199 
L 216.78843 245.556499 
L 219.86281 246.229897 
L 222.93719 246.901655 
L 226.01157 247.572158 
L 229.08595 248.241082 
L 232.160331 248.907351 
L 235.234711 249.571371 
L 238.309091 250.233896 
L 241.383471 250.894183 
L 244.457851 251.552639 
L 247.532231 252.208192 
L 250.606612 252.860781 
L 253.680992 253.510402 
L 256.755372 254.157328 
L 259.829752 254.802473 
L 262.904132 255.444213 
L 265.978512 256.08341 
L 269.052893 256.720655 
L 272.127273 257.355306 
L 275.201653 257.986931 
L 278.276033 258.614667 
L 281.350413 259.238691 
L 284.424793 259.859877 
L 287.499174 260.477315 
L 290.573554 261.092337 
L 293.647934 261.705542 
L 296.722314 262.316898 
L 299.796694 262.925397 
L 302.871074 263.53077 
L 305.945455 264.133428 
L 309.019835 264.734208 
L 312.094215 265.332127 
L 315.168595 265.92631 
L 318.242975 266.516855 
L 321.317355 267.102568 
L 324.391736 267.684405 
L 327.466116 268.262122 
L 330.540496 268.835751 
L 333.614876 269.405454 
L 336.689256 269.970566 
L 339.763636 270.53202 
L 342.838017 271.089866 
L 345.912397 271.644054 
L 348.986777 272.194363 
L 352.061157 272.740844 
L 355.135537 273.283642 
L 358.209917 273.822375 
L 361.284298 274.357103 
L 364.358678 274.889048 
L 367.433058 275.418186 
L 370.507438 275.943204 
L 373.581818 276.464204 
L 373.581818 276.464204 
L 373.581818 276.464204 
L 370.507438 275.808382 
L 367.433058 275.148541 
L 364.358678 274.484449 
L 361.284298 273.817541 
L 358.209917 273.147786 
L 355.135537 272.47405 
L 352.061157 271.796316 
L 348.986777 271.114817 
L 345.912397 270.429134 
L 342.838017 269.739865 
L 339.763636 269.046797 
L 336.689256 268.350023 
L 333.614876 267.649193 
L 330.540496 266.943996 
L 327.466116 266.234887 
L 324.391736 265.521581 
L 321.317355 264.804426 
L 318.242975 264.083458 
L 315.168595 263.357658 
L 312.094215 262.628117 
L 309.019835 261.894561 
L 305.945455 261.157731 
L 302.871074 260.418896 
L 299.796694 259.677635 
L 296.722314 258.933479 
L 293.647934 258.186731 
L 290.573554 257.438188 
L 287.499174 256.687676 
L 284.424793 255.934696 
L 281.350413 255.177967 
L 278.276033 254.418287 
L 275.201653 253.654892 
L 272.127273 252.887526 
L 269.052893 252.117139 
L 265.978512 251.344237 
L 262.904132 250.569306 
L 259.829752 249.791832 
L 256.755372 249.010952 
L 253.680992 248.228338 
L 250.606612 247.443078 
L 247.532231 246.654712 
L 244.457851 245.863457 
L 241.383471 245.069308 
L 238.309091 244.273185 
L 235.234711 243.474992 
L 232.160331 242.675347 
L 229.08595 241.873453 
L 226.01157 241.068904 
L 222.93719 240.262776 
L 219.86281 239.455393 
L 216.78843 238.646369 
L 213.71405 237.836235 
L 210.639669 237.024425 
L 207.565289 236.211367 
L 204.490909 235.396832 
L 201.416529 234.581358 
L 198.342149 233.765153 
L 195.267769 232.948441 
L 192.193388 232.131013 
L 189.119008 231.31241 
L 186.044628 230.493146 
L 182.970248 229.673773 
L 179.895868 228.854196 
L 176.821488 228.034383 
L 173.747107 227.213494 
L 170.672727 226.391694 
L 167.598347 225.569357 
L 164.523967 224.747019 
L 161.449587 223.924466 
L 158.375207 223.101222 
L 155.300826 222.277602 
L 152.226446 221.453647 
L 149.152066 220.629556 
L 146.077686 219.805398 
L 143.003306 218.981239 
L 139.928926 218.156875 
L 136.854545 217.332361 
L 133.780165 216.507771 
L 130.705785 215.68318 
L 127.631405 214.858471 
L 124.557025 214.033574 
L 121.482645 213.208677 
L 118.408264 212.383781 
L 115.333884 211.558884 
L 112.259504 210.733987 
L 109.185124 209.909091 
L 106.110744 209.084194 
L 103.036364 208.259297 
L 99.961983 207.4344 
L 96.887603 206.609504 
L 93.813223 205.784607 
L 90.738843 204.95971 
L 87.664463 204.134813 
L 84.590083 203.309917 
L 81.515702 202.48502 
L 78.441322 201.660123 
L 75.366942 200.835226 
L 72.292562 200.01033 
L 69.218182 199.185433 
z
" style="fill:#fdae6b;"/>
   </g>
   <g id="PolyCollection_8">
    <path clip-path="url(#pa3e583a5c4)" d="M 69.218182 104.943127 
L 69.218182 199.185433 
L 72.292562 200.01033 
L 75.366942 200.835226 
L 78.441322 201.660123 
L 81.515702 202.48502 
L 84.590083 203.309917 
L 87.664463 204.134813 
L 90.738843 204.95971 
L 93.813223 205.784607 
L 96.887603 206.609504 
L 99.961983 207.4344 
L 103.036364 208.259297 
L 106.110744 209.084194 
L 109.185124 209.909091 
L 112.259504 210.733987 
L 115.333884 211.558884 
L 118.408264 212.383781 
L 121.482645 213.208677 
L 124.557025 214.033574 
L 127.631405 214.858471 
L 130.705785 215.68318 
L 133.780165 216.507771 
L 136.854545 217.332361 
L 139.928926 218.156875 
L 143.003306 218.981239 
L 146.077686 219.805398 
L 149.152066 220.629556 
L 152.226446 221.453647 
L 155.300826 222.277602 
L 158.375207 223.101222 
L 161.449587 223.924466 
L 164.523967 224.747019 
L 167.598347 225.569357 
L 170.672727 226.391694 
L 173.747107 227.213494 
L 176.821488 228.034383 
L 179.895868 228.854196 
L 182.970248 229.673773 
L 186.044628 230.493146 
L 189.119008 231.31241 
L 192.193388 232.131013 
L 195.267769 232.948441 
L 198.342149 233.765153 
L 201.416529 234.581358 
L 204.490909 235.396832 
L 207.565289 236.211367 
L 210.639669 237.024425 
L 213.71405 237.836235 
L 216.78843 238.646369 
L 219.86281 239.455393 
L 222.93719 240.262776 
L 226.01157 241.068904 
L 229.08595 241.873453 
L 232.160331 242.675347 
L 235.234711 243.474992 
L 238.309091 244.273185 
L 241.383471 245.069308 
L 244.457851 245.863457 
L 247.532231 246.654712 
L 250.606612 247.443078 
L 253.680992 248.228338 
L 256.755372 249.010952 
L 259.829752 249.791832 
L 262.904132 250.569306 
L 265.978512 251.344237 
L 269.052893 252.117139 
L 272.127273 252.887526 
L 275.201653 253.654892 
L 278.276033 254.418287 
L 281.350413 255.177967 
L 284.424793 255.934696 
L 287.499174 256.687676 
L 290.573554 257.438188 
L 293.647934 258.186731 
L 296.722314 258.933479 
L 299.796694 259.677635 
L 302.871074 260.418896 
L 305.945455 261.157731 
L 309.019835 261.894561 
L 312.094215 262.628117 
L 315.168595 263.357658 
L 318.242975 264.083458 
L 321.317355 264.804426 
L 324.391736 265.521581 
L 327.466116 266.234887 
L 330.540496 266.943996 
L 333.614876 267.649193 
L 336.689256 268.350023 
L 339.763636 269.046797 
L 342.838017 269.739865 
L 345.912397 270.429134 
L 348.986777 271.114817 
L 352.061157 271.796316 
L 355.135537 272.47405 
L 358.209917 273.147786 
L 361.284298 273.817541 
L 364.358678 274.484449 
L 367.433058 275.148541 
L 370.507438 275.808382 
L 373.581818 276.464204 
L 373.581818 182.221897 
L 373.581818 182.221897 
L 370.507438 181.566076 
L 367.433058 180.906235 
L 364.358678 180.242143 
L 361.284298 179.575235 
L 358.209917 178.905479 
L 355.135537 178.231743 
L 352.061157 177.55401 
L 348.986777 176.87251 
L 345.912397 176.186827 
L 342.838017 175.497559 
L 339.763636 174.804491 
L 336.689256 174.107716 
L 333.614876 173.406886 
L 330.540496 172.701689 
L 327.466116 171.99258 
L 324.391736 171.279275 
L 321.317355 170.56212 
L 318.242975 169.841152 
L 315.168595 169.115352 
L 312.094215 168.385811 
L 309.019835 167.652255 
L 305.945455 166.915425 
L 302.871074 166.17659 
L 299.796694 165.435328 
L 296.722314 164.691173 
L 293.647934 163.944425 
L 290.573554 163.195881 
L 287.499174 162.44537 
L 284.424793 161.692389 
L 281.350413 160.935661 
L 278.276033 160.175981 
L 275.201653 159.412586 
L 272.127273 158.64522 
L 269.052893 157.874833 
L 265.978512 157.101931 
L 262.904132 156.326999 
L 259.829752 155.549526 
L 256.755372 154.768646 
L 253.680992 153.986032 
L 250.606612 153.200772 
L 247.532231 152.412406 
L 244.457851 151.621151 
L 241.383471 150.827002 
L 238.309091 150.030878 
L 235.234711 149.232686 
L 232.160331 148.433041 
L 229.08595 147.631146 
L 226.01157 146.826598 
L 222.93719 146.020469 
L 219.86281 145.213087 
L 216.78843 144.404063 
L 213.71405 143.593929 
L 210.639669 142.782119 
L 207.565289 141.96906 
L 204.490909 141.154526 
L 201.416529 140.339052 
L 198.342149 139.522846 
L 195.267769 138.706135 
L 192.193388 137.888707 
L 189.119008 137.070104 
L 186.044628 136.25084 
L 182.970248 135.431467 
L 179.895868 134.61189 
L 176.821488 133.792077 
L 173.747107 132.971188 
L 170.672727 132.149388 
L 167.598347 131.32705 
L 164.523967 130.504713 
L 161.449587 129.682159 
L 158.375207 128.858916 
L 155.300826 128.035295 
L 152.226446 127.211341 
L 149.152066 126.38725 
L 146.077686 125.563091 
L 143.003306 124.738933 
L 139.928926 123.914569 
L 136.854545 123.090055 
L 133.780165 122.265465 
L 130.705785 121.440874 
L 127.631405 120.616165 
L 124.557025 119.791268 
L 121.482645 118.966371 
L 118.408264 118.141474 
L 115.333884 117.316578 
L 112.259504 116.491681 
L 109.185124 115.666784 
L 106.110744 114.841887 
L 103.036364 114.016991 
L 99.961983 113.192094 
L 96.887603 112.367197 
L 93.813223 111.5423 
L 90.738843 110.717404 
L 87.664463 109.892507 
L 84.590083 109.06761 
L 81.515702 108.242714 
L 78.441322 107.417817 
L 75.366942 106.59292 
L 72.292562 105.768023 
L 69.218182 104.943127 
z
" style="fill:#fdd0a2;"/>
   </g>
   <g id="PolyCollection_9">
    <path clip-path="url(#pa3e583a5c4)" d="M 69.218182 90.24 
L 69.218182 104.943127 
L 72.292562 105.768023 
L 75.366942 106.59292 
L 78.441322 107.417817 
L 81.515702 108.242714 
L 84.590083 109.06761 
L 87.664463 109.892507 
L 90.738843 110.717404 
L 93.813223 111.5423 
L 96.887603 112.367197 
L 99.961983 113.192094 
L 103.036364 114.016991 
L 106.110744 114.841887 
L 109.185124 115.666784 
L 112.259504 116.491681 
L 115.333884 117.316578 
L 118.408264 118.141474 
L 121.482645 118.966371 
L 124.557025 119.791268 
L 127.631405 120.616165 
L 130.705785 121.440874 
L 133.780165 122.265465 
L 136.854545 123.090055 
L 139.928926 123.914569 
L 143.003306 124.738933 
L 146.077686 125.563091 
L 149.152066 126.38725 
L 152.226446 127.211341 
L 155.300826 128.035295 
L 158.375207 128.858916 
L 161.449587 129.682159 
L 164.523967 130.504713 
L 167.598347 131.32705 
L 170.672727 132.149388 
L 173.747107 132.971188 
L 176.821488 133.792077 
L 179.895868 134.61189 
L 182.970248 135.431467 
L 186.044628 136.25084 
L 189.119008 137.070104 
L 192.193388 137.888707 
L 195.267769 138.706135 
L 198.342149 139.522846 
L 201.416529 140.339052 
L 204.490909 141.154526 
L 207.565289 141.96906 
L 210.639669 142.782119 
L 213.71405 143.593929 
L 216.78843 144.404063 
L 219.86281 145.213087 
L 222.93719 146.020469 
L 226.01157 146.826598 
L 229.08595 147.631146 
L 232.160331 148.433041 
L 235.234711 149.232686 
L 238.309091 150.030878 
L 241.383471 150.827002 
L 244.457851 151.621151 
L 247.532231 152.412406 
L 250.606612 153.200772 
L 253.680992 153.986032 
L 256.755372 154.768646 
L 259.829752 155.549526 
L 262.904132 156.326999 
L 265.978512 157.101931 
L 269.052893 157.874833 
L 272.127273 158.64522 
L 275.201653 159.412586 
L 278.276033 160.175981 
L 281.350413 160.935661 
L 284.424793 161.692389 
L 287.499174 162.44537 
L 290.573554 163.195881 
L 293.647934 163.944425 
L 296.722314 164.691173 
L 299.796694 165.435328 
L 302.871074 166.17659 
L 305.945455 166.915425 
L 309.019835 167.652255 
L 312.094215 168.385811 
L 315.168595 169.115352 
L 318.242975 169.841152 
L 321.317355 170.56212 
L 324.391736 171.279275 
L 327.466116 171.99258 
L 330.540496 172.701689 
L 333.614876 173.406886 
L 336.689256 174.107716 
L 339.763636 174.804491 
L 342.838017 175.497559 
L 345.912397 176.186827 
L 348.986777 176.87251 
L 352.061157 177.55401 
L 355.135537 178.231743 
L 358.209917 178.905479 
L 361.284298 179.575235 
L 364.358678 180.242143 
L 367.433058 180.906235 
L 370.507438 181.566076 
L 373.581818 182.221897 
L 373.581818 182.221897 
L 373.581818 182.221897 
L 370.507438 181.417559 
L 367.433058 180.609202 
L 364.358678 179.796594 
L 361.284298 178.981169 
L 358.209917 178.162897 
L 355.135537 177.340645 
L 352.061157 176.514395 
L 348.986777 175.684379 
L 345.912397 174.850179 
L 342.838017 174.012395 
L 339.763636 173.17081 
L 336.689256 172.325519 
L 333.614876 171.476173 
L 330.540496 170.622459 
L 327.466116 169.764834 
L 324.391736 168.903012 
L 321.317355 168.03734 
L 318.242975 167.167856 
L 315.168595 166.29354 
L 312.094215 165.415482 
L 309.019835 164.53341 
L 305.945455 163.648064 
L 302.871074 162.760712 
L 299.796694 161.870934 
L 296.722314 160.978262 
L 293.647934 160.082998 
L 290.573554 159.185938 
L 287.499174 158.28691 
L 284.424793 157.385413 
L 281.350413 156.480168 
L 278.276033 155.571972 
L 275.201653 154.66006 
L 272.127273 153.744178 
L 269.052893 152.825275 
L 265.978512 151.903856 
L 262.904132 150.980408 
L 259.829752 150.054418 
L 256.755372 149.125021 
L 253.680992 148.193891 
L 250.606612 147.260114 
L 247.532231 146.323233 
L 244.457851 145.383461 
L 241.383471 144.440796 
L 238.309091 143.496155 
L 235.234711 142.549447 
L 232.160331 141.601285 
L 229.08595 140.650874 
L 226.01157 139.697809 
L 222.93719 138.743164 
L 219.86281 137.787265 
L 216.78843 136.829725 
L 213.71405 135.871075 
L 210.639669 134.910748 
L 207.565289 133.949173 
L 204.490909 132.986122 
L 201.416529 132.022132 
L 198.342149 131.05741 
L 195.267769 130.092182 
L 192.193388 129.126237 
L 189.119008 128.159118 
L 186.044628 127.191338 
L 182.970248 126.223448 
L 179.895868 125.255355 
L 176.821488 124.287025 
L 173.747107 123.31762 
L 170.672727 122.347304 
L 167.598347 121.37645 
L 164.523967 120.405595 
L 161.449587 119.434526 
L 158.375207 118.462766 
L 155.300826 117.490629 
L 152.226446 116.518158 
L 149.152066 115.545551 
L 146.077686 114.572876 
L 143.003306 113.6002 
L 139.928926 112.62732 
L 136.854545 111.65429 
L 133.780165 110.681183 
L 130.705785 109.708076 
L 127.631405 108.73485 
L 124.557025 107.761437 
L 121.482645 106.788024 
L 118.408264 105.814611 
L 115.333884 104.841198 
L 112.259504 103.867784 
L 109.185124 102.894371 
L 106.110744 101.920958 
L 103.036364 100.947545 
L 99.961983 99.974132 
L 96.887603 99.000719 
L 93.813223 98.027305 
L 90.738843 97.053892 
L 87.664463 96.080479 
L 84.590083 95.107066 
L 81.515702 94.133653 
L 78.441322 93.16024 
L 75.366942 92.186826 
L 72.292562 91.213413 
L 69.218182 90.24 
z
" style="fill:#31a354;"/>
   </g>
   <g id="PolyCollection_10">
    <path clip-path="url(#pa3e583a5c4)" d="M 69.218182 90.24 
L 69.218182 90.24 
L 72.292562 91.213413 
L 75.366942 92.186826 
L 78.441322 93.16024 
L 81.515702 94.133653 
L 84.590083 95.107066 
L 87.664463 96.080479 
L 90.738843 97.053892 
L 93.813223 98.027305 
L 96.887603 99.000719 
L 99.961983 99.974132 
L 103.036364 100.947545 
L 106.110744 101.920958 
L 109.185124 102.894371 
L 112.259504 103.867784 
L 115.333884 104.841198 
L 118.408264 105.814611 
L 121.482645 106.788024 
L 124.557025 107.761437 
L 127.631405 108.73485 
L 130.705785 109.708076 
L 133.780165 110.681183 
L 136.854545 111.65429 
L 139.928926 112.62732 
L 143.003306 113.6002 
L 146.077686 114.572876 
L 149.152066 115.545551 
L 152.226446 116.518158 
L 155.300826 117.490629 
L 158.375207 118.462766 
L 161.449587 119.434526 
L 164.523967 120.405595 
L 167.598347 121.37645 
L 170.672727 122.347304 
L 173.747107 123.31762 
L 176.821488 124.287025 
L 179.895868 125.255355 
L 182.970248 126.223448 
L 186.044628 127.191338 
L 189.119008 128.159118 
L 192.193388 129.126237 
L 195.267769 130.092182 
L 198.342149 131.05741 
L 201.416529 132.022132 
L 204.490909 132.986122 
L 207.565289 133.949173 
L 210.639669 134.910748 
L 213.71405 135.871075 
L 216.78843 136.829725 
L 219.86281 137.787265 
L 222.93719 138.743164 
L 226.01157 139.697809 
L 229.08595 140.650874 
L 232.160331 141.601285 
L 235.234711 142.549447 
L 238.309091 143.496155 
L 241.383471 144.440796 
L 244.457851 145.383461 
L 247.532231 146.323233 
L 250.606612 147.260114 
L 253.680992 148.193891 
L 256.755372 149.125021 
L 259.829752 150.054418 
L 262.904132 150.980408 
L 265.978512 151.903856 
L 269.052893 152.825275 
L 272.127273 153.744178 
L 275.201653 154.66006 
L 278.276033 155.571972 
L 281.350413 156.480168 
L 284.424793 157.385413 
L 287.499174 158.28691 
L 290.573554 159.185938 
L 293.647934 160.082998 
L 296.722314 160.978262 
L 299.796694 161.870934 
L 302.871074 162.760712 
L 305.945455 163.648064 
L 309.019835 164.53341 
L 312.094215 165.415482 
L 315.168595 166.29354 
L 318.242975 167.167856 
L 321.317355 168.03734 
L 324.391736 168.903012 
L 327.466116 169.764834 
L 330.540496 170.622459 
L 333.614876 171.476173 
L 336.689256 172.325519 
L 339.763636 173.17081 
L 342.838017 174.012395 
L 345.912397 174.850179 
L 348.986777 175.684379 
L 352.061157 176.514395 
L 355.135537 177.340645 
L 358.209917 178.162897 
L 361.284298 178.981169 
L 364.358678 179.796594 
L 367.433058 180.609202 
L 370.507438 181.417559 
L 373.581818 182.221897 
L 373.581818 138.961758 
L 373.581818 138.961758 
L 370.507438 138.471211 
L 367.433058 137.980382 
L 364.358678 137.489281 
L 361.284298 136.998181 
L 358.209917 136.50708 
L 355.135537 136.015979 
L 352.061157 135.524621 
L 348.986777 135.033035 
L 345.912397 134.541449 
L 342.838017 134.049864 
L 339.763636 133.558278 
L 336.689256 133.066692 
L 333.614876 132.575106 
L 330.540496 132.083034 
L 327.466116 131.590916 
L 324.391736 131.098799 
L 321.317355 130.606573 
L 318.242975 130.114297 
L 315.168595 129.622022 
L 312.094215 129.129747 
L 309.019835 128.637471 
L 305.945455 128.145196 
L 302.871074 127.652921 
L 299.796694 127.160646 
L 296.722314 126.66837 
L 293.647934 126.176095 
L 290.573554 125.68382 
L 287.499174 125.191545 
L 284.424793 124.699269 
L 281.350413 124.206994 
L 278.276033 123.714719 
L 275.201653 123.222443 
L 272.127273 122.730168 
L 269.052893 122.237893 
L 265.978512 121.745618 
L 262.904132 121.253342 
L 259.829752 120.761067 
L 256.755372 120.268792 
L 253.680992 119.776517 
L 250.606612 119.284241 
L 247.532231 118.791966 
L 244.457851 118.299691 
L 241.383471 117.807415 
L 238.309091 117.31514 
L 235.234711 116.822865 
L 232.160331 116.33059 
L 229.08595 115.838314 
L 226.01157 115.346039 
L 222.93719 114.853764 
L 219.86281 114.361488 
L 216.78843 113.869213 
L 213.71405 113.376938 
L 210.639669 112.884663 
L 207.565289 112.392387 
L 204.490909 111.900112 
L 201.416529 111.407837 
L 198.342149 110.915562 
L 195.267769 110.423286 
L 192.193388 109.931011 
L 189.119008 109.438736 
L 186.044628 108.94646 
L 182.970248 108.454185 
L 179.895868 107.96191 
L 176.821488 107.469635 
L 173.747107 106.977359 
L 170.672727 106.485084 
L 167.598347 105.992809 
L 164.523967 105.500534 
L 161.449587 105.008258 
L 158.375207 104.515983 
L 155.300826 104.023708 
L 152.226446 103.531432 
L 149.152066 103.039157 
L 146.077686 102.546882 
L 143.003306 102.054607 
L 139.928926 101.562331 
L 136.854545 101.070056 
L 133.780165 100.577781 
L 130.705785 100.085506 
L 127.631405 99.59323 
L 124.557025 99.100955 
L 121.482645 98.60868 
L 118.408264 98.116404 
L 115.333884 97.624129 
L 112.259504 97.131854 
L 109.185124 96.639579 
L 106.110744 96.147303 
L 103.036364 95.655028 
L 99.961983 95.162753 
L 96.887603 94.670477 
L 93.813223 94.178202 
L 90.738843 93.685927 
L 87.664463 93.193652 
L 84.590083 92.701376 
L 81.515702 92.209101 
L 78.441322 91.716826 
L 75.366942 91.224551 
L 72.292562 90.732275 
L 69.218182 90.24 
z
" style="fill:#74c476;"/>
   </g>
   <g id="PolyCollection_11">
    <path clip-path="url(#pa3e583a5c4)" d="M 69.218182 90.24 
L 69.218182 90.24 
L 72.292562 90.732275 
L 75.366942 91.224551 
L 78.441322 91.716826 
L 81.515702 92.209101 
L 84.590083 92.701376 
L 87.664463 93.193652 
L 90.738843 93.685927 
L 93.813223 94.178202 
L 96.887603 94.670477 
L 99.961983 95.162753 
L 103.036364 95.655028 
L 106.110744 96.147303 
L 109.185124 96.639579 
L 112.259504 97.131854 
L 115.333884 97.624129 
L 118.408264 98.116404 
L 121.482645 98.60868 
L 124.557025 99.100955 
L 127.631405 99.59323 
L 130.705785 100.085506 
L 133.780165 100.577781 
L 136.854545 101.070056 
L 139.928926 101.562331 
L 143.003306 102.054607 
L 146.077686 102.546882 
L 149.152066 103.039157 
L 152.226446 103.531432 
L 155.300826 104.023708 
L 158.375207 104.515983 
L 161.449587 105.008258 
L 164.523967 105.500534 
L 167.598347 105.992809 
L 170.672727 106.485084 
L 173.747107 106.977359 
L 176.821488 107.469635 
L 179.895868 107.96191 
L 182.970248 108.454185 
L 186.044628 108.94646 
L 189.119008 109.438736 
L 192.193388 109.931011 
L 195.267769 110.423286 
L 198.342149 110.915562 
L 201.416529 111.407837 
L 204.490909 111.900112 
L 207.565289 112.392387 
L 210.639669 112.884663 
L 213.71405 113.376938 
L 216.78843 113.869213 
L 219.86281 114.361488 
L 222.93719 114.853764 
L 226.01157 115.346039 
L 229.08595 115.838314 
L 232.160331 116.33059 
L 235.234711 116.822865 
L 238.309091 117.31514 
L 241.383471 117.807415 
L 244.457851 118.299691 
L 247.532231 118.791966 
L 250.606612 119.284241 
L 253.680992 119.776517 
L 256.755372 120.268792 
L 259.829752 120.761067 
L 262.904132 121.253342 
L 265.978512 121.745618 
L 269.052893 122.237893 
L 272.127273 122.730168 
L 275.201653 123.222443 
L 278.276033 123.714719 
L 281.350413 124.206994 
L 284.424793 124.699269 
L 287.499174 125.191545 
L 290.573554 125.68382 
L 293.647934 126.176095 
L 296.722314 126.66837 
L 299.796694 127.160646 
L 302.871074 127.652921 
L 305.945455 128.145196 
L 309.019835 128.637471 
L 312.094215 129.129747 
L 315.168595 129.622022 
L 318.242975 130.114297 
L 321.317355 130.606573 
L 324.391736 131.098799 
L 327.466116 131.590916 
L 330.540496 132.083034 
L 333.614876 132.575106 
L 336.689256 133.066692 
L 339.763636 133.558278 
L 342.838017 134.049864 
L 345.912397 134.541449 
L 348.986777 135.033035 
L 352.061157 135.524621 
L 355.135537 136.015979 
L 358.209917 136.50708 
L 361.284298 136.998181 
L 364.358678 137.489281 
L 367.433058 137.980382 
L 370.507438 138.471211 
L 373.581818 138.961758 
L 373.581818 90.24 
L 373.581818 90.24 
L 370.507438 90.24 
L 367.433058 90.24 
L 364.358678 90.24 
L 361.284298 90.24 
L 358.209917 90.24 
L 355.135537 90.24 
L 352.061157 90.24 
L 348.986777 90.24 
L 345.912397 90.24 
L 342.838017 90.24 
L 339.763636 90.24 
L 336.689256 90.24 
L 333.614876 90.24 
L 330.540496 90.24 
L 327.466116 90.24 
L 324.391736 90.24 
L 321.317355 90.24 
L 318.242975 90.24 
L 315.168595 90.24 
L 312.094215 90.24 
L 309.019835 90.24 
L 305.945455 90.24 
L 302.871074 90.24 
L 299.796694 90.24 
L 296.722314 90.24 
L 293.647934 90.24 
L 290.573554 90.24 
L 287.499174 90.24 
L 284.424793 90.24 
L 281.350413 90.24 
L 278.276033 90.24 
L 275.201653 90.24 
L 272.127273 90.24 
L 269.052893 90.24 
L 265.978512 90.24 
L 262.904132 90.24 
L 259.829752 90.24 
L 256.755372 90.24 
L 253.680992 90.24 
L 250.606612 90.24 
L 247.532231 90.24 
L 244.457851 90.24 
L 241.383471 90.24 
L 238.309091 90.24 
L 235.234711 90.24 
L 232.160331 90.24 
L 229.08595 90.24 
L 226.01157 90.24 
L 222.93719 90.24 
L 219.86281 90.24 
L 216.78843 90.24 
L 213.71405 90.24 
L 210.639669 90.24 
L 207.565289 90.24 
L 204.490909 90.24 
L 201.416529 90.24 
L 198.342149 90.24 
L 195.267769 90.24 
L 192.193388 90.24 
L 189.119008 90.24 
L 186.044628 90.24 
L 182.970248 90.24 
L 179.895868 90.24 
L 176.821488 90.24 
L 173.747107 90.24 
L 170.672727 90.24 
L 167.598347 90.24 
L 164.523967 90.24 
L 161.449587 90.24 
L 158.375207 90.24 
L 155.300826 90.24 
L 152.226446 90.24 
L 149.152066 90.24 
L 146.077686 90.24 
L 143.003306 90.24 
L 139.928926 90.24 
L 136.854545 90.24 
L 133.780165 90.24 
L 130.705785 90.24 
L 127.631405 90.24 
L 124.557025 90.24 
L 121.482645 90.24 
L 118.408264 90.24 
L 115.333884 90.24 
L 112.259504 90.24 
L 109.185124 90.24 
L 106.110744 90.24 
L 103.036364 90.24 
L 99.961983 90.24 
L 96.887603 90.24 
L 93.813223 90.24 
L 90.738843 90.24 
L 87.664463 90.24 
L 84.590083 90.24 
L 81.515702 90.24 
L 78.441322 90.24 
L 75.366942 90.24 
L 72.292562 90.24 
L 69.218182 90.24 
z
" style="fill:#a1d99b;"/>
   </g>
   <g id="matplotlib.axis_1">
    <g id="xtick_1">
     <g id="line2d_1">
      <defs>
       <path d="M 0 0 
L 0 3.5 
" id="me7d8a5ccd1" style="stroke:#000000;stroke-width:0.8;"/>
      </defs>
      <g>
       <use style="stroke:#000000;stroke-width:0.8;" x="69.218182" xlink:href="#me7d8a5ccd1" y="512.64"/>
      </g>
     </g>
     <g id="text_1">
      <!-- 0 -->
      <g transform="translate(66.036932 527.238438)scale(0.1 -0.1)">
       <defs>
        <path d="M 2034 4250 
Q 1547 4250 1301 3770 
Q 1056 3291 1056 2328 
Q 1056 1369 1301 889 
Q 1547 409 2034 409 
Q 2525 409 2770 889 
Q 3016 1369 3016 2328 
Q 3016 3291 2770 3770 
Q 2525 4250 2034 4250 
z
M 2034 4750 
Q 2819 4750 3233 4129 
Q 3647 3509 3647 2328 
Q 3647 1150 3233 529 
Q 2819 -91 2034 -91 
Q 1250 -91 836 529 
Q 422 1150 422 2328 
Q 422 3509 836 4129 
Q 1250 4750 2034 4750 
z
" id="DejaVuSans-30" transform="scale(0.015625)"/>
       </defs>
       <use xlink:href="#DejaVuSans-30"/>
      </g>
     </g>
    </g>
    <g id="xtick_2">
     <g id="line2d_2">
      <g>
       <use style="stroke:#000000;stroke-width:0.8;" x="130.090909" xlink:href="#me7d8a5ccd1" y="512.64"/>
      </g>
     </g>
     <g id="text_2">
      <!-- 20 -->
      <g transform="translate(123.728409 527.238438)scale(0.1 -0.1)">
       <defs>
        <path d="M 1228 531 
L 3431 531 
L 3431 0 
L 469 0 
L 469 531 
Q 828 903 1448 1529 
Q 2069 2156 2228 2338 
Q 2531 2678 2651 2914 
Q 2772 3150 2772 3378 
Q 2772 3750 2511 3984 
Q 2250 4219 1831 4219 
Q 1534 4219 1204 4116 
Q 875 4013 500 3803 
L 500 4441 
Q 881 4594 1212 4672 
Q 1544 4750 1819 4750 
Q 2544 4750 2975 4387 
Q 3406 4025 3406 3419 
Q 3406 3131 3298 2873 
Q 3191 2616 2906 2266 
Q 2828 2175 2409 1742 
Q 1991 1309 1228 531 
z
" id="DejaVuSans-32" transform="scale(0.015625)"/>
       </defs>
       <use xlink:href="#DejaVuSans-32"/>
       <use x="63.623047" xlink:href="#DejaVuSans-30"/>
      </g>
     </g>
    </g>
    <g id="xtick_3">
     <g id="line2d_3">
      <g>
       <use style="stroke:#000000;stroke-width:0.8;" x="190.963636" xlink:href="#me7d8a5ccd1" y="512.64"/>
      </g>
     </g>
     <g id="text_3">
      <!-- 40 -->
      <g transform="translate(184.601136 527.238438)scale(0.1 -0.1)">
       <defs>
        <path d="M 2419 4116 
L 825 1625 
L 2419 1625 
L 2419 4116 
z
M 2253 4666 
L 3047 4666 
L 3047 1625 
L 3713 1625 
L 3713 1100 
L 3047 1100 
L 3047 0 
L 2419 0 
L 2419 1100 
L 313 1100 
L 313 1709 
L 2253 4666 
z
" id="DejaVuSans-34" transform="scale(0.015625)"/>
       </defs>
       <use xlink:href="#DejaVuSans-34"/>
       <use x="63.623047" xlink:href="#DejaVuSans-30"/>
      </g>
     </g>
    </g>
    <g id="xtick_4">
     <g id="line2d_4">
      <g>
       <use style="stroke:#000000;stroke-width:0.8;" x="251.836364" xlink:href="#me7d8a5ccd1" y="512.64"/>
      </g>
     </g>
     <g id="text_4">
      <!-- 60 -->
      <g transform="translate(245.473864 527.238438)scale(0.1 -0.1)">
       <defs>
        <path d="M 2113 2584 
Q 1688 2584 1439 2293 
Q 1191 2003 1191 1497 
Q 1191 994 1439 701 
Q 1688 409 2113 409 
Q 2538 409 2786 701 
Q 3034 994 3034 1497 
Q 3034 2003 2786 2293 
Q 2538 2584 2113 2584 
z
M 3366 4563 
L 3366 3988 
Q 3128 4100 2886 4159 
Q 2644 4219 2406 4219 
Q 1781 4219 1451 3797 
Q 1122 3375 1075 2522 
Q 1259 2794 1537 2939 
Q 1816 3084 2150 3084 
Q 2853 3084 3261 2657 
Q 3669 2231 3669 1497 
Q 3669 778 3244 343 
Q 2819 -91 2113 -91 
Q 1303 -91 875 529 
Q 447 1150 447 2328 
Q 447 3434 972 4092 
Q 1497 4750 2381 4750 
Q 2619 4750 2861 4703 
Q 3103 4656 3366 4563 
z
" id="DejaVuSans-36" transform="scale(0.015625)"/>
       </defs>
       <use xlink:href="#DejaVuSans-36"/>
       <use x="63.623047" xlink:href="#DejaVuSans-30"/>
      </g>
     </g>
    </g>
    <g id="xtick_5">
     <g id="line2d_5">
      <g>
       <use style="stroke:#000000;stroke-width:0.8;" x="312.709091" xlink:href="#me7d8a5ccd1" y="512.64"/>
      </g>
     </g>
     <g id="text_5">
      <!-- 80 -->
      <g transform="translate(306.346591 527.238438)scale(0.1 -0.1)">
       <defs>
        <path d="M 2034 2216 
Q 1584 2216 1326 1975 
Q 1069 1734 1069 1313 
Q 1069 891 1326 650 
Q 1584 409 2034 409 
Q 2484 409 2743 651 
Q 3003 894 3003 1313 
Q 3003 1734 2745 1975 
Q 2488 2216 2034 2216 
z
M 1403 2484 
Q 997 2584 770 2862 
Q 544 3141 544 3541 
Q 544 4100 942 4425 
Q 1341 4750 2034 4750 
Q 2731 4750 3128 4425 
Q 3525 4100 3525 3541 
Q 3525 3141 3298 2862 
Q 3072 2584 2669 2484 
Q 3125 2378 3379 2068 
Q 3634 1759 3634 1313 
Q 3634 634 3220 271 
Q 2806 -91 2034 -91 
Q 1263 -91 848 271 
Q 434 634 434 1313 
Q 434 1759 690 2068 
Q 947 2378 1403 2484 
z
M 1172 3481 
Q 1172 3119 1398 2916 
Q 1625 2713 2034 2713 
Q 2441 2713 2670 2916 
Q 2900 3119 2900 3481 
Q 2900 3844 2670 4047 
Q 2441 4250 2034 4250 
Q 1625 4250 1398 4047 
Q 1172 3844 1172 3481 
z
" id="DejaVuSans-38" transform="scale(0.015625)"/>
       </defs>
       <use xlink:href="#DejaVuSans-38"/>
       <use x="63.623047" xlink:href="#DejaVuSans-30"/>
      </g>
     </g>
    </g>
    <g id="xtick_6">
     <g id="line2d_6">
      <g>
       <use style="stroke:#000000;stroke-width:0.8;" x="373.581818" xlink:href="#me7d8a5ccd1" y="512.64"/>
      </g>
     </g>
     <g id="text_6">
      <!-- 100 -->
      <g transform="translate(364.038068 527.238438)scale(0.1 -0.1)">
       <defs>
        <path d="M 794 531 
L 1825 531 
L 1825 4091 
L 703 3866 
L 703 4441 
L 1819 4666 
L 2450 4666 
L 2450 531 
L 3481 531 
L 3481 0 
L 794 0 
L 794 531 
z
" id="DejaVuSans-31" transform="scale(0.015625)"/>
       </defs>
       <use xlink:href="#DejaVuSans-31"/>
       <use x="63.623047" xlink:href="#DejaVuSans-30"/>
       <use x="127.246094" xlink:href="#DejaVuSans-30"/>
      </g>
     </g>
    </g>
    <g id="text_7">
     <!-- Proportion of New Technology in Grid (%) -->
     <g transform="translate(118.632031 540.916563)scale(0.1 -0.1)">
      <defs>
       <path d="M 1259 4147 
L 1259 2394 
L 2053 2394 
Q 2494 2394 2734 2622 
Q 2975 2850 2975 3272 
Q 2975 3691 2734 3919 
Q 2494 4147 2053 4147 
L 1259 4147 
z
M 628 4666 
L 2053 4666 
Q 2838 4666 3239 4311 
Q 3641 3956 3641 3272 
Q 3641 2581 3239 2228 
Q 2838 1875 2053 1875 
L 1259 1875 
L 1259 0 
L 628 0 
L 628 4666 
z
" id="DejaVuSans-50" transform="scale(0.015625)"/>
       <path d="M 2631 2963 
Q 2534 3019 2420 3045 
Q 2306 3072 2169 3072 
Q 1681 3072 1420 2755 
Q 1159 2438 1159 1844 
L 1159 0 
L 581 0 
L 581 3500 
L 1159 3500 
L 1159 2956 
Q 1341 3275 1631 3429 
Q 1922 3584 2338 3584 
Q 2397 3584 2469 3576 
Q 2541 3569 2628 3553 
L 2631 2963 
z
" id="DejaVuSans-72" transform="scale(0.015625)"/>
       <path d="M 1959 3097 
Q 1497 3097 1228 2736 
Q 959 2375 959 1747 
Q 959 1119 1226 758 
Q 1494 397 1959 397 
Q 2419 397 2687 759 
Q 2956 1122 2956 1747 
Q 2956 2369 2687 2733 
Q 2419 3097 1959 3097 
z
M 1959 3584 
Q 2709 3584 3137 3096 
Q 3566 2609 3566 1747 
Q 3566 888 3137 398 
Q 2709 -91 1959 -91 
Q 1206 -91 779 398 
Q 353 888 353 1747 
Q 353 2609 779 3096 
Q 1206 3584 1959 3584 
z
" id="DejaVuSans-6f" transform="scale(0.015625)"/>
       <path d="M 1159 525 
L 1159 -1331 
L 581 -1331 
L 581 3500 
L 1159 3500 
L 1159 2969 
Q 1341 3281 1617 3432 
Q 1894 3584 2278 3584 
Q 2916 3584 3314 3078 
Q 3713 2572 3713 1747 
Q 3713 922 3314 415 
Q 2916 -91 2278 -91 
Q 1894 -91 1617 61 
Q 1341 213 1159 525 
z
M 3116 1747 
Q 3116 2381 2855 2742 
Q 2594 3103 2138 3103 
Q 1681 3103 1420 2742 
Q 1159 2381 1159 1747 
Q 1159 1113 1420 752 
Q 1681 391 2138 391 
Q 2594 391 2855 752 
Q 3116 1113 3116 1747 
z
" id="DejaVuSans-70" transform="scale(0.015625)"/>
       <path d="M 1172 4494 
L 1172 3500 
L 2356 3500 
L 2356 3053 
L 1172 3053 
L 1172 1153 
Q 1172 725 1289 603 
Q 1406 481 1766 481 
L 2356 481 
L 2356 0 
L 1766 0 
Q 1100 0 847 248 
Q 594 497 594 1153 
L 594 3053 
L 172 3053 
L 172 3500 
L 594 3500 
L 594 4494 
L 1172 4494 
z
" id="DejaVuSans-74" transform="scale(0.015625)"/>
       <path d="M 603 3500 
L 1178 3500 
L 1178 0 
L 603 0 
L 603 3500 
z
M 603 4863 
L 1178 4863 
L 1178 4134 
L 603 4134 
L 603 4863 
z
" id="DejaVuSans-69" transform="scale(0.015625)"/>
       <path d="M 3513 2113 
L 3513 0 
L 2938 0 
L 2938 2094 
Q 2938 2591 2744 2837 
Q 2550 3084 2163 3084 
Q 1697 3084 1428 2787 
Q 1159 2491 1159 1978 
L 1159 0 
L 581 0 
L 581 3500 
L 1159 3500 
L 1159 2956 
Q 1366 3272 1645 3428 
Q 1925 3584 2291 3584 
Q 2894 3584 3203 3211 
Q 3513 2838 3513 2113 
z
" id="DejaVuSans-6e" transform="scale(0.015625)"/>
       <path id="DejaVuSans-20" transform="scale(0.015625)"/>
       <path d="M 2375 4863 
L 2375 4384 
L 1825 4384 
Q 1516 4384 1395 4259 
Q 1275 4134 1275 3809 
L 1275 3500 
L 2222 3500 
L 2222 3053 
L 1275 3053 
L 1275 0 
L 697 0 
L 697 3053 
L 147 3053 
L 147 3500 
L 697 3500 
L 697 3744 
Q 697 4328 969 4595 
Q 1241 4863 1831 4863 
L 2375 4863 
z
" id="DejaVuSans-66" transform="scale(0.015625)"/>
       <path d="M 628 4666 
L 1478 4666 
L 3547 763 
L 3547 4666 
L 4159 4666 
L 4159 0 
L 3309 0 
L 1241 3903 
L 1241 0 
L 628 0 
L 628 4666 
z
" id="DejaVuSans-4e" transform="scale(0.015625)"/>
       <path d="M 3597 1894 
L 3597 1613 
L 953 1613 
Q 991 1019 1311 708 
Q 1631 397 2203 397 
Q 2534 397 2845 478 
Q 3156 559 3463 722 
L 3463 178 
Q 3153 47 2828 -22 
Q 2503 -91 2169 -91 
Q 1331 -91 842 396 
Q 353 884 353 1716 
Q 353 2575 817 3079 
Q 1281 3584 2069 3584 
Q 2775 3584 3186 3129 
Q 3597 2675 3597 1894 
z
M 3022 2063 
Q 3016 2534 2758 2815 
Q 2500 3097 2075 3097 
Q 1594 3097 1305 2825 
Q 1016 2553 972 2059 
L 3022 2063 
z
" id="DejaVuSans-65" transform="scale(0.015625)"/>
       <path d="M 269 3500 
L 844 3500 
L 1563 769 
L 2278 3500 
L 2956 3500 
L 3675 769 
L 4391 3500 
L 4966 3500 
L 4050 0 
L 3372 0 
L 2619 2869 
L 1863 0 
L 1184 0 
L 269 3500 
z
" id="DejaVuSans-77" transform="scale(0.015625)"/>
       <path d="M -19 4666 
L 3928 4666 
L 3928 4134 
L 2272 4134 
L 2272 0 
L 1638 0 
L 1638 4134 
L -19 4134 
L -19 4666 
z
" id="DejaVuSans-54" transform="scale(0.015625)"/>
       <path d="M 3122 3366 
L 3122 2828 
Q 2878 2963 2633 3030 
Q 2388 3097 2138 3097 
Q 1578 3097 1268 2742 
Q 959 2388 959 1747 
Q 959 1106 1268 751 
Q 1578 397 2138 397 
Q 2388 397 2633 464 
Q 2878 531 3122 666 
L 3122 134 
Q 2881 22 2623 -34 
Q 2366 -91 2075 -91 
Q 1284 -91 818 406 
Q 353 903 353 1747 
Q 353 2603 823 3093 
Q 1294 3584 2113 3584 
Q 2378 3584 2631 3529 
Q 2884 3475 3122 3366 
z
" id="DejaVuSans-63" transform="scale(0.015625)"/>
       <path d="M 3513 2113 
L 3513 0 
L 2938 0 
L 2938 2094 
Q 2938 2591 2744 2837 
Q 2550 3084 2163 3084 
Q 1697 3084 1428 2787 
Q 1159 2491 1159 1978 
L 1159 0 
L 581 0 
L 581 4863 
L 1159 4863 
L 1159 2956 
Q 1366 3272 1645 3428 
Q 1925 3584 2291 3584 
Q 2894 3584 3203 3211 
Q 3513 2838 3513 2113 
z
" id="DejaVuSans-68" transform="scale(0.015625)"/>
       <path d="M 603 4863 
L 1178 4863 
L 1178 0 
L 603 0 
L 603 4863 
z
" id="DejaVuSans-6c" transform="scale(0.015625)"/>
       <path d="M 2906 1791 
Q 2906 2416 2648 2759 
Q 2391 3103 1925 3103 
Q 1463 3103 1205 2759 
Q 947 2416 947 1791 
Q 947 1169 1205 825 
Q 1463 481 1925 481 
Q 2391 481 2648 825 
Q 2906 1169 2906 1791 
z
M 3481 434 
Q 3481 -459 3084 -895 
Q 2688 -1331 1869 -1331 
Q 1566 -1331 1297 -1286 
Q 1028 -1241 775 -1147 
L 775 -588 
Q 1028 -725 1275 -790 
Q 1522 -856 1778 -856 
Q 2344 -856 2625 -561 
Q 2906 -266 2906 331 
L 2906 616 
Q 2728 306 2450 153 
Q 2172 0 1784 0 
Q 1141 0 747 490 
Q 353 981 353 1791 
Q 353 2603 747 3093 
Q 1141 3584 1784 3584 
Q 2172 3584 2450 3431 
Q 2728 3278 2906 2969 
L 2906 3500 
L 3481 3500 
L 3481 434 
z
" id="DejaVuSans-67" transform="scale(0.015625)"/>
       <path d="M 2059 -325 
Q 1816 -950 1584 -1140 
Q 1353 -1331 966 -1331 
L 506 -1331 
L 506 -850 
L 844 -850 
Q 1081 -850 1212 -737 
Q 1344 -625 1503 -206 
L 1606 56 
L 191 3500 
L 800 3500 
L 1894 763 
L 2988 3500 
L 3597 3500 
L 2059 -325 
z
" id="DejaVuSans-79" transform="scale(0.015625)"/>
       <path d="M 3809 666 
L 3809 1919 
L 2778 1919 
L 2778 2438 
L 4434 2438 
L 4434 434 
Q 4069 175 3628 42 
Q 3188 -91 2688 -91 
Q 1594 -91 976 548 
Q 359 1188 359 2328 
Q 359 3472 976 4111 
Q 1594 4750 2688 4750 
Q 3144 4750 3555 4637 
Q 3966 4525 4313 4306 
L 4313 3634 
Q 3963 3931 3569 4081 
Q 3175 4231 2741 4231 
Q 1884 4231 1454 3753 
Q 1025 3275 1025 2328 
Q 1025 1384 1454 906 
Q 1884 428 2741 428 
Q 3075 428 3337 486 
Q 3600 544 3809 666 
z
" id="DejaVuSans-47" transform="scale(0.015625)"/>
       <path d="M 2906 2969 
L 2906 4863 
L 3481 4863 
L 3481 0 
L 2906 0 
L 2906 525 
Q 2725 213 2448 61 
Q 2172 -91 1784 -91 
Q 1150 -91 751 415 
Q 353 922 353 1747 
Q 353 2572 751 3078 
Q 1150 3584 1784 3584 
Q 2172 3584 2448 3432 
Q 2725 3281 2906 2969 
z
M 947 1747 
Q 947 1113 1208 752 
Q 1469 391 1925 391 
Q 2381 391 2643 752 
Q 2906 1113 2906 1747 
Q 2906 2381 2643 2742 
Q 2381 3103 1925 3103 
Q 1469 3103 1208 2742 
Q 947 2381 947 1747 
z
" id="DejaVuSans-64" transform="scale(0.015625)"/>
       <path d="M 1984 4856 
Q 1566 4138 1362 3434 
Q 1159 2731 1159 2009 
Q 1159 1288 1364 580 
Q 1569 -128 1984 -844 
L 1484 -844 
Q 1016 -109 783 600 
Q 550 1309 550 2009 
Q 550 2706 781 3412 
Q 1013 4119 1484 4856 
L 1984 4856 
z
" id="DejaVuSans-28" transform="scale(0.015625)"/>
       <path d="M 4653 2053 
Q 4381 2053 4226 1822 
Q 4072 1591 4072 1178 
Q 4072 772 4226 539 
Q 4381 306 4653 306 
Q 4919 306 5073 539 
Q 5228 772 5228 1178 
Q 5228 1588 5073 1820 
Q 4919 2053 4653 2053 
z
M 4653 2450 
Q 5147 2450 5437 2106 
Q 5728 1763 5728 1178 
Q 5728 594 5436 251 
Q 5144 -91 4653 -91 
Q 4153 -91 3862 251 
Q 3572 594 3572 1178 
Q 3572 1766 3864 2108 
Q 4156 2450 4653 2450 
z
M 1428 4353 
Q 1159 4353 1004 4120 
Q 850 3888 850 3481 
Q 850 3069 1003 2837 
Q 1156 2606 1428 2606 
Q 1700 2606 1854 2837 
Q 2009 3069 2009 3481 
Q 2009 3884 1853 4118 
Q 1697 4353 1428 4353 
z
M 4250 4750 
L 4750 4750 
L 1831 -91 
L 1331 -91 
L 4250 4750 
z
M 1428 4750 
Q 1922 4750 2215 4408 
Q 2509 4066 2509 3481 
Q 2509 2891 2217 2550 
Q 1925 2209 1428 2209 
Q 931 2209 642 2551 
Q 353 2894 353 3481 
Q 353 4063 643 4406 
Q 934 4750 1428 4750 
z
" id="DejaVuSans-25" transform="scale(0.015625)"/>
       <path d="M 513 4856 
L 1013 4856 
Q 1481 4119 1714 3412 
Q 1947 2706 1947 2009 
Q 1947 1309 1714 600 
Q 1481 -109 1013 -844 
L 513 -844 
Q 928 -128 1133 580 
Q 1338 1288 1338 2009 
Q 1338 2731 1133 3434 
Q 928 4138 513 4856 
z
" id="DejaVuSans-29" transform="scale(0.015625)"/>
      </defs>
      <use xlink:href="#DejaVuSans-50"/>
      <use x="58.552734" xlink:href="#DejaVuSans-72"/>
      <use x="97.416016" xlink:href="#DejaVuSans-6f"/>
      <use x="158.597656" xlink:href="#DejaVuSans-70"/>
      <use x="222.074219" xlink:href="#DejaVuSans-6f"/>
      <use x="283.255859" xlink:href="#DejaVuSans-72"/>
      <use x="324.369141" xlink:href="#DejaVuSans-74"/>
      <use x="363.578125" xlink:href="#DejaVuSans-69"/>
      <use x="391.361328" xlink:href="#DejaVuSans-6f"/>
      <use x="452.542969" xlink:href="#DejaVuSans-6e"/>
      <use x="515.921875" xlink:href="#DejaVuSans-20"/>
      <use x="547.708984" xlink:href="#DejaVuSans-6f"/>
      <use x="608.890625" xlink:href="#DejaVuSans-66"/>
      <use x="644.095703" xlink:href="#DejaVuSans-20"/>
      <use x="675.882812" xlink:href="#DejaVuSans-4e"/>
      <use x="750.6875" xlink:href="#DejaVuSans-65"/>
      <use x="812.210938" xlink:href="#DejaVuSans-77"/>
      <use x="893.998047" xlink:href="#DejaVuSans-20"/>
      <use x="925.785156" xlink:href="#DejaVuSans-54"/>
      <use x="969.869141" xlink:href="#DejaVuSans-65"/>
      <use x="1031.392578" xlink:href="#DejaVuSans-63"/>
      <use x="1086.373047" xlink:href="#DejaVuSans-68"/>
      <use x="1149.751953" xlink:href="#DejaVuSans-6e"/>
      <use x="1213.130859" xlink:href="#DejaVuSans-6f"/>
      <use x="1274.3125" xlink:href="#DejaVuSans-6c"/>
      <use x="1302.095703" xlink:href="#DejaVuSans-6f"/>
      <use x="1363.277344" xlink:href="#DejaVuSans-67"/>
      <use x="1426.753906" xlink:href="#DejaVuSans-79"/>
      <use x="1485.933594" xlink:href="#DejaVuSans-20"/>
      <use x="1517.720703" xlink:href="#DejaVuSans-69"/>
      <use x="1545.503906" xlink:href="#DejaVuSans-6e"/>
      <use x="1608.882812" xlink:href="#DejaVuSans-20"/>
      <use x="1640.669922" xlink:href="#DejaVuSans-47"/>
      <use x="1718.160156" xlink:href="#DejaVuSans-72"/>
      <use x="1759.273438" xlink:href="#DejaVuSans-69"/>
      <use x="1787.056641" xlink:href="#DejaVuSans-64"/>
      <use x="1850.533203" xlink:href="#DejaVuSans-20"/>
      <use x="1882.320312" xlink:href="#DejaVuSans-28"/>
      <use x="1921.333984" xlink:href="#DejaVuSans-25"/>
      <use x="2016.353516" xlink:href="#DejaVuSans-29"/>
     </g>
    </g>
   </g>
   <g id="matplotlib.axis_2">
    <g id="ytick_1">
     <g id="line2d_7">
      <defs>
       <path d="M 0 0 
L -3.5 0 
" id="m7a7909763c" style="stroke:#000000;stroke-width:0.8;"/>
      </defs>
      <g>
       <use style="stroke:#000000;stroke-width:0.8;" x="54" xlink:href="#m7a7909763c" y="512.64"/>
      </g>
     </g>
     <g id="text_8">
      <!-- 0 -->
      <g transform="translate(40.6375 516.439219)scale(0.1 -0.1)">
       <use xlink:href="#DejaVuSans-30"/>
      </g>
     </g>
    </g>
    <g id="ytick_2">
     <g id="line2d_8">
      <g>
       <use style="stroke:#000000;stroke-width:0.8;" x="54" xlink:href="#m7a7909763c" y="441.518431"/>
      </g>
     </g>
     <g id="text_9">
      <!-- 50 -->
      <g transform="translate(34.275 445.31765)scale(0.1 -0.1)">
       <defs>
        <path d="M 691 4666 
L 3169 4666 
L 3169 4134 
L 1269 4134 
L 1269 2991 
Q 1406 3038 1543 3061 
Q 1681 3084 1819 3084 
Q 2600 3084 3056 2656 
Q 3513 2228 3513 1497 
Q 3513 744 3044 326 
Q 2575 -91 1722 -91 
Q 1428 -91 1123 -41 
Q 819 9 494 109 
L 494 744 
Q 775 591 1075 516 
Q 1375 441 1709 441 
Q 2250 441 2565 725 
Q 2881 1009 2881 1497 
Q 2881 1984 2565 2268 
Q 2250 2553 1709 2553 
Q 1456 2553 1204 2497 
Q 953 2441 691 2322 
L 691 4666 
z
" id="DejaVuSans-35" transform="scale(0.015625)"/>
       </defs>
       <use xlink:href="#DejaVuSans-35"/>
       <use x="63.623047" xlink:href="#DejaVuSans-30"/>
      </g>
     </g>
    </g>
    <g id="ytick_3">
     <g id="line2d_9">
      <g>
       <use style="stroke:#000000;stroke-width:0.8;" x="54" xlink:href="#m7a7909763c" y="370.396862"/>
      </g>
     </g>
     <g id="text_10">
      <!-- 100 -->
      <g transform="translate(27.9125 374.196081)scale(0.1 -0.1)">
       <use xlink:href="#DejaVuSans-31"/>
       <use x="63.623047" xlink:href="#DejaVuSans-30"/>
       <use x="127.246094" xlink:href="#DejaVuSans-30"/>
      </g>
     </g>
    </g>
    <g id="ytick_4">
     <g id="line2d_10">
      <g>
       <use style="stroke:#000000;stroke-width:0.8;" x="54" xlink:href="#m7a7909763c" y="299.275293"/>
      </g>
     </g>
     <g id="text_11">
      <!-- 150 -->
      <g transform="translate(27.9125 303.074512)scale(0.1 -0.1)">
       <use xlink:href="#DejaVuSans-31"/>
       <use x="63.623047" xlink:href="#DejaVuSans-35"/>
       <use x="127.246094" xlink:href="#DejaVuSans-30"/>
      </g>
     </g>
    </g>
    <g id="ytick_5">
     <g id="line2d_11">
      <g>
       <use style="stroke:#000000;stroke-width:0.8;" x="54" xlink:href="#m7a7909763c" y="228.153724"/>
      </g>
     </g>
     <g id="text_12">
      <!-- 200 -->
      <g transform="translate(27.9125 231.952943)scale(0.1 -0.1)">
       <use xlink:href="#DejaVuSans-32"/>
       <use x="63.623047" xlink:href="#DejaVuSans-30"/>
       <use x="127.246094" xlink:href="#DejaVuSans-30"/>
      </g>
     </g>
    </g>
    <g id="ytick_6">
     <g id="line2d_12">
      <g>
       <use style="stroke:#000000;stroke-width:0.8;" x="54" xlink:href="#m7a7909763c" y="157.032155"/>
      </g>
     </g>
     <g id="text_13">
      <!-- 250 -->
      <g transform="translate(27.9125 160.831374)scale(0.1 -0.1)">
       <use xlink:href="#DejaVuSans-32"/>
       <use x="63.623047" xlink:href="#DejaVuSans-35"/>
       <use x="127.246094" xlink:href="#DejaVuSans-30"/>
      </g>
     </g>
    </g>
    <g id="ytick_7">
     <g id="line2d_13">
      <g>
       <use style="stroke:#000000;stroke-width:0.8;" x="54" xlink:href="#m7a7909763c" y="85.910586"/>
      </g>
     </g>
     <g id="text_14">
      <!-- 300 -->
      <g transform="translate(27.9125 89.709805)scale(0.1 -0.1)">
       <defs>
        <path d="M 2597 2516 
Q 3050 2419 3304 2112 
Q 3559 1806 3559 1356 
Q 3559 666 3084 287 
Q 2609 -91 1734 -91 
Q 1441 -91 1130 -33 
Q 819 25 488 141 
L 488 750 
Q 750 597 1062 519 
Q 1375 441 1716 441 
Q 2309 441 2620 675 
Q 2931 909 2931 1356 
Q 2931 1769 2642 2001 
Q 2353 2234 1838 2234 
L 1294 2234 
L 1294 2753 
L 1863 2753 
Q 2328 2753 2575 2939 
Q 2822 3125 2822 3475 
Q 2822 3834 2567 4026 
Q 2313 4219 1838 4219 
Q 1578 4219 1281 4162 
Q 984 4106 628 3988 
L 628 4550 
Q 988 4650 1302 4700 
Q 1616 4750 1894 4750 
Q 2613 4750 3031 4423 
Q 3450 4097 3450 3541 
Q 3450 3153 3228 2886 
Q 3006 2619 2597 2516 
z
" id="DejaVuSans-33" transform="scale(0.015625)"/>
       </defs>
       <use xlink:href="#DejaVuSans-33"/>
       <use x="63.623047" xlink:href="#DejaVuSans-30"/>
       <use x="127.246094" xlink:href="#DejaVuSans-30"/>
      </g>
     </g>
    </g>
    <g id="text_15">
     <!-- Energy Generated (TWh) -->
     <g transform="translate(21.832812 353.158906)rotate(-90)scale(0.1 -0.1)">
      <defs>
       <path d="M 628 4666 
L 3578 4666 
L 3578 4134 
L 1259 4134 
L 1259 2753 
L 3481 2753 
L 3481 2222 
L 1259 2222 
L 1259 531 
L 3634 531 
L 3634 0 
L 628 0 
L 628 4666 
z
" id="DejaVuSans-45" transform="scale(0.015625)"/>
       <path d="M 2194 1759 
Q 1497 1759 1228 1600 
Q 959 1441 959 1056 
Q 959 750 1161 570 
Q 1363 391 1709 391 
Q 2188 391 2477 730 
Q 2766 1069 2766 1631 
L 2766 1759 
L 2194 1759 
z
M 3341 1997 
L 3341 0 
L 2766 0 
L 2766 531 
Q 2569 213 2275 61 
Q 1981 -91 1556 -91 
Q 1019 -91 701 211 
Q 384 513 384 1019 
Q 384 1609 779 1909 
Q 1175 2209 1959 2209 
L 2766 2209 
L 2766 2266 
Q 2766 2663 2505 2880 
Q 2244 3097 1772 3097 
Q 1472 3097 1187 3025 
Q 903 2953 641 2809 
L 641 3341 
Q 956 3463 1253 3523 
Q 1550 3584 1831 3584 
Q 2591 3584 2966 3190 
Q 3341 2797 3341 1997 
z
" id="DejaVuSans-61" transform="scale(0.015625)"/>
       <path d="M 213 4666 
L 850 4666 
L 1831 722 
L 2809 4666 
L 3519 4666 
L 4500 722 
L 5478 4666 
L 6119 4666 
L 4947 0 
L 4153 0 
L 3169 4050 
L 2175 0 
L 1381 0 
L 213 4666 
z
" id="DejaVuSans-57" transform="scale(0.015625)"/>
      </defs>
      <use xlink:href="#DejaVuSans-45"/>
      <use x="63.183594" xlink:href="#DejaVuSans-6e"/>
      <use x="126.5625" xlink:href="#DejaVuSans-65"/>
      <use x="188.085938" xlink:href="#DejaVuSans-72"/>
      <use x="227.449219" xlink:href="#DejaVuSans-67"/>
      <use x="290.925781" xlink:href="#DejaVuSans-79"/>
      <use x="350.105469" xlink:href="#DejaVuSans-20"/>
      <use x="381.892578" xlink:href="#DejaVuSans-47"/>
      <use x="459.382812" xlink:href="#DejaVuSans-65"/>
      <use x="520.90625" xlink:href="#DejaVuSans-6e"/>
      <use x="584.285156" xlink:href="#DejaVuSans-65"/>
      <use x="645.808594" xlink:href="#DejaVuSans-72"/>
      <use x="686.921875" xlink:href="#DejaVuSans-61"/>
      <use x="748.201172" xlink:href="#DejaVuSans-74"/>
      <use x="787.410156" xlink:href="#DejaVuSans-65"/>
      <use x="848.933594" xlink:href="#DejaVuSans-64"/>
      <use x="912.410156" xlink:href="#DejaVuSans-20"/>
      <use x="944.197266" xlink:href="#DejaVuSans-28"/>
      <use x="983.210938" xlink:href="#DejaVuSans-54"/>
      <use x="1044.294922" xlink:href="#DejaVuSans-57"/>
      <use x="1143.171875" xlink:href="#DejaVuSans-68"/>
      <use x="1206.550781" xlink:href="#DejaVuSans-29"/>
     </g>
    </g>
   </g>
   <g id="patch_3">
    <path d="M 54 512.64 
L 54 69.12 
" style="fill:none;stroke:#000000;stroke-linecap:square;stroke-linejoin:miter;stroke-width:0.8;"/>
   </g>
   <g id="patch_4">
    <path d="M 388.8 512.64 
L 388.8 69.12 
" style="fill:none;stroke:#000000;stroke-linecap:square;stroke-linejoin:miter;stroke-width:0.8;"/>
   </g>
   <g id="patch_5">
    <path d="M 54 512.64 
L 388.8 512.64 
" style="fill:none;stroke:#000000;stroke-linecap:square;stroke-linejoin:miter;stroke-width:0.8;"/>
   </g>
   <g id="patch_6">
    <path d="M 54 69.12 
L 388.8 69.12 
" style="fill:none;stroke:#000000;stroke-linecap:square;stroke-linejoin:miter;stroke-width:0.8;"/>
   </g>
  </g>
 </g>
 <defs>
  <clipPath id="pa3e583a5c4">
   <rect height="443.52" width="334.8" x="54" y="69.12"/>
  </clipPath>
 </defs>
</svg>
