<?xml version="1.0" encoding="utf-8" standalone="no"?>
<!DOCTYPE svg PUBLIC "-//W3C//DTD SVG 1.1//EN"
  "http://www.w3.org/Graphics/SVG/1.1/DTD/svg11.dtd">
<svg height="576pt" version="1.1" viewBox="0 0 432 576" width="432pt" xmlns="http://www.w3.org/2000/svg" xmlns:xlink="http://www.w3.org/1999/xlink">
 <metadata>
  <rdf:RDF xmlns:cc="http://creativecommons.org/ns#" xmlns:dc="http://purl.org/dc/elements/1.1/" xmlns:rdf="http://www.w3.org/1999/02/22-rdf-syntax-ns#">
   <cc:Work>
    <dc:type rdf:resource="http://purl.org/dc/dcmitype/StillImage"/>
    <dc:date>2021-06-15T11:15:37.500656</dc:date>
    <dc:format>image/svg+xml</dc:format>
    <dc:creator>
     <cc:Agent>
      <dc:title>Matplotlib v3.4.1, https://matplotlib.org/</dc:title>
     </cc:Agent>
    </dc:creator>
   </cc:Work>
  </rdf:RDF>
 </metadata>
 <defs>
  <style type="text/css">*{stroke-linecap:butt;stroke-linejoin:round;}</style>
 </defs>
 <g id="figure_1">
  <g id="patch_1">
   <path d="M 0 576 
L 432 576 
L 432 0 
L 0 0 
z
" style="fill:#ffffff;"/>
  </g>
  <g id="axes_1">
   <g id="patch_2">
    <path d="M 54 512.64 
L 388.8 512.64 
L 388.8 69.12 
L 54 69.12 
z
" style="fill:#ffffff;"/>
   </g>
   <g id="PolyCollection_1">
    <path clip-path="url(#pba8ab44d21)" d="M 69.218182 304.676668 
L 69.218182 512.64 
L 72.292562 512.64 
L 75.366942 512.64 
L 78.441322 512.64 
L 81.515702 512.64 
L 84.590083 512.64 
L 87.664463 512.64 
L 90.738843 512.64 
L 93.813223 512.64 
L 96.887603 512.64 
L 99.961983 512.64 
L 103.036364 512.64 
L 106.110744 512.64 
L 109.185124 512.64 
L 112.259504 512.64 
L 115.333884 512.64 
L 118.408264 512.64 
L 121.482645 512.64 
L 124.557025 512.64 
L 127.631405 512.64 
L 130.705785 512.64 
L 133.780165 512.64 
L 136.854545 512.64 
L 139.928926 512.64 
L 143.003306 512.64 
L 146.077686 512.64 
L 149.152066 512.64 
L 152.226446 512.64 
L 155.300826 512.64 
L 158.375207 512.64 
L 161.449587 512.64 
L 164.523967 512.64 
L 167.598347 512.64 
L 170.672727 512.64 
L 173.747107 512.64 
L 176.821488 512.64 
L 179.895868 512.64 
L 182.970248 512.64 
L 186.044628 512.64 
L 189.119008 512.64 
L 192.193388 512.64 
L 195.267769 512.64 
L 198.342149 512.64 
L 201.416529 512.64 
L 204.490909 512.64 
L 207.565289 512.64 
L 210.639669 512.64 
L 213.71405 512.64 
L 216.78843 512.64 
L 219.86281 512.64 
L 222.93719 512.64 
L 226.01157 512.64 
L 229.08595 512.64 
L 232.160331 512.64 
L 235.234711 512.64 
L 238.309091 512.64 
L 241.383471 512.64 
L 244.457851 512.64 
L 247.532231 512.64 
L 250.606612 512.64 
L 253.680992 512.64 
L 256.755372 512.64 
L 259.829752 512.64 
L 262.904132 512.64 
L 265.978512 512.64 
L 269.052893 512.64 
L 272.127273 512.64 
L 275.201653 512.64 
L 278.276033 512.64 
L 281.350413 512.64 
L 284.424793 512.64 
L 287.499174 512.64 
L 290.573554 512.64 
L 293.647934 512.64 
L 296.722314 512.64 
L 299.796694 512.64 
L 302.871074 512.64 
L 305.945455 512.64 
L 309.019835 512.64 
L 312.094215 512.64 
L 315.168595 512.64 
L 318.242975 512.64 
L 321.317355 512.64 
L 324.391736 512.64 
L 327.466116 512.64 
L 330.540496 512.64 
L 333.614876 512.64 
L 336.689256 512.64 
L 339.763636 512.64 
L 342.838017 512.64 
L 345.912397 512.64 
L 348.986777 512.64 
L 352.061157 512.64 
L 355.135537 512.64 
L 358.209917 512.64 
L 361.284298 512.64 
L 364.358678 512.64 
L 367.433058 512.64 
L 370.507438 512.64 
L 373.581818 512.64 
L 373.581818 309.251515 
L 373.581818 309.251515 
L 370.507438 309.222418 
L 367.433058 309.193206 
L 364.358678 309.163889 
L 361.284298 309.134288 
L 358.209917 309.104777 
L 355.135537 309.075207 
L 352.061157 309.045602 
L 348.986777 309.015794 
L 345.912397 308.98571 
L 342.838017 308.955617 
L 339.763636 308.925586 
L 336.689256 308.895531 
L 333.614876 308.865539 
L 330.540496 308.835431 
L 327.466116 308.805165 
L 324.391736 308.77455 
L 321.317355 308.743637 
L 318.242975 308.712509 
L 315.168595 308.681174 
L 312.094215 308.64988 
L 309.019835 308.618469 
L 305.945455 308.586821 
L 302.871074 308.554922 
L 299.796694 308.522764 
L 296.722314 308.49031 
L 293.647934 308.457634 
L 290.573554 308.424846 
L 287.499174 308.391903 
L 284.424793 308.358665 
L 281.350413 308.325129 
L 278.276033 308.291037 
L 275.201653 308.256557 
L 272.127273 308.221612 
L 269.052893 308.186269 
L 265.978512 308.15049 
L 262.904132 308.114269 
L 259.829752 308.077447 
L 256.755372 308.040205 
L 253.680992 308.00241 
L 250.606612 307.96397 
L 247.532231 307.924719 
L 244.457851 307.884489 
L 241.383471 307.84342 
L 238.309091 307.801579 
L 235.234711 307.758982 
L 232.160331 307.715538 
L 229.08595 307.671375 
L 226.01157 307.626313 
L 222.93719 307.580228 
L 219.86281 307.532902 
L 216.78843 307.484764 
L 213.71405 307.435795 
L 210.639669 307.385908 
L 207.565289 307.335266 
L 204.490909 307.282698 
L 201.416529 307.22347 
L 198.342149 307.164242 
L 195.267769 307.105014 
L 192.193388 307.045786 
L 189.119008 306.986558 
L 186.044628 306.92733 
L 182.970248 306.868102 
L 179.895868 306.808874 
L 176.821488 306.749646 
L 173.747107 306.690418 
L 170.672727 306.63119 
L 167.598347 306.571962 
L 164.523967 306.512734 
L 161.449587 306.453506 
L 158.375207 306.394278 
L 155.300826 306.335051 
L 152.226446 306.275823 
L 149.152066 306.216595 
L 146.077686 306.157367 
L 143.003306 306.098139 
L 139.928926 306.038911 
L 136.854545 305.979683 
L 133.780165 305.920455 
L 130.705785 305.861227 
L 127.631405 305.801999 
L 124.557025 305.742771 
L 121.482645 305.683543 
L 118.408264 305.624315 
L 115.333884 305.565087 
L 112.259504 305.505859 
L 109.185124 305.446631 
L 106.110744 305.387403 
L 103.036364 305.328175 
L 99.961983 305.268947 
L 96.887603 305.209719 
L 93.813223 305.150491 
L 90.738843 305.091263 
L 87.664463 305.032036 
L 84.590083 304.972808 
L 81.515702 304.91358 
L 78.441322 304.854352 
L 75.366942 304.795124 
L 72.292562 304.735896 
L 69.218182 304.676668 
z
" style="fill:#3182bd;"/>
   </g>
   <g id="PolyCollection_2">
    <path clip-path="url(#pba8ab44d21)" d="M 69.218182 265.179606 
L 69.218182 304.676668 
L 72.292562 304.735896 
L 75.366942 304.795124 
L 78.441322 304.854352 
L 81.515702 304.91358 
L 84.590083 304.972808 
L 87.664463 305.032036 
L 90.738843 305.091263 
L 93.813223 305.150491 
L 96.887603 305.209719 
L 99.961983 305.268947 
L 103.036364 305.328175 
L 106.110744 305.387403 
L 109.185124 305.446631 
L 112.259504 305.505859 
L 115.333884 305.565087 
L 118.408264 305.624315 
L 121.482645 305.683543 
L 124.557025 305.742771 
L 127.631405 305.801999 
L 130.705785 305.861227 
L 133.780165 305.920455 
L 136.854545 305.979683 
L 139.928926 306.038911 
L 143.003306 306.098139 
L 146.077686 306.157367 
L 149.152066 306.216595 
L 152.226446 306.275823 
L 155.300826 306.335051 
L 158.375207 306.394278 
L 161.449587 306.453506 
L 164.523967 306.512734 
L 167.598347 306.571962 
L 170.672727 306.63119 
L 173.747107 306.690418 
L 176.821488 306.749646 
L 179.895868 306.808874 
L 182.970248 306.868102 
L 186.044628 306.92733 
L 189.119008 306.986558 
L 192.193388 307.045786 
L 195.267769 307.105014 
L 198.342149 307.164242 
L 201.416529 307.22347 
L 204.490909 307.282698 
L 207.565289 307.335266 
L 210.639669 307.385908 
L 213.71405 307.435795 
L 216.78843 307.484764 
L 219.86281 307.532902 
L 222.93719 307.580228 
L 226.01157 307.626313 
L 229.08595 307.671375 
L 232.160331 307.715538 
L 235.234711 307.758982 
L 238.309091 307.801579 
L 241.383471 307.84342 
L 244.457851 307.884489 
L 247.532231 307.924719 
L 250.606612 307.96397 
L 253.680992 308.00241 
L 256.755372 308.040205 
L 259.829752 308.077447 
L 262.904132 308.114269 
L 265.978512 308.15049 
L 269.052893 308.186269 
L 272.127273 308.221612 
L 275.201653 308.256557 
L 278.276033 308.291037 
L 281.350413 308.325129 
L 284.424793 308.358665 
L 287.499174 308.391903 
L 290.573554 308.424846 
L 293.647934 308.457634 
L 296.722314 308.49031 
L 299.796694 308.522764 
L 302.871074 308.554922 
L 305.945455 308.586821 
L 309.019835 308.618469 
L 312.094215 308.64988 
L 315.168595 308.681174 
L 318.242975 308.712509 
L 321.317355 308.743637 
L 324.391736 308.77455 
L 327.466116 308.805165 
L 330.540496 308.835431 
L 333.614876 308.865539 
L 336.689256 308.895531 
L 339.763636 308.925586 
L 342.838017 308.955617 
L 345.912397 308.98571 
L 348.986777 309.015794 
L 352.061157 309.045602 
L 355.135537 309.075207 
L 358.209917 309.104777 
L 361.284298 309.134288 
L 364.358678 309.163889 
L 367.433058 309.193206 
L 370.507438 309.222418 
L 373.581818 309.251515 
L 373.581818 271.043174 
L 373.581818 271.043174 
L 370.507438 270.983946 
L 367.433058 270.924718 
L 364.358678 270.86549 
L 361.284298 270.806262 
L 358.209917 270.747034 
L 355.135537 270.687806 
L 352.061157 270.628578 
L 348.986777 270.56935 
L 345.912397 270.510122 
L 342.838017 270.450894 
L 339.763636 270.391666 
L 336.689256 270.332438 
L 333.614876 270.273211 
L 330.540496 270.213983 
L 327.466116 270.154755 
L 324.391736 270.095527 
L 321.317355 270.036299 
L 318.242975 269.977071 
L 315.168595 269.917843 
L 312.094215 269.858615 
L 309.019835 269.799387 
L 305.945455 269.740159 
L 302.871074 269.680931 
L 299.796694 269.621703 
L 296.722314 269.562475 
L 293.647934 269.503247 
L 290.573554 269.444019 
L 287.499174 269.384791 
L 284.424793 269.325563 
L 281.350413 269.266335 
L 278.276033 269.207107 
L 275.201653 269.147879 
L 272.127273 269.088651 
L 269.052893 269.029423 
L 265.978512 268.970196 
L 262.904132 268.910968 
L 259.829752 268.85174 
L 256.755372 268.792512 
L 253.680992 268.733284 
L 250.606612 268.674056 
L 247.532231 268.614828 
L 244.457851 268.5556 
L 241.383471 268.496372 
L 238.309091 268.437144 
L 235.234711 268.377916 
L 232.160331 268.318688 
L 229.08595 268.25946 
L 226.01157 268.200232 
L 222.93719 268.141004 
L 219.86281 268.081776 
L 216.78843 268.022548 
L 213.71405 267.96332 
L 210.639669 267.904092 
L 207.565289 267.844864 
L 204.490909 267.785636 
L 201.416529 267.726408 
L 198.342149 267.667181 
L 195.267769 267.607953 
L 192.193388 267.548725 
L 189.119008 267.489497 
L 186.044628 267.430269 
L 182.970248 267.371041 
L 179.895868 267.311813 
L 176.821488 267.252585 
L 173.747107 267.193357 
L 170.672727 267.134129 
L 167.598347 267.074901 
L 164.523967 267.015673 
L 161.449587 266.956445 
L 158.375207 266.897217 
L 155.300826 266.837989 
L 152.226446 266.778761 
L 149.152066 266.719533 
L 146.077686 266.660305 
L 143.003306 266.601077 
L 139.928926 266.541849 
L 136.854545 266.482621 
L 133.780165 266.423393 
L 130.705785 266.364166 
L 127.631405 266.304938 
L 124.557025 266.24571 
L 121.482645 266.186482 
L 118.408264 266.127254 
L 115.333884 266.068026 
L 112.259504 266.008798 
L 109.185124 265.94957 
L 106.110744 265.890342 
L 103.036364 265.831114 
L 99.961983 265.771886 
L 96.887603 265.712658 
L 93.813223 265.65343 
L 90.738843 265.594202 
L 87.664463 265.534974 
L 84.590083 265.475746 
L 81.515702 265.416518 
L 78.441322 265.35729 
L 75.366942 265.298062 
L 72.292562 265.238834 
L 69.218182 265.179606 
z
" style="fill:#6baed6;"/>
   </g>
   <g id="PolyCollection_3">
    <path clip-path="url(#pba8ab44d21)" d="M 69.218182 260.908632 
L 69.218182 265.179606 
L 72.292562 265.238834 
L 75.366942 265.298062 
L 78.441322 265.35729 
L 81.515702 265.416518 
L 84.590083 265.475746 
L 87.664463 265.534974 
L 90.738843 265.594202 
L 93.813223 265.65343 
L 96.887603 265.712658 
L 99.961983 265.771886 
L 103.036364 265.831114 
L 106.110744 265.890342 
L 109.185124 265.94957 
L 112.259504 266.008798 
L 115.333884 266.068026 
L 118.408264 266.127254 
L 121.482645 266.186482 
L 124.557025 266.24571 
L 127.631405 266.304938 
L 130.705785 266.364166 
L 133.780165 266.423393 
L 136.854545 266.482621 
L 139.928926 266.541849 
L 143.003306 266.601077 
L 146.077686 266.660305 
L 149.152066 266.719533 
L 152.226446 266.778761 
L 155.300826 266.837989 
L 158.375207 266.897217 
L 161.449587 266.956445 
L 164.523967 267.015673 
L 167.598347 267.074901 
L 170.672727 267.134129 
L 173.747107 267.193357 
L 176.821488 267.252585 
L 179.895868 267.311813 
L 182.970248 267.371041 
L 186.044628 267.430269 
L 189.119008 267.489497 
L 192.193388 267.548725 
L 195.267769 267.607953 
L 198.342149 267.667181 
L 201.416529 267.726408 
L 204.490909 267.785636 
L 207.565289 267.844864 
L 210.639669 267.904092 
L 213.71405 267.96332 
L 216.78843 268.022548 
L 219.86281 268.081776 
L 222.93719 268.141004 
L 226.01157 268.200232 
L 229.08595 268.25946 
L 232.160331 268.318688 
L 235.234711 268.377916 
L 238.309091 268.437144 
L 241.383471 268.496372 
L 244.457851 268.5556 
L 247.532231 268.614828 
L 250.606612 268.674056 
L 253.680992 268.733284 
L 256.755372 268.792512 
L 259.829752 268.85174 
L 262.904132 268.910968 
L 265.978512 268.970196 
L 269.052893 269.029423 
L 272.127273 269.088651 
L 275.201653 269.147879 
L 278.276033 269.207107 
L 281.350413 269.266335 
L 284.424793 269.325563 
L 287.499174 269.384791 
L 290.573554 269.444019 
L 293.647934 269.503247 
L 296.722314 269.562475 
L 299.796694 269.621703 
L 302.871074 269.680931 
L 305.945455 269.740159 
L 309.019835 269.799387 
L 312.094215 269.858615 
L 315.168595 269.917843 
L 318.242975 269.977071 
L 321.317355 270.036299 
L 324.391736 270.095527 
L 327.466116 270.154755 
L 330.540496 270.213983 
L 333.614876 270.273211 
L 336.689256 270.332438 
L 339.763636 270.391666 
L 342.838017 270.450894 
L 345.912397 270.510122 
L 348.986777 270.56935 
L 352.061157 270.628578 
L 355.135537 270.687806 
L 358.209917 270.747034 
L 361.284298 270.806262 
L 364.358678 270.86549 
L 367.433058 270.924718 
L 370.507438 270.983946 
L 373.581818 271.043174 
L 373.581818 266.772199 
L 373.581818 266.772199 
L 370.507438 266.712971 
L 367.433058 266.653743 
L 364.358678 266.594515 
L 361.284298 266.535287 
L 358.209917 266.476059 
L 355.135537 266.416832 
L 352.061157 266.357604 
L 348.986777 266.298376 
L 345.912397 266.239148 
L 342.838017 266.17992 
L 339.763636 266.120692 
L 336.689256 266.061464 
L 333.614876 266.002236 
L 330.540496 265.943008 
L 327.466116 265.88378 
L 324.391736 265.824552 
L 321.317355 265.765324 
L 318.242975 265.706096 
L 315.168595 265.646868 
L 312.094215 265.58764 
L 309.019835 265.528412 
L 305.945455 265.469184 
L 302.871074 265.409956 
L 299.796694 265.350728 
L 296.722314 265.2915 
L 293.647934 265.232272 
L 290.573554 265.173044 
L 287.499174 265.113817 
L 284.424793 265.054589 
L 281.350413 264.995361 
L 278.276033 264.936133 
L 275.201653 264.876905 
L 272.127273 264.817677 
L 269.052893 264.758449 
L 265.978512 264.699221 
L 262.904132 264.639993 
L 259.829752 264.580765 
L 256.755372 264.521537 
L 253.680992 264.462309 
L 250.606612 264.403081 
L 247.532231 264.343853 
L 244.457851 264.284625 
L 241.383471 264.225397 
L 238.309091 264.166169 
L 235.234711 264.106941 
L 232.160331 264.047713 
L 229.08595 263.988485 
L 226.01157 263.929257 
L 222.93719 263.870029 
L 219.86281 263.810802 
L 216.78843 263.751574 
L 213.71405 263.692346 
L 210.639669 263.633118 
L 207.565289 263.57389 
L 204.490909 263.514662 
L 201.416529 263.455434 
L 198.342149 263.396206 
L 195.267769 263.336978 
L 192.193388 263.27775 
L 189.119008 263.218522 
L 186.044628 263.159294 
L 182.970248 263.100066 
L 179.895868 263.040838 
L 176.821488 262.98161 
L 173.747107 262.922382 
L 170.672727 262.863154 
L 167.598347 262.803926 
L 164.523967 262.744698 
L 161.449587 262.68547 
L 158.375207 262.626242 
L 155.300826 262.567014 
L 152.226446 262.507787 
L 149.152066 262.448559 
L 146.077686 262.389331 
L 143.003306 262.330103 
L 139.928926 262.270875 
L 136.854545 262.211647 
L 133.780165 262.152419 
L 130.705785 262.093191 
L 127.631405 262.033963 
L 124.557025 261.974735 
L 121.482645 261.915507 
L 118.408264 261.856279 
L 115.333884 261.797051 
L 112.259504 261.737823 
L 109.185124 261.678595 
L 106.110744 261.619367 
L 103.036364 261.560139 
L 99.961983 261.500911 
L 96.887603 261.441683 
L 93.813223 261.382455 
L 90.738843 261.323227 
L 87.664463 261.263999 
L 84.590083 261.204772 
L 81.515702 261.145544 
L 78.441322 261.086316 
L 75.366942 261.027088 
L 72.292562 260.96786 
L 69.218182 260.908632 
z
" style="fill:#9ecae1;"/>
   </g>
   <g id="PolyCollection_4">
    <path clip-path="url(#pba8ab44d21)" d="M 69.218182 256.152974 
L 69.218182 260.908632 
L 72.292562 260.96786 
L 75.366942 261.027088 
L 78.441322 261.086316 
L 81.515702 261.145544 
L 84.590083 261.204772 
L 87.664463 261.263999 
L 90.738843 261.323227 
L 93.813223 261.382455 
L 96.887603 261.441683 
L 99.961983 261.500911 
L 103.036364 261.560139 
L 106.110744 261.619367 
L 109.185124 261.678595 
L 112.259504 261.737823 
L 115.333884 261.797051 
L 118.408264 261.856279 
L 121.482645 261.915507 
L 124.557025 261.974735 
L 127.631405 262.033963 
L 130.705785 262.093191 
L 133.780165 262.152419 
L 136.854545 262.211647 
L 139.928926 262.270875 
L 143.003306 262.330103 
L 146.077686 262.389331 
L 149.152066 262.448559 
L 152.226446 262.507787 
L 155.300826 262.567014 
L 158.375207 262.626242 
L 161.449587 262.68547 
L 164.523967 262.744698 
L 167.598347 262.803926 
L 170.672727 262.863154 
L 173.747107 262.922382 
L 176.821488 262.98161 
L 179.895868 263.040838 
L 182.970248 263.100066 
L 186.044628 263.159294 
L 189.119008 263.218522 
L 192.193388 263.27775 
L 195.267769 263.336978 
L 198.342149 263.396206 
L 201.416529 263.455434 
L 204.490909 263.514662 
L 207.565289 263.57389 
L 210.639669 263.633118 
L 213.71405 263.692346 
L 216.78843 263.751574 
L 219.86281 263.810802 
L 222.93719 263.870029 
L 226.01157 263.929257 
L 229.08595 263.988485 
L 232.160331 264.047713 
L 235.234711 264.106941 
L 238.309091 264.166169 
L 241.383471 264.225397 
L 244.457851 264.284625 
L 247.532231 264.343853 
L 250.606612 264.403081 
L 253.680992 264.462309 
L 256.755372 264.521537 
L 259.829752 264.580765 
L 262.904132 264.639993 
L 265.978512 264.699221 
L 269.052893 264.758449 
L 272.127273 264.817677 
L 275.201653 264.876905 
L 278.276033 264.936133 
L 281.350413 264.995361 
L 284.424793 265.054589 
L 287.499174 265.113817 
L 290.573554 265.173044 
L 293.647934 265.232272 
L 296.722314 265.2915 
L 299.796694 265.350728 
L 302.871074 265.409956 
L 305.945455 265.469184 
L 309.019835 265.528412 
L 312.094215 265.58764 
L 315.168595 265.646868 
L 318.242975 265.706096 
L 321.317355 265.765324 
L 324.391736 265.824552 
L 327.466116 265.88378 
L 330.540496 265.943008 
L 333.614876 266.002236 
L 336.689256 266.061464 
L 339.763636 266.120692 
L 342.838017 266.17992 
L 345.912397 266.239148 
L 348.986777 266.298376 
L 352.061157 266.357604 
L 355.135537 266.416832 
L 358.209917 266.476059 
L 361.284298 266.535287 
L 364.358678 266.594515 
L 367.433058 266.653743 
L 370.507438 266.712971 
L 373.581818 266.772199 
L 373.581818 262.016541 
L 373.581818 262.016541 
L 370.507438 261.957314 
L 367.433058 261.898086 
L 364.358678 261.838858 
L 361.284298 261.77963 
L 358.209917 261.720402 
L 355.135537 261.661174 
L 352.061157 261.601946 
L 348.986777 261.542718 
L 345.912397 261.48349 
L 342.838017 261.424262 
L 339.763636 261.365034 
L 336.689256 261.305806 
L 333.614876 261.246578 
L 330.540496 261.18735 
L 327.466116 261.128122 
L 324.391736 261.068894 
L 321.317355 261.009666 
L 318.242975 260.950438 
L 315.168595 260.89121 
L 312.094215 260.831982 
L 309.019835 260.772754 
L 305.945455 260.713527 
L 302.871074 260.654299 
L 299.796694 260.595071 
L 296.722314 260.535843 
L 293.647934 260.476615 
L 290.573554 260.417387 
L 287.499174 260.358159 
L 284.424793 260.298931 
L 281.350413 260.239703 
L 278.276033 260.180475 
L 275.201653 260.121247 
L 272.127273 260.062019 
L 269.052893 260.002791 
L 265.978512 259.943563 
L 262.904132 259.884335 
L 259.829752 259.825107 
L 256.755372 259.765879 
L 253.680992 259.706651 
L 250.606612 259.647423 
L 247.532231 259.588195 
L 244.457851 259.528967 
L 241.383471 259.469739 
L 238.309091 259.410512 
L 235.234711 259.351284 
L 232.160331 259.292056 
L 229.08595 259.232828 
L 226.01157 259.1736 
L 222.93719 259.114372 
L 219.86281 259.055144 
L 216.78843 258.995916 
L 213.71405 258.936688 
L 210.639669 258.87746 
L 207.565289 258.818232 
L 204.490909 258.759004 
L 201.416529 258.699776 
L 198.342149 258.640548 
L 195.267769 258.58132 
L 192.193388 258.522092 
L 189.119008 258.462864 
L 186.044628 258.403636 
L 182.970248 258.344408 
L 179.895868 258.28518 
L 176.821488 258.225952 
L 173.747107 258.166724 
L 170.672727 258.107497 
L 167.598347 258.048269 
L 164.523967 257.989041 
L 161.449587 257.929813 
L 158.375207 257.870585 
L 155.300826 257.811357 
L 152.226446 257.752129 
L 149.152066 257.692901 
L 146.077686 257.633673 
L 143.003306 257.574445 
L 139.928926 257.515217 
L 136.854545 257.455989 
L 133.780165 257.396761 
L 130.705785 257.337533 
L 127.631405 257.278305 
L 124.557025 257.219077 
L 121.482645 257.159849 
L 118.408264 257.100621 
L 115.333884 257.041393 
L 112.259504 256.982165 
L 109.185124 256.922937 
L 106.110744 256.863709 
L 103.036364 256.804482 
L 99.961983 256.745254 
L 96.887603 256.686026 
L 93.813223 256.626798 
L 90.738843 256.56757 
L 87.664463 256.508342 
L 84.590083 256.449114 
L 81.515702 256.389886 
L 78.441322 256.330658 
L 75.366942 256.27143 
L 72.292562 256.212202 
L 69.218182 256.152974 
z
" style="fill:#c6dbef;"/>
   </g>
   <g id="PolyCollection_5">
    <path clip-path="url(#pba8ab44d21)" d="M 69.218182 238.577686 
L 69.218182 256.152974 
L 72.292562 256.212202 
L 75.366942 256.27143 
L 78.441322 256.330658 
L 81.515702 256.389886 
L 84.590083 256.449114 
L 87.664463 256.508342 
L 90.738843 256.56757 
L 93.813223 256.626798 
L 96.887603 256.686026 
L 99.961983 256.745254 
L 103.036364 256.804482 
L 106.110744 256.863709 
L 109.185124 256.922937 
L 112.259504 256.982165 
L 115.333884 257.041393 
L 118.408264 257.100621 
L 121.482645 257.159849 
L 124.557025 257.219077 
L 127.631405 257.278305 
L 130.705785 257.337533 
L 133.780165 257.396761 
L 136.854545 257.455989 
L 139.928926 257.515217 
L 143.003306 257.574445 
L 146.077686 257.633673 
L 149.152066 257.692901 
L 152.226446 257.752129 
L 155.300826 257.811357 
L 158.375207 257.870585 
L 161.449587 257.929813 
L 164.523967 257.989041 
L 167.598347 258.048269 
L 170.672727 258.107497 
L 173.747107 258.166724 
L 176.821488 258.225952 
L 179.895868 258.28518 
L 182.970248 258.344408 
L 186.044628 258.403636 
L 189.119008 258.462864 
L 192.193388 258.522092 
L 195.267769 258.58132 
L 198.342149 258.640548 
L 201.416529 258.699776 
L 204.490909 258.759004 
L 207.565289 258.818232 
L 210.639669 258.87746 
L 213.71405 258.936688 
L 216.78843 258.995916 
L 219.86281 259.055144 
L 222.93719 259.114372 
L 226.01157 259.1736 
L 229.08595 259.232828 
L 232.160331 259.292056 
L 235.234711 259.351284 
L 238.309091 259.410512 
L 241.383471 259.469739 
L 244.457851 259.528967 
L 247.532231 259.588195 
L 250.606612 259.647423 
L 253.680992 259.706651 
L 256.755372 259.765879 
L 259.829752 259.825107 
L 262.904132 259.884335 
L 265.978512 259.943563 
L 269.052893 260.002791 
L 272.127273 260.062019 
L 275.201653 260.121247 
L 278.276033 260.180475 
L 281.350413 260.239703 
L 284.424793 260.298931 
L 287.499174 260.358159 
L 290.573554 260.417387 
L 293.647934 260.476615 
L 296.722314 260.535843 
L 299.796694 260.595071 
L 302.871074 260.654299 
L 305.945455 260.713527 
L 309.019835 260.772754 
L 312.094215 260.831982 
L 315.168595 260.89121 
L 318.242975 260.950438 
L 321.317355 261.009666 
L 324.391736 261.068894 
L 327.466116 261.128122 
L 330.540496 261.18735 
L 333.614876 261.246578 
L 336.689256 261.305806 
L 339.763636 261.365034 
L 342.838017 261.424262 
L 345.912397 261.48349 
L 348.986777 261.542718 
L 352.061157 261.601946 
L 355.135537 261.661174 
L 358.209917 261.720402 
L 361.284298 261.77963 
L 364.358678 261.838858 
L 367.433058 261.898086 
L 370.507438 261.957314 
L 373.581818 262.016541 
L 373.581818 244.441253 
L 373.581818 244.441253 
L 370.507438 244.382025 
L 367.433058 244.322797 
L 364.358678 244.263569 
L 361.284298 244.204341 
L 358.209917 244.145113 
L 355.135537 244.085886 
L 352.061157 244.026658 
L 348.986777 243.96743 
L 345.912397 243.908202 
L 342.838017 243.848974 
L 339.763636 243.789746 
L 336.689256 243.730518 
L 333.614876 243.67129 
L 330.540496 243.612062 
L 327.466116 243.552834 
L 324.391736 243.493606 
L 321.317355 243.434378 
L 318.242975 243.37515 
L 315.168595 243.315922 
L 312.094215 243.256694 
L 309.019835 243.197466 
L 305.945455 243.138238 
L 302.871074 243.07901 
L 299.796694 243.019782 
L 296.722314 242.960554 
L 293.647934 242.901326 
L 290.573554 242.842098 
L 287.499174 242.782871 
L 284.424793 242.723643 
L 281.350413 242.664415 
L 278.276033 242.605187 
L 275.201653 242.545959 
L 272.127273 242.486731 
L 269.052893 242.427503 
L 265.978512 242.368275 
L 262.904132 242.309047 
L 259.829752 242.249819 
L 256.755372 242.190591 
L 253.680992 242.131363 
L 250.606612 242.072135 
L 247.532231 242.012907 
L 244.457851 241.953679 
L 241.383471 241.894451 
L 238.309091 241.835223 
L 235.234711 241.775995 
L 232.160331 241.716767 
L 229.08595 241.657539 
L 226.01157 241.598311 
L 222.93719 241.539083 
L 219.86281 241.479856 
L 216.78843 241.420628 
L 213.71405 241.3614 
L 210.639669 241.302172 
L 207.565289 241.242944 
L 204.490909 241.183716 
L 201.416529 241.124488 
L 198.342149 241.06526 
L 195.267769 241.006032 
L 192.193388 240.946804 
L 189.119008 240.887576 
L 186.044628 240.828348 
L 182.970248 240.76912 
L 179.895868 240.709892 
L 176.821488 240.650664 
L 173.747107 240.591436 
L 170.672727 240.532208 
L 167.598347 240.47298 
L 164.523967 240.413752 
L 161.449587 240.354524 
L 158.375207 240.295296 
L 155.300826 240.236068 
L 152.226446 240.176841 
L 149.152066 240.117613 
L 146.077686 240.058385 
L 143.003306 239.999157 
L 139.928926 239.939929 
L 136.854545 239.880701 
L 133.780165 239.821473 
L 130.705785 239.762245 
L 127.631405 239.703017 
L 124.557025 239.643789 
L 121.482645 239.584561 
L 118.408264 239.525333 
L 115.333884 239.466105 
L 112.259504 239.406877 
L 109.185124 239.347649 
L 106.110744 239.288421 
L 103.036364 239.229193 
L 99.961983 239.169965 
L 96.887603 239.110737 
L 93.813223 239.051509 
L 90.738843 238.992281 
L 87.664463 238.933053 
L 84.590083 238.873826 
L 81.515702 238.814598 
L 78.441322 238.75537 
L 75.366942 238.696142 
L 72.292562 238.636914 
L 69.218182 238.577686 
z
" style="fill:#e6550d;"/>
   </g>
   <g id="PolyCollection_6">
    <path clip-path="url(#pba8ab44d21)" d="M 69.218182 212.599631 
L 69.218182 238.577686 
L 72.292562 238.636914 
L 75.366942 238.696142 
L 78.441322 238.75537 
L 81.515702 238.814598 
L 84.590083 238.873826 
L 87.664463 238.933053 
L 90.738843 238.992281 
L 93.813223 239.051509 
L 96.887603 239.110737 
L 99.961983 239.169965 
L 103.036364 239.229193 
L 106.110744 239.288421 
L 109.185124 239.347649 
L 112.259504 239.406877 
L 115.333884 239.466105 
L 118.408264 239.525333 
L 121.482645 239.584561 
L 124.557025 239.643789 
L 127.631405 239.703017 
L 130.705785 239.762245 
L 133.780165 239.821473 
L 136.854545 239.880701 
L 139.928926 239.939929 
L 143.003306 239.999157 
L 146.077686 240.058385 
L 149.152066 240.117613 
L 152.226446 240.176841 
L 155.300826 240.236068 
L 158.375207 240.295296 
L 161.449587 240.354524 
L 164.523967 240.413752 
L 167.598347 240.47298 
L 170.672727 240.532208 
L 173.747107 240.591436 
L 176.821488 240.650664 
L 179.895868 240.709892 
L 182.970248 240.76912 
L 186.044628 240.828348 
L 189.119008 240.887576 
L 192.193388 240.946804 
L 195.267769 241.006032 
L 198.342149 241.06526 
L 201.416529 241.124488 
L 204.490909 241.183716 
L 207.565289 241.242944 
L 210.639669 241.302172 
L 213.71405 241.3614 
L 216.78843 241.420628 
L 219.86281 241.479856 
L 222.93719 241.539083 
L 226.01157 241.598311 
L 229.08595 241.657539 
L 232.160331 241.716767 
L 235.234711 241.775995 
L 238.309091 241.835223 
L 241.383471 241.894451 
L 244.457851 241.953679 
L 247.532231 242.012907 
L 250.606612 242.072135 
L 253.680992 242.131363 
L 256.755372 242.190591 
L 259.829752 242.249819 
L 262.904132 242.309047 
L 265.978512 242.368275 
L 269.052893 242.427503 
L 272.127273 242.486731 
L 275.201653 242.545959 
L 278.276033 242.605187 
L 281.350413 242.664415 
L 284.424793 242.723643 
L 287.499174 242.782871 
L 290.573554 242.842098 
L 293.647934 242.901326 
L 296.722314 242.960554 
L 299.796694 243.019782 
L 302.871074 243.07901 
L 305.945455 243.138238 
L 309.019835 243.197466 
L 312.094215 243.256694 
L 315.168595 243.315922 
L 318.242975 243.37515 
L 321.317355 243.434378 
L 324.391736 243.493606 
L 327.466116 243.552834 
L 330.540496 243.612062 
L 333.614876 243.67129 
L 336.689256 243.730518 
L 339.763636 243.789746 
L 342.838017 243.848974 
L 345.912397 243.908202 
L 348.986777 243.96743 
L 352.061157 244.026658 
L 355.135537 244.085886 
L 358.209917 244.145113 
L 361.284298 244.204341 
L 364.358678 244.263569 
L 367.433058 244.322797 
L 370.507438 244.382025 
L 373.581818 244.441253 
L 373.581818 218.463199 
L 373.581818 218.463199 
L 370.507438 218.403971 
L 367.433058 218.344743 
L 364.358678 218.285515 
L 361.284298 218.226287 
L 358.209917 218.167059 
L 355.135537 218.107831 
L 352.061157 218.048603 
L 348.986777 217.989375 
L 345.912397 217.930147 
L 342.838017 217.870919 
L 339.763636 217.811691 
L 336.689256 217.752463 
L 333.614876 217.693235 
L 330.540496 217.634008 
L 327.466116 217.57478 
L 324.391736 217.515552 
L 321.317355 217.456324 
L 318.242975 217.397096 
L 315.168595 217.337868 
L 312.094215 217.27864 
L 309.019835 217.219412 
L 305.945455 217.160184 
L 302.871074 217.100956 
L 299.796694 217.041728 
L 296.722314 216.9825 
L 293.647934 216.923272 
L 290.573554 216.864044 
L 287.499174 216.804816 
L 284.424793 216.745588 
L 281.350413 216.68636 
L 278.276033 216.627132 
L 275.201653 216.567904 
L 272.127273 216.508676 
L 269.052893 216.449448 
L 265.978512 216.39022 
L 262.904132 216.330993 
L 259.829752 216.271765 
L 256.755372 216.212537 
L 253.680992 216.153309 
L 250.606612 216.094081 
L 247.532231 216.034853 
L 244.457851 215.975625 
L 241.383471 215.916397 
L 238.309091 215.857169 
L 235.234711 215.797941 
L 232.160331 215.738713 
L 229.08595 215.679485 
L 226.01157 215.620257 
L 222.93719 215.561029 
L 219.86281 215.501801 
L 216.78843 215.442573 
L 213.71405 215.383345 
L 210.639669 215.324117 
L 207.565289 215.264889 
L 204.490909 215.205661 
L 201.416529 215.146433 
L 198.342149 215.087205 
L 195.267769 215.027978 
L 192.193388 214.96875 
L 189.119008 214.909522 
L 186.044628 214.850294 
L 182.970248 214.791066 
L 179.895868 214.731838 
L 176.821488 214.67261 
L 173.747107 214.613382 
L 170.672727 214.554154 
L 167.598347 214.494926 
L 164.523967 214.435698 
L 161.449587 214.37647 
L 158.375207 214.317242 
L 155.300826 214.258014 
L 152.226446 214.198786 
L 149.152066 214.139558 
L 146.077686 214.08033 
L 143.003306 214.021102 
L 139.928926 213.961874 
L 136.854545 213.902646 
L 133.780165 213.843418 
L 130.705785 213.78419 
L 127.631405 213.724963 
L 124.557025 213.665735 
L 121.482645 213.606507 
L 118.408264 213.547279 
L 115.333884 213.488051 
L 112.259504 213.428823 
L 109.185124 213.369595 
L 106.110744 213.310367 
L 103.036364 213.251139 
L 99.961983 213.191911 
L 96.887603 213.132683 
L 93.813223 213.073455 
L 90.738843 213.014227 
L 87.664463 212.954999 
L 84.590083 212.895771 
L 81.515702 212.836543 
L 78.441322 212.777315 
L 75.366942 212.718087 
L 72.292562 212.658859 
L 69.218182 212.599631 
z
" style="fill:#fd8d3c;"/>
   </g>
   <g id="PolyCollection_7">
    <path clip-path="url(#pba8ab44d21)" d="M 69.218182 199.185433 
L 69.218182 212.599631 
L 72.292562 212.658859 
L 75.366942 212.718087 
L 78.441322 212.777315 
L 81.515702 212.836543 
L 84.590083 212.895771 
L 87.664463 212.954999 
L 90.738843 213.014227 
L 93.813223 213.073455 
L 96.887603 213.132683 
L 99.961983 213.191911 
L 103.036364 213.251139 
L 106.110744 213.310367 
L 109.185124 213.369595 
L 112.259504 213.428823 
L 115.333884 213.488051 
L 118.408264 213.547279 
L 121.482645 213.606507 
L 124.557025 213.665735 
L 127.631405 213.724963 
L 130.705785 213.78419 
L 133.780165 213.843418 
L 136.854545 213.902646 
L 139.928926 213.961874 
L 143.003306 214.021102 
L 146.077686 214.08033 
L 149.152066 214.139558 
L 152.226446 214.198786 
L 155.300826 214.258014 
L 158.375207 214.317242 
L 161.449587 214.37647 
L 164.523967 214.435698 
L 167.598347 214.494926 
L 170.672727 214.554154 
L 173.747107 214.613382 
L 176.821488 214.67261 
L 179.895868 214.731838 
L 182.970248 214.791066 
L 186.044628 214.850294 
L 189.119008 214.909522 
L 192.193388 214.96875 
L 195.267769 215.027978 
L 198.342149 215.087205 
L 201.416529 215.146433 
L 204.490909 215.205661 
L 207.565289 215.264889 
L 210.639669 215.324117 
L 213.71405 215.383345 
L 216.78843 215.442573 
L 219.86281 215.501801 
L 222.93719 215.561029 
L 226.01157 215.620257 
L 229.08595 215.679485 
L 232.160331 215.738713 
L 235.234711 215.797941 
L 238.309091 215.857169 
L 241.383471 215.916397 
L 244.457851 215.975625 
L 247.532231 216.034853 
L 250.606612 216.094081 
L 253.680992 216.153309 
L 256.755372 216.212537 
L 259.829752 216.271765 
L 262.904132 216.330993 
L 265.978512 216.39022 
L 269.052893 216.449448 
L 272.127273 216.508676 
L 275.201653 216.567904 
L 278.276033 216.627132 
L 281.350413 216.68636 
L 284.424793 216.745588 
L 287.499174 216.804816 
L 290.573554 216.864044 
L 293.647934 216.923272 
L 296.722314 216.9825 
L 299.796694 217.041728 
L 302.871074 217.100956 
L 305.945455 217.160184 
L 309.019835 217.219412 
L 312.094215 217.27864 
L 315.168595 217.337868 
L 318.242975 217.397096 
L 321.317355 217.456324 
L 324.391736 217.515552 
L 327.466116 217.57478 
L 330.540496 217.634008 
L 333.614876 217.693235 
L 336.689256 217.752463 
L 339.763636 217.811691 
L 342.838017 217.870919 
L 345.912397 217.930147 
L 348.986777 217.989375 
L 352.061157 218.048603 
L 355.135537 218.107831 
L 358.209917 218.167059 
L 361.284298 218.226287 
L 364.358678 218.285515 
L 367.433058 218.344743 
L 370.507438 218.403971 
L 373.581818 218.463199 
L 373.581818 218.463199 
L 373.581818 218.463199 
L 370.507438 218.268474 
L 367.433058 218.073749 
L 364.358678 217.879024 
L 361.284298 217.684299 
L 358.209917 217.489574 
L 355.135537 217.294849 
L 352.061157 217.100125 
L 348.986777 216.9054 
L 345.912397 216.710675 
L 342.838017 216.51595 
L 339.763636 216.321225 
L 336.689256 216.1265 
L 333.614876 215.931775 
L 330.540496 215.73705 
L 327.466116 215.542325 
L 324.391736 215.3476 
L 321.317355 215.152875 
L 318.242975 214.95815 
L 315.168595 214.763426 
L 312.094215 214.568701 
L 309.019835 214.373976 
L 305.945455 214.179251 
L 302.871074 213.984526 
L 299.796694 213.789801 
L 296.722314 213.595076 
L 293.647934 213.400351 
L 290.573554 213.205626 
L 287.499174 213.010901 
L 284.424793 212.816176 
L 281.350413 212.621452 
L 278.276033 212.426727 
L 275.201653 212.232002 
L 272.127273 212.037277 
L 269.052893 211.842552 
L 265.978512 211.647827 
L 262.904132 211.453102 
L 259.829752 211.258377 
L 256.755372 211.063652 
L 253.680992 210.868927 
L 250.606612 210.674202 
L 247.532231 210.479478 
L 244.457851 210.284753 
L 241.383471 210.090028 
L 238.309091 209.895303 
L 235.234711 209.700578 
L 232.160331 209.505853 
L 229.08595 209.311128 
L 226.01157 209.116403 
L 222.93719 208.921678 
L 219.86281 208.726953 
L 216.78843 208.532228 
L 213.71405 208.337504 
L 210.639669 208.142779 
L 207.565289 207.948054 
L 204.490909 207.753329 
L 201.416529 207.558604 
L 198.342149 207.363879 
L 195.267769 207.169154 
L 192.193388 206.974429 
L 189.119008 206.779704 
L 186.044628 206.584979 
L 182.970248 206.390254 
L 179.895868 206.19553 
L 176.821488 206.000805 
L 173.747107 205.80608 
L 170.672727 205.611355 
L 167.598347 205.41663 
L 164.523967 205.221905 
L 161.449587 205.02718 
L 158.375207 204.832455 
L 155.300826 204.63773 
L 152.226446 204.443005 
L 149.152066 204.24828 
L 146.077686 204.053556 
L 143.003306 203.858831 
L 139.928926 203.664106 
L 136.854545 203.469381 
L 133.780165 203.274656 
L 130.705785 203.079931 
L 127.631405 202.885206 
L 124.557025 202.690481 
L 121.482645 202.495756 
L 118.408264 202.301031 
L 115.333884 202.106306 
L 112.259504 201.911582 
L 109.185124 201.716857 
L 106.110744 201.522132 
L 103.036364 201.327407 
L 99.961983 201.132682 
L 96.887603 200.937957 
L 93.813223 200.743232 
L 90.738843 200.548507 
L 87.664463 200.353782 
L 84.590083 200.159057 
L 81.515702 199.964332 
L 78.441322 199.769608 
L 75.366942 199.574883 
L 72.292562 199.380158 
L 69.218182 199.185433 
z
" style="fill:#fdae6b;"/>
   </g>
   <g id="PolyCollection_8">
    <path clip-path="url(#pba8ab44d21)" d="M 69.218182 104.943127 
L 69.218182 199.185433 
L 72.292562 199.380158 
L 75.366942 199.574883 
L 78.441322 199.769608 
L 81.515702 199.964332 
L 84.590083 200.159057 
L 87.664463 200.353782 
L 90.738843 200.548507 
L 93.813223 200.743232 
L 96.887603 200.937957 
L 99.961983 201.132682 
L 103.036364 201.327407 
L 106.110744 201.522132 
L 109.185124 201.716857 
L 112.259504 201.911582 
L 115.333884 202.106306 
L 118.408264 202.301031 
L 121.482645 202.495756 
L 124.557025 202.690481 
L 127.631405 202.885206 
L 130.705785 203.079931 
L 133.780165 203.274656 
L 136.854545 203.469381 
L 139.928926 203.664106 
L 143.003306 203.858831 
L 146.077686 204.053556 
L 149.152066 204.24828 
L 152.226446 204.443005 
L 155.300826 204.63773 
L 158.375207 204.832455 
L 161.449587 205.02718 
L 164.523967 205.221905 
L 167.598347 205.41663 
L 170.672727 205.611355 
L 173.747107 205.80608 
L 176.821488 206.000805 
L 179.895868 206.19553 
L 182.970248 206.390254 
L 186.044628 206.584979 
L 189.119008 206.779704 
L 192.193388 206.974429 
L 195.267769 207.169154 
L 198.342149 207.363879 
L 201.416529 207.558604 
L 204.490909 207.753329 
L 207.565289 207.948054 
L 210.639669 208.142779 
L 213.71405 208.337504 
L 216.78843 208.532228 
L 219.86281 208.726953 
L 222.93719 208.921678 
L 226.01157 209.116403 
L 229.08595 209.311128 
L 232.160331 209.505853 
L 235.234711 209.700578 
L 238.309091 209.895303 
L 241.383471 210.090028 
L 244.457851 210.284753 
L 247.532231 210.479478 
L 250.606612 210.674202 
L 253.680992 210.868927 
L 256.755372 211.063652 
L 259.829752 211.258377 
L 262.904132 211.453102 
L 265.978512 211.647827 
L 269.052893 211.842552 
L 272.127273 212.037277 
L 275.201653 212.232002 
L 278.276033 212.426727 
L 281.350413 212.621452 
L 284.424793 212.816176 
L 287.499174 213.010901 
L 290.573554 213.205626 
L 293.647934 213.400351 
L 296.722314 213.595076 
L 299.796694 213.789801 
L 302.871074 213.984526 
L 305.945455 214.179251 
L 309.019835 214.373976 
L 312.094215 214.568701 
L 315.168595 214.763426 
L 318.242975 214.95815 
L 321.317355 215.152875 
L 324.391736 215.3476 
L 327.466116 215.542325 
L 330.540496 215.73705 
L 333.614876 215.931775 
L 336.689256 216.1265 
L 339.763636 216.321225 
L 342.838017 216.51595 
L 345.912397 216.710675 
L 348.986777 216.9054 
L 352.061157 217.100125 
L 355.135537 217.294849 
L 358.209917 217.489574 
L 361.284298 217.684299 
L 364.358678 217.879024 
L 367.433058 218.073749 
L 370.507438 218.268474 
L 373.581818 218.463199 
L 373.581818 124.220893 
L 373.581818 124.220893 
L 370.507438 124.026168 
L 367.433058 123.831443 
L 364.358678 123.636718 
L 361.284298 123.441993 
L 358.209917 123.247268 
L 355.135537 123.052543 
L 352.061157 122.857818 
L 348.986777 122.663093 
L 345.912397 122.468368 
L 342.838017 122.273643 
L 339.763636 122.078919 
L 336.689256 121.884194 
L 333.614876 121.689469 
L 330.540496 121.494744 
L 327.466116 121.300019 
L 324.391736 121.105294 
L 321.317355 120.910569 
L 318.242975 120.715844 
L 315.168595 120.521119 
L 312.094215 120.326394 
L 309.019835 120.131669 
L 305.945455 119.936945 
L 302.871074 119.74222 
L 299.796694 119.547495 
L 296.722314 119.35277 
L 293.647934 119.158045 
L 290.573554 118.96332 
L 287.499174 118.768595 
L 284.424793 118.57387 
L 281.350413 118.379145 
L 278.276033 118.18442 
L 275.201653 117.989695 
L 272.127273 117.794971 
L 269.052893 117.600246 
L 265.978512 117.405521 
L 262.904132 117.210796 
L 259.829752 117.016071 
L 256.755372 116.821346 
L 253.680992 116.626621 
L 250.606612 116.431896 
L 247.532231 116.237171 
L 244.457851 116.042446 
L 241.383471 115.847721 
L 238.309091 115.652997 
L 235.234711 115.458272 
L 232.160331 115.263547 
L 229.08595 115.068822 
L 226.01157 114.874097 
L 222.93719 114.679372 
L 219.86281 114.484647 
L 216.78843 114.289922 
L 213.71405 114.095197 
L 210.639669 113.900472 
L 207.565289 113.705747 
L 204.490909 113.511023 
L 201.416529 113.316298 
L 198.342149 113.121573 
L 195.267769 112.926848 
L 192.193388 112.732123 
L 189.119008 112.537398 
L 186.044628 112.342673 
L 182.970248 112.147948 
L 179.895868 111.953223 
L 176.821488 111.758498 
L 173.747107 111.563773 
L 170.672727 111.369049 
L 167.598347 111.174324 
L 164.523967 110.979599 
L 161.449587 110.784874 
L 158.375207 110.590149 
L 155.300826 110.395424 
L 152.226446 110.200699 
L 149.152066 110.005974 
L 146.077686 109.811249 
L 143.003306 109.616524 
L 139.928926 109.421799 
L 136.854545 109.227075 
L 133.780165 109.03235 
L 130.705785 108.837625 
L 127.631405 108.6429 
L 124.557025 108.448175 
L 121.482645 108.25345 
L 118.408264 108.058725 
L 115.333884 107.864 
L 112.259504 107.669275 
L 109.185124 107.47455 
L 106.110744 107.279825 
L 103.036364 107.085101 
L 99.961983 106.890376 
L 96.887603 106.695651 
L 93.813223 106.500926 
L 90.738843 106.306201 
L 87.664463 106.111476 
L 84.590083 105.916751 
L 81.515702 105.722026 
L 78.441322 105.527301 
L 75.366942 105.332576 
L 72.292562 105.137851 
L 69.218182 104.943127 
z
" style="fill:#fdd0a2;"/>
   </g>
   <g id="PolyCollection_9">
    <path clip-path="url(#pba8ab44d21)" d="M 69.218182 90.24 
L 69.218182 104.943127 
L 72.292562 105.137851 
L 75.366942 105.332576 
L 78.441322 105.527301 
L 81.515702 105.722026 
L 84.590083 105.916751 
L 87.664463 106.111476 
L 90.738843 106.306201 
L 93.813223 106.500926 
L 96.887603 106.695651 
L 99.961983 106.890376 
L 103.036364 107.085101 
L 106.110744 107.279825 
L 109.185124 107.47455 
L 112.259504 107.669275 
L 115.333884 107.864 
L 118.408264 108.058725 
L 121.482645 108.25345 
L 124.557025 108.448175 
L 127.631405 108.6429 
L 130.705785 108.837625 
L 133.780165 109.03235 
L 136.854545 109.227075 
L 139.928926 109.421799 
L 143.003306 109.616524 
L 146.077686 109.811249 
L 149.152066 110.005974 
L 152.226446 110.200699 
L 155.300826 110.395424 
L 158.375207 110.590149 
L 161.449587 110.784874 
L 164.523967 110.979599 
L 167.598347 111.174324 
L 170.672727 111.369049 
L 173.747107 111.563773 
L 176.821488 111.758498 
L 179.895868 111.953223 
L 182.970248 112.147948 
L 186.044628 112.342673 
L 189.119008 112.537398 
L 192.193388 112.732123 
L 195.267769 112.926848 
L 198.342149 113.121573 
L 201.416529 113.316298 
L 204.490909 113.511023 
L 207.565289 113.705747 
L 210.639669 113.900472 
L 213.71405 114.095197 
L 216.78843 114.289922 
L 219.86281 114.484647 
L 222.93719 114.679372 
L 226.01157 114.874097 
L 229.08595 115.068822 
L 232.160331 115.263547 
L 235.234711 115.458272 
L 238.309091 115.652997 
L 241.383471 115.847721 
L 244.457851 116.042446 
L 247.532231 116.237171 
L 250.606612 116.431896 
L 253.680992 116.626621 
L 256.755372 116.821346 
L 259.829752 117.016071 
L 262.904132 117.210796 
L 265.978512 117.405521 
L 269.052893 117.600246 
L 272.127273 117.794971 
L 275.201653 117.989695 
L 278.276033 118.18442 
L 281.350413 118.379145 
L 284.424793 118.57387 
L 287.499174 118.768595 
L 290.573554 118.96332 
L 293.647934 119.158045 
L 296.722314 119.35277 
L 299.796694 119.547495 
L 302.871074 119.74222 
L 305.945455 119.936945 
L 309.019835 120.131669 
L 312.094215 120.326394 
L 315.168595 120.521119 
L 318.242975 120.715844 
L 321.317355 120.910569 
L 324.391736 121.105294 
L 327.466116 121.300019 
L 330.540496 121.494744 
L 333.614876 121.689469 
L 336.689256 121.884194 
L 339.763636 122.078919 
L 342.838017 122.273643 
L 345.912397 122.468368 
L 348.986777 122.663093 
L 352.061157 122.857818 
L 355.135537 123.052543 
L 358.209917 123.247268 
L 361.284298 123.441993 
L 364.358678 123.636718 
L 367.433058 123.831443 
L 370.507438 124.026168 
L 373.581818 124.220893 
L 373.581818 124.220893 
L 373.581818 124.220893 
L 370.507438 123.877651 
L 367.433058 123.53441 
L 364.358678 123.191169 
L 361.284298 122.847927 
L 358.209917 122.504686 
L 355.135537 122.161445 
L 352.061157 121.818203 
L 348.986777 121.474962 
L 345.912397 121.131721 
L 342.838017 120.788479 
L 339.763636 120.445238 
L 336.689256 120.101997 
L 333.614876 119.758755 
L 330.540496 119.415514 
L 327.466116 119.072273 
L 324.391736 118.729031 
L 321.317355 118.38579 
L 318.242975 118.042548 
L 315.168595 117.699307 
L 312.094215 117.356066 
L 309.019835 117.012824 
L 305.945455 116.669583 
L 302.871074 116.326342 
L 299.796694 115.9831 
L 296.722314 115.639859 
L 293.647934 115.296618 
L 290.573554 114.953376 
L 287.499174 114.610135 
L 284.424793 114.266894 
L 281.350413 113.923652 
L 278.276033 113.580411 
L 275.201653 113.23717 
L 272.127273 112.893928 
L 269.052893 112.550687 
L 265.978512 112.207446 
L 262.904132 111.864204 
L 259.829752 111.520963 
L 256.755372 111.177722 
L 253.680992 110.83448 
L 250.606612 110.491239 
L 247.532231 110.147998 
L 244.457851 109.804756 
L 241.383471 109.461515 
L 238.309091 109.118274 
L 235.234711 108.775032 
L 232.160331 108.431791 
L 229.08595 108.08855 
L 226.01157 107.745308 
L 222.93719 107.402067 
L 219.86281 107.058826 
L 216.78843 106.715584 
L 213.71405 106.372343 
L 210.639669 106.029102 
L 207.565289 105.68586 
L 204.490909 105.342619 
L 201.416529 104.999378 
L 198.342149 104.656136 
L 195.267769 104.312895 
L 192.193388 103.969654 
L 189.119008 103.626412 
L 186.044628 103.283171 
L 182.970248 102.93993 
L 179.895868 102.596688 
L 176.821488 102.253447 
L 173.747107 101.910206 
L 170.672727 101.566964 
L 167.598347 101.223723 
L 164.523967 100.880482 
L 161.449587 100.53724 
L 158.375207 100.193999 
L 155.300826 99.850758 
L 152.226446 99.507516 
L 149.152066 99.164275 
L 146.077686 98.821033 
L 143.003306 98.477792 
L 139.928926 98.134551 
L 136.854545 97.791309 
L 133.780165 97.448068 
L 130.705785 97.104827 
L 127.631405 96.761585 
L 124.557025 96.418344 
L 121.482645 96.075103 
L 118.408264 95.731861 
L 115.333884 95.38862 
L 112.259504 95.045379 
L 109.185124 94.702137 
L 106.110744 94.358896 
L 103.036364 94.015655 
L 99.961983 93.672413 
L 96.887603 93.329172 
L 93.813223 92.985931 
L 90.738843 92.642689 
L 87.664463 92.299448 
L 84.590083 91.956207 
L 81.515702 91.612965 
L 78.441322 91.269724 
L 75.366942 90.926483 
L 72.292562 90.583241 
L 69.218182 90.24 
z
" style="fill:#31a354;"/>
   </g>
   <g id="PolyCollection_10">
    <path clip-path="url(#pba8ab44d21)" d="M 69.218182 90.24 
L 69.218182 90.24 
L 72.292562 90.583241 
L 75.366942 90.926483 
L 78.441322 91.269724 
L 81.515702 91.612965 
L 84.590083 91.956207 
L 87.664463 92.299448 
L 90.738843 92.642689 
L 93.813223 92.985931 
L 96.887603 93.329172 
L 99.961983 93.672413 
L 103.036364 94.015655 
L 106.110744 94.358896 
L 109.185124 94.702137 
L 112.259504 95.045379 
L 115.333884 95.38862 
L 118.408264 95.731861 
L 121.482645 96.075103 
L 124.557025 96.418344 
L 127.631405 96.761585 
L 130.705785 97.104827 
L 133.780165 97.448068 
L 136.854545 97.791309 
L 139.928926 98.134551 
L 143.003306 98.477792 
L 146.077686 98.821033 
L 149.152066 99.164275 
L 152.226446 99.507516 
L 155.300826 99.850758 
L 158.375207 100.193999 
L 161.449587 100.53724 
L 164.523967 100.880482 
L 167.598347 101.223723 
L 170.672727 101.566964 
L 173.747107 101.910206 
L 176.821488 102.253447 
L 179.895868 102.596688 
L 182.970248 102.93993 
L 186.044628 103.283171 
L 189.119008 103.626412 
L 192.193388 103.969654 
L 195.267769 104.312895 
L 198.342149 104.656136 
L 201.416529 104.999378 
L 204.490909 105.342619 
L 207.565289 105.68586 
L 210.639669 106.029102 
L 213.71405 106.372343 
L 216.78843 106.715584 
L 219.86281 107.058826 
L 222.93719 107.402067 
L 226.01157 107.745308 
L 229.08595 108.08855 
L 232.160331 108.431791 
L 235.234711 108.775032 
L 238.309091 109.118274 
L 241.383471 109.461515 
L 244.457851 109.804756 
L 247.532231 110.147998 
L 250.606612 110.491239 
L 253.680992 110.83448 
L 256.755372 111.177722 
L 259.829752 111.520963 
L 262.904132 111.864204 
L 265.978512 112.207446 
L 269.052893 112.550687 
L 272.127273 112.893928 
L 275.201653 113.23717 
L 278.276033 113.580411 
L 281.350413 113.923652 
L 284.424793 114.266894 
L 287.499174 114.610135 
L 290.573554 114.953376 
L 293.647934 115.296618 
L 296.722314 115.639859 
L 299.796694 115.9831 
L 302.871074 116.326342 
L 305.945455 116.669583 
L 309.019835 117.012824 
L 312.094215 117.356066 
L 315.168595 117.699307 
L 318.242975 118.042548 
L 321.317355 118.38579 
L 324.391736 118.729031 
L 327.466116 119.072273 
L 330.540496 119.415514 
L 333.614876 119.758755 
L 336.689256 120.101997 
L 339.763636 120.445238 
L 342.838017 120.788479 
L 345.912397 121.131721 
L 348.986777 121.474962 
L 352.061157 121.818203 
L 355.135537 122.161445 
L 358.209917 122.504686 
L 361.284298 122.847927 
L 364.358678 123.191169 
L 367.433058 123.53441 
L 370.507438 123.877651 
L 373.581818 124.220893 
L 373.581818 107.420454 
L 373.581818 107.420454 
L 370.507438 107.246914 
L 367.433058 107.073374 
L 364.358678 106.899834 
L 361.284298 106.726294 
L 358.209917 106.552754 
L 355.135537 106.379214 
L 352.061157 106.205674 
L 348.986777 106.032134 
L 345.912397 105.858594 
L 342.838017 105.685055 
L 339.763636 105.511515 
L 336.689256 105.337975 
L 333.614876 105.164435 
L 330.540496 104.990895 
L 327.466116 104.817355 
L 324.391736 104.643815 
L 321.317355 104.470275 
L 318.242975 104.296735 
L 315.168595 104.123195 
L 312.094215 103.949655 
L 309.019835 103.776115 
L 305.945455 103.602575 
L 302.871074 103.429035 
L 299.796694 103.255495 
L 296.722314 103.081955 
L 293.647934 102.908416 
L 290.573554 102.734876 
L 287.499174 102.561336 
L 284.424793 102.387796 
L 281.350413 102.214256 
L 278.276033 102.040716 
L 275.201653 101.867176 
L 272.127273 101.693636 
L 269.052893 101.520096 
L 265.978512 101.346556 
L 262.904132 101.173016 
L 259.829752 100.999476 
L 256.755372 100.825936 
L 253.680992 100.652396 
L 250.606612 100.478856 
L 247.532231 100.305316 
L 244.457851 100.131776 
L 241.383471 99.958237 
L 238.309091 99.784697 
L 235.234711 99.611157 
L 232.160331 99.437617 
L 229.08595 99.264077 
L 226.01157 99.090537 
L 222.93719 98.916997 
L 219.86281 98.743457 
L 216.78843 98.569917 
L 213.71405 98.396377 
L 210.639669 98.222837 
L 207.565289 98.049297 
L 204.490909 97.875757 
L 201.416529 97.702217 
L 198.342149 97.528677 
L 195.267769 97.355137 
L 192.193388 97.181598 
L 189.119008 97.008058 
L 186.044628 96.834518 
L 182.970248 96.660978 
L 179.895868 96.487438 
L 176.821488 96.313898 
L 173.747107 96.140358 
L 170.672727 95.966818 
L 167.598347 95.793278 
L 164.523967 95.619738 
L 161.449587 95.446198 
L 158.375207 95.272658 
L 155.300826 95.099118 
L 152.226446 94.925578 
L 149.152066 94.752038 
L 146.077686 94.578498 
L 143.003306 94.404959 
L 139.928926 94.231419 
L 136.854545 94.057879 
L 133.780165 93.884339 
L 130.705785 93.710799 
L 127.631405 93.537259 
L 124.557025 93.363719 
L 121.482645 93.190179 
L 118.408264 93.016639 
L 115.333884 92.843099 
L 112.259504 92.669559 
L 109.185124 92.496019 
L 106.110744 92.322479 
L 103.036364 92.148939 
L 99.961983 91.975399 
L 96.887603 91.801859 
L 93.813223 91.62832 
L 90.738843 91.45478 
L 87.664463 91.28124 
L 84.590083 91.1077 
L 81.515702 90.93416 
L 78.441322 90.76062 
L 75.366942 90.58708 
L 72.292562 90.41354 
L 69.218182 90.24 
z
" style="fill:#74c476;"/>
   </g>
   <g id="PolyCollection_11">
    <path clip-path="url(#pba8ab44d21)" d="M 69.218182 90.24 
L 69.218182 90.24 
L 72.292562 90.41354 
L 75.366942 90.58708 
L 78.441322 90.76062 
L 81.515702 90.93416 
L 84.590083 91.1077 
L 87.664463 91.28124 
L 90.738843 91.45478 
L 93.813223 91.62832 
L 96.887603 91.801859 
L 99.961983 91.975399 
L 103.036364 92.148939 
L 106.110744 92.322479 
L 109.185124 92.496019 
L 112.259504 92.669559 
L 115.333884 92.843099 
L 118.408264 93.016639 
L 121.482645 93.190179 
L 124.557025 93.363719 
L 127.631405 93.537259 
L 130.705785 93.710799 
L 133.780165 93.884339 
L 136.854545 94.057879 
L 139.928926 94.231419 
L 143.003306 94.404959 
L 146.077686 94.578498 
L 149.152066 94.752038 
L 152.226446 94.925578 
L 155.300826 95.099118 
L 158.375207 95.272658 
L 161.449587 95.446198 
L 164.523967 95.619738 
L 167.598347 95.793278 
L 170.672727 95.966818 
L 173.747107 96.140358 
L 176.821488 96.313898 
L 179.895868 96.487438 
L 182.970248 96.660978 
L 186.044628 96.834518 
L 189.119008 97.008058 
L 192.193388 97.181598 
L 195.267769 97.355137 
L 198.342149 97.528677 
L 201.416529 97.702217 
L 204.490909 97.875757 
L 207.565289 98.049297 
L 210.639669 98.222837 
L 213.71405 98.396377 
L 216.78843 98.569917 
L 219.86281 98.743457 
L 222.93719 98.916997 
L 226.01157 99.090537 
L 229.08595 99.264077 
L 232.160331 99.437617 
L 235.234711 99.611157 
L 238.309091 99.784697 
L 241.383471 99.958237 
L 244.457851 100.131776 
L 247.532231 100.305316 
L 250.606612 100.478856 
L 253.680992 100.652396 
L 256.755372 100.825936 
L 259.829752 100.999476 
L 262.904132 101.173016 
L 265.978512 101.346556 
L 269.052893 101.520096 
L 272.127273 101.693636 
L 275.201653 101.867176 
L 278.276033 102.040716 
L 281.350413 102.214256 
L 284.424793 102.387796 
L 287.499174 102.561336 
L 290.573554 102.734876 
L 293.647934 102.908416 
L 296.722314 103.081955 
L 299.796694 103.255495 
L 302.871074 103.429035 
L 305.945455 103.602575 
L 309.019835 103.776115 
L 312.094215 103.949655 
L 315.168595 104.123195 
L 318.242975 104.296735 
L 321.317355 104.470275 
L 324.391736 104.643815 
L 327.466116 104.817355 
L 330.540496 104.990895 
L 333.614876 105.164435 
L 336.689256 105.337975 
L 339.763636 105.511515 
L 342.838017 105.685055 
L 345.912397 105.858594 
L 348.986777 106.032134 
L 352.061157 106.205674 
L 355.135537 106.379214 
L 358.209917 106.552754 
L 361.284298 106.726294 
L 364.358678 106.899834 
L 367.433058 107.073374 
L 370.507438 107.246914 
L 373.581818 107.420454 
L 373.581818 90.24 
L 373.581818 90.24 
L 370.507438 90.24 
L 367.433058 90.24 
L 364.358678 90.24 
L 361.284298 90.24 
L 358.209917 90.24 
L 355.135537 90.24 
L 352.061157 90.24 
L 348.986777 90.24 
L 345.912397 90.24 
L 342.838017 90.24 
L 339.763636 90.24 
L 336.689256 90.24 
L 333.614876 90.24 
L 330.540496 90.24 
L 327.466116 90.24 
L 324.391736 90.24 
L 321.317355 90.24 
L 318.242975 90.24 
L 315.168595 90.24 
L 312.094215 90.24 
L 309.019835 90.24 
L 305.945455 90.24 
L 302.871074 90.24 
L 299.796694 90.24 
L 296.722314 90.24 
L 293.647934 90.24 
L 290.573554 90.24 
L 287.499174 90.24 
L 284.424793 90.24 
L 281.350413 90.24 
L 278.276033 90.24 
L 275.201653 90.24 
L 272.127273 90.24 
L 269.052893 90.24 
L 265.978512 90.24 
L 262.904132 90.24 
L 259.829752 90.24 
L 256.755372 90.24 
L 253.680992 90.24 
L 250.606612 90.24 
L 247.532231 90.24 
L 244.457851 90.24 
L 241.383471 90.24 
L 238.309091 90.24 
L 235.234711 90.24 
L 232.160331 90.24 
L 229.08595 90.24 
L 226.01157 90.24 
L 222.93719 90.24 
L 219.86281 90.24 
L 216.78843 90.24 
L 213.71405 90.24 
L 210.639669 90.24 
L 207.565289 90.24 
L 204.490909 90.24 
L 201.416529 90.24 
L 198.342149 90.24 
L 195.267769 90.24 
L 192.193388 90.24 
L 189.119008 90.24 
L 186.044628 90.24 
L 182.970248 90.24 
L 179.895868 90.24 
L 176.821488 90.24 
L 173.747107 90.24 
L 170.672727 90.24 
L 167.598347 90.24 
L 164.523967 90.24 
L 161.449587 90.24 
L 158.375207 90.24 
L 155.300826 90.24 
L 152.226446 90.24 
L 149.152066 90.24 
L 146.077686 90.24 
L 143.003306 90.24 
L 139.928926 90.24 
L 136.854545 90.24 
L 133.780165 90.24 
L 130.705785 90.24 
L 127.631405 90.24 
L 124.557025 90.24 
L 121.482645 90.24 
L 118.408264 90.24 
L 115.333884 90.24 
L 112.259504 90.24 
L 109.185124 90.24 
L 106.110744 90.24 
L 103.036364 90.24 
L 99.961983 90.24 
L 96.887603 90.24 
L 93.813223 90.24 
L 90.738843 90.24 
L 87.664463 90.24 
L 84.590083 90.24 
L 81.515702 90.24 
L 78.441322 90.24 
L 75.366942 90.24 
L 72.292562 90.24 
L 69.218182 90.24 
z
" style="fill:#a1d99b;"/>
   </g>
   <g id="matplotlib.axis_1">
    <g id="xtick_1">
     <g id="line2d_1">
      <defs>
       <path d="M 0 0 
L 0 3.5 
" id="m106a68b423" style="stroke:#000000;stroke-width:0.8;"/>
      </defs>
      <g>
       <use style="stroke:#000000;stroke-width:0.8;" x="69.218182" xlink:href="#m106a68b423" y="512.64"/>
      </g>
     </g>
     <g id="text_1">
      <!-- 0 -->
      <g transform="translate(66.036932 527.238438)scale(0.1 -0.1)">
       <defs>
        <path d="M 2034 4250 
Q 1547 4250 1301 3770 
Q 1056 3291 1056 2328 
Q 1056 1369 1301 889 
Q 1547 409 2034 409 
Q 2525 409 2770 889 
Q 3016 1369 3016 2328 
Q 3016 3291 2770 3770 
Q 2525 4250 2034 4250 
z
M 2034 4750 
Q 2819 4750 3233 4129 
Q 3647 3509 3647 2328 
Q 3647 1150 3233 529 
Q 2819 -91 2034 -91 
Q 1250 -91 836 529 
Q 422 1150 422 2328 
Q 422 3509 836 4129 
Q 1250 4750 2034 4750 
z
" id="DejaVuSans-30" transform="scale(0.015625)"/>
       </defs>
       <use xlink:href="#DejaVuSans-30"/>
      </g>
     </g>
    </g>
    <g id="xtick_2">
     <g id="line2d_2">
      <g>
       <use style="stroke:#000000;stroke-width:0.8;" x="130.090909" xlink:href="#m106a68b423" y="512.64"/>
      </g>
     </g>
     <g id="text_2">
      <!-- 20 -->
      <g transform="translate(123.728409 527.238438)scale(0.1 -0.1)">
       <defs>
        <path d="M 1228 531 
L 3431 531 
L 3431 0 
L 469 0 
L 469 531 
Q 828 903 1448 1529 
Q 2069 2156 2228 2338 
Q 2531 2678 2651 2914 
Q 2772 3150 2772 3378 
Q 2772 3750 2511 3984 
Q 2250 4219 1831 4219 
Q 1534 4219 1204 4116 
Q 875 4013 500 3803 
L 500 4441 
Q 881 4594 1212 4672 
Q 1544 4750 1819 4750 
Q 2544 4750 2975 4387 
Q 3406 4025 3406 3419 
Q 3406 3131 3298 2873 
Q 3191 2616 2906 2266 
Q 2828 2175 2409 1742 
Q 1991 1309 1228 531 
z
" id="DejaVuSans-32" transform="scale(0.015625)"/>
       </defs>
       <use xlink:href="#DejaVuSans-32"/>
       <use x="63.623047" xlink:href="#DejaVuSans-30"/>
      </g>
     </g>
    </g>
    <g id="xtick_3">
     <g id="line2d_3">
      <g>
       <use style="stroke:#000000;stroke-width:0.8;" x="190.963636" xlink:href="#m106a68b423" y="512.64"/>
      </g>
     </g>
     <g id="text_3">
      <!-- 40 -->
      <g transform="translate(184.601136 527.238438)scale(0.1 -0.1)">
       <defs>
        <path d="M 2419 4116 
L 825 1625 
L 2419 1625 
L 2419 4116 
z
M 2253 4666 
L 3047 4666 
L 3047 1625 
L 3713 1625 
L 3713 1100 
L 3047 1100 
L 3047 0 
L 2419 0 
L 2419 1100 
L 313 1100 
L 313 1709 
L 2253 4666 
z
" id="DejaVuSans-34" transform="scale(0.015625)"/>
       </defs>
       <use xlink:href="#DejaVuSans-34"/>
       <use x="63.623047" xlink:href="#DejaVuSans-30"/>
      </g>
     </g>
    </g>
    <g id="xtick_4">
     <g id="line2d_4">
      <g>
       <use style="stroke:#000000;stroke-width:0.8;" x="251.836364" xlink:href="#m106a68b423" y="512.64"/>
      </g>
     </g>
     <g id="text_4">
      <!-- 60 -->
      <g transform="translate(245.473864 527.238438)scale(0.1 -0.1)">
       <defs>
        <path d="M 2113 2584 
Q 1688 2584 1439 2293 
Q 1191 2003 1191 1497 
Q 1191 994 1439 701 
Q 1688 409 2113 409 
Q 2538 409 2786 701 
Q 3034 994 3034 1497 
Q 3034 2003 2786 2293 
Q 2538 2584 2113 2584 
z
M 3366 4563 
L 3366 3988 
Q 3128 4100 2886 4159 
Q 2644 4219 2406 4219 
Q 1781 4219 1451 3797 
Q 1122 3375 1075 2522 
Q 1259 2794 1537 2939 
Q 1816 3084 2150 3084 
Q 2853 3084 3261 2657 
Q 3669 2231 3669 1497 
Q 3669 778 3244 343 
Q 2819 -91 2113 -91 
Q 1303 -91 875 529 
Q 447 1150 447 2328 
Q 447 3434 972 4092 
Q 1497 4750 2381 4750 
Q 2619 4750 2861 4703 
Q 3103 4656 3366 4563 
z
" id="DejaVuSans-36" transform="scale(0.015625)"/>
       </defs>
       <use xlink:href="#DejaVuSans-36"/>
       <use x="63.623047" xlink:href="#DejaVuSans-30"/>
      </g>
     </g>
    </g>
    <g id="xtick_5">
     <g id="line2d_5">
      <g>
       <use style="stroke:#000000;stroke-width:0.8;" x="312.709091" xlink:href="#m106a68b423" y="512.64"/>
      </g>
     </g>
     <g id="text_5">
      <!-- 80 -->
      <g transform="translate(306.346591 527.238438)scale(0.1 -0.1)">
       <defs>
        <path d="M 2034 2216 
Q 1584 2216 1326 1975 
Q 1069 1734 1069 1313 
Q 1069 891 1326 650 
Q 1584 409 2034 409 
Q 2484 409 2743 651 
Q 3003 894 3003 1313 
Q 3003 1734 2745 1975 
Q 2488 2216 2034 2216 
z
M 1403 2484 
Q 997 2584 770 2862 
Q 544 3141 544 3541 
Q 544 4100 942 4425 
Q 1341 4750 2034 4750 
Q 2731 4750 3128 4425 
Q 3525 4100 3525 3541 
Q 3525 3141 3298 2862 
Q 3072 2584 2669 2484 
Q 3125 2378 3379 2068 
Q 3634 1759 3634 1313 
Q 3634 634 3220 271 
Q 2806 -91 2034 -91 
Q 1263 -91 848 271 
Q 434 634 434 1313 
Q 434 1759 690 2068 
Q 947 2378 1403 2484 
z
M 1172 3481 
Q 1172 3119 1398 2916 
Q 1625 2713 2034 2713 
Q 2441 2713 2670 2916 
Q 2900 3119 2900 3481 
Q 2900 3844 2670 4047 
Q 2441 4250 2034 4250 
Q 1625 4250 1398 4047 
Q 1172 3844 1172 3481 
z
" id="DejaVuSans-38" transform="scale(0.015625)"/>
       </defs>
       <use xlink:href="#DejaVuSans-38"/>
       <use x="63.623047" xlink:href="#DejaVuSans-30"/>
      </g>
     </g>
    </g>
    <g id="xtick_6">
     <g id="line2d_6">
      <g>
       <use style="stroke:#000000;stroke-width:0.8;" x="373.581818" xlink:href="#m106a68b423" y="512.64"/>
      </g>
     </g>
     <g id="text_6">
      <!-- 100 -->
      <g transform="translate(364.038068 527.238438)scale(0.1 -0.1)">
       <defs>
        <path d="M 794 531 
L 1825 531 
L 1825 4091 
L 703 3866 
L 703 4441 
L 1819 4666 
L 2450 4666 
L 2450 531 
L 3481 531 
L 3481 0 
L 794 0 
L 794 531 
z
" id="DejaVuSans-31" transform="scale(0.015625)"/>
       </defs>
       <use xlink:href="#DejaVuSans-31"/>
       <use x="63.623047" xlink:href="#DejaVuSans-30"/>
       <use x="127.246094" xlink:href="#DejaVuSans-30"/>
      </g>
     </g>
    </g>
    <g id="text_7">
     <!-- Proportion of New Technology in Grid (%) -->
     <g transform="translate(118.632031 540.916563)scale(0.1 -0.1)">
      <defs>
       <path d="M 1259 4147 
L 1259 2394 
L 2053 2394 
Q 2494 2394 2734 2622 
Q 2975 2850 2975 3272 
Q 2975 3691 2734 3919 
Q 2494 4147 2053 4147 
L 1259 4147 
z
M 628 4666 
L 2053 4666 
Q 2838 4666 3239 4311 
Q 3641 3956 3641 3272 
Q 3641 2581 3239 2228 
Q 2838 1875 2053 1875 
L 1259 1875 
L 1259 0 
L 628 0 
L 628 4666 
z
" id="DejaVuSans-50" transform="scale(0.015625)"/>
       <path d="M 2631 2963 
Q 2534 3019 2420 3045 
Q 2306 3072 2169 3072 
Q 1681 3072 1420 2755 
Q 1159 2438 1159 1844 
L 1159 0 
L 581 0 
L 581 3500 
L 1159 3500 
L 1159 2956 
Q 1341 3275 1631 3429 
Q 1922 3584 2338 3584 
Q 2397 3584 2469 3576 
Q 2541 3569 2628 3553 
L 2631 2963 
z
" id="DejaVuSans-72" transform="scale(0.015625)"/>
       <path d="M 1959 3097 
Q 1497 3097 1228 2736 
Q 959 2375 959 1747 
Q 959 1119 1226 758 
Q 1494 397 1959 397 
Q 2419 397 2687 759 
Q 2956 1122 2956 1747 
Q 2956 2369 2687 2733 
Q 2419 3097 1959 3097 
z
M 1959 3584 
Q 2709 3584 3137 3096 
Q 3566 2609 3566 1747 
Q 3566 888 3137 398 
Q 2709 -91 1959 -91 
Q 1206 -91 779 398 
Q 353 888 353 1747 
Q 353 2609 779 3096 
Q 1206 3584 1959 3584 
z
" id="DejaVuSans-6f" transform="scale(0.015625)"/>
       <path d="M 1159 525 
L 1159 -1331 
L 581 -1331 
L 581 3500 
L 1159 3500 
L 1159 2969 
Q 1341 3281 1617 3432 
Q 1894 3584 2278 3584 
Q 2916 3584 3314 3078 
Q 3713 2572 3713 1747 
Q 3713 922 3314 415 
Q 2916 -91 2278 -91 
Q 1894 -91 1617 61 
Q 1341 213 1159 525 
z
M 3116 1747 
Q 3116 2381 2855 2742 
Q 2594 3103 2138 3103 
Q 1681 3103 1420 2742 
Q 1159 2381 1159 1747 
Q 1159 1113 1420 752 
Q 1681 391 2138 391 
Q 2594 391 2855 752 
Q 3116 1113 3116 1747 
z
" id="DejaVuSans-70" transform="scale(0.015625)"/>
       <path d="M 1172 4494 
L 1172 3500 
L 2356 3500 
L 2356 3053 
L 1172 3053 
L 1172 1153 
Q 1172 725 1289 603 
Q 1406 481 1766 481 
L 2356 481 
L 2356 0 
L 1766 0 
Q 1100 0 847 248 
Q 594 497 594 1153 
L 594 3053 
L 172 3053 
L 172 3500 
L 594 3500 
L 594 4494 
L 1172 4494 
z
" id="DejaVuSans-74" transform="scale(0.015625)"/>
       <path d="M 603 3500 
L 1178 3500 
L 1178 0 
L 603 0 
L 603 3500 
z
M 603 4863 
L 1178 4863 
L 1178 4134 
L 603 4134 
L 603 4863 
z
" id="DejaVuSans-69" transform="scale(0.015625)"/>
       <path d="M 3513 2113 
L 3513 0 
L 2938 0 
L 2938 2094 
Q 2938 2591 2744 2837 
Q 2550 3084 2163 3084 
Q 1697 3084 1428 2787 
Q 1159 2491 1159 1978 
L 1159 0 
L 581 0 
L 581 3500 
L 1159 3500 
L 1159 2956 
Q 1366 3272 1645 3428 
Q 1925 3584 2291 3584 
Q 2894 3584 3203 3211 
Q 3513 2838 3513 2113 
z
" id="DejaVuSans-6e" transform="scale(0.015625)"/>
       <path id="DejaVuSans-20" transform="scale(0.015625)"/>
       <path d="M 2375 4863 
L 2375 4384 
L 1825 4384 
Q 1516 4384 1395 4259 
Q 1275 4134 1275 3809 
L 1275 3500 
L 2222 3500 
L 2222 3053 
L 1275 3053 
L 1275 0 
L 697 0 
L 697 3053 
L 147 3053 
L 147 3500 
L 697 3500 
L 697 3744 
Q 697 4328 969 4595 
Q 1241 4863 1831 4863 
L 2375 4863 
z
" id="DejaVuSans-66" transform="scale(0.015625)"/>
       <path d="M 628 4666 
L 1478 4666 
L 3547 763 
L 3547 4666 
L 4159 4666 
L 4159 0 
L 3309 0 
L 1241 3903 
L 1241 0 
L 628 0 
L 628 4666 
z
" id="DejaVuSans-4e" transform="scale(0.015625)"/>
       <path d="M 3597 1894 
L 3597 1613 
L 953 1613 
Q 991 1019 1311 708 
Q 1631 397 2203 397 
Q 2534 397 2845 478 
Q 3156 559 3463 722 
L 3463 178 
Q 3153 47 2828 -22 
Q 2503 -91 2169 -91 
Q 1331 -91 842 396 
Q 353 884 353 1716 
Q 353 2575 817 3079 
Q 1281 3584 2069 3584 
Q 2775 3584 3186 3129 
Q 3597 2675 3597 1894 
z
M 3022 2063 
Q 3016 2534 2758 2815 
Q 2500 3097 2075 3097 
Q 1594 3097 1305 2825 
Q 1016 2553 972 2059 
L 3022 2063 
z
" id="DejaVuSans-65" transform="scale(0.015625)"/>
       <path d="M 269 3500 
L 844 3500 
L 1563 769 
L 2278 3500 
L 2956 3500 
L 3675 769 
L 4391 3500 
L 4966 3500 
L 4050 0 
L 3372 0 
L 2619 2869 
L 1863 0 
L 1184 0 
L 269 3500 
z
" id="DejaVuSans-77" transform="scale(0.015625)"/>
       <path d="M -19 4666 
L 3928 4666 
L 3928 4134 
L 2272 4134 
L 2272 0 
L 1638 0 
L 1638 4134 
L -19 4134 
L -19 4666 
z
" id="DejaVuSans-54" transform="scale(0.015625)"/>
       <path d="M 3122 3366 
L 3122 2828 
Q 2878 2963 2633 3030 
Q 2388 3097 2138 3097 
Q 1578 3097 1268 2742 
Q 959 2388 959 1747 
Q 959 1106 1268 751 
Q 1578 397 2138 397 
Q 2388 397 2633 464 
Q 2878 531 3122 666 
L 3122 134 
Q 2881 22 2623 -34 
Q 2366 -91 2075 -91 
Q 1284 -91 818 406 
Q 353 903 353 1747 
Q 353 2603 823 3093 
Q 1294 3584 2113 3584 
Q 2378 3584 2631 3529 
Q 2884 3475 3122 3366 
z
" id="DejaVuSans-63" transform="scale(0.015625)"/>
       <path d="M 3513 2113 
L 3513 0 
L 2938 0 
L 2938 2094 
Q 2938 2591 2744 2837 
Q 2550 3084 2163 3084 
Q 1697 3084 1428 2787 
Q 1159 2491 1159 1978 
L 1159 0 
L 581 0 
L 581 4863 
L 1159 4863 
L 1159 2956 
Q 1366 3272 1645 3428 
Q 1925 3584 2291 3584 
Q 2894 3584 3203 3211 
Q 3513 2838 3513 2113 
z
" id="DejaVuSans-68" transform="scale(0.015625)"/>
       <path d="M 603 4863 
L 1178 4863 
L 1178 0 
L 603 0 
L 603 4863 
z
" id="DejaVuSans-6c" transform="scale(0.015625)"/>
       <path d="M 2906 1791 
Q 2906 2416 2648 2759 
Q 2391 3103 1925 3103 
Q 1463 3103 1205 2759 
Q 947 2416 947 1791 
Q 947 1169 1205 825 
Q 1463 481 1925 481 
Q 2391 481 2648 825 
Q 2906 1169 2906 1791 
z
M 3481 434 
Q 3481 -459 3084 -895 
Q 2688 -1331 1869 -1331 
Q 1566 -1331 1297 -1286 
Q 1028 -1241 775 -1147 
L 775 -588 
Q 1028 -725 1275 -790 
Q 1522 -856 1778 -856 
Q 2344 -856 2625 -561 
Q 2906 -266 2906 331 
L 2906 616 
Q 2728 306 2450 153 
Q 2172 0 1784 0 
Q 1141 0 747 490 
Q 353 981 353 1791 
Q 353 2603 747 3093 
Q 1141 3584 1784 3584 
Q 2172 3584 2450 3431 
Q 2728 3278 2906 2969 
L 2906 3500 
L 3481 3500 
L 3481 434 
z
" id="DejaVuSans-67" transform="scale(0.015625)"/>
       <path d="M 2059 -325 
Q 1816 -950 1584 -1140 
Q 1353 -1331 966 -1331 
L 506 -1331 
L 506 -850 
L 844 -850 
Q 1081 -850 1212 -737 
Q 1344 -625 1503 -206 
L 1606 56 
L 191 3500 
L 800 3500 
L 1894 763 
L 2988 3500 
L 3597 3500 
L 2059 -325 
z
" id="DejaVuSans-79" transform="scale(0.015625)"/>
       <path d="M 3809 666 
L 3809 1919 
L 2778 1919 
L 2778 2438 
L 4434 2438 
L 4434 434 
Q 4069 175 3628 42 
Q 3188 -91 2688 -91 
Q 1594 -91 976 548 
Q 359 1188 359 2328 
Q 359 3472 976 4111 
Q 1594 4750 2688 4750 
Q 3144 4750 3555 4637 
Q 3966 4525 4313 4306 
L 4313 3634 
Q 3963 3931 3569 4081 
Q 3175 4231 2741 4231 
Q 1884 4231 1454 3753 
Q 1025 3275 1025 2328 
Q 1025 1384 1454 906 
Q 1884 428 2741 428 
Q 3075 428 3337 486 
Q 3600 544 3809 666 
z
" id="DejaVuSans-47" transform="scale(0.015625)"/>
       <path d="M 2906 2969 
L 2906 4863 
L 3481 4863 
L 3481 0 
L 2906 0 
L 2906 525 
Q 2725 213 2448 61 
Q 2172 -91 1784 -91 
Q 1150 -91 751 415 
Q 353 922 353 1747 
Q 353 2572 751 3078 
Q 1150 3584 1784 3584 
Q 2172 3584 2448 3432 
Q 2725 3281 2906 2969 
z
M 947 1747 
Q 947 1113 1208 752 
Q 1469 391 1925 391 
Q 2381 391 2643 752 
Q 2906 1113 2906 1747 
Q 2906 2381 2643 2742 
Q 2381 3103 1925 3103 
Q 1469 3103 1208 2742 
Q 947 2381 947 1747 
z
" id="DejaVuSans-64" transform="scale(0.015625)"/>
       <path d="M 1984 4856 
Q 1566 4138 1362 3434 
Q 1159 2731 1159 2009 
Q 1159 1288 1364 580 
Q 1569 -128 1984 -844 
L 1484 -844 
Q 1016 -109 783 600 
Q 550 1309 550 2009 
Q 550 2706 781 3412 
Q 1013 4119 1484 4856 
L 1984 4856 
z
" id="DejaVuSans-28" transform="scale(0.015625)"/>
       <path d="M 4653 2053 
Q 4381 2053 4226 1822 
Q 4072 1591 4072 1178 
Q 4072 772 4226 539 
Q 4381 306 4653 306 
Q 4919 306 5073 539 
Q 5228 772 5228 1178 
Q 5228 1588 5073 1820 
Q 4919 2053 4653 2053 
z
M 4653 2450 
Q 5147 2450 5437 2106 
Q 5728 1763 5728 1178 
Q 5728 594 5436 251 
Q 5144 -91 4653 -91 
Q 4153 -91 3862 251 
Q 3572 594 3572 1178 
Q 3572 1766 3864 2108 
Q 4156 2450 4653 2450 
z
M 1428 4353 
Q 1159 4353 1004 4120 
Q 850 3888 850 3481 
Q 850 3069 1003 2837 
Q 1156 2606 1428 2606 
Q 1700 2606 1854 2837 
Q 2009 3069 2009 3481 
Q 2009 3884 1853 4118 
Q 1697 4353 1428 4353 
z
M 4250 4750 
L 4750 4750 
L 1831 -91 
L 1331 -91 
L 4250 4750 
z
M 1428 4750 
Q 1922 4750 2215 4408 
Q 2509 4066 2509 3481 
Q 2509 2891 2217 2550 
Q 1925 2209 1428 2209 
Q 931 2209 642 2551 
Q 353 2894 353 3481 
Q 353 4063 643 4406 
Q 934 4750 1428 4750 
z
" id="DejaVuSans-25" transform="scale(0.015625)"/>
       <path d="M 513 4856 
L 1013 4856 
Q 1481 4119 1714 3412 
Q 1947 2706 1947 2009 
Q 1947 1309 1714 600 
Q 1481 -109 1013 -844 
L 513 -844 
Q 928 -128 1133 580 
Q 1338 1288 1338 2009 
Q 1338 2731 1133 3434 
Q 928 4138 513 4856 
z
" id="DejaVuSans-29" transform="scale(0.015625)"/>
      </defs>
      <use xlink:href="#DejaVuSans-50"/>
      <use x="58.552734" xlink:href="#DejaVuSans-72"/>
      <use x="97.416016" xlink:href="#DejaVuSans-6f"/>
      <use x="158.597656" xlink:href="#DejaVuSans-70"/>
      <use x="222.074219" xlink:href="#DejaVuSans-6f"/>
      <use x="283.255859" xlink:href="#DejaVuSans-72"/>
      <use x="324.369141" xlink:href="#DejaVuSans-74"/>
      <use x="363.578125" xlink:href="#DejaVuSans-69"/>
      <use x="391.361328" xlink:href="#DejaVuSans-6f"/>
      <use x="452.542969" xlink:href="#DejaVuSans-6e"/>
      <use x="515.921875" xlink:href="#DejaVuSans-20"/>
      <use x="547.708984" xlink:href="#DejaVuSans-6f"/>
      <use x="608.890625" xlink:href="#DejaVuSans-66"/>
      <use x="644.095703" xlink:href="#DejaVuSans-20"/>
      <use x="675.882812" xlink:href="#DejaVuSans-4e"/>
      <use x="750.6875" xlink:href="#DejaVuSans-65"/>
      <use x="812.210938" xlink:href="#DejaVuSans-77"/>
      <use x="893.998047" xlink:href="#DejaVuSans-20"/>
      <use x="925.785156" xlink:href="#DejaVuSans-54"/>
      <use x="969.869141" xlink:href="#DejaVuSans-65"/>
      <use x="1031.392578" xlink:href="#DejaVuSans-63"/>
      <use x="1086.373047" xlink:href="#DejaVuSans-68"/>
      <use x="1149.751953" xlink:href="#DejaVuSans-6e"/>
      <use x="1213.130859" xlink:href="#DejaVuSans-6f"/>
      <use x="1274.3125" xlink:href="#DejaVuSans-6c"/>
      <use x="1302.095703" xlink:href="#DejaVuSans-6f"/>
      <use x="1363.277344" xlink:href="#DejaVuSans-67"/>
      <use x="1426.753906" xlink:href="#DejaVuSans-79"/>
      <use x="1485.933594" xlink:href="#DejaVuSans-20"/>
      <use x="1517.720703" xlink:href="#DejaVuSans-69"/>
      <use x="1545.503906" xlink:href="#DejaVuSans-6e"/>
      <use x="1608.882812" xlink:href="#DejaVuSans-20"/>
      <use x="1640.669922" xlink:href="#DejaVuSans-47"/>
      <use x="1718.160156" xlink:href="#DejaVuSans-72"/>
      <use x="1759.273438" xlink:href="#DejaVuSans-69"/>
      <use x="1787.056641" xlink:href="#DejaVuSans-64"/>
      <use x="1850.533203" xlink:href="#DejaVuSans-20"/>
      <use x="1882.320312" xlink:href="#DejaVuSans-28"/>
      <use x="1921.333984" xlink:href="#DejaVuSans-25"/>
      <use x="2016.353516" xlink:href="#DejaVuSans-29"/>
     </g>
    </g>
   </g>
   <g id="matplotlib.axis_2">
    <g id="ytick_1">
     <g id="line2d_7">
      <defs>
       <path d="M 0 0 
L -3.5 0 
" id="mdf4002badf" style="stroke:#000000;stroke-width:0.8;"/>
      </defs>
      <g>
       <use style="stroke:#000000;stroke-width:0.8;" x="54" xlink:href="#mdf4002badf" y="512.64"/>
      </g>
     </g>
     <g id="text_8">
      <!-- 0 -->
      <g transform="translate(40.6375 516.439219)scale(0.1 -0.1)">
       <use xlink:href="#DejaVuSans-30"/>
      </g>
     </g>
    </g>
    <g id="ytick_2">
     <g id="line2d_8">
      <g>
       <use style="stroke:#000000;stroke-width:0.8;" x="54" xlink:href="#mdf4002badf" y="441.518431"/>
      </g>
     </g>
     <g id="text_9">
      <!-- 50 -->
      <g transform="translate(34.275 445.31765)scale(0.1 -0.1)">
       <defs>
        <path d="M 691 4666 
L 3169 4666 
L 3169 4134 
L 1269 4134 
L 1269 2991 
Q 1406 3038 1543 3061 
Q 1681 3084 1819 3084 
Q 2600 3084 3056 2656 
Q 3513 2228 3513 1497 
Q 3513 744 3044 326 
Q 2575 -91 1722 -91 
Q 1428 -91 1123 -41 
Q 819 9 494 109 
L 494 744 
Q 775 591 1075 516 
Q 1375 441 1709 441 
Q 2250 441 2565 725 
Q 2881 1009 2881 1497 
Q 2881 1984 2565 2268 
Q 2250 2553 1709 2553 
Q 1456 2553 1204 2497 
Q 953 2441 691 2322 
L 691 4666 
z
" id="DejaVuSans-35" transform="scale(0.015625)"/>
       </defs>
       <use xlink:href="#DejaVuSans-35"/>
       <use x="63.623047" xlink:href="#DejaVuSans-30"/>
      </g>
     </g>
    </g>
    <g id="ytick_3">
     <g id="line2d_9">
      <g>
       <use style="stroke:#000000;stroke-width:0.8;" x="54" xlink:href="#mdf4002badf" y="370.396862"/>
      </g>
     </g>
     <g id="text_10">
      <!-- 100 -->
      <g transform="translate(27.9125 374.196081)scale(0.1 -0.1)">
       <use xlink:href="#DejaVuSans-31"/>
       <use x="63.623047" xlink:href="#DejaVuSans-30"/>
       <use x="127.246094" xlink:href="#DejaVuSans-30"/>
      </g>
     </g>
    </g>
    <g id="ytick_4">
     <g id="line2d_10">
      <g>
       <use style="stroke:#000000;stroke-width:0.8;" x="54" xlink:href="#mdf4002badf" y="299.275293"/>
      </g>
     </g>
     <g id="text_11">
      <!-- 150 -->
      <g transform="translate(27.9125 303.074512)scale(0.1 -0.1)">
       <use xlink:href="#DejaVuSans-31"/>
       <use x="63.623047" xlink:href="#DejaVuSans-35"/>
       <use x="127.246094" xlink:href="#DejaVuSans-30"/>
      </g>
     </g>
    </g>
    <g id="ytick_5">
     <g id="line2d_11">
      <g>
       <use style="stroke:#000000;stroke-width:0.8;" x="54" xlink:href="#mdf4002badf" y="228.153724"/>
      </g>
     </g>
     <g id="text_12">
      <!-- 200 -->
      <g transform="translate(27.9125 231.952943)scale(0.1 -0.1)">
       <use xlink:href="#DejaVuSans-32"/>
       <use x="63.623047" xlink:href="#DejaVuSans-30"/>
       <use x="127.246094" xlink:href="#DejaVuSans-30"/>
      </g>
     </g>
    </g>
    <g id="ytick_6">
     <g id="line2d_12">
      <g>
       <use style="stroke:#000000;stroke-width:0.8;" x="54" xlink:href="#mdf4002badf" y="157.032155"/>
      </g>
     </g>
     <g id="text_13">
      <!-- 250 -->
      <g transform="translate(27.9125 160.831374)scale(0.1 -0.1)">
       <use xlink:href="#DejaVuSans-32"/>
       <use x="63.623047" xlink:href="#DejaVuSans-35"/>
       <use x="127.246094" xlink:href="#DejaVuSans-30"/>
      </g>
     </g>
    </g>
    <g id="ytick_7">
     <g id="line2d_13">
      <g>
       <use style="stroke:#000000;stroke-width:0.8;" x="54" xlink:href="#mdf4002badf" y="85.910586"/>
      </g>
     </g>
     <g id="text_14">
      <!-- 300 -->
      <g transform="translate(27.9125 89.709805)scale(0.1 -0.1)">
       <defs>
        <path d="M 2597 2516 
Q 3050 2419 3304 2112 
Q 3559 1806 3559 1356 
Q 3559 666 3084 287 
Q 2609 -91 1734 -91 
Q 1441 -91 1130 -33 
Q 819 25 488 141 
L 488 750 
Q 750 597 1062 519 
Q 1375 441 1716 441 
Q 2309 441 2620 675 
Q 2931 909 2931 1356 
Q 2931 1769 2642 2001 
Q 2353 2234 1838 2234 
L 1294 2234 
L 1294 2753 
L 1863 2753 
Q 2328 2753 2575 2939 
Q 2822 3125 2822 3475 
Q 2822 3834 2567 4026 
Q 2313 4219 1838 4219 
Q 1578 4219 1281 4162 
Q 984 4106 628 3988 
L 628 4550 
Q 988 4650 1302 4700 
Q 1616 4750 1894 4750 
Q 2613 4750 3031 4423 
Q 3450 4097 3450 3541 
Q 3450 3153 3228 2886 
Q 3006 2619 2597 2516 
z
" id="DejaVuSans-33" transform="scale(0.015625)"/>
       </defs>
       <use xlink:href="#DejaVuSans-33"/>
       <use x="63.623047" xlink:href="#DejaVuSans-30"/>
       <use x="127.246094" xlink:href="#DejaVuSans-30"/>
      </g>
     </g>
    </g>
    <g id="text_15">
     <!-- Energy Generated (TWh) -->
     <g transform="translate(21.832812 353.158906)rotate(-90)scale(0.1 -0.1)">
      <defs>
       <path d="M 628 4666 
L 3578 4666 
L 3578 4134 
L 1259 4134 
L 1259 2753 
L 3481 2753 
L 3481 2222 
L 1259 2222 
L 1259 531 
L 3634 531 
L 3634 0 
L 628 0 
L 628 4666 
z
" id="DejaVuSans-45" transform="scale(0.015625)"/>
       <path d="M 2194 1759 
Q 1497 1759 1228 1600 
Q 959 1441 959 1056 
Q 959 750 1161 570 
Q 1363 391 1709 391 
Q 2188 391 2477 730 
Q 2766 1069 2766 1631 
L 2766 1759 
L 2194 1759 
z
M 3341 1997 
L 3341 0 
L 2766 0 
L 2766 531 
Q 2569 213 2275 61 
Q 1981 -91 1556 -91 
Q 1019 -91 701 211 
Q 384 513 384 1019 
Q 384 1609 779 1909 
Q 1175 2209 1959 2209 
L 2766 2209 
L 2766 2266 
Q 2766 2663 2505 2880 
Q 2244 3097 1772 3097 
Q 1472 3097 1187 3025 
Q 903 2953 641 2809 
L 641 3341 
Q 956 3463 1253 3523 
Q 1550 3584 1831 3584 
Q 2591 3584 2966 3190 
Q 3341 2797 3341 1997 
z
" id="DejaVuSans-61" transform="scale(0.015625)"/>
       <path d="M 213 4666 
L 850 4666 
L 1831 722 
L 2809 4666 
L 3519 4666 
L 4500 722 
L 5478 4666 
L 6119 4666 
L 4947 0 
L 4153 0 
L 3169 4050 
L 2175 0 
L 1381 0 
L 213 4666 
z
" id="DejaVuSans-57" transform="scale(0.015625)"/>
      </defs>
      <use xlink:href="#DejaVuSans-45"/>
      <use x="63.183594" xlink:href="#DejaVuSans-6e"/>
      <use x="126.5625" xlink:href="#DejaVuSans-65"/>
      <use x="188.085938" xlink:href="#DejaVuSans-72"/>
      <use x="227.449219" xlink:href="#DejaVuSans-67"/>
      <use x="290.925781" xlink:href="#DejaVuSans-79"/>
      <use x="350.105469" xlink:href="#DejaVuSans-20"/>
      <use x="381.892578" xlink:href="#DejaVuSans-47"/>
      <use x="459.382812" xlink:href="#DejaVuSans-65"/>
      <use x="520.90625" xlink:href="#DejaVuSans-6e"/>
      <use x="584.285156" xlink:href="#DejaVuSans-65"/>
      <use x="645.808594" xlink:href="#DejaVuSans-72"/>
      <use x="686.921875" xlink:href="#DejaVuSans-61"/>
      <use x="748.201172" xlink:href="#DejaVuSans-74"/>
      <use x="787.410156" xlink:href="#DejaVuSans-65"/>
      <use x="848.933594" xlink:href="#DejaVuSans-64"/>
      <use x="912.410156" xlink:href="#DejaVuSans-20"/>
      <use x="944.197266" xlink:href="#DejaVuSans-28"/>
      <use x="983.210938" xlink:href="#DejaVuSans-54"/>
      <use x="1044.294922" xlink:href="#DejaVuSans-57"/>
      <use x="1143.171875" xlink:href="#DejaVuSans-68"/>
      <use x="1206.550781" xlink:href="#DejaVuSans-29"/>
     </g>
    </g>
   </g>
   <g id="patch_3">
    <path d="M 54 512.64 
L 54 69.12 
" style="fill:none;stroke:#000000;stroke-linecap:square;stroke-linejoin:miter;stroke-width:0.8;"/>
   </g>
   <g id="patch_4">
    <path d="M 388.8 512.64 
L 388.8 69.12 
" style="fill:none;stroke:#000000;stroke-linecap:square;stroke-linejoin:miter;stroke-width:0.8;"/>
   </g>
   <g id="patch_5">
    <path d="M 54 512.64 
L 388.8 512.64 
" style="fill:none;stroke:#000000;stroke-linecap:square;stroke-linejoin:miter;stroke-width:0.8;"/>
   </g>
   <g id="patch_6">
    <path d="M 54 69.12 
L 388.8 69.12 
" style="fill:none;stroke:#000000;stroke-linecap:square;stroke-linejoin:miter;stroke-width:0.8;"/>
   </g>
  </g>
 </g>
 <defs>
  <clipPath id="pba8ab44d21">
   <rect height="443.52" width="334.8" x="54" y="69.12"/>
  </clipPath>
 </defs>
</svg>
