<?xml version="1.0" encoding="utf-8" standalone="no"?>
<!DOCTYPE svg PUBLIC "-//W3C//DTD SVG 1.1//EN"
  "http://www.w3.org/Graphics/SVG/1.1/DTD/svg11.dtd">
<svg height="576pt" version="1.1" viewBox="0 0 432 576" width="432pt" xmlns="http://www.w3.org/2000/svg" xmlns:xlink="http://www.w3.org/1999/xlink">
 <metadata>
  <rdf:RDF xmlns:cc="http://creativecommons.org/ns#" xmlns:dc="http://purl.org/dc/elements/1.1/" xmlns:rdf="http://www.w3.org/1999/02/22-rdf-syntax-ns#">
   <cc:Work>
    <dc:type rdf:resource="http://purl.org/dc/dcmitype/StillImage"/>
    <dc:date>2021-06-15T11:16:31.454842</dc:date>
    <dc:format>image/svg+xml</dc:format>
    <dc:creator>
     <cc:Agent>
      <dc:title>Matplotlib v3.4.1, https://matplotlib.org/</dc:title>
     </cc:Agent>
    </dc:creator>
   </cc:Work>
  </rdf:RDF>
 </metadata>
 <defs>
  <style type="text/css">*{stroke-linecap:butt;stroke-linejoin:round;}</style>
 </defs>
 <g id="figure_1">
  <g id="patch_1">
   <path d="M 0 576 
L 432 576 
L 432 0 
L 0 0 
z
" style="fill:#ffffff;"/>
  </g>
  <g id="axes_1">
   <g id="patch_2">
    <path d="M 54 512.64 
L 388.8 512.64 
L 388.8 69.12 
L 54 69.12 
z
" style="fill:#ffffff;"/>
   </g>
   <g id="PolyCollection_1">
    <path clip-path="url(#pd184e1d396)" d="M 69.218182 304.676668 
L 69.218182 512.64 
L 72.292562 512.64 
L 75.366942 512.64 
L 78.441322 512.64 
L 81.515702 512.64 
L 84.590083 512.64 
L 87.664463 512.64 
L 90.738843 512.64 
L 93.813223 512.64 
L 96.887603 512.64 
L 99.961983 512.64 
L 103.036364 512.64 
L 106.110744 512.64 
L 109.185124 512.64 
L 112.259504 512.64 
L 115.333884 512.64 
L 118.408264 512.64 
L 121.482645 512.64 
L 124.557025 512.64 
L 127.631405 512.64 
L 130.705785 512.64 
L 133.780165 512.64 
L 136.854545 512.64 
L 139.928926 512.64 
L 143.003306 512.64 
L 146.077686 512.64 
L 149.152066 512.64 
L 152.226446 512.64 
L 155.300826 512.64 
L 158.375207 512.64 
L 161.449587 512.64 
L 164.523967 512.64 
L 167.598347 512.64 
L 170.672727 512.64 
L 173.747107 512.64 
L 176.821488 512.64 
L 179.895868 512.64 
L 182.970248 512.64 
L 186.044628 512.64 
L 189.119008 512.64 
L 192.193388 512.64 
L 195.267769 512.64 
L 198.342149 512.64 
L 201.416529 512.64 
L 204.490909 512.64 
L 207.565289 512.64 
L 210.639669 512.64 
L 213.71405 512.64 
L 216.78843 512.64 
L 219.86281 512.64 
L 222.93719 512.64 
L 226.01157 512.64 
L 229.08595 512.64 
L 232.160331 512.64 
L 235.234711 512.64 
L 238.309091 512.64 
L 241.383471 512.64 
L 244.457851 512.64 
L 247.532231 512.64 
L 250.606612 512.64 
L 253.680992 512.64 
L 256.755372 512.64 
L 259.829752 512.64 
L 262.904132 512.64 
L 265.978512 512.64 
L 269.052893 512.64 
L 272.127273 512.64 
L 275.201653 512.64 
L 278.276033 512.64 
L 281.350413 512.64 
L 284.424793 512.64 
L 287.499174 512.64 
L 290.573554 512.64 
L 293.647934 512.64 
L 296.722314 512.64 
L 299.796694 512.64 
L 302.871074 512.64 
L 305.945455 512.64 
L 309.019835 512.64 
L 312.094215 512.64 
L 315.168595 512.64 
L 318.242975 512.64 
L 321.317355 512.64 
L 324.391736 512.64 
L 327.466116 512.64 
L 330.540496 512.64 
L 333.614876 512.64 
L 336.689256 512.64 
L 339.763636 512.64 
L 342.838017 512.64 
L 345.912397 512.64 
L 348.986777 512.64 
L 352.061157 512.64 
L 355.135537 512.64 
L 358.209917 512.64 
L 361.284298 512.64 
L 364.358678 512.64 
L 367.433058 512.64 
L 370.507438 512.64 
L 373.581818 512.64 
L 373.581818 309.452295 
L 373.581818 309.452295 
L 370.507438 309.404056 
L 367.433058 309.355817 
L 364.358678 309.307579 
L 361.284298 309.25934 
L 358.209917 309.211101 
L 355.135537 309.162863 
L 352.061157 309.114624 
L 348.986777 309.066385 
L 345.912397 309.018147 
L 342.838017 308.969908 
L 339.763636 308.921669 
L 336.689256 308.873431 
L 333.614876 308.825192 
L 330.540496 308.776954 
L 327.466116 308.728715 
L 324.391736 308.680476 
L 321.317355 308.632238 
L 318.242975 308.583999 
L 315.168595 308.53576 
L 312.094215 308.487522 
L 309.019835 308.439283 
L 305.945455 308.391044 
L 302.871074 308.342806 
L 299.796694 308.294567 
L 296.722314 308.246328 
L 293.647934 308.19809 
L 290.573554 308.149851 
L 287.499174 308.101612 
L 284.424793 308.053374 
L 281.350413 308.005135 
L 278.276033 307.956896 
L 275.201653 307.908658 
L 272.127273 307.860419 
L 269.052893 307.81218 
L 265.978512 307.763942 
L 262.904132 307.715703 
L 259.829752 307.667464 
L 256.755372 307.619226 
L 253.680992 307.570987 
L 250.606612 307.522748 
L 247.532231 307.47451 
L 244.457851 307.426271 
L 241.383471 307.378033 
L 238.309091 307.329794 
L 235.234711 307.281555 
L 232.160331 307.233317 
L 229.08595 307.185078 
L 226.01157 307.136839 
L 222.93719 307.088601 
L 219.86281 307.040362 
L 216.78843 306.992123 
L 213.71405 306.943885 
L 210.639669 306.895646 
L 207.565289 306.847407 
L 204.490909 306.799169 
L 201.416529 306.75093 
L 198.342149 306.702691 
L 195.267769 306.654453 
L 192.193388 306.606214 
L 189.119008 306.557975 
L 186.044628 306.509737 
L 182.970248 306.461498 
L 179.895868 306.413259 
L 176.821488 306.365021 
L 173.747107 306.316782 
L 170.672727 306.268543 
L 167.598347 306.220305 
L 164.523967 306.172066 
L 161.449587 306.123827 
L 158.375207 306.075589 
L 155.300826 306.02735 
L 152.226446 305.979111 
L 149.152066 305.930873 
L 146.077686 305.882634 
L 143.003306 305.834396 
L 139.928926 305.786157 
L 136.854545 305.737918 
L 133.780165 305.68968 
L 130.705785 305.641441 
L 127.631405 305.593202 
L 124.557025 305.544964 
L 121.482645 305.496725 
L 118.408264 305.448486 
L 115.333884 305.400248 
L 112.259504 305.352009 
L 109.185124 305.30377 
L 106.110744 305.255532 
L 103.036364 305.207293 
L 99.961983 305.159054 
L 96.887603 305.110816 
L 93.813223 305.062577 
L 90.738843 305.014338 
L 87.664463 304.9661 
L 84.590083 304.917861 
L 81.515702 304.869622 
L 78.441322 304.821384 
L 75.366942 304.773145 
L 72.292562 304.724906 
L 69.218182 304.676668 
z
" style="fill:#3182bd;"/>
   </g>
   <g id="PolyCollection_2">
    <path clip-path="url(#pd184e1d396)" d="M 69.218182 265.179606 
L 69.218182 304.676668 
L 72.292562 304.724906 
L 75.366942 304.773145 
L 78.441322 304.821384 
L 81.515702 304.869622 
L 84.590083 304.917861 
L 87.664463 304.9661 
L 90.738843 305.014338 
L 93.813223 305.062577 
L 96.887603 305.110816 
L 99.961983 305.159054 
L 103.036364 305.207293 
L 106.110744 305.255532 
L 109.185124 305.30377 
L 112.259504 305.352009 
L 115.333884 305.400248 
L 118.408264 305.448486 
L 121.482645 305.496725 
L 124.557025 305.544964 
L 127.631405 305.593202 
L 130.705785 305.641441 
L 133.780165 305.68968 
L 136.854545 305.737918 
L 139.928926 305.786157 
L 143.003306 305.834396 
L 146.077686 305.882634 
L 149.152066 305.930873 
L 152.226446 305.979111 
L 155.300826 306.02735 
L 158.375207 306.075589 
L 161.449587 306.123827 
L 164.523967 306.172066 
L 167.598347 306.220305 
L 170.672727 306.268543 
L 173.747107 306.316782 
L 176.821488 306.365021 
L 179.895868 306.413259 
L 182.970248 306.461498 
L 186.044628 306.509737 
L 189.119008 306.557975 
L 192.193388 306.606214 
L 195.267769 306.654453 
L 198.342149 306.702691 
L 201.416529 306.75093 
L 204.490909 306.799169 
L 207.565289 306.847407 
L 210.639669 306.895646 
L 213.71405 306.943885 
L 216.78843 306.992123 
L 219.86281 307.040362 
L 222.93719 307.088601 
L 226.01157 307.136839 
L 229.08595 307.185078 
L 232.160331 307.233317 
L 235.234711 307.281555 
L 238.309091 307.329794 
L 241.383471 307.378033 
L 244.457851 307.426271 
L 247.532231 307.47451 
L 250.606612 307.522748 
L 253.680992 307.570987 
L 256.755372 307.619226 
L 259.829752 307.667464 
L 262.904132 307.715703 
L 265.978512 307.763942 
L 269.052893 307.81218 
L 272.127273 307.860419 
L 275.201653 307.908658 
L 278.276033 307.956896 
L 281.350413 308.005135 
L 284.424793 308.053374 
L 287.499174 308.101612 
L 290.573554 308.149851 
L 293.647934 308.19809 
L 296.722314 308.246328 
L 299.796694 308.294567 
L 302.871074 308.342806 
L 305.945455 308.391044 
L 309.019835 308.439283 
L 312.094215 308.487522 
L 315.168595 308.53576 
L 318.242975 308.583999 
L 321.317355 308.632238 
L 324.391736 308.680476 
L 327.466116 308.728715 
L 330.540496 308.776954 
L 333.614876 308.825192 
L 336.689256 308.873431 
L 339.763636 308.921669 
L 342.838017 308.969908 
L 345.912397 309.018147 
L 348.986777 309.066385 
L 352.061157 309.114624 
L 355.135537 309.162863 
L 358.209917 309.211101 
L 361.284298 309.25934 
L 364.358678 309.307579 
L 367.433058 309.355817 
L 370.507438 309.404056 
L 373.581818 309.452295 
L 373.581818 269.955233 
L 373.581818 269.955233 
L 370.507438 269.906995 
L 367.433058 269.858756 
L 364.358678 269.810517 
L 361.284298 269.762279 
L 358.209917 269.71404 
L 355.135537 269.665801 
L 352.061157 269.617563 
L 348.986777 269.569324 
L 345.912397 269.521085 
L 342.838017 269.472847 
L 339.763636 269.424608 
L 336.689256 269.376369 
L 333.614876 269.328131 
L 330.540496 269.279892 
L 327.466116 269.231653 
L 324.391736 269.183415 
L 321.317355 269.135176 
L 318.242975 269.086938 
L 315.168595 269.038699 
L 312.094215 268.99046 
L 309.019835 268.942222 
L 305.945455 268.893983 
L 302.871074 268.845744 
L 299.796694 268.797506 
L 296.722314 268.749267 
L 293.647934 268.701028 
L 290.573554 268.65279 
L 287.499174 268.604551 
L 284.424793 268.556312 
L 281.350413 268.508074 
L 278.276033 268.459835 
L 275.201653 268.411596 
L 272.127273 268.363358 
L 269.052893 268.315119 
L 265.978512 268.26688 
L 262.904132 268.218642 
L 259.829752 268.170403 
L 256.755372 268.122164 
L 253.680992 268.073926 
L 250.606612 268.025687 
L 247.532231 267.977448 
L 244.457851 267.92921 
L 241.383471 267.880971 
L 238.309091 267.832732 
L 235.234711 267.784494 
L 232.160331 267.736255 
L 229.08595 267.688017 
L 226.01157 267.639778 
L 222.93719 267.591539 
L 219.86281 267.543301 
L 216.78843 267.495062 
L 213.71405 267.446823 
L 210.639669 267.398585 
L 207.565289 267.350346 
L 204.490909 267.302107 
L 201.416529 267.253869 
L 198.342149 267.20563 
L 195.267769 267.157391 
L 192.193388 267.109153 
L 189.119008 267.060914 
L 186.044628 267.012675 
L 182.970248 266.964437 
L 179.895868 266.916198 
L 176.821488 266.867959 
L 173.747107 266.819721 
L 170.672727 266.771482 
L 167.598347 266.723243 
L 164.523967 266.675005 
L 161.449587 266.626766 
L 158.375207 266.578527 
L 155.300826 266.530289 
L 152.226446 266.48205 
L 149.152066 266.433811 
L 146.077686 266.385573 
L 143.003306 266.337334 
L 139.928926 266.289096 
L 136.854545 266.240857 
L 133.780165 266.192618 
L 130.705785 266.14438 
L 127.631405 266.096141 
L 124.557025 266.047902 
L 121.482645 265.999664 
L 118.408264 265.951425 
L 115.333884 265.903186 
L 112.259504 265.854948 
L 109.185124 265.806709 
L 106.110744 265.75847 
L 103.036364 265.710232 
L 99.961983 265.661993 
L 96.887603 265.613754 
L 93.813223 265.565516 
L 90.738843 265.517277 
L 87.664463 265.469038 
L 84.590083 265.4208 
L 81.515702 265.372561 
L 78.441322 265.324322 
L 75.366942 265.276084 
L 72.292562 265.227845 
L 69.218182 265.179606 
z
" style="fill:#6baed6;"/>
   </g>
   <g id="PolyCollection_3">
    <path clip-path="url(#pd184e1d396)" d="M 69.218182 260.908632 
L 69.218182 265.179606 
L 72.292562 265.227845 
L 75.366942 265.276084 
L 78.441322 265.324322 
L 81.515702 265.372561 
L 84.590083 265.4208 
L 87.664463 265.469038 
L 90.738843 265.517277 
L 93.813223 265.565516 
L 96.887603 265.613754 
L 99.961983 265.661993 
L 103.036364 265.710232 
L 106.110744 265.75847 
L 109.185124 265.806709 
L 112.259504 265.854948 
L 115.333884 265.903186 
L 118.408264 265.951425 
L 121.482645 265.999664 
L 124.557025 266.047902 
L 127.631405 266.096141 
L 130.705785 266.14438 
L 133.780165 266.192618 
L 136.854545 266.240857 
L 139.928926 266.289096 
L 143.003306 266.337334 
L 146.077686 266.385573 
L 149.152066 266.433811 
L 152.226446 266.48205 
L 155.300826 266.530289 
L 158.375207 266.578527 
L 161.449587 266.626766 
L 164.523967 266.675005 
L 167.598347 266.723243 
L 170.672727 266.771482 
L 173.747107 266.819721 
L 176.821488 266.867959 
L 179.895868 266.916198 
L 182.970248 266.964437 
L 186.044628 267.012675 
L 189.119008 267.060914 
L 192.193388 267.109153 
L 195.267769 267.157391 
L 198.342149 267.20563 
L 201.416529 267.253869 
L 204.490909 267.302107 
L 207.565289 267.350346 
L 210.639669 267.398585 
L 213.71405 267.446823 
L 216.78843 267.495062 
L 219.86281 267.543301 
L 222.93719 267.591539 
L 226.01157 267.639778 
L 229.08595 267.688017 
L 232.160331 267.736255 
L 235.234711 267.784494 
L 238.309091 267.832732 
L 241.383471 267.880971 
L 244.457851 267.92921 
L 247.532231 267.977448 
L 250.606612 268.025687 
L 253.680992 268.073926 
L 256.755372 268.122164 
L 259.829752 268.170403 
L 262.904132 268.218642 
L 265.978512 268.26688 
L 269.052893 268.315119 
L 272.127273 268.363358 
L 275.201653 268.411596 
L 278.276033 268.459835 
L 281.350413 268.508074 
L 284.424793 268.556312 
L 287.499174 268.604551 
L 290.573554 268.65279 
L 293.647934 268.701028 
L 296.722314 268.749267 
L 299.796694 268.797506 
L 302.871074 268.845744 
L 305.945455 268.893983 
L 309.019835 268.942222 
L 312.094215 268.99046 
L 315.168595 269.038699 
L 318.242975 269.086938 
L 321.317355 269.135176 
L 324.391736 269.183415 
L 327.466116 269.231653 
L 330.540496 269.279892 
L 333.614876 269.328131 
L 336.689256 269.376369 
L 339.763636 269.424608 
L 342.838017 269.472847 
L 345.912397 269.521085 
L 348.986777 269.569324 
L 352.061157 269.617563 
L 355.135537 269.665801 
L 358.209917 269.71404 
L 361.284298 269.762279 
L 364.358678 269.810517 
L 367.433058 269.858756 
L 370.507438 269.906995 
L 373.581818 269.955233 
L 373.581818 265.684259 
L 373.581818 265.684259 
L 370.507438 265.63602 
L 367.433058 265.587781 
L 364.358678 265.539543 
L 361.284298 265.491304 
L 358.209917 265.443065 
L 355.135537 265.394827 
L 352.061157 265.346588 
L 348.986777 265.298349 
L 345.912397 265.250111 
L 342.838017 265.201872 
L 339.763636 265.153633 
L 336.689256 265.105395 
L 333.614876 265.057156 
L 330.540496 265.008917 
L 327.466116 264.960679 
L 324.391736 264.91244 
L 321.317355 264.864201 
L 318.242975 264.815963 
L 315.168595 264.767724 
L 312.094215 264.719486 
L 309.019835 264.671247 
L 305.945455 264.623008 
L 302.871074 264.57477 
L 299.796694 264.526531 
L 296.722314 264.478292 
L 293.647934 264.430054 
L 290.573554 264.381815 
L 287.499174 264.333576 
L 284.424793 264.285338 
L 281.350413 264.237099 
L 278.276033 264.18886 
L 275.201653 264.140622 
L 272.127273 264.092383 
L 269.052893 264.044144 
L 265.978512 263.995906 
L 262.904132 263.947667 
L 259.829752 263.899428 
L 256.755372 263.85119 
L 253.680992 263.802951 
L 250.606612 263.754712 
L 247.532231 263.706474 
L 244.457851 263.658235 
L 241.383471 263.609996 
L 238.309091 263.561758 
L 235.234711 263.513519 
L 232.160331 263.46528 
L 229.08595 263.417042 
L 226.01157 263.368803 
L 222.93719 263.320565 
L 219.86281 263.272326 
L 216.78843 263.224087 
L 213.71405 263.175849 
L 210.639669 263.12761 
L 207.565289 263.079371 
L 204.490909 263.031133 
L 201.416529 262.982894 
L 198.342149 262.934655 
L 195.267769 262.886417 
L 192.193388 262.838178 
L 189.119008 262.789939 
L 186.044628 262.741701 
L 182.970248 262.693462 
L 179.895868 262.645223 
L 176.821488 262.596985 
L 173.747107 262.548746 
L 170.672727 262.500507 
L 167.598347 262.452269 
L 164.523967 262.40403 
L 161.449587 262.355791 
L 158.375207 262.307553 
L 155.300826 262.259314 
L 152.226446 262.211075 
L 149.152066 262.162837 
L 146.077686 262.114598 
L 143.003306 262.066359 
L 139.928926 262.018121 
L 136.854545 261.969882 
L 133.780165 261.921644 
L 130.705785 261.873405 
L 127.631405 261.825166 
L 124.557025 261.776928 
L 121.482645 261.728689 
L 118.408264 261.68045 
L 115.333884 261.632212 
L 112.259504 261.583973 
L 109.185124 261.535734 
L 106.110744 261.487496 
L 103.036364 261.439257 
L 99.961983 261.391018 
L 96.887603 261.34278 
L 93.813223 261.294541 
L 90.738843 261.246302 
L 87.664463 261.198064 
L 84.590083 261.149825 
L 81.515702 261.101586 
L 78.441322 261.053348 
L 75.366942 261.005109 
L 72.292562 260.95687 
L 69.218182 260.908632 
z
" style="fill:#9ecae1;"/>
   </g>
   <g id="PolyCollection_4">
    <path clip-path="url(#pd184e1d396)" d="M 69.218182 256.152974 
L 69.218182 260.908632 
L 72.292562 260.95687 
L 75.366942 261.005109 
L 78.441322 261.053348 
L 81.515702 261.101586 
L 84.590083 261.149825 
L 87.664463 261.198064 
L 90.738843 261.246302 
L 93.813223 261.294541 
L 96.887603 261.34278 
L 99.961983 261.391018 
L 103.036364 261.439257 
L 106.110744 261.487496 
L 109.185124 261.535734 
L 112.259504 261.583973 
L 115.333884 261.632212 
L 118.408264 261.68045 
L 121.482645 261.728689 
L 124.557025 261.776928 
L 127.631405 261.825166 
L 130.705785 261.873405 
L 133.780165 261.921644 
L 136.854545 261.969882 
L 139.928926 262.018121 
L 143.003306 262.066359 
L 146.077686 262.114598 
L 149.152066 262.162837 
L 152.226446 262.211075 
L 155.300826 262.259314 
L 158.375207 262.307553 
L 161.449587 262.355791 
L 164.523967 262.40403 
L 167.598347 262.452269 
L 170.672727 262.500507 
L 173.747107 262.548746 
L 176.821488 262.596985 
L 179.895868 262.645223 
L 182.970248 262.693462 
L 186.044628 262.741701 
L 189.119008 262.789939 
L 192.193388 262.838178 
L 195.267769 262.886417 
L 198.342149 262.934655 
L 201.416529 262.982894 
L 204.490909 263.031133 
L 207.565289 263.079371 
L 210.639669 263.12761 
L 213.71405 263.175849 
L 216.78843 263.224087 
L 219.86281 263.272326 
L 222.93719 263.320565 
L 226.01157 263.368803 
L 229.08595 263.417042 
L 232.160331 263.46528 
L 235.234711 263.513519 
L 238.309091 263.561758 
L 241.383471 263.609996 
L 244.457851 263.658235 
L 247.532231 263.706474 
L 250.606612 263.754712 
L 253.680992 263.802951 
L 256.755372 263.85119 
L 259.829752 263.899428 
L 262.904132 263.947667 
L 265.978512 263.995906 
L 269.052893 264.044144 
L 272.127273 264.092383 
L 275.201653 264.140622 
L 278.276033 264.18886 
L 281.350413 264.237099 
L 284.424793 264.285338 
L 287.499174 264.333576 
L 290.573554 264.381815 
L 293.647934 264.430054 
L 296.722314 264.478292 
L 299.796694 264.526531 
L 302.871074 264.57477 
L 305.945455 264.623008 
L 309.019835 264.671247 
L 312.094215 264.719486 
L 315.168595 264.767724 
L 318.242975 264.815963 
L 321.317355 264.864201 
L 324.391736 264.91244 
L 327.466116 264.960679 
L 330.540496 265.008917 
L 333.614876 265.057156 
L 336.689256 265.105395 
L 339.763636 265.153633 
L 342.838017 265.201872 
L 345.912397 265.250111 
L 348.986777 265.298349 
L 352.061157 265.346588 
L 355.135537 265.394827 
L 358.209917 265.443065 
L 361.284298 265.491304 
L 364.358678 265.539543 
L 367.433058 265.587781 
L 370.507438 265.63602 
L 373.581818 265.684259 
L 373.581818 260.928601 
L 373.581818 260.928601 
L 370.507438 260.880362 
L 367.433058 260.832124 
L 364.358678 260.783885 
L 361.284298 260.735646 
L 358.209917 260.687408 
L 355.135537 260.639169 
L 352.061157 260.59093 
L 348.986777 260.542692 
L 345.912397 260.494453 
L 342.838017 260.446214 
L 339.763636 260.397976 
L 336.689256 260.349737 
L 333.614876 260.301498 
L 330.540496 260.25326 
L 327.466116 260.205021 
L 324.391736 260.156782 
L 321.317355 260.108544 
L 318.242975 260.060305 
L 315.168595 260.012066 
L 312.094215 259.963828 
L 309.019835 259.915589 
L 305.945455 259.86735 
L 302.871074 259.819112 
L 299.796694 259.770873 
L 296.722314 259.722635 
L 293.647934 259.674396 
L 290.573554 259.626157 
L 287.499174 259.577919 
L 284.424793 259.52968 
L 281.350413 259.481441 
L 278.276033 259.433203 
L 275.201653 259.384964 
L 272.127273 259.336725 
L 269.052893 259.288487 
L 265.978512 259.240248 
L 262.904132 259.192009 
L 259.829752 259.143771 
L 256.755372 259.095532 
L 253.680992 259.047293 
L 250.606612 258.999055 
L 247.532231 258.950816 
L 244.457851 258.902577 
L 241.383471 258.854339 
L 238.309091 258.8061 
L 235.234711 258.757861 
L 232.160331 258.709623 
L 229.08595 258.661384 
L 226.01157 258.613145 
L 222.93719 258.564907 
L 219.86281 258.516668 
L 216.78843 258.468429 
L 213.71405 258.420191 
L 210.639669 258.371952 
L 207.565289 258.323713 
L 204.490909 258.275475 
L 201.416529 258.227236 
L 198.342149 258.178998 
L 195.267769 258.130759 
L 192.193388 258.08252 
L 189.119008 258.034282 
L 186.044628 257.986043 
L 182.970248 257.937804 
L 179.895868 257.889566 
L 176.821488 257.841327 
L 173.747107 257.793088 
L 170.672727 257.74485 
L 167.598347 257.696611 
L 164.523967 257.648372 
L 161.449587 257.600134 
L 158.375207 257.551895 
L 155.300826 257.503656 
L 152.226446 257.455418 
L 149.152066 257.407179 
L 146.077686 257.35894 
L 143.003306 257.310702 
L 139.928926 257.262463 
L 136.854545 257.214224 
L 133.780165 257.165986 
L 130.705785 257.117747 
L 127.631405 257.069508 
L 124.557025 257.02127 
L 121.482645 256.973031 
L 118.408264 256.924792 
L 115.333884 256.876554 
L 112.259504 256.828315 
L 109.185124 256.780077 
L 106.110744 256.731838 
L 103.036364 256.683599 
L 99.961983 256.635361 
L 96.887603 256.587122 
L 93.813223 256.538883 
L 90.738843 256.490645 
L 87.664463 256.442406 
L 84.590083 256.394167 
L 81.515702 256.345929 
L 78.441322 256.29769 
L 75.366942 256.249451 
L 72.292562 256.201213 
L 69.218182 256.152974 
z
" style="fill:#c6dbef;"/>
   </g>
   <g id="PolyCollection_5">
    <path clip-path="url(#pd184e1d396)" d="M 69.218182 238.577686 
L 69.218182 256.152974 
L 72.292562 256.201213 
L 75.366942 256.249451 
L 78.441322 256.29769 
L 81.515702 256.345929 
L 84.590083 256.394167 
L 87.664463 256.442406 
L 90.738843 256.490645 
L 93.813223 256.538883 
L 96.887603 256.587122 
L 99.961983 256.635361 
L 103.036364 256.683599 
L 106.110744 256.731838 
L 109.185124 256.780077 
L 112.259504 256.828315 
L 115.333884 256.876554 
L 118.408264 256.924792 
L 121.482645 256.973031 
L 124.557025 257.02127 
L 127.631405 257.069508 
L 130.705785 257.117747 
L 133.780165 257.165986 
L 136.854545 257.214224 
L 139.928926 257.262463 
L 143.003306 257.310702 
L 146.077686 257.35894 
L 149.152066 257.407179 
L 152.226446 257.455418 
L 155.300826 257.503656 
L 158.375207 257.551895 
L 161.449587 257.600134 
L 164.523967 257.648372 
L 167.598347 257.696611 
L 170.672727 257.74485 
L 173.747107 257.793088 
L 176.821488 257.841327 
L 179.895868 257.889566 
L 182.970248 257.937804 
L 186.044628 257.986043 
L 189.119008 258.034282 
L 192.193388 258.08252 
L 195.267769 258.130759 
L 198.342149 258.178998 
L 201.416529 258.227236 
L 204.490909 258.275475 
L 207.565289 258.323713 
L 210.639669 258.371952 
L 213.71405 258.420191 
L 216.78843 258.468429 
L 219.86281 258.516668 
L 222.93719 258.564907 
L 226.01157 258.613145 
L 229.08595 258.661384 
L 232.160331 258.709623 
L 235.234711 258.757861 
L 238.309091 258.8061 
L 241.383471 258.854339 
L 244.457851 258.902577 
L 247.532231 258.950816 
L 250.606612 258.999055 
L 253.680992 259.047293 
L 256.755372 259.095532 
L 259.829752 259.143771 
L 262.904132 259.192009 
L 265.978512 259.240248 
L 269.052893 259.288487 
L 272.127273 259.336725 
L 275.201653 259.384964 
L 278.276033 259.433203 
L 281.350413 259.481441 
L 284.424793 259.52968 
L 287.499174 259.577919 
L 290.573554 259.626157 
L 293.647934 259.674396 
L 296.722314 259.722635 
L 299.796694 259.770873 
L 302.871074 259.819112 
L 305.945455 259.86735 
L 309.019835 259.915589 
L 312.094215 259.963828 
L 315.168595 260.012066 
L 318.242975 260.060305 
L 321.317355 260.108544 
L 324.391736 260.156782 
L 327.466116 260.205021 
L 330.540496 260.25326 
L 333.614876 260.301498 
L 336.689256 260.349737 
L 339.763636 260.397976 
L 342.838017 260.446214 
L 345.912397 260.494453 
L 348.986777 260.542692 
L 352.061157 260.59093 
L 355.135537 260.639169 
L 358.209917 260.687408 
L 361.284298 260.735646 
L 364.358678 260.783885 
L 367.433058 260.832124 
L 370.507438 260.880362 
L 373.581818 260.928601 
L 373.581818 243.353313 
L 373.581818 243.353313 
L 370.507438 243.305074 
L 367.433058 243.256835 
L 364.358678 243.208597 
L 361.284298 243.160358 
L 358.209917 243.112119 
L 355.135537 243.063881 
L 352.061157 243.015642 
L 348.986777 242.967403 
L 345.912397 242.919165 
L 342.838017 242.870926 
L 339.763636 242.822687 
L 336.689256 242.774449 
L 333.614876 242.72621 
L 330.540496 242.677971 
L 327.466116 242.629733 
L 324.391736 242.581494 
L 321.317355 242.533255 
L 318.242975 242.485017 
L 315.168595 242.436778 
L 312.094215 242.38854 
L 309.019835 242.340301 
L 305.945455 242.292062 
L 302.871074 242.243824 
L 299.796694 242.195585 
L 296.722314 242.147346 
L 293.647934 242.099108 
L 290.573554 242.050869 
L 287.499174 242.00263 
L 284.424793 241.954392 
L 281.350413 241.906153 
L 278.276033 241.857914 
L 275.201653 241.809676 
L 272.127273 241.761437 
L 269.052893 241.713198 
L 265.978512 241.66496 
L 262.904132 241.616721 
L 259.829752 241.568482 
L 256.755372 241.520244 
L 253.680992 241.472005 
L 250.606612 241.423766 
L 247.532231 241.375528 
L 244.457851 241.327289 
L 241.383471 241.27905 
L 238.309091 241.230812 
L 235.234711 241.182573 
L 232.160331 241.134334 
L 229.08595 241.086096 
L 226.01157 241.037857 
L 222.93719 240.989619 
L 219.86281 240.94138 
L 216.78843 240.893141 
L 213.71405 240.844903 
L 210.639669 240.796664 
L 207.565289 240.748425 
L 204.490909 240.700187 
L 201.416529 240.651948 
L 198.342149 240.603709 
L 195.267769 240.555471 
L 192.193388 240.507232 
L 189.119008 240.458993 
L 186.044628 240.410755 
L 182.970248 240.362516 
L 179.895868 240.314277 
L 176.821488 240.266039 
L 173.747107 240.2178 
L 170.672727 240.169561 
L 167.598347 240.121323 
L 164.523967 240.073084 
L 161.449587 240.024845 
L 158.375207 239.976607 
L 155.300826 239.928368 
L 152.226446 239.880129 
L 149.152066 239.831891 
L 146.077686 239.783652 
L 143.003306 239.735413 
L 139.928926 239.687175 
L 136.854545 239.638936 
L 133.780165 239.590698 
L 130.705785 239.542459 
L 127.631405 239.49422 
L 124.557025 239.445982 
L 121.482645 239.397743 
L 118.408264 239.349504 
L 115.333884 239.301266 
L 112.259504 239.253027 
L 109.185124 239.204788 
L 106.110744 239.15655 
L 103.036364 239.108311 
L 99.961983 239.060072 
L 96.887603 239.011834 
L 93.813223 238.963595 
L 90.738843 238.915356 
L 87.664463 238.867118 
L 84.590083 238.818879 
L 81.515702 238.77064 
L 78.441322 238.722402 
L 75.366942 238.674163 
L 72.292562 238.625924 
L 69.218182 238.577686 
z
" style="fill:#e6550d;"/>
   </g>
   <g id="PolyCollection_6">
    <path clip-path="url(#pd184e1d396)" d="M 69.218182 212.599631 
L 69.218182 238.577686 
L 72.292562 238.625924 
L 75.366942 238.674163 
L 78.441322 238.722402 
L 81.515702 238.77064 
L 84.590083 238.818879 
L 87.664463 238.867118 
L 90.738843 238.915356 
L 93.813223 238.963595 
L 96.887603 239.011834 
L 99.961983 239.060072 
L 103.036364 239.108311 
L 106.110744 239.15655 
L 109.185124 239.204788 
L 112.259504 239.253027 
L 115.333884 239.301266 
L 118.408264 239.349504 
L 121.482645 239.397743 
L 124.557025 239.445982 
L 127.631405 239.49422 
L 130.705785 239.542459 
L 133.780165 239.590698 
L 136.854545 239.638936 
L 139.928926 239.687175 
L 143.003306 239.735413 
L 146.077686 239.783652 
L 149.152066 239.831891 
L 152.226446 239.880129 
L 155.300826 239.928368 
L 158.375207 239.976607 
L 161.449587 240.024845 
L 164.523967 240.073084 
L 167.598347 240.121323 
L 170.672727 240.169561 
L 173.747107 240.2178 
L 176.821488 240.266039 
L 179.895868 240.314277 
L 182.970248 240.362516 
L 186.044628 240.410755 
L 189.119008 240.458993 
L 192.193388 240.507232 
L 195.267769 240.555471 
L 198.342149 240.603709 
L 201.416529 240.651948 
L 204.490909 240.700187 
L 207.565289 240.748425 
L 210.639669 240.796664 
L 213.71405 240.844903 
L 216.78843 240.893141 
L 219.86281 240.94138 
L 222.93719 240.989619 
L 226.01157 241.037857 
L 229.08595 241.086096 
L 232.160331 241.134334 
L 235.234711 241.182573 
L 238.309091 241.230812 
L 241.383471 241.27905 
L 244.457851 241.327289 
L 247.532231 241.375528 
L 250.606612 241.423766 
L 253.680992 241.472005 
L 256.755372 241.520244 
L 259.829752 241.568482 
L 262.904132 241.616721 
L 265.978512 241.66496 
L 269.052893 241.713198 
L 272.127273 241.761437 
L 275.201653 241.809676 
L 278.276033 241.857914 
L 281.350413 241.906153 
L 284.424793 241.954392 
L 287.499174 242.00263 
L 290.573554 242.050869 
L 293.647934 242.099108 
L 296.722314 242.147346 
L 299.796694 242.195585 
L 302.871074 242.243824 
L 305.945455 242.292062 
L 309.019835 242.340301 
L 312.094215 242.38854 
L 315.168595 242.436778 
L 318.242975 242.485017 
L 321.317355 242.533255 
L 324.391736 242.581494 
L 327.466116 242.629733 
L 330.540496 242.677971 
L 333.614876 242.72621 
L 336.689256 242.774449 
L 339.763636 242.822687 
L 342.838017 242.870926 
L 345.912397 242.919165 
L 348.986777 242.967403 
L 352.061157 243.015642 
L 355.135537 243.063881 
L 358.209917 243.112119 
L 361.284298 243.160358 
L 364.358678 243.208597 
L 367.433058 243.256835 
L 370.507438 243.305074 
L 373.581818 243.353313 
L 373.581818 217.375258 
L 373.581818 217.375258 
L 370.507438 217.32702 
L 367.433058 217.278781 
L 364.358678 217.230542 
L 361.284298 217.182304 
L 358.209917 217.134065 
L 355.135537 217.085826 
L 352.061157 217.037588 
L 348.986777 216.989349 
L 345.912397 216.94111 
L 342.838017 216.892872 
L 339.763636 216.844633 
L 336.689256 216.796394 
L 333.614876 216.748156 
L 330.540496 216.699917 
L 327.466116 216.651678 
L 324.391736 216.60344 
L 321.317355 216.555201 
L 318.242975 216.506962 
L 315.168595 216.458724 
L 312.094215 216.410485 
L 309.019835 216.362246 
L 305.945455 216.314008 
L 302.871074 216.265769 
L 299.796694 216.217531 
L 296.722314 216.169292 
L 293.647934 216.121053 
L 290.573554 216.072815 
L 287.499174 216.024576 
L 284.424793 215.976337 
L 281.350413 215.928099 
L 278.276033 215.87986 
L 275.201653 215.831621 
L 272.127273 215.783383 
L 269.052893 215.735144 
L 265.978512 215.686905 
L 262.904132 215.638667 
L 259.829752 215.590428 
L 256.755372 215.542189 
L 253.680992 215.493951 
L 250.606612 215.445712 
L 247.532231 215.397473 
L 244.457851 215.349235 
L 241.383471 215.300996 
L 238.309091 215.252757 
L 235.234711 215.204519 
L 232.160331 215.15628 
L 229.08595 215.108041 
L 226.01157 215.059803 
L 222.93719 215.011564 
L 219.86281 214.963325 
L 216.78843 214.915087 
L 213.71405 214.866848 
L 210.639669 214.81861 
L 207.565289 214.770371 
L 204.490909 214.722132 
L 201.416529 214.673894 
L 198.342149 214.625655 
L 195.267769 214.577416 
L 192.193388 214.529178 
L 189.119008 214.480939 
L 186.044628 214.4327 
L 182.970248 214.384462 
L 179.895868 214.336223 
L 176.821488 214.287984 
L 173.747107 214.239746 
L 170.672727 214.191507 
L 167.598347 214.143268 
L 164.523967 214.09503 
L 161.449587 214.046791 
L 158.375207 213.998552 
L 155.300826 213.950314 
L 152.226446 213.902075 
L 149.152066 213.853836 
L 146.077686 213.805598 
L 143.003306 213.757359 
L 139.928926 213.70912 
L 136.854545 213.660882 
L 133.780165 213.612643 
L 130.705785 213.564404 
L 127.631405 213.516166 
L 124.557025 213.467927 
L 121.482645 213.419689 
L 118.408264 213.37145 
L 115.333884 213.323211 
L 112.259504 213.274973 
L 109.185124 213.226734 
L 106.110744 213.178495 
L 103.036364 213.130257 
L 99.961983 213.082018 
L 96.887603 213.033779 
L 93.813223 212.985541 
L 90.738843 212.937302 
L 87.664463 212.889063 
L 84.590083 212.840825 
L 81.515702 212.792586 
L 78.441322 212.744347 
L 75.366942 212.696109 
L 72.292562 212.64787 
L 69.218182 212.599631 
z
" style="fill:#fd8d3c;"/>
   </g>
   <g id="PolyCollection_7">
    <path clip-path="url(#pd184e1d396)" d="M 69.218182 199.185433 
L 69.218182 212.599631 
L 72.292562 212.64787 
L 75.366942 212.696109 
L 78.441322 212.744347 
L 81.515702 212.792586 
L 84.590083 212.840825 
L 87.664463 212.889063 
L 90.738843 212.937302 
L 93.813223 212.985541 
L 96.887603 213.033779 
L 99.961983 213.082018 
L 103.036364 213.130257 
L 106.110744 213.178495 
L 109.185124 213.226734 
L 112.259504 213.274973 
L 115.333884 213.323211 
L 118.408264 213.37145 
L 121.482645 213.419689 
L 124.557025 213.467927 
L 127.631405 213.516166 
L 130.705785 213.564404 
L 133.780165 213.612643 
L 136.854545 213.660882 
L 139.928926 213.70912 
L 143.003306 213.757359 
L 146.077686 213.805598 
L 149.152066 213.853836 
L 152.226446 213.902075 
L 155.300826 213.950314 
L 158.375207 213.998552 
L 161.449587 214.046791 
L 164.523967 214.09503 
L 167.598347 214.143268 
L 170.672727 214.191507 
L 173.747107 214.239746 
L 176.821488 214.287984 
L 179.895868 214.336223 
L 182.970248 214.384462 
L 186.044628 214.4327 
L 189.119008 214.480939 
L 192.193388 214.529178 
L 195.267769 214.577416 
L 198.342149 214.625655 
L 201.416529 214.673894 
L 204.490909 214.722132 
L 207.565289 214.770371 
L 210.639669 214.81861 
L 213.71405 214.866848 
L 216.78843 214.915087 
L 219.86281 214.963325 
L 222.93719 215.011564 
L 226.01157 215.059803 
L 229.08595 215.108041 
L 232.160331 215.15628 
L 235.234711 215.204519 
L 238.309091 215.252757 
L 241.383471 215.300996 
L 244.457851 215.349235 
L 247.532231 215.397473 
L 250.606612 215.445712 
L 253.680992 215.493951 
L 256.755372 215.542189 
L 259.829752 215.590428 
L 262.904132 215.638667 
L 265.978512 215.686905 
L 269.052893 215.735144 
L 272.127273 215.783383 
L 275.201653 215.831621 
L 278.276033 215.87986 
L 281.350413 215.928099 
L 284.424793 215.976337 
L 287.499174 216.024576 
L 290.573554 216.072815 
L 293.647934 216.121053 
L 296.722314 216.169292 
L 299.796694 216.217531 
L 302.871074 216.265769 
L 305.945455 216.314008 
L 309.019835 216.362246 
L 312.094215 216.410485 
L 315.168595 216.458724 
L 318.242975 216.506962 
L 321.317355 216.555201 
L 324.391736 216.60344 
L 327.466116 216.651678 
L 330.540496 216.699917 
L 333.614876 216.748156 
L 336.689256 216.796394 
L 339.763636 216.844633 
L 342.838017 216.892872 
L 345.912397 216.94111 
L 348.986777 216.989349 
L 352.061157 217.037588 
L 355.135537 217.085826 
L 358.209917 217.134065 
L 361.284298 217.182304 
L 364.358678 217.230542 
L 367.433058 217.278781 
L 370.507438 217.32702 
L 373.581818 217.375258 
L 373.581818 217.375258 
L 373.581818 217.375258 
L 370.507438 217.191523 
L 367.433058 217.007787 
L 364.358678 216.824051 
L 361.284298 216.640316 
L 358.209917 216.45658 
L 355.135537 216.272845 
L 352.061157 216.089109 
L 348.986777 215.905373 
L 345.912397 215.721638 
L 342.838017 215.537902 
L 339.763636 215.354167 
L 336.689256 215.170431 
L 333.614876 214.986695 
L 330.540496 214.80296 
L 327.466116 214.619224 
L 324.391736 214.435488 
L 321.317355 214.251753 
L 318.242975 214.068017 
L 315.168595 213.884282 
L 312.094215 213.700546 
L 309.019835 213.51681 
L 305.945455 213.333075 
L 302.871074 213.149339 
L 299.796694 212.965604 
L 296.722314 212.781868 
L 293.647934 212.598132 
L 290.573554 212.414397 
L 287.499174 212.230661 
L 284.424793 212.046926 
L 281.350413 211.86319 
L 278.276033 211.679454 
L 275.201653 211.495719 
L 272.127273 211.311983 
L 269.052893 211.128247 
L 265.978512 210.944512 
L 262.904132 210.760776 
L 259.829752 210.577041 
L 256.755372 210.393305 
L 253.680992 210.209569 
L 250.606612 210.025834 
L 247.532231 209.842098 
L 244.457851 209.658363 
L 241.383471 209.474627 
L 238.309091 209.290891 
L 235.234711 209.107156 
L 232.160331 208.92342 
L 229.08595 208.739685 
L 226.01157 208.555949 
L 222.93719 208.372213 
L 219.86281 208.188478 
L 216.78843 208.004742 
L 213.71405 207.821007 
L 210.639669 207.637271 
L 207.565289 207.453535 
L 204.490909 207.2698 
L 201.416529 207.086064 
L 198.342149 206.902328 
L 195.267769 206.718593 
L 192.193388 206.534857 
L 189.119008 206.351122 
L 186.044628 206.167386 
L 182.970248 205.98365 
L 179.895868 205.799915 
L 176.821488 205.616179 
L 173.747107 205.432444 
L 170.672727 205.248708 
L 167.598347 205.064972 
L 164.523967 204.881237 
L 161.449587 204.697501 
L 158.375207 204.513766 
L 155.300826 204.33003 
L 152.226446 204.146294 
L 149.152066 203.962559 
L 146.077686 203.778823 
L 143.003306 203.595087 
L 139.928926 203.411352 
L 136.854545 203.227616 
L 133.780165 203.043881 
L 130.705785 202.860145 
L 127.631405 202.676409 
L 124.557025 202.492674 
L 121.482645 202.308938 
L 118.408264 202.125203 
L 115.333884 201.941467 
L 112.259504 201.757731 
L 109.185124 201.573996 
L 106.110744 201.39026 
L 103.036364 201.206525 
L 99.961983 201.022789 
L 96.887603 200.839053 
L 93.813223 200.655318 
L 90.738843 200.471582 
L 87.664463 200.287846 
L 84.590083 200.104111 
L 81.515702 199.920375 
L 78.441322 199.73664 
L 75.366942 199.552904 
L 72.292562 199.369168 
L 69.218182 199.185433 
z
" style="fill:#fdae6b;"/>
   </g>
   <g id="PolyCollection_8">
    <path clip-path="url(#pd184e1d396)" d="M 69.218182 104.943127 
L 69.218182 199.185433 
L 72.292562 199.369168 
L 75.366942 199.552904 
L 78.441322 199.73664 
L 81.515702 199.920375 
L 84.590083 200.104111 
L 87.664463 200.287846 
L 90.738843 200.471582 
L 93.813223 200.655318 
L 96.887603 200.839053 
L 99.961983 201.022789 
L 103.036364 201.206525 
L 106.110744 201.39026 
L 109.185124 201.573996 
L 112.259504 201.757731 
L 115.333884 201.941467 
L 118.408264 202.125203 
L 121.482645 202.308938 
L 124.557025 202.492674 
L 127.631405 202.676409 
L 130.705785 202.860145 
L 133.780165 203.043881 
L 136.854545 203.227616 
L 139.928926 203.411352 
L 143.003306 203.595087 
L 146.077686 203.778823 
L 149.152066 203.962559 
L 152.226446 204.146294 
L 155.300826 204.33003 
L 158.375207 204.513766 
L 161.449587 204.697501 
L 164.523967 204.881237 
L 167.598347 205.064972 
L 170.672727 205.248708 
L 173.747107 205.432444 
L 176.821488 205.616179 
L 179.895868 205.799915 
L 182.970248 205.98365 
L 186.044628 206.167386 
L 189.119008 206.351122 
L 192.193388 206.534857 
L 195.267769 206.718593 
L 198.342149 206.902328 
L 201.416529 207.086064 
L 204.490909 207.2698 
L 207.565289 207.453535 
L 210.639669 207.637271 
L 213.71405 207.821007 
L 216.78843 208.004742 
L 219.86281 208.188478 
L 222.93719 208.372213 
L 226.01157 208.555949 
L 229.08595 208.739685 
L 232.160331 208.92342 
L 235.234711 209.107156 
L 238.309091 209.290891 
L 241.383471 209.474627 
L 244.457851 209.658363 
L 247.532231 209.842098 
L 250.606612 210.025834 
L 253.680992 210.209569 
L 256.755372 210.393305 
L 259.829752 210.577041 
L 262.904132 210.760776 
L 265.978512 210.944512 
L 269.052893 211.128247 
L 272.127273 211.311983 
L 275.201653 211.495719 
L 278.276033 211.679454 
L 281.350413 211.86319 
L 284.424793 212.046926 
L 287.499174 212.230661 
L 290.573554 212.414397 
L 293.647934 212.598132 
L 296.722314 212.781868 
L 299.796694 212.965604 
L 302.871074 213.149339 
L 305.945455 213.333075 
L 309.019835 213.51681 
L 312.094215 213.700546 
L 315.168595 213.884282 
L 318.242975 214.068017 
L 321.317355 214.251753 
L 324.391736 214.435488 
L 327.466116 214.619224 
L 330.540496 214.80296 
L 333.614876 214.986695 
L 336.689256 215.170431 
L 339.763636 215.354167 
L 342.838017 215.537902 
L 345.912397 215.721638 
L 348.986777 215.905373 
L 352.061157 216.089109 
L 355.135537 216.272845 
L 358.209917 216.45658 
L 361.284298 216.640316 
L 364.358678 216.824051 
L 367.433058 217.007787 
L 370.507438 217.191523 
L 373.581818 217.375258 
L 373.581818 123.132952 
L 373.581818 123.132952 
L 370.507438 122.949216 
L 367.433058 122.765481 
L 364.358678 122.581745 
L 361.284298 122.39801 
L 358.209917 122.214274 
L 355.135537 122.030538 
L 352.061157 121.846803 
L 348.986777 121.663067 
L 345.912397 121.479331 
L 342.838017 121.295596 
L 339.763636 121.11186 
L 336.689256 120.928125 
L 333.614876 120.744389 
L 330.540496 120.560653 
L 327.466116 120.376918 
L 324.391736 120.193182 
L 321.317355 120.009447 
L 318.242975 119.825711 
L 315.168595 119.641975 
L 312.094215 119.45824 
L 309.019835 119.274504 
L 305.945455 119.090769 
L 302.871074 118.907033 
L 299.796694 118.723297 
L 296.722314 118.539562 
L 293.647934 118.355826 
L 290.573554 118.17209 
L 287.499174 117.988355 
L 284.424793 117.804619 
L 281.350413 117.620884 
L 278.276033 117.437148 
L 275.201653 117.253412 
L 272.127273 117.069677 
L 269.052893 116.885941 
L 265.978512 116.702206 
L 262.904132 116.51847 
L 259.829752 116.334734 
L 256.755372 116.150999 
L 253.680992 115.967263 
L 250.606612 115.783528 
L 247.532231 115.599792 
L 244.457851 115.416056 
L 241.383471 115.232321 
L 238.309091 115.048585 
L 235.234711 114.86485 
L 232.160331 114.681114 
L 229.08595 114.497378 
L 226.01157 114.313643 
L 222.93719 114.129907 
L 219.86281 113.946171 
L 216.78843 113.762436 
L 213.71405 113.5787 
L 210.639669 113.394965 
L 207.565289 113.211229 
L 204.490909 113.027493 
L 201.416529 112.843758 
L 198.342149 112.660022 
L 195.267769 112.476287 
L 192.193388 112.292551 
L 189.119008 112.108815 
L 186.044628 111.92508 
L 182.970248 111.741344 
L 179.895868 111.557609 
L 176.821488 111.373873 
L 173.747107 111.190137 
L 170.672727 111.006402 
L 167.598347 110.822666 
L 164.523967 110.63893 
L 161.449587 110.455195 
L 158.375207 110.271459 
L 155.300826 110.087724 
L 152.226446 109.903988 
L 149.152066 109.720252 
L 146.077686 109.536517 
L 143.003306 109.352781 
L 139.928926 109.169046 
L 136.854545 108.98531 
L 133.780165 108.801574 
L 130.705785 108.617839 
L 127.631405 108.434103 
L 124.557025 108.250368 
L 121.482645 108.066632 
L 118.408264 107.882896 
L 115.333884 107.699161 
L 112.259504 107.515425 
L 109.185124 107.331689 
L 106.110744 107.147954 
L 103.036364 106.964218 
L 99.961983 106.780483 
L 96.887603 106.596747 
L 93.813223 106.413011 
L 90.738843 106.229276 
L 87.664463 106.04554 
L 84.590083 105.861805 
L 81.515702 105.678069 
L 78.441322 105.494333 
L 75.366942 105.310598 
L 72.292562 105.126862 
L 69.218182 104.943127 
z
" style="fill:#fdd0a2;"/>
   </g>
   <g id="PolyCollection_9">
    <path clip-path="url(#pd184e1d396)" d="M 69.218182 90.24 
L 69.218182 104.943127 
L 72.292562 105.126862 
L 75.366942 105.310598 
L 78.441322 105.494333 
L 81.515702 105.678069 
L 84.590083 105.861805 
L 87.664463 106.04554 
L 90.738843 106.229276 
L 93.813223 106.413011 
L 96.887603 106.596747 
L 99.961983 106.780483 
L 103.036364 106.964218 
L 106.110744 107.147954 
L 109.185124 107.331689 
L 112.259504 107.515425 
L 115.333884 107.699161 
L 118.408264 107.882896 
L 121.482645 108.066632 
L 124.557025 108.250368 
L 127.631405 108.434103 
L 130.705785 108.617839 
L 133.780165 108.801574 
L 136.854545 108.98531 
L 139.928926 109.169046 
L 143.003306 109.352781 
L 146.077686 109.536517 
L 149.152066 109.720252 
L 152.226446 109.903988 
L 155.300826 110.087724 
L 158.375207 110.271459 
L 161.449587 110.455195 
L 164.523967 110.63893 
L 167.598347 110.822666 
L 170.672727 111.006402 
L 173.747107 111.190137 
L 176.821488 111.373873 
L 179.895868 111.557609 
L 182.970248 111.741344 
L 186.044628 111.92508 
L 189.119008 112.108815 
L 192.193388 112.292551 
L 195.267769 112.476287 
L 198.342149 112.660022 
L 201.416529 112.843758 
L 204.490909 113.027493 
L 207.565289 113.211229 
L 210.639669 113.394965 
L 213.71405 113.5787 
L 216.78843 113.762436 
L 219.86281 113.946171 
L 222.93719 114.129907 
L 226.01157 114.313643 
L 229.08595 114.497378 
L 232.160331 114.681114 
L 235.234711 114.86485 
L 238.309091 115.048585 
L 241.383471 115.232321 
L 244.457851 115.416056 
L 247.532231 115.599792 
L 250.606612 115.783528 
L 253.680992 115.967263 
L 256.755372 116.150999 
L 259.829752 116.334734 
L 262.904132 116.51847 
L 265.978512 116.702206 
L 269.052893 116.885941 
L 272.127273 117.069677 
L 275.201653 117.253412 
L 278.276033 117.437148 
L 281.350413 117.620884 
L 284.424793 117.804619 
L 287.499174 117.988355 
L 290.573554 118.17209 
L 293.647934 118.355826 
L 296.722314 118.539562 
L 299.796694 118.723297 
L 302.871074 118.907033 
L 305.945455 119.090769 
L 309.019835 119.274504 
L 312.094215 119.45824 
L 315.168595 119.641975 
L 318.242975 119.825711 
L 321.317355 120.009447 
L 324.391736 120.193182 
L 327.466116 120.376918 
L 330.540496 120.560653 
L 333.614876 120.744389 
L 336.689256 120.928125 
L 339.763636 121.11186 
L 342.838017 121.295596 
L 345.912397 121.479331 
L 348.986777 121.663067 
L 352.061157 121.846803 
L 355.135537 122.030538 
L 358.209917 122.214274 
L 361.284298 122.39801 
L 364.358678 122.581745 
L 367.433058 122.765481 
L 370.507438 122.949216 
L 373.581818 123.132952 
L 373.581818 123.132952 
L 373.581818 123.132952 
L 370.507438 122.8007 
L 367.433058 122.468448 
L 364.358678 122.136196 
L 361.284298 121.803944 
L 358.209917 121.471692 
L 355.135537 121.13944 
L 352.061157 120.807188 
L 348.986777 120.474936 
L 345.912397 120.142684 
L 342.838017 119.810432 
L 339.763636 119.47818 
L 336.689256 119.145927 
L 333.614876 118.813675 
L 330.540496 118.481423 
L 327.466116 118.149171 
L 324.391736 117.816919 
L 321.317355 117.484667 
L 318.242975 117.152415 
L 315.168595 116.820163 
L 312.094215 116.487911 
L 309.019835 116.155659 
L 305.945455 115.823407 
L 302.871074 115.491155 
L 299.796694 115.158903 
L 296.722314 114.826651 
L 293.647934 114.494399 
L 290.573554 114.162147 
L 287.499174 113.829895 
L 284.424793 113.497643 
L 281.350413 113.165391 
L 278.276033 112.833139 
L 275.201653 112.500887 
L 272.127273 112.168635 
L 269.052893 111.836383 
L 265.978512 111.504131 
L 262.904132 111.171879 
L 259.829752 110.839626 
L 256.755372 110.507374 
L 253.680992 110.175122 
L 250.606612 109.84287 
L 247.532231 109.510618 
L 244.457851 109.178366 
L 241.383471 108.846114 
L 238.309091 108.513862 
L 235.234711 108.18161 
L 232.160331 107.849358 
L 229.08595 107.517106 
L 226.01157 107.184854 
L 222.93719 106.852602 
L 219.86281 106.52035 
L 216.78843 106.188098 
L 213.71405 105.855846 
L 210.639669 105.523594 
L 207.565289 105.191342 
L 204.490909 104.85909 
L 201.416529 104.526838 
L 198.342149 104.194586 
L 195.267769 103.862334 
L 192.193388 103.530082 
L 189.119008 103.19783 
L 186.044628 102.865578 
L 182.970248 102.533325 
L 179.895868 102.201073 
L 176.821488 101.868821 
L 173.747107 101.536569 
L 170.672727 101.204317 
L 167.598347 100.872065 
L 164.523967 100.539813 
L 161.449587 100.207561 
L 158.375207 99.875309 
L 155.300826 99.543057 
L 152.226446 99.210805 
L 149.152066 98.878553 
L 146.077686 98.546301 
L 143.003306 98.214049 
L 139.928926 97.881797 
L 136.854545 97.549545 
L 133.780165 97.217293 
L 130.705785 96.885041 
L 127.631405 96.552789 
L 124.557025 96.220537 
L 121.482645 95.888285 
L 118.408264 95.556033 
L 115.333884 95.223781 
L 112.259504 94.891529 
L 109.185124 94.559277 
L 106.110744 94.227024 
L 103.036364 93.894772 
L 99.961983 93.56252 
L 96.887603 93.230268 
L 93.813223 92.898016 
L 90.738843 92.565764 
L 87.664463 92.233512 
L 84.590083 91.90126 
L 81.515702 91.569008 
L 78.441322 91.236756 
L 75.366942 90.904504 
L 72.292562 90.572252 
L 69.218182 90.24 
z
" style="fill:#31a354;"/>
   </g>
   <g id="PolyCollection_10">
    <path clip-path="url(#pd184e1d396)" d="M 69.218182 90.24 
L 69.218182 90.24 
L 72.292562 90.572252 
L 75.366942 90.904504 
L 78.441322 91.236756 
L 81.515702 91.569008 
L 84.590083 91.90126 
L 87.664463 92.233512 
L 90.738843 92.565764 
L 93.813223 92.898016 
L 96.887603 93.230268 
L 99.961983 93.56252 
L 103.036364 93.894772 
L 106.110744 94.227024 
L 109.185124 94.559277 
L 112.259504 94.891529 
L 115.333884 95.223781 
L 118.408264 95.556033 
L 121.482645 95.888285 
L 124.557025 96.220537 
L 127.631405 96.552789 
L 130.705785 96.885041 
L 133.780165 97.217293 
L 136.854545 97.549545 
L 139.928926 97.881797 
L 143.003306 98.214049 
L 146.077686 98.546301 
L 149.152066 98.878553 
L 152.226446 99.210805 
L 155.300826 99.543057 
L 158.375207 99.875309 
L 161.449587 100.207561 
L 164.523967 100.539813 
L 167.598347 100.872065 
L 170.672727 101.204317 
L 173.747107 101.536569 
L 176.821488 101.868821 
L 179.895868 102.201073 
L 182.970248 102.533325 
L 186.044628 102.865578 
L 189.119008 103.19783 
L 192.193388 103.530082 
L 195.267769 103.862334 
L 198.342149 104.194586 
L 201.416529 104.526838 
L 204.490909 104.85909 
L 207.565289 105.191342 
L 210.639669 105.523594 
L 213.71405 105.855846 
L 216.78843 106.188098 
L 219.86281 106.52035 
L 222.93719 106.852602 
L 226.01157 107.184854 
L 229.08595 107.517106 
L 232.160331 107.849358 
L 235.234711 108.18161 
L 238.309091 108.513862 
L 241.383471 108.846114 
L 244.457851 109.178366 
L 247.532231 109.510618 
L 250.606612 109.84287 
L 253.680992 110.175122 
L 256.755372 110.507374 
L 259.829752 110.839626 
L 262.904132 111.171879 
L 265.978512 111.504131 
L 269.052893 111.836383 
L 272.127273 112.168635 
L 275.201653 112.500887 
L 278.276033 112.833139 
L 281.350413 113.165391 
L 284.424793 113.497643 
L 287.499174 113.829895 
L 290.573554 114.162147 
L 293.647934 114.494399 
L 296.722314 114.826651 
L 299.796694 115.158903 
L 302.871074 115.491155 
L 305.945455 115.823407 
L 309.019835 116.155659 
L 312.094215 116.487911 
L 315.168595 116.820163 
L 318.242975 117.152415 
L 321.317355 117.484667 
L 324.391736 117.816919 
L 327.466116 118.149171 
L 330.540496 118.481423 
L 333.614876 118.813675 
L 336.689256 119.145927 
L 339.763636 119.47818 
L 342.838017 119.810432 
L 345.912397 120.142684 
L 348.986777 120.474936 
L 352.061157 120.807188 
L 355.135537 121.13944 
L 358.209917 121.471692 
L 361.284298 121.803944 
L 364.358678 122.136196 
L 367.433058 122.468448 
L 370.507438 122.8007 
L 373.581818 123.132952 
L 373.581818 107.587379 
L 373.581818 107.587379 
L 370.507438 107.412153 
L 367.433058 107.236927 
L 364.358678 107.061701 
L 361.284298 106.886475 
L 358.209917 106.711249 
L 355.135537 106.536023 
L 352.061157 106.360797 
L 348.986777 106.185571 
L 345.912397 106.010345 
L 342.838017 105.835119 
L 339.763636 105.659893 
L 336.689256 105.484667 
L 333.614876 105.309441 
L 330.540496 105.134215 
L 327.466116 104.958989 
L 324.391736 104.783763 
L 321.317355 104.608537 
L 318.242975 104.43331 
L 315.168595 104.258084 
L 312.094215 104.082858 
L 309.019835 103.907632 
L 305.945455 103.732406 
L 302.871074 103.55718 
L 299.796694 103.381954 
L 296.722314 103.206728 
L 293.647934 103.031502 
L 290.573554 102.856276 
L 287.499174 102.68105 
L 284.424793 102.505824 
L 281.350413 102.330598 
L 278.276033 102.155372 
L 275.201653 101.980146 
L 272.127273 101.80492 
L 269.052893 101.629694 
L 265.978512 101.454468 
L 262.904132 101.279241 
L 259.829752 101.104015 
L 256.755372 100.928789 
L 253.680992 100.753563 
L 250.606612 100.578337 
L 247.532231 100.403111 
L 244.457851 100.227885 
L 241.383471 100.052659 
L 238.309091 99.877433 
L 235.234711 99.702207 
L 232.160331 99.526981 
L 229.08595 99.351755 
L 226.01157 99.176529 
L 222.93719 99.001303 
L 219.86281 98.826077 
L 216.78843 98.650851 
L 213.71405 98.475625 
L 210.639669 98.300399 
L 207.565289 98.125172 
L 204.490909 97.949946 
L 201.416529 97.77472 
L 198.342149 97.599494 
L 195.267769 97.424268 
L 192.193388 97.249042 
L 189.119008 97.073816 
L 186.044628 96.89859 
L 182.970248 96.723364 
L 179.895868 96.548138 
L 176.821488 96.372912 
L 173.747107 96.197686 
L 170.672727 96.02246 
L 167.598347 95.847234 
L 164.523967 95.672008 
L 161.449587 95.496782 
L 158.375207 95.321556 
L 155.300826 95.14633 
L 152.226446 94.971103 
L 149.152066 94.795877 
L 146.077686 94.620651 
L 143.003306 94.445425 
L 139.928926 94.270199 
L 136.854545 94.094973 
L 133.780165 93.919747 
L 130.705785 93.744521 
L 127.631405 93.569295 
L 124.557025 93.394069 
L 121.482645 93.218843 
L 118.408264 93.043617 
L 115.333884 92.868391 
L 112.259504 92.693165 
L 109.185124 92.517939 
L 106.110744 92.342713 
L 103.036364 92.167487 
L 99.961983 91.992261 
L 96.887603 91.817034 
L 93.813223 91.641808 
L 90.738843 91.466582 
L 87.664463 91.291356 
L 84.590083 91.11613 
L 81.515702 90.940904 
L 78.441322 90.765678 
L 75.366942 90.590452 
L 72.292562 90.415226 
L 69.218182 90.24 
z
" style="fill:#74c476;"/>
   </g>
   <g id="PolyCollection_11">
    <path clip-path="url(#pd184e1d396)" d="M 69.218182 90.24 
L 69.218182 90.24 
L 72.292562 90.415226 
L 75.366942 90.590452 
L 78.441322 90.765678 
L 81.515702 90.940904 
L 84.590083 91.11613 
L 87.664463 91.291356 
L 90.738843 91.466582 
L 93.813223 91.641808 
L 96.887603 91.817034 
L 99.961983 91.992261 
L 103.036364 92.167487 
L 106.110744 92.342713 
L 109.185124 92.517939 
L 112.259504 92.693165 
L 115.333884 92.868391 
L 118.408264 93.043617 
L 121.482645 93.218843 
L 124.557025 93.394069 
L 127.631405 93.569295 
L 130.705785 93.744521 
L 133.780165 93.919747 
L 136.854545 94.094973 
L 139.928926 94.270199 
L 143.003306 94.445425 
L 146.077686 94.620651 
L 149.152066 94.795877 
L 152.226446 94.971103 
L 155.300826 95.14633 
L 158.375207 95.321556 
L 161.449587 95.496782 
L 164.523967 95.672008 
L 167.598347 95.847234 
L 170.672727 96.02246 
L 173.747107 96.197686 
L 176.821488 96.372912 
L 179.895868 96.548138 
L 182.970248 96.723364 
L 186.044628 96.89859 
L 189.119008 97.073816 
L 192.193388 97.249042 
L 195.267769 97.424268 
L 198.342149 97.599494 
L 201.416529 97.77472 
L 204.490909 97.949946 
L 207.565289 98.125172 
L 210.639669 98.300399 
L 213.71405 98.475625 
L 216.78843 98.650851 
L 219.86281 98.826077 
L 222.93719 99.001303 
L 226.01157 99.176529 
L 229.08595 99.351755 
L 232.160331 99.526981 
L 235.234711 99.702207 
L 238.309091 99.877433 
L 241.383471 100.052659 
L 244.457851 100.227885 
L 247.532231 100.403111 
L 250.606612 100.578337 
L 253.680992 100.753563 
L 256.755372 100.928789 
L 259.829752 101.104015 
L 262.904132 101.279241 
L 265.978512 101.454468 
L 269.052893 101.629694 
L 272.127273 101.80492 
L 275.201653 101.980146 
L 278.276033 102.155372 
L 281.350413 102.330598 
L 284.424793 102.505824 
L 287.499174 102.68105 
L 290.573554 102.856276 
L 293.647934 103.031502 
L 296.722314 103.206728 
L 299.796694 103.381954 
L 302.871074 103.55718 
L 305.945455 103.732406 
L 309.019835 103.907632 
L 312.094215 104.082858 
L 315.168595 104.258084 
L 318.242975 104.43331 
L 321.317355 104.608537 
L 324.391736 104.783763 
L 327.466116 104.958989 
L 330.540496 105.134215 
L 333.614876 105.309441 
L 336.689256 105.484667 
L 339.763636 105.659893 
L 342.838017 105.835119 
L 345.912397 106.010345 
L 348.986777 106.185571 
L 352.061157 106.360797 
L 355.135537 106.536023 
L 358.209917 106.711249 
L 361.284298 106.886475 
L 364.358678 107.061701 
L 367.433058 107.236927 
L 370.507438 107.412153 
L 373.581818 107.587379 
L 373.581818 90.24 
L 373.581818 90.24 
L 370.507438 90.24 
L 367.433058 90.24 
L 364.358678 90.24 
L 361.284298 90.24 
L 358.209917 90.24 
L 355.135537 90.24 
L 352.061157 90.24 
L 348.986777 90.24 
L 345.912397 90.24 
L 342.838017 90.24 
L 339.763636 90.24 
L 336.689256 90.24 
L 333.614876 90.24 
L 330.540496 90.24 
L 327.466116 90.24 
L 324.391736 90.24 
L 321.317355 90.24 
L 318.242975 90.24 
L 315.168595 90.24 
L 312.094215 90.24 
L 309.019835 90.24 
L 305.945455 90.24 
L 302.871074 90.24 
L 299.796694 90.24 
L 296.722314 90.24 
L 293.647934 90.24 
L 290.573554 90.24 
L 287.499174 90.24 
L 284.424793 90.24 
L 281.350413 90.24 
L 278.276033 90.24 
L 275.201653 90.24 
L 272.127273 90.24 
L 269.052893 90.24 
L 265.978512 90.24 
L 262.904132 90.24 
L 259.829752 90.24 
L 256.755372 90.24 
L 253.680992 90.24 
L 250.606612 90.24 
L 247.532231 90.24 
L 244.457851 90.24 
L 241.383471 90.24 
L 238.309091 90.24 
L 235.234711 90.24 
L 232.160331 90.24 
L 229.08595 90.24 
L 226.01157 90.24 
L 222.93719 90.24 
L 219.86281 90.24 
L 216.78843 90.24 
L 213.71405 90.24 
L 210.639669 90.24 
L 207.565289 90.24 
L 204.490909 90.24 
L 201.416529 90.24 
L 198.342149 90.24 
L 195.267769 90.24 
L 192.193388 90.24 
L 189.119008 90.24 
L 186.044628 90.24 
L 182.970248 90.24 
L 179.895868 90.24 
L 176.821488 90.24 
L 173.747107 90.24 
L 170.672727 90.24 
L 167.598347 90.24 
L 164.523967 90.24 
L 161.449587 90.24 
L 158.375207 90.24 
L 155.300826 90.24 
L 152.226446 90.24 
L 149.152066 90.24 
L 146.077686 90.24 
L 143.003306 90.24 
L 139.928926 90.24 
L 136.854545 90.24 
L 133.780165 90.24 
L 130.705785 90.24 
L 127.631405 90.24 
L 124.557025 90.24 
L 121.482645 90.24 
L 118.408264 90.24 
L 115.333884 90.24 
L 112.259504 90.24 
L 109.185124 90.24 
L 106.110744 90.24 
L 103.036364 90.24 
L 99.961983 90.24 
L 96.887603 90.24 
L 93.813223 90.24 
L 90.738843 90.24 
L 87.664463 90.24 
L 84.590083 90.24 
L 81.515702 90.24 
L 78.441322 90.24 
L 75.366942 90.24 
L 72.292562 90.24 
L 69.218182 90.24 
z
" style="fill:#a1d99b;"/>
   </g>
   <g id="matplotlib.axis_1">
    <g id="xtick_1">
     <g id="line2d_1">
      <defs>
       <path d="M 0 0 
L 0 3.5 
" id="mbb79edb7e4" style="stroke:#000000;stroke-width:0.8;"/>
      </defs>
      <g>
       <use style="stroke:#000000;stroke-width:0.8;" x="69.218182" xlink:href="#mbb79edb7e4" y="512.64"/>
      </g>
     </g>
     <g id="text_1">
      <!-- 0 -->
      <g transform="translate(66.036932 527.238438)scale(0.1 -0.1)">
       <defs>
        <path d="M 2034 4250 
Q 1547 4250 1301 3770 
Q 1056 3291 1056 2328 
Q 1056 1369 1301 889 
Q 1547 409 2034 409 
Q 2525 409 2770 889 
Q 3016 1369 3016 2328 
Q 3016 3291 2770 3770 
Q 2525 4250 2034 4250 
z
M 2034 4750 
Q 2819 4750 3233 4129 
Q 3647 3509 3647 2328 
Q 3647 1150 3233 529 
Q 2819 -91 2034 -91 
Q 1250 -91 836 529 
Q 422 1150 422 2328 
Q 422 3509 836 4129 
Q 1250 4750 2034 4750 
z
" id="DejaVuSans-30" transform="scale(0.015625)"/>
       </defs>
       <use xlink:href="#DejaVuSans-30"/>
      </g>
     </g>
    </g>
    <g id="xtick_2">
     <g id="line2d_2">
      <g>
       <use style="stroke:#000000;stroke-width:0.8;" x="130.090909" xlink:href="#mbb79edb7e4" y="512.64"/>
      </g>
     </g>
     <g id="text_2">
      <!-- 20 -->
      <g transform="translate(123.728409 527.238438)scale(0.1 -0.1)">
       <defs>
        <path d="M 1228 531 
L 3431 531 
L 3431 0 
L 469 0 
L 469 531 
Q 828 903 1448 1529 
Q 2069 2156 2228 2338 
Q 2531 2678 2651 2914 
Q 2772 3150 2772 3378 
Q 2772 3750 2511 3984 
Q 2250 4219 1831 4219 
Q 1534 4219 1204 4116 
Q 875 4013 500 3803 
L 500 4441 
Q 881 4594 1212 4672 
Q 1544 4750 1819 4750 
Q 2544 4750 2975 4387 
Q 3406 4025 3406 3419 
Q 3406 3131 3298 2873 
Q 3191 2616 2906 2266 
Q 2828 2175 2409 1742 
Q 1991 1309 1228 531 
z
" id="DejaVuSans-32" transform="scale(0.015625)"/>
       </defs>
       <use xlink:href="#DejaVuSans-32"/>
       <use x="63.623047" xlink:href="#DejaVuSans-30"/>
      </g>
     </g>
    </g>
    <g id="xtick_3">
     <g id="line2d_3">
      <g>
       <use style="stroke:#000000;stroke-width:0.8;" x="190.963636" xlink:href="#mbb79edb7e4" y="512.64"/>
      </g>
     </g>
     <g id="text_3">
      <!-- 40 -->
      <g transform="translate(184.601136 527.238438)scale(0.1 -0.1)">
       <defs>
        <path d="M 2419 4116 
L 825 1625 
L 2419 1625 
L 2419 4116 
z
M 2253 4666 
L 3047 4666 
L 3047 1625 
L 3713 1625 
L 3713 1100 
L 3047 1100 
L 3047 0 
L 2419 0 
L 2419 1100 
L 313 1100 
L 313 1709 
L 2253 4666 
z
" id="DejaVuSans-34" transform="scale(0.015625)"/>
       </defs>
       <use xlink:href="#DejaVuSans-34"/>
       <use x="63.623047" xlink:href="#DejaVuSans-30"/>
      </g>
     </g>
    </g>
    <g id="xtick_4">
     <g id="line2d_4">
      <g>
       <use style="stroke:#000000;stroke-width:0.8;" x="251.836364" xlink:href="#mbb79edb7e4" y="512.64"/>
      </g>
     </g>
     <g id="text_4">
      <!-- 60 -->
      <g transform="translate(245.473864 527.238438)scale(0.1 -0.1)">
       <defs>
        <path d="M 2113 2584 
Q 1688 2584 1439 2293 
Q 1191 2003 1191 1497 
Q 1191 994 1439 701 
Q 1688 409 2113 409 
Q 2538 409 2786 701 
Q 3034 994 3034 1497 
Q 3034 2003 2786 2293 
Q 2538 2584 2113 2584 
z
M 3366 4563 
L 3366 3988 
Q 3128 4100 2886 4159 
Q 2644 4219 2406 4219 
Q 1781 4219 1451 3797 
Q 1122 3375 1075 2522 
Q 1259 2794 1537 2939 
Q 1816 3084 2150 3084 
Q 2853 3084 3261 2657 
Q 3669 2231 3669 1497 
Q 3669 778 3244 343 
Q 2819 -91 2113 -91 
Q 1303 -91 875 529 
Q 447 1150 447 2328 
Q 447 3434 972 4092 
Q 1497 4750 2381 4750 
Q 2619 4750 2861 4703 
Q 3103 4656 3366 4563 
z
" id="DejaVuSans-36" transform="scale(0.015625)"/>
       </defs>
       <use xlink:href="#DejaVuSans-36"/>
       <use x="63.623047" xlink:href="#DejaVuSans-30"/>
      </g>
     </g>
    </g>
    <g id="xtick_5">
     <g id="line2d_5">
      <g>
       <use style="stroke:#000000;stroke-width:0.8;" x="312.709091" xlink:href="#mbb79edb7e4" y="512.64"/>
      </g>
     </g>
     <g id="text_5">
      <!-- 80 -->
      <g transform="translate(306.346591 527.238438)scale(0.1 -0.1)">
       <defs>
        <path d="M 2034 2216 
Q 1584 2216 1326 1975 
Q 1069 1734 1069 1313 
Q 1069 891 1326 650 
Q 1584 409 2034 409 
Q 2484 409 2743 651 
Q 3003 894 3003 1313 
Q 3003 1734 2745 1975 
Q 2488 2216 2034 2216 
z
M 1403 2484 
Q 997 2584 770 2862 
Q 544 3141 544 3541 
Q 544 4100 942 4425 
Q 1341 4750 2034 4750 
Q 2731 4750 3128 4425 
Q 3525 4100 3525 3541 
Q 3525 3141 3298 2862 
Q 3072 2584 2669 2484 
Q 3125 2378 3379 2068 
Q 3634 1759 3634 1313 
Q 3634 634 3220 271 
Q 2806 -91 2034 -91 
Q 1263 -91 848 271 
Q 434 634 434 1313 
Q 434 1759 690 2068 
Q 947 2378 1403 2484 
z
M 1172 3481 
Q 1172 3119 1398 2916 
Q 1625 2713 2034 2713 
Q 2441 2713 2670 2916 
Q 2900 3119 2900 3481 
Q 2900 3844 2670 4047 
Q 2441 4250 2034 4250 
Q 1625 4250 1398 4047 
Q 1172 3844 1172 3481 
z
" id="DejaVuSans-38" transform="scale(0.015625)"/>
       </defs>
       <use xlink:href="#DejaVuSans-38"/>
       <use x="63.623047" xlink:href="#DejaVuSans-30"/>
      </g>
     </g>
    </g>
    <g id="xtick_6">
     <g id="line2d_6">
      <g>
       <use style="stroke:#000000;stroke-width:0.8;" x="373.581818" xlink:href="#mbb79edb7e4" y="512.64"/>
      </g>
     </g>
     <g id="text_6">
      <!-- 100 -->
      <g transform="translate(364.038068 527.238438)scale(0.1 -0.1)">
       <defs>
        <path d="M 794 531 
L 1825 531 
L 1825 4091 
L 703 3866 
L 703 4441 
L 1819 4666 
L 2450 4666 
L 2450 531 
L 3481 531 
L 3481 0 
L 794 0 
L 794 531 
z
" id="DejaVuSans-31" transform="scale(0.015625)"/>
       </defs>
       <use xlink:href="#DejaVuSans-31"/>
       <use x="63.623047" xlink:href="#DejaVuSans-30"/>
       <use x="127.246094" xlink:href="#DejaVuSans-30"/>
      </g>
     </g>
    </g>
    <g id="text_7">
     <!-- Proportion of New Technology in Grid (%) -->
     <g transform="translate(118.632031 540.916563)scale(0.1 -0.1)">
      <defs>
       <path d="M 1259 4147 
L 1259 2394 
L 2053 2394 
Q 2494 2394 2734 2622 
Q 2975 2850 2975 3272 
Q 2975 3691 2734 3919 
Q 2494 4147 2053 4147 
L 1259 4147 
z
M 628 4666 
L 2053 4666 
Q 2838 4666 3239 4311 
Q 3641 3956 3641 3272 
Q 3641 2581 3239 2228 
Q 2838 1875 2053 1875 
L 1259 1875 
L 1259 0 
L 628 0 
L 628 4666 
z
" id="DejaVuSans-50" transform="scale(0.015625)"/>
       <path d="M 2631 2963 
Q 2534 3019 2420 3045 
Q 2306 3072 2169 3072 
Q 1681 3072 1420 2755 
Q 1159 2438 1159 1844 
L 1159 0 
L 581 0 
L 581 3500 
L 1159 3500 
L 1159 2956 
Q 1341 3275 1631 3429 
Q 1922 3584 2338 3584 
Q 2397 3584 2469 3576 
Q 2541 3569 2628 3553 
L 2631 2963 
z
" id="DejaVuSans-72" transform="scale(0.015625)"/>
       <path d="M 1959 3097 
Q 1497 3097 1228 2736 
Q 959 2375 959 1747 
Q 959 1119 1226 758 
Q 1494 397 1959 397 
Q 2419 397 2687 759 
Q 2956 1122 2956 1747 
Q 2956 2369 2687 2733 
Q 2419 3097 1959 3097 
z
M 1959 3584 
Q 2709 3584 3137 3096 
Q 3566 2609 3566 1747 
Q 3566 888 3137 398 
Q 2709 -91 1959 -91 
Q 1206 -91 779 398 
Q 353 888 353 1747 
Q 353 2609 779 3096 
Q 1206 3584 1959 3584 
z
" id="DejaVuSans-6f" transform="scale(0.015625)"/>
       <path d="M 1159 525 
L 1159 -1331 
L 581 -1331 
L 581 3500 
L 1159 3500 
L 1159 2969 
Q 1341 3281 1617 3432 
Q 1894 3584 2278 3584 
Q 2916 3584 3314 3078 
Q 3713 2572 3713 1747 
Q 3713 922 3314 415 
Q 2916 -91 2278 -91 
Q 1894 -91 1617 61 
Q 1341 213 1159 525 
z
M 3116 1747 
Q 3116 2381 2855 2742 
Q 2594 3103 2138 3103 
Q 1681 3103 1420 2742 
Q 1159 2381 1159 1747 
Q 1159 1113 1420 752 
Q 1681 391 2138 391 
Q 2594 391 2855 752 
Q 3116 1113 3116 1747 
z
" id="DejaVuSans-70" transform="scale(0.015625)"/>
       <path d="M 1172 4494 
L 1172 3500 
L 2356 3500 
L 2356 3053 
L 1172 3053 
L 1172 1153 
Q 1172 725 1289 603 
Q 1406 481 1766 481 
L 2356 481 
L 2356 0 
L 1766 0 
Q 1100 0 847 248 
Q 594 497 594 1153 
L 594 3053 
L 172 3053 
L 172 3500 
L 594 3500 
L 594 4494 
L 1172 4494 
z
" id="DejaVuSans-74" transform="scale(0.015625)"/>
       <path d="M 603 3500 
L 1178 3500 
L 1178 0 
L 603 0 
L 603 3500 
z
M 603 4863 
L 1178 4863 
L 1178 4134 
L 603 4134 
L 603 4863 
z
" id="DejaVuSans-69" transform="scale(0.015625)"/>
       <path d="M 3513 2113 
L 3513 0 
L 2938 0 
L 2938 2094 
Q 2938 2591 2744 2837 
Q 2550 3084 2163 3084 
Q 1697 3084 1428 2787 
Q 1159 2491 1159 1978 
L 1159 0 
L 581 0 
L 581 3500 
L 1159 3500 
L 1159 2956 
Q 1366 3272 1645 3428 
Q 1925 3584 2291 3584 
Q 2894 3584 3203 3211 
Q 3513 2838 3513 2113 
z
" id="DejaVuSans-6e" transform="scale(0.015625)"/>
       <path id="DejaVuSans-20" transform="scale(0.015625)"/>
       <path d="M 2375 4863 
L 2375 4384 
L 1825 4384 
Q 1516 4384 1395 4259 
Q 1275 4134 1275 3809 
L 1275 3500 
L 2222 3500 
L 2222 3053 
L 1275 3053 
L 1275 0 
L 697 0 
L 697 3053 
L 147 3053 
L 147 3500 
L 697 3500 
L 697 3744 
Q 697 4328 969 4595 
Q 1241 4863 1831 4863 
L 2375 4863 
z
" id="DejaVuSans-66" transform="scale(0.015625)"/>
       <path d="M 628 4666 
L 1478 4666 
L 3547 763 
L 3547 4666 
L 4159 4666 
L 4159 0 
L 3309 0 
L 1241 3903 
L 1241 0 
L 628 0 
L 628 4666 
z
" id="DejaVuSans-4e" transform="scale(0.015625)"/>
       <path d="M 3597 1894 
L 3597 1613 
L 953 1613 
Q 991 1019 1311 708 
Q 1631 397 2203 397 
Q 2534 397 2845 478 
Q 3156 559 3463 722 
L 3463 178 
Q 3153 47 2828 -22 
Q 2503 -91 2169 -91 
Q 1331 -91 842 396 
Q 353 884 353 1716 
Q 353 2575 817 3079 
Q 1281 3584 2069 3584 
Q 2775 3584 3186 3129 
Q 3597 2675 3597 1894 
z
M 3022 2063 
Q 3016 2534 2758 2815 
Q 2500 3097 2075 3097 
Q 1594 3097 1305 2825 
Q 1016 2553 972 2059 
L 3022 2063 
z
" id="DejaVuSans-65" transform="scale(0.015625)"/>
       <path d="M 269 3500 
L 844 3500 
L 1563 769 
L 2278 3500 
L 2956 3500 
L 3675 769 
L 4391 3500 
L 4966 3500 
L 4050 0 
L 3372 0 
L 2619 2869 
L 1863 0 
L 1184 0 
L 269 3500 
z
" id="DejaVuSans-77" transform="scale(0.015625)"/>
       <path d="M -19 4666 
L 3928 4666 
L 3928 4134 
L 2272 4134 
L 2272 0 
L 1638 0 
L 1638 4134 
L -19 4134 
L -19 4666 
z
" id="DejaVuSans-54" transform="scale(0.015625)"/>
       <path d="M 3122 3366 
L 3122 2828 
Q 2878 2963 2633 3030 
Q 2388 3097 2138 3097 
Q 1578 3097 1268 2742 
Q 959 2388 959 1747 
Q 959 1106 1268 751 
Q 1578 397 2138 397 
Q 2388 397 2633 464 
Q 2878 531 3122 666 
L 3122 134 
Q 2881 22 2623 -34 
Q 2366 -91 2075 -91 
Q 1284 -91 818 406 
Q 353 903 353 1747 
Q 353 2603 823 3093 
Q 1294 3584 2113 3584 
Q 2378 3584 2631 3529 
Q 2884 3475 3122 3366 
z
" id="DejaVuSans-63" transform="scale(0.015625)"/>
       <path d="M 3513 2113 
L 3513 0 
L 2938 0 
L 2938 2094 
Q 2938 2591 2744 2837 
Q 2550 3084 2163 3084 
Q 1697 3084 1428 2787 
Q 1159 2491 1159 1978 
L 1159 0 
L 581 0 
L 581 4863 
L 1159 4863 
L 1159 2956 
Q 1366 3272 1645 3428 
Q 1925 3584 2291 3584 
Q 2894 3584 3203 3211 
Q 3513 2838 3513 2113 
z
" id="DejaVuSans-68" transform="scale(0.015625)"/>
       <path d="M 603 4863 
L 1178 4863 
L 1178 0 
L 603 0 
L 603 4863 
z
" id="DejaVuSans-6c" transform="scale(0.015625)"/>
       <path d="M 2906 1791 
Q 2906 2416 2648 2759 
Q 2391 3103 1925 3103 
Q 1463 3103 1205 2759 
Q 947 2416 947 1791 
Q 947 1169 1205 825 
Q 1463 481 1925 481 
Q 2391 481 2648 825 
Q 2906 1169 2906 1791 
z
M 3481 434 
Q 3481 -459 3084 -895 
Q 2688 -1331 1869 -1331 
Q 1566 -1331 1297 -1286 
Q 1028 -1241 775 -1147 
L 775 -588 
Q 1028 -725 1275 -790 
Q 1522 -856 1778 -856 
Q 2344 -856 2625 -561 
Q 2906 -266 2906 331 
L 2906 616 
Q 2728 306 2450 153 
Q 2172 0 1784 0 
Q 1141 0 747 490 
Q 353 981 353 1791 
Q 353 2603 747 3093 
Q 1141 3584 1784 3584 
Q 2172 3584 2450 3431 
Q 2728 3278 2906 2969 
L 2906 3500 
L 3481 3500 
L 3481 434 
z
" id="DejaVuSans-67" transform="scale(0.015625)"/>
       <path d="M 2059 -325 
Q 1816 -950 1584 -1140 
Q 1353 -1331 966 -1331 
L 506 -1331 
L 506 -850 
L 844 -850 
Q 1081 -850 1212 -737 
Q 1344 -625 1503 -206 
L 1606 56 
L 191 3500 
L 800 3500 
L 1894 763 
L 2988 3500 
L 3597 3500 
L 2059 -325 
z
" id="DejaVuSans-79" transform="scale(0.015625)"/>
       <path d="M 3809 666 
L 3809 1919 
L 2778 1919 
L 2778 2438 
L 4434 2438 
L 4434 434 
Q 4069 175 3628 42 
Q 3188 -91 2688 -91 
Q 1594 -91 976 548 
Q 359 1188 359 2328 
Q 359 3472 976 4111 
Q 1594 4750 2688 4750 
Q 3144 4750 3555 4637 
Q 3966 4525 4313 4306 
L 4313 3634 
Q 3963 3931 3569 4081 
Q 3175 4231 2741 4231 
Q 1884 4231 1454 3753 
Q 1025 3275 1025 2328 
Q 1025 1384 1454 906 
Q 1884 428 2741 428 
Q 3075 428 3337 486 
Q 3600 544 3809 666 
z
" id="DejaVuSans-47" transform="scale(0.015625)"/>
       <path d="M 2906 2969 
L 2906 4863 
L 3481 4863 
L 3481 0 
L 2906 0 
L 2906 525 
Q 2725 213 2448 61 
Q 2172 -91 1784 -91 
Q 1150 -91 751 415 
Q 353 922 353 1747 
Q 353 2572 751 3078 
Q 1150 3584 1784 3584 
Q 2172 3584 2448 3432 
Q 2725 3281 2906 2969 
z
M 947 1747 
Q 947 1113 1208 752 
Q 1469 391 1925 391 
Q 2381 391 2643 752 
Q 2906 1113 2906 1747 
Q 2906 2381 2643 2742 
Q 2381 3103 1925 3103 
Q 1469 3103 1208 2742 
Q 947 2381 947 1747 
z
" id="DejaVuSans-64" transform="scale(0.015625)"/>
       <path d="M 1984 4856 
Q 1566 4138 1362 3434 
Q 1159 2731 1159 2009 
Q 1159 1288 1364 580 
Q 1569 -128 1984 -844 
L 1484 -844 
Q 1016 -109 783 600 
Q 550 1309 550 2009 
Q 550 2706 781 3412 
Q 1013 4119 1484 4856 
L 1984 4856 
z
" id="DejaVuSans-28" transform="scale(0.015625)"/>
       <path d="M 4653 2053 
Q 4381 2053 4226 1822 
Q 4072 1591 4072 1178 
Q 4072 772 4226 539 
Q 4381 306 4653 306 
Q 4919 306 5073 539 
Q 5228 772 5228 1178 
Q 5228 1588 5073 1820 
Q 4919 2053 4653 2053 
z
M 4653 2450 
Q 5147 2450 5437 2106 
Q 5728 1763 5728 1178 
Q 5728 594 5436 251 
Q 5144 -91 4653 -91 
Q 4153 -91 3862 251 
Q 3572 594 3572 1178 
Q 3572 1766 3864 2108 
Q 4156 2450 4653 2450 
z
M 1428 4353 
Q 1159 4353 1004 4120 
Q 850 3888 850 3481 
Q 850 3069 1003 2837 
Q 1156 2606 1428 2606 
Q 1700 2606 1854 2837 
Q 2009 3069 2009 3481 
Q 2009 3884 1853 4118 
Q 1697 4353 1428 4353 
z
M 4250 4750 
L 4750 4750 
L 1831 -91 
L 1331 -91 
L 4250 4750 
z
M 1428 4750 
Q 1922 4750 2215 4408 
Q 2509 4066 2509 3481 
Q 2509 2891 2217 2550 
Q 1925 2209 1428 2209 
Q 931 2209 642 2551 
Q 353 2894 353 3481 
Q 353 4063 643 4406 
Q 934 4750 1428 4750 
z
" id="DejaVuSans-25" transform="scale(0.015625)"/>
       <path d="M 513 4856 
L 1013 4856 
Q 1481 4119 1714 3412 
Q 1947 2706 1947 2009 
Q 1947 1309 1714 600 
Q 1481 -109 1013 -844 
L 513 -844 
Q 928 -128 1133 580 
Q 1338 1288 1338 2009 
Q 1338 2731 1133 3434 
Q 928 4138 513 4856 
z
" id="DejaVuSans-29" transform="scale(0.015625)"/>
      </defs>
      <use xlink:href="#DejaVuSans-50"/>
      <use x="58.552734" xlink:href="#DejaVuSans-72"/>
      <use x="97.416016" xlink:href="#DejaVuSans-6f"/>
      <use x="158.597656" xlink:href="#DejaVuSans-70"/>
      <use x="222.074219" xlink:href="#DejaVuSans-6f"/>
      <use x="283.255859" xlink:href="#DejaVuSans-72"/>
      <use x="324.369141" xlink:href="#DejaVuSans-74"/>
      <use x="363.578125" xlink:href="#DejaVuSans-69"/>
      <use x="391.361328" xlink:href="#DejaVuSans-6f"/>
      <use x="452.542969" xlink:href="#DejaVuSans-6e"/>
      <use x="515.921875" xlink:href="#DejaVuSans-20"/>
      <use x="547.708984" xlink:href="#DejaVuSans-6f"/>
      <use x="608.890625" xlink:href="#DejaVuSans-66"/>
      <use x="644.095703" xlink:href="#DejaVuSans-20"/>
      <use x="675.882812" xlink:href="#DejaVuSans-4e"/>
      <use x="750.6875" xlink:href="#DejaVuSans-65"/>
      <use x="812.210938" xlink:href="#DejaVuSans-77"/>
      <use x="893.998047" xlink:href="#DejaVuSans-20"/>
      <use x="925.785156" xlink:href="#DejaVuSans-54"/>
      <use x="969.869141" xlink:href="#DejaVuSans-65"/>
      <use x="1031.392578" xlink:href="#DejaVuSans-63"/>
      <use x="1086.373047" xlink:href="#DejaVuSans-68"/>
      <use x="1149.751953" xlink:href="#DejaVuSans-6e"/>
      <use x="1213.130859" xlink:href="#DejaVuSans-6f"/>
      <use x="1274.3125" xlink:href="#DejaVuSans-6c"/>
      <use x="1302.095703" xlink:href="#DejaVuSans-6f"/>
      <use x="1363.277344" xlink:href="#DejaVuSans-67"/>
      <use x="1426.753906" xlink:href="#DejaVuSans-79"/>
      <use x="1485.933594" xlink:href="#DejaVuSans-20"/>
      <use x="1517.720703" xlink:href="#DejaVuSans-69"/>
      <use x="1545.503906" xlink:href="#DejaVuSans-6e"/>
      <use x="1608.882812" xlink:href="#DejaVuSans-20"/>
      <use x="1640.669922" xlink:href="#DejaVuSans-47"/>
      <use x="1718.160156" xlink:href="#DejaVuSans-72"/>
      <use x="1759.273438" xlink:href="#DejaVuSans-69"/>
      <use x="1787.056641" xlink:href="#DejaVuSans-64"/>
      <use x="1850.533203" xlink:href="#DejaVuSans-20"/>
      <use x="1882.320312" xlink:href="#DejaVuSans-28"/>
      <use x="1921.333984" xlink:href="#DejaVuSans-25"/>
      <use x="2016.353516" xlink:href="#DejaVuSans-29"/>
     </g>
    </g>
   </g>
   <g id="matplotlib.axis_2">
    <g id="ytick_1">
     <g id="line2d_7">
      <defs>
       <path d="M 0 0 
L -3.5 0 
" id="m75102d1dcd" style="stroke:#000000;stroke-width:0.8;"/>
      </defs>
      <g>
       <use style="stroke:#000000;stroke-width:0.8;" x="54" xlink:href="#m75102d1dcd" y="512.64"/>
      </g>
     </g>
     <g id="text_8">
      <!-- 0 -->
      <g transform="translate(40.6375 516.439219)scale(0.1 -0.1)">
       <use xlink:href="#DejaVuSans-30"/>
      </g>
     </g>
    </g>
    <g id="ytick_2">
     <g id="line2d_8">
      <g>
       <use style="stroke:#000000;stroke-width:0.8;" x="54" xlink:href="#m75102d1dcd" y="441.518431"/>
      </g>
     </g>
     <g id="text_9">
      <!-- 50 -->
      <g transform="translate(34.275 445.31765)scale(0.1 -0.1)">
       <defs>
        <path d="M 691 4666 
L 3169 4666 
L 3169 4134 
L 1269 4134 
L 1269 2991 
Q 1406 3038 1543 3061 
Q 1681 3084 1819 3084 
Q 2600 3084 3056 2656 
Q 3513 2228 3513 1497 
Q 3513 744 3044 326 
Q 2575 -91 1722 -91 
Q 1428 -91 1123 -41 
Q 819 9 494 109 
L 494 744 
Q 775 591 1075 516 
Q 1375 441 1709 441 
Q 2250 441 2565 725 
Q 2881 1009 2881 1497 
Q 2881 1984 2565 2268 
Q 2250 2553 1709 2553 
Q 1456 2553 1204 2497 
Q 953 2441 691 2322 
L 691 4666 
z
" id="DejaVuSans-35" transform="scale(0.015625)"/>
       </defs>
       <use xlink:href="#DejaVuSans-35"/>
       <use x="63.623047" xlink:href="#DejaVuSans-30"/>
      </g>
     </g>
    </g>
    <g id="ytick_3">
     <g id="line2d_9">
      <g>
       <use style="stroke:#000000;stroke-width:0.8;" x="54" xlink:href="#m75102d1dcd" y="370.396862"/>
      </g>
     </g>
     <g id="text_10">
      <!-- 100 -->
      <g transform="translate(27.9125 374.196081)scale(0.1 -0.1)">
       <use xlink:href="#DejaVuSans-31"/>
       <use x="63.623047" xlink:href="#DejaVuSans-30"/>
       <use x="127.246094" xlink:href="#DejaVuSans-30"/>
      </g>
     </g>
    </g>
    <g id="ytick_4">
     <g id="line2d_10">
      <g>
       <use style="stroke:#000000;stroke-width:0.8;" x="54" xlink:href="#m75102d1dcd" y="299.275293"/>
      </g>
     </g>
     <g id="text_11">
      <!-- 150 -->
      <g transform="translate(27.9125 303.074512)scale(0.1 -0.1)">
       <use xlink:href="#DejaVuSans-31"/>
       <use x="63.623047" xlink:href="#DejaVuSans-35"/>
       <use x="127.246094" xlink:href="#DejaVuSans-30"/>
      </g>
     </g>
    </g>
    <g id="ytick_5">
     <g id="line2d_11">
      <g>
       <use style="stroke:#000000;stroke-width:0.8;" x="54" xlink:href="#m75102d1dcd" y="228.153724"/>
      </g>
     </g>
     <g id="text_12">
      <!-- 200 -->
      <g transform="translate(27.9125 231.952943)scale(0.1 -0.1)">
       <use xlink:href="#DejaVuSans-32"/>
       <use x="63.623047" xlink:href="#DejaVuSans-30"/>
       <use x="127.246094" xlink:href="#DejaVuSans-30"/>
      </g>
     </g>
    </g>
    <g id="ytick_6">
     <g id="line2d_12">
      <g>
       <use style="stroke:#000000;stroke-width:0.8;" x="54" xlink:href="#m75102d1dcd" y="157.032155"/>
      </g>
     </g>
     <g id="text_13">
      <!-- 250 -->
      <g transform="translate(27.9125 160.831374)scale(0.1 -0.1)">
       <use xlink:href="#DejaVuSans-32"/>
       <use x="63.623047" xlink:href="#DejaVuSans-35"/>
       <use x="127.246094" xlink:href="#DejaVuSans-30"/>
      </g>
     </g>
    </g>
    <g id="ytick_7">
     <g id="line2d_13">
      <g>
       <use style="stroke:#000000;stroke-width:0.8;" x="54" xlink:href="#m75102d1dcd" y="85.910586"/>
      </g>
     </g>
     <g id="text_14">
      <!-- 300 -->
      <g transform="translate(27.9125 89.709805)scale(0.1 -0.1)">
       <defs>
        <path d="M 2597 2516 
Q 3050 2419 3304 2112 
Q 3559 1806 3559 1356 
Q 3559 666 3084 287 
Q 2609 -91 1734 -91 
Q 1441 -91 1130 -33 
Q 819 25 488 141 
L 488 750 
Q 750 597 1062 519 
Q 1375 441 1716 441 
Q 2309 441 2620 675 
Q 2931 909 2931 1356 
Q 2931 1769 2642 2001 
Q 2353 2234 1838 2234 
L 1294 2234 
L 1294 2753 
L 1863 2753 
Q 2328 2753 2575 2939 
Q 2822 3125 2822 3475 
Q 2822 3834 2567 4026 
Q 2313 4219 1838 4219 
Q 1578 4219 1281 4162 
Q 984 4106 628 3988 
L 628 4550 
Q 988 4650 1302 4700 
Q 1616 4750 1894 4750 
Q 2613 4750 3031 4423 
Q 3450 4097 3450 3541 
Q 3450 3153 3228 2886 
Q 3006 2619 2597 2516 
z
" id="DejaVuSans-33" transform="scale(0.015625)"/>
       </defs>
       <use xlink:href="#DejaVuSans-33"/>
       <use x="63.623047" xlink:href="#DejaVuSans-30"/>
       <use x="127.246094" xlink:href="#DejaVuSans-30"/>
      </g>
     </g>
    </g>
    <g id="text_15">
     <!-- Energy Generated (TWh) -->
     <g transform="translate(21.832812 353.158906)rotate(-90)scale(0.1 -0.1)">
      <defs>
       <path d="M 628 4666 
L 3578 4666 
L 3578 4134 
L 1259 4134 
L 1259 2753 
L 3481 2753 
L 3481 2222 
L 1259 2222 
L 1259 531 
L 3634 531 
L 3634 0 
L 628 0 
L 628 4666 
z
" id="DejaVuSans-45" transform="scale(0.015625)"/>
       <path d="M 2194 1759 
Q 1497 1759 1228 1600 
Q 959 1441 959 1056 
Q 959 750 1161 570 
Q 1363 391 1709 391 
Q 2188 391 2477 730 
Q 2766 1069 2766 1631 
L 2766 1759 
L 2194 1759 
z
M 3341 1997 
L 3341 0 
L 2766 0 
L 2766 531 
Q 2569 213 2275 61 
Q 1981 -91 1556 -91 
Q 1019 -91 701 211 
Q 384 513 384 1019 
Q 384 1609 779 1909 
Q 1175 2209 1959 2209 
L 2766 2209 
L 2766 2266 
Q 2766 2663 2505 2880 
Q 2244 3097 1772 3097 
Q 1472 3097 1187 3025 
Q 903 2953 641 2809 
L 641 3341 
Q 956 3463 1253 3523 
Q 1550 3584 1831 3584 
Q 2591 3584 2966 3190 
Q 3341 2797 3341 1997 
z
" id="DejaVuSans-61" transform="scale(0.015625)"/>
       <path d="M 213 4666 
L 850 4666 
L 1831 722 
L 2809 4666 
L 3519 4666 
L 4500 722 
L 5478 4666 
L 6119 4666 
L 4947 0 
L 4153 0 
L 3169 4050 
L 2175 0 
L 1381 0 
L 213 4666 
z
" id="DejaVuSans-57" transform="scale(0.015625)"/>
      </defs>
      <use xlink:href="#DejaVuSans-45"/>
      <use x="63.183594" xlink:href="#DejaVuSans-6e"/>
      <use x="126.5625" xlink:href="#DejaVuSans-65"/>
      <use x="188.085938" xlink:href="#DejaVuSans-72"/>
      <use x="227.449219" xlink:href="#DejaVuSans-67"/>
      <use x="290.925781" xlink:href="#DejaVuSans-79"/>
      <use x="350.105469" xlink:href="#DejaVuSans-20"/>
      <use x="381.892578" xlink:href="#DejaVuSans-47"/>
      <use x="459.382812" xlink:href="#DejaVuSans-65"/>
      <use x="520.90625" xlink:href="#DejaVuSans-6e"/>
      <use x="584.285156" xlink:href="#DejaVuSans-65"/>
      <use x="645.808594" xlink:href="#DejaVuSans-72"/>
      <use x="686.921875" xlink:href="#DejaVuSans-61"/>
      <use x="748.201172" xlink:href="#DejaVuSans-74"/>
      <use x="787.410156" xlink:href="#DejaVuSans-65"/>
      <use x="848.933594" xlink:href="#DejaVuSans-64"/>
      <use x="912.410156" xlink:href="#DejaVuSans-20"/>
      <use x="944.197266" xlink:href="#DejaVuSans-28"/>
      <use x="983.210938" xlink:href="#DejaVuSans-54"/>
      <use x="1044.294922" xlink:href="#DejaVuSans-57"/>
      <use x="1143.171875" xlink:href="#DejaVuSans-68"/>
      <use x="1206.550781" xlink:href="#DejaVuSans-29"/>
     </g>
    </g>
   </g>
   <g id="patch_3">
    <path d="M 54 512.64 
L 54 69.12 
" style="fill:none;stroke:#000000;stroke-linecap:square;stroke-linejoin:miter;stroke-width:0.8;"/>
   </g>
   <g id="patch_4">
    <path d="M 388.8 512.64 
L 388.8 69.12 
" style="fill:none;stroke:#000000;stroke-linecap:square;stroke-linejoin:miter;stroke-width:0.8;"/>
   </g>
   <g id="patch_5">
    <path d="M 54 512.64 
L 388.8 512.64 
" style="fill:none;stroke:#000000;stroke-linecap:square;stroke-linejoin:miter;stroke-width:0.8;"/>
   </g>
   <g id="patch_6">
    <path d="M 54 69.12 
L 388.8 69.12 
" style="fill:none;stroke:#000000;stroke-linecap:square;stroke-linejoin:miter;stroke-width:0.8;"/>
   </g>
  </g>
 </g>
 <defs>
  <clipPath id="pd184e1d396">
   <rect height="443.52" width="334.8" x="54" y="69.12"/>
  </clipPath>
 </defs>
</svg>
